<?xml version="1.0" encoding="UTF-8" standalone="no"?>
<svg
        width="174.033mm"
        height="118.089mm"
        viewBox="0 0 8222 5579"
        version="1.1"
        id="svg1122"
        sodipodi:docname="sheet11b.svg"
        inkscape:version="1.1.1 (3bf5ae0d25, 2021-09-20)"
        xmlns:inkscape="http://www.inkscape.org/namespaces/inkscape"
        xmlns:sodipodi="http://sodipodi.sourceforge.net/DTD/sodipodi-0.dtd"
        xmlns="http://www.w3.org/2000/svg"
>
    <defs
            id="defs1126"/>
    <sodipodi:namedview
            id="namedview1124"
            pagecolor="#ffffff"
            bordercolor="#666666"
            borderopacity="1.0"
            inkscape:pageshadow="2"
            inkscape:pageopacity="0.0"
            inkscape:pagecheckerboard="0"
            inkscape:document-units="mm"
            showgrid="false"
            inkscape:zoom="1.6084832"
            inkscape:cx="328.57042"
            inkscape:cy="222.88078"
            inkscape:window-width="1920"
            inkscape:window-height="1001"
            inkscape:window-x="-7"
            inkscape:window-y="-7"
            inkscape:window-maximized="1"
            inkscape:current-layer="svg1122"/>
    <path
            id="Selection"
            fill="none"
            stroke="black"
            stroke-width="1"
            d="M 67.00,2522.00            C 78.08,2513.88 82.26,2498.47 76.18,2486.00              72.15,2477.73 67.69,2476.60 64.59,2467.00              64.59,2467.00 61.51,2454.00 61.51,2454.00              61.51,2454.00 62.99,2443.00 62.99,2443.00              63.13,2436.86 62.32,2436.16 61.77,2431.00              61.20,2425.72 63.89,2424.43 64.00,2415.00              64.15,2401.69 62.11,2403.33 62.00,2394.00              62.00,2394.00 62.00,2378.00 62.00,2378.00              62.00,2378.00 58.00,2342.00 58.00,2342.00              58.00,2342.00 56.00,2319.00 56.00,2319.00              56.11,2309.79 59.37,2307.12 58.91,2299.00              58.91,2299.00 57.96,2292.00 57.96,2292.00              57.96,2292.00 57.96,2284.00 57.96,2284.00              57.96,2284.00 56.34,2275.00 56.34,2275.00              56.35,2271.44 59.16,2264.20 60.11,2260.00              60.11,2260.00 61.91,2237.00 61.91,2237.00              61.91,2237.00 60.75,2217.00 60.75,2217.00              61.21,2210.28 64.15,2210.72 64.00,2197.00              63.92,2190.24 63.09,2190.50 62.30,2185.00              62.30,2185.00 60.85,2162.00 60.85,2162.00              60.89,2155.99 64.01,2154.58 64.83,2147.00              65.91,2137.01 63.25,2131.49 63.38,2128.00              63.38,2128.00 66.72,2115.00 66.72,2115.00              66.72,2115.00 68.17,2092.00 68.17,2092.00              68.68,2086.88 70.22,2083.55 69.91,2078.00              69.58,2072.15 68.56,2063.51 66.78,2058.00              66.78,2058.00 62.39,2047.00 62.39,2047.00              61.49,2042.87 60.71,2028.54 60.82,2024.00              61.08,2020.28 59.91,2015.94 60.82,2013.00              62.02,2008.44 67.51,2003.33 67.96,1993.00              68.15,1988.63 66.89,1974.92 65.44,1971.00              63.32,1965.25 60.18,1962.55 57.97,1953.00              57.97,1953.00 57.97,1929.00 57.97,1929.00              57.97,1929.00 60.06,1915.00 60.06,1915.00              60.06,1915.00 60.06,1907.00 60.06,1907.00              60.06,1907.00 61.96,1897.00 61.96,1897.00              62.29,1889.53 59.88,1882.39 59.17,1875.00              58.37,1866.62 59.91,1861.49 60.00,1854.00              60.00,1854.00 60.00,1840.00 60.00,1840.00              60.00,1840.00 61.00,1827.00 61.00,1827.00              61.00,1827.00 60.21,1814.00 60.21,1814.00              60.21,1814.00 61.83,1766.00 61.83,1766.00              61.83,1766.00 61.83,1754.00 61.83,1754.00              61.83,1754.00 60.45,1743.00 60.45,1743.00              60.45,1743.00 62.96,1720.00 62.96,1720.00              62.96,1720.00 60.18,1697.00 60.18,1697.00              60.18,1697.00 60.96,1690.00 60.96,1690.00              60.96,1690.00 59.83,1671.00 59.83,1671.00              59.83,1671.00 58.21,1662.00 58.21,1662.00              58.21,1662.00 59.08,1651.00 59.08,1651.00              59.08,1651.00 59.08,1636.00 59.08,1636.00              59.08,1636.00 60.83,1626.00 60.83,1626.00              61.44,1620.55 62.51,1611.95 65.30,1607.18              67.14,1604.04 72.05,1601.32 74.96,1598.70              80.95,1593.31 84.41,1586.13 83.91,1578.00              83.41,1569.86 76.33,1557.87 70.82,1552.09              68.06,1549.20 63.94,1547.01 62.10,1543.91              59.96,1540.28 61.05,1530.62 61.00,1526.00              61.00,1526.00 59.47,1508.00 59.47,1508.00              59.65,1504.08 61.36,1501.63 60.91,1495.00              60.91,1495.00 59.30,1486.00 59.30,1486.00              59.30,1486.00 58.34,1473.00 58.34,1473.00              58.34,1473.00 60.06,1462.00 60.06,1462.00              60.06,1462.00 60.06,1447.00 60.06,1447.00              60.06,1447.00 62.83,1436.00 62.83,1436.00              62.83,1436.00 62.32,1423.00 62.32,1423.00              62.32,1423.00 62.92,1414.00 62.92,1414.00              62.92,1414.00 62.92,1405.00 62.92,1405.00              62.92,1405.00 61.74,1397.00 61.74,1397.00              61.74,1397.00 62.94,1388.00 62.94,1388.00              62.94,1388.00 62.94,1371.00 62.94,1371.00              62.94,1371.00 61.59,1356.00 61.59,1356.00              61.59,1356.00 64.99,1331.00 64.99,1331.00              64.99,1331.00 64.18,1320.00 64.18,1320.00              64.37,1317.41 65.20,1306.64 66.02,1305.00              66.02,1305.00 74.21,1295.00 74.21,1295.00              78.32,1289.23 80.25,1282.05 79.96,1275.00              79.77,1270.31 78.85,1268.30 77.51,1264.00              76.57,1260.99 75.97,1257.86 74.60,1255.00              72.37,1250.37 69.92,1248.55 67.71,1245.00              63.90,1238.88 62.01,1231.12 61.96,1224.00              61.96,1224.00 61.96,1211.00 61.96,1211.00              61.96,1211.00 61.01,1202.00 61.01,1202.00              61.01,1202.00 62.01,1189.00 62.01,1189.00              62.01,1189.00 62.01,1181.00 62.01,1181.00              62.01,1181.00 64.48,1170.00 64.48,1170.00              65.60,1163.86 64.12,1160.67 64.48,1157.00              64.41,1153.03 66.17,1150.43 65.96,1144.00              65.67,1135.32 61.24,1129.67 61.01,1120.00              60.73,1107.59 64.10,1109.35 68.05,1100.00              70.61,1093.94 69.73,1087.26 71.40,1081.00              72.88,1075.47 77.31,1072.44 76.96,1062.00              76.74,1055.49 70.91,1042.66 67.52,1037.00              67.52,1037.00 62.98,1030.00 62.98,1030.00              62.98,1030.00 58.26,1011.00 58.26,1011.00              58.26,1011.00 58.91,1001.00 58.91,1001.00              58.91,1001.00 57.54,986.00 57.54,986.00              57.94,982.18 60.96,977.86 60.85,970.00              60.85,970.00 60.85,963.00 60.85,963.00              60.85,963.00 60.85,949.00 60.85,949.00              60.98,937.17 59.05,938.25 58.77,933.00              58.77,933.00 58.77,920.00 58.77,920.00              59.15,907.28 64.97,896.96 64.97,889.00              64.98,869.67 58.31,867.48 60.30,854.00              60.30,854.00 65.56,827.00 65.56,827.00              67.14,822.22 71.42,819.66 72.70,811.00              74.22,800.74 70.61,793.44 70.09,785.00              70.09,785.00 71.46,767.00 71.46,767.00              72.10,763.38 72.80,762.05 72.96,758.00              73.26,750.57 71.44,745.11 67.23,739.00              65.02,735.79 60.39,730.48 59.17,727.00              57.44,722.09 61.05,703.48 62.59,698.00              64.13,692.52 70.67,681.34 74.61,677.49              74.61,677.49 84.00,671.47 84.00,671.47              91.25,665.82 96.48,656.35 95.91,647.00              95.61,642.21 94.14,639.36 92.74,635.00              90.20,627.08 88.23,618.49 82.67,612.04              78.70,607.43 71.03,602.84 68.39,597.96              64.69,591.14 64.10,583.38 62.32,576.00              61.43,572.27 59.34,568.71 59.14,565.00              58.89,560.13 61.29,556.76 60.91,550.00              60.65,545.41 58.92,539.38 59.50,535.00              59.50,535.00 61.39,523.00 61.39,523.00              62.34,518.60 64.64,516.37 64.96,509.00              65.56,495.35 59.70,495.53 63.13,481.00              64.97,473.24 76.69,458.11 75.96,440.00              75.60,431.07 70.12,423.80 70.00,415.00              69.95,410.87 70.22,408.16 69.33,404.00              69.33,404.00 66.76,394.00 66.76,394.00              66.76,394.00 70.52,380.09 70.52,380.09              71.84,376.32 75.07,374.11 77.47,371.00              81.33,366.01 83.30,360.32 82.91,354.00              82.18,342.09 75.29,336.66 73.56,330.00              71.16,320.82 75.42,315.86 75.91,308.00              76.23,302.69 73.32,293.12 71.44,288.00              70.46,285.31 68.77,282.94 68.73,280.00              68.73,280.00 76.04,246.00 76.04,246.00              76.04,246.00 76.04,233.00 76.04,233.00              76.04,233.00 76.96,225.00 76.96,225.00              76.96,225.00 76.39,214.00 76.39,214.00              76.39,214.00 78.63,201.00 78.63,201.00              78.63,201.00 81.33,193.00 81.33,193.00              81.33,193.00 85.22,178.00 85.22,178.00              85.22,178.00 88.78,169.00 88.78,169.00              88.78,169.00 91.53,157.00 91.53,157.00              94.62,149.79 100.47,141.40 104.96,135.00              108.53,129.91 115.49,116.40 120.38,113.27              120.38,113.27 126.00,111.05 126.00,111.05              126.00,111.05 133.00,107.68 133.00,107.68              133.00,107.68 155.00,103.19 155.00,103.19              160.93,102.95 160.68,105.03 175.00,103.19              180.84,102.17 186.54,100.28 192.00,98.08              194.05,97.25 197.90,95.05 199.96,95.23              203.22,95.52 204.91,99.33 205.91,102.00              208.99,110.23 208.70,114.07 216.04,120.82              225.67,129.68 235.24,129.34 247.00,131.32              255.29,132.72 253.41,133.98 264.00,134.00              264.00,134.00 275.00,134.00 275.00,134.00              275.00,134.00 292.00,135.00 292.00,135.00              292.00,135.00 307.00,134.17 307.00,134.17              315.59,135.08 315.22,137.13 327.00,137.00              327.00,137.00 344.00,135.04 344.00,135.04              344.00,135.04 357.00,136.00 357.00,136.00              357.00,136.00 380.00,136.00 380.00,136.00              380.00,136.00 397.00,137.97 397.00,137.97              397.00,137.97 424.00,136.00 424.00,136.00              424.00,136.00 464.00,136.00 464.00,136.00              464.00,136.00 476.00,135.10 476.00,135.10              481.77,135.38 481.72,136.98 492.00,137.00              492.00,137.00 522.00,136.00 522.00,136.00              522.00,136.00 548.00,137.99 548.00,137.99              548.00,137.99 573.00,136.00 573.00,136.00              573.00,136.00 589.00,137.00 589.00,137.00              589.00,137.00 596.00,137.00 596.00,137.00              605.10,136.99 607.13,135.39 611.00,135.34              611.00,135.34 631.00,137.83 631.00,137.83              631.00,137.83 642.00,137.83 642.00,137.83              645.87,137.97 647.36,139.21 654.00,138.74              654.00,138.74 662.00,138.74 662.00,138.74              662.00,138.74 686.00,139.96 686.00,139.96              686.00,139.96 697.00,138.60 697.00,138.60              697.00,138.60 708.00,139.96 708.00,139.96              708.00,139.96 725.00,139.00 725.00,139.00              725.00,139.00 745.00,140.00 745.00,140.00              745.00,140.00 773.00,140.00 773.00,140.00              773.00,140.00 788.00,139.00 788.00,139.00              788.00,139.00 809.00,139.00 809.00,139.00              809.00,139.00 832.00,140.96 832.00,140.96              839.94,140.64 841.35,138.02 853.00,138.00              853.00,138.00 888.00,137.00 888.00,137.00              888.00,137.00 901.00,137.96 901.00,137.96              901.00,137.96 920.00,137.00 920.00,137.00              920.00,137.00 939.00,138.00 939.00,138.00              939.00,138.00 958.00,136.72 958.00,136.72              958.00,136.72 972.00,138.00 972.00,138.00              985.07,138.02 982.19,136.60 990.00,135.84              993.62,135.48 997.16,136.79 1001.00,136.98              1001.00,136.98 1014.00,136.98 1014.00,136.98              1014.00,136.98 1036.00,139.00 1036.00,139.00              1036.00,139.00 1054.00,138.00 1054.00,138.00              1054.00,138.00 1067.00,139.00 1067.00,139.00              1067.00,139.00 1089.00,139.00 1089.00,139.00              1089.00,139.00 1108.00,137.16 1108.00,137.16              1108.00,137.16 1137.00,137.16 1137.00,137.16              1137.00,137.16 1152.00,137.96 1152.00,137.96              1152.00,137.96 1165.00,137.96 1165.00,137.96              1165.00,137.96 1177.00,137.01 1177.00,137.01              1177.00,137.01 1189.00,138.00 1189.00,138.00              1189.00,138.00 1212.00,138.00 1212.00,138.00              1212.00,138.00 1227.00,138.91 1227.00,138.91              1227.00,138.91 1238.00,137.37 1238.00,137.37              1238.00,137.37 1248.00,138.00 1248.00,138.00              1248.00,138.00 1293.00,138.00 1293.00,138.00              1293.00,138.00 1311.00,136.08 1311.00,136.08              1311.00,136.08 1319.00,136.91 1319.00,136.91              1319.00,136.91 1347.00,137.84 1347.00,137.84              1347.00,137.84 1354.00,137.84 1354.00,137.84              1354.00,137.84 1370.00,137.84 1370.00,137.84              1370.00,137.84 1385.00,139.00 1385.00,139.00              1385.00,139.00 1404.00,137.74 1404.00,137.74              1404.00,137.74 1417.00,138.95 1417.00,138.95              1417.00,138.95 1435.00,138.95 1435.00,138.95              1435.00,138.95 1450.00,138.00 1450.00,138.00              1450.00,138.00 1468.00,139.00 1468.00,139.00              1468.00,139.00 1498.00,136.75 1498.00,136.75              1498.00,136.75 1537.00,140.00 1537.00,140.00              1537.00,140.00 1556.00,138.09 1556.00,138.09              1556.00,138.09 1569.00,138.09 1569.00,138.09              1569.00,138.09 1583.00,139.00 1583.00,139.00              1583.00,139.00 1600.00,140.00 1600.00,140.00              1600.00,140.00 1617.00,140.00 1617.00,140.00              1617.00,140.00 1645.00,137.18 1645.00,137.18              1645.00,137.18 1654.00,138.70 1654.00,138.70              1654.00,138.70 1673.00,140.00 1673.00,140.00              1673.00,140.00 1682.00,140.00 1682.00,140.00              1682.00,140.00 1712.00,142.00 1712.00,142.00              1712.00,142.00 1732.00,142.00 1732.00,142.00              1732.00,142.00 1742.00,141.34 1742.00,141.34              1742.00,141.34 1757.00,142.00 1757.00,142.00              1765.47,141.90 1767.36,139.88 1774.00,139.09              1774.00,139.09 1799.00,139.09 1799.00,139.09              1799.00,139.09 1815.00,140.00 1815.00,140.00              1815.00,140.00 1837.00,139.00 1837.00,139.00              1837.00,139.00 1859.00,137.96 1859.00,137.96              1859.00,137.96 1873.00,137.96 1873.00,137.96              1873.00,137.96 1881.00,136.88 1881.00,136.88              1881.00,136.88 1894.00,136.88 1894.00,136.88              1894.00,136.88 1913.00,139.00 1913.00,139.00              1913.00,139.00 1928.00,138.10 1928.00,138.10              1928.00,138.10 1953.00,140.00 1953.00,140.00              1953.00,140.00 2017.00,140.00 2017.00,140.00              2017.00,140.00 2032.00,139.09 2032.00,139.09              2032.00,139.09 2050.00,139.09 2050.00,139.09              2057.54,139.98 2057.72,141.63 2068.00,140.91              2068.00,140.91 2103.00,136.01 2103.00,136.01              2103.00,136.01 2124.00,138.04 2124.00,138.04              2124.00,138.04 2137.00,138.04 2137.00,138.04              2137.00,138.04 2149.00,139.00 2149.00,139.00              2149.00,139.00 2167.00,138.18 2167.00,138.18              2167.00,138.18 2185.00,139.00 2185.00,139.00              2185.00,139.00 2199.00,141.06 2199.00,141.06              2199.00,141.06 2206.00,141.06 2206.00,141.06              2211.29,142.06 2211.57,142.99 2218.00,142.99              2230.11,142.99 2235.50,138.52 2244.00,137.30              2253.45,135.94 2262.36,138.30 2271.00,137.96              2271.00,137.96 2291.00,136.01 2291.00,136.01              2291.00,136.01 2313.00,136.01 2313.00,136.01              2313.00,136.01 2333.00,136.01 2333.00,136.01              2333.00,136.01 2346.00,137.00 2346.00,137.00              2346.00,137.00 2373.00,136.00 2373.00,136.00              2373.00,136.00 2387.00,136.96 2387.00,136.96              2387.00,136.96 2396.00,136.32 2396.00,136.32              2396.00,136.32 2422.00,138.98 2422.00,138.98              2426.89,139.08 2427.70,138.58 2432.00,138.17              2432.00,138.17 2455.00,137.00 2455.00,137.00              2455.00,137.00 2482.00,139.00 2482.00,139.00              2482.00,139.00 2503.00,139.00 2503.00,139.00              2503.00,139.00 2515.00,138.04 2515.00,138.04              2515.00,138.04 2529.00,138.04 2529.00,138.04              2529.00,138.04 2541.00,136.96 2541.00,136.96              2541.00,136.96 2549.00,136.96 2549.00,136.96              2553.10,136.44 2554.44,135.86 2559.00,136.04              2559.00,136.04 2576.00,137.91 2576.00,137.91              2576.00,137.91 2607.00,136.72 2607.00,136.72              2607.00,136.72 2615.00,137.83 2615.00,137.83              2615.00,137.83 2641.00,138.75 2641.00,138.75              2641.00,138.75 2651.00,138.75 2651.00,138.75              2651.00,138.75 2672.00,139.91 2672.00,139.91              2672.00,139.91 2686.00,138.21 2686.00,138.21              2693.56,138.69 2692.86,141.20 2710.00,141.00              2710.00,141.00 2742.00,139.00 2742.00,139.00              2742.00,139.00 2764.00,139.00 2764.00,139.00              2764.00,139.00 2778.00,138.09 2778.00,138.09              2784.84,138.53 2784.79,139.98 2795.00,140.00              2795.00,140.00 2811.00,140.00 2811.00,140.00              2811.00,140.00 2835.00,139.00 2835.00,139.00              2835.00,139.00 2851.00,139.99 2851.00,139.99              2851.00,139.99 2864.00,139.00 2864.00,139.00              2864.00,139.00 2878.00,139.00 2878.00,139.00              2878.00,139.00 2895.00,138.00 2895.00,138.00              2904.70,138.13 2902.80,140.98 2916.00,141.00              2916.00,141.00 2958.00,141.00 2958.00,141.00              2958.00,141.00 2979.00,138.91 2979.00,138.91              2979.00,138.91 2998.00,138.91 2998.00,138.91              2998.00,138.91 3006.00,138.91 3006.00,138.91              3010.79,139.02 3009.81,139.99 3019.00,139.96              3019.00,139.96 3032.00,139.96 3032.00,139.96              3032.00,139.96 3041.00,139.03 3041.00,139.03              3041.00,139.03 3050.00,139.95 3050.00,139.95              3050.00,139.95 3067.00,139.95 3067.00,139.95              3067.00,139.95 3090.00,138.34 3090.00,138.34              3090.00,138.34 3104.00,139.00 3104.00,139.00              3104.00,139.00 3120.00,140.00 3120.00,140.00              3120.00,140.00 3137.00,138.01 3137.00,138.01              3137.00,138.01 3156.00,139.96 3156.00,139.96              3156.00,139.96 3169.00,139.96 3169.00,139.96              3169.00,139.96 3182.00,139.00 3182.00,139.00              3182.00,139.00 3206.00,141.96 3206.00,141.96              3211.96,141.72 3214.14,140.12 3219.00,139.32              3219.00,139.32 3246.00,137.00 3246.00,137.00              3246.00,137.00 3251.00,137.00 3251.00,137.00              3251.00,137.00 3266.00,138.00 3266.00,138.00              3266.00,138.00 3311.00,138.00 3311.00,138.00              3311.00,138.00 3323.00,137.04 3323.00,137.04              3323.00,137.04 3336.00,137.04 3336.00,137.04              3336.00,137.04 3366.00,135.04 3366.00,135.04              3366.00,135.04 3381.00,136.00 3381.00,136.00              3381.00,136.00 3391.00,137.04 3391.00,137.04              3391.00,137.04 3402.00,137.04 3402.00,137.04              3402.00,137.04 3411.00,137.99 3411.00,137.99              3411.00,137.99 3421.00,137.04 3421.00,137.04              3421.00,137.04 3434.00,137.04 3434.00,137.04              3434.00,137.04 3449.00,136.00 3449.00,136.00              3449.00,136.00 3488.00,136.00 3488.00,136.00              3488.00,136.00 3507.00,138.00 3507.00,138.00              3507.00,138.00 3530.00,138.00 3530.00,138.00              3542.13,138.06 3540.82,141.17 3556.00,141.00              3556.00,141.00 3570.00,140.04 3570.00,140.04              3570.00,140.04 3597.00,141.99 3597.00,141.99              3597.00,141.99 3614.00,139.79 3614.00,139.79              3614.00,139.79 3637.00,139.79 3637.00,139.79              3637.00,139.79 3646.00,140.96 3646.00,140.96              3646.00,140.96 3666.00,140.96 3666.00,140.96              3666.00,140.96 3700.00,138.86 3700.00,138.86              3700.00,138.86 3711.00,138.86 3711.00,138.86              3711.00,138.86 3747.00,138.86 3747.00,138.86              3747.00,138.86 3781.00,137.00 3781.00,137.00              3781.00,137.00 3795.00,137.00 3795.00,137.00              3795.00,137.00 3812.00,138.00 3812.00,138.00              3812.00,138.00 3825.00,137.00 3825.00,137.00              3825.00,137.00 3849.00,137.00 3849.00,137.00              3849.00,137.00 3866.00,138.00 3866.00,138.00              3866.00,138.00 3903.00,138.00 3903.00,138.00              3903.00,138.00 3918.00,137.09 3918.00,137.09              3918.00,137.09 3932.00,137.09 3932.00,137.09              3932.00,137.09 3950.00,139.00 3950.00,139.00              3950.00,139.00 3963.00,139.00 3963.00,139.00              3963.00,139.00 3981.00,140.00 3981.00,140.00              3981.00,140.00 4000.00,138.70 4000.00,138.70              4009.48,137.33 4006.03,135.85 4019.00,136.00              4019.00,136.00 4039.00,137.96 4039.00,137.96              4039.00,137.96 4051.00,137.08 4051.00,137.08              4051.00,137.08 4062.00,138.00 4062.00,138.00              4065.96,138.04 4075.68,137.32 4078.72,139.31              4081.98,141.45 4081.26,145.52 4087.18,151.96              4096.04,161.58 4105.51,164.14 4118.00,164.00              4127.58,163.88 4133.31,160.98 4139.91,153.99              4146.72,146.76 4145.63,143.24 4150.12,140.57              4153.13,138.78 4156.64,139.01 4160.00,139.00              4160.00,139.00 4166.00,139.00 4166.00,139.00              4166.00,139.00 4181.00,138.00 4181.00,138.00              4181.00,138.00 4190.00,138.00 4190.00,138.00              4190.00,138.00 4205.00,137.00 4205.00,137.00              4205.00,137.00 4215.00,137.00 4215.00,137.00              4215.00,137.00 4229.00,138.00 4229.00,138.00              4229.00,138.00 4233.00,138.00 4233.00,138.00              4233.00,138.00 4252.00,136.00 4252.00,136.00              4252.00,136.00 4262.00,136.00 4262.00,136.00              4262.00,136.00 4277.00,135.00 4277.00,135.00              4277.00,135.00 4300.00,135.00 4300.00,135.00              4300.00,135.00 4316.00,136.00 4316.00,136.00              4316.00,136.00 4347.00,134.00 4347.00,134.00              4347.00,134.00 4371.00,134.00 4371.00,134.00              4371.00,134.00 4386.00,135.00 4386.00,135.00              4386.00,135.00 4405.00,135.00 4405.00,135.00              4405.00,135.00 4420.00,133.92 4420.00,133.92              4420.00,133.92 4449.00,133.92 4449.00,133.92              4449.00,133.92 4463.00,133.92 4463.00,133.92              4463.00,133.92 4478.00,135.00 4478.00,135.00              4478.00,135.00 4506.00,135.00 4506.00,135.00              4506.00,135.00 4521.00,135.99 4521.00,135.99              4521.00,135.99 4533.00,135.01 4533.00,135.01              4533.00,135.01 4551.00,136.00 4551.00,136.00              4551.00,136.00 4571.00,135.00 4571.00,135.00              4571.00,135.00 4588.00,135.00 4588.00,135.00              4588.00,135.00 4599.00,134.08 4599.00,134.08              4599.00,134.08 4610.00,134.91 4610.00,134.91              4610.00,134.91 4620.00,134.00 4620.00,134.00              4620.00,134.00 4639.00,134.00 4639.00,134.00              4639.00,134.00 4659.00,133.00 4659.00,133.00              4659.00,133.00 4676.00,134.00 4676.00,134.00              4686.28,134.13 4687.51,137.25 4699.00,136.99              4707.00,136.80 4712.68,133.82 4717.00,133.41              4717.00,133.41 4735.00,135.00 4735.00,135.00              4735.00,135.00 4756.00,133.83 4756.00,133.83              4760.14,133.40 4763.80,132.01 4768.00,132.32              4768.00,132.32 4802.00,133.00 4802.00,133.00              4814.31,132.98 4814.75,129.99 4821.00,130.58              4826.00,130.85 4830.98,131.41 4836.00,130.58              4836.00,130.58 4842.00,129.55 4842.00,129.55              4846.78,129.06 4849.09,131.18 4856.00,130.96              4856.00,130.96 4880.00,128.08 4880.00,128.08              4889.39,128.08 4900.88,133.88 4911.00,134.00              4911.00,134.00 4948.00,131.07 4948.00,131.07              4952.01,129.99 4954.36,128.40 4958.00,126.87              4964.25,124.24 4976.26,120.78 4983.00,121.04              4983.00,121.04 4991.00,121.95 4991.00,121.95              4991.00,121.95 5005.00,121.95 5005.00,121.95              5005.00,121.95 5032.00,120.04 5032.00,120.04              5032.00,120.04 5056.00,122.96 5056.00,122.96              5056.00,122.96 5067.00,122.96 5067.00,122.96              5067.00,122.96 5076.00,122.06 5076.00,122.06              5082.41,122.26 5083.09,124.94 5094.00,125.00              5094.00,125.00 5112.00,126.00 5112.00,126.00              5112.00,126.00 5125.00,126.00 5125.00,126.00              5125.00,126.00 5144.00,127.00 5144.00,127.00              5144.00,127.00 5157.00,127.96 5157.00,127.96              5157.00,127.96 5175.00,125.92 5175.00,125.92              5175.00,125.92 5189.00,125.92 5189.00,125.92              5189.00,125.92 5201.00,124.10 5201.00,124.10              5201.00,124.10 5212.00,124.99 5212.00,124.99              5212.00,124.99 5238.00,123.00 5238.00,123.00              5238.00,123.00 5264.00,123.00 5264.00,123.00              5264.00,123.00 5283.00,124.30 5283.00,124.30              5288.51,125.08 5288.21,125.92 5295.00,126.00              5307.87,126.15 5305.39,124.65 5313.00,124.09              5313.00,124.09 5354.00,123.00 5354.00,123.00              5364.46,123.14 5373.59,129.85 5386.00,130.00              5386.00,130.00 5421.00,130.00 5421.00,130.00              5421.00,130.00 5453.00,125.04 5453.00,125.04              5459.46,124.77 5464.74,126.23 5471.00,126.92              5471.00,126.92 5483.00,126.92 5483.00,126.92              5483.00,126.92 5498.00,128.00 5498.00,128.00              5498.00,128.00 5518.00,128.00 5518.00,128.00              5518.00,128.00 5533.00,127.00 5533.00,127.00              5533.00,127.00 5550.00,127.00 5550.00,127.00              5550.00,127.00 5570.00,128.00 5570.00,128.00              5570.00,128.00 5585.00,127.01 5585.00,127.01              5585.00,127.01 5606.00,129.00 5606.00,129.00              5606.00,129.00 5621.00,128.18 5621.00,128.18              5624.49,128.43 5626.02,129.14 5630.00,128.91              5630.00,128.91 5647.00,127.00 5647.00,127.00              5647.00,127.00 5662.00,127.99 5662.00,127.99              5672.66,128.23 5673.91,125.90 5679.00,125.41              5679.00,125.41 5703.00,126.00 5703.00,126.00              5703.00,126.00 5718.00,126.96 5718.00,126.96              5718.00,126.96 5736.00,126.00 5736.00,126.00              5736.00,126.00 5750.00,124.72 5750.00,124.72              5755.19,124.76 5757.94,126.90 5766.00,127.00              5776.72,127.12 5778.00,125.42 5783.00,125.26              5783.00,125.26 5793.00,125.91 5793.00,125.91              5793.00,125.91 5825.00,124.00 5825.00,124.00              5825.00,124.00 5843.00,122.83 5843.00,122.83              5843.00,122.83 5851.00,121.58 5851.00,121.58              5851.00,121.58 5875.00,124.00 5875.00,124.00              5875.00,124.00 5879.00,124.00 5879.00,124.00              5888.03,123.89 5894.54,120.96 5903.00,119.46              5909.74,118.27 5910.58,119.97 5920.00,117.63              5935.32,113.81 5929.85,112.21 5948.00,112.00              5957.87,111.88 5967.36,109.15 5977.00,107.46              5977.00,107.46 5990.00,106.70 5990.00,106.70              5990.00,106.70 6000.00,104.46 6000.00,104.46              6000.00,104.46 6017.00,102.87 6017.00,102.87              6021.10,102.67 6023.72,104.92 6029.00,105.90              6029.00,105.90 6051.00,105.90 6051.00,105.90              6051.00,105.90 6072.00,105.90 6072.00,105.90              6089.58,105.97 6090.03,100.37 6101.00,95.93              6101.00,95.93 6129.00,86.64 6129.00,86.64              6129.00,86.64 6138.00,82.72 6138.00,82.72              6144.80,79.88 6154.63,78.33 6162.00,77.79              6162.00,77.79 6170.00,77.79 6170.00,77.79              6170.00,77.79 6177.00,77.79 6177.00,77.79              6186.35,78.29 6202.76,84.06 6212.00,86.79              6212.00,86.79 6223.00,89.22 6223.00,89.22              6238.86,94.11 6254.15,99.80 6271.00,100.00              6279.92,100.10 6284.20,100.25 6293.00,97.84              6293.00,97.84 6301.00,95.38 6301.00,95.38              6301.00,95.38 6312.00,94.32 6312.00,94.32              6312.00,94.32 6322.00,91.02 6322.00,91.02              6322.00,91.02 6329.00,91.02 6329.00,91.02              6329.00,91.02 6336.00,89.82 6336.00,89.82              6336.00,89.82 6358.00,89.82 6358.00,89.82              6358.00,89.82 6371.00,90.96 6371.00,90.96              6385.00,91.50 6389.44,84.93 6401.00,80.21              6405.24,78.48 6409.56,79.28 6414.00,78.33              6414.00,78.33 6431.00,72.61 6431.00,72.61              6433.80,71.90 6435.33,72.12 6438.00,71.83              6438.00,71.83 6445.00,70.84 6445.00,70.84              6448.97,70.90 6450.60,72.96 6460.00,73.00              6480.70,73.10 6472.92,67.77 6493.00,68.00              6500.95,68.10 6508.25,70.56 6516.00,71.70              6520.89,72.42 6528.53,72.61 6533.00,74.51              6537.98,76.62 6539.60,80.58 6548.00,83.09              6548.00,83.09 6563.00,87.32 6563.00,87.32              6563.00,87.32 6572.00,88.85 6572.00,88.85              6572.00,88.85 6579.00,92.10 6579.00,92.10              6579.00,92.10 6592.00,96.78 6592.00,96.78              6592.00,96.78 6608.00,100.76 6608.00,100.76              6608.00,100.76 6629.00,114.10 6629.00,114.10              6634.57,116.96 6637.18,116.35 6641.00,117.80              6641.00,117.80 6649.00,122.10 6649.00,122.10              6649.00,122.10 6655.00,124.60 6655.00,124.60              6660.58,127.00 6662.21,129.72 6669.00,131.32              6669.00,131.32 6689.00,134.51 6689.00,134.51              6695.99,135.96 6699.27,137.91 6707.00,138.00              6722.91,138.18 6725.80,134.45 6739.00,131.81              6739.00,131.81 6752.00,130.71 6752.00,130.71              6752.00,130.71 6765.00,128.13 6765.00,128.13              6765.00,128.13 6781.00,126.20 6781.00,126.20              6793.48,123.80 6795.90,120.51 6804.00,118.68              6808.68,117.62 6815.97,118.06 6821.00,118.00              6826.35,117.93 6830.31,117.29 6835.00,114.52              6838.68,112.35 6841.98,108.90 6846.00,107.65              6846.00,107.65 6856.00,106.39 6856.00,106.39              6856.00,106.39 6869.00,103.21 6869.00,103.21              6872.83,102.66 6874.43,103.30 6879.00,102.07              6879.00,102.07 6897.00,95.59 6897.00,95.59              6902.00,94.01 6919.69,91.01 6925.00,91.00              6925.00,91.00 6935.00,91.00 6935.00,91.00              6940.32,90.93 6947.82,89.47 6953.00,88.08              6953.00,88.08 6960.00,86.10 6960.00,86.10              6960.00,86.10 6970.00,86.10 6970.00,86.10              6978.25,85.90 6981.59,83.77 6989.00,82.46              6989.00,82.46 7029.00,79.13 7029.00,79.13              7029.00,79.13 7041.00,81.94 7041.00,81.94              7041.00,81.94 7050.00,81.94 7050.00,81.94              7050.00,81.94 7060.00,84.10 7060.00,84.10              7060.00,84.10 7070.00,84.10 7070.00,84.10              7070.00,84.10 7093.00,88.00 7093.00,88.00              7099.77,88.07 7112.87,87.03 7119.00,84.53              7124.93,82.10 7127.96,78.39 7133.00,76.61              7133.00,76.61 7141.00,74.56 7141.00,74.56              7141.00,74.56 7160.00,69.42 7160.00,69.42              7160.00,69.42 7185.00,63.78 7185.00,63.78              7191.77,61.63 7194.67,58.21 7199.00,56.39              7203.17,54.64 7223.15,50.32 7228.00,50.10              7231.09,49.97 7240.30,51.04 7243.00,52.27              7243.00,52.27 7250.00,56.05 7250.00,56.05              7250.00,56.05 7260.00,58.95 7260.00,58.95              7260.00,58.95 7271.00,63.78 7271.00,63.78              7274.45,64.85 7286.29,66.10 7290.00,65.96              7290.00,65.96 7303.00,65.01 7303.00,65.01              7303.00,65.01 7327.00,66.96 7327.00,66.96              7327.00,66.96 7350.00,63.08 7350.00,63.08              7350.00,63.08 7374.00,63.08 7374.00,63.08              7374.00,63.08 7399.00,58.76 7399.00,58.76              7402.94,58.84 7405.08,61.88 7415.00,62.00              7430.30,62.17 7432.41,58.32 7445.00,54.93              7445.00,54.93 7461.00,52.58 7461.00,52.58              7461.00,52.58 7479.00,46.90 7479.00,46.90              7481.96,46.16 7492.39,44.05 7495.00,44.21              7499.21,44.47 7502.13,46.38 7509.00,45.91              7509.00,45.91 7529.00,42.19 7529.00,42.19              7540.46,41.24 7558.54,50.06 7569.00,54.65              7569.00,54.65 7581.00,58.24 7581.00,58.24              7589.73,61.35 7595.44,64.72 7603.00,70.04              7603.00,70.04 7614.00,78.25 7614.00,78.25              7614.00,78.25 7622.00,82.77 7622.00,82.77              7631.73,88.68 7635.54,92.99 7648.00,92.99              7662.66,92.99 7666.46,85.39 7677.00,77.37              7677.00,77.37 7693.00,67.78 7693.00,67.78              7695.83,66.27 7710.53,62.61 7714.00,62.18              7714.00,62.18 7722.00,61.32 7722.00,61.32              7728.10,59.91 7729.81,57.42 7735.00,55.94              7743.04,53.64 7744.37,56.60 7751.00,58.78              7757.26,60.84 7764.40,62.39 7771.00,61.91              7779.41,61.30 7782.06,58.67 7789.00,55.40              7789.00,55.40 7796.00,52.60 7796.00,52.60              7799.16,51.07 7802.77,47.85 7806.00,47.47              7806.00,47.47 7819.00,49.69 7819.00,49.69              7819.00,49.69 7831.00,49.69 7831.00,49.69              7831.00,49.69 7845.00,53.77 7845.00,53.77              7845.00,53.77 7865.00,53.77 7865.00,53.77              7872.45,54.09 7872.46,55.24 7878.00,55.83              7886.00,56.68 7894.60,55.70 7901.82,60.28              7906.16,63.03 7906.89,67.95 7916.00,72.63              7923.02,76.23 7939.62,82.71 7944.85,88.13              7949.35,92.79 7946.99,95.55 7950.09,104.00              7954.51,116.04 7965.18,123.48 7978.00,122.96              7982.07,122.80 7985.93,121.22 7990.00,121.75              7998.37,122.86 8002.83,127.18 8010.00,128.53              8019.59,130.34 8021.67,126.71 8033.00,131.93              8039.33,134.84 8041.46,139.75 8049.00,143.05              8049.00,143.05 8066.00,150.25 8066.00,150.25              8066.00,150.25 8081.00,154.41 8081.00,154.41              8081.00,154.41 8095.00,162.94 8095.00,162.94              8095.00,162.94 8109.00,171.04 8109.00,171.04              8119.34,178.81 8124.03,185.60 8132.18,195.00              8139.33,203.24 8139.96,204.74 8145.28,214.00              8146.57,216.24 8148.86,219.56 8149.17,222.00              8149.17,222.00 8149.17,233.00 8149.17,233.00              8149.26,243.66 8153.29,245.02 8155.62,254.00              8158.16,263.76 8154.90,266.52 8156.30,276.00              8157.41,283.50 8160.91,286.12 8161.62,291.00              8162.47,296.79 8157.58,305.67 8158.09,314.00              8158.47,320.17 8161.29,324.97 8161.24,328.00              8161.17,331.72 8157.90,335.06 8156.64,343.00              8155.12,350.47 8156.83,353.98 8156.64,359.00              8156.82,363.77 8154.74,367.36 8155.04,375.00              8155.22,379.66 8156.63,384.32 8155.73,389.00              8155.73,389.00 8146.93,412.00 8146.93,412.00              8145.10,418.68 8146.82,424.34 8145.30,429.00              8145.30,429.00 8137.22,448.00 8137.22,448.00              8137.22,448.00 8132.49,470.00 8132.49,470.00              8132.49,470.00 8127.46,488.00 8127.46,488.00              8127.46,488.00 8126.61,496.00 8126.61,496.00              8125.16,502.77 8122.02,503.16 8121.89,517.00              8121.89,517.00 8121.89,533.00 8121.89,533.00              8121.89,533.00 8118.93,542.00 8118.93,542.00              8118.93,542.00 8116.46,554.00 8116.46,554.00              8115.38,560.17 8116.87,563.10 8114.55,574.00              8114.55,574.00 8110.30,588.00 8110.30,588.00              8110.30,588.00 8107.04,616.00 8107.04,616.00              8107.04,616.00 8107.96,629.00 8107.96,629.00              8107.96,629.00 8106.83,644.00 8106.83,644.00              8106.29,648.99 8104.76,651.12 8105.09,657.00              8105.09,657.00 8106.00,673.00 8106.00,673.00              8106.00,673.00 8106.92,684.00 8106.92,684.00              8106.92,684.00 8103.59,712.00 8103.59,712.00              8102.46,716.60 8093.30,732.14 8094.09,745.00              8094.39,749.79 8096.14,752.89 8095.90,758.00              8095.90,758.00 8094.07,767.00 8094.07,767.00              8094.07,767.00 8094.07,774.00 8094.07,774.00              8093.00,782.57 8091.90,785.67 8092.00,795.00              8092.00,795.00 8093.96,827.00 8093.96,827.00              8093.96,827.00 8091.09,855.00 8091.09,855.00              8091.46,860.93 8093.95,863.55 8093.53,869.00              8093.53,869.00 8092.18,885.00 8092.18,885.00              8090.89,891.10 8088.68,894.26 8089.09,901.00              8089.09,901.00 8090.71,910.00 8090.71,910.00              8090.71,910.00 8094.11,937.00 8094.11,937.00              8094.11,937.00 8094.11,950.00 8094.11,950.00              8094.05,953.64 8092.78,955.85 8093.09,961.00              8093.09,961.00 8094.96,973.00 8094.96,973.00              8094.96,973.00 8093.16,1007.00 8093.16,1007.00              8093.16,1007.00 8093.16,1025.00 8093.16,1025.00              8093.16,1025.00 8093.16,1044.00 8093.16,1044.00              8093.16,1044.00 8092.09,1058.00 8092.09,1058.00              8092.09,1058.00 8093.70,1067.00 8093.70,1067.00              8093.70,1067.00 8094.79,1088.00 8094.79,1088.00              8094.79,1088.00 8092.17,1104.00 8092.17,1104.00              8092.17,1104.00 8091.63,1115.00 8091.63,1115.00              8090.26,1122.12 8089.04,1121.16 8089.00,1130.00              8089.00,1130.00 8089.00,1152.00 8089.00,1152.00              8089.00,1152.00 8089.98,1162.00 8089.98,1162.00              8089.98,1162.00 8089.98,1172.00 8089.98,1172.00              8089.98,1172.00 8090.79,1179.00 8090.79,1179.00              8090.79,1179.00 8090.09,1190.00 8090.09,1190.00              8090.44,1195.58 8092.33,1197.80 8091.96,1205.00              8091.58,1212.14 8087.53,1214.94 8088.09,1224.00              8088.56,1231.56 8091.41,1233.83 8093.61,1240.00              8095.57,1245.47 8095.99,1250.26 8096.00,1256.00              8096.00,1256.00 8096.00,1286.00 8096.00,1286.00              8096.00,1286.00 8098.34,1314.00 8098.34,1314.00              8098.34,1314.00 8098.34,1321.00 8098.34,1321.00              8098.34,1321.00 8098.34,1328.00 8098.34,1328.00              8098.34,1328.00 8095.30,1339.00 8095.30,1339.00              8095.30,1339.00 8093.18,1355.00 8093.18,1355.00              8093.18,1355.00 8093.18,1367.00 8093.18,1367.00              8093.18,1367.00 8093.18,1376.00 8093.18,1376.00              8093.18,1376.00 8093.98,1389.00 8093.98,1389.00              8093.98,1389.00 8093.04,1403.00 8093.04,1403.00              8093.04,1403.00 8094.00,1420.00 8094.00,1420.00              8094.00,1420.00 8093.04,1434.00 8093.04,1434.00              8093.04,1434.00 8093.70,1442.00 8093.70,1442.00              8093.70,1442.00 8091.47,1451.00 8091.47,1451.00              8091.47,1451.00 8090.09,1466.00 8090.09,1466.00              8089.53,1474.77 8092.87,1477.09 8091.83,1488.00              8091.83,1488.00 8087.09,1512.00 8087.09,1512.00              8086.37,1521.91 8089.22,1523.86 8088.34,1530.00              8087.69,1534.56 8086.02,1536.95 8084.93,1541.00              8083.78,1545.26 8082.01,1558.44 8082.00,1563.00              8082.00,1563.00 8082.00,1595.00 8082.00,1595.00              8082.00,1595.00 8080.09,1614.00 8080.09,1614.00              8080.43,1619.58 8082.27,1621.32 8081.96,1629.00              8081.96,1629.00 8080.04,1642.00 8080.04,1642.00              8080.04,1642.00 8081.00,1662.00 8081.00,1662.00              8080.87,1671.77 8076.50,1673.31 8077.09,1683.00              8077.57,1690.71 8082.24,1702.97 8082.63,1706.00              8082.63,1706.00 8082.01,1719.00 8082.01,1719.00              8082.21,1727.47 8084.56,1729.14 8085.61,1734.00              8086.33,1737.31 8085.69,1739.71 8087.55,1745.00              8088.67,1748.21 8090.83,1751.75 8091.43,1755.00              8092.36,1760.01 8089.66,1763.02 8090.09,1770.00              8090.51,1776.79 8093.39,1780.00 8093.70,1784.00              8093.70,1784.00 8091.14,1799.00 8091.14,1799.00              8091.14,1799.00 8091.14,1819.00 8091.14,1819.00              8091.01,1824.82 8091.50,1829.47 8093.56,1835.00              8095.03,1838.95 8096.90,1840.67 8097.95,1845.00              8100.46,1857.50 8097.60,1859.00 8097.95,1867.00              8098.42,1872.30 8100.36,1874.90 8099.79,1878.00              8099.08,1881.86 8094.64,1885.09 8094.09,1894.00              8093.73,1899.83 8095.41,1905.26 8098.79,1910.00              8100.44,1912.31 8103.46,1915.09 8104.47,1917.28              8105.69,1919.95 8105.82,1925.03 8106.17,1928.00              8106.83,1933.60 8108.29,1935.32 8107.96,1942.00              8107.71,1946.80 8106.28,1948.67 8105.47,1953.00              8105.47,1953.00 8104.56,1965.00 8104.56,1965.00              8103.71,1970.42 8101.75,1975.45 8102.09,1981.00              8102.09,1981.00 8104.29,1996.00 8104.29,1996.00              8104.29,1996.00 8104.29,2006.00 8104.29,2006.00              8104.29,2006.00 8106.24,2017.00 8106.24,2017.00              8106.16,2020.86 8102.58,2024.71 8103.09,2033.00              8103.36,2037.43 8105.05,2040.55 8104.67,2045.00              8104.23,2050.21 8102.65,2052.52 8103.09,2059.00              8103.45,2064.26 8105.63,2068.58 8105.22,2074.00              8104.80,2079.44 8102.71,2082.84 8103.09,2089.00              8103.56,2096.51 8107.05,2100.22 8107.51,2104.00              8108.04,2108.28 8105.12,2110.46 8105.15,2120.00              8105.15,2120.00 8105.15,2139.00 8105.15,2139.00              8106.26,2145.72 8108.26,2148.31 8107.96,2156.00              8107.96,2156.00 8107.09,2164.00 8107.09,2164.00              8106.33,2177.41 8113.20,2175.07 8113.00,2191.00              8112.87,2200.44 8108.13,2206.41 8108.13,2217.00              8108.13,2217.00 8108.13,2231.00 8108.13,2231.00              8108.13,2231.00 8108.13,2241.00 8108.13,2241.00              8108.13,2241.00 8108.13,2250.00 8108.13,2250.00              8108.13,2250.00 8108.82,2258.00 8108.82,2258.00              8108.82,2258.00 8108.04,2269.00 8108.04,2269.00              8108.04,2269.00 8108.68,2278.00 8108.68,2278.00              8108.68,2278.00 8108.04,2287.00 8108.04,2287.00              8108.20,2291.20 8109.37,2294.71 8108.79,2299.00              8108.15,2303.74 8105.71,2306.65 8106.31,2314.00              8106.31,2314.00 8106.31,2320.00 8106.31,2320.00              8106.31,2320.00 8105.30,2327.00 8105.30,2327.00              8105.30,2327.00 8102.74,2345.00 8102.74,2345.00              8102.74,2345.00 8100.46,2355.00 8100.46,2355.00              8100.46,2355.00 8099.04,2375.00 8099.04,2375.00              8098.53,2387.03 8102.54,2389.59 8103.38,2395.00              8103.97,2398.79 8102.38,2401.37 8102.09,2406.00              8102.09,2406.00 8103.74,2424.00 8103.74,2424.00              8103.74,2424.00 8100.06,2447.00 8100.06,2447.00              8100.06,2447.00 8100.06,2454.00 8100.06,2454.00              8100.06,2454.00 8094.04,2481.00 8094.04,2481.00              8093.79,2488.54 8096.10,2491.09 8096.79,2496.00              8096.79,2496.00 8098.17,2512.00 8098.17,2512.00              8098.17,2512.00 8101.70,2534.00 8101.70,2534.00              8101.70,2534.00 8102.30,2542.00 8102.30,2542.00              8103.24,2548.38 8106.01,2551.38 8106.52,2555.00              8107.12,2559.21 8104.72,2561.73 8105.04,2570.00              8105.04,2570.00 8106.92,2591.00 8106.92,2591.00              8106.92,2591.00 8106.00,2604.00 8106.00,2604.00              8106.00,2604.00 8106.62,2619.00 8106.62,2619.00              8106.29,2624.36 8105.02,2624.27 8105.00,2634.00              8105.00,2634.00 8105.00,2672.00 8105.00,2672.00              8105.00,2672.00 8103.00,2697.00 8103.00,2697.00              8103.00,2697.00 8106.70,2722.00 8106.70,2722.00              8106.70,2722.00 8107.43,2730.00 8107.43,2730.00              8107.43,2730.00 8108.74,2739.00 8108.74,2739.00              8108.74,2739.00 8104.04,2778.00 8104.04,2778.00              8104.04,2778.00 8104.82,2788.00 8104.82,2788.00              8104.54,2791.86 8103.79,2793.68 8104.09,2798.00              8104.09,2798.00 8105.66,2808.00 8105.66,2808.00              8105.66,2808.00 8105.15,2818.00 8105.15,2818.00              8105.15,2818.00 8105.15,2834.00 8105.15,2834.00              8105.15,2834.00 8107.78,2845.00 8107.78,2845.00              8107.78,2845.00 8107.01,2855.00 8107.01,2855.00              8107.01,2855.00 8107.91,2867.00 8107.91,2867.00              8107.91,2867.00 8109.00,2891.00 8109.00,2891.00              8109.05,2900.86 8111.06,2901.53 8111.34,2906.00              8111.34,2906.00 8110.04,2917.00 8110.04,2917.00              8109.64,2927.14 8112.93,2926.84 8113.00,2940.00              8113.04,2948.23 8114.82,2950.88 8114.82,2955.00              8114.82,2959.57 8112.72,2962.51 8112.94,2969.00              8113.85,2982.47 8114.89,2983.57 8112.94,2998.00              8112.04,3003.17 8108.60,3007.97 8109.09,3016.00              8109.09,3016.00 8110.70,3025.00 8110.70,3025.00              8110.70,3025.00 8111.92,3042.00 8111.92,3042.00              8111.92,3042.00 8108.09,3067.00 8108.09,3067.00              8107.50,3076.08 8110.83,3078.39 8110.23,3084.00              8110.23,3084.00 8108.96,3091.00 8108.96,3091.00              8108.96,3091.00 8108.96,3103.00 8108.96,3103.00              8108.96,3103.00 8107.04,3114.00 8107.04,3114.00              8107.04,3114.00 8107.78,3127.00 8107.78,3127.00              8107.78,3127.00 8103.09,3147.00 8103.09,3147.00              8102.44,3156.45 8105.98,3157.34 8106.00,3169.00              8106.00,3169.00 8106.81,3188.00 8106.81,3188.00              8106.81,3188.00 8105.16,3199.00 8105.16,3199.00              8105.16,3199.00 8105.16,3208.00 8105.16,3208.00              8105.16,3208.00 8105.16,3217.00 8105.16,3217.00              8105.16,3217.00 8105.16,3229.00 8105.16,3229.00              8105.16,3229.00 8107.21,3248.00 8107.21,3248.00              8107.21,3248.00 8107.21,3271.00 8107.21,3271.00              8107.17,3278.88 8109.68,3281.07 8109.16,3285.00              8109.16,3285.00 8106.47,3294.00 8106.47,3294.00              8106.47,3294.00 8105.79,3307.00 8105.79,3307.00              8105.79,3307.00 8103.68,3315.00 8103.68,3315.00              8103.68,3315.00 8101.93,3326.00 8101.93,3326.00              8101.48,3333.39 8103.82,3339.72 8101.93,3349.00              8100.47,3354.40 8092.30,3361.18 8093.09,3374.00              8093.79,3385.36 8108.58,3405.07 8109.82,3415.00              8109.82,3415.00 8110.37,3430.00 8110.37,3430.00              8109.98,3434.90 8108.53,3435.84 8109.09,3444.00              8109.09,3444.00 8111.25,3460.00 8111.25,3460.00              8111.25,3460.00 8110.09,3472.00 8110.09,3472.00              8109.71,3478.82 8111.56,3480.43 8112.63,3486.00              8112.63,3486.00 8114.25,3507.00 8114.25,3507.00              8114.25,3507.00 8113.01,3519.00 8113.01,3519.00              8113.01,3519.00 8113.66,3530.00 8113.66,3530.00              8113.66,3530.00 8113.00,3547.00 8113.00,3547.00              8113.06,3558.76 8116.39,3559.81 8116.35,3565.00              8116.35,3565.00 8112.63,3583.00 8112.63,3583.00              8111.45,3589.33 8112.41,3591.21 8112.63,3597.00              8113.42,3605.41 8109.03,3611.93 8109.03,3620.00              8109.03,3627.27 8111.62,3630.44 8111.58,3634.00              8111.56,3636.70 8109.69,3640.17 8108.93,3643.00              8107.90,3646.81 8107.87,3651.07 8108.04,3655.00              8108.04,3655.00 8110.16,3672.00 8110.16,3672.00              8109.75,3676.44 8108.72,3677.60 8109.09,3683.00              8109.40,3687.60 8111.16,3691.27 8110.89,3696.00              8110.89,3696.00 8108.21,3710.00 8108.21,3710.00              8108.21,3710.00 8108.21,3722.00 8108.21,3722.00              8107.72,3725.18 8105.18,3727.62 8103.56,3732.00              8102.36,3735.24 8099.88,3749.58 8100.09,3753.00              8100.54,3760.21 8103.02,3762.20 8105.04,3768.00              8105.04,3768.00 8107.37,3783.00 8107.37,3783.00              8107.96,3791.65 8101.58,3798.72 8102.04,3810.00              8102.04,3810.00 8104.79,3827.00 8104.79,3827.00              8104.79,3827.00 8103.00,3845.00 8103.00,3845.00              8102.94,3850.14 8102.64,3858.24 8103.93,3863.00              8105.14,3867.49 8107.94,3871.43 8108.20,3876.00              8108.20,3876.00 8108.20,3889.00 8108.20,3889.00              8108.20,3892.69 8109.21,3896.30 8108.81,3900.00              8108.22,3905.48 8106.01,3907.42 8106.01,3916.00              8106.01,3916.00 8107.46,3935.00 8107.46,3935.00              8107.97,3937.87 8109.59,3943.36 8109.49,3946.00              8109.32,3950.52 8106.23,3952.29 8104.55,3959.00              8102.96,3966.44 8105.06,3972.83 8104.55,3976.00              8104.55,3976.00 8098.93,3988.00 8098.93,3988.00              8096.36,3994.52 8093.86,4007.01 8094.01,4014.00              8094.14,4019.37 8096.16,4033.34 8098.40,4038.00              8101.69,4044.85 8106.28,4046.83 8106.43,4050.17              8106.55,4052.69 8102.74,4057.81 8101.56,4061.00              8100.06,4065.02 8096.84,4081.89 8097.09,4086.00              8097.09,4086.00 8100.95,4102.00 8100.95,4102.00              8102.29,4113.16 8099.62,4112.23 8100.09,4120.00              8100.59,4128.06 8103.41,4130.61 8105.59,4137.00              8105.59,4137.00 8107.93,4145.00 8107.93,4145.00              8107.93,4145.00 8110.62,4151.00 8110.62,4151.00              8111.96,4155.38 8109.60,4157.84 8110.09,4165.00              8110.09,4165.00 8113.32,4185.00 8113.32,4185.00              8113.32,4185.00 8113.32,4201.00 8113.32,4201.00              8112.52,4203.63 8109.73,4207.22 8108.40,4210.00              8108.40,4210.00 8103.92,4223.00 8103.92,4223.00              8103.92,4223.00 8101.17,4250.00 8101.17,4250.00              8100.19,4260.39 8103.28,4261.82 8106.03,4270.00              8108.48,4277.30 8111.24,4291.43 8110.68,4299.00              8110.68,4299.00 8110.04,4307.00 8110.04,4307.00              8110.04,4307.00 8111.52,4326.00 8111.52,4326.00              8110.62,4332.12 8104.54,4336.27 8105.04,4349.00              8105.57,4362.68 8110.65,4367.22 8110.95,4374.00              8110.95,4374.00 8109.83,4397.00 8109.83,4397.00              8109.22,4402.66 8107.75,4403.78 8108.04,4411.00              8108.30,4417.36 8110.46,4420.84 8110.78,4425.00              8110.78,4425.00 8110.09,4436.00 8110.09,4436.00              8110.50,4442.62 8113.41,4446.37 8113.78,4451.00              8113.78,4451.00 8112.03,4465.00 8112.03,4465.00              8112.03,4465.00 8113.98,4484.00 8113.98,4484.00              8113.82,4492.44 8109.68,4501.08 8110.09,4509.00              8110.71,4521.05 8108.23,4518.58 8108.01,4528.00              8108.01,4528.00 8109.46,4544.00 8109.46,4544.00              8109.15,4547.31 8107.24,4549.95 8107.04,4556.00              8106.83,4562.49 8108.66,4565.14 8108.66,4569.00              8108.66,4572.81 8106.89,4574.71 8107.00,4585.00              8107.00,4585.00 8108.17,4597.00 8108.17,4597.00              8108.17,4597.00 8108.17,4607.00 8108.17,4607.00              8108.17,4607.00 8108.96,4618.00 8108.96,4618.00              8108.96,4618.00 8108.00,4629.00 8108.00,4629.00              8107.93,4635.68 8108.29,4642.39 8109.30,4649.00              8109.30,4649.00 8111.45,4658.00 8111.45,4658.00              8111.78,4661.87 8109.71,4664.75 8110.09,4671.00              8110.40,4676.05 8111.87,4678.05 8112.63,4682.00              8112.63,4682.00 8114.20,4699.00 8114.20,4699.00              8114.20,4699.00 8112.30,4708.00 8112.30,4708.00              8112.30,4708.00 8111.62,4720.00 8111.62,4720.00              8110.16,4727.38 8106.67,4734.05 8104.09,4741.00              8104.09,4741.00 8100.22,4752.00 8100.22,4752.00              8100.22,4752.00 8098.80,4757.83 8098.80,4757.83              8097.55,4761.36 8092.72,4765.14 8090.09,4768.00              8085.66,4772.82 8082.89,4777.40 8082.17,4784.00              8080.15,4802.63 8088.15,4809.38 8101.04,4820.83              8101.04,4820.83 8110.10,4827.63 8110.10,4827.63              8114.04,4832.62 8116.00,4850.44 8115.92,4857.00              8115.69,4875.93 8093.42,4879.60 8088.93,4896.00              8087.27,4902.06 8088.55,4906.67 8087.61,4911.00              8087.61,4911.00 8083.93,4921.00 8083.93,4921.00              8083.93,4921.00 8082.09,4944.00 8082.09,4944.00              8082.09,4944.00 8085.71,4961.00 8085.71,4961.00              8085.71,4961.00 8087.68,4983.00 8087.68,4983.00              8087.68,4983.00 8087.04,4992.00 8087.04,4992.00              8087.04,4992.00 8088.45,5003.00 8088.45,5003.00              8088.17,5006.42 8085.67,5010.12 8086.09,5017.00              8087.03,5032.13 8098.22,5032.05 8097.18,5047.00              8096.72,5053.57 8095.54,5060.84 8093.19,5067.00              8093.19,5067.00 8087.22,5080.00 8087.22,5080.00              8087.22,5080.00 8079.46,5110.00 8079.46,5110.00              8079.46,5110.00 8078.54,5120.00 8078.54,5120.00              8077.09,5128.25 8075.01,5136.60 8075.00,5145.00              8075.00,5145.00 8075.00,5154.00 8075.00,5154.00              8075.00,5154.00 8068.67,5181.00 8068.67,5181.00              8068.67,5181.00 8067.41,5195.00 8067.41,5195.00              8066.10,5198.66 8062.36,5201.32 8059.95,5207.00              8057.30,5213.26 8057.92,5223.09 8058.00,5230.00              8058.14,5241.66 8062.03,5244.25 8063.15,5251.00              8063.90,5254.32 8063.09,5257.66 8063.15,5261.00              8063.15,5261.00 8063.82,5273.00 8063.82,5273.00              8063.82,5273.00 8061.92,5283.00 8061.92,5283.00              8061.92,5283.00 8061.92,5294.00 8061.92,5294.00              8061.92,5294.00 8058.37,5311.00 8058.37,5311.00              8057.34,5314.74 8055.97,5316.44 8055.39,5321.00              8054.29,5327.83 8056.09,5333.25 8055.39,5337.00              8054.48,5343.15 8049.19,5348.02 8045.77,5353.00              8042.57,5357.66 8040.44,5364.35 8040.02,5370.00              8039.76,5375.40 8041.42,5377.69 8040.02,5381.00              8035.96,5389.94 8028.08,5389.21 8021.00,5393.48              8013.86,5397.78 8003.87,5407.88 7999.47,5415.00              7999.47,5415.00 7988.22,5438.00 7988.22,5438.00              7988.22,5438.00 7985.44,5452.00 7985.44,5452.00              7985.44,5452.00 7980.09,5463.00 7980.09,5463.00              7980.09,5463.00 7977.43,5474.61 7977.43,5474.61              7976.29,5476.98 7967.80,5481.27 7965.01,5483.52              7965.01,5483.52 7946.68,5502.98 7946.68,5502.98              7942.97,5505.19 7936.91,5502.63 7929.00,5505.56              7929.00,5505.56 7913.00,5514.80 7913.00,5514.80              7913.00,5514.80 7905.00,5517.22 7905.00,5517.22              7905.00,5517.22 7897.00,5520.07 7897.00,5520.07              7897.00,5520.07 7887.00,5521.89 7887.00,5521.89              7882.66,5522.88 7877.22,5525.25 7873.00,5524.78              7867.52,5524.17 7867.74,5522.05 7857.00,5522.09              7857.00,5522.09 7848.00,5522.09 7848.00,5522.09              7844.64,5522.53 7841.41,5523.85 7838.00,5523.61              7830.19,5523.07 7828.89,5519.83 7814.00,5520.00              7802.89,5520.13 7800.12,5523.74 7794.00,5524.66              7790.60,5525.17 7788.29,5524.28 7785.00,5524.09              7785.00,5524.09 7764.00,5525.86 7764.00,5525.86              7764.00,5525.86 7737.00,5525.86 7737.00,5525.86              7737.00,5525.86 7728.00,5526.68 7728.00,5526.68              7728.00,5526.68 7717.00,5526.00 7717.00,5526.00              7709.57,5526.09 7708.45,5527.51 7704.00,5527.79              7704.00,5527.79 7691.00,5527.00 7691.00,5527.00              7691.00,5527.00 7669.00,5527.00 7669.00,5527.00              7669.00,5527.00 7643.00,5525.09 7643.00,5525.09              7643.00,5525.09 7633.00,5525.96 7633.00,5525.96              7633.00,5525.96 7612.00,5524.02 7612.00,5524.02              7612.00,5524.02 7601.00,5524.96 7601.00,5524.96              7601.00,5524.96 7584.00,5524.96 7584.00,5524.96              7584.00,5524.96 7559.00,5526.25 7559.00,5526.25              7559.00,5526.25 7545.00,5525.04 7545.00,5525.04              7545.00,5525.04 7532.00,5525.04 7532.00,5525.04              7532.00,5525.04 7522.00,5526.00 7522.00,5526.00              7522.00,5526.00 7508.00,5525.05 7508.00,5525.05              7508.00,5525.05 7494.00,5525.05 7494.00,5525.05              7486.96,5525.09 7486.96,5526.05 7483.00,5526.18              7483.00,5526.18 7469.00,5526.18 7469.00,5526.18              7469.00,5526.18 7459.00,5525.05 7459.00,5525.05              7459.00,5525.05 7443.00,5525.05 7443.00,5525.05              7443.00,5525.05 7425.00,5526.90 7425.00,5526.90              7425.00,5526.90 7411.00,5526.00 7411.00,5526.00              7411.00,5526.00 7390.00,5527.00 7390.00,5527.00              7390.00,5527.00 7351.00,5527.00 7351.00,5527.00              7351.00,5527.00 7342.00,5527.66 7342.00,5527.66              7338.13,5527.61 7336.10,5526.01 7327.00,5526.00              7327.00,5526.00 7289.00,5527.00 7289.00,5527.00              7289.00,5527.00 7270.00,5525.01 7270.00,5525.01              7270.00,5525.01 7253.00,5526.00 7253.00,5526.00              7253.00,5526.00 7235.00,5525.01 7235.00,5525.01              7235.00,5525.01 7223.00,5525.91 7223.00,5525.91              7223.00,5525.91 7201.00,5525.91 7201.00,5525.91              7194.76,5525.16 7195.43,5524.04 7187.00,5524.00              7187.00,5524.00 7182.00,5524.00 7182.00,5524.00              7174.55,5524.09 7174.54,5525.24 7169.00,5525.91              7169.00,5525.91 7155.00,5525.91 7155.00,5525.91              7144.87,5525.86 7144.56,5521.57 7133.00,5522.04              7126.87,5522.29 7125.68,5523.73 7121.00,5524.63              7121.00,5524.63 7103.00,5525.96 7103.00,5525.96              7103.00,5525.96 7090.00,5524.04 7090.00,5524.04              7090.00,5524.04 7071.00,5526.10 7071.00,5526.10              7071.00,5526.10 7023.00,5526.10 7023.00,5526.10              7023.00,5526.10 7003.00,5526.10 7003.00,5526.10              7003.00,5526.10 6996.00,5526.10 6996.00,5526.10              6996.00,5526.10 6981.00,5526.10 6981.00,5526.10              6981.00,5526.10 6970.00,5526.82 6970.00,5526.82              6970.00,5526.82 6958.00,5526.00 6958.00,5526.00              6958.00,5526.00 6937.00,5527.00 6937.00,5527.00              6937.00,5527.00 6922.00,5527.00 6922.00,5527.00              6922.00,5527.00 6908.00,5526.09 6908.00,5526.09              6908.00,5526.09 6899.00,5526.97 6899.00,5526.97              6899.00,5526.97 6887.00,5526.09 6887.00,5526.09              6887.00,5526.09 6877.00,5527.00 6877.00,5527.00              6877.00,5527.00 6858.00,5527.00 6858.00,5527.00              6858.00,5527.00 6839.00,5525.00 6839.00,5525.00              6839.00,5525.00 6813.00,5526.00 6813.00,5526.00              6813.00,5526.00 6799.00,5525.00 6799.00,5525.00              6799.00,5525.00 6779.00,5525.00 6779.00,5525.00              6779.00,5525.00 6748.00,5522.09 6748.00,5522.09              6742.34,5522.50 6740.11,5524.22 6736.00,5524.98              6736.00,5524.98 6727.00,5524.98 6727.00,5524.98              6727.00,5524.98 6711.00,5527.00 6711.00,5527.00              6711.00,5527.00 6686.00,5527.00 6686.00,5527.00              6686.00,5527.00 6673.00,5527.91 6673.00,5527.91              6664.85,5527.41 6653.33,5522.64 6646.00,5523.09              6636.74,5523.66 6636.11,5527.94 6623.00,5528.00              6623.00,5528.00 6606.00,5528.00 6606.00,5528.00              6606.00,5528.00 6595.00,5527.20 6595.00,5527.20              6595.00,5527.20 6587.00,5527.20 6587.00,5527.20              6587.00,5527.20 6575.00,5527.20 6575.00,5527.20              6575.00,5527.20 6559.00,5527.20 6559.00,5527.20              6559.00,5527.20 6548.00,5524.61 6548.00,5524.61              6548.00,5524.61 6531.00,5523.03 6531.00,5523.03              6531.00,5523.03 6515.00,5524.47 6515.00,5524.47              6515.00,5524.47 6506.00,5526.90 6506.00,5526.90              6500.04,5527.66 6493.99,5527.01 6488.00,5526.90              6488.00,5526.90 6423.00,5526.00 6423.00,5526.00              6423.00,5526.00 6410.00,5525.09 6410.00,5525.09              6410.00,5525.09 6384.00,5527.00 6384.00,5527.00              6384.00,5527.00 6372.00,5526.03 6372.00,5526.03              6372.00,5526.03 6357.00,5527.00 6357.00,5527.00              6357.00,5527.00 6341.00,5526.00 6341.00,5526.00              6341.00,5526.00 6286.00,5526.00 6286.00,5526.00              6286.00,5526.00 6271.00,5525.01 6271.00,5525.01              6271.00,5525.01 6259.00,5526.00 6259.00,5526.00              6259.00,5526.00 6241.00,5526.00 6241.00,5526.00              6241.00,5526.00 6228.00,5526.90 6228.00,5526.90              6222.72,5526.64 6220.80,5524.74 6213.00,5525.04              6213.00,5525.04 6200.00,5526.00 6200.00,5526.00              6200.00,5526.00 6127.00,5525.00 6127.00,5525.00              6127.00,5525.00 6109.00,5525.90 6109.00,5525.90              6102.89,5525.33 6102.25,5523.10 6093.00,5523.00              6083.23,5522.90 6082.63,5524.56 6078.00,5524.74              6078.00,5524.74 6068.00,5524.09 6068.00,5524.09              6068.00,5524.09 6061.00,5524.96 6061.00,5524.96              6061.00,5524.96 6047.00,5524.96 6047.00,5524.96              6047.00,5524.96 6035.00,5524.04 6035.00,5524.04              6035.00,5524.04 6019.00,5524.04 6019.00,5524.04              6019.00,5524.04 6002.00,5524.96 6002.00,5524.96              6002.00,5524.96 5988.00,5523.08 5988.00,5523.08              5988.00,5523.08 5977.00,5523.08 5977.00,5523.08              5977.00,5523.08 5955.00,5522.00 5955.00,5522.00              5955.00,5522.00 5941.00,5523.00 5941.00,5523.00              5941.00,5523.00 5925.00,5522.01 5925.00,5522.01              5925.00,5522.01 5912.00,5523.00 5912.00,5523.00              5912.00,5523.00 5890.00,5523.00 5890.00,5523.00              5890.00,5523.00 5875.00,5522.04 5875.00,5522.04              5875.00,5522.04 5863.00,5523.00 5863.00,5523.00              5863.00,5523.00 5824.00,5522.00 5824.00,5522.00              5824.00,5522.00 5808.00,5522.96 5808.00,5522.96              5808.00,5522.96 5800.00,5522.04 5800.00,5522.04              5800.00,5522.04 5785.00,5522.04 5785.00,5522.04              5785.00,5522.04 5769.00,5521.04 5769.00,5521.04              5769.00,5521.04 5756.00,5522.00 5756.00,5522.00              5756.00,5522.00 5706.00,5522.00 5706.00,5522.00              5706.00,5522.00 5683.00,5521.19 5683.00,5521.19              5683.00,5521.19 5673.00,5521.19 5673.00,5521.19              5673.00,5521.19 5655.00,5521.19 5655.00,5521.19              5655.00,5521.19 5601.00,5521.19 5601.00,5521.19              5601.00,5521.19 5583.00,5520.00 5583.00,5520.00              5583.00,5520.00 5567.00,5521.00 5567.00,5521.00              5567.00,5521.00 5548.00,5520.00 5548.00,5520.00              5548.00,5520.00 5495.00,5520.00 5495.00,5520.00              5495.00,5520.00 5482.00,5520.92 5482.00,5520.92              5482.00,5520.92 5473.00,5520.04 5473.00,5520.04              5473.00,5520.04 5462.00,5520.66 5462.00,5520.66              5462.00,5520.66 5453.00,5520.00 5453.00,5520.00              5453.00,5520.00 5437.00,5521.00 5437.00,5521.00              5421.73,5521.17 5423.32,5519.21 5415.00,5519.12              5415.00,5519.12 5404.00,5519.12 5404.00,5519.12              5404.00,5519.12 5393.00,5519.12 5393.00,5519.12              5393.00,5519.12 5382.00,5519.96 5382.00,5519.96              5382.00,5519.96 5374.00,5519.04 5374.00,5519.04              5374.00,5519.04 5359.00,5519.04 5359.00,5519.04              5359.00,5519.04 5343.00,5520.00 5343.00,5520.00              5343.00,5520.00 5324.00,5518.00 5324.00,5518.00              5324.00,5518.00 5286.00,5518.00 5286.00,5518.00              5286.00,5518.00 5271.00,5517.04 5271.00,5517.04              5263.48,5517.37 5265.10,5519.06 5252.00,5519.00              5252.00,5519.00 5236.00,5518.16 5236.00,5518.16              5236.00,5518.16 5210.00,5518.16 5210.00,5518.16              5210.00,5518.16 5201.00,5518.16 5201.00,5518.16              5201.00,5518.16 5175.00,5517.00 5175.00,5517.00              5175.00,5517.00 5162.00,5516.03 5162.00,5516.03              5154.77,5516.03 5154.19,5518.22 5144.00,5517.99              5144.00,5517.99 5132.00,5517.09 5132.00,5517.09              5132.00,5517.09 5123.00,5518.61 5123.00,5518.61              5123.00,5518.61 5111.00,5517.96 5111.00,5517.96              5111.00,5517.96 5096.00,5517.96 5096.00,5517.96              5096.00,5517.96 5087.00,5517.22 5087.00,5517.22              5087.00,5517.22 5077.00,5517.22 5077.00,5517.22              5072.95,5517.32 5070.82,5515.76 5065.00,5516.09              5065.00,5516.09 5056.00,5516.99 5056.00,5516.99              5056.00,5516.99 5041.00,5516.00 5041.00,5516.00              5041.00,5516.00 5025.00,5517.00 5025.00,5517.00              5025.00,5517.00 4998.00,5517.00 4998.00,5517.00              4998.00,5517.00 4975.00,5518.00 4975.00,5518.00              4975.00,5518.00 4951.00,5516.01 4951.00,5516.01              4951.00,5516.01 4934.00,5517.00 4934.00,5517.00              4934.00,5517.00 4909.00,5517.00 4909.00,5517.00              4909.00,5517.00 4898.00,5517.92 4898.00,5517.92              4898.00,5517.92 4884.00,5517.00 4884.00,5517.00              4884.00,5517.00 4864.00,5518.00 4864.00,5518.00              4851.69,5517.98 4853.35,5514.73 4841.00,5515.01              4841.00,5515.01 4825.00,5516.91 4825.00,5516.91              4825.00,5516.91 4811.00,5516.91 4811.00,5516.91              4811.00,5516.91 4788.00,5515.04 4788.00,5515.04              4788.00,5515.04 4779.00,5515.66 4779.00,5515.66              4772.33,5515.00 4767.84,5512.72 4760.00,5513.04              4760.00,5513.04 4746.00,5515.65 4746.00,5515.65              4746.00,5515.65 4735.00,5515.00 4735.00,5515.00              4735.00,5515.00 4715.00,5516.00 4715.00,5516.00              4715.00,5516.00 4702.00,5515.09 4702.00,5515.09              4702.00,5515.09 4694.00,5515.96 4694.00,5515.96              4694.00,5515.96 4677.00,5515.00 4677.00,5515.00              4677.00,5515.00 4648.00,5515.00 4648.00,5515.00              4648.00,5515.00 4625.00,5514.00 4625.00,5514.00              4625.00,5514.00 4615.00,5514.82 4615.00,5514.82              4615.00,5514.82 4605.00,5514.09 4605.00,5514.09              4605.00,5514.09 4598.00,5514.63 4598.00,5514.63              4598.00,5514.63 4571.00,5512.91 4571.00,5512.91              4571.00,5512.91 4561.00,5512.00 4561.00,5512.00              4561.00,5512.00 4541.00,5512.00 4541.00,5512.00              4541.00,5512.00 4509.00,5513.68 4509.00,5513.68              4509.00,5513.68 4486.00,5511.01 4486.00,5511.01              4478.23,5511.19 4473.52,5514.55 4462.00,5514.53              4456.68,5514.52 4455.79,5511.84 4442.00,5512.00              4434.63,5512.09 4434.11,5513.31 4430.00,5513.61              4430.00,5513.61 4411.00,5513.00 4411.00,5513.00              4411.00,5513.00 4399.00,5512.01 4399.00,5512.01              4399.00,5512.01 4388.00,5512.53 4388.00,5512.53              4384.37,5512.36 4381.81,5510.76 4376.00,5511.09              4376.00,5511.09 4364.00,5512.14 4364.00,5512.14              4364.00,5512.14 4333.00,5512.14 4333.00,5512.14              4333.00,5512.14 4325.00,5512.14 4325.00,5512.14              4325.00,5512.14 4316.00,5511.08 4316.00,5511.08              4316.00,5511.08 4305.00,5511.08 4305.00,5511.08              4305.00,5511.08 4288.00,5511.99 4288.00,5511.99              4279.61,5511.78 4281.32,5509.84 4267.00,5510.00              4267.00,5510.00 4252.00,5511.00 4252.00,5511.00              4252.00,5511.00 4231.00,5511.00 4231.00,5511.00              4220.96,5510.95 4222.73,5508.92 4215.00,5507.25              4215.00,5507.25 4195.00,5507.25 4195.00,5507.25              4192.08,5507.04 4187.40,5507.77 4185.00,5507.25              4178.12,5505.88 4173.82,5501.60 4163.00,5502.04              4154.44,5502.39 4154.43,5505.36 4144.00,5504.98              4137.22,5504.74 4136.30,5502.14 4130.00,5500.68              4122.92,5499.04 4109.44,5499.29 4104.04,5495.02              4097.10,5489.54 4098.75,5486.31 4094.21,5480.00              4088.05,5471.44 4080.14,5468.78 4070.00,5469.01              4055.52,5469.35 4049.32,5478.60 4039.00,5486.47              4039.00,5486.47 4021.00,5496.47 4021.00,5496.47              4009.02,5501.60 3999.94,5494.74 3988.00,5495.01              3976.86,5495.27 3967.39,5501.35 3962.00,5501.78              3962.00,5501.78 3948.00,5500.03 3948.00,5500.03              3948.00,5500.03 3927.00,5502.96 3927.00,5502.96              3927.00,5502.96 3902.00,5501.00 3902.00,5501.00              3902.00,5501.00 3891.00,5501.00 3891.00,5501.00              3880.64,5501.13 3881.08,5503.98 3869.00,5504.00              3869.00,5504.00 3850.00,5504.00 3850.00,5504.00              3850.00,5504.00 3831.00,5505.82 3831.00,5505.82              3831.00,5505.82 3817.00,5505.00 3817.00,5505.00              3817.00,5505.00 3804.00,5505.91 3804.00,5505.91              3797.72,5505.52 3798.45,5504.02 3788.00,5504.00              3788.00,5504.00 3765.00,5504.00 3765.00,5504.00              3765.00,5504.00 3751.00,5504.82 3751.00,5504.82              3751.00,5504.82 3742.00,5504.00 3742.00,5504.00              3742.00,5504.00 3734.00,5504.00 3734.00,5504.00              3734.00,5504.00 3716.00,5502.09 3716.00,5502.09              3716.00,5502.09 3702.00,5502.09 3702.00,5502.09              3693.41,5502.10 3690.46,5504.51 3684.00,5504.91              3684.00,5504.91 3672.00,5504.01 3672.00,5504.01              3672.00,5504.01 3657.00,5505.00 3657.00,5505.00              3657.00,5505.00 3627.00,5502.01 3627.00,5502.01              3619.05,5502.20 3614.40,5505.27 3608.00,5504.82              3608.00,5504.82 3590.00,5502.04 3590.00,5502.04              3579.43,5501.58 3577.83,5504.48 3572.00,5504.88              3572.00,5504.88 3562.00,5504.02 3562.00,5504.02              3562.00,5504.02 3546.00,5504.02 3546.00,5504.02              3546.00,5504.02 3531.00,5505.00 3531.00,5505.00              3531.00,5505.00 3486.00,5505.00 3486.00,5505.00              3486.00,5505.00 3472.00,5505.00 3472.00,5505.00              3472.00,5505.00 3459.00,5504.09 3459.00,5504.09              3459.00,5504.09 3447.00,5505.00 3447.00,5505.00              3447.00,5505.00 3413.00,5505.00 3413.00,5505.00              3413.00,5505.00 3400.00,5504.04 3400.00,5504.04              3400.00,5504.04 3387.00,5504.97 3387.00,5504.97              3387.00,5504.97 3373.00,5504.00 3373.00,5504.00              3373.00,5504.00 3349.00,5504.00 3349.00,5504.00              3349.00,5504.00 3328.00,5503.00 3328.00,5503.00              3328.00,5503.00 3313.00,5503.91 3313.00,5503.91              3313.00,5503.91 3289.00,5502.00 3289.00,5502.00              3289.00,5502.00 3262.00,5502.00 3262.00,5502.00              3262.00,5502.00 3250.00,5502.82 3250.00,5502.82              3250.00,5502.82 3230.00,5501.05 3230.00,5501.05              3230.00,5501.05 3214.00,5501.05 3214.00,5501.05              3214.00,5501.05 3204.00,5501.96 3204.00,5501.96              3204.00,5501.96 3194.00,5501.96 3194.00,5501.96              3194.00,5501.96 3185.00,5502.66 3185.00,5502.66              3185.00,5502.66 3172.00,5502.00 3172.00,5502.00              3172.00,5502.00 3162.00,5502.96 3162.00,5502.96              3162.00,5502.96 3147.00,5502.96 3147.00,5502.96              3147.00,5502.96 3133.00,5503.82 3133.00,5503.82              3133.00,5503.82 3112.00,5502.09 3112.00,5502.09              3112.00,5502.09 3101.00,5503.00 3101.00,5503.00              3101.00,5503.00 3067.00,5503.00 3067.00,5503.00              3067.00,5503.00 3052.00,5504.00 3052.00,5504.00              3052.00,5504.00 3035.00,5504.00 3035.00,5504.00              3035.00,5504.00 3018.00,5502.04 3018.00,5502.04              3018.00,5502.04 2998.00,5503.00 2998.00,5503.00              2987.60,5502.99 2987.75,5501.31 2981.00,5501.26              2981.00,5501.26 2970.00,5501.26 2970.00,5501.26              2970.00,5501.26 2938.00,5502.43 2938.00,5502.43              2938.00,5502.43 2915.00,5501.04 2915.00,5501.04              2915.00,5501.04 2898.00,5502.20 2898.00,5502.20              2898.00,5502.20 2888.00,5502.20 2888.00,5502.20              2883.91,5501.84 2881.49,5500.03 2875.00,5500.03              2875.00,5500.03 2855.00,5503.00 2855.00,5503.00              2855.00,5503.00 2834.00,5502.00 2834.00,5502.00              2834.00,5502.00 2809.00,5502.00 2809.00,5502.00              2809.00,5502.00 2790.00,5501.00 2790.00,5501.00              2790.00,5501.00 2775.00,5501.96 2775.00,5501.96              2775.00,5501.96 2762.00,5501.96 2762.00,5501.96              2762.00,5501.96 2750.00,5501.08 2750.00,5501.08              2750.00,5501.08 2688.00,5501.08 2688.00,5501.08              2688.00,5501.08 2678.00,5501.08 2678.00,5501.08              2674.10,5501.03 2672.58,5499.78 2666.00,5500.04              2666.00,5500.04 2653.00,5501.00 2653.00,5501.00              2653.00,5501.00 2647.00,5501.00 2647.00,5501.00              2647.00,5501.00 2634.00,5501.99 2634.00,5501.99              2634.00,5501.99 2621.00,5501.00 2621.00,5501.00              2621.00,5501.00 2608.00,5501.63 2608.00,5501.63              2608.00,5501.63 2598.00,5500.08 2598.00,5500.08              2598.00,5500.08 2587.00,5500.08 2587.00,5500.08              2587.00,5500.08 2570.00,5501.00 2570.00,5501.00              2570.00,5501.00 2546.00,5501.00 2546.00,5501.00              2546.00,5501.00 2530.00,5500.00 2530.00,5500.00              2530.00,5500.00 2508.00,5499.16 2508.00,5499.16              2508.00,5499.16 2467.00,5499.16 2467.00,5499.16              2467.00,5499.16 2457.00,5499.16 2457.00,5499.16              2457.00,5499.16 2434.00,5498.01 2434.00,5498.01              2434.00,5498.01 2419.00,5498.99 2419.00,5498.99              2419.00,5498.99 2405.00,5498.00 2405.00,5498.00              2405.00,5498.00 2368.00,5498.00 2368.00,5498.00              2368.00,5498.00 2355.00,5497.00 2355.00,5497.00              2355.00,5497.00 2343.00,5497.82 2343.00,5497.82              2343.00,5497.82 2331.00,5497.04 2331.00,5497.04              2331.00,5497.04 2323.00,5498.13 2323.00,5498.13              2323.00,5498.13 2309.00,5498.13 2309.00,5498.13              2309.00,5498.13 2298.00,5498.13 2298.00,5498.13              2298.00,5498.13 2288.00,5497.09 2288.00,5497.09              2288.00,5497.09 2274.00,5497.09 2274.00,5497.09              2274.00,5497.09 2264.00,5497.95 2264.00,5497.95              2264.00,5497.95 2248.00,5497.95 2248.00,5497.95              2248.00,5497.95 2222.00,5496.00 2222.00,5496.00              2222.00,5496.00 2211.00,5496.00 2211.00,5496.00              2211.00,5496.00 2200.00,5496.79 2200.00,5496.79              2200.00,5496.79 2178.00,5495.04 2178.00,5495.04              2178.00,5495.04 2170.00,5495.91 2170.00,5495.91              2170.00,5495.91 2135.00,5497.00 2135.00,5497.00              2135.00,5497.00 2122.00,5496.09 2122.00,5496.09              2122.00,5496.09 2111.00,5496.96 2111.00,5496.96              2111.00,5496.96 2099.00,5496.04 2099.00,5496.04              2092.97,5496.27 2090.05,5497.43 2083.00,5496.91              2075.39,5496.35 2077.87,5494.85 2065.00,5495.00              2065.00,5495.00 2054.00,5495.79 2054.00,5495.79              2054.00,5495.79 2033.00,5494.00 2033.00,5494.00              2033.00,5494.00 2009.00,5495.99 2009.00,5495.99              2009.00,5495.99 1997.00,5495.00 1997.00,5495.00              1997.00,5495.00 1971.00,5495.00 1971.00,5495.00              1971.00,5495.00 1959.00,5495.74 1959.00,5495.74              1959.00,5495.74 1949.00,5494.04 1949.00,5494.04              1949.00,5494.04 1927.00,5494.04 1927.00,5494.04              1927.00,5494.04 1910.00,5493.04 1910.00,5493.04              1910.00,5493.04 1894.00,5494.95 1894.00,5494.95              1894.00,5494.95 1879.00,5494.95 1879.00,5494.95              1879.00,5494.95 1870.00,5494.01 1870.00,5494.01              1870.00,5494.01 1857.00,5494.63 1857.00,5494.63              1857.00,5494.63 1841.00,5493.04 1841.00,5493.04              1841.00,5493.04 1826.00,5494.00 1826.00,5494.00              1826.00,5494.00 1813.00,5493.01 1813.00,5493.01              1813.00,5493.01 1798.00,5494.00 1798.00,5494.00              1798.00,5494.00 1760.00,5494.00 1760.00,5494.00              1760.00,5494.00 1746.00,5493.04 1746.00,5493.04              1746.00,5493.04 1735.00,5494.00 1735.00,5494.00              1735.00,5494.00 1709.00,5494.00 1709.00,5494.00              1709.00,5494.00 1691.00,5492.04 1691.00,5492.04              1691.00,5492.04 1676.00,5492.04 1676.00,5492.04              1676.00,5492.04 1666.00,5493.00 1666.00,5493.00              1666.00,5493.00 1647.00,5492.00 1647.00,5492.00              1647.00,5492.00 1634.00,5493.00 1634.00,5493.00              1634.00,5493.00 1617.00,5493.00 1617.00,5493.00              1617.00,5493.00 1586.00,5490.01 1586.00,5490.01              1579.88,5490.16 1578.82,5491.31 1574.00,5491.91              1574.00,5491.91 1558.00,5491.91 1558.00,5491.91              1558.00,5491.91 1542.00,5493.11 1542.00,5493.11              1542.00,5493.11 1524.00,5493.11 1524.00,5493.11              1524.00,5493.11 1498.00,5491.04 1498.00,5491.04              1498.00,5491.04 1485.00,5492.92 1485.00,5492.92              1479.87,5492.92 1477.60,5491.01 1468.00,5491.00              1468.00,5491.00 1455.00,5491.00 1455.00,5491.00              1455.00,5491.00 1443.00,5491.82 1443.00,5491.82              1443.00,5491.82 1432.00,5491.00 1432.00,5491.00              1432.00,5491.00 1406.00,5491.68 1406.00,5491.68              1406.00,5491.68 1386.00,5491.00 1386.00,5491.00              1386.00,5491.00 1372.00,5491.82 1372.00,5491.82              1368.46,5491.57 1367.06,5490.88 1363.00,5491.29              1363.00,5491.29 1356.00,5491.29 1356.00,5491.29              1356.00,5491.29 1346.00,5490.51 1346.00,5490.51              1339.35,5488.70 1337.27,5483.69 1323.00,5484.01              1311.57,5484.28 1310.14,5488.77 1303.00,5490.24              1297.32,5491.82 1288.55,5489.93 1282.00,5490.24              1282.00,5490.24 1268.00,5491.92 1268.00,5491.92              1268.00,5491.92 1249.00,5491.92 1249.00,5491.92              1249.00,5491.92 1218.00,5488.00 1218.00,5488.00              1218.00,5488.00 1190.00,5491.00 1190.00,5491.00              1190.00,5491.00 1179.00,5491.00 1179.00,5491.00              1170.57,5490.96 1171.24,5489.84 1165.00,5489.04              1165.00,5489.04 1156.00,5489.04 1156.00,5489.04              1156.00,5489.04 1149.00,5488.09 1149.00,5488.09              1149.00,5488.09 1131.00,5489.96 1131.00,5489.96              1131.00,5489.96 1111.00,5487.09 1111.00,5487.09              1111.00,5487.09 1101.00,5487.82 1101.00,5487.82              1101.00,5487.82 1087.00,5487.00 1087.00,5487.00              1087.00,5487.00 1070.00,5489.26 1070.00,5489.26              1070.00,5489.26 1060.00,5489.26 1060.00,5489.26              1060.00,5489.26 1047.00,5489.99 1047.00,5489.99              1047.00,5489.99 1034.00,5489.00 1034.00,5489.00              1034.00,5489.00 1003.00,5489.00 1003.00,5489.00              1003.00,5489.00 983.00,5487.04 983.00,5487.04              983.00,5487.04 973.00,5488.70 973.00,5488.70              967.77,5489.47 962.28,5489.99 957.00,5490.00              957.00,5490.00 935.00,5489.01 935.00,5489.01              935.00,5489.01 922.00,5489.96 922.00,5489.96              922.00,5489.96 914.00,5489.09 914.00,5489.09              914.00,5489.09 887.00,5488.00 887.00,5488.00              887.00,5488.00 875.00,5489.04 875.00,5489.04              875.00,5489.04 865.00,5489.04 865.00,5489.04              860.48,5489.60 858.96,5490.17 854.00,5489.96              854.00,5489.96 846.00,5489.09 846.00,5489.09              846.00,5489.09 829.00,5487.83 829.00,5487.83              829.00,5487.83 819.00,5486.09 819.00,5486.09              819.00,5486.09 805.00,5487.00 805.00,5487.00              805.00,5487.00 786.00,5487.00 786.00,5487.00              786.00,5487.00 775.00,5486.09 775.00,5486.09              775.00,5486.09 759.00,5487.73 759.00,5487.73              759.00,5487.73 747.00,5485.38 747.00,5485.38              747.00,5485.38 735.00,5485.38 735.00,5485.38              730.48,5485.11 726.09,5481.60 718.00,5482.09              718.00,5482.09 691.00,5485.90 691.00,5485.90              683.76,5485.40 681.25,5481.41 672.00,5481.04              672.00,5481.04 652.00,5483.00 652.00,5483.00              648.67,5483.01 643.00,5483.28 640.00,5482.30              640.00,5482.30 631.00,5478.22 631.00,5478.22              631.00,5478.22 621.00,5475.83 621.00,5475.83              617.35,5474.03 614.29,5469.88 608.00,5467.56              604.69,5466.33 585.88,5464.88 582.00,5465.04              570.99,5465.48 567.27,5471.09 562.00,5473.88              562.00,5473.88 544.00,5481.97 544.00,5481.97              544.00,5481.97 530.00,5481.97 530.00,5481.97              530.00,5481.97 519.00,5480.51 519.00,5480.51              513.28,5478.94 507.68,5474.50 498.00,5475.26              488.29,5475.69 492.45,5478.81 481.00,5475.26              479.33,5474.94 476.63,5474.35 475.17,5473.57              470.01,5470.84 468.44,5464.48 465.21,5460.00              461.12,5454.34 454.77,5450.31 448.00,5448.68              433.88,5445.27 425.56,5447.52 413.00,5454.31              408.63,5456.67 396.01,5464.45 392.00,5464.85              387.95,5465.26 384.80,5463.53 381.00,5462.68              381.00,5462.68 371.00,5461.79 371.00,5461.79              371.00,5461.79 361.00,5459.30 361.00,5459.30              361.00,5459.30 346.00,5458.09 346.00,5458.09              342.82,5458.27 341.45,5458.94 338.00,5458.68              322.93,5457.55 319.58,5458.41 305.00,5462.00              296.45,5448.53 279.58,5440.56 265.00,5450.11              261.50,5452.40 259.30,5454.69 256.78,5457.98              255.69,5459.42 254.06,5462.41 252.00,5462.41              249.78,5462.41 247.74,5458.57 246.47,5457.01              243.78,5453.68 240.83,5451.30 237.00,5449.38              237.00,5449.38 228.00,5445.97 228.00,5445.97              228.00,5445.97 217.00,5440.63 217.00,5440.63              217.00,5440.63 210.00,5436.40 210.00,5436.40              210.00,5436.40 197.00,5431.91 197.00,5431.91              187.87,5428.56 185.22,5431.33 181.51,5428.40              181.51,5428.40 174.96,5421.29 174.96,5421.29              171.28,5417.93 166.24,5415.13 163.71,5410.91              163.71,5410.91 154.68,5390.00 154.68,5390.00              154.68,5390.00 133.76,5349.00 133.76,5349.00              133.76,5349.00 128.67,5333.00 128.67,5333.00              128.67,5333.00 126.48,5322.00 126.48,5322.00              126.48,5322.00 120.55,5308.00 120.55,5308.00              120.55,5308.00 114.69,5288.00 114.69,5288.00              114.69,5288.00 106.44,5269.00 106.44,5269.00              106.44,5269.00 101.45,5243.00 101.45,5243.00              98.68,5235.21 91.73,5228.78 90.39,5223.00              90.39,5223.00 89.54,5216.00 89.54,5216.00              88.33,5209.26 84.73,5197.48 85.09,5191.00              85.31,5187.19 86.16,5185.45 85.91,5181.00              85.91,5181.00 85.04,5174.00 85.04,5174.00              85.04,5174.00 85.04,5158.00 85.04,5158.00              85.04,5158.00 84.00,5138.00 84.00,5138.00              84.00,5138.00 83.17,5125.00 83.17,5125.00              83.17,5125.00 86.00,5104.00 86.00,5104.00              86.06,5098.53 86.04,5094.08 83.60,5089.00              83.60,5089.00 76.73,5078.00 76.73,5078.00              76.03,5076.11 76.01,5073.98 75.71,5072.00              73.83,5060.03 74.14,5060.94 74.00,5049.00              74.00,5049.00 72.00,5026.00 72.00,5026.00              72.00,5026.00 75.00,4997.00 75.00,4997.00              75.12,4986.80 74.33,4976.05 72.54,4966.00              71.39,4959.59 69.33,4953.62 69.04,4947.00              69.04,4947.00 70.00,4923.00 70.00,4923.00              70.00,4923.00 70.98,4908.00 70.98,4908.00              70.98,4908.00 70.98,4885.00 70.98,4885.00              70.98,4885.00 69.72,4872.00 69.72,4872.00              69.72,4872.00 70.91,4858.00 70.91,4858.00              70.91,4858.00 69.00,4839.00 69.00,4839.00              69.00,4839.00 70.02,4821.00 70.02,4821.00              70.02,4821.00 70.02,4807.00 70.02,4807.00              70.77,4799.53 71.98,4801.30 72.00,4791.00              72.00,4791.00 72.00,4779.00 72.00,4779.00              72.00,4779.00 71.17,4764.00 71.17,4764.00              71.17,4764.00 72.70,4756.00 72.70,4756.00              72.70,4756.00 73.30,4748.00 73.30,4748.00              75.04,4735.85 76.18,4740.42 76.00,4725.00              76.00,4725.00 72.04,4696.00 72.04,4696.00              72.37,4689.49 75.35,4686.86 74.91,4679.00              74.91,4679.00 67.08,4615.00 67.08,4615.00              67.08,4615.00 67.08,4597.00 67.08,4597.00              68.06,4588.07 68.87,4590.71 69.00,4579.00              69.00,4579.00 70.91,4562.00 70.91,4562.00              70.91,4562.00 69.46,4554.00 69.46,4554.00              68.70,4549.76 68.02,4543.29 67.96,4539.00              67.96,4539.00 67.96,4527.00 67.96,4527.00              67.96,4527.00 67.00,4516.00 67.00,4516.00              67.00,4516.00 67.00,4494.00 67.00,4494.00              67.00,4494.00 68.00,4479.00 68.00,4479.00              68.00,4479.00 67.20,4467.00 67.20,4467.00              67.64,4462.34 70.34,4458.00 69.91,4451.00              69.91,4451.00 68.18,4440.00 68.18,4440.00              68.18,4440.00 68.91,4433.00 68.91,4433.00              69.15,4428.71 68.35,4426.88 68.04,4423.00              68.04,4423.00 68.04,4412.00 68.04,4412.00              68.04,4412.00 66.84,4397.00 66.84,4397.00              66.84,4397.00 66.84,4378.00 66.84,4378.00              66.84,4378.00 66.84,4365.00 66.84,4365.00              66.84,4365.00 68.00,4350.00 68.00,4350.00              68.00,4350.00 67.34,4336.00 67.34,4336.00              67.34,4336.00 68.00,4324.00 68.00,4324.00              68.00,4324.00 67.34,4315.00 67.34,4315.00              67.34,4315.00 68.00,4303.00 68.00,4303.00              68.00,4303.00 66.09,4285.00 66.09,4285.00              66.09,4285.00 67.00,4263.00 67.00,4263.00              67.00,4263.00 65.86,4248.00 65.86,4248.00              65.86,4248.00 65.86,4217.00 65.86,4217.00              65.86,4217.00 65.86,4209.00 65.86,4209.00              65.86,4209.00 67.98,4188.00 67.98,4188.00              67.87,4182.42 66.96,4181.64 66.30,4177.00              66.30,4177.00 65.34,4160.00 65.34,4160.00              65.39,4151.05 71.49,4148.99 70.96,4136.00              70.50,4124.67 66.02,4126.86 66.00,4114.00              66.00,4114.00 66.00,4105.00 66.00,4105.00              66.13,4093.80 69.39,4087.20 72.08,4077.00              72.08,4077.00 74.94,4063.00 74.94,4063.00              74.94,4063.00 74.94,4054.00 74.94,4054.00              75.84,4047.76 76.96,4048.45 77.00,4040.00              77.00,4040.00 76.00,4013.00 76.00,4013.00              75.98,4000.93 72.38,3994.17 72.42,3991.00              72.45,3987.96 74.80,3984.12 75.78,3981.00              77.42,3975.81 78.08,3970.42 77.99,3965.00              77.71,3949.16 81.94,3952.21 86.44,3940.00              88.10,3935.50 88.26,3929.76 87.91,3925.00              87.02,3912.85 78.60,3908.06 76.55,3901.00              75.95,3897.76 77.95,3891.12 76.55,3884.00              74.46,3875.91 69.91,3872.22 68.56,3868.00              68.56,3868.00 66.21,3838.00 66.21,3838.00              65.95,3833.59 65.40,3819.29 66.21,3816.00              68.86,3808.02 72.67,3804.15 75.60,3798.00              77.26,3794.52 81.15,3776.88 80.91,3773.00              80.55,3767.28 77.99,3761.49 74.47,3757.01              72.81,3754.90 69.15,3751.83 68.10,3749.83              67.58,3748.11 68.00,3742.24 68.10,3740.00              68.10,3740.00 68.10,3727.00 68.10,3727.00              68.10,3727.00 66.80,3711.00 66.80,3711.00              66.80,3711.00 68.91,3701.00 68.91,3701.00              68.91,3701.00 68.91,3685.00 68.91,3685.00              69.03,3681.81 68.77,3678.05 69.63,3675.00              70.95,3670.34 74.43,3666.41 73.91,3658.00              73.50,3651.42 71.66,3650.21 69.81,3645.00              68.63,3641.70 67.04,3631.66 67.00,3628.00              67.00,3628.00 68.39,3609.00 68.39,3609.00              68.39,3609.00 71.07,3601.00 71.07,3601.00              71.90,3597.94 73.09,3586.25 72.96,3583.00              72.58,3573.60 68.54,3571.86 69.31,3565.00              69.31,3565.00 71.63,3549.00 71.63,3549.00              73.55,3541.97 74.89,3542.63 75.00,3534.00              75.09,3526.38 75.14,3522.25 72.13,3515.00              72.13,3515.00 69.63,3509.00 69.63,3509.00              69.63,3509.00 68.70,3496.00 68.70,3496.00              67.56,3488.28 66.02,3490.55 66.00,3480.00              66.00,3480.00 66.00,3443.00 66.00,3443.00              66.00,3443.00 65.47,3434.00 65.47,3434.00              65.47,3434.00 66.94,3427.00 66.94,3427.00              66.94,3427.00 66.94,3419.00 66.94,3419.00              68.09,3410.41 68.94,3413.95 69.00,3402.00              69.04,3393.30 70.56,3391.99 70.91,3386.00              71.37,3377.97 68.16,3374.06 67.40,3370.00              67.03,3368.03 68.28,3350.97 69.03,3349.04              70.89,3344.22 74.91,3343.62 79.67,3337.99              85.70,3330.87 92.34,3316.46 91.96,3307.00              91.51,3295.98 83.29,3289.75 83.28,3278.00              83.27,3273.38 86.60,3270.21 88.27,3265.00              90.88,3258.19 90.02,3250.83 88.27,3244.00              88.27,3244.00 84.80,3236.00 84.80,3236.00              84.80,3236.00 82.36,3226.00 82.36,3226.00              82.36,3226.00 79.63,3218.00 79.63,3218.00              78.58,3214.22 78.85,3209.44 76.44,3203.00              73.41,3194.90 68.08,3193.07 67.19,3186.00              65.88,3175.63 73.25,3168.56 73.91,3159.00              74.48,3150.67 71.61,3147.34 71.30,3143.00              71.30,3143.00 72.00,3132.00 72.00,3132.00              72.00,3132.00 71.00,3102.00 71.00,3102.00              70.91,3094.55 69.77,3094.55 69.17,3089.00              69.17,3089.00 66.74,3053.00 66.74,3053.00              66.96,3046.90 66.69,3041.02 65.53,3035.00              65.53,3035.00 63.38,3026.00 63.38,3026.00              63.26,3022.45 65.99,3015.81 65.99,3008.00              65.99,3008.00 64.18,2992.00 64.18,2992.00              64.18,2992.00 64.99,2984.00 64.99,2984.00              64.99,2984.00 64.05,2971.00 64.05,2971.00              64.05,2971.00 64.05,2952.00 64.05,2952.00              64.05,2952.00 65.00,2939.00 65.00,2939.00              65.00,2939.00 65.00,2920.00 65.00,2920.00              65.00,2920.00 64.39,2908.00 64.39,2908.00              64.73,2903.47 66.84,2900.12 66.98,2893.00              66.98,2893.00 64.19,2863.00 64.19,2863.00              64.68,2856.97 65.98,2858.31 66.00,2848.00              66.00,2848.00 66.00,2830.00 66.00,2830.00              66.00,2830.00 65.04,2815.00 65.04,2815.00              65.36,2807.67 68.69,2805.09 68.96,2797.00              69.15,2791.15 67.83,2789.21 67.03,2784.00              65.88,2774.12 67.32,2774.39 67.03,2768.00              67.03,2768.00 65.18,2749.00 65.18,2749.00              65.18,2749.00 68.00,2727.00 68.00,2727.00              68.00,2727.00 66.79,2706.00 66.79,2706.00              66.79,2706.00 66.79,2693.00 66.79,2693.00              66.79,2693.00 62.75,2674.00 62.75,2674.00              62.75,2674.00 62.75,2659.00 62.75,2659.00              62.98,2647.99 59.90,2643.59 60.21,2638.00              60.68,2629.47 64.15,2629.00 64.00,2615.00              64.00,2615.00 61.32,2576.00 61.32,2576.00              61.32,2576.00 63.36,2562.00 63.36,2562.00              63.36,2562.00 65.53,2554.00 65.53,2554.00              65.53,2554.00 66.17,2545.00 66.17,2545.00              67.36,2533.92 69.32,2534.96 67.00,2522.00 Z"
            style="fill:#000000;fill-opacity:1"/>
</svg>
