<?xml version="1.0" encoding="UTF-8" standalone="no"?>
<svg
        width="172.869mm"
        height="125.243mm"
        viewBox="0 0 8167 5917"
        version="1.1"
        id="svg948"
        sodipodi:docname="folio4b.svg"
        inkscape:version="1.1.1 (3bf5ae0d25, 2021-09-20)"
        xmlns:inkscape="http://www.inkscape.org/namespaces/inkscape"
        xmlns:sodipodi="http://sodipodi.sourceforge.net/DTD/sodipodi-0.dtd"
        xmlns="http://www.w3.org/2000/svg"
>
    <defs
            id="defs952"/>
    <sodipodi:namedview
            id="namedview950"
            pagecolor="#ffffff"
            bordercolor="#666666"
            borderopacity="1.0"
            inkscape:pageshadow="2"
            inkscape:pageopacity="0.0"
            inkscape:pagecheckerboard="0"
            inkscape:document-units="mm"
            showgrid="false"
            inkscape:zoom="1.6193138"
            inkscape:cx="326.37281"
            inkscape:cy="236.82871"
            inkscape:window-width="1920"
            inkscape:window-height="1001"
            inkscape:window-x="-7"
            inkscape:window-y="-7"
            inkscape:window-maximized="1"
            inkscape:current-layer="svg948"/>
    <path
            id="Selection #1"
            fill="none"
            stroke="black"
            stroke-width="1"
            d="M 4934.00,91.77            C 4937.01,92.00 4940.03,92.09 4943.00,91.77              4943.00,91.77 4952.00,88.63 4952.00,88.63              4954.66,87.89 4967.46,86.01 4970.00,86.31              4970.00,86.31 4977.00,87.70 4977.00,87.70              4983.98,88.70 4991.15,88.66 4998.00,90.79              5004.53,92.83 5010.09,98.35 5022.00,97.96              5033.80,97.56 5045.04,91.46 5050.00,90.19              5052.50,89.85 5056.34,90.03 5059.00,90.19              5066.26,89.91 5074.69,87.58 5082.00,86.44              5082.00,86.44 5101.00,84.33 5101.00,84.33              5113.51,81.67 5108.47,80.18 5124.00,80.00              5124.00,80.00 5156.00,76.33 5156.00,76.33              5156.00,76.33 5176.00,71.46 5176.00,71.46              5176.00,71.46 5188.00,70.57 5188.00,70.57              5188.00,70.57 5223.00,66.00 5223.00,66.00              5223.00,66.00 5233.00,66.00 5233.00,66.00              5243.23,65.88 5247.55,62.18 5263.00,62.00              5263.00,62.00 5297.00,59.00 5297.00,59.00              5297.00,59.00 5331.00,55.00 5331.00,55.00              5331.00,55.00 5350.00,53.90 5350.00,53.90              5350.00,53.90 5360.00,53.90 5360.00,53.90              5360.00,53.90 5379.00,50.89 5379.00,50.89              5379.00,50.89 5397.00,50.89 5397.00,50.89              5405.04,51.10 5405.43,52.72 5412.00,53.70              5412.00,53.70 5428.00,55.17 5428.00,55.17              5436.57,56.10 5433.20,56.98 5445.00,57.00              5459.48,57.02 5458.17,63.70 5471.00,62.91              5477.58,62.50 5485.82,57.68 5498.00,58.13              5498.00,58.13 5513.00,61.72 5513.00,61.72              5513.00,61.72 5543.00,67.54 5543.00,67.54              5543.00,67.54 5551.00,68.53 5551.00,68.53              5554.97,69.48 5558.28,71.96 5562.00,73.54              5574.92,79.02 5583.38,84.32 5598.00,83.99              5598.00,83.99 5616.00,82.70 5616.00,82.70              5616.00,82.70 5624.00,81.17 5624.00,81.17              5624.00,81.17 5640.00,79.56 5640.00,79.56              5647.39,78.37 5652.33,76.09 5660.00,76.20              5663.00,75.97 5670.41,75.84 5673.00,76.20              5680.17,77.90 5686.30,81.98 5693.00,84.44              5697.77,86.20 5700.48,85.68 5704.00,86.53              5708.29,87.57 5710.99,89.95 5715.00,91.44              5715.00,91.44 5730.00,95.64 5730.00,95.64              5734.16,97.49 5736.74,100.81 5742.00,103.05              5742.00,103.05 5752.00,105.62 5752.00,105.62              5752.00,105.62 5771.72,112.65 5771.72,112.65              5774.79,114.43 5774.29,117.51 5778.53,123.00              5782.75,128.46 5787.77,131.88 5794.00,134.69              5794.00,134.69 5814.00,140.59 5814.00,140.59              5821.16,142.86 5834.73,147.36 5842.00,146.91              5848.40,146.51 5851.55,143.97 5855.00,143.69              5855.00,143.69 5865.00,143.69 5865.00,143.69              5865.00,143.69 5891.00,138.07 5891.00,138.07              5894.14,137.22 5897.88,135.08 5901.00,135.37              5901.00,135.37 5917.00,140.87 5917.00,140.87              5928.49,143.62 5926.08,139.79 5944.00,145.98              5951.91,148.71 5952.36,152.85 5965.00,153.00              5971.98,153.08 5979.56,153.67 5986.00,150.60              5986.00,150.60 6010.00,134.02 6010.00,134.02              6013.49,132.78 6024.56,136.21 6030.00,135.72              6033.55,135.71 6035.25,134.83 6039.00,135.72              6050.73,137.73 6058.17,145.48 6071.00,144.96              6077.47,144.70 6079.54,142.83 6084.00,142.02              6084.00,142.02 6097.00,142.02 6097.00,142.02              6097.00,142.02 6106.00,140.44 6106.00,140.44              6111.29,140.90 6114.56,146.46 6127.00,145.96              6134.25,145.67 6140.61,142.59 6146.00,137.82              6150.85,133.52 6152.18,129.15 6159.00,129.03              6165.41,128.92 6168.08,132.02 6184.00,132.00              6194.45,131.98 6198.33,129.35 6203.00,129.46              6203.00,129.46 6217.00,131.00 6217.00,131.00              6217.00,131.00 6252.00,133.00 6252.00,133.00              6252.00,133.00 6270.00,131.40 6270.00,131.40              6275.94,132.55 6278.55,137.03 6283.00,140.47              6287.99,144.33 6293.68,146.71 6300.00,146.96              6315.22,147.58 6322.47,137.39 6331.58,126.99              6335.02,123.06 6339.27,117.23 6344.01,115.11              6344.01,115.11 6352.00,112.46 6352.00,112.46              6352.00,112.46 6368.00,106.57 6368.00,106.57              6368.00,106.57 6388.00,102.54 6388.00,102.54              6388.00,102.54 6399.00,99.67 6399.00,99.67              6405.65,98.25 6412.27,98.26 6419.00,97.96              6419.00,97.96 6432.00,95.85 6432.00,95.85              6437.07,96.02 6437.20,99.15 6451.00,99.00              6451.00,99.00 6483.00,95.08 6483.00,95.08              6487.15,95.13 6495.59,98.98 6510.00,98.77              6514.15,99.01 6521.18,99.22 6525.00,98.77              6525.00,98.77 6538.00,95.68 6538.00,95.68              6538.00,95.68 6552.00,95.68 6552.00,95.68              6561.39,94.81 6570.83,88.14 6579.00,88.00              6579.00,88.00 6594.00,88.00 6594.00,88.00              6600.01,87.93 6609.36,85.29 6615.00,83.07              6615.00,83.07 6622.00,79.96 6622.00,79.96              6622.00,79.96 6634.00,77.78 6634.00,77.78              6634.00,77.78 6657.00,68.21 6657.00,68.21              6659.23,67.87 6663.56,67.99 6666.00,68.21              6666.00,68.21 6681.00,68.96 6681.00,68.96              6686.14,68.76 6691.81,67.15 6697.00,68.41              6702.14,69.67 6705.03,73.97 6715.00,73.97              6726.18,73.97 6736.19,67.94 6740.00,66.98              6743.60,66.07 6751.90,67.80 6756.00,67.96              6756.00,67.96 6768.00,67.32 6768.00,67.32              6768.00,67.32 6785.00,68.00 6785.00,68.00              6796.23,68.02 6805.53,73.71 6817.00,73.99              6817.00,73.99 6859.00,70.00 6859.00,70.00              6859.00,70.00 6885.00,71.00 6885.00,71.00              6885.00,71.00 6914.00,75.00 6914.00,75.00              6917.37,75.64 6922.23,75.86 6924.69,78.31              6927.32,80.95 6928.00,89.83 6929.56,94.00              6931.56,99.35 6934.81,102.40 6937.68,107.00              6942.81,115.23 6944.07,120.83 6954.00,125.60              6960.78,128.86 6971.22,128.86 6978.00,125.60              6987.25,121.16 6984.61,118.06 6997.00,118.00              7001.53,117.98 7005.57,118.27 7010.00,117.07              7015.31,115.64 7018.26,112.96 7024.00,112.18              7024.00,112.18 7040.00,110.83 7040.00,110.83              7040.00,110.83 7049.00,109.17 7049.00,109.17              7049.00,109.17 7069.00,108.18 7069.00,108.18              7069.00,108.18 7083.00,110.00 7083.00,110.00              7087.66,110.05 7091.54,110.08 7096.00,108.44              7100.09,106.94 7103.38,103.83 7108.00,104.25              7108.00,104.25 7126.00,110.84 7126.00,110.84              7134.20,113.05 7139.11,111.18 7145.00,112.53              7145.00,112.53 7163.00,119.33 7163.00,119.33              7171.91,121.59 7172.30,120.42 7179.00,121.29              7179.00,121.29 7195.00,123.77 7195.00,123.77              7195.00,123.77 7205.00,123.77 7205.00,123.77              7205.00,123.77 7224.00,126.83 7224.00,126.83              7228.46,127.31 7233.77,127.00 7238.00,125.44              7241.77,124.06 7245.04,121.08 7249.00,121.49              7249.00,121.49 7259.00,124.53 7259.00,124.53              7262.64,125.23 7273.14,125.57 7275.72,127.02              7275.72,127.02 7289.00,138.82 7289.00,138.82              7294.67,143.71 7305.44,149.36 7313.00,149.91              7322.46,150.60 7330.69,147.71 7338.00,141.67              7338.00,141.67 7347.28,133.02 7347.28,133.02              7349.80,131.60 7354.04,132.11 7357.00,131.83              7357.00,131.83 7378.00,129.20 7378.00,129.20              7382.06,129.60 7385.20,131.61 7389.00,132.78              7392.50,133.86 7395.78,133.72 7399.00,135.51              7405.56,139.14 7407.50,142.45 7416.00,143.60              7421.60,144.53 7424.85,143.28 7428.00,143.60              7432.65,143.81 7435.14,146.38 7445.00,145.96              7445.00,145.96 7464.00,143.85 7464.00,143.85              7467.03,143.97 7470.03,145.86 7473.00,146.78              7477.22,148.09 7480.65,148.05 7485.00,148.00              7485.00,148.00 7502.00,146.79 7502.00,146.79              7507.31,147.27 7510.21,149.73 7517.00,149.96              7523.73,150.18 7526.55,148.12 7530.00,148.59              7534.52,149.20 7538.71,154.54 7549.00,153.91              7549.00,153.91 7563.00,150.76 7563.00,150.76              7563.00,150.76 7577.00,149.32 7577.00,149.32              7581.95,148.19 7583.57,146.34 7589.00,146.04              7589.00,146.04 7607.00,147.38 7607.00,147.38              7615.40,149.05 7613.25,150.98 7626.00,151.00              7636.71,151.02 7647.47,149.92 7658.00,148.00              7658.47,153.80 7659.48,160.97 7662.48,166.00              7671.14,180.52 7691.36,187.60 7707.00,180.65              7707.00,180.65 7730.00,165.48 7730.00,165.48              7732.94,163.17 7736.68,158.94 7740.00,157.75              7745.23,155.88 7762.37,160.36 7769.00,159.91              7775.62,159.46 7783.40,155.17 7789.00,156.64              7791.99,157.42 7795.03,159.46 7801.00,160.54              7805.51,161.35 7808.62,160.48 7813.00,161.95              7820.90,164.60 7823.54,168.55 7833.00,168.96              7848.44,169.63 7845.39,163.62 7859.00,163.96              7862.57,164.05 7870.92,162.37 7872.83,163.19              7876.25,164.68 7879.86,172.29 7890.00,175.07              7890.00,175.07 7902.00,176.81 7902.00,176.81              7910.13,179.64 7909.40,182.15 7922.00,184.39              7922.00,184.39 7944.00,186.41 7944.00,186.41              7944.00,186.41 7955.00,191.07 7955.00,191.07              7962.17,193.05 7969.65,192.91 7977.00,193.00              7985.04,193.11 7985.52,195.12 7992.00,195.83              7996.61,196.33 8001.50,195.50 8005.83,197.65              8008.55,199.00 8016.45,207.43 8025.00,211.05              8029.70,213.03 8032.91,212.65 8036.00,213.69              8036.00,213.69 8045.00,217.78 8045.00,217.78              8047.76,218.67 8051.36,218.93 8053.61,220.73              8056.16,222.78 8057.00,226.37 8061.18,230.96              8061.18,230.96 8067.39,237.17 8067.39,237.17              8067.39,237.17 8079.70,256.00 8079.70,256.00              8079.70,256.00 8082.90,265.00 8082.90,265.00              8082.90,265.00 8088.44,275.00 8088.44,275.00              8088.44,275.00 8090.17,298.00 8090.17,298.00              8090.17,298.00 8092.79,309.00 8092.79,309.00              8092.79,309.00 8093.68,320.00 8093.68,320.00              8093.68,320.00 8096.29,330.00 8096.29,330.00              8096.29,330.00 8096.29,341.00 8096.29,341.00              8096.29,341.00 8098.00,361.00 8098.00,361.00              8098.00,361.00 8098.00,405.00 8098.00,405.00              8098.00,405.00 8099.00,420.00 8099.00,420.00              8099.00,420.00 8099.00,443.00 8099.00,443.00              8099.00,443.00 8098.18,458.00 8098.18,458.00              8098.18,458.00 8098.18,473.00 8098.18,473.00              8098.05,476.94 8097.07,477.02 8097.00,484.00              8097.00,484.00 8099.00,512.00 8099.00,512.00              8099.00,512.00 8098.00,530.00 8098.00,530.00              8098.00,530.00 8098.00,554.00 8098.00,554.00              8098.00,554.00 8097.16,571.00 8097.16,571.00              8097.16,571.00 8097.16,591.00 8097.16,591.00              8097.16,591.00 8097.16,607.00 8097.16,607.00              8097.16,607.00 8098.00,620.00 8098.00,620.00              8098.00,620.00 8098.66,636.00 8098.66,636.00              8098.66,636.00 8098.01,647.00 8098.01,647.00              8098.01,647.00 8098.82,658.00 8098.82,658.00              8098.82,658.00 8097.09,675.00 8097.09,675.00              8097.09,675.00 8097.82,687.00 8097.82,687.00              8097.50,691.43 8096.67,692.96 8097.17,698.00              8097.57,702.05 8099.03,705.90 8098.67,710.00              8098.09,716.80 8096.90,717.01 8097.00,726.00              8097.00,726.00 8098.00,744.00 8098.00,744.00              8098.00,744.00 8097.09,757.00 8097.09,757.00              8097.09,757.00 8097.92,765.00 8097.92,765.00              8097.92,765.00 8097.00,778.00 8097.00,778.00              8097.00,778.00 8097.00,795.00 8097.00,795.00              8097.00,795.00 8096.05,807.00 8096.05,807.00              8096.05,807.00 8096.05,820.00 8096.05,820.00              8096.05,820.00 8099.00,854.00 8099.00,854.00              8099.00,854.00 8099.00,876.00 8099.00,876.00              8099.00,876.00 8097.70,894.00 8097.70,894.00              8097.70,894.00 8096.09,902.00 8096.09,902.00              8096.09,902.00 8096.09,914.00 8096.09,914.00              8096.09,914.00 8096.63,924.00 8096.63,924.00              8096.63,924.00 8095.04,943.00 8095.04,943.00              8095.04,943.00 8096.82,955.00 8096.82,955.00              8096.82,955.00 8096.04,966.00 8096.04,966.00              8096.04,966.00 8098.82,988.00 8098.82,988.00              8098.82,988.00 8097.04,1003.00 8097.04,1003.00              8097.04,1003.00 8097.66,1012.00 8097.66,1012.00              8097.66,1012.00 8097.00,1022.00 8097.00,1022.00              8097.00,1022.00 8097.00,1048.00 8097.00,1048.00              8097.00,1048.00 8097.92,1059.00 8097.92,1059.00              8097.92,1059.00 8097.00,1072.00 8097.00,1072.00              8097.00,1072.00 8097.00,1086.00 8097.00,1086.00              8097.00,1086.00 8098.00,1101.00 8098.00,1101.00              8098.00,1101.00 8098.00,1120.00 8098.00,1120.00              8098.00,1120.00 8097.04,1135.00 8097.04,1135.00              8097.04,1135.00 8098.00,1148.00 8098.00,1148.00              8098.00,1148.00 8098.00,1202.00 8098.00,1202.00              8098.00,1202.00 8098.00,1251.00 8098.00,1251.00              8098.00,1251.00 8097.04,1265.00 8097.04,1265.00              8097.04,1265.00 8098.00,1278.00 8098.00,1278.00              8098.00,1278.00 8098.00,1325.00 8098.00,1325.00              8098.00,1325.00 8097.15,1348.00 8097.15,1348.00              8097.15,1348.00 8097.15,1358.00 8097.15,1358.00              8097.15,1358.00 8098.18,1366.00 8098.18,1366.00              8098.18,1366.00 8098.18,1376.00 8098.18,1376.00              8098.18,1376.00 8098.18,1382.00 8098.18,1382.00              8098.35,1385.78 8097.09,1387.03 8097.00,1394.00              8097.00,1394.00 8097.00,1426.00 8097.00,1426.00              8097.00,1426.00 8097.82,1440.00 8097.82,1440.00              8097.82,1440.00 8097.16,1451.00 8097.16,1451.00              8097.16,1451.00 8097.16,1472.00 8097.16,1472.00              8097.16,1472.00 8097.16,1485.00 8097.16,1485.00              8097.16,1485.00 8098.00,1502.00 8098.00,1502.00              8098.00,1502.00 8098.00,1552.00 8098.00,1552.00              8098.00,1552.00 8097.11,1567.00 8097.11,1567.00              8097.11,1567.00 8097.11,1588.00 8097.11,1588.00              8097.11,1588.00 8097.11,1607.00 8097.11,1607.00              8097.11,1607.00 8097.11,1619.00 8097.11,1619.00              8097.11,1619.00 8097.11,1626.00 8097.11,1626.00              8097.11,1626.00 8097.96,1638.00 8097.96,1638.00              8097.96,1638.00 8097.04,1651.00 8097.04,1651.00              8097.04,1651.00 8097.04,1666.00 8097.04,1666.00              8097.04,1666.00 8098.12,1678.00 8098.12,1678.00              8098.12,1678.00 8098.12,1715.00 8098.12,1715.00              8098.12,1715.00 8098.12,1724.00 8098.12,1724.00              8098.12,1724.00 8098.12,1732.00 8098.12,1732.00              8098.12,1732.00 8098.12,1739.00 8098.12,1739.00              8098.12,1739.00 8098.12,1748.00 8098.12,1748.00              8098.12,1748.00 8099.00,1759.00 8099.00,1759.00              8099.00,1759.00 8099.00,1781.00 8099.00,1781.00              8099.00,1781.00 8098.00,1795.00 8098.00,1795.00              8098.00,1795.00 8098.00,1806.00 8098.00,1806.00              8098.00,1806.00 8097.00,1826.00 8097.00,1826.00              8097.00,1826.00 8099.97,1855.00 8099.97,1855.00              8099.97,1855.00 8098.00,1873.00 8098.00,1873.00              8098.00,1873.00 8098.00,1937.00 8098.00,1937.00              8098.00,1937.00 8098.66,1946.00 8098.66,1946.00              8098.66,1946.00 8098.00,1956.00 8098.00,1956.00              8098.00,1956.00 8098.00,1960.00 8098.00,1960.00              8098.00,1960.00 8098.96,1975.00 8098.96,1975.00              8098.96,1975.00 8097.01,1994.00 8097.01,1994.00              8097.01,1994.00 8098.00,2009.00 8098.00,2009.00              8098.00,2009.00 8098.00,2031.00 8098.00,2031.00              8098.00,2031.00 8099.00,2045.00 8099.00,2045.00              8099.00,2045.00 8098.00,2065.00 8098.00,2065.00              8098.00,2065.00 8098.00,2117.00 8098.00,2117.00              8098.00,2117.00 8097.00,2137.00 8097.00,2137.00              8097.00,2137.00 8098.91,2166.00 8098.91,2166.00              8098.91,2166.00 8098.10,2174.00 8098.10,2174.00              8098.10,2174.00 8098.10,2182.00 8098.10,2182.00              8098.10,2182.00 8098.10,2199.00 8098.10,2199.00              8098.10,2199.00 8097.00,2234.00 8097.00,2234.00              8097.00,2234.00 8097.55,2243.00 8097.55,2243.00              8097.55,2243.00 8097.04,2252.00 8097.04,2252.00              8097.04,2252.00 8097.97,2262.00 8097.97,2262.00              8097.97,2262.00 8097.02,2272.00 8097.02,2272.00              8097.02,2272.00 8097.02,2290.00 8097.02,2290.00              8097.01,2299.10 8098.61,2301.13 8098.66,2305.00              8098.66,2305.00 8098.00,2314.00 8098.00,2314.00              8098.00,2314.00 8098.82,2327.00 8098.82,2327.00              8098.82,2327.00 8098.09,2340.00 8098.09,2340.00              8098.09,2340.00 8098.09,2373.00 8098.09,2373.00              8098.09,2373.00 8098.09,2382.00 8098.09,2382.00              8098.09,2382.00 8097.00,2397.00 8097.00,2397.00              8097.00,2397.00 8097.00,2425.00 8097.00,2425.00              8097.00,2425.00 8094.03,2456.00 8094.03,2456.00              8094.03,2461.16 8095.07,2462.60 8095.70,2467.00              8095.70,2467.00 8096.99,2484.00 8096.99,2484.00              8096.99,2484.00 8096.09,2500.00 8096.09,2500.00              8096.09,2500.00 8096.68,2505.00 8096.68,2505.00              8096.68,2505.00 8095.83,2520.00 8095.83,2520.00              8095.83,2520.00 8094.09,2530.00 8094.09,2530.00              8094.09,2530.00 8094.92,2542.00 8094.92,2542.00              8094.92,2542.00 8093.09,2554.00 8093.09,2554.00              8093.09,2554.00 8093.96,2568.00 8093.96,2568.00              8093.96,2568.00 8093.09,2579.00 8093.09,2579.00              8093.56,2586.60 8095.98,2585.65 8096.00,2597.00              8096.00,2597.00 8096.68,2613.00 8096.68,2613.00              8096.68,2613.00 8096.00,2629.00 8096.00,2629.00              8096.00,2629.00 8097.00,2643.00 8097.00,2643.00              8097.00,2643.00 8097.00,2658.00 8097.00,2658.00              8097.00,2658.00 8097.63,2670.00 8097.63,2670.00              8097.63,2670.00 8094.09,2699.00 8094.09,2699.00              8094.42,2704.38 8096.89,2709.89 8097.00,2719.00              8097.00,2719.00 8098.68,2755.00 8098.68,2755.00              8098.68,2755.00 8098.00,2780.00 8098.00,2780.00              8098.00,2780.00 8097.03,2793.00 8097.03,2793.00              8097.03,2793.00 8098.00,2806.00 8098.00,2806.00              8098.00,2806.00 8098.00,2829.00 8098.00,2829.00              8098.00,2829.00 8097.04,2841.00 8097.04,2841.00              8097.04,2841.00 8097.68,2852.00 8097.68,2852.00              8097.68,2852.00 8097.12,2869.00 8097.12,2869.00              8097.12,2869.00 8097.12,2881.00 8097.12,2881.00              8097.12,2881.00 8097.12,2890.00 8097.12,2890.00              8097.12,2890.00 8097.12,2967.00 8097.12,2967.00              8097.12,2967.00 8094.04,2989.00 8094.04,2989.00              8094.04,2989.00 8095.83,3000.00 8095.83,3000.00              8095.83,3000.00 8097.00,3021.00 8097.00,3021.00              8097.00,3021.00 8097.00,3047.00 8097.00,3047.00              8097.00,3047.00 8096.09,3062.00 8096.09,3062.00              8096.09,3062.00 8097.68,3080.00 8097.68,3080.00              8097.68,3080.00 8096.83,3094.00 8096.83,3094.00              8096.29,3098.99 8094.76,3101.12 8095.09,3107.00              8095.09,3107.00 8095.96,3118.00 8095.96,3118.00              8095.96,3118.00 8095.09,3129.00 8095.09,3129.00              8095.59,3137.13 8096.41,3132.99 8096.22,3144.00              8096.22,3144.00 8096.22,3154.00 8096.22,3154.00              8096.22,3154.00 8095.00,3179.00 8095.00,3179.00              8095.00,3179.00 8095.82,3191.00 8095.82,3191.00              8095.82,3191.00 8095.00,3207.00 8095.00,3207.00              8095.00,3207.00 8095.74,3219.00 8095.74,3219.00              8095.54,3224.17 8093.34,3226.05 8094.09,3237.00              8094.09,3237.00 8096.04,3255.00 8096.04,3255.00              8096.04,3255.00 8096.04,3264.00 8096.04,3264.00              8096.04,3264.00 8098.00,3286.00 8098.00,3286.00              8098.00,3286.00 8098.00,3341.00 8098.00,3341.00              8098.00,3341.00 8097.00,3356.00 8097.00,3356.00              8097.00,3356.00 8097.00,3374.00 8097.00,3374.00              8097.00,3374.00 8098.96,3393.00 8098.96,3393.00              8098.96,3393.00 8097.61,3411.00 8097.61,3411.00              8097.61,3411.00 8095.22,3418.00 8095.22,3418.00              8095.22,3418.00 8091.68,3432.00 8091.68,3432.00              8091.68,3432.00 8090.33,3446.00 8090.33,3446.00              8088.58,3454.22 8086.12,3455.21 8086.00,3465.00              8085.94,3470.61 8085.95,3474.77 8088.40,3480.00              8091.15,3485.90 8096.64,3492.49 8096.95,3499.00              8097.51,3510.50 8090.54,3523.57 8091.04,3535.00              8091.43,3543.97 8094.92,3546.73 8096.30,3551.00              8096.30,3551.00 8097.96,3571.00 8097.96,3571.00              8097.96,3571.00 8097.04,3586.00 8097.04,3586.00              8097.04,3586.00 8098.28,3601.00 8098.28,3601.00              8098.28,3601.00 8097.09,3609.00 8097.09,3609.00              8097.09,3609.00 8097.09,3618.00 8097.09,3618.00              8096.98,3629.71 8094.18,3632.80 8094.02,3641.00              8094.02,3641.00 8097.37,3667.00 8097.37,3667.00              8097.37,3667.00 8095.33,3681.00 8095.33,3681.00              8095.33,3681.00 8095.33,3693.00 8095.33,3693.00              8094.44,3709.51 8096.50,3704.37 8096.96,3715.00              8096.96,3715.00 8096.00,3732.00 8096.00,3732.00              8096.00,3732.00 8096.00,3749.00 8096.00,3749.00              8096.00,3749.00 8097.00,3762.00 8097.00,3762.00              8097.00,3762.00 8097.00,3784.00 8097.00,3784.00              8097.00,3784.00 8096.04,3799.00 8096.04,3799.00              8096.36,3806.37 8098.13,3805.24 8098.00,3817.00              8098.00,3817.00 8096.00,3842.00 8096.00,3842.00              8096.00,3842.00 8097.00,3862.00 8097.00,3862.00              8097.00,3862.00 8097.00,3907.00 8097.00,3907.00              8097.00,3907.00 8098.00,3922.00 8098.00,3922.00              8098.00,3922.00 8098.00,3942.00 8098.00,3942.00              8098.00,3942.00 8098.00,3959.00 8098.00,3959.00              8098.00,3959.00 8097.00,3979.00 8097.00,3979.00              8097.00,3979.00 8097.95,3989.00 8097.95,3989.00              8097.95,3989.00 8097.95,4002.00 8097.95,4002.00              8097.95,4002.00 8097.00,4017.00 8097.00,4017.00              8097.00,4017.00 8097.00,4021.00 8097.00,4021.00              8097.00,4021.00 8096.03,4033.00 8096.03,4033.00              8096.03,4033.00 8097.00,4050.00 8097.00,4050.00              8097.00,4050.00 8096.01,4065.00 8096.01,4065.00              8096.01,4065.00 8097.25,4078.00 8097.25,4078.00              8097.16,4082.71 8094.11,4088.96 8094.15,4098.00              8094.15,4098.00 8094.15,4112.00 8094.15,4112.00              8095.01,4116.92 8096.73,4119.64 8096.96,4125.00              8097.29,4132.55 8095.44,4134.40 8095.09,4140.00              8095.09,4140.00 8096.00,4155.00 8096.00,4155.00              8096.00,4155.00 8095.00,4174.00 8095.00,4174.00              8095.00,4174.00 8097.00,4197.00 8097.00,4197.00              8097.00,4197.00 8097.68,4219.00 8097.68,4219.00              8097.68,4219.00 8097.00,4229.00 8097.00,4229.00              8097.00,4229.00 8097.68,4257.00 8097.68,4257.00              8097.68,4257.00 8097.04,4266.00 8097.04,4266.00              8097.04,4266.00 8097.96,4278.00 8097.96,4278.00              8097.96,4278.00 8097.00,4289.00 8097.00,4289.00              8097.00,4289.00 8097.00,4309.00 8097.00,4309.00              8097.00,4309.00 8097.99,4326.00 8097.99,4326.00              8097.99,4326.00 8097.00,4340.00 8097.00,4340.00              8097.00,4340.00 8097.00,4370.00 8097.00,4370.00              8097.00,4370.00 8096.00,4385.00 8096.00,4385.00              8096.00,4385.00 8097.00,4404.00 8097.00,4404.00              8097.00,4404.00 8096.13,4414.00 8096.13,4414.00              8096.13,4414.00 8096.13,4425.00 8096.13,4425.00              8096.13,4425.00 8096.13,4435.00 8096.13,4435.00              8096.13,4435.00 8095.08,4444.00 8095.08,4444.00              8095.08,4444.00 8095.08,4455.00 8095.08,4455.00              8095.08,4455.00 8093.04,4470.00 8093.04,4470.00              8093.04,4470.00 8094.00,4489.00 8094.00,4489.00              8094.13,4499.51 8096.92,4500.05 8097.79,4506.00              8097.79,4506.00 8097.00,4522.00 8097.00,4522.00              8097.00,4522.00 8097.00,4534.00 8097.00,4534.00              8097.00,4534.00 8098.00,4548.00 8098.00,4548.00              8098.00,4548.00 8098.00,4579.00 8098.00,4579.00              8098.00,4579.00 8097.17,4593.00 8097.17,4593.00              8097.17,4593.00 8097.17,4618.00 8097.17,4618.00              8097.17,4618.00 8097.17,4627.00 8097.17,4627.00              8097.17,4627.00 8098.00,4639.00 8098.00,4639.00              8098.00,4639.00 8098.00,4663.00 8098.00,4663.00              8098.00,4663.00 8096.01,4682.00 8096.01,4682.00              8096.01,4682.00 8098.68,4702.00 8098.68,4702.00              8098.68,4702.00 8098.00,4715.00 8098.00,4715.00              8098.00,4715.00 8098.00,4763.00 8098.00,4763.00              8098.00,4763.00 8097.00,4783.00 8097.00,4783.00              8097.10,4791.18 8099.33,4794.28 8099.53,4799.00              8099.53,4799.00 8098.00,4815.00 8098.00,4815.00              8098.00,4815.00 8098.00,4898.00 8098.00,4898.00              8098.00,4898.00 8098.82,4909.00 8098.82,4909.00              8098.82,4909.00 8098.09,4916.00 8098.09,4916.00              8097.77,4921.65 8099.25,4923.61 8099.28,4928.00              8099.28,4928.00 8098.09,4942.00 8098.09,4942.00              8098.09,4942.00 8099.00,4954.00 8099.00,4954.00              8099.00,4954.00 8099.00,4968.00 8099.00,4968.00              8099.00,4968.00 8098.01,4981.00 8098.01,4981.00              8098.01,4981.00 8098.66,4992.00 8098.66,4992.00              8097.91,4999.59 8094.71,5005.74 8095.04,5014.00              8095.45,5024.08 8099.26,5023.00 8098.99,5035.00              8098.99,5035.00 8097.01,5061.00 8097.01,5061.00              8097.16,5067.12 8098.31,5068.18 8098.91,5073.00              8098.91,5073.00 8098.91,5085.00 8098.91,5085.00              8099.00,5086.99 8099.12,5090.09 8098.40,5091.91              8097.34,5094.60 8093.57,5097.42 8091.53,5100.01              8087.78,5104.78 8086.03,5109.96 8086.03,5116.00              8086.03,5121.62 8087.51,5126.41 8090.79,5131.00              8092.34,5133.17 8095.60,5136.25 8096.43,5138.28              8097.15,5140.04 8096.98,5143.79 8097.30,5146.00              8098.48,5154.23 8099.11,5152.34 8099.00,5162.00              8099.00,5162.00 8097.09,5180.00 8097.09,5180.00              8097.09,5180.00 8098.00,5187.00 8098.00,5187.00              8098.00,5187.00 8098.00,5198.00 8098.00,5198.00              8098.00,5198.00 8098.98,5207.00 8098.98,5207.00              8098.98,5207.00 8098.00,5222.00 8098.00,5222.00              8098.00,5222.00 8099.38,5238.00 8099.38,5238.00              8099.38,5238.00 8097.29,5250.00 8097.29,5250.00              8097.29,5250.00 8097.29,5260.00 8097.29,5260.00              8097.29,5260.00 8096.04,5284.00 8096.04,5284.00              8096.04,5284.00 8097.74,5295.00 8097.74,5295.00              8097.74,5295.00 8097.01,5307.00 8097.01,5307.00              8097.19,5314.47 8099.12,5316.67 8099.64,5321.00              8099.64,5321.00 8098.91,5333.00 8098.91,5333.00              8098.91,5333.00 8098.91,5347.00 8098.91,5347.00              8098.22,5352.66 8096.75,5353.78 8097.04,5361.00              8097.04,5361.00 8098.70,5371.00 8098.70,5371.00              8098.70,5371.00 8100.00,5389.00 8100.00,5389.00              8100.00,5389.00 8100.00,5427.00 8100.00,5427.00              8099.98,5438.92 8097.01,5437.78 8097.01,5448.00              8097.01,5458.22 8099.98,5457.08 8100.00,5469.00              8100.00,5469.00 8100.00,5483.00 8100.00,5483.00              8100.00,5483.00 8101.82,5504.00 8101.82,5504.00              8101.82,5504.00 8100.09,5515.00 8100.09,5515.00              8099.88,5518.49 8100.44,5519.89 8100.68,5523.00              8100.68,5523.00 8100.00,5536.00 8100.00,5536.00              8100.00,5536.00 8100.00,5547.00 8100.00,5547.00              8099.96,5555.43 8098.84,5554.76 8098.09,5561.00              8098.09,5561.00 8098.09,5576.00 8098.09,5576.00              8098.09,5576.00 8099.00,5590.00 8099.00,5590.00              8099.03,5597.18 8096.90,5610.00 8095.08,5617.00              8095.08,5617.00 8092.68,5625.00 8092.68,5625.00              8092.68,5625.00 8091.61,5636.00 8091.61,5636.00              8091.61,5636.00 8088.68,5645.00 8088.68,5645.00              8088.68,5645.00 8087.44,5655.00 8087.44,5655.00              8086.66,5657.44 8084.79,5659.78 8083.46,5662.00              8079.21,5669.10 8079.82,5671.85 8071.00,5675.04              8061.59,5678.44 8041.99,5675.59 8032.00,5673.63              8023.78,5672.02 8026.44,5671.02 8016.00,5671.00              8016.00,5671.00 8011.00,5671.00 8011.00,5671.00              8011.00,5671.00 7993.00,5669.47 7993.00,5669.47              7984.95,5667.66 7986.57,5666.05 7976.00,5666.00              7970.46,5665.97 7964.29,5665.57 7959.00,5667.22              7952.00,5669.40 7949.36,5672.48 7944.00,5675.16              7944.00,5675.16 7931.00,5680.46 7931.00,5680.46              7916.22,5685.83 7906.91,5685.37 7891.00,5694.43              7886.02,5697.26 7883.20,5699.05 7879.00,5703.04              7876.82,5705.12 7872.58,5709.83 7870.00,5710.88              7867.12,5712.05 7862.15,5709.89 7859.00,5709.01              7849.95,5707.26 7850.37,5708.22 7842.00,5709.01              7835.56,5709.28 7831.27,5706.11 7817.00,5709.66              7817.00,5709.66 7796.00,5716.41 7796.00,5716.41              7796.00,5716.41 7788.00,5718.55 7788.00,5718.55              7788.00,5718.55 7780.00,5722.04 7780.00,5722.04              7777.00,5723.08 7764.52,5724.07 7761.00,5723.99              7753.23,5723.80 7750.12,5720.77 7742.00,5721.04              7734.32,5721.30 7729.70,5725.05 7722.00,5723.25              7722.00,5723.25 7712.00,5720.25 7712.00,5720.25              7703.78,5716.54 7702.77,5711.68 7688.00,5712.01              7682.30,5712.14 7667.85,5714.32 7663.00,5712.69              7660.84,5711.96 7658.11,5710.04 7656.00,5708.90              7656.00,5708.90 7649.00,5705.34 7649.00,5705.34              7638.64,5698.85 7639.20,5697.02 7626.00,5697.00              7626.00,5697.00 7617.00,5697.00 7617.00,5697.00              7613.01,5697.05 7597.44,5699.49 7594.00,5700.95              7588.93,5703.10 7586.07,5706.72 7582.00,5707.69              7575.66,5709.20 7561.95,5707.62 7554.00,5711.40              7554.00,5711.40 7539.00,5720.46 7539.00,5720.46              7539.00,5720.46 7528.00,5725.31 7528.00,5725.31              7524.87,5727.03 7521.33,5729.95 7518.00,5730.70              7518.00,5730.70 7508.00,5731.46 7508.00,5731.46              7503.27,5732.32 7497.61,5734.80 7493.00,5734.82              7493.00,5734.82 7486.00,5733.96 7486.00,5733.96              7486.00,5733.96 7478.00,5733.96 7478.00,5733.96              7470.19,5733.09 7467.77,5731.90 7459.00,5732.00              7459.00,5732.00 7443.00,5733.47 7443.00,5733.47              7443.00,5733.47 7435.00,5735.27 7435.00,5735.27              7435.00,5735.27 7429.00,5735.27 7429.00,5735.27              7420.31,5734.64 7414.60,5738.00 7407.00,5741.08              7407.00,5741.08 7395.00,5746.32 7395.00,5746.32              7395.00,5746.32 7385.00,5748.75 7385.00,5748.75              7385.00,5748.75 7377.00,5751.61 7377.00,5751.61              7377.00,5751.61 7370.00,5752.30 7370.00,5752.30              7370.00,5752.30 7357.00,5754.29 7357.00,5754.29              7348.18,5755.48 7347.34,5757.00 7336.00,5757.41              7328.57,5757.68 7322.72,5754.76 7312.00,5756.44              7307.46,5757.15 7297.08,5759.32 7293.00,5760.93              7293.00,5760.93 7285.00,5764.45 7285.00,5764.45              7285.00,5764.45 7276.00,5767.34 7276.00,5767.34              7276.00,5767.34 7267.00,5771.65 7267.00,5771.65              7267.00,5771.65 7255.00,5775.23 7255.00,5775.23              7255.00,5775.23 7242.00,5780.40 7242.00,5780.40              7242.00,5780.40 7236.00,5783.32 7236.00,5783.32              7236.00,5783.32 7221.00,5787.39 7221.00,5787.39              7221.00,5787.39 7207.00,5788.93 7207.00,5788.93              7201.63,5790.38 7199.20,5792.89 7196.00,5792.87              7192.92,5792.86 7188.13,5789.37 7180.00,5789.04              7167.04,5788.52 7158.99,5793.13 7148.00,5794.70              7148.00,5794.70 7121.00,5794.00 7121.00,5794.00              7121.00,5794.00 7080.00,5802.37 7080.00,5802.37              7080.00,5802.37 7045.00,5799.00 7045.00,5799.00              7029.81,5798.83 7023.57,5803.31 7011.00,5805.54              7011.00,5805.54 7003.00,5806.17 7003.00,5806.17              7003.00,5806.17 6974.00,5810.66 6974.00,5810.66              6974.00,5810.66 6960.00,5813.68 6960.00,5813.68              6953.34,5815.24 6954.05,5816.89 6946.00,5817.00              6946.00,5817.00 6931.00,5817.00 6931.00,5817.00              6923.13,5817.04 6918.23,5818.16 6912.00,5823.33              6906.37,5827.99 6904.34,5832.61 6898.00,5836.53              6889.52,5841.78 6882.19,5841.54 6875.00,5844.47              6869.67,5846.65 6867.20,5849.43 6864.00,5851.11              6864.00,5851.11 6837.00,5859.79 6837.00,5859.79              6830.80,5860.69 6824.08,5858.17 6818.00,5857.25              6818.00,5857.25 6804.00,5857.25 6804.00,5857.25              6804.00,5857.25 6795.00,5853.55 6795.00,5853.55              6795.00,5853.55 6786.00,5851.11 6786.00,5851.11              6786.00,5851.11 6775.00,5846.93 6775.00,5846.93              6775.00,5846.93 6756.00,5843.94 6756.00,5843.94              6756.00,5843.94 6749.00,5843.94 6749.00,5843.94              6749.00,5843.94 6739.00,5841.19 6739.00,5841.19              6727.25,5839.43 6725.34,5840.25 6714.00,5841.19              6711.29,5841.29 6704.22,5842.87 6702.21,5842.23              6698.63,5841.10 6697.59,5835.14 6689.00,5828.53              6680.48,5821.97 6672.09,5822.89 6662.00,5823.00              6646.18,5823.19 6644.66,5830.16 6633.00,5832.99              6623.82,5835.17 6622.03,5833.20 6614.00,5832.99              6596.79,5832.62 6598.08,5839.44 6586.00,5842.40              6586.00,5842.40 6554.00,5844.00 6554.00,5844.00              6546.40,5844.09 6545.70,5845.49 6540.00,5845.91              6524.03,5847.08 6528.26,5845.27 6518.00,5844.17              6514.58,5843.81 6512.66,5844.28 6509.00,5843.40              6499.02,5841.02 6495.72,5837.27 6488.00,5834.55              6481.19,5832.15 6478.31,5833.71 6473.00,5832.21              6460.59,5828.71 6457.54,5825.02 6443.00,5825.00              6443.00,5825.00 6433.00,5825.00 6433.00,5825.00              6433.00,5825.00 6414.00,5826.11 6414.00,5826.11              6409.88,5825.54 6393.93,5818.53 6381.00,5819.04              6381.00,5819.04 6371.00,5820.56 6371.00,5820.56              6371.00,5820.56 6349.00,5822.96 6349.00,5822.96              6349.00,5822.96 6339.00,5822.04 6339.00,5822.04              6339.00,5822.04 6329.00,5822.04 6329.00,5822.04              6319.07,5822.02 6321.01,5823.08 6314.00,5824.06              6314.00,5824.06 6301.00,5824.06 6301.00,5824.06              6301.00,5824.06 6290.00,5826.70 6290.00,5826.70              6290.00,5826.70 6278.00,5827.47 6278.00,5827.47              6278.00,5827.47 6268.00,5830.56 6268.00,5830.56              6258.23,5833.47 6232.29,5840.48 6223.00,5839.82              6202.60,5838.37 6198.02,5834.14 6189.00,5833.09              6189.00,5833.09 6175.00,5833.09 6175.00,5833.09              6166.54,5833.10 6158.67,5836.61 6155.00,5836.43              6151.84,5836.27 6148.24,5833.70 6145.00,5832.55              6145.00,5832.55 6127.00,5827.66 6127.00,5827.66              6106.28,5823.00 6097.84,5823.76 6077.00,5824.00              6077.00,5824.00 6067.00,5824.96 6067.00,5824.96              6067.00,5824.96 6050.00,5824.96 6050.00,5824.96              6050.00,5824.96 6034.00,5825.96 6034.00,5825.96              6034.00,5825.96 6022.00,5825.04 6022.00,5825.04              6022.00,5825.04 6005.00,5827.30 6005.00,5827.30              6005.00,5827.30 5994.00,5827.30 5994.00,5827.30              5994.00,5827.30 5972.00,5827.30 5972.00,5827.30              5972.00,5827.30 5960.00,5826.00 5960.00,5826.00              5940.85,5825.78 5944.70,5828.82 5930.00,5831.01              5930.00,5831.01 5916.00,5831.01 5916.00,5831.01              5916.00,5831.01 5890.00,5828.54 5890.00,5828.54              5881.32,5827.01 5872.89,5825.11 5864.00,5825.00              5853.60,5824.88 5837.84,5827.03 5828.00,5830.22              5822.48,5832.01 5820.35,5834.70 5816.00,5836.34              5809.97,5838.62 5803.37,5839.07 5797.00,5839.00              5797.00,5839.00 5786.00,5838.15 5786.00,5838.15              5786.00,5838.15 5776.00,5838.15 5776.00,5838.15              5772.35,5838.05 5770.14,5836.78 5765.00,5837.09              5759.16,5837.45 5755.86,5839.98 5751.00,5839.79              5751.00,5839.79 5715.00,5834.04 5715.00,5834.04              5707.50,5833.75 5700.93,5835.86 5695.01,5840.53              5689.23,5845.10 5687.76,5850.51 5679.00,5849.66              5679.00,5849.66 5653.00,5843.87 5653.00,5843.87              5653.00,5843.87 5644.00,5839.56 5644.00,5839.56              5644.00,5839.56 5635.00,5837.08 5635.00,5837.08              5630.21,5834.96 5625.88,5829.88 5615.00,5829.09              5604.19,5828.30 5603.73,5831.57 5591.00,5830.96              5585.77,5830.71 5583.69,5829.31 5579.00,5828.46              5579.00,5828.46 5560.00,5827.21 5560.00,5827.21              5560.00,5827.21 5547.00,5827.21 5547.00,5827.21              5547.00,5827.21 5538.00,5827.21 5538.00,5827.21              5538.00,5827.21 5531.00,5827.21 5531.00,5827.21              5531.00,5827.21 5520.00,5827.21 5520.00,5827.21              5520.00,5827.21 5509.00,5827.21 5509.00,5827.21              5509.00,5827.21 5494.00,5828.92 5494.00,5828.92              5494.00,5828.92 5482.00,5828.92 5482.00,5828.92              5482.00,5828.92 5462.00,5831.00 5462.00,5831.00              5452.25,5831.11 5445.70,5830.25 5436.00,5832.66              5436.00,5832.66 5422.00,5836.56 5422.00,5836.56              5418.36,5837.89 5416.09,5839.80 5412.00,5840.20              5405.91,5840.79 5402.59,5837.02 5390.00,5837.00              5390.00,5837.00 5376.00,5837.00 5376.00,5837.00              5369.35,5837.08 5364.83,5839.19 5358.00,5837.74              5352.36,5836.55 5351.11,5833.15 5336.00,5831.45              5328.15,5830.32 5322.30,5831.86 5319.00,5831.45              5319.00,5831.45 5311.00,5830.00 5311.00,5830.00              5311.00,5830.00 5303.00,5830.00 5303.00,5830.00              5303.00,5830.00 5270.00,5828.00 5270.00,5828.00              5270.00,5828.00 5249.00,5830.11 5249.00,5830.11              5249.00,5830.11 5232.00,5830.11 5232.00,5830.11              5232.00,5830.11 5222.00,5832.79 5222.00,5832.79              5222.00,5832.79 5211.00,5833.30 5211.00,5833.30              5211.00,5833.30 5199.00,5836.53 5199.00,5836.53              5199.00,5836.53 5174.00,5838.00 5174.00,5838.00              5163.28,5838.13 5162.18,5841.09 5157.00,5842.51              5157.00,5842.51 5150.00,5843.46 5150.00,5843.46              5150.00,5843.46 5133.00,5847.52 5133.00,5847.52              5118.42,5852.32 5119.63,5855.90 5100.00,5858.84              5100.00,5858.84 5091.00,5858.84 5091.00,5858.84              5080.04,5859.84 5073.19,5860.88 5062.00,5858.84              5053.43,5857.10 5053.20,5854.60 5040.00,5853.16              5034.72,5852.59 5029.32,5851.72 5024.00,5852.09              5024.00,5852.09 5008.00,5853.91 5008.00,5853.91              5000.67,5853.49 4980.18,5851.93 4974.00,5849.90              4974.00,5849.90 4961.00,5845.02 4961.00,5845.02              4949.92,5839.74 4949.31,5837.02 4936.00,5837.00              4936.00,5837.00 4916.00,5837.79 4916.00,5837.79              4916.00,5837.79 4908.00,5836.15 4908.00,5836.15              4908.00,5836.15 4898.00,5836.15 4898.00,5836.15              4889.03,5835.89 4885.00,5833.91 4877.00,5832.46              4877.00,5832.46 4869.00,5831.63 4869.00,5831.63              4860.83,5830.05 4863.45,5829.02 4853.00,5829.00              4843.62,5828.99 4838.48,5828.83 4829.00,5830.29              4823.74,5831.11 4818.38,5833.20 4813.00,5832.82              4813.00,5832.82 4789.00,5832.00 4789.00,5832.00              4777.93,5832.05 4774.49,5835.34 4765.00,5836.70              4765.00,5836.70 4756.00,5837.30 4756.00,5837.30              4756.00,5837.30 4748.00,5839.06 4748.00,5839.06              4748.00,5839.06 4740.00,5839.06 4740.00,5839.06              4740.00,5839.06 4732.00,5840.91 4732.00,5840.91              4732.00,5840.91 4720.00,5840.91 4720.00,5840.91              4720.00,5840.91 4698.00,5843.00 4698.00,5843.00              4689.55,5842.89 4689.91,5840.77 4683.00,5839.47              4683.00,5839.47 4670.00,5838.83 4670.00,5838.83              4670.00,5838.83 4658.00,5837.04 4658.00,5837.04              4658.00,5837.04 4625.00,5841.37 4625.00,5841.37              4620.46,5841.68 4617.37,5839.38 4610.00,5840.17              4603.29,5840.89 4600.25,5843.55 4591.00,5843.37              4586.43,5843.27 4582.29,5840.08 4578.00,5838.55              4571.28,5836.15 4567.92,5836.00 4561.00,5836.21              4561.00,5836.21 4545.00,5836.21 4545.00,5836.21              4545.00,5836.21 4535.00,5838.22 4535.00,5838.22              4535.00,5838.22 4524.00,5838.22 4524.00,5838.22              4514.70,5838.77 4518.68,5840.26 4505.00,5840.13              4505.00,5840.13 4495.00,5840.13 4495.00,5840.13              4491.08,5840.03 4489.53,5838.78 4483.00,5839.04              4477.08,5839.28 4474.83,5841.08 4470.00,5840.67              4464.05,5840.17 4462.53,5838.71 4455.00,5839.04              4455.00,5839.04 4436.00,5841.82 4436.00,5841.82              4431.33,5841.80 4428.48,5839.72 4422.00,5840.09              4422.00,5840.09 4388.00,5844.82 4388.00,5844.82              4388.00,5844.82 4374.00,5844.00 4374.00,5844.00              4374.00,5844.00 4357.00,5843.00 4357.00,5843.00              4347.08,5843.01 4349.00,5844.08 4342.00,5844.92              4342.00,5844.92 4333.00,5844.92 4333.00,5844.92              4325.55,5845.09 4325.54,5846.24 4320.00,5846.83              4320.00,5846.83 4299.00,5848.08 4299.00,5848.08              4299.00,5848.08 4288.00,5848.08 4288.00,5848.08              4282.58,5848.75 4280.68,5850.37 4274.00,5849.91              4274.00,5849.91 4264.00,5848.17 4264.00,5848.17              4264.00,5848.17 4248.00,5846.83 4248.00,5846.83              4242.42,5846.22 4242.47,5845.09 4235.00,5845.00              4235.00,5845.00 4224.00,5845.00 4224.00,5845.00              4216.55,5844.91 4216.54,5843.76 4211.00,5842.98              4211.00,5842.98 4202.00,5842.98 4202.00,5842.98              4202.00,5842.98 4192.00,5840.29 4192.00,5840.29              4192.00,5840.29 4166.00,5837.75 4166.00,5837.75              4162.99,5837.97 4157.71,5838.24 4155.00,5837.75              4151.39,5836.53 4148.86,5834.03 4143.00,5832.68              4143.00,5832.68 4129.00,5831.70 4129.00,5831.70              4117.27,5830.03 4115.52,5828.00 4102.00,5828.00              4099.66,5815.67 4089.60,5809.52 4078.00,5807.46              4078.00,5807.46 4069.00,5806.61 4069.00,5806.61              4069.00,5806.61 4061.00,5803.93 4061.00,5803.93              4053.87,5802.01 4043.71,5802.69 4037.00,5805.79              4024.57,5811.56 4021.87,5817.28 4017.83,5820.19              4014.57,5822.54 4005.05,5826.43 4001.00,5827.40              4001.00,5827.40 3989.00,5828.30 3989.00,5828.30              3981.45,5829.41 3982.75,5831.49 3971.00,5830.96              3964.48,5830.67 3962.77,5828.74 3955.00,5829.04              3955.00,5829.04 3938.00,5831.70 3938.00,5831.70              3938.00,5831.70 3920.00,5832.98 3920.00,5832.98              3910.21,5833.17 3910.51,5830.23 3901.00,5830.01              3892.31,5829.81 3884.49,5832.91 3876.00,5833.83              3876.00,5833.83 3860.00,5835.30 3860.00,5835.30              3860.00,5835.30 3849.00,5837.91 3849.00,5837.91              3849.00,5837.91 3835.00,5837.91 3835.00,5837.91              3822.79,5838.02 3824.76,5839.84 3818.00,5840.79              3818.00,5840.79 3797.00,5842.15 3797.00,5842.15              3797.00,5842.15 3785.00,5842.15 3785.00,5842.15              3781.60,5842.80 3778.47,5844.34 3775.00,5844.13              3763.82,5843.46 3764.08,5840.21 3746.00,5840.00              3746.00,5840.00 3729.00,5839.04 3729.00,5839.04              3722.29,5839.34 3720.13,5841.30 3716.00,5841.78              3716.00,5841.78 3702.00,5841.00 3702.00,5841.00              3702.00,5841.00 3660.00,5839.00 3660.00,5839.00              3660.00,5839.00 3649.00,5839.92 3649.00,5839.92              3649.00,5839.92 3636.00,5839.00 3636.00,5839.00              3636.00,5839.00 3607.00,5840.00 3607.00,5840.00              3607.00,5840.00 3576.00,5843.00 3576.00,5843.00              3576.00,5843.00 3556.00,5844.96 3556.00,5844.96              3556.00,5844.96 3532.00,5843.04 3532.00,5843.04              3532.00,5843.04 3520.00,5843.04 3520.00,5843.04              3520.00,5843.04 3504.00,5844.79 3504.00,5844.79              3504.00,5844.79 3485.00,5844.79 3485.00,5844.79              3485.00,5844.79 3474.00,5843.91 3474.00,5843.91              3474.00,5843.91 3462.00,5843.91 3462.00,5843.91              3453.77,5842.95 3453.22,5841.02 3442.00,5841.00              3442.00,5841.00 3403.00,5841.00 3403.00,5841.00              3403.00,5841.00 3375.00,5843.00 3375.00,5843.00              3375.00,5843.00 3329.00,5842.00 3329.00,5842.00              3321.01,5842.04 3318.68,5843.63 3315.00,5843.66              3315.00,5843.66 3301.00,5842.00 3301.00,5842.00              3301.00,5842.00 3291.00,5842.00 3291.00,5842.00              3278.05,5841.82 3274.40,5831.14 3259.00,5832.09              3247.37,5832.81 3241.59,5840.92 3235.00,5841.86              3219.16,5844.12 3203.85,5841.02 3188.00,5841.00              3177.49,5840.98 3178.58,5839.54 3172.00,5839.09              3166.13,5838.69 3163.35,5840.02 3158.00,5840.86              3158.00,5840.86 3149.00,5840.86 3149.00,5840.86              3149.00,5840.86 3139.00,5842.09 3139.00,5842.09              3139.00,5842.09 3125.00,5842.09 3125.00,5842.09              3125.00,5842.09 3115.00,5842.09 3115.00,5842.09              3108.84,5841.87 3104.07,5838.67 3095.00,5839.04              3088.13,5839.32 3078.81,5843.41 3069.00,5842.82              3054.36,5841.58 3058.81,5842.97 3049.00,5842.82              3049.00,5842.82 3033.00,5842.00 3033.00,5842.00              3027.58,5842.07 3022.12,5843.07 3017.00,5844.86              3013.58,5846.06 3008.44,5848.61 3005.00,5848.71              3001.87,5848.81 2998.28,5847.08 2995.00,5846.47              2995.00,5846.47 2973.00,5843.91 2973.00,5843.91              2973.00,5843.91 2955.00,5843.91 2955.00,5843.91              2955.00,5843.91 2944.00,5842.04 2944.00,5842.04              2937.89,5841.84 2935.01,5843.44 2930.00,5843.82              2926.30,5844.10 2924.42,5843.29 2921.00,5843.09              2916.48,5842.84 2914.74,5843.73 2911.00,5843.90              2911.00,5843.90 2883.00,5841.57 2883.00,5841.57              2879.37,5840.61 2876.37,5837.71 2873.00,5835.91              2868.55,5833.54 2864.00,5832.84 2859.00,5833.04              2847.64,5833.50 2840.42,5839.59 2831.00,5841.16              2831.00,5841.16 2817.00,5840.00 2817.00,5840.00              2817.00,5840.00 2796.00,5840.00 2796.00,5840.00              2796.00,5840.00 2780.00,5839.09 2780.00,5839.09              2775.95,5839.38 2772.09,5841.06 2768.00,5840.66              2763.03,5840.18 2762.18,5838.75 2755.00,5839.04              2755.00,5839.04 2744.00,5840.25 2744.00,5840.25              2744.00,5840.25 2729.00,5838.04 2729.00,5838.04              2716.53,5837.54 2704.06,5843.42 2692.00,5845.77              2692.00,5845.77 2664.00,5845.77 2664.00,5845.77              2664.00,5845.77 2630.00,5843.02 2630.00,5843.02              2630.00,5843.02 2606.00,5847.54 2606.00,5847.54              2606.00,5847.54 2587.00,5848.17 2587.00,5848.17              2587.00,5848.17 2576.00,5850.70 2576.00,5850.70              2572.94,5850.91 2569.26,5849.52 2566.00,5849.17              2566.00,5849.17 2545.00,5848.00 2545.00,5848.00              2545.00,5848.00 2526.00,5848.00 2526.00,5848.00              2526.00,5848.00 2509.00,5846.04 2509.00,5846.04              2502.44,5846.26 2494.41,5849.36 2487.00,5848.91              2487.00,5848.91 2473.00,5846.11 2473.00,5846.11              2473.00,5846.11 2458.00,5846.11 2458.00,5846.11              2458.00,5846.11 2444.00,5846.11 2444.00,5846.11              2444.00,5846.11 2432.00,5845.01 2432.00,5845.01              2432.00,5845.01 2423.00,5846.04 2423.00,5846.04              2423.00,5846.04 2413.00,5846.04 2413.00,5846.04              2413.00,5846.04 2398.00,5847.66 2398.00,5847.66              2398.00,5847.66 2378.00,5844.21 2378.00,5844.21              2378.00,5844.21 2367.00,5844.21 2367.00,5844.21              2367.00,5844.21 2359.00,5844.21 2359.00,5844.21              2359.00,5844.21 2347.00,5844.96 2347.00,5844.96              2347.00,5844.96 2336.00,5844.00 2336.00,5844.00              2336.00,5844.00 2315.00,5844.00 2315.00,5844.00              2311.80,5844.00 2305.55,5844.65 2303.00,5844.00              2296.98,5842.47 2293.96,5837.57 2282.00,5838.04              2267.33,5838.61 2261.86,5844.13 2255.00,5845.61              2252.40,5846.17 2247.83,5845.97 2245.00,5846.21              2245.00,5846.21 2236.00,5846.21 2236.00,5846.21              2236.00,5846.21 2228.00,5846.21 2228.00,5846.21              2220.62,5846.52 2217.48,5848.95 2208.00,5849.11              2208.00,5849.11 2194.00,5849.11 2194.00,5849.11              2194.00,5849.11 2185.00,5849.11 2185.00,5849.11              2181.87,5848.79 2179.71,5846.55 2174.00,5845.23              2170.32,5844.77 2163.98,5845.02 2160.00,5845.23              2160.00,5845.23 2145.00,5844.04 2145.00,5844.04              2145.00,5844.04 2132.00,5845.28 2132.00,5845.28              2127.57,5845.24 2125.50,5843.76 2120.00,5844.09              2120.00,5844.09 2110.00,5845.91 2110.00,5845.91              2110.00,5845.91 2098.00,5845.91 2098.00,5845.91              2098.00,5845.91 2088.00,5846.74 2088.00,5846.74              2083.15,5846.85 2081.66,5844.80 2072.00,5845.01              2072.00,5845.01 2061.00,5845.81 2061.00,5845.81              2061.00,5845.81 2044.00,5841.30 2044.00,5841.30              2035.32,5840.02 2031.72,5843.22 2025.00,5842.90              2025.00,5842.90 2016.00,5841.30 2016.00,5841.30              2008.68,5840.22 2001.43,5838.92 1994.00,5839.00              1989.58,5839.06 1986.06,5839.46 1982.00,5841.40              1978.25,5843.19 1975.14,5846.49 1971.00,5846.69              1971.00,5846.69 1966.00,5846.00 1966.00,5846.00              1966.00,5846.00 1958.00,5846.00 1958.00,5846.00              1958.00,5846.00 1949.00,5843.94 1949.00,5843.94              1949.00,5843.94 1939.00,5843.94 1939.00,5843.94              1933.48,5842.91 1932.48,5841.78 1926.00,5842.04              1926.00,5842.04 1915.00,5843.74 1915.00,5843.74              1915.00,5843.74 1908.00,5843.09 1908.00,5843.09              1908.00,5843.09 1892.00,5843.09 1892.00,5843.09              1888.83,5843.27 1886.22,5844.20 1883.00,5843.60              1879.45,5842.93 1876.29,5840.48 1870.00,5840.09              1870.00,5840.09 1855.00,5840.81 1855.00,5840.81              1855.00,5840.81 1840.00,5840.81 1840.00,5840.81              1840.00,5840.81 1832.00,5838.47 1832.00,5838.47              1832.00,5838.47 1823.00,5837.32 1823.00,5837.32              1817.73,5836.11 1815.09,5833.82 1809.00,5833.17              1799.69,5832.18 1796.99,5835.60 1790.00,5835.96              1790.00,5835.96 1771.00,5835.00 1771.00,5835.00              1771.00,5835.00 1758.00,5836.16 1758.00,5836.16              1758.00,5836.16 1748.00,5833.67 1748.00,5833.67              1748.00,5833.67 1734.00,5832.09 1734.00,5832.09              1721.44,5831.23 1720.53,5833.88 1714.00,5834.79              1714.00,5834.79 1702.00,5835.68 1702.00,5835.68              1692.51,5837.82 1682.61,5844.26 1679.00,5845.36              1679.00,5845.36 1671.00,5846.66 1671.00,5846.66              1667.18,5847.43 1665.08,5848.18 1661.00,5847.90              1661.00,5847.90 1639.00,5843.44 1639.00,5843.44              1639.00,5843.44 1629.00,5842.70 1629.00,5842.70              1609.23,5839.88 1617.90,5839.26 1595.00,5839.00              1595.00,5839.00 1577.00,5837.09 1577.00,5837.09              1577.00,5837.09 1552.00,5840.62 1552.00,5840.62              1547.32,5840.41 1543.75,5836.42 1534.00,5837.09              1528.48,5837.47 1526.13,5839.21 1522.00,5839.79              1522.00,5839.79 1495.00,5842.00 1495.00,5842.00              1491.31,5842.04 1484.33,5842.25 1481.00,5841.39              1473.37,5839.44 1470.15,5835.41 1461.00,5835.04              1461.00,5835.04 1442.00,5836.17 1442.00,5836.17              1442.00,5836.17 1434.00,5836.17 1434.00,5836.17              1434.00,5836.17 1425.00,5836.17 1425.00,5836.17              1425.00,5836.17 1405.00,5837.66 1405.00,5837.66              1405.00,5837.66 1395.00,5837.04 1395.00,5837.04              1395.00,5837.04 1376.00,5838.82 1376.00,5838.82              1376.00,5838.82 1364.00,5837.04 1364.00,5837.04              1353.64,5836.62 1350.92,5840.30 1346.00,5840.70              1346.00,5840.70 1332.00,5839.13 1332.00,5839.13              1332.00,5839.13 1311.00,5839.13 1311.00,5839.13              1311.00,5839.13 1297.00,5840.47 1297.00,5840.47              1297.00,5840.47 1289.00,5842.18 1289.00,5842.18              1289.00,5842.18 1282.00,5842.18 1282.00,5842.18              1269.78,5841.76 1265.99,5845.83 1261.00,5845.44              1261.00,5845.44 1252.00,5842.90 1252.00,5842.90              1252.00,5842.90 1244.00,5841.63 1244.00,5841.63              1236.23,5840.05 1229.09,5837.10 1221.00,5837.00              1211.90,5836.90 1202.64,5837.35 1194.00,5840.56              1189.08,5842.39 1186.39,5845.56 1182.00,5846.74              1172.09,5849.39 1169.31,5845.58 1161.00,5846.09              1161.00,5846.09 1141.00,5849.68 1141.00,5849.68              1141.00,5849.68 1130.00,5849.00 1130.00,5849.00              1130.00,5849.00 1112.00,5850.00 1112.00,5850.00              1112.00,5850.00 1095.00,5850.00 1095.00,5850.00              1095.00,5850.00 1075.00,5847.96 1075.00,5847.96              1075.00,5847.96 1067.00,5847.96 1067.00,5847.96              1067.00,5847.96 1040.00,5843.91 1040.00,5843.91              1035.00,5842.97 1031.23,5841.22 1026.00,5841.04              1019.64,5840.83 1014.94,5843.16 1009.00,5843.67              1002.10,5844.27 991.15,5840.58 984.00,5840.09              975.31,5839.50 969.56,5843.57 956.00,5842.96              956.00,5842.96 937.00,5839.46 937.00,5839.46              937.00,5839.46 915.00,5838.00 915.00,5838.00              915.00,5838.00 890.00,5837.47 890.00,5837.47              879.84,5835.19 866.94,5828.46 857.00,5829.09              848.13,5829.65 829.43,5832.56 821.00,5834.92              811.20,5837.67 804.66,5841.98 794.00,5842.00              794.00,5842.00 775.00,5842.00 775.00,5842.00              775.00,5842.00 756.00,5840.04 756.00,5840.04              756.00,5840.04 748.00,5840.96 748.00,5840.96              748.00,5840.96 735.00,5840.96 735.00,5840.96              725.98,5841.11 725.19,5843.08 719.00,5843.91              719.00,5843.91 709.00,5843.91 709.00,5843.91              703.94,5844.06 690.90,5847.21 685.00,5848.45              682.43,5848.99 678.33,5850.62 676.00,5850.38              673.09,5850.08 670.18,5847.56 666.00,5846.22              666.00,5846.22 658.00,5844.64 658.00,5844.64              649.22,5842.74 649.34,5841.37 639.00,5842.09              630.90,5842.65 623.40,5846.19 621.00,5846.24              617.95,5846.30 615.24,5844.29 609.00,5844.04              600.98,5843.71 600.46,5845.39 594.00,5846.63              594.00,5846.63 577.00,5847.82 577.00,5847.82              577.00,5847.82 552.00,5844.00 552.00,5844.00              552.00,5844.00 542.00,5844.00 542.00,5844.00              537.50,5843.40 535.94,5842.82 531.00,5843.04              531.00,5843.04 507.00,5847.83 507.00,5847.83              497.62,5848.83 494.83,5846.95 487.00,5846.14              487.00,5846.14 475.00,5846.14 475.00,5846.14              475.00,5846.14 457.00,5843.37 457.00,5843.37              457.00,5843.37 437.00,5836.68 437.00,5836.68              429.13,5834.78 422.97,5834.91 415.00,5835.00              415.00,5835.00 399.00,5836.74 399.00,5836.74              399.00,5836.74 383.00,5834.00 383.00,5834.00              383.00,5834.00 370.00,5834.00 370.00,5834.00              370.00,5834.00 360.00,5831.80 360.00,5831.80              360.00,5831.80 351.00,5830.56 351.00,5830.56              341.48,5828.90 337.12,5822.51 324.00,5823.04              317.85,5823.29 314.06,5824.99 309.00,5828.36              305.92,5830.41 301.85,5834.16 298.00,5834.05              294.44,5833.95 290.39,5829.77 287.00,5827.90              283.88,5826.19 271.60,5822.11 268.00,5821.46              268.00,5821.46 254.00,5820.88 254.00,5820.88              254.00,5820.88 245.00,5816.54 245.00,5816.54              245.00,5816.54 226.00,5811.38 226.00,5811.38              226.00,5811.38 217.00,5808.47 217.00,5808.47              217.00,5808.47 199.00,5806.09 199.00,5806.09              194.56,5805.76 192.34,5806.55 188.00,5804.47              182.74,5801.95 178.88,5797.54 174.00,5794.46              174.00,5794.46 160.00,5785.24 160.00,5785.24              160.00,5785.24 151.00,5777.90 151.00,5777.90              151.00,5777.90 142.32,5771.48 142.32,5771.48              142.32,5771.48 135.68,5763.04 135.68,5763.04              135.68,5763.04 130.72,5757.72 130.72,5757.72              130.72,5757.72 122.52,5738.00 122.52,5738.00              117.94,5730.32 111.17,5726.89 109.40,5723.68              107.40,5720.03 108.74,5715.23 106.44,5709.00              106.44,5709.00 101.65,5699.00 101.65,5699.00              100.49,5695.14 101.59,5691.80 99.44,5686.00              97.41,5680.50 94.32,5678.66 92.97,5673.00              91.46,5666.65 92.07,5655.90 92.12,5649.00              91.97,5646.31 91.46,5642.44 92.12,5640.00              94.08,5634.34 99.01,5631.79 99.91,5618.00              99.91,5618.00 98.83,5601.00 98.83,5601.00              98.83,5601.00 97.84,5594.00 97.84,5594.00              97.91,5589.28 101.22,5585.35 99.54,5576.00              97.35,5563.90 91.57,5562.77 91.75,5554.00              91.75,5554.00 94.96,5530.00 94.96,5530.00              98.34,5520.32 106.56,5511.72 105.96,5497.00              105.96,5497.00 104.17,5486.00 104.17,5486.00              104.17,5486.00 103.54,5472.00 103.54,5472.00              103.54,5472.00 100.75,5460.00 100.75,5460.00              100.75,5460.00 100.75,5450.00 100.75,5450.00              100.36,5441.03 95.82,5434.54 95.56,5431.00              95.56,5431.00 97.91,5407.00 97.91,5407.00              97.91,5407.00 95.34,5393.00 95.34,5393.00              95.34,5393.00 95.99,5380.00 95.99,5380.00              95.84,5373.88 94.69,5372.82 94.09,5368.00              94.09,5368.00 94.09,5355.00 94.09,5355.00              93.98,5342.39 90.47,5339.45 90.35,5334.00              90.35,5334.00 92.82,5316.00 92.82,5316.00              92.82,5316.00 92.82,5303.00 92.82,5303.00              92.82,5303.00 92.82,5295.00 92.82,5295.00              92.82,5295.00 90.51,5282.00 90.51,5282.00              89.87,5276.55 93.04,5274.45 94.78,5269.00              96.32,5264.16 96.02,5259.02 96.00,5254.00              95.97,5246.77 95.18,5247.10 94.30,5241.00              94.30,5241.00 93.70,5234.00 93.70,5234.00              93.15,5230.17 91.69,5226.98 92.35,5223.00              93.11,5218.45 95.93,5216.04 97.32,5210.00              98.78,5203.68 97.05,5198.77 99.85,5192.00              99.85,5192.00 106.60,5181.00 106.60,5181.00              109.26,5175.45 110.24,5164.21 109.96,5158.00              109.53,5148.41 105.60,5145.56 103.84,5141.00              102.28,5136.99 103.29,5132.71 98.89,5126.00              95.25,5120.44 91.71,5118.76 90.01,5115.83              90.01,5115.83 86.69,5105.00 86.69,5105.00              86.69,5105.00 77.70,5079.00 77.70,5079.00              77.70,5079.00 79.18,5054.00 79.18,5054.00              79.18,5054.00 83.07,5036.00 83.07,5036.00              83.07,5036.00 93.44,5016.00 93.44,5016.00              96.30,5008.28 93.65,5003.97 96.57,5000.96              96.57,5000.96 108.00,4994.53 108.00,4994.53              108.00,4994.53 116.00,4988.95 116.00,4988.95              124.91,4983.37 132.27,4981.28 136.44,4970.00              138.17,4965.33 138.05,4960.89 138.00,4956.00              137.88,4946.00 132.16,4935.95 132.93,4930.00              134.11,4920.90 143.35,4914.07 143.96,4899.00              144.34,4889.63 140.91,4880.58 133.96,4874.18              128.92,4869.54 124.63,4869.06 122.43,4864.90              121.18,4862.53 121.23,4859.56 118.52,4855.00              116.48,4851.58 112.71,4848.02 111.60,4845.00              110.49,4842.00 111.55,4837.43 108.09,4831.00              104.98,4825.24 96.57,4817.30 94.56,4811.00              94.56,4811.00 93.32,4793.00 93.32,4793.00              93.56,4789.83 94.11,4788.59 93.91,4785.00              92.98,4768.64 90.16,4769.61 87.70,4762.00              87.70,4762.00 86.07,4750.00 86.07,4750.00              84.94,4745.82 82.27,4742.07 82.20,4738.00              81.97,4725.43 93.61,4720.98 92.96,4705.00              92.96,4705.00 91.39,4695.00 91.39,4695.00              91.39,4695.00 91.91,4684.00 91.91,4684.00              91.91,4684.00 90.21,4674.00 90.21,4674.00              89.81,4667.62 92.22,4667.80 89.70,4652.00              89.70,4652.00 86.21,4640.00 86.21,4640.00              86.21,4640.00 83.78,4616.00 83.78,4616.00              81.53,4608.79 77.23,4605.51 75.72,4600.00              75.72,4600.00 74.07,4587.00 74.07,4587.00              71.68,4578.25 66.48,4576.78 66.07,4570.00              65.89,4567.01 67.75,4557.85 68.80,4555.00              68.80,4555.00 71.78,4548.00 71.78,4548.00              71.78,4548.00 73.62,4540.00 73.62,4540.00              74.74,4536.22 76.06,4534.34 76.70,4530.00              77.72,4523.06 76.74,4510.03 81.03,4504.13              85.02,4498.64 90.83,4501.28 98.82,4492.91              106.29,4485.07 105.18,4478.48 106.69,4474.00              106.69,4474.00 110.05,4467.00 110.05,4467.00              112.39,4461.39 113.07,4453.07 113.00,4447.00              112.94,4442.06 110.95,4431.50 109.05,4427.00              107.21,4422.67 104.17,4419.87 103.30,4416.00              103.30,4416.00 102.53,4403.00 102.53,4403.00              101.47,4397.39 99.26,4394.98 98.39,4391.00              98.39,4391.00 96.83,4375.00 96.83,4375.00              96.83,4375.00 94.32,4364.00 94.32,4364.00              94.32,4364.00 93.71,4354.00 93.71,4354.00              93.71,4354.00 89.40,4336.00 89.40,4336.00              89.23,4332.87 91.28,4327.83 91.87,4324.00              91.87,4324.00 93.30,4309.00 93.30,4309.00              94.55,4300.25 96.89,4291.96 97.00,4283.00              97.07,4276.63 97.47,4270.13 95.48,4264.00              92.55,4254.97 87.73,4250.02 87.21,4240.00              87.21,4240.00 90.96,4208.00 90.96,4208.00              90.96,4208.00 90.96,4197.00 90.96,4197.00              90.61,4192.65 89.77,4190.95 90.09,4186.00              90.09,4186.00 92.96,4163.00 92.96,4163.00              92.31,4147.02 83.03,4150.00 83.04,4135.00              83.04,4135.00 83.04,4123.00 83.04,4123.00              83.04,4123.00 83.85,4115.00 83.85,4115.00              83.85,4115.00 83.85,4106.00 83.85,4106.00              83.85,4106.00 85.00,4095.00 85.00,4095.00              85.00,4095.00 85.91,4078.00 85.91,4078.00              85.65,4073.42 84.35,4069.89 85.39,4065.00              85.39,4065.00 93.46,4042.00 93.46,4042.00              93.46,4042.00 98.91,4014.00 98.91,4014.00              98.91,4014.00 97.38,3998.00 97.38,3998.00              97.38,3998.00 100.89,3986.00 100.89,3986.00              100.89,3986.00 100.89,3970.00 100.89,3970.00              100.89,3970.00 102.96,3958.00 102.96,3958.00              103.42,3946.72 98.62,3937.47 90.00,3930.33              82.76,3924.33 79.12,3926.99 75.21,3917.00              75.21,3917.00 71.02,3900.00 71.02,3900.00              71.02,3900.00 71.02,3891.00 71.02,3891.00              71.02,3891.00 67.33,3875.00 67.33,3875.00              67.33,3875.00 61.14,3855.00 61.14,3855.00              61.15,3849.85 63.80,3845.73 65.07,3841.00              66.33,3836.33 66.04,3829.92 66.15,3825.00              65.98,3822.89 65.57,3818.89 66.15,3817.09              67.73,3813.61 72.36,3811.98 76.52,3805.00              79.95,3799.25 80.07,3794.44 80.00,3788.00              79.85,3774.90 74.07,3771.29 74.00,3761.00              74.00,3761.00 73.00,3741.00 73.00,3741.00              72.90,3732.67 71.59,3733.37 70.37,3727.00              70.37,3727.00 68.67,3711.00 68.67,3711.00              68.57,3706.93 71.16,3704.20 71.83,3698.00              72.57,3691.20 71.00,3687.31 71.32,3683.00              71.32,3683.00 72.00,3672.00 72.00,3672.00              72.06,3661.91 75.42,3660.29 74.91,3652.00              74.91,3652.00 72.75,3641.00 72.75,3641.00              72.75,3641.00 76.83,3619.00 76.83,3619.00              76.83,3619.00 76.00,3598.00 76.00,3598.00              76.00,3598.00 73.04,3570.00 73.04,3570.00              72.71,3559.49 77.34,3549.10 76.91,3542.00              76.91,3542.00 74.81,3531.00 74.81,3531.00              74.61,3525.35 78.07,3517.55 79.32,3512.00              79.32,3512.00 80.49,3499.00 80.49,3499.00              80.49,3499.00 83.44,3492.00 83.44,3492.00              83.44,3492.00 85.49,3485.00 85.49,3485.00              87.55,3480.06 98.87,3464.73 102.61,3460.09              106.45,3455.30 111.94,3452.70 116.09,3445.00              121.05,3435.79 117.98,3428.18 118.41,3424.00              118.89,3419.48 122.41,3415.08 121.91,3407.00              121.60,3401.97 120.14,3399.97 119.37,3396.00              119.37,3396.00 118.53,3388.00 118.53,3388.00              118.53,3388.00 115.08,3375.00 115.08,3375.00              115.08,3375.00 111.49,3366.00 111.49,3366.00              109.63,3359.35 110.62,3352.25 109.70,3346.00              108.29,3336.46 106.27,3341.41 106.91,3329.00              107.48,3317.88 100.50,3310.84 99.55,3303.00              98.15,3291.30 105.57,3285.75 104.91,3275.00              104.91,3275.00 102.81,3264.00 102.81,3264.00              102.81,3264.00 102.81,3255.00 102.81,3255.00              102.81,3255.00 100.70,3240.00 100.70,3240.00              100.06,3235.97 97.65,3231.08 97.96,3228.00              98.13,3226.28 99.25,3223.77 99.78,3222.00              99.78,3222.00 101.97,3214.00 101.97,3214.00              104.27,3209.17 110.56,3204.50 109.91,3193.00              109.91,3193.00 109.02,3185.00 109.02,3185.00              109.02,3185.00 109.02,3166.00 109.02,3166.00              109.05,3156.61 114.50,3148.59 113.91,3139.00              113.91,3139.00 111.07,3122.00 111.07,3122.00              109.43,3115.88 107.12,3110.57 106.63,3104.00              106.04,3096.17 110.86,3093.82 111.00,3082.00              111.00,3082.00 110.00,3060.00 110.00,3060.00              110.00,3060.00 111.25,3037.00 111.25,3037.00              111.00,3034.06 110.79,3028.63 111.25,3026.00              112.41,3022.61 114.48,3020.60 115.36,3015.00              116.77,3008.48 115.16,3005.01 115.36,3001.00              115.20,2996.59 116.99,2994.28 116.99,2987.00              116.99,2979.19 115.40,2978.28 114.92,2974.00              114.92,2974.00 114.92,2966.00 114.92,2966.00              114.92,2966.00 113.91,2951.00 113.91,2951.00              113.91,2951.00 112.08,2939.00 112.08,2939.00              112.08,2939.00 114.91,2916.00 114.91,2916.00              114.91,2916.00 111.76,2900.00 111.76,2900.00              111.76,2900.00 111.76,2888.00 111.76,2888.00              111.68,2881.62 109.87,2879.38 109.46,2876.00              109.04,2872.57 110.68,2867.95 110.91,2864.00              111.19,2859.15 108.95,2850.58 108.06,2845.00              108.06,2845.00 108.06,2834.00 108.06,2834.00              108.06,2834.00 104.70,2810.00 104.70,2810.00              104.70,2810.00 101.18,2794.00 101.18,2794.00              100.60,2788.00 102.90,2784.83 103.00,2777.00              103.00,2777.00 103.91,2760.00 103.91,2760.00              103.33,2750.59 98.12,2747.25 98.08,2739.00              98.01,2726.49 102.79,2715.46 103.83,2705.00              104.99,2693.45 100.65,2684.57 100.63,2680.00              100.61,2672.79 103.91,2668.68 105.33,2662.00              106.35,2657.22 106.01,2648.23 106.00,2643.00              106.00,2643.00 105.31,2630.00 105.31,2630.00              106.16,2624.28 110.30,2623.57 109.99,2610.00              109.72,2598.27 105.17,2598.83 104.78,2589.00              104.78,2589.00 104.78,2573.00 104.78,2573.00              104.78,2573.00 101.38,2559.00 101.38,2559.00              101.38,2559.00 102.92,2550.00 102.92,2550.00              102.92,2550.00 102.92,2542.00 102.92,2542.00              103.04,2538.65 103.40,2534.10 104.70,2531.00              106.14,2527.58 109.41,2524.55 111.52,2521.00              114.72,2515.62 119.30,2503.32 118.91,2497.00              118.40,2488.72 114.79,2484.47 113.48,2480.00              113.48,2480.00 111.44,2471.00 111.44,2471.00              111.44,2471.00 107.41,2462.00 107.41,2462.00              106.72,2459.22 107.26,2456.64 105.78,2452.00              105.78,2452.00 101.69,2443.00 101.69,2443.00              101.69,2443.00 100.07,2434.00 100.07,2434.00              100.07,2434.00 96.39,2424.00 96.39,2424.00              95.25,2418.41 99.33,2409.20 98.96,2400.00              98.96,2400.00 95.04,2377.00 95.04,2377.00              95.04,2377.00 96.00,2360.00 96.00,2360.00              95.98,2347.05 92.20,2344.61 92.38,2339.00              92.63,2331.14 99.47,2327.09 98.96,2314.00              98.96,2314.00 98.03,2304.00 98.03,2304.00              98.03,2304.00 99.00,2292.00 99.00,2292.00              99.10,2282.77 96.59,2274.07 95.15,2265.00              95.15,2265.00 95.15,2249.00 95.15,2249.00              95.15,2249.00 94.26,2239.00 94.26,2239.00              94.26,2239.00 95.91,2230.00 95.91,2230.00              95.91,2230.00 95.91,2217.00 95.91,2217.00              95.91,2210.01 92.66,2204.83 94.91,2198.00              97.80,2189.20 105.57,2187.16 104.96,2172.00              104.96,2172.00 102.07,2150.00 102.07,2150.00              102.07,2150.00 98.48,2140.00 98.48,2140.00              98.48,2140.00 99.96,2122.00 99.96,2122.00              99.96,2122.00 97.17,2106.00 97.17,2106.00              96.42,2098.55 97.70,2094.62 97.96,2088.00              97.96,2088.00 96.08,2068.00 96.08,2068.00              96.08,2068.00 96.08,2053.00 96.08,2053.00              95.93,2037.36 91.23,2043.62 91.00,2024.00              90.92,2017.41 90.16,2017.58 89.29,2012.00              89.29,2012.00 87.54,1997.00 87.54,1997.00              87.54,1997.00 82.29,1971.00 82.29,1971.00              82.29,1971.00 80.83,1954.00 80.83,1954.00              80.83,1954.00 79.65,1946.00 79.65,1946.00              79.32,1942.89 80.46,1938.89 79.65,1933.00              79.65,1933.00 76.20,1919.00 76.20,1919.00              76.20,1919.00 73.18,1880.00 73.18,1880.00              73.18,1880.00 73.99,1869.00 73.99,1869.00              73.99,1869.00 72.83,1849.00 72.83,1849.00              72.83,1849.00 70.90,1839.00 70.90,1839.00              70.90,1839.00 70.90,1825.00 70.90,1825.00              70.07,1820.59 68.06,1813.38 68.19,1809.00              68.38,1802.69 72.94,1800.42 74.36,1792.00              76.11,1783.69 73.82,1776.07 74.36,1771.00              74.36,1771.00 75.64,1756.00 75.64,1756.00              77.94,1747.99 83.33,1747.09 82.99,1732.00              82.74,1721.20 78.05,1718.21 77.42,1712.00              77.09,1708.79 78.47,1705.32 78.92,1702.00              78.92,1702.00 78.92,1690.00 78.92,1690.00              79.08,1683.15 80.64,1678.56 79.83,1671.00              78.97,1663.02 77.02,1664.48 76.82,1653.00              76.82,1653.00 76.82,1635.00 76.82,1635.00              77.06,1629.64 77.99,1631.00 78.00,1622.00              78.00,1622.00 79.09,1595.00 79.09,1595.00              79.09,1595.00 79.92,1583.00 79.92,1583.00              79.92,1583.00 79.92,1569.00 79.92,1569.00              79.92,1569.00 78.18,1554.00 78.18,1554.00              78.18,1547.25 80.16,1544.44 79.64,1533.00              79.55,1527.70 80.55,1523.63 79.64,1518.00              78.74,1513.59 76.02,1507.06 76.30,1503.00              76.30,1503.00 79.63,1486.00 79.63,1486.00              79.63,1486.00 82.77,1477.00 82.77,1477.00              83.19,1473.50 83.04,1465.85 82.77,1462.00              82.91,1455.03 81.65,1453.78 81.47,1450.00              81.47,1450.00 82.00,1437.00 82.00,1437.00              82.00,1437.00 77.91,1404.00 77.91,1404.00              77.91,1404.00 77.91,1393.00 77.91,1393.00              77.91,1393.00 76.39,1385.00 76.39,1385.00              76.39,1385.00 76.91,1375.00 76.91,1375.00              76.37,1362.51 81.62,1364.27 82.83,1353.00              84.14,1340.72 77.95,1337.98 78.67,1331.00              78.67,1331.00 80.60,1318.00 80.60,1318.00              80.60,1318.00 82.80,1310.00 82.80,1310.00              82.80,1310.00 82.80,1298.00 82.80,1298.00              83.49,1292.96 85.20,1283.76 84.91,1279.00              84.91,1279.00 83.06,1270.00 83.06,1270.00              83.06,1270.00 83.06,1259.00 83.06,1259.00              83.06,1259.00 81.38,1250.00 81.38,1250.00              81.55,1246.18 84.14,1243.35 84.83,1237.00              86.69,1219.84 80.08,1207.51 66.00,1198.00              66.00,1198.00 71.18,1189.00 71.18,1189.00              71.18,1189.00 78.77,1169.00 78.77,1169.00              78.77,1169.00 78.77,1151.00 78.77,1151.00              79.02,1138.63 82.36,1139.95 82.91,1131.00              83.37,1123.55 79.33,1115.32 83.56,1105.00              86.07,1098.87 96.99,1092.41 97.91,1079.00              98.59,1069.17 93.08,1057.42 92.17,1049.00              90.76,1035.89 95.44,1030.70 94.91,1022.00              94.53,1015.81 91.76,1009.09 90.51,1003.00              90.51,1003.00 89.32,992.00 89.32,992.00              88.40,987.89 87.30,986.64 87.04,982.00              86.22,967.13 90.61,968.18 92.56,958.00              93.56,952.56 92.46,948.98 92.56,944.00              92.56,944.00 93.92,936.00 93.92,936.00              93.92,936.00 93.92,924.00 93.92,924.00              94.11,916.35 95.56,916.64 97.56,910.00              99.27,904.34 103.20,886.38 102.91,881.00              102.91,881.00 102.34,875.00 102.34,875.00              102.34,875.00 102.96,865.00 102.96,865.00              102.96,865.00 101.84,856.00 101.84,856.00              101.90,852.21 103.90,850.10 104.00,842.00              104.00,842.00 102.53,813.00 102.53,813.00              102.53,813.00 97.29,796.00 97.29,796.00              96.81,790.79 99.24,786.91 97.29,779.00              95.11,771.83 90.18,767.42 88.13,763.00              86.55,759.59 85.89,752.80 86.04,749.00              86.40,739.63 88.82,735.99 89.76,730.00              90.34,725.65 89.64,722.16 89.76,720.00              89.76,720.00 93.58,705.00 93.58,705.00              95.90,698.90 105.48,693.16 104.91,679.00              104.50,668.53 106.92,671.55 108.53,663.00              108.53,663.00 109.96,641.00 109.96,641.00              109.52,630.22 105.09,628.75 102.47,622.00              102.47,622.00 99.45,609.00 99.45,609.00              99.45,609.00 91.14,586.00 91.14,586.00              91.14,586.00 91.14,571.00 91.14,571.00              91.12,562.54 93.23,562.91 94.53,556.00              94.53,556.00 95.17,540.00 95.17,540.00              95.83,533.89 98.32,529.71 97.91,523.00              97.64,518.68 95.88,514.87 96.25,511.00              96.63,506.99 98.97,504.12 98.97,497.00              98.97,497.00 98.00,488.00 98.00,488.00              98.00,488.00 98.00,477.00 98.00,477.00              98.00,477.00 97.18,470.00 97.18,470.00              97.18,466.22 98.46,463.02 97.91,455.00              97.91,455.00 96.04,435.00 96.04,435.00              96.04,435.00 96.96,423.00 96.96,423.00              96.96,423.00 95.51,414.00 95.51,414.00              94.91,408.80 98.69,404.83 100.08,400.00              100.08,400.00 104.53,385.00 104.53,385.00              104.53,385.00 105.68,374.00 105.68,374.00              106.79,369.08 108.50,366.60 108.91,361.00              108.91,361.00 108.21,342.00 108.21,342.00              108.93,336.81 112.84,331.44 111.83,322.00              111.06,314.78 104.45,300.83 105.36,294.00              106.18,287.85 112.64,285.87 116.64,274.00              118.50,268.51 119.21,264.81 118.78,259.00              118.79,254.82 117.64,252.24 118.78,248.00              119.16,245.53 121.23,238.10 122.58,236.28              125.94,231.78 138.16,223.98 143.52,215.00              147.55,208.24 147.08,201.54 146.84,194.00              146.97,191.68 146.17,185.67 146.84,184.10              147.62,181.29 150.76,179.87 153.00,178.22              157.25,175.06 160.58,169.80 166.00,168.99              169.09,168.53 172.76,170.22 176.00,170.70              181.82,171.56 189.12,172.07 195.00,172.00              203.03,171.90 211.83,168.99 217.96,163.67              224.65,157.88 223.03,154.34 234.00,150.75              241.32,148.35 246.68,148.53 254.00,147.83              254.00,147.83 277.00,146.00 277.00,146.00              277.00,146.00 309.00,146.00 309.00,146.00              309.00,146.00 322.00,146.91 322.00,146.91              322.00,146.91 330.00,146.02 330.00,146.02              330.00,146.02 350.00,146.02 350.00,146.02              350.00,146.02 362.00,145.04 362.00,145.04              362.00,145.04 375.00,145.04 375.00,145.04              385.55,144.98 384.14,143.60 391.00,143.05              391.00,143.05 413.00,143.05 413.00,143.05              420.45,143.09 420.46,144.24 426.00,144.91              426.00,144.91 438.00,144.91 438.00,144.91              450.90,144.98 451.37,141.55 459.00,142.17              459.00,142.17 469.00,143.39 469.00,143.39              478.06,145.34 473.86,147.17 489.00,147.00              499.22,146.88 500.25,144.15 505.00,143.80              505.00,143.80 517.00,143.80 517.00,143.80              517.00,143.80 530.00,143.80 530.00,143.80              530.00,143.80 537.00,143.26 537.00,143.26              541.01,143.42 543.85,145.26 550.00,144.91              550.00,144.91 572.00,143.00 572.00,143.00              572.00,143.00 591.00,142.00 591.00,142.00              591.00,142.00 606.00,142.00 606.00,142.00              606.00,142.00 615.00,141.34 615.00,141.34              615.00,141.34 624.00,142.00 624.00,142.00              624.00,142.00 640.00,140.72 640.00,140.72              640.00,140.72 653.00,142.00 653.00,142.00              665.40,142.14 663.83,141.16 674.00,140.17              674.00,140.17 683.00,139.54 683.00,139.54              691.93,137.93 697.10,135.05 707.00,135.00              707.00,135.00 723.00,135.00 723.00,135.00              733.23,135.12 735.01,138.32 743.00,138.91              753.56,139.69 754.97,137.69 761.00,137.19              761.00,137.19 773.00,138.00 773.00,138.00              773.00,138.00 788.00,137.18 788.00,137.18              788.00,137.18 830.00,138.00 830.00,138.00              830.00,138.00 844.00,138.96 844.00,138.96              844.00,138.96 857.00,138.00 857.00,138.00              857.00,138.00 872.00,138.00 872.00,138.00              872.00,138.00 885.00,137.09 885.00,137.09              885.00,137.09 897.00,138.00 897.00,138.00              897.00,138.00 916.00,137.00 916.00,137.00              916.00,137.00 935.00,138.00 935.00,138.00              935.00,138.00 950.00,136.86 950.00,136.86              950.00,136.86 969.00,136.86 969.00,136.86              969.00,136.86 989.00,134.18 989.00,134.18              989.00,134.18 997.00,134.97 997.00,134.97              997.00,134.97 1008.00,134.19 1008.00,134.19              1008.00,134.19 1016.00,135.85 1016.00,135.85              1016.00,135.85 1028.00,135.85 1028.00,135.85              1028.00,135.85 1055.00,134.83 1055.00,134.83              1063.75,135.79 1067.45,139.25 1079.00,138.99              1093.11,138.67 1100.28,133.63 1107.00,133.21              1110.65,132.98 1116.15,134.69 1120.00,135.39              1127.85,136.81 1131.15,136.96 1139.00,137.00              1145.05,137.03 1150.98,138.67 1157.00,137.53              1157.00,137.53 1181.00,130.56 1181.00,130.56              1181.00,130.56 1212.00,132.96 1212.00,132.96              1212.00,132.96 1224.00,132.04 1224.00,132.04              1224.00,132.04 1240.00,133.00 1240.00,133.00              1247.40,133.10 1250.12,135.32 1257.00,136.54              1257.00,136.54 1278.00,138.00 1278.00,138.00              1278.00,138.00 1300.00,135.18 1300.00,135.18              1305.21,135.22 1307.48,137.98 1319.00,138.00              1319.00,138.00 1339.00,137.00 1339.00,137.00              1339.00,137.00 1365.00,137.00 1365.00,137.00              1365.00,137.00 1379.00,136.02 1379.00,136.02              1379.00,136.02 1396.00,137.00 1396.00,137.00              1396.00,137.00 1412.00,137.96 1412.00,137.96              1418.03,137.73 1420.95,136.57 1428.00,137.09              1435.71,137.65 1432.81,139.06 1446.00,139.00              1446.00,139.00 1459.00,138.18 1459.00,138.18              1459.00,138.18 1483.00,139.00 1483.00,139.00              1488.05,138.94 1504.67,136.86 1509.00,135.05              1519.32,130.73 1522.73,125.02 1535.00,125.00              1535.00,125.00 1539.00,125.00 1539.00,125.00              1547.53,124.90 1549.41,122.80 1554.00,122.49              1554.00,122.49 1565.00,123.00 1565.00,123.00              1565.00,123.00 1584.00,123.00 1584.00,123.00              1584.00,123.00 1594.00,122.04 1594.00,122.04              1594.00,122.04 1605.00,122.04 1605.00,122.04              1605.00,122.04 1619.00,121.00 1619.00,121.00              1630.73,120.94 1628.07,119.99 1638.00,118.44              1638.00,118.44 1655.00,117.18 1655.00,117.18              1655.00,117.18 1671.00,120.04 1671.00,120.04              1671.00,120.04 1681.00,120.04 1681.00,120.04              1688.11,120.88 1688.03,121.98 1697.00,122.00              1697.00,122.00 1713.00,123.00 1713.00,123.00              1713.00,123.00 1732.00,123.00 1732.00,123.00              1744.30,123.02 1742.67,126.27 1755.00,125.99              1755.00,125.99 1780.00,123.04 1780.00,123.04              1780.00,123.04 1802.00,126.00 1802.00,126.00              1809.23,126.03 1816.84,125.73 1824.00,124.70              1824.00,124.70 1832.00,123.17 1832.00,123.17              1832.00,123.17 1858.00,122.00 1858.00,122.00              1871.22,121.98 1878.33,116.88 1887.00,116.47              1887.00,116.47 1903.00,117.30 1903.00,117.30              1903.00,117.30 1911.00,118.92 1911.00,118.92              1911.00,118.92 1926.00,118.92 1926.00,118.92              1942.96,119.20 1937.01,124.76 1958.00,125.00              1958.00,125.00 1979.00,126.32 1979.00,126.32              1979.00,126.32 1991.00,128.91 1991.00,128.91              1995.80,129.24 1997.73,128.38 2002.00,128.04              2002.00,128.04 2016.00,128.04 2016.00,128.04              2016.00,128.04 2040.00,130.99 2040.00,130.99              2040.00,130.99 2051.00,130.08 2051.00,130.08              2051.00,130.08 2059.00,130.96 2059.00,130.96              2059.00,130.96 2073.00,130.96 2073.00,130.96              2084.41,130.95 2085.49,127.93 2091.00,127.49              2091.00,127.49 2101.00,128.00 2101.00,128.00              2101.00,128.00 2114.00,127.10 2114.00,127.10              2114.00,127.10 2124.00,128.72 2124.00,128.72              2124.00,128.72 2135.00,128.72 2135.00,128.72              2135.00,128.72 2145.00,129.96 2145.00,129.96              2150.57,130.14 2152.34,128.96 2156.00,128.83              2156.00,128.83 2164.00,128.83 2164.00,128.83              2164.00,128.83 2176.00,128.00 2176.00,128.00              2186.99,127.98 2198.14,127.46 2209.00,129.46              2220.27,131.55 2220.20,134.98 2234.00,135.00              2234.00,135.00 2259.00,135.00 2259.00,135.00              2267.90,134.96 2268.58,133.37 2274.00,133.10              2274.00,133.10 2286.00,133.91 2286.00,133.91              2291.94,133.57 2295.43,132.47 2302.00,133.17              2308.64,133.88 2310.54,135.90 2319.00,135.85              2319.00,135.85 2327.00,135.85 2327.00,135.85              2327.00,135.85 2351.00,131.07 2351.00,131.07              2351.00,131.07 2361.00,126.85 2361.00,126.85              2361.00,126.85 2381.00,124.34 2381.00,124.34              2381.00,124.34 2387.00,125.06 2387.00,125.06              2387.00,125.06 2395.00,125.06 2395.00,125.06              2395.00,125.06 2412.00,130.33 2412.00,130.33              2412.00,130.33 2441.00,133.91 2441.00,133.91              2448.56,134.39 2450.77,132.09 2459.00,132.00              2471.95,131.87 2470.71,136.44 2483.00,135.96              2483.00,135.96 2492.00,134.93 2492.00,134.93              2492.00,134.93 2505.00,134.93 2505.00,134.93              2505.00,134.93 2515.00,133.26 2515.00,133.26              2515.00,133.26 2530.00,134.90 2530.00,134.90              2536.73,136.97 2539.04,139.61 2547.00,139.96              2555.36,140.33 2555.84,138.83 2562.00,138.00              2562.00,138.00 2570.00,138.00 2570.00,138.00              2573.15,137.53 2574.58,136.94 2578.00,137.18              2578.00,137.18 2614.00,141.00 2614.00,141.00              2621.22,140.91 2623.01,139.41 2627.00,139.26              2627.00,139.26 2637.00,140.00 2637.00,140.00              2637.00,140.00 2654.00,140.00 2654.00,140.00              2654.00,140.00 2669.00,139.04 2669.00,139.04              2669.00,139.04 2677.00,139.96 2677.00,139.96              2677.00,139.96 2691.00,139.96 2691.00,139.96              2704.80,139.98 2701.77,136.78 2721.00,137.00              2721.00,137.00 2734.00,137.99 2734.00,137.99              2734.00,137.99 2745.00,137.32 2745.00,137.32              2745.00,137.32 2761.00,139.00 2761.00,139.00              2761.00,139.00 2781.00,139.00 2781.00,139.00              2781.00,139.00 2794.00,138.10 2794.00,138.10              2799.42,138.37 2800.10,139.96 2809.00,140.00              2809.00,140.00 2827.00,140.00 2827.00,140.00              2827.00,140.00 2849.00,141.00 2849.00,141.00              2849.00,141.00 2872.00,138.53 2872.00,138.53              2877.63,139.04 2881.01,141.68 2888.00,141.96              2892.52,142.14 2893.93,141.56 2898.00,141.09              2898.00,141.09 2909.00,141.09 2909.00,141.09              2909.00,141.09 2922.00,142.00 2922.00,142.00              2922.00,142.00 2941.00,142.00 2941.00,142.00              2941.00,142.00 2954.00,141.04 2954.00,141.04              2954.00,141.04 2974.00,143.00 2974.00,143.00              2974.00,143.00 3023.00,142.18 3023.00,142.18              3023.00,142.18 3040.00,144.00 3040.00,144.00              3040.00,144.00 3060.00,142.04 3060.00,142.04              3066.50,141.76 3068.29,142.52 3074.00,142.96              3074.00,142.96 3087.00,142.96 3087.00,142.96              3087.00,142.96 3107.00,145.00 3107.00,145.00              3115.99,144.99 3114.65,144.06 3120.00,143.77              3120.00,143.77 3130.00,143.77 3130.00,143.77              3134.86,143.60 3138.85,142.44 3144.00,143.21              3144.00,143.21 3155.00,146.57 3155.00,146.57              3160.36,147.82 3182.98,150.22 3188.00,149.91              3188.00,149.91 3215.00,142.81 3215.00,142.81              3217.26,142.63 3228.87,143.09 3231.00,143.60              3231.00,143.60 3239.00,145.85 3239.00,145.85              3239.00,145.85 3257.00,145.85 3257.00,145.85              3264.45,146.09 3264.46,147.24 3270.00,147.91              3270.00,147.91 3281.00,147.91 3281.00,147.91              3289.98,147.96 3297.30,145.00 3306.00,143.46              3306.00,143.46 3315.00,142.33 3315.00,142.33              3315.00,142.33 3324.00,140.34 3324.00,140.34              3324.00,140.34 3335.00,141.00 3335.00,141.00              3335.00,141.00 3358.00,139.32 3358.00,139.32              3358.00,139.32 3399.00,140.00 3399.00,140.00              3399.00,140.00 3416.00,140.96 3416.00,140.96              3416.00,140.96 3426.00,140.96 3426.00,140.96              3426.00,140.96 3435.00,140.03 3435.00,140.03              3435.00,140.03 3449.00,141.00 3449.00,141.00              3449.00,141.00 3473.00,142.17 3473.00,142.17              3480.17,142.97 3478.01,143.98 3488.00,144.00              3488.00,144.00 3511.00,144.00 3511.00,144.00              3511.00,144.00 3523.00,144.95 3523.00,144.95              3523.00,144.95 3537.00,144.95 3537.00,144.95              3537.00,144.95 3564.00,141.75 3564.00,141.75              3564.00,141.75 3577.00,143.71 3577.00,143.71              3577.00,143.71 3590.00,143.71 3590.00,143.71              3593.63,143.64 3596.19,145.24 3602.00,144.91              3605.81,144.69 3607.55,143.84 3612.00,144.09              3612.00,144.09 3624.00,144.80 3624.00,144.80              3624.00,144.80 3637.00,144.80 3637.00,144.80              3637.00,144.80 3645.00,145.92 3645.00,145.92              3645.00,145.92 3654.00,145.92 3654.00,145.92              3666.19,145.98 3667.16,143.05 3673.00,143.13              3673.00,143.13 3696.00,144.86 3696.00,144.86              3696.00,144.86 3708.00,144.86 3708.00,144.86              3708.00,144.86 3717.00,145.92 3717.00,145.92              3717.00,145.92 3728.00,145.92 3728.00,145.92              3737.49,146.13 3740.21,149.54 3748.00,151.32              3748.00,151.32 3771.00,153.00 3771.00,153.00              3776.14,153.06 3784.24,153.36 3789.00,152.07              3795.10,150.43 3798.67,147.19 3806.00,147.18              3806.00,147.18 3814.00,147.98 3814.00,147.98              3814.00,147.98 3833.00,147.98 3833.00,147.98              3833.00,147.98 3877.00,153.42 3877.00,153.42              3883.25,154.29 3889.73,156.20 3896.00,155.96              3896.00,155.96 3907.00,154.79 3907.00,154.79              3907.00,154.79 3924.00,154.79 3924.00,154.79              3926.74,155.38 3931.17,158.92 3934.00,160.53              3937.72,162.66 3941.89,163.74 3946.00,164.85              3946.00,164.85 3984.00,172.80 3984.00,172.80              3989.54,174.59 3992.09,178.58 3999.00,181.65              3999.00,181.65 4009.00,184.66 4009.00,184.66              4009.00,184.66 4017.00,188.56 4017.00,188.56              4017.00,188.56 4030.00,193.85 4030.00,193.85              4033.89,195.55 4036.48,198.56 4040.00,200.90              4040.00,200.90 4049.79,206.63 4049.79,206.63              4052.36,208.78 4054.57,213.02 4057.14,215.91              4063.34,222.86 4072.68,233.28 4077.58,241.00              4080.01,244.83 4080.36,248.94 4082.38,253.00              4087.33,262.97 4095.42,270.57 4107.00,270.96              4114.40,271.21 4121.98,268.42 4128.00,264.22              4128.00,264.22 4134.00,259.92 4134.00,259.92              4134.00,259.92 4149.00,255.10 4149.00,255.10              4153.97,252.84 4165.10,243.11 4168.67,238.96              4174.48,232.22 4173.57,227.99 4175.90,224.42              4175.90,224.42 4182.21,217.00 4182.21,217.00              4185.56,212.30 4185.33,210.37 4187.12,207.00              4187.12,207.00 4193.60,197.00 4193.60,197.00              4196.23,191.53 4195.33,187.81 4197.89,184.10              4199.82,181.31 4209.16,175.87 4212.99,172.56              4221.93,164.83 4220.62,159.39 4225.13,157.61              4228.56,156.26 4237.08,159.14 4241.00,159.90              4241.00,159.90 4248.00,159.90 4248.00,159.90              4248.00,159.90 4262.00,159.90 4262.00,159.90              4262.00,159.90 4280.00,158.07 4280.00,158.07              4293.56,154.43 4299.64,149.02 4315.00,149.00              4315.00,149.00 4319.00,149.00 4319.00,149.00              4319.00,149.00 4336.00,147.56 4336.00,147.56              4338.84,147.12 4344.64,145.52 4347.00,145.69              4347.00,145.69 4357.00,148.97 4357.00,148.97              4362.60,150.36 4370.36,150.47 4376.00,148.97              4380.27,148.06 4388.39,145.23 4392.00,142.89              4400.28,137.52 4401.83,132.61 4413.00,133.04              4428.28,133.63 4426.40,139.43 4438.00,144.07              4438.00,144.07 4459.00,150.53 4459.00,150.53              4459.00,150.53 4475.00,152.75 4475.00,152.75              4480.72,153.81 4486.08,156.27 4492.00,155.91              4501.94,155.29 4505.45,149.85 4510.00,148.60              4514.30,147.42 4517.74,150.35 4525.00,149.91              4525.00,149.91 4540.00,147.21 4540.00,147.21              4540.00,147.21 4552.00,148.00 4552.00,148.00              4552.00,148.00 4565.00,147.18 4565.00,147.18              4565.00,147.18 4575.00,148.00 4575.00,148.00              4590.26,148.17 4590.48,144.75 4596.00,144.79              4600.60,144.82 4604.69,147.89 4614.00,148.00              4631.29,148.20 4635.39,145.53 4651.00,143.30              4651.00,143.30 4663.00,142.70 4663.00,142.70              4663.00,142.70 4673.00,140.30 4673.00,140.30              4676.06,140.09 4679.74,141.48 4683.00,141.92              4683.00,141.92 4692.00,141.92 4692.00,141.92              4700.57,142.10 4700.83,143.71 4708.00,145.32              4708.00,145.32 4719.00,146.46 4719.00,146.46              4725.46,147.61 4727.75,149.24 4735.00,148.96              4735.00,148.96 4745.00,147.80 4745.00,147.80              4745.00,147.80 4765.00,147.80 4765.00,147.80              4774.42,147.89 4776.26,145.28 4780.00,145.01              4783.85,144.72 4788.02,147.97 4796.00,147.97              4800.97,147.97 4806.87,146.19 4812.00,145.43              4812.00,145.43 4832.00,143.91 4832.00,143.91              4832.00,143.91 4841.00,142.30 4841.00,142.30              4841.00,142.30 4851.00,141.70 4851.00,141.70              4851.00,141.70 4873.00,138.39 4873.00,138.39              4876.90,138.30 4880.26,140.46 4884.00,141.32              4886.52,141.90 4902.44,143.10 4905.00,142.83              4910.68,142.22 4914.46,140.16 4919.00,136.84              4928.82,129.67 4929.72,126.04 4932.33,115.00              4935.28,102.55 4935.76,105.32 4934.00,91.77 Z            M 1667.00,4026.39            C 1656.59,4029.51 1650.49,4035.91 1650.04,4047.00              1649.86,4051.31 1650.55,4058.40 1653.51,4061.72              1654.53,4062.88 1655.60,4063.55 1657.02,4064.11              1657.02,4064.11 1675.00,4067.80 1675.00,4067.80              1688.41,4069.06 1686.23,4056.73 1687.44,4049.00              1688.00,4045.37 1689.51,4040.58 1688.57,4037.00              1686.30,4028.37 1674.70,4025.36 1667.00,4026.39 Z            M 3212.00,4394.39            C 3199.41,4398.45 3201.74,4407.13 3200.54,4414.00              3199.74,4418.52 3197.71,4423.50 3201.65,4427.30              3205.87,4431.37 3215.78,4429.66 3221.00,4428.49              3224.08,4427.79 3227.48,4426.56 3229.96,4424.58              3234.99,4420.57 3240.10,4410.33 3236.83,4404.02              3234.06,4398.69 3229.83,4398.83 3225.00,4397.05              3219.09,4394.87 3218.79,4393.53 3212.00,4394.39 Z"
            style="fill:#000000;fill-opacity:1"/>
</svg>
