<?xml version="1.0" encoding="UTF-8" standalone="no"?>
<svg
        width="172.742mm"
        height="96.753mm"
        viewBox="0 0 8161 4571"
        version="1.1"
        id="svg1028"
        sodipodi:docname="sheet9a.svg"
        inkscape:version="1.1.1 (3bf5ae0d25, 2021-09-20)"
        xmlns:inkscape="http://www.inkscape.org/namespaces/inkscape"
        xmlns:sodipodi="http://sodipodi.sourceforge.net/DTD/sodipodi-0.dtd"
        xmlns="http://www.w3.org/2000/svg"
>
    <defs
            id="defs1032"/>
    <sodipodi:namedview
            id="namedview1030"
            pagecolor="#ffffff"
            bordercolor="#666666"
            borderopacity="1.0"
            inkscape:pageshadow="2"
            inkscape:pageopacity="0.0"
            inkscape:pagecheckerboard="0"
            inkscape:document-units="mm"
            showgrid="false"
            inkscape:zoom="2.0110796"
            inkscape:cx="326.44158"
            inkscape:cy="182.73767"
            inkscape:window-width="1920"
            inkscape:window-height="1001"
            inkscape:window-x="-7"
            inkscape:window-y="-7"
            inkscape:window-maximized="1"
            inkscape:current-layer="svg1028"/>
    <path
            id="Selection #3"
            fill="none"
            stroke="black"
            stroke-width="1"
            d="M 8016.00,4462.00            C 8010.64,4462.05 8006.87,4462.31 8002.00,4464.91              7998.08,4467.01 7993.75,4471.04 7990.00,4472.30              7990.00,4472.30 7978.00,4473.43 7978.00,4473.43              7978.00,4473.43 7951.00,4477.71 7951.00,4477.71              7951.00,4477.71 7942.00,4478.30 7942.00,4478.30              7932.65,4479.68 7934.04,4483.26 7922.00,4482.99              7922.00,4482.99 7892.00,4478.92 7892.00,4478.92              7888.00,4478.25 7882.93,4476.86 7879.00,4477.19              7868.87,4478.03 7861.91,4484.38 7851.00,4483.96              7851.00,4483.96 7841.00,4483.01 7841.00,4483.01              7828.91,4482.74 7825.18,4485.74 7815.00,4487.54              7815.00,4487.54 7801.00,4488.09 7801.00,4488.09              7801.00,4488.09 7791.00,4489.36 7791.00,4489.36              7784.07,4489.59 7776.90,4488.16 7770.00,4489.36              7763.48,4490.70 7758.32,4494.86 7749.00,4496.54              7749.00,4496.54 7727.00,4498.46 7727.00,4498.46              7727.00,4498.46 7710.00,4504.10 7710.00,4504.10              7704.77,4505.37 7699.34,4504.99 7694.00,4505.00              7676.34,4505.03 7667.47,4512.67 7648.00,4513.91              7639.11,4514.48 7625.34,4509.11 7616.00,4507.46              7616.00,4507.46 7606.00,4506.83 7606.00,4506.83              7600.46,4506.23 7600.45,4505.09 7593.00,4505.00              7593.00,4505.00 7566.00,4505.00 7566.00,4505.00              7566.00,4505.00 7537.00,4508.90 7537.00,4508.90              7537.00,4508.90 7514.00,4514.54 7514.00,4514.54              7514.00,4514.54 7485.00,4517.00 7485.00,4517.00              7485.00,4517.00 7470.00,4517.00 7470.00,4517.00              7458.29,4516.98 7460.24,4515.13 7451.00,4513.46              7451.00,4513.46 7440.00,4512.48 7440.00,4512.48              7440.00,4512.48 7431.00,4509.90 7431.00,4509.90              7431.00,4509.90 7420.00,4508.11 7420.00,4508.11              7420.00,4508.11 7403.00,4503.66 7403.00,4503.66              7403.00,4503.66 7371.00,4498.70 7371.00,4498.70              7360.09,4495.60 7353.65,4486.76 7345.00,4483.56              7337.45,4480.77 7329.76,4482.99 7322.00,4483.00              7303.39,4483.03 7304.28,4486.50 7291.00,4487.83              7282.79,4488.65 7277.37,4486.87 7273.00,4487.18              7273.00,4487.18 7250.00,4490.00 7250.00,4490.00              7250.00,4490.00 7242.00,4490.00 7242.00,4490.00              7242.00,4490.00 7204.00,4493.00 7204.00,4493.00              7204.00,4493.00 7181.00,4492.00 7181.00,4492.00              7172.04,4491.99 7172.10,4490.88 7165.00,4490.04              7165.00,4490.04 7157.00,4490.04 7157.00,4490.04              7157.00,4490.04 7144.00,4489.00 7144.00,4489.00              7144.00,4489.00 7131.00,4488.18 7131.00,4488.18              7131.00,4488.18 7113.00,4490.96 7113.00,4490.96              7104.37,4491.30 7099.67,4488.21 7091.00,4488.25              7091.00,4488.25 7079.00,4488.25 7079.00,4488.25              7079.00,4488.25 7057.00,4487.00 7057.00,4487.00              7057.00,4487.00 7044.00,4487.91 7044.00,4487.91              7038.65,4487.60 7034.90,4485.75 7029.00,4486.09              7029.00,4486.09 7006.00,4489.91 7006.00,4489.91              7006.00,4489.91 6983.00,4489.91 6983.00,4489.91              6983.00,4489.91 6964.00,4487.14 6964.00,4487.14              6964.00,4487.14 6954.00,4487.14 6954.00,4487.14              6954.00,4487.14 6940.00,4486.00 6940.00,4486.00              6940.00,4486.00 6915.00,4486.00 6915.00,4486.00              6904.64,4485.87 6905.08,4483.02 6893.00,4483.00              6893.00,4483.00 6874.00,4483.00 6874.00,4483.00              6865.57,4483.04 6866.24,4484.16 6860.00,4484.92              6860.00,4484.92 6850.00,4484.92 6850.00,4484.92              6850.00,4484.92 6805.00,4489.00 6805.00,4489.00              6805.00,4489.00 6755.00,4487.00 6755.00,4487.00              6744.01,4486.98 6739.54,4484.12 6730.00,4483.17              6730.00,4483.17 6699.00,4481.18 6699.00,4481.18              6699.00,4481.18 6670.00,4482.00 6670.00,4482.00              6670.00,4482.00 6661.00,4483.07 6661.00,4483.07              6661.00,4483.07 6651.00,4483.07 6651.00,4483.07              6651.00,4483.07 6627.00,4488.54 6627.00,4488.54              6627.00,4488.54 6613.00,4489.44 6613.00,4489.44              6613.00,4489.44 6585.00,4494.71 6585.00,4494.71              6585.00,4494.71 6573.00,4495.28 6573.00,4495.28              6573.00,4495.28 6555.00,4497.79 6555.00,4497.79              6555.00,4497.79 6538.00,4495.18 6538.00,4495.18              6538.00,4495.18 6521.00,4497.00 6521.00,4497.00              6521.00,4497.00 6502.00,4498.00 6502.00,4498.00              6502.00,4498.00 6489.00,4497.09 6489.00,4497.09              6489.00,4497.09 6461.00,4500.68 6461.00,4500.68              6451.85,4499.99 6443.15,4499.00 6434.00,4499.68              6428.54,4500.08 6423.36,4497.75 6418.00,4497.39              6411.20,4496.44 6405.02,4497.84 6402.00,4497.39              6397.45,4497.27 6394.22,4495.18 6387.00,4495.01              6387.00,4495.01 6364.00,4497.66 6364.00,4497.66              6364.00,4497.66 6343.00,4496.00 6343.00,4496.00              6343.00,4496.00 6315.00,4497.29 6315.00,4497.29              6306.89,4498.34 6305.43,4500.20 6296.00,4499.99              6296.00,4499.99 6282.00,4499.00 6282.00,4499.00              6282.00,4499.00 6267.00,4499.00 6267.00,4499.00              6267.00,4499.00 6250.00,4498.00 6250.00,4498.00              6250.00,4498.00 6236.00,4497.01 6236.00,4497.01              6236.00,4497.01 6207.00,4500.97 6207.00,4500.97              6207.00,4500.97 6167.00,4497.08 6167.00,4497.08              6167.00,4497.08 6157.00,4497.08 6157.00,4497.08              6157.00,4497.08 6140.00,4499.00 6140.00,4499.00              6140.00,4499.00 6122.00,4499.00 6122.00,4499.00              6114.41,4499.09 6112.49,4500.76 6106.00,4501.70              6106.00,4501.70 6097.00,4502.67 6097.00,4502.67              6097.00,4502.67 6085.00,4505.79 6085.00,4505.79              6085.00,4505.79 6065.00,4508.30 6065.00,4508.30              6065.00,4508.30 6050.00,4511.70 6050.00,4511.70              6050.00,4511.70 6039.00,4512.29 6039.00,4512.29              6030.29,4513.42 6024.39,4515.96 6015.00,4516.00              6009.34,4516.03 6002.45,4515.65 5997.00,4516.61              5991.72,4517.55 5983.88,4520.22 5979.00,4519.81              5979.00,4519.81 5964.00,4516.32 5964.00,4516.32              5964.00,4516.32 5946.00,4514.70 5946.00,4514.70              5946.00,4514.70 5936.00,4512.16 5936.00,4512.16              5936.00,4512.16 5927.00,4512.16 5927.00,4512.16              5927.00,4512.16 5911.00,4510.08 5911.00,4510.08              5911.00,4510.08 5901.00,4510.08 5901.00,4510.08              5901.00,4510.08 5885.00,4508.08 5885.00,4508.08              5885.00,4508.08 5868.00,4508.08 5868.00,4508.08              5857.54,4507.87 5855.62,4503.55 5846.00,4504.09              5846.00,4504.09 5815.00,4508.08 5815.00,4508.08              5815.00,4508.08 5802.00,4508.08 5802.00,4508.08              5802.00,4508.08 5779.00,4510.96 5779.00,4510.96              5770.53,4511.22 5761.95,4505.50 5751.00,4506.32              5751.00,4506.32 5730.00,4507.99 5730.00,4507.99              5730.00,4507.99 5717.00,4507.00 5717.00,4507.00              5717.00,4507.00 5688.00,4507.00 5688.00,4507.00              5688.00,4507.00 5676.00,4506.02 5676.00,4506.02              5676.00,4506.02 5665.00,4506.82 5665.00,4506.82              5665.00,4506.82 5657.00,4506.21 5657.00,4506.21              5657.00,4506.21 5626.00,4511.00 5626.00,4511.00              5626.00,4511.00 5597.00,4511.00 5597.00,4511.00              5590.55,4510.99 5573.14,4509.52 5567.00,4508.11              5567.00,4508.11 5552.00,4503.47 5552.00,4503.47              5552.00,4503.47 5540.00,4502.83 5540.00,4502.83              5540.00,4502.83 5528.00,4500.09 5528.00,4500.09              5528.00,4500.09 5520.00,4500.09 5520.00,4500.09              5520.00,4500.09 5501.00,4498.83 5501.00,4498.83              5501.00,4498.83 5480.00,4493.16 5480.00,4493.16              5480.00,4493.16 5457.00,4493.16 5457.00,4493.16              5457.00,4493.16 5443.00,4495.00 5443.00,4495.00              5443.00,4495.00 5434.00,4495.00 5434.00,4495.00              5434.00,4495.00 5423.00,4497.04 5423.00,4497.04              5423.00,4497.04 5414.00,4497.04 5414.00,4497.04              5414.00,4497.04 5404.00,4498.83 5404.00,4498.83              5404.00,4498.83 5379.00,4500.00 5379.00,4500.00              5379.00,4500.00 5353.00,4498.24 5353.00,4498.24              5353.00,4498.24 5339.00,4498.24 5339.00,4498.24              5339.00,4498.24 5327.00,4496.10 5327.00,4496.10              5327.00,4496.10 5312.00,4497.79 5312.00,4497.79              5312.00,4497.79 5302.00,4496.08 5302.00,4496.08              5302.00,4496.08 5292.00,4496.08 5292.00,4496.08              5292.00,4496.08 5269.00,4494.04 5269.00,4494.04              5261.48,4493.80 5258.46,4496.16 5253.00,4496.91              5253.00,4496.91 5233.00,4496.91 5233.00,4496.91              5233.00,4496.91 5217.00,4496.00 5217.00,4496.00              5217.00,4496.00 5203.00,4496.96 5203.00,4496.96              5203.00,4496.96 5190.00,4495.96 5190.00,4495.96              5190.00,4495.96 5174.00,4495.96 5174.00,4495.96              5174.00,4495.96 5162.00,4495.00 5162.00,4495.00              5162.00,4495.00 5141.00,4495.00 5141.00,4495.00              5141.00,4495.00 5124.00,4494.04 5124.00,4494.04              5124.00,4494.04 5106.00,4495.92 5106.00,4495.92              5106.00,4495.92 5092.00,4494.08 5092.00,4494.08              5086.31,4494.08 5083.46,4496.20 5074.00,4495.99              5074.00,4495.99 5053.00,4494.00 5053.00,4494.00              5053.00,4494.00 5036.00,4493.10 5036.00,4493.10              5036.00,4493.10 5010.00,4496.41 5010.00,4496.41              5010.00,4496.41 4991.00,4495.08 4991.00,4495.08              4991.00,4495.08 4972.00,4496.99 4972.00,4496.99              4972.00,4496.99 4950.00,4496.00 4950.00,4496.00              4950.00,4496.00 4932.00,4494.08 4932.00,4494.08              4932.00,4494.08 4919.00,4494.08 4919.00,4494.08              4908.92,4493.87 4907.83,4490.34 4899.00,4490.04              4895.24,4489.92 4893.47,4490.50 4890.00,4490.83              4890.00,4490.83 4873.00,4492.29 4873.00,4492.29              4864.49,4493.35 4859.04,4494.99 4850.00,4495.00              4850.00,4495.00 4844.00,4495.00 4844.00,4495.00              4844.00,4495.00 4827.00,4496.00 4827.00,4496.00              4827.00,4496.00 4809.00,4495.00 4809.00,4495.00              4809.00,4495.00 4783.00,4493.04 4783.00,4493.04              4783.00,4493.04 4774.00,4494.12 4774.00,4494.12              4774.00,4494.12 4763.00,4494.12 4763.00,4494.12              4754.20,4495.43 4754.73,4496.99 4744.00,4497.00              4731.61,4497.01 4724.64,4494.18 4713.00,4491.66              4713.00,4491.66 4687.00,4487.00 4687.00,4487.00              4687.00,4487.00 4677.00,4487.00 4677.00,4487.00              4677.00,4487.00 4666.00,4485.18 4666.00,4485.18              4666.00,4485.18 4655.00,4486.83 4655.00,4486.83              4655.00,4486.83 4637.00,4489.21 4637.00,4489.21              4637.00,4489.21 4623.00,4492.68 4623.00,4492.68              4623.00,4492.68 4611.00,4493.29 4611.00,4493.29              4602.19,4494.43 4602.75,4495.98 4592.00,4496.00              4592.00,4496.00 4577.00,4496.00 4577.00,4496.00              4577.00,4496.00 4561.00,4495.00 4561.00,4495.00              4549.01,4495.14 4546.47,4498.86 4540.00,4499.79              4540.00,4499.79 4518.00,4499.00 4518.00,4499.00              4506.69,4498.86 4508.64,4495.02 4494.00,4495.00              4494.00,4495.00 4458.00,4494.00 4458.00,4494.00              4458.00,4494.00 4432.00,4492.09 4432.00,4492.09              4432.00,4492.09 4418.00,4493.44 4418.00,4493.44              4418.00,4493.44 4406.00,4495.40 4406.00,4495.40              4402.26,4495.85 4399.98,4494.61 4394.00,4495.40              4394.00,4495.40 4382.00,4496.65 4382.00,4496.65              4382.00,4496.65 4367.00,4493.26 4367.00,4493.26              4367.00,4493.26 4342.00,4495.68 4342.00,4495.68              4342.00,4495.68 4317.00,4494.01 4317.00,4494.01              4317.00,4494.01 4306.00,4494.82 4306.00,4494.82              4306.00,4494.82 4295.00,4494.01 4295.00,4494.01              4295.00,4494.01 4278.00,4495.00 4278.00,4495.00              4278.00,4495.00 4268.00,4494.04 4268.00,4494.04              4268.00,4494.04 4251.00,4494.04 4251.00,4494.04              4251.00,4494.04 4236.00,4493.09 4236.00,4493.09              4231.51,4493.35 4229.05,4494.42 4224.00,4493.82              4224.00,4493.82 4212.00,4490.67 4212.00,4490.67              4205.54,4489.29 4198.59,4488.97 4192.00,4489.00              4192.00,4489.00 4172.00,4490.00 4172.00,4490.00              4172.00,4490.00 4155.00,4489.00 4155.00,4489.00              4143.18,4488.98 4131.68,4485.58 4123.21,4476.82              4123.21,4476.82 4116.47,4467.00 4116.47,4467.00              4111.26,4460.28 4102.71,4455.08 4094.00,4455.08              4077.98,4455.08 4065.48,4471.15 4058.00,4475.35              4054.61,4477.26 4050.73,4477.46 4047.00,4478.93              4047.00,4478.93 4031.00,4486.37 4031.00,4486.37              4031.00,4486.37 4019.00,4487.90 4019.00,4487.90              4019.00,4487.90 4008.00,4491.47 4008.00,4491.47              4008.00,4491.47 3997.00,4492.17 3997.00,4492.17              3992.61,4492.59 3986.11,4494.11 3982.00,4493.82              3982.00,4493.82 3937.00,4488.02 3937.00,4488.02              3937.00,4488.02 3885.00,4494.83 3885.00,4494.83              3885.00,4494.83 3868.00,4495.91 3868.00,4495.91              3862.63,4495.56 3858.78,4493.74 3853.00,4494.09              3847.42,4494.44 3841.53,4497.04 3836.00,4498.35              3836.00,4498.35 3826.00,4500.48 3826.00,4500.48              3826.00,4500.48 3818.00,4502.68 3818.00,4502.68              3818.00,4502.68 3808.00,4503.46 3808.00,4503.46              3808.00,4503.46 3796.00,4506.64 3796.00,4506.64              3796.00,4506.64 3774.00,4505.09 3774.00,4505.09              3774.00,4505.09 3766.00,4505.98 3766.00,4505.98              3766.00,4505.98 3750.00,4505.98 3750.00,4505.98              3743.53,4506.08 3737.49,4508.59 3731.00,4507.82              3731.00,4507.82 3713.00,4503.46 3713.00,4503.46              3713.00,4503.46 3687.00,4500.33 3687.00,4500.33              3681.12,4499.07 3677.24,4496.55 3671.00,4496.09              3657.18,4495.07 3654.93,4498.80 3647.00,4500.07              3643.36,4500.76 3639.67,4500.05 3636.00,4500.07              3628.64,4499.92 3624.43,4500.26 3617.00,4498.50              3601.73,4494.87 3605.79,4491.76 3586.00,4492.00              3577.30,4492.11 3574.82,4494.67 3567.00,4496.33              3567.00,4496.33 3557.00,4497.61 3557.00,4497.61              3542.40,4500.20 3541.58,4502.19 3525.00,4502.00              3525.00,4502.00 3509.00,4500.08 3509.00,4500.08              3509.00,4500.08 3498.00,4500.08 3498.00,4500.08              3486.35,4499.94 3487.91,4497.34 3479.00,4494.93              3474.01,4493.58 3468.19,4494.06 3463.00,4494.00              3463.00,4494.00 3452.00,4493.36 3452.00,4493.36              3446.52,4494.02 3432.51,4498.97 3424.00,4498.53              3417.85,4498.21 3414.04,4494.06 3401.00,4494.00              3401.00,4494.00 3373.00,4491.09 3373.00,4491.09              3373.00,4491.09 3355.00,4492.00 3355.00,4492.00              3347.28,4492.10 3346.72,4493.58 3340.00,4494.72              3330.74,4496.27 3309.87,4499.10 3301.00,4499.00              3292.11,4498.89 3288.29,4495.81 3280.00,4494.01              3280.00,4494.01 3261.00,4491.26 3261.00,4491.26              3261.00,4491.26 3247.00,4487.24 3247.00,4487.24              3247.00,4487.24 3232.00,4484.58 3232.00,4484.58              3219.86,4481.86 3222.86,4480.84 3209.00,4481.00              3204.30,4481.06 3199.68,4482.35 3195.00,4481.70              3189.33,4480.92 3182.61,4478.08 3177.00,4478.08              3177.00,4478.08 3159.00,4480.99 3159.00,4480.99              3148.53,4481.23 3148.26,4478.90 3139.00,4477.22              3139.00,4477.22 3118.00,4477.22 3118.00,4477.22              3112.59,4477.01 3101.55,4479.81 3098.04,4477.98              3094.62,4476.20 3090.50,4469.27 3087.70,4466.00              3079.69,4456.65 3074.31,4453.02 3062.00,4453.00              3062.00,4453.00 3041.00,4453.00 3041.00,4453.00              3041.00,4453.00 3010.00,4457.32 3010.00,4457.32              3004.19,4457.76 3000.23,4454.95 2995.00,4453.09              2990.88,4451.62 2983.41,4450.02 2979.00,4449.13              2963.60,4446.58 2948.42,4448.82 2933.00,4449.13              2916.19,4449.20 2899.34,4458.52 2885.00,4457.96              2885.00,4457.96 2873.00,4456.29 2873.00,4456.29              2866.51,4455.49 2851.22,4454.62 2845.00,4455.59              2835.10,4457.14 2830.29,4458.93 2821.00,4462.00              2816.45,4463.50 2808.67,4466.07 2804.00,4465.67              2804.00,4465.67 2791.00,4463.17 2791.00,4463.17              2786.25,4462.66 2783.03,4463.51 2778.00,4462.24              2769.04,4459.97 2764.11,4456.64 2754.00,4457.04              2754.00,4457.04 2719.00,4462.63 2719.00,4462.63              2719.00,4462.63 2693.00,4461.09 2693.00,4461.09              2693.00,4461.09 2667.00,4463.96 2667.00,4463.96              2667.00,4463.96 2653.00,4463.96 2653.00,4463.96              2653.00,4463.96 2641.00,4463.01 2641.00,4463.01              2641.00,4463.01 2631.00,4463.79 2631.00,4463.79              2625.89,4463.50 2624.57,4462.04 2616.00,4462.00              2616.00,4462.00 2596.00,4462.00 2596.00,4462.00              2596.00,4462.00 2579.00,4461.00 2579.00,4461.00              2579.00,4461.00 2562.00,4462.00 2562.00,4462.00              2562.00,4462.00 2552.00,4462.91 2552.00,4462.91              2552.00,4462.91 2528.00,4464.17 2528.00,4464.17              2522.31,4464.71 2516.76,4466.19 2511.00,4465.96              2511.00,4465.96 2497.00,4464.04 2497.00,4464.04              2497.00,4464.04 2487.00,4464.96 2487.00,4464.96              2487.00,4464.96 2475.00,4464.96 2475.00,4464.96              2464.02,4465.13 2449.99,4469.59 2446.00,4469.54              2446.00,4469.54 2409.00,4464.01 2409.00,4464.01              2398.94,4463.79 2395.10,4466.14 2386.00,4467.56              2386.00,4467.56 2373.00,4468.17 2373.00,4468.17              2373.00,4468.17 2349.00,4470.74 2349.00,4470.74              2342.34,4470.84 2336.53,4465.69 2328.00,4466.10              2320.53,4466.47 2313.08,4470.14 2306.00,4472.08              2306.00,4472.08 2296.00,4474.44 2296.00,4474.44              2296.00,4474.44 2288.00,4476.79 2288.00,4476.79              2288.00,4476.79 2258.00,4475.09 2258.00,4475.09              2258.00,4475.09 2247.00,4476.55 2247.00,4476.55              2247.00,4476.55 2230.00,4476.00 2230.00,4476.00              2230.00,4476.00 2204.00,4474.00 2204.00,4474.00              2204.00,4474.00 2187.00,4474.00 2187.00,4474.00              2187.00,4474.00 2150.00,4469.28 2150.00,4469.28              2150.00,4469.28 2122.00,4466.71 2122.00,4466.71              2113.26,4465.64 2110.63,4464.02 2101.00,4464.04              2101.00,4464.04 2087.00,4464.04 2087.00,4464.04              2087.00,4464.04 2080.00,4464.91 2080.00,4464.91              2080.00,4464.91 2066.00,4464.00 2066.00,4464.00              2052.08,4463.93 2038.52,4459.60 2025.00,4456.67              2025.00,4456.67 2005.00,4453.66 2005.00,4453.66              2005.00,4453.66 1994.00,4449.54 1994.00,4449.54              1989.38,4447.95 1975.97,4446.01 1971.00,4446.01              1961.05,4446.01 1953.06,4448.81 1946.04,4456.02              1942.32,4459.84 1939.24,4466.49 1934.96,4468.10              1931.03,4469.57 1915.82,4466.07 1910.00,4466.05              1910.00,4466.05 1893.00,4466.05 1893.00,4466.05              1893.00,4466.05 1882.00,4467.00 1882.00,4467.00              1882.00,4467.00 1865.00,4467.00 1865.00,4467.00              1865.00,4467.00 1835.00,4465.01 1835.00,4465.01              1835.00,4465.01 1812.00,4466.00 1812.00,4466.00              1812.00,4466.00 1789.00,4467.29 1789.00,4467.29              1783.03,4468.06 1777.07,4470.25 1771.00,4469.91              1771.00,4469.91 1757.00,4468.70 1757.00,4468.70              1749.91,4467.69 1751.61,4467.01 1743.00,4467.08              1743.00,4467.08 1729.00,4467.08 1729.00,4467.08              1722.56,4467.81 1722.15,4468.96 1714.00,4469.00              1714.00,4469.00 1696.00,4468.00 1696.00,4468.00              1684.52,4467.95 1687.35,4468.94 1679.00,4469.92              1679.00,4469.92 1669.00,4469.92 1669.00,4469.92              1669.00,4469.92 1630.00,4473.00 1630.00,4473.00              1630.00,4473.00 1615.00,4472.47 1615.00,4472.47              1615.00,4472.47 1593.00,4475.92 1593.00,4475.92              1593.00,4475.92 1575.00,4474.70 1575.00,4474.70              1568.52,4473.78 1565.27,4472.09 1558.00,4472.14              1558.00,4472.14 1545.00,4472.14 1545.00,4472.14              1529.77,4471.98 1532.91,4469.62 1514.00,4472.14              1514.00,4472.14 1480.00,4478.67 1480.00,4478.67              1480.00,4478.67 1471.00,4477.17 1471.00,4477.17              1471.00,4477.17 1451.00,4476.00 1451.00,4476.00              1451.00,4476.00 1430.00,4475.00 1430.00,4475.00              1417.69,4474.85 1415.60,4470.02 1401.00,4469.96              1401.00,4469.96 1388.00,4469.96 1388.00,4469.96              1388.00,4469.96 1380.00,4469.21 1380.00,4469.21              1380.00,4469.21 1357.00,4472.00 1357.00,4472.00              1348.92,4472.09 1340.92,4471.46 1333.00,4469.79              1326.66,4468.45 1318.34,4465.70 1312.00,4466.09              1303.99,4466.59 1302.83,4469.88 1293.00,4470.00              1293.00,4470.00 1280.00,4470.00 1280.00,4470.00              1280.00,4470.00 1260.00,4471.00 1260.00,4471.00              1260.00,4471.00 1248.00,4471.82 1248.00,4471.82              1248.00,4471.82 1214.00,4471.00 1214.00,4471.00              1214.00,4471.00 1202.00,4470.04 1202.00,4470.04              1202.00,4470.04 1188.00,4470.04 1188.00,4470.04              1188.00,4470.04 1174.00,4469.04 1174.00,4469.04              1174.00,4469.04 1158.00,4470.82 1158.00,4470.82              1148.54,4471.49 1141.39,4465.48 1128.00,4466.04              1128.00,4466.04 1110.00,4467.43 1110.00,4467.43              1100.24,4468.83 1096.49,4470.98 1086.00,4471.00              1086.00,4471.00 1056.00,4471.00 1056.00,4471.00              1056.00,4471.00 1044.00,4471.95 1044.00,4471.95              1044.00,4471.95 1031.00,4471.95 1031.00,4471.95              1031.00,4471.95 1018.00,4471.00 1018.00,4471.00              1018.00,4471.00 997.00,4471.00 997.00,4471.00              997.00,4471.00 987.00,4471.96 987.00,4471.96              987.00,4471.96 972.00,4471.96 972.00,4471.96              972.00,4471.96 953.00,4472.91 953.00,4472.91              940.37,4472.05 939.52,4469.81 923.00,4470.00              913.37,4470.12 911.64,4472.95 901.00,4473.00              901.00,4473.00 870.00,4473.00 870.00,4473.00              870.00,4473.00 860.00,4472.09 860.00,4472.09              860.00,4472.09 841.00,4470.91 841.00,4470.91              841.00,4470.91 832.00,4470.03 832.00,4470.03              832.00,4470.03 811.00,4472.00 811.00,4472.00              811.00,4472.00 784.00,4472.00 784.00,4472.00              772.76,4471.98 769.51,4469.09 763.00,4469.08              763.00,4469.08 742.00,4470.99 742.00,4470.99              742.00,4470.99 730.00,4470.00 730.00,4470.00              730.00,4470.00 703.00,4468.54 703.00,4468.54              703.00,4468.54 667.00,4463.09 667.00,4463.09              667.00,4463.09 645.00,4466.30 645.00,4466.30              645.00,4466.30 631.00,4470.99 631.00,4470.99              631.00,4470.99 600.00,4476.57 600.00,4476.57              600.00,4476.57 577.00,4485.18 577.00,4485.18              572.60,4485.62 560.13,4481.23 555.00,4479.88              555.00,4479.88 535.00,4476.25 535.00,4476.25              527.72,4473.87 524.67,4470.59 516.00,4471.09              516.00,4471.09 495.00,4475.71 495.00,4475.71              483.16,4477.55 472.83,4476.87 461.00,4477.00              461.00,4477.00 447.00,4478.00 447.00,4478.00              447.00,4478.00 426.00,4477.00 426.00,4477.00              414.10,4476.98 409.56,4474.37 399.00,4472.46              399.00,4472.46 375.00,4470.82 375.00,4470.82              375.00,4470.82 362.00,4468.09 362.00,4468.09              362.00,4468.09 337.00,4470.46 337.00,4470.46              337.00,4470.46 326.00,4472.79 326.00,4472.79              326.00,4472.79 300.00,4470.09 300.00,4470.09              294.13,4469.72 289.57,4471.41 284.00,4471.82              284.00,4471.82 270.00,4471.00 270.00,4471.00              270.00,4471.00 242.00,4471.00 242.00,4471.00              242.00,4471.00 225.00,4472.99 225.00,4472.99              225.00,4472.99 213.00,4472.04 213.00,4472.04              213.00,4472.04 196.00,4472.04 196.00,4472.04              196.00,4472.04 181.00,4471.09 181.00,4471.09              174.54,4471.49 171.59,4473.90 163.00,4474.00              163.00,4474.00 151.00,4474.00 151.00,4474.00              131.16,4473.91 129.32,4461.49 119.24,4448.00              113.23,4439.96 106.79,4435.20 100.76,4425.00              94.81,4414.92 94.43,4403.10 91.98,4392.00              89.55,4380.95 86.84,4384.27 87.00,4370.00              87.08,4363.47 90.24,4353.85 95.21,4349.41              97.68,4347.21 101.13,4346.31 104.00,4344.64              109.30,4341.55 114.76,4335.72 117.07,4330.00              122.15,4317.45 113.66,4303.13 110.76,4291.00              109.24,4285.57 111.22,4281.39 110.76,4276.00              110.13,4262.65 102.27,4255.59 101.21,4248.00              100.25,4241.07 104.59,4237.61 103.83,4229.00              103.83,4229.00 99.44,4207.00 99.44,4207.00              99.44,4207.00 97.87,4181.00 97.87,4181.00              97.98,4176.76 96.48,4169.34 97.87,4166.00              99.11,4162.37 103.03,4159.30 105.36,4156.00              108.45,4151.65 109.75,4146.27 109.96,4141.00              109.96,4141.00 108.07,4117.00 108.07,4117.00              108.07,4117.00 103.33,4104.00 103.33,4104.00              103.33,4104.00 101.71,4087.00 101.71,4087.00              101.71,4087.00 98.92,4074.00 98.92,4074.00              98.92,4074.00 98.92,4066.00 98.92,4066.00              98.92,4066.00 96.46,4057.00 96.46,4057.00              96.46,4057.00 95.82,4046.00 95.82,4046.00              95.82,4046.00 93.09,4034.00 93.09,4034.00              93.09,4034.00 93.09,4014.00 93.09,4014.00              93.09,4014.00 95.99,3990.00 95.99,3990.00              95.99,3990.00 94.00,3967.00 94.00,3967.00              93.95,3962.39 94.30,3958.54 93.07,3954.00              93.07,3954.00 87.68,3940.00 87.68,3940.00              86.34,3934.15 87.87,3932.20 85.52,3923.00              83.63,3915.61 80.56,3907.79 81.10,3900.00              81.70,3891.23 88.56,3883.06 87.81,3874.00              87.29,3867.70 81.57,3853.02 82.04,3841.00              82.16,3837.83 83.31,3823.19 84.23,3821.00              85.97,3816.83 89.99,3813.14 92.53,3809.00              96.50,3802.54 96.99,3798.35 97.00,3791.00              97.00,3791.00 98.00,3761.00 98.00,3761.00              98.05,3749.83 100.98,3749.29 101.00,3737.00              101.00,3737.00 101.00,3719.00 101.00,3719.00              101.00,3719.00 98.00,3688.00 98.00,3688.00              98.12,3678.11 100.98,3678.78 101.08,3666.00              101.08,3666.00 101.08,3655.00 101.08,3655.00              101.08,3655.00 102.91,3643.00 102.91,3643.00              102.91,3643.00 102.21,3631.00 102.21,3631.00              102.21,3631.00 104.00,3611.00 104.00,3611.00              104.06,3605.56 104.31,3594.93 103.38,3590.00              103.38,3590.00 98.10,3572.00 98.10,3572.00              98.10,3572.00 98.10,3562.00 98.10,3562.00              98.10,3562.00 96.72,3552.00 96.72,3552.00              96.72,3552.00 93.47,3534.00 93.47,3534.00              93.47,3534.00 94.99,3513.00 94.99,3513.00              94.99,3513.00 90.04,3475.00 90.04,3475.00              90.22,3470.24 91.48,3462.36 93.34,3458.00              96.63,3450.28 102.45,3442.77 101.82,3434.00              101.82,3434.00 100.61,3423.00 100.61,3423.00              101.05,3415.51 102.94,3415.33 103.00,3402.00              103.05,3391.44 106.22,3388.25 105.96,3380.00              105.70,3371.86 102.56,3366.84 102.09,3361.00              101.59,3354.70 102.52,3351.71 102.96,3346.00              102.96,3346.00 102.96,3333.00 102.96,3333.00              102.96,3333.00 103.97,3320.00 103.97,3320.00              103.97,3312.69 101.18,3308.69 101.18,3304.00              101.18,3299.05 104.41,3294.38 103.90,3287.00              103.90,3287.00 97.90,3264.00 97.90,3264.00              96.63,3258.67 97.06,3254.38 97.00,3249.00              96.87,3238.48 93.68,3237.25 93.09,3230.00              93.09,3230.00 92.00,3206.00 92.00,3206.00              91.99,3197.24 90.88,3196.31 89.94,3189.00              89.94,3189.00 89.94,3179.00 89.94,3179.00              89.94,3179.00 88.10,3169.00 88.10,3169.00              88.10,3169.00 88.88,3154.00 88.88,3154.00              88.88,3154.00 88.88,3143.00 88.88,3143.00              89.33,3138.80 91.03,3135.49 90.79,3131.00              90.79,3131.00 87.75,3110.00 87.75,3110.00              87.99,3105.28 90.92,3100.12 90.92,3094.00              90.93,3088.66 88.68,3084.07 89.10,3078.00              89.44,3072.94 93.92,3061.64 93.92,3051.00              93.92,3051.00 92.32,3036.00 92.32,3036.00              92.32,3036.00 92.92,3030.00 92.92,3030.00              92.92,3030.00 88.43,3004.00 88.43,3004.00              88.43,3004.00 87.91,2993.00 87.91,2993.00              87.91,2993.00 87.10,2986.00 87.10,2986.00              87.10,2986.00 90.00,2964.00 90.00,2964.00              90.00,2964.00 91.00,2940.00 91.00,2940.00              91.00,2940.00 93.92,2918.00 93.92,2918.00              93.92,2918.00 93.92,2904.00 93.92,2904.00              93.95,2893.57 92.01,2893.93 90.94,2887.00              90.94,2887.00 90.94,2875.00 90.94,2875.00              90.94,2875.00 88.26,2863.00 88.26,2863.00              88.26,2863.00 88.82,2854.00 88.82,2854.00              88.82,2854.00 86.10,2835.00 86.10,2835.00              86.10,2835.00 88.57,2803.00 88.57,2803.00              86.77,2790.30 78.57,2777.03 79.04,2765.00              79.04,2765.00 81.91,2728.00 81.91,2728.00              81.91,2728.00 81.16,2718.00 81.16,2718.00              80.92,2710.76 82.68,2699.94 81.16,2694.00              79.65,2686.70 75.00,2682.16 74.19,2676.00              73.18,2668.40 75.51,2662.94 75.91,2656.00              75.91,2656.00 74.75,2639.00 74.75,2639.00              75.44,2624.83 83.32,2622.73 83.90,2611.00              84.26,2603.60 81.26,2600.25 79.10,2594.00              79.10,2594.00 75.08,2577.00 75.08,2577.00              73.30,2570.66 71.74,2570.57 72.04,2563.00              72.36,2555.08 76.43,2548.59 75.91,2540.00              75.39,2531.65 70.86,2524.70 68.36,2517.00              67.39,2514.00 66.17,2501.30 66.18,2498.00              66.19,2488.20 78.18,2466.19 79.68,2457.00              79.68,2457.00 79.01,2441.00 79.01,2441.00              79.14,2435.31 80.56,2432.05 79.70,2426.00              78.88,2420.21 76.71,2416.29 77.09,2410.00              77.52,2403.08 82.52,2387.75 81.91,2377.00              81.91,2377.00 77.18,2343.00 77.18,2343.00              77.18,2343.00 78.96,2329.00 78.96,2329.00              78.96,2329.00 78.00,2316.00 78.00,2316.00              78.00,2316.00 78.78,2302.00 78.78,2302.00              78.78,2302.00 78.78,2292.00 78.78,2292.00              78.78,2292.00 81.91,2277.00 81.91,2277.00              81.91,2277.00 77.00,2240.00 77.00,2240.00              77.00,2240.00 77.00,2221.00 77.00,2221.00              77.00,2221.00 77.96,2209.00 77.96,2209.00              77.96,2209.00 77.37,2201.00 77.37,2201.00              77.22,2197.85 78.79,2189.49 79.42,2186.00              79.42,2186.00 85.19,2165.00 85.19,2165.00              85.19,2165.00 88.05,2146.00 88.05,2146.00              88.05,2146.00 88.05,2137.00 88.05,2137.00              89.02,2130.03 91.23,2129.85 90.99,2119.00              90.99,2119.00 89.18,2102.00 89.18,2102.00              88.49,2098.71 86.55,2093.98 86.48,2091.00              86.36,2085.52 90.92,2081.23 90.92,2073.00              90.92,2068.19 88.97,2063.71 88.30,2059.00              88.30,2059.00 87.00,2038.00 87.00,2038.00              87.00,2038.00 89.00,2014.00 89.00,2014.00              89.00,2014.00 90.00,1988.00 90.00,1988.00              90.00,1988.00 90.96,1973.00 90.96,1973.00              90.64,1965.14 87.04,1958.42 86.80,1954.00              86.80,1954.00 86.80,1943.00 86.80,1943.00              86.77,1938.37 85.74,1936.13 86.09,1931.00              86.45,1925.76 88.30,1922.82 87.90,1917.00              87.90,1917.00 82.09,1891.00 82.09,1891.00              82.09,1891.00 82.96,1877.00 82.96,1877.00              82.96,1877.00 80.60,1862.00 80.60,1862.00              80.60,1862.00 75.28,1839.00 75.28,1839.00              75.28,1839.00 67.11,1813.00 67.11,1813.00              67.11,1813.00 64.33,1803.00 64.33,1803.00              63.42,1797.07 66.09,1794.38 67.32,1789.00              68.36,1784.47 67.95,1777.82 68.00,1773.00              68.00,1773.00 71.81,1744.00 71.81,1744.00              71.81,1744.00 69.55,1733.00 69.55,1733.00              69.11,1728.93 70.71,1725.05 70.90,1721.00              70.90,1721.00 70.37,1711.00 70.37,1711.00              70.98,1706.30 76.65,1697.84 77.83,1686.00              78.84,1675.87 75.67,1671.53 76.09,1664.00              76.09,1664.00 78.81,1641.00 78.81,1641.00              81.79,1626.14 94.76,1621.40 93.91,1605.00              93.64,1599.76 92.67,1597.17 95.44,1592.01              98.20,1586.87 104.81,1583.60 109.03,1577.00              113.23,1570.44 113.08,1564.42 113.00,1557.00              112.89,1547.70 109.38,1536.98 104.65,1529.00              101.49,1523.66 96.77,1520.49 96.11,1514.00              96.11,1514.00 97.30,1492.00 97.30,1492.00              97.30,1492.00 98.91,1484.00 98.91,1484.00              98.91,1484.00 98.91,1474.00 98.91,1474.00              98.91,1474.00 99.82,1460.00 99.82,1460.00              99.82,1460.00 97.54,1440.00 97.54,1440.00              95.95,1431.41 94.04,1430.19 94.00,1420.00              94.00,1420.00 95.68,1397.00 95.68,1397.00              96.12,1391.00 92.34,1380.35 92.34,1376.00              92.35,1372.08 94.45,1367.87 95.32,1364.00              95.32,1364.00 96.96,1347.00 96.96,1347.00              96.96,1347.00 96.00,1327.00 96.00,1327.00              96.02,1312.69 100.48,1311.98 102.53,1301.00              104.18,1292.19 100.70,1285.75 101.18,1279.00              101.18,1279.00 103.82,1258.00 103.82,1258.00              103.82,1258.00 102.71,1243.00 102.71,1243.00              102.71,1243.00 99.46,1227.00 99.46,1227.00              99.46,1227.00 97.51,1208.00 97.51,1208.00              97.51,1208.00 98.91,1195.00 98.91,1195.00              98.91,1195.00 100.00,1173.00 100.00,1173.00              100.00,1173.00 101.00,1155.00 101.00,1155.00              100.90,1146.06 98.31,1141.92 98.13,1137.00              98.13,1137.00 99.00,1125.00 99.00,1125.00              99.00,1125.00 99.00,1101.00 99.00,1101.00              98.98,1091.11 97.41,1089.56 96.29,1081.00              96.29,1081.00 95.33,1072.00 95.33,1072.00              93.61,1063.88 92.05,1064.59 92.00,1055.00              92.00,1055.00 91.00,1032.00 91.00,1032.00              91.00,1032.00 92.79,1015.00 92.79,1015.00              94.53,1008.88 98.39,1004.94 97.82,997.00              97.82,997.00 92.22,968.00 92.22,968.00              92.22,968.00 92.22,949.00 92.22,949.00              92.22,949.00 91.04,934.00 91.04,934.00              91.43,921.85 97.42,916.96 96.96,905.00              96.80,900.79 95.60,891.82 94.07,888.00              89.93,877.65 84.18,874.27 85.18,861.00              85.67,854.61 88.37,848.51 87.83,842.00              87.83,842.00 83.01,813.00 83.01,813.00              83.22,803.97 86.23,799.17 86.82,793.00              86.82,793.00 86.09,780.00 86.09,780.00              86.38,774.95 87.54,772.68 86.70,767.00              85.77,760.65 83.15,757.79 81.79,753.00              80.55,748.64 81.28,745.26 80.83,741.00              80.83,741.00 78.46,728.00 78.46,728.00              78.32,724.01 80.48,709.62 81.99,706.00              85.40,697.79 89.98,697.95 90.00,682.00              90.01,675.67 90.43,669.09 88.40,663.00              86.37,656.87 82.97,654.72 81.14,650.00              79.67,646.19 80.04,642.00 80.00,638.00              79.88,627.77 76.68,626.00 76.09,618.00              76.09,618.00 75.01,599.00 75.01,599.00              75.01,599.00 75.91,586.00 75.91,586.00              75.91,586.00 74.04,570.00 74.04,570.00              74.04,570.00 74.04,560.00 74.04,560.00              74.04,560.00 73.00,550.00 73.00,550.00              72.82,533.96 71.27,539.06 69.94,530.00              69.94,530.00 69.94,516.00 69.94,516.00              68.92,510.49 68.08,510.80 68.00,504.00              67.87,492.34 67.69,485.56 64.87,474.00              62.62,464.78 59.05,459.42 58.91,450.00              58.91,450.00 58.91,442.00 58.91,442.00              58.39,437.93 56.97,435.23 57.33,431.00              57.33,431.00 58.83,422.00 58.83,422.00              58.83,422.00 60.30,403.00 60.30,403.00              60.30,403.00 62.25,395.00 62.25,395.00              63.42,390.10 62.94,384.10 63.00,379.00              63.06,374.46 67.88,354.06 69.82,350.00              73.37,342.60 78.58,338.23 77.81,329.00              77.44,324.46 74.98,319.69 75.48,316.00              75.48,316.00 81.48,301.00 81.48,301.00              81.48,301.00 84.16,287.00 84.16,287.00              88.38,270.89 90.80,271.83 91.00,254.00              91.00,254.00 91.99,242.00 91.99,242.00              92.22,231.60 90.01,230.79 89.09,223.00              89.09,223.00 89.09,204.00 89.09,204.00              89.22,185.76 101.22,177.51 107.13,164.00              107.13,164.00 113.09,146.00 113.09,146.00              113.09,146.00 117.73,137.00 117.73,137.00              119.35,133.77 120.59,129.79 123.22,127.28              127.68,123.02 134.34,124.06 140.00,124.00              154.46,123.83 172.69,117.00 187.00,113.37              208.56,107.92 230.02,103.97 252.00,100.73              267.41,98.46 266.00,97.20 283.00,97.00              283.00,97.00 305.00,95.21 305.00,95.21              305.00,95.21 318.00,96.00 318.00,96.00              318.00,96.00 336.00,95.00 336.00,95.00              336.00,95.00 365.00,97.04 365.00,97.04              365.00,97.04 381.00,97.04 381.00,97.04              381.00,97.04 391.00,98.00 391.00,98.00              398.12,98.08 412.66,97.56 419.00,99.70              419.00,99.70 430.00,106.01 430.00,106.01              433.24,107.63 442.34,110.27 446.00,110.97              453.16,112.34 467.23,109.84 475.00,110.01              481.30,110.16 485.24,111.88 491.00,112.70              491.00,112.70 509.00,114.51 509.00,114.51              518.49,116.57 519.34,118.12 530.00,118.00              530.00,118.00 543.00,117.00 543.00,117.00              543.00,117.00 560.00,117.00 560.00,117.00              560.00,117.00 591.00,118.96 591.00,118.96              591.00,118.96 604.00,118.96 604.00,118.96              604.00,118.96 613.00,118.03 613.00,118.03              613.00,118.03 621.00,118.82 621.00,118.82              621.00,118.82 631.00,118.08 631.00,118.08              631.00,118.08 641.00,118.99 641.00,118.99              641.00,118.99 690.00,113.72 690.00,113.72              690.00,113.72 703.00,112.01 703.00,112.01              711.52,111.82 712.17,113.15 719.00,114.00              719.00,114.00 730.00,114.00 730.00,114.00              730.00,114.00 742.00,116.70 742.00,116.70              742.00,116.70 760.00,118.29 760.00,118.29              778.19,120.55 774.47,122.25 796.00,122.00              808.22,121.85 818.50,119.12 830.00,115.33              830.00,115.33 843.00,110.53 843.00,110.53              843.00,110.53 858.00,109.33 858.00,109.33              865.05,107.89 883.09,102.74 889.00,103.18              895.44,103.67 895.46,104.99 905.00,105.09              905.00,105.09 920.00,105.09 920.00,105.09              920.00,105.09 932.00,107.83 932.00,107.83              932.00,107.83 950.00,109.31 950.00,109.31              958.78,111.06 956.88,113.98 971.00,114.00              971.00,114.00 989.00,114.00 989.00,114.00              989.00,114.00 999.00,113.09 999.00,113.09              1003.29,112.85 1005.13,113.65 1009.00,113.95              1009.00,113.95 1020.00,113.95 1020.00,113.95              1031.06,113.87 1033.96,109.63 1040.00,110.25              1044.37,110.70 1047.26,113.71 1054.00,114.70              1061.40,115.79 1066.31,114.17 1073.00,114.01              1073.00,114.01 1108.00,117.96 1108.00,117.96              1108.00,117.96 1131.00,116.09 1131.00,116.09              1131.00,116.09 1160.00,113.96 1160.00,113.96              1160.00,113.96 1169.00,113.96 1169.00,113.96              1169.00,113.96 1193.00,111.46 1193.00,111.46              1198.16,111.40 1202.64,114.18 1209.00,113.90              1209.00,113.90 1229.00,111.33 1229.00,111.33              1229.00,111.33 1242.00,108.39 1242.00,108.39              1242.00,108.39 1252.00,109.14 1252.00,109.14              1252.00,109.14 1270.00,109.14 1270.00,109.14              1270.00,109.14 1288.00,112.83 1288.00,112.83              1288.00,112.83 1310.00,114.09 1310.00,114.09              1310.00,114.09 1321.00,115.92 1321.00,115.92              1321.00,115.92 1338.00,115.92 1338.00,115.92              1338.00,115.92 1358.00,118.00 1358.00,118.00              1358.00,118.00 1382.00,118.00 1382.00,118.00              1382.00,118.00 1392.00,116.96 1392.00,116.96              1392.00,116.96 1402.00,116.96 1402.00,116.96              1402.00,116.96 1422.00,112.07 1422.00,112.07              1422.00,112.07 1437.00,106.51 1437.00,106.51              1437.00,106.51 1459.00,102.65 1459.00,102.65              1464.71,101.17 1472.07,95.72 1477.00,95.25              1482.91,94.69 1490.08,101.12 1496.00,103.66              1503.44,106.86 1510.15,105.91 1518.00,106.00              1518.00,106.00 1542.00,109.90 1542.00,109.90              1542.00,109.90 1569.00,108.10 1569.00,108.10              1569.00,108.10 1578.00,108.96 1578.00,108.96              1578.00,108.96 1595.00,108.96 1595.00,108.96              1610.25,109.02 1614.27,115.24 1635.00,115.00              1635.00,115.00 1652.00,113.54 1652.00,113.54              1660.72,111.97 1658.26,110.88 1669.00,111.00              1669.00,111.00 1679.00,111.91 1679.00,111.91              1679.00,111.91 1701.00,113.09 1701.00,113.09              1701.00,113.09 1710.00,113.97 1710.00,113.97              1710.00,113.97 1729.00,111.96 1729.00,111.96              1729.00,111.96 1742.00,111.96 1742.00,111.96              1745.87,111.65 1747.71,110.85 1752.00,111.09              1752.00,111.09 1762.00,112.00 1762.00,112.00              1762.00,112.00 1789.00,112.00 1789.00,112.00              1789.00,112.00 1801.00,111.00 1801.00,111.00              1801.00,111.00 1810.00,111.00 1810.00,111.00              1810.00,111.00 1818.00,110.08 1818.00,110.08              1818.00,110.08 1836.00,112.91 1836.00,112.91              1836.00,112.91 1854.00,112.04 1854.00,112.04              1854.00,112.04 1868.00,113.91 1868.00,113.91              1868.00,113.91 1887.00,113.91 1887.00,113.91              1887.00,113.91 1912.00,111.70 1912.00,111.70              1921.63,110.27 1918.00,108.85 1931.00,109.00              1931.00,109.00 1944.00,110.00 1944.00,110.00              1944.00,110.00 1960.00,110.00 1960.00,110.00              1960.00,110.00 1980.00,108.34 1980.00,108.34              1980.00,108.34 1995.00,109.91 1995.00,109.91              2001.55,110.36 2008.48,109.47 2015.00,108.83              2019.33,108.41 2025.02,107.36 2029.00,105.66              2033.61,103.70 2036.74,101.15 2042.00,101.08              2042.00,101.08 2057.00,102.83 2057.00,102.83              2057.00,102.83 2069.00,103.53 2069.00,103.53              2069.00,103.53 2081.00,107.65 2081.00,107.65              2086.03,109.23 2102.90,111.92 2108.00,111.92              2108.00,111.92 2125.00,110.08 2125.00,110.08              2125.00,110.08 2143.00,111.82 2143.00,111.82              2143.00,111.82 2178.00,109.00 2178.00,109.00              2178.00,109.00 2200.00,110.00 2200.00,110.00              2200.00,110.00 2219.00,110.00 2219.00,110.00              2219.00,110.00 2235.00,110.96 2235.00,110.96              2248.03,110.43 2255.29,104.03 2262.00,101.85              2262.00,101.85 2289.00,99.19 2289.00,99.19              2289.00,99.19 2308.00,103.54 2308.00,103.54              2317.47,105.33 2322.64,104.99 2332.00,105.00              2341.93,105.02 2339.99,106.08 2347.00,106.91              2347.00,106.91 2360.00,106.91 2360.00,106.91              2360.00,106.91 2380.00,107.83 2380.00,107.83              2380.00,107.83 2391.00,105.28 2391.00,105.28              2391.00,105.28 2411.00,102.08 2411.00,102.08              2411.00,102.08 2429.00,100.33 2429.00,100.33              2429.00,100.33 2444.00,95.76 2444.00,95.76              2444.00,95.76 2466.00,93.18 2466.00,93.18              2466.00,93.18 2485.00,96.41 2485.00,96.41              2493.97,97.81 2493.62,95.93 2505.00,98.42              2505.00,98.42 2540.00,107.84 2540.00,107.84              2540.00,107.84 2555.00,107.84 2555.00,107.84              2555.00,107.84 2585.00,111.04 2585.00,111.04              2585.00,111.04 2598.00,111.04 2598.00,111.04              2598.00,111.04 2606.00,111.79 2606.00,111.79              2606.00,111.79 2615.00,111.79 2615.00,111.79              2619.84,112.03 2622.89,114.19 2630.00,113.96              2630.00,113.96 2653.00,110.92 2653.00,110.92              2653.00,110.92 2671.00,110.92 2671.00,110.92              2671.00,110.92 2690.00,108.00 2690.00,108.00              2690.00,108.00 2710.00,106.71 2710.00,106.71              2727.09,104.61 2731.48,102.79 2750.00,103.00              2762.37,103.15 2780.87,110.97 2800.00,111.00              2800.00,111.00 2835.00,111.00 2835.00,111.00              2835.00,111.00 2861.00,109.00 2861.00,109.00              2861.00,109.00 2878.00,109.00 2878.00,109.00              2878.00,109.00 2898.00,107.00 2898.00,107.00              2898.00,107.00 2917.00,107.00 2917.00,107.00              2917.00,107.00 2932.00,106.17 2932.00,106.17              2932.00,106.17 2945.00,108.93 2945.00,108.93              2945.00,108.93 2952.00,108.93 2952.00,108.93              2952.00,108.93 2968.00,110.91 2968.00,110.91              2973.24,111.24 2975.29,110.24 2980.00,110.02              2980.00,110.02 2995.00,110.02 2995.00,110.02              3006.69,109.86 3017.65,105.18 3029.00,103.32              3029.00,103.32 3053.00,104.00 3053.00,104.00              3065.73,103.85 3084.62,98.65 3097.00,95.29              3097.00,95.29 3119.00,90.25 3119.00,90.25              3134.97,85.77 3131.60,82.78 3151.00,83.00              3156.73,83.07 3166.87,84.94 3172.00,87.40              3172.00,87.40 3186.00,95.69 3186.00,95.69              3198.67,101.55 3216.03,105.98 3230.00,106.00              3230.00,106.00 3243.00,106.00 3243.00,106.00              3243.00,106.00 3256.00,107.00 3256.00,107.00              3256.00,107.00 3260.00,107.00 3260.00,107.00              3260.00,107.00 3282.00,108.84 3282.00,108.84              3282.00,108.84 3297.00,108.84 3297.00,108.84              3297.00,108.84 3311.00,110.00 3311.00,110.00              3311.00,110.00 3321.00,110.00 3321.00,110.00              3329.76,110.01 3330.69,111.12 3338.00,111.92              3338.00,111.92 3347.00,111.92 3347.00,111.92              3347.00,111.92 3364.00,113.00 3364.00,113.00              3364.00,113.00 3374.00,112.09 3374.00,112.09              3374.00,112.09 3409.00,110.00 3409.00,110.00              3409.00,110.00 3431.00,108.04 3431.00,108.04              3431.00,108.04 3442.00,108.91 3442.00,108.91              3442.00,108.91 3455.00,108.00 3455.00,108.00              3455.00,108.00 3475.00,110.00 3475.00,110.00              3475.00,110.00 3494.00,109.01 3494.00,109.01              3494.00,109.01 3518.00,111.96 3518.00,111.96              3518.00,111.96 3535.00,110.96 3535.00,110.96              3535.00,110.96 3548.00,110.96 3548.00,110.96              3548.00,110.96 3561.00,110.00 3561.00,110.00              3561.00,110.00 3572.00,110.98 3572.00,110.98              3572.00,110.98 3589.00,110.98 3589.00,110.98              3595.48,111.08 3599.05,112.53 3606.00,111.83              3606.00,111.83 3628.00,106.50 3628.00,106.50              3628.00,106.50 3655.00,103.71 3655.00,103.71              3655.00,103.71 3672.00,100.38 3672.00,100.38              3676.43,100.12 3679.82,101.99 3684.00,102.84              3684.00,102.84 3697.00,102.84 3697.00,102.84              3697.00,102.84 3713.00,101.08 3713.00,101.08              3713.00,101.08 3732.00,103.00 3732.00,103.00              3732.00,103.00 3767.00,103.00 3767.00,103.00              3767.00,103.00 3782.00,104.00 3782.00,104.00              3782.00,104.00 3804.00,104.00 3804.00,104.00              3804.00,104.00 3821.00,105.00 3821.00,105.00              3821.00,105.00 3838.00,105.00 3838.00,105.00              3838.00,105.00 3857.00,104.00 3857.00,104.00              3857.00,104.00 3873.00,105.00 3873.00,105.00              3873.00,105.00 3889.00,104.00 3889.00,104.00              3889.00,104.00 3912.00,105.00 3912.00,105.00              3912.00,105.00 3927.00,106.00 3927.00,106.00              3927.00,106.00 3969.00,106.00 3969.00,106.00              3977.27,105.90 3978.72,104.24 3986.00,102.67              3986.00,102.67 4010.00,99.30 4010.00,99.30              4010.00,99.30 4023.00,100.00 4023.00,100.00              4023.00,100.00 4047.00,100.00 4047.00,100.00              4052.63,100.07 4058.93,101.13 4064.00,103.66              4071.30,107.30 4075.47,112.54 4085.00,111.82              4094.80,111.08 4102.65,105.51 4111.00,105.10              4115.77,104.87 4125.26,107.75 4131.00,108.78              4131.00,108.78 4151.00,108.78 4151.00,108.78              4151.00,108.78 4164.00,108.00 4164.00,108.00              4164.00,108.00 4188.00,108.00 4188.00,108.00              4199.65,108.02 4201.06,110.64 4209.00,110.96              4219.60,111.39 4221.80,107.87 4229.00,105.93              4233.49,104.71 4239.30,104.94 4244.00,105.00              4254.47,105.14 4256.97,110.18 4273.00,110.00              4273.00,110.00 4284.00,109.32 4284.00,109.32              4284.00,109.32 4294.00,110.92 4294.00,110.92              4294.00,110.92 4307.00,110.92 4307.00,110.92              4307.00,110.92 4332.00,110.32 4332.00,110.32              4332.00,110.32 4350.00,111.91 4350.00,111.91              4350.00,111.91 4362.00,110.96 4362.00,110.96              4362.00,110.96 4378.00,110.96 4378.00,110.96              4378.00,110.96 4390.00,110.00 4390.00,110.00              4390.00,110.00 4423.00,110.00 4423.00,110.00              4423.00,110.00 4450.00,112.91 4450.00,112.91              4450.00,112.91 4469.00,112.91 4469.00,112.91              4469.00,112.91 4479.00,112.04 4479.00,112.04              4479.00,112.04 4493.00,112.04 4493.00,112.04              4493.00,112.04 4522.00,110.00 4522.00,110.00              4522.00,110.00 4543.00,110.00 4543.00,110.00              4551.96,110.01 4551.90,111.12 4559.00,111.92              4559.00,111.92 4577.00,111.92 4577.00,111.92              4586.89,111.98 4586.33,110.84 4595.00,109.44              4595.00,109.44 4613.00,107.39 4613.00,107.39              4613.00,107.39 4638.00,102.13 4638.00,102.13              4638.00,102.13 4669.00,100.09 4669.00,100.09              4669.00,100.09 4689.00,101.00 4689.00,101.00              4705.84,100.80 4715.40,94.55 4729.00,91.67              4733.95,90.62 4740.77,91.06 4746.00,91.00              4746.00,91.00 4764.00,89.56 4764.00,89.56              4764.00,89.56 4777.00,87.08 4777.00,87.08              4777.00,87.08 4787.00,87.08 4787.00,87.08              4787.00,87.08 4797.00,86.00 4797.00,86.00              4797.00,86.00 4809.00,86.00 4809.00,86.00              4809.00,86.00 4822.00,85.00 4822.00,85.00              4822.00,85.00 4843.00,83.32 4843.00,83.32              4843.00,83.32 4853.00,84.00 4853.00,84.00              4853.00,84.00 4862.00,84.00 4862.00,84.00              4862.00,84.00 4896.00,80.00 4896.00,80.00              4896.00,80.00 4909.00,80.00 4909.00,80.00              4918.47,80.11 4928.59,83.42 4938.00,85.20              4938.00,85.20 4957.00,87.78 4957.00,87.78              4968.91,91.09 4971.88,95.98 4986.00,96.00              4986.00,96.00 4993.00,96.00 4993.00,96.00              4993.00,96.00 5037.00,101.79 5037.00,101.79              5037.00,101.79 5061.00,99.92 5061.00,99.92              5061.00,99.92 5077.00,99.92 5077.00,99.92              5077.00,99.92 5087.00,99.92 5087.00,99.92              5087.00,99.92 5099.00,101.71 5099.00,101.71              5105.65,102.61 5112.29,103.07 5119.00,103.00              5119.00,103.00 5140.00,102.00 5140.00,102.00              5140.00,102.00 5155.00,103.00 5155.00,103.00              5155.00,103.00 5189.00,103.00 5189.00,103.00              5189.00,103.00 5203.00,102.04 5203.00,102.04              5207.73,102.22 5225.77,104.47 5230.00,105.77              5236.48,107.77 5239.72,110.94 5248.00,111.83              5257.43,112.84 5262.53,110.02 5271.00,109.17              5271.00,109.17 5290.00,108.02 5290.00,108.02              5290.00,108.02 5301.00,108.82 5301.00,108.82              5301.00,108.82 5339.00,105.00 5339.00,105.00              5339.00,105.00 5355.00,105.00 5355.00,105.00              5355.00,105.00 5382.00,103.00 5382.00,103.00              5382.00,103.00 5436.00,102.00 5436.00,102.00              5436.00,102.00 5446.00,102.96 5446.00,102.96              5446.00,102.96 5463.00,102.96 5463.00,102.96              5463.00,102.96 5484.00,104.68 5484.00,104.68              5484.00,104.68 5506.00,102.10 5506.00,102.10              5506.00,102.10 5542.00,105.00 5542.00,105.00              5542.00,105.00 5566.00,105.00 5566.00,105.00              5566.00,105.00 5591.00,106.91 5591.00,106.91              5591.00,106.91 5609.00,103.04 5609.00,103.04              5609.00,103.04 5624.00,104.00 5624.00,104.00              5624.00,104.00 5641.00,105.00 5641.00,105.00              5641.00,105.00 5657.00,105.00 5657.00,105.00              5657.00,105.00 5694.00,99.33 5694.00,99.33              5694.00,99.33 5707.00,101.71 5707.00,101.71              5707.00,101.71 5727.00,103.00 5727.00,103.00              5727.00,103.00 5745.00,101.63 5745.00,101.63              5750.15,102.04 5756.65,105.18 5763.00,104.90              5763.00,104.90 5778.00,102.43 5778.00,102.43              5778.00,102.43 5798.00,100.83 5798.00,100.83              5798.00,100.83 5811.00,99.08 5811.00,99.08              5816.85,99.11 5825.34,103.84 5839.00,104.00              5857.42,104.21 5857.68,98.21 5875.00,94.67              5875.00,94.67 5896.00,92.83 5896.00,92.83              5896.00,92.83 5926.00,90.00 5926.00,90.00              5926.00,90.00 5940.00,88.92 5940.00,88.92              5940.00,88.92 5950.00,88.92 5950.00,88.92              5950.00,88.92 5969.00,87.10 5969.00,87.10              5969.00,87.10 5999.00,91.83 5999.00,91.83              6006.36,92.54 6010.41,90.95 6014.00,91.22              6018.67,91.58 6021.43,93.81 6029.00,93.99              6029.00,93.99 6049.00,93.00 6049.00,93.00              6058.92,92.88 6060.98,89.75 6069.00,90.04              6075.51,90.28 6079.21,93.12 6085.00,93.99              6085.00,93.99 6096.00,93.99 6096.00,93.99              6096.00,93.99 6107.00,95.95 6107.00,95.95              6107.00,95.95 6129.00,95.95 6129.00,95.95              6129.00,95.95 6165.00,92.56 6165.00,92.56              6174.83,91.01 6175.19,89.02 6187.00,89.00              6187.00,89.00 6198.00,89.00 6198.00,89.00              6198.00,89.00 6232.00,86.00 6232.00,86.00              6232.00,86.00 6244.00,86.00 6244.00,86.00              6252.15,86.04 6252.56,87.19 6259.00,87.83              6259.00,87.83 6282.00,88.99 6282.00,88.99              6282.00,88.99 6311.00,86.13 6311.00,86.13              6316.84,86.35 6322.91,90.41 6330.00,89.81              6337.98,89.14 6339.59,85.13 6351.00,85.00              6362.54,84.87 6359.46,86.19 6369.00,88.34              6369.00,88.34 6391.00,91.91 6391.00,91.91              6391.00,91.91 6406.00,91.00 6406.00,91.00              6406.00,91.00 6423.00,91.00 6423.00,91.00              6423.00,91.00 6451.00,89.00 6451.00,89.00              6451.00,89.00 6466.00,89.00 6466.00,89.00              6479.02,88.98 6479.67,86.03 6486.00,85.66              6486.00,85.66 6496.00,85.66 6496.00,85.66              6496.00,85.66 6507.00,84.29 6507.00,84.29              6507.00,84.29 6529.00,83.00 6529.00,83.00              6536.84,83.08 6546.67,85.66 6554.00,84.71              6554.00,84.71 6570.00,81.30 6570.00,81.30              6570.00,81.30 6584.00,80.32 6584.00,80.32              6590.49,78.85 6593.65,76.04 6601.00,76.03              6601.00,76.03 6621.00,79.04 6621.00,79.04              6621.00,79.04 6631.00,79.04 6631.00,79.04              6631.00,79.04 6645.00,80.97 6645.00,80.97              6645.00,80.97 6653.00,80.18 6653.00,80.18              6660.95,79.62 6670.21,85.42 6682.00,84.96              6682.00,84.96 6694.00,84.04 6694.00,84.04              6698.17,84.20 6700.64,85.20 6705.00,84.83              6722.92,83.30 6730.54,76.04 6754.00,76.10              6757.36,75.99 6763.10,75.42 6766.00,76.10              6770.47,77.38 6775.31,81.40 6783.00,80.82              6786.85,80.53 6789.99,79.12 6794.00,79.55              6798.93,80.08 6802.30,82.15 6808.00,81.90              6808.00,81.90 6840.00,78.70 6840.00,78.70              6847.80,77.59 6849.99,75.81 6859.00,76.01              6859.00,76.01 6873.00,77.00 6873.00,77.00              6873.00,77.00 6904.00,78.00 6904.00,78.00              6904.00,78.00 6920.00,80.00 6920.00,80.00              6920.00,80.00 6930.00,80.00 6930.00,80.00              6930.00,80.00 6949.00,82.92 6949.00,82.92              6955.13,82.91 6957.90,80.67 6963.00,79.53              6966.33,78.78 6970.53,79.04 6974.00,79.00              6974.00,79.00 7007.00,74.33 7007.00,74.33              7012.03,73.24 7015.78,71.23 7021.00,71.04              7030.31,70.70 7033.32,74.86 7045.00,75.00              7045.00,75.00 7062.00,74.04 7062.00,74.04              7062.00,74.04 7084.00,75.92 7084.00,75.92              7089.56,75.91 7093.71,73.52 7099.00,73.09              7099.00,73.09 7134.00,71.09 7134.00,71.09              7134.00,71.09 7150.00,72.00 7150.00,72.00              7150.00,72.00 7172.00,69.00 7172.00,69.00              7172.00,69.00 7181.00,69.00 7181.00,69.00              7181.00,69.00 7188.00,68.18 7188.00,68.18              7188.00,68.18 7197.00,68.90 7197.00,68.90              7197.00,68.90 7213.00,67.18 7213.00,67.18              7213.00,67.18 7224.00,67.84 7224.00,67.84              7224.00,67.84 7260.00,67.84 7260.00,67.84              7260.00,67.84 7270.00,67.84 7270.00,67.84              7270.00,67.84 7285.00,69.00 7285.00,69.00              7285.00,69.00 7303.00,68.00 7303.00,68.00              7303.00,68.00 7336.00,67.00 7336.00,67.00              7344.25,67.10 7347.59,69.23 7355.00,70.54              7355.00,70.54 7380.00,71.99 7380.00,71.99              7386.83,71.82 7390.56,69.86 7397.00,68.42              7404.59,66.73 7412.25,66.09 7420.00,66.00              7435.33,65.82 7438.46,61.26 7446.00,59.53              7449.43,58.74 7459.94,58.96 7464.00,59.00              7464.00,59.00 7478.00,60.00 7478.00,60.00              7478.00,60.00 7495.00,59.00 7495.00,59.00              7495.00,59.00 7513.00,57.08 7513.00,57.08              7513.00,57.08 7521.00,58.00 7521.00,58.00              7521.00,58.00 7533.00,58.00 7533.00,58.00              7533.00,58.00 7543.00,59.00 7543.00,59.00              7543.00,59.00 7585.00,54.09 7585.00,54.09              7585.00,54.09 7595.00,55.00 7595.00,55.00              7595.00,55.00 7618.00,55.00 7618.00,55.00              7625.94,55.10 7632.36,57.44 7640.00,59.00              7650.26,61.09 7669.84,64.11 7680.00,64.00              7680.00,64.00 7695.00,62.71 7695.00,62.71              7695.00,62.71 7703.00,61.38 7703.00,61.38              7703.00,61.38 7716.00,61.91 7716.00,61.91              7716.00,61.91 7727.00,60.29 7727.00,60.29              7727.00,60.29 7747.00,59.00 7747.00,59.00              7747.00,59.00 7779.00,61.92 7779.00,61.92              7779.00,61.92 7790.00,61.00 7790.00,61.00              7790.00,61.00 7813.00,61.00 7813.00,61.00              7822.93,60.98 7820.99,59.92 7828.00,59.09              7828.00,59.09 7843.00,59.09 7843.00,59.09              7843.00,59.09 7864.00,57.04 7864.00,57.04              7864.00,57.04 7881.00,58.81 7881.00,58.81              7891.01,57.97 7890.22,53.02 7905.00,53.00              7905.00,53.00 7924.00,53.00 7924.00,53.00              7924.00,53.00 7936.00,52.21 7936.00,52.21              7936.00,52.21 7948.00,53.96 7948.00,53.96              7948.00,53.96 7960.00,53.96 7960.00,53.96              7960.00,53.96 7972.00,55.00 7972.00,55.00              7972.00,55.00 7992.00,55.71 7992.00,55.71              8000.04,54.67 8009.31,49.55 8015.78,54.70              8020.13,58.16 8019.93,64.75 8023.35,71.00              8025.45,74.85 8028.33,77.80 8029.87,82.00              8029.87,82.00 8032.08,96.00 8032.08,96.00              8033.51,104.49 8034.99,109.07 8035.00,118.00              8035.00,118.00 8035.00,132.00 8035.00,132.00              8035.00,132.00 8034.01,147.00 8034.01,147.00              8034.01,147.00 8035.00,162.00 8035.00,162.00              8035.00,162.00 8034.09,177.00 8034.09,177.00              8034.09,177.00 8034.99,189.00 8034.99,189.00              8034.99,189.00 8034.17,201.00 8034.17,201.00              8034.90,209.20 8036.98,209.89 8037.00,221.00              8037.00,221.00 8037.00,239.00 8037.00,239.00              8037.00,239.00 8039.00,266.00 8039.00,266.00              8039.00,266.00 8039.00,284.00 8039.00,284.00              8039.00,284.00 8038.04,300.00 8038.04,300.00              8038.04,300.00 8038.04,313.00 8038.04,313.00              8038.35,316.87 8039.15,318.71 8038.91,323.00              8038.91,323.00 8038.01,332.00 8038.01,332.00              8037.82,340.52 8039.15,341.17 8039.83,348.00              8039.83,348.00 8040.92,373.00 8040.92,373.00              8040.92,373.00 8040.00,386.00 8040.00,386.00              8040.00,386.00 8041.09,425.00 8041.09,425.00              8041.09,425.00 8042.96,450.00 8042.96,450.00              8042.96,450.00 8042.04,462.00 8042.04,462.00              8042.04,462.00 8042.92,471.00 8042.92,471.00              8042.92,471.00 8042.04,479.00 8042.04,479.00              8042.04,479.00 8042.04,496.00 8042.04,496.00              8042.04,496.00 8043.00,520.00 8043.00,520.00              8043.00,520.00 8042.08,533.00 8042.08,533.00              8042.08,533.00 8043.90,546.00 8043.90,546.00              8043.90,546.00 8043.10,557.00 8043.10,557.00              8043.10,557.00 8044.96,580.00 8044.96,580.00              8044.96,580.00 8044.96,592.00 8044.96,592.00              8044.96,592.00 8044.04,603.00 8044.04,603.00              8044.04,603.00 8045.00,616.00 8045.00,616.00              8045.00,616.00 8045.00,628.00 8045.00,628.00              8045.00,628.00 8044.09,641.00 8044.09,641.00              8044.09,641.00 8045.43,653.00 8045.43,653.00              8045.43,653.00 8044.17,663.00 8044.17,663.00              8044.17,663.00 8044.92,674.00 8044.92,674.00              8044.92,674.00 8044.10,684.00 8044.10,684.00              8044.10,684.00 8047.73,704.00 8047.73,704.00              8047.47,709.04 8043.80,714.56 8043.18,721.00              8042.53,727.63 8045.65,732.60 8045.96,739.00              8045.96,739.00 8044.18,763.00 8044.18,763.00              8044.20,768.25 8046.87,773.13 8047.84,778.00              8047.84,778.00 8047.84,792.00 8047.84,792.00              8047.84,792.00 8049.24,808.00 8049.24,808.00              8048.98,812.34 8047.80,815.29 8048.09,820.00              8048.09,820.00 8049.92,830.00 8049.92,830.00              8049.92,830.00 8049.92,839.00 8049.92,839.00              8049.92,839.00 8050.99,851.00 8050.99,851.00              8050.99,851.00 8050.18,866.00 8050.18,866.00              8050.18,866.00 8051.54,880.00 8051.54,880.00              8051.54,880.00 8050.09,889.00 8050.09,889.00              8050.09,889.00 8050.09,899.00 8050.09,899.00              8050.09,899.00 8051.00,913.00 8051.00,913.00              8051.00,913.00 8053.00,951.00 8053.00,951.00              8053.00,951.00 8054.04,968.00 8054.04,968.00              8054.04,968.00 8054.04,980.00 8054.04,980.00              8054.43,985.03 8055.36,987.31 8054.91,993.00              8054.91,993.00 8051.14,1012.00 8051.14,1012.00              8051.14,1012.00 8051.14,1034.00 8051.14,1034.00              8051.14,1034.00 8052.91,1049.00 8052.91,1049.00              8052.91,1049.00 8052.10,1062.00 8052.10,1062.00              8052.10,1062.00 8054.00,1077.00 8054.00,1077.00              8054.00,1077.00 8054.00,1103.00 8054.00,1103.00              8054.00,1103.00 8053.04,1116.00 8053.04,1116.00              8053.04,1116.00 8056.91,1145.00 8056.91,1145.00              8056.91,1145.00 8056.04,1155.00 8056.04,1155.00              8056.04,1155.00 8057.91,1169.00 8057.91,1169.00              8057.91,1169.00 8057.91,1181.00 8057.91,1181.00              8057.89,1190.40 8052.15,1204.36 8052.18,1220.00              8052.18,1220.00 8054.06,1231.00 8054.06,1231.00              8054.06,1231.00 8054.06,1240.00 8054.06,1240.00              8055.94,1252.67 8058.15,1265.16 8058.00,1278.00              8058.00,1278.00 8057.00,1293.00 8057.00,1293.00              8057.00,1293.00 8057.00,1360.00 8057.00,1360.00              8057.00,1360.00 8060.82,1395.00 8060.82,1395.00              8061.38,1402.89 8056.03,1414.78 8056.03,1424.00              8056.03,1436.45 8061.98,1435.41 8062.00,1451.00              8062.00,1451.00 8062.00,1474.00 8062.00,1474.00              8061.88,1483.59 8058.82,1486.23 8059.02,1496.00              8059.18,1504.12 8061.67,1506.79 8063.52,1514.00              8065.13,1520.24 8065.07,1523.69 8065.00,1530.00              8065.00,1530.00 8064.10,1542.00 8064.10,1542.00              8064.10,1542.00 8065.29,1555.00 8065.29,1555.00              8065.29,1555.00 8065.29,1565.00 8065.29,1565.00              8065.29,1565.00 8066.97,1585.00 8066.97,1585.00              8066.97,1585.00 8065.04,1608.00 8065.04,1608.00              8065.04,1608.00 8065.91,1623.00 8065.91,1623.00              8065.91,1623.00 8064.18,1638.00 8064.18,1638.00              8064.18,1638.00 8066.91,1653.00 8066.91,1653.00              8066.91,1653.00 8065.34,1673.00 8065.34,1673.00              8065.34,1673.00 8068.00,1694.00 8068.00,1694.00              8068.00,1694.00 8068.62,1719.00 8068.62,1719.00              8068.62,1719.00 8066.18,1732.00 8066.18,1732.00              8066.18,1732.00 8067.10,1746.00 8067.10,1746.00              8067.10,1746.00 8067.10,1760.00 8067.10,1760.00              8067.10,1760.00 8066.04,1771.00 8066.04,1771.00              8066.04,1771.00 8068.00,1802.00 8068.00,1802.00              8068.00,1802.00 8069.00,1819.00 8069.00,1819.00              8069.00,1819.00 8066.09,1850.00 8066.09,1850.00              8066.09,1850.00 8067.44,1864.00 8067.44,1864.00              8067.44,1864.00 8069.91,1878.00 8069.91,1878.00              8069.91,1878.00 8069.00,1894.00 8069.00,1894.00              8069.00,1894.00 8069.00,1911.00 8069.00,1911.00              8069.00,1911.00 8072.00,1945.00 8072.00,1945.00              8072.00,1945.00 8071.09,1959.00 8071.09,1959.00              8071.09,1959.00 8072.96,1983.00 8072.96,1983.00              8072.96,1983.00 8071.00,2001.00 8071.00,2001.00              8071.00,2001.00 8071.68,2013.00 8071.68,2013.00              8071.68,2013.00 8071.00,2027.00 8071.00,2027.00              8071.00,2027.00 8071.96,2042.00 8071.96,2042.00              8071.96,2042.00 8070.18,2057.00 8070.18,2057.00              8070.18,2057.00 8071.00,2064.00 8071.00,2064.00              8071.00,2064.00 8071.00,2076.00 8071.00,2076.00              8071.00,2076.00 8072.00,2086.00 8072.00,2086.00              8072.00,2086.00 8071.00,2112.00 8071.00,2112.00              8071.00,2112.00 8068.01,2143.00 8068.01,2143.00              8068.01,2143.00 8069.44,2163.00 8069.44,2163.00              8070.17,2167.67 8072.02,2174.46 8071.68,2179.00              8071.44,2182.11 8070.88,2183.51 8071.09,2187.00              8071.09,2187.00 8075.91,2208.00 8075.91,2208.00              8075.91,2208.00 8074.01,2228.00 8074.01,2228.00              8074.01,2228.00 8076.00,2249.00 8076.00,2249.00              8076.00,2249.00 8077.09,2275.00 8077.09,2275.00              8077.09,2275.00 8078.00,2286.00 8078.00,2286.00              8078.00,2286.00 8078.00,2300.00 8078.00,2300.00              8078.00,2300.00 8079.96,2322.00 8079.96,2322.00              8079.96,2322.00 8079.09,2340.00 8079.09,2340.00              8079.09,2340.00 8080.74,2362.00 8080.74,2362.00              8080.74,2362.00 8076.26,2395.00 8076.26,2395.00              8076.43,2399.44 8079.32,2406.22 8080.33,2411.00              8080.33,2411.00 8082.00,2433.00 8082.00,2433.00              8082.00,2433.00 8082.00,2482.00 8082.00,2482.00              8082.00,2482.00 8081.18,2494.00 8081.18,2494.00              8081.18,2494.00 8084.49,2521.00 8084.49,2521.00              8084.49,2521.00 8083.03,2540.00 8083.03,2540.00              8083.03,2540.00 8084.00,2554.00 8084.00,2554.00              8084.00,2554.00 8085.00,2596.00 8085.00,2596.00              8085.00,2596.00 8085.97,2610.00 8085.97,2610.00              8085.97,2610.00 8085.09,2623.00 8085.09,2623.00              8085.09,2623.00 8086.91,2642.00 8086.91,2642.00              8086.91,2642.00 8086.04,2653.00 8086.04,2653.00              8086.25,2658.40 8087.38,2660.21 8086.91,2667.00              8086.91,2667.00 8085.08,2680.00 8085.08,2680.00              8085.09,2686.75 8088.32,2690.83 8087.96,2700.00              8087.96,2700.00 8085.18,2734.00 8085.18,2734.00              8085.18,2734.00 8086.26,2746.00 8086.26,2746.00              8086.26,2746.00 8086.89,2763.00 8086.89,2763.00              8086.89,2763.00 8086.89,2783.00 8086.89,2783.00              8086.89,2783.00 8086.89,2804.00 8086.89,2804.00              8086.89,2804.00 8088.00,2819.00 8088.00,2819.00              8088.00,2819.00 8089.09,2843.00 8089.09,2843.00              8089.09,2843.00 8089.82,2850.00 8089.82,2850.00              8089.82,2850.00 8087.43,2865.00 8087.43,2865.00              8087.43,2865.00 8085.18,2889.00 8085.18,2889.00              8085.76,2896.66 8088.90,2902.14 8089.00,2911.00              8089.00,2911.00 8087.00,2935.00 8087.00,2935.00              8087.00,2935.00 8090.00,2972.00 8090.00,2972.00              8090.00,2972.00 8090.00,2990.00 8090.00,2990.00              8090.00,2990.00 8090.96,3002.00 8090.96,3002.00              8090.96,3002.00 8090.96,3019.00 8090.96,3019.00              8090.96,3019.00 8091.91,3034.00 8091.91,3034.00              8091.91,3034.00 8091.02,3045.00 8091.02,3045.00              8091.02,3045.00 8092.00,3054.00 8092.00,3054.00              8092.00,3054.00 8092.00,3064.00 8092.00,3064.00              8092.00,3064.00 8093.00,3076.00 8093.00,3076.00              8093.00,3076.00 8093.00,3100.00 8093.00,3100.00              8093.00,3100.00 8094.00,3117.00 8094.00,3117.00              8094.00,3117.00 8094.00,3139.00 8094.00,3139.00              8094.00,3139.00 8093.05,3151.00 8093.05,3151.00              8093.05,3151.00 8093.05,3168.00 8093.05,3168.00              8093.05,3168.00 8094.00,3183.00 8094.00,3183.00              8094.00,3183.00 8093.04,3196.00 8093.04,3196.00              8093.04,3196.00 8094.00,3209.00 8094.00,3209.00              8094.00,3209.00 8092.00,3233.00 8092.00,3233.00              8092.00,3233.00 8093.00,3266.00 8093.00,3266.00              8093.11,3274.74 8094.96,3276.68 8096.06,3284.00              8096.06,3284.00 8096.96,3307.00 8096.96,3307.00              8096.69,3313.74 8095.02,3313.59 8095.04,3324.00              8095.04,3324.00 8095.04,3338.00 8095.04,3338.00              8095.04,3338.00 8096.00,3350.00 8096.00,3350.00              8096.00,3350.00 8096.00,3395.00 8096.00,3395.00              8096.00,3395.00 8095.10,3409.00 8095.10,3409.00              8095.10,3409.00 8097.24,3427.00 8097.24,3427.00              8097.24,3427.00 8097.24,3441.00 8097.24,3441.00              8097.24,3441.00 8096.01,3454.00 8096.01,3454.00              8096.01,3454.00 8097.00,3467.00 8097.00,3467.00              8097.00,3467.00 8097.00,3489.00 8097.00,3489.00              8097.00,3489.00 8095.04,3510.00 8095.04,3510.00              8095.04,3510.00 8097.96,3537.00 8097.96,3537.00              8097.96,3537.00 8097.09,3548.00 8097.09,3548.00              8097.09,3548.00 8098.00,3560.00 8098.00,3560.00              8098.00,3560.00 8096.18,3584.00 8096.18,3584.00              8096.18,3584.00 8097.08,3593.00 8097.08,3593.00              8097.08,3593.00 8097.08,3612.00 8097.08,3612.00              8097.76,3617.87 8099.22,3620.20 8098.96,3627.00              8098.96,3627.00 8098.09,3638.00 8098.09,3638.00              8098.09,3638.00 8100.99,3662.00 8100.99,3662.00              8100.99,3662.00 8100.08,3672.00 8100.08,3672.00              8100.08,3672.00 8101.00,3683.00 8101.00,3683.00              8101.00,3683.00 8101.00,3701.00 8101.00,3701.00              8101.00,3701.00 8101.96,3717.00 8101.96,3717.00              8101.96,3717.00 8101.08,3726.00 8101.08,3726.00              8101.08,3726.00 8101.91,3734.00 8101.91,3734.00              8101.91,3734.00 8103.09,3758.00 8103.09,3758.00              8103.09,3758.00 8105.54,3773.00 8105.54,3773.00              8105.54,3773.00 8104.17,3786.00 8104.17,3786.00              8104.17,3786.00 8103.00,3808.00 8103.00,3808.00              8103.00,3808.00 8101.00,3828.00 8101.00,3828.00              8101.00,3828.00 8104.00,3858.00 8104.00,3858.00              8104.00,3858.00 8103.00,3882.00 8103.00,3882.00              8103.00,3882.00 8104.96,3902.00 8104.96,3902.00              8104.96,3902.00 8104.96,3916.00 8104.96,3916.00              8104.96,3916.00 8104.10,3925.00 8104.10,3925.00              8104.10,3925.00 8106.00,3941.00 8106.00,3941.00              8106.00,3941.00 8107.09,3966.00 8107.09,3966.00              8107.09,3966.00 8107.98,3975.00 8107.98,3975.00              8108.08,3979.89 8107.58,3980.70 8107.04,3985.00              8107.04,3985.00 8107.04,3995.00 8107.04,3995.00              8107.04,3995.00 8106.04,4003.00 8106.04,4003.00              8106.04,4003.00 8106.96,4015.00 8106.96,4015.00              8106.96,4015.00 8106.04,4026.00 8106.04,4026.00              8106.04,4026.00 8107.79,4051.00 8107.79,4051.00              8107.79,4051.00 8105.44,4063.00 8105.44,4063.00              8105.44,4063.00 8104.83,4075.00 8104.83,4075.00              8104.11,4082.40 8102.81,4084.52 8103.01,4093.00              8103.01,4093.00 8104.47,4106.00 8104.47,4106.00              8104.69,4111.11 8103.46,4113.09 8104.47,4120.00              8104.47,4120.00 8106.96,4144.00 8106.96,4144.00              8106.96,4144.00 8106.00,4162.00 8106.00,4162.00              8105.91,4169.56 8104.18,4173.18 8103.29,4180.00              8103.29,4180.00 8101.70,4199.00 8101.70,4199.00              8100.76,4205.49 8099.09,4207.41 8098.96,4215.00              8098.93,4221.51 8097.44,4231.49 8098.96,4237.00              8100.00,4240.96 8101.58,4243.38 8103.13,4247.00              8105.14,4251.71 8109.70,4266.20 8109.66,4271.00              8109.60,4277.80 8104.87,4282.57 8103.47,4290.00              8103.47,4290.00 8101.83,4312.00 8101.83,4312.00              8101.83,4312.00 8100.08,4325.00 8100.08,4325.00              8100.08,4325.00 8100.91,4333.00 8100.91,4333.00              8101.27,4339.39 8099.00,4343.02 8097.66,4349.00              8097.66,4349.00 8093.16,4371.00 8093.16,4371.00              8093.16,4371.00 8085.91,4383.00 8085.91,4383.00              8085.91,4383.00 8082.54,4392.00 8082.54,4392.00              8080.49,4396.85 8073.77,4407.09 8069.91,4410.54              8069.91,4410.54 8052.00,4425.28 8052.00,4425.28              8048.10,4427.78 8045.04,4427.16 8039.00,4430.32              8024.90,4437.72 8019.07,4446.81 8016.00,4462.00 Z            M 789.00,171.51            C 784.37,171.89 777.60,173.07 774.74,177.13              772.50,180.31 773.30,183.53 774.13,187.00              776.40,196.53 780.30,201.70 791.00,200.90              800.52,200.19 809.67,189.48 797.91,177.02              794.83,173.76 793.40,172.32 789.00,171.51 Z            M 7134.02,3391.57            C 7132.30,3392.15 7131.90,3392.02 7130.41,3393.43              7128.83,3394.92 7121.89,3405.10 7121.52,3407.00              7120.81,3410.72 7124.08,3419.92 7127.22,3422.07              7129.85,3423.87 7134.87,3424.14 7138.00,3423.96              7144.17,3423.60 7153.80,3415.60 7153.52,3409.00              7153.26,3403.12 7144.46,3393.47 7139.00,3391.57              7136.84,3391.00 7136.13,3391.24 7134.02,3391.57 Z"
            style="fill:#000000;fill-opacity:1"/>
</svg>
