<?xml version="1.0" encoding="UTF-8" standalone="no"?>
<svg
        width="176.763mm"
        height="117.666mm"
        viewBox="0 0 8351 5559"
        version="1.1"
        id="svg832"
        sodipodi:docname="sheet8a.svg"
        inkscape:version="1.1.1 (3bf5ae0d25, 2021-09-20)"
        xmlns:inkscape="http://www.inkscape.org/namespaces/inkscape"
        xmlns:sodipodi="http://sodipodi.sourceforge.net/DTD/sodipodi-0.dtd"
        xmlns="http://www.w3.org/2000/svg"
>
    <defs
            id="defs836"/>
    <sodipodi:namedview
            id="namedview834"
            pagecolor="#ffffff"
            bordercolor="#666666"
            borderopacity="1.0"
            inkscape:pageshadow="2"
            inkscape:pageopacity="0.0"
            inkscape:pagecheckerboard="0"
            inkscape:document-units="mm"
            showgrid="false"
            inkscape:zoom="1.7831369"
            inkscape:cx="333.96203"
            inkscape:cy="222.36095"
            inkscape:window-width="1920"
            inkscape:window-height="1001"
            inkscape:window-x="-7"
            inkscape:window-y="-7"
            inkscape:window-maximized="1"
            inkscape:current-layer="svg832"/>
    <path
            id="Selection"
            fill="none"
            stroke="black"
            stroke-width="1"
            d="M 1441.00,52.00            C 1449.27,54.35 1455.56,63.38 1469.00,63.96              1488.02,64.79 1502.84,51.03 1522.00,51.08              1522.00,51.08 1556.00,51.08 1556.00,51.08              1556.00,51.08 1569.00,53.06 1569.00,53.06              1569.00,53.06 1577.00,53.06 1577.00,53.06              1583.31,54.11 1583.66,54.96 1591.00,55.00              1591.00,55.00 1598.00,55.00 1598.00,55.00              1598.00,55.00 1652.00,62.92 1652.00,62.92              1652.00,62.92 1662.00,62.92 1662.00,62.92              1669.75,63.58 1668.35,64.98 1679.00,65.00              1692.99,65.02 1688.99,66.11 1700.00,67.70              1700.00,67.70 1708.00,68.44 1708.00,68.44              1708.00,68.44 1719.00,70.70 1719.00,70.70              1719.00,70.70 1727.00,71.51 1727.00,71.51              1738.74,73.92 1758.38,80.87 1769.00,81.00              1769.00,81.00 1778.00,81.00 1778.00,81.00              1790.19,80.94 1787.64,78.02 1800.00,78.00              1800.00,78.00 1840.00,78.00 1840.00,78.00              1840.00,78.00 1852.00,77.04 1852.00,77.04              1852.00,77.04 1869.00,77.04 1869.00,77.04              1883.08,76.98 1891.09,74.28 1904.00,72.43              1904.00,72.43 1928.00,70.92 1928.00,70.92              1928.00,70.92 1940.00,70.92 1940.00,70.92              1940.00,70.92 1951.00,69.64 1951.00,69.64              1951.00,69.64 1959.00,69.64 1959.00,69.64              1959.00,69.64 1967.00,69.64 1967.00,69.64              1971.05,69.68 1972.22,70.99 1981.00,71.00              1981.00,71.00 1995.00,71.00 1995.00,71.00              1995.00,71.00 2010.00,72.00 2010.00,72.00              2010.00,72.00 2035.00,71.18 2035.00,71.18              2035.00,71.18 2045.00,71.98 2045.00,71.98              2045.00,71.98 2063.00,71.98 2063.00,71.98              2063.00,71.98 2088.00,73.91 2088.00,73.91              2088.00,73.91 2102.00,71.30 2102.00,71.30              2102.00,71.30 2115.00,70.32 2115.00,70.32              2121.37,68.85 2123.32,65.98 2127.00,65.79              2127.00,65.79 2136.00,67.70 2136.00,67.70              2136.00,67.70 2154.00,69.53 2154.00,69.53              2154.00,69.53 2172.00,75.27 2172.00,75.27              2172.00,75.27 2185.00,82.60 2185.00,82.60              2185.00,82.60 2202.00,89.03 2202.00,89.03              2210.07,92.71 2218.05,96.65 2227.00,97.84              2233.52,98.71 2240.46,99.68 2247.00,98.54              2247.00,98.54 2254.00,97.26 2254.00,97.26              2254.00,97.26 2267.00,98.93 2267.00,98.93              2267.00,98.93 2281.00,98.93 2281.00,98.93              2293.75,99.40 2300.32,95.69 2310.00,94.15              2310.00,94.15 2320.00,94.15 2320.00,94.15              2320.00,94.15 2333.00,95.00 2333.00,95.00              2333.00,95.00 2349.00,95.00 2349.00,95.00              2357.76,95.01 2358.69,96.12 2366.00,96.91              2366.00,96.91 2386.00,96.91 2386.00,96.91              2386.00,96.91 2403.00,95.04 2403.00,95.04              2403.00,95.04 2413.00,95.04 2413.00,95.04              2413.00,95.04 2424.00,94.00 2424.00,94.00              2424.00,94.00 2457.00,91.00 2457.00,91.00              2457.00,91.00 2495.00,97.00 2495.00,97.00              2495.00,97.00 2508.00,97.00 2508.00,97.00              2508.00,97.00 2523.00,98.00 2523.00,98.00              2523.00,98.00 2538.00,98.00 2538.00,98.00              2538.00,98.00 2550.00,98.91 2550.00,98.91              2550.00,98.91 2573.00,100.09 2573.00,100.09              2573.00,100.09 2590.00,101.00 2590.00,101.00              2590.00,101.00 2600.00,100.47 2600.00,100.47              2600.00,100.47 2609.00,101.95 2609.00,101.95              2609.00,101.95 2627.00,101.95 2627.00,101.95              2627.00,101.95 2647.00,101.00 2647.00,101.00              2647.00,101.00 2678.00,103.00 2678.00,103.00              2678.00,103.00 2692.00,102.00 2692.00,102.00              2692.00,102.00 2723.00,102.00 2723.00,102.00              2723.00,102.00 2738.00,102.96 2738.00,102.96              2738.00,102.96 2753.00,102.96 2753.00,102.96              2753.00,102.96 2760.00,102.18 2760.00,102.18              2760.00,102.18 2772.00,103.00 2772.00,103.00              2772.00,103.00 2825.00,103.00 2825.00,103.00              2825.00,103.00 2837.00,103.97 2837.00,103.97              2837.00,103.97 2848.00,103.03 2848.00,103.03              2848.00,103.03 2861.00,103.91 2861.00,103.91              2861.00,103.91 2866.00,103.91 2866.00,103.91              2866.00,103.91 2874.00,103.91 2874.00,103.91              2874.00,103.91 2881.00,104.83 2881.00,104.83              2881.00,104.83 2905.00,106.00 2905.00,106.00              2905.00,106.00 2923.00,103.86 2923.00,103.86              2923.00,103.86 2933.00,103.86 2933.00,103.86              2933.00,103.86 2952.00,103.86 2952.00,103.86              2952.00,103.86 2962.00,103.09 2962.00,103.09              2962.00,103.09 2976.00,102.32 2976.00,102.32              2976.00,102.32 2994.00,104.00 2994.00,104.00              2994.00,104.00 3026.00,104.00 3026.00,104.00              3026.00,104.00 3043.00,105.00 3043.00,105.00              3043.00,105.00 3075.00,105.00 3075.00,105.00              3075.00,105.00 3086.00,104.34 3086.00,104.34              3086.00,104.34 3095.00,105.00 3095.00,105.00              3095.00,105.00 3149.00,105.00 3149.00,105.00              3149.00,105.00 3177.00,103.00 3177.00,103.00              3177.00,103.00 3191.00,103.00 3191.00,103.00              3191.00,103.00 3205.00,104.00 3205.00,104.00              3205.00,104.00 3236.00,104.00 3236.00,104.00              3236.00,104.00 3268.00,102.00 3268.00,102.00              3268.00,102.00 3279.00,100.84 3279.00,100.84              3279.00,100.84 3292.00,102.00 3292.00,102.00              3302.96,102.12 3300.54,100.97 3308.00,100.04              3308.00,100.04 3316.00,100.04 3316.00,100.04              3316.00,100.04 3336.00,99.00 3336.00,99.00              3336.00,99.00 3377.00,105.00 3377.00,105.00              3377.00,105.00 3406.00,104.00 3406.00,104.00              3415.73,103.88 3429.01,99.23 3434.00,98.84              3434.00,98.84 3475.00,98.84 3475.00,98.84              3475.00,98.84 3503.00,101.91 3503.00,101.91              3503.00,101.91 3523.00,101.00 3523.00,101.00              3523.00,101.00 3534.00,101.96 3534.00,101.96              3534.00,101.96 3551.00,101.00 3551.00,101.00              3551.00,101.00 3561.00,101.96 3561.00,101.96              3561.00,101.96 3577.00,101.96 3577.00,101.96              3577.00,101.96 3589.00,102.96 3589.00,102.96              3589.00,102.96 3604.00,102.96 3604.00,102.96              3604.00,102.96 3621.00,104.00 3621.00,104.00              3621.00,104.00 3633.00,103.18 3633.00,103.18              3633.00,103.18 3647.00,104.29 3647.00,104.29              3653.56,105.09 3655.80,106.15 3663.00,105.99              3663.00,105.99 3680.00,104.00 3680.00,104.00              3680.00,104.00 3698.00,102.90 3698.00,102.90              3698.00,102.90 3716.00,102.90 3716.00,102.90              3716.00,102.90 3726.00,102.90 3726.00,102.90              3726.00,102.90 3741.00,102.90 3741.00,102.90              3741.00,102.90 3753.00,104.04 3753.00,104.04              3753.00,104.04 3767.00,104.04 3767.00,104.04              3767.00,104.04 3779.00,104.86 3779.00,104.86              3779.00,104.86 3802.00,104.86 3802.00,104.86              3802.00,104.86 3811.00,104.86 3811.00,104.86              3811.00,104.86 3825.00,105.95 3825.00,105.95              3825.00,105.95 3840.00,105.95 3840.00,105.95              3840.00,105.95 3854.00,104.21 3854.00,104.21              3854.00,104.21 3863.00,104.98 3863.00,104.98              3863.00,104.98 3874.00,104.98 3874.00,104.98              3874.00,104.98 3884.00,105.96 3884.00,105.96              3884.00,105.96 3896.00,105.96 3896.00,105.96              3896.00,105.96 3913.00,105.00 3913.00,105.00              3913.00,105.00 3939.00,104.00 3939.00,104.00              3939.00,104.00 3955.00,103.00 3955.00,103.00              3955.00,103.00 4017.00,103.00 4017.00,103.00              4017.00,103.00 4026.00,102.34 4026.00,102.34              4026.00,102.34 4035.00,103.00 4035.00,103.00              4035.00,103.00 4058.00,104.00 4058.00,104.00              4063.67,104.07 4063.93,104.64 4069.00,105.54              4069.00,105.54 4077.00,106.63 4077.00,106.63              4077.00,106.63 4095.00,113.07 4095.00,113.07              4100.08,114.44 4102.53,113.65 4106.00,114.39              4110.63,115.37 4113.55,118.34 4123.00,117.96              4127.74,117.77 4139.42,114.32 4144.00,112.54              4144.00,112.54 4151.00,109.63 4151.00,109.63              4155.02,108.50 4173.19,106.95 4178.00,107.00              4178.00,107.00 4188.00,107.96 4188.00,107.96              4188.00,107.96 4200.00,107.96 4200.00,107.96              4211.17,107.95 4211.71,105.02 4224.00,105.00              4224.00,105.00 4288.00,105.00 4288.00,105.00              4288.00,105.00 4303.00,105.99 4303.00,105.99              4303.00,105.99 4325.00,104.00 4325.00,104.00              4325.00,104.00 4353.00,104.00 4353.00,104.00              4364.22,103.98 4364.77,102.05 4373.00,101.17              4383.66,100.03 4396.28,99.35 4407.00,99.96              4407.00,99.96 4420.00,99.96 4420.00,99.96              4420.00,99.96 4439.00,102.00 4439.00,102.00              4439.00,102.00 4461.00,102.00 4461.00,102.00              4461.00,102.00 4479.00,103.91 4479.00,103.91              4479.00,103.91 4496.00,103.91 4496.00,103.91              4496.00,103.91 4524.00,102.00 4524.00,102.00              4524.00,102.00 4543.00,102.00 4543.00,102.00              4543.00,102.00 4556.00,101.01 4556.00,101.01              4556.00,101.01 4566.00,102.00 4566.00,102.00              4566.00,102.00 4578.00,102.00 4578.00,102.00              4578.00,102.00 4590.00,102.96 4590.00,102.96              4590.00,102.96 4600.00,102.96 4600.00,102.96              4600.00,102.96 4607.00,102.18 4607.00,102.18              4607.00,102.18 4615.00,102.98 4615.00,102.98              4615.00,102.98 4633.00,102.98 4633.00,102.98              4633.00,102.98 4658.00,101.00 4658.00,101.00              4658.00,101.00 4672.00,101.00 4672.00,101.00              4672.00,101.00 4682.00,102.00 4682.00,102.00              4682.00,102.00 4691.00,102.00 4691.00,102.00              4691.00,102.00 4706.00,103.00 4706.00,103.00              4706.00,103.00 4719.00,102.01 4719.00,102.01              4719.00,102.01 4734.00,103.00 4734.00,103.00              4734.00,103.00 4767.00,103.00 4767.00,103.00              4767.00,103.00 4780.00,102.10 4780.00,102.10              4785.77,102.38 4785.72,103.98 4796.00,104.00              4796.00,104.00 4819.00,105.00 4819.00,105.00              4819.00,105.00 4846.00,103.09 4846.00,103.09              4846.00,103.09 4863.00,104.00 4863.00,104.00              4863.00,104.00 4878.00,102.34 4878.00,102.34              4878.00,102.34 4889.00,103.08 4889.00,103.08              4889.00,103.08 4907.00,103.08 4907.00,103.08              4914.10,103.88 4914.04,104.99 4923.00,105.00              4923.00,105.00 4942.00,105.00 4942.00,105.00              4950.76,104.99 4951.69,103.88 4959.00,103.08              4959.00,103.08 4978.00,103.08 4978.00,103.08              4978.00,103.08 4989.00,102.32 4989.00,102.32              4989.00,102.32 5039.00,103.00 5039.00,103.00              5054.68,103.02 5050.31,107.26 5073.00,107.00              5080.38,106.91 5080.35,105.80 5086.00,105.08              5097.71,103.86 5098.70,105.12 5109.00,105.08              5109.00,105.08 5121.00,104.18 5121.00,104.18              5121.00,104.18 5130.00,105.71 5130.00,105.71              5136.23,106.53 5142.72,107.07 5149.00,107.00              5149.00,107.00 5162.00,105.96 5162.00,105.96              5162.00,105.96 5175.00,105.96 5175.00,105.96              5175.00,105.96 5188.00,105.00 5188.00,105.00              5188.00,105.00 5203.00,105.96 5203.00,105.96              5203.00,105.96 5224.00,104.00 5224.00,104.00              5224.00,104.00 5308.00,104.00 5308.00,104.00              5308.00,104.00 5336.00,105.00 5336.00,105.00              5336.00,105.00 5350.00,104.00 5350.00,104.00              5350.00,104.00 5366.00,104.00 5366.00,104.00              5366.00,104.00 5391.00,101.04 5391.00,101.04              5391.00,101.04 5403.00,101.96 5403.00,101.96              5403.00,101.96 5412.00,101.32 5412.00,101.32              5412.00,101.32 5441.00,102.00 5441.00,102.00              5441.00,102.00 5470.00,103.85 5470.00,103.85              5470.00,103.85 5482.00,103.85 5482.00,103.85              5482.00,103.85 5490.00,102.19 5490.00,102.19              5490.00,102.19 5504.00,102.96 5504.00,102.96              5504.00,102.96 5524.00,101.34 5524.00,101.34              5524.00,101.34 5531.00,101.98 5531.00,101.98              5531.00,101.98 5544.00,101.98 5544.00,101.98              5544.00,101.98 5558.00,101.00 5558.00,101.00              5558.00,101.00 5588.00,101.00 5588.00,101.00              5588.00,101.00 5600.00,100.18 5600.00,100.18              5600.00,100.18 5612.00,101.96 5612.00,101.96              5612.00,101.96 5631.00,101.00 5631.00,101.00              5631.00,101.00 5651.00,102.00 5651.00,102.00              5651.00,102.00 5691.00,102.00 5691.00,102.00              5691.00,102.00 5702.00,101.32 5702.00,101.32              5702.00,101.32 5710.00,101.96 5710.00,101.96              5710.00,101.96 5720.00,101.19 5720.00,101.19              5726.05,101.69 5724.67,102.98 5735.00,103.00              5735.00,103.00 5753.00,102.32 5753.00,102.32              5753.00,102.32 5804.00,103.00 5804.00,103.00              5804.00,103.00 5816.00,102.03 5816.00,102.03              5816.00,102.03 5829.00,103.00 5829.00,103.00              5829.00,103.00 5845.00,102.00 5845.00,102.00              5845.00,102.00 5882.00,102.00 5882.00,102.00              5882.00,102.00 5895.00,101.08 5895.00,101.08              5895.00,101.08 5907.00,102.00 5907.00,102.00              5907.00,102.00 5911.00,102.00 5911.00,102.00              5911.00,102.00 5921.00,101.26 5921.00,101.26              5925.53,101.44 5926.18,102.98 5936.00,103.00              5936.00,103.00 5958.00,102.00 5958.00,102.00              5958.00,102.00 5981.00,99.10 5981.00,99.10              5981.00,99.10 6010.00,100.91 6010.00,100.91              6010.00,100.91 6020.00,100.91 6020.00,100.91              6020.00,100.91 6028.00,99.39 6028.00,99.39              6028.00,99.39 6039.00,99.96 6039.00,99.96              6039.00,99.96 6053.00,98.04 6053.00,98.04              6053.00,98.04 6073.00,100.72 6073.00,100.72              6073.00,100.72 6098.00,101.88 6098.00,101.88              6098.00,101.88 6128.00,101.88 6128.00,101.88              6128.00,101.88 6138.00,101.88 6138.00,101.88              6138.00,101.88 6166.00,101.88 6166.00,101.88              6166.00,101.88 6183.00,101.00 6183.00,101.00              6183.00,101.00 6200.00,101.00 6200.00,101.00              6200.00,101.00 6216.00,102.00 6216.00,102.00              6216.00,102.00 6273.00,102.00 6273.00,102.00              6273.00,102.00 6285.00,101.05 6285.00,101.05              6285.00,101.05 6300.00,101.05 6300.00,101.05              6300.00,101.05 6310.00,101.96 6310.00,101.96              6310.00,101.96 6320.00,101.96 6320.00,101.96              6320.00,101.96 6335.00,102.99 6335.00,102.99              6335.00,102.99 6344.00,102.04 6344.00,102.04              6344.00,102.04 6356.00,102.04 6356.00,102.04              6356.00,102.04 6374.00,100.34 6374.00,100.34              6374.00,100.34 6389.00,101.97 6389.00,101.97              6389.00,101.97 6399.00,101.04 6399.00,101.04              6399.00,101.04 6412.00,102.00 6412.00,102.00              6412.00,102.00 6427.00,101.05 6427.00,101.05              6427.00,101.05 6444.00,101.05 6444.00,101.05              6444.00,101.05 6455.00,101.96 6455.00,101.96              6455.00,101.96 6466.00,101.01 6466.00,101.01              6466.00,101.01 6476.00,101.96 6476.00,101.96              6476.00,101.96 6487.00,101.96 6487.00,101.96              6487.00,101.96 6501.00,101.10 6501.00,101.10              6501.00,101.10 6523.00,102.99 6523.00,102.99              6523.00,102.99 6547.00,100.19 6547.00,100.19              6552.12,100.29 6553.07,102.98 6565.00,103.09              6565.00,103.09 6577.00,103.09 6577.00,103.09              6584.01,103.92 6582.07,104.98 6592.00,105.00              6592.00,105.00 6640.00,105.00 6640.00,105.00              6640.00,105.00 6661.00,104.00 6661.00,104.00              6661.00,104.00 6681.00,102.00 6681.00,102.00              6681.00,102.00 6697.00,102.00 6697.00,102.00              6703.20,102.08 6705.38,103.02 6711.00,103.90              6711.00,103.90 6721.00,103.90 6721.00,103.90              6721.00,103.90 6740.00,106.00 6740.00,106.00              6740.00,106.00 6758.00,105.00 6758.00,105.00              6758.00,105.00 6804.00,105.00 6804.00,105.00              6804.00,105.00 6829.00,106.96 6829.00,106.96              6829.00,106.96 6844.00,106.32 6844.00,106.32              6844.00,106.32 6861.00,107.00 6861.00,107.00              6861.00,107.00 6873.00,107.96 6873.00,107.96              6873.00,107.96 6885.00,107.21 6885.00,107.21              6889.45,107.49 6890.57,108.91 6898.00,109.00              6898.00,109.00 6916.00,109.00 6916.00,109.00              6916.00,109.00 6930.00,108.00 6930.00,108.00              6930.00,108.00 6959.00,108.00 6959.00,108.00              6959.00,108.00 6974.00,107.09 6974.00,107.09              6974.00,107.09 6991.00,108.00 6991.00,108.00              6991.00,108.00 7004.00,109.04 7004.00,109.04              7004.00,109.04 7018.00,109.04 7018.00,109.04              7018.00,109.04 7030.00,110.00 7030.00,110.00              7030.00,110.00 7050.00,110.00 7050.00,110.00              7050.00,110.00 7060.00,109.34 7060.00,109.34              7060.00,109.34 7070.00,110.00 7070.00,110.00              7070.00,110.00 7139.00,110.00 7139.00,110.00              7139.00,110.00 7154.00,111.00 7154.00,111.00              7154.00,111.00 7175.00,111.00 7175.00,111.00              7175.00,111.00 7194.00,109.49 7194.00,109.49              7198.79,109.60 7199.48,111.98 7211.00,112.00              7211.00,112.00 7222.00,112.00 7222.00,112.00              7222.00,112.00 7234.00,112.98 7234.00,112.98              7234.00,112.98 7248.00,112.01 7248.00,112.01              7248.00,112.01 7263.00,113.00 7263.00,113.00              7263.00,113.00 7330.00,113.00 7330.00,113.00              7330.00,113.00 7344.00,114.00 7344.00,114.00              7344.00,114.00 7362.00,115.00 7362.00,115.00              7362.00,115.00 7386.00,115.00 7386.00,115.00              7386.00,115.00 7402.00,114.04 7402.00,114.04              7402.00,114.04 7410.00,114.96 7410.00,114.96              7410.00,114.96 7427.00,114.96 7427.00,114.96              7427.00,114.96 7443.00,114.04 7443.00,114.04              7443.00,114.04 7454.00,114.91 7454.00,114.91              7454.00,114.91 7461.00,114.04 7461.00,114.04              7461.00,114.04 7478.00,114.04 7478.00,114.04              7478.00,114.04 7495.00,115.00 7495.00,115.00              7495.00,115.00 7519.00,115.00 7519.00,115.00              7519.00,115.00 7536.00,116.00 7536.00,116.00              7536.00,116.00 7575.00,116.00 7575.00,116.00              7575.00,116.00 7586.00,115.32 7586.00,115.32              7586.00,115.32 7596.00,116.00 7596.00,116.00              7596.00,116.00 7618.00,116.00 7618.00,116.00              7618.00,116.00 7634.00,117.00 7634.00,117.00              7634.00,117.00 7660.00,117.00 7660.00,117.00              7660.00,117.00 7675.00,118.00 7675.00,118.00              7675.00,118.00 7691.00,118.00 7691.00,118.00              7692.79,129.66 7695.91,132.32 7700.77,142.00              7702.99,146.42 7702.60,149.16 7705.48,154.00              7708.63,159.28 7712.79,162.31 7716.48,167.00              7716.48,167.00 7722.32,175.00 7722.32,175.00              7722.32,175.00 7733.68,186.42 7733.68,186.42              7733.68,186.42 7749.04,202.83 7749.04,202.83              7762.88,215.20 7784.12,216.42 7794.52,199.00              7803.02,184.77 7797.60,165.02 7794.52,150.00              7793.46,144.85 7794.69,144.12 7792.49,137.00              7792.49,137.00 7786.00,119.88 7786.00,119.88              7786.00,119.88 7804.00,119.88 7804.00,119.88              7804.00,119.88 7814.00,119.88 7814.00,119.88              7814.00,119.88 7825.00,119.88 7825.00,119.88              7825.00,119.88 7853.00,122.00 7853.00,122.00              7853.00,122.00 7864.00,122.00 7864.00,122.00              7876.03,122.02 7878.23,124.30 7888.00,125.85              7888.00,125.85 7905.00,125.85 7905.00,125.85              7905.00,125.85 7920.00,124.21 7920.00,124.21              7920.00,124.21 7933.00,124.99 7933.00,124.99              7933.00,124.99 7958.00,122.32 7958.00,122.32              7962.28,122.64 7964.33,123.25 7969.00,122.91              7969.00,122.91 7981.00,120.49 7981.00,120.49              7981.00,120.49 8003.00,122.92 8003.00,122.92              8003.00,122.92 8018.00,122.92 8018.00,122.92              8018.00,122.92 8032.00,120.87 8032.00,120.87              8032.00,120.87 8053.00,120.87 8053.00,120.87              8057.32,120.98 8066.62,119.27 8069.90,120.87              8072.77,121.77 8074.05,124.62 8075.78,127.00              8084.72,139.26 8081.07,132.69 8085.93,147.00              8089.74,158.23 8094.79,171.91 8093.91,184.00              8093.02,196.30 8088.99,199.37 8086.93,207.00              8085.04,213.97 8086.76,218.01 8086.32,222.00              8086.32,222.00 8084.09,233.00 8084.09,233.00              8083.91,235.69 8085.10,248.26 8085.67,251.00              8085.67,251.00 8087.66,260.00 8087.66,260.00              8088.21,265.55 8085.36,268.37 8086.17,277.00              8086.17,277.00 8087.67,288.00 8087.67,288.00              8087.67,288.00 8089.82,297.00 8089.82,297.00              8089.82,297.00 8091.00,326.00 8091.00,326.00              8091.02,335.93 8092.08,333.99 8092.91,341.00              8092.91,341.00 8092.91,353.00 8092.91,353.00              8092.91,353.00 8094.68,377.00 8094.68,377.00              8094.68,377.00 8094.04,383.00 8094.04,383.00              8093.71,391.41 8096.04,394.58 8097.64,402.00              8097.64,402.00 8099.75,412.00 8099.75,412.00              8099.75,412.00 8103.11,421.00 8103.11,421.00              8103.11,421.00 8107.89,444.00 8107.89,444.00              8107.89,444.00 8115.11,467.00 8115.11,467.00              8115.11,467.00 8121.93,505.00 8121.93,505.00              8121.93,505.00 8121.93,514.00 8121.93,514.00              8121.93,514.00 8123.09,530.00 8123.09,530.00              8123.09,530.00 8124.92,545.00 8124.92,545.00              8124.92,545.00 8124.00,556.00 8124.00,556.00              8123.77,576.32 8128.84,574.85 8132.00,591.00              8133.42,598.27 8132.99,605.62 8133.00,613.00              8133.00,613.00 8134.91,645.00 8134.91,645.00              8134.64,649.65 8133.61,651.66 8134.17,657.00              8134.64,661.42 8136.13,664.12 8135.90,669.00              8135.90,669.00 8132.40,691.00 8132.40,691.00              8131.60,694.36 8130.58,696.23 8130.17,700.00              8130.17,700.00 8131.00,723.00 8131.00,723.00              8131.11,732.30 8133.32,732.84 8133.90,739.00              8133.90,739.00 8135.68,765.00 8135.68,765.00              8137.66,773.64 8140.21,771.46 8141.72,784.00              8141.72,784.00 8141.00,802.00 8141.00,802.00              8141.00,802.00 8141.99,821.00 8141.99,821.00              8141.99,821.00 8141.00,836.00 8141.00,836.00              8141.00,836.00 8143.91,859.00 8143.91,859.00              8143.91,859.00 8143.91,881.00 8143.91,881.00              8144.02,893.67 8146.82,891.20 8147.00,907.00              8147.00,907.00 8149.00,938.00 8149.00,938.00              8149.00,938.00 8150.17,961.00 8150.17,961.00              8150.92,968.02 8151.98,966.05 8152.00,976.00              8152.00,976.00 8154.63,1010.00 8154.63,1010.00              8154.63,1010.00 8153.09,1027.00 8153.09,1027.00              8153.43,1032.56 8155.26,1034.26 8154.96,1042.00              8154.96,1042.00 8154.09,1053.00 8154.09,1053.00              8154.42,1058.35 8155.91,1059.42 8156.00,1067.00              8156.00,1067.00 8158.17,1099.00 8158.17,1099.00              8158.17,1099.00 8160.91,1120.00 8160.91,1120.00              8160.91,1120.00 8160.04,1131.00 8160.04,1131.00              8160.04,1131.00 8160.82,1139.00 8160.82,1139.00              8160.82,1139.00 8160.01,1148.00 8160.01,1148.00              8160.01,1148.00 8161.00,1164.00 8161.00,1164.00              8161.00,1164.00 8162.00,1180.00 8162.00,1180.00              8162.00,1180.00 8162.00,1199.00 8162.00,1199.00              8162.00,1199.00 8160.09,1217.00 8160.09,1217.00              8160.09,1217.00 8160.98,1225.00 8160.98,1225.00              8160.98,1225.00 8160.98,1243.00 8160.98,1243.00              8160.98,1243.00 8164.00,1270.00 8164.00,1270.00              8164.00,1270.00 8164.00,1302.00 8164.00,1302.00              8164.00,1302.00 8164.99,1317.00 8164.99,1317.00              8164.99,1317.00 8164.13,1327.00 8164.13,1327.00              8164.13,1327.00 8164.13,1335.00 8164.13,1335.00              8164.13,1335.00 8164.13,1344.00 8164.13,1344.00              8164.13,1344.00 8165.04,1358.00 8165.04,1358.00              8165.04,1358.00 8165.04,1371.00 8165.04,1371.00              8165.66,1378.82 8166.31,1374.68 8166.04,1385.00              8166.04,1385.00 8167.13,1403.00 8167.13,1403.00              8167.13,1403.00 8167.13,1418.00 8167.13,1418.00              8167.13,1418.00 8168.00,1431.00 8168.00,1431.00              8168.00,1431.00 8167.01,1450.00 8167.01,1450.00              8166.79,1459.93 8168.53,1460.09 8169.21,1465.00              8169.21,1465.00 8169.21,1475.00 8169.21,1475.00              8169.21,1475.00 8171.91,1490.00 8171.91,1490.00              8172.63,1501.28 8167.65,1510.18 8168.09,1518.00              8168.09,1518.00 8169.68,1538.00 8169.68,1538.00              8169.68,1538.00 8169.04,1547.00 8169.04,1547.00              8169.04,1547.00 8171.90,1564.00 8171.90,1564.00              8171.90,1564.00 8170.04,1582.00 8170.04,1582.00              8169.85,1588.16 8171.36,1590.34 8171.53,1594.00              8171.53,1594.00 8171.00,1603.00 8171.00,1603.00              8171.00,1603.00 8171.00,1621.00 8171.00,1621.00              8171.00,1621.00 8175.00,1649.00 8175.00,1649.00              8175.00,1649.00 8175.00,1694.00 8175.00,1694.00              8174.83,1702.75 8172.43,1700.05 8161.00,1709.01              8152.13,1715.98 8147.57,1722.39 8148.04,1734.00              8148.42,1743.49 8151.65,1745.83 8156.54,1753.00              8156.54,1753.00 8162.53,1762.99 8162.53,1762.99              8169.99,1772.47 8171.33,1769.16 8175.37,1784.00              8176.26,1787.26 8175.88,1790.67 8176.29,1794.00              8176.98,1799.66 8179.07,1812.69 8178.68,1818.00              8178.68,1818.00 8178.01,1825.00 8178.01,1825.00              8177.75,1836.67 8182.42,1846.72 8182.70,1851.00              8182.98,1855.14 8180.82,1858.04 8181.04,1865.00              8181.04,1865.00 8182.00,1882.00 8182.00,1882.00              8182.00,1882.00 8182.96,1896.00 8182.96,1896.00              8182.73,1902.03 8181.57,1904.95 8182.09,1912.00              8182.09,1912.00 8183.74,1923.00 8183.74,1923.00              8183.74,1923.00 8181.04,1949.00 8181.04,1949.00              8181.04,1949.00 8183.82,1969.00 8183.82,1969.00              8183.82,1969.00 8181.83,1998.00 8181.83,1998.00              8181.29,2002.99 8179.76,2005.12 8180.09,2011.00              8180.09,2011.00 8180.91,2018.00 8180.91,2018.00              8180.91,2018.00 8182.30,2037.00 8182.30,2037.00              8182.30,2037.00 8185.04,2047.00 8185.04,2047.00              8185.04,2047.00 8185.04,2058.00 8185.04,2058.00              8185.04,2058.00 8184.09,2069.00 8184.09,2069.00              8184.09,2069.00 8187.96,2101.00 8187.96,2101.00              8187.96,2101.00 8187.96,2112.00 8187.96,2112.00              8187.96,2112.00 8187.00,2122.00 8187.00,2122.00              8187.00,2122.00 8188.17,2145.00 8188.17,2145.00              8188.17,2145.00 8189.92,2156.00 8189.92,2156.00              8189.86,2161.77 8187.11,2163.50 8187.00,2173.00              8187.00,2173.00 8187.00,2177.00 8187.00,2177.00              8187.00,2177.00 8187.75,2188.00 8187.75,2188.00              8187.33,2192.37 8185.19,2194.16 8185.01,2202.00              8184.80,2211.40 8186.56,2212.39 8186.74,2217.00              8186.74,2217.00 8186.04,2228.00 8186.04,2228.00              8186.04,2228.00 8187.82,2240.00 8187.82,2240.00              8187.78,2245.11 8184.63,2249.44 8185.09,2257.00              8185.09,2257.00 8188.38,2271.00 8188.38,2271.00              8189.27,2275.76 8189.01,2281.13 8189.00,2286.00              8189.00,2286.00 8186.09,2309.00 8186.09,2309.00              8185.59,2317.90 8191.76,2329.63 8192.19,2335.00              8192.76,2342.15 8190.86,2347.48 8190.31,2354.00              8189.62,2359.26 8190.66,2361.75 8190.31,2365.00              8190.31,2365.00 8190.31,2374.00 8190.31,2374.00              8190.31,2374.00 8191.78,2393.00 8191.78,2393.00              8191.19,2397.61 8186.48,2403.82 8186.04,2414.00              8185.53,2425.75 8189.33,2427.78 8189.65,2433.00              8189.34,2427.92 8189.28,2455.36 8189.65,2450.00              8189.65,2450.00 8188.04,2468.00 8188.04,2468.00              8188.04,2468.00 8192.45,2495.00 8192.45,2495.00              8193.26,2498.96 8194.97,2502.98 8194.87,2507.00              8194.87,2507.00 8192.68,2527.00 8192.68,2527.00              8191.60,2533.58 8189.71,2534.86 8190.04,2543.00              8190.04,2543.00 8192.40,2559.00 8192.40,2559.00              8192.01,2568.12 8188.87,2573.51 8189.00,2585.00              8189.00,2585.00 8190.31,2597.00 8190.31,2597.00              8190.04,2601.06 8186.61,2604.72 8187.09,2613.00              8187.73,2624.05 8190.68,2625.70 8193.88,2634.00              8195.52,2638.22 8195.60,2641.69 8197.91,2646.00              8197.91,2646.00 8204.99,2657.00 8204.99,2657.00              8206.55,2660.88 8205.79,2665.83 8206.09,2670.00              8206.35,2673.54 8207.50,2676.42 8207.16,2680.00              8207.16,2680.00 8203.04,2702.00 8203.04,2702.00              8202.61,2711.58 8203.98,2712.26 8204.15,2717.00              8204.15,2717.00 8204.15,2726.00 8204.15,2726.00              8204.37,2734.11 8207.37,2736.28 8207.90,2742.00              8207.90,2742.00 8206.17,2765.00 8206.17,2765.00              8206.17,2765.00 8206.17,2774.00 8206.17,2774.00              8205.67,2777.81 8201.54,2781.98 8202.09,2791.00              8202.09,2791.00 8203.74,2801.00 8203.74,2801.00              8203.74,2801.00 8203.09,2811.00 8203.09,2811.00              8203.09,2811.00 8204.73,2822.00 8204.73,2822.00              8204.51,2826.59 8201.52,2830.76 8202.09,2839.00              8202.49,2844.78 8204.06,2846.22 8205.37,2851.00              8205.37,2851.00 8207.40,2865.00 8207.40,2865.00              8207.38,2869.97 8204.35,2873.40 8204.04,2881.00              8204.04,2881.00 8207.68,2907.00 8207.68,2907.00              8208.46,2910.37 8210.45,2913.97 8210.47,2917.00              8210.47,2917.00 8210.47,2934.00 8210.47,2934.00              8209.47,2938.97 8207.45,2942.89 8207.09,2949.00              8207.09,2949.00 8207.82,2959.00 8207.82,2959.00              8207.82,2959.00 8207.09,2969.00 8207.09,2969.00              8207.49,2975.41 8210.04,2978.48 8210.27,2982.00              8210.27,2982.00 8210.27,2996.00 8210.27,2996.00              8210.27,2996.00 8212.73,3014.00 8212.73,3014.00              8212.72,3019.50 8208.61,3022.70 8209.27,3032.00              8209.27,3032.00 8209.27,3038.00 8209.27,3038.00              8209.27,3038.00 8198.55,3066.00 8198.55,3066.00              8195.96,3073.38 8197.61,3077.53 8196.79,3083.00              8195.72,3090.08 8193.02,3088.40 8193.00,3102.00              8193.00,3102.00 8193.00,3108.00 8193.00,3108.00              8192.84,3119.66 8187.64,3121.73 8183.93,3131.00              8181.39,3137.35 8182.50,3140.30 8181.51,3144.00              8181.51,3144.00 8178.56,3151.00 8178.56,3151.00              8178.56,3151.00 8174.17,3168.00 8174.17,3168.00              8173.58,3173.57 8174.61,3179.16 8177.48,3184.00              8178.92,3186.43 8181.91,3189.77 8182.71,3192.00              8182.71,3192.00 8182.00,3213.00 8182.00,3213.00              8182.00,3213.00 8181.23,3227.00 8181.23,3227.00              8181.23,3227.00 8181.23,3234.00 8181.23,3234.00              8181.23,3234.00 8181.23,3242.00 8181.23,3242.00              8181.23,3242.00 8181.92,3250.00 8181.92,3250.00              8181.92,3250.00 8181.04,3259.00 8181.04,3259.00              8180.65,3268.93 8184.43,3277.29 8184.51,3281.00              8184.51,3281.00 8182.00,3304.00 8182.00,3304.00              8182.00,3304.00 8182.00,3316.00 8182.00,3316.00              8182.00,3316.00 8183.72,3331.00 8183.72,3331.00              8183.72,3331.00 8185.00,3350.00 8185.00,3350.00              8185.01,3357.36 8185.29,3359.08 8188.00,3366.00              8189.41,3369.60 8192.49,3375.26 8191.84,3379.00              8190.94,3384.25 8188.86,3382.95 8189.00,3396.00              8189.00,3396.00 8190.25,3407.00 8190.25,3407.00              8190.59,3412.85 8189.08,3415.31 8191.22,3422.00              8193.29,3428.46 8196.44,3429.86 8198.80,3437.00              8200.81,3443.06 8199.25,3445.77 8201.56,3452.00              8203.38,3456.93 8207.05,3460.75 8210.00,3465.00              8205.49,3469.77 8200.91,3473.64 8198.56,3480.00              8195.93,3487.09 8198.01,3490.74 8195.70,3499.00              8195.70,3499.00 8190.92,3513.00 8190.92,3513.00              8189.40,3518.88 8190.46,3521.25 8189.79,3526.00              8189.79,3526.00 8188.20,3532.00 8188.20,3532.00              8186.63,3537.57 8186.94,3543.26 8187.00,3549.00              8187.14,3560.78 8192.85,3568.41 8202.00,3575.47              8202.00,3575.47 8208.72,3579.95 8208.72,3579.95              8208.72,3579.95 8215.01,3585.48 8215.01,3585.48              8220.22,3589.51 8223.33,3589.44 8225.27,3591.56              8227.40,3593.89 8228.93,3603.77 8228.68,3607.00              8227.94,3616.27 8224.24,3618.28 8224.01,3628.00              8223.70,3641.65 8227.95,3642.82 8229.07,3648.00              8229.07,3648.00 8229.07,3659.00 8229.07,3659.00              8214.67,3663.10 8211.18,3671.24 8206.59,3684.00              8204.99,3688.43 8202.37,3698.44 8202.09,3703.00              8201.18,3717.90 8211.69,3720.19 8212.67,3733.00              8213.12,3738.89 8209.65,3741.01 8210.04,3751.00              8210.04,3751.00 8211.11,3759.00 8211.11,3759.00              8211.11,3759.00 8211.11,3768.00 8211.11,3768.00              8213.67,3784.47 8222.32,3796.61 8240.00,3797.00              8240.00,3797.00 8240.00,3813.00 8240.00,3813.00              8239.94,3823.82 8236.72,3822.99 8233.55,3832.00              8231.22,3838.58 8232.53,3841.68 8231.61,3846.00              8230.59,3850.84 8227.19,3854.72 8228.17,3864.00              8228.85,3870.38 8230.81,3872.74 8232.38,3878.00              8234.13,3883.81 8233.20,3886.03 8237.11,3892.00              8243.94,3902.43 8247.79,3897.65 8250.00,3912.00              8243.53,3910.70 8233.49,3908.64 8227.00,3909.09              8223.15,3909.35 8220.59,3910.31 8217.00,3911.51              8205.19,3915.44 8196.14,3920.60 8191.44,3933.00              8188.07,3942.44 8191.58,3949.10 8191.44,3953.00              8191.04,3957.03 8187.59,3960.82 8188.09,3969.00              8188.78,3980.12 8196.85,3993.72 8207.00,3998.60              8213.12,4001.54 8221.68,4000.61 8226.41,4006.39              8227.66,4007.92 8231.40,4021.86 8231.33,4024.00              8231.33,4024.00 8230.09,4032.00 8230.09,4032.00              8229.16,4047.20 8242.41,4055.85 8244.98,4061.00              8246.42,4063.88 8245.82,4067.74 8246.30,4071.00              8247.02,4075.86 8248.78,4078.50 8249.28,4081.00              8249.95,4084.37 8248.54,4087.66 8248.17,4091.00              8248.17,4091.00 8245.01,4115.00 8245.01,4115.00              8244.78,4125.34 8246.54,4126.07 8249.41,4135.00              8249.41,4135.00 8251.56,4143.00 8251.56,4143.00              8254.06,4149.77 8255.86,4148.86 8256.49,4158.00              8256.64,4160.30 8256.12,4170.75 8255.01,4172.37              8253.28,4174.87 8248.42,4175.81 8243.53,4182.01              8241.63,4184.42 8235.18,4198.00 8234.22,4201.00              8231.91,4208.23 8233.72,4212.64 8233.37,4217.00              8232.97,4222.00 8231.27,4224.03 8232.30,4231.00              8233.32,4237.91 8236.42,4240.24 8235.78,4246.00              8235.78,4246.00 8233.47,4255.00 8233.47,4255.00              8232.67,4259.23 8231.95,4270.50 8232.00,4275.00              8232.10,4283.47 8235.82,4298.09 8238.93,4306.00              8240.38,4309.69 8244.24,4315.70 8244.56,4319.00              8244.56,4319.00 8244.04,4328.00 8244.04,4328.00              8244.04,4328.00 8244.97,4338.00 8244.97,4338.00              8244.97,4338.00 8244.00,4352.00 8244.00,4352.00              8244.00,4352.00 8242.00,4393.00 8242.00,4393.00              8242.00,4393.00 8241.00,4406.00 8241.00,4406.00              8241.00,4406.00 8241.00,4428.00 8241.00,4428.00              8241.00,4428.00 8239.70,4447.00 8239.70,4447.00              8238.69,4454.09 8238.01,4452.39 8238.00,4461.00              8238.00,4461.00 8238.00,4490.00 8238.00,4490.00              8237.98,4501.39 8234.73,4501.78 8229.47,4511.00              8227.00,4515.32 8220.38,4533.26 8220.09,4538.00              8219.68,4544.66 8221.56,4546.49 8222.63,4552.00              8223.65,4557.30 8222.49,4559.69 8225.47,4567.00              8230.07,4578.25 8242.76,4587.50 8254.00,4591.45              8259.05,4593.23 8265.70,4593.34 8271.00,4592.72              8274.34,4592.32 8278.26,4590.99 8280.56,4594.29              8282.63,4597.27 8282.76,4602.52 8283.29,4606.00              8284.37,4612.96 8285.66,4619.91 8285.66,4627.00              8285.66,4627.00 8285.04,4634.00 8285.04,4634.00              8285.04,4634.00 8288.79,4663.00 8288.79,4663.00              8288.79,4663.00 8288.09,4671.00 8288.09,4671.00              8287.89,4674.58 8288.44,4675.84 8288.68,4679.00              8289.01,4683.50 8287.35,4687.55 8287.09,4692.00              8287.09,4692.00 8291.90,4721.00 8291.90,4721.00              8292.11,4725.92 8290.43,4729.27 8290.04,4734.00              8290.04,4734.00 8290.04,4755.00 8290.04,4755.00              8290.02,4764.84 8291.63,4766.17 8292.71,4775.00              8292.71,4775.00 8294.00,4803.00 8294.00,4803.00              8293.92,4809.22 8292.98,4811.37 8292.29,4817.00              8292.29,4817.00 8290.03,4843.00 8290.03,4843.00              8290.03,4849.96 8293.62,4858.28 8293.43,4862.00              8293.18,4867.00 8287.44,4871.45 8288.09,4882.00              8288.47,4888.19 8290.68,4890.79 8291.62,4895.00              8291.62,4895.00 8292.93,4903.00 8292.93,4903.00              8294.03,4907.09 8295.80,4909.54 8296.11,4914.00              8296.11,4914.00 8296.11,4928.00 8296.11,4928.00              8296.11,4928.00 8296.96,4940.00 8296.96,4940.00              8296.96,4940.00 8296.96,4953.00 8296.96,4953.00              8296.96,4953.00 8296.09,4968.00 8296.09,4968.00              8296.62,4979.89 8294.26,4986.55 8293.00,4998.00              8293.00,4998.00 8293.00,5006.00 8293.00,5006.00              8293.00,5006.00 8290.16,5022.00 8290.16,5022.00              8290.16,5022.00 8288.62,5040.00 8288.62,5040.00              8287.49,5045.66 8284.30,5049.25 8282.56,5054.00              8280.86,5058.61 8281.00,5062.23 8281.00,5067.00              8270.98,5068.57 8268.64,5072.74 8264.00,5073.99              8264.00,5073.99 8250.00,5073.02 8250.00,5073.02              8250.00,5073.02 8229.00,5075.78 8229.00,5075.78              8224.60,5075.88 8221.13,5073.06 8217.00,5071.93              8209.91,5069.99 8201.49,5070.89 8195.00,5074.33              8184.01,5080.14 8171.30,5098.20 8172.09,5111.00              8172.82,5122.84 8180.85,5127.93 8183.28,5131.28              8183.28,5131.28 8189.51,5147.00 8189.51,5147.00              8190.92,5152.29 8188.41,5159.46 8188.09,5165.00              8187.80,5170.14 8189.48,5176.28 8191.46,5181.00              8192.51,5183.49 8195.21,5187.63 8195.31,5190.00              8195.44,5192.95 8188.65,5203.40 8187.22,5208.00              8187.22,5208.00 8184.59,5228.00 8184.59,5228.00              8184.59,5228.00 8178.91,5241.00 8178.91,5241.00              8178.07,5243.82 8175.52,5253.53 8174.10,5255.39              8174.10,5255.39 8166.18,5262.09 8166.18,5262.09              8163.89,5264.50 8161.09,5269.73 8158.79,5271.09              8156.09,5272.25 8152.28,5270.38 8146.00,5271.09              8140.41,5272.12 8137.32,5274.29 8133.00,5275.39              8133.00,5275.39 8121.00,5276.44 8121.00,5276.44              8109.99,5278.16 8099.16,5278.98 8088.00,5279.00              8078.38,5279.02 8076.20,5280.91 8071.00,5280.92              8071.00,5280.92 8063.00,5280.09 8063.00,5280.09              8063.00,5280.09 8040.00,5283.57 8040.00,5283.57              8040.00,5283.57 8030.00,5284.46 8030.00,5284.46              8030.00,5284.46 8014.00,5288.34 8014.00,5288.34              7998.78,5291.53 7980.50,5294.66 7965.00,5295.00              7963.80,5290.90 7962.44,5288.32 7959.67,5285.00              7950.84,5274.42 7943.72,5273.47 7931.00,5274.84              7927.87,5275.17 7926.25,5275.04 7923.00,5275.93              7916.74,5277.64 7914.84,5280.51 7905.00,5281.95              7898.38,5282.93 7897.73,5280.12 7888.00,5280.00              7888.00,5280.00 7872.00,5279.03 7872.00,5279.03              7872.00,5279.03 7862.00,5279.79 7862.00,5279.79              7862.00,5279.79 7854.00,5278.30 7854.00,5278.30              7850.36,5277.78 7838.76,5278.78 7835.00,5279.46              7835.00,5279.46 7821.00,5283.84 7821.00,5283.84              7821.00,5283.84 7812.00,5285.68 7812.00,5285.68              7812.00,5285.68 7792.00,5291.54 7792.00,5291.54              7783.50,5294.48 7776.10,5297.99 7767.00,5298.00              7767.00,5298.00 7751.00,5298.00 7751.00,5298.00              7751.00,5298.00 7723.00,5301.92 7723.00,5301.92              7723.00,5301.92 7714.00,5301.92 7714.00,5301.92              7714.00,5301.92 7689.00,5305.70 7689.00,5305.70              7689.00,5305.70 7674.00,5305.00 7674.00,5305.00              7664.36,5305.11 7663.11,5307.89 7654.00,5308.08              7654.00,5308.08 7641.00,5308.08 7641.00,5308.08              7631.48,5309.19 7634.58,5310.14 7622.00,5310.00              7610.32,5309.86 7608.00,5306.02 7595.00,5306.00              7595.00,5306.00 7567.00,5303.00 7567.00,5303.00              7567.00,5303.00 7550.00,5303.81 7550.00,5303.81              7544.77,5303.38 7543.45,5301.74 7536.00,5302.04              7533.38,5302.15 7519.39,5304.69 7517.00,5305.56              7517.00,5305.56 7509.00,5309.01 7509.00,5309.01              7505.02,5310.25 7501.95,5309.76 7498.00,5310.46              7491.67,5311.58 7490.19,5312.91 7483.00,5313.15              7483.00,5313.15 7463.00,5313.15 7463.00,5313.15              7454.29,5314.58 7453.30,5316.98 7439.00,5317.08              7439.00,5317.08 7420.00,5317.08 7420.00,5317.08              7420.00,5317.08 7403.00,5320.04 7403.00,5320.04              7393.11,5320.60 7394.16,5318.03 7375.00,5320.04              7375.00,5320.04 7367.00,5321.70 7367.00,5321.70              7367.00,5321.70 7359.00,5322.30 7359.00,5322.30              7359.00,5322.30 7351.00,5323.79 7351.00,5323.79              7351.00,5323.79 7342.00,5323.04 7342.00,5323.04              7342.00,5323.04 7329.00,5323.66 7329.00,5323.66              7329.00,5323.66 7316.00,5322.91 7316.00,5322.91              7316.00,5322.91 7294.00,5321.04 7294.00,5321.04              7294.00,5321.04 7275.00,5323.72 7275.00,5323.72              7275.00,5323.72 7259.00,5325.28 7259.00,5325.28              7259.00,5325.28 7242.00,5327.16 7242.00,5327.16              7236.14,5326.62 7236.23,5325.92 7229.00,5326.00              7229.00,5326.00 7193.00,5328.82 7193.00,5328.82              7193.00,5328.82 7182.00,5328.01 7182.00,5328.01              7182.00,5328.01 7173.00,5328.91 7173.00,5328.91              7173.00,5328.91 7153.00,5330.17 7153.00,5330.17              7153.00,5330.17 7136.00,5333.46 7136.00,5333.46              7136.00,5333.46 7118.00,5332.00 7118.00,5332.00              7118.00,5332.00 7079.00,5333.00 7079.00,5333.00              7079.00,5333.00 7066.00,5334.31 7066.00,5334.31              7066.00,5334.31 7056.00,5334.31 7056.00,5334.31              7056.00,5334.31 7047.00,5334.31 7047.00,5334.31              7043.04,5334.05 7043.04,5333.09 7036.00,5333.10              7036.00,5333.10 7022.00,5333.10 7022.00,5333.10              7017.74,5332.83 7014.72,5330.74 7008.00,5330.96              7002.22,5331.39 6998.84,5331.44 6993.00,5330.96              6986.93,5330.20 6981.16,5327.74 6975.00,5328.09              6975.00,5328.09 6967.00,5328.98 6967.00,5328.98              6967.00,5328.98 6949.00,5328.98 6949.00,5328.98              6949.00,5328.98 6926.00,5331.72 6926.00,5331.72              6926.00,5331.72 6894.00,5333.26 6894.00,5333.26              6889.53,5333.09 6883.14,5333.22 6879.00,5332.33              6874.10,5331.29 6872.28,5330.03 6868.00,5328.54              6868.00,5328.54 6855.00,5324.90 6855.00,5324.90              6855.00,5324.90 6840.00,5323.54 6840.00,5323.54              6840.00,5323.54 6829.00,5320.67 6829.00,5320.67              6829.00,5320.67 6808.00,5317.17 6808.00,5317.17              6801.80,5316.48 6795.24,5315.63 6789.00,5316.09              6781.85,5316.61 6779.16,5319.15 6769.00,5317.56              6755.89,5315.51 6757.31,5312.66 6748.00,5309.91              6748.00,5309.91 6733.00,5306.44 6733.00,5306.44              6733.00,5306.44 6718.00,5303.95 6718.00,5303.95              6718.00,5303.95 6704.00,5297.93 6704.00,5297.93              6697.58,5296.18 6675.23,5294.92 6668.00,5295.00              6668.00,5295.00 6630.00,5303.00 6630.00,5303.00              6630.00,5303.00 6619.00,5303.00 6619.00,5303.00              6614.18,5303.69 6613.12,5304.84 6607.00,5304.99              6607.00,5304.99 6589.00,5303.70 6589.00,5303.70              6584.29,5303.03 6583.70,5302.15 6578.00,5302.01              6567.63,5301.76 6569.14,5303.06 6562.00,5303.92              6562.00,5303.92 6554.00,5303.92 6554.00,5303.92              6546.76,5304.09 6540.05,5306.30 6533.00,5307.54              6533.00,5307.54 6519.00,5308.90 6519.00,5308.90              6506.37,5311.92 6504.50,5314.79 6490.00,5314.26              6468.85,5313.48 6474.11,5315.87 6463.00,5316.00              6463.00,5316.00 6451.00,5316.00 6451.00,5316.00              6438.25,5316.02 6440.40,5317.95 6432.00,5319.62              6432.00,5319.62 6423.00,5320.47 6423.00,5320.47              6423.00,5320.47 6413.00,5323.81 6413.00,5323.81              6410.19,5324.21 6404.17,5323.97 6401.00,5323.81              6401.00,5323.81 6372.00,5326.00 6372.00,5326.00              6372.00,5326.00 6357.00,5326.00 6357.00,5326.00              6357.00,5326.00 6333.00,5328.82 6333.00,5328.82              6333.00,5328.82 6322.00,5328.00 6322.00,5328.00              6322.00,5328.00 6299.00,5328.00 6299.00,5328.00              6299.00,5328.00 6282.00,5329.00 6282.00,5329.00              6282.00,5329.00 6260.00,5329.00 6260.00,5329.00              6260.00,5329.00 6239.00,5331.08 6239.00,5331.08              6239.00,5331.08 6230.00,5332.92 6230.00,5332.92              6230.00,5332.92 6220.00,5332.92 6220.00,5332.92              6220.00,5332.92 6195.00,5336.71 6195.00,5336.71              6195.00,5336.71 6178.00,5338.00 6178.00,5338.00              6164.63,5338.03 6164.02,5340.88 6154.00,5341.00              6141.69,5341.14 6145.72,5341.89 6137.00,5342.92              6137.00,5342.92 6124.00,5342.92 6124.00,5342.92              6124.00,5342.92 6109.00,5343.96 6109.00,5343.96              6109.00,5343.96 6074.00,5341.00 6074.00,5341.00              6074.00,5341.00 6040.00,5338.00 6040.00,5338.00              6040.00,5338.00 6006.00,5338.00 6006.00,5338.00              5991.98,5338.02 5987.72,5342.56 5980.00,5342.96              5980.00,5342.96 5962.00,5342.00 5962.00,5342.00              5962.00,5342.00 5953.00,5342.83 5953.00,5342.83              5953.00,5342.83 5935.00,5344.17 5935.00,5344.17              5935.00,5344.17 5926.00,5345.71 5926.00,5345.71              5917.84,5346.77 5916.17,5346.08 5907.00,5348.37              5896.25,5351.07 5880.79,5357.94 5870.00,5357.92              5864.80,5357.91 5860.01,5355.73 5855.00,5354.67              5851.68,5353.96 5848.15,5354.24 5845.00,5352.92              5845.00,5352.92 5839.00,5349.47 5839.00,5349.47              5833.40,5346.30 5825.39,5345.08 5819.00,5345.00              5811.95,5344.92 5791.28,5346.21 5785.00,5347.93              5785.00,5347.93 5774.00,5352.59 5774.00,5352.59              5774.00,5352.59 5753.00,5355.30 5753.00,5355.30              5753.00,5355.30 5741.00,5358.86 5741.00,5358.86              5741.00,5358.86 5731.00,5358.86 5731.00,5358.86              5731.00,5358.86 5719.00,5360.00 5719.00,5360.00              5719.00,5360.00 5690.00,5360.00 5690.00,5360.00              5690.00,5360.00 5636.00,5366.41 5636.00,5366.41              5636.00,5366.41 5623.00,5367.47 5623.00,5367.47              5623.00,5367.47 5613.00,5370.61 5613.00,5370.61              5613.00,5370.61 5597.00,5372.84 5597.00,5372.84              5597.00,5372.84 5578.00,5374.09 5578.00,5374.09              5578.00,5374.09 5567.00,5375.00 5567.00,5375.00              5567.00,5375.00 5532.00,5377.66 5532.00,5377.66              5532.00,5377.66 5525.00,5377.02 5525.00,5377.02              5525.00,5377.02 5513.00,5377.02 5513.00,5377.02              5513.00,5377.02 5498.00,5378.00 5498.00,5378.00              5498.00,5378.00 5484.00,5378.00 5484.00,5378.00              5484.00,5378.00 5457.00,5381.00 5457.00,5381.00              5457.00,5381.00 5425.00,5382.00 5425.00,5382.00              5425.00,5382.00 5413.00,5382.96 5413.00,5382.96              5413.00,5382.96 5391.00,5384.00 5391.00,5384.00              5391.00,5384.00 5367.00,5386.72 5367.00,5386.72              5359.35,5387.64 5351.48,5387.88 5344.00,5389.93              5338.00,5391.57 5332.62,5394.46 5327.00,5396.97              5327.00,5396.97 5319.00,5399.55 5319.00,5399.55              5319.00,5399.55 5311.00,5403.19 5311.00,5403.19              5307.10,5404.59 5296.32,5405.98 5292.00,5406.09              5292.00,5406.09 5281.00,5406.09 5281.00,5406.09              5281.00,5406.09 5271.00,5407.90 5271.00,5407.90              5271.00,5407.90 5256.00,5407.00 5256.00,5407.00              5249.22,5407.08 5249.50,5407.92 5244.00,5408.93              5244.00,5408.93 5234.00,5408.93 5234.00,5408.93              5234.00,5408.93 5220.00,5411.70 5220.00,5411.70              5212.53,5412.77 5204.50,5411.64 5196.00,5413.93              5196.00,5413.93 5175.00,5420.71 5175.00,5420.71              5175.00,5420.71 5162.00,5423.56 5162.00,5423.56              5162.00,5423.56 5153.00,5428.25 5153.00,5428.25              5146.64,5431.10 5135.02,5433.97 5128.00,5434.00              5128.00,5434.00 5099.00,5436.47 5099.00,5436.47              5099.00,5436.47 5084.00,5440.54 5084.00,5440.54              5084.00,5440.54 5072.00,5441.30 5072.00,5441.30              5063.62,5442.49 5063.02,5443.98 5053.00,5444.00              5053.00,5444.00 5041.00,5444.00 5041.00,5444.00              5041.00,5444.00 5021.00,5445.00 5021.00,5445.00              5021.00,5445.00 4996.00,5442.01 4996.00,5442.01              4989.61,5442.01 4987.46,5443.28 4982.00,5443.92              4982.00,5443.92 4967.00,5443.92 4967.00,5443.92              4959.72,5444.09 4959.28,5445.19 4953.00,5446.49              4953.00,5446.49 4930.00,5449.00 4930.00,5449.00              4930.00,5449.00 4914.00,5449.00 4914.00,5449.00              4914.00,5449.00 4901.00,5450.54 4901.00,5450.54              4901.00,5450.54 4890.00,5450.00 4890.00,5450.00              4890.00,5450.00 4862.00,5450.00 4862.00,5450.00              4853.24,5450.01 4852.31,5451.12 4845.00,5451.92              4845.00,5451.92 4827.00,5451.92 4827.00,5451.92              4827.00,5451.92 4817.00,5452.74 4817.00,5452.74              4817.00,5452.74 4809.00,5451.06 4809.00,5451.06              4809.00,5451.06 4797.00,5451.06 4797.00,5451.06              4792.18,5450.31 4791.12,5449.16 4785.00,5449.01              4785.00,5449.01 4771.00,5449.98 4771.00,5449.98              4771.00,5449.98 4727.00,5446.10 4727.00,5446.10              4727.00,5446.10 4712.00,5441.66 4712.00,5441.66              4712.00,5441.66 4702.00,5437.22 4702.00,5437.22              4702.00,5437.22 4692.00,5435.24 4692.00,5435.24              4692.00,5435.24 4675.00,5429.78 4675.00,5429.78              4675.00,5429.78 4659.00,5424.54 4659.00,5424.54              4659.00,5424.54 4647.00,5419.22 4647.00,5419.22              4647.00,5419.22 4625.00,5414.80 4625.00,5414.80              4611.08,5412.02 4597.25,5409.16 4583.00,5409.00              4583.00,5409.00 4566.00,5407.17 4566.00,5407.17              4566.00,5407.17 4544.00,5405.91 4544.00,5405.91              4544.00,5405.91 4534.00,5404.09 4534.00,5404.09              4534.00,5404.09 4518.00,5404.09 4518.00,5404.09              4518.00,5404.09 4499.00,5405.00 4499.00,5405.00              4499.00,5405.00 4479.00,5407.00 4479.00,5407.00              4479.00,5407.00 4451.00,5408.16 4451.00,5408.16              4451.00,5408.16 4439.00,5408.16 4439.00,5408.16              4439.00,5408.16 4409.00,5408.16 4409.00,5408.16              4409.00,5408.16 4380.00,5410.82 4380.00,5410.82              4380.00,5410.82 4368.00,5410.00 4368.00,5410.00              4368.00,5410.00 4355.00,5410.91 4355.00,5410.91              4355.00,5410.91 4346.00,5410.01 4346.00,5410.01              4346.00,5410.01 4330.00,5411.00 4330.00,5411.00              4330.00,5411.00 4314.00,5411.00 4314.00,5411.00              4314.00,5411.00 4300.00,5410.25 4300.00,5410.25              4300.00,5410.25 4288.00,5410.25 4288.00,5410.25              4288.00,5410.25 4265.00,5408.01 4265.00,5408.01              4265.00,5408.01 4250.00,5409.00 4250.00,5409.00              4238.60,5409.02 4234.53,5412.28 4228.00,5411.82              4228.00,5411.82 4211.00,5410.54 4211.00,5410.54              4204.70,5409.43 4198.43,5407.29 4192.00,5407.04              4181.66,5406.63 4172.18,5413.11 4162.00,5410.58              4158.07,5409.61 4154.43,5406.28 4151.00,5404.09              4144.46,5399.90 4137.88,5397.33 4130.00,5398.17              4114.53,5399.83 4113.83,5411.43 4100.00,5415.37              4096.47,5416.37 4085.12,5416.86 4081.00,5417.04              4081.00,5417.04 4070.00,5418.00 4070.00,5418.00              4070.00,5418.00 4055.00,5417.00 4055.00,5417.00              4055.00,5417.00 4033.00,5417.00 4033.00,5417.00              4033.00,5417.00 4023.00,5417.96 4023.00,5417.96              4023.00,5417.96 4009.00,5417.96 4009.00,5417.96              4009.00,5417.96 3976.00,5416.00 3976.00,5416.00              3976.00,5416.00 3957.00,5416.91 3957.00,5416.91              3957.00,5416.91 3942.00,5416.00 3942.00,5416.00              3942.00,5416.00 3916.00,5418.00 3916.00,5418.00              3916.00,5418.00 3888.00,5418.00 3888.00,5418.00              3888.00,5418.00 3872.00,5419.00 3872.00,5419.00              3872.00,5419.00 3836.00,5421.17 3836.00,5421.17              3836.00,5421.17 3827.00,5423.00 3827.00,5423.00              3827.00,5423.00 3818.00,5423.00 3818.00,5423.00              3818.00,5423.00 3786.00,5425.00 3786.00,5425.00              3775.71,5425.02 3775.42,5426.74 3769.00,5426.96              3769.00,5426.96 3756.00,5426.04 3756.00,5426.04              3756.00,5426.04 3742.00,5428.09 3742.00,5428.09              3742.00,5428.09 3730.00,5428.09 3730.00,5428.09              3730.00,5428.09 3720.00,5429.04 3720.00,5429.04              3720.00,5429.04 3712.00,5429.04 3712.00,5429.04              3712.00,5429.04 3704.00,5430.13 3704.00,5430.13              3704.00,5430.13 3693.00,5430.13 3693.00,5430.13              3693.00,5430.13 3668.00,5430.13 3668.00,5430.13              3668.00,5430.13 3655.00,5429.18 3655.00,5429.18              3655.00,5429.18 3645.00,5429.18 3645.00,5429.18              3645.00,5429.18 3625.00,5429.18 3625.00,5429.18              3625.00,5429.18 3613.00,5428.04 3613.00,5428.04              3613.00,5428.04 3598.00,5428.04 3598.00,5428.04              3588.07,5427.98 3590.01,5426.92 3583.00,5426.09              3583.00,5426.09 3571.00,5426.09 3571.00,5426.09              3559.36,5425.98 3559.07,5422.74 3550.00,5423.04              3542.95,5423.28 3540.07,5425.75 3536.00,5426.81              3533.34,5427.18 3528.87,5426.97 3526.00,5426.81              3526.00,5426.81 3497.00,5430.00 3497.00,5430.00              3497.00,5430.00 3463.00,5429.00 3463.00,5429.00              3463.00,5429.00 3443.00,5430.37 3443.00,5430.37              3436.27,5429.82 3433.44,5426.94 3422.00,5428.17              3414.88,5428.94 3411.13,5431.73 3407.00,5432.61              3407.00,5432.61 3400.00,5433.17 3400.00,5433.17              3400.00,5433.17 3387.00,5435.45 3387.00,5435.45              3374.25,5438.05 3369.05,5440.98 3355.00,5441.00              3344.78,5441.02 3345.31,5442.45 3340.00,5442.79              3340.00,5442.79 3330.00,5442.03 3330.00,5442.03              3330.00,5442.03 3321.00,5442.96 3321.00,5442.96              3321.00,5442.96 3311.00,5442.96 3311.00,5442.96              3311.00,5442.96 3291.00,5444.68 3291.00,5444.68              3291.00,5444.68 3280.00,5444.00 3280.00,5444.00              3280.00,5444.00 3265.00,5445.00 3265.00,5445.00              3265.00,5445.00 3225.00,5445.00 3225.00,5445.00              3225.00,5445.00 3209.00,5446.00 3209.00,5446.00              3209.00,5446.00 3177.00,5446.00 3177.00,5446.00              3177.00,5446.00 3160.00,5447.00 3160.00,5447.00              3160.00,5447.00 3140.00,5447.00 3140.00,5447.00              3140.00,5447.00 3124.00,5448.00 3124.00,5448.00              3124.00,5448.00 3049.00,5449.00 3049.00,5449.00              3049.00,5449.00 3032.00,5450.00 3032.00,5450.00              3032.00,5450.00 3013.00,5450.00 3013.00,5450.00              3013.00,5450.00 2982.00,5452.92 2982.00,5452.92              2982.00,5452.92 2966.00,5452.92 2966.00,5452.92              2966.00,5452.92 2935.00,5455.82 2935.00,5455.82              2935.00,5455.82 2922.00,5455.00 2922.00,5455.00              2922.00,5455.00 2910.00,5455.99 2910.00,5455.99              2910.00,5455.99 2894.00,5455.00 2894.00,5455.00              2894.00,5455.00 2859.00,5455.00 2859.00,5455.00              2859.00,5455.00 2846.00,5455.98 2846.00,5455.98              2846.00,5455.98 2831.00,5455.98 2831.00,5455.98              2831.00,5455.98 2822.00,5456.66 2822.00,5456.66              2822.00,5456.66 2808.00,5456.09 2808.00,5456.09              2808.00,5456.09 2789.00,5458.00 2789.00,5458.00              2789.00,5458.00 2777.00,5458.00 2777.00,5458.00              2777.00,5458.00 2748.00,5460.00 2748.00,5460.00              2748.00,5460.00 2733.00,5461.00 2733.00,5461.00              2733.00,5461.00 2710.00,5461.00 2710.00,5461.00              2710.00,5461.00 2693.00,5462.00 2693.00,5462.00              2693.00,5462.00 2657.00,5462.00 2657.00,5462.00              2657.00,5462.00 2634.00,5460.04 2634.00,5460.04              2634.00,5460.04 2606.00,5462.00 2606.00,5462.00              2606.00,5462.00 2543.00,5462.00 2543.00,5462.00              2543.00,5462.00 2521.00,5464.00 2521.00,5464.00              2521.00,5464.00 2488.00,5464.00 2488.00,5464.00              2488.00,5464.00 2450.00,5466.98 2450.00,5466.98              2443.53,5467.11 2439.94,5465.74 2434.00,5465.14              2434.00,5465.14 2419.00,5465.14 2419.00,5465.14              2419.00,5465.14 2401.00,5465.14 2401.00,5465.14              2401.00,5465.14 2384.00,5466.00 2384.00,5466.00              2384.00,5466.00 2370.00,5466.97 2370.00,5466.97              2370.00,5466.97 2361.00,5466.05 2361.00,5466.05              2361.00,5466.05 2344.00,5466.05 2344.00,5466.05              2344.00,5466.05 2332.00,5466.82 2332.00,5466.82              2332.00,5466.82 2323.00,5466.04 2323.00,5466.04              2323.00,5466.04 2301.00,5467.91 2301.00,5467.91              2301.00,5467.91 2287.00,5467.00 2287.00,5467.00              2287.00,5467.00 2268.00,5469.71 2268.00,5469.71              2268.00,5469.71 2244.00,5471.00 2244.00,5471.00              2244.00,5471.00 2231.00,5470.00 2231.00,5470.00              2231.00,5470.00 2212.00,5470.00 2212.00,5470.00              2212.00,5470.00 2192.00,5471.24 2192.00,5471.24              2192.00,5471.24 2183.00,5471.24 2183.00,5471.24              2183.00,5471.24 2157.00,5470.00 2157.00,5470.00              2157.00,5470.00 2144.00,5470.96 2144.00,5470.96              2144.00,5470.96 2129.00,5470.00 2129.00,5470.00              2129.00,5470.00 2114.00,5470.00 2114.00,5470.00              2114.00,5470.00 2096.00,5471.00 2096.00,5471.00              2096.00,5471.00 2055.00,5475.00 2055.00,5475.00              2055.00,5475.00 2033.00,5475.00 2033.00,5475.00              2033.00,5475.00 2020.00,5476.00 2020.00,5476.00              2020.00,5476.00 1995.00,5476.00 1995.00,5476.00              1995.00,5476.00 1986.00,5476.82 1986.00,5476.82              1986.00,5476.82 1976.00,5476.04 1976.00,5476.04              1976.00,5476.04 1965.00,5477.00 1965.00,5477.00              1965.00,5477.00 1954.00,5477.00 1954.00,5477.00              1954.00,5477.00 1942.00,5478.00 1942.00,5478.00              1942.00,5478.00 1878.00,5478.00 1878.00,5478.00              1878.00,5478.00 1865.00,5477.04 1865.00,5477.04              1865.00,5477.04 1851.00,5478.99 1851.00,5478.99              1851.00,5478.99 1835.00,5478.04 1835.00,5478.04              1835.00,5478.04 1818.00,5480.94 1818.00,5480.94              1818.00,5480.94 1808.00,5480.94 1808.00,5480.94              1808.00,5480.94 1799.00,5482.71 1799.00,5482.71              1799.00,5482.71 1778.00,5484.00 1778.00,5484.00              1778.00,5484.00 1758.00,5483.00 1758.00,5483.00              1758.00,5483.00 1742.00,5483.00 1742.00,5483.00              1742.00,5483.00 1702.00,5487.93 1702.00,5487.93              1695.03,5489.82 1691.73,5493.77 1687.00,5494.73              1687.00,5494.73 1679.00,5495.28 1679.00,5495.28              1679.00,5495.28 1663.00,5497.84 1663.00,5497.84              1663.00,5497.84 1647.00,5499.46 1647.00,5499.46              1647.00,5499.46 1625.00,5505.54 1625.00,5505.54              1617.71,5506.83 1591.91,5507.55 1584.00,5507.26              1584.00,5507.26 1560.00,5504.29 1560.00,5504.29              1560.00,5504.29 1545.00,5502.70 1545.00,5502.70              1545.00,5502.70 1538.00,5501.30 1538.00,5501.30              1538.00,5501.30 1527.00,5500.72 1527.00,5500.72              1527.00,5500.72 1510.00,5497.98 1510.00,5497.98              1510.00,5497.98 1501.00,5497.98 1501.00,5497.98              1494.64,5497.07 1492.72,5492.57 1481.00,5493.04              1472.57,5493.38 1465.68,5498.40 1456.00,5497.68              1456.00,5497.68 1441.00,5496.83 1441.00,5496.83              1441.00,5496.83 1430.00,5495.04 1430.00,5495.04              1423.04,5494.81 1420.63,5497.01 1416.00,5496.40              1420.16,5496.95 1395.38,5492.25 1400.00,5493.51              1393.62,5491.78 1392.65,5488.02 1378.00,5488.00              1378.00,5488.00 1369.00,5488.00 1369.00,5488.00              1357.57,5488.05 1347.34,5491.46 1345.00,5491.51              1345.00,5491.51 1319.00,5489.00 1319.00,5489.00              1319.00,5489.00 1310.00,5489.51 1310.00,5489.51              1304.37,5489.13 1304.48,5486.86 1292.00,5487.00              1292.00,5487.00 1273.00,5489.00 1273.00,5489.00              1273.00,5489.00 1237.00,5488.00 1237.00,5488.00              1237.00,5488.00 1210.00,5485.96 1210.00,5485.96              1210.00,5485.96 1200.00,5485.96 1200.00,5485.96              1200.00,5485.96 1182.00,5484.00 1182.00,5484.00              1165.94,5483.82 1168.98,5482.45 1157.00,5481.00              1157.00,5481.00 1148.00,5481.00 1148.00,5481.00              1142.30,5480.22 1141.28,5478.76 1134.00,5479.04              1130.99,5479.16 1128.00,5480.00 1125.00,5479.64              1121.36,5479.20 1118.15,5477.29 1112.00,5477.04              1112.00,5477.04 1098.00,5477.81 1098.00,5477.81              1094.87,5478.03 1087.76,5478.16 1085.00,5477.81              1077.25,5476.14 1074.09,5473.73 1065.00,5473.93              1065.00,5473.93 1044.00,5473.93 1044.00,5473.93              1036.54,5473.03 1038.96,5471.88 1028.00,5472.00              1028.00,5472.00 1018.00,5473.04 1018.00,5473.04              1018.00,5473.04 1009.00,5473.04 1009.00,5473.04              1009.00,5473.04 990.00,5475.26 990.00,5475.26              977.89,5474.82 980.77,5476.30 971.00,5477.94              971.00,5477.94 955.00,5477.94 955.00,5477.94              955.00,5477.94 943.00,5480.82 943.00,5480.82              943.00,5480.82 922.00,5481.83 922.00,5481.83              911.18,5481.77 916.02,5480.63 902.00,5481.83              892.92,5482.35 881.36,5476.20 872.00,5476.02              858.78,5475.75 857.86,5480.86 851.00,5480.86              845.23,5480.86 836.82,5476.61 829.00,5477.09              829.00,5477.09 816.00,5478.98 816.00,5478.98              816.00,5478.98 792.00,5477.00 792.00,5477.00              792.00,5477.00 771.00,5477.00 771.00,5477.00              771.00,5477.00 754.00,5478.82 754.00,5478.82              754.00,5478.82 740.00,5478.00 740.00,5478.00              730.52,5478.12 730.30,5480.16 723.00,5481.53              723.00,5481.53 711.00,5482.83 711.00,5482.83              711.00,5482.83 691.00,5484.09 691.00,5484.09              691.00,5484.09 681.00,5485.00 681.00,5485.00              681.00,5485.00 646.00,5488.00 646.00,5488.00              646.00,5488.00 630.00,5487.04 630.00,5487.04              630.00,5487.04 618.00,5487.96 618.00,5487.96              618.00,5487.96 602.00,5485.04 602.00,5485.04              602.00,5485.04 583.00,5487.00 583.00,5487.00              583.00,5487.00 570.00,5487.00 570.00,5487.00              570.00,5487.00 550.00,5488.00 550.00,5488.00              550.00,5488.00 533.00,5489.00 533.00,5489.00              533.00,5489.00 513.00,5489.00 513.00,5489.00              513.00,5489.00 495.00,5490.00 495.00,5490.00              495.00,5490.00 481.00,5489.04 481.00,5489.04              481.00,5489.04 468.00,5490.79 468.00,5490.79              468.00,5490.79 455.00,5490.00 455.00,5490.00              455.00,5490.00 431.00,5491.96 431.00,5491.96              431.00,5491.96 418.00,5491.00 418.00,5491.00              418.00,5491.00 402.00,5491.00 402.00,5491.00              395.42,5490.92 392.11,5489.48 385.00,5490.17              385.00,5490.17 362.00,5492.68 362.00,5492.68              362.00,5492.68 337.00,5492.00 337.00,5492.00              319.86,5491.97 322.19,5486.57 310.00,5486.04              300.10,5485.61 290.96,5490.52 281.00,5489.82              281.00,5489.82 264.00,5488.61 264.00,5488.61              264.00,5488.61 254.00,5485.47 254.00,5485.47              254.00,5485.47 232.00,5481.56 232.00,5481.56              232.00,5481.56 214.00,5475.80 214.00,5475.80              214.00,5475.80 205.00,5471.75 205.00,5471.75              205.00,5471.75 189.00,5467.46 189.00,5467.46              183.58,5466.48 181.42,5467.72 176.00,5464.64              170.04,5461.25 163.92,5453.09 158.00,5448.53              158.00,5448.53 143.00,5438.91 143.00,5438.91              139.98,5437.30 136.87,5436.78 134.17,5434.57              123.91,5426.19 121.98,5418.74 114.67,5410.00              112.23,5407.09 109.27,5404.44 106.00,5402.48              103.47,5400.96 99.89,5400.11 98.30,5397.70              98.30,5397.70 94.56,5388.00 94.56,5388.00              92.97,5384.39 89.98,5380.50 89.27,5377.00              88.59,5373.59 89.69,5371.12 87.56,5364.00              85.36,5356.64 81.93,5353.95 81.14,5351.00              80.53,5348.71 81.33,5347.10 82.10,5345.00              85.26,5336.41 86.77,5339.04 92.96,5333.67              99.00,5328.43 102.36,5321.01 101.91,5313.00              101.91,5313.00 99.07,5283.00 99.07,5283.00              97.38,5276.82 90.51,5267.13 88.70,5257.00              88.08,5253.53 89.87,5248.86 89.99,5244.00              90.27,5231.63 87.05,5230.55 85.49,5225.00              85.49,5225.00 83.12,5213.00 83.12,5213.00              81.77,5207.88 78.78,5197.98 79.19,5193.00              79.19,5193.00 80.92,5184.00 80.92,5184.00              80.92,5184.00 80.92,5165.00 80.92,5165.00              80.92,5165.00 81.96,5152.00 81.96,5152.00              81.96,5152.00 80.96,5144.00 80.96,5144.00              80.96,5144.00 80.96,5135.00 80.96,5135.00              80.96,5135.00 79.69,5127.00 79.69,5127.00              79.69,5127.00 79.69,5115.00 79.69,5115.00              79.69,5115.00 77.14,5102.00 77.14,5102.00              76.90,5097.05 79.31,5093.64 78.91,5087.00              78.91,5087.00 77.39,5078.00 77.39,5078.00              77.39,5078.00 78.00,5060.00 78.00,5060.00              78.00,5060.00 77.00,5042.00 77.00,5042.00              77.00,5042.00 75.00,5011.00 75.00,5011.00              75.00,5011.00 75.91,4998.00 75.91,4998.00              75.91,4998.00 74.17,4988.00 74.17,4988.00              74.17,4988.00 73.00,4968.00 73.00,4968.00              73.00,4968.00 71.00,4939.00 71.00,4939.00              70.80,4921.69 68.99,4927.56 67.33,4918.00              67.33,4918.00 65.83,4900.00 65.83,4900.00              65.83,4900.00 64.17,4891.00 64.17,4891.00              64.17,4891.00 63.00,4870.00 63.00,4870.00              63.00,4870.00 56.18,4820.00 56.18,4820.00              56.18,4820.00 56.96,4808.00 56.96,4808.00              56.72,4802.35 55.47,4799.55 56.17,4793.00              57.01,4785.16 60.34,4781.70 59.96,4772.00              59.96,4772.00 59.09,4761.00 59.09,4761.00              59.09,4761.00 60.15,4751.00 60.15,4751.00              60.15,4751.00 60.15,4742.00 60.15,4742.00              61.08,4736.49 61.92,4736.79 62.00,4730.00              62.10,4721.45 59.45,4712.01 63.43,4704.04              65.49,4699.90 69.22,4698.69 72.82,4694.91              77.97,4689.50 81.37,4681.53 80.91,4674.00              80.42,4666.10 77.69,4664.25 74.67,4658.00              74.67,4658.00 69.78,4643.00 69.78,4643.00              67.64,4636.54 64.38,4631.65 65.68,4624.00              65.68,4624.00 67.32,4618.00 67.32,4618.00              67.32,4618.00 68.38,4611.00 68.38,4611.00              69.48,4606.12 73.35,4599.07 76.28,4595.00              83.03,4585.65 93.51,4578.29 94.83,4566.00              96.92,4546.41 81.96,4547.15 83.32,4530.00              83.32,4530.00 85.96,4514.00 85.96,4514.00              86.16,4508.00 84.78,4506.17 84.17,4501.00              84.17,4501.00 81.54,4479.00 81.54,4479.00              79.97,4471.12 75.79,4466.01 74.87,4457.00              74.87,4457.00 74.87,4445.00 74.87,4445.00              74.66,4441.57 73.50,4438.47 73.84,4435.00              73.84,4435.00 75.70,4426.00 75.70,4426.00              75.70,4426.00 76.99,4405.00 76.99,4405.00              76.99,4405.00 76.00,4388.00 76.00,4388.00              76.00,4388.00 74.84,4377.00 74.84,4377.00              74.84,4377.00 74.84,4368.00 74.84,4368.00              74.84,4368.00 74.84,4360.00 74.84,4360.00              74.84,4360.00 74.00,4342.00 74.00,4342.00              73.98,4331.34 71.90,4330.06 71.84,4326.00              71.84,4326.00 73.83,4309.00 73.83,4309.00              73.83,4309.00 74.91,4281.00 74.91,4281.00              74.42,4273.12 69.89,4267.78 70.21,4261.00              70.67,4251.16 75.57,4237.12 79.52,4228.00              79.52,4228.00 83.05,4221.00 83.05,4221.00              84.93,4216.51 87.12,4206.86 86.96,4202.00              86.58,4190.72 80.61,4187.85 79.30,4182.00              79.30,4182.00 78.70,4170.00 78.70,4170.00              78.70,4170.00 74.46,4153.00 74.46,4153.00              74.46,4153.00 73.53,4139.00 73.53,4139.00              72.39,4132.95 69.99,4130.95 69.28,4127.00              67.28,4115.96 77.75,4111.80 76.91,4098.00              76.31,4088.22 70.81,4083.27 71.55,4076.00              72.24,4069.24 73.09,4067.66 73.00,4060.00              72.86,4048.83 69.53,4047.98 68.89,4043.00              68.89,4043.00 68.89,4028.00 68.89,4028.00              69.09,4020.28 71.09,4015.32 72.39,4008.00              72.39,4008.00 75.00,3984.00 75.00,3984.00              75.00,3984.00 76.30,3963.00 76.30,3963.00              78.18,3949.83 80.16,3943.01 80.00,3929.00              80.00,3929.00 77.17,3906.00 77.17,3906.00              77.17,3906.00 75.54,3888.00 75.54,3888.00              75.54,3888.00 72.10,3871.00 72.10,3871.00              71.81,3864.97 74.55,3859.88 74.91,3854.00              74.91,3854.00 72.09,3827.00 72.09,3827.00              72.47,3820.28 73.56,3813.80 72.83,3807.00              72.83,3807.00 70.09,3794.00 70.09,3794.00              70.09,3794.00 70.91,3780.00 70.91,3780.00              70.59,3774.86 68.84,3772.06 68.46,3769.00              68.46,3769.00 69.00,3757.00 69.00,3757.00              69.03,3742.92 72.16,3746.43 72.00,3732.00              72.00,3732.00 70.08,3712.00 70.08,3712.00              68.97,3707.79 65.54,3701.42 65.51,3698.00              65.44,3689.70 70.36,3682.06 70.75,3674.00              70.75,3674.00 70.75,3664.00 70.75,3664.00              70.75,3664.00 72.00,3637.00 72.00,3637.00              71.95,3625.47 68.81,3624.43 68.19,3617.00              68.19,3617.00 71.17,3577.00 71.17,3577.00              71.71,3571.94 73.16,3570.16 72.96,3564.00              72.75,3557.73 70.83,3555.45 70.21,3551.00              70.21,3551.00 68.54,3527.00 68.54,3527.00              67.52,3521.34 64.88,3515.89 65.32,3510.00              65.32,3510.00 66.30,3498.00 66.30,3498.00              66.99,3493.13 68.15,3491.67 67.96,3486.00              67.75,3479.73 65.83,3477.43 64.98,3473.00              64.98,3473.00 64.98,3456.00 64.98,3456.00              64.98,3456.00 65.51,3445.00 65.51,3445.00              65.51,3445.00 70.78,3434.00 70.78,3434.00              72.74,3427.86 71.48,3424.30 72.39,3420.00              74.00,3412.38 77.39,3409.02 76.96,3398.00              76.85,3395.02 75.62,3384.66 74.78,3382.00              74.78,3382.00 71.14,3373.00 71.14,3373.00              71.14,3373.00 71.14,3357.00 71.14,3357.00              70.93,3342.68 66.44,3345.89 66.71,3334.00              67.09,3329.64 65.72,3325.23 66.71,3322.00              66.71,3322.00 69.78,3314.00 69.78,3314.00              69.78,3314.00 73.91,3289.00 73.91,3289.00              73.91,3289.00 69.30,3264.00 69.30,3264.00              69.30,3264.00 69.88,3253.00 69.88,3253.00              69.88,3253.00 69.88,3242.00 69.88,3242.00              69.88,3242.00 69.88,3231.00 69.88,3231.00              69.88,3231.00 68.26,3221.00 68.26,3221.00              68.13,3217.54 69.40,3215.09 68.83,3209.00              68.83,3209.00 66.26,3192.00 66.26,3192.00              66.26,3192.00 67.00,3180.00 67.00,3180.00              67.03,3163.60 70.85,3167.86 71.00,3155.00              71.13,3143.81 71.30,3132.08 69.70,3121.00              68.47,3112.43 64.63,3109.19 65.43,3104.00              66.19,3099.08 70.08,3095.58 68.83,3084.00              67.82,3074.71 62.06,3068.94 61.14,3065.00              60.52,3062.33 61.73,3058.91 61.91,3056.00              62.44,3047.26 58.45,3043.25 58.42,3039.00              58.42,3039.00 61.60,3025.00 61.60,3025.00              61.60,3025.00 61.60,3008.00 61.60,3008.00              61.60,3008.00 69.14,2991.00 69.14,2991.00              74.33,2976.26 74.18,2972.23 74.00,2957.00              73.83,2943.12 68.06,2942.46 67.13,2935.00              66.47,2929.67 68.87,2924.17 67.70,2916.00              67.70,2916.00 66.17,2908.00 66.17,2908.00              66.17,2908.00 65.32,2899.00 65.32,2899.00              64.21,2894.17 62.15,2891.96 62.10,2889.00              62.10,2889.00 64.85,2878.00 64.85,2878.00              64.85,2878.00 64.85,2861.00 64.85,2861.00              64.85,2861.00 65.96,2847.00 65.96,2847.00              65.96,2847.00 65.00,2834.00 65.00,2834.00              65.00,2834.00 65.91,2817.00 65.91,2817.00              65.91,2817.00 62.09,2795.00 62.09,2795.00              62.09,2795.00 64.83,2776.00 64.83,2776.00              65.47,2770.02 64.43,2769.09 66.12,2761.00              66.12,2761.00 68.32,2753.00 68.32,2753.00              69.25,2748.95 70.95,2736.12 71.00,2732.00              71.17,2716.96 65.83,2710.95 64.73,2699.00              64.73,2699.00 64.73,2689.00 64.73,2689.00              64.73,2689.00 63.34,2669.00 63.34,2669.00              63.34,2669.00 64.00,2656.00 64.00,2656.00              64.13,2646.73 67.54,2644.92 71.14,2637.00              75.53,2627.32 74.33,2628.03 76.59,2619.00              78.07,2613.10 80.30,2608.35 79.91,2602.00              79.24,2591.25 72.22,2586.20 69.84,2580.00              69.01,2577.85 69.05,2576.19 68.71,2574.00              66.90,2562.66 67.13,2563.36 67.00,2552.00              66.94,2547.43 64.17,2528.02 62.53,2524.00              60.24,2518.41 57.18,2515.89 56.28,2513.00              56.28,2513.00 57.00,2500.00 57.00,2500.00              57.00,2500.00 56.19,2480.00 56.19,2480.00              56.71,2473.72 59.65,2468.65 61.99,2463.00              61.99,2463.00 68.89,2442.00 68.89,2442.00              70.60,2436.82 72.51,2433.79 72.91,2428.00              73.72,2416.14 65.70,2405.29 64.41,2400.00              64.41,2400.00 63.54,2390.00 63.54,2390.00              63.54,2390.00 59.21,2368.00 59.21,2368.00              59.21,2368.00 59.96,2357.00 59.96,2357.00              59.77,2351.41 58.08,2349.32 58.55,2345.00              59.81,2333.39 71.71,2323.10 70.91,2310.00              70.32,2300.42 65.28,2296.71 63.13,2292.00              61.97,2289.46 61.16,2282.91 61.04,2280.00              60.53,2267.90 64.79,2271.46 65.00,2253.00              65.00,2253.00 65.97,2241.00 65.97,2241.00              65.97,2241.00 65.09,2229.00 65.09,2229.00              65.09,2229.00 66.91,2214.00 66.91,2214.00              66.91,2214.00 66.91,2201.00 66.91,2201.00              66.91,2201.00 62.21,2173.00 62.21,2173.00              61.93,2167.45 64.30,2165.37 63.96,2157.00              63.70,2150.47 61.57,2147.77 61.30,2144.00              61.30,2144.00 62.91,2127.00 62.91,2127.00              62.57,2121.54 60.43,2118.56 60.73,2115.00              61.16,2109.90 63.98,2109.55 63.87,2097.00              63.87,2097.00 63.87,2082.00 63.87,2082.00              63.87,2082.00 63.87,2072.00 63.87,2072.00              63.96,2066.15 65.10,2066.48 65.00,2057.00              65.00,2057.00 64.21,2046.00 64.21,2046.00              64.21,2046.00 65.54,2039.00 65.54,2039.00              65.54,2039.00 66.91,2026.00 66.91,2026.00              67.27,2019.59 65.15,2016.40 65.44,2013.00              65.72,2009.73 68.85,2005.71 69.70,2000.00              70.54,1994.36 71.50,1979.44 70.70,1974.00              69.99,1969.17 68.12,1966.20 67.73,1964.00              67.11,1960.44 69.17,1957.36 70.07,1954.00              71.07,1950.29 70.99,1947.76 71.00,1944.00              71.03,1923.16 68.17,1930.31 65.46,1915.00              65.46,1915.00 63.71,1893.00 63.71,1893.00              63.71,1893.00 60.52,1881.00 60.52,1881.00              60.52,1881.00 59.83,1868.00 59.83,1868.00              59.18,1861.32 57.39,1854.78 57.80,1848.00              57.80,1848.00 59.91,1837.00 59.91,1837.00              59.91,1837.00 59.08,1825.00 59.08,1825.00              59.08,1825.00 61.21,1805.00 61.21,1805.00              61.95,1800.10 65.04,1796.70 65.91,1784.00              66.18,1780.01 66.11,1774.85 65.07,1771.00              63.97,1766.90 62.08,1764.46 62.13,1760.00              62.13,1760.00 65.09,1731.00 65.09,1731.00              66.03,1726.00 67.78,1722.23 67.96,1717.00              68.27,1707.61 64.39,1704.75 64.04,1696.00              63.67,1686.95 66.32,1682.98 68.78,1675.00              69.70,1672.01 69.89,1668.82 71.30,1666.00              71.30,1666.00 76.53,1658.00 76.53,1658.00              81.45,1649.70 84.98,1640.68 85.00,1631.00              85.00,1631.00 85.00,1603.00 85.00,1603.00              85.00,1603.00 84.04,1590.00 84.04,1590.00              83.63,1579.36 89.43,1576.78 91.96,1567.00              94.67,1557.39 91.37,1550.05 91.96,1545.00              92.20,1541.09 93.20,1539.79 92.91,1535.00              92.53,1528.84 89.96,1523.56 85.82,1519.04              83.77,1516.81 79.63,1513.98 78.56,1511.68              77.59,1509.60 78.06,1505.91 75.18,1500.00              75.18,1500.00 69.47,1491.00 69.47,1491.00              69.47,1491.00 63.13,1476.00 63.13,1476.00              61.27,1466.20 63.19,1462.68 63.13,1454.00              62.78,1445.18 60.09,1443.28 59.65,1439.00              59.65,1439.00 59.65,1425.00 59.65,1425.00              59.65,1425.00 57.14,1413.00 57.14,1413.00              57.14,1413.00 59.97,1387.00 59.97,1387.00              59.97,1379.27 57.15,1376.65 57.08,1371.00              57.08,1371.00 57.84,1364.00 57.84,1364.00              57.84,1364.00 59.00,1346.00 59.00,1346.00              59.00,1346.00 58.00,1333.00 58.00,1333.00              58.00,1333.00 58.00,1308.00 58.00,1308.00              58.00,1308.00 60.96,1284.00 60.96,1284.00              60.96,1284.00 60.04,1273.00 60.04,1273.00              60.04,1273.00 60.04,1263.00 60.04,1263.00              60.04,1263.00 58.04,1248.00 58.04,1248.00              58.04,1248.00 59.00,1231.00 59.00,1231.00              59.00,1231.00 59.00,1212.00 59.00,1212.00              59.00,1212.00 59.96,1196.00 59.96,1196.00              59.96,1196.00 59.96,1183.00 59.96,1183.00              59.96,1183.00 59.18,1176.00 59.18,1176.00              59.18,1176.00 59.99,1163.00 59.99,1163.00              59.79,1155.06 57.47,1153.10 57.12,1148.00              57.12,1148.00 58.00,1132.00 58.00,1132.00              58.00,1132.00 59.04,1120.00 59.04,1120.00              59.04,1120.00 59.04,1112.00 59.04,1112.00              59.04,1112.00 59.97,1104.00 59.97,1104.00              59.97,1096.26 57.21,1094.25 57.02,1087.00              57.02,1087.00 58.00,1067.00 58.00,1067.00              58.00,1067.00 57.47,1058.00 57.47,1058.00              57.47,1058.00 58.91,1050.00 58.91,1050.00              58.91,1050.00 58.91,1035.00 58.91,1035.00              58.91,1035.00 57.08,1015.00 57.08,1015.00              57.08,1015.00 57.08,1004.00 57.08,1004.00              57.08,1004.00 55.26,989.00 55.26,989.00              55.26,989.00 56.30,973.00 56.30,973.00              57.22,966.54 58.91,964.57 58.85,957.00              58.85,957.00 58.85,944.00 58.85,944.00              58.85,944.00 57.17,936.00 57.17,936.00              57.17,936.00 56.53,926.00 56.53,926.00              56.53,926.00 53.48,916.00 53.48,916.00              53.48,916.00 54.00,906.00 54.00,906.00              54.00,906.00 53.32,892.00 53.32,892.00              53.52,889.38 54.18,882.15 54.99,880.00              54.99,880.00 58.60,873.00 58.60,873.00              60.91,868.10 63.24,860.43 62.91,855.00              62.56,849.35 60.93,847.70 59.63,843.00              59.63,843.00 54.47,817.00 54.47,817.00              54.47,817.00 55.95,805.00 55.95,805.00              55.95,805.00 55.95,781.00 55.95,781.00              55.89,772.22 53.50,770.05 53.51,766.00              53.51,762.81 56.27,755.03 55.96,747.00              55.63,738.43 53.61,737.48 55.20,727.00              55.20,727.00 59.54,709.00 59.54,709.00              59.54,709.00 62.29,687.00 62.29,687.00              62.90,683.10 63.81,681.36 63.96,677.00              64.17,670.50 60.22,658.40 59.02,651.00              59.02,651.00 59.02,636.00 59.02,636.00              59.02,636.00 60.30,619.00 60.30,619.00              61.31,611.91 61.99,613.61 61.85,605.00              61.85,605.00 61.85,587.00 61.85,587.00              60.70,580.20 57.95,575.89 58.51,567.00              58.51,567.00 59.91,549.00 59.91,549.00              59.65,544.44 58.35,540.87 59.39,536.00              60.54,530.55 63.87,527.82 64.00,517.00              64.00,517.00 65.91,485.00 65.91,485.00              65.91,485.00 59.18,456.00 59.18,456.00              59.18,456.00 57.18,429.00 57.18,429.00              57.18,429.00 57.98,421.00 57.98,421.00              57.98,421.00 57.98,404.00 57.98,404.00              58.13,393.43 61.11,391.59 62.53,384.00              62.53,384.00 63.96,357.00 63.96,357.00              63.58,347.68 57.28,338.89 57.27,333.00              57.27,333.00 58.97,316.00 58.97,316.00              61.33,309.35 66.51,305.67 65.91,295.00              65.76,292.36 64.97,289.58 65.25,287.00              65.25,287.00 68.53,276.00 68.53,276.00              68.53,276.00 69.39,269.00 69.39,269.00              69.39,269.00 72.07,261.00 72.07,261.00              72.07,261.00 73.92,252.00 73.92,252.00              73.92,252.00 78.48,238.00 78.48,238.00              80.56,231.53 82.09,225.22 85.04,219.00              85.04,219.00 90.44,209.00 90.44,209.00              90.44,209.00 92.69,199.00 92.69,199.00              92.69,199.00 100.00,181.00 100.00,181.00              100.00,181.00 106.89,172.00 106.89,172.00              106.89,172.00 111.56,163.04 111.56,163.04              114.48,159.00 122.75,154.25 127.00,150.68              127.00,150.68 136.17,141.51 136.17,141.51              136.17,141.51 146.99,132.72 146.99,132.72              146.99,132.72 153.28,126.81 153.28,126.81              154.85,125.66 168.06,120.02 170.00,119.49              170.00,119.49 178.00,118.32 178.00,118.32              178.00,118.32 198.00,111.60 198.00,111.60              201.58,110.74 203.58,111.17 207.00,110.83              207.00,110.83 221.00,108.32 221.00,108.32              221.00,108.32 231.00,104.49 231.00,104.49              231.00,104.49 241.00,103.32 241.00,103.32              243.81,102.68 247.40,100.86 250.00,101.02              250.00,101.02 263.00,104.85 263.00,104.85              271.47,107.04 273.88,105.28 278.00,105.92              281.75,106.49 285.50,109.37 293.00,108.91              293.00,108.91 302.00,107.30 302.00,107.30              310.39,106.10 309.48,108.42 324.00,104.09              330.35,102.19 332.49,99.36 336.00,98.75              338.23,98.11 340.72,98.78 343.00,98.75              354.81,99.55 359.07,94.93 368.00,91.81              368.00,91.81 386.00,87.96 386.00,87.96              386.00,87.96 402.00,87.96 402.00,87.96              402.00,87.96 413.00,86.09 413.00,86.09              413.00,86.09 424.00,86.09 424.00,86.09              424.00,86.09 449.00,83.18 449.00,83.18              449.00,83.18 472.00,84.91 472.00,84.91              472.00,84.91 481.00,83.40 481.00,83.40              484.89,83.28 488.55,84.86 496.00,83.40              506.24,81.23 506.81,78.05 517.00,78.00              517.00,78.00 536.00,78.00 536.00,78.00              542.29,77.92 546.39,76.46 553.00,77.17              563.79,78.33 574.09,82.45 585.00,81.96              585.00,81.96 611.00,77.79 611.00,77.79              611.00,77.79 623.00,73.19 623.00,73.19              625.72,72.81 630.99,73.03 634.00,73.19              634.00,73.19 658.00,71.00 658.00,71.00              658.00,71.00 711.00,71.00 711.00,71.00              715.38,70.99 728.14,70.01 732.00,68.78              732.00,68.78 745.00,62.78 745.00,62.78              753.89,60.13 760.04,61.81 767.00,60.33              767.00,60.33 792.00,52.39 792.00,52.39              801.10,50.45 808.51,54.30 817.00,53.96              825.70,53.61 826.57,50.17 835.96,53.96              841.44,56.18 842.20,58.75 847.00,61.89              852.01,65.17 857.09,66.20 863.00,65.96              872.07,65.59 873.10,62.85 880.00,59.75              880.00,59.75 895.00,54.57 895.00,54.57              898.04,54.42 907.54,57.28 911.00,58.10              917.25,59.59 919.21,58.53 924.00,59.21              929.05,59.92 931.30,62.30 940.00,61.96              940.00,61.96 948.00,61.09 948.00,61.09              948.00,61.09 967.00,59.83 967.00,59.83              972.83,59.14 973.87,57.76 981.00,58.04              981.00,58.04 995.00,59.96 995.00,59.96              995.00,59.96 1004.00,59.96 1004.00,59.96              1004.00,59.96 1017.00,61.00 1017.00,61.00              1017.00,61.00 1043.00,63.96 1043.00,63.96              1043.00,63.96 1072.00,59.17 1072.00,59.17              1079.10,58.48 1082.43,59.92 1089.00,60.00              1089.00,60.00 1114.00,62.83 1114.00,62.83              1114.00,62.83 1137.00,65.88 1137.00,65.88              1139.66,66.82 1154.81,77.20 1167.00,81.25              1167.00,81.25 1191.00,87.54 1191.00,87.54              1191.00,87.54 1198.00,88.37 1198.00,88.37              1198.00,88.37 1208.00,90.67 1208.00,90.67              1208.00,90.67 1220.00,90.67 1220.00,90.67              1220.00,90.67 1243.00,92.96 1243.00,92.96              1243.00,92.96 1262.00,91.00 1262.00,91.00              1262.00,91.00 1280.00,91.00 1280.00,91.00              1280.00,91.00 1289.00,90.34 1289.00,90.34              1289.00,90.34 1299.00,91.00 1299.00,91.00              1299.00,91.00 1327.00,91.00 1327.00,91.00              1327.00,91.00 1340.00,91.91 1340.00,91.91              1340.00,91.91 1356.00,91.00 1356.00,91.00              1356.00,91.00 1382.00,89.01 1382.00,89.01              1382.00,89.01 1402.00,90.96 1402.00,90.96              1409.02,90.68 1410.14,89.05 1416.00,86.77              1420.55,85.01 1422.91,85.55 1428.00,82.52              1439.98,75.38 1443.34,65.07 1441.00,52.00 Z"
            style="fill:#000000;fill-opacity:1"/>
</svg>
