<?xml version="1.0" encoding="UTF-8" standalone="no"?>
<svg
        width="174.033mm"
        height="125.773mm"
        viewBox="0 0 8222 5942"
        version="1.1"
        id="svg1587"
        sodipodi:docname="sheet14a.svg"
        inkscape:version="1.1.1 (3bf5ae0d25, 2021-09-20)"
        xmlns:inkscape="http://www.inkscape.org/namespaces/inkscape"
        xmlns:sodipodi="http://sodipodi.sourceforge.net/DTD/sodipodi-0.dtd"
        xmlns="http://www.w3.org/2000/svg"
>
    <defs
            id="defs1591"/>
    <sodipodi:namedview
            id="namedview1589"
            pagecolor="#ffffff"
            bordercolor="#666666"
            borderopacity="1.0"
            inkscape:pageshadow="2"
            inkscape:pageopacity="0.0"
            inkscape:pagecheckerboard="0"
            inkscape:document-units="mm"
            showgrid="false"
            inkscape:zoom="1.6084832"
            inkscape:cx="328.57042"
            inkscape:cy="237.80167"
            inkscape:window-width="1920"
            inkscape:window-height="1001"
            inkscape:window-x="-7"
            inkscape:window-y="-7"
            inkscape:window-maximized="1"
            inkscape:current-layer="svg1587"/>
    <path
            id="Selection #1"
            fill="none"
            stroke="black"
            stroke-width="1"
            d="M 3001.00,5874.00            C 3001.00,5874.00 2992.91,5863.09 2992.91,5863.09              2986.10,5856.28 2975.58,5852.11 2966.00,5852.00              2966.00,5852.00 2939.00,5853.68 2939.00,5853.68              2939.00,5853.68 2921.00,5853.00 2921.00,5853.00              2921.00,5853.00 2904.41,5854.39 2904.41,5854.39              2902.16,5853.43 2900.41,5848.24 2899.12,5846.00              2896.09,5840.74 2893.18,5837.97 2888.00,5834.86              2881.37,5830.89 2877.72,5828.84 2870.00,5827.46              2865.39,5826.64 2855.13,5825.99 2851.00,5824.42              2851.00,5824.42 2838.00,5815.48 2838.00,5815.48              2831.97,5811.95 2824.86,5811.01 2818.00,5811.00              2818.00,5811.00 2796.00,5811.00 2796.00,5811.00              2796.00,5811.00 2780.00,5812.63 2780.00,5812.63              2780.00,5812.63 2770.00,5812.04 2770.00,5812.04              2770.00,5812.04 2757.00,5813.00 2757.00,5813.00              2744.52,5813.02 2725.66,5812.13 2714.00,5814.46              2714.00,5814.46 2687.00,5825.13 2687.00,5825.13              2687.00,5825.13 2674.00,5826.68 2674.00,5826.68              2668.39,5827.97 2665.99,5830.37 2662.00,5830.70              2662.00,5830.70 2640.00,5829.04 2640.00,5829.04              2640.00,5829.04 2630.00,5829.66 2630.00,5829.66              2630.00,5829.66 2611.00,5828.00 2611.00,5828.00              2611.00,5828.00 2593.00,5829.00 2593.00,5829.00              2593.00,5829.00 2577.00,5828.01 2577.00,5828.01              2569.24,5827.84 2569.51,5828.77 2563.00,5829.70              2563.00,5829.70 2549.00,5830.90 2549.00,5830.90              2549.00,5830.90 2539.00,5830.02 2539.00,5830.02              2539.00,5830.02 2523.00,5830.02 2523.00,5830.02              2520.44,5829.97 2508.09,5829.07 2506.49,5827.98              2504.81,5826.82 2503.15,5822.91 2501.89,5821.00              2499.32,5817.11 2496.01,5813.87 2492.00,5811.48              2484.12,5806.78 2475.60,5808.72 2466.00,5805.39              2459.36,5803.09 2455.01,5797.26 2445.00,5796.17              2432.96,5794.87 2427.74,5799.51 2417.00,5802.80              2401.57,5807.52 2403.02,5807.18 2387.00,5807.00              2387.00,5807.00 2373.00,5806.04 2373.00,5806.04              2365.89,5806.33 2366.77,5808.05 2355.00,5808.00              2355.00,5808.00 2339.00,5807.00 2339.00,5807.00              2339.00,5807.00 2316.00,5808.99 2316.00,5808.99              2316.00,5808.99 2293.00,5807.00 2293.00,5807.00              2293.00,5807.00 2264.00,5807.00 2264.00,5807.00              2264.00,5807.00 2247.00,5806.00 2247.00,5806.00              2247.00,5806.00 2160.00,5806.00 2160.00,5806.00              2160.00,5806.00 2134.00,5807.90 2134.00,5807.90              2134.00,5807.90 2122.00,5807.00 2122.00,5807.00              2122.00,5807.00 2094.00,5809.00 2094.00,5809.00              2094.00,5809.00 2081.00,5809.00 2081.00,5809.00              2081.00,5809.00 2065.00,5810.00 2065.00,5810.00              2065.00,5810.00 2028.00,5810.00 2028.00,5810.00              2028.00,5810.00 2016.00,5810.96 2016.00,5810.96              2016.00,5810.96 2002.00,5810.96 2002.00,5810.96              2002.00,5810.96 1992.00,5811.82 1992.00,5811.82              1992.00,5811.82 1981.00,5811.04 1981.00,5811.04              1970.26,5811.47 1964.44,5816.30 1960.00,5817.51              1960.00,5817.51 1937.00,5819.21 1937.00,5819.21              1931.27,5819.07 1927.82,5814.63 1923.00,5811.88              1918.30,5809.20 1908.40,5806.07 1903.00,5805.30              1903.00,5805.30 1894.00,5804.70 1894.00,5804.70              1886.57,5803.64 1886.14,5802.04 1877.00,5802.00              1877.00,5802.00 1857.00,5802.00 1857.00,5802.00              1857.00,5802.00 1844.00,5801.01 1844.00,5801.01              1844.00,5801.01 1811.00,5803.98 1811.00,5803.98              1804.95,5803.82 1804.20,5802.46 1799.00,5801.47              1792.43,5800.21 1785.67,5799.93 1779.00,5800.21              1779.00,5800.21 1758.00,5800.21 1758.00,5800.21              1758.00,5800.21 1749.00,5799.04 1749.00,5799.04              1749.00,5799.04 1734.00,5799.04 1734.00,5799.04              1725.24,5798.99 1724.31,5797.88 1717.00,5797.09              1717.00,5797.09 1702.00,5797.09 1702.00,5797.09              1702.00,5797.09 1692.00,5797.91 1692.00,5797.91              1692.00,5797.91 1659.00,5800.00 1659.00,5800.00              1659.00,5800.00 1646.00,5799.09 1646.00,5799.09              1646.00,5799.09 1635.00,5799.96 1635.00,5799.96              1635.00,5799.96 1622.00,5799.01 1622.00,5799.01              1622.00,5799.01 1609.00,5799.96 1609.00,5799.96              1609.00,5799.96 1601.00,5799.05 1601.00,5799.05              1601.00,5799.05 1585.00,5799.05 1585.00,5799.05              1585.00,5799.05 1572.00,5799.99 1572.00,5799.99              1572.00,5799.99 1557.00,5799.00 1557.00,5799.00              1557.00,5799.00 1539.00,5799.00 1539.00,5799.00              1539.00,5799.00 1523.00,5799.99 1523.00,5799.99              1523.00,5799.99 1509.00,5799.00 1509.00,5799.00              1509.00,5799.00 1471.00,5799.00 1471.00,5799.00              1471.00,5799.00 1447.00,5800.00 1447.00,5800.00              1447.00,5800.00 1427.00,5798.09 1427.00,5798.09              1427.00,5798.09 1406.00,5799.91 1406.00,5799.91              1406.00,5799.91 1396.00,5798.92 1396.00,5798.92              1396.00,5798.92 1384.00,5798.92 1384.00,5798.92              1384.00,5798.92 1365.00,5797.00 1365.00,5797.00              1365.00,5797.00 1346.00,5799.00 1346.00,5799.00              1346.00,5799.00 1342.00,5799.00 1342.00,5799.00              1342.00,5799.00 1324.00,5800.00 1324.00,5800.00              1324.00,5800.00 1306.00,5799.00 1306.00,5799.00              1306.00,5799.00 1293.00,5800.00 1293.00,5800.00              1293.00,5800.00 1277.00,5800.00 1277.00,5800.00              1277.00,5800.00 1265.00,5799.04 1265.00,5799.04              1265.00,5799.04 1249.00,5799.04 1249.00,5799.04              1249.00,5799.04 1235.00,5798.01 1235.00,5798.01              1235.00,5798.01 1220.00,5799.00 1220.00,5799.00              1220.00,5799.00 1174.00,5799.00 1174.00,5799.00              1174.00,5799.00 1156.00,5798.00 1156.00,5798.00              1156.00,5798.00 1146.00,5798.95 1146.00,5798.95              1146.00,5798.95 1133.00,5798.95 1133.00,5798.95              1133.00,5798.95 1116.00,5797.31 1116.00,5797.31              1116.00,5797.31 1110.00,5797.31 1110.00,5797.31              1110.00,5797.31 1103.00,5796.30 1103.00,5796.30              1103.00,5796.30 1086.00,5795.02 1086.00,5795.02              1086.00,5795.02 1064.00,5795.02 1064.00,5795.02              1064.00,5795.02 1047.00,5795.99 1047.00,5795.99              1047.00,5795.99 1035.00,5795.09 1035.00,5795.09              1028.38,5795.47 1009.20,5799.42 1003.00,5801.54              1003.00,5801.54 985.00,5807.62 985.00,5807.62              979.55,5808.83 972.60,5809.06 967.00,5809.00              967.00,5809.00 945.00,5807.00 945.00,5807.00              945.00,5807.00 918.00,5809.00 918.00,5809.00              918.00,5809.00 868.00,5809.00 868.00,5809.00              856.97,5809.02 852.97,5811.50 843.00,5814.22              843.00,5814.22 832.00,5815.89 832.00,5815.89              832.00,5815.89 816.00,5820.33 816.00,5820.33              816.00,5820.33 788.00,5823.26 788.00,5823.26              788.00,5823.26 768.00,5827.99 768.00,5827.99              768.00,5827.99 757.00,5829.68 757.00,5829.68              757.00,5829.68 748.00,5832.63 748.00,5832.63              743.52,5833.68 726.54,5835.99 722.00,5836.00              722.00,5836.00 684.00,5836.00 684.00,5836.00              666.70,5835.79 665.94,5828.91 654.00,5828.09              642.00,5827.27 640.88,5832.83 631.00,5833.00              631.00,5833.00 613.00,5833.00 613.00,5833.00              603.07,5832.98 605.01,5831.92 598.00,5831.17              598.00,5831.17 588.00,5830.56 588.00,5830.56              581.44,5829.53 579.18,5828.09 572.00,5828.00              572.00,5828.00 561.00,5828.00 561.00,5828.00              554.20,5827.92 554.51,5827.08 549.00,5826.06              549.00,5826.06 539.00,5826.06 539.00,5826.06              539.00,5826.06 529.00,5824.00 529.00,5824.00              529.00,5824.00 519.00,5824.00 519.00,5824.00              519.00,5824.00 465.00,5817.70 465.00,5817.70              452.71,5815.91 450.36,5811.02 436.00,5811.00              436.00,5811.00 402.00,5811.00 402.00,5811.00              402.00,5811.00 392.00,5810.09 392.00,5810.09              392.00,5810.09 366.00,5807.83 366.00,5807.83              355.31,5806.75 359.33,5806.15 346.00,5806.00              346.00,5806.00 336.00,5805.05 336.00,5805.05              336.00,5805.05 318.00,5805.05 318.00,5805.05              318.00,5805.05 305.00,5806.00 305.00,5806.00              305.00,5806.00 292.00,5806.00 292.00,5806.00              292.00,5806.00 254.00,5801.44 254.00,5801.44              254.00,5801.44 246.00,5800.67 246.00,5800.67              246.00,5800.67 235.00,5796.92 235.00,5796.92              226.06,5794.41 216.27,5793.05 207.00,5793.00              207.00,5793.00 177.00,5791.00 177.00,5791.00              177.00,5791.00 161.00,5790.00 161.00,5790.00              161.00,5790.00 131.00,5790.00 131.00,5790.00              114.75,5789.97 116.45,5783.94 105.00,5780.22              100.89,5778.89 90.67,5777.02 88.14,5773.57              86.02,5770.69 85.76,5761.90 85.28,5758.00              85.28,5758.00 82.37,5739.00 82.37,5739.00              82.37,5739.00 82.96,5731.00 82.96,5731.00              82.96,5731.00 82.96,5718.00 82.96,5718.00              82.96,5718.00 82.04,5707.00 82.04,5707.00              82.04,5707.00 82.04,5691.00 82.04,5691.00              82.04,5691.00 81.34,5682.00 81.34,5682.00              81.34,5682.00 82.96,5668.00 82.96,5668.00              82.96,5668.00 82.96,5645.00 82.96,5645.00              82.96,5645.00 83.96,5629.00 83.96,5629.00              83.58,5617.71 84.70,5620.68 84.71,5613.00              84.71,5613.00 84.71,5602.00 84.71,5602.00              84.71,5602.00 87.71,5584.00 87.71,5584.00              87.71,5584.00 88.28,5571.00 88.28,5571.00              89.43,5561.48 91.98,5554.74 92.00,5545.00              92.00,5545.00 92.00,5539.00 92.00,5539.00              92.00,5539.00 91.04,5529.00 91.04,5529.00              91.04,5529.00 91.04,5517.00 91.04,5517.00              91.04,5517.00 90.00,5501.00 90.00,5501.00              90.00,5501.00 91.96,5478.00 91.96,5478.00              91.96,5478.00 90.96,5470.00 90.96,5470.00              90.96,5470.00 90.96,5460.00 90.96,5460.00              90.16,5453.76 89.04,5454.43 89.00,5446.00              89.00,5446.00 89.00,5431.00 89.00,5431.00              89.00,5431.00 88.00,5414.00 88.00,5414.00              88.00,5414.00 89.99,5392.00 89.99,5392.00              89.99,5392.00 89.09,5383.00 89.09,5383.00              89.09,5383.00 87.83,5364.00 87.83,5364.00              87.83,5364.00 86.34,5355.00 86.34,5355.00              86.34,5355.00 86.91,5349.00 86.91,5349.00              87.15,5344.65 86.36,5342.90 85.94,5339.00              85.94,5339.00 85.94,5323.00 85.94,5323.00              85.94,5323.00 85.94,5308.00 85.94,5308.00              85.94,5308.00 85.08,5297.00 85.08,5297.00              85.08,5297.00 86.00,5284.00 86.00,5284.00              86.00,5284.00 86.00,5226.00 86.00,5226.00              86.00,5226.00 84.00,5207.00 84.00,5207.00              84.00,5207.00 84.00,5196.00 84.00,5196.00              84.00,5196.00 83.03,5188.00 83.03,5188.00              83.03,5188.00 86.00,5162.00 86.00,5162.00              86.00,5162.00 87.00,5136.00 87.00,5136.00              87.00,5136.00 87.99,5122.00 87.99,5122.00              87.99,5122.00 87.10,5112.00 87.10,5112.00              87.10,5112.00 87.91,5103.00 87.91,5103.00              87.91,5103.00 87.00,5090.00 87.00,5090.00              87.00,5090.00 88.09,5065.00 88.09,5065.00              88.09,5065.00 89.00,5054.00 89.00,5054.00              89.00,5054.00 89.00,5036.00 89.00,5036.00              89.00,5036.00 91.91,5006.00 91.91,5006.00              91.91,5006.00 90.70,4993.00 90.70,4993.00              90.70,4993.00 89.08,4985.00 89.08,4985.00              89.08,4985.00 89.08,4974.00 89.08,4974.00              89.08,4974.00 87.04,4946.00 87.04,4946.00              87.26,4940.43 89.26,4936.82 88.91,4931.00              88.63,4926.47 86.80,4922.64 87.12,4918.00              87.54,4911.79 89.98,4912.16 89.96,4900.00              89.96,4900.00 89.96,4886.00 89.96,4886.00              89.96,4886.00 89.00,4874.00 89.00,4874.00              89.00,4874.00 89.00,4833.00 89.00,4833.00              89.00,4833.00 89.91,4820.00 89.91,4820.00              89.91,4820.00 88.34,4798.00 88.34,4798.00              88.34,4798.00 89.91,4782.00 89.91,4782.00              89.91,4782.00 88.47,4760.00 88.47,4760.00              88.66,4755.96 90.22,4754.45 89.96,4747.00              89.96,4747.00 91.00,4702.00 91.00,4702.00              91.00,4702.00 89.47,4687.00 89.47,4687.00              89.47,4687.00 90.83,4679.00 90.83,4679.00              90.83,4679.00 92.00,4652.00 92.00,4652.00              92.00,4652.00 93.91,4632.00 93.91,4632.00              93.91,4632.00 96.00,4602.00 96.00,4602.00              96.06,4591.87 99.39,4590.45 98.91,4582.00              98.91,4582.00 96.82,4565.00 96.82,4565.00              96.82,4565.00 96.82,4556.00 96.82,4556.00              96.82,4556.00 96.82,4536.00 96.82,4536.00              96.82,4536.00 96.82,4521.00 96.82,4521.00              96.82,4521.00 96.08,4508.00 96.08,4508.00              96.08,4508.00 96.75,4492.00 96.75,4492.00              96.75,4492.00 96.75,4482.00 96.75,4482.00              96.75,4482.00 98.99,4465.00 98.99,4465.00              98.99,4465.00 97.00,4444.00 97.00,4444.00              97.00,4444.00 94.00,4407.00 94.00,4407.00              94.00,4407.00 94.00,4386.00 94.00,4386.00              94.00,4386.00 92.02,4365.00 92.02,4365.00              92.02,4365.00 93.00,4349.00 93.00,4349.00              93.00,4349.00 93.00,4284.00 93.00,4284.00              93.00,4284.00 90.84,4266.00 90.84,4266.00              90.84,4266.00 92.00,4254.00 92.00,4254.00              92.02,4239.91 89.75,4242.04 88.30,4232.00              88.30,4232.00 86.83,4213.00 86.83,4213.00              86.83,4213.00 84.37,4203.00 84.37,4203.00              84.37,4203.00 83.32,4194.00 83.32,4194.00              83.32,4194.00 78.58,4176.00 78.58,4176.00              78.58,4176.00 76.78,4168.00 76.78,4168.00              76.78,4168.00 73.78,4160.00 73.78,4160.00              73.78,4160.00 72.08,4152.00 72.08,4152.00              72.08,4152.00 69.51,4144.00 69.51,4144.00              69.51,4144.00 67.57,4134.00 67.57,4134.00              67.57,4134.00 63.08,4118.00 63.08,4118.00              61.40,4112.07 59.35,4110.42 57.61,4106.00              55.97,4101.85 52.34,4083.62 52.34,4079.00              52.34,4074.12 53.31,4060.69 54.28,4056.00              54.28,4056.00 56.54,4047.00 56.54,4047.00              56.54,4047.00 57.80,4036.00 57.80,4036.00              57.80,4036.00 62.05,4027.00 62.05,4027.00              62.05,4027.00 64.32,4020.00 64.32,4020.00              64.32,4020.00 69.17,4009.00 69.17,4009.00              73.89,3999.02 76.37,3998.01 80.53,3991.00              83.95,3985.22 84.53,3981.01 86.52,3975.00              89.35,3966.41 91.88,3964.95 92.00,3955.00              92.00,3955.00 92.00,3951.00 92.00,3951.00              92.00,3951.00 95.00,3924.00 95.00,3924.00              95.00,3924.00 95.00,3878.00 95.00,3878.00              95.00,3878.00 95.96,3865.00 95.96,3865.00              95.96,3865.00 95.10,3853.00 95.10,3853.00              95.10,3853.00 96.81,3838.00 96.81,3838.00              96.81,3838.00 96.81,3827.00 96.81,3827.00              96.81,3827.00 96.81,3808.00 96.81,3808.00              96.81,3808.00 97.96,3796.00 97.96,3796.00              97.96,3796.00 97.96,3781.00 97.96,3781.00              97.96,3781.00 98.91,3765.00 98.91,3765.00              98.91,3765.00 97.16,3755.00 97.16,3755.00              97.16,3755.00 95.00,3725.00 95.00,3725.00              95.00,3725.00 96.00,3710.00 96.00,3710.00              96.00,3710.00 96.00,3683.00 96.00,3683.00              96.00,3683.00 97.00,3666.00 97.00,3666.00              97.00,3666.00 97.00,3650.00 97.00,3650.00              97.00,3650.00 95.78,3622.00 95.78,3622.00              95.78,3622.00 95.78,3611.00 95.78,3611.00              95.78,3611.00 95.03,3598.00 95.03,3598.00              95.03,3598.00 95.96,3585.00 95.96,3585.00              95.96,3585.00 95.09,3577.00 95.09,3577.00              95.09,3577.00 94.51,3563.00 94.51,3563.00              94.51,3563.00 95.91,3547.00 95.91,3547.00              95.91,3547.00 95.04,3540.00 95.04,3540.00              95.04,3540.00 95.04,3525.00 95.04,3525.00              95.04,3525.00 95.97,3511.00 95.97,3511.00              95.97,3511.00 95.04,3499.00 95.04,3499.00              95.04,3499.00 96.91,3488.00 96.91,3488.00              96.91,3488.00 96.91,3471.00 96.91,3471.00              97.04,3463.67 97.91,3462.52 98.71,3456.00              98.71,3456.00 100.00,3434.00 100.00,3434.00              100.00,3434.00 99.00,3406.00 99.00,3406.00              98.89,3396.72 96.87,3398.13 97.00,3386.00              97.00,3386.00 97.96,3376.00 97.96,3376.00              97.96,3376.00 97.96,3360.00 97.96,3360.00              97.96,3360.00 98.97,3347.00 98.97,3347.00              98.97,3347.00 97.00,3329.00 97.00,3329.00              97.00,3329.00 97.91,3311.00 97.91,3311.00              97.91,3311.00 97.00,3295.00 97.00,3295.00              97.00,3295.00 95.34,3282.00 95.34,3282.00              95.34,3282.00 96.96,3271.00 96.96,3271.00              96.96,3271.00 96.21,3258.00 96.21,3258.00              96.21,3258.00 97.96,3247.00 97.96,3247.00              97.96,3247.00 97.96,3236.00 97.96,3236.00              97.96,3236.00 98.76,3224.00 98.76,3224.00              98.76,3224.00 98.76,3205.00 98.76,3205.00              98.76,3205.00 100.00,3189.00 100.00,3189.00              100.00,3189.00 100.00,3139.00 100.00,3139.00              100.00,3139.00 99.00,3122.00 99.00,3122.00              99.00,3122.00 99.00,3059.00 99.00,3059.00              99.00,3059.00 98.01,3045.00 98.01,3045.00              98.01,3045.00 98.01,3041.00 98.01,3041.00              98.01,3041.00 98.01,3022.00 98.01,3022.00              98.01,3022.00 98.91,3010.00 98.91,3010.00              98.91,3010.00 98.91,2998.00 98.91,2998.00              98.91,2998.00 98.91,2988.00 98.91,2988.00              98.91,2988.00 98.09,2970.00 98.09,2970.00              98.09,2970.00 100.97,2951.00 100.97,2951.00              100.97,2944.26 98.77,2941.85 99.18,2936.00              99.18,2936.00 100.00,2908.00 100.00,2908.00              100.00,2908.00 98.32,2880.00 98.32,2880.00              98.32,2880.00 99.00,2872.00 99.00,2872.00              99.00,2872.00 99.00,2851.00 99.00,2851.00              99.00,2851.00 99.96,2836.00 99.96,2836.00              99.96,2836.00 99.00,2823.00 99.00,2823.00              99.00,2823.00 99.00,2800.00 99.00,2800.00              99.00,2800.00 100.00,2784.00 100.00,2784.00              100.00,2784.00 99.04,2773.00 99.04,2773.00              99.04,2773.00 99.04,2763.00 99.04,2763.00              99.04,2763.00 98.04,2752.00 98.04,2752.00              98.04,2752.00 99.95,2735.00 99.95,2735.00              99.95,2735.00 99.95,2717.00 99.95,2717.00              99.95,2717.00 99.04,2705.00 99.04,2705.00              99.04,2705.00 99.04,2694.00 99.04,2694.00              99.04,2694.00 99.99,2685.00 99.99,2685.00              99.99,2685.00 98.51,2665.00 98.51,2665.00              98.51,2665.00 99.17,2651.00 99.17,2651.00              99.76,2645.46 100.91,2645.45 101.00,2638.00              101.00,2638.00 101.00,2618.00 101.00,2618.00              101.00,2618.00 100.32,2610.00 100.32,2610.00              100.00,2605.72 101.41,2602.19 101.83,2598.00              101.83,2598.00 102.91,2579.00 102.91,2579.00              102.91,2579.00 102.00,2565.00 102.00,2565.00              102.00,2565.00 100.84,2550.00 100.84,2550.00              100.84,2550.00 100.84,2534.00 100.84,2534.00              100.84,2534.00 100.84,2521.00 100.84,2521.00              100.84,2521.00 100.08,2504.00 100.08,2504.00              100.08,2504.00 100.08,2484.00 100.08,2484.00              100.88,2476.90 101.99,2476.96 102.00,2468.00              102.00,2468.00 102.00,2444.00 102.00,2444.00              102.00,2444.00 103.00,2427.00 103.00,2427.00              103.00,2427.00 103.00,2379.00 103.00,2379.00              103.00,2379.00 102.04,2364.00 102.04,2364.00              102.04,2364.00 102.04,2347.00 102.04,2347.00              102.04,2347.00 102.97,2338.00 102.97,2338.00              102.97,2338.00 102.00,2326.00 102.00,2326.00              102.00,2326.00 102.00,2308.00 102.00,2308.00              102.00,2308.00 100.19,2277.00 100.19,2277.00              100.19,2277.00 102.00,2268.00 102.00,2268.00              102.00,2268.00 102.00,2259.00 102.00,2259.00              102.00,2259.00 104.00,2238.00 104.00,2238.00              104.00,2238.00 102.87,2193.00 102.87,2193.00              102.87,2193.00 102.87,2176.00 102.87,2176.00              102.99,2167.22 101.68,2166.05 101.86,2162.00              101.86,2162.00 101.86,2154.00 101.86,2154.00              101.86,2154.00 101.86,2134.00 101.86,2134.00              101.86,2134.00 102.91,2121.00 102.91,2121.00              102.91,2121.00 101.32,2100.00 101.32,2100.00              101.32,2100.00 102.30,2087.00 102.30,2087.00              103.38,2079.41 105.26,2071.74 104.96,2064.00              104.96,2064.00 104.04,2056.00 104.04,2056.00              104.04,2056.00 104.04,2041.00 104.04,2041.00              104.05,2030.59 107.35,2030.11 106.96,2020.00              106.96,2020.00 106.02,2011.00 106.02,2011.00              106.02,2011.00 106.02,1994.00 106.02,1994.00              106.02,1994.00 105.00,1973.00 105.00,1973.00              105.00,1973.00 105.84,1962.00 105.84,1962.00              105.84,1962.00 105.84,1954.00 105.84,1954.00              105.84,1954.00 105.84,1941.00 105.84,1941.00              106.11,1933.20 107.74,1933.31 108.70,1927.00              108.70,1927.00 112.00,1891.00 112.00,1891.00              111.89,1881.45 109.33,1880.43 109.05,1874.00              109.05,1874.00 111.00,1857.00 111.00,1857.00              111.00,1857.00 111.00,1829.00 111.00,1829.00              111.00,1829.00 108.57,1808.00 108.57,1808.00              108.57,1808.00 110.08,1790.00 110.08,1790.00              110.08,1790.00 110.08,1775.00 110.08,1775.00              110.08,1775.00 111.73,1755.00 111.73,1755.00              111.73,1755.00 111.73,1749.00 111.73,1749.00              111.73,1749.00 113.53,1741.00 113.53,1741.00              113.53,1741.00 114.91,1725.00 114.91,1725.00              114.91,1725.00 113.98,1717.00 113.98,1717.00              113.98,1717.00 113.98,1698.00 113.98,1698.00              113.98,1698.00 113.98,1685.00 113.98,1685.00              114.23,1677.97 112.29,1675.93 111.16,1670.00              111.16,1670.00 111.16,1653.00 111.16,1653.00              111.16,1653.00 107.00,1621.00 107.00,1621.00              107.00,1621.00 107.00,1608.00 107.00,1608.00              107.00,1608.00 106.00,1592.00 106.00,1592.00              105.97,1575.06 107.64,1576.43 109.70,1562.00              109.70,1562.00 110.37,1550.00 110.37,1550.00              110.37,1550.00 112.70,1541.00 112.70,1541.00              112.70,1541.00 114.00,1514.00 114.00,1514.00              114.00,1514.00 114.87,1496.00 114.87,1496.00              114.87,1496.00 114.87,1488.00 114.87,1488.00              115.02,1483.21 115.99,1484.19 116.00,1475.00              116.00,1475.00 116.00,1465.00 116.00,1465.00              115.90,1456.92 113.84,1454.58 113.89,1451.00              113.89,1451.00 115.96,1439.00 115.96,1439.00              115.96,1439.00 114.08,1420.00 114.08,1420.00              114.08,1420.00 114.08,1408.00 114.08,1408.00              114.08,1408.00 116.00,1393.00 116.00,1393.00              116.08,1385.71 116.06,1380.19 114.32,1373.00              114.32,1373.00 110.73,1361.00 110.73,1361.00              110.73,1361.00 110.73,1351.00 110.73,1351.00              110.69,1347.18 109.84,1345.45 110.09,1341.00              110.36,1336.20 111.37,1334.62 110.83,1329.00              110.83,1329.00 107.13,1310.00 107.13,1310.00              107.00,1306.21 108.43,1302.72 108.92,1299.00              108.92,1299.00 108.92,1285.00 108.92,1285.00              108.92,1285.00 109.97,1273.00 109.97,1273.00              109.97,1273.00 109.21,1263.00 109.21,1263.00              109.21,1263.00 110.97,1243.00 110.97,1243.00              110.97,1243.00 109.09,1230.00 109.09,1230.00              108.60,1223.29 109.85,1220.79 109.99,1215.00              109.99,1215.00 109.00,1200.00 109.00,1200.00              109.00,1200.00 110.04,1180.00 110.04,1180.00              110.04,1180.00 110.04,1171.00 110.04,1171.00              110.04,1171.00 111.91,1156.00 111.91,1156.00              111.91,1156.00 111.21,1142.00 111.21,1142.00              111.21,1142.00 112.94,1134.00 112.94,1134.00              112.94,1134.00 112.94,1123.00 112.94,1123.00              113.76,1117.13 115.22,1114.80 114.96,1108.00              114.96,1108.00 114.04,1100.00 114.04,1100.00              114.04,1100.00 114.04,1084.00 114.04,1084.00              113.86,1072.61 110.12,1064.24 110.08,1060.00              110.08,1060.00 111.96,1049.00 111.96,1049.00              111.96,1049.00 111.96,1041.00 111.96,1041.00              111.96,1041.00 113.00,1029.00 113.00,1029.00              113.00,1029.00 113.00,993.00 113.00,993.00              113.00,993.00 112.46,980.00 112.46,980.00              112.46,980.00 114.97,962.00 114.97,962.00              114.97,962.00 113.04,944.00 113.04,944.00              113.04,944.00 114.83,933.00 114.83,933.00              115.43,927.28 114.18,924.66 114.18,921.00              114.18,921.00 114.91,911.00 114.91,911.00              114.58,905.67 112.51,901.77 111.81,897.00              111.81,897.00 111.81,886.00 111.81,886.00              111.53,879.89 109.79,879.70 110.01,870.00              110.01,870.00 111.98,854.00 111.98,854.00              111.98,854.00 111.02,841.00 111.02,841.00              111.02,841.00 111.99,828.00 111.99,828.00              111.99,828.00 111.04,812.00 111.04,812.00              111.04,812.00 112.81,800.00 112.81,800.00              112.81,800.00 112.81,792.00 112.81,792.00              112.81,792.00 113.83,782.00 113.83,782.00              113.83,782.00 113.83,770.00 113.83,770.00              113.83,770.00 113.00,742.00 113.00,742.00              113.00,742.00 114.91,722.00 114.91,722.00              114.91,722.00 113.21,710.00 113.21,710.00              113.21,710.00 113.91,698.00 113.91,698.00              113.91,698.00 112.34,683.00 112.34,683.00              112.34,683.00 113.92,674.00 113.92,674.00              113.92,674.00 113.92,663.00 113.92,663.00              113.92,663.00 114.99,648.00 114.99,648.00              114.99,648.00 114.02,638.00 114.02,638.00              114.02,638.00 114.02,620.00 114.02,620.00              114.02,607.42 116.98,609.10 116.91,596.00              116.91,596.00 116.91,586.00 116.91,586.00              116.35,581.58 114.80,578.70 115.19,574.00              115.19,574.00 116.83,565.00 116.83,565.00              116.83,565.00 118.00,545.00 118.00,545.00              118.00,545.00 117.04,532.00 117.04,532.00              117.04,532.00 117.04,519.00 117.04,519.00              116.91,511.49 115.35,510.01 115.10,505.00              115.10,505.00 116.00,489.00 116.00,489.00              116.00,489.00 114.46,476.00 114.46,476.00              114.46,476.00 114.99,465.00 114.99,465.00              114.99,465.00 114.04,451.00 114.04,451.00              114.04,451.00 115.70,441.00 115.70,441.00              115.70,441.00 117.17,423.00 117.17,423.00              117.93,415.98 118.98,417.93 119.00,408.00              119.00,408.00 119.00,400.00 119.00,400.00              119.00,400.00 120.74,369.00 120.74,369.00              120.74,369.00 121.83,349.00 121.83,349.00              121.83,349.00 118.46,331.00 118.46,331.00              118.46,331.00 120.99,309.00 120.99,309.00              121.25,297.68 115.06,283.44 115.03,276.00              115.03,276.00 117.96,249.00 117.96,249.00              117.96,249.00 115.04,220.00 115.04,220.00              115.04,220.00 115.04,210.00 115.04,210.00              115.04,210.00 114.18,203.00 114.18,203.00              114.18,203.00 116.91,176.00 116.91,176.00              116.60,171.53 115.34,169.03 114.51,165.00              114.51,165.00 113.71,154.00 113.71,154.00              113.71,154.00 111.19,141.00 111.19,141.00              110.70,135.09 113.21,132.48 112.96,125.00              112.96,125.00 111.09,114.00 111.09,114.00              111.09,114.00 111.09,101.00 111.09,101.00              111.11,92.73 113.00,93.10 115.09,86.00              115.76,83.73 116.97,77.02 118.16,75.57              119.69,73.70 128.24,72.80 131.00,72.11              139.46,69.99 159.09,65.04 167.00,65.00              167.00,65.00 189.00,65.00 189.00,65.00              189.00,65.00 204.00,66.00 204.00,66.00              204.00,66.00 249.00,63.09 249.00,63.09              249.00,63.09 260.00,64.00 260.00,64.00              260.00,64.00 289.00,62.00 289.00,62.00              289.00,62.00 304.00,62.00 304.00,62.00              304.00,62.00 335.00,62.00 335.00,62.00              335.00,62.00 358.00,63.00 358.00,63.00              358.00,63.00 375.00,62.00 375.00,62.00              375.00,62.00 388.00,62.91 388.00,62.91              388.00,62.91 400.00,62.00 400.00,62.00              400.00,62.00 482.00,62.00 482.00,62.00              482.00,62.00 498.00,63.00 498.00,63.00              498.00,63.00 558.00,63.00 558.00,63.00              558.00,63.00 571.00,62.00 571.00,62.00              571.00,62.00 595.00,62.00 595.00,62.00              595.00,62.00 610.00,63.00 610.00,63.00              610.00,63.00 628.00,63.00 628.00,63.00              628.00,63.00 647.00,64.00 647.00,64.00              647.00,64.00 662.00,63.00 662.00,63.00              662.00,63.00 749.00,63.00 749.00,63.00              749.00,63.00 762.00,62.00 762.00,62.00              762.00,62.00 780.00,62.00 780.00,62.00              780.00,62.00 795.00,63.00 795.00,63.00              795.00,63.00 869.00,63.00 869.00,63.00              869.00,63.00 884.00,64.00 884.00,64.00              884.00,64.00 972.00,64.00 972.00,64.00              972.00,64.00 987.00,63.00 987.00,63.00              987.00,63.00 1021.00,63.00 1021.00,63.00              1021.00,63.00 1038.00,63.84 1038.00,63.84              1038.00,63.84 1058.00,63.84 1058.00,63.84              1058.00,63.84 1068.00,63.84 1068.00,63.84              1068.00,63.84 1080.00,63.00 1080.00,63.00              1080.00,63.00 1099.00,63.00 1099.00,63.00              1099.00,63.00 1114.00,63.96 1114.00,63.96              1114.00,63.96 1127.00,63.00 1127.00,63.00              1127.00,63.00 1316.00,63.00 1316.00,63.00              1316.00,63.00 1329.00,62.00 1329.00,62.00              1329.00,62.00 1352.00,62.00 1352.00,62.00              1352.00,62.00 1367.00,63.00 1367.00,63.00              1367.00,63.00 1464.00,63.00 1464.00,63.00              1464.00,63.00 1476.00,62.03 1476.00,62.03              1476.00,62.03 1490.00,62.90 1490.00,62.90              1490.00,62.90 1577.00,62.90 1577.00,62.90              1577.00,62.90 1586.00,62.90 1586.00,62.90              1586.00,62.90 1597.00,62.00 1597.00,62.00              1597.00,62.00 1624.00,62.00 1624.00,62.00              1624.00,62.00 1639.00,63.00 1639.00,63.00              1639.00,63.00 1738.00,63.00 1738.00,63.00              1738.00,63.00 1753.00,64.00 1753.00,64.00              1753.00,64.00 1781.00,64.00 1781.00,64.00              1781.00,64.00 1795.00,63.00 1795.00,63.00              1795.00,63.00 1816.00,63.00 1816.00,63.00              1816.00,63.00 1831.00,63.99 1831.00,63.99              1831.00,63.99 1846.00,63.00 1846.00,63.00              1846.00,63.00 1903.00,63.00 1903.00,63.00              1903.00,63.00 1916.00,63.85 1916.00,63.85              1916.00,63.85 1923.00,63.85 1923.00,63.85              1923.00,63.85 1932.00,63.85 1932.00,63.85              1932.00,63.85 1982.00,63.85 1982.00,63.85              1982.00,63.85 1997.00,63.00 1997.00,63.00              1997.00,63.00 2015.00,63.00 2015.00,63.00              2015.00,63.00 2030.00,62.00 2030.00,62.00              2030.00,62.00 2044.00,63.00 2044.00,63.00              2044.00,63.00 2080.00,63.00 2080.00,63.00              2080.00,63.00 2136.00,63.00 2136.00,63.00              2136.00,63.00 2147.00,62.08 2147.00,62.08              2147.00,62.08 2158.00,63.00 2158.00,63.00              2158.00,63.00 2228.00,63.00 2228.00,63.00              2228.00,63.00 2252.00,62.32 2252.00,62.32              2252.00,62.32 2262.00,62.93 2262.00,62.93              2262.00,62.93 2314.00,62.93 2314.00,62.93              2314.00,62.93 2333.00,62.93 2333.00,62.93              2333.00,62.93 2340.00,62.93 2340.00,62.93              2340.00,62.93 2358.00,62.00 2358.00,62.00              2358.00,62.00 2373.00,63.00 2373.00,63.00              2373.00,63.00 2402.00,63.00 2402.00,63.00              2402.00,63.00 2447.00,63.00 2447.00,63.00              2447.00,63.00 2459.00,62.05 2459.00,62.05              2459.00,62.05 2475.00,62.05 2475.00,62.05              2475.00,62.05 2488.00,62.91 2488.00,62.91              2491.47,62.71 2493.20,61.91 2497.00,62.18              2497.00,62.18 2509.00,63.00 2509.00,63.00              2509.00,63.00 2521.00,62.03 2521.00,62.03              2521.00,62.03 2535.00,63.00 2535.00,63.00              2535.00,63.00 2550.00,62.00 2550.00,62.00              2550.00,62.00 2563.00,62.00 2563.00,62.00              2563.00,62.00 2576.00,61.09 2576.00,61.09              2576.00,61.09 2588.00,62.00 2588.00,62.00              2588.00,62.00 2660.00,62.00 2660.00,62.00              2660.00,62.00 2670.00,61.05 2670.00,61.05              2670.00,61.05 2688.00,61.05 2688.00,61.05              2688.00,61.05 2704.00,61.99 2704.00,61.99              2704.00,61.99 2718.00,61.00 2718.00,61.00              2718.00,61.00 2816.00,61.00 2816.00,61.00              2816.00,61.00 2831.00,60.00 2831.00,60.00              2831.00,60.00 2864.00,61.00 2864.00,61.00              2864.00,61.00 2885.00,60.32 2885.00,60.32              2885.00,60.32 2905.00,62.00 2905.00,62.00              2905.00,62.00 2942.00,62.00 2942.00,62.00              2942.00,62.00 2964.00,60.00 2964.00,60.00              2964.00,60.00 2992.00,60.00 2992.00,60.00              2992.00,60.00 3013.00,62.00 3013.00,62.00              3013.00,62.00 3063.00,62.00 3063.00,62.00              3063.00,62.00 3078.00,61.00 3078.00,61.00              3078.00,61.00 3205.00,61.00 3205.00,61.00              3205.00,61.00 3218.00,62.00 3218.00,62.00              3218.00,62.00 3283.00,62.00 3283.00,62.00              3283.00,62.00 3295.00,61.05 3295.00,61.05              3295.00,61.05 3309.00,61.05 3309.00,61.05              3309.00,61.05 3323.00,62.00 3323.00,62.00              3323.00,62.00 3329.00,62.00 3329.00,62.00              3329.00,62.00 3344.00,61.00 3344.00,61.00              3344.00,61.00 3491.00,61.00 3491.00,61.00              3491.00,61.00 3502.00,60.34 3502.00,60.34              3502.00,60.34 3513.00,61.00 3513.00,61.00              3513.00,61.00 3550.00,61.00 3550.00,61.00              3550.00,61.00 3565.00,60.00 3565.00,60.00              3565.00,60.00 3591.00,60.00 3591.00,60.00              3591.00,60.00 3606.00,60.91 3606.00,60.91              3606.00,60.91 3618.00,60.00 3618.00,60.00              3618.00,60.00 3710.00,60.00 3710.00,60.00              3710.00,60.00 3734.00,61.99 3734.00,61.99              3734.00,61.99 3760.00,59.10 3760.00,59.10              3760.00,59.10 3773.00,60.00 3773.00,60.00              3773.00,60.00 3777.00,60.00 3777.00,60.00              3777.00,60.00 3792.00,59.00 3792.00,59.00              3792.00,59.00 3872.00,59.00 3872.00,59.00              3872.00,59.00 3887.00,60.00 3887.00,60.00              3887.00,60.00 3898.00,60.00 3898.00,60.00              3898.00,60.00 3917.00,61.00 3917.00,61.00              3917.00,61.00 3932.00,60.00 3932.00,60.00              3932.00,60.00 3985.00,60.00 3985.00,60.00              3985.00,60.00 4004.00,61.91 4004.00,61.91              4018.40,62.90 4021.54,61.78 4036.00,66.48              4036.00,66.48 4043.00,68.65 4043.00,68.65              4052.33,72.89 4057.28,85.77 4064.09,92.99              4064.09,92.99 4075.83,103.21 4075.83,103.21              4077.48,106.03 4076.59,109.67 4078.56,115.00              4082.21,124.86 4092.58,132.19 4103.00,132.91              4114.91,133.73 4127.25,126.33 4131.44,115.00              4133.69,108.92 4132.51,102.25 4135.63,95.00              4136.93,91.99 4139.00,89.57 4140.99,87.00              4149.15,76.44 4152.55,75.30 4165.00,71.50              4169.04,70.26 4172.69,69.00 4177.00,69.32              4177.00,69.32 4187.00,69.99 4187.00,69.99              4187.00,69.99 4205.00,68.71 4205.00,68.71              4212.77,67.70 4220.09,66.01 4228.00,66.00              4228.00,66.00 4248.00,66.00 4248.00,66.00              4248.00,66.00 4258.00,65.26 4258.00,65.26              4262.53,65.44 4263.18,66.98 4273.00,67.00              4273.00,67.00 4286.00,67.00 4286.00,67.00              4286.00,67.00 4304.00,67.91 4304.00,67.91              4304.00,67.91 4342.00,64.00 4342.00,64.00              4342.00,64.00 4372.00,64.00 4372.00,64.00              4372.00,64.00 4387.00,63.00 4387.00,63.00              4387.00,63.00 4426.00,63.00 4426.00,63.00              4426.00,63.00 4439.00,62.08 4439.00,62.08              4439.00,62.08 4451.00,62.96 4451.00,62.96              4451.00,62.96 4462.00,62.00 4462.00,62.00              4462.00,62.00 4483.00,62.00 4483.00,62.00              4483.00,62.00 4496.00,63.00 4496.00,63.00              4496.00,63.00 4526.00,63.00 4526.00,63.00              4526.00,63.00 4538.00,62.18 4538.00,62.18              4538.00,62.18 4554.00,63.00 4554.00,63.00              4554.00,63.00 4571.00,61.72 4571.00,61.72              4571.00,61.72 4584.00,63.00 4584.00,63.00              4592.54,63.00 4593.66,61.43 4598.00,61.26              4598.00,61.26 4610.00,62.00 4610.00,62.00              4610.00,62.00 4622.00,62.00 4622.00,62.00              4622.00,62.00 4640.00,61.00 4640.00,61.00              4640.00,61.00 4656.00,59.21 4656.00,59.21              4656.00,59.21 4669.00,60.00 4669.00,60.00              4669.00,60.00 4717.00,59.00 4717.00,59.00              4717.00,59.00 4734.00,58.00 4734.00,58.00              4734.00,58.00 4775.00,57.32 4775.00,57.32              4775.00,57.32 4783.00,57.95 4783.00,57.95              4783.00,57.95 4799.00,57.95 4799.00,57.95              4799.00,57.95 4811.00,57.00 4811.00,57.00              4811.00,57.00 4831.00,57.00 4831.00,57.00              4831.00,57.00 4843.00,56.05 4843.00,56.05              4843.00,56.05 4856.00,56.05 4856.00,56.05              4856.00,56.05 4885.00,57.91 4885.00,57.91              4885.00,57.91 4892.00,57.18 4892.00,57.18              4892.00,57.18 4904.00,57.96 4904.00,57.96              4904.00,57.96 4915.00,57.09 4915.00,57.09              4915.00,57.09 4930.00,58.00 4930.00,58.00              4930.00,58.00 4945.00,56.90 4945.00,56.90              4945.00,56.90 4990.00,56.90 4990.00,56.90              4990.00,56.90 5000.00,56.90 5000.00,56.90              5000.00,56.90 5009.00,56.90 5009.00,56.90              5009.00,56.90 5074.00,56.90 5074.00,56.90              5074.00,56.90 5088.00,56.03 5088.00,56.03              5088.00,56.03 5102.00,57.00 5102.00,57.00              5102.00,57.00 5124.00,57.00 5124.00,57.00              5124.00,57.00 5151.00,58.96 5151.00,58.96              5151.00,58.96 5166.00,58.96 5166.00,58.96              5166.00,58.96 5178.00,57.96 5178.00,57.96              5178.00,57.96 5193.00,57.96 5193.00,57.96              5193.00,57.96 5205.00,57.00 5205.00,57.00              5205.00,57.00 5211.00,57.00 5211.00,57.00              5211.00,57.00 5225.00,58.00 5225.00,58.00              5225.00,58.00 5259.00,58.00 5259.00,58.00              5259.00,58.00 5269.00,57.05 5269.00,57.05              5269.00,57.05 5283.00,57.05 5283.00,57.05              5283.00,57.05 5298.00,57.96 5298.00,57.96              5298.00,57.96 5314.00,57.96 5314.00,57.96              5314.00,57.96 5326.00,57.00 5326.00,57.00              5326.00,57.00 5403.00,57.00 5403.00,57.00              5403.00,57.00 5418.00,56.00 5418.00,56.00              5418.00,56.00 5463.00,56.00 5463.00,56.00              5463.00,56.00 5484.00,57.00 5484.00,57.00              5484.00,57.00 5499.00,56.00 5499.00,56.00              5499.00,56.00 5550.00,56.00 5550.00,56.00              5550.00,56.00 5567.00,55.00 5567.00,55.00              5567.00,55.00 5615.00,55.00 5615.00,55.00              5615.00,55.00 5630.00,56.00 5630.00,56.00              5630.00,56.00 5650.00,55.04 5650.00,55.04              5650.00,55.04 5661.00,56.00 5661.00,56.00              5661.00,56.00 5684.00,56.00 5684.00,56.00              5684.00,56.00 5699.00,55.00 5699.00,55.00              5699.00,55.00 5740.00,55.00 5740.00,55.00              5740.00,55.00 5753.00,55.91 5753.00,55.91              5753.00,55.91 5773.00,54.00 5773.00,54.00              5773.00,54.00 5820.00,54.00 5820.00,54.00              5820.00,54.00 5849.00,56.00 5849.00,56.00              5849.00,56.00 5863.00,56.00 5863.00,56.00              5863.00,56.00 5895.00,53.10 5895.00,53.10              5895.00,53.10 5909.00,54.00 5909.00,54.00              5909.00,54.00 5933.00,54.00 5933.00,54.00              5933.00,54.00 5947.00,54.91 5947.00,54.91              5947.00,54.91 5965.00,53.01 5965.00,53.01              5965.00,53.01 5980.00,54.00 5980.00,54.00              5980.00,54.00 5995.00,54.00 5995.00,54.00              5995.00,54.00 6010.00,53.04 6010.00,53.04              6010.00,53.04 6023.00,54.00 6023.00,54.00              6023.00,54.00 6087.00,54.00 6087.00,54.00              6087.00,54.00 6111.00,56.00 6111.00,56.00              6111.00,56.00 6127.00,56.00 6127.00,56.00              6127.00,56.00 6139.00,56.96 6139.00,56.96              6139.00,56.96 6154.00,56.96 6154.00,56.96              6154.00,56.96 6170.00,56.04 6170.00,56.04              6170.00,56.04 6183.00,56.04 6183.00,56.04              6188.61,56.47 6190.68,57.43 6197.00,56.83              6197.00,56.83 6236.00,53.09 6236.00,53.09              6236.00,53.09 6248.00,54.00 6248.00,54.00              6248.00,54.00 6363.00,54.00 6363.00,54.00              6363.00,54.00 6377.00,54.99 6377.00,54.99              6377.00,54.99 6392.00,54.00 6392.00,54.00              6392.00,54.00 6412.00,54.00 6412.00,54.00              6412.00,54.00 6436.00,53.00 6436.00,53.00              6436.00,53.00 6450.00,54.00 6450.00,54.00              6450.00,54.00 6477.00,54.00 6477.00,54.00              6477.00,54.00 6492.00,53.00 6492.00,53.00              6492.00,53.00 6546.00,53.00 6546.00,53.00              6546.00,53.00 6561.00,54.00 6561.00,54.00              6561.00,54.00 6596.00,54.00 6596.00,54.00              6596.00,54.00 6607.00,53.32 6607.00,53.32              6607.00,53.32 6625.00,54.00 6625.00,54.00              6625.00,54.00 6635.00,53.05 6635.00,53.05              6635.00,53.05 6654.00,53.05 6654.00,53.05              6654.00,53.05 6667.00,54.00 6667.00,54.00              6667.00,54.00 6695.00,53.00 6695.00,53.00              6695.00,53.00 6708.00,53.00 6708.00,53.00              6708.00,53.00 6724.00,54.00 6724.00,54.00              6724.00,54.00 6739.00,53.00 6739.00,53.00              6739.00,53.00 6780.00,53.00 6780.00,53.00              6780.00,53.00 6798.00,54.00 6798.00,54.00              6798.00,54.00 6818.00,52.76 6818.00,52.76              6818.00,52.76 6829.00,52.76 6829.00,52.76              6829.00,52.76 6854.00,52.00 6854.00,52.00              6854.00,52.00 6869.00,53.00 6869.00,53.00              6869.00,53.00 6903.00,53.00 6903.00,53.00              6903.00,53.00 6913.00,52.18 6913.00,52.18              6913.00,52.18 6920.00,52.96 6920.00,52.96              6920.00,52.96 6931.00,52.96 6931.00,52.96              6931.00,52.96 6951.00,52.00 6951.00,52.00              6951.00,52.00 6968.00,53.00 6968.00,53.00              6968.00,53.00 6980.00,52.18 6980.00,52.18              6980.00,52.18 6993.00,52.96 6993.00,52.96              6993.00,52.96 7009.00,52.00 7009.00,52.00              7009.00,52.00 7024.00,53.00 7024.00,53.00              7024.00,53.00 7092.00,53.00 7092.00,53.00              7092.00,53.00 7107.00,52.00 7107.00,52.00              7107.00,52.00 7147.00,52.00 7147.00,52.00              7147.00,52.00 7164.00,51.00 7164.00,51.00              7164.00,51.00 7208.00,51.00 7208.00,51.00              7208.00,51.00 7219.00,51.82 7219.00,51.82              7219.00,51.82 7228.00,51.82 7228.00,51.82              7228.00,51.82 7238.00,51.82 7238.00,51.82              7238.00,51.82 7248.00,51.05 7248.00,51.05              7248.00,51.05 7267.00,51.05 7267.00,51.05              7267.00,51.05 7281.00,51.96 7281.00,51.96              7281.00,51.96 7294.00,51.00 7294.00,51.00              7294.00,51.00 7336.00,51.00 7336.00,51.00              7336.00,51.00 7352.00,50.00 7352.00,50.00              7352.00,50.00 7380.00,50.00 7380.00,50.00              7380.00,50.00 7395.00,51.00 7395.00,51.00              7395.00,51.00 7471.00,51.00 7471.00,51.00              7471.00,51.00 7486.00,50.00 7486.00,50.00              7486.00,50.00 7583.00,50.00 7583.00,50.00              7583.00,50.00 7598.00,51.00 7598.00,51.00              7598.00,51.00 7619.00,51.00 7619.00,51.00              7619.00,51.00 7632.00,52.00 7632.00,52.00              7632.00,52.00 7662.00,51.32 7662.00,51.32              7662.00,51.32 7694.00,53.96 7694.00,53.96              7702.34,53.59 7707.53,50.02 7721.00,50.00              7721.00,50.00 7783.00,50.00 7783.00,50.00              7783.00,50.00 7798.00,49.01 7798.00,49.01              7798.00,49.01 7820.00,51.00 7820.00,51.00              7820.00,51.00 7889.00,50.00 7889.00,50.00              7889.00,50.00 7915.00,51.30 7915.00,51.30              7915.00,51.30 7931.00,54.88 7931.00,54.88              7947.02,58.71 7945.48,62.24 7966.00,62.00              7980.27,61.83 7992.85,50.23 8012.00,50.00              8012.00,50.00 8032.00,50.00 8032.00,50.00              8032.00,50.00 8047.00,51.00 8047.00,51.00              8047.00,51.00 8064.00,51.00 8064.00,51.00              8064.00,51.00 8079.00,50.04 8079.00,50.04              8079.00,50.04 8096.00,51.96 8096.00,51.96              8096.00,51.96 8116.00,53.91 8116.00,53.91              8118.33,54.08 8122.41,53.72 8124.00,55.74              8125.95,58.21 8123.61,63.31 8122.92,66.00              8121.45,71.72 8122.42,74.16 8121.61,78.00              8120.67,82.48 8119.40,82.49 8117.99,91.00              8117.99,91.00 8115.30,102.00 8115.30,102.00              8115.30,102.00 8114.63,111.00 8114.63,111.00              8114.63,111.00 8112.30,120.00 8112.30,120.00              8112.30,120.00 8111.70,129.00 8111.70,129.00              8111.70,129.00 8108.30,148.00 8108.30,148.00              8108.30,148.00 8107.57,156.00 8107.57,156.00              8107.57,156.00 8104.30,170.00 8104.30,170.00              8103.03,178.57 8103.10,187.35 8103.00,196.00              8103.00,196.00 8101.13,215.00 8101.13,215.00              8101.13,215.00 8101.13,230.00 8101.13,230.00              8101.13,230.00 8100.09,248.00 8100.09,248.00              8100.09,248.00 8100.96,255.00 8100.96,255.00              8100.96,255.00 8100.96,272.00 8100.96,272.00              8100.96,272.00 8098.70,299.00 8098.70,299.00              8097.92,304.51 8097.08,304.21 8096.79,311.00              8096.79,311.00 8096.79,329.00 8096.79,329.00              8096.79,329.00 8093.27,344.00 8093.27,344.00              8093.27,344.00 8093.27,355.00 8093.27,355.00              8092.65,363.96 8090.85,362.01 8091.13,377.00              8091.13,377.00 8091.13,385.00 8091.13,385.00              8091.03,388.92 8089.78,390.48 8090.04,397.00              8090.42,406.54 8093.94,406.03 8094.00,417.00              8094.00,417.00 8095.66,437.00 8095.66,437.00              8095.62,440.86 8094.01,442.91 8094.00,452.00              8094.00,452.00 8094.00,465.00 8094.00,465.00              8094.00,465.00 8095.66,487.00 8095.66,487.00              8095.66,487.00 8093.09,509.00 8093.09,509.00              8093.09,509.00 8094.74,519.00 8094.74,519.00              8094.74,519.00 8094.15,528.00 8094.15,528.00              8094.15,528.00 8094.15,539.00 8094.15,539.00              8094.15,539.00 8094.15,556.00 8094.15,556.00              8094.15,556.00 8092.00,575.00 8092.00,575.00              8092.00,575.00 8091.00,619.00 8091.00,619.00              8091.08,625.77 8091.91,625.49 8092.70,631.00              8092.70,631.00 8094.16,646.00 8094.16,646.00              8094.16,646.00 8095.37,653.00 8095.37,653.00              8095.73,657.82 8093.40,661.64 8094.17,669.00              8094.87,675.63 8097.18,682.25 8096.68,689.00              8096.68,689.00 8096.00,699.00 8096.00,699.00              8096.00,699.00 8096.00,729.00 8096.00,729.00              8095.90,737.47 8093.88,739.36 8093.17,746.00              8092.38,753.44 8094.15,757.03 8093.96,763.00              8093.96,763.00 8092.00,784.00 8092.00,784.00              8092.00,784.00 8092.00,788.00 8092.00,788.00              8092.00,788.00 8090.00,816.00 8090.00,816.00              8090.00,816.00 8092.00,839.00 8092.00,839.00              8091.99,847.60 8091.35,845.83 8090.30,853.00              8089.13,860.92 8087.91,874.08 8088.00,882.00              8088.00,882.00 8089.91,912.00 8089.91,912.00              8089.91,912.00 8088.08,937.00 8088.08,937.00              8088.08,937.00 8088.08,956.00 8088.08,956.00              8088.08,956.00 8089.82,968.00 8089.82,968.00              8089.82,968.00 8088.85,978.00 8088.85,978.00              8088.85,978.00 8088.85,989.00 8088.85,989.00              8088.85,989.00 8087.00,997.00 8087.00,997.00              8087.00,997.00 8087.00,1007.00 8087.00,1007.00              8087.00,1007.00 8085.04,1018.00 8085.04,1018.00              8085.04,1018.00 8086.82,1041.00 8086.82,1041.00              8086.41,1046.70 8084.70,1052.24 8085.09,1058.00              8085.67,1066.48 8087.83,1064.34 8088.00,1079.00              8088.00,1079.00 8089.00,1094.00 8089.00,1094.00              8089.00,1094.00 8091.00,1160.00 8091.00,1160.00              8091.00,1160.00 8092.04,1175.00 8092.04,1175.00              8092.04,1175.00 8092.04,1187.00 8092.04,1187.00              8092.04,1187.00 8093.00,1200.00 8093.00,1200.00              8093.00,1200.00 8092.21,1212.00 8092.21,1212.00              8092.21,1212.00 8092.21,1221.00 8092.21,1221.00              8092.21,1221.00 8092.21,1233.00 8092.21,1233.00              8092.21,1233.00 8092.21,1255.00 8092.21,1255.00              8092.21,1255.00 8087.36,1273.00 8087.36,1273.00              8086.53,1278.00 8087.43,1281.23 8087.36,1286.00              8087.36,1286.00 8089.00,1312.00 8089.00,1312.00              8089.22,1330.86 8087.57,1325.37 8086.08,1340.00              8086.08,1340.00 8086.08,1353.00 8086.08,1353.00              8085.95,1363.35 8083.58,1368.31 8083.00,1375.00              8083.00,1375.00 8083.00,1384.00 8083.00,1384.00              8083.00,1384.00 8082.26,1392.00 8082.26,1392.00              8082.26,1392.00 8082.26,1403.00 8082.26,1403.00              8082.26,1403.00 8081.00,1430.00 8081.00,1430.00              8081.02,1439.93 8082.08,1437.99 8082.91,1445.00              8082.91,1445.00 8082.91,1457.00 8082.91,1457.00              8082.91,1457.00 8083.68,1467.00 8083.68,1467.00              8083.68,1467.00 8081.04,1489.00 8081.04,1489.00              8081.04,1489.00 8081.04,1500.00 8081.04,1500.00              8081.04,1500.00 8081.90,1509.00 8081.90,1509.00              8081.90,1509.00 8080.09,1519.00 8080.09,1519.00              8080.09,1519.00 8080.09,1538.00 8080.09,1538.00              8080.09,1538.00 8083.75,1575.00 8083.75,1575.00              8085.29,1584.37 8086.98,1586.87 8087.00,1597.00              8087.00,1597.00 8085.00,1636.00 8085.00,1636.00              8085.00,1636.00 8083.00,1656.00 8083.00,1656.00              8083.00,1656.00 8084.17,1682.00 8084.17,1682.00              8084.65,1686.43 8086.13,1689.14 8085.90,1694.00              8085.90,1694.00 8083.94,1704.00 8083.94,1704.00              8083.94,1704.00 8083.94,1718.00 8083.94,1718.00              8083.02,1722.77 8081.78,1724.55 8082.09,1730.00              8082.09,1730.00 8084.00,1759.00 8084.00,1759.00              8084.00,1759.00 8087.04,1789.00 8087.04,1789.00              8087.04,1789.00 8087.04,1803.00 8087.04,1803.00              8087.04,1803.00 8088.00,1815.00 8088.00,1815.00              8088.00,1815.00 8088.00,1839.00 8088.00,1839.00              8088.00,1839.00 8088.90,1853.00 8088.90,1853.00              8088.90,1853.00 8086.08,1872.00 8086.08,1872.00              8086.08,1872.00 8086.08,1890.00 8086.08,1890.00              8086.02,1899.96 8087.06,1897.93 8087.83,1905.00              8087.83,1905.00 8090.46,1933.00 8090.46,1933.00              8090.46,1933.00 8092.91,1943.00 8092.91,1943.00              8092.91,1943.00 8096.30,1970.00 8096.30,1970.00              8097.40,1977.69 8098.96,1985.16 8099.00,1993.00              8099.00,1993.00 8099.00,1997.00 8099.00,1997.00              8099.08,2003.20 8100.02,2005.38 8100.71,2011.00              8100.71,2011.00 8102.00,2031.00 8102.00,2031.00              8102.00,2031.00 8102.00,2043.00 8102.00,2043.00              8102.00,2043.00 8103.99,2071.00 8103.99,2071.00              8103.99,2071.00 8103.09,2083.00 8103.09,2083.00              8103.09,2083.00 8106.26,2109.00 8106.26,2109.00              8106.31,2112.75 8104.83,2116.31 8104.30,2120.00              8104.30,2120.00 8103.09,2139.00 8103.09,2139.00              8103.48,2145.28 8104.98,2144.55 8104.92,2155.00              8104.92,2155.00 8104.92,2169.00 8104.92,2169.00              8104.92,2169.00 8103.00,2189.00 8103.00,2189.00              8103.00,2189.00 8103.82,2205.00 8103.82,2205.00              8103.82,2205.00 8103.00,2249.00 8103.00,2249.00              8103.00,2249.00 8104.17,2267.00 8104.17,2267.00              8104.17,2267.00 8105.35,2274.00 8105.35,2274.00              8105.35,2274.00 8105.35,2285.00 8105.35,2285.00              8105.35,2285.00 8105.35,2295.00 8105.35,2295.00              8105.35,2295.00 8104.25,2314.00 8104.25,2314.00              8104.25,2314.00 8104.25,2326.00 8104.25,2326.00              8104.25,2326.00 8103.00,2346.00 8103.00,2346.00              8103.00,2346.00 8100.09,2369.00 8100.09,2369.00              8100.09,2369.00 8100.09,2385.00 8100.09,2385.00              8100.09,2385.00 8101.13,2407.00 8101.13,2407.00              8101.13,2407.00 8101.13,2418.00 8101.13,2418.00              8101.13,2418.00 8102.74,2438.00 8102.74,2438.00              8102.74,2438.00 8101.20,2448.00 8101.20,2448.00              8101.20,2448.00 8101.20,2458.00 8101.20,2458.00              8101.20,2458.00 8101.20,2466.00 8101.20,2466.00              8101.20,2466.00 8103.00,2503.00 8103.00,2503.00              8103.00,2503.00 8105.00,2523.00 8105.00,2523.00              8105.00,2523.00 8105.00,2535.00 8105.00,2535.00              8105.00,2535.00 8104.00,2556.00 8104.00,2556.00              8104.00,2556.00 8104.82,2568.00 8104.82,2568.00              8104.82,2568.00 8104.00,2589.00 8104.00,2589.00              8104.00,2589.00 8105.20,2606.00 8105.20,2606.00              8105.20,2606.00 8105.20,2621.00 8105.20,2621.00              8105.20,2621.00 8105.96,2633.00 8105.96,2633.00              8105.96,2633.00 8105.96,2650.00 8105.96,2650.00              8105.96,2650.00 8107.22,2669.00 8107.22,2669.00              8107.22,2669.00 8107.22,2677.00 8107.22,2677.00              8107.22,2677.00 8107.22,2689.00 8107.22,2689.00              8107.22,2689.00 8107.22,2700.00 8107.22,2700.00              8107.22,2700.00 8107.22,2716.00 8107.22,2716.00              8107.22,2716.00 8108.09,2732.00 8108.09,2732.00              8108.09,2732.00 8108.09,2755.00 8108.09,2755.00              8108.09,2755.00 8108.09,2764.00 8108.09,2764.00              8108.09,2764.00 8108.09,2773.00 8108.09,2773.00              8108.09,2773.00 8107.03,2782.00 8107.03,2782.00              8107.03,2782.00 8108.14,2792.00 8108.14,2792.00              8108.14,2792.00 8108.14,2808.00 8108.14,2808.00              8108.14,2808.00 8108.14,2818.00 8108.14,2818.00              8108.14,2818.00 8108.14,2828.00 8108.14,2828.00              8108.14,2828.00 8110.00,2850.00 8110.00,2850.00              8109.91,2857.43 8108.75,2857.50 8108.14,2863.00              8108.14,2863.00 8108.14,2874.00 8108.14,2874.00              8108.14,2874.00 8108.14,2882.00 8108.14,2882.00              8108.14,2882.00 8107.00,2899.00 8107.00,2899.00              8107.00,2899.00 8107.00,2923.00 8107.00,2923.00              8107.00,2923.00 8105.09,2939.00 8105.09,2939.00              8105.09,2939.00 8105.92,2951.00 8105.92,2951.00              8105.92,2951.00 8105.00,2967.00 8105.00,2967.00              8105.00,2967.00 8107.46,2991.00 8107.46,2991.00              8108.13,2994.80 8109.99,3000.29 8109.54,3004.00              8108.90,3009.26 8107.02,3008.02 8107.00,3020.00              8107.00,3020.00 8107.00,3039.00 8107.00,3039.00              8106.98,3048.93 8105.93,3046.98 8105.17,3054.00              8105.17,3054.00 8103.91,3076.00 8103.91,3076.00              8103.91,3076.00 8102.09,3094.00 8102.09,3094.00              8102.09,3094.00 8102.92,3105.00 8102.92,3105.00              8102.92,3105.00 8102.92,3118.00 8102.92,3118.00              8101.84,3127.89 8099.85,3126.75 8100.00,3140.00              8100.00,3140.00 8102.04,3157.00 8102.04,3157.00              8102.04,3157.00 8102.04,3168.00 8102.04,3168.00              8102.04,3168.00 8103.26,3184.00 8103.26,3184.00              8102.97,3191.80 8103.43,3191.90 8104.04,3199.00              8104.04,3199.00 8104.04,3209.00 8104.04,3209.00              8104.04,3209.00 8107.16,3231.00 8107.16,3231.00              8107.16,3231.00 8107.16,3245.00 8107.16,3245.00              8107.16,3245.00 8107.16,3252.00 8107.16,3252.00              8107.16,3252.00 8109.96,3290.00 8109.96,3290.00              8109.96,3290.00 8108.09,3302.00 8108.09,3302.00              8108.09,3302.00 8108.09,3322.00 8108.09,3322.00              8108.09,3322.00 8108.95,3332.00 8108.95,3332.00              8108.95,3332.00 8108.95,3348.00 8108.95,3348.00              8108.95,3348.00 8108.04,3358.00 8108.04,3358.00              8108.04,3358.00 8108.04,3371.00 8108.04,3371.00              8108.04,3371.00 8107.01,3383.00 8107.01,3383.00              8107.01,3383.00 8108.00,3399.00 8108.00,3399.00              8108.00,3399.00 8106.91,3430.00 8106.91,3430.00              8106.91,3430.00 8106.00,3442.00 8106.00,3442.00              8106.00,3442.00 8106.68,3461.00 8106.68,3461.00              8106.68,3461.00 8106.00,3480.00 8106.00,3480.00              8106.11,3489.02 8108.08,3489.81 8108.82,3496.00              8108.82,3496.00 8110.00,3523.00 8110.00,3523.00              8110.00,3523.00 8110.90,3533.00 8110.90,3533.00              8110.90,3533.00 8110.01,3544.00 8110.01,3544.00              8110.01,3544.00 8111.00,3560.00 8111.00,3560.00              8111.00,3560.00 8112.00,3576.00 8112.00,3576.00              8112.00,3576.00 8112.00,3591.00 8112.00,3591.00              8112.00,3591.00 8112.99,3608.00 8112.99,3608.00              8112.99,3608.00 8110.92,3629.00 8110.92,3629.00              8110.92,3629.00 8110.92,3640.00 8110.92,3640.00              8110.92,3640.00 8109.02,3656.00 8109.02,3656.00              8109.02,3656.00 8110.92,3678.00 8110.92,3678.00              8110.92,3678.00 8110.00,3689.00 8110.00,3689.00              8110.00,3689.00 8110.00,3710.00 8110.00,3710.00              8110.00,3710.00 8111.08,3739.00 8111.08,3739.00              8111.08,3739.00 8111.08,3751.00 8111.08,3751.00              8111.08,3751.00 8110.01,3763.00 8110.01,3763.00              8110.01,3763.00 8111.28,3782.00 8111.28,3782.00              8111.28,3782.00 8113.00,3797.00 8113.00,3797.00              8113.00,3797.00 8113.00,3809.00 8113.00,3809.00              8113.09,3816.45 8114.24,3816.46 8115.06,3822.00              8115.06,3822.00 8115.06,3834.00 8115.06,3834.00              8115.06,3834.00 8121.00,3877.00 8121.00,3877.00              8121.00,3877.00 8121.00,3885.00 8121.00,3885.00              8121.00,3885.00 8123.09,3903.00 8123.09,3903.00              8123.09,3903.00 8123.09,3922.00 8123.09,3922.00              8123.09,3922.00 8124.83,3931.00 8124.83,3931.00              8124.83,3931.00 8126.00,3952.00 8126.00,3952.00              8126.00,3952.00 8126.95,3962.00 8126.95,3962.00              8126.95,3962.00 8126.95,3974.00 8126.95,3974.00              8126.95,3974.00 8126.04,3988.00 8126.04,3988.00              8126.04,3988.00 8129.71,4012.00 8129.71,4012.00              8129.71,4012.00 8130.29,4025.00 8130.29,4025.00              8131.51,4034.92 8132.89,4037.92 8135.78,4047.00              8135.78,4047.00 8138.22,4056.00 8138.22,4056.00              8140.00,4061.37 8142.45,4063.47 8144.76,4068.00              8144.76,4068.00 8152.19,4086.00 8152.19,4086.00              8152.19,4086.00 8153.67,4093.00 8153.67,4093.00              8153.67,4093.00 8156.54,4104.00 8156.54,4104.00              8156.54,4104.00 8158.25,4138.00 8158.25,4138.00              8157.93,4145.83 8155.00,4155.98 8153.40,4164.00              8153.40,4164.00 8151.22,4179.00 8151.22,4179.00              8151.22,4179.00 8145.89,4195.00 8145.89,4195.00              8145.89,4195.00 8140.29,4228.00 8140.29,4228.00              8140.29,4228.00 8139.70,4238.00 8139.70,4238.00              8139.70,4238.00 8136.43,4255.00 8136.43,4255.00              8136.43,4255.00 8135.83,4263.00 8135.83,4263.00              8135.83,4263.00 8134.08,4275.00 8134.08,4275.00              8134.08,4275.00 8134.08,4286.00 8134.08,4286.00              8134.08,4286.00 8132.00,4311.00 8132.00,4311.00              8132.00,4311.00 8132.00,4327.00 8132.00,4327.00              8132.00,4327.00 8133.00,4346.00 8133.00,4346.00              8133.00,4346.00 8132.04,4357.00 8132.04,4357.00              8132.04,4357.00 8132.04,4368.00 8132.04,4368.00              8132.04,4368.00 8131.03,4380.00 8131.03,4380.00              8131.03,4380.00 8131.63,4389.00 8131.63,4389.00              8131.63,4389.00 8129.08,4410.00 8129.08,4410.00              8129.08,4410.00 8129.08,4423.00 8129.08,4423.00              8129.08,4423.00 8128.04,4433.00 8128.04,4433.00              8128.04,4433.00 8128.04,4450.00 8128.04,4450.00              8128.04,4450.00 8126.00,4470.00 8126.00,4470.00              8126.00,4470.00 8126.00,4504.00 8126.00,4504.00              8126.00,4504.00 8128.30,4528.00 8128.30,4528.00              8128.30,4528.00 8129.96,4538.00 8129.96,4538.00              8129.96,4538.00 8129.01,4555.00 8129.01,4555.00              8129.01,4555.00 8130.00,4570.00 8130.00,4570.00              8130.00,4570.00 8129.09,4583.00 8129.09,4583.00              8129.09,4583.00 8130.39,4593.00 8130.39,4593.00              8130.12,4598.39 8126.65,4606.72 8127.09,4614.00              8127.62,4622.57 8129.80,4619.94 8130.00,4637.00              8130.00,4637.00 8134.00,4665.00 8134.00,4665.00              8134.00,4665.00 8136.07,4691.00 8136.07,4691.00              8136.07,4691.00 8136.07,4698.00 8136.07,4698.00              8136.07,4698.00 8137.83,4706.00 8137.83,4706.00              8137.83,4706.00 8140.00,4733.00 8140.00,4733.00              8140.00,4733.00 8141.00,4754.00 8141.00,4754.00              8141.00,4754.00 8143.83,4776.00 8143.83,4776.00              8144.56,4783.49 8143.29,4786.57 8143.04,4793.00              8143.04,4793.00 8143.96,4804.00 8143.96,4804.00              8143.96,4804.00 8143.96,4816.00 8143.96,4816.00              8143.96,4816.00 8145.00,4831.00 8145.00,4831.00              8145.00,4831.00 8146.09,4871.00 8146.09,4871.00              8146.09,4871.00 8149.22,4897.00 8149.22,4897.00              8149.22,4897.00 8149.22,4907.00 8149.22,4907.00              8149.22,4907.00 8149.95,4915.00 8149.95,4915.00              8149.95,4915.00 8149.95,4929.00 8149.95,4929.00              8149.95,4929.00 8149.01,4945.00 8149.01,4945.00              8149.01,4945.00 8151.14,4964.00 8151.14,4964.00              8151.14,4964.00 8151.14,4996.00 8151.14,4996.00              8151.14,4996.00 8153.79,5030.00 8153.79,5030.00              8153.79,5030.00 8152.09,5046.00 8152.09,5046.00              8152.09,5046.00 8152.91,5059.00 8152.91,5059.00              8152.38,5067.59 8149.82,5066.29 8150.00,5082.00              8150.00,5082.00 8151.30,5103.00 8151.30,5103.00              8152.00,5107.73 8153.91,5110.04 8153.42,5115.00              8153.13,5120.30 8152.54,5125.69 8153.42,5131.00              8154.22,5137.46 8155.91,5139.43 8156.00,5147.00              8156.00,5147.00 8156.00,5166.00 8156.00,5166.00              8156.00,5166.00 8157.00,5179.00 8157.00,5179.00              8157.00,5179.00 8157.00,5191.00 8157.00,5191.00              8157.00,5191.00 8158.00,5209.00 8158.00,5209.00              8158.00,5209.00 8157.09,5222.00 8157.09,5222.00              8157.09,5222.00 8158.49,5241.00 8158.49,5241.00              8158.49,5241.00 8159.00,5259.00 8159.00,5259.00              8159.00,5259.00 8159.00,5274.00 8159.00,5274.00              8159.00,5274.00 8159.98,5288.00 8159.98,5288.00              8159.98,5288.00 8159.00,5304.00 8159.00,5304.00              8159.00,5304.00 8159.00,5318.00 8159.00,5318.00              8159.00,5318.00 8158.00,5333.00 8158.00,5333.00              8158.00,5333.00 8158.00,5392.00 8158.00,5392.00              8158.00,5392.00 8157.00,5408.00 8157.00,5408.00              8157.00,5408.00 8156.00,5441.00 8156.00,5441.00              8156.00,5441.00 8157.08,5454.00 8157.08,5454.00              8157.08,5454.00 8157.08,5466.00 8157.08,5466.00              8157.92,5473.01 8158.98,5471.07 8159.00,5481.00              8159.00,5481.00 8159.00,5505.00 8159.00,5505.00              8159.00,5505.00 8158.09,5516.00 8158.09,5516.00              8158.09,5516.00 8158.64,5527.00 8158.64,5527.00              8158.09,5531.61 8155.70,5534.56 8156.04,5543.00              8156.36,5550.92 8158.67,5552.84 8160.37,5559.00              8160.37,5559.00 8162.91,5579.00 8162.91,5579.00              8162.48,5586.44 8160.98,5585.16 8161.00,5598.00              8161.00,5598.00 8162.46,5619.00 8162.46,5619.00              8162.13,5622.47 8160.29,5624.76 8160.04,5631.00              8159.64,5640.89 8163.69,5645.60 8162.32,5651.00              8161.66,5653.56 8159.56,5656.52 8158.40,5659.00              8156.73,5662.57 8151.32,5678.36 8151.09,5682.00              8150.05,5698.95 8165.36,5704.49 8167.66,5716.00              8169.45,5724.98 8166.03,5731.60 8166.03,5739.00              8166.03,5745.61 8167.64,5746.83 8168.63,5752.00              8168.63,5752.00 8169.66,5768.00 8169.66,5768.00              8168.85,5775.22 8161.25,5786.49 8157.90,5793.00              8155.94,5796.81 8151.66,5810.10 8148.70,5812.03              8145.43,5814.06 8140.46,5811.65 8134.00,5812.03              8124.31,5812.76 8121.64,5817.98 8106.00,5818.00              8106.00,5818.00 8090.00,5818.00 8090.00,5818.00              8090.00,5818.00 8081.00,5818.66 8081.00,5818.66              8081.00,5818.66 8072.00,5818.09 8072.00,5818.09              8072.00,5818.09 8065.00,5818.74 8065.00,5818.74              8061.95,5818.66 8060.38,5817.84 8056.00,5818.09              8056.00,5818.09 8040.00,5819.96 8040.00,5819.96              8040.00,5819.96 8025.00,5819.96 8025.00,5819.96              8025.00,5819.96 8012.00,5820.92 8012.00,5820.92              8012.00,5820.92 8001.00,5819.17 8001.00,5819.17              7995.29,5818.57 7992.46,5819.87 7989.00,5819.74              7985.01,5819.59 7983.22,5818.09 7976.00,5818.00              7976.00,5818.00 7934.00,5823.83 7934.00,5823.83              7934.00,5823.83 7921.00,5823.00 7921.00,5823.00              7921.00,5823.00 7886.00,5826.00 7886.00,5826.00              7886.00,5826.00 7873.00,5825.00 7873.00,5825.00              7873.00,5825.00 7858.00,5825.00 7858.00,5825.00              7858.00,5825.00 7842.00,5824.00 7842.00,5824.00              7842.00,5824.00 7802.00,5824.00 7802.00,5824.00              7802.00,5824.00 7781.00,5825.92 7781.00,5825.92              7775.27,5825.91 7773.14,5823.72 7765.00,5824.04              7765.00,5824.04 7750.00,5825.43 7750.00,5825.43              7750.00,5825.43 7734.00,5824.00 7734.00,5824.00              7734.00,5824.00 7714.00,5823.00 7714.00,5823.00              7714.00,5823.00 7675.00,5823.68 7675.00,5823.68              7675.00,5823.68 7667.00,5823.04 7667.00,5823.04              7667.00,5823.04 7657.00,5824.61 7657.00,5824.61              7657.00,5824.61 7647.00,5824.05 7647.00,5824.05              7647.00,5824.05 7634.00,5824.05 7634.00,5824.05              7634.00,5824.05 7627.00,5824.82 7627.00,5824.82              7627.00,5824.82 7615.00,5824.00 7615.00,5824.00              7615.00,5824.00 7567.00,5824.00 7567.00,5824.00              7567.00,5824.00 7550.00,5823.06 7550.00,5823.06              7550.00,5823.06 7452.00,5823.06 7452.00,5823.06              7452.00,5823.06 7418.00,5823.06 7418.00,5823.06              7418.00,5823.06 7409.00,5823.06 7409.00,5823.06              7409.00,5823.06 7394.00,5822.00 7394.00,5822.00              7394.00,5822.00 7367.00,5822.00 7367.00,5822.00              7367.00,5822.00 7334.00,5818.00 7334.00,5818.00              7326.55,5818.09 7326.57,5819.22 7321.00,5819.83              7321.00,5819.83 7281.00,5822.96 7281.00,5822.96              7281.00,5822.96 7269.00,5822.00 7269.00,5822.00              7269.00,5822.00 7236.00,5822.00 7236.00,5822.00              7236.00,5822.00 7224.00,5821.04 7224.00,5821.04              7224.00,5821.04 7210.00,5821.04 7210.00,5821.04              7210.00,5821.04 7188.00,5823.14 7188.00,5823.14              7188.00,5823.14 7171.00,5823.14 7171.00,5823.14              7171.00,5823.14 7140.00,5823.14 7140.00,5823.14              7140.00,5823.14 7122.00,5821.09 7122.00,5821.09              7122.00,5821.09 7107.00,5822.00 7107.00,5822.00              7107.00,5822.00 7094.00,5822.00 7094.00,5822.00              7094.00,5822.00 7075.00,5823.00 7075.00,5823.00              7075.00,5823.00 7064.00,5823.66 7064.00,5823.66              7064.00,5823.66 7053.00,5823.00 7053.00,5823.00              7053.00,5823.00 6994.00,5823.00 6994.00,5823.00              6994.00,5823.00 6981.00,5823.98 6981.00,5823.98              6981.00,5823.98 6961.00,5823.98 6961.00,5823.98              6961.00,5823.98 6943.00,5825.00 6943.00,5825.00              6943.00,5825.00 6889.00,5825.00 6889.00,5825.00              6889.00,5825.00 6874.00,5824.04 6874.00,5824.04              6874.00,5824.04 6861.00,5824.04 6861.00,5824.04              6861.00,5824.04 6849.00,5825.00 6849.00,5825.00              6849.00,5825.00 6802.00,5825.00 6802.00,5825.00              6788.14,5824.98 6794.57,5821.77 6775.00,5822.00              6766.98,5822.10 6766.43,5823.63 6760.00,5824.84              6760.00,5824.84 6746.00,5824.84 6746.00,5824.84              6746.00,5824.84 6726.00,5824.00 6726.00,5824.00              6726.00,5824.00 6711.00,5824.96 6711.00,5824.96              6711.00,5824.96 6700.00,5824.00 6700.00,5824.00              6700.00,5824.00 6676.00,5824.00 6676.00,5824.00              6676.00,5824.00 6661.00,5823.00 6661.00,5823.00              6661.00,5823.00 6647.00,5823.64 6647.00,5823.64              6641.06,5822.93 6641.08,5821.00 6631.00,5821.00              6622.72,5821.00 6623.18,5822.17 6617.00,5823.06              6617.00,5823.06 6608.00,5823.06 6608.00,5823.06              6608.00,5823.06 6601.00,5824.21 6601.00,5824.21              6601.00,5824.21 6581.00,5824.21 6581.00,5824.21              6581.00,5824.21 6566.00,5823.04 6566.00,5823.04              6566.00,5823.04 6548.00,5823.04 6548.00,5823.04              6548.00,5823.04 6538.00,5824.00 6538.00,5824.00              6538.00,5824.00 6516.00,5823.00 6516.00,5823.00              6516.00,5823.00 6503.00,5822.04 6503.00,5822.04              6503.00,5822.04 6485.00,5824.00 6485.00,5824.00              6485.00,5824.00 6459.00,5824.00 6459.00,5824.00              6459.00,5824.00 6439.00,5822.04 6439.00,5822.04              6439.00,5822.04 6430.00,5822.04 6430.00,5822.04              6430.00,5822.04 6423.00,5821.09 6423.00,5821.09              6415.18,5820.65 6401.85,5824.46 6399.00,5824.37              6399.00,5824.37 6387.00,5821.12 6387.00,5821.12              6387.00,5821.12 6369.00,5821.12 6369.00,5821.12              6361.31,5819.97 6361.76,5817.46 6349.00,5818.04              6341.56,5818.37 6339.27,5820.71 6335.00,5821.61              6335.00,5821.61 6313.00,5823.05 6313.00,5823.05              6313.00,5823.05 6300.00,5823.05 6300.00,5823.05              6300.00,5823.05 6291.00,5823.05 6291.00,5823.05              6291.00,5823.05 6283.00,5823.05 6283.00,5823.05              6283.00,5823.05 6265.00,5823.05 6265.00,5823.05              6265.00,5823.05 6250.00,5824.00 6250.00,5824.00              6250.00,5824.00 6246.00,5824.00 6246.00,5824.00              6246.00,5824.00 6231.00,5825.00 6231.00,5825.00              6231.00,5825.00 6220.00,5825.00 6220.00,5825.00              6220.00,5825.00 6194.00,5827.00 6194.00,5827.00              6194.00,5827.00 6175.00,5825.00 6175.00,5825.00              6175.00,5825.00 6161.00,5825.96 6161.00,5825.96              6161.00,5825.96 6149.00,5825.96 6149.00,5825.96              6149.00,5825.96 6134.00,5826.96 6134.00,5826.96              6134.00,5826.96 6115.00,5825.00 6115.00,5825.00              6115.00,5825.00 6100.00,5823.08 6100.00,5823.08              6100.00,5823.08 6088.00,5823.08 6088.00,5823.08              6088.00,5823.08 6068.00,5824.00 6068.00,5824.00              6068.00,5824.00 6049.00,5823.00 6049.00,5823.00              6049.00,5823.00 6037.00,5822.03 6037.00,5822.03              6037.00,5822.03 6025.00,5823.00 6025.00,5823.00              6025.00,5823.00 6007.00,5823.00 6007.00,5823.00              6007.00,5823.00 5991.00,5821.02 5991.00,5821.02              5991.00,5821.02 5970.00,5822.26 5970.00,5822.26              5970.00,5822.26 5948.00,5823.25 5948.00,5823.25              5948.00,5823.25 5928.00,5821.04 5928.00,5821.04              5928.00,5821.04 5918.00,5821.04 5918.00,5821.04              5918.00,5821.04 5911.00,5821.82 5911.00,5821.82              5911.00,5821.82 5903.00,5821.02 5903.00,5821.02              5903.00,5821.02 5884.00,5821.02 5884.00,5821.02              5884.00,5821.02 5873.00,5821.68 5873.00,5821.68              5873.00,5821.68 5858.00,5820.09 5858.00,5820.09              5858.00,5820.09 5847.00,5821.01 5847.00,5821.01              5847.00,5821.01 5799.00,5821.01 5799.00,5821.01              5799.00,5821.01 5787.00,5821.74 5787.00,5821.74              5782.78,5821.58 5780.60,5819.74 5773.00,5820.04              5773.00,5820.04 5760.00,5821.00 5760.00,5821.00              5760.00,5821.00 5733.00,5820.00 5733.00,5820.00              5733.00,5820.00 5721.00,5819.04 5721.00,5819.04              5721.00,5819.04 5708.00,5820.00 5708.00,5820.00              5708.00,5820.00 5685.00,5820.00 5685.00,5820.00              5685.00,5820.00 5670.00,5821.00 5670.00,5821.00              5670.00,5821.00 5626.00,5823.63 5626.00,5823.63              5626.00,5823.63 5608.00,5822.04 5608.00,5822.04              5608.00,5822.04 5593.00,5823.00 5593.00,5823.00              5593.00,5823.00 5561.00,5824.91 5561.00,5824.91              5561.00,5824.91 5546.00,5822.14 5546.00,5822.14              5546.00,5822.14 5535.00,5822.14 5535.00,5822.14              5535.00,5822.14 5527.00,5822.14 5527.00,5822.14              5527.00,5822.14 5503.00,5822.14 5503.00,5822.14              5503.00,5822.14 5486.00,5821.16 5486.00,5821.16              5486.00,5821.16 5469.00,5821.16 5469.00,5821.16              5469.00,5821.16 5449.00,5821.16 5449.00,5821.16              5449.00,5821.16 5419.00,5823.00 5419.00,5823.00              5419.00,5823.00 5404.00,5823.00 5404.00,5823.00              5404.00,5823.00 5349.00,5823.00 5349.00,5823.00              5339.08,5823.02 5337.96,5824.63 5332.00,5824.90              5332.00,5824.90 5323.00,5824.04 5323.00,5824.04              5323.00,5824.04 5314.00,5824.04 5314.00,5824.04              5314.00,5824.04 5304.00,5823.04 5304.00,5823.04              5304.00,5823.04 5289.00,5823.04 5289.00,5823.04              5289.00,5823.04 5268.00,5821.01 5268.00,5821.01              5268.00,5821.01 5257.00,5822.28 5257.00,5822.28              5257.00,5822.28 5232.00,5821.00 5232.00,5821.00              5232.00,5821.00 5216.00,5821.00 5216.00,5821.00              5216.00,5821.00 5196.00,5823.96 5196.00,5823.96              5196.00,5823.96 5169.00,5822.05 5169.00,5822.05              5169.00,5822.05 5149.00,5822.05 5149.00,5822.05              5149.00,5822.05 5127.00,5824.00 5127.00,5824.00              5127.00,5824.00 5112.00,5823.00 5112.00,5823.00              5112.00,5823.00 5093.00,5823.68 5093.00,5823.68              5093.00,5823.68 5079.00,5823.00 5079.00,5823.00              5079.00,5823.00 5063.00,5821.01 5063.00,5821.01              5063.00,5821.01 5049.00,5821.92 5049.00,5821.92              5049.00,5821.92 5036.00,5821.00 5036.00,5821.00              5036.00,5821.00 5010.00,5821.00 5010.00,5821.00              5010.00,5821.00 4996.00,5821.82 4996.00,5821.82              4996.00,5821.82 4986.00,5820.92 4986.00,5820.92              4986.00,5820.92 4969.00,5820.92 4969.00,5820.92              4963.88,5820.32 4960.55,5818.78 4955.00,5819.09              4955.00,5819.09 4943.00,5820.00 4943.00,5820.00              4943.00,5820.00 4918.00,5821.00 4918.00,5821.00              4918.00,5821.00 4905.00,5822.00 4905.00,5822.00              4905.00,5822.00 4889.00,5821.00 4889.00,5821.00              4889.00,5821.00 4872.00,5821.00 4872.00,5821.00              4862.89,5820.89 4861.64,5818.12 4852.00,5818.00              4852.00,5818.00 4848.00,5818.00 4848.00,5818.00              4839.98,5818.10 4838.13,5819.95 4833.00,5820.25              4833.00,5820.25 4806.00,5819.00 4806.00,5819.00              4806.00,5819.00 4788.00,5820.96 4788.00,5820.96              4788.00,5820.96 4771.00,5820.96 4771.00,5820.96              4771.00,5820.96 4761.00,5821.96 4761.00,5821.96              4761.00,5821.96 4750.00,5821.96 4750.00,5821.96              4750.00,5821.96 4735.00,5821.00 4735.00,5821.00              4735.00,5821.00 4720.00,5821.00 4720.00,5821.00              4720.00,5821.00 4704.00,5820.04 4704.00,5820.04              4704.00,5820.04 4690.00,5820.04 4690.00,5820.04              4690.00,5820.04 4678.00,5821.00 4678.00,5821.00              4678.00,5821.00 4646.00,5821.00 4646.00,5821.00              4646.00,5821.00 4631.00,5822.00 4631.00,5822.00              4631.00,5822.00 4616.00,5822.00 4616.00,5822.00              4616.00,5822.00 4602.00,5822.82 4602.00,5822.82              4598.49,5822.57 4597.02,5821.87 4593.00,5822.09              4582.74,5822.66 4572.22,5822.34 4562.00,5820.87              4562.00,5820.87 4551.00,5819.09 4551.00,5819.09              4551.00,5819.09 4531.00,5819.99 4531.00,5819.99              4531.00,5819.99 4512.00,5818.00 4512.00,5818.00              4512.00,5818.00 4468.00,5818.00 4468.00,5818.00              4468.00,5818.00 4444.00,5816.01 4444.00,5816.01              4444.00,5816.01 4431.00,5817.00 4431.00,5817.00              4417.95,5817.15 4419.04,5815.17 4411.00,5815.02              4411.00,5815.02 4388.00,5817.00 4388.00,5817.00              4376.48,5816.95 4376.02,5813.83 4361.00,5814.00              4361.00,5814.00 4341.00,5815.00 4341.00,5815.00              4341.00,5815.00 4327.00,5814.04 4327.00,5814.04              4327.00,5814.04 4313.00,5814.99 4313.00,5814.99              4313.00,5814.99 4299.00,5814.00 4299.00,5814.00              4299.00,5814.00 4277.00,5814.00 4277.00,5814.00              4277.00,5814.00 4256.00,5813.00 4256.00,5813.00              4256.00,5813.00 4235.00,5810.01 4235.00,5810.01              4224.98,5810.01 4225.89,5812.80 4214.00,5813.26              4205.18,5813.59 4200.33,5811.12 4192.00,5809.75              4185.49,5808.69 4181.42,5809.07 4175.00,5809.00              4164.90,5808.87 4166.15,5805.98 4152.00,5805.98              4146.83,5806.01 4137.89,5808.20 4134.04,5805.98              4129.82,5803.49 4128.08,5798.04 4124.67,5794.01              4117.18,5785.15 4107.00,5777.55 4095.00,5778.04              4086.19,5778.40 4083.42,5781.82 4079.00,5783.31              4075.06,5784.63 4068.65,5784.08 4061.00,5789.11              4055.32,5792.83 4050.75,5798.58 4044.00,5801.91              4037.84,5804.59 4031.49,5801.47 4023.00,5801.91              4012.95,5802.82 4013.08,5806.98 4000.00,5807.00              4000.00,5807.00 3996.00,5807.00 3996.00,5807.00              3996.00,5807.00 3967.00,5810.00 3967.00,5810.00              3967.00,5810.00 3963.00,5810.00 3963.00,5810.00              3963.00,5810.00 3930.00,5808.09 3930.00,5808.09              3920.99,5808.75 3919.05,5812.71 3912.00,5812.94              3912.00,5812.94 3894.00,5811.17 3894.00,5811.17              3887.93,5810.60 3885.61,5811.82 3882.00,5811.82              3882.00,5811.82 3871.00,5811.04 3871.00,5811.04              3871.00,5811.04 3847.00,5813.29 3847.00,5813.29              3847.00,5813.29 3834.00,5812.03 3834.00,5812.03              3834.00,5812.03 3820.00,5812.96 3820.00,5812.96              3820.00,5812.96 3807.00,5812.96 3807.00,5812.96              3807.00,5812.96 3795.00,5812.01 3795.00,5812.01              3795.00,5812.01 3781.00,5813.00 3781.00,5813.00              3781.00,5813.00 3754.00,5813.00 3754.00,5813.00              3754.00,5813.00 3737.00,5814.04 3737.00,5814.04              3737.00,5814.04 3726.00,5814.04 3726.00,5814.04              3726.00,5814.04 3716.00,5815.00 3716.00,5815.00              3716.00,5815.00 3699.00,5815.00 3699.00,5815.00              3699.00,5815.00 3682.00,5814.01 3682.00,5814.01              3682.00,5814.01 3672.00,5814.79 3672.00,5814.79              3672.00,5814.79 3648.00,5813.01 3648.00,5813.01              3648.00,5813.01 3636.00,5814.00 3636.00,5814.00              3636.00,5814.00 3618.00,5814.00 3618.00,5814.00              3618.00,5814.00 3604.00,5813.02 3604.00,5813.02              3604.00,5813.02 3586.00,5814.00 3586.00,5814.00              3586.00,5814.00 3574.00,5814.82 3574.00,5814.82              3574.00,5814.82 3502.00,5814.00 3502.00,5814.00              3502.00,5814.00 3487.00,5813.01 3487.00,5813.01              3487.00,5813.01 3473.00,5814.00 3473.00,5814.00              3473.00,5814.00 3452.00,5813.00 3452.00,5813.00              3452.00,5813.00 3409.00,5813.00 3409.00,5813.00              3409.00,5813.00 3388.00,5811.00 3388.00,5811.00              3388.00,5811.00 3371.00,5811.00 3371.00,5811.00              3371.00,5811.00 3356.00,5810.00 3356.00,5810.00              3356.00,5810.00 3340.00,5811.00 3340.00,5811.00              3340.00,5811.00 3295.00,5811.00 3295.00,5811.00              3295.00,5811.00 3274.00,5813.00 3274.00,5813.00              3274.00,5813.00 3254.00,5813.00 3254.00,5813.00              3254.00,5813.00 3243.00,5813.53 3243.00,5813.53              3243.00,5813.53 3235.00,5812.17 3235.00,5812.17              3229.39,5811.57 3224.50,5812.43 3219.00,5812.82              3219.00,5812.82 3207.00,5812.00 3207.00,5812.00              3207.00,5812.00 3178.00,5813.00 3178.00,5813.00              3178.00,5813.00 3165.00,5812.05 3165.00,5812.05              3165.00,5812.05 3123.00,5812.05 3123.00,5812.05              3123.00,5812.05 3111.00,5812.91 3111.00,5812.91              3100.96,5813.60 3096.60,5811.79 3086.00,5814.91              3079.00,5816.97 3070.66,5822.19 3064.00,5825.49              3059.35,5827.79 3057.20,5827.65 3052.00,5831.10              3052.00,5831.10 3043.00,5838.15 3043.00,5838.15              3039.50,5840.26 3037.74,5839.36 3029.00,5844.81              3024.55,5847.59 3023.82,5848.59 3020.00,5851.69              3008.55,5860.99 3008.62,5861.34 3001.00,5874.00 Z            M 2169.00,3425.43            C 2165.82,3426.08 2163.80,3426.72 2161.18,3428.80              2155.47,3433.33 2146.12,3448.38 2147.21,3456.00              2148.09,3462.07 2152.71,3466.47 2156.82,3470.58              2160.84,3474.59 2163.45,3480.19 2170.00,3479.77              2175.10,3479.45 2184.21,3474.25 2185.40,3468.99              2186.18,3465.52 2183.97,3463.23 2184.70,3459.00              2185.43,3454.78 2191.32,3444.38 2185.49,3437.21              2185.49,3437.21 2178.28,3430.91 2178.28,3430.91              2174.68,3427.33 2174.39,3425.80 2169.00,3425.43 Z"
            style="fill:#000000;fill-opacity:1"/>
</svg>
