<?xml version="1.0" encoding="UTF-8" standalone="no"?>
<svg
        width="172.191mm"
        height="121.158mm"
        viewBox="0 0 8135 5724"
        version="1.1"
        id="svg5457"
        sodipodi:docname="sheet5b.svg"
        inkscape:version="1.1.1 (3bf5ae0d25, 2021-09-20)"
        xmlns:inkscape="http://www.inkscape.org/namespaces/inkscape"
        xmlns:sodipodi="http://sodipodi.sourceforge.net/DTD/sodipodi-0.dtd"
        xmlns="http://www.w3.org/2000/svg"
>
    <defs
            id="defs5461"/>
    <sodipodi:namedview
            id="namedview5459"
            pagecolor="#ffffff"
            bordercolor="#666666"
            borderopacity="1.0"
            inkscape:pageshadow="2"
            inkscape:pageopacity="0.0"
            inkscape:pagecheckerboard="0"
            inkscape:document-units="mm"
            showgrid="false"
            inkscape:zoom="1.7317436"
            inkscape:cx="325.3946"
            inkscape:cy="228.95999"
            inkscape:window-width="1920"
            inkscape:window-height="1001"
            inkscape:window-x="-7"
            inkscape:window-y="-7"
            inkscape:window-maximized="1"
            inkscape:current-layer="svg5457"/>
    <path
            id="Selection"
            fill="none"
            stroke="black"
            stroke-width="1"
            d="M 8065.00,2387.00            C 8058.59,2391.63 8052.96,2399.09 8051.47,2407.00              8051.47,2407.00 8050.70,2419.00 8050.70,2419.00              8049.78,2425.46 8048.09,2427.43 8047.87,2435.00              8047.87,2435.00 8047.87,2449.00 8047.87,2449.00              8047.87,2449.00 8042.02,2465.00 8042.02,2465.00              8042.02,2465.00 8038.98,2477.00 8038.98,2477.00              8037.31,2480.30 8033.97,2482.34 8030.31,2489.00              8025.58,2497.62 8026.93,2498.45 8025.70,2507.00              8024.71,2513.87 8023.42,2515.09 8024.17,2523.00              8024.63,2527.80 8025.19,2534.64 8026.93,2539.00              8026.93,2539.00 8033.19,2551.00 8033.19,2551.00              8034.54,2554.76 8033.60,2557.79 8036.35,2564.00              8038.48,2568.81 8042.93,2574.97 8044.37,2580.00              8045.51,2584.04 8044.33,2586.68 8046.75,2594.00              8046.75,2594.00 8054.37,2612.00 8054.37,2612.00              8054.37,2612.00 8055.30,2624.00 8055.30,2624.00              8055.30,2624.00 8057.83,2637.00 8057.83,2637.00              8057.83,2637.00 8059.07,2648.00 8059.07,2648.00              8059.07,2648.00 8059.07,2657.00 8059.07,2657.00              8059.96,2664.26 8063.01,2666.89 8063.79,2672.00              8063.79,2672.00 8065.92,2690.00 8065.92,2690.00              8065.92,2690.00 8065.00,2704.00 8065.00,2704.00              8065.00,2704.00 8068.30,2737.00 8068.30,2737.00              8068.30,2737.00 8071.36,2750.00 8071.36,2750.00              8071.36,2750.00 8071.36,2758.00 8071.36,2758.00              8071.36,2758.00 8071.36,2774.00 8071.36,2774.00              8071.36,2774.00 8070.19,2786.00 8070.19,2786.00              8067.88,2792.72 8063.35,2798.87 8062.30,2806.00              8060.94,2815.22 8064.98,2822.94 8065.06,2832.00              8065.06,2832.00 8065.06,2844.00 8065.06,2844.00              8064.58,2848.49 8062.73,2849.99 8063.04,2858.00              8063.04,2858.00 8063.96,2866.00 8063.96,2866.00              8063.96,2866.00 8063.96,2879.00 8063.96,2879.00              8063.96,2879.00 8065.23,2892.00 8065.23,2892.00              8065.04,2895.90 8064.77,2900.18 8065.23,2904.00              8066.90,2911.96 8068.99,2911.46 8069.00,2921.00              8069.00,2930.76 8066.95,2931.69 8066.08,2939.00              8066.08,2939.00 8066.08,2953.00 8066.08,2953.00              8066.08,2953.00 8065.00,2966.00 8065.00,2966.00              8064.95,2970.57 8064.72,2978.83 8065.68,2983.00              8067.18,2989.55 8069.78,2990.55 8069.98,2998.00              8070.16,3004.19 8069.43,3004.95 8069.04,3010.00              8069.04,3010.00 8069.04,3022.00 8069.04,3022.00              8069.02,3035.53 8075.14,3044.12 8074.67,3051.00              8073.64,3066.21 8067.43,3072.10 8065.22,3079.00              8063.77,3083.53 8063.95,3088.31 8064.00,3093.00              8064.10,3101.12 8065.37,3100.58 8066.63,3107.00              8066.63,3107.00 8067.93,3116.00 8067.93,3116.00              8068.73,3118.99 8070.47,3121.98 8070.49,3125.00              8070.53,3130.22 8067.25,3138.94 8065.92,3144.00              8065.92,3144.00 8064.37,3154.00 8064.37,3154.00              8063.00,3158.81 8059.58,3162.58 8060.09,3171.00              8060.78,3182.13 8067.03,3186.21 8067.29,3196.00              8067.35,3198.35 8066.98,3204.85 8066.37,3207.00              8066.37,3207.00 8063.33,3214.00 8063.33,3214.00              8060.00,3221.76 8058.01,3229.55 8057.91,3238.00              8057.91,3238.00 8057.91,3255.00 8057.91,3255.00              8057.21,3260.79 8055.42,3262.97 8056.17,3270.00              8057.01,3277.85 8060.29,3280.25 8061.82,3286.00              8065.79,3300.93 8062.53,3298.15 8063.09,3308.00              8063.09,3308.00 8064.11,3315.00 8064.11,3315.00              8064.11,3315.00 8064.11,3325.00 8064.11,3325.00              8064.11,3325.00 8065.83,3333.00 8065.83,3333.00              8066.38,3338.19 8065.46,3339.98 8066.90,3346.00              8066.90,3346.00 8071.22,3362.00 8071.22,3362.00              8074.03,3370.53 8075.41,3369.37 8075.44,3380.00              8075.46,3384.57 8072.68,3386.95 8070.95,3391.00              8069.01,3395.56 8065.34,3408.04 8064.46,3413.00              8064.46,3413.00 8063.83,3425.00 8063.83,3425.00              8063.24,3430.49 8061.65,3432.16 8062.09,3439.00              8062.32,3442.60 8064.35,3455.31 8063.39,3457.83              8062.48,3460.22 8058.22,3463.72 8056.33,3466.00              8051.99,3471.22 8049.67,3477.17 8050.09,3484.00              8050.65,3493.03 8055.05,3499.33 8058.74,3507.00              8058.74,3507.00 8063.34,3522.00 8063.34,3522.00              8063.34,3522.00 8070.30,3535.00 8070.30,3535.00              8070.30,3535.00 8071.92,3546.00 8071.92,3546.00              8073.12,3550.56 8076.65,3558.63 8076.86,3563.00              8076.86,3563.00 8074.91,3580.00 8074.91,3580.00              8074.91,3580.00 8074.91,3591.00 8074.91,3591.00              8074.24,3596.52 8073.08,3596.61 8073.00,3604.00              8073.00,3604.00 8074.99,3634.00 8074.99,3634.00              8075.27,3646.84 8069.98,3641.32 8061.53,3652.01              8055.77,3659.29 8056.67,3662.30 8054.38,3670.00              8052.59,3676.03 8050.69,3677.98 8051.09,3685.00              8051.09,3685.00 8053.22,3706.00 8053.22,3706.00              8053.22,3706.00 8059.01,3718.00 8059.01,3718.00              8059.01,3718.00 8060.92,3732.00 8060.92,3732.00              8060.92,3732.00 8065.22,3748.00 8065.22,3748.00              8065.22,3748.00 8068.77,3757.00 8068.77,3757.00              8070.40,3764.06 8068.54,3765.76 8068.18,3772.00              8068.18,3772.00 8068.18,3786.00 8068.18,3786.00              8068.18,3786.00 8068.18,3793.00 8068.18,3793.00              8067.83,3801.51 8070.76,3809.73 8072.58,3818.00              8072.58,3818.00 8074.47,3833.00 8074.47,3833.00              8074.47,3833.00 8076.66,3842.00 8076.66,3842.00              8076.71,3845.75 8073.49,3849.64 8071.81,3853.00              8069.23,3858.18 8068.01,3863.22 8068.01,3869.00              8068.01,3883.98 8071.59,3888.08 8073.31,3899.00              8074.53,3904.59 8073.37,3906.05 8073.31,3911.00              8072.68,3918.26 8075.49,3923.27 8077.10,3930.00              8078.70,3936.69 8077.50,3939.98 8078.29,3946.00              8078.29,3946.00 8080.94,3961.00 8080.94,3961.00              8080.99,3966.97 8078.25,3968.99 8075.82,3974.00              8074.13,3977.49 8070.35,3990.17 8070.09,3994.00              8069.61,4001.02 8071.61,4003.66 8071.66,4008.00              8071.66,4008.00 8071.02,4015.00 8071.02,4015.00              8071.02,4015.00 8071.02,4033.00 8071.02,4033.00              8070.98,4044.53 8067.14,4046.34 8068.17,4056.00              8068.17,4056.00 8070.46,4066.00 8070.46,4066.00              8070.73,4068.87 8069.23,4075.43 8070.46,4082.00              8071.59,4087.96 8074.27,4090.45 8073.57,4095.00              8073.13,4097.84 8071.07,4100.80 8070.28,4106.00              8070.28,4106.00 8070.28,4121.00 8070.28,4121.00              8070.02,4127.59 8070.19,4131.57 8072.22,4138.00              8073.38,4141.68 8075.71,4145.05 8075.81,4149.00              8075.96,4155.21 8071.56,4160.32 8072.09,4169.00              8072.54,4176.17 8076.40,4180.42 8076.79,4190.00              8077.02,4195.64 8073.60,4199.06 8074.09,4207.00              8074.62,4215.54 8079.16,4219.19 8078.86,4226.00              8078.86,4226.00 8075.30,4244.00 8075.30,4244.00              8074.17,4247.48 8071.98,4249.36 8070.61,4255.00              8069.02,4262.19 8070.76,4267.29 8070.61,4272.00              8070.33,4276.33 8068.81,4276.96 8069.01,4286.00              8069.20,4293.88 8071.53,4296.13 8072.32,4303.00              8073.27,4307.75 8072.33,4308.75 8072.32,4313.00              8071.76,4318.90 8073.33,4321.15 8073.61,4325.00              8073.61,4325.00 8073.02,4334.00 8073.02,4334.00              8073.02,4334.00 8074.17,4349.00 8074.17,4349.00              8074.17,4349.00 8078.69,4372.00 8078.69,4372.00              8078.69,4372.00 8078.17,4386.00 8078.17,4386.00              8079.10,4394.63 8081.16,4391.19 8081.00,4405.00              8081.00,4405.00 8079.63,4421.00 8079.63,4421.00              8079.63,4421.00 8077.30,4430.00 8077.30,4430.00              8077.30,4430.00 8076.35,4444.00 8076.35,4444.00              8074.32,4450.78 8069.15,4452.96 8069.00,4466.00              8068.81,4483.26 8074.16,4494.85 8077.67,4511.00              8077.67,4511.00 8079.67,4519.00 8079.67,4519.00              8079.67,4519.00 8079.00,4536.00 8079.00,4536.00              8078.92,4542.49 8077.54,4546.85 8076.46,4553.00              8076.46,4553.00 8075.83,4562.00 8075.83,4562.00              8074.90,4570.67 8073.82,4566.08 8074.21,4578.00              8074.21,4578.00 8074.21,4589.00 8074.21,4589.00              8074.84,4595.26 8076.94,4596.22 8077.63,4610.00              8077.63,4610.00 8077.00,4622.00 8077.00,4622.00              8077.00,4622.00 8077.91,4639.00 8077.91,4639.00              8077.91,4639.00 8077.02,4654.00 8077.02,4654.00              8077.02,4654.00 8073.22,4663.00 8073.22,4663.00              8071.84,4667.34 8071.95,4671.51 8072.00,4676.00              8072.00,4676.00 8074.90,4698.00 8074.90,4698.00              8074.90,4698.00 8073.17,4708.00 8073.17,4708.00              8073.17,4708.00 8071.71,4731.00 8071.71,4731.00              8070.80,4737.99 8068.74,4741.38 8069.04,4749.00              8069.04,4749.00 8070.13,4758.00 8070.13,4758.00              8070.13,4758.00 8070.13,4775.00 8070.13,4775.00              8071.11,4780.48 8073.98,4784.75 8073.45,4790.00              8072.99,4794.49 8072.08,4794.84 8072.00,4801.00              8072.00,4801.00 8072.00,4807.00 8072.00,4807.00              8072.00,4807.00 8072.53,4816.00 8072.53,4816.00              8072.53,4816.00 8070.90,4825.00 8070.90,4825.00              8070.90,4825.00 8070.90,4836.00 8070.90,4836.00              8070.90,4836.00 8067.40,4854.00 8067.40,4854.00              8066.58,4859.57 8067.82,4862.06 8067.40,4866.00              8067.40,4866.00 8066.83,4881.00 8066.83,4881.00              8066.40,4885.50 8065.90,4887.12 8066.01,4892.00              8066.01,4892.00 8067.43,4912.00 8067.43,4912.00              8067.43,4912.00 8071.31,4934.00 8071.31,4934.00              8071.31,4934.00 8071.31,4940.00 8071.31,4940.00              8071.31,4940.00 8075.79,4973.00 8075.79,4973.00              8076.30,4982.86 8070.36,4988.45 8071.09,4999.00              8071.77,5008.94 8077.19,5012.31 8077.34,5017.00              8077.43,5019.85 8074.28,5024.62 8073.22,5028.00              8071.49,5033.51 8070.01,5043.19 8070.00,5049.00              8070.00,5049.00 8070.00,5055.00 8070.00,5055.00              8070.09,5062.37 8071.31,5062.89 8071.61,5067.00              8071.61,5067.00 8071.09,5077.00 8071.09,5077.00              8071.09,5077.00 8072.39,5088.00 8072.39,5088.00              8072.14,5092.52 8070.47,5095.40 8071.17,5102.00              8071.99,5109.66 8074.88,5110.09 8075.00,5119.00              8075.15,5131.15 8072.20,5131.65 8071.17,5142.00              8071.17,5142.00 8070.09,5160.00 8070.09,5160.00              8070.09,5160.00 8071.20,5177.00 8071.20,5177.00              8070.94,5181.49 8068.80,5183.77 8069.04,5191.00              8069.37,5200.83 8077.97,5219.05 8078.00,5236.00              8078.00,5236.00 8078.00,5257.00 8078.00,5257.00              8078.00,5257.00 8076.01,5275.00 8076.01,5275.00              8076.01,5275.00 8077.98,5293.00 8077.98,5293.00              8077.76,5304.53 8072.05,5313.93 8072.00,5325.00              8072.00,5325.00 8071.01,5344.00 8071.01,5344.00              8071.01,5344.00 8071.53,5355.00 8071.53,5355.00              8071.35,5358.94 8069.75,5360.83 8070.04,5368.00              8070.30,5374.54 8072.46,5377.31 8072.70,5381.00              8072.70,5381.00 8071.03,5394.00 8071.03,5394.00              8071.03,5394.00 8071.74,5403.00 8071.74,5403.00              8071.66,5406.07 8070.83,5407.76 8071.09,5412.00              8071.09,5412.00 8072.62,5422.00 8072.62,5422.00              8072.49,5425.91 8070.03,5428.79 8070.03,5436.00              8070.03,5444.41 8073.35,5446.58 8072.70,5453.00              8072.70,5453.00 8070.02,5467.00 8070.02,5467.00              8068.50,5470.33 8065.14,5472.99 8063.22,5479.00              8061.35,5484.85 8062.44,5487.81 8061.70,5493.00              8061.70,5493.00 8059.67,5502.00 8059.67,5502.00              8058.72,5506.63 8058.95,5514.08 8059.13,5519.00              8059.04,5522.22 8060.01,5527.36 8059.13,5530.00              8058.25,5533.61 8055.05,5536.28 8054.17,5544.00              8054.17,5544.00 8052.93,5556.00 8052.93,5556.00              8052.93,5556.00 8052.93,5565.00 8052.93,5565.00              8052.93,5565.00 8050.17,5577.00 8050.17,5577.00              8050.17,5577.00 8049.48,5588.00 8049.48,5588.00              8049.48,5588.00 8043.47,5607.00 8043.47,5607.00              8042.71,5610.95 8042.48,5620.85 8040.83,5623.91              8038.68,5627.87 8030.79,5632.20 8027.00,5635.32              8027.00,5635.32 8016.33,5645.04 8016.33,5645.04              8013.91,5647.82 8012.42,5651.42 8008.90,5652.99              8005.65,5654.44 7998.76,5653.96 7995.00,5654.00              7986.24,5654.11 7974.90,5659.15 7966.00,5661.39              7962.21,5662.35 7955.19,5661.95 7951.00,5662.00              7951.00,5662.00 7930.00,5663.96 7930.00,5663.96              7930.00,5663.96 7917.00,5663.96 7917.00,5663.96              7911.63,5663.54 7908.95,5662.54 7903.00,5663.17              7903.00,5663.17 7888.00,5666.39 7888.00,5666.39              7888.00,5666.39 7863.00,5668.00 7863.00,5668.00              7863.00,5668.00 7844.00,5666.00 7844.00,5666.00              7844.00,5666.00 7834.00,5666.00 7834.00,5666.00              7830.47,5665.50 7828.86,5664.87 7825.00,5665.09              7825.00,5665.09 7806.00,5666.00 7806.00,5666.00              7798.73,5665.91 7795.48,5664.22 7789.00,5663.15              7789.00,5663.15 7775.00,5663.15 7775.00,5663.15              7775.00,5663.15 7765.00,5662.04 7765.00,5662.04              7765.00,5662.04 7753.00,5662.04 7753.00,5662.04              7753.00,5662.04 7741.00,5663.04 7741.00,5663.04              7741.00,5663.04 7731.00,5663.04 7731.00,5663.04              7731.00,5663.04 7716.00,5664.99 7716.00,5664.99              7716.00,5664.99 7694.00,5663.09 7694.00,5663.09              7687.45,5662.67 7685.66,5664.23 7681.00,5664.28              7669.93,5664.40 7670.64,5662.58 7656.00,5663.68              7656.00,5663.68 7643.00,5663.04 7643.00,5663.04              7643.00,5663.04 7630.00,5665.18 7630.00,5665.18              7630.00,5665.18 7613.00,5665.18 7613.00,5665.18              7603.00,5664.88 7599.15,5660.57 7590.00,5661.09              7590.00,5661.09 7564.00,5664.67 7564.00,5664.67              7564.00,5664.67 7544.00,5662.01 7544.00,5662.01              7544.00,5662.01 7523.00,5663.96 7523.00,5663.96              7523.00,5663.96 7500.00,5662.09 7500.00,5662.09              7500.00,5662.09 7488.00,5662.98 7488.00,5662.98              7481.72,5662.81 7481.39,5661.40 7476.00,5659.93              7470.22,5658.34 7461.01,5657.01 7455.00,5657.00              7455.00,5657.00 7427.00,5658.00 7427.00,5658.00              7427.00,5658.00 7414.00,5659.40 7414.00,5659.40              7414.00,5659.40 7400.00,5658.00 7400.00,5658.00              7384.64,5657.98 7384.64,5660.54 7375.00,5660.96              7361.51,5661.55 7363.42,5658.25 7353.00,5658.01              7353.00,5658.01 7331.00,5660.21 7331.00,5660.21              7331.00,5660.21 7319.00,5660.21 7319.00,5660.21              7319.00,5660.21 7310.00,5659.04 7310.00,5659.04              7310.00,5659.04 7287.00,5659.04 7287.00,5659.04              7287.00,5659.04 7270.00,5658.13 7270.00,5658.13              7270.00,5658.13 7241.00,5658.13 7241.00,5658.13              7241.00,5658.13 7224.00,5657.24 7224.00,5657.24              7224.00,5657.24 7199.00,5657.24 7199.00,5657.24              7199.00,5657.24 7184.00,5656.02 7184.00,5656.02              7184.00,5656.02 7171.00,5656.82 7171.00,5656.82              7171.00,5656.82 7143.00,5654.00 7143.00,5654.00              7143.00,5654.00 7130.00,5654.00 7130.00,5654.00              7130.00,5654.00 7111.00,5655.96 7111.00,5655.96              7111.00,5655.96 7098.00,5655.09 7098.00,5655.09              7098.00,5655.09 7086.00,5655.09 7086.00,5655.09              7080.08,5655.81 7079.79,5657.14 7072.00,5656.98              7072.00,5656.98 7054.00,5655.71 7054.00,5655.71              7048.60,5655.01 7047.14,5654.08 7041.00,5654.00              7036.62,5653.95 7031.22,5653.77 7027.00,5654.67              7021.06,5655.94 7016.46,5658.67 7010.00,5658.39              7010.00,5658.39 6997.00,5655.46 6997.00,5655.46              6997.00,5655.46 6958.00,5651.00 6958.00,5651.00              6958.00,5651.00 6934.00,5652.16 6934.00,5652.16              6934.00,5652.16 6920.00,5652.16 6920.00,5652.16              6920.00,5652.16 6911.00,5652.16 6911.00,5652.16              6906.70,5652.21 6904.95,5653.06 6901.00,5653.72              6901.00,5653.72 6878.00,5656.00 6878.00,5656.00              6878.00,5656.00 6851.00,5657.00 6851.00,5657.00              6851.00,5657.00 6835.00,5658.00 6835.00,5658.00              6835.00,5658.00 6816.00,5658.00 6816.00,5658.00              6816.00,5658.00 6792.00,5659.74 6792.00,5659.74              6792.00,5659.74 6760.00,5656.00 6760.00,5656.00              6760.00,5656.00 6738.00,5656.00 6738.00,5656.00              6738.00,5656.00 6726.00,5656.96 6726.00,5656.96              6726.00,5656.96 6711.00,5656.96 6711.00,5656.96              6711.00,5656.96 6695.00,5658.00 6695.00,5658.00              6686.58,5657.96 6687.23,5656.84 6681.00,5656.09              6681.00,5656.09 6669.00,5656.09 6669.00,5656.09              6653.94,5655.98 6646.30,5649.15 6634.00,5645.92              6626.03,5643.83 6611.49,5644.10 6603.00,5644.00              6603.00,5644.00 6570.00,5638.30 6570.00,5638.30              6570.00,5638.30 6545.00,5635.00 6545.00,5635.00              6545.00,5635.00 6536.00,5635.00 6536.00,5635.00              6536.00,5635.00 6527.00,5633.17 6527.00,5633.17              6527.00,5633.17 6503.00,5632.24 6503.00,5632.24              6503.00,5632.24 6495.00,5632.24 6495.00,5632.24              6490.69,5632.43 6489.18,5631.62 6484.00,5632.24              6484.00,5632.24 6469.00,5634.93 6469.00,5634.93              6469.00,5634.93 6461.00,5637.61 6461.00,5637.61              6461.00,5637.61 6445.00,5639.28 6445.00,5639.28              6433.32,5640.94 6427.83,5643.15 6415.00,5642.84              6403.50,5642.86 6408.05,5641.56 6393.00,5642.84              6393.00,5642.84 6372.00,5641.00 6372.00,5641.00              6372.00,5641.00 6362.00,5641.96 6362.00,5641.96              6362.00,5641.96 6347.00,5641.96 6347.00,5641.96              6347.00,5641.96 6334.00,5643.00 6334.00,5643.00              6327.28,5643.07 6314.41,5641.76 6308.00,5640.08              6308.00,5640.08 6292.00,5634.68 6292.00,5634.68              6292.00,5634.68 6273.00,5633.19 6273.00,5633.19              6273.00,5633.19 6261.00,5633.19 6261.00,5633.19              6255.06,5632.88 6251.83,5630.12 6242.00,5631.17              6236.22,5631.79 6232.68,5633.89 6229.00,5634.62              6229.00,5634.62 6221.00,5635.30 6221.00,5635.30              6221.00,5635.30 6211.00,5637.68 6211.00,5637.68              6211.00,5637.68 6201.00,5638.67 6201.00,5638.67              6201.00,5638.67 6176.00,5644.68 6176.00,5644.68              6176.00,5644.68 6159.00,5646.17 6159.00,5646.17              6151.98,5646.93 6153.93,5647.98 6144.00,5648.00              6144.00,5648.00 6115.00,5648.00 6115.00,5648.00              6115.00,5648.00 6101.00,5648.98 6101.00,5648.98              6101.00,5648.98 6087.00,5648.09 6087.00,5648.09              6087.00,5648.09 6059.00,5650.99 6059.00,5650.99              6050.42,5650.78 6050.41,5648.02 6038.00,5648.00              6038.00,5648.00 6018.00,5649.00 6018.00,5649.00              6018.00,5649.00 5983.00,5648.00 5983.00,5648.00              5983.00,5648.00 5963.00,5646.71 5963.00,5646.71              5957.38,5646.02 5955.20,5645.08 5949.00,5645.00              5939.41,5644.89 5933.36,5645.73 5924.00,5647.89              5918.02,5649.26 5909.79,5652.23 5904.00,5651.91              5904.00,5651.91 5882.00,5651.00 5882.00,5651.00              5870.69,5651.14 5867.50,5655.33 5858.00,5654.96              5858.00,5654.96 5850.00,5654.04 5850.00,5654.04              5850.00,5654.04 5839.00,5654.04 5839.00,5654.04              5828.59,5653.87 5825.77,5649.96 5817.00,5647.22              5811.36,5645.46 5794.02,5643.01 5788.00,5643.00              5788.00,5643.00 5766.00,5644.11 5766.00,5644.11              5766.00,5644.11 5757.00,5644.11 5757.00,5644.11              5757.00,5644.11 5742.00,5647.91 5742.00,5647.91              5742.00,5647.91 5722.00,5647.00 5722.00,5647.00              5722.00,5647.00 5705.00,5645.00 5705.00,5645.00              5686.05,5644.79 5663.84,5653.73 5645.00,5656.08              5645.00,5656.08 5633.00,5656.08 5633.00,5656.08              5633.00,5656.08 5619.00,5656.08 5619.00,5656.08              5619.00,5656.08 5593.00,5658.82 5593.00,5658.82              5593.00,5658.82 5565.00,5656.09 5565.00,5656.09              5565.00,5656.09 5554.00,5657.83 5554.00,5657.83              5554.00,5657.83 5529.00,5659.00 5529.00,5659.00              5529.00,5659.00 5519.00,5658.00 5519.00,5658.00              5519.00,5658.00 5508.00,5658.00 5508.00,5658.00              5508.00,5658.00 5493.00,5657.00 5493.00,5657.00              5493.00,5657.00 5468.00,5658.95 5468.00,5658.95              5461.80,5658.52 5460.84,5655.55 5453.00,5654.30              5440.46,5652.30 5427.66,5653.02 5415.00,5653.00              5415.00,5653.00 5397.00,5652.09 5397.00,5652.09              5397.00,5652.09 5384.00,5654.70 5384.00,5654.70              5384.00,5654.70 5360.00,5656.00 5360.00,5656.00              5360.00,5656.00 5320.00,5659.82 5320.00,5659.82              5320.00,5659.82 5299.00,5658.00 5299.00,5658.00              5299.00,5658.00 5274.00,5657.00 5274.00,5657.00              5274.00,5657.00 5260.00,5656.00 5260.00,5656.00              5246.63,5655.85 5248.81,5657.59 5238.00,5659.54              5238.00,5659.54 5220.00,5660.91 5220.00,5660.91              5214.91,5660.75 5212.43,5657.90 5208.00,5655.90              5203.31,5653.78 5198.13,5652.83 5193.00,5653.04              5193.00,5653.04 5165.00,5659.90 5165.00,5659.90              5165.00,5659.90 5157.00,5659.90 5157.00,5659.90              5157.00,5659.90 5144.00,5660.83 5144.00,5660.83              5144.00,5660.83 5115.00,5657.00 5115.00,5657.00              5115.00,5657.00 5095.00,5658.91 5095.00,5658.91              5095.00,5658.91 5052.00,5660.00 5052.00,5660.00              5041.29,5659.87 5041.83,5656.83 5027.00,5657.00              5027.00,5657.00 5013.00,5658.82 5013.00,5658.82              5013.00,5658.82 4999.00,5657.13 4999.00,5657.13              4999.00,5657.13 4978.00,5657.13 4978.00,5657.13              4973.21,5656.98 4974.19,5656.01 4965.00,5656.09              4965.00,5656.09 4948.00,5656.09 4948.00,5656.09              4943.01,5656.71 4940.88,5658.24 4935.00,5657.91              4935.00,5657.91 4921.00,5657.00 4921.00,5657.00              4921.00,5657.00 4910.00,5657.79 4910.00,5657.79              4904.30,5657.43 4901.31,5655.07 4891.00,5656.17              4891.00,5656.17 4856.00,5661.00 4856.00,5661.00              4856.00,5661.00 4839.00,5662.48 4839.00,5662.48              4839.00,5662.48 4816.00,5660.00 4816.00,5660.00              4816.00,5660.00 4794.00,5660.00 4794.00,5660.00              4794.00,5660.00 4760.00,5656.03 4760.00,5656.03              4760.00,5656.03 4747.00,5657.58 4747.00,5657.58              4747.00,5657.58 4738.00,5658.30 4738.00,5658.30              4729.88,5659.46 4724.57,5661.04 4716.00,5661.00              4716.00,5661.00 4705.00,5660.05 4705.00,5660.05              4705.00,5660.05 4688.00,5660.05 4688.00,5660.05              4688.00,5660.05 4673.00,5661.00 4673.00,5661.00              4673.00,5661.00 4649.00,5661.00 4649.00,5661.00              4649.00,5661.00 4631.00,5662.37 4631.00,5662.37              4625.97,5662.33 4625.36,5660.02 4614.00,5660.00              4614.00,5660.00 4588.00,5660.00 4588.00,5660.00              4588.00,5660.00 4568.00,5661.00 4568.00,5661.00              4568.00,5661.00 4550.00,5659.02 4550.00,5659.02              4542.14,5659.17 4540.61,5661.38 4535.00,5661.90              4535.00,5661.90 4516.00,5661.01 4516.00,5661.01              4516.00,5661.01 4490.00,5663.00 4490.00,5663.00              4490.00,5663.00 4473.00,5663.96 4473.00,5663.96              4473.00,5663.96 4459.00,5662.17 4459.00,5662.17              4459.00,5662.17 4430.00,5661.00 4430.00,5661.00              4430.00,5661.00 4416.00,5661.78 4416.00,5661.78              4410.63,5661.16 4408.40,5658.33 4398.00,5659.09              4391.01,5659.60 4388.70,5662.08 4384.00,5662.79              4384.00,5662.79 4366.00,5663.90 4366.00,5663.90              4366.00,5663.90 4359.00,5663.09 4359.00,5663.09              4359.00,5663.09 4337.00,5664.86 4337.00,5664.86              4330.83,5664.55 4329.26,5661.02 4316.00,5661.00              4316.00,5661.00 4295.00,5661.00 4295.00,5661.00              4295.00,5661.00 4273.00,5658.68 4273.00,5658.68              4264.77,5657.33 4267.21,5656.02 4256.00,5656.00              4256.00,5656.00 4249.00,5656.00 4249.00,5656.00              4249.00,5656.00 4234.00,5655.00 4234.00,5655.00              4234.00,5655.00 4222.00,5655.90 4222.00,5655.90              4222.00,5655.90 4210.00,5655.01 4210.00,5655.01              4210.00,5655.01 4199.00,5656.14 4199.00,5656.14              4199.00,5656.14 4190.00,5656.14 4190.00,5656.14              4190.00,5656.14 4177.00,5656.14 4177.00,5656.14              4177.00,5656.14 4156.00,5652.03 4156.00,5652.03              4156.00,5652.03 4147.00,5652.03 4147.00,5652.03              4143.08,5651.53 4132.44,5648.25 4129.58,5645.70              4126.83,5643.25 4115.72,5631.78 4113.99,5629.00              4113.99,5629.00 4107.69,5615.00 4107.69,5615.00              4100.89,5602.55 4089.97,5592.54 4075.00,5593.04              4062.29,5593.47 4052.76,5603.58 4048.56,5615.00              4045.48,5623.34 4048.35,5625.12 4040.61,5635.00              4040.61,5635.00 4031.49,5645.05 4031.49,5645.05              4026.79,5648.24 4010.06,5650.65 4004.00,5652.13              3993.32,5654.74 3995.73,5656.98 3984.00,5657.00              3984.00,5657.00 3977.00,5657.00 3977.00,5657.00              3965.17,5656.84 3958.68,5650.02 3943.00,5650.00              3943.00,5650.00 3930.00,5650.00 3930.00,5650.00              3930.00,5650.00 3913.00,5649.00 3913.00,5649.00              3902.11,5648.94 3903.21,5647.01 3895.00,5645.47              3895.00,5645.47 3876.00,5643.09 3876.00,5643.09              3864.12,5642.27 3858.66,5645.75 3852.00,5645.39              3848.75,5645.21 3845.34,5643.43 3842.00,5642.68              3837.88,5641.75 3834.17,5642.05 3830.00,5642.00              3830.00,5642.00 3804.00,5636.46 3804.00,5636.46              3804.00,5636.46 3782.00,5633.82 3782.00,5633.82              3782.00,5633.82 3771.00,5631.30 3771.00,5631.30              3771.00,5631.30 3744.00,5630.17 3744.00,5630.17              3744.00,5630.17 3733.00,5630.17 3733.00,5630.17              3733.00,5630.17 3724.00,5630.17 3724.00,5630.17              3719.11,5630.40 3717.89,5631.21 3712.00,5630.96              3712.00,5630.96 3691.00,5628.00 3691.00,5628.00              3677.10,5627.84 3680.96,5626.73 3669.00,5624.61              3669.00,5624.61 3658.00,5623.63 3658.00,5623.63              3658.00,5623.63 3647.00,5620.67 3647.00,5620.67              3641.96,5619.63 3628.45,5618.94 3623.00,5619.00              3613.50,5619.12 3609.31,5622.54 3600.00,5623.71              3600.00,5623.71 3584.00,5623.00 3584.00,5623.00              3584.00,5623.00 3565.00,5624.00 3565.00,5624.00              3565.00,5624.00 3541.00,5624.00 3541.00,5624.00              3541.00,5624.00 3521.00,5626.19 3521.00,5626.19              3521.00,5626.19 3513.00,5626.19 3513.00,5626.19              3500.42,5625.75 3492.96,5631.97 3481.00,5631.97              3481.00,5631.97 3455.00,5627.09 3455.00,5627.09              3448.43,5626.69 3446.11,5628.96 3441.00,5628.24              3432.81,5627.09 3433.80,5624.02 3420.00,5624.00              3420.00,5624.00 3403.00,5624.00 3403.00,5624.00              3403.00,5624.00 3387.00,5624.99 3387.00,5624.99              3387.00,5624.99 3378.00,5624.04 3378.00,5624.04              3378.00,5624.04 3366.00,5624.04 3366.00,5624.04              3366.00,5624.04 3353.00,5623.09 3353.00,5623.09              3353.00,5623.09 3341.00,5623.09 3341.00,5623.09              3341.00,5623.09 3334.00,5624.15 3334.00,5624.15              3334.00,5624.15 3325.00,5624.15 3325.00,5624.15              3317.01,5624.37 3311.97,5627.97 3308.00,5627.31              3303.97,5626.65 3301.27,5622.52 3293.00,5621.48              3286.74,5620.37 3283.88,5621.69 3279.00,5621.48              3279.00,5621.48 3256.00,5618.12 3256.00,5618.12              3249.04,5616.11 3247.48,5613.71 3242.00,5611.47              3235.16,5608.68 3230.60,5608.92 3224.00,5607.63              3219.21,5606.69 3218.23,5605.32 3212.00,5605.04              3194.76,5604.26 3196.89,5609.84 3185.00,5610.00              3177.00,5610.10 3168.87,5609.86 3161.00,5611.68              3150.31,5614.15 3149.64,5618.01 3136.00,5617.20              3136.00,5617.20 3115.00,5612.67 3115.00,5612.67              3115.00,5612.67 3100.00,5610.49 3100.00,5610.49              3100.00,5610.49 3082.00,5605.44 3082.00,5605.44              3074.96,5604.18 3069.69,5605.61 3065.00,5605.44              3065.00,5605.44 3056.00,5603.29 3056.00,5603.29              3049.15,5602.23 3044.84,5602.08 3038.00,5602.00              3031.41,5601.92 3031.58,5601.16 3026.00,5600.29              3026.00,5600.29 3005.00,5596.91 3005.00,5596.91              2992.83,5594.61 2998.19,5594.18 2984.00,5594.00              2974.29,5593.87 2976.20,5591.02 2963.00,5591.00              2963.00,5591.00 2940.00,5591.70 2940.00,5591.70              2940.00,5591.70 2916.00,5584.43 2916.00,5584.43              2907.63,5582.08 2905.66,5583.62 2901.00,5582.61              2901.00,5582.61 2892.00,5579.22 2892.00,5579.22              2892.00,5579.22 2882.00,5577.37 2882.00,5577.37              2882.00,5577.37 2868.00,5572.38 2868.00,5572.38              2868.00,5572.38 2847.00,5569.73 2847.00,5569.73              2847.00,5569.73 2825.00,5567.00 2825.00,5567.00              2825.00,5567.00 2816.00,5567.00 2816.00,5567.00              2812.20,5566.65 2810.15,5565.84 2806.00,5566.09              2806.00,5566.09 2792.00,5568.87 2792.00,5568.87              2792.00,5568.87 2780.00,5567.09 2780.00,5567.09              2771.41,5566.46 2765.26,5567.56 2757.00,5569.67              2748.21,5571.91 2741.79,5578.31 2738.00,5580.02              2738.00,5580.02 2723.00,5582.45 2723.00,5582.45              2723.00,5582.45 2693.00,5580.54 2693.00,5580.54              2687.52,5579.57 2682.73,5577.76 2677.00,5578.09              2677.00,5578.09 2667.00,5579.54 2667.00,5579.54              2667.00,5579.54 2658.00,5578.09 2658.00,5578.09              2658.00,5578.09 2646.00,5578.09 2646.00,5578.09              2639.40,5578.01 2635.12,5578.48 2629.00,5581.32              2629.00,5581.32 2618.00,5587.30 2618.00,5587.30              2614.34,5588.52 2610.85,5587.40 2605.00,5589.56              2605.00,5589.56 2585.00,5600.10 2585.00,5600.10              2581.98,5602.11 2578.38,5606.00 2575.00,5606.60              2572.50,5607.03 2567.23,5605.31 2564.00,5605.09              2557.99,5604.68 2556.04,5606.02 2551.00,5606.52              2543.50,5607.26 2538.67,5600.42 2527.00,5599.17              2515.09,5597.89 2512.91,5600.81 2506.00,5601.79              2506.00,5601.79 2482.00,5603.00 2482.00,5603.00              2468.59,5603.16 2465.40,5609.32 2454.00,5612.24              2454.00,5612.24 2440.00,5613.93 2440.00,5613.93              2440.00,5613.93 2428.00,5619.06 2428.00,5619.06              2428.00,5619.06 2418.00,5622.51 2418.00,5622.51              2418.00,5622.51 2406.00,5625.55 2406.00,5625.55              2406.00,5625.55 2393.00,5631.67 2393.00,5631.67              2393.00,5631.67 2383.00,5633.93 2383.00,5633.93              2383.00,5633.93 2367.00,5639.47 2367.00,5639.47              2357.48,5643.36 2353.45,5649.73 2348.91,5652.16              2343.23,5655.21 2340.11,5652.95 2333.00,5655.22              2326.84,5657.19 2323.90,5660.98 2320.00,5661.95              2318.45,5662.34 2305.87,5660.89 2304.00,5660.37              2304.00,5660.37 2295.00,5656.93 2295.00,5656.93              2289.80,5655.52 2282.54,5656.07 2277.00,5656.00              2267.73,5655.87 2265.34,5651.52 2257.00,5648.55              2247.25,5645.07 2233.32,5641.88 2223.00,5642.00              2223.00,5642.00 2208.00,5643.66 2208.00,5643.66              2201.86,5643.03 2195.91,5638.55 2187.00,5639.09              2176.91,5639.71 2174.99,5643.98 2163.00,5644.00              2163.00,5644.00 2144.00,5644.00 2144.00,5644.00              2136.55,5644.09 2136.54,5645.24 2131.00,5646.06              2131.00,5646.06 2121.00,5646.06 2121.00,5646.06              2114.86,5647.21 2112.95,5649.36 2109.00,5650.52              2105.06,5651.67 2099.13,5651.99 2095.00,5652.08              2095.00,5652.08 2082.00,5652.08 2082.00,5652.08              2082.00,5652.08 2065.00,5654.00 2065.00,5654.00              2065.00,5654.00 2042.00,5654.00 2042.00,5654.00              2033.98,5653.90 2033.08,5652.20 2026.00,5650.67              2026.00,5650.67 2004.00,5647.17 2004.00,5647.17              2004.00,5647.17 1980.00,5646.00 1980.00,5646.00              1968.72,5646.14 1965.71,5650.40 1957.00,5649.91              1957.00,5649.91 1941.00,5648.61 1941.00,5648.61              1941.00,5648.61 1928.00,5644.67 1928.00,5644.67              1922.36,5643.51 1910.93,5642.93 1905.00,5643.00              1900.64,5643.05 1892.03,5644.11 1888.00,5645.55              1880.40,5648.25 1872.48,5653.33 1864.00,5652.45              1864.00,5652.45 1854.00,5650.30 1854.00,5650.30              1849.89,5649.71 1846.97,5650.49 1843.00,5648.55              1838.55,5646.38 1835.46,5642.13 1827.00,5639.09              1816.77,5635.41 1815.90,5639.04 1807.00,5634.00              1807.00,5634.00 1789.00,5620.10 1789.00,5620.10              1781.67,5615.31 1775.59,5614.01 1767.00,5614.00              1767.00,5614.00 1749.00,5614.00 1749.00,5614.00              1749.00,5614.00 1732.00,5612.00 1732.00,5612.00              1719.07,5611.86 1720.93,5613.87 1713.00,5614.82              1713.00,5614.82 1697.00,5616.13 1697.00,5616.13              1692.81,5616.76 1689.31,5618.12 1685.00,5617.82              1685.00,5617.82 1676.00,5617.00 1676.00,5617.00              1671.10,5616.95 1664.58,5617.44 1660.00,5616.01              1653.01,5613.84 1645.74,5607.46 1639.00,5604.32              1639.00,5604.32 1623.09,5599.07 1623.09,5599.07              1619.21,5596.68 1617.79,5592.29 1610.00,5588.38              1600.89,5583.81 1595.19,5586.00 1590.00,5583.73              1590.00,5583.73 1581.00,5578.40 1581.00,5578.40              1575.87,5575.94 1573.17,5576.57 1569.00,5575.37              1561.10,5573.10 1559.49,5570.67 1550.00,5571.04              1550.00,5571.04 1527.00,5574.93 1527.00,5574.93              1523.70,5574.46 1520.66,5571.17 1515.00,5569.09              1507.36,5566.29 1504.80,5567.55 1500.00,5566.63              1494.57,5565.59 1494.31,5564.18 1487.00,5564.01              1467.79,5563.57 1448.69,5577.39 1432.00,5576.99              1425.66,5576.83 1424.46,5575.45 1419.00,5574.46              1419.00,5574.46 1408.00,5573.83 1408.00,5573.83              1402.99,5573.35 1398.08,5571.78 1393.00,5572.09              1385.25,5572.57 1382.69,5575.83 1378.00,5576.73              1378.00,5576.73 1368.00,5577.30 1368.00,5577.30              1368.00,5577.30 1355.00,5580.19 1355.00,5580.19              1355.00,5580.19 1343.00,5580.19 1343.00,5580.19              1343.00,5580.19 1327.00,5581.78 1327.00,5581.78              1322.53,5581.26 1316.28,5577.78 1308.00,5578.04              1303.67,5578.18 1295.21,5579.68 1291.00,5580.91              1286.83,5582.13 1284.50,5583.97 1280.00,5583.52              1280.00,5583.52 1266.00,5581.04 1266.00,5581.04              1258.96,5580.75 1248.33,5583.76 1242.00,5586.82              1242.00,5586.82 1233.00,5591.64 1233.00,5591.64              1229.87,5592.99 1227.21,5593.27 1224.00,5594.16              1220.24,5595.19 1215.63,5597.91 1212.00,5597.27              1212.00,5597.27 1200.00,5593.37 1200.00,5593.37              1200.00,5593.37 1190.00,5591.29 1190.00,5591.29              1190.00,5591.29 1183.00,5590.62 1183.00,5590.62              1183.00,5590.62 1177.00,5588.74 1177.00,5588.74              1170.16,5586.59 1166.93,5587.01 1160.00,5587.00              1144.00,5586.98 1148.24,5581.18 1133.00,5580.96              1133.00,5580.96 1126.00,5580.96 1126.00,5580.96              1117.31,5580.89 1112.52,5578.73 1103.00,5580.96              1093.32,5583.08 1094.40,5584.28 1087.00,5587.48              1087.00,5587.48 1063.00,5595.46 1063.00,5595.46              1057.09,5596.88 1048.87,5593.99 1040.00,5595.46              1030.06,5596.77 1024.85,5603.91 1018.00,5605.59              1018.00,5605.59 1008.00,5606.29 1008.00,5606.29              1008.00,5606.29 970.00,5613.44 970.00,5613.44              970.00,5613.44 956.00,5619.37 956.00,5619.37              951.60,5620.67 945.32,5620.60 938.00,5623.46              938.00,5623.46 921.00,5632.30 921.00,5632.30              917.99,5633.29 913.27,5632.97 910.00,5633.00              910.00,5633.00 898.00,5634.06 898.00,5634.06              890.10,5633.26 883.95,5633.16 876.00,5634.06              876.00,5634.06 854.00,5638.93 854.00,5638.93              854.00,5638.93 846.00,5641.61 846.00,5641.61              846.00,5641.61 833.00,5642.47 833.00,5642.47              833.00,5642.47 819.00,5646.64 819.00,5646.64              811.76,5648.21 804.37,5648.09 797.00,5648.00              790.06,5647.90 784.96,5645.19 778.00,5644.29              773.87,5643.75 768.53,5644.50 765.00,5643.16              760.15,5641.32 756.73,5636.60 748.00,5635.30              748.00,5635.30 727.00,5633.25 727.00,5633.25              727.00,5633.25 714.00,5633.25 714.00,5633.25              714.00,5633.25 691.00,5632.00 691.00,5632.00              691.00,5632.00 676.00,5633.66 676.00,5633.66              666.44,5632.73 662.60,5627.90 655.00,5626.47              644.67,5624.51 637.34,5627.53 632.00,5627.52              628.20,5627.89 622.54,5626.22 615.00,5627.52              609.66,5628.06 597.88,5630.34 593.00,5632.09              576.03,5638.17 577.27,5642.77 557.00,5643.00              551.58,5643.07 543.97,5644.21 539.00,5646.34              539.00,5646.34 523.00,5653.65 523.00,5653.65              523.00,5653.65 513.00,5655.66 513.00,5655.66              513.00,5655.66 492.00,5661.79 492.00,5661.79              492.00,5661.79 464.00,5661.00 464.00,5661.00              453.02,5661.13 453.74,5664.26 442.00,5663.99              427.17,5663.64 419.93,5653.79 401.00,5654.00              401.00,5654.00 376.00,5657.09 376.00,5657.09              376.00,5657.09 364.00,5657.09 364.00,5657.09              364.00,5657.09 354.00,5658.91 354.00,5658.91              354.00,5658.91 328.00,5660.01 328.00,5660.01              328.00,5660.01 311.00,5661.00 311.00,5661.00              291.62,5661.03 298.94,5662.51 288.00,5663.91              288.00,5663.91 275.00,5663.91 275.00,5663.91              260.26,5664.02 255.65,5669.82 249.00,5670.02              245.10,5670.13 242.73,5667.39 235.00,5667.04              235.00,5667.04 212.00,5669.00 212.00,5669.00              212.00,5669.00 193.00,5669.00 193.00,5669.00              185.55,5668.91 185.54,5667.76 180.00,5667.17              180.00,5667.17 169.00,5666.61 169.00,5666.61              169.00,5666.61 152.00,5661.25 152.00,5661.25              152.00,5661.25 143.00,5656.35 143.00,5656.35              143.00,5656.35 131.00,5652.61 131.00,5652.61              131.00,5652.61 122.00,5647.38 122.00,5647.38              116.39,5644.57 108.77,5643.76 106.09,5642.49              102.14,5640.62 94.11,5630.20 92.70,5626.00              91.87,5623.55 92.01,5620.58 92.00,5618.00              91.99,5612.83 92.13,5608.92 90.05,5604.00              86.22,5594.97 81.07,5593.92 81.00,5581.00              80.94,5570.48 80.02,5569.69 77.59,5560.00              77.59,5560.00 75.84,5551.00 75.84,5551.00              75.84,5551.00 72.67,5541.00 72.67,5541.00              72.67,5541.00 72.67,5530.00 72.67,5530.00              72.39,5521.05 68.95,5515.61 68.21,5511.00              68.21,5511.00 66.91,5495.00 66.91,5495.00              66.91,5495.00 65.87,5487.00 65.87,5487.00              65.87,5487.00 65.87,5477.00 65.87,5477.00              65.75,5463.55 69.47,5464.20 68.91,5455.00              68.36,5446.06 65.45,5446.89 67.17,5431.00              68.10,5422.42 71.87,5421.30 72.00,5410.00              72.22,5390.69 66.65,5397.81 65.75,5380.00              65.75,5380.00 65.75,5368.00 65.75,5368.00              65.77,5358.50 62.68,5358.28 63.04,5349.00              63.04,5349.00 63.91,5338.00 63.91,5338.00              63.91,5338.00 61.38,5326.00 61.38,5326.00              61.25,5322.23 63.37,5319.27 62.91,5312.00              62.00,5297.64 58.88,5294.03 59.75,5276.00              59.75,5276.00 63.75,5253.00 63.75,5253.00              66.62,5244.21 69.19,5242.38 68.98,5232.00              68.78,5221.59 64.81,5218.97 62.82,5214.00              61.21,5209.96 61.01,5204.32 61.00,5200.00              61.00,5200.00 61.00,5182.00 61.00,5182.00              61.00,5182.00 62.96,5160.00 62.96,5160.00              62.70,5153.64 59.84,5146.50 60.32,5140.00              60.32,5140.00 60.90,5130.00 60.90,5130.00              60.90,5130.00 60.90,5122.00 60.90,5122.00              60.95,5118.44 60.11,5114.30 60.90,5111.00              61.98,5104.22 65.27,5103.44 64.99,5091.00              64.76,5081.17 61.92,5076.11 61.21,5071.00              61.21,5071.00 59.76,5044.00 59.76,5044.00              59.76,5044.00 59.76,5032.00 59.76,5032.00              59.76,5032.00 60.97,5013.00 60.97,5013.00              60.97,5013.00 60.03,5002.00 60.03,5002.00              60.03,5002.00 60.91,4990.00 60.91,4990.00              60.91,4990.00 59.04,4964.00 59.04,4964.00              59.46,4951.60 64.23,4948.16 64.00,4928.00              63.91,4920.55 62.76,4920.54 61.94,4915.00              61.94,4915.00 61.94,4904.00 61.94,4904.00              60.92,4898.49 60.08,4898.80 60.00,4892.00              60.00,4892.00 60.00,4874.00 60.00,4874.00              60.00,4874.00 61.91,4855.00 61.91,4855.00              61.91,4855.00 61.00,4835.00 61.00,4835.00              61.00,4835.00 63.00,4814.00 63.00,4814.00              63.00,4814.00 62.08,4801.00 62.08,4801.00              62.08,4801.00 62.96,4789.00 62.96,4789.00              62.96,4789.00 61.30,4779.00 61.30,4779.00              61.30,4779.00 60.70,4770.00 60.70,4770.00              60.70,4770.00 58.09,4750.00 58.09,4750.00              58.09,4750.00 59.00,4734.00 59.00,4734.00              59.00,4734.00 59.00,4718.00 59.00,4718.00              59.00,4718.00 60.96,4695.00 60.96,4695.00              60.96,4695.00 60.00,4680.00 60.00,4680.00              60.00,4680.00 60.00,4667.00 60.00,4667.00              60.00,4667.00 59.00,4650.00 59.00,4650.00              59.00,4650.00 60.00,4635.00 60.00,4635.00              60.00,4635.00 60.00,4610.00 60.00,4610.00              60.00,4610.00 61.91,4590.00 61.91,4590.00              61.91,4590.00 60.34,4580.00 60.34,4580.00              60.34,4580.00 61.98,4568.00 61.98,4568.00              61.98,4568.00 61.00,4554.00 61.00,4554.00              61.00,4554.00 61.00,4533.00 61.00,4533.00              61.00,4533.00 59.04,4518.00 59.04,4518.00              59.04,4518.00 60.00,4503.00 60.00,4503.00              60.00,4503.00 60.00,4491.00 60.00,4491.00              60.00,4491.00 59.26,4481.00 59.26,4481.00              59.42,4476.93 60.99,4475.14 60.99,4468.00              60.99,4468.00 60.00,4453.00 60.00,4453.00              60.00,4453.00 59.00,4425.00 59.00,4425.00              59.00,4425.00 57.08,4407.00 57.08,4407.00              57.08,4407.00 57.08,4396.00 57.08,4396.00              57.08,4396.00 58.00,4373.00 58.00,4373.00              58.00,4373.00 57.05,4363.00 57.05,4363.00              57.05,4363.00 57.05,4349.00 57.05,4349.00              57.05,4349.00 59.65,4329.00 59.65,4329.00              60.85,4324.98 63.55,4322.56 65.07,4317.00              66.45,4311.97 65.69,4309.55 66.17,4305.00              66.88,4298.42 68.19,4299.00 67.99,4290.00              67.84,4283.89 66.69,4282.83 66.17,4278.00              65.62,4272.86 66.47,4270.49 64.44,4265.00              62.15,4258.78 59.64,4258.24 57.95,4249.00              56.65,4243.18 57.99,4237.89 57.95,4232.00              57.95,4232.00 57.95,4219.00 57.95,4219.00              57.95,4219.00 57.95,4186.00 57.95,4186.00              58.13,4175.10 60.97,4175.69 63.07,4168.00              64.19,4163.91 64.01,4160.18 64.00,4156.00              63.98,4140.76 59.66,4141.88 58.90,4134.00              58.90,4134.00 58.90,4108.00 58.90,4108.00              58.90,4108.00 58.00,4080.00 58.00,4080.00              58.00,4080.00 59.30,4064.00 59.30,4064.00              59.93,4059.59 60.97,4058.16 60.97,4053.00              60.97,4053.00 59.34,4038.00 59.34,4038.00              59.34,4038.00 60.96,4019.00 60.96,4019.00              60.69,4012.26 59.02,4012.41 59.04,4002.00              59.04,4002.00 59.04,3992.00 59.04,3992.00              59.35,3988.13 60.15,3986.29 59.91,3982.00              59.91,3982.00 58.00,3959.00 58.00,3959.00              58.00,3959.00 57.22,3943.00 57.22,3943.00              57.94,3937.36 60.87,3936.54 60.91,3926.00              60.91,3926.00 60.91,3909.00 60.91,3909.00              60.91,3909.00 59.79,3901.00 59.79,3901.00              59.79,3901.00 59.79,3894.00 59.79,3894.00              59.79,3894.00 59.79,3879.00 59.79,3879.00              59.79,3879.00 59.79,3870.00 59.79,3870.00              59.79,3870.00 59.00,3852.00 59.00,3852.00              59.00,3852.00 59.00,3822.00 59.00,3822.00              59.00,3822.00 60.00,3805.00 60.00,3805.00              60.00,3805.00 60.00,3787.00 60.00,3787.00              60.00,3787.00 59.00,3772.00 59.00,3772.00              59.00,3772.00 58.00,3755.00 58.00,3755.00              58.00,3755.00 58.00,3726.00 58.00,3726.00              58.00,3726.00 59.04,3716.00 59.04,3716.00              59.04,3716.00 59.04,3708.00 59.04,3708.00              59.71,3703.01 61.24,3700.88 60.91,3695.00              60.91,3695.00 58.78,3668.00 58.78,3668.00              58.78,3668.00 60.96,3655.00 60.96,3655.00              60.96,3655.00 60.00,3638.00 60.00,3638.00              60.00,3638.00 60.00,3606.00 60.00,3606.00              60.00,3606.00 57.88,3582.00 57.88,3582.00              57.88,3582.00 57.88,3562.00 57.88,3562.00              57.88,3562.00 58.98,3548.00 58.98,3548.00              58.98,3548.00 57.96,3539.00 57.96,3539.00              57.96,3539.00 57.96,3529.00 57.96,3529.00              57.96,3529.00 56.82,3522.00 56.82,3522.00              56.82,3522.00 56.82,3512.00 56.82,3512.00              56.82,3512.00 56.82,3493.00 56.82,3493.00              56.82,3493.00 56.82,3481.00 56.82,3481.00              56.82,3481.00 59.91,3451.00 59.91,3451.00              59.91,3451.00 58.52,3437.00 58.52,3437.00              58.52,3437.00 60.91,3414.00 60.91,3414.00              60.91,3414.00 59.03,3400.00 59.03,3400.00              59.03,3400.00 59.03,3381.00 59.03,3381.00              59.03,3381.00 59.03,3364.00 59.03,3364.00              59.03,3364.00 59.91,3350.00 59.91,3350.00              59.91,3350.00 59.02,3342.00 59.02,3342.00              59.02,3342.00 59.02,3324.00 59.02,3324.00              59.02,3324.00 59.91,3309.00 59.91,3309.00              59.91,3309.00 59.00,3297.00 59.00,3297.00              59.00,3297.00 61.00,3265.00 61.00,3265.00              61.00,3265.00 60.00,3250.00 60.00,3250.00              60.00,3250.00 59.00,3229.00 59.00,3229.00              59.00,3229.00 59.95,3219.00 59.95,3219.00              59.95,3219.00 59.95,3200.00 59.95,3200.00              59.95,3200.00 59.00,3185.00 59.00,3185.00              59.00,3185.00 59.00,3142.00 59.00,3142.00              59.00,3142.00 60.98,3126.00 60.98,3126.00              61.08,3121.12 60.58,3120.30 60.04,3116.00              60.04,3116.00 60.04,3106.00 60.04,3106.00              60.04,3106.00 59.04,3098.00 59.04,3098.00              59.04,3098.00 59.96,3088.00 59.96,3088.00              59.96,3088.00 59.96,3074.00 59.96,3074.00              59.98,3063.70 57.62,3061.14 57.87,3057.00              57.87,3057.00 59.56,3048.00 59.56,3048.00              59.56,3048.00 60.96,3028.00 60.96,3028.00              60.69,3021.26 59.02,3021.41 59.00,3011.00              59.00,3011.00 59.00,3005.00 59.00,3005.00              59.00,3005.00 58.04,2995.00 58.04,2995.00              58.04,2995.00 58.04,2979.00 58.04,2979.00              58.02,2967.05 61.34,2965.90 60.96,2956.00              60.96,2956.00 59.00,2931.00 59.00,2931.00              59.00,2931.00 59.00,2906.00 59.00,2906.00              59.00,2906.00 58.21,2894.00 58.21,2894.00              58.21,2894.00 59.96,2871.00 59.96,2871.00              59.96,2871.00 59.96,2858.00 59.96,2858.00              59.96,2858.00 59.26,2851.00 59.26,2851.00              59.41,2847.07 61.27,2843.99 60.91,2838.00              60.91,2838.00 58.89,2826.00 58.89,2826.00              58.89,2826.00 58.89,2814.00 58.89,2814.00              58.89,2814.00 58.00,2795.00 58.00,2795.00              58.00,2795.00 60.00,2771.00 60.00,2771.00              60.00,2771.00 59.00,2750.00 59.00,2750.00              59.00,2750.00 59.00,2731.00 59.00,2731.00              59.00,2731.00 59.99,2715.00 59.99,2715.00              59.99,2715.00 58.70,2702.00 58.70,2702.00              58.70,2702.00 57.47,2695.00 57.47,2695.00              57.47,2695.00 59.00,2680.00 59.00,2680.00              59.00,2680.00 58.08,2666.00 58.08,2666.00              58.08,2666.00 59.00,2650.00 59.00,2650.00              59.00,2650.00 58.04,2640.00 58.04,2640.00              58.04,2640.00 58.04,2627.00 58.04,2627.00              58.04,2627.00 56.09,2607.00 56.09,2607.00              56.09,2607.00 58.00,2589.00 58.00,2589.00              58.00,2589.00 58.00,2559.00 58.00,2559.00              58.00,2559.00 57.18,2547.00 57.18,2547.00              57.18,2547.00 58.91,2529.00 58.91,2529.00              58.91,2529.00 57.88,2521.00 57.88,2521.00              57.88,2521.00 57.88,2505.00 57.88,2505.00              57.88,2505.00 57.88,2495.00 57.88,2495.00              57.88,2495.00 57.88,2484.00 57.88,2484.00              57.88,2484.00 57.00,2473.00 57.00,2473.00              56.89,2463.17 58.06,2463.72 58.92,2456.00              58.92,2456.00 58.92,2447.00 58.92,2447.00              58.92,2447.00 60.00,2430.00 60.00,2430.00              60.00,2430.00 60.00,2407.00 60.00,2407.00              60.00,2407.00 59.00,2393.00 59.00,2393.00              59.00,2393.00 60.99,2370.00 60.99,2370.00              60.99,2370.00 60.00,2353.00 60.00,2353.00              60.00,2353.00 60.00,2330.00 60.00,2330.00              60.00,2330.00 61.99,2309.00 61.99,2309.00              61.99,2309.00 60.04,2293.00 60.04,2293.00              60.04,2293.00 60.04,2272.00 60.04,2272.00              60.04,2272.00 59.00,2256.00 59.00,2256.00              59.00,2256.00 60.15,2241.00 60.15,2241.00              60.01,2233.64 59.14,2226.30 60.15,2219.00              61.37,2212.26 64.11,2209.75 64.83,2203.00              65.46,2197.09 64.08,2194.45 64.08,2190.00              64.08,2190.00 65.00,2179.00 65.00,2179.00              65.00,2179.00 65.00,2156.00 65.00,2156.00              64.90,2147.78 63.55,2139.01 61.79,2131.00              61.79,2131.00 59.96,2123.00 59.96,2123.00              59.96,2123.00 59.96,2113.00 59.96,2113.00              59.96,2113.00 59.96,2094.00 59.96,2094.00              59.96,2094.00 59.11,2080.00 59.11,2080.00              59.57,2074.29 62.32,2072.28 61.96,2063.00              61.96,2063.00 58.18,2033.00 58.18,2033.00              58.18,2033.00 59.00,2023.00 59.00,2023.00              59.00,2023.00 58.00,2005.00 58.00,2005.00              58.00,2005.00 58.00,1987.00 58.00,1987.00              58.00,1987.00 59.99,1962.00 59.99,1962.00              59.99,1962.00 59.00,1950.00 59.00,1950.00              59.00,1950.00 59.00,1932.00 59.00,1932.00              59.00,1932.00 59.00,1879.00 59.00,1879.00              59.00,1879.00 58.32,1866.00 58.32,1866.00              58.32,1866.00 59.17,1851.00 59.17,1851.00              59.17,1851.00 60.91,1834.00 60.91,1834.00              60.91,1834.00 59.83,1824.00 59.83,1824.00              59.83,1824.00 59.83,1815.00 59.83,1815.00              59.83,1815.00 59.00,1804.00 59.00,1804.00              59.00,1804.00 59.00,1782.00 59.00,1782.00              59.00,1782.00 60.00,1768.00 60.00,1768.00              60.00,1768.00 61.00,1749.00 61.00,1749.00              61.00,1749.00 59.01,1725.00 59.01,1725.00              59.01,1725.00 60.00,1705.00 60.00,1705.00              60.00,1705.00 59.09,1692.00 59.09,1692.00              59.09,1692.00 59.09,1679.00 59.09,1679.00              59.09,1679.00 60.83,1669.00 60.83,1669.00              60.83,1669.00 60.83,1660.00 60.83,1660.00              60.83,1660.00 61.91,1641.00 61.91,1641.00              61.91,1641.00 59.86,1625.00 59.86,1625.00              59.86,1625.00 59.86,1617.00 59.86,1617.00              59.86,1617.00 59.86,1599.00 59.86,1599.00              59.86,1599.00 58.10,1580.00 58.10,1580.00              58.10,1580.00 59.00,1568.00 59.00,1568.00              59.00,1568.00 58.08,1554.00 58.08,1554.00              58.08,1554.00 58.99,1540.00 58.99,1540.00              58.99,1540.00 58.14,1530.00 58.14,1530.00              58.42,1524.29 61.24,1523.36 60.99,1512.00              60.99,1512.00 60.00,1499.00 60.00,1499.00              60.00,1499.00 60.00,1485.00 60.00,1485.00              60.00,1485.00 58.85,1464.00 58.85,1464.00              58.85,1464.00 58.85,1456.00 58.85,1456.00              58.85,1456.00 58.85,1445.00 58.85,1445.00              58.85,1445.00 57.89,1432.00 57.89,1432.00              57.89,1432.00 59.94,1424.00 59.94,1424.00              59.94,1424.00 59.94,1414.00 59.94,1414.00              60.76,1408.46 61.91,1408.44 62.00,1401.00              62.13,1389.87 61.05,1392.18 60.17,1384.00              60.17,1384.00 59.03,1365.00 59.03,1365.00              59.03,1365.00 59.91,1353.00 59.91,1353.00              59.91,1353.00 58.75,1335.00 58.75,1335.00              58.75,1335.00 60.91,1317.00 60.91,1317.00              60.91,1317.00 59.18,1290.00 59.18,1290.00              59.18,1290.00 60.96,1269.00 60.96,1269.00              60.96,1269.00 60.96,1258.00 60.96,1258.00              60.96,1258.00 60.03,1249.00 60.03,1249.00              60.03,1249.00 60.91,1236.00 60.91,1236.00              60.91,1236.00 58.84,1225.00 58.84,1225.00              58.84,1225.00 59.99,1213.00 59.99,1213.00              59.99,1213.00 59.10,1198.00 59.10,1198.00              59.10,1198.00 62.54,1182.00 62.54,1182.00              62.54,1182.00 63.44,1170.00 63.44,1170.00              64.70,1162.15 67.32,1159.99 66.96,1151.00              66.96,1151.00 60.84,1120.00 60.84,1120.00              60.84,1120.00 62.96,1097.00 62.96,1097.00              62.96,1097.00 61.08,1077.00 61.08,1077.00              61.08,1077.00 61.08,1066.00 61.08,1066.00              61.08,1066.00 60.34,1057.00 60.34,1057.00              60.34,1057.00 61.00,1045.00 61.00,1045.00              61.00,1045.00 60.04,1030.00 60.04,1030.00              60.04,1030.00 60.76,1017.00 60.76,1017.00              60.76,1017.00 60.76,997.00 60.76,997.00              60.76,997.00 61.91,982.00 61.91,982.00              61.91,982.00 60.89,975.00 60.89,975.00              60.89,975.00 60.89,965.00 60.89,965.00              60.89,965.00 58.02,943.00 58.02,943.00              58.02,943.00 60.00,920.00 60.00,920.00              60.00,920.00 60.00,893.00 60.00,893.00              60.00,893.00 59.01,880.00 59.01,880.00              59.01,880.00 60.00,866.00 60.00,866.00              60.00,866.00 59.04,849.00 59.04,849.00              59.30,842.50 61.00,842.04 61.00,833.00              61.00,833.00 60.08,821.00 60.08,821.00              60.08,821.00 60.96,812.00 60.96,812.00              61.18,806.24 59.71,800.69 59.08,795.00              59.08,795.00 59.08,784.00 59.08,784.00              59.08,784.00 59.96,769.00 59.96,769.00              59.96,769.00 59.96,759.00 59.96,759.00              59.96,759.00 59.18,752.00 59.18,752.00              59.18,752.00 60.00,740.00 60.00,740.00              60.00,740.00 61.00,713.00 61.00,713.00              61.00,713.00 61.96,698.00 61.96,698.00              61.96,698.00 59.18,671.00 59.18,671.00              59.18,671.00 61.91,648.00 61.91,648.00              61.55,642.17 60.04,642.00 60.00,633.00              60.00,633.00 60.91,615.00 60.91,615.00              60.91,615.00 59.09,602.00 59.09,602.00              59.09,602.00 59.96,588.00 59.96,588.00              59.96,588.00 59.19,578.00 59.19,578.00              59.66,572.24 62.31,568.10 61.91,561.00              61.91,561.00 60.72,544.00 60.72,544.00              60.72,544.00 61.96,534.00 61.96,534.00              61.96,534.00 61.08,522.00 61.08,522.00              61.08,522.00 61.91,511.00 61.91,511.00              61.91,511.00 61.91,498.00 61.91,498.00              61.08,490.99 60.02,492.93 60.04,483.00              60.04,483.00 60.04,469.00 60.04,469.00              60.04,469.00 60.99,456.00 60.99,456.00              60.99,456.00 59.34,442.00 59.34,442.00              59.87,436.59 61.99,434.21 61.99,426.00              61.99,426.00 59.74,401.00 59.74,401.00              59.74,401.00 59.74,396.00 59.74,396.00              59.74,396.00 59.09,381.00 59.09,381.00              59.09,381.00 60.71,371.00 60.71,371.00              60.71,371.00 61.98,353.00 61.98,353.00              61.98,353.00 60.00,335.00 60.00,335.00              60.00,335.00 59.46,320.00 59.46,320.00              59.46,320.00 61.83,304.00 61.83,304.00              61.83,304.00 63.17,287.00 63.17,287.00              63.17,287.00 65.02,278.00 65.02,278.00              65.02,278.00 65.02,271.00 65.02,271.00              65.02,271.00 67.53,262.00 67.53,262.00              67.53,262.00 68.17,250.00 68.17,250.00              68.17,250.00 69.91,240.00 69.91,240.00              70.48,231.64 67.49,228.77 67.95,224.00              67.95,224.00 69.34,218.00 69.34,218.00              72.93,201.83 72.46,209.63 76.44,199.00              76.44,199.00 80.54,184.00 80.54,184.00              80.54,184.00 81.46,176.00 81.46,176.00              83.49,164.66 85.25,165.03 90.54,156.00              91.86,153.74 92.84,151.22 94.49,149.17              94.49,149.17 105.68,138.00 105.68,138.00              105.68,138.00 116.47,126.00 116.47,126.00              116.47,126.00 122.79,116.38 122.79,116.38              122.79,116.38 131.82,108.91 131.82,108.91              131.82,108.91 137.32,102.61 137.32,102.61              137.32,102.61 156.00,91.24 156.00,91.24              156.00,91.24 169.28,78.98 169.28,78.98              171.68,77.50 176.99,76.94 180.00,76.08              191.52,72.79 184.12,71.23 204.00,71.00              209.76,70.93 217.82,69.71 223.00,67.18              226.67,65.39 231.74,60.92 235.00,60.61              237.17,60.40 242.46,62.09 245.00,62.54              245.00,62.54 257.00,63.21 257.00,63.21              261.86,63.89 264.81,66.32 272.00,65.91              272.00,65.91 294.00,62.11 294.00,62.11              298.69,62.54 300.78,64.89 305.00,66.44              309.46,68.08 313.34,68.05 318.00,68.00              326.17,67.90 328.51,65.61 336.00,66.09              336.00,66.09 349.00,67.37 349.00,67.37              349.00,67.37 359.00,69.92 359.00,69.92              359.00,69.92 373.00,69.92 373.00,69.92              381.60,70.10 384.34,72.46 391.00,72.91              391.00,72.91 421.00,69.53 421.00,69.53              424.35,69.40 429.77,71.87 441.00,72.00              441.00,72.00 455.00,73.83 455.00,73.83              455.00,73.83 473.00,75.17 473.00,75.17              473.00,75.17 482.00,76.84 482.00,76.84              482.00,76.84 492.00,78.13 492.00,78.13              492.00,78.13 502.00,78.13 502.00,78.13              514.85,80.13 511.87,81.81 528.00,82.00              540.90,82.15 552.81,85.93 565.00,89.56              565.00,89.56 588.00,95.59 588.00,95.59              588.00,95.59 607.00,101.00 607.00,101.00              621.05,103.84 626.91,99.61 635.00,100.14              642.91,100.74 651.14,102.01 659.00,100.14              666.83,98.20 669.51,95.16 674.00,94.27              674.00,94.27 690.00,92.83 690.00,92.83              690.00,92.83 710.00,88.56 710.00,88.56              717.01,86.47 718.92,83.81 723.00,82.08              725.65,80.96 739.96,78.04 743.00,78.00              758.31,77.80 755.67,77.22 770.00,81.81              770.00,81.81 778.00,84.55 778.00,84.55              786.25,88.65 789.55,96.81 805.00,96.91              805.00,96.91 812.00,96.91 812.00,96.91              812.00,96.91 824.00,96.91 824.00,96.91              824.00,96.91 832.00,99.91 832.00,99.91              832.00,99.91 842.00,102.63 842.00,102.63              842.00,102.63 853.00,104.37 853.00,104.37              853.00,104.37 860.00,106.32 860.00,106.32              860.00,106.32 870.00,108.29 870.00,108.29              870.00,108.29 882.00,112.46 882.00,112.46              892.89,116.18 902.69,116.87 914.00,117.00              923.98,117.12 924.06,120.04 932.00,121.53              940.41,123.12 944.58,120.20 949.00,120.50              953.14,120.77 956.42,123.62 964.00,123.96              975.33,124.47 974.99,122.63 984.00,121.30              992.63,120.02 1001.29,119.90 1010.00,120.00              1010.00,120.00 1036.00,121.91 1036.00,121.91              1036.00,121.91 1044.00,121.13 1044.00,121.13              1044.00,121.13 1054.00,121.83 1054.00,121.83              1054.00,121.83 1064.00,121.83 1064.00,121.83              1064.00,121.83 1098.00,121.83 1098.00,121.83              1110.34,122.02 1111.63,125.25 1123.00,124.99              1130.48,124.81 1132.90,122.80 1137.00,122.41              1137.00,122.41 1148.00,122.96 1148.00,122.96              1155.03,122.68 1160.10,119.76 1165.00,119.39              1165.00,119.39 1177.00,120.00 1177.00,120.00              1177.00,120.00 1192.00,119.08 1192.00,119.08              1192.00,119.08 1205.00,120.09 1205.00,120.09              1205.00,120.09 1221.00,120.09 1221.00,120.09              1226.20,120.73 1227.87,122.19 1234.00,121.91              1247.08,121.32 1251.87,122.72 1264.00,123.79              1264.00,123.79 1274.00,123.79 1274.00,123.79              1274.00,123.79 1284.00,124.96 1284.00,124.96              1284.00,124.96 1295.00,124.96 1295.00,124.96              1295.00,124.96 1324.00,128.37 1324.00,128.37              1331.58,129.84 1330.48,131.20 1340.00,130.99              1349.94,130.76 1351.37,127.48 1357.00,126.26              1368.60,123.74 1381.16,123.13 1393.00,123.00              1393.00,123.00 1403.00,122.04 1403.00,122.04              1403.00,122.04 1420.00,122.04 1420.00,122.04              1420.00,122.04 1431.00,121.18 1431.00,121.18              1431.00,121.18 1443.00,122.00 1443.00,122.00              1443.00,122.00 1469.00,123.18 1469.00,123.18              1476.64,124.10 1475.09,125.98 1487.00,126.00              1487.00,126.00 1535.00,127.00 1535.00,127.00              1546.39,126.95 1546.30,124.12 1556.00,124.00              1556.00,124.00 1569.00,124.95 1569.00,124.95              1569.00,124.95 1583.00,124.95 1583.00,124.95              1583.00,124.95 1611.00,123.32 1611.00,123.32              1617.79,121.76 1622.24,117.92 1626.00,116.70              1626.00,116.70 1646.00,115.04 1646.00,115.04              1646.00,115.04 1671.00,116.73 1671.00,116.73              1671.00,116.73 1682.00,116.73 1682.00,116.73              1682.00,116.73 1690.00,117.95 1690.00,117.95              1690.00,117.95 1706.00,117.95 1706.00,117.95              1706.00,117.95 1728.00,115.29 1728.00,115.29              1728.00,115.29 1752.00,112.83 1752.00,112.83              1766.23,111.14 1757.88,110.20 1778.00,109.87              1778.00,109.87 1786.00,109.87 1786.00,109.87              1786.00,109.87 1806.00,113.91 1806.00,113.91              1815.65,114.62 1819.96,111.69 1826.00,112.19              1826.00,112.19 1842.00,114.91 1842.00,114.91              1847.22,115.25 1849.30,114.24 1854.00,114.02              1854.00,114.02 1868.00,114.02 1868.00,114.02              1868.00,114.02 1895.00,112.09 1895.00,112.09              1895.00,112.09 1908.00,113.00 1908.00,113.00              1908.00,113.00 1919.00,112.04 1919.00,112.04              1919.00,112.04 1934.00,112.04 1934.00,112.04              1944.31,111.98 1949.27,109.16 1955.00,109.18              1955.00,109.18 1981.00,112.96 1981.00,112.96              1981.00,112.96 1988.00,112.34 1988.00,112.34              1988.00,112.34 1997.00,113.00 1997.00,113.00              1997.00,113.00 2023.00,114.00 2023.00,114.00              2023.00,114.00 2056.00,110.00 2056.00,110.00              2056.00,110.00 2067.00,109.49 2067.00,109.49              2071.59,109.80 2073.47,111.90 2082.00,112.00              2082.00,112.00 2105.00,110.72 2105.00,110.72              2105.00,110.72 2113.00,111.96 2113.00,111.96              2113.00,111.96 2121.00,111.96 2121.00,111.96              2121.00,111.96 2129.00,112.96 2129.00,112.96              2135.50,113.16 2138.00,111.41 2142.00,111.26              2142.00,111.26 2154.00,111.99 2154.00,111.99              2163.12,111.78 2164.45,109.20 2170.00,107.63              2172.65,106.88 2184.80,106.00 2188.00,106.04              2188.00,106.04 2204.00,106.04 2204.00,106.04              2204.00,106.04 2211.00,106.91 2211.00,106.91              2211.00,106.91 2236.00,103.04 2236.00,103.04              2236.00,103.04 2252.00,103.96 2252.00,103.96              2252.00,103.96 2263.00,102.60 2263.00,102.60              2263.00,102.60 2278.00,103.84 2278.00,103.84              2278.00,103.84 2297.00,103.84 2297.00,103.84              2301.19,103.88 2303.79,105.23 2309.00,104.91              2309.00,104.91 2320.00,103.10 2320.00,103.10              2320.00,103.10 2334.00,104.00 2334.00,104.00              2334.00,104.00 2376.00,104.00 2376.00,104.00              2376.00,104.00 2405.00,102.00 2405.00,102.00              2405.00,102.00 2429.00,103.04 2429.00,103.04              2429.00,103.04 2439.00,103.04 2439.00,103.04              2439.00,103.04 2470.00,106.00 2470.00,106.00              2470.00,106.00 2494.00,103.04 2494.00,103.04              2494.00,103.04 2503.00,103.96 2503.00,103.96              2503.00,103.96 2513.00,103.34 2513.00,103.34              2513.00,103.34 2523.00,103.91 2523.00,103.91              2529.35,103.47 2532.38,101.13 2537.00,100.16              2537.00,100.16 2548.00,100.16 2548.00,100.16              2548.00,100.16 2565.00,98.83 2565.00,98.83              2565.00,98.83 2572.00,97.75 2572.00,97.75              2572.00,97.75 2598.00,99.96 2598.00,99.96              2598.00,99.96 2611.00,99.21 2611.00,99.21              2611.00,99.21 2624.00,99.99 2624.00,99.99              2624.00,99.99 2638.00,99.00 2638.00,99.00              2638.00,99.00 2649.00,99.00 2649.00,99.00              2649.00,99.00 2674.00,97.19 2674.00,97.19              2674.00,97.19 2689.00,99.96 2689.00,99.96              2694.81,101.99 2696.82,104.46 2704.00,104.91              2704.00,104.91 2716.00,104.25 2716.00,104.25              2722.17,104.62 2726.58,105.79 2733.00,104.25              2733.00,104.25 2750.00,97.75 2750.00,97.75              2750.00,97.75 2765.00,97.75 2765.00,97.75              2770.67,97.49 2772.89,95.78 2777.00,95.10              2777.00,95.10 2795.00,95.10 2795.00,95.10              2795.00,95.10 2815.00,93.83 2815.00,93.83              2820.52,93.24 2820.61,92.08 2828.00,92.00              2838.05,91.90 2837.31,93.42 2844.00,93.77              2844.00,93.77 2861.00,93.77 2861.00,93.77              2868.48,94.23 2876.45,96.34 2884.00,95.91              2884.00,95.91 2904.00,95.00 2904.00,95.00              2904.00,95.00 2925.00,96.96 2925.00,96.96              2925.00,96.96 2942.00,96.00 2942.00,96.00              2967.20,95.71 2968.98,89.04 2994.00,89.00              2994.00,89.00 3010.00,89.00 3010.00,89.00              3010.00,89.00 3022.00,88.18 3022.00,88.18              3022.00,88.18 3033.00,88.96 3033.00,88.96              3033.00,88.96 3047.00,87.02 3047.00,87.02              3047.00,87.02 3063.00,88.00 3063.00,88.00              3063.00,88.00 3096.00,88.00 3096.00,88.00              3105.24,88.11 3105.30,90.47 3117.00,89.96              3117.00,89.96 3125.00,89.04 3125.00,89.04              3125.00,89.04 3138.00,89.04 3138.00,89.04              3138.00,89.04 3163.00,86.17 3163.00,86.17              3163.00,86.17 3201.00,85.00 3201.00,85.00              3201.00,85.00 3229.00,87.00 3229.00,87.00              3229.00,87.00 3252.00,84.51 3252.00,84.51              3252.00,84.51 3272.00,85.91 3272.00,85.91              3272.00,85.91 3289.00,85.00 3289.00,85.00              3300.14,84.87 3308.90,81.28 3313.00,81.13              3313.00,81.13 3326.00,82.00 3326.00,82.00              3326.00,82.00 3358.00,82.00 3358.00,82.00              3358.00,82.00 3372.00,82.91 3372.00,82.91              3372.00,82.91 3389.00,82.00 3389.00,82.00              3389.00,82.00 3410.00,83.99 3410.00,83.99              3410.00,83.99 3419.00,83.01 3419.00,83.01              3419.00,83.01 3433.00,83.01 3433.00,83.01              3437.68,82.99 3442.36,82.24 3447.00,83.01              3454.30,84.04 3456.57,86.30 3465.00,85.96              3473.33,85.62 3480.19,80.41 3491.00,81.18              3491.00,81.18 3504.00,82.30 3504.00,82.30              3510.57,83.24 3511.20,84.44 3519.00,83.91              3519.00,83.91 3540.00,81.32 3540.00,81.32              3540.00,81.32 3550.00,78.21 3550.00,78.21              3550.00,78.21 3562.00,77.61 3562.00,77.61              3562.00,77.61 3583.00,77.61 3583.00,77.61              3583.00,77.61 3592.00,78.83 3592.00,78.83              3592.00,78.83 3601.00,78.83 3601.00,78.83              3601.00,78.83 3615.00,78.83 3615.00,78.83              3623.52,78.90 3626.35,76.56 3633.00,75.91              3633.00,75.91 3643.00,75.91 3643.00,75.91              3643.00,75.91 3654.00,75.91 3654.00,75.91              3654.00,75.91 3661.00,75.18 3661.00,75.18              3661.00,75.18 3686.00,76.94 3686.00,76.94              3686.00,76.94 3719.00,76.94 3719.00,76.94              3719.00,76.94 3732.00,76.94 3732.00,76.94              3732.00,76.94 3744.00,75.37 3744.00,75.37              3744.00,75.37 3757.00,75.91 3757.00,75.91              3757.00,75.91 3769.00,73.63 3769.00,73.63              3769.00,73.63 3811.00,78.00 3811.00,78.00              3811.00,78.00 3847.00,81.00 3847.00,81.00              3857.24,81.02 3854.70,82.00 3863.00,83.54              3863.00,83.54 3894.00,86.99 3894.00,86.99              3894.00,86.99 3904.00,86.08 3904.00,86.08              3904.00,86.08 3923.00,88.39 3923.00,88.39              3927.66,89.39 3930.36,92.35 3938.00,92.91              3943.79,93.34 3950.36,92.68 3956.00,91.32              3959.72,90.43 3963.32,88.24 3967.00,88.40              3967.00,88.40 3982.00,90.60 3982.00,90.60              3982.00,90.60 3989.00,92.53 3989.00,92.53              3989.00,92.53 3997.00,93.49 3997.00,93.49              4000.18,94.36 4002.02,96.17 4007.00,97.32              4007.00,97.32 4024.00,99.27 4024.00,99.27              4027.68,100.03 4032.86,103.88 4037.00,105.66              4037.00,105.66 4052.00,109.66 4052.00,109.66              4057.15,111.56 4060.55,115.54 4070.00,115.96              4078.65,116.35 4085.46,114.98 4093.00,110.53              4093.00,110.53 4100.00,106.05 4100.00,106.05              4100.00,106.05 4111.00,101.52 4111.00,101.52              4123.11,94.45 4114.48,97.94 4128.00,93.78              4130.36,93.06 4133.59,91.34 4135.99,91.64              4140.25,92.18 4142.53,97.41 4146.09,100.82              4146.09,100.82 4152.68,106.32 4152.68,106.32              4152.68,106.32 4158.18,112.91 4158.18,112.91              4163.93,118.89 4170.82,121.29 4179.00,120.96              4189.27,120.55 4198.28,113.93 4203.09,105.00              4205.67,100.20 4205.54,95.32 4208.57,92.58              4210.31,91.00 4216.30,89.71 4219.00,88.71              4226.66,85.87 4251.70,82.01 4260.00,82.00              4260.00,82.00 4278.00,82.00 4278.00,82.00              4278.00,82.00 4299.00,79.17 4299.00,79.17              4299.00,79.17 4312.00,78.53 4312.00,78.53              4312.00,78.53 4323.00,75.30 4323.00,75.30              4327.07,74.98 4330.35,77.28 4337.00,76.91              4337.00,76.91 4353.00,75.21 4353.00,75.21              4353.00,75.21 4361.00,76.70 4361.00,76.70              4361.00,76.70 4381.00,78.00 4381.00,78.00              4381.00,78.00 4397.00,76.63 4397.00,76.63              4397.00,76.63 4430.00,76.63 4430.00,76.63              4430.00,76.63 4438.00,76.63 4438.00,76.63              4448.71,75.52 4466.45,83.77 4479.00,82.91              4487.39,82.34 4493.80,77.94 4501.00,77.17              4501.00,77.17 4529.00,79.00 4529.00,79.00              4529.00,79.00 4570.00,75.01 4570.00,75.01              4570.00,75.01 4592.00,77.91 4592.00,77.91              4592.00,77.91 4608.00,76.96 4608.00,76.96              4608.00,76.96 4621.00,76.96 4621.00,76.96              4621.00,76.96 4629.00,76.21 4629.00,76.21              4629.00,76.21 4647.00,78.00 4647.00,78.00              4659.99,78.02 4658.91,76.63 4669.00,75.73              4669.00,75.73 4679.00,75.73 4679.00,75.73              4679.00,75.73 4691.00,75.01 4691.00,75.01              4691.00,75.01 4705.00,76.96 4705.00,76.96              4705.00,76.96 4717.00,76.18 4717.00,76.18              4717.00,76.18 4728.00,76.96 4728.00,76.96              4728.00,76.96 4737.00,76.08 4737.00,76.08              4741.26,76.08 4743.60,77.33 4752.00,76.96              4752.00,76.96 4763.00,76.00 4763.00,76.00              4763.00,76.00 4783.00,76.00 4783.00,76.00              4783.00,76.00 4800.00,76.91 4800.00,76.91              4800.00,76.91 4813.00,74.10 4813.00,74.10              4813.00,74.10 4831.00,73.04 4831.00,73.04              4831.00,73.04 4842.00,73.91 4842.00,73.91              4842.00,73.91 4852.00,72.09 4852.00,72.09              4852.00,72.09 4865.00,72.09 4865.00,72.09              4865.00,72.09 4876.00,72.96 4876.00,72.96              4876.00,72.96 4888.00,72.03 4888.00,72.03              4888.00,72.03 4901.00,72.85 4901.00,72.85              4901.00,72.85 4917.00,72.85 4917.00,72.85              4917.00,72.85 4930.00,72.85 4930.00,72.85              4930.00,72.85 4944.00,71.91 4944.00,71.91              4944.00,71.91 4958.00,71.91 4958.00,71.91              4964.24,71.16 4963.57,70.04 4972.00,70.00              4972.00,70.00 4994.00,70.00 4994.00,70.00              5003.96,69.98 5001.93,68.94 5009.00,68.17              5009.00,68.17 5017.00,67.53 5017.00,67.53              5017.00,67.53 5026.00,64.63 5026.00,64.63              5026.00,64.63 5053.00,61.09 5053.00,61.09              5053.00,61.09 5062.00,61.98 5062.00,61.98              5062.00,61.98 5074.00,61.41 5074.00,61.41              5074.00,61.41 5083.00,63.70 5083.00,63.70              5083.00,63.70 5099.00,65.37 5099.00,65.37              5103.14,66.17 5104.72,67.53 5110.00,67.91              5118.52,68.53 5119.62,66.85 5126.00,66.08              5126.00,66.08 5146.00,66.08 5146.00,66.08              5146.00,66.08 5169.00,63.46 5169.00,63.46              5169.00,63.46 5179.00,64.99 5179.00,64.99              5179.00,64.99 5189.00,64.99 5189.00,64.99              5189.00,64.99 5200.00,67.83 5200.00,67.83              5208.53,68.74 5212.25,66.39 5217.00,66.84              5217.00,66.84 5236.00,69.96 5236.00,69.96              5247.44,70.46 5246.95,67.02 5259.00,67.00              5259.00,67.00 5275.00,67.00 5275.00,67.00              5275.00,67.00 5298.00,65.01 5298.00,65.01              5298.00,65.01 5310.00,65.91 5310.00,65.91              5318.35,65.39 5319.35,61.60 5328.00,63.18              5333.78,64.23 5336.83,67.54 5342.00,69.44              5346.69,71.17 5351.10,71.05 5356.00,71.00              5365.16,70.89 5365.24,69.02 5371.00,68.10              5371.00,68.10 5386.00,68.10 5386.00,68.10              5386.00,68.10 5399.00,67.19 5399.00,67.19              5399.00,67.19 5407.00,68.70 5407.00,68.70              5412.08,69.43 5419.88,70.05 5425.00,70.00              5432.43,69.91 5432.47,68.76 5438.00,68.09              5438.00,68.09 5455.00,68.09 5455.00,68.09              5455.00,68.09 5472.00,69.91 5472.00,69.91              5477.73,69.56 5478.66,67.85 5487.00,68.02              5494.93,68.17 5494.17,70.13 5506.00,70.00              5506.00,70.00 5520.00,68.55 5520.00,68.55              5525.24,69.09 5526.17,70.50 5533.00,69.83              5533.00,69.83 5547.00,67.38 5547.00,67.38              5547.00,67.38 5558.00,69.83 5558.00,69.83              5564.60,70.54 5568.57,69.13 5572.00,69.26              5572.00,69.26 5592.00,71.99 5592.00,71.99              5597.55,72.11 5605.49,70.32 5610.00,71.41              5616.02,72.88 5619.16,78.33 5634.00,77.99              5641.92,77.80 5643.37,75.63 5649.00,75.10              5649.00,75.10 5672.00,76.00 5672.00,76.00              5680.32,75.90 5679.63,74.59 5686.00,73.37              5686.00,73.37 5701.00,72.70 5701.00,72.70              5701.00,72.70 5717.00,69.80 5717.00,69.80              5717.00,69.80 5727.00,69.80 5727.00,69.80              5739.27,70.06 5742.05,70.59 5754.00,72.16              5759.09,72.83 5760.17,73.85 5766.00,73.99              5776.74,74.23 5781.41,71.25 5791.00,68.63              5791.00,68.63 5813.00,66.01 5813.00,66.01              5813.00,66.01 5831.00,68.00 5831.00,68.00              5844.51,68.06 5841.83,66.21 5849.00,65.21              5849.00,65.21 5860.00,64.53 5860.00,64.53              5860.00,64.53 5871.00,61.47 5871.00,61.47              5875.49,60.62 5877.98,61.30 5883.00,59.44              5890.35,56.73 5890.19,53.16 5899.00,52.97              5899.00,52.97 5916.00,52.97 5916.00,52.97              5916.00,52.97 5924.00,52.97 5924.00,52.97              5924.00,52.97 5943.00,59.08 5943.00,59.08              5951.84,61.40 5960.90,62.10 5970.00,62.00              5970.00,62.00 5978.00,61.32 5978.00,61.32              5978.00,61.32 5998.00,62.68 5998.00,62.68              5998.00,62.68 6010.00,62.68 6010.00,62.68              6010.00,62.68 6020.00,63.95 6020.00,63.95              6020.00,63.95 6040.00,63.95 6040.00,63.95              6040.00,63.95 6051.00,63.10 6051.00,63.10              6051.00,63.10 6061.00,64.83 6061.00,64.83              6061.00,64.83 6094.00,66.91 6094.00,66.91              6094.00,66.91 6118.00,65.00 6118.00,65.00              6118.00,65.00 6146.00,65.00 6146.00,65.00              6146.00,65.00 6158.00,64.19 6158.00,64.19              6158.00,64.19 6176.00,66.37 6176.00,66.37              6181.58,67.44 6183.18,69.29 6190.00,68.91              6190.00,68.91 6200.00,68.00 6200.00,68.00              6200.00,68.00 6228.00,70.09 6228.00,70.09              6233.35,70.49 6236.12,72.27 6242.00,71.91              6242.00,71.91 6259.00,68.10 6259.00,68.10              6259.00,68.10 6273.00,68.91 6273.00,68.91              6273.00,68.91 6293.00,67.04 6293.00,67.04              6293.00,67.04 6310.00,68.91 6310.00,68.91              6310.00,68.91 6330.00,67.14 6330.00,67.14              6336.82,67.48 6346.81,73.27 6359.00,72.99              6359.00,72.99 6378.00,70.07 6378.00,70.07              6382.58,68.84 6383.81,67.34 6389.00,67.04              6389.00,67.04 6406.00,68.00 6406.00,68.00              6406.00,68.00 6418.00,67.04 6418.00,67.04              6418.00,67.04 6431.00,67.04 6431.00,67.04              6431.00,67.04 6451.00,69.00 6451.00,69.00              6454.02,69.01 6460.38,68.76 6463.00,69.51              6468.24,71.01 6472.78,77.14 6485.00,75.83              6496.90,74.55 6502.15,64.98 6515.00,64.10              6522.89,63.56 6526.30,66.27 6533.00,68.07              6537.23,69.21 6541.66,69.05 6546.00,69.00              6556.91,68.87 6558.72,65.17 6564.00,65.29              6568.39,65.39 6570.74,67.98 6582.00,67.96              6582.00,67.96 6595.00,67.96 6595.00,67.96              6595.00,67.96 6607.00,67.00 6607.00,67.00              6607.00,67.00 6622.00,67.00 6622.00,67.00              6622.00,67.00 6638.00,68.00 6638.00,68.00              6638.00,68.00 6658.00,68.00 6658.00,68.00              6668.47,68.02 6668.04,69.65 6675.00,69.96              6675.00,69.96 6693.00,69.09 6693.00,69.09              6699.01,69.48 6701.93,71.24 6709.00,70.82              6713.92,70.77 6715.80,69.51 6721.00,70.82              6727.89,72.23 6730.18,75.60 6739.00,75.96              6745.21,76.21 6747.43,75.01 6753.00,74.14              6753.00,74.14 6762.00,74.14 6762.00,74.14              6772.10,73.88 6771.98,71.12 6781.00,71.23              6789.69,70.89 6797.38,69.87 6806.00,71.23              6814.08,72.96 6817.50,76.44 6825.00,76.91              6825.00,76.91 6846.00,75.00 6846.00,75.00              6846.00,75.00 6872.00,75.00 6872.00,75.00              6872.00,75.00 6886.00,75.99 6886.00,75.99              6896.11,76.21 6895.37,74.57 6903.00,73.32              6903.00,73.32 6928.00,72.00 6928.00,72.00              6940.26,71.98 6940.81,69.15 6947.00,69.08              6956.22,68.97 6964.74,73.35 6972.00,72.91              6972.00,72.91 6988.00,69.23 6988.00,69.23              6991.99,68.76 6996.87,69.04 7001.00,69.23              7001.00,69.23 7016.00,67.04 7016.00,67.04              7016.00,67.04 7036.00,69.22 7036.00,69.22              7042.10,70.25 7045.96,76.12 7058.00,74.83              7063.30,74.26 7067.92,72.15 7071.96,68.67              7076.20,65.03 7077.06,61.78 7083.00,60.48              7083.00,60.48 7101.00,58.75 7101.00,58.75              7101.00,58.75 7109.00,58.75 7109.00,58.75              7109.00,58.75 7116.00,57.89 7116.00,57.89              7116.00,57.89 7124.00,57.89 7124.00,57.89              7124.00,57.89 7131.00,56.69 7131.00,56.69              7131.00,56.69 7140.00,56.69 7140.00,56.69              7148.84,56.36 7155.41,52.05 7166.00,52.00              7166.00,52.00 7208.00,52.00 7208.00,52.00              7208.00,52.00 7226.00,54.00 7226.00,54.00              7226.00,54.00 7260.00,52.18 7260.00,52.18              7260.00,52.18 7268.00,52.97 7268.00,52.97              7268.00,52.97 7278.00,52.21 7278.00,52.21              7278.00,52.21 7295.00,54.61 7295.00,54.61              7302.01,56.38 7302.84,57.90 7311.00,58.00              7311.00,58.00 7337.00,58.00 7337.00,58.00              7345.08,57.90 7347.68,55.78 7353.00,55.72              7353.00,55.72 7388.00,59.00 7388.00,59.00              7399.78,59.13 7405.26,55.30 7415.00,54.63              7419.27,54.34 7421.53,56.17 7428.00,55.96              7428.00,55.96 7443.00,53.46 7443.00,53.46              7443.00,53.46 7456.00,54.00 7456.00,54.00              7456.00,54.00 7469.00,53.01 7469.00,53.01              7469.00,53.01 7486.00,53.89 7486.00,53.89              7486.00,53.89 7504.00,53.89 7504.00,53.89              7504.00,53.89 7528.00,56.00 7528.00,56.00              7528.00,56.00 7576.00,56.00 7576.00,56.00              7576.00,56.00 7595.00,57.75 7595.00,57.75              7595.00,57.75 7605.00,57.75 7605.00,57.75              7611.79,58.19 7610.88,61.23 7631.00,61.00              7631.00,61.00 7646.00,59.04 7646.00,59.04              7646.00,59.04 7658.00,59.04 7658.00,59.04              7658.00,59.04 7668.00,57.34 7668.00,57.34              7668.00,57.34 7677.00,58.00 7677.00,58.00              7677.00,58.00 7694.00,58.00 7694.00,58.00              7700.14,58.08 7701.59,59.01 7707.00,59.71              7707.00,59.71 7721.00,60.96 7721.00,60.96              7721.00,60.96 7736.00,60.14 7736.00,60.14              7740.20,60.35 7749.37,64.44 7758.00,63.91              7769.42,63.20 7767.03,58.02 7781.00,58.00              7781.00,58.00 7796.00,58.00 7796.00,58.00              7807.00,57.98 7811.13,54.88 7815.00,55.51              7817.67,55.94 7821.05,58.36 7824.00,59.44              7828.27,61.01 7831.56,60.99 7836.00,61.00              7836.00,61.00 7842.00,61.00 7842.00,61.00              7850.47,61.11 7849.94,62.61 7857.00,64.78              7857.00,64.78 7868.00,66.63 7868.00,66.63              7878.19,69.53 7874.84,71.15 7888.00,71.00              7898.10,70.88 7900.29,67.67 7904.00,67.88              7904.00,67.88 7922.00,73.79 7922.00,73.79              7938.63,77.40 7942.24,78.91 7958.00,84.57              7958.00,84.57 7969.00,87.89 7969.00,87.89              7969.00,87.89 7992.96,102.81 7992.96,102.81              8000.33,109.01 8001.40,113.83 8006.11,121.00              8007.82,123.60 8012.94,129.55 8015.16,131.99              8015.16,131.99 8021.24,138.28 8021.24,138.28              8024.23,141.80 8025.14,144.30 8029.04,147.67              8034.75,152.62 8038.61,151.98 8041.59,157.05              8044.92,162.75 8045.08,171.55 8045.00,178.00              8044.86,188.13 8040.57,188.44 8041.04,200.00              8041.38,208.34 8044.57,211.23 8045.25,215.00              8046.19,217.84 8045.05,223.45 8045.25,227.00              8044.83,241.57 8044.93,247.72 8049.20,262.00              8049.20,262.00 8056.37,281.00 8056.37,281.00              8056.37,281.00 8058.16,300.00 8058.16,300.00              8058.16,300.00 8061.00,319.00 8061.00,319.00              8061.18,334.99 8057.35,339.39 8057.14,347.00              8057.14,347.00 8057.14,357.00 8057.14,357.00              8057.14,357.00 8055.21,366.00 8055.21,366.00              8055.21,366.00 8055.21,376.00 8055.21,376.00              8055.21,376.00 8054.27,385.00 8054.27,385.00              8054.27,385.00 8054.27,394.00 8054.27,394.00              8054.27,394.00 8054.27,402.00 8054.27,402.00              8054.27,402.00 8054.27,412.00 8054.27,412.00              8054.27,412.00 8052.09,424.00 8052.09,424.00              8051.60,431.08 8053.56,433.40 8053.91,439.00              8053.91,439.00 8053.01,454.00 8053.01,454.00              8053.31,466.66 8058.83,468.25 8059.00,478.00              8059.00,478.00 8059.00,489.00 8059.00,489.00              8059.00,489.00 8060.00,508.00 8060.00,508.00              8060.00,508.00 8057.28,528.00 8057.28,528.00              8057.28,528.00 8057.28,541.00 8057.28,541.00              8057.28,541.00 8055.00,554.00 8055.00,554.00              8055.00,554.00 8055.00,565.00 8055.00,565.00              8055.00,565.00 8053.28,573.00 8053.28,573.00              8051.17,585.64 8050.85,586.99 8051.00,600.00              8051.13,610.72 8056.12,626.07 8056.28,629.00              8056.45,632.11 8054.00,636.83 8053.29,641.00              8051.30,652.54 8049.02,664.26 8049.00,676.00              8049.00,676.00 8051.09,717.00 8051.09,717.00              8051.09,717.00 8052.32,727.00 8052.32,727.00              8052.32,727.00 8052.32,736.00 8052.32,736.00              8052.32,736.00 8054.00,766.00 8054.00,766.00              8053.83,780.29 8048.02,783.26 8048.15,798.00              8048.15,798.00 8048.15,802.00 8048.15,802.00              8048.15,802.00 8048.15,810.00 8048.15,810.00              8048.15,810.00 8048.15,820.00 8048.15,820.00              8049.01,827.92 8050.98,826.53 8051.00,838.00              8051.00,838.00 8051.00,862.00 8051.00,862.00              8051.00,862.00 8046.00,896.00 8046.00,896.00              8046.00,896.00 8046.00,908.00 8046.00,908.00              8046.00,908.00 8045.00,926.00 8045.00,926.00              8045.00,926.00 8045.66,935.00 8045.66,935.00              8045.66,935.00 8045.00,950.00 8045.00,950.00              8045.00,950.00 8045.82,964.00 8045.82,964.00              8045.82,964.00 8045.00,974.00 8045.00,974.00              8045.00,974.00 8046.00,992.00 8046.00,992.00              8046.18,1008.19 8042.16,1003.77 8042.00,1017.00              8042.00,1017.00 8043.62,1035.00 8043.62,1035.00              8043.62,1035.00 8041.30,1045.00 8041.30,1045.00              8041.30,1045.00 8040.68,1054.00 8040.68,1054.00              8040.68,1054.00 8038.30,1064.00 8038.30,1064.00              8038.30,1064.00 8037.63,1073.00 8037.63,1073.00              8036.19,1080.50 8030.73,1098.65 8031.09,1105.00              8031.09,1105.00 8033.00,1123.00 8033.00,1123.00              8033.00,1123.00 8033.00,1149.00 8033.00,1149.00              8032.99,1158.07 8029.98,1165.78 8031.30,1175.00              8032.56,1183.82 8037.72,1189.99 8036.83,1199.00              8036.83,1199.00 8034.46,1211.00 8034.46,1211.00              8034.46,1211.00 8033.63,1218.00 8033.63,1218.00              8032.31,1224.74 8029.68,1229.50 8030.09,1237.00              8030.84,1250.64 8029.48,1243.34 8027.47,1254.00              8027.47,1254.00 8025.03,1275.00 8025.03,1275.00              8025.03,1275.00 8026.68,1295.00 8026.68,1295.00              8026.68,1295.00 8029.61,1304.00 8029.61,1304.00              8029.61,1304.00 8031.08,1317.00 8031.08,1317.00              8031.08,1317.00 8033.20,1326.00 8033.20,1326.00              8033.61,1330.15 8031.11,1332.03 8031.00,1341.00              8030.89,1350.34 8030.40,1359.84 8032.42,1369.00              8032.42,1369.00 8037.57,1386.00 8037.57,1386.00              8037.57,1386.00 8035.05,1405.00 8035.05,1405.00              8032.31,1413.24 8027.52,1418.65 8028.09,1428.00              8028.44,1433.63 8030.30,1437.38 8033.36,1442.00              8035.16,1444.73 8038.64,1448.62 8038.27,1452.00              8037.95,1454.95 8033.22,1460.22 8030.92,1469.00              8029.30,1475.17 8030.77,1478.12 8028.53,1485.00              8028.53,1485.00 8020.93,1502.00 8020.93,1502.00              8020.93,1502.00 8019.16,1513.00 8019.16,1513.00              8017.04,1518.63 8011.47,1524.95 8008.48,1530.00              8005.47,1535.09 8005.74,1538.23 8004.52,1540.72              8002.09,1545.65 7989.55,1556.41 7986.93,1566.00              7983.34,1579.09 7989.58,1586.71 7990.42,1591.00              7991.22,1595.09 7988.70,1597.99 7989.09,1605.00              7989.09,1605.00 7990.93,1626.00 7990.93,1626.00              7990.93,1626.00 7995.51,1637.00 7995.51,1637.00              7996.29,1639.91 7995.51,1648.18 7997.90,1658.00              7997.90,1658.00 8006.22,1686.00 8006.22,1686.00              8006.22,1686.00 8009.30,1706.00 8009.30,1706.00              8011.02,1717.31 8011.80,1708.36 8012.00,1726.00              8012.07,1731.51 8014.05,1741.05 8016.40,1746.00              8016.40,1746.00 8020.26,1753.00 8020.26,1753.00              8022.04,1756.74 8022.10,1758.23 8024.79,1762.00              8029.90,1769.19 8036.47,1772.01 8037.88,1778.00              8037.88,1778.00 8037.88,1785.00 8037.88,1785.00              8038.22,1789.10 8039.18,1791.76 8038.83,1796.00              8038.83,1796.00 8036.09,1822.00 8036.09,1822.00              8036.09,1822.00 8040.56,1845.00 8040.56,1845.00              8041.93,1848.74 8044.74,1852.23 8045.19,1856.00              8045.19,1856.00 8045.19,1866.00 8045.19,1866.00              8044.85,1879.48 8046.82,1877.63 8047.83,1887.00              8047.83,1887.00 8049.47,1912.00 8049.47,1912.00              8049.47,1912.00 8051.40,1919.00 8051.40,1919.00              8051.40,1919.00 8053.58,1937.91 8053.58,1937.91              8053.44,1942.21 8049.20,1943.90 8045.91,1950.00              8044.17,1953.24 8039.19,1970.25 8039.04,1974.00              8039.04,1974.00 8041.82,1997.00 8041.82,1997.00              8041.75,2002.63 8038.37,2005.82 8038.04,2014.00              8037.66,2023.44 8044.53,2038.59 8047.86,2048.00              8047.86,2048.00 8050.81,2056.00 8050.81,2056.00              8051.15,2058.63 8050.97,2062.24 8050.81,2065.00              8050.81,2065.00 8052.36,2076.00 8052.36,2076.00              8052.49,2080.14 8051.47,2082.69 8052.36,2088.00              8053.56,2093.82 8056.06,2096.52 8056.44,2100.00              8056.44,2100.00 8055.01,2112.00 8055.01,2112.00              8054.72,2124.64 8058.26,2125.05 8058.91,2133.00              8058.91,2133.00 8059.81,2150.00 8059.81,2150.00              8059.81,2150.00 8058.08,2159.00 8058.08,2159.00              8058.08,2159.00 8058.08,2169.00 8058.08,2169.00              8058.08,2169.00 8056.37,2185.00 8056.37,2185.00              8054.38,2192.31 8052.02,2194.34 8053.30,2203.00              8054.28,2209.64 8056.90,2211.72 8057.73,2216.00              8058.52,2220.09 8057.08,2225.31 8059.56,2232.00              8061.41,2237.02 8064.76,2239.86 8065.70,2244.00              8065.70,2244.00 8067.74,2259.00 8067.74,2259.00              8067.74,2259.00 8067.14,2267.00 8067.14,2267.00              8067.14,2267.00 8067.14,2274.00 8067.14,2274.00              8067.14,2274.00 8065.22,2289.00 8065.22,2289.00              8062.37,2299.33 8060.87,2297.69 8061.10,2310.00              8061.10,2310.00 8061.10,2319.00 8061.10,2319.00              8060.49,2322.80 8056.56,2327.36 8057.09,2336.00              8057.09,2336.00 8059.19,2348.00 8059.19,2348.00              8059.19,2348.00 8059.19,2361.00 8059.19,2361.00              8059.04,2368.46 8062.30,2379.96 8065.00,2387.00 Z"
            style="fill:#000000;fill-opacity:1"/>
</svg>
