<?xml version="1.0" encoding="UTF-8" standalone="no"?>
<svg
        width="173.842mm"
        height="121.857mm"
        viewBox="0 0 8213 5757"
        version="1.1"
        id="svg1045"
        sodipodi:docname="folio5a.svg"
        inkscape:version="1.1.1 (3bf5ae0d25, 2021-09-20)"
        xmlns:inkscape="http://www.inkscape.org/namespaces/inkscape"
        xmlns:sodipodi="http://sodipodi.sourceforge.net/DTD/sodipodi-0.dtd"
        xmlns="http://www.w3.org/2000/svg"
>
    <defs
            id="defs1049"/>
    <sodipodi:namedview
            id="namedview1047"
            pagecolor="#ffffff"
            bordercolor="#666666"
            borderopacity="1.0"
            inkscape:pageshadow="2"
            inkscape:pageopacity="0.0"
            inkscape:pagecheckerboard="0"
            inkscape:document-units="mm"
            showgrid="false"
            inkscape:zoom="1.6102505"
            inkscape:cx="328.83082"
            inkscape:cy="230.08842"
            inkscape:window-width="1920"
            inkscape:window-height="1001"
            inkscape:window-x="-7"
            inkscape:window-y="-7"
            inkscape:window-maximized="1"
            inkscape:current-layer="svg1045"/>
    <path
            id="Selection #1"
            fill="none"
            stroke="black"
            stroke-width="1"
            d="M 970.00,5702.00            C 966.33,5699.46 963.01,5696.39 959.00,5694.38              959.00,5694.38 938.00,5685.55 938.00,5685.55              938.00,5685.55 930.00,5682.96 930.00,5682.96              930.00,5682.96 918.00,5675.95 918.00,5675.95              909.26,5672.21 900.15,5670.82 891.00,5668.67              884.89,5667.23 882.93,5665.61 876.00,5666.09              863.96,5666.92 861.02,5674.21 855.00,5675.93              855.00,5675.93 846.00,5675.93 846.00,5675.93              846.00,5675.93 827.00,5679.13 827.00,5679.13              827.00,5679.13 816.00,5681.55 816.00,5681.55              816.00,5681.55 794.00,5684.25 794.00,5684.25              794.00,5684.25 784.00,5683.09 784.00,5683.09              780.43,5682.83 775.21,5683.42 772.00,5682.28              772.00,5682.28 762.00,5676.40 762.00,5676.40              755.71,5673.38 748.84,5672.92 742.00,5673.00              742.00,5673.00 729.00,5673.72 729.00,5673.72              725.01,5672.97 722.65,5670.28 718.00,5668.56              714.72,5667.35 703.78,5666.20 700.00,5666.04              689.97,5665.60 690.62,5667.00 683.00,5667.83              683.00,5667.83 675.00,5668.47 675.00,5668.47              669.00,5669.59 669.36,5670.90 662.00,5671.00              656.57,5671.07 652.28,5670.60 647.00,5672.56              641.31,5674.66 638.72,5677.94 634.00,5680.87              629.26,5683.81 626.60,5683.60 622.00,5685.47              622.00,5685.47 614.00,5689.15 614.00,5689.15              611.32,5689.90 607.45,5688.88 604.00,5689.15              604.00,5689.15 594.00,5691.00 594.00,5691.00              594.00,5691.00 583.00,5691.00 583.00,5691.00              583.00,5691.00 572.00,5692.84 572.00,5692.84              572.00,5692.84 542.00,5694.00 542.00,5694.00              533.88,5693.89 534.62,5692.20 528.00,5690.68              523.05,5689.55 519.63,5690.32 515.00,5689.83              509.34,5689.22 508.22,5687.75 501.00,5688.04              492.11,5688.40 493.91,5690.98 478.00,5691.00              463.97,5691.02 464.48,5694.70 457.00,5694.94              449.79,5695.18 446.34,5691.78 437.00,5693.46              426.99,5695.27 424.87,5699.49 419.00,5699.86              419.00,5699.86 407.00,5699.02 407.00,5699.02              407.00,5699.02 395.00,5700.15 395.00,5700.15              395.00,5700.15 386.00,5700.15 386.00,5700.15              386.00,5700.15 376.00,5700.98 376.00,5700.98              376.00,5700.98 365.00,5700.05 365.00,5700.05              365.00,5700.05 354.00,5700.05 354.00,5700.05              345.33,5700.11 342.27,5702.62 338.00,5702.52              338.00,5702.52 318.00,5698.30 318.00,5698.30              307.63,5696.75 299.29,5697.12 289.00,5697.00              278.21,5696.87 273.40,5694.22 264.00,5692.47              264.00,5692.47 254.00,5691.51 254.00,5691.51              250.85,5690.66 248.97,5688.83 244.00,5687.68              236.15,5685.87 217.54,5687.17 211.17,5684.42              208.75,5683.37 206.28,5680.32 203.99,5678.53              203.99,5678.53 194.51,5672.51 194.51,5672.51              194.51,5672.51 186.00,5663.09 186.00,5663.09              179.03,5656.62 169.37,5653.13 165.61,5649.39              159.51,5643.34 158.23,5637.72 154.67,5631.00              152.89,5627.64 150.84,5624.84 147.96,5622.33              146.05,5620.66 142.57,5618.82 141.57,5616.62              140.69,5614.69 141.03,5607.51 141.00,5605.00              140.94,5600.00 140.44,5596.52 138.09,5592.00              136.71,5589.34 133.54,5585.45 134.63,5582.32              135.63,5579.44 139.56,5578.48 143.90,5572.00              150.59,5561.99 157.15,5544.15 155.83,5532.00              155.02,5524.52 152.36,5522.85 150.23,5517.00              150.23,5517.00 146.44,5501.00 146.44,5501.00              146.44,5501.00 140.97,5490.00 140.97,5490.00              139.12,5484.82 140.50,5476.68 135.73,5467.00              132.06,5459.55 129.27,5457.96 127.30,5454.00              127.30,5454.00 124.05,5444.00 124.05,5444.00              121.90,5438.75 119.67,5436.22 120.19,5430.00              120.54,5425.68 121.86,5424.09 121.98,5418.00              121.98,5418.00 121.25,5406.00 121.25,5406.00              121.73,5401.53 124.64,5398.88 124.96,5391.00              125.54,5376.71 117.35,5370.31 111.83,5359.00              109.02,5353.24 110.60,5350.67 109.53,5345.00              108.53,5339.70 106.35,5336.96 105.80,5334.00              105.11,5330.27 106.88,5324.76 107.70,5321.00              108.30,5316.66 107.90,5312.36 107.70,5308.00              107.70,5308.00 107.70,5295.00 107.70,5295.00              107.70,5295.00 105.00,5267.00 105.00,5267.00              105.00,5267.00 102.08,5246.00 102.08,5246.00              102.08,5246.00 103.14,5238.00 103.14,5238.00              103.14,5238.00 103.14,5230.00 103.14,5230.00              103.14,5230.00 109.33,5210.00 109.33,5210.00              112.56,5202.51 115.97,5198.81 115.97,5190.00              115.97,5185.36 112.55,5165.16 110.60,5161.00              110.60,5161.00 101.60,5145.00 101.60,5145.00              100.74,5141.73 102.60,5138.22 103.32,5135.00              104.25,5130.84 103.95,5127.19 104.00,5123.00              104.13,5113.49 108.45,5110.56 107.96,5099.00              107.96,5099.00 107.09,5091.00 107.09,5091.00              107.09,5091.00 105.70,5073.00 105.70,5073.00              104.63,5065.67 103.05,5066.41 103.00,5057.00              103.00,5057.00 101.91,5039.00 101.91,5039.00              101.91,5039.00 101.91,5031.00 101.91,5031.00              101.28,5025.90 99.44,5022.67 100.21,5017.00              100.21,5017.00 108.11,4990.00 108.11,4990.00              109.41,4984.26 110.01,4967.42 110.00,4961.00              109.98,4947.90 107.22,4948.74 106.78,4943.00              106.78,4943.00 106.78,4917.00 106.78,4917.00              106.94,4912.64 102.95,4895.74 101.56,4891.00              101.56,4891.00 99.21,4883.00 99.21,4883.00              99.21,4883.00 100.37,4858.00 100.37,4858.00              101.13,4854.05 102.60,4852.05 102.91,4847.00              103.55,4836.59 98.27,4832.09 96.08,4827.00              96.08,4827.00 91.90,4812.00 91.90,4812.00              89.99,4805.41 91.46,4798.62 91.90,4792.00              91.90,4792.00 91.90,4781.00 91.90,4781.00              91.90,4781.00 93.96,4758.00 93.96,4758.00              93.73,4751.19 90.69,4746.08 91.19,4740.00              91.57,4735.40 93.27,4732.95 92.91,4727.00              92.49,4720.25 89.82,4718.39 90.04,4711.00              90.42,4698.68 95.43,4696.70 94.96,4685.00              94.96,4685.00 92.53,4666.00 92.53,4666.00              92.53,4666.00 90.37,4658.00 90.37,4658.00              90.37,4658.00 89.70,4648.00 89.70,4648.00              88.96,4642.81 86.90,4637.30 87.32,4632.00              87.32,4632.00 88.96,4620.00 88.96,4620.00              89.41,4608.40 85.46,4606.03 87.10,4591.00              87.89,4583.76 92.31,4581.45 91.96,4571.00              91.76,4564.97 89.86,4562.23 89.68,4559.00              89.68,4559.00 89.68,4549.00 89.68,4549.00              89.50,4542.33 86.88,4539.55 86.21,4535.00              86.21,4535.00 87.15,4519.00 87.15,4519.00              87.15,4519.00 87.15,4500.00 87.15,4500.00              88.39,4492.36 91.39,4484.87 90.91,4477.00              90.91,4477.00 88.12,4464.00 88.12,4464.00              88.12,4464.00 88.91,4452.00 88.91,4452.00              88.91,4452.00 84.51,4429.00 84.51,4429.00              84.51,4424.34 88.33,4419.36 89.53,4413.00              91.04,4405.03 88.62,4401.30 88.19,4396.00              87.71,4390.26 91.00,4378.88 92.32,4373.00              93.41,4368.14 92.61,4365.70 94.47,4360.00              96.94,4352.40 100.28,4351.86 99.99,4339.00              99.76,4329.32 95.85,4323.91 94.44,4315.00              94.44,4315.00 92.64,4301.00 92.64,4301.00              92.51,4296.87 93.46,4295.10 92.64,4290.00              92.64,4290.00 89.05,4278.00 89.05,4278.00              88.95,4275.10 91.38,4271.87 92.44,4269.00              94.12,4264.45 95.08,4257.86 94.98,4253.00              94.98,4253.00 92.87,4234.00 92.87,4234.00              90.62,4224.76 88.10,4223.67 89.10,4213.00              89.92,4204.27 96.55,4197.49 95.91,4187.00              95.53,4180.81 93.20,4177.82 92.39,4174.00              92.39,4174.00 90.02,4151.00 90.02,4151.00              90.24,4141.87 96.59,4137.10 95.91,4126.00              95.42,4118.06 90.93,4113.08 88.75,4104.00              88.75,4104.00 87.53,4094.00 87.53,4094.00              87.53,4094.00 85.37,4086.00 85.37,4086.00              85.37,4086.00 84.70,4079.00 84.70,4079.00              84.70,4079.00 83.00,4071.00 83.00,4071.00              83.00,4071.00 83.00,4061.00 83.00,4061.00              83.00,4061.00 81.04,4050.00 81.04,4050.00              80.23,4032.07 81.75,4038.76 82.83,4029.00              82.83,4029.00 84.37,4010.00 84.37,4010.00              84.37,4010.00 87.56,3997.00 87.56,3997.00              87.56,3997.00 89.21,3977.00 89.21,3977.00              89.78,3972.91 91.57,3970.35 91.82,3965.00              91.82,3965.00 91.82,3957.00 91.82,3957.00              91.82,3957.00 91.82,3945.00 91.82,3945.00              91.91,3937.63 90.69,3937.11 90.39,3933.00              90.39,3933.00 90.91,3923.00 90.91,3923.00              90.91,3923.00 89.00,3911.00 89.00,3911.00              89.00,3911.00 89.00,3902.00 89.00,3902.00              89.00,3902.00 86.08,3887.00 86.08,3887.00              86.07,3879.45 88.65,3872.34 89.85,3865.00              89.85,3865.00 89.85,3847.00 89.85,3847.00              89.85,3847.00 91.96,3829.00 91.96,3829.00              91.76,3824.05 90.28,3820.64 89.46,3816.00              89.46,3816.00 87.10,3796.00 87.10,3796.00              87.10,3796.00 87.91,3783.00 87.91,3783.00              87.70,3779.89 86.25,3775.50 86.59,3773.00              86.96,3770.24 89.35,3766.96 90.44,3764.00              91.93,3759.96 92.08,3756.24 91.99,3752.00              91.99,3752.00 89.34,3731.00 89.34,3731.00              89.34,3731.00 90.00,3710.00 90.00,3710.00              90.00,3710.00 87.00,3675.00 87.00,3675.00              86.87,3664.38 83.48,3660.19 82.39,3655.00              81.59,3651.22 82.54,3648.45 81.07,3643.00              79.65,3637.71 76.46,3630.64 76.51,3625.00              76.54,3621.06 79.14,3618.35 80.06,3612.00              80.06,3612.00 80.06,3600.00 80.06,3600.00              80.06,3600.00 82.91,3587.00 82.91,3587.00              82.91,3587.00 82.39,3576.00 82.39,3576.00              82.66,3572.37 83.97,3570.51 83.97,3565.00              83.97,3557.51 80.26,3551.00 78.09,3544.00              76.44,3538.69 77.43,3536.78 76.53,3532.00              76.53,3532.00 74.26,3523.00 74.26,3523.00              74.01,3519.23 76.88,3514.53 78.42,3511.00              81.96,3502.92 83.20,3501.14 82.99,3492.00              82.81,3484.25 81.33,3484.19 79.63,3478.00              79.63,3478.00 78.08,3468.00 78.08,3468.00              76.96,3463.75 75.48,3461.70 75.09,3457.00              75.09,3457.00 77.00,3431.00 77.00,3431.00              77.00,3431.00 74.35,3410.00 74.35,3410.00              74.35,3410.00 77.91,3394.00 77.91,3394.00              78.41,3386.76 76.10,3384.00 75.92,3376.00              75.92,3376.00 75.92,3364.00 75.92,3364.00              75.92,3364.00 73.10,3348.00 73.10,3348.00              73.10,3348.00 74.91,3331.00 74.91,3331.00              74.91,3331.00 75.80,3318.00 75.80,3318.00              75.80,3318.00 75.80,3309.00 75.80,3309.00              75.80,3309.00 79.53,3296.00 79.53,3296.00              80.42,3291.30 79.48,3287.86 80.99,3283.00              82.51,3278.11 85.08,3275.96 85.83,3269.00              86.92,3258.81 80.57,3248.74 81.04,3237.00              81.04,3237.00 84.39,3216.00 84.39,3216.00              84.39,3216.00 85.63,3206.00 85.63,3206.00              87.34,3199.98 90.69,3194.86 91.70,3188.00              93.00,3179.14 89.63,3175.58 90.09,3168.00              90.53,3160.83 93.32,3155.50 95.07,3149.00              95.07,3149.00 97.21,3139.00 97.21,3139.00              97.21,3139.00 101.45,3130.00 101.45,3130.00              101.45,3130.00 103.66,3121.00 103.66,3121.00              103.66,3121.00 106.84,3111.00 106.84,3111.00              106.84,3111.00 108.62,3103.00 108.62,3103.00              108.62,3103.00 112.84,3091.00 112.84,3091.00              114.40,3085.06 113.59,3084.46 114.32,3080.00              114.32,3080.00 116.33,3072.00 116.33,3072.00              116.33,3072.00 117.44,3064.00 117.44,3064.00              117.44,3064.00 120.73,3049.00 120.73,3049.00              120.73,3049.00 120.73,3038.00 120.73,3038.00              120.94,3034.09 122.22,3032.53 121.91,3027.00              121.91,3027.00 120.00,3004.00 120.00,3004.00              120.11,2996.03 121.62,2996.70 123.78,2990.00              123.78,2990.00 126.13,2981.00 126.13,2981.00              126.13,2981.00 129.78,2964.00 129.78,2964.00              129.78,2964.00 133.54,2952.00 133.54,2952.00              133.54,2952.00 136.17,2930.00 136.17,2930.00              136.88,2923.42 138.19,2923.99 137.99,2915.00              137.75,2904.56 133.95,2902.70 132.99,2898.00              132.99,2898.00 132.99,2887.00 132.99,2887.00              132.93,2881.42 131.01,2871.32 129.25,2866.00              125.66,2855.15 119.17,2853.69 119.00,2839.00              118.87,2827.40 120.50,2828.62 120.91,2822.00              121.53,2811.81 117.16,2807.88 112.47,2800.00              109.75,2795.44 110.56,2792.61 106.89,2787.00              102.04,2779.60 96.87,2778.02 94.95,2775.39              94.95,2775.39 91.60,2766.00 91.60,2766.00              89.47,2761.57 85.52,2758.37 85.43,2754.00              85.43,2754.00 88.37,2735.00 88.37,2735.00              88.37,2735.00 90.32,2728.00 90.32,2728.00              90.32,2728.00 91.33,2720.00 91.33,2720.00              91.33,2720.00 94.57,2709.00 94.57,2709.00              94.57,2709.00 97.67,2693.00 97.67,2693.00              97.67,2693.00 101.32,2682.00 101.32,2682.00              102.39,2677.34 101.74,2674.41 102.17,2670.00              102.17,2670.00 104.96,2650.00 104.96,2650.00              104.96,2650.00 104.00,2635.00 104.00,2635.00              104.00,2635.00 104.00,2620.00 104.00,2620.00              104.00,2620.00 101.33,2597.00 101.33,2597.00              101.33,2597.00 97.97,2585.00 97.97,2585.00              97.97,2585.00 97.97,2578.00 97.97,2578.00              97.97,2578.00 95.96,2560.00 95.96,2560.00              95.96,2560.00 95.96,2545.00 95.96,2545.00              95.96,2545.00 95.00,2533.00 95.00,2533.00              95.00,2533.00 95.00,2503.00 95.00,2503.00              95.00,2503.00 95.85,2493.00 95.85,2493.00              95.85,2493.00 95.85,2485.00 95.85,2485.00              95.85,2485.00 99.63,2464.00 99.63,2464.00              99.63,2464.00 102.53,2455.00 102.53,2455.00              104.01,2447.39 103.96,2439.71 104.00,2432.00              104.00,2432.00 106.00,2409.00 106.00,2409.00              105.85,2396.75 101.69,2391.75 95.77,2382.00              95.77,2382.00 91.89,2375.00 91.89,2375.00              89.90,2371.97 86.87,2369.15 85.51,2366.00              83.87,2362.21 82.43,2349.68 81.71,2345.00              81.71,2345.00 79.62,2335.00 79.62,2335.00              79.55,2331.50 81.26,2328.77 80.91,2323.00              80.58,2317.74 78.74,2315.26 79.09,2309.00              79.09,2309.00 80.96,2285.00 80.96,2285.00              80.96,2285.00 79.94,2277.00 79.94,2277.00              79.94,2277.00 79.94,2250.00 79.94,2250.00              80.27,2245.04 83.43,2240.84 84.53,2235.00              84.53,2235.00 86.46,2213.00 86.46,2213.00              86.46,2213.00 90.34,2196.00 90.34,2196.00              90.34,2196.00 92.33,2184.00 92.33,2184.00              92.33,2184.00 94.70,2175.00 94.70,2175.00              95.75,2167.85 94.21,2163.96 94.13,2158.00              94.07,2153.04 96.49,2150.17 96.91,2144.00              96.91,2144.00 95.78,2129.00 95.78,2129.00              95.78,2129.00 96.71,2120.00 96.71,2120.00              96.71,2120.00 96.71,2109.00 96.71,2109.00              96.34,2105.71 97.39,2103.22 96.71,2098.00              96.11,2091.33 91.83,2085.84 92.71,2080.00              92.71,2080.00 98.72,2051.00 98.72,2051.00              98.72,2051.00 100.63,2034.00 100.63,2034.00              103.13,2024.94 108.46,2015.68 107.91,2006.00              107.91,2006.00 105.93,1987.00 105.93,1987.00              105.93,1987.00 105.93,1979.00 105.93,1979.00              105.93,1979.00 103.37,1970.00 103.37,1970.00              102.43,1965.07 103.83,1961.78 100.13,1953.00              98.37,1948.85 95.87,1944.36 92.82,1941.04              88.57,1936.41 85.61,1936.52 84.26,1929.99              81.53,1916.75 85.47,1915.79 84.96,1904.00              84.60,1895.75 80.07,1888.31 80.08,1880.00              80.08,1880.00 81.93,1866.00 81.93,1866.00              81.93,1866.00 81.93,1856.00 81.93,1856.00              81.93,1856.00 83.53,1849.00 83.53,1849.00              83.53,1849.00 85.00,1835.00 85.00,1835.00              85.11,1824.90 82.98,1812.91 80.79,1803.00              79.79,1798.46 77.01,1793.01 77.21,1789.00              77.21,1789.00 79.71,1776.00 79.71,1776.00              79.71,1776.00 80.30,1763.00 80.30,1763.00              80.30,1763.00 85.11,1742.00 85.11,1742.00              85.11,1742.00 86.46,1733.00 86.46,1733.00              88.40,1722.33 90.98,1722.54 91.08,1710.00              91.08,1710.00 91.08,1699.00 91.08,1699.00              91.08,1699.00 93.00,1684.00 93.00,1684.00              93.00,1684.00 93.00,1663.00 93.00,1663.00              92.85,1650.28 87.87,1649.42 88.35,1643.00              89.14,1632.46 96.85,1625.65 97.00,1613.00              97.00,1613.00 95.32,1579.00 95.32,1579.00              94.28,1574.49 93.09,1573.52 91.80,1570.00              91.80,1570.00 87.05,1552.00 87.05,1552.00              86.64,1542.83 91.85,1538.67 92.00,1526.00              92.09,1518.44 91.97,1514.32 89.46,1507.00              89.46,1507.00 87.15,1501.00 87.15,1501.00              87.15,1501.00 87.15,1494.00 87.15,1494.00              87.15,1494.00 85.88,1486.00 85.88,1486.00              85.88,1486.00 85.88,1473.00 85.88,1473.00              85.88,1473.00 87.96,1455.00 87.96,1455.00              87.77,1450.23 85.84,1445.79 86.18,1441.00              86.18,1441.00 87.91,1424.00 87.91,1424.00              87.91,1424.00 85.12,1411.00 85.12,1411.00              84.72,1405.17 87.30,1402.41 86.96,1394.00              86.69,1387.26 85.02,1387.41 85.00,1377.00              85.00,1377.00 85.00,1358.00 85.00,1358.00              85.00,1358.00 86.83,1343.00 86.83,1343.00              86.83,1343.00 87.63,1333.00 87.63,1333.00              89.10,1325.81 93.20,1322.75 93.91,1313.00              94.27,1308.10 94.09,1302.66 92.45,1298.00              90.73,1293.12 87.06,1288.43 87.77,1283.00              88.21,1279.58 90.28,1276.98 89.96,1269.00              89.43,1255.92 78.15,1245.33 78.69,1229.00              78.69,1229.00 78.69,1215.00 78.69,1215.00              79.16,1208.40 80.48,1207.28 79.91,1199.00              79.91,1199.00 77.04,1176.00 77.04,1176.00              77.04,1176.00 77.96,1159.00 77.96,1159.00              77.63,1151.57 75.74,1152.29 76.01,1141.00              76.18,1134.02 78.39,1129.50 79.54,1123.00              79.54,1123.00 83.38,1100.00 83.38,1100.00              84.96,1094.51 88.59,1092.25 88.96,1083.00              89.25,1075.91 86.36,1060.77 82.21,1055.00              76.39,1046.92 70.37,1047.21 69.96,1041.96              69.96,1041.96 72.87,1030.00 72.87,1030.00              72.87,1030.00 73.91,1021.00 73.91,1021.00              73.91,1021.00 73.91,1014.00 73.91,1014.00              74.90,1005.55 77.27,1004.58 76.99,993.00              76.77,984.21 74.29,982.10 72.68,975.00              72.68,975.00 69.83,948.00 69.83,948.00              69.83,948.00 68.67,941.00 68.67,941.00              68.58,937.13 70.89,934.47 71.70,929.00              72.60,922.92 71.16,919.68 71.18,916.00              71.18,916.00 72.96,904.00 72.96,904.00              73.52,890.25 64.60,884.36 64.49,874.00              64.45,869.40 66.92,862.50 68.08,858.00              68.08,858.00 71.00,838.00 71.00,838.00              71.00,838.00 71.00,830.00 71.00,830.00              71.42,825.08 72.22,823.85 71.96,818.00              71.69,811.85 69.92,809.65 69.82,806.00              69.82,806.00 69.82,796.00 69.82,796.00              69.82,796.00 69.00,779.00 69.00,779.00              69.14,767.80 73.54,767.28 73.96,757.00              74.30,748.54 71.94,745.86 71.68,742.00              71.68,742.00 71.68,732.00 71.68,732.00              71.64,727.69 69.60,723.05 70.29,719.00              70.82,715.85 73.33,712.10 74.66,709.00              74.66,709.00 81.07,691.00 81.07,691.00              81.07,691.00 83.64,672.00 83.64,672.00              85.54,665.38 91.59,661.04 90.91,650.00              90.14,637.61 79.17,629.29 73.51,619.00              71.24,614.88 72.34,610.55 71.54,606.00              69.87,596.56 65.21,590.69 65.84,584.00              65.84,584.00 66.99,575.00 66.99,575.00              66.99,575.00 65.00,545.00 65.00,545.00              65.00,545.00 64.19,533.00 64.19,533.00              64.19,533.00 66.91,520.00 66.91,520.00              66.91,520.00 65.92,504.00 65.92,504.00              65.92,504.00 68.32,496.00 68.32,496.00              69.89,489.50 71.49,479.65 71.91,473.00              72.41,465.16 70.03,463.04 70.03,456.00              70.03,456.00 73.91,431.00 73.91,431.00              74.26,425.19 72.41,422.61 72.84,418.00              73.78,407.93 76.98,402.42 77.00,392.00              77.00,392.00 77.00,369.00 77.00,369.00              77.00,369.00 75.84,357.00 75.84,357.00              75.89,353.45 77.76,350.88 77.96,345.00              77.96,345.00 77.00,330.00 77.00,330.00              77.00,330.00 78.00,303.00 78.00,303.00              78.00,303.00 82.39,278.00 82.39,278.00              82.39,278.00 82.39,255.00 82.39,255.00              82.39,255.00 85.53,244.00 85.53,244.00              85.53,244.00 86.17,231.00 86.17,231.00              86.97,223.54 88.12,225.96 88.00,215.00              87.92,207.89 86.23,206.45 86.97,199.00              87.64,192.21 90.90,187.39 92.79,181.00              92.79,181.00 98.58,157.00 98.58,157.00              100.01,153.25 103.71,150.50 106.05,145.00              106.05,145.00 109.22,134.00 109.22,134.00              109.22,134.00 114.10,125.00 114.10,125.00              115.19,122.58 116.11,118.27 117.72,116.56              120.68,113.43 129.74,113.25 136.00,109.52              145.92,103.61 145.28,97.62 152.04,94.35              156.84,92.03 160.18,92.41 165.00,91.54              170.42,90.56 180.66,89.08 186.00,89.08              186.00,89.08 193.00,89.83 193.00,89.83              193.00,89.83 214.00,91.17 214.00,91.17              224.62,90.87 222.45,88.26 235.00,91.17              244.65,93.70 247.04,98.43 259.00,97.96              263.17,97.80 270.26,96.38 274.00,94.60              277.58,92.90 281.37,89.70 285.00,88.81              288.64,87.60 292.32,88.82 296.00,88.81              296.00,88.81 311.00,87.78 311.00,87.78              311.00,87.78 319.00,88.96 319.00,88.96              319.00,88.96 335.00,88.96 335.00,88.96              335.00,88.96 374.00,86.00 374.00,86.00              374.00,86.00 393.00,87.00 393.00,87.00              393.00,87.00 414.00,86.00 414.00,86.00              414.00,86.00 427.00,86.96 427.00,86.96              427.00,86.96 436.00,85.79 436.00,85.79              436.00,85.79 445.00,85.79 445.00,85.79              445.00,85.79 457.00,84.92 457.00,84.92              457.00,84.92 471.00,84.92 471.00,84.92              471.00,84.92 491.00,83.00 491.00,83.00              491.00,83.00 506.00,83.00 506.00,83.00              506.00,83.00 522.00,82.04 522.00,82.04              522.00,82.04 533.00,83.00 533.00,83.00              533.00,83.00 542.00,83.00 542.00,83.00              542.00,83.00 560.00,81.51 560.00,81.51              560.00,81.51 570.00,82.91 570.00,82.91              570.00,82.91 581.00,82.91 581.00,82.91              581.00,82.91 594.00,82.09 594.00,82.09              594.00,82.09 606.00,82.99 606.00,82.99              606.00,82.99 630.00,81.09 630.00,81.09              630.00,81.09 661.00,84.17 661.00,84.17              661.00,84.17 671.00,85.91 671.00,85.91              671.00,85.91 702.00,82.98 702.00,82.98              702.00,82.98 715.00,82.98 715.00,82.98              715.00,82.98 724.00,82.98 724.00,82.98              728.22,83.12 729.89,84.12 735.00,83.96              735.00,83.96 743.00,83.09 743.00,83.09              743.00,83.09 766.00,81.83 766.00,81.83              766.00,81.83 775.00,80.21 775.00,80.21              775.00,80.21 792.00,81.00 792.00,81.00              792.00,81.00 812.00,79.02 812.00,79.02              812.00,79.02 830.00,80.00 830.00,80.00              830.00,80.00 848.00,79.00 848.00,79.00              848.00,79.00 863.00,80.00 863.00,80.00              863.00,80.00 882.00,79.01 882.00,79.01              882.00,79.01 902.00,80.00 902.00,80.00              902.00,80.00 912.00,78.96 912.00,78.96              912.00,78.96 922.00,78.96 922.00,78.96              925.79,78.47 929.08,77.44 933.00,77.59              933.00,77.59 943.00,78.85 943.00,78.85              943.00,78.85 970.00,81.00 970.00,81.00              970.00,81.00 988.00,79.14 988.00,79.14              994.35,79.48 994.34,82.98 1008.00,82.88              1008.00,82.88 1024.00,82.88 1024.00,82.88              1024.00,82.88 1036.00,84.00 1036.00,84.00              1036.00,84.00 1049.00,83.38 1049.00,83.38              1049.00,83.38 1058.00,84.92 1058.00,84.92              1058.00,84.92 1068.00,84.92 1068.00,84.92              1068.00,84.92 1089.00,84.00 1089.00,84.00              1100.56,83.86 1097.07,80.83 1112.00,81.00              1112.00,81.00 1135.00,83.04 1135.00,83.04              1135.00,83.04 1147.00,83.04 1147.00,83.04              1147.00,83.04 1158.00,84.00 1158.00,84.00              1158.00,84.00 1174.00,84.00 1174.00,84.00              1174.00,84.00 1188.00,84.99 1188.00,84.99              1199.81,85.27 1198.49,83.12 1208.00,83.00              1208.00,83.00 1216.00,83.00 1216.00,83.00              1216.00,83.00 1247.00,86.91 1247.00,86.91              1247.00,86.91 1259.00,86.00 1259.00,86.00              1259.00,86.00 1281.00,86.00 1281.00,86.00              1281.00,86.00 1296.00,85.00 1296.00,85.00              1296.00,85.00 1323.00,84.00 1323.00,84.00              1323.00,84.00 1334.00,83.04 1334.00,83.04              1334.00,83.04 1348.00,84.00 1348.00,84.00              1348.00,84.00 1367.00,83.04 1367.00,83.04              1378.64,82.59 1386.43,87.35 1396.00,86.96              1404.09,86.63 1405.91,84.05 1411.00,82.46              1413.95,81.54 1431.90,79.90 1435.00,80.09              1446.30,80.79 1446.91,85.22 1466.00,85.00              1466.00,85.00 1477.00,84.32 1477.00,84.32              1477.00,84.32 1491.00,85.00 1491.00,85.00              1491.00,85.00 1514.00,82.09 1514.00,82.09              1514.00,82.09 1526.00,83.14 1526.00,83.14              1526.00,83.14 1546.00,83.14 1546.00,83.14              1555.40,84.51 1556.93,87.24 1568.00,86.99              1573.98,86.85 1575.36,85.66 1579.00,85.39              1579.00,85.39 1592.00,85.91 1592.00,85.91              1597.66,85.50 1599.89,83.78 1604.00,83.21              1604.00,83.21 1637.00,82.00 1637.00,82.00              1637.00,82.00 1662.00,84.00 1662.00,84.00              1662.00,84.00 1674.00,83.39 1674.00,83.39              1678.65,84.20 1684.56,87.94 1697.00,88.00              1697.00,88.00 1721.00,88.00 1721.00,88.00              1721.00,88.00 1768.00,81.00 1768.00,81.00              1768.00,81.00 1780.00,80.04 1780.00,80.04              1780.00,80.04 1794.00,80.04 1794.00,80.04              1794.00,80.04 1817.00,76.84 1817.00,76.84              1820.80,76.90 1822.89,78.90 1831.00,79.00              1831.00,79.00 1849.00,77.34 1849.00,77.34              1849.00,77.34 1856.00,78.70 1856.00,78.70              1856.00,78.70 1876.00,79.85 1876.00,79.85              1876.00,79.85 1893.00,79.85 1893.00,79.85              1900.24,78.68 1906.46,76.09 1914.00,76.00              1929.43,75.82 1926.97,74.92 1941.00,72.46              1941.00,72.46 1952.00,71.70 1952.00,71.70              1952.00,71.70 1961.00,69.37 1961.00,69.37              1961.00,69.37 1976.00,68.32 1976.00,68.32              1983.16,66.67 1990.11,60.53 1999.00,60.58              2007.89,60.62 2007.23,66.82 2017.00,72.09              2022.47,75.03 2044.67,79.30 2051.00,78.91              2051.00,78.91 2061.00,77.17 2061.00,77.17              2061.00,77.17 2077.00,76.45 2077.00,76.45              2077.00,76.45 2092.00,78.00 2092.00,78.00              2092.00,78.00 2123.00,78.00 2123.00,78.00              2123.00,78.00 2155.00,76.32 2155.00,76.32              2155.00,76.32 2170.00,77.17 2170.00,77.17              2175.70,77.78 2176.72,79.24 2184.00,78.96              2184.00,78.96 2196.00,78.02 2196.00,78.02              2196.00,78.02 2210.00,78.79 2210.00,78.79              2210.00,78.79 2234.00,78.79 2234.00,78.79              2237.93,78.68 2239.25,79.96 2247.00,79.92              2247.00,79.92 2262.00,79.92 2262.00,79.92              2262.00,79.92 2276.00,78.00 2276.00,78.00              2276.00,78.00 2292.00,78.00 2292.00,78.00              2304.06,77.98 2305.10,75.12 2315.00,75.00              2315.00,75.00 2345.00,77.39 2345.00,77.39              2349.74,78.41 2352.58,81.34 2362.00,80.96              2368.74,80.69 2369.59,79.10 2375.00,77.63              2375.00,77.63 2391.00,76.19 2391.00,76.19              2398.89,76.42 2402.84,83.84 2417.00,84.00              2428.37,84.13 2426.82,82.61 2434.00,82.00              2434.00,82.00 2443.00,82.00 2443.00,82.00              2443.00,82.00 2451.00,81.08 2451.00,81.08              2451.00,81.08 2464.00,82.00 2464.00,82.00              2464.00,82.00 2482.00,82.00 2482.00,82.00              2482.00,82.00 2501.00,81.00 2501.00,81.00              2501.00,81.00 2526.00,78.98 2526.00,78.98              2526.00,78.98 2537.00,78.98 2537.00,78.98              2542.73,80.01 2544.68,82.63 2555.00,81.91              2555.00,81.91 2566.00,80.08 2566.00,80.08              2566.00,80.08 2576.00,80.08 2576.00,80.08              2586.62,79.87 2589.17,76.67 2594.00,75.96              2594.00,75.96 2606.00,75.96 2606.00,75.96              2606.00,75.96 2627.00,78.83 2627.00,78.83              2634.08,79.51 2639.48,78.30 2647.00,79.96              2656.37,82.03 2652.91,85.20 2670.00,85.00              2678.44,84.90 2680.76,82.73 2685.00,82.49              2685.00,82.49 2698.00,84.67 2698.00,84.67              2698.00,84.67 2711.00,84.67 2711.00,84.67              2731.14,85.79 2731.29,82.59 2749.00,80.29              2749.00,80.29 2769.00,78.83 2769.00,78.83              2773.54,78.34 2776.08,76.84 2781.00,77.18              2781.00,77.18 2792.00,77.92 2792.00,77.92              2792.00,77.92 2805.00,77.92 2805.00,77.92              2805.00,77.92 2826.00,76.00 2826.00,76.00              2835.77,75.95 2840.69,73.67 2845.00,73.47              2845.00,73.47 2864.00,75.00 2864.00,75.00              2864.00,75.00 2888.00,75.00 2888.00,75.00              2899.22,75.05 2896.61,77.43 2911.00,76.75              2911.00,76.75 2929.00,76.75 2929.00,76.75              2929.00,76.75 2949.00,76.00 2949.00,76.00              2949.00,76.00 2963.00,77.09 2963.00,77.09              2963.00,77.09 2974.00,77.09 2974.00,77.09              2974.00,77.09 2984.00,78.95 2984.00,78.95              2984.00,78.95 3000.00,78.95 3000.00,78.95              3000.00,78.95 3012.00,77.95 3012.00,77.95              3012.00,77.95 3021.00,77.95 3021.00,77.95              3021.00,77.95 3037.00,77.95 3037.00,77.95              3037.00,77.95 3048.00,78.96 3048.00,78.96              3048.00,78.96 3072.00,77.00 3072.00,77.00              3072.00,77.00 3093.00,77.00 3093.00,77.00              3102.22,76.89 3103.92,74.38 3109.00,74.14              3109.00,74.14 3130.00,76.99 3130.00,76.99              3130.00,76.99 3151.00,74.26 3151.00,74.26              3151.00,74.26 3176.00,76.00 3176.00,76.00              3176.00,76.00 3191.00,76.00 3191.00,76.00              3191.00,76.00 3207.00,75.00 3207.00,75.00              3207.00,75.00 3234.00,75.00 3234.00,75.00              3234.00,75.00 3249.00,76.00 3249.00,76.00              3262.64,76.16 3261.00,74.51 3270.00,73.88              3270.00,73.88 3281.00,73.88 3281.00,73.88              3281.00,73.88 3293.00,73.09 3293.00,73.09              3293.00,73.09 3300.00,73.96 3300.00,73.96              3300.00,73.96 3313.00,73.96 3313.00,73.96              3313.00,73.96 3326.00,75.00 3326.00,75.00              3326.00,75.00 3349.00,73.01 3349.00,73.01              3349.00,73.01 3358.00,74.04 3358.00,74.04              3358.00,74.04 3369.00,74.04 3369.00,74.04              3373.48,74.60 3375.15,75.10 3380.00,74.99              3380.00,74.99 3398.00,73.04 3398.00,73.04              3398.00,73.04 3409.00,73.04 3409.00,73.04              3409.00,73.04 3419.00,73.99 3419.00,73.99              3419.00,73.99 3437.00,73.00 3437.00,73.00              3437.00,73.00 3450.00,72.00 3450.00,72.00              3450.00,72.00 3470.00,72.00 3470.00,72.00              3470.00,72.00 3493.00,74.00 3493.00,74.00              3493.00,74.00 3515.00,73.00 3515.00,73.00              3515.00,73.00 3535.00,73.00 3535.00,73.00              3535.00,73.00 3553.00,74.00 3553.00,74.00              3553.00,74.00 3575.00,71.00 3575.00,71.00              3575.00,71.00 3598.00,71.82 3598.00,71.82              3598.00,71.82 3619.00,71.82 3619.00,71.82              3619.00,71.82 3631.00,71.82 3631.00,71.82              3631.00,71.82 3644.00,71.82 3644.00,71.82              3644.00,71.82 3654.00,71.82 3654.00,71.82              3659.16,71.90 3661.33,74.99 3671.00,74.99              3681.96,74.99 3684.47,70.55 3694.00,71.09              3694.00,71.09 3714.00,72.97 3714.00,72.97              3714.00,72.97 3722.00,72.04 3722.00,72.04              3722.00,72.04 3731.00,72.04 3731.00,72.04              3731.00,72.04 3742.00,71.00 3742.00,71.00              3753.48,70.95 3750.65,71.94 3759.00,72.91              3759.00,72.91 3770.00,72.91 3770.00,72.91              3770.00,72.91 3783.00,72.00 3783.00,72.00              3783.00,72.00 3803.00,72.00 3803.00,72.00              3803.00,72.00 3820.00,71.00 3820.00,71.00              3820.00,71.00 3834.00,70.08 3834.00,70.08              3834.00,70.08 3847.00,71.00 3847.00,71.00              3847.00,71.00 3861.00,70.21 3861.00,70.21              3861.00,70.21 3867.00,71.04 3867.00,71.04              3867.00,71.04 3877.00,71.04 3877.00,71.04              3884.72,71.92 3885.93,73.10 3895.00,73.00              3904.52,72.89 3906.63,70.04 3914.00,70.03              3919.31,70.02 3923.89,71.63 3929.00,72.54              3929.00,72.54 3937.00,73.44 3937.00,73.44              3950.50,75.57 3945.24,76.18 3961.00,76.00              3971.28,75.88 3977.70,72.26 3982.00,72.27              3982.00,72.27 4001.00,73.32 4001.00,73.32              4007.43,74.37 4007.98,75.90 4016.00,76.00              4016.00,76.00 4036.00,76.00 4036.00,76.00              4036.00,76.00 4053.00,77.00 4053.00,77.00              4058.87,77.01 4064.69,76.19 4070.00,79.06              4080.57,84.77 4085.11,98.39 4102.00,98.96              4113.17,99.33 4120.52,94.64 4129.00,88.11              4133.68,84.51 4139.02,79.29 4145.00,78.22              4148.45,77.60 4159.03,75.92 4162.00,76.17              4172.92,77.09 4174.07,79.98 4186.00,79.96              4186.00,79.96 4195.00,79.96 4195.00,79.96              4195.00,79.96 4212.00,78.25 4212.00,78.25              4216.98,78.78 4219.75,82.38 4230.00,81.96              4237.26,81.67 4239.40,79.41 4244.00,78.38              4244.00,78.38 4272.00,75.00 4272.00,75.00              4272.00,75.00 4276.00,75.00 4276.00,75.00              4283.18,74.91 4285.44,73.47 4292.00,72.44              4292.00,72.44 4304.00,71.83 4304.00,71.83              4311.10,71.12 4311.04,70.01 4320.00,70.00              4320.00,70.00 4327.00,70.00 4327.00,70.00              4327.00,70.00 4353.00,72.00 4353.00,72.00              4353.00,72.00 4359.00,72.00 4359.00,72.00              4368.49,72.13 4366.17,74.92 4383.00,75.00              4383.00,75.00 4397.00,75.91 4397.00,75.91              4397.00,75.91 4408.00,73.84 4408.00,73.84              4412.46,73.76 4413.93,75.98 4424.00,74.41              4424.00,74.41 4451.00,67.28 4451.00,67.28              4456.19,67.22 4458.53,70.80 4468.00,70.98              4468.00,70.98 4490.00,69.00 4490.00,69.00              4490.00,69.00 4511.00,69.00 4511.00,69.00              4521.51,69.02 4520.42,70.46 4527.00,70.91              4527.00,70.91 4538.00,70.37 4538.00,70.37              4538.00,70.37 4559.00,71.85 4559.00,71.85              4559.00,71.85 4569.00,71.85 4569.00,71.85              4569.00,71.85 4581.00,71.85 4581.00,71.85              4588.46,71.91 4588.42,70.78 4594.00,70.17              4594.00,70.17 4633.00,67.00 4633.00,67.00              4633.00,67.00 4646.00,67.88 4646.00,67.88              4646.00,67.88 4661.00,67.88 4661.00,67.88              4661.00,67.88 4671.00,67.88 4671.00,67.88              4671.00,67.88 4684.00,67.88 4684.00,67.88              4690.14,68.08 4691.60,69.01 4697.00,69.94              4697.00,69.94 4706.00,69.94 4706.00,69.94              4713.01,70.92 4711.07,71.98 4721.00,72.00              4721.00,72.00 4739.00,72.00 4739.00,72.00              4739.00,72.00 4761.00,73.91 4761.00,73.91              4761.00,73.91 4769.00,72.45 4769.00,72.45              4782.07,69.84 4798.99,65.02 4812.00,64.96              4812.00,64.96 4826.00,64.96 4826.00,64.96              4826.00,64.96 4834.00,64.08 4834.00,64.08              4834.00,64.08 4843.00,64.96 4843.00,64.96              4843.00,64.96 4876.00,62.83 4876.00,62.83              4876.00,62.83 4887.00,61.04 4887.00,61.04              4887.00,61.04 4898.00,61.78 4898.00,61.78              4898.00,61.78 4907.00,61.78 4907.00,61.78              4907.00,61.78 4924.00,63.72 4924.00,63.72              4924.00,63.72 4948.00,65.00 4948.00,65.00              4948.00,65.00 4978.00,62.00 4978.00,62.00              4978.00,62.00 5002.00,63.00 5002.00,63.00              5002.00,63.00 5038.00,63.00 5038.00,63.00              5038.00,63.00 5064.00,60.00 5064.00,60.00              5064.00,60.00 5093.00,61.99 5093.00,61.99              5093.00,61.99 5108.00,61.00 5108.00,61.00              5108.00,61.00 5129.00,61.00 5129.00,61.00              5129.00,61.00 5142.00,60.10 5142.00,60.10              5142.00,60.10 5175.00,62.00 5175.00,62.00              5175.00,62.00 5193.00,63.00 5193.00,63.00              5193.00,63.00 5208.00,61.37 5208.00,61.37              5208.00,61.37 5219.00,61.96 5219.00,61.96              5219.00,61.96 5231.00,61.00 5231.00,61.00              5231.00,61.00 5252.00,62.00 5252.00,62.00              5252.00,62.00 5273.00,62.00 5273.00,62.00              5273.00,62.00 5290.00,63.00 5290.00,63.00              5290.00,63.00 5312.00,63.00 5312.00,63.00              5312.00,63.00 5328.00,62.00 5328.00,62.00              5328.00,62.00 5347.00,61.00 5347.00,61.00              5347.00,61.00 5376.00,61.00 5376.00,61.00              5376.00,61.00 5394.00,60.00 5394.00,60.00              5394.00,60.00 5407.00,60.91 5407.00,60.91              5407.00,60.91 5421.00,60.91 5421.00,60.91              5426.38,60.25 5426.97,59.01 5434.00,59.01              5434.00,59.01 5450.00,60.72 5450.00,60.72              5450.00,60.72 5472.00,62.00 5472.00,62.00              5472.00,62.00 5488.00,60.18 5488.00,60.18              5488.00,60.18 5515.00,61.00 5515.00,61.00              5525.02,60.88 5527.19,57.65 5535.00,58.09              5535.00,58.09 5555.00,59.00 5555.00,59.00              5555.00,59.00 5579.00,56.72 5579.00,56.72              5579.00,56.72 5593.00,58.00 5593.00,58.00              5593.00,58.00 5632.00,56.00 5632.00,56.00              5632.00,56.00 5648.00,54.55 5648.00,54.55              5648.00,54.55 5657.00,55.71 5657.00,55.71              5657.00,55.71 5670.00,55.71 5670.00,55.71              5670.00,55.71 5683.00,57.91 5683.00,57.91              5683.00,57.91 5705.00,57.91 5705.00,57.91              5705.00,57.91 5727.00,55.87 5727.00,55.87              5727.00,55.87 5739.00,55.87 5739.00,55.87              5739.00,55.87 5751.00,55.05 5751.00,55.05              5751.00,55.05 5770.00,55.05 5770.00,55.05              5770.00,55.05 5783.00,56.00 5783.00,56.00              5783.00,56.00 5810.00,57.00 5810.00,57.00              5810.00,57.00 5830.00,56.00 5830.00,56.00              5830.00,56.00 5840.00,56.96 5840.00,56.96              5840.00,56.96 5856.00,56.96 5856.00,56.96              5856.00,56.96 5882.00,55.04 5882.00,55.04              5882.00,55.04 5895.00,56.00 5895.00,56.00              5895.00,56.00 5915.00,57.00 5915.00,57.00              5915.00,57.00 5940.00,57.00 5940.00,57.00              5940.00,57.00 5969.00,54.00 5969.00,54.00              5969.00,54.00 5996.00,54.00 5996.00,54.00              5996.00,54.00 6006.00,54.95 6006.00,54.95              6006.00,54.95 6021.00,54.95 6021.00,54.95              6021.00,54.95 6033.00,54.10 6033.00,54.10              6033.00,54.10 6043.00,55.57 6043.00,55.57              6043.00,55.57 6062.00,56.99 6062.00,56.99              6062.00,56.99 6093.00,54.00 6093.00,54.00              6093.00,54.00 6097.00,54.00 6097.00,54.00              6097.00,54.00 6113.00,52.58 6113.00,52.58              6117.03,52.68 6118.25,53.99 6127.00,53.91              6127.00,53.91 6139.00,53.91 6139.00,53.91              6146.71,53.00 6144.57,52.05 6155.00,52.00              6155.00,52.00 6185.00,50.18 6185.00,50.18              6185.00,50.18 6196.00,51.00 6196.00,51.00              6196.00,51.00 6217.00,51.00 6217.00,51.00              6217.00,51.00 6233.00,52.00 6233.00,52.00              6233.00,52.00 6257.00,52.00 6257.00,52.00              6257.00,52.00 6266.00,51.34 6266.00,51.34              6266.00,51.34 6283.00,53.90 6283.00,53.90              6283.00,53.90 6292.00,53.90 6292.00,53.90              6292.00,53.90 6310.00,55.60 6310.00,55.60              6310.00,55.60 6323.00,55.60 6323.00,55.60              6323.00,55.60 6335.00,58.84 6335.00,58.84              6340.94,60.40 6341.54,59.59 6346.00,60.32              6353.36,61.54 6352.49,62.95 6362.00,63.00              6362.00,63.00 6377.00,63.00 6377.00,63.00              6377.00,63.00 6403.00,65.00 6403.00,65.00              6403.00,65.00 6444.00,65.00 6444.00,65.00              6444.00,65.00 6463.00,66.00 6463.00,66.00              6463.00,66.00 6475.00,65.39 6475.00,65.39              6478.85,65.67 6481.10,67.24 6487.00,66.91              6487.00,66.91 6518.00,64.00 6518.00,64.00              6518.00,64.00 6529.00,64.00 6529.00,64.00              6529.00,64.00 6540.00,63.39 6540.00,63.39              6545.87,63.82 6543.88,65.14 6556.00,65.00              6556.00,65.00 6566.00,64.04 6566.00,64.04              6566.00,64.04 6577.00,64.04 6577.00,64.04              6577.00,64.04 6594.00,63.00 6594.00,63.00              6594.00,63.00 6606.00,63.97 6606.00,63.97              6606.00,63.97 6618.00,63.04 6618.00,63.04              6618.00,63.04 6631.00,64.00 6631.00,64.00              6631.00,64.00 6653.00,65.00 6653.00,65.00              6653.00,65.00 6683.00,67.00 6683.00,67.00              6683.00,67.00 6715.00,64.71 6715.00,64.71              6715.00,64.71 6727.00,62.75 6727.00,62.75              6727.00,62.75 6741.00,63.96 6741.00,63.96              6741.00,63.96 6760.00,63.96 6760.00,63.96              6773.19,63.98 6777.14,60.41 6786.00,59.21              6786.00,59.21 6804.00,60.00 6804.00,60.00              6804.00,60.00 6824.00,61.00 6824.00,61.00              6824.00,61.00 6843.00,59.49 6843.00,59.49              6847.79,59.60 6848.48,61.98 6860.00,62.00              6860.00,62.00 6908.00,62.00 6908.00,62.00              6908.00,62.00 6933.00,64.00 6933.00,64.00              6941.02,63.90 6941.57,62.37 6948.00,61.16              6948.00,61.16 6959.00,61.16 6959.00,61.16              6959.00,61.16 6981.00,59.14 6981.00,59.14              6981.00,59.14 6998.00,62.86 6998.00,62.86              6998.00,62.86 7022.00,62.86 7022.00,62.86              7034.35,63.15 7054.60,67.22 7066.00,71.92              7066.00,71.92 7083.00,80.45 7083.00,80.45              7088.24,82.30 7096.12,82.23 7102.00,83.19              7111.63,84.78 7107.83,86.15 7121.00,86.00              7129.34,85.90 7129.90,84.29 7134.00,83.89              7134.00,83.89 7144.00,84.96 7144.00,84.96              7153.51,85.34 7157.68,82.12 7164.00,81.21              7164.00,81.21 7176.00,79.87 7176.00,79.87              7176.00,79.87 7186.00,78.17 7186.00,78.17              7186.00,78.17 7202.00,76.84 7202.00,76.84              7209.01,75.91 7211.45,73.50 7216.00,72.82              7216.00,72.82 7230.00,72.82 7230.00,72.82              7235.92,72.99 7245.99,71.01 7251.00,72.82              7255.01,74.05 7259.10,78.21 7263.00,80.52              7268.30,83.66 7272.99,84.12 7279.00,83.99              7286.19,83.82 7286.45,82.46 7292.00,81.37              7292.00,81.37 7315.00,79.32 7315.00,79.32              7315.00,79.32 7323.00,80.10 7323.00,80.10              7323.00,80.10 7335.00,80.10 7335.00,80.10              7340.04,80.91 7341.36,82.83 7349.00,82.98              7349.00,82.98 7367.00,81.00 7367.00,81.00              7374.37,80.92 7381.75,80.88 7389.00,79.33              7402.15,76.52 7396.33,74.63 7414.00,73.71              7414.00,73.71 7421.00,73.71 7421.00,73.71              7421.00,73.71 7440.00,72.83 7440.00,72.83              7440.00,72.83 7469.00,66.48 7469.00,66.48              7469.00,66.48 7479.00,66.99 7479.00,66.99              7479.00,66.99 7503.00,63.94 7503.00,63.94              7503.00,63.94 7511.00,63.94 7511.00,63.94              7511.00,63.94 7522.00,62.04 7522.00,62.04              7522.00,62.04 7541.00,62.04 7541.00,62.04              7552.21,61.98 7549.77,60.67 7558.00,59.32              7558.00,59.32 7583.00,57.91 7583.00,57.91              7583.00,57.91 7598.00,56.19 7598.00,56.19              7601.48,56.29 7604.68,58.11 7608.00,59.09              7614.52,61.00 7624.44,63.92 7631.00,64.00              7631.00,64.00 7655.00,61.74 7655.00,61.74              7655.00,61.74 7675.00,63.00 7675.00,63.00              7675.00,63.00 7694.00,63.00 7694.00,63.00              7694.00,63.00 7731.00,60.21 7731.00,60.21              7731.00,60.21 7744.00,61.00 7744.00,61.00              7744.00,61.00 7778.00,60.00 7778.00,60.00              7778.00,60.00 7797.00,61.96 7797.00,61.96              7797.00,61.96 7818.00,58.60 7818.00,58.60              7818.00,58.60 7832.00,60.91 7832.00,60.91              7832.00,60.91 7843.00,60.91 7843.00,60.91              7843.00,60.91 7863.00,59.09 7863.00,59.09              7863.00,59.09 7880.00,61.00 7880.00,61.00              7880.00,61.00 7889.00,61.00 7889.00,61.00              7904.24,62.63 7897.96,65.23 7918.00,65.00              7925.45,64.91 7925.46,63.76 7931.00,63.09              7931.00,63.09 7945.00,63.09 7945.00,63.09              7949.94,63.01 7957.27,63.65 7962.00,64.93              7967.47,66.41 7969.43,68.43 7976.00,68.91              7987.83,69.78 7990.53,66.67 7998.00,67.09              8004.65,67.47 8008.89,68.59 8016.00,67.71              8016.00,67.71 8036.00,63.89 8036.00,63.89              8036.00,63.89 8052.00,63.89 8052.00,63.89              8052.00,63.89 8063.00,67.56 8063.00,67.56              8063.00,67.56 8072.00,70.00 8072.00,70.00              8072.00,70.00 8088.00,81.26 8088.00,81.26              8094.91,85.82 8100.75,86.52 8105.44,94.00              8110.36,101.86 8105.80,106.43 8110.40,116.00              8113.29,122.01 8117.27,124.64 8119.10,127.42              8119.10,127.42 8122.91,137.00 8122.91,137.00              8122.91,137.00 8129.27,147.00 8129.27,147.00              8131.08,151.76 8130.64,159.07 8131.17,164.00              8131.86,170.29 8134.40,172.86 8134.90,178.00              8134.90,178.00 8134.04,200.00 8134.04,200.00              8134.04,200.00 8135.61,210.00 8135.61,210.00              8135.61,210.00 8135.04,222.00 8135.04,222.00              8135.04,222.00 8137.68,250.00 8137.68,250.00              8137.68,250.00 8137.00,258.00 8137.00,258.00              8137.00,258.00 8136.00,284.00 8136.00,284.00              8136.00,284.00 8135.04,299.00 8135.04,299.00              8135.04,299.00 8136.47,317.00 8136.47,317.00              8136.47,317.00 8138.89,326.00 8138.89,326.00              8138.89,326.00 8138.89,341.00 8138.89,341.00              8138.89,341.00 8137.04,356.00 8137.04,356.00              8137.04,356.00 8137.90,368.00 8137.90,368.00              8137.90,368.00 8137.04,375.00 8137.04,375.00              8137.04,375.00 8137.04,387.00 8137.04,387.00              8137.04,387.00 8136.04,401.00 8136.04,401.00              8136.04,401.00 8137.54,418.00 8137.54,418.00              8137.54,418.00 8136.04,429.00 8136.04,429.00              8136.04,429.00 8136.82,442.00 8136.82,442.00              8136.31,447.36 8134.74,448.61 8135.04,456.00              8135.31,462.74 8137.67,465.23 8137.96,471.00              8137.96,471.00 8137.04,486.00 8137.04,486.00              8137.04,486.00 8139.37,499.00 8139.37,499.00              8139.37,499.00 8137.04,533.00 8137.04,533.00              8137.04,533.00 8137.04,545.00 8137.04,545.00              8137.35,548.87 8138.15,550.71 8137.91,555.00              8137.91,555.00 8136.90,566.00 8136.90,566.00              8136.31,572.05 8133.54,574.35 8134.09,583.00              8134.09,583.00 8137.29,625.00 8137.29,625.00              8137.29,625.00 8140.53,643.00 8140.53,643.00              8140.53,643.00 8139.04,665.00 8139.04,665.00              8139.04,665.00 8139.68,676.00 8139.68,676.00              8139.44,679.17 8138.89,680.41 8139.09,684.00              8139.09,684.00 8140.00,696.00 8140.00,696.00              8140.00,696.00 8140.00,702.00 8140.00,702.00              8140.00,702.00 8140.82,715.00 8140.82,715.00              8140.82,715.00 8139.30,723.00 8139.30,723.00              8139.30,723.00 8138.01,740.00 8138.01,740.00              8138.01,740.00 8139.96,758.00 8139.96,758.00              8139.96,758.00 8139.96,769.00 8139.96,769.00              8139.96,769.00 8139.04,780.00 8139.04,780.00              8139.04,780.00 8140.00,793.00 8140.00,793.00              8140.00,793.00 8140.00,817.00 8140.00,817.00              8140.00,817.00 8139.09,832.00 8139.09,832.00              8139.09,832.00 8140.00,842.00 8140.00,842.00              8140.00,842.00 8140.00,923.00 8140.00,923.00              8140.00,923.00 8140.97,935.00 8140.97,935.00              8140.97,935.00 8140.04,944.00 8140.04,944.00              8140.04,944.00 8140.04,956.00 8140.04,956.00              8140.04,956.00 8141.97,979.00 8141.97,979.00              8141.97,979.00 8141.00,996.00 8141.00,996.00              8141.00,996.00 8140.04,1011.00 8140.04,1011.00              8140.04,1011.00 8140.96,1019.00 8140.96,1019.00              8140.96,1019.00 8140.96,1031.00 8140.96,1031.00              8140.96,1031.00 8141.91,1044.00 8141.91,1044.00              8141.64,1048.79 8140.79,1050.12 8141.04,1056.00              8141.04,1056.00 8141.82,1066.00 8141.82,1066.00              8141.82,1066.00 8141.25,1083.00 8141.25,1083.00              8141.25,1083.00 8141.25,1093.00 8141.25,1093.00              8141.25,1093.00 8140.00,1114.00 8140.00,1114.00              8140.00,1114.00 8141.13,1132.00 8141.13,1132.00              8141.13,1132.00 8141.13,1152.00 8141.13,1152.00              8141.13,1152.00 8141.13,1163.00 8141.13,1163.00              8141.13,1163.00 8140.00,1182.00 8140.00,1182.00              8140.00,1182.00 8140.66,1197.00 8140.66,1197.00              8140.66,1197.00 8140.00,1213.00 8140.00,1213.00              8140.00,1213.00 8142.00,1236.00 8142.00,1236.00              8142.00,1236.00 8142.00,1252.00 8142.00,1252.00              8142.00,1252.00 8141.04,1263.00 8141.04,1263.00              8141.04,1263.00 8142.00,1279.00 8142.00,1279.00              8142.00,1279.00 8142.00,1304.00 8142.00,1304.00              8142.00,1304.00 8143.74,1323.00 8143.74,1323.00              8143.74,1323.00 8142.00,1339.00 8142.00,1339.00              8142.00,1339.00 8141.00,1365.00 8141.00,1365.00              8141.00,1365.00 8141.79,1378.00 8141.79,1378.00              8141.79,1378.00 8140.03,1394.00 8140.03,1394.00              8140.03,1394.00 8140.91,1403.00 8140.91,1403.00              8140.91,1403.00 8142.54,1435.00 8142.54,1435.00              8142.54,1435.00 8141.00,1448.00 8141.00,1448.00              8141.00,1448.00 8142.00,1472.00 8142.00,1472.00              8142.00,1472.00 8142.00,1518.00 8142.00,1518.00              8142.00,1518.00 8142.92,1531.00 8142.92,1531.00              8142.92,1531.00 8142.03,1541.00 8142.03,1541.00              8142.03,1541.00 8143.00,1553.00 8143.00,1553.00              8143.00,1553.00 8143.00,1572.00 8143.00,1572.00              8143.00,1572.00 8143.00,1606.00 8143.00,1606.00              8143.00,1606.00 8142.04,1622.00 8142.04,1622.00              8142.04,1622.00 8143.22,1642.00 8143.22,1642.00              8143.22,1642.00 8143.22,1653.00 8143.22,1653.00              8143.22,1653.00 8143.99,1664.00 8143.99,1664.00              8143.99,1664.00 8142.86,1679.00 8142.86,1679.00              8142.86,1679.00 8142.86,1691.00 8142.86,1691.00              8142.86,1691.00 8141.03,1704.00 8141.03,1704.00              8141.03,1704.00 8143.00,1722.00 8143.00,1722.00              8143.00,1722.00 8143.00,1736.00 8143.00,1736.00              8143.00,1736.00 8142.00,1746.00 8142.00,1746.00              8142.00,1746.00 8142.00,1755.00 8142.00,1755.00              8142.00,1755.00 8141.00,1770.00 8141.00,1770.00              8141.00,1770.00 8143.91,1806.00 8143.91,1806.00              8143.46,1813.29 8141.84,1810.65 8142.00,1825.00              8142.00,1825.00 8143.00,1840.00 8143.00,1840.00              8143.00,1840.00 8142.00,1864.00 8142.00,1864.00              8142.00,1864.00 8142.00,1910.00 8142.00,1910.00              8141.81,1925.71 8136.68,1924.28 8137.01,1939.00              8137.01,1939.00 8141.17,1965.00 8141.17,1965.00              8141.17,1965.00 8141.17,1976.00 8141.17,1976.00              8141.31,1979.47 8142.08,1981.30 8141.82,1985.00              8141.82,1985.00 8140.18,2001.00 8140.18,2001.00              8140.18,2001.00 8140.18,2013.00 8140.18,2013.00              8140.18,2013.00 8140.18,2024.00 8140.18,2024.00              8140.18,2024.00 8142.15,2038.00 8142.15,2038.00              8142.15,2038.00 8142.15,2050.00 8142.15,2050.00              8142.15,2050.00 8142.15,2066.00 8142.15,2066.00              8142.15,2066.00 8143.00,2087.00 8143.00,2087.00              8142.98,2099.09 8139.81,2099.44 8140.02,2110.00              8140.02,2110.00 8142.46,2133.00 8142.46,2133.00              8142.46,2133.00 8144.09,2142.00 8144.09,2142.00              8144.09,2142.00 8144.09,2151.00 8144.09,2151.00              8144.09,2151.00 8144.09,2165.00 8144.09,2165.00              8144.09,2165.00 8142.96,2176.00 8142.96,2176.00              8142.96,2176.00 8142.96,2190.00 8142.96,2190.00              8142.96,2190.00 8142.04,2201.00 8142.04,2201.00              8142.04,2201.00 8142.98,2210.00 8142.98,2210.00              8142.98,2210.00 8142.98,2229.00 8142.98,2229.00              8142.98,2229.00 8143.66,2240.00 8143.66,2240.00              8143.66,2240.00 8143.02,2249.00 8143.02,2249.00              8143.02,2249.00 8143.02,2267.00 8143.02,2267.00              8143.02,2267.00 8143.68,2276.00 8143.68,2276.00              8143.44,2279.17 8142.89,2280.41 8143.09,2284.00              8143.09,2284.00 8143.82,2291.00 8143.82,2291.00              8143.82,2291.00 8142.04,2303.00 8142.04,2303.00              8142.04,2303.00 8142.96,2314.00 8142.96,2314.00              8143.14,2318.56 8142.56,2319.90 8142.04,2324.00              8142.04,2324.00 8142.04,2334.00 8142.04,2334.00              8142.04,2334.00 8141.04,2346.00 8141.04,2346.00              8141.04,2346.00 8141.04,2358.00 8141.04,2358.00              8141.04,2358.00 8141.90,2367.00 8141.90,2367.00              8141.64,2372.30 8139.73,2374.26 8140.04,2382.00              8140.23,2386.77 8142.16,2391.21 8141.82,2396.00              8141.54,2399.95 8140.85,2401.40 8141.04,2406.00              8141.30,2412.42 8142.96,2412.95 8143.00,2422.00              8143.00,2422.00 8144.00,2457.00 8144.00,2457.00              8144.00,2457.00 8143.01,2470.00 8143.01,2470.00              8143.01,2470.00 8144.00,2483.00 8144.00,2483.00              8144.00,2483.00 8144.00,2500.00 8144.00,2500.00              8144.00,2500.00 8143.15,2518.00 8143.15,2518.00              8143.15,2518.00 8143.15,2526.00 8143.15,2526.00              8143.15,2526.00 8143.91,2537.00 8143.91,2537.00              8143.91,2537.00 8142.09,2550.00 8142.09,2550.00              8142.09,2550.00 8142.09,2564.00 8142.09,2564.00              8142.09,2564.00 8143.00,2577.00 8143.00,2577.00              8143.00,2577.00 8142.04,2590.00 8142.04,2590.00              8142.04,2590.00 8144.00,2610.00 8144.00,2610.00              8144.00,2610.00 8144.00,2624.00 8144.00,2624.00              8144.00,2624.00 8143.00,2640.00 8143.00,2640.00              8143.00,2640.00 8144.79,2660.00 8144.79,2660.00              8144.79,2660.00 8144.02,2669.00 8144.02,2669.00              8144.02,2669.00 8144.02,2680.00 8144.02,2680.00              8144.02,2680.00 8143.01,2695.00 8143.01,2695.00              8143.01,2695.00 8144.00,2708.00 8144.00,2708.00              8144.00,2708.00 8144.00,2735.00 8144.00,2735.00              8144.00,2735.00 8143.00,2750.00 8143.00,2750.00              8143.00,2750.00 8143.00,2764.00 8143.00,2764.00              8143.00,2764.00 8142.00,2781.00 8142.00,2781.00              8142.00,2781.00 8143.04,2791.00 8143.04,2791.00              8143.04,2791.00 8143.04,2798.00 8143.04,2798.00              8143.04,2798.00 8144.14,2806.00 8144.14,2806.00              8144.14,2806.00 8144.14,2816.00 8144.14,2816.00              8144.14,2816.00 8144.14,2855.00 8144.14,2855.00              8144.14,2855.00 8145.40,2870.00 8145.40,2870.00              8145.40,2870.00 8143.00,2895.00 8143.00,2895.00              8143.00,2895.00 8143.00,2912.00 8143.00,2912.00              8143.00,2912.00 8142.00,2926.00 8142.00,2926.00              8141.91,2934.26 8142.86,2934.62 8143.27,2941.00              8143.27,2941.00 8143.27,2952.00 8143.27,2952.00              8143.27,2952.00 8144.54,2961.00 8144.54,2961.00              8144.54,2961.00 8141.01,2990.00 8141.01,2990.00              8141.26,3000.79 8144.98,2999.64 8145.00,3013.00              8145.00,3013.00 8145.00,3051.00 8145.00,3051.00              8145.01,3059.76 8146.12,3060.69 8146.92,3068.00              8146.92,3068.00 8146.92,3082.00 8146.92,3082.00              8146.92,3082.00 8147.99,3095.00 8147.99,3095.00              8147.99,3095.00 8147.04,3105.00 8147.04,3105.00              8147.04,3105.00 8147.04,3119.00 8147.04,3119.00              8147.04,3119.00 8147.95,3131.00 8147.95,3131.00              8147.95,3131.00 8147.95,3150.00 8147.95,3150.00              8147.95,3150.00 8147.00,3169.00 8147.00,3169.00              8147.00,3169.00 8147.98,3183.00 8147.98,3183.00              8147.98,3183.00 8146.71,3202.00 8146.71,3202.00              8145.72,3209.62 8144.90,3209.16 8145.00,3218.00              8145.09,3225.52 8146.65,3226.98 8146.90,3232.00              8146.90,3232.00 8146.04,3241.00 8146.04,3241.00              8146.04,3241.00 8146.04,3254.00 8146.04,3254.00              8146.04,3254.00 8147.82,3279.00 8147.82,3279.00              8147.82,3279.00 8147.00,3303.00 8147.00,3303.00              8147.00,3303.00 8148.66,3320.00 8148.66,3320.00              8148.66,3320.00 8148.09,3326.00 8148.09,3326.00              8148.09,3326.00 8148.91,3339.00 8148.91,3339.00              8148.91,3339.00 8148.91,3352.00 8148.91,3352.00              8148.91,3352.00 8147.00,3371.00 8147.00,3371.00              8147.00,3371.00 8147.95,3383.00 8147.95,3383.00              8147.95,3383.00 8147.95,3397.00 8147.95,3397.00              8147.95,3397.00 8147.01,3409.00 8147.01,3409.00              8147.01,3409.00 8148.00,3427.00 8148.00,3427.00              8148.00,3427.00 8147.00,3478.00 8147.00,3478.00              8146.72,3502.76 8150.22,3494.10 8150.00,3513.00              8150.00,3513.00 8147.04,3539.00 8147.04,3539.00              8147.04,3539.00 8148.00,3553.00 8148.00,3553.00              8148.00,3553.00 8147.00,3569.00 8147.00,3569.00              8147.00,3569.00 8147.00,3596.00 8147.00,3596.00              8147.00,3596.00 8147.79,3609.00 8147.79,3609.00              8147.79,3609.00 8146.00,3628.00 8146.00,3628.00              8146.00,3628.00 8147.00,3656.00 8147.00,3656.00              8147.00,3656.00 8146.09,3669.00 8146.09,3669.00              8146.09,3669.00 8149.66,3700.00 8149.66,3700.00              8149.66,3700.00 8148.01,3712.00 8148.01,3712.00              8148.01,3712.00 8148.96,3725.00 8148.96,3725.00              8148.96,3725.00 8148.96,3738.00 8148.96,3738.00              8148.98,3752.91 8144.73,3755.70 8145.04,3765.00              8145.33,3773.51 8149.21,3776.89 8149.81,3784.00              8149.81,3784.00 8149.00,3797.00 8149.00,3797.00              8149.00,3797.00 8148.00,3826.00 8148.00,3826.00              8148.00,3826.00 8147.09,3840.00 8147.09,3840.00              8147.55,3847.93 8149.98,3849.95 8150.00,3861.00              8150.00,3861.00 8149.02,3909.00 8149.02,3909.00              8149.02,3909.00 8149.02,3924.00 8149.02,3924.00              8149.02,3924.00 8149.82,3932.00 8149.82,3932.00              8149.82,3932.00 8149.04,3942.00 8149.04,3942.00              8149.04,3942.00 8150.00,3953.00 8150.00,3953.00              8150.00,3953.00 8148.04,3980.00 8148.04,3980.00              8148.04,3980.00 8149.84,3995.00 8149.84,3995.00              8149.84,3995.00 8149.84,4028.00 8149.84,4028.00              8149.84,4028.00 8149.31,4039.00 8149.31,4039.00              8149.31,4039.00 8149.31,4048.00 8149.31,4048.00              8149.31,4048.00 8149.31,4073.00 8149.31,4073.00              8149.31,4073.00 8149.31,4093.00 8149.31,4093.00              8149.31,4093.00 8148.04,4109.00 8148.04,4109.00              8148.04,4109.00 8148.04,4125.00 8148.04,4125.00              8148.04,4125.00 8148.92,4133.00 8148.92,4133.00              8148.92,4133.00 8148.02,4145.00 8148.02,4145.00              8148.02,4145.00 8150.00,4169.00 8150.00,4169.00              8150.00,4169.00 8149.03,4181.00 8149.03,4181.00              8149.03,4181.00 8149.90,4192.00 8149.90,4192.00              8149.90,4192.00 8149.04,4202.00 8149.04,4202.00              8149.25,4208.20 8151.39,4211.68 8151.80,4216.00              8151.80,4216.00 8151.00,4237.00 8151.00,4237.00              8151.00,4237.00 8149.15,4256.00 8149.15,4256.00              8149.15,4256.00 8149.15,4267.00 8149.15,4267.00              8149.15,4267.00 8150.90,4276.00 8150.90,4276.00              8150.90,4276.00 8150.04,4289.00 8150.04,4289.00              8150.04,4289.00 8150.96,4301.00 8150.96,4301.00              8150.96,4301.00 8150.22,4314.00 8150.22,4314.00              8150.22,4314.00 8150.22,4350.00 8150.22,4350.00              8150.22,4350.00 8150.22,4360.00 8150.22,4360.00              8150.22,4360.00 8150.22,4383.00 8150.22,4383.00              8150.22,4383.00 8150.22,4400.00 8150.22,4400.00              8150.22,4400.00 8150.82,4413.00 8150.82,4413.00              8150.82,4413.00 8150.01,4422.00 8150.01,4422.00              8150.01,4422.00 8150.95,4432.00 8150.95,4432.00              8150.95,4432.00 8150.95,4448.00 8150.95,4448.00              8150.86,4458.20 8147.84,4455.50 8148.00,4470.00              8148.09,4477.45 8149.22,4477.43 8149.83,4483.00              8149.83,4483.00 8152.00,4512.00 8152.00,4512.00              8152.00,4512.00 8152.00,4542.00 8152.00,4542.00              8152.00,4542.00 8152.90,4554.00 8152.90,4554.00              8152.62,4559.77 8151.02,4559.72 8151.09,4570.00              8151.09,4570.00 8151.09,4580.00 8151.09,4580.00              8151.09,4580.00 8152.61,4588.00 8152.61,4588.00              8152.61,4588.00 8152.09,4598.00 8152.09,4598.00              8152.09,4598.00 8153.00,4618.00 8153.00,4618.00              8153.00,4618.00 8151.62,4643.00 8151.62,4643.00              8150.47,4648.83 8147.61,4652.21 8148.09,4660.00              8148.38,4664.73 8150.22,4668.46 8151.18,4673.00              8151.18,4673.00 8153.12,4692.00 8153.12,4692.00              8153.12,4692.00 8153.12,4706.00 8153.12,4706.00              8152.68,4711.60 8150.78,4717.56 8151.09,4723.00              8151.09,4723.00 8151.82,4730.00 8151.82,4730.00              8151.82,4730.00 8151.09,4740.00 8151.09,4740.00              8151.09,4740.00 8151.74,4746.00 8151.74,4746.00              8151.74,4746.00 8150.05,4757.00 8150.05,4757.00              8150.05,4757.00 8150.05,4774.00 8150.05,4774.00              8150.05,4774.00 8152.68,4798.00 8152.68,4798.00              8152.68,4798.00 8150.00,4839.00 8150.00,4839.00              8150.00,4839.00 8151.82,4858.00 8151.82,4858.00              8151.82,4858.00 8149.30,4875.00 8149.30,4875.00              8147.80,4879.64 8143.59,4882.87 8144.04,4894.00              8144.38,4902.53 8150.24,4915.71 8150.75,4921.00              8150.75,4921.00 8148.09,4947.00 8148.09,4947.00              8148.50,4953.68 8151.38,4956.57 8150.78,4962.00              8149.77,4971.03 8148.23,4964.02 8148.00,4984.00              8148.00,4984.00 8145.00,5008.00 8145.00,5008.00              8144.83,5023.57 8148.43,5022.09 8149.73,5029.00              8149.73,5029.00 8149.04,5044.00 8149.04,5044.00              8149.31,5054.89 8146.66,5055.43 8146.94,5063.00              8147.78,5075.08 8148.95,5073.25 8146.94,5087.00              8145.81,5093.27 8141.59,5095.81 8142.04,5107.00              8142.33,5114.27 8144.73,5116.81 8145.61,5121.00              8145.61,5121.00 8146.47,5132.00 8146.47,5132.00              8146.47,5132.00 8149.31,5144.00 8149.31,5144.00              8149.31,5144.00 8149.31,5153.00 8149.31,5153.00              8149.31,5153.00 8149.96,5161.00 8149.96,5161.00              8149.96,5161.00 8148.79,5177.00 8148.79,5177.00              8148.10,5181.89 8145.66,5184.94 8146.09,5192.00              8146.09,5192.00 8147.74,5203.00 8147.74,5203.00              8147.74,5203.00 8146.70,5216.00 8146.70,5216.00              8146.70,5216.00 8145.04,5226.00 8145.04,5226.00              8144.82,5232.61 8146.85,5236.04 8147.85,5242.00              8147.85,5242.00 8147.85,5262.00 8147.85,5262.00              8147.85,5262.00 8145.17,5289.00 8145.17,5289.00              8145.17,5289.00 8143.80,5308.00 8143.80,5308.00              8143.13,5312.38 8141.50,5314.39 8141.09,5320.00              8140.20,5332.10 8144.55,5334.98 8144.28,5340.00              8144.28,5340.00 8142.30,5349.00 8142.30,5349.00              8142.30,5349.00 8141.09,5369.00 8141.09,5369.00              8141.09,5369.00 8144.16,5392.00 8144.16,5392.00              8144.12,5393.64 8140.34,5405.73 8140.04,5415.00              8140.04,5415.00 8141.68,5432.00 8141.68,5432.00              8141.68,5432.00 8144.04,5440.00 8144.04,5440.00              8144.04,5440.00 8144.04,5451.00 8144.04,5451.00              8144.04,5451.00 8145.68,5468.00 8145.68,5468.00              8144.44,5484.31 8133.89,5494.03 8133.09,5507.00              8132.51,5516.44 8136.87,5520.57 8138.30,5525.00              8139.28,5528.01 8140.68,5544.76 8139.74,5547.83              8138.76,5551.03 8134.13,5554.72 8131.79,5558.00              8131.79,5558.00 8121.04,5576.68 8121.04,5576.68              8118.41,5580.04 8114.26,5581.72 8109.79,5588.00              8105.79,5593.61 8106.59,5595.39 8104.61,5600.00              8103.51,5602.59 8094.81,5617.80 8093.00,5619.75              8089.97,5623.00 8085.75,5623.24 8082.00,5625.48              8077.09,5628.41 8075.48,5631.16 8072.72,5633.19              8072.72,5633.19 8063.00,5638.79 8063.00,5638.79              8057.04,5643.07 8055.73,5646.88 8052.68,5648.86              8050.64,5650.19 8046.58,5650.89 8044.00,5651.93              8040.93,5653.16 8029.60,5659.52 8027.00,5661.53              8018.68,5667.94 8017.50,5673.58 8013.79,5675.69              8009.95,5677.87 8003.65,5676.40 7998.00,5677.47              7990.63,5678.86 7988.40,5682.23 7984.00,5683.49              7981.02,5684.35 7969.86,5683.96 7966.00,5684.00              7954.95,5684.13 7946.02,5691.54 7935.00,5692.34              7935.00,5692.34 7916.00,5691.00 7916.00,5691.00              7916.00,5691.00 7883.00,5692.00 7883.00,5692.00              7871.33,5691.98 7870.14,5689.40 7862.00,5689.04              7853.42,5688.65 7853.38,5689.65 7846.00,5690.70              7846.00,5690.70 7828.00,5692.00 7828.00,5692.00              7828.00,5692.00 7808.00,5691.04 7808.00,5691.04              7799.40,5691.39 7791.63,5696.57 7780.00,5695.91              7780.00,5695.91 7773.00,5695.04 7773.00,5695.04              7773.00,5695.04 7759.00,5695.04 7759.00,5695.04              7759.00,5695.04 7743.00,5695.96 7743.00,5695.96              7735.34,5695.65 7737.32,5693.84 7723.00,5694.00              7723.00,5694.00 7713.00,5694.82 7713.00,5694.82              7713.00,5694.82 7700.00,5694.00 7700.00,5694.00              7700.00,5694.00 7678.00,5696.26 7678.00,5696.26              7678.00,5696.26 7668.00,5695.15 7668.00,5695.15              7668.00,5695.15 7659.00,5695.15 7659.00,5695.15              7655.08,5695.03 7653.53,5693.78 7647.00,5694.04              7647.00,5694.04 7635.00,5695.82 7635.00,5695.82              7635.00,5695.82 7623.00,5695.00 7623.00,5695.00              7623.00,5695.00 7610.00,5695.82 7610.00,5695.82              7610.00,5695.82 7599.00,5695.04 7599.00,5695.04              7592.81,5695.29 7589.60,5697.25 7586.00,5697.59              7586.00,5697.59 7576.00,5697.04 7576.00,5697.04              7576.00,5697.04 7568.00,5697.82 7568.00,5697.82              7568.00,5697.82 7543.00,5694.94 7543.00,5694.94              7543.00,5694.94 7535.00,5694.94 7535.00,5694.94              7529.49,5693.92 7529.79,5693.08 7523.00,5693.00              7523.00,5693.00 7513.00,5693.00 7513.00,5693.00              7506.76,5692.92 7502.54,5691.46 7496.00,5692.17              7496.00,5692.17 7485.00,5694.61 7485.00,5694.61              7485.00,5694.61 7474.00,5692.30 7474.00,5692.30              7474.00,5692.30 7443.00,5690.00 7443.00,5690.00              7443.00,5690.00 7410.00,5690.68 7410.00,5690.68              7410.00,5690.68 7376.00,5690.00 7376.00,5690.00              7376.00,5690.00 7357.00,5689.00 7357.00,5689.00              7343.66,5688.84 7338.26,5682.54 7326.00,5683.04              7312.88,5683.57 7305.44,5690.20 7301.00,5691.49              7301.00,5691.49 7282.00,5693.68 7282.00,5693.68              7282.00,5693.68 7273.00,5693.04 7273.00,5693.04              7273.00,5693.04 7251.00,5694.66 7251.00,5694.66              7251.00,5694.66 7234.00,5690.47 7234.00,5690.47              7234.00,5690.47 7213.00,5689.00 7213.00,5689.00              7200.71,5689.15 7199.72,5693.70 7192.00,5693.94              7185.13,5694.16 7183.58,5690.81 7167.00,5691.00              7167.00,5691.00 7151.00,5692.82 7151.00,5692.82              7151.00,5692.82 7127.00,5692.00 7127.00,5692.00              7127.00,5692.00 7110.00,5693.00 7110.00,5693.00              7110.00,5693.00 7096.00,5693.00 7096.00,5693.00              7096.00,5693.00 7080.00,5692.00 7080.00,5692.00              7080.00,5692.00 7059.00,5692.00 7059.00,5692.00              7048.43,5691.98 7050.77,5690.46 7043.00,5689.30              7043.00,5689.30 7035.00,5688.49 7035.00,5688.49              7029.55,5687.37 7027.14,5685.74 7021.00,5686.09              7021.00,5686.09 6996.00,5688.30 6996.00,5688.30              6996.00,5688.30 6988.00,5690.00 6988.00,5690.00              6988.00,5690.00 6977.00,5690.00 6977.00,5690.00              6977.00,5690.00 6966.00,5693.05 6966.00,5693.05              6966.00,5693.05 6948.00,5693.05 6948.00,5693.05              6943.70,5693.01 6936.29,5694.23 6933.00,5693.05              6925.62,5691.42 6919.61,5686.68 6911.00,5686.09              6903.04,5685.54 6901.14,5687.80 6895.00,5688.92              6882.55,5690.86 6884.52,5689.45 6874.00,5688.92              6874.00,5688.92 6853.00,5691.00 6853.00,5691.00              6853.00,5691.00 6809.00,5692.00 6809.00,5692.00              6797.60,5692.02 6796.47,5694.38 6790.00,5694.79              6790.00,5694.79 6779.00,5694.00 6779.00,5694.00              6765.85,5693.85 6764.70,5696.28 6761.00,5696.25              6757.54,5696.23 6753.44,5693.36 6746.00,5693.04              6746.00,5693.04 6733.00,5693.68 6733.00,5693.68              6733.00,5693.68 6705.00,5692.00 6705.00,5692.00              6705.00,5692.00 6690.00,5693.00 6690.00,5693.00              6690.00,5693.00 6671.00,5692.00 6671.00,5692.00              6665.76,5691.94 6655.77,5690.26 6651.00,5688.25              6645.81,5686.07 6641.36,5682.40 6636.00,5680.93              6636.00,5680.93 6626.00,5679.54 6626.00,5679.54              6626.00,5679.54 6612.00,5676.23 6612.00,5676.23              6612.00,5676.23 6588.00,5676.23 6588.00,5676.23              6583.54,5676.06 6580.11,5676.45 6576.00,5678.40              6573.04,5679.80 6570.32,5682.21 6567.00,5682.56              6567.00,5682.56 6550.00,5682.00 6550.00,5682.00              6550.00,5682.00 6523.00,5683.17 6523.00,5683.17              6523.00,5683.17 6515.00,5684.36 6515.00,5684.36              6515.00,5684.36 6500.00,5684.36 6500.00,5684.36              6500.00,5684.36 6490.00,5684.36 6490.00,5684.36              6490.00,5684.36 6474.00,5682.19 6474.00,5682.19              6474.00,5682.19 6466.00,5682.19 6466.00,5682.19              6466.00,5682.19 6453.00,5682.19 6453.00,5682.19              6453.00,5682.19 6443.00,5683.00 6443.00,5683.00              6443.00,5683.00 6423.00,5681.09 6423.00,5681.09              6416.07,5681.52 6413.52,5683.84 6408.00,5685.37              6408.00,5685.37 6399.00,5686.68 6399.00,5686.68              6393.17,5688.02 6393.70,5689.32 6385.00,5690.57              6374.65,5692.06 6371.89,5687.74 6363.00,5687.09              6352.22,5686.30 6350.00,5689.88 6341.00,5690.08              6341.00,5690.08 6333.00,5690.08 6333.00,5690.08              6333.00,5690.08 6326.00,5691.23 6326.00,5691.23              6326.00,5691.23 6317.00,5691.23 6317.00,5691.23              6312.38,5691.36 6307.50,5693.21 6303.00,5692.88              6297.63,5692.49 6291.43,5687.41 6280.00,5687.04              6280.00,5687.04 6251.00,5689.53 6251.00,5689.53              6251.00,5689.53 6233.00,5686.63 6233.00,5686.63              6226.52,5685.36 6225.90,5683.72 6218.00,5684.04              6206.19,5684.52 6202.13,5689.80 6185.00,5690.00              6185.00,5690.00 6172.00,5691.00 6172.00,5691.00              6172.00,5691.00 6156.00,5690.00 6156.00,5690.00              6156.00,5690.00 6144.00,5690.51 6144.00,5690.51              6144.00,5690.51 6134.00,5688.15 6134.00,5688.15              6134.00,5688.15 6118.00,5688.15 6118.00,5688.15              6110.87,5688.09 6110.93,5689.06 6105.00,5689.84              6095.58,5691.08 6090.41,5691.11 6081.00,5691.00              6071.77,5690.89 6063.63,5686.60 6055.00,5687.09              6055.00,5687.09 6038.00,5688.00 6038.00,5688.00              6038.00,5688.00 6023.00,5687.04 6023.00,5687.04              6023.00,5687.04 6016.00,5687.62 6016.00,5687.62              6010.62,5687.32 6009.49,5683.73 5997.00,5684.01              5988.80,5684.20 5987.08,5686.46 5983.00,5687.09              5983.00,5687.09 5975.00,5687.09 5975.00,5687.09              5975.00,5687.09 5965.00,5688.62 5965.00,5688.62              5965.00,5688.62 5956.00,5688.03 5956.00,5688.03              5956.00,5688.03 5945.00,5688.82 5945.00,5688.82              5941.05,5688.54 5939.60,5687.85 5935.00,5688.04              5925.09,5688.44 5928.35,5691.49 5915.00,5691.06              5915.00,5691.06 5897.00,5691.06 5897.00,5691.06              5897.00,5691.06 5883.00,5692.37 5883.00,5692.37              5877.94,5692.33 5875.85,5689.70 5867.00,5690.04              5867.00,5690.04 5856.00,5690.91 5856.00,5690.91              5856.00,5690.91 5843.00,5689.02 5843.00,5689.02              5843.00,5689.02 5829.00,5689.67 5829.00,5689.67              5824.40,5688.92 5821.08,5686.28 5814.00,5686.04              5814.00,5686.04 5792.00,5688.00 5792.00,5688.00              5792.00,5688.00 5773.00,5686.00 5773.00,5686.00              5773.00,5686.00 5759.00,5686.00 5759.00,5686.00              5759.00,5686.00 5745.00,5687.22 5745.00,5687.22              5745.00,5687.22 5738.00,5687.22 5738.00,5687.22              5729.90,5686.76 5727.93,5688.96 5724.00,5688.02              5717.63,5686.48 5717.36,5682.02 5702.00,5682.23              5698.22,5681.99 5692.55,5681.80 5689.00,5682.23              5684.91,5683.23 5682.28,5685.03 5678.00,5684.49              5670.97,5683.62 5665.64,5679.14 5654.00,5679.00              5639.40,5678.84 5640.51,5681.60 5631.00,5683.61              5631.00,5683.61 5621.00,5684.68 5621.00,5684.68              5621.00,5684.68 5611.00,5687.70 5611.00,5687.70              5608.07,5687.94 5604.71,5686.57 5599.00,5687.17              5590.94,5688.02 5591.38,5689.98 5580.00,5690.00              5580.00,5690.00 5559.00,5688.09 5559.00,5688.09              5559.00,5688.09 5550.00,5689.41 5550.00,5689.41              5550.00,5689.41 5537.00,5688.00 5537.00,5688.00              5537.00,5688.00 5512.00,5688.00 5512.00,5688.00              5512.00,5688.00 5496.00,5688.96 5496.00,5688.96              5488.03,5688.54 5488.23,5684.71 5475.00,5685.01              5475.00,5685.01 5459.00,5687.66 5459.00,5687.66              5459.00,5687.66 5448.00,5686.04 5448.00,5686.04              5448.00,5686.04 5438.00,5686.54 5438.00,5686.54              5438.00,5686.54 5419.00,5684.09 5419.00,5684.09              5419.00,5684.09 5403.00,5685.00 5403.00,5685.00              5403.00,5685.00 5381.00,5685.00 5381.00,5685.00              5381.00,5685.00 5364.00,5683.70 5364.00,5683.70              5357.48,5682.77 5357.76,5681.84 5350.00,5682.01              5350.00,5682.01 5330.00,5684.00 5330.00,5684.00              5330.00,5684.00 5311.00,5683.30 5311.00,5683.30              5304.09,5684.29 5300.01,5687.27 5296.00,5687.78              5296.00,5687.78 5283.00,5687.00 5283.00,5687.00              5283.00,5687.00 5270.00,5687.91 5270.00,5687.91              5270.00,5687.91 5242.00,5689.00 5242.00,5689.00              5242.00,5689.00 5215.00,5685.17 5215.00,5685.17              5206.44,5684.26 5203.65,5686.31 5199.00,5686.31              5199.00,5686.31 5190.00,5686.31 5190.00,5686.31              5190.00,5686.31 5170.00,5688.82 5170.00,5688.82              5165.00,5688.80 5158.32,5685.68 5151.00,5686.09              5151.00,5686.09 5137.00,5687.30 5137.00,5687.30              5132.84,5687.89 5128.02,5689.84 5124.00,5689.74              5116.46,5689.56 5112.34,5686.23 5106.00,5685.49              5099.57,5684.35 5096.75,5686.03 5092.00,5685.49              5083.46,5685.04 5081.69,5684.92 5073.00,5686.30              5069.65,5686.83 5066.43,5688.33 5063.00,5688.13              5063.00,5688.13 5023.00,5680.00 5023.00,5680.00              5015.78,5679.92 5013.96,5679.86 5007.00,5682.17              5003.02,5683.49 4997.90,5686.39 4994.00,5685.86              4994.00,5685.86 4986.00,5684.17 4986.00,5684.17              4976.98,5683.20 4957.54,5685.09 4948.00,5686.17              4948.00,5686.17 4936.00,5688.88 4936.00,5688.88              4931.52,5689.19 4928.25,5687.63 4924.00,5687.08              4924.00,5687.08 4916.00,5687.08 4916.00,5687.08              4916.00,5687.08 4905.00,5686.04 4905.00,5686.04              4897.82,5685.76 4894.69,5687.52 4888.00,5688.56              4888.00,5688.56 4872.00,5689.09 4872.00,5689.09              4872.00,5689.09 4862.00,5690.73 4862.00,5690.73              4858.53,5690.77 4855.11,5688.90 4851.00,5688.15              4851.00,5688.15 4836.00,5688.15 4836.00,5688.15              4836.00,5688.15 4822.00,5687.09 4822.00,5687.09              4808.79,5687.82 4810.37,5686.31 4799.00,5685.17              4799.00,5685.17 4760.00,5682.00 4760.00,5682.00              4760.00,5682.00 4743.00,5682.66 4743.00,5682.66              4743.00,5682.66 4736.00,5682.04 4736.00,5682.04              4726.40,5681.67 4724.56,5684.83 4719.00,5684.23              4710.68,5683.34 4700.62,5679.74 4693.00,5680.04              4693.00,5680.04 4680.00,5681.63 4680.00,5681.63              4668.45,5681.06 4668.54,5677.85 4655.00,5678.00              4646.89,5678.10 4644.80,5680.10 4641.00,5680.16              4641.00,5680.16 4628.00,5679.00 4628.00,5679.00              4628.00,5679.00 4608.00,5679.00 4608.00,5679.00              4598.67,5678.89 4594.54,5675.63 4587.00,5676.09              4582.27,5676.38 4578.54,5678.22 4574.00,5679.18              4574.00,5679.18 4553.00,5681.99 4553.00,5681.99              4553.00,5681.99 4538.00,5681.09 4538.00,5681.09              4538.00,5681.09 4525.00,5682.42 4525.00,5682.42              4525.00,5682.42 4499.00,5679.54 4499.00,5679.54              4499.00,5679.54 4478.00,5675.31 4478.00,5675.31              4472.93,5673.64 4470.71,5669.78 4459.00,5670.02              4449.27,5670.21 4448.63,5672.81 4441.00,5676.05              4441.00,5676.05 4433.00,5678.90 4433.00,5678.90              4433.00,5678.90 4426.00,5682.00 4426.00,5682.00              4420.48,5683.58 4407.26,5680.74 4401.00,5681.34              4398.11,5681.25 4395.93,5682.02 4393.00,5681.34              4393.00,5681.34 4377.00,5676.23 4377.00,5676.23              4373.61,5675.83 4367.62,5675.96 4364.00,5676.23              4364.00,5676.23 4337.00,5678.59 4337.00,5678.59              4337.00,5678.59 4324.00,5681.11 4324.00,5681.11              4319.92,5681.17 4317.63,5678.70 4309.00,5679.04              4309.00,5679.04 4293.00,5680.51 4293.00,5680.51              4288.39,5680.19 4286.27,5677.83 4277.00,5678.02              4266.47,5678.22 4264.99,5682.56 4257.00,5681.89              4257.00,5681.89 4230.00,5675.17 4230.00,5675.17              4220.15,5674.12 4216.70,5677.34 4212.00,5675.92              4205.04,5673.82 4198.10,5666.33 4192.00,5663.40              4186.28,5660.65 4175.45,5659.67 4170.81,5654.51              4170.81,5654.51 4162.14,5640.00 4162.14,5640.00              4159.33,5635.29 4155.57,5631.15 4153.54,5626.00              4150.08,5617.20 4151.65,5615.23 4149.45,5609.00              4144.98,5596.31 4132.37,5583.21 4118.00,5584.09              4109.00,5584.65 4098.12,5589.64 4092.79,5597.00              4089.24,5601.91 4089.13,5604.47 4086.77,5609.00              4086.77,5609.00 4080.26,5620.00 4080.26,5620.00              4077.91,5624.58 4076.18,5630.06 4072.67,5633.82              4072.67,5633.82 4065.00,5640.18 4065.00,5640.18              4065.00,5640.18 4052.18,5653.04 4052.18,5653.04              4049.46,5656.02 4046.11,5662.50 4043.67,5663.98              4040.24,5666.05 4035.78,5663.78 4028.00,5666.55              4028.00,5666.55 4013.00,5674.36 4013.00,5674.36              4013.00,5674.36 4007.00,5675.29 4007.00,5675.29              4007.00,5675.29 3999.00,5676.92 3999.00,5676.92              3999.00,5676.92 3981.00,5676.92 3981.00,5676.92              3973.02,5677.10 3968.77,5679.10 3962.00,5679.91              3962.00,5679.91 3942.00,5679.91 3942.00,5679.91              3942.00,5679.91 3913.00,5683.91 3913.00,5683.91              3913.00,5683.91 3876.00,5676.00 3876.00,5676.00              3863.07,5675.85 3864.09,5677.72 3857.00,5677.96              3857.00,5677.96 3841.00,5677.00 3841.00,5677.00              3826.94,5677.06 3825.59,5682.22 3809.00,5682.00              3794.78,5681.81 3789.00,5674.75 3780.00,5671.55              3775.18,5669.83 3771.01,5669.95 3766.00,5670.00              3756.26,5670.12 3756.66,5672.07 3749.00,5673.96              3749.00,5673.96 3736.00,5676.55 3736.00,5676.55              3731.45,5678.17 3728.78,5680.71 3724.00,5681.95              3709.96,5685.25 3713.99,5682.50 3703.00,5681.95              3703.00,5681.95 3686.00,5683.00 3686.00,5683.00              3686.00,5683.00 3670.00,5683.00 3670.00,5683.00              3670.00,5683.00 3658.00,5683.66 3658.00,5683.66              3650.31,5682.50 3651.47,5679.02 3637.00,5679.00              3637.00,5679.00 3629.00,5679.00 3629.00,5679.00              3629.00,5679.00 3607.00,5681.12 3607.00,5681.12              3602.44,5680.81 3599.89,5676.70 3591.00,5676.09              3580.87,5675.39 3568.70,5679.44 3565.00,5679.70              3565.00,5679.70 3550.00,5678.04 3550.00,5678.04              3541.38,5677.70 3539.46,5680.20 3534.00,5679.66              3528.39,5679.12 3529.00,5677.81 3520.00,5678.01              3520.00,5678.01 3494.00,5679.93 3494.00,5679.93              3488.64,5681.38 3478.67,5687.00 3473.00,5687.44              3470.16,5687.66 3464.14,5685.44 3461.00,5684.63              3451.33,5682.14 3451.06,5681.89 3441.00,5682.00              3441.00,5682.00 3415.00,5684.43 3415.00,5684.43              3411.33,5685.05 3405.25,5686.81 3402.00,5686.74              3402.00,5686.74 3353.00,5680.00 3353.00,5680.00              3353.00,5680.00 3332.00,5682.63 3332.00,5682.63              3328.21,5682.80 3325.68,5681.57 3322.00,5681.08              3322.00,5681.08 3314.00,5681.08 3314.00,5681.08              3314.00,5681.08 3296.00,5680.09 3296.00,5680.09              3289.91,5680.53 3284.41,5682.60 3277.00,5682.42              3273.07,5682.32 3271.75,5681.04 3264.00,5681.00              3264.00,5681.00 3233.00,5681.00 3233.00,5681.00              3233.00,5681.00 3208.00,5679.00 3208.00,5679.00              3208.00,5679.00 3195.00,5680.08 3195.00,5680.08              3195.00,5680.08 3186.00,5680.08 3186.00,5680.08              3179.42,5680.88 3180.01,5682.19 3171.00,5681.99              3171.00,5681.99 3152.00,5680.63 3152.00,5680.63              3148.05,5679.87 3146.05,5678.40 3141.00,5678.09              3141.00,5678.09 3126.00,5679.00 3126.00,5679.00              3126.00,5679.00 3112.00,5679.00 3112.00,5679.00              3112.00,5679.00 3103.00,5679.66 3103.00,5679.66              3103.00,5679.66 3094.00,5679.00 3094.00,5679.00              3082.87,5678.87 3085.18,5679.95 3077.00,5680.91              3077.00,5680.91 3061.00,5680.91 3061.00,5680.91              3047.43,5680.98 3050.22,5676.69 3036.00,5677.01              3026.98,5677.22 3024.68,5680.32 3020.00,5680.70              3020.00,5680.70 2998.00,5679.00 2998.00,5679.00              2998.00,5679.00 2974.00,5679.00 2974.00,5679.00              2974.00,5679.00 2961.00,5678.03 2961.00,5678.03              2961.00,5678.03 2949.00,5678.91 2949.00,5678.91              2949.00,5678.91 2938.00,5678.02 2938.00,5678.02              2938.00,5678.02 2928.00,5678.68 2928.00,5678.68              2928.00,5678.68 2908.00,5678.00 2908.00,5678.00              2908.00,5678.00 2882.00,5676.09 2882.00,5676.09              2882.00,5676.09 2868.00,5677.92 2868.00,5677.92              2868.00,5677.92 2856.00,5677.92 2856.00,5677.92              2856.00,5677.92 2843.00,5678.79 2843.00,5678.79              2843.00,5678.79 2832.00,5677.09 2832.00,5677.09              2832.00,5677.09 2813.00,5677.09 2813.00,5677.09              2806.03,5677.09 2804.78,5678.35 2801.00,5678.53              2801.00,5678.53 2790.00,5678.00 2790.00,5678.00              2790.00,5678.00 2757.00,5678.00 2757.00,5678.00              2757.00,5678.00 2731.00,5676.09 2731.00,5676.09              2731.00,5676.09 2715.00,5676.68 2715.00,5676.68              2715.00,5676.68 2703.00,5675.05 2703.00,5675.05              2703.00,5675.05 2682.00,5675.05 2682.00,5675.05              2682.00,5675.05 2671.00,5675.79 2671.00,5675.79              2671.00,5675.79 2648.00,5673.21 2648.00,5673.21              2642.81,5672.90 2632.97,5674.86 2629.00,5673.21              2625.83,5672.24 2622.79,5668.67 2620.00,5666.53              2615.43,5663.02 2610.76,5661.23 2605.00,5661.04              2595.02,5660.71 2591.49,5664.85 2587.00,5666.30              2583.66,5667.39 2579.70,5666.75 2576.00,5667.30              2569.02,5668.33 2570.26,5669.96 2561.00,5670.00              2549.70,5670.05 2552.62,5668.99 2545.00,5668.09              2545.00,5668.09 2535.00,5668.09 2535.00,5668.09              2524.41,5668.13 2523.55,5670.97 2517.00,5672.47              2517.00,5672.47 2499.00,5674.00 2499.00,5674.00              2499.00,5674.00 2481.00,5674.00 2481.00,5674.00              2481.00,5674.00 2466.00,5673.00 2466.00,5673.00              2466.00,5673.00 2447.00,5675.00 2447.00,5675.00              2447.00,5675.00 2408.00,5675.00 2408.00,5675.00              2408.00,5675.00 2387.00,5675.00 2387.00,5675.00              2387.00,5675.00 2373.00,5674.09 2373.00,5674.09              2369.82,5674.27 2368.45,5674.94 2365.00,5674.68              2365.00,5674.68 2348.00,5673.09 2348.00,5673.09              2348.00,5673.09 2341.00,5673.82 2341.00,5673.82              2341.00,5673.82 2328.00,5673.00 2328.00,5673.00              2328.00,5673.00 2318.00,5673.82 2318.00,5673.82              2318.00,5673.82 2309.00,5673.01 2309.00,5673.01              2309.00,5673.01 2289.00,5674.00 2289.00,5674.00              2289.00,5674.00 2276.00,5674.96 2276.00,5674.96              2276.00,5674.96 2268.00,5674.04 2268.00,5674.04              2268.00,5674.04 2251.00,5674.04 2251.00,5674.04              2251.00,5674.04 2236.00,5672.96 2236.00,5672.96              2236.00,5672.96 2226.00,5672.96 2226.00,5672.96              2226.00,5672.96 2217.00,5672.03 2217.00,5672.03              2217.00,5672.03 2200.00,5673.91 2200.00,5673.91              2200.00,5673.91 2186.00,5673.00 2186.00,5673.00              2186.00,5673.00 2165.00,5674.00 2165.00,5674.00              2165.00,5674.00 2139.00,5675.91 2139.00,5675.91              2139.00,5675.91 2120.00,5672.17 2120.00,5672.17              2120.00,5672.17 2076.00,5671.11 2076.00,5671.11              2076.00,5671.11 2020.00,5671.11 2020.00,5671.11              2020.00,5671.11 2012.00,5671.11 2012.00,5671.11              2012.00,5671.11 2002.00,5671.11 2002.00,5671.11              1993.79,5671.20 1985.80,5675.23 1980.00,5674.66              1980.00,5674.66 1962.00,5672.01 1962.00,5672.01              1962.00,5672.01 1936.00,5674.00 1936.00,5674.00              1929.36,5674.07 1922.58,5673.58 1916.00,5672.71              1910.59,5672.00 1909.12,5671.08 1903.00,5671.00              1903.00,5671.00 1880.00,5669.96 1880.00,5669.96              1880.00,5669.96 1868.00,5669.04 1868.00,5669.04              1860.06,5669.36 1857.54,5672.37 1853.00,5672.51              1853.00,5672.51 1834.00,5670.00 1834.00,5670.00              1822.70,5669.88 1823.94,5671.42 1815.00,5672.70              1815.00,5672.70 1804.00,5673.47 1804.00,5673.47              1804.00,5673.47 1796.00,5675.46 1796.00,5675.46              1796.00,5675.46 1790.00,5674.85 1790.00,5674.85              1790.00,5674.85 1780.00,5674.85 1780.00,5674.85              1774.71,5673.50 1773.83,5671.12 1764.00,5671.00              1764.00,5671.00 1753.00,5671.00 1753.00,5671.00              1753.00,5671.00 1740.00,5672.16 1740.00,5672.16              1740.00,5672.16 1728.00,5670.04 1728.00,5670.04              1728.00,5670.04 1713.00,5670.83 1713.00,5670.83              1713.00,5670.83 1692.00,5669.09 1692.00,5669.09              1692.00,5669.09 1671.00,5672.67 1671.00,5672.67              1671.00,5672.67 1660.00,5675.15 1660.00,5675.15              1660.00,5675.15 1645.00,5675.15 1645.00,5675.15              1645.00,5675.15 1622.00,5673.09 1622.00,5673.09              1622.00,5673.09 1595.00,5676.00 1595.00,5676.00              1595.00,5676.00 1552.00,5681.09 1552.00,5681.09              1552.00,5681.09 1545.00,5681.74 1545.00,5681.74              1545.00,5681.74 1523.00,5677.42 1523.00,5677.42              1496.90,5673.37 1490.07,5670.67 1462.00,5671.00              1451.09,5671.13 1440.90,5676.77 1435.00,5676.07              1435.00,5676.07 1428.00,5674.45 1428.00,5674.45              1428.00,5674.45 1414.00,5672.25 1414.00,5672.25              1405.62,5670.24 1390.28,5665.58 1382.00,5666.09              1382.00,5666.09 1367.00,5668.94 1367.00,5668.94              1367.00,5668.94 1358.00,5668.94 1358.00,5668.94              1358.00,5668.94 1333.00,5671.00 1333.00,5671.00              1333.00,5671.00 1314.00,5670.00 1314.00,5670.00              1303.98,5670.05 1305.23,5671.52 1297.00,5673.07              1297.00,5673.07 1278.00,5674.91 1278.00,5674.91              1278.00,5674.91 1262.00,5674.00 1262.00,5674.00              1262.00,5674.00 1240.00,5674.00 1240.00,5674.00              1230.82,5673.87 1224.69,5668.49 1214.00,5669.09              1214.00,5669.09 1193.00,5671.61 1193.00,5671.61              1193.00,5671.61 1182.00,5674.05 1182.00,5674.05              1182.00,5674.05 1160.00,5674.05 1160.00,5674.05              1160.00,5674.05 1150.00,5674.05 1150.00,5674.05              1148.50,5674.19 1134.07,5669.53 1127.00,5669.09              1127.00,5669.09 1118.00,5669.66 1118.00,5669.66              1118.00,5669.66 1109.00,5669.09 1109.00,5669.09              1099.66,5669.67 1088.86,5676.30 1083.00,5676.90              1083.00,5676.90 1063.00,5678.46 1063.00,5678.46              1053.43,5680.16 1051.98,5682.95 1041.00,5683.00              1027.10,5683.06 1021.01,5685.17 1008.00,5686.94              1008.00,5686.94 998.00,5686.94 998.00,5686.94              986.59,5688.39 976.82,5692.50 970.00,5702.00 Z            M 1068.00,5568.44            C 1063.68,5570.01 1062.73,5571.23 1059.00,5573.54              1053.92,5576.69 1047.27,5579.72 1048.43,5587.00              1048.77,5589.11 1050.26,5592.08 1051.26,5594.00              1055.90,5602.84 1060.42,5605.32 1070.00,5602.57              1079.14,5599.95 1083.56,5592.36 1082.90,5583.00              1082.32,5574.64 1076.91,5567.56 1068.00,5568.44 Z            M 1152.00,5569.35            C 1137.11,5573.27 1139.26,5587.49 1151.00,5588.80              1166.41,5590.52 1166.71,5568.46 1152.00,5569.35 Z"
            style="fill:#000000;fill-opacity:1"/>
</svg>
