<?xml version="1.0" encoding="UTF-8" standalone="no"?>
<svg
        width="177.335mm"
        height="117.983mm"
        viewBox="0 0 8378 5574"
        version="1.1"
        id="svg948"
        sodipodi:docname="sheet8b.svg"
        inkscape:version="1.1.1 (3bf5ae0d25, 2021-09-20)"
        xmlns:inkscape="http://www.inkscape.org/namespaces/inkscape"
        xmlns:sodipodi="http://sodipodi.sourceforge.net/DTD/sodipodi-0.dtd"
        xmlns="http://www.w3.org/2000/svg"
>
    <defs
            id="defs952"/>
    <sodipodi:namedview
            id="namedview950"
            pagecolor="#ffffff"
            bordercolor="#666666"
            borderopacity="1.0"
            inkscape:pageshadow="2"
            inkscape:pageopacity="0.0"
            inkscape:pagecheckerboard="0"
            inkscape:document-units="mm"
            showgrid="false"
            inkscape:zoom="1.578533"
            inkscape:cx="334.80452"
            inkscape:cy="222.6751"
            inkscape:window-width="1920"
            inkscape:window-height="1001"
            inkscape:window-x="-7"
            inkscape:window-y="-7"
            inkscape:window-maximized="1"
            inkscape:current-layer="svg948"/>
    <path
            id="Selection #1"
            fill="none"
            stroke="black"
            stroke-width="1"
            d="M 6844.00,62.00            C 6844.00,67.47 6843.75,71.79 6845.95,77.00              6849.25,84.78 6862.21,95.56 6870.00,98.44              6874.24,100.01 6877.59,99.99 6882.00,100.00              6882.00,100.00 6910.00,100.00 6910.00,100.00              6910.00,100.00 6924.00,100.97 6924.00,100.97              6924.00,100.97 6934.00,100.02 6934.00,100.02              6934.00,100.02 6952.00,100.02 6952.00,100.02              6952.00,100.02 6975.00,99.00 6975.00,99.00              6975.00,99.00 6988.00,99.91 6988.00,99.91              6988.00,99.91 6997.00,98.34 6997.00,98.34              6997.00,98.34 7009.00,98.96 7009.00,98.96              7009.00,98.96 7019.00,98.10 7019.00,98.10              7019.00,98.10 7032.00,99.37 7032.00,99.37              7036.69,100.27 7037.88,101.71 7044.00,101.96              7050.87,102.24 7063.12,98.42 7071.00,97.30              7071.00,97.30 7084.00,96.54 7084.00,96.54              7084.00,96.54 7096.00,94.08 7096.00,94.08              7096.00,94.08 7105.00,91.47 7105.00,91.47              7111.55,90.24 7116.86,91.07 7124.00,88.05              7127.28,86.66 7138.72,79.28 7142.00,76.96              7144.78,74.99 7147.70,72.12 7151.00,71.31              7151.00,71.31 7162.00,70.39 7162.00,70.39              7174.38,68.21 7200.02,64.52 7212.00,65.04              7212.00,65.04 7226.00,66.30 7226.00,66.30              7226.00,66.30 7234.00,67.91 7234.00,67.91              7234.00,67.91 7248.00,67.91 7248.00,67.91              7248.00,67.91 7264.00,66.08 7264.00,66.08              7264.00,66.08 7277.00,66.08 7277.00,66.08              7287.99,65.95 7295.08,61.66 7308.00,62.02              7314.09,62.18 7318.99,64.84 7325.00,65.81              7325.00,65.81 7353.00,65.81 7353.00,65.81              7358.60,65.50 7361.08,63.79 7366.00,62.68              7366.00,62.68 7378.00,61.08 7378.00,61.08              7381.30,60.22 7385.67,58.24 7389.00,58.38              7394.39,58.61 7399.70,63.11 7404.00,65.90              7410.19,69.92 7416.52,72.42 7424.00,71.91              7438.23,70.93 7440.76,60.76 7455.00,55.77              7460.63,53.79 7462.25,57.25 7471.00,56.96              7479.66,56.67 7481.04,53.21 7489.00,53.02              7499.05,52.77 7499.22,56.10 7508.00,58.33              7508.00,58.33 7537.00,62.49 7537.00,62.49              7540.42,63.42 7558.94,72.75 7569.00,73.83              7575.39,74.51 7577.37,73.10 7583.00,72.06              7583.00,72.06 7591.00,72.06 7591.00,72.06              7599.98,70.86 7599.24,69.98 7610.00,70.00              7610.00,70.00 7624.00,70.97 7624.00,70.97              7624.00,70.97 7637.00,70.04 7637.00,70.04              7644.19,70.33 7648.50,73.30 7656.00,72.91              7672.14,72.07 7667.74,75.72 7680.00,79.07              7680.00,79.07 7706.00,80.99 7706.00,80.99              7715.64,80.76 7726.13,74.38 7735.00,74.60              7735.00,74.60 7758.00,76.96 7758.00,76.96              7763.72,76.74 7767.72,75.28 7774.00,76.32              7774.00,76.32 7793.00,81.54 7793.00,81.54              7793.00,81.54 7820.00,83.00 7820.00,83.00              7820.00,83.00 7837.00,80.59 7837.00,80.59              7837.00,80.59 7863.00,84.94 7863.00,84.94              7863.00,84.94 7874.00,84.94 7874.00,84.94              7874.00,84.94 7889.00,87.86 7889.00,87.86              7889.00,87.86 7898.00,87.86 7898.00,87.86              7898.00,87.86 7912.00,91.58 7912.00,91.58              7919.89,92.86 7924.33,90.54 7930.00,91.58              7930.00,91.58 7956.00,95.49 7956.00,95.49              7956.00,95.49 7963.00,98.44 7963.00,98.44              7968.24,100.36 7985.60,104.17 7991.00,103.96              7991.00,103.96 8011.00,100.68 8011.00,100.68              8015.10,100.38 8018.39,101.59 8024.00,100.68              8030.08,99.39 8034.63,96.04 8040.00,96.13              8042.78,96.18 8045.31,97.07 8048.00,97.54              8048.00,97.54 8057.00,98.39 8057.00,98.39              8057.00,98.39 8074.00,103.58 8074.00,103.58              8081.09,105.51 8081.24,104.54 8087.00,105.62              8087.00,105.62 8098.00,108.57 8098.00,108.57              8098.00,108.57 8112.00,111.68 8112.00,111.68              8112.00,111.68 8122.00,116.09 8122.00,116.09              8125.29,117.07 8132.30,117.87 8134.54,119.60              8137.34,121.76 8143.84,130.76 8146.09,134.00              8146.09,134.00 8153.59,144.00 8153.59,144.00              8153.59,144.00 8161.68,161.00 8161.68,161.00              8161.68,161.00 8168.87,181.00 8168.87,181.00              8174.37,193.85 8178.05,194.57 8181.08,201.00              8187.71,215.09 8185.03,213.63 8188.75,225.00              8188.75,225.00 8192.26,234.00 8192.26,234.00              8192.26,234.00 8200.08,258.00 8200.08,258.00              8205.04,272.45 8212.94,285.96 8215.74,301.00              8218.93,318.11 8211.39,314.61 8213.17,331.00              8213.71,335.96 8217.90,345.69 8220.48,350.00              8222.26,352.99 8224.83,355.55 8225.69,359.00              8225.69,359.00 8227.89,374.00 8227.89,374.00              8230.18,384.09 8232.98,389.37 8233.00,400.00              8233.00,400.00 8233.00,413.00 8233.00,413.00              8233.00,413.00 8232.00,432.00 8232.00,432.00              8232.00,432.00 8228.70,465.00 8228.70,465.00              8227.68,472.11 8227.01,470.41 8227.00,479.00              8227.00,479.00 8228.00,499.00 8228.00,499.00              8228.04,517.73 8233.85,520.36 8234.81,532.00              8234.81,532.00 8234.19,548.00 8234.19,548.00              8234.19,548.00 8234.19,560.00 8234.19,560.00              8234.19,560.00 8231.09,575.00 8231.09,575.00              8231.09,575.00 8231.68,587.00 8231.68,587.00              8231.68,587.00 8231.04,595.00 8231.04,595.00              8231.04,595.00 8232.93,605.00 8232.93,605.00              8232.93,605.00 8232.93,618.00 8232.93,618.00              8232.93,618.00 8234.90,636.00 8234.90,636.00              8234.90,636.00 8230.01,661.00 8230.01,661.00              8229.75,672.60 8232.39,683.67 8234.25,695.00              8234.25,695.00 8235.47,705.00 8235.47,705.00              8237.30,714.61 8240.14,710.89 8240.00,724.00              8240.00,724.00 8239.09,742.00 8239.09,742.00              8239.09,742.00 8241.62,754.00 8241.62,754.00              8241.62,754.00 8239.09,774.00 8239.09,774.00              8239.09,774.00 8240.00,792.00 8240.00,792.00              8240.00,792.00 8240.96,803.00 8240.96,803.00              8241.12,808.14 8238.90,823.68 8237.74,829.00              8236.57,834.38 8232.72,837.25 8233.04,847.00              8233.41,857.93 8240.90,865.67 8242.80,872.00              8244.22,878.07 8243.08,892.66 8242.80,900.00              8242.91,907.45 8241.76,907.46 8241.17,913.00              8241.17,913.00 8240.63,924.00 8240.63,924.00              8238.82,933.42 8237.87,930.47 8238.00,942.00              8238.09,949.47 8239.65,956.67 8240.70,964.00              8240.70,964.00 8241.30,972.00 8241.30,972.00              8241.30,972.00 8242.53,979.00 8242.53,979.00              8242.53,979.00 8241.00,995.00 8241.00,995.00              8241.00,995.00 8241.00,1013.00 8241.00,1013.00              8241.00,1013.00 8240.00,1033.00 8240.00,1033.00              8240.00,1033.00 8241.92,1051.00 8241.92,1051.00              8241.92,1051.00 8241.00,1068.00 8241.00,1068.00              8241.00,1068.00 8241.75,1079.00 8241.75,1079.00              8241.36,1083.09 8238.65,1086.81 8239.09,1094.00              8239.09,1094.00 8240.70,1103.00 8240.70,1103.00              8241.74,1110.28 8242.15,1117.67 8242.01,1125.00              8242.01,1125.00 8242.83,1142.00 8242.83,1142.00              8242.10,1148.88 8239.71,1151.48 8240.04,1160.00              8240.04,1160.00 8240.66,1167.00 8240.66,1167.00              8240.66,1167.00 8240.00,1181.00 8240.00,1181.00              8240.00,1181.00 8241.96,1202.00 8241.96,1202.00              8241.96,1202.00 8241.04,1216.00 8241.04,1216.00              8241.04,1216.00 8243.00,1240.00 8243.00,1240.00              8243.00,1240.00 8241.83,1263.00 8241.83,1263.00              8241.30,1267.97 8239.75,1270.17 8240.09,1276.00              8240.09,1276.00 8243.91,1301.00 8243.91,1301.00              8243.91,1301.00 8243.03,1314.00 8243.03,1314.00              8243.03,1314.00 8243.99,1325.00 8243.99,1325.00              8243.99,1325.00 8243.09,1341.00 8243.09,1341.00              8243.09,1341.00 8244.29,1350.00 8244.29,1350.00              8244.29,1350.00 8244.29,1358.00 8244.29,1358.00              8244.29,1358.00 8245.23,1366.00 8245.23,1366.00              8245.81,1371.40 8242.86,1372.28 8243.00,1385.00              8243.12,1395.24 8246.31,1395.78 8246.22,1407.00              8246.18,1412.10 8244.18,1413.61 8244.01,1421.00              8244.01,1421.00 8244.79,1434.00 8244.79,1434.00              8244.79,1434.00 8241.17,1457.00 8241.17,1457.00              8241.17,1457.00 8241.96,1473.00 8241.96,1473.00              8241.47,1481.77 8233.89,1487.74 8230.40,1495.00              8227.62,1500.78 8228.79,1504.48 8226.40,1507.49              8224.23,1510.21 8212.22,1516.57 8213.09,1532.00              8213.09,1532.00 8213.79,1540.00 8213.79,1540.00              8213.43,1545.73 8210.56,1550.56 8212.68,1560.00              8213.48,1563.59 8215.65,1569.86 8217.48,1573.00              8219.14,1575.85 8221.82,1578.64 8222.11,1582.00              8222.11,1582.00 8221.00,1596.00 8221.00,1596.00              8221.00,1596.00 8222.00,1609.00 8222.00,1609.00              8222.00,1609.00 8222.00,1627.00 8222.00,1627.00              8222.09,1634.49 8226.61,1646.63 8230.46,1653.00              8230.46,1653.00 8236.32,1662.00 8236.32,1662.00              8236.32,1662.00 8241.22,1678.00 8241.22,1678.00              8241.86,1680.37 8243.02,1691.77 8242.60,1694.00              8241.63,1699.19 8238.74,1700.29 8239.01,1712.00              8239.24,1721.81 8242.40,1723.21 8243.77,1729.00              8245.24,1735.25 8244.93,1741.64 8245.01,1748.00              8245.03,1750.60 8245.58,1754.73 8245.01,1757.00              8243.96,1761.30 8241.13,1762.59 8241.00,1773.00              8240.94,1778.86 8240.88,1782.30 8242.75,1788.00              8244.16,1792.30 8246.47,1795.43 8246.90,1800.00              8247.59,1807.44 8244.69,1810.27 8245.04,1819.00              8245.41,1828.11 8250.47,1833.56 8250.49,1840.00              8250.51,1844.21 8247.64,1847.58 8248.09,1855.00              8248.43,1860.51 8250.47,1863.49 8249.90,1870.00              8249.58,1873.58 8248.44,1875.64 8247.68,1879.00              8247.68,1879.00 8245.34,1894.00 8245.34,1894.00              8245.34,1894.00 8245.34,1907.00 8245.34,1907.00              8244.27,1916.24 8238.70,1924.56 8239.01,1938.00              8239.27,1949.05 8244.40,1953.38 8243.64,1960.00              8243.64,1960.00 8241.90,1967.00 8241.90,1967.00              8240.61,1972.43 8240.99,1978.41 8241.00,1984.00              8241.01,1988.84 8241.01,1992.41 8242.95,1997.00              8244.26,2000.09 8247.36,2003.97 8247.59,2007.00              8247.96,2011.74 8242.46,2015.66 8243.09,2026.00              8243.72,2036.11 8247.98,2034.71 8248.04,2048.00              8248.04,2048.00 8248.04,2057.00 8248.04,2057.00              8248.04,2057.00 8248.92,2065.00 8248.92,2065.00              8248.92,2065.00 8248.04,2073.00 8248.04,2073.00              8248.04,2073.00 8248.04,2089.00 8248.04,2089.00              8248.02,2102.91 8253.61,2106.88 8252.82,2118.00              8252.82,2118.00 8252.04,2127.00 8252.04,2127.00              8252.04,2127.00 8252.81,2137.00 8252.81,2137.00              8252.42,2141.75 8250.74,2143.94 8251.09,2150.00              8251.09,2150.00 8252.21,2158.00 8252.21,2158.00              8252.21,2158.00 8250.68,2173.00 8250.68,2173.00              8249.48,2180.23 8247.10,2183.72 8247.00,2192.00              8246.83,2207.16 8249.24,2209.62 8249.79,2220.00              8249.79,2220.00 8249.00,2238.00 8249.00,2238.00              8249.03,2256.39 8254.46,2257.17 8253.96,2269.00              8253.35,2283.49 8247.34,2282.61 8247.01,2296.00              8246.61,2312.56 8254.88,2320.02 8256.22,2329.00              8256.69,2332.16 8255.30,2335.58 8255.09,2339.00              8255.09,2339.00 8257.40,2364.00 8257.40,2364.00              8257.40,2364.00 8253.67,2379.00 8253.67,2379.00              8253.67,2379.00 8252.30,2389.00 8252.30,2389.00              8252.30,2389.00 8248.95,2396.00 8248.95,2396.00              8247.18,2400.24 8245.85,2411.33 8246.04,2416.00              8246.16,2418.99 8248.88,2435.40 8249.95,2438.00              8252.60,2444.44 8257.80,2452.13 8258.79,2459.00              8259.84,2466.28 8257.75,2472.49 8258.09,2478.00              8258.51,2484.69 8260.89,2485.78 8261.00,2494.00              8261.19,2508.36 8258.94,2503.18 8256.68,2513.00              8255.47,2518.25 8256.40,2521.96 8255.79,2526.00              8254.72,2533.10 8251.84,2531.51 8252.00,2546.00              8252.00,2546.00 8252.54,2556.00 8252.54,2556.00              8252.54,2556.00 8249.02,2571.00 8249.02,2571.00              8246.89,2575.66 8240.42,2580.43 8241.09,2592.00              8241.45,2598.18 8243.67,2604.03 8245.10,2610.00              8246.19,2614.55 8246.08,2618.57 8247.95,2623.00              8250.24,2628.40 8255.37,2633.06 8256.12,2638.00              8256.12,2638.00 8256.12,2647.00 8256.12,2647.00              8256.49,2650.41 8257.91,2656.97 8257.54,2660.00              8257.14,2663.23 8255.24,2665.97 8255.04,2672.00              8254.83,2678.37 8256.43,2680.30 8256.81,2685.00              8257.34,2691.33 8253.78,2699.71 8252.15,2706.00              8250.64,2711.87 8250.99,2716.05 8251.00,2722.00              8251.03,2738.21 8254.93,2742.85 8255.52,2747.00              8255.52,2747.00 8255.00,2761.00 8255.00,2761.00              8255.15,2773.56 8260.20,2775.36 8260.42,2783.00              8260.64,2791.21 8257.02,2793.53 8257.17,2806.00              8257.17,2806.00 8257.17,2825.00 8257.17,2825.00              8257.17,2825.00 8257.17,2833.00 8257.17,2833.00              8257.31,2836.82 8258.16,2838.55 8257.91,2843.00              8257.91,2843.00 8257.04,2851.00 8257.04,2851.00              8257.04,2851.00 8258.17,2871.00 8258.17,2871.00              8258.85,2877.22 8261.34,2879.94 8261.11,2883.00              8260.91,2885.57 8258.55,2888.58 8257.40,2891.00              8255.63,2894.74 8254.86,2898.87 8255.09,2903.00              8255.52,2910.56 8257.00,2918.41 8255.67,2926.00              8254.29,2933.88 8250.15,2934.84 8250.00,2947.00              8249.85,2960.16 8250.93,2968.65 8255.93,2981.00              8258.13,2986.44 8261.73,2990.30 8263.17,2996.00              8265.33,3003.31 8262.70,3010.44 8263.17,3018.00              8263.39,3025.75 8265.88,3026.57 8266.12,3035.00              8266.12,3035.00 8266.12,3054.00 8266.12,3054.00              8265.61,3056.59 8261.95,3060.86 8260.38,3064.00              8257.62,3069.49 8256.87,3074.94 8257.01,3081.00              8257.19,3088.78 8259.62,3091.47 8259.58,3095.00              8259.54,3099.39 8256.13,3101.55 8256.00,3112.00              8256.00,3112.00 8256.68,3139.00 8256.68,3139.00              8256.44,3142.11 8255.88,3143.51 8256.09,3147.00              8256.09,3147.00 8259.58,3166.00 8259.58,3166.00              8259.58,3166.00 8259.58,3186.00 8259.58,3186.00              8259.58,3186.00 8258.03,3201.00 8258.03,3201.00              8258.03,3201.00 8259.54,3213.00 8259.54,3213.00              8259.54,3213.00 8258.09,3223.00 8258.09,3223.00              8258.09,3223.00 8258.66,3232.00 8258.66,3232.00              8258.66,3232.00 8258.01,3243.00 8258.01,3243.00              8258.21,3251.35 8259.97,3249.98 8258.91,3263.00              8258.34,3270.00 8256.05,3270.48 8256.00,3281.00              8255.97,3287.81 8257.05,3301.43 8258.45,3308.00              8260.00,3315.26 8263.03,3317.26 8262.67,3323.00              8262.67,3323.00 8261.54,3336.00 8261.54,3336.00              8260.43,3342.30 8259.08,3345.11 8258.95,3352.00              8258.95,3352.00 8258.95,3369.00 8258.95,3369.00              8257.72,3374.24 8251.47,3381.88 8252.09,3392.00              8252.57,3399.77 8256.10,3406.66 8258.07,3414.00              8258.07,3414.00 8260.22,3428.00 8260.22,3428.00              8262.15,3434.04 8265.52,3435.83 8265.95,3442.00              8265.95,3442.00 8263.68,3466.00 8263.68,3466.00              8262.80,3471.37 8261.03,3473.54 8261.03,3480.00              8261.03,3487.29 8263.36,3491.53 8264.63,3498.00              8264.63,3498.00 8265.46,3505.00 8265.46,3505.00              8265.81,3507.05 8266.40,3508.88 8266.40,3511.00              8266.40,3511.00 8263.46,3526.00 8263.46,3526.00              8263.46,3526.00 8261.83,3546.00 8261.83,3546.00              8261.22,3551.88 8259.77,3554.27 8260.04,3561.00              8260.04,3561.00 8261.83,3572.00 8261.83,3572.00              8261.83,3572.00 8262.82,3587.00 8262.82,3587.00              8262.82,3587.00 8262.09,3594.00 8262.09,3594.00              8262.09,3594.00 8263.99,3610.00 8263.99,3610.00              8264.27,3621.75 8262.12,3620.53 8262.00,3630.00              8262.00,3630.00 8262.00,3646.00 8262.00,3646.00              8262.00,3646.00 8263.04,3664.00 8263.04,3664.00              8262.71,3673.74 8268.16,3682.31 8268.60,3692.00              8268.77,3695.77 8266.56,3699.15 8265.68,3703.00              8265.68,3703.00 8262.09,3728.00 8262.09,3728.00              8262.09,3728.00 8267.91,3762.00 8267.91,3762.00              8268.30,3768.98 8265.70,3772.97 8266.09,3780.00              8266.09,3780.00 8266.66,3786.00 8266.66,3786.00              8266.66,3786.00 8265.30,3794.00 8265.30,3794.00              8265.30,3794.00 8264.13,3811.00 8264.13,3811.00              8264.13,3811.00 8264.13,3825.00 8264.13,3825.00              8264.13,3825.00 8262.00,3848.00 8262.00,3848.00              8262.13,3858.91 8265.82,3859.60 8264.83,3869.00              8264.03,3876.57 8261.11,3881.03 8261.00,3890.00              8261.00,3890.00 8258.00,3930.00 8258.00,3930.00              8258.10,3938.09 8259.55,3946.04 8260.70,3954.00              8260.70,3954.00 8261.30,3961.00 8261.30,3961.00              8261.30,3961.00 8263.11,3970.00 8263.11,3970.00              8263.71,3974.88 8262.33,3983.08 8264.46,3995.00              8267.07,4009.59 8271.27,4015.67 8271.00,4032.00              8270.86,4039.96 8268.73,4039.41 8266.93,4046.00              8265.71,4050.46 8265.95,4056.33 8266.00,4061.00              8266.00,4061.00 8267.33,4074.00 8267.33,4074.00              8266.80,4077.31 8262.61,4082.49 8262.09,4091.00              8261.18,4105.92 8272.32,4108.91 8270.87,4121.00              8270.27,4125.98 8267.32,4128.11 8266.07,4135.00              8266.07,4135.00 8266.07,4145.00 8266.07,4145.00              8266.07,4145.00 8263.30,4161.00 8263.30,4161.00              8263.30,4161.00 8261.64,4176.00 8261.64,4176.00              8259.87,4184.19 8256.03,4192.52 8256.03,4201.00              8256.03,4205.34 8259.93,4224.32 8261.91,4228.00              8266.48,4236.48 8271.13,4235.83 8271.91,4247.00              8272.79,4259.58 8268.03,4259.03 8268.25,4270.00              8268.25,4270.00 8268.25,4278.00 8268.25,4278.00              8268.25,4278.00 8268.25,4286.00 8268.25,4286.00              8268.25,4286.00 8268.25,4297.00 8268.25,4297.00              8268.25,4297.00 8268.25,4305.00 8268.25,4305.00              8268.25,4305.00 8270.73,4318.00 8270.73,4318.00              8270.73,4318.00 8269.09,4339.00 8269.09,4339.00              8269.09,4339.00 8268.00,4371.00 8268.00,4371.00              8268.00,4371.00 8266.01,4392.00 8266.01,4392.00              8266.01,4392.00 8268.46,4416.00 8268.46,4416.00              8268.46,4416.00 8271.64,4428.00 8271.64,4428.00              8271.64,4428.00 8271.00,4439.00 8271.00,4439.00              8271.00,4439.00 8271.69,4453.00 8271.69,4453.00              8271.06,4456.95 8268.06,4459.46 8266.22,4465.00              8266.22,4465.00 8260.17,4494.00 8260.17,4494.00              8258.83,4506.51 8264.99,4515.63 8263.70,4525.00              8261.14,4543.60 8256.01,4541.99 8256.01,4555.00              8256.01,4567.34 8262.25,4573.35 8270.15,4581.96              8272.04,4584.01 8274.22,4585.85 8275.79,4588.17              8281.56,4596.73 8278.05,4599.52 8279.30,4608.00              8280.39,4615.42 8283.40,4616.26 8282.96,4625.00              8282.01,4643.87 8264.24,4648.31 8265.04,4668.00              8265.32,4675.04 8268.03,4680.90 8273.09,4685.82              8276.28,4688.92 8283.84,4694.49 8285.82,4698.17              8288.40,4702.96 8284.60,4707.04 8285.09,4715.00              8285.09,4715.00 8287.94,4730.00 8287.94,4730.00              8287.94,4730.00 8287.94,4741.00 8287.94,4741.00              8289.60,4754.32 8290.76,4746.07 8291.00,4767.00              8291.00,4767.00 8296.00,4800.00 8296.00,4800.00              8296.00,4800.00 8296.00,4818.00 8296.00,4818.00              8296.07,4823.97 8299.65,4839.93 8301.44,4846.00              8302.22,4848.64 8303.43,4851.27 8303.79,4854.00              8304.28,4857.74 8303.29,4860.45 8303.09,4864.00              8302.76,4869.88 8304.29,4872.00 8304.83,4877.00              8304.83,4877.00 8306.46,4893.00 8306.46,4893.00              8306.46,4893.00 8309.61,4903.00 8309.61,4903.00              8309.61,4903.00 8310.30,4913.00 8310.30,4913.00              8310.30,4913.00 8311.83,4921.00 8311.83,4921.00              8312.53,4927.68 8310.52,4932.67 8309.96,4939.00              8309.96,4939.00 8309.96,4948.00 8309.96,4948.00              8309.29,4952.99 8307.76,4955.13 8308.09,4961.00              8308.09,4961.00 8310.00,4977.00 8310.00,4977.00              8310.00,4977.00 8309.01,4992.00 8309.01,4992.00              8308.81,5001.00 8310.10,5000.36 8310.66,5006.00              8310.66,5006.00 8310.09,5017.00 8310.09,5017.00              8310.09,5017.00 8312.42,5036.00 8312.42,5036.00              8312.42,5036.00 8311.04,5054.00 8311.04,5054.00              8310.60,5065.37 8313.55,5060.71 8309.87,5076.00              8308.44,5081.90 8305.38,5083.67 8304.26,5091.00              8303.61,5095.69 8304.19,5100.32 8304.26,5105.00              8304.26,5105.00 8304.26,5115.00 8304.26,5115.00              8303.89,5124.98 8305.37,5132.67 8301.07,5142.00              8298.06,5148.54 8286.24,5157.44 8287.25,5173.00              8287.22,5175.28 8287.89,5177.77 8287.25,5180.00              8286.85,5182.57 8284.11,5186.35 8282.82,5189.00              8282.82,5189.00 8279.46,5197.00 8279.46,5197.00              8274.55,5206.40 8270.57,5210.39 8271.04,5222.00              8271.04,5222.00 8272.29,5231.00 8272.29,5231.00              8272.29,5231.00 8272.29,5247.00 8272.29,5247.00              8272.29,5247.00 8267.93,5264.00 8267.93,5264.00              8264.89,5271.55 8261.55,5276.09 8262.09,5285.00              8262.31,5288.64 8263.66,5291.39 8262.88,5295.00              8260.83,5304.46 8254.46,5311.68 8255.09,5322.00              8255.94,5335.77 8267.89,5346.14 8281.00,5348.00              8281.00,5348.00 8275.22,5362.00 8275.22,5362.00              8273.52,5367.35 8274.53,5369.99 8272.98,5372.72              8271.31,5375.66 8265.62,5379.12 8261.91,5386.00              8258.45,5392.42 8259.96,5396.21 8257.43,5399.33              8257.43,5399.33 8239.09,5414.09 8239.09,5414.09              8234.24,5418.98 8229.52,5428.23 8223.91,5432.30              8220.40,5434.85 8205.74,5440.59 8197.01,5447.53              8189.84,5453.22 8189.17,5459.55 8183.83,5462.55              8179.91,5464.74 8174.52,5463.63 8170.00,5464.30              8170.00,5464.30 8153.00,5469.22 8153.00,5469.22              8153.00,5469.22 8144.00,5473.32 8144.00,5473.32              8144.00,5473.32 8135.00,5475.55 8135.00,5475.55              8135.00,5475.55 8126.00,5479.52 8126.00,5479.52              8126.00,5479.52 8106.00,5483.65 8106.00,5483.65              8100.28,5485.00 8089.61,5487.72 8084.00,5487.96              8084.00,5487.96 8066.00,5486.61 8066.00,5486.61              8061.80,5485.72 8059.27,5483.33 8052.00,5483.04              8037.28,5482.44 8037.58,5489.81 8022.00,5490.00              8022.00,5490.00 8012.00,5490.00 8012.00,5490.00              8012.00,5490.00 8003.00,5490.54 8003.00,5490.54              7998.45,5490.39 7997.07,5489.01 7988.00,5489.00              7988.00,5489.00 7955.00,5488.09 7955.00,5488.09              7955.00,5488.09 7937.00,5488.09 7937.00,5488.09              7937.00,5488.09 7928.00,5489.66 7928.00,5489.66              7928.00,5489.66 7911.00,5488.09 7911.00,5488.09              7911.00,5488.09 7890.00,5489.91 7890.00,5489.91              7890.00,5489.91 7859.00,5487.04 7859.00,5487.04              7859.00,5487.04 7844.00,5488.00 7844.00,5488.00              7844.00,5488.00 7823.00,5487.00 7823.00,5487.00              7823.00,5487.00 7810.00,5487.96 7810.00,5487.96              7810.00,5487.96 7791.00,5486.14 7791.00,5486.14              7791.00,5486.14 7777.00,5486.14 7777.00,5486.14              7777.00,5486.14 7769.00,5486.14 7769.00,5486.14              7769.00,5486.14 7755.00,5486.14 7755.00,5486.14              7755.00,5486.14 7737.00,5487.91 7737.00,5487.91              7737.00,5487.91 7725.00,5487.01 7725.00,5487.01              7719.10,5487.15 7716.97,5488.39 7710.00,5487.91              7710.00,5487.91 7685.00,5484.09 7685.00,5484.09              7685.00,5484.09 7673.00,5484.68 7673.00,5484.68              7673.00,5484.68 7653.00,5482.90 7653.00,5482.90              7653.00,5482.90 7644.00,5482.90 7644.00,5482.90              7644.00,5482.90 7613.00,5479.01 7613.00,5479.01              7613.00,5479.01 7598.00,5480.68 7598.00,5480.68              7598.00,5480.68 7585.00,5479.04 7585.00,5479.04              7579.37,5478.86 7577.31,5480.13 7573.00,5480.13              7573.00,5480.13 7562.00,5480.13 7562.00,5480.13              7562.00,5480.13 7546.00,5480.13 7546.00,5480.13              7546.00,5480.13 7528.00,5481.00 7528.00,5481.00              7516.01,5481.06 7514.19,5484.77 7508.00,5484.82              7508.00,5484.82 7495.00,5482.15 7495.00,5482.15              7495.00,5482.15 7479.00,5482.15 7479.00,5482.15              7466.34,5482.02 7467.21,5484.25 7461.00,5485.13              7461.00,5485.13 7452.00,5485.13 7452.00,5485.13              7452.00,5485.13 7444.00,5485.95 7444.00,5485.95              7444.00,5485.95 7431.00,5485.95 7431.00,5485.95              7431.00,5485.95 7407.00,5483.63 7407.00,5483.63              7400.50,5482.38 7400.07,5480.73 7392.00,5481.04              7392.00,5481.04 7384.00,5481.74 7384.00,5481.74              7380.01,5481.59 7378.22,5480.09 7371.00,5480.00              7358.69,5479.86 7362.72,5479.11 7354.00,5478.17              7354.00,5478.17 7335.00,5477.15 7335.00,5477.15              7335.00,5477.15 7325.00,5477.15 7325.00,5477.15              7325.00,5477.15 7318.00,5478.50 7318.00,5478.50              7314.44,5478.70 7311.03,5477.33 7305.00,5478.50              7305.00,5478.50 7295.00,5481.61 7295.00,5481.61              7295.00,5481.61 7283.00,5482.30 7283.00,5482.30              7274.87,5483.47 7276.82,5484.98 7266.00,5485.00              7266.00,5485.00 7245.00,5485.00 7245.00,5485.00              7245.00,5485.00 7219.00,5486.17 7219.00,5486.17              7219.00,5486.17 7210.00,5488.06 7210.00,5488.06              7210.00,5488.06 7202.00,5488.06 7202.00,5488.06              7202.00,5488.06 7192.00,5490.90 7192.00,5490.90              7192.00,5490.90 7177.00,5490.90 7177.00,5490.90              7177.00,5490.90 7146.00,5494.00 7146.00,5494.00              7146.00,5494.00 7119.00,5495.17 7119.00,5495.17              7119.00,5495.17 7110.00,5496.71 7110.00,5496.71              7110.00,5496.71 7090.00,5498.00 7090.00,5498.00              7090.00,5498.00 7060.00,5498.00 7060.00,5498.00              7060.00,5498.00 7049.00,5499.13 7049.00,5499.13              7049.00,5499.13 7028.00,5499.13 7028.00,5499.13              7018.50,5499.01 7015.99,5500.94 7011.00,5500.92              7006.37,5500.91 7002.55,5498.95 6998.00,5498.15              6998.00,5498.15 6981.00,5498.15 6981.00,5498.15              6967.87,5498.02 6970.57,5499.91 6962.00,5502.37              6958.70,5503.31 6955.97,5502.78 6950.00,5504.75              6950.00,5504.75 6941.00,5508.24 6941.00,5508.24              6941.00,5508.24 6923.00,5508.24 6923.00,5508.24              6923.00,5508.24 6905.00,5509.00 6905.00,5509.00              6905.00,5509.00 6875.00,5505.09 6875.00,5505.09              6867.26,5505.57 6862.95,5509.02 6858.00,5509.79              6858.00,5509.79 6831.00,5512.17 6831.00,5512.17              6831.00,5512.17 6816.00,5515.06 6816.00,5515.06              6816.00,5515.06 6805.00,5515.06 6805.00,5515.06              6805.00,5515.06 6790.00,5518.99 6790.00,5518.99              6790.00,5518.99 6745.00,5521.26 6745.00,5521.26              6731.37,5520.76 6734.61,5519.65 6723.00,5517.75              6723.00,5517.75 6713.00,5516.63 6713.00,5516.63              6713.00,5516.63 6700.00,5513.43 6700.00,5513.43              6700.00,5513.43 6682.00,5510.28 6682.00,5510.28              6682.00,5510.28 6665.00,5508.59 6665.00,5508.59              6662.29,5507.92 6650.53,5501.50 6639.00,5499.46              6628.13,5497.54 6613.22,5497.98 6602.00,5498.00              6602.00,5498.00 6585.00,5499.00 6585.00,5499.00              6585.00,5499.00 6570.00,5499.00 6570.00,5499.00              6570.00,5499.00 6551.00,5497.00 6551.00,5497.00              6551.00,5497.00 6542.00,5497.00 6542.00,5497.00              6533.05,5495.87 6531.48,5493.87 6520.00,5494.00              6520.00,5494.00 6506.00,5494.96 6506.00,5494.96              6506.00,5494.96 6486.00,5494.00 6486.00,5494.00              6486.00,5494.00 6473.00,5494.91 6473.00,5494.91              6473.00,5494.91 6454.00,5494.00 6454.00,5494.00              6454.00,5494.00 6434.00,5495.00 6434.00,5495.00              6434.00,5495.00 6423.00,5494.20 6423.00,5494.20              6423.00,5494.20 6413.00,5494.20 6413.00,5494.20              6413.00,5494.20 6401.00,5494.20 6401.00,5494.20              6401.00,5494.20 6391.00,5494.20 6391.00,5494.20              6391.00,5494.20 6381.00,5494.20 6381.00,5494.20              6381.00,5494.20 6370.00,5494.20 6370.00,5494.20              6370.00,5494.20 6360.00,5494.20 6360.00,5494.20              6360.00,5494.20 6345.00,5494.20 6345.00,5494.20              6345.00,5494.20 6335.00,5493.05 6335.00,5493.05              6335.00,5493.05 6321.00,5493.05 6321.00,5493.05              6321.00,5493.05 6312.00,5493.90 6312.00,5493.90              6312.00,5493.90 6296.00,5492.04 6296.00,5492.04              6296.00,5492.04 6287.00,5492.04 6287.00,5492.04              6287.00,5492.04 6274.00,5491.00 6274.00,5491.00              6274.00,5491.00 6257.00,5490.00 6257.00,5490.00              6257.00,5490.00 6195.00,5490.00 6195.00,5490.00              6195.00,5490.00 6178.00,5491.00 6178.00,5491.00              6178.00,5491.00 6163.00,5491.68 6163.00,5491.68              6163.00,5491.68 6140.00,5490.00 6140.00,5490.00              6140.00,5490.00 6127.00,5491.00 6127.00,5491.00              6127.00,5491.00 6106.00,5491.00 6106.00,5491.00              6106.00,5491.00 6092.00,5491.00 6092.00,5491.00              6092.00,5491.00 6076.00,5490.00 6076.00,5490.00              6076.00,5490.00 6050.00,5490.00 6050.00,5490.00              6050.00,5490.00 6037.00,5489.04 6037.00,5489.04              6037.00,5489.04 6025.00,5489.82 6025.00,5489.82              6025.00,5489.82 6017.00,5489.02 6017.00,5489.02              6017.00,5489.02 5999.00,5489.02 5999.00,5489.02              5999.00,5489.02 5989.00,5489.95 5989.00,5489.95              5989.00,5489.95 5975.00,5489.95 5975.00,5489.95              5975.00,5489.95 5965.00,5489.04 5965.00,5489.04              5965.00,5489.04 5950.00,5489.04 5950.00,5489.04              5950.00,5489.04 5929.00,5490.00 5929.00,5490.00              5929.00,5490.00 5907.00,5491.99 5907.00,5491.99              5907.00,5491.99 5898.00,5491.04 5898.00,5491.04              5898.00,5491.04 5882.00,5491.04 5882.00,5491.04              5882.00,5491.04 5863.00,5489.00 5863.00,5489.00              5863.00,5489.00 5838.00,5490.00 5838.00,5490.00              5838.00,5490.00 5811.00,5487.01 5811.00,5487.01              5811.00,5487.01 5792.00,5489.00 5792.00,5489.00              5792.00,5489.00 5768.00,5489.00 5768.00,5489.00              5768.00,5489.00 5755.00,5489.97 5755.00,5489.97              5755.00,5489.97 5739.00,5489.00 5739.00,5489.00              5739.00,5489.00 5723.00,5488.00 5723.00,5488.00              5716.32,5488.08 5716.53,5488.89 5711.00,5489.70              5711.00,5489.70 5686.00,5491.66 5686.00,5491.66              5686.00,5491.66 5669.00,5490.01 5669.00,5490.01              5669.00,5490.01 5656.00,5490.98 5656.00,5490.98              5656.00,5490.98 5636.00,5489.24 5636.00,5489.24              5636.00,5489.24 5623.00,5489.24 5623.00,5489.24              5623.00,5489.24 5600.00,5487.86 5600.00,5487.86              5600.00,5487.86 5589.00,5487.86 5589.00,5487.86              5589.00,5487.86 5578.00,5486.04 5578.00,5486.04              5578.00,5486.04 5562.00,5486.96 5562.00,5486.96              5562.00,5486.96 5546.00,5485.14 5546.00,5485.14              5546.00,5485.14 5527.00,5485.14 5527.00,5485.14              5527.00,5485.14 5519.00,5485.14 5519.00,5485.14              5519.00,5485.14 5509.00,5485.14 5509.00,5485.14              5509.00,5485.14 5496.00,5486.00 5496.00,5486.00              5496.00,5486.00 5436.00,5486.00 5436.00,5486.00              5436.00,5486.00 5417.00,5488.00 5417.00,5488.00              5417.00,5488.00 5384.00,5484.15 5384.00,5484.15              5384.00,5484.15 5374.00,5484.15 5374.00,5484.15              5374.00,5484.15 5357.00,5484.15 5357.00,5484.15              5357.00,5484.15 5342.00,5483.00 5342.00,5483.00              5342.00,5483.00 5302.00,5482.13 5302.00,5482.13              5302.00,5482.13 5275.00,5482.13 5275.00,5482.13              5275.00,5482.13 5259.00,5481.04 5259.00,5481.04              5259.00,5481.04 5247.00,5482.00 5247.00,5482.00              5247.00,5482.00 5213.00,5482.00 5213.00,5482.00              5213.00,5482.00 5193.00,5481.00 5193.00,5481.00              5193.00,5481.00 5178.00,5479.04 5178.00,5479.04              5178.00,5479.04 5168.00,5479.97 5168.00,5479.97              5168.00,5479.97 5153.00,5479.97 5153.00,5479.97              5153.00,5479.97 5138.00,5479.97 5138.00,5479.97              5138.00,5479.97 5116.00,5479.00 5116.00,5479.00              5116.00,5479.00 5102.00,5480.00 5102.00,5480.00              5102.00,5480.00 5072.00,5480.00 5072.00,5480.00              5072.00,5480.00 5061.00,5480.68 5061.00,5480.68              5061.00,5480.68 5041.00,5479.83 5041.00,5479.83              5032.07,5478.87 5035.59,5477.86 5023.00,5478.00              5023.00,5478.00 5012.00,5478.68 5012.00,5478.68              5012.00,5478.68 4996.00,5477.71 4996.00,5477.71              4996.00,5477.71 4969.00,5472.45 4969.00,5472.45              4969.00,5472.45 4952.00,5469.62 4952.00,5469.62              4941.64,5467.52 4940.44,5464.86 4928.00,5465.00              4928.00,5465.00 4909.00,5467.00 4909.00,5467.00              4909.00,5467.00 4891.00,5466.04 4891.00,5466.04              4891.00,5466.04 4883.00,5466.96 4883.00,5466.96              4883.00,5466.96 4869.00,5466.96 4869.00,5466.96              4869.00,5466.96 4852.00,5467.91 4852.00,5467.91              4852.00,5467.91 4833.00,5466.04 4833.00,5466.04              4833.00,5466.04 4820.00,5466.04 4820.00,5466.04              4815.77,5465.43 4814.03,5463.01 4805.00,5463.01              4805.00,5463.01 4787.00,5465.00 4787.00,5465.00              4787.00,5465.00 4765.00,5466.96 4765.00,5466.96              4765.00,5466.96 4751.00,5466.96 4751.00,5466.96              4751.00,5466.96 4734.00,5468.46 4734.00,5468.46              4734.00,5468.46 4723.00,5470.83 4723.00,5470.83              4723.00,5470.83 4704.00,5470.00 4704.00,5470.00              4704.00,5470.00 4667.00,5471.00 4667.00,5471.00              4667.00,5471.00 4654.00,5471.99 4654.00,5471.99              4654.00,5471.99 4627.00,5470.00 4627.00,5470.00              4627.00,5470.00 4591.00,5470.00 4591.00,5470.00              4582.24,5469.99 4581.31,5468.88 4574.00,5468.09              4574.00,5468.09 4561.00,5468.09 4561.00,5468.09              4561.00,5468.09 4548.00,5468.91 4548.00,5468.91              4548.00,5468.91 4529.00,5466.30 4529.00,5466.30              4529.00,5466.30 4499.00,5464.00 4499.00,5464.00              4499.00,5464.00 4444.00,5464.00 4444.00,5464.00              4444.00,5464.00 4432.00,5462.96 4432.00,5462.96              4432.00,5462.96 4423.00,5462.96 4423.00,5462.96              4423.00,5462.96 4415.00,5462.03 4415.00,5462.03              4415.00,5462.03 4401.00,5463.00 4401.00,5463.00              4401.00,5463.00 4381.00,5463.00 4381.00,5463.00              4381.00,5463.00 4364.00,5462.00 4364.00,5462.00              4364.00,5462.00 4354.00,5463.12 4354.00,5463.12              4354.00,5463.12 4336.00,5463.12 4336.00,5463.12              4336.00,5463.12 4304.00,5463.12 4304.00,5463.12              4304.00,5463.12 4290.00,5463.96 4290.00,5463.96              4290.00,5463.96 4282.00,5463.04 4282.00,5463.04              4282.00,5463.04 4270.00,5463.04 4270.00,5463.04              4244.90,5462.96 4250.83,5451.85 4225.00,5450.09              4219.18,5449.69 4212.38,5450.67 4207.00,5452.95              4201.54,5455.27 4200.98,5457.37 4194.00,5458.56              4186.47,5459.84 4180.32,5457.59 4173.00,5457.05              4173.00,5457.05 4159.00,5457.05 4159.00,5457.05              4152.20,5457.08 4152.51,5457.92 4147.00,5458.70              4147.00,5458.70 4128.00,5459.51 4128.00,5459.51              4122.98,5459.17 4118.40,5456.11 4109.00,5456.00              4109.00,5456.00 4088.00,5457.04 4088.00,5457.04              4088.00,5457.04 4079.00,5457.04 4079.00,5457.04              4079.00,5457.04 4061.00,5459.00 4061.00,5459.00              4061.00,5459.00 4035.00,5459.00 4035.00,5459.00              4035.00,5459.00 4023.00,5459.92 4023.00,5459.92              4023.00,5459.92 4012.00,5459.01 4012.00,5459.01              4012.00,5459.01 3999.00,5459.91 3999.00,5459.91              3999.00,5459.91 3985.00,5459.04 3985.00,5459.04              3985.00,5459.04 3975.00,5459.90 3975.00,5459.90              3975.00,5459.90 3946.00,5457.00 3946.00,5457.00              3946.00,5457.00 3879.00,5457.00 3879.00,5457.00              3879.00,5457.00 3864.00,5456.00 3864.00,5456.00              3864.00,5456.00 3848.00,5456.00 3848.00,5456.00              3848.00,5456.00 3833.00,5455.00 3833.00,5455.00              3823.34,5454.89 3819.80,5456.53 3811.00,5457.71              3811.00,5457.71 3792.00,5459.17 3792.00,5459.17              3786.46,5459.76 3786.45,5460.91 3779.00,5461.00              3767.34,5461.13 3766.48,5462.19 3756.00,5463.70              3756.00,5463.70 3741.00,5465.46 3741.00,5465.46              3741.00,5465.46 3710.00,5474.69 3710.00,5474.69              3710.00,5474.69 3693.00,5480.93 3693.00,5480.93              3693.00,5480.93 3685.00,5484.59 3685.00,5484.59              3685.00,5484.59 3661.00,5491.22 3661.00,5491.22              3645.64,5496.10 3634.48,5504.79 3617.00,5505.15              3617.00,5505.15 3603.00,5505.15 3603.00,5505.15              3597.89,5506.03 3593.39,5507.83 3588.00,5507.25              3588.00,5507.25 3575.00,5507.25 3575.00,5507.25              3565.98,5507.11 3565.19,5509.08 3559.00,5509.99              3559.00,5509.99 3548.00,5509.99 3548.00,5509.99              3537.01,5511.23 3539.55,5512.15 3526.00,5512.00              3526.00,5512.00 3480.00,5508.04 3480.00,5508.04              3480.00,5508.04 3469.00,5508.04 3469.00,5508.04              3469.00,5508.04 3457.00,5508.99 3457.00,5508.99              3457.00,5508.99 3448.00,5508.11 3448.00,5508.11              3448.00,5508.11 3434.00,5508.11 3434.00,5508.11              3434.00,5508.11 3424.00,5508.11 3424.00,5508.11              3424.00,5508.11 3413.00,5506.29 3413.00,5506.29              3413.00,5506.29 3405.00,5505.70 3405.00,5505.70              3405.00,5505.70 3391.00,5503.04 3391.00,5503.04              3391.00,5503.04 3376.00,5504.00 3376.00,5504.00              3376.00,5504.00 3358.00,5503.00 3358.00,5503.00              3347.58,5503.05 3335.68,5506.36 3332.00,5506.53              3332.00,5506.53 3309.00,5505.14 3309.00,5505.14              3309.00,5505.14 3299.00,5505.14 3299.00,5505.14              3299.00,5505.14 3292.00,5503.23 3292.00,5503.23              3288.22,5502.76 3282.98,5503.04 3279.00,5503.23              3267.96,5502.87 3267.24,5499.52 3259.00,5498.06              3259.00,5498.06 3248.00,5498.06 3248.00,5498.06              3238.92,5496.86 3242.00,5496.02 3230.00,5496.00              3221.77,5495.99 3211.57,5493.75 3204.00,5490.48              3204.00,5490.48 3194.00,5485.75 3194.00,5485.75              3194.00,5485.75 3168.00,5479.99 3168.00,5479.99              3168.00,5479.99 3156.00,5476.67 3156.00,5476.67              3145.81,5474.49 3138.34,5475.56 3135.00,5475.11              3129.66,5474.40 3128.98,5472.05 3118.00,5472.00              3118.00,5472.00 3097.00,5471.00 3097.00,5471.00              3097.00,5471.00 3071.00,5471.00 3071.00,5471.00              3071.00,5471.00 3045.00,5468.61 3045.00,5468.61              3045.00,5468.61 3033.00,5464.54 3033.00,5464.54              3017.92,5458.61 3022.79,5456.06 3001.00,5451.66              3001.00,5451.66 2976.00,5449.83 2976.00,5449.83              2968.64,5449.11 2967.79,5448.01 2959.00,5448.00              2959.00,5448.00 2932.00,5447.00 2932.00,5447.00              2932.00,5447.00 2916.00,5446.00 2916.00,5446.00              2916.00,5446.00 2898.00,5446.00 2898.00,5446.00              2898.00,5446.00 2864.00,5443.00 2864.00,5443.00              2864.00,5443.00 2846.00,5442.04 2846.00,5442.04              2833.01,5441.47 2833.00,5444.66 2822.00,5443.91              2822.00,5443.91 2794.00,5441.00 2794.00,5441.00              2794.00,5441.00 2774.00,5441.00 2774.00,5441.00              2774.00,5441.00 2751.00,5438.17 2751.00,5438.17              2751.00,5438.17 2742.00,5437.57 2742.00,5437.57              2742.00,5437.57 2726.00,5434.44 2726.00,5434.44              2726.00,5434.44 2677.00,5429.00 2677.00,5429.00              2677.00,5429.00 2663.00,5428.00 2663.00,5428.00              2663.00,5428.00 2649.00,5429.00 2649.00,5429.00              2649.00,5429.00 2636.00,5429.00 2636.00,5429.00              2636.00,5429.00 2619.00,5428.00 2619.00,5428.00              2610.52,5427.99 2602.38,5425.64 2594.00,5424.43              2594.00,5424.43 2586.00,5423.56 2586.00,5423.56              2586.00,5423.56 2568.00,5418.21 2568.00,5418.21              2568.00,5418.21 2538.00,5416.00 2538.00,5416.00              2520.34,5416.08 2516.08,5422.46 2510.00,5425.07              2510.00,5425.07 2501.00,5427.22 2501.00,5427.22              2496.46,5428.61 2495.21,5430.02 2490.00,5429.95              2478.12,5429.77 2467.30,5424.24 2456.00,5421.68              2456.00,5421.68 2447.00,5420.49 2447.00,5420.49              2434.15,5417.83 2427.50,5416.02 2414.00,5416.00              2414.00,5416.00 2397.00,5415.23 2397.00,5415.23              2397.00,5415.23 2374.00,5415.23 2374.00,5415.23              2374.00,5415.23 2365.00,5412.90 2365.00,5412.90              2361.09,5411.94 2345.76,5409.88 2342.00,5410.09              2342.00,5410.09 2322.00,5411.00 2322.00,5411.00              2322.00,5411.00 2299.00,5412.30 2299.00,5412.30              2290.87,5413.47 2292.82,5414.98 2282.00,5415.00              2282.00,5415.00 2244.00,5418.00 2244.00,5418.00              2244.00,5418.00 2224.00,5418.00 2224.00,5418.00              2224.00,5418.00 2186.00,5415.00 2186.00,5415.00              2186.00,5415.00 2175.00,5415.00 2175.00,5415.00              2175.00,5415.00 2141.00,5410.00 2141.00,5410.00              2141.00,5410.00 2130.00,5410.00 2130.00,5410.00              2122.38,5409.96 2117.20,5408.22 2110.00,5407.29              2110.00,5407.29 2089.00,5406.00 2089.00,5406.00              2089.00,5406.00 2070.00,5405.05 2070.00,5405.05              2070.00,5405.05 2055.00,5405.05 2055.00,5405.05              2055.00,5405.05 2043.00,5406.00 2043.00,5406.00              2043.00,5406.00 2021.00,5406.00 2021.00,5406.00              2009.35,5405.98 2008.92,5403.67 2001.00,5403.09              1991.62,5402.40 1990.71,5403.91 1985.00,5404.18              1985.00,5404.18 1968.00,5404.18 1968.00,5404.18              1968.00,5404.18 1942.00,5402.79 1942.00,5402.79              1942.00,5402.79 1930.00,5399.30 1930.00,5399.30              1930.00,5399.30 1920.00,5398.70 1920.00,5398.70              1920.00,5398.70 1912.00,5396.89 1912.00,5396.89              1906.42,5395.63 1900.69,5396.01 1895.00,5396.00              1895.00,5396.00 1871.00,5393.85 1871.00,5393.85              1864.23,5394.08 1857.80,5394.67 1851.00,5393.85              1851.00,5393.85 1833.00,5389.67 1833.00,5389.67              1833.00,5389.67 1823.00,5388.70 1823.00,5388.70              1816.59,5387.78 1810.56,5386.08 1804.00,5385.92              1804.00,5385.92 1795.00,5385.92 1795.00,5385.92              1787.28,5385.08 1786.07,5383.90 1777.00,5384.00              1770.22,5384.08 1770.50,5384.92 1765.00,5385.70              1765.00,5385.70 1746.00,5387.28 1746.00,5387.28              1746.00,5387.28 1731.00,5385.17 1731.00,5385.17              1731.00,5385.17 1718.00,5384.49 1718.00,5384.49              1708.13,5382.46 1703.88,5380.02 1693.00,5380.00              1693.00,5380.00 1681.00,5380.00 1681.00,5380.00              1681.00,5380.00 1657.00,5382.00 1657.00,5382.00              1639.02,5382.22 1643.33,5390.97 1628.00,5391.00              1628.00,5391.00 1621.00,5391.00 1621.00,5391.00              1608.62,5391.15 1607.15,5395.55 1597.00,5399.65              1592.85,5401.33 1578.60,5404.09 1574.00,5403.99              1574.00,5403.99 1558.00,5403.04 1558.00,5403.04              1558.00,5403.04 1529.00,5407.70 1529.00,5407.70              1529.00,5407.70 1500.00,5411.46 1500.00,5411.46              1492.78,5412.91 1488.88,5417.08 1475.00,5419.77              1475.00,5419.77 1447.00,5419.77 1447.00,5419.77              1447.00,5419.77 1437.00,5420.61 1437.00,5420.61              1437.00,5420.61 1430.00,5419.06 1430.00,5419.06              1430.00,5419.06 1422.00,5419.06 1422.00,5419.06              1414.98,5418.07 1416.91,5417.01 1407.00,5417.00              1407.00,5417.00 1391.00,5417.89 1391.00,5417.89              1385.59,5417.45 1382.52,5414.63 1375.00,5415.09              1364.12,5415.76 1360.93,5420.93 1347.00,5421.00              1338.53,5421.04 1339.25,5422.16 1333.00,5423.00              1333.00,5423.00 1319.00,5423.00 1319.00,5423.00              1319.00,5423.00 1310.00,5424.74 1310.00,5424.74              1310.00,5424.74 1295.00,5424.00 1295.00,5424.00              1295.00,5424.00 1286.00,5424.53 1286.00,5424.53              1286.00,5424.53 1277.00,5423.17 1277.00,5423.17              1277.00,5423.17 1269.00,5423.17 1269.00,5423.17              1269.00,5423.17 1261.00,5422.09 1261.00,5422.09              1261.00,5422.09 1247.00,5422.09 1247.00,5422.09              1247.00,5422.09 1231.00,5422.09 1231.00,5422.09              1231.00,5422.09 1220.00,5424.16 1220.00,5424.16              1220.00,5424.16 1205.00,5421.09 1205.00,5421.09              1205.00,5421.09 1183.00,5420.00 1183.00,5420.00              1183.00,5420.00 1171.00,5419.03 1171.00,5419.03              1171.00,5419.03 1163.00,5419.66 1163.00,5419.66              1163.00,5419.66 1154.00,5419.00 1154.00,5419.00              1154.00,5419.00 1141.00,5419.00 1141.00,5419.00              1141.00,5419.00 1125.00,5418.00 1125.00,5418.00              1125.00,5418.00 1104.00,5420.54 1104.00,5420.54              1104.00,5420.54 1092.00,5417.46 1092.00,5417.46              1092.00,5417.46 1057.00,5414.00 1057.00,5414.00              1057.00,5414.00 1039.00,5415.00 1039.00,5415.00              1028.71,5415.12 1030.58,5417.74 1018.00,5417.09              1018.00,5417.09 1005.00,5417.83 1005.00,5417.83              1005.00,5417.83 982.00,5414.22 982.00,5414.22              982.00,5414.22 963.00,5414.22 963.00,5414.22              963.00,5414.22 950.00,5414.22 950.00,5414.22              942.98,5413.57 936.19,5410.72 929.00,5410.96              922.44,5411.43 914.56,5411.46 908.00,5410.96              908.00,5410.96 897.00,5409.70 897.00,5409.70              891.48,5408.91 891.75,5408.08 885.00,5407.92              885.00,5407.92 868.00,5407.92 868.00,5407.92              868.00,5407.92 854.00,5404.92 854.00,5404.92              854.00,5404.92 844.00,5404.92 844.00,5404.92              844.00,5404.92 837.00,5402.52 837.00,5402.52              829.90,5400.24 823.35,5399.97 816.00,5400.00              816.00,5400.00 800.00,5401.92 800.00,5401.92              800.00,5401.92 782.00,5401.92 782.00,5401.92              782.00,5401.92 755.00,5405.94 755.00,5405.94              755.00,5405.94 744.00,5405.94 744.00,5405.94              744.00,5405.94 735.00,5407.83 735.00,5407.83              715.83,5409.88 718.54,5407.07 704.00,5407.00              704.00,5407.00 686.00,5405.11 686.00,5405.11              686.00,5405.11 665.00,5405.11 665.00,5405.11              665.00,5405.11 655.00,5405.11 655.00,5405.11              655.00,5405.11 643.00,5402.06 643.00,5402.06              643.00,5402.06 631.00,5402.06 631.00,5402.06              631.00,5402.06 622.00,5399.94 622.00,5399.94              622.00,5399.94 613.00,5399.94 613.00,5399.94              613.00,5399.94 601.00,5398.18 601.00,5398.18              593.23,5397.74 586.68,5400.31 578.00,5398.18              578.00,5398.18 567.00,5394.22 567.00,5394.22              567.00,5394.22 525.00,5382.80 525.00,5382.80              519.87,5381.77 508.94,5379.81 504.00,5380.09              504.00,5380.09 449.00,5385.00 449.00,5385.00              437.30,5384.86 437.85,5381.32 429.00,5378.93              417.88,5375.92 404.11,5378.06 396.33,5387.04              393.28,5390.55 391.29,5394.98 389.00,5399.00              389.00,5399.00 373.00,5398.00 373.00,5398.00              373.00,5398.00 355.00,5394.46 355.00,5394.46              355.00,5394.46 345.00,5393.68 345.00,5393.68              345.00,5393.68 325.00,5388.44 325.00,5388.44              325.00,5388.44 316.00,5387.70 316.00,5387.70              316.00,5387.70 309.00,5386.30 309.00,5386.30              309.00,5386.30 286.00,5385.00 286.00,5385.00              286.00,5385.00 269.00,5383.04 269.00,5383.04              269.00,5383.04 254.00,5383.79 254.00,5383.79              254.00,5383.79 235.00,5381.90 235.00,5381.90              235.00,5381.90 221.00,5381.90 221.00,5381.90              221.00,5381.90 210.00,5379.09 210.00,5379.09              210.00,5379.09 194.00,5379.09 194.00,5379.09              192.59,5374.18 190.57,5370.70 186.91,5367.18              184.26,5364.64 181.13,5363.17 179.30,5359.91              179.30,5359.91 174.80,5346.00 174.80,5346.00              174.80,5346.00 169.49,5333.00 169.49,5333.00              169.49,5333.00 168.53,5324.00 168.53,5324.00              168.53,5324.00 165.08,5311.00 165.08,5311.00              162.83,5303.19 158.36,5300.52 157.86,5297.00              157.28,5292.87 161.84,5290.94 163.74,5281.00              164.74,5275.79 165.48,5270.30 164.70,5265.00              164.08,5260.76 161.71,5256.82 162.74,5253.00              162.74,5253.00 168.82,5239.51 168.82,5239.51              170.97,5236.69 175.29,5235.04 179.09,5228.00              187.19,5212.96 177.36,5197.17 166.00,5187.18              158.86,5180.90 150.34,5178.70 141.00,5180.47              136.37,5181.34 132.77,5183.96 129.00,5183.26              127.45,5182.98 114.52,5177.49 102.00,5176.17              93.34,5175.26 89.75,5178.48 86.00,5177.79              82.22,5177.09 81.40,5174.12 71.00,5172.00              71.00,5163.92 71.14,5161.73 67.99,5154.00              66.10,5149.39 62.60,5144.67 61.91,5140.00              61.91,5140.00 61.91,5132.00 61.91,5132.00              61.91,5132.00 59.00,5114.00 59.00,5114.00              59.00,5114.00 59.00,5105.00 59.00,5105.00              57.70,5094.62 56.03,5101.59 56.00,5083.00              56.00,5083.00 53.00,5048.00 53.00,5048.00              53.00,5048.00 54.30,5030.00 54.30,5030.00              55.17,5023.91 55.97,5024.25 56.00,5017.00              56.00,5017.00 56.00,4996.00 56.00,4996.00              56.00,4996.00 57.00,4982.00 57.00,4982.00              57.12,4971.13 55.20,4969.73 55.18,4965.00              55.18,4965.00 57.00,4943.00 57.00,4943.00              56.91,4935.96 55.95,4935.96 55.81,4932.00              55.81,4932.00 55.81,4924.00 55.81,4924.00              55.81,4924.00 54.01,4899.00 54.01,4899.00              54.01,4899.00 57.00,4861.00 57.00,4861.00              57.00,4861.00 57.00,4837.00 57.00,4837.00              57.00,4837.00 56.04,4820.00 56.04,4820.00              56.44,4812.64 58.98,4813.46 59.00,4801.00              59.00,4801.00 59.00,4783.00 59.00,4783.00              59.00,4783.00 58.01,4767.00 58.01,4767.00              58.01,4767.00 61.00,4729.00 61.00,4729.00              61.01,4720.12 62.08,4703.71 66.00,4696.00              74.73,4699.70 75.44,4703.72 87.00,4703.99              98.36,4704.25 107.46,4700.45 113.09,4690.00              115.58,4685.36 115.19,4682.98 116.66,4679.00              118.22,4674.76 120.38,4673.10 121.53,4667.00              121.53,4667.00 122.17,4655.00 122.17,4655.00              122.78,4649.34 124.25,4648.22 123.96,4641.00              123.74,4635.46 117.99,4617.94 115.12,4613.00              112.74,4608.89 108.01,4603.88 106.70,4600.00              105.58,4596.69 106.04,4587.03 106.00,4583.00              106.00,4583.00 105.00,4569.00 105.00,4569.00              105.00,4569.00 103.00,4531.00 103.00,4531.00              103.00,4531.00 102.00,4509.00 102.00,4509.00              102.00,4509.00 100.00,4491.00 100.00,4491.00              100.00,4491.00 100.00,4476.00 100.00,4476.00              100.00,4476.00 99.00,4463.00 99.00,4463.00              99.00,4463.00 98.32,4444.00 98.32,4444.00              98.32,4444.00 99.00,4431.00 99.00,4431.00              99.02,4416.16 102.38,4415.91 105.07,4406.00              105.07,4406.00 106.46,4398.00 106.46,4398.00              108.77,4385.76 108.85,4390.42 109.00,4377.00              109.07,4371.63 110.49,4366.38 109.70,4361.00              109.70,4361.00 106.34,4349.00 106.34,4349.00              106.23,4344.63 109.60,4342.46 110.70,4335.00              111.87,4327.05 109.35,4322.51 109.00,4315.00              115.17,4318.01 120.19,4323.30 124.77,4319.53              126.12,4318.42 127.15,4316.75 127.35,4315.00              127.84,4310.61 124.29,4310.74 126.68,4303.00              128.27,4297.82 133.97,4288.72 131.79,4284.01              130.41,4281.05 127.52,4279.25 125.09,4277.26              123.01,4275.55 120.29,4272.55 117.96,4271.54              111.87,4268.91 106.18,4275.42 103.32,4280.00              97.63,4289.11 100.42,4287.96 98.00,4294.00              98.00,4294.00 89.00,4284.00 89.00,4284.00              91.10,4272.26 89.23,4274.87 87.92,4265.00              87.92,4265.00 87.92,4257.00 87.92,4257.00              87.80,4254.90 87.45,4253.12 87.92,4251.00              88.23,4245.99 90.80,4241.64 92.45,4237.00              94.64,4230.85 95.24,4225.48 94.96,4219.00              94.96,4219.00 92.07,4203.00 92.07,4203.00              92.07,4203.00 92.07,4192.00 92.07,4192.00              91.60,4189.57 91.01,4187.48 91.25,4185.00              91.46,4182.77 94.49,4171.77 95.58,4170.00              97.17,4167.42 100.30,4164.78 102.60,4160.00              104.13,4156.82 106.69,4145.59 106.67,4142.00              106.67,4142.00 106.67,4131.00 106.67,4131.00              106.67,4131.00 110.07,4121.00 110.07,4121.00              110.83,4118.22 110.82,4114.59 112.60,4112.39              116.92,4107.04 126.31,4105.34 132.00,4102.60              144.56,4096.56 149.15,4086.19 149.00,4073.00              148.88,4063.09 145.99,4061.36 145.69,4057.00              145.44,4053.44 149.50,4043.20 144.60,4033.00              138.85,4021.03 128.99,4018.28 117.00,4016.72              112.49,4016.13 109.65,4015.72 105.00,4016.17              96.73,4016.96 94.53,4018.02 87.00,4020.00              87.00,4020.00 94.84,4003.00 94.84,4003.00              96.70,3999.80 99.89,3997.08 102.05,3992.00              103.99,3987.41 103.57,3984.49 104.81,3981.00              107.45,3973.55 109.32,3972.99 108.96,3964.00              108.62,3955.63 105.44,3952.85 104.39,3948.00              103.52,3943.96 104.62,3940.91 102.44,3935.00              102.44,3935.00 97.71,3925.00 97.71,3925.00              96.59,3921.64 97.72,3918.37 97.71,3915.00              97.71,3915.00 97.00,3902.00 97.00,3902.00              111.30,3899.97 123.69,3888.06 122.69,3873.00              122.69,3873.00 122.69,3867.00 122.69,3867.00              122.81,3859.69 126.61,3857.61 121.00,3843.00              135.68,3838.71 145.26,3822.64 139.05,3808.00              135.67,3800.04 130.68,3798.18 128.13,3793.91              126.54,3791.25 123.91,3782.48 119.21,3776.00              110.81,3764.42 105.56,3770.88 106.02,3758.00              106.31,3749.86 111.54,3747.27 110.91,3737.00              110.40,3728.85 106.57,3725.35 105.19,3720.00              104.25,3714.85 105.00,3705.65 105.19,3700.00              115.80,3697.80 115.91,3695.66 124.00,3689.38              128.28,3686.07 131.57,3685.36 135.82,3680.91              144.90,3671.37 147.12,3657.44 144.74,3645.00              144.74,3645.00 141.02,3633.00 141.02,3633.00              141.02,3633.00 141.02,3624.00 141.02,3624.00              140.26,3618.06 137.48,3605.48 135.44,3600.00              130.89,3587.76 125.77,3592.89 122.58,3578.00              122.29,3576.67 121.68,3574.30 121.78,3573.00              122.14,3567.97 128.02,3565.62 130.78,3557.00              132.53,3551.51 131.58,3548.79 132.39,3545.00              132.39,3545.00 137.33,3528.00 137.33,3528.00              137.33,3528.00 138.30,3517.00 138.30,3517.00              139.26,3510.28 142.33,3503.91 141.91,3497.00              141.91,3497.00 139.41,3485.00 139.41,3485.00              139.41,3481.10 141.98,3479.39 142.00,3468.00              142.03,3450.43 143.99,3456.26 145.90,3443.00              145.90,3443.00 145.90,3435.00 145.90,3435.00              145.90,3435.00 147.00,3411.00 147.00,3411.00              147.00,3411.00 144.26,3389.00 144.26,3389.00              144.18,3383.56 147.33,3380.41 146.96,3371.00              146.96,3371.00 145.10,3358.00 145.10,3358.00              145.10,3358.00 145.96,3345.00 145.96,3345.00              145.96,3345.00 144.00,3313.00 144.00,3313.00              144.05,3309.84 146.76,3296.95 147.81,3294.00              150.50,3286.42 152.71,3285.18 151.83,3276.00              150.35,3260.47 146.02,3259.60 144.41,3253.00              143.37,3248.73 144.91,3244.75 142.05,3238.00              139.80,3232.69 136.04,3229.85 134.55,3225.00              133.16,3220.44 133.37,3215.65 132.70,3211.00              132.70,3211.00 129.17,3193.00 129.17,3193.00              129.17,3193.00 128.53,3180.00 128.53,3180.00              127.29,3173.38 124.37,3170.35 122.81,3166.00              121.58,3162.59 122.01,3159.64 120.05,3155.00              118.44,3151.20 116.25,3149.14 115.24,3145.00              112.38,3133.31 111.98,3123.88 112.00,3112.00              112.02,3100.46 115.39,3099.58 114.91,3091.00              114.91,3091.00 114.01,3079.00 114.01,3079.00              114.01,3079.00 116.91,3054.00 116.91,3054.00              116.41,3046.18 113.80,3039.76 113.66,3037.00              113.66,3037.00 113.66,3027.00 113.66,3027.00              113.66,3027.00 113.66,3020.00 113.66,3020.00              113.66,3020.00 117.32,3009.00 117.32,3009.00              117.32,3009.00 118.97,2987.00 118.97,2987.00              118.97,2979.49 115.34,2973.99 115.34,2966.00              115.33,2953.09 120.16,2951.50 120.00,2937.00              119.90,2928.15 117.51,2926.07 117.38,2922.00              117.38,2922.00 118.96,2911.00 118.96,2911.00              118.96,2911.00 118.32,2902.00 118.32,2902.00              118.32,2902.00 118.91,2891.00 118.91,2891.00              118.58,2885.65 116.75,2882.96 116.21,2879.00              115.62,2874.65 116.89,2870.35 116.99,2866.00              117.27,2853.54 113.87,2853.30 113.79,2847.00              113.68,2839.43 116.34,2837.35 117.50,2831.00              118.73,2824.65 117.29,2820.83 117.50,2817.00              117.50,2817.00 118.91,2808.00 118.91,2808.00              119.71,2794.85 111.34,2792.79 113.29,2777.00              113.29,2777.00 115.70,2761.00 115.70,2761.00              115.70,2761.00 122.63,2748.00 122.63,2748.00              122.63,2748.00 131.32,2723.00 131.32,2723.00              134.26,2710.01 129.18,2703.07 128.48,2698.00              127.88,2693.72 130.28,2691.29 129.96,2683.00              129.96,2683.00 128.96,2675.00 128.96,2675.00              128.96,2675.00 128.96,2666.00 128.96,2666.00              128.96,2666.00 127.46,2657.00 127.46,2657.00              127.55,2649.96 129.83,2645.36 128.83,2636.00              128.83,2636.00 126.46,2625.00 126.46,2625.00              126.46,2625.00 125.53,2616.00 125.53,2616.00              125.01,2613.20 123.41,2609.58 123.59,2607.00              123.59,2607.00 128.89,2586.00 128.89,2586.00              128.89,2586.00 128.89,2578.00 128.89,2578.00              128.89,2578.00 129.97,2569.00 129.97,2569.00              129.97,2569.00 128.75,2550.00 128.75,2550.00              128.75,2550.00 128.75,2541.00 128.75,2541.00              128.71,2537.51 127.71,2534.62 128.21,2531.00              128.94,2525.77 132.37,2523.08 131.96,2513.00              131.46,2500.61 124.85,2497.62 125.00,2484.00              125.00,2484.00 126.91,2454.00 126.91,2454.00              126.48,2447.81 122.90,2441.30 123.54,2435.00              123.54,2435.00 130.83,2411.00 130.83,2411.00              132.01,2399.99 126.67,2394.31 126.49,2389.00              126.49,2389.00 127.29,2372.00 127.29,2372.00              128.09,2365.49 130.23,2359.60 129.96,2353.00              129.58,2343.65 125.58,2341.21 125.66,2337.00              125.66,2337.00 128.50,2327.00 128.50,2327.00              129.60,2321.33 128.30,2318.43 128.50,2315.00              128.65,2311.06 130.25,2309.17 129.96,2302.00              129.66,2294.44 127.00,2291.85 126.78,2288.00              126.78,2288.00 126.78,2273.00 126.78,2273.00              126.88,2263.05 123.99,2262.23 124.47,2256.00              124.47,2256.00 126.91,2224.00 126.91,2224.00              126.91,2224.00 125.75,2214.00 125.75,2214.00              125.91,2210.45 126.99,2209.32 126.99,2203.00              126.99,2203.00 126.46,2193.00 126.46,2193.00              126.89,2189.52 129.30,2185.96 128.91,2179.00              128.91,2179.00 127.74,2165.00 127.74,2165.00              127.74,2165.00 127.74,2155.00 127.74,2155.00              127.74,2155.00 127.74,2147.00 127.74,2147.00              127.74,2147.00 129.71,2136.00 129.71,2136.00              129.71,2136.00 130.96,2109.00 130.96,2109.00              130.96,2109.00 128.08,2081.00 128.08,2081.00              128.08,2081.00 128.08,2066.00 128.08,2066.00              128.08,2066.00 129.96,2048.00 129.96,2048.00              129.66,2040.54 127.85,2042.07 128.00,2029.00              128.00,2029.00 129.96,2005.00 129.96,2005.00              129.96,2005.00 129.00,1990.00 129.00,1990.00              129.00,1990.00 130.00,1958.00 130.00,1958.00              130.00,1958.00 132.00,1934.00 132.00,1934.00              132.00,1934.00 132.00,1909.00 132.00,1909.00              132.00,1909.00 132.83,1900.00 132.83,1900.00              133.70,1890.93 133.48,1884.50 138.63,1876.04              141.64,1871.10 145.33,1870.23 149.47,1864.99              154.29,1858.89 157.97,1845.79 157.97,1838.00              157.97,1830.29 154.46,1822.50 148.91,1817.18              140.24,1808.88 135.03,1811.60 135.00,1799.00              135.00,1799.00 135.00,1787.00 135.00,1787.00              135.00,1787.00 134.04,1773.00 134.04,1773.00              134.04,1773.00 134.96,1765.00 134.96,1765.00              134.96,1765.00 134.96,1751.00 134.96,1751.00              134.96,1751.00 138.00,1715.00 138.00,1715.00              138.00,1715.00 137.34,1700.00 137.34,1700.00              137.34,1700.00 138.00,1683.00 138.00,1683.00              138.00,1683.00 136.30,1669.00 136.30,1669.00              136.75,1663.17 140.16,1663.42 140.00,1649.00              139.91,1641.48 138.35,1640.02 138.10,1635.00              138.10,1635.00 138.96,1625.00 138.96,1625.00              139.36,1614.77 134.93,1606.84 135.21,1601.00              135.21,1601.00 136.11,1595.00 136.11,1595.00              136.11,1595.00 136.11,1586.00 136.11,1586.00              136.11,1586.00 138.00,1578.00 138.00,1578.00              138.00,1578.00 138.00,1570.00 138.00,1570.00              138.78,1564.30 140.24,1563.28 139.96,1556.00              139.96,1556.00 138.72,1538.00 138.72,1538.00              138.77,1533.52 140.23,1531.61 139.91,1526.00              139.91,1526.00 138.18,1505.00 138.18,1505.00              138.18,1505.00 139.00,1495.00 139.00,1495.00              139.04,1487.36 138.58,1484.73 140.21,1477.00              140.21,1477.00 141.89,1469.00 141.89,1469.00              141.89,1469.00 141.89,1450.00 141.89,1450.00              141.70,1443.54 139.73,1441.89 140.04,1434.00              140.04,1434.00 140.96,1422.00 140.96,1422.00              140.96,1422.00 140.34,1415.00 140.34,1415.00              140.34,1415.00 141.00,1404.00 141.00,1404.00              141.00,1404.00 141.00,1376.00 141.00,1376.00              141.02,1364.65 143.44,1365.60 143.91,1358.00              143.91,1358.00 143.00,1344.00 143.00,1344.00              143.00,1344.00 143.00,1323.00 143.00,1323.00              143.00,1323.00 142.00,1307.00 142.00,1307.00              142.00,1307.00 142.00,1287.00 142.00,1287.00              142.00,1287.00 143.91,1256.00 143.91,1256.00              143.91,1256.00 142.21,1246.00 142.21,1246.00              142.21,1246.00 143.00,1229.00 143.00,1229.00              143.00,1229.00 142.39,1217.00 142.39,1217.00              142.39,1217.00 144.54,1207.00 144.54,1207.00              144.54,1207.00 145.91,1188.00 145.91,1188.00              145.71,1184.46 144.78,1181.82 145.11,1178.00              145.62,1172.00 149.42,1168.95 148.91,1160.00              148.91,1160.00 145.61,1141.00 145.61,1141.00              145.61,1141.00 147.91,1127.00 147.91,1127.00              148.22,1121.85 146.95,1119.64 146.89,1116.00              146.89,1116.00 146.89,1104.00 146.89,1104.00              146.89,1104.00 148.96,1089.00 148.96,1089.00              148.96,1089.00 148.96,1079.00 148.96,1079.00              148.96,1079.00 150.00,1060.00 150.00,1060.00              150.00,1060.00 151.75,1039.00 151.75,1039.00              151.75,1039.00 151.75,1030.00 151.75,1030.00              151.75,1030.00 152.75,1012.00 152.75,1012.00              152.75,1012.00 152.75,1000.00 152.75,1000.00              153.33,993.92 156.37,989.58 155.91,982.00              155.91,982.00 154.26,971.00 154.26,971.00              154.26,971.00 156.71,938.00 156.71,938.00              156.71,938.00 156.71,918.00 156.71,918.00              156.71,918.00 156.71,901.00 156.71,901.00              156.71,901.00 156.71,891.00 156.71,891.00              157.66,872.92 160.49,877.19 162.72,864.00              164.12,855.65 163.99,853.23 164.00,845.00              164.01,836.04 165.12,836.10 165.91,829.00              165.91,829.00 165.91,807.00 165.91,807.00              165.90,798.88 164.63,799.42 163.37,793.00              163.37,793.00 160.39,771.00 160.39,771.00              160.13,766.79 162.58,762.32 162.91,757.00              163.26,751.31 161.64,748.63 161.47,745.00              161.47,745.00 162.00,735.00 162.00,735.00              162.00,735.00 162.00,731.00 162.00,731.00              162.00,731.00 162.98,720.00 162.98,720.00              162.98,720.00 162.98,703.00 162.98,703.00              163.20,686.50 168.89,681.02 170.71,667.00              171.84,658.35 169.85,652.75 170.18,648.00              170.18,648.00 171.00,634.00 171.00,634.00              171.00,634.00 173.00,607.00 173.00,607.00              173.00,607.00 175.83,584.00 175.83,584.00              175.83,584.00 177.90,565.00 177.90,565.00              177.90,565.00 184.12,544.00 184.12,544.00              184.12,544.00 186.75,530.00 186.75,530.00              186.75,530.00 193.53,508.00 193.53,508.00              193.53,508.00 196.91,488.00 196.91,488.00              196.91,488.00 196.32,477.00 196.32,477.00              196.32,477.00 197.00,467.00 197.00,467.00              197.00,467.00 197.00,448.00 197.00,448.00              197.13,438.29 199.98,440.20 200.00,427.00              200.00,427.00 199.18,410.00 199.18,410.00              199.18,410.00 200.17,398.00 200.17,398.00              200.17,398.00 202.91,382.00 202.91,382.00              203.60,371.93 200.79,369.49 201.10,363.00              201.38,357.37 205.22,346.68 204.98,335.00              204.84,327.85 202.95,326.05 202.66,322.00              202.42,318.68 203.85,314.57 202.07,308.00              200.48,302.13 197.68,299.28 196.13,295.00              195.17,292.34 194.52,283.22 194.37,280.00              194.22,276.70 195.00,275.07 195.54,272.00              195.54,272.00 196.39,265.00 196.39,265.00              196.39,265.00 201.47,251.00 201.47,251.00              203.89,244.46 205.76,237.52 210.17,232.00              212.09,229.61 216.62,223.61 219.09,222.35              222.06,220.84 231.21,223.09 236.00,222.99              242.07,222.85 246.02,221.45 253.00,222.10              253.00,222.10 264.00,224.70 264.00,224.70              268.85,225.41 270.61,224.49 275.00,224.18              275.00,224.18 287.00,224.96 287.00,224.96              287.00,224.96 305.00,223.04 305.00,223.04              305.00,223.04 319.00,224.00 319.00,224.00              319.00,224.00 332.00,223.26 332.00,223.26              336.53,223.44 337.18,224.98 347.00,225.00              347.00,225.00 357.00,225.00 357.00,225.00              357.00,225.00 369.00,224.18 369.00,224.18              369.00,224.18 394.00,225.96 394.00,225.96              394.00,225.96 413.00,223.08 413.00,223.08              413.00,223.08 422.00,223.08 422.00,223.08              422.00,223.08 440.00,221.00 440.00,221.00              440.00,221.00 444.00,221.00 444.00,221.00              444.00,221.00 467.00,219.00 467.00,219.00              467.00,219.00 502.00,218.00 502.00,218.00              501.48,227.29 498.08,227.19 495.93,235.00              495.93,235.00 493.55,249.00 493.55,249.00              489.66,268.50 483.89,299.74 509.00,307.78              512.27,308.82 515.59,309.10 519.00,308.96              526.96,308.64 536.36,303.53 541.83,297.91              541.83,297.91 553.58,284.21 553.58,284.21              553.58,284.21 564.91,275.82 564.91,275.82              569.49,271.50 580.35,256.81 583.18,251.00              583.18,251.00 586.40,243.00 586.40,243.00              586.40,243.00 594.53,226.00 594.53,226.00              595.60,223.33 596.53,217.58 598.56,216.01              601.01,214.11 608.84,214.00 612.00,214.00              612.00,214.00 643.00,214.00 643.00,214.00              643.00,214.00 669.00,212.04 669.00,212.04              669.00,212.04 687.00,212.96 687.00,212.96              687.00,212.96 699.00,212.00 699.00,212.00              699.00,212.00 734.00,212.00 734.00,212.00              734.00,212.00 759.00,210.00 759.00,210.00              759.00,210.00 772.00,210.00 772.00,210.00              772.00,210.00 784.00,208.88 784.00,208.88              784.00,208.88 803.00,208.88 803.00,208.88              803.00,208.88 811.00,208.88 811.00,208.88              811.00,208.88 823.00,208.18 823.00,208.18              823.00,208.18 835.00,209.00 835.00,209.00              835.00,209.00 857.00,208.32 857.00,208.32              861.33,208.65 863.28,209.23 868.00,208.91              868.00,208.91 895.00,207.09 895.00,207.09              895.00,207.09 907.00,208.00 907.00,208.00              907.00,208.00 924.00,207.00 924.00,207.00              924.00,207.00 937.00,207.00 937.00,207.00              937.00,207.00 974.00,204.00 974.00,204.00              974.00,204.00 991.00,204.00 991.00,204.00              991.00,204.00 1006.00,204.96 1006.00,204.96              1006.00,204.96 1017.00,203.96 1017.00,203.96              1017.00,203.96 1027.00,203.96 1027.00,203.96              1027.00,203.96 1037.00,203.00 1037.00,203.00              1037.00,203.00 1051.00,203.00 1051.00,203.00              1051.00,203.00 1068.00,201.79 1068.00,201.79              1068.00,201.79 1079.00,201.79 1079.00,201.79              1087.77,201.78 1090.16,198.92 1095.00,198.41              1095.00,198.41 1112.00,199.97 1112.00,199.97              1112.00,199.97 1151.00,199.97 1151.00,199.97              1151.00,199.97 1170.00,198.00 1170.00,198.00              1170.00,198.00 1187.00,198.91 1187.00,198.91              1187.00,198.91 1209.00,197.09 1209.00,197.09              1214.20,197.39 1215.61,198.35 1222.00,197.91              1222.00,197.91 1246.00,196.32 1246.00,196.32              1246.00,196.32 1255.00,197.00 1255.00,197.00              1255.00,197.00 1272.00,196.00 1272.00,196.00              1272.00,196.00 1316.00,193.00 1316.00,193.00              1316.00,193.00 1326.00,193.96 1326.00,193.96              1326.00,193.96 1337.00,193.96 1337.00,193.96              1337.00,193.96 1350.00,194.91 1350.00,194.91              1350.00,194.91 1363.00,193.87 1363.00,193.87              1363.00,193.87 1372.00,193.87 1372.00,193.87              1372.00,193.87 1391.00,194.91 1391.00,194.91              1396.52,194.53 1398.91,192.78 1403.00,192.21              1403.00,192.21 1428.00,191.00 1428.00,191.00              1428.00,191.00 1439.00,191.96 1439.00,191.96              1439.00,191.96 1453.00,191.96 1453.00,191.96              1466.10,191.98 1464.42,189.02 1477.00,189.00              1477.00,189.00 1502.00,189.00 1502.00,189.00              1502.00,189.00 1521.00,190.98 1521.00,190.98              1528.21,191.13 1528.89,189.98 1533.00,189.87              1533.00,189.87 1545.00,189.87 1545.00,189.87              1545.00,189.87 1570.00,187.34 1570.00,187.34              1574.88,186.36 1586.61,183.84 1591.00,184.09              1591.00,184.09 1612.00,185.91 1612.00,185.91              1617.11,185.62 1618.86,184.64 1625.00,185.09              1625.00,185.09 1633.00,186.54 1633.00,186.54              1633.00,186.54 1648.00,188.00 1648.00,188.00              1648.00,188.00 1670.00,186.00 1670.00,186.00              1670.00,186.00 1692.00,186.91 1692.00,186.91              1692.00,186.91 1705.00,184.09 1705.00,184.09              1705.00,184.09 1724.00,184.09 1724.00,184.09              1724.00,184.09 1745.00,181.57 1745.00,181.57              1751.73,181.59 1755.78,184.28 1764.00,183.96              1764.00,183.96 1786.00,181.37 1786.00,181.37              1786.00,181.37 1798.00,181.96 1798.00,181.96              1798.00,181.96 1814.00,181.96 1814.00,181.96              1814.00,181.96 1822.00,181.08 1822.00,181.08              1822.00,181.08 1831.00,181.96 1831.00,181.96              1831.00,181.96 1852.00,180.00 1852.00,180.00              1852.00,180.00 1905.00,180.00 1905.00,180.00              1905.00,180.00 1918.00,178.46 1918.00,178.46              1918.00,178.46 1931.00,180.00 1931.00,180.00              1931.00,180.00 1939.00,180.00 1939.00,180.00              1945.28,180.08 1949.40,181.54 1956.00,180.83              1956.00,180.83 1970.00,178.04 1970.00,178.04              1970.00,178.04 1986.00,178.97 1986.00,178.97              1986.00,178.97 2005.00,177.32 2005.00,177.32              2005.00,177.32 2030.00,178.00 2030.00,178.00              2030.00,178.00 2062.00,176.32 2062.00,176.32              2066.33,176.65 2068.28,177.23 2073.00,176.91              2073.00,176.91 2092.00,175.00 2092.00,175.00              2092.00,175.00 2117.00,175.00 2117.00,175.00              2117.00,175.00 2138.00,176.00 2138.00,176.00              2138.00,176.00 2151.00,175.00 2151.00,175.00              2151.00,175.00 2175.00,175.00 2175.00,175.00              2175.00,175.00 2188.00,175.96 2188.00,175.96              2188.00,175.96 2206.00,174.83 2206.00,174.83              2206.00,174.83 2230.00,171.57 2230.00,171.57              2230.00,171.57 2252.00,172.96 2252.00,172.96              2252.00,172.96 2263.00,172.18 2263.00,172.18              2263.00,172.18 2275.00,173.00 2275.00,173.00              2275.00,173.00 2296.00,173.00 2296.00,173.00              2296.00,173.00 2313.00,171.09 2313.00,171.09              2313.00,171.09 2351.00,174.00 2351.00,174.00              2351.00,174.00 2367.00,173.00 2367.00,173.00              2367.00,173.00 2397.00,171.00 2397.00,171.00              2397.00,171.00 2414.00,171.00 2414.00,171.00              2414.00,171.00 2424.00,171.96 2424.00,171.96              2424.00,171.96 2438.00,171.96 2438.00,171.96              2438.00,171.96 2450.00,171.04 2450.00,171.04              2450.00,171.04 2462.00,171.04 2462.00,171.04              2462.00,171.04 2472.00,170.18 2472.00,170.18              2472.00,170.18 2483.00,171.91 2483.00,171.91              2487.16,172.16 2489.20,171.35 2493.00,171.04              2493.00,171.04 2502.00,171.04 2502.00,171.04              2502.00,171.04 2512.00,169.90 2512.00,169.90              2512.00,169.90 2524.00,169.90 2524.00,169.90              2524.00,169.90 2535.00,169.90 2535.00,169.90              2535.00,169.90 2552.00,169.90 2552.00,169.90              2552.00,169.90 2569.00,169.00 2569.00,169.00              2569.00,169.00 2604.00,169.00 2604.00,169.00              2604.00,169.00 2620.00,168.04 2620.00,168.04              2620.00,168.04 2635.00,168.96 2635.00,168.96              2635.00,168.96 2649.00,167.04 2649.00,167.04              2649.00,167.04 2665.00,167.96 2665.00,167.96              2665.00,167.96 2673.00,167.18 2673.00,167.18              2673.00,167.18 2683.00,167.96 2683.00,167.96              2683.00,167.96 2694.00,167.00 2694.00,167.00              2694.00,167.00 2715.00,167.00 2715.00,167.00              2715.00,167.00 2730.00,166.01 2730.00,166.01              2730.00,166.01 2749.00,167.00 2749.00,167.00              2749.00,167.00 2767.00,166.00 2767.00,166.00              2767.00,166.00 2782.00,166.99 2782.00,166.99              2782.00,166.99 2797.00,166.00 2797.00,166.00              2797.00,166.00 2810.00,167.00 2810.00,167.00              2810.00,167.00 2833.00,167.00 2833.00,167.00              2841.70,166.89 2844.41,164.49 2849.00,164.27              2853.30,164.07 2855.65,166.15 2864.00,165.98              2872.04,165.83 2870.95,163.85 2884.00,164.00              2884.00,164.00 2897.00,165.00 2897.00,165.00              2897.00,165.00 2929.00,166.00 2929.00,166.00              2929.00,166.00 2941.00,165.10 2941.00,165.10              2941.00,165.10 2961.00,167.00 2961.00,167.00              2961.00,167.00 2982.00,164.79 2982.00,164.79              2982.00,164.79 3010.00,164.79 3010.00,164.79              3010.00,164.79 3060.00,164.79 3060.00,164.79              3060.00,164.79 3069.00,164.79 3069.00,164.79              3069.00,164.79 3075.00,164.79 3075.00,164.79              3078.91,164.65 3080.78,166.24 3088.00,165.96              3095.32,165.67 3096.03,163.75 3107.00,164.01              3107.00,164.01 3136.00,165.91 3136.00,165.91              3136.00,165.91 3150.00,164.00 3150.00,164.00              3150.00,164.00 3161.00,164.00 3161.00,164.00              3164.75,163.46 3166.99,162.48 3171.00,162.78              3176.26,163.18 3177.37,164.25 3184.00,163.96              3184.00,163.96 3194.00,162.60 3194.00,162.60              3194.00,162.60 3203.00,163.95 3203.00,163.95              3203.00,163.95 3220.00,163.95 3220.00,163.95              3220.00,163.95 3243.00,161.00 3243.00,161.00              3243.00,161.00 3266.00,160.00 3266.00,160.00              3266.00,160.00 3281.00,158.84 3281.00,158.84              3281.00,158.84 3300.00,158.84 3300.00,158.84              3300.00,158.84 3315.00,158.84 3315.00,158.84              3315.00,158.84 3335.00,159.84 3335.00,159.84              3335.00,159.84 3345.00,159.84 3345.00,159.84              3345.00,159.84 3359.00,159.84 3359.00,159.84              3359.00,159.84 3383.00,157.89 3383.00,157.89              3383.00,157.89 3397.00,157.89 3397.00,157.89              3397.00,157.89 3407.00,157.89 3407.00,157.89              3407.00,157.89 3431.00,159.00 3431.00,159.00              3438.22,158.91 3440.01,157.41 3444.00,157.26              3444.00,157.26 3454.00,158.00 3454.00,158.00              3454.00,158.00 3477.00,158.91 3477.00,158.91              3477.00,158.91 3487.00,157.17 3487.00,157.17              3487.00,157.17 3508.00,156.00 3508.00,156.00              3508.00,156.00 3533.00,156.00 3533.00,156.00              3533.00,156.00 3548.00,155.00 3548.00,155.00              3548.00,155.00 3564.00,155.00 3564.00,155.00              3564.00,155.00 3577.00,154.04 3577.00,154.04              3577.00,154.04 3587.00,154.95 3587.00,154.95              3587.00,154.95 3601.00,154.95 3601.00,154.95              3601.00,154.95 3611.00,154.00 3611.00,154.00              3611.00,154.00 3621.00,154.00 3621.00,154.00              3621.00,154.00 3628.00,153.18 3628.00,153.18              3628.00,153.18 3637.00,153.85 3637.00,153.85              3637.00,153.85 3646.00,153.85 3646.00,153.85              3646.00,153.85 3697.00,153.85 3697.00,153.85              3697.00,153.85 3721.00,152.00 3721.00,152.00              3721.00,152.00 3787.00,152.00 3787.00,152.00              3787.00,152.00 3807.00,153.00 3807.00,153.00              3807.00,153.00 3826.00,151.00 3826.00,151.00              3826.00,151.00 3845.00,151.00 3845.00,151.00              3845.00,151.00 3865.00,149.37 3865.00,149.37              3865.00,149.37 3875.00,149.91 3875.00,149.91              3875.00,149.91 3887.00,149.00 3887.00,149.00              3887.00,149.00 3911.00,149.00 3911.00,149.00              3911.00,149.00 3932.00,151.00 3932.00,151.00              3932.00,151.00 3960.00,151.00 3960.00,151.00              3968.96,151.01 3968.90,152.12 3976.00,152.91              3976.00,152.91 3990.00,152.91 3990.00,152.91              3990.00,152.91 4005.00,152.00 4005.00,152.00              4005.00,152.00 4015.00,152.00 4015.00,152.00              4015.00,152.00 4024.00,151.34 4024.00,151.34              4024.00,151.34 4038.00,152.00 4038.00,152.00              4038.00,152.00 4053.00,151.15 4053.00,151.15              4053.00,151.15 4071.00,151.15 4071.00,151.15              4077.48,152.22 4080.73,153.91 4088.00,154.00              4088.00,154.00 4110.00,153.00 4110.00,153.00              4121.84,152.98 4117.48,153.70 4127.00,155.53              4127.00,155.53 4134.00,156.69 4134.00,156.69              4137.26,157.77 4139.11,159.73 4144.00,161.07              4149.33,162.53 4152.20,161.61 4157.00,162.30              4165.96,163.58 4174.89,166.20 4184.00,165.99              4200.19,165.61 4210.26,148.52 4226.00,149.51              4246.53,150.81 4251.10,146.19 4267.00,146.00              4267.00,146.00 4276.00,146.00 4276.00,146.00              4276.00,146.00 4289.00,146.91 4289.00,146.91              4289.00,146.91 4309.00,145.03 4309.00,145.03              4309.00,145.03 4319.00,145.96 4319.00,145.96              4327.40,146.33 4329.74,145.08 4334.00,145.08              4334.00,145.08 4343.00,145.96 4343.00,145.96              4343.00,145.96 4358.00,145.32 4358.00,145.32              4358.00,145.32 4375.00,145.87 4375.00,145.87              4375.00,145.87 4403.00,145.87 4403.00,145.87              4403.00,145.87 4425.00,145.00 4425.00,145.00              4425.00,145.00 4436.00,144.08 4436.00,144.08              4436.00,144.08 4448.00,145.00 4448.00,145.00              4448.00,145.00 4482.00,143.00 4482.00,143.00              4482.00,143.00 4507.00,143.00 4507.00,143.00              4507.00,143.00 4519.00,143.96 4519.00,143.96              4525.54,144.21 4526.44,143.09 4532.00,142.30              4532.00,142.30 4549.00,141.00 4549.00,141.00              4549.00,141.00 4597.00,141.00 4597.00,141.00              4597.00,141.00 4623.00,142.99 4623.00,142.99              4623.00,142.99 4661.00,140.00 4661.00,140.00              4661.00,140.00 4704.00,140.00 4704.00,140.00              4704.00,140.00 4725.00,138.04 4725.00,138.04              4725.00,138.04 4736.00,138.04 4736.00,138.04              4736.00,138.04 4744.00,137.04 4744.00,137.04              4744.00,137.04 4759.00,138.04 4759.00,138.04              4759.00,138.04 4771.00,138.04 4771.00,138.04              4771.00,138.04 4781.00,139.00 4781.00,139.00              4785.79,139.05 4794.32,138.37 4799.00,137.54              4799.00,137.54 4808.00,135.63 4808.00,135.63              4808.00,135.63 4821.00,136.97 4821.00,136.97              4821.00,136.97 4833.00,136.00 4833.00,136.00              4833.00,136.00 4855.00,136.00 4855.00,136.00              4863.47,136.10 4865.36,138.12 4872.00,138.96              4872.00,138.96 4881.00,138.96 4881.00,138.96              4881.00,138.96 4888.00,139.95 4888.00,139.95              4888.00,139.95 4912.00,139.95 4912.00,139.95              4923.78,139.86 4932.53,134.14 4949.00,134.74              4949.00,134.74 4966.00,134.18 4966.00,134.18              4971.69,134.61 4973.95,136.20 4981.00,135.96              4981.00,135.96 4995.00,135.96 4995.00,135.96              4995.00,135.96 5004.00,135.08 5004.00,135.08              5004.00,135.08 5015.00,136.00 5015.00,136.00              5015.00,136.00 5069.00,137.00 5069.00,137.00              5069.00,137.00 5088.00,137.00 5088.00,137.00              5088.00,137.00 5107.00,136.00 5107.00,136.00              5107.00,136.00 5140.00,138.00 5140.00,138.00              5140.00,138.00 5156.00,136.09 5156.00,136.09              5156.00,136.09 5176.00,136.09 5176.00,136.09              5176.00,136.09 5191.00,136.99 5191.00,136.99              5191.00,136.99 5209.00,135.00 5209.00,135.00              5209.00,135.00 5252.00,135.00 5252.00,135.00              5252.00,135.00 5268.00,134.02 5268.00,134.02              5268.00,134.02 5279.00,134.99 5279.00,134.99              5279.00,134.99 5291.00,134.00 5291.00,134.00              5291.00,134.00 5300.00,134.00 5300.00,134.00              5300.00,134.00 5321.00,132.74 5321.00,132.74              5321.00,132.74 5342.00,134.00 5342.00,134.00              5342.00,134.00 5350.00,134.00 5350.00,134.00              5350.00,134.00 5366.00,133.09 5366.00,133.09              5366.00,133.09 5386.00,134.96 5386.00,134.96              5386.00,134.96 5396.00,133.30 5396.00,133.30              5396.00,133.30 5417.00,131.82 5417.00,131.82              5417.00,131.82 5435.00,131.82 5435.00,131.82              5435.00,131.82 5443.00,131.82 5443.00,131.82              5443.00,131.82 5466.00,129.84 5466.00,129.84              5466.00,129.84 5493.00,129.84 5493.00,129.84              5493.00,129.84 5508.00,129.84 5508.00,129.84              5508.00,129.84 5530.00,128.18 5530.00,128.18              5530.00,128.18 5551.00,129.00 5551.00,129.00              5551.00,129.00 5583.00,127.09 5583.00,127.09              5583.00,127.09 5593.00,128.00 5593.00,128.00              5593.00,128.00 5598.00,128.00 5598.00,128.00              5598.00,128.00 5608.00,128.95 5608.00,128.95              5608.00,128.95 5621.00,128.95 5621.00,128.95              5627.97,128.91 5629.22,127.65 5633.00,127.47              5633.00,127.47 5644.00,128.00 5644.00,128.00              5644.00,128.00 5657.00,128.00 5657.00,128.00              5657.00,128.00 5687.00,126.00 5687.00,126.00              5687.00,126.00 5714.00,126.00 5714.00,126.00              5714.00,126.00 5733.00,124.04 5733.00,124.04              5733.00,124.04 5743.00,124.04 5743.00,124.04              5743.00,124.04 5755.00,122.84 5755.00,122.84              5755.00,122.84 5778.00,122.84 5778.00,122.84              5778.00,122.84 5788.00,122.84 5788.00,122.84              5803.66,122.98 5808.76,116.51 5827.00,117.02              5835.40,117.25 5837.25,121.39 5848.00,120.96              5855.22,120.67 5854.28,118.87 5866.00,119.00              5866.00,119.00 5896.00,121.96 5896.00,121.96              5896.00,121.96 5905.00,121.08 5905.00,121.08              5909.44,121.08 5911.71,122.43 5918.00,121.83              5931.46,120.55 5926.05,118.78 5945.00,119.00              5945.00,119.00 5958.00,119.91 5958.00,119.91              5958.00,119.91 5982.00,118.76 5982.00,118.76              5982.00,118.76 5994.00,120.83 5994.00,120.83              5994.00,120.83 6010.00,121.98 6010.00,121.98              6010.00,121.98 6019.00,121.18 6019.00,121.18              6019.00,121.18 6028.00,121.97 6028.00,121.97              6035.95,121.97 6038.00,119.11 6047.00,119.00              6047.00,119.00 6060.00,119.00 6060.00,119.00              6070.11,118.88 6070.88,116.95 6079.00,112.37              6079.00,112.37 6089.00,107.51 6089.00,107.51              6089.00,107.51 6103.00,102.68 6103.00,102.68              6103.00,102.68 6117.00,95.21 6117.00,95.21              6117.00,95.21 6135.00,89.18 6135.00,89.18              6135.00,89.18 6152.00,86.72 6152.00,86.72              6154.88,86.23 6158.13,85.08 6161.00,85.48              6161.00,85.48 6171.00,88.53 6171.00,88.53              6171.00,88.53 6183.00,89.79 6183.00,89.79              6188.40,91.31 6190.12,93.41 6197.00,93.91              6207.01,94.64 6212.57,91.12 6222.00,89.23              6226.13,88.74 6231.68,89.05 6236.00,89.23              6236.00,89.23 6250.00,88.09 6250.00,88.09              6256.09,88.51 6255.95,89.96 6265.00,89.91              6265.00,89.91 6279.00,89.91 6279.00,89.91              6279.00,89.91 6290.00,88.02 6290.00,88.02              6290.00,88.02 6311.00,88.02 6311.00,88.02              6311.00,88.02 6339.00,86.32 6339.00,86.32              6339.00,86.32 6358.00,87.00 6358.00,87.00              6358.00,87.00 6373.00,88.92 6373.00,88.92              6373.00,88.92 6382.00,88.92 6382.00,88.92              6388.75,89.08 6388.48,89.91 6394.00,90.70              6394.00,90.70 6402.00,91.42 6402.00,91.42              6402.00,91.42 6417.00,93.91 6417.00,93.91              6424.28,94.41 6426.77,92.25 6433.00,92.04              6433.00,92.04 6446.00,92.91 6446.00,92.91              6446.00,92.91 6458.00,92.01 6458.00,92.01              6458.00,92.01 6470.00,93.00 6470.00,93.00              6470.00,93.00 6486.00,93.00 6486.00,93.00              6497.20,93.02 6495.26,94.99 6503.00,95.83              6508.21,96.39 6522.56,94.58 6528.00,93.53              6528.00,93.53 6545.00,89.25 6545.00,89.25              6545.00,89.25 6553.00,86.30 6553.00,86.30              6553.00,86.30 6589.00,79.83 6589.00,79.83              6594.09,79.23 6596.28,77.77 6602.00,78.09              6602.00,78.09 6613.00,78.96 6613.00,78.96              6622.21,78.59 6618.66,76.03 6636.00,76.00              6648.21,75.98 6647.75,73.89 6658.00,71.67              6658.00,71.67 6672.00,69.70 6672.00,69.70              6683.62,67.86 6676.15,67.18 6692.00,67.00              6692.00,67.00 6726.00,62.30 6726.00,62.30              6726.00,62.30 6741.00,61.60 6741.00,61.60              6744.45,61.07 6745.82,61.73 6749.00,61.60              6749.00,61.60 6757.00,61.60 6757.00,61.60              6760.00,61.57 6774.44,63.71 6777.00,64.56              6777.00,64.56 6788.00,70.44 6788.00,70.44              6793.79,72.59 6796.56,71.52 6801.00,72.37              6809.68,74.04 6809.27,75.70 6820.00,74.91              6825.39,74.52 6829.72,72.77 6834.00,69.47              6838.03,66.36 6839.11,63.60 6844.00,62.00 Z            M 149.00,4612.50            C 149.00,4612.50 140.00,4613.74 140.00,4613.74              134.87,4613.91 130.22,4612.14 125.21,4615.89              120.78,4619.20 119.43,4626.64 124.23,4630.26              127.05,4632.39 130.72,4631.78 134.00,4632.32              137.86,4632.96 142.07,4634.93 146.00,4634.73              147.62,4634.64 161.57,4630.67 162.77,4629.86              163.89,4629.12 164.75,4628.21 165.16,4626.89              167.02,4620.79 153.90,4613.19 149.00,4612.50 Z"
            style="fill:#000000;fill-opacity:1"/>
</svg>
