<?xml version="1.0" encoding="UTF-8" standalone="no"?>
<svg
        width="172.89mm"
        height="90.1278mm"
        viewBox="0 0 8168 4258"
        version="1.1"
        id="svg1241"
        sodipodi:docname="sheet10a.svg"
        inkscape:version="1.1.1 (3bf5ae0d25, 2021-09-20)"
        xmlns:inkscape="http://www.inkscape.org/namespaces/inkscape"
        xmlns:sodipodi="http://sodipodi.sourceforge.net/DTD/sodipodi-0.dtd"
        xmlns="http://www.w3.org/2000/svg"
>
    <defs
            id="defs1245"/>
    <sodipodi:namedview
            id="namedview1243"
            pagecolor="#ffffff"
            bordercolor="#666666"
            borderopacity="1.0"
            inkscape:pageshadow="2"
            inkscape:pageopacity="0.0"
            inkscape:pagecheckerboard="0"
            inkscape:document-units="mm"
            showgrid="false"
            inkscape:zoom="1.6191172"
            inkscape:cx="326.41245"
            inkscape:cy="170.15446"
            inkscape:window-width="1920"
            inkscape:window-height="1001"
            inkscape:window-x="-7"
            inkscape:window-y="-7"
            inkscape:window-maximized="1"
            inkscape:current-layer="svg1241"/>
    <path
            id="Selection #1"
            fill="none"
            stroke="black"
            stroke-width="1"
            d="M 140.00,127.00            C 153.37,126.88 166.03,119.10 174.54,108.99              182.96,98.96 182.73,93.73 195.00,86.61              203.56,81.64 209.52,84.92 218.00,85.79              218.00,85.79 229.00,85.79 229.00,85.79              229.00,85.79 239.00,85.79 239.00,85.79              246.29,86.37 246.21,88.98 259.00,89.00              259.00,89.00 293.00,90.17 293.00,90.17              293.00,90.17 301.00,91.70 301.00,91.70              301.00,91.70 313.00,92.96 313.00,92.96              313.00,92.96 323.00,92.96 323.00,92.96              329.79,93.59 328.44,94.98 339.00,95.00              339.00,95.00 358.00,94.04 358.00,94.04              362.11,93.88 377.55,96.10 382.00,97.00              382.00,97.00 392.00,98.91 392.00,98.91              401.56,99.56 408.46,95.17 413.00,94.81              413.00,94.81 440.00,96.91 440.00,96.91              440.00,96.91 458.00,96.00 458.00,96.00              458.00,96.00 473.00,96.00 473.00,96.00              473.00,96.00 514.00,100.16 514.00,100.16              514.00,100.16 527.00,102.95 527.00,102.95              527.00,102.95 539.00,102.95 539.00,102.95              539.00,102.95 555.00,106.91 555.00,106.91              563.09,107.46 566.02,105.00 573.00,103.52              573.00,103.52 595.00,101.01 595.00,101.01              595.00,101.01 604.00,101.96 604.00,101.96              604.00,101.96 620.00,101.96 620.00,101.96              620.00,101.96 633.00,102.91 633.00,102.91              633.00,102.91 639.00,102.34 639.00,102.34              639.00,102.34 650.00,103.00 650.00,103.00              650.00,103.00 672.00,103.00 672.00,103.00              672.00,103.00 681.00,103.00 681.00,103.00              689.78,103.01 693.03,104.53 701.00,105.70              701.00,105.70 732.00,108.00 732.00,108.00              732.00,108.00 752.00,107.00 752.00,107.00              759.45,107.09 759.46,108.24 765.00,108.83              765.00,108.83 790.00,110.00 790.00,110.00              790.00,110.00 823.00,109.00 823.00,109.00              823.00,109.00 843.00,108.00 843.00,108.00              843.00,108.00 865.00,109.00 865.00,109.00              865.00,109.00 881.00,107.10 881.00,107.10              881.00,107.10 892.00,108.71 892.00,108.71              892.00,108.71 909.00,110.00 909.00,110.00              909.00,110.00 947.00,111.09 947.00,111.09              947.00,111.09 970.00,113.00 970.00,113.00              978.51,113.02 978.98,114.08 986.00,115.00              986.00,115.00 997.00,115.00 997.00,115.00              997.00,115.00 1011.00,118.54 1011.00,118.54              1011.00,118.54 1046.00,123.00 1046.00,123.00              1046.00,123.00 1056.00,123.00 1056.00,123.00              1056.00,123.00 1074.00,125.72 1074.00,125.72              1074.00,125.72 1091.00,127.17 1091.00,127.17              1091.00,127.17 1108.00,129.00 1108.00,129.00              1120.67,129.14 1128.64,130.48 1141.00,132.30              1141.00,132.30 1149.00,133.83 1149.00,133.83              1149.00,133.83 1184.00,135.00 1184.00,135.00              1184.00,135.00 1194.00,135.96 1194.00,135.96              1194.00,135.96 1204.00,135.96 1204.00,135.96              1204.00,135.96 1219.00,137.00 1219.00,137.00              1219.00,137.00 1242.00,138.00 1242.00,138.00              1242.00,138.00 1268.00,138.00 1268.00,138.00              1268.00,138.00 1291.00,140.72 1291.00,140.72              1291.00,140.72 1313.00,142.00 1313.00,142.00              1313.00,142.00 1327.00,143.00 1327.00,143.00              1335.59,143.10 1342.50,143.35 1351.00,141.55              1360.52,139.53 1360.52,137.06 1374.00,135.28              1385.09,133.82 1389.06,133.98 1400.00,134.00              1400.00,134.00 1419.00,135.00 1419.00,135.00              1419.00,135.00 1444.00,136.96 1444.00,136.96              1444.00,136.96 1454.00,136.04 1454.00,136.04              1454.00,136.04 1472.00,136.04 1472.00,136.04              1472.00,136.04 1505.00,140.00 1505.00,140.00              1505.00,140.00 1524.00,140.00 1524.00,140.00              1534.55,140.02 1532.27,141.56 1540.00,142.70              1548.83,144.00 1558.08,144.10 1567.00,144.00              1567.00,144.00 1581.00,143.04 1581.00,143.04              1586.43,143.25 1588.12,144.38 1595.00,143.91              1595.00,143.91 1616.00,140.64 1616.00,140.64              1616.00,140.64 1624.00,140.64 1624.00,140.64              1624.00,140.64 1632.00,140.64 1632.00,140.64              1640.98,140.58 1646.48,145.18 1655.00,147.35              1662.51,148.82 1664.48,147.43 1671.00,147.35              1671.00,147.35 1683.00,148.78 1683.00,148.78              1683.00,148.78 1698.00,148.78 1698.00,148.78              1702.82,148.57 1722.18,151.61 1727.00,152.90              1734.14,154.80 1735.20,157.59 1741.00,160.05              1743.70,161.19 1755.53,163.21 1759.00,163.70              1769.32,165.17 1773.30,161.64 1781.00,162.09              1793.13,162.80 1792.06,167.98 1808.00,168.00              1808.00,168.00 1825.00,168.00 1825.00,168.00              1836.18,168.02 1835.90,169.96 1844.00,170.92              1844.00,170.92 1865.00,170.92 1865.00,170.92              1865.00,170.92 1881.00,172.92 1881.00,172.92              1881.00,172.92 1896.00,172.92 1896.00,172.92              1896.00,172.92 1910.00,173.99 1910.00,173.99              1925.49,174.34 1926.28,168.13 1936.00,168.08              1936.00,168.08 1953.00,169.91 1953.00,169.91              1953.00,169.91 1961.00,169.13 1961.00,169.13              1964.52,169.26 1968.41,170.85 1972.00,171.54              1979.85,173.05 1983.30,172.90 1991.00,173.00              1999.52,173.12 1998.98,175.25 2006.00,178.07              2009.49,179.47 2011.55,179.41 2015.00,181.47              2018.69,183.67 2020.65,185.72 2025.00,187.65              2032.96,191.19 2036.31,189.46 2044.00,189.74              2044.00,189.74 2068.00,191.00 2068.00,191.00              2068.00,191.00 2092.00,189.04 2092.00,189.04              2092.00,189.04 2103.00,189.04 2103.00,189.04              2106.87,189.35 2108.71,190.15 2113.00,189.91              2113.00,189.91 2129.00,188.08 2129.00,188.08              2129.00,188.08 2141.00,188.08 2141.00,188.08              2141.00,188.08 2152.00,187.18 2152.00,187.18              2152.00,187.18 2163.00,188.00 2163.00,188.00              2163.00,188.00 2168.00,188.00 2168.00,188.00              2173.75,187.93 2182.66,186.62 2188.00,184.54              2188.00,184.54 2195.00,181.60 2195.00,181.60              2195.00,181.60 2210.00,177.89 2210.00,177.89              2210.00,177.89 2238.00,175.91 2238.00,175.91              2238.00,175.91 2258.00,174.00 2258.00,174.00              2258.00,174.00 2280.00,172.00 2280.00,172.00              2280.00,172.00 2294.00,172.00 2294.00,172.00              2294.00,172.00 2303.00,171.47 2303.00,171.47              2306.63,171.64 2309.19,173.24 2315.00,172.91              2315.00,172.91 2332.00,171.00 2332.00,171.00              2347.60,170.83 2354.59,174.89 2364.00,175.00              2374.95,175.12 2372.53,173.97 2380.00,172.94              2380.00,172.94 2388.00,172.94 2388.00,172.94              2388.00,172.94 2396.00,171.00 2396.00,171.00              2396.00,171.00 2405.00,171.00 2405.00,171.00              2405.00,171.00 2429.00,168.21 2429.00,168.21              2429.00,168.21 2454.00,169.99 2454.00,169.99              2454.00,169.99 2471.00,169.00 2471.00,169.00              2471.00,169.00 2496.00,170.17 2496.00,170.17              2496.00,170.17 2514.00,172.00 2514.00,172.00              2514.00,172.00 2547.00,170.87 2547.00,170.87              2547.00,170.87 2557.00,170.87 2557.00,170.87              2557.00,170.87 2564.00,171.83 2564.00,171.83              2564.00,171.83 2586.00,172.91 2586.00,172.91              2586.00,172.91 2610.00,170.08 2610.00,170.08              2610.00,170.08 2623.00,170.08 2623.00,170.08              2623.00,170.08 2644.00,168.01 2644.00,168.01              2644.00,168.01 2662.00,170.96 2662.00,170.96              2662.00,170.96 2681.00,170.00 2681.00,170.00              2681.00,170.00 2715.00,170.00 2715.00,170.00              2723.02,169.90 2723.57,168.37 2730.00,167.32              2730.00,167.32 2741.00,166.70 2741.00,166.70              2752.02,165.11 2744.73,164.19 2761.00,164.00              2761.00,164.00 2780.00,161.06 2780.00,161.06              2780.00,161.06 2790.00,161.06 2790.00,161.06              2790.00,161.06 2808.00,159.00 2808.00,159.00              2808.00,159.00 2826.00,160.00 2826.00,160.00              2826.00,160.00 2846.00,160.00 2846.00,160.00              2846.00,160.00 2869.00,161.00 2869.00,161.00              2869.00,161.00 2890.00,162.96 2890.00,162.96              2890.00,162.96 2899.00,162.96 2899.00,162.96              2899.00,162.96 2914.00,165.91 2914.00,165.91              2914.00,165.91 2931.00,165.91 2931.00,165.91              2931.00,165.91 2950.00,164.53 2950.00,164.53              2961.72,162.34 2953.39,161.20 2971.00,161.00              2971.00,161.00 2988.00,159.76 2988.00,159.76              2999.97,160.06 3005.50,164.63 3018.00,159.76              3030.19,154.55 3040.04,138.76 3054.00,136.48              3059.24,135.63 3063.28,138.54 3068.00,140.32              3076.42,143.49 3077.95,144.10 3087.00,144.00              3098.26,143.87 3099.72,140.18 3105.00,139.56              3107.68,139.24 3112.97,140.54 3116.00,140.83              3116.00,140.83 3129.00,140.32 3129.00,140.32              3132.11,140.56 3133.51,141.12 3137.00,140.91              3143.53,140.51 3146.31,138.14 3155.00,139.18              3155.00,139.18 3167.00,142.12 3167.00,142.12              3167.00,142.12 3182.00,145.01 3182.00,145.01              3195.36,147.93 3190.28,148.82 3206.00,149.00              3206.00,149.00 3222.00,150.96 3222.00,150.96              3222.00,150.96 3237.00,150.00 3237.00,150.00              3250.12,149.85 3248.77,151.80 3257.00,151.99              3257.00,151.99 3269.00,151.09 3269.00,151.09              3269.00,151.09 3284.00,152.00 3284.00,152.00              3284.00,152.00 3330.00,152.00 3330.00,152.00              3330.00,152.00 3342.00,151.18 3342.00,151.18              3342.00,151.18 3349.00,151.96 3349.00,151.96              3349.00,151.96 3359.00,151.34 3359.00,151.34              3359.00,151.34 3374.00,152.00 3374.00,152.00              3374.00,152.00 3394.00,150.04 3394.00,150.04              3394.00,150.04 3418.00,154.00 3418.00,154.00              3418.00,154.00 3427.00,154.00 3427.00,154.00              3427.00,154.00 3440.00,155.00 3440.00,155.00              3440.00,155.00 3455.00,154.17 3455.00,154.17              3455.00,154.17 3465.00,155.61 3465.00,155.61              3471.07,157.16 3474.10,159.33 3481.00,158.91              3481.00,158.91 3491.00,157.04 3491.00,157.04              3491.00,157.04 3499.00,157.04 3499.00,157.04              3499.00,157.04 3513.00,156.00 3513.00,156.00              3513.00,156.00 3532.00,154.34 3532.00,154.34              3532.00,154.34 3541.00,155.04 3541.00,155.04              3541.00,155.04 3553.00,155.04 3553.00,155.04              3553.00,155.04 3566.00,156.00 3566.00,156.00              3566.00,156.00 3583.00,155.01 3583.00,155.01              3583.00,155.01 3595.00,155.91 3595.00,155.91              3595.00,155.91 3602.00,155.04 3602.00,155.04              3602.00,155.04 3617.00,155.04 3617.00,155.04              3617.00,155.04 3630.00,154.16 3630.00,154.16              3634.07,154.67 3638.20,158.59 3642.00,160.69              3649.88,165.05 3653.09,165.99 3662.00,166.00              3662.00,166.00 3670.00,166.00 3670.00,166.00              3687.05,165.80 3689.51,156.26 3700.00,152.13              3707.60,149.38 3716.18,151.90 3724.00,152.13              3736.64,152.14 3733.45,151.20 3743.00,150.17              3748.27,149.61 3750.29,150.48 3756.00,148.45              3763.42,145.81 3770.59,138.02 3779.00,139.72              3781.54,140.23 3783.70,141.80 3789.00,142.71              3789.00,142.71 3807.00,144.61 3807.00,144.61              3807.00,144.61 3816.00,147.92 3816.00,147.92              3816.00,147.92 3821.83,149.83 3821.83,149.83              3825.63,151.62 3829.39,157.17 3835.00,160.90              3843.08,166.26 3845.54,165.08 3854.00,166.30              3858.76,166.99 3860.58,168.22 3866.00,167.91              3870.04,167.68 3879.21,165.84 3883.00,164.44              3889.06,162.21 3893.95,158.73 3901.00,159.33              3901.00,159.33 3910.00,160.85 3910.00,160.85              3910.00,160.85 3939.00,163.00 3939.00,163.00              3939.00,163.00 3961.00,161.83 3961.00,161.83              3961.00,161.83 3978.00,160.00 3978.00,160.00              3978.00,160.00 4010.00,162.79 4010.00,162.79              4010.00,162.79 4032.00,162.79 4032.00,162.79              4036.33,162.69 4036.82,164.09 4046.00,164.00              4046.00,164.00 4058.00,163.01 4058.00,163.01              4071.52,162.69 4066.60,166.24 4077.00,172.52              4083.50,176.45 4091.48,178.16 4099.00,177.99              4108.53,177.77 4116.60,173.27 4122.67,166.00              4125.42,162.70 4127.75,157.03 4131.10,155.09              4134.57,153.26 4143.41,154.99 4148.00,155.09              4148.00,155.09 4182.00,156.00 4182.00,156.00              4192.32,156.02 4202.01,158.94 4212.00,161.00              4212.00,161.00 4226.00,163.50 4226.00,163.50              4226.00,163.50 4235.00,165.70 4235.00,165.70              4235.00,165.70 4260.00,165.00 4260.00,165.00              4260.00,165.00 4282.00,162.84 4282.00,162.84              4282.00,162.84 4289.00,161.63 4289.00,161.63              4289.00,161.63 4303.00,163.00 4303.00,163.00              4317.20,163.07 4315.03,161.20 4322.00,160.82              4322.00,160.82 4339.00,160.82 4339.00,160.82              4339.00,160.82 4366.00,163.91 4366.00,163.91              4366.00,163.91 4378.00,162.91 4378.00,162.91              4378.00,162.91 4395.00,162.91 4395.00,162.91              4398.68,162.43 4401.23,161.17 4405.00,161.55              4410.22,162.09 4409.47,162.96 4417.00,162.92              4417.00,162.92 4431.00,162.92 4431.00,162.92              4431.00,162.92 4446.00,161.00 4446.00,161.00              4446.00,161.00 4455.00,161.00 4455.00,161.00              4455.00,161.00 4475.00,157.29 4475.00,157.29              4485.09,155.93 4494.84,155.88 4505.00,156.00              4505.00,156.00 4518.00,157.00 4518.00,157.00              4518.00,157.00 4546.00,157.00 4546.00,157.00              4546.00,157.00 4561.00,156.04 4561.00,156.04              4561.00,156.04 4578.00,158.00 4578.00,158.00              4588.19,158.12 4598.89,157.04 4609.00,155.71              4614.41,155.00 4615.88,154.08 4622.00,154.00              4622.00,154.00 4630.00,154.00 4630.00,154.00              4636.14,153.92 4637.60,152.99 4643.00,152.29              4643.00,152.29 4663.00,151.31 4663.00,151.31              4663.00,151.31 4691.00,155.72 4691.00,155.72              4691.00,155.72 4704.00,156.53 4704.00,156.53              4714.09,158.81 4718.04,162.94 4730.00,163.00              4738.43,163.04 4744.59,162.85 4753.00,161.71              4759.77,160.80 4762.56,159.09 4770.00,159.19              4773.07,158.97 4780.32,158.84 4783.00,159.19              4790.59,160.88 4790.49,163.25 4802.00,162.99              4802.00,162.99 4813.00,161.93 4813.00,161.93              4818.79,162.74 4818.03,165.98 4832.00,166.04              4832.00,166.04 4849.00,166.04 4849.00,166.04              4849.00,166.04 4859.00,166.99 4859.00,166.99              4859.00,166.99 4872.00,166.09 4872.00,166.09              4872.00,166.09 4896.00,169.00 4896.00,169.00              4906.47,168.88 4906.96,166.12 4913.00,165.21              4913.00,165.21 4931.00,163.72 4931.00,163.72              4931.00,163.72 4948.00,161.10 4948.00,161.10              4948.00,161.10 4966.00,162.00 4966.00,162.00              4974.44,161.90 4976.76,159.73 4981.00,159.49              4981.00,159.49 4994.00,161.00 4994.00,161.00              5009.86,161.18 5007.80,159.17 5016.00,158.76              5021.10,158.51 5023.32,160.37 5030.00,159.91              5039.11,159.29 5038.99,156.02 5051.00,155.92              5051.00,155.92 5065.00,155.92 5065.00,155.92              5065.00,155.92 5078.00,153.93 5078.00,153.93              5078.00,153.93 5086.00,153.93 5086.00,153.93              5086.00,153.93 5098.00,151.21 5098.00,151.21              5098.00,151.21 5114.00,152.00 5114.00,152.00              5114.00,152.00 5127.00,151.00 5127.00,151.00              5138.52,150.87 5137.05,152.44 5144.00,152.91              5144.00,152.91 5158.00,152.00 5158.00,152.00              5158.00,152.00 5176.00,153.00 5176.00,153.00              5176.00,153.00 5197.00,150.77 5197.00,150.77              5197.00,150.77 5217.00,150.77 5217.00,150.77              5225.02,149.03 5227.78,146.12 5238.00,146.00              5245.34,145.92 5252.70,147.78 5260.00,146.70              5267.17,145.64 5269.19,142.45 5274.00,142.41              5286.26,142.33 5296.70,146.63 5321.00,145.64              5326.66,145.54 5332.36,146.60 5338.00,145.64              5344.72,144.27 5346.96,141.25 5355.00,141.76              5362.93,142.27 5362.41,144.98 5375.00,145.00              5375.00,145.00 5413.00,145.00 5413.00,145.00              5413.00,145.00 5425.00,144.18 5425.00,144.18              5425.00,144.18 5435.00,144.98 5435.00,144.98              5435.00,144.98 5444.00,144.05 5444.00,144.05              5444.00,144.05 5459.00,144.05 5459.00,144.05              5459.00,144.05 5473.00,144.80 5473.00,144.80              5473.00,144.80 5496.00,144.80 5496.00,144.80              5496.00,144.80 5515.00,146.00 5515.00,146.00              5515.00,146.00 5559.00,141.01 5559.00,141.01              5568.34,141.23 5568.40,144.07 5583.00,144.00              5583.00,144.00 5601.00,142.53 5601.00,142.53              5601.00,142.53 5611.00,140.14 5611.00,140.14              5611.00,140.14 5626.00,142.00 5626.00,142.00              5626.00,142.00 5645.00,140.83 5645.00,140.83              5645.00,140.83 5653.00,139.47 5653.00,139.47              5653.00,139.47 5677.00,141.21 5677.00,141.21              5688.75,142.98 5701.76,153.20 5720.00,153.00              5726.56,152.92 5732.59,151.21 5739.00,150.30              5743.94,149.59 5746.35,150.56 5752.00,149.08              5761.15,146.68 5768.97,142.48 5779.00,143.09              5785.70,143.50 5789.00,146.14 5802.00,146.00              5809.21,145.91 5811.01,144.41 5815.00,144.26              5815.00,144.26 5830.00,145.00 5830.00,145.00              5840.17,144.98 5843.42,142.80 5853.00,141.43              5853.00,141.43 5868.00,140.54 5868.00,140.54              5868.00,140.54 5884.00,136.21 5884.00,136.21              5884.00,136.21 5898.00,135.53 5898.00,135.53              5906.92,133.87 5907.97,131.76 5919.00,132.01              5919.00,132.01 5937.00,134.00 5937.00,134.00              5937.00,134.00 5957.00,134.00 5957.00,134.00              5969.72,133.85 5973.28,129.49 5981.00,127.30              5987.04,125.58 5991.89,126.07 5998.00,126.00              5998.00,126.00 6011.00,125.09 6011.00,125.09              6011.00,125.09 6021.00,126.91 6021.00,126.91              6021.00,126.91 6041.00,126.91 6041.00,126.91              6041.00,126.91 6060.00,125.09 6060.00,125.09              6060.00,125.09 6073.00,126.00 6073.00,126.00              6073.00,126.00 6086.00,125.09 6086.00,125.09              6092.10,125.47 6092.32,127.21 6102.00,126.99              6110.75,126.78 6111.30,124.12 6120.00,124.00              6120.00,124.00 6142.00,125.08 6142.00,125.08              6142.00,125.08 6161.00,125.08 6161.00,125.08              6170.16,126.08 6168.22,127.13 6180.00,127.00              6187.61,126.91 6188.31,125.51 6194.00,125.09              6194.00,125.09 6232.00,124.00 6232.00,124.00              6232.00,124.00 6250.00,123.00 6250.00,123.00              6250.00,123.00 6269.00,124.96 6269.00,124.96              6276.61,125.20 6278.97,122.66 6286.00,123.09              6291.83,123.45 6292.00,124.96 6301.00,125.00              6301.00,125.00 6317.00,125.00 6317.00,125.00              6317.00,125.00 6327.00,124.18 6327.00,124.18              6327.00,124.18 6337.00,125.00 6337.00,125.00              6337.00,125.00 6367.00,126.00 6367.00,126.00              6376.96,125.98 6374.93,124.94 6382.00,124.17              6382.00,124.17 6401.00,122.83 6401.00,122.83              6401.00,122.83 6437.00,117.34 6437.00,117.34              6437.00,117.34 6466.00,120.77 6466.00,120.77              6470.24,121.05 6479.19,121.21 6483.00,120.77              6494.71,118.47 6507.79,113.02 6519.00,113.00              6519.00,113.00 6540.00,114.00 6540.00,114.00              6551.92,113.95 6550.15,111.06 6561.00,111.00              6561.00,111.00 6578.00,112.00 6578.00,112.00              6578.00,112.00 6613.00,109.87 6613.00,109.87              6613.00,109.87 6656.00,109.87 6656.00,109.87              6661.56,109.99 6670.73,109.11 6676.00,107.56              6676.00,107.56 6691.00,102.08 6691.00,102.08              6691.00,102.08 6698.00,102.08 6698.00,102.08              6709.54,100.71 6709.19,100.02 6722.00,100.00              6722.00,100.00 6739.00,98.70 6739.00,98.70              6739.00,98.70 6747.00,97.09 6747.00,97.09              6747.00,97.09 6761.00,97.09 6761.00,97.09              6761.00,97.09 6779.00,98.91 6779.00,98.91              6779.00,98.91 6799.00,95.47 6799.00,95.47              6799.00,95.47 6820.00,97.96 6820.00,97.96              6820.00,97.96 6847.00,94.79 6847.00,94.79              6852.30,93.66 6856.46,91.78 6862.00,92.09              6862.00,92.09 6879.00,94.56 6879.00,94.56              6879.00,94.56 6887.00,95.30 6887.00,95.30              6893.10,96.18 6892.77,96.97 6900.00,97.04              6900.00,97.04 6917.00,97.04 6917.00,97.04              6917.00,97.04 6927.00,97.77 6927.00,97.77              6927.00,97.77 6945.00,97.77 6945.00,97.77              6954.97,95.67 6957.02,93.02 6969.00,92.91              6969.00,92.91 6989.00,92.91 6989.00,92.91              6996.46,92.03 6994.04,90.88 7005.00,91.00              7005.00,91.00 7022.00,92.00 7022.00,92.00              7022.00,92.00 7036.00,90.72 7036.00,90.72              7036.00,90.72 7054.00,92.00 7054.00,92.00              7061.21,91.91 7063.01,90.41 7067.00,90.26              7067.00,90.26 7076.00,90.99 7076.00,90.99              7088.73,91.27 7090.36,87.02 7105.00,86.91              7105.00,86.91 7117.00,86.91 7117.00,86.91              7123.92,86.09 7131.96,83.68 7139.00,84.18              7139.00,84.18 7172.00,85.00 7172.00,85.00              7172.00,85.00 7200.00,82.87 7200.00,82.87              7200.00,82.87 7211.00,80.38 7211.00,80.38              7211.00,80.38 7221.00,81.68 7221.00,81.68              7221.00,81.68 7235.00,81.68 7235.00,81.68              7235.00,81.68 7248.00,83.00 7248.00,83.00              7248.00,83.00 7275.00,81.83 7275.00,81.83              7275.00,81.83 7284.00,80.17 7284.00,80.17              7284.00,80.17 7293.00,79.54 7293.00,79.54              7293.00,79.54 7311.00,74.37 7311.00,74.37              7311.00,74.37 7327.00,71.89 7327.00,71.89              7327.00,71.89 7337.00,71.89 7337.00,71.89              7337.00,71.89 7348.00,69.06 7348.00,69.06              7348.00,69.06 7355.00,69.06 7355.00,69.06              7355.00,69.06 7364.00,67.09 7364.00,67.09              7364.00,67.09 7384.00,67.09 7384.00,67.09              7384.00,67.09 7405.00,65.00 7405.00,65.00              7405.00,65.00 7425.00,65.00 7425.00,65.00              7425.00,65.00 7439.00,64.00 7439.00,64.00              7439.00,64.00 7455.00,64.96 7455.00,64.96              7455.00,64.96 7470.00,64.00 7470.00,64.00              7470.00,64.00 7506.00,61.00 7506.00,61.00              7506.00,61.00 7523.00,60.00 7523.00,60.00              7523.00,60.00 7541.00,59.00 7541.00,59.00              7541.00,59.00 7560.00,59.00 7560.00,59.00              7569.43,59.11 7572.08,61.11 7580.00,62.54              7580.00,62.54 7602.00,63.96 7602.00,63.96              7602.00,63.96 7621.00,61.54 7621.00,61.54              7621.00,61.54 7628.00,60.21 7628.00,60.21              7628.00,60.21 7641.00,61.00 7641.00,61.00              7651.19,61.02 7656.70,61.20 7667.00,59.84              7675.67,58.70 7673.78,57.02 7685.00,57.00              7685.00,57.00 7699.00,57.00 7699.00,57.00              7699.00,57.00 7710.00,56.21 7710.00,56.21              7710.00,56.21 7727.00,57.96 7727.00,57.96              7727.00,57.96 7742.00,56.09 7742.00,56.09              7742.00,56.09 7753.00,56.09 7753.00,56.09              7761.06,57.03 7768.71,60.44 7777.00,59.91              7777.00,59.91 7795.00,58.10 7795.00,58.10              7795.00,58.10 7825.00,51.04 7825.00,51.04              7839.13,50.26 7847.39,56.62 7859.00,55.91              7859.00,55.91 7871.00,53.49 7871.00,53.49              7877.22,53.39 7883.51,57.14 7890.00,57.83              7897.31,58.60 7904.57,55.66 7912.00,55.38              7912.00,55.38 7927.00,57.96 7927.00,57.96              7938.76,58.47 7938.63,54.54 7949.00,56.19              7955.82,57.28 7959.50,60.57 7965.00,62.07              7965.00,62.07 7978.00,63.46 7978.00,63.46              7978.00,63.46 7993.00,68.08 7993.00,68.08              7993.00,68.08 8002.00,69.81 8002.00,69.81              8005.72,71.10 8006.74,72.54 8012.00,73.53              8012.00,73.53 8021.00,74.30 8021.00,74.30              8023.48,74.85 8034.57,81.41 8036.08,83.39              8040.17,88.76 8041.99,102.28 8042.00,109.00              8042.00,109.00 8043.68,140.00 8043.68,140.00              8043.68,140.00 8043.04,162.00 8043.04,162.00              8043.04,162.00 8043.99,175.00 8043.99,175.00              8043.99,175.00 8043.04,188.00 8043.04,188.00              8043.31,194.62 8045.16,195.41 8044.98,204.00              8044.83,211.96 8042.78,211.71 8043.01,222.00              8043.01,222.00 8044.72,238.00 8044.72,238.00              8044.72,238.00 8045.29,246.00 8045.29,246.00              8045.29,246.00 8046.63,255.00 8046.63,255.00              8046.63,255.00 8046.00,266.00 8046.00,266.00              8046.00,266.00 8046.00,287.00 8046.00,287.00              8046.09,294.37 8047.31,294.89 8047.61,299.00              8047.61,299.00 8047.00,314.00 8047.00,314.00              8047.00,314.00 8048.00,329.00 8048.00,329.00              8048.00,329.00 8048.00,372.00 8048.00,372.00              8048.00,372.00 8049.17,392.00 8049.17,392.00              8049.17,392.00 8049.17,404.00 8049.17,404.00              8049.17,404.00 8049.96,416.00 8049.96,416.00              8049.96,416.00 8049.96,432.00 8049.96,432.00              8049.96,432.00 8049.04,443.00 8049.04,443.00              8049.04,443.00 8050.00,456.00 8050.00,456.00              8050.00,456.00 8051.09,488.00 8051.09,488.00              8051.09,488.00 8052.82,504.00 8052.82,504.00              8052.82,504.00 8051.09,523.00 8051.09,523.00              8051.09,523.00 8051.09,533.00 8051.09,533.00              8051.09,533.00 8052.15,540.00 8052.15,540.00              8052.15,540.00 8052.15,548.00 8052.15,548.00              8052.15,548.00 8053.00,561.00 8053.00,561.00              8053.00,561.00 8053.68,588.00 8053.68,588.00              8053.42,591.50 8052.83,593.14 8053.09,597.00              8053.09,597.00 8055.65,610.00 8055.65,610.00              8055.65,610.00 8055.00,624.00 8055.00,624.00              8055.00,624.00 8055.96,639.00 8055.96,639.00              8055.96,639.00 8055.12,651.00 8055.12,651.00              8055.12,651.00 8055.12,663.00 8055.12,663.00              8055.12,663.00 8055.12,670.00 8055.12,670.00              8055.12,670.00 8056.74,680.00 8056.74,680.00              8056.74,680.00 8056.04,688.00 8056.04,688.00              8056.04,688.00 8057.99,709.00 8057.99,709.00              8057.99,709.00 8057.03,720.00 8057.03,720.00              8057.03,720.00 8057.96,729.00 8057.96,729.00              8057.96,729.00 8057.96,746.00 8057.96,746.00              8057.96,746.00 8058.91,761.00 8058.91,761.00              8058.91,761.00 8058.05,768.00 8058.05,768.00              8058.05,768.00 8058.05,786.00 8058.05,786.00              8058.05,786.00 8058.91,799.00 8058.91,799.00              8058.91,799.00 8058.02,810.00 8058.02,810.00              8058.02,810.00 8059.00,824.00 8059.00,824.00              8059.00,824.00 8059.00,828.00 8059.00,828.00              8059.00,828.00 8058.04,842.00 8058.04,842.00              8058.27,847.69 8060.25,850.98 8059.91,857.00              8059.91,857.00 8059.00,869.00 8059.00,869.00              8059.00,869.00 8059.00,890.00 8059.00,890.00              8059.00,890.00 8060.91,913.00 8060.91,913.00              8060.91,913.00 8060.00,925.00 8060.00,925.00              8060.00,925.00 8060.00,931.00 8060.00,931.00              8060.00,931.00 8061.96,950.00 8061.96,950.00              8061.96,950.00 8061.96,964.00 8061.96,964.00              8061.96,964.00 8061.04,975.00 8061.04,975.00              8061.04,975.00 8061.96,983.00 8061.96,983.00              8061.96,983.00 8061.96,998.00 8061.96,998.00              8061.96,998.00 8063.66,1011.00 8063.66,1011.00              8063.66,1011.00 8062.04,1022.00 8062.04,1022.00              8061.81,1027.75 8063.29,1033.31 8063.92,1039.00              8063.92,1039.00 8063.92,1056.00 8063.92,1056.00              8063.92,1056.00 8064.82,1070.00 8064.82,1070.00              8064.82,1070.00 8064.02,1078.00 8064.02,1078.00              8064.02,1078.00 8064.94,1089.00 8064.94,1089.00              8064.94,1089.00 8064.94,1105.00 8064.94,1105.00              8064.94,1105.00 8064.94,1115.00 8064.94,1115.00              8064.65,1118.87 8063.85,1120.71 8064.09,1125.00              8064.09,1125.00 8065.79,1144.00 8065.79,1144.00              8065.79,1144.00 8065.03,1154.00 8065.03,1154.00              8065.03,1154.00 8066.26,1168.00 8066.26,1168.00              8066.26,1168.00 8066.26,1179.00 8066.26,1179.00              8066.26,1179.00 8066.96,1187.00 8066.96,1187.00              8066.96,1187.00 8066.96,1202.00 8066.96,1202.00              8066.96,1202.00 8067.96,1217.00 8067.96,1217.00              8067.96,1217.00 8067.96,1234.00 8067.96,1234.00              8067.96,1234.00 8067.00,1244.00 8067.00,1244.00              8067.00,1244.00 8068.30,1265.00 8068.30,1265.00              8068.30,1265.00 8069.90,1274.00 8069.90,1274.00              8069.90,1274.00 8069.00,1288.00 8069.00,1288.00              8069.00,1288.00 8070.16,1306.00 8070.16,1306.00              8070.16,1306.00 8070.16,1319.00 8070.16,1319.00              8070.16,1319.00 8070.16,1329.00 8070.16,1329.00              8070.16,1329.00 8070.91,1340.00 8070.91,1340.00              8070.91,1340.00 8070.04,1350.00 8070.04,1350.00              8070.22,1355.55 8071.33,1356.59 8070.96,1365.00              8070.96,1365.00 8069.04,1383.00 8069.04,1383.00              8069.04,1383.00 8071.83,1400.00 8071.83,1400.00              8071.83,1400.00 8073.00,1428.00 8073.00,1428.00              8073.00,1428.00 8074.00,1480.00 8074.00,1480.00              8074.00,1480.00 8075.00,1497.00 8075.00,1497.00              8075.00,1497.00 8076.00,1539.00 8076.00,1539.00              8076.00,1539.00 8075.02,1553.00 8075.02,1553.00              8075.02,1553.00 8076.00,1562.00 8076.00,1562.00              8076.00,1562.00 8076.00,1574.00 8076.00,1574.00              8076.00,1574.00 8077.00,1586.00 8077.00,1586.00              8077.00,1586.00 8077.68,1614.00 8077.68,1614.00              8077.68,1614.00 8077.00,1622.00 8077.00,1622.00              8077.00,1622.00 8077.68,1648.00 8077.68,1648.00              8077.68,1648.00 8077.01,1661.00 8077.01,1661.00              8077.01,1661.00 8078.00,1674.00 8078.00,1674.00              8078.00,1674.00 8078.00,1704.00 8078.00,1704.00              8078.00,1704.00 8078.96,1716.00 8078.96,1716.00              8078.96,1716.00 8078.96,1727.00 8078.96,1727.00              8078.96,1727.00 8080.00,1742.00 8080.00,1742.00              8080.00,1742.00 8080.00,1768.00 8080.00,1768.00              8080.00,1768.00 8080.59,1780.00 8080.59,1780.00              8080.23,1783.77 8078.03,1787.31 8078.03,1794.00              8078.03,1802.22 8081.27,1805.02 8081.20,1810.00              8081.20,1810.00 8081.20,1821.00 8081.20,1821.00              8081.20,1821.00 8081.96,1832.00 8081.96,1832.00              8081.96,1832.00 8081.01,1842.00 8081.01,1842.00              8081.01,1842.00 8082.96,1867.00 8082.96,1867.00              8082.96,1867.00 8082.96,1883.00 8082.96,1883.00              8082.96,1883.00 8082.01,1892.00 8082.01,1892.00              8082.01,1892.00 8082.68,1905.00 8082.68,1905.00              8082.68,1905.00 8082.00,1916.00 8082.00,1916.00              8082.00,1916.00 8082.74,1927.00 8082.74,1927.00              8082.58,1931.25 8080.61,1934.03 8081.09,1941.00              8081.53,1947.38 8083.77,1950.06 8084.61,1954.00              8084.61,1954.00 8085.83,1965.00 8085.83,1965.00              8085.83,1965.00 8084.00,1986.00 8084.00,1986.00              8084.00,1986.00 8086.00,2008.00 8086.00,2008.00              8086.00,2008.00 8086.00,2027.00 8086.00,2027.00              8086.00,2027.00 8087.00,2043.00 8087.00,2043.00              8087.00,2043.00 8087.00,2068.00 8087.00,2068.00              8087.00,2068.00 8087.98,2082.00 8087.98,2082.00              8087.98,2082.00 8087.04,2096.00 8087.04,2096.00              8087.04,2096.00 8088.97,2114.00 8088.97,2114.00              8088.97,2114.00 8088.09,2131.00 8088.09,2131.00              8088.09,2131.00 8088.09,2151.00 8088.09,2151.00              8088.09,2151.00 8090.51,2162.00 8090.51,2162.00              8090.51,2162.00 8090.00,2186.00 8090.00,2186.00              8090.00,2186.00 8091.00,2201.00 8091.00,2201.00              8091.00,2201.00 8091.00,2247.00 8091.00,2247.00              8091.00,2247.00 8091.82,2259.00 8091.82,2259.00              8091.82,2259.00 8091.00,2269.00 8091.00,2269.00              8091.00,2269.00 8092.00,2290.00 8092.00,2290.00              8092.00,2290.00 8092.00,2347.00 8092.00,2347.00              8092.00,2347.00 8093.96,2366.00 8093.96,2366.00              8093.96,2366.00 8092.03,2386.00 8092.03,2386.00              8092.03,2386.00 8092.83,2394.00 8092.83,2394.00              8092.83,2394.00 8094.00,2415.00 8094.00,2415.00              8094.00,2415.00 8093.09,2429.00 8093.09,2429.00              8093.09,2429.00 8094.83,2439.00 8094.83,2439.00              8094.83,2439.00 8096.00,2472.00 8096.00,2472.00              8096.00,2472.00 8096.54,2481.00 8096.54,2481.00              8096.39,2485.55 8095.01,2486.93 8095.00,2496.00              8095.00,2496.00 8095.00,2500.00 8095.00,2500.00              8095.08,2506.77 8095.91,2506.49 8096.70,2512.00              8096.70,2512.00 8098.08,2526.00 8098.08,2526.00              8098.08,2526.00 8098.08,2542.00 8098.08,2542.00              8098.08,2542.00 8096.03,2569.00 8096.03,2569.00              8096.03,2569.00 8097.92,2584.00 8097.92,2584.00              8097.92,2584.00 8097.92,2596.00 8097.92,2596.00              8097.92,2596.00 8097.01,2611.00 8097.01,2611.00              8097.01,2611.00 8097.99,2626.00 8097.99,2626.00              8097.83,2632.91 8095.75,2635.48 8096.04,2643.00              8096.04,2643.00 8097.00,2658.00 8097.00,2658.00              8097.00,2658.00 8098.99,2684.00 8098.99,2684.00              8098.99,2684.00 8098.09,2693.00 8098.09,2693.00              8097.60,2701.64 8101.92,2707.45 8101.92,2715.00              8101.92,2715.00 8099.42,2731.00 8099.42,2731.00              8099.42,2731.00 8098.70,2745.00 8098.70,2745.00              8097.76,2751.63 8095.68,2760.32 8096.09,2767.00              8096.09,2767.00 8098.83,2781.00 8098.83,2781.00              8098.83,2781.00 8100.00,2806.00 8100.00,2806.00              8100.00,2806.00 8099.09,2817.00 8099.09,2817.00              8098.71,2823.82 8100.56,2825.42 8101.63,2831.00              8101.63,2831.00 8102.26,2847.00 8102.26,2847.00              8102.26,2847.00 8101.63,2859.00 8101.63,2859.00              8099.67,2869.20 8094.78,2881.84 8095.01,2892.00              8095.26,2902.54 8098.99,2903.58 8099.87,2910.00              8099.87,2910.00 8102.97,2936.00 8102.97,2936.00              8102.97,2936.00 8101.09,2954.00 8101.09,2954.00              8101.09,2954.00 8101.09,2968.00 8101.09,2968.00              8101.09,2968.00 8102.70,2976.00 8102.70,2976.00              8102.70,2976.00 8103.99,2992.00 8103.99,2992.00              8104.30,3006.18 8095.27,3006.39 8096.09,3021.00              8096.40,3026.49 8098.41,3037.68 8099.92,3043.00              8101.10,3047.11 8103.53,3050.34 8103.83,3054.00              8103.83,3054.00 8102.03,3073.00 8102.03,3073.00              8102.03,3073.00 8103.00,3089.00 8103.00,3089.00              8103.00,3089.00 8102.09,3102.00 8102.09,3102.00              8102.09,3102.00 8104.11,3113.00 8104.11,3113.00              8104.11,3113.00 8102.21,3124.00 8102.21,3124.00              8102.21,3124.00 8102.21,3133.00 8102.21,3133.00              8101.61,3139.43 8099.86,3137.72 8100.00,3150.00              8100.18,3165.78 8108.24,3164.98 8109.83,3183.00              8110.30,3188.35 8108.67,3191.95 8108.17,3197.00              8107.53,3203.34 8108.58,3206.29 8108.91,3212.00              8108.91,3212.00 8108.00,3225.00 8108.00,3225.00              8108.00,3225.00 8108.00,3240.00 8108.00,3240.00              8108.00,3240.00 8107.09,3253.00 8107.09,3253.00              8107.53,3262.80 8106.19,3261.50 8106.21,3269.00              8106.21,3269.00 8106.21,3280.00 8106.21,3280.00              8105.83,3283.45 8102.14,3287.37 8100.40,3291.00              8098.16,3295.67 8098.63,3299.33 8096.44,3303.00              8090.23,3313.44 8083.95,3317.09 8083.09,3331.00              8082.65,3338.15 8085.38,3341.26 8084.82,3345.00              8084.82,3345.00 8080.71,3357.00 8080.71,3357.00              8080.71,3357.00 8078.16,3369.00 8078.16,3369.00              8076.76,3372.70 8074.12,3374.77 8072.68,3381.00              8070.84,3388.97 8072.81,3392.05 8073.23,3399.00              8073.23,3399.00 8073.23,3408.00 8073.23,3408.00              8073.38,3412.91 8075.17,3416.98 8074.82,3422.00              8074.82,3422.00 8073.51,3434.00 8073.51,3434.00              8073.51,3434.00 8070.56,3441.00 8070.56,3441.00              8070.56,3441.00 8065.67,3458.00 8065.67,3458.00              8065.67,3458.00 8061.90,3484.00 8061.90,3484.00              8061.90,3484.00 8058.34,3492.00 8058.34,3492.00              8058.34,3492.00 8052.93,3508.00 8052.93,3508.00              8051.46,3513.45 8052.41,3516.22 8051.61,3520.00              8050.73,3524.19 8048.33,3526.73 8048.04,3534.00              8047.72,3541.93 8050.03,3544.65 8049.24,3548.00              8048.65,3550.54 8045.37,3554.29 8043.91,3557.00              8043.91,3557.00 8039.60,3569.00 8039.60,3569.00              8036.13,3575.52 8031.43,3580.45 8030.00,3588.00              8019.14,3590.22 8014.95,3594.13 8008.58,3603.00              8006.51,3605.88 8004.35,3608.72 8002.95,3612.00              8002.95,3612.00 7997.21,3630.00 7997.21,3630.00              7997.21,3630.00 7995.42,3639.00 7995.42,3639.00              7995.42,3639.00 7987.07,3652.00 7987.07,3652.00              7987.07,3652.00 7982.28,3661.58 7982.28,3661.58              7979.60,3665.17 7972.70,3669.75 7969.93,3680.00              7967.93,3687.37 7969.52,3702.83 7972.09,3710.00              7973.37,3713.58 7977.01,3719.80 7977.34,3723.00              7977.88,3728.11 7973.44,3730.08 7973.04,3740.00              7972.73,3747.71 7974.85,3750.56 7974.56,3754.00              7974.56,3754.00 7966.91,3772.00 7966.91,3772.00              7961.97,3781.70 7952.30,3788.09 7953.09,3802.00              7953.09,3802.00 7956.12,3819.00 7956.12,3819.00              7956.12,3819.00 7956.12,3828.00 7956.12,3828.00              7956.38,3836.35 7959.87,3838.49 7958.40,3845.00              7956.07,3855.33 7953.64,3856.35 7947.33,3864.00              7947.33,3864.00 7942.39,3870.49 7942.39,3870.49              7937.96,3875.23 7934.94,3875.64 7931.40,3883.00              7927.55,3891.00 7929.56,3897.80 7929.23,3906.00              7929.23,3906.00 7929.23,3922.00 7929.23,3922.00              7929.23,3922.00 7929.23,3930.00 7929.23,3930.00              7929.23,3930.00 7929.23,3943.00 7929.23,3943.00              7928.94,3952.37 7923.93,3956.38 7919.09,3964.00              7914.40,3971.39 7915.57,3973.40 7912.24,3979.00              7912.24,3979.00 7900.90,3995.00 7900.90,3995.00              7894.03,4007.63 7894.56,4021.00 7892.86,4026.00              7890.69,4032.36 7885.94,4033.22 7883.43,4044.00              7881.65,4051.63 7881.96,4066.72 7884.55,4074.00              7887.47,4082.21 7892.64,4085.69 7894.26,4090.00              7895.38,4092.95 7894.96,4100.50 7895.00,4104.00              7895.09,4111.58 7896.58,4112.65 7896.91,4118.00              7896.91,4118.00 7896.00,4136.00 7896.00,4136.00              7896.05,4146.09 7898.59,4148.18 7898.59,4152.00              7898.59,4152.00 7894.23,4170.00 7894.23,4170.00              7894.23,4170.00 7894.23,4193.00 7894.23,4193.00              7881.31,4190.45 7882.71,4191.02 7870.00,4191.00              7870.00,4191.00 7849.00,4189.00 7849.00,4189.00              7849.00,4189.00 7830.00,4188.20 7830.00,4188.20              7830.00,4188.20 7815.00,4188.20 7815.00,4188.20              7815.00,4188.20 7800.00,4187.01 7800.00,4187.01              7785.82,4186.69 7785.79,4191.01 7778.00,4192.87              7760.69,4196.99 7757.87,4195.81 7741.00,4196.00              7741.00,4196.00 7728.00,4196.96 7728.00,4196.96              7728.00,4196.96 7716.00,4195.09 7716.00,4195.09              7709.59,4194.62 7708.46,4195.65 7703.00,4196.23              7697.91,4196.78 7696.45,4194.02 7685.00,4193.96              7685.00,4193.96 7674.00,4193.96 7674.00,4193.96              7669.08,4193.58 7667.85,4192.78 7662.00,4193.04              7662.00,4193.04 7652.00,4194.31 7652.00,4194.31              7652.00,4194.31 7640.00,4194.31 7640.00,4194.31              7634.71,4194.48 7633.12,4195.84 7629.00,4196.63              7629.00,4196.63 7621.00,4197.17 7621.00,4197.17              7621.00,4197.17 7615.00,4198.10 7615.00,4198.10              7615.00,4198.10 7605.00,4198.10 7605.00,4198.10              7605.00,4198.10 7584.00,4200.30 7584.00,4200.30              7584.00,4200.30 7575.00,4202.49 7575.00,4202.49              7575.00,4202.49 7558.00,4204.66 7558.00,4204.66              7551.95,4204.70 7541.24,4200.59 7535.00,4199.23              7535.00,4199.23 7515.00,4199.23 7515.00,4199.23              7502.65,4198.85 7501.84,4194.35 7492.00,4193.17              7470.80,4190.62 7478.60,4193.84 7465.00,4194.00              7449.89,4194.17 7454.25,4191.40 7444.00,4190.17              7437.16,4189.35 7431.92,4188.92 7425.00,4189.00              7425.00,4189.00 7413.00,4189.99 7413.00,4189.99              7413.00,4189.99 7398.00,4189.00 7398.00,4189.00              7388.59,4188.89 7377.07,4188.23 7368.00,4185.82              7368.00,4185.82 7357.00,4181.68 7357.00,4181.68              7357.00,4181.68 7345.00,4180.39 7345.00,4180.39              7345.00,4180.39 7337.00,4177.52 7337.00,4177.52              7337.00,4177.52 7307.00,4169.30 7307.00,4169.30              7297.28,4167.90 7292.93,4171.56 7288.00,4172.87              7282.89,4173.70 7274.41,4173.01 7269.00,4172.87              7269.00,4172.87 7259.00,4172.87 7259.00,4172.87              7248.73,4173.12 7250.43,4175.93 7239.00,4173.83              7239.00,4173.83 7231.00,4171.68 7231.00,4171.68              7211.40,4167.01 7203.72,4162.75 7182.00,4163.00              7182.00,4163.00 7153.00,4165.00 7153.00,4165.00              7153.00,4165.00 7128.00,4167.96 7128.00,4167.96              7109.57,4168.77 7114.24,4166.13 7103.00,4165.98              7103.00,4165.98 7091.00,4165.98 7091.00,4165.98              7080.23,4164.03 7078.01,4161.41 7071.00,4159.22              7065.01,4157.35 7058.23,4156.93 7052.00,4157.00              7052.00,4157.00 7024.00,4160.00 7024.00,4160.00              7024.00,4160.00 7010.00,4160.68 7010.00,4160.68              7010.00,4160.68 7001.00,4160.04 7001.00,4160.04              7001.00,4160.04 6987.00,4162.70 6987.00,4162.70              6987.00,4162.70 6974.00,4163.44 6974.00,4163.44              6974.00,4163.44 6960.00,4167.19 6960.00,4167.19              6960.00,4167.19 6947.00,4167.19 6947.00,4167.19              6941.78,4168.07 6938.80,4170.08 6931.00,4170.68              6920.36,4171.49 6920.74,4165.03 6904.00,4165.00              6894.70,4164.99 6885.22,4164.97 6876.00,4166.30              6869.17,4167.29 6861.21,4170.36 6854.00,4169.78              6848.98,4169.37 6842.20,4165.33 6837.00,4163.93              6831.44,4162.43 6828.16,4163.38 6823.00,4162.83              6816.84,4162.17 6816.36,4160.67 6808.00,4161.04              6800.70,4161.36 6798.76,4163.55 6793.00,4164.69              6793.00,4164.69 6773.00,4166.47 6773.00,4166.47              6767.11,4167.58 6759.18,4171.84 6750.00,4172.83              6750.00,4172.83 6737.00,4173.45 6737.00,4173.45              6737.00,4173.45 6724.00,4170.46 6724.00,4170.46              6724.00,4170.46 6703.00,4169.04 6703.00,4169.04              6703.00,4169.04 6687.00,4171.71 6687.00,4171.71              6687.00,4171.71 6680.00,4172.30 6680.00,4172.30              6680.00,4172.30 6672.00,4174.06 6672.00,4174.06              6672.00,4174.06 6663.00,4174.06 6663.00,4174.06              6657.65,4175.06 6652.49,4176.84 6647.00,4176.25              6647.00,4176.25 6640.00,4176.25 6640.00,4176.25              6626.06,4175.85 6623.83,4179.45 6617.00,4179.88              6610.28,4180.31 6609.16,4176.74 6597.00,4177.01              6597.00,4177.01 6582.00,4179.45 6582.00,4179.45              6582.00,4179.45 6567.00,4178.91 6567.00,4178.91              6567.00,4178.91 6556.00,4177.00 6556.00,4177.00              6556.00,4177.00 6547.00,4177.00 6547.00,4177.00              6547.00,4177.00 6539.00,4175.30 6539.00,4175.30              6539.00,4175.30 6533.00,4174.79 6533.00,4174.79              6526.67,4173.88 6527.59,4172.05 6517.00,4172.00              6517.00,4172.00 6493.00,4171.00 6493.00,4171.00              6493.00,4171.00 6473.00,4173.09 6473.00,4173.09              6473.00,4173.09 6462.00,4173.09 6462.00,4173.09              6462.00,4173.09 6448.00,4174.00 6448.00,4174.00              6448.00,4174.00 6418.00,4173.00 6418.00,4173.00              6411.15,4173.08 6406.57,4174.64 6399.00,4173.83              6393.24,4173.21 6389.51,4171.03 6383.00,4171.03              6383.00,4171.03 6370.00,4172.00 6370.00,4172.00              6370.00,4172.00 6342.00,4172.00 6342.00,4172.00              6333.26,4171.99 6329.92,4170.43 6322.00,4169.30              6322.00,4169.30 6309.00,4168.09 6309.00,4168.09              6309.00,4168.09 6297.00,4168.75 6297.00,4168.75              6293.06,4168.33 6290.28,4165.85 6284.00,4165.17              6274.71,4164.16 6271.37,4166.82 6266.00,4166.82              6266.00,4166.82 6257.00,4165.30 6257.00,4165.30              6257.00,4165.30 6242.00,4164.04 6242.00,4164.04              6235.66,4163.79 6235.01,4164.92 6230.00,4165.49              6222.25,4166.39 6220.45,4159.28 6207.00,4159.02              6196.50,4158.81 6192.76,4162.36 6186.00,4162.79              6186.00,4162.79 6174.00,4162.04 6174.00,4162.04              6174.00,4162.04 6155.00,4163.66 6155.00,4163.66              6155.00,4163.66 6137.00,4163.00 6137.00,4163.00              6137.00,4163.00 6123.00,4164.21 6123.00,4164.21              6123.00,4164.21 6112.00,4164.21 6112.00,4164.21              6112.00,4164.21 6100.00,4165.17 6100.00,4165.17              6094.12,4165.88 6091.91,4167.69 6089.00,4168.14              6086.59,4168.77 6081.92,4168.04 6079.00,4168.14              6068.83,4167.89 6059.88,4170.35 6050.00,4172.34              6050.00,4172.34 6036.00,4173.68 6036.00,4173.68              6025.02,4176.15 6019.50,4179.69 6010.00,4185.00              6001.20,4176.63 5991.27,4172.56 5979.00,4173.04              5979.00,4173.04 5969.00,4173.90 5969.00,4173.90              5969.00,4173.90 5952.00,4173.00 5952.00,4173.00              5952.00,4173.00 5937.00,4172.04 5937.00,4172.04              5937.00,4172.04 5908.00,4174.49 5908.00,4174.49              5899.18,4173.91 5899.19,4172.63 5893.00,4171.47              5893.00,4171.47 5884.00,4170.37 5884.00,4170.37              5880.74,4169.44 5878.22,4167.45 5873.00,4166.23              5869.29,4165.77 5862.08,4166.01 5858.00,4166.23              5845.88,4165.98 5848.52,4162.87 5839.00,4160.68              5832.47,4159.18 5828.09,4160.95 5820.00,4158.96              5820.00,4158.96 5810.00,4155.68 5810.00,4155.68              5810.00,4155.68 5801.00,4154.37 5801.00,4154.37              5792.33,4151.97 5792.70,4150.00 5782.00,4150.00              5772.78,4150.00 5772.05,4151.59 5764.00,4153.33              5764.00,4153.33 5751.00,4155.88 5751.00,4155.88              5751.00,4155.88 5743.00,4158.11 5743.00,4158.11              5743.00,4158.11 5731.00,4158.11 5731.00,4158.11              5731.00,4158.11 5710.00,4159.17 5710.00,4159.17              5710.00,4159.17 5699.00,4160.96 5699.00,4160.96              5699.00,4160.96 5688.00,4160.04 5688.00,4160.04              5688.00,4160.04 5668.00,4161.65 5668.00,4161.65              5662.64,4161.49 5660.33,4158.13 5650.00,4158.00              5634.54,4157.82 5625.74,4160.44 5611.00,4163.49              5611.00,4163.49 5602.00,4164.68 5602.00,4164.68              5596.78,4165.88 5592.36,4169.15 5587.00,4169.82              5578.61,4170.86 5576.25,4168.77 5569.00,4167.28              5565.33,4166.80 5557.98,4166.96 5554.00,4167.28              5554.00,4167.28 5545.00,4167.28 5545.00,4167.28              5545.00,4167.28 5531.00,4167.28 5531.00,4167.28              5523.40,4167.04 5517.22,4169.66 5511.00,4168.87              5505.26,4168.14 5502.73,4164.06 5495.00,4161.93              5484.91,4159.15 5471.47,4158.88 5461.00,4159.00              5461.00,4159.00 5429.00,4162.00 5429.00,4162.00              5429.00,4162.00 5414.00,4161.04 5414.00,4161.04              5414.00,4161.04 5403.00,4162.79 5403.00,4162.79              5403.00,4162.79 5386.00,4162.00 5386.00,4162.00              5375.47,4162.02 5376.99,4163.37 5370.00,4164.18              5370.00,4164.18 5360.00,4164.18 5360.00,4164.18              5360.00,4164.18 5352.00,4164.18 5352.00,4164.18              5344.14,4164.58 5341.75,4167.88 5333.00,4168.00              5333.00,4168.00 5316.00,4167.09 5316.00,4167.09              5316.00,4167.09 5307.00,4168.66 5307.00,4168.66              5307.00,4168.66 5290.00,4167.47 5290.00,4167.47              5284.42,4166.14 5268.50,4156.32 5256.00,4157.09              5256.00,4157.09 5245.00,4159.19 5245.00,4159.19              5245.00,4159.19 5236.00,4159.19 5236.00,4159.19              5236.00,4159.19 5218.00,4160.00 5218.00,4160.00              5209.13,4160.11 5208.37,4162.04 5204.00,4162.38              5201.41,4162.71 5194.32,4161.37 5188.00,4162.38              5188.00,4162.38 5179.00,4164.63 5179.00,4164.63              5179.00,4164.63 5171.00,4165.30 5171.00,4165.30              5158.46,4167.11 5165.69,4167.81 5149.00,4168.00              5137.37,4168.14 5133.06,4170.94 5127.00,4171.79              5127.00,4171.79 5114.00,4172.47 5114.00,4172.47              5114.00,4172.47 5104.00,4175.28 5104.00,4175.28              5101.70,4175.85 5098.53,4175.14 5096.00,4175.28              5086.33,4174.67 5079.67,4177.66 5071.00,4179.10              5071.00,4179.10 5059.00,4179.10 5059.00,4179.10              5055.01,4179.59 5052.10,4181.06 5048.00,4180.66              5048.00,4180.66 5025.00,4177.04 5025.00,4177.04              5025.00,4177.04 5002.00,4178.90 5002.00,4178.90              5002.00,4178.90 4987.00,4183.55 4987.00,4183.55              4976.82,4185.64 4971.07,4184.89 4961.00,4185.00              4961.00,4185.00 4950.00,4185.68 4950.00,4185.68              4929.90,4184.17 4914.51,4176.53 4893.00,4177.01              4879.61,4177.32 4867.60,4183.63 4857.00,4182.90              4857.00,4182.90 4846.00,4180.46 4846.00,4180.46              4846.00,4180.46 4839.00,4179.70 4839.00,4179.70              4839.00,4179.70 4827.00,4177.29 4827.00,4177.29              4827.00,4177.29 4818.00,4176.70 4818.00,4176.70              4810.91,4175.69 4812.61,4175.01 4804.00,4175.00              4804.00,4175.00 4768.00,4175.00 4768.00,4175.00              4768.00,4175.00 4747.00,4176.47 4747.00,4176.47              4738.49,4178.07 4741.56,4179.98 4730.00,4180.00              4712.56,4180.03 4715.53,4182.20 4708.00,4182.78              4708.00,4182.78 4700.00,4182.09 4700.00,4182.09              4700.00,4182.09 4688.00,4182.99 4688.00,4182.99              4688.00,4182.99 4669.00,4182.00 4669.00,4182.00              4669.00,4182.00 4654.00,4183.37 4654.00,4183.37              4648.36,4182.97 4647.04,4180.51 4635.00,4181.04              4635.00,4181.04 4605.00,4184.00 4605.00,4184.00              4605.00,4184.00 4585.00,4185.00 4585.00,4185.00              4585.00,4185.00 4559.00,4186.09 4559.00,4186.09              4559.00,4186.09 4532.00,4189.00 4532.00,4189.00              4532.00,4189.00 4507.00,4190.83 4507.00,4190.83              4507.00,4190.83 4494.00,4191.47 4494.00,4191.47              4494.00,4191.47 4481.00,4195.40 4481.00,4195.40              4481.00,4195.40 4471.00,4197.22 4471.00,4197.22              4471.00,4197.22 4462.00,4200.73 4462.00,4200.73              4462.00,4200.73 4441.00,4202.09 4441.00,4202.09              4434.79,4202.55 4432.13,4204.66 4429.00,4205.07              4429.00,4205.07 4408.00,4204.00 4408.00,4204.00              4408.00,4204.00 4367.00,4197.09 4367.00,4197.09              4367.00,4197.09 4341.00,4199.19 4341.00,4199.19              4341.00,4199.19 4328.00,4195.46 4328.00,4195.46              4328.00,4195.46 4315.00,4194.91 4315.00,4194.91              4315.00,4194.91 4304.00,4193.09 4304.00,4193.09              4304.00,4193.09 4265.00,4196.00 4265.00,4196.00              4265.00,4196.00 4251.00,4195.03 4251.00,4195.03              4251.00,4195.03 4242.00,4195.61 4242.00,4195.61              4242.00,4195.61 4234.00,4194.08 4234.00,4194.08              4234.00,4194.08 4224.00,4194.08 4224.00,4194.08              4224.00,4194.08 4206.00,4192.00 4206.00,4192.00              4206.00,4192.00 4185.00,4192.00 4185.00,4192.00              4185.00,4192.00 4169.00,4192.91 4169.00,4192.91              4169.00,4192.91 4147.00,4192.91 4147.00,4192.91              4147.00,4192.91 4139.00,4191.30 4139.00,4191.30              4139.00,4191.30 4130.00,4190.40 4130.00,4190.40              4127.38,4189.78 4122.53,4188.34 4120.63,4186.49              4118.51,4184.43 4117.28,4180.35 4112.91,4176.18              4108.22,4171.72 4102.46,4169.26 4096.00,4169.04              4085.32,4168.69 4081.93,4172.68 4074.00,4178.41              4074.00,4178.41 4066.00,4184.02 4066.00,4184.02              4055.89,4191.92 4059.21,4192.98 4049.00,4193.00              4049.00,4193.00 4025.00,4193.00 4025.00,4193.00              4025.00,4193.00 4007.00,4194.53 4007.00,4194.53              4007.00,4194.53 3998.00,4192.96 3998.00,4192.96              3998.00,4192.96 3984.00,4192.96 3984.00,4192.96              3976.99,4192.08 3978.93,4191.02 3969.00,4191.00              3969.00,4191.00 3948.00,4191.00 3948.00,4191.00              3948.00,4191.00 3933.00,4192.00 3933.00,4192.00              3933.00,4192.00 3903.00,4192.00 3903.00,4192.00              3903.00,4192.00 3892.00,4192.68 3892.00,4192.68              3892.00,4192.68 3874.00,4191.00 3874.00,4191.00              3874.00,4191.00 3851.00,4191.00 3851.00,4191.00              3851.00,4191.00 3837.00,4192.45 3837.00,4192.45              3837.00,4192.45 3830.00,4191.09 3830.00,4191.09              3830.00,4191.09 3811.00,4191.09 3811.00,4191.09              3811.00,4191.09 3793.00,4192.96 3793.00,4192.96              3793.00,4192.96 3782.00,4192.01 3782.00,4192.01              3782.00,4192.01 3764.00,4193.24 3764.00,4193.24              3764.00,4193.24 3754.00,4193.24 3754.00,4193.24              3754.00,4193.24 3735.00,4194.00 3735.00,4194.00              3735.00,4194.00 3718.00,4192.04 3718.00,4192.04              3718.00,4192.04 3709.00,4193.12 3709.00,4193.12              3709.00,4193.12 3698.00,4193.12 3698.00,4193.12              3694.20,4193.75 3689.74,4195.00 3686.00,4194.67              3686.00,4194.67 3672.00,4191.30 3672.00,4191.30              3672.00,4191.30 3659.00,4190.49 3659.00,4190.49              3652.67,4189.19 3651.23,4187.76 3644.00,4188.04              3636.37,4188.34 3629.41,4190.97 3625.00,4191.23              3625.00,4191.23 3612.00,4191.23 3612.00,4191.23              3612.00,4191.23 3590.00,4192.00 3590.00,4192.00              3590.00,4192.00 3575.00,4191.15 3575.00,4191.15              3575.00,4191.15 3552.00,4191.15 3552.00,4191.15              3552.00,4191.15 3541.00,4191.15 3541.00,4191.15              3541.00,4191.15 3530.00,4192.53 3530.00,4192.53              3530.00,4192.53 3516.00,4192.00 3516.00,4192.00              3516.00,4192.00 3502.00,4193.45 3502.00,4193.45              3497.70,4193.01 3496.47,4191.78 3491.00,4192.09              3491.00,4192.09 3480.00,4193.04 3480.00,4193.04              3480.00,4193.04 3470.00,4193.04 3470.00,4193.04              3464.94,4193.43 3464.20,4194.15 3458.00,4193.98              3449.18,4193.74 3447.91,4189.72 3435.00,4190.01              3425.78,4190.23 3419.26,4194.87 3409.00,4194.82              3409.00,4194.82 3400.00,4193.07 3400.00,4193.07              3400.00,4193.07 3391.00,4193.07 3391.00,4193.07              3391.00,4193.07 3372.00,4190.00 3372.00,4190.00              3372.00,4190.00 3356.00,4190.00 3356.00,4190.00              3345.44,4189.86 3341.46,4184.62 3327.00,4186.17              3320.94,4186.82 3318.14,4188.78 3313.00,4190.22              3313.00,4190.22 3290.00,4193.82 3290.00,4193.82              3290.00,4193.82 3265.00,4191.18 3265.00,4191.18              3265.00,4191.18 3249.00,4191.18 3249.00,4191.18              3249.00,4191.18 3241.00,4191.18 3241.00,4191.18              3241.00,4191.18 3232.00,4192.60 3232.00,4192.60              3232.00,4192.60 3214.00,4192.60 3214.00,4192.60              3209.72,4191.92 3195.21,4185.46 3185.00,4186.09              3176.50,4186.62 3160.96,4193.96 3157.00,4194.59              3157.00,4194.59 3134.00,4193.09 3134.00,4193.09              3134.00,4193.09 3107.00,4195.00 3107.00,4195.00              3107.00,4195.00 3094.00,4194.15 3094.00,4194.15              3094.00,4194.15 3085.00,4194.15 3085.00,4194.15              3085.00,4194.15 3070.00,4194.15 3070.00,4194.15              3062.65,4193.61 3060.25,4190.68 3051.00,4191.04              3039.83,4191.47 3028.03,4195.31 3025.00,4195.59              3025.00,4195.59 3012.00,4194.01 3012.00,4194.01              3012.00,4194.01 2997.00,4195.00 2997.00,4195.00              2997.00,4195.00 2982.00,4194.01 2982.00,4194.01              2982.00,4194.01 2970.00,4194.66 2970.00,4194.66              2970.00,4194.66 2957.00,4193.00 2957.00,4193.00              2941.79,4192.82 2944.68,4194.80 2936.00,4195.66              2936.00,4195.66 2926.00,4195.02 2926.00,4195.02              2926.00,4195.02 2915.00,4195.81 2915.00,4195.81              2910.16,4195.69 2908.20,4193.11 2899.00,4193.00              2899.00,4193.00 2877.00,4195.00 2877.00,4195.00              2877.00,4195.00 2850.00,4196.00 2850.00,4196.00              2842.74,4196.04 2843.09,4196.83 2837.00,4197.99              2837.00,4197.99 2828.00,4197.99 2828.00,4197.99              2828.00,4197.99 2820.00,4197.99 2820.00,4197.99              2820.00,4197.99 2813.00,4197.09 2813.00,4197.09              2813.00,4197.09 2800.00,4197.09 2800.00,4197.09              2800.00,4197.09 2791.00,4197.82 2791.00,4197.82              2791.00,4197.82 2774.00,4197.00 2774.00,4197.00              2764.09,4196.88 2764.78,4194.02 2752.00,4194.00              2752.00,4194.00 2727.00,4194.00 2727.00,4194.00              2727.00,4194.00 2710.00,4195.82 2710.00,4195.82              2710.00,4195.82 2697.00,4195.04 2697.00,4195.04              2697.00,4195.04 2684.00,4195.99 2684.00,4195.99              2684.00,4195.99 2671.00,4195.04 2671.00,4195.04              2671.00,4195.04 2662.00,4195.92 2662.00,4195.92              2662.00,4195.92 2653.00,4195.04 2653.00,4195.04              2653.00,4195.04 2642.00,4195.66 2642.00,4195.66              2642.00,4195.66 2635.00,4195.02 2635.00,4195.02              2635.00,4195.02 2620.00,4195.02 2620.00,4195.02              2620.00,4195.02 2607.00,4196.00 2607.00,4196.00              2607.00,4196.00 2600.00,4196.00 2600.00,4196.00              2587.62,4195.94 2578.44,4190.76 2558.00,4191.00              2558.00,4191.00 2548.00,4191.82 2548.00,4191.82              2548.00,4191.82 2535.00,4191.00 2535.00,4191.00              2524.41,4191.05 2524.29,4193.13 2518.00,4193.81              2514.63,4194.18 2496.32,4191.21 2493.00,4189.87              2489.13,4188.31 2486.59,4185.87 2483.00,4183.90              2483.00,4183.90 2472.28,4179.73 2472.28,4179.73              2472.28,4179.73 2464.00,4173.11 2464.00,4173.11              2464.00,4173.11 2454.18,4168.28 2454.18,4168.28              2454.18,4168.28 2444.99,4158.18 2444.99,4158.18              2441.08,4154.67 2438.81,4154.05 2435.00,4151.38              2435.00,4151.38 2428.00,4146.01 2428.00,4146.01              2428.00,4146.01 2412.00,4135.91 2412.00,4135.91              2412.00,4135.91 2403.00,4129.70 2403.00,4129.70              2400.07,4127.81 2396.02,4125.99 2393.68,4123.61              2389.52,4119.38 2388.40,4113.19 2381.54,4105.01              2381.54,4105.01 2365.21,4088.83 2365.21,4088.83              2365.21,4088.83 2358.67,4080.04 2358.67,4080.04              2358.67,4080.04 2349.42,4071.82 2349.42,4071.82              2349.42,4071.82 2341.51,4063.83 2341.51,4063.83              2338.93,4060.91 2338.31,4059.26 2334.96,4056.32              2326.58,4048.99 2321.04,4049.42 2317.21,4046.78              2313.00,4043.86 2312.82,4038.92 2305.99,4033.53              2300.49,4029.19 2297.10,4029.37 2294.17,4027.70              2290.71,4025.73 2289.23,4022.30 2283.00,4018.47              2277.08,4014.82 2273.50,4014.87 2271.39,4013.60              2267.63,4011.34 2267.38,4005.61 2259.00,4000.29              2248.25,3993.05 2232.79,3994.04 2222.00,4000.29              2218.44,4002.61 2215.98,4005.21 2213.00,4008.00              2212.57,3998.80 2210.38,3997.35 2205.42,3990.00              2203.53,3987.21 2201.62,3984.17 2198.00,3983.53              2194.12,3982.85 2189.03,3986.57 2186.00,3988.72              2183.84,3990.25 2181.53,3991.91 2180.09,3994.17              2177.92,3997.58 2177.34,4003.31 2179.17,4006.96              2180.40,4009.40 2182.58,4010.87 2183.12,4013.17              2183.67,4014.68 2183.13,4018.25 2183.12,4020.00              2177.11,4020.00 2172.51,4019.75 2167.00,4022.40              2157.82,4026.82 2155.28,4033.04 2150.32,4041.00              2147.35,4045.75 2143.96,4050.46 2142.68,4056.00              2141.70,4060.24 2142.19,4062.93 2141.91,4067.00              2140.95,4081.01 2135.53,4080.98 2136.04,4094.00              2136.33,4101.60 2139.36,4110.40 2139.51,4113.00              2139.51,4113.00 2138.29,4124.00 2138.29,4124.00              2138.29,4124.00 2138.29,4134.00 2138.29,4134.00              2138.29,4134.00 2137.09,4143.00 2137.09,4143.00              2137.09,4143.00 2138.26,4158.00 2138.26,4158.00              2137.84,4161.75 2134.21,4164.82 2132.10,4168.00              2129.20,4172.39 2128.46,4175.12 2127.00,4180.00              2114.96,4176.83 2118.03,4176.85 2105.00,4177.00              2093.39,4177.14 2087.69,4182.38 2077.00,4181.96              2077.00,4181.96 2066.00,4181.09 2066.00,4181.09              2066.00,4181.09 2044.00,4182.92 2044.00,4182.92              2044.00,4182.92 2036.00,4182.04 2036.00,4182.04              2036.00,4182.04 2021.00,4182.04 2021.00,4182.04              2021.00,4182.04 2010.00,4181.04 2010.00,4181.04              2001.09,4180.69 1999.61,4182.76 1992.00,4185.25              1992.00,4185.25 1983.00,4187.92 1983.00,4187.92              1977.74,4189.97 1976.07,4191.37 1970.00,4192.54              1961.73,4194.13 1957.18,4193.96 1949.00,4194.00              1949.00,4194.00 1937.00,4194.68 1937.00,4194.68              1937.00,4194.68 1928.00,4194.00 1928.00,4194.00              1915.02,4193.94 1917.22,4195.20 1909.00,4195.82              1902.93,4196.27 1900.56,4193.80 1893.00,4194.04              1893.00,4194.04 1879.00,4195.00 1879.00,4195.00              1879.00,4195.00 1856.00,4194.00 1856.00,4194.00              1856.00,4194.00 1845.00,4194.92 1845.00,4194.92              1845.00,4194.92 1830.00,4193.04 1830.00,4193.04              1830.00,4193.04 1814.00,4194.00 1814.00,4194.00              1814.00,4194.00 1798.00,4193.00 1798.00,4193.00              1798.00,4193.00 1773.00,4194.00 1773.00,4194.00              1773.00,4194.00 1748.00,4196.39 1748.00,4196.39              1742.43,4196.14 1734.76,4192.02 1721.00,4192.18              1721.00,4192.18 1707.00,4192.18 1707.00,4192.18              1703.16,4192.06 1701.39,4190.76 1696.00,4191.09              1690.65,4191.42 1689.57,4192.91 1682.00,4193.00              1682.00,4193.00 1655.00,4189.04 1655.00,4189.04              1649.28,4188.86 1647.90,4190.00 1643.00,4190.70              1643.00,4190.70 1629.00,4191.96 1629.00,4191.96              1629.00,4191.96 1593.00,4191.96 1593.00,4191.96              1593.00,4191.96 1573.00,4194.43 1573.00,4194.43              1569.70,4194.26 1563.87,4190.11 1555.00,4189.28              1549.75,4188.62 1547.25,4189.66 1544.00,4189.28              1544.00,4189.28 1532.00,4189.28 1532.00,4189.28              1532.00,4189.28 1520.00,4190.00 1520.00,4190.00              1520.00,4190.00 1504.00,4189.09 1504.00,4189.09              1504.00,4189.09 1468.00,4192.25 1468.00,4192.25              1468.00,4192.25 1456.00,4192.25 1456.00,4192.25              1456.00,4192.25 1446.00,4192.82 1446.00,4192.82              1446.00,4192.82 1436.00,4192.00 1436.00,4192.00              1436.00,4192.00 1418.00,4193.00 1418.00,4193.00              1418.00,4193.00 1396.00,4195.00 1396.00,4195.00              1396.00,4195.00 1377.00,4194.01 1377.00,4194.01              1377.00,4194.01 1360.00,4195.26 1360.00,4195.26              1341.21,4194.57 1348.09,4189.80 1330.00,4190.00              1330.00,4190.00 1321.00,4190.53 1321.00,4190.53              1317.37,4190.36 1314.81,4188.76 1309.00,4189.09              1304.77,4189.33 1302.97,4190.25 1298.00,4189.91              1291.62,4189.47 1291.63,4187.80 1282.00,4188.01              1282.00,4188.01 1254.00,4190.16 1254.00,4190.16              1254.00,4190.16 1235.00,4187.17 1235.00,4187.17              1235.00,4187.17 1217.00,4186.13 1217.00,4186.13              1217.00,4186.13 1206.00,4186.13 1206.00,4186.13              1206.00,4186.13 1198.00,4185.05 1198.00,4185.05              1198.00,4185.05 1173.00,4185.05 1173.00,4185.05              1173.00,4185.05 1154.00,4186.47 1154.00,4186.47              1154.00,4186.47 1147.00,4188.40 1147.00,4188.40              1142.85,4189.42 1135.35,4189.99 1131.00,4190.00              1131.00,4190.00 1096.00,4190.00 1096.00,4190.00              1096.00,4190.00 1079.00,4189.04 1079.00,4189.04              1070.35,4189.42 1064.88,4194.50 1051.00,4193.96              1051.00,4193.96 1040.00,4193.04 1040.00,4193.04              1040.00,4193.04 1027.00,4194.92 1027.00,4194.92              1027.00,4194.92 1015.00,4194.92 1015.00,4194.92              1015.00,4194.92 1000.00,4196.16 1000.00,4196.16              1000.00,4196.16 988.00,4195.00 988.00,4195.00              988.00,4195.00 967.00,4195.00 967.00,4195.00              967.00,4195.00 950.00,4194.00 950.00,4194.00              950.00,4194.00 938.00,4194.82 938.00,4194.82              938.00,4194.82 915.00,4194.00 915.00,4194.00              906.79,4193.89 896.07,4188.84 882.00,4189.00              882.00,4189.00 855.00,4192.26 855.00,4192.26              855.00,4192.26 842.00,4192.26 842.00,4192.26              842.00,4192.26 833.00,4192.26 833.00,4192.26              833.00,4192.26 818.00,4192.26 818.00,4192.26              818.00,4192.26 797.00,4193.24 797.00,4193.24              797.00,4193.24 786.00,4193.24 786.00,4193.24              786.00,4193.24 758.00,4191.00 758.00,4191.00              758.00,4191.00 748.00,4191.95 748.00,4191.95              748.00,4191.95 732.00,4191.95 732.00,4191.95              732.00,4191.95 719.00,4191.09 719.00,4191.09              719.00,4191.09 712.00,4191.82 712.00,4191.82              712.00,4191.82 705.00,4191.21 705.00,4191.21              705.00,4191.21 690.00,4191.21 690.00,4191.21              690.00,4191.21 681.00,4191.21 681.00,4191.21              676.58,4191.32 676.58,4190.01 667.00,4190.00              667.00,4190.00 640.00,4190.00 640.00,4190.00              640.00,4190.00 607.00,4191.75 607.00,4191.75              598.72,4191.23 601.65,4191.03 593.00,4191.75              593.00,4191.75 577.00,4190.09 577.00,4190.09              573.23,4190.32 570.85,4191.52 567.00,4191.16              563.08,4190.80 561.80,4189.80 557.00,4190.09              557.00,4190.09 547.00,4191.66 547.00,4191.66              547.00,4191.66 536.00,4191.01 536.00,4191.01              529.88,4191.16 528.82,4192.31 524.00,4192.91              524.00,4192.91 505.00,4192.91 505.00,4192.91              505.00,4192.91 494.00,4193.82 494.00,4193.82              489.68,4193.80 487.39,4192.01 478.00,4192.00              478.00,4192.00 458.00,4193.17 458.00,4193.17              458.00,4193.17 450.00,4194.42 450.00,4194.42              450.00,4194.42 436.00,4193.71 436.00,4193.71              436.00,4193.71 425.00,4192.04 425.00,4192.04              425.00,4192.04 416.00,4192.68 416.00,4192.68              416.00,4192.68 387.00,4192.00 387.00,4192.00              387.00,4192.00 361.00,4194.17 361.00,4194.17              361.00,4194.17 345.00,4194.17 345.00,4194.17              345.00,4194.17 329.00,4189.89 329.00,4189.89              325.53,4189.11 311.69,4187.93 308.00,4188.01              308.00,4188.01 286.00,4191.25 286.00,4191.25              279.52,4190.39 276.33,4187.89 271.00,4186.22              265.00,4184.34 258.25,4183.93 252.00,4184.00              244.39,4184.09 243.74,4185.48 238.00,4185.87              223.25,4187.01 214.90,4187.45 200.00,4185.87              200.00,4185.87 183.00,4182.46 183.00,4182.46              177.10,4180.38 175.52,4178.22 169.00,4177.00              168.15,4166.91 165.64,4166.62 163.68,4161.00              162.60,4157.90 162.78,4154.54 160.60,4150.00              158.63,4145.88 155.59,4142.97 154.13,4139.00              152.97,4135.09 154.09,4129.41 154.13,4125.00              153.75,4114.75 149.28,4109.70 145.52,4101.00              142.82,4094.73 143.46,4090.09 141.48,4084.00              141.48,4084.00 134.63,4068.00 134.63,4068.00              133.32,4063.39 131.49,4047.79 132.21,4043.00              133.53,4034.25 135.80,4039.44 136.00,4022.00              136.00,4022.00 138.37,3993.00 138.37,3993.00              139.78,3985.65 143.38,3978.68 142.91,3971.00              142.91,3971.00 141.59,3962.00 141.59,3962.00              141.59,3962.00 143.79,3945.00 143.79,3945.00              143.79,3945.00 143.79,3936.00 143.79,3936.00              143.79,3936.00 144.91,3928.00 144.91,3928.00              145.41,3920.60 143.05,3917.93 143.55,3913.00              144.29,3905.77 146.36,3898.34 145.91,3891.00              145.91,3891.00 142.30,3875.00 142.30,3875.00              142.30,3875.00 142.91,3868.00 142.91,3868.00              142.91,3868.00 141.32,3850.00 141.32,3850.00              142.17,3846.02 145.80,3843.30 148.05,3838.00              153.12,3826.03 148.10,3818.76 142.00,3809.00              145.06,3805.78 147.64,3803.07 149.84,3799.00              153.28,3791.34 152.26,3777.08 149.84,3769.00              149.84,3769.00 147.39,3761.00 147.39,3761.00              147.39,3761.00 146.32,3751.00 146.32,3751.00              144.75,3744.17 142.40,3743.24 143.06,3735.00              143.52,3729.21 146.85,3727.18 149.05,3722.00              151.19,3716.95 154.12,3702.66 153.99,3697.00              153.72,3685.40 148.84,3684.51 149.11,3677.00              149.11,3677.00 150.71,3668.00 150.71,3668.00              150.71,3668.00 153.07,3643.00 153.07,3643.00              153.07,3643.00 153.07,3629.00 153.07,3629.00              154.19,3625.02 158.06,3620.79 160.09,3617.00              162.46,3612.55 163.16,3608.00 162.96,3603.00              162.58,3593.69 158.41,3587.61 157.92,3584.00              156.69,3575.06 160.27,3564.35 159.91,3558.00              159.12,3544.08 155.90,3538.94 155.73,3536.00              155.73,3536.00 155.73,3527.00 155.73,3527.00              155.73,3527.00 155.00,3515.00 155.00,3515.00              154.99,3510.98 154.71,3506.89 155.90,3503.00              158.29,3495.22 161.97,3492.19 161.97,3483.00              161.97,3473.09 156.42,3467.87 157.10,3458.00              157.57,3451.04 159.98,3450.97 160.00,3439.00              160.03,3422.32 157.44,3424.91 157.04,3417.00              156.80,3412.23 157.62,3410.22 158.10,3406.00              158.10,3406.00 158.10,3395.00 158.10,3395.00              157.91,3387.80 156.62,3384.89 158.10,3377.00              159.45,3372.20 162.36,3368.90 161.91,3361.00              161.91,3361.00 159.06,3345.00 159.06,3345.00              159.06,3345.00 159.06,3337.00 159.06,3337.00              159.06,3337.00 157.76,3330.00 157.76,3330.00              157.58,3323.49 162.51,3319.72 161.91,3310.00              161.45,3302.55 155.96,3292.66 156.47,3286.00              156.47,3286.00 156.47,3270.00 156.47,3270.00              156.47,3270.00 159.99,3239.00 159.99,3239.00              159.84,3232.88 158.69,3231.82 158.08,3227.00              158.08,3227.00 158.08,3214.00 158.08,3214.00              157.88,3203.71 154.03,3198.14 153.54,3193.00              153.54,3193.00 155.00,3176.00 155.00,3176.00              155.01,3168.34 154.91,3160.56 153.54,3153.00              153.54,3153.00 151.32,3144.00 151.32,3144.00              151.32,3144.00 150.70,3133.00 150.70,3133.00              149.42,3124.34 147.02,3127.01 146.77,3115.00              146.77,3115.00 146.77,3097.00 146.77,3097.00              146.77,3097.00 143.25,3086.00 143.25,3086.00              143.25,3086.00 144.00,3069.00 144.00,3069.00              144.00,3069.00 142.70,3051.00 142.70,3051.00              142.70,3051.00 141.51,3045.00 141.51,3045.00              140.86,3039.42 145.89,3033.85 147.78,3028.00              147.78,3028.00 150.20,3020.00 150.20,3020.00              151.62,3016.54 152.97,3015.04 154.07,3011.00              154.07,3011.00 155.29,3003.00 155.29,3003.00              155.90,2999.09 156.81,2997.36 156.96,2993.00              157.28,2983.45 152.29,2971.51 144.99,2965.33              141.72,2962.57 139.06,2961.18 135.00,2960.00              133.50,2949.45 129.73,2948.12 130.44,2943.00              130.44,2943.00 132.78,2936.00 132.78,2936.00              132.78,2936.00 134.80,2928.00 134.80,2928.00              137.76,2920.05 141.44,2915.45 140.91,2906.00              140.22,2893.83 136.25,2887.03 133.60,2876.00              133.60,2876.00 132.07,2866.00 132.07,2866.00              128.81,2854.06 128.21,2864.16 128.00,2846.00              127.86,2834.56 123.75,2831.42 122.39,2825.00              122.39,2825.00 121.53,2812.00 121.53,2812.00              121.53,2812.00 118.06,2800.00 118.06,2800.00              118.06,2800.00 118.06,2792.00 118.06,2792.00              118.06,2792.00 115.32,2778.00 115.32,2778.00              115.32,2778.00 112.02,2769.00 112.02,2769.00              111.43,2765.93 113.28,2762.97 114.07,2760.00              115.01,2756.50 115.23,2752.59 114.70,2749.00              114.70,2749.00 110.47,2735.00 110.47,2735.00              110.47,2735.00 108.07,2715.00 108.07,2715.00              108.07,2715.00 104.27,2705.00 104.27,2705.00              104.27,2705.00 103.70,2699.00 103.70,2699.00              103.70,2699.00 102.21,2691.00 102.21,2691.00              102.21,2691.00 102.99,2678.00 102.99,2678.00              102.99,2678.00 102.00,2660.00 102.00,2660.00              102.09,2652.62 103.20,2652.65 103.83,2647.00              103.83,2647.00 105.51,2630.00 105.51,2630.00              106.71,2625.81 109.78,2623.68 111.32,2617.00              112.47,2612.01 111.66,2607.83 112.17,2603.00              112.17,2603.00 113.85,2595.00 113.85,2595.00              113.85,2595.00 113.85,2583.00 113.85,2583.00              113.85,2583.00 115.91,2564.00 115.91,2564.00              115.00,2549.19 104.12,2539.74 103.26,2527.00              103.03,2523.66 107.21,2515.16 108.49,2511.00              110.02,2506.07 112.06,2490.36 112.00,2485.00              111.88,2475.04 108.99,2474.24 109.47,2468.00              109.47,2468.00 110.37,2457.00 110.37,2457.00              112.04,2448.28 113.12,2451.10 113.00,2440.00              113.00,2440.00 111.38,2427.00 111.38,2427.00              111.50,2423.33 113.69,2420.60 113.96,2414.00              113.96,2414.00 113.34,2404.00 113.34,2404.00              113.34,2404.00 114.91,2387.00 114.91,2387.00              115.16,2383.38 115.02,2379.52 114.07,2376.00              113.34,2373.26 111.35,2369.67 111.72,2367.00              112.17,2363.66 115.45,2361.05 117.56,2354.00              118.60,2350.54 120.12,2329.84 119.96,2326.00              119.73,2320.39 117.98,2315.66 114.90,2311.00              113.23,2308.49 109.38,2304.57 108.80,2302.00              108.28,2299.67 110.05,2295.58 110.77,2293.00              111.17,2289.58 111.04,2283.64 110.77,2280.00              110.77,2280.00 110.09,2270.00 110.09,2270.00              109.54,2262.02 110.85,2258.89 106.67,2251.00              102.37,2242.87 97.31,2240.66 95.60,2236.00              95.60,2236.00 94.32,2223.00 94.32,2223.00              94.32,2223.00 91.35,2214.00 91.35,2214.00              91.35,2214.00 88.53,2198.00 88.53,2198.00              88.53,2198.00 85.47,2187.00 85.47,2187.00              83.55,2176.75 86.70,2171.05 86.96,2163.00              86.96,2163.00 84.34,2130.00 84.34,2130.00              84.34,2130.00 85.94,2122.00 85.94,2122.00              85.94,2122.00 85.94,2113.00 85.94,2113.00              86.70,2108.07 88.26,2105.73 87.91,2100.00              87.40,2091.74 82.22,2085.42 83.98,2076.00              84.62,2072.62 87.35,2070.01 89.05,2066.00              89.05,2066.00 93.35,2049.00 93.35,2049.00              96.22,2042.05 101.76,2034.81 103.49,2028.00              104.72,2021.91 103.42,2018.19 103.49,2015.00              104.01,2010.14 106.64,2008.02 105.91,1998.00              105.91,1998.00 103.76,1987.00 103.76,1987.00              103.84,1983.22 106.78,1980.71 106.99,1972.00              107.13,1965.87 106.38,1960.56 103.62,1955.00              101.64,1950.99 97.59,1945.43 96.72,1941.00              95.76,1936.07 99.62,1931.40 99.96,1923.00              100.51,1909.43 94.38,1906.58 89.82,1897.00              87.59,1892.30 88.10,1889.69 86.45,1885.00              86.45,1885.00 81.05,1871.00 81.05,1871.00              81.05,1871.00 77.85,1864.00 77.85,1864.00              76.33,1859.79 78.01,1848.58 77.85,1843.00              77.98,1832.00 76.10,1832.02 74.19,1823.00              74.19,1823.00 74.19,1808.00 74.19,1808.00              74.13,1798.65 77.66,1797.88 77.96,1789.00              77.96,1789.00 75.04,1766.00 75.04,1766.00              74.52,1753.53 78.88,1750.70 79.83,1742.00              79.83,1742.00 79.21,1721.00 79.21,1721.00              79.97,1716.03 84.20,1710.92 84.91,1700.00              84.91,1700.00 80.34,1664.00 80.34,1664.00              80.34,1664.00 83.54,1650.00 83.54,1650.00              83.54,1650.00 84.88,1637.00 84.88,1637.00              86.70,1628.70 88.96,1624.75 89.00,1616.00              89.00,1616.00 89.00,1590.00 89.00,1590.00              88.86,1578.58 85.02,1578.68 85.00,1564.00              85.00,1564.00 85.00,1552.00 85.00,1552.00              85.00,1552.00 83.00,1526.00 83.00,1526.00              83.00,1526.00 83.91,1510.00 83.91,1510.00              83.57,1504.54 81.55,1501.48 81.30,1498.00              81.30,1498.00 81.96,1487.00 81.96,1487.00              81.96,1487.00 77.60,1464.00 77.60,1464.00              77.63,1457.37 82.36,1454.73 81.96,1443.00              81.96,1443.00 83.00,1425.00 83.00,1425.00              83.00,1425.00 82.00,1412.00 82.00,1412.00              82.00,1412.00 82.00,1404.00 82.00,1404.00              81.52,1398.63 79.84,1396.09 79.73,1393.00              79.73,1393.00 79.73,1383.00 79.73,1383.00              79.55,1377.71 77.83,1374.97 77.46,1372.00              77.46,1372.00 77.99,1360.00 77.99,1360.00              77.76,1350.24 73.33,1346.28 73.27,1339.00              73.24,1334.11 77.39,1327.46 76.91,1319.00              76.91,1319.00 76.00,1302.00 76.00,1302.00              76.00,1302.00 76.96,1290.00 76.96,1290.00              77.30,1281.18 74.03,1276.15 74.03,1268.00              74.03,1261.18 76.15,1260.35 76.00,1247.00              76.00,1247.00 75.26,1237.00 75.26,1237.00              75.26,1237.00 77.06,1227.00 77.06,1227.00              77.06,1227.00 77.06,1217.00 77.06,1217.00              77.06,1217.00 80.55,1206.00 80.55,1206.00              82.28,1197.86 82.09,1192.20 82.00,1184.00              82.00,1184.00 80.18,1170.00 80.18,1170.00              80.18,1170.00 80.96,1163.00 80.96,1163.00              80.96,1163.00 80.96,1153.00 80.96,1153.00              80.96,1153.00 81.96,1142.00 81.96,1142.00              81.96,1142.00 81.08,1131.00 81.08,1131.00              81.08,1131.00 82.96,1112.00 82.96,1112.00              82.73,1105.28 80.46,1102.52 79.96,1099.00              79.96,1099.00 79.96,1078.00 79.96,1078.00              79.96,1078.00 77.46,1055.00 77.46,1055.00              77.46,1055.00 79.91,1037.00 79.91,1037.00              79.91,1037.00 79.26,1027.00 79.26,1027.00              79.42,1022.79 81.27,1020.53 80.96,1013.00              80.96,1013.00 79.17,1002.00 79.17,1002.00              79.17,1002.00 78.53,990.00 78.53,990.00              77.74,985.75 76.24,983.65 76.05,979.00              75.67,970.08 80.30,968.73 79.96,958.00              79.96,958.00 77.87,937.00 77.87,937.00              77.87,937.00 77.87,922.00 77.87,922.00              77.95,912.02 73.55,898.57 73.21,893.00              72.89,887.85 75.20,885.20 74.96,878.00              74.96,878.00 71.17,860.00 71.17,860.00              70.28,851.10 72.22,845.17 71.91,840.00              71.67,836.19 70.16,832.83 70.55,829.00              70.55,829.00 71.87,822.00 71.87,822.00              71.87,822.00 71.87,798.00 71.87,798.00              71.59,792.35 70.38,789.26 71.30,783.00              72.69,773.57 76.60,770.84 74.70,758.00              74.70,758.00 67.61,734.00 67.61,734.00              67.61,734.00 66.53,727.00 66.53,727.00              66.53,727.00 64.60,720.00 64.60,720.00              64.60,720.00 60.04,693.00 60.04,693.00              59.51,681.25 61.58,682.57 62.70,675.00              62.70,675.00 64.17,657.00 64.17,657.00              65.13,648.19 65.86,652.35 66.00,640.00              66.00,640.00 67.00,627.00 67.00,627.00              67.00,627.00 65.00,603.00 65.00,603.00              65.00,603.00 65.99,584.00 65.99,584.00              65.99,584.00 64.76,569.00 64.76,569.00              64.76,569.00 64.76,558.00 64.76,558.00              64.92,553.54 66.23,551.16 65.91,546.00              65.49,539.30 62.77,536.29 62.22,532.00              62.22,532.00 62.99,518.00 62.99,518.00              62.99,518.00 60.53,498.00 60.53,498.00              59.30,491.46 56.60,489.68 56.15,485.00              55.63,479.61 59.63,473.17 59.96,465.00              60.43,453.44 55.69,450.45 55.30,445.00              54.97,440.40 58.35,435.89 58.15,428.00              57.55,421.58 57.02,415.43 58.15,409.00              59.13,405.50 60.94,403.16 61.70,398.00              61.70,398.00 63.20,381.00 63.20,381.00              64.49,372.55 69.74,355.88 74.95,349.21              77.15,346.40 80.28,344.94 83.00,342.67              83.00,342.67 92.17,333.38 92.17,333.38              99.47,326.91 105.00,326.09 109.53,315.00              114.75,302.20 109.72,296.89 111.21,287.00              112.02,281.60 117.25,273.79 115.70,263.00              114.05,251.54 107.52,247.50 108.51,240.00              109.46,232.80 113.64,226.71 115.78,220.00              115.78,220.00 117.63,210.00 117.63,210.00              117.63,210.00 125.45,188.00 125.45,188.00              125.45,188.00 127.77,180.00 127.77,180.00              132.61,167.74 138.92,167.18 139.00,151.00              139.00,151.00 140.00,127.00 140.00,127.00 Z            M 7103.00,659.48            C 7086.30,664.27 7092.32,688.55 7107.00,686.63              7121.73,684.71 7116.94,659.49 7103.00,659.48 Z            M 5928.01,1219.43            C 5921.18,1222.25 5917.57,1230.90 5917.10,1238.00              5916.74,1243.31 5918.47,1248.77 5925.00,1247.32              5921.49,1248.10 5941.30,1241.86 5937.96,1243.27              5939.39,1242.66 5940.32,1241.99 5941.30,1240.77              5942.74,1239.00 5943.57,1236.20 5944.10,1234.00              5946.97,1222.20 5938.45,1217.86 5928.01,1219.43 Z            M 6047.00,2787.34            C 6041.05,2788.63 6029.98,2792.34 6028.47,2799.00              6027.58,2802.93 6030.11,2805.84 6029.47,2808.42              6028.77,2811.24 6024.49,2813.78 6025.20,2821.00              6026.01,2829.25 6036.08,2840.83 6045.00,2839.52              6049.62,2838.84 6052.44,2834.66 6056.00,2834.20              6058.27,2833.90 6070.84,2839.48 6077.12,2831.66              6081.26,2826.51 6079.31,2821.52 6079.05,2816.00              6078.85,2811.80 6081.26,2808.13 6079.74,2804.00              6076.59,2795.52 6068.97,2794.64 6062.00,2791.66              6056.03,2789.11 6053.91,2786.89 6047.00,2787.34 Z            M 5743.00,3151.41            C 5732.05,3154.88 5730.87,3165.02 5731.00,3175.00              5731.10,3181.95 5733.07,3186.38 5741.00,3185.35              5748.47,3184.37 5763.09,3179.84 5766.82,3172.91              5772.48,3162.40 5756.57,3150.14 5743.00,3151.41 Z            M 4147.00,3918.39            C 4142.67,3919.68 4134.28,3923.36 4131.74,3927.10              4127.49,3933.35 4135.04,3944.03 4141.00,3946.26              4143.85,3947.32 4156.49,3945.10 4160.00,3944.33              4175.11,3941.00 4172.95,3927.16 4165.90,3921.43              4161.33,3917.72 4152.59,3917.64 4147.00,3918.39 Z"
            style="fill:#000000;fill-opacity:1"/>
</svg>
