<?xml version="1.0" encoding="UTF-8" standalone="no"?>
<svg
        width="173.271mm"
        height="127.17mm"
        viewBox="0 0 8186 6008"
        version="1.1"
        id="svg2052"
        sodipodi:docname="sheet16b.svg"
        inkscape:version="1.1.1 (3bf5ae0d25, 2021-09-20)"
        xmlns:inkscape="http://www.inkscape.org/namespaces/inkscape"
        xmlns:sodipodi="http://sodipodi.sourceforge.net/DTD/sodipodi-0.dtd"
        xmlns="http://www.w3.org/2000/svg"
>
    <defs
            id="defs2056"/>
    <sodipodi:namedview
            id="namedview2054"
            pagecolor="#ffffff"
            bordercolor="#666666"
            borderopacity="1.0"
            inkscape:pageshadow="2"
            inkscape:pageopacity="0.0"
            inkscape:pagecheckerboard="0"
            inkscape:document-units="mm"
            showgrid="false"
            inkscape:zoom="1.615557"
            inkscape:cx="327.13176"
            inkscape:cy="240.47434"
            inkscape:window-width="1920"
            inkscape:window-height="1001"
            inkscape:window-x="-7"
            inkscape:window-y="-7"
            inkscape:window-maximized="1"
            inkscape:current-layer="svg2052"/>
    <path
            id="Selection #1"
            fill="none"
            stroke="black"
            stroke-width="1"
            d="M 76.00,3611.00            C 85.95,3609.91 84.28,3611.97 92.00,3611.97              104.80,3611.98 117.70,3606.82 122.44,3594.00              123.60,3590.86 124.11,3587.34 123.91,3584.00              123.31,3574.26 117.14,3563.44 109.00,3558.11              103.44,3554.47 100.88,3555.22 96.00,3552.77              94.29,3551.91 88.68,3548.55 87.32,3547.37              84.01,3544.48 77.04,3533.29 76.21,3529.00              76.21,3529.00 73.58,3510.00 73.58,3510.00              73.58,3510.00 74.30,3497.00 74.30,3497.00              74.30,3497.00 75.83,3489.00 75.83,3489.00              75.83,3489.00 75.83,3478.00 75.83,3478.00              76.20,3474.47 76.97,3473.27 76.97,3469.00              76.97,3469.00 75.04,3455.00 75.04,3455.00              75.04,3455.00 75.99,3440.00 75.99,3440.00              75.99,3440.00 75.00,3422.00 75.00,3422.00              75.00,3422.00 76.00,3407.00 76.00,3407.00              76.00,3407.00 76.00,3395.00 76.00,3395.00              76.00,3395.00 77.00,3374.00 77.00,3374.00              77.00,3374.00 75.96,3352.00 75.96,3352.00              75.96,3352.00 75.96,3340.00 75.96,3340.00              75.96,3340.00 77.70,3332.00 77.70,3332.00              77.70,3332.00 79.00,3313.00 79.00,3313.00              79.00,3313.00 77.19,3296.00 77.19,3296.00              76.97,3292.97 76.85,3286.73 77.19,3284.00              78.44,3278.42 80.29,3276.82 79.91,3270.00              79.91,3270.00 76.78,3249.00 76.78,3249.00              76.73,3243.22 76.94,3236.65 78.12,3231.00              79.54,3224.18 81.29,3223.02 80.96,3215.00              80.71,3208.76 78.87,3206.47 78.77,3203.00              78.77,3203.00 78.77,3182.00 78.77,3182.00              78.77,3182.00 77.04,3160.00 77.04,3160.00              77.31,3153.38 79.15,3152.61 78.98,3144.00              78.98,3144.00 77.47,3126.00 77.47,3126.00              77.47,3126.00 79.51,3111.00 79.51,3111.00              80.49,3106.26 81.73,3104.41 81.96,3099.00              82.40,3089.02 79.66,3087.57 80.09,3080.00              80.09,3080.00 81.37,3062.00 81.37,3062.00              82.43,3056.50 84.32,3054.68 83.91,3048.00              83.62,3043.31 82.16,3040.75 81.76,3038.00              81.76,3038.00 81.00,3019.00 81.00,3019.00              80.82,3003.32 79.48,3007.79 82.21,2991.00              83.09,2985.59 86.42,2982.25 85.91,2974.00              85.60,2969.00 84.16,2967.03 83.37,2963.00              81.86,2955.28 80.77,2946.86 80.37,2939.00              80.37,2939.00 81.92,2921.00 81.92,2921.00              81.92,2921.00 81.92,2907.00 81.92,2907.00              81.92,2907.00 82.99,2894.00 82.99,2894.00              82.99,2887.58 81.97,2886.85 81.87,2883.00              81.87,2883.00 81.87,2863.00 81.87,2863.00              81.87,2863.00 84.91,2834.00 84.91,2834.00              84.71,2830.53 83.91,2828.80 84.18,2825.00              84.18,2825.00 84.97,2817.00 84.97,2817.00              84.97,2817.00 84.04,2808.00 84.04,2808.00              84.04,2808.00 84.04,2799.00 84.04,2799.00              83.96,2791.25 82.68,2789.93 82.58,2786.00              82.58,2786.00 83.09,2776.00 83.09,2776.00              83.09,2776.00 83.09,2760.00 83.09,2760.00              83.71,2755.01 85.24,2752.88 84.91,2747.00              84.91,2747.00 83.00,2728.00 83.00,2728.00              83.00,2728.00 83.00,2707.00 83.00,2707.00              83.02,2697.07 84.08,2699.01 85.06,2692.00              85.06,2692.00 85.06,2681.00 85.06,2681.00              85.06,2681.00 86.91,2672.00 86.91,2672.00              87.54,2661.71 82.80,2662.41 83.00,2645.00              83.00,2645.00 87.00,2609.00 87.00,2609.00              87.00,2609.00 85.18,2588.00 85.18,2588.00              85.18,2588.00 86.00,2574.00 86.00,2574.00              86.00,2574.00 86.91,2564.00 86.91,2564.00              86.91,2564.00 86.34,2554.00 86.34,2554.00              86.34,2554.00 86.98,2544.00 86.98,2544.00              86.98,2544.00 85.46,2529.00 85.46,2529.00              85.94,2525.08 88.29,2522.54 87.96,2514.00              87.96,2514.00 87.00,2501.00 87.00,2501.00              87.00,2501.00 87.00,2455.00 87.00,2455.00              87.00,2455.00 87.91,2442.00 87.91,2442.00              87.73,2438.82 87.06,2437.45 87.32,2434.00              87.32,2434.00 88.00,2425.00 88.00,2425.00              88.00,2425.00 89.00,2398.00 89.00,2398.00              89.00,2398.00 93.96,2371.00 93.96,2371.00              94.53,2358.39 88.37,2346.68 89.32,2334.00              89.32,2334.00 90.00,2317.00 90.00,2317.00              90.00,2317.00 92.00,2292.00 92.00,2292.00              92.00,2292.00 91.05,2282.00 91.05,2282.00              91.05,2282.00 91.05,2264.00 91.05,2264.00              91.05,2264.00 92.00,2249.00 92.00,2249.00              92.00,2249.00 91.00,2225.00 91.00,2225.00              91.00,2225.00 92.04,2211.00 92.04,2211.00              92.04,2211.00 92.04,2199.00 92.04,2199.00              92.04,2199.00 93.00,2185.00 93.00,2185.00              93.00,2185.00 92.03,2173.00 92.03,2173.00              92.03,2173.00 93.00,2161.00 93.00,2161.00              93.00,2161.00 93.00,2140.00 93.00,2140.00              93.02,2128.31 95.92,2132.58 101.09,2123.00              103.75,2118.06 104.11,2113.48 103.99,2108.00              103.70,2095.75 97.13,2090.63 96.05,2086.00              95.14,2082.13 97.97,2079.77 97.97,2072.00              97.97,2072.00 95.77,2056.00 95.77,2056.00              95.77,2056.00 95.77,2046.00 95.77,2046.00              95.77,2046.00 95.08,2031.00 95.08,2031.00              95.08,2031.00 95.91,2023.00 95.91,2023.00              96.08,2020.62 95.86,2018.34 96.49,2016.00              96.49,2016.00 101.75,2002.00 101.75,2002.00              105.55,1993.53 108.40,1992.85 107.96,1982.00              107.28,1965.14 97.03,1968.49 97.00,1953.00              97.00,1953.00 97.00,1930.00 97.00,1930.00              97.07,1916.84 103.55,1918.60 102.96,1904.00              102.45,1891.49 97.02,1894.22 97.00,1880.00              97.00,1880.00 97.00,1855.00 97.00,1855.00              97.00,1855.00 98.84,1821.00 98.84,1821.00              98.84,1821.00 98.84,1811.00 98.84,1811.00              98.84,1811.00 98.84,1799.00 98.84,1799.00              98.84,1799.00 98.21,1790.00 98.21,1790.00              98.21,1790.00 99.51,1777.00 99.51,1777.00              100.76,1770.89 102.83,1766.56 102.99,1760.00              103.37,1744.30 99.02,1747.84 99.00,1734.00              99.00,1734.00 99.00,1718.00 99.00,1718.00              99.00,1718.00 99.98,1705.00 99.98,1705.00              99.98,1705.00 99.03,1692.00 99.03,1692.00              99.03,1692.00 99.96,1683.00 99.96,1683.00              99.96,1683.00 99.96,1668.00 99.96,1668.00              100.06,1655.22 104.53,1655.68 104.96,1645.00              105.28,1637.09 103.17,1635.54 104.07,1631.00              105.11,1625.82 109.61,1621.12 108.91,1611.00              108.53,1605.48 106.78,1603.09 106.21,1599.00              106.21,1599.00 105.53,1587.00 105.53,1587.00              104.78,1583.01 102.69,1579.73 102.87,1576.00              102.87,1576.00 103.83,1570.00 103.83,1570.00              104.49,1563.76 103.39,1560.56 105.35,1553.00              106.96,1546.80 110.38,1544.36 109.96,1534.00              109.65,1526.38 107.15,1522.62 105.30,1516.00              103.37,1509.09 104.45,1506.85 103.83,1501.00              103.83,1501.00 102.28,1492.00 102.28,1492.00              102.24,1487.32 105.74,1483.29 107.54,1479.00              110.11,1472.87 111.14,1467.63 110.99,1461.00              110.88,1456.60 110.19,1452.92 108.09,1449.00              105.05,1443.35 101.63,1442.05 102.17,1435.00              102.17,1435.00 103.30,1422.00 103.30,1422.00              104.42,1414.14 105.99,1410.65 106.00,1402.00              106.03,1384.31 103.83,1385.96 103.49,1380.00              103.49,1380.00 104.99,1368.00 104.99,1368.00              104.99,1368.00 104.00,1351.00 104.00,1351.00              104.00,1351.00 104.00,1318.00 104.00,1318.00              104.00,1318.00 105.00,1298.00 105.00,1298.00              105.00,1298.00 104.04,1283.00 104.04,1283.00              104.04,1283.00 104.04,1269.00 104.04,1269.00              104.04,1269.00 105.00,1258.00 105.00,1258.00              105.00,1258.00 105.00,1243.00 105.00,1243.00              105.04,1239.71 106.19,1225.51 107.22,1223.00              110.16,1215.91 118.75,1209.66 117.91,1196.00              117.24,1185.08 111.52,1180.37 110.21,1176.00              110.21,1176.00 109.70,1166.00 109.70,1166.00              109.70,1166.00 106.18,1149.00 106.18,1149.00              106.18,1149.00 108.00,1130.00 108.00,1130.00              108.00,1130.00 107.04,1112.00 107.04,1112.00              107.04,1112.00 108.00,1099.00 108.00,1099.00              108.00,1099.00 108.00,1063.00 108.00,1063.00              108.00,1063.00 109.91,1041.00 109.91,1041.00              109.91,1041.00 108.32,1024.00 108.32,1024.00              108.56,1020.83 109.11,1019.59 108.91,1016.00              108.91,1016.00 108.00,1001.00 108.00,1001.00              108.00,1001.00 108.83,989.00 108.83,989.00              108.83,989.00 108.83,977.00 108.83,977.00              108.83,977.00 108.83,942.00 108.83,942.00              108.83,942.00 108.00,919.00 108.00,919.00              108.00,919.00 107.00,903.00 107.00,903.00              107.00,903.00 107.00,869.00 107.00,869.00              107.00,869.00 106.08,856.00 106.08,856.00              106.08,856.00 107.00,848.00 107.00,848.00              107.00,848.00 107.00,838.00 107.00,838.00              107.00,838.00 108.00,825.00 108.00,825.00              108.00,825.00 107.30,815.00 107.30,815.00              107.30,815.00 110.53,804.00 110.53,804.00              110.53,804.00 112.00,781.00 112.00,781.00              112.00,781.00 113.09,726.00 113.09,726.00              113.92,714.35 118.64,702.91 117.91,691.00              117.43,683.28 113.42,678.95 113.04,671.00              113.04,671.00 113.97,655.00 113.97,655.00              113.97,655.00 113.05,646.00 113.05,646.00              113.05,646.00 113.05,632.00 113.05,632.00              113.05,632.00 113.96,622.00 113.96,622.00              113.96,622.00 113.96,609.00 113.96,609.00              113.96,609.00 115.96,588.00 115.96,588.00              115.96,588.00 115.96,573.00 115.96,573.00              115.96,573.00 115.00,563.00 115.00,563.00              114.72,538.32 121.23,542.53 121.00,522.00              121.00,522.00 119.07,504.00 119.07,504.00              117.67,498.78 115.67,496.99 115.08,491.00              114.06,480.74 120.51,474.51 119.96,461.00              119.70,454.53 117.83,452.46 117.06,448.00              117.06,448.00 117.06,438.00 117.06,438.00              116.28,429.41 114.80,434.24 115.00,417.00              115.08,410.20 115.92,410.51 116.70,405.00              116.70,405.00 117.97,388.00 117.97,388.00              117.97,388.00 115.75,370.00 115.75,370.00              116.03,365.10 118.73,360.70 118.96,354.00              119.26,344.93 116.02,344.64 116.00,333.00              116.00,333.00 117.00,278.00 117.00,278.00              117.00,278.00 115.99,262.00 115.99,262.00              118.32,251.52 125.38,238.43 124.96,228.00              124.31,211.94 113.63,213.12 116.93,201.00              118.45,195.39 122.11,190.78 125.25,186.00              125.25,186.00 133.23,172.00 133.23,172.00              133.23,172.00 142.12,160.00 142.12,160.00              142.12,160.00 154.44,132.00 154.44,132.00              154.44,132.00 158.46,120.00 158.46,120.00              160.83,113.05 159.28,110.17 161.02,107.38              162.14,105.59 165.25,103.81 167.00,102.49              170.04,100.20 179.04,92.54 182.00,91.63              186.69,90.19 190.71,94.38 201.00,93.96              203.98,93.84 222.16,89.25 225.00,88.05              227.49,86.99 229.75,85.48 232.00,84.00              232.00,84.00 245.09,73.82 245.09,73.82              247.13,72.93 251.64,73.79 254.00,73.82              254.00,73.82 275.00,75.00 275.00,75.00              283.87,74.89 284.63,72.96 289.00,72.77              289.00,72.77 302.00,72.77 302.00,72.77              309.08,72.97 325.78,69.51 333.00,67.62              339.94,65.81 339.42,65.02 345.00,62.90              345.00,62.90 366.00,57.42 366.00,57.42              370.30,56.81 373.23,59.23 378.00,60.65              383.32,61.54 385.97,60.56 391.00,60.65              391.00,60.65 406.00,60.65 406.00,60.65              410.49,61.42 411.99,63.27 420.00,62.96              420.00,62.96 447.00,60.98 447.00,60.98              447.00,60.98 467.00,60.98 467.00,60.98              473.84,60.68 476.11,58.24 481.00,58.77              481.00,58.77 487.00,59.91 487.00,59.91              487.00,59.91 499.00,59.91 499.00,59.91              499.00,59.91 515.00,59.00 515.00,59.00              515.00,59.00 531.00,60.00 531.00,60.00              531.00,60.00 544.00,59.00 544.00,59.00              544.00,59.00 566.00,59.00 566.00,59.00              566.00,59.00 583.00,59.99 583.00,59.99              583.00,59.99 610.00,58.00 610.00,58.00              610.00,58.00 636.00,57.32 636.00,57.32              636.00,57.32 644.00,58.00 644.00,58.00              655.23,58.13 654.58,57.18 664.00,56.09              664.00,56.09 680.00,56.09 680.00,56.09              680.00,56.09 699.00,57.00 699.00,57.00              699.00,57.00 714.00,57.99 714.00,57.99              714.00,57.99 739.00,55.91 739.00,55.91              739.00,55.91 750.00,55.91 750.00,55.91              750.00,55.91 760.00,54.10 760.00,54.10              760.00,54.10 773.00,55.00 773.00,55.00              773.00,55.00 797.00,54.00 797.00,54.00              797.00,54.00 807.00,54.95 807.00,54.95              807.00,54.95 822.00,54.95 822.00,54.95              822.00,54.95 836.00,54.00 836.00,54.00              836.00,54.00 869.00,54.00 869.00,54.00              869.00,54.00 910.00,57.00 910.00,57.00              910.00,57.00 924.00,55.17 924.00,55.17              931.15,54.45 933.92,55.87 940.00,55.98              940.00,55.98 953.00,55.18 953.00,55.18              953.00,55.18 979.00,59.00 979.00,59.00              987.78,59.01 997.50,56.97 1006.00,58.46              1014.70,59.99 1028.86,65.41 1037.00,64.91              1046.86,64.30 1048.24,59.03 1065.00,59.00              1065.00,59.00 1073.00,59.00 1073.00,59.00              1073.00,59.00 1094.00,60.46 1094.00,60.46              1100.33,61.58 1104.19,63.24 1111.00,62.96              1118.37,62.66 1129.68,57.72 1136.00,58.34              1141.26,58.85 1141.70,60.32 1150.00,59.96              1156.60,59.67 1158.47,57.84 1163.00,57.10              1163.00,57.10 1183.00,57.10 1183.00,57.10              1194.60,57.02 1191.16,59.13 1200.00,62.44              1205.25,64.41 1211.02,65.41 1216.00,68.13              1220.12,70.37 1222.82,74.16 1229.00,76.44              1234.32,78.41 1240.39,78.06 1246.00,78.00              1253.11,77.91 1261.01,75.79 1267.00,71.89              1267.00,71.89 1274.00,66.92 1274.00,66.92              1276.35,65.63 1278.58,65.35 1281.00,64.44              1283.78,63.40 1287.34,60.89 1290.00,60.80              1293.99,60.67 1296.48,64.46 1308.00,63.96              1316.97,63.57 1319.06,60.18 1325.00,59.21              1325.00,59.21 1344.00,57.18 1344.00,57.18              1344.00,57.18 1358.00,58.00 1358.00,58.00              1358.00,58.00 1367.00,57.34 1367.00,57.34              1367.00,57.34 1377.00,57.84 1377.00,57.84              1377.00,57.84 1390.00,57.84 1390.00,57.84              1390.00,57.84 1405.00,57.84 1405.00,57.84              1417.34,58.02 1418.62,61.24 1430.00,60.99              1430.00,60.99 1446.00,59.83 1446.00,59.83              1446.00,59.83 1453.00,58.75 1453.00,58.75              1453.00,58.75 1472.00,59.99 1472.00,59.99              1472.00,59.99 1488.00,59.04 1488.00,59.04              1488.00,59.04 1500.00,59.96 1500.00,59.96              1500.00,59.96 1511.00,59.04 1511.00,59.04              1511.00,59.04 1524.00,59.99 1524.00,59.99              1524.00,59.99 1535.00,58.81 1535.00,58.81              1535.00,58.81 1548.00,61.56 1548.00,61.56              1548.00,61.56 1561.00,62.30 1561.00,62.30              1561.00,62.30 1575.00,64.63 1575.00,64.63              1575.00,64.63 1585.00,68.33 1585.00,68.33              1585.00,68.33 1607.00,72.60 1607.00,72.60              1617.46,75.36 1623.69,78.13 1635.00,78.00              1649.82,77.83 1661.19,67.41 1675.00,63.59              1675.00,63.59 1692.00,59.41 1692.00,59.41              1692.00,59.41 1726.00,60.00 1726.00,60.00              1726.00,60.00 1743.00,61.99 1743.00,61.99              1743.00,61.99 1757.00,60.37 1757.00,60.37              1764.20,60.73 1766.56,62.98 1777.00,62.91              1777.00,62.91 1791.00,62.91 1791.00,62.91              1794.98,62.40 1797.92,60.94 1802.00,61.34              1808.20,61.94 1812.09,63.90 1820.00,64.00              1823.33,64.04 1831.24,63.68 1834.00,64.56              1839.03,66.17 1842.33,71.60 1853.00,71.96              1853.00,71.96 1872.00,70.32 1872.00,70.32              1876.13,69.39 1881.90,66.78 1886.00,66.84              1886.00,66.84 1896.00,69.06 1896.00,69.06              1896.00,69.06 1906.00,69.06 1906.00,69.06              1917.41,70.93 1931.54,73.48 1943.00,72.96              1952.98,72.51 1955.57,68.28 1961.00,66.65              1961.00,66.65 1972.00,65.07 1972.00,65.07              1972.00,65.07 1983.00,60.63 1983.00,60.63              1983.00,60.63 2002.00,58.19 2002.00,58.19              2008.15,57.68 2014.95,60.18 2021.00,60.83              2028.82,61.66 2040.97,61.09 2048.00,64.43              2051.64,66.15 2054.57,69.77 2058.00,72.21              2058.00,72.21 2070.00,78.48 2070.00,78.48              2074.70,81.30 2077.72,84.78 2083.00,87.05              2083.00,87.05 2108.00,94.70 2108.00,94.70              2111.83,95.26 2118.80,94.37 2121.72,96.02              2124.16,97.40 2126.00,100.62 2131.00,103.89              2136.56,107.53 2139.21,106.70 2142.83,109.51              2146.27,112.18 2149.63,118.51 2159.00,121.07              2168.75,123.74 2172.55,120.90 2181.00,117.80              2187.44,115.43 2191.71,116.78 2200.96,108.68              2210.93,99.95 2208.99,94.05 2210.17,83.00              2210.17,83.00 2211.85,75.00 2211.85,75.00              2211.85,75.00 2211.85,62.00 2211.85,62.00              2225.53,62.01 2223.05,64.87 2234.00,65.00              2234.00,65.00 2250.00,64.03 2250.00,64.03              2250.00,64.03 2263.00,64.96 2263.00,64.96              2263.00,64.96 2280.00,63.70 2280.00,63.70              2287.72,62.56 2285.45,61.02 2296.00,61.00              2296.00,61.00 2317.00,61.00 2317.00,61.00              2317.00,61.00 2334.00,59.09 2334.00,59.09              2334.00,59.09 2346.00,59.09 2346.00,59.09              2346.00,59.09 2354.00,60.70 2354.00,60.70              2354.00,60.70 2368.00,61.72 2368.00,61.72              2373.53,62.22 2375.66,60.65 2380.00,61.72              2384.01,62.36 2387.13,64.84 2393.00,65.75              2393.00,65.75 2405.00,65.75 2405.00,65.75              2408.32,66.39 2411.55,68.97 2419.00,68.97              2427.77,68.97 2444.43,61.92 2447.00,61.67              2447.00,61.67 2469.00,63.91 2469.00,63.91              2475.77,64.29 2478.61,61.97 2483.00,62.42              2487.87,62.91 2491.04,66.35 2501.00,65.96              2501.00,65.96 2522.00,64.53 2522.00,64.53              2522.00,64.53 2532.00,61.69 2532.00,61.69              2532.00,61.69 2543.00,62.98 2543.00,62.98              2543.00,62.98 2562.00,61.94 2562.00,61.94              2562.00,61.94 2570.00,61.94 2570.00,61.94              2570.00,61.94 2577.00,63.53 2577.00,63.53              2577.00,63.53 2600.00,65.99 2600.00,65.99              2600.00,65.99 2619.00,64.25 2619.00,64.25              2623.59,64.74 2626.59,67.97 2635.00,67.97              2641.50,67.97 2646.15,65.28 2653.00,66.13              2659.94,66.99 2661.59,71.99 2674.00,71.99              2691.54,71.99 2688.46,62.82 2705.00,63.00              2711.74,63.08 2711.49,63.91 2717.00,64.70              2717.00,64.70 2743.00,66.99 2743.00,66.99              2755.21,66.69 2759.31,61.35 2765.00,59.65              2767.82,58.80 2772.92,58.97 2776.00,59.00              2791.96,59.19 2790.13,64.73 2803.00,64.98              2814.72,65.22 2820.48,60.18 2826.00,59.79              2826.00,59.79 2837.00,59.79 2837.00,59.79              2837.00,59.79 2856.00,58.80 2856.00,58.80              2856.00,58.80 2865.00,60.85 2865.00,60.85              2865.00,60.85 2878.00,60.85 2878.00,60.85              2886.67,61.12 2887.38,63.81 2896.00,63.98              2896.00,63.98 2911.00,62.67 2911.00,62.67              2914.61,63.64 2917.41,67.67 2924.00,69.78              2929.54,71.55 2932.09,70.60 2937.00,71.30              2948.00,72.87 2960.88,75.24 2972.00,74.99              2987.77,74.62 2986.96,66.09 3000.00,66.00              3000.00,66.00 3004.00,66.00 3004.00,66.00              3013.17,65.89 3013.23,64.02 3019.00,63.21              3019.00,63.21 3056.00,61.00 3056.00,61.00              3056.00,61.00 3078.00,59.00 3078.00,59.00              3078.00,59.00 3094.00,59.00 3094.00,59.00              3094.00,59.00 3118.00,61.00 3118.00,61.00              3118.00,61.00 3147.00,62.91 3147.00,62.91              3147.00,62.91 3152.00,62.32 3152.00,62.32              3161.20,61.63 3166.16,65.24 3173.00,66.77              3176.88,67.27 3183.76,66.95 3188.00,66.77              3198.20,67.13 3201.86,71.27 3214.00,70.99              3223.81,70.76 3226.41,67.02 3231.00,66.69              3234.34,66.44 3237.95,68.58 3245.00,67.83              3251.47,67.14 3254.45,64.46 3259.00,63.85              3263.05,63.31 3266.27,64.76 3273.00,63.33              3278.46,62.17 3283.26,59.78 3289.00,60.18              3292.96,60.46 3294.37,61.14 3299.00,60.96              3299.00,60.96 3307.00,60.26 3307.00,60.26              3307.00,60.26 3318.00,61.96 3318.00,61.96              3322.99,62.16 3324.65,61.39 3329.00,60.90              3340.02,60.33 3350.98,59.34 3362.00,60.90              3364.45,61.02 3366.68,60.95 3369.00,61.93              3369.00,61.93 3378.00,67.10 3378.00,67.10              3385.45,70.53 3385.86,68.36 3392.96,74.85              3401.32,82.50 3404.20,93.82 3420.00,94.91              3429.03,95.53 3435.65,92.27 3441.96,85.96              3451.13,76.79 3449.28,70.03 3465.00,70.00              3465.00,70.00 3476.00,70.00 3476.00,70.00              3479.88,69.95 3489.40,68.88 3493.00,67.78              3493.00,67.78 3500.00,65.39 3500.00,65.39              3500.00,65.39 3508.00,64.83 3508.00,64.83              3508.00,64.83 3517.00,62.92 3517.00,62.92              3517.00,62.92 3543.00,62.92 3543.00,62.92              3543.00,62.92 3552.00,62.92 3552.00,62.92              3552.00,62.92 3584.00,62.92 3584.00,62.92              3584.00,62.92 3604.00,64.85 3604.00,64.85              3604.00,64.85 3617.00,64.85 3617.00,64.85              3617.00,64.85 3625.00,63.04 3625.00,63.04              3625.00,63.04 3634.00,63.04 3634.00,63.04              3634.00,63.04 3650.00,62.00 3650.00,62.00              3650.00,62.00 3663.00,61.14 3663.00,61.14              3663.00,61.14 3674.00,63.96 3674.00,63.96              3674.00,63.96 3692.00,63.96 3692.00,63.96              3699.41,63.99 3702.03,63.13 3710.00,63.96              3710.00,63.96 3721.00,66.70 3721.00,66.70              3725.82,67.40 3728.56,66.45 3734.00,67.93              3745.65,71.08 3750.23,77.33 3765.00,76.99              3765.00,76.99 3779.00,74.67 3779.00,74.67              3783.90,74.16 3785.58,76.37 3790.00,77.78              3793.72,78.96 3797.14,79.07 3801.00,78.99              3811.10,78.75 3816.30,74.25 3825.00,71.79              3828.97,70.66 3833.84,71.05 3838.00,71.00              3838.00,71.00 3852.00,69.55 3852.00,69.55              3857.22,70.09 3856.47,70.96 3864.00,71.00              3881.37,71.08 3876.67,75.13 3890.00,77.43              3898.49,79.07 3909.19,76.96 3914.00,77.43              3914.00,77.43 3923.00,77.96 3923.00,77.96              3929.44,77.70 3931.20,75.93 3936.00,75.20              3936.00,75.20 3956.00,72.07 3956.00,72.07              3961.82,70.48 3964.94,67.02 3970.00,67.30              3977.14,67.69 3983.55,72.07 3990.00,74.44              3993.97,75.91 3996.23,75.66 3999.00,76.40              3999.00,76.40 4009.00,81.07 4009.00,81.07              4011.27,81.98 4014.68,82.61 4016.49,83.90              4016.49,83.90 4030.01,99.91 4030.01,99.91              4038.59,107.99 4042.82,106.11 4046.47,109.51              4050.24,113.02 4049.95,118.47 4051.55,123.00              4051.55,123.00 4063.45,147.00 4063.45,147.00              4064.06,149.20 4063.71,150.82 4063.45,153.00              4061.54,167.30 4055.55,166.48 4055.04,179.00              4054.56,190.74 4058.60,194.69 4065.82,203.00              4069.64,207.40 4070.98,210.60 4076.00,214.21              4085.09,220.76 4098.90,220.69 4108.00,214.21              4123.67,203.05 4122.80,184.23 4123.00,167.00              4123.12,157.50 4128.11,143.12 4132.98,135.00              4132.98,135.00 4139.09,126.00 4139.09,126.00              4143.69,117.42 4140.49,112.61 4143.60,108.17              4143.60,108.17 4156.04,95.61 4156.04,95.61              4156.04,95.61 4161.99,91.47 4161.99,91.47              4168.05,86.68 4166.62,85.36 4176.00,81.34              4176.00,81.34 4191.00,75.48 4191.00,75.48              4191.00,75.48 4200.00,73.44 4200.00,73.44              4204.86,71.65 4207.43,68.86 4211.00,67.27              4215.33,65.36 4228.10,63.01 4233.00,63.00              4233.00,63.00 4249.00,63.00 4249.00,63.00              4249.00,63.00 4261.00,62.11 4261.00,62.11              4266.09,63.15 4267.65,67.29 4281.00,66.99              4281.00,66.99 4293.00,65.46 4293.00,65.46              4293.00,65.46 4324.00,67.00 4324.00,67.00              4334.97,66.87 4340.57,61.43 4349.00,62.25              4349.00,62.25 4357.00,64.32 4357.00,64.32              4357.00,64.32 4364.00,65.38 4364.00,65.38              4364.00,65.38 4372.00,68.07 4372.00,68.07              4375.13,68.92 4386.61,70.05 4390.00,69.98              4400.49,69.78 4408.26,64.90 4413.00,64.21              4418.46,63.41 4423.60,65.74 4429.00,65.96              4440.32,66.42 4445.67,61.33 4451.00,60.43              4451.00,60.43 4463.00,60.96 4463.00,60.96              4463.00,60.96 4472.00,60.21 4472.00,60.21              4476.84,60.52 4477.17,62.00 4486.00,62.00              4486.00,62.00 4499.00,60.60 4499.00,60.60              4499.00,60.60 4511.00,61.99 4511.00,61.99              4518.03,61.99 4518.62,60.75 4524.00,60.09              4524.00,60.09 4536.00,60.09 4536.00,60.09              4544.43,60.04 4543.76,61.16 4550.00,61.91              4550.00,61.91 4562.00,61.91 4562.00,61.91              4570.96,61.99 4570.90,60.88 4578.00,60.08              4578.00,60.08 4589.00,60.08 4589.00,60.08              4589.00,60.08 4608.00,58.51 4608.00,58.51              4608.00,58.51 4619.00,60.02 4619.00,60.02              4619.00,60.02 4628.00,60.02 4628.00,60.02              4633.98,61.05 4634.21,63.23 4645.00,62.99              4645.00,62.99 4666.00,60.04 4666.00,60.04              4674.43,59.68 4674.77,61.16 4681.00,61.92              4681.00,61.92 4690.00,61.92 4690.00,61.92              4690.00,61.92 4711.00,64.91 4711.00,64.91              4711.00,64.91 4732.00,64.00 4732.00,64.00              4747.80,64.02 4745.38,68.17 4761.00,68.00              4761.00,68.00 4782.00,66.53 4782.00,66.53              4787.60,65.48 4789.61,63.41 4793.00,62.49              4793.00,62.49 4804.00,61.70 4804.00,61.70              4814.47,60.20 4811.82,58.85 4825.00,59.00              4825.00,59.00 4842.00,60.91 4842.00,60.91              4842.00,60.91 4853.00,60.91 4853.00,60.91              4857.54,60.34 4860.08,58.83 4865.00,58.85              4882.91,60.45 4875.76,58.83 4886.00,58.85              4886.00,58.85 4909.00,58.85 4909.00,58.85              4909.00,58.85 4919.00,58.85 4919.00,58.85              4919.00,58.85 4971.00,61.00 4971.00,61.00              4971.00,61.00 4986.00,59.34 4986.00,59.34              4989.95,59.72 4990.91,60.85 4997.00,60.99              4997.00,60.99 5009.00,60.04 5009.00,60.04              5009.00,60.04 5026.00,60.04 5026.00,60.04              5026.00,60.04 5043.00,61.30 5043.00,61.30              5043.00,61.30 5053.00,62.96 5053.00,62.96              5053.00,62.96 5069.00,62.00 5069.00,62.00              5069.00,62.00 5083.00,62.00 5083.00,62.00              5083.00,62.00 5117.00,58.03 5117.00,58.03              5117.00,58.03 5138.00,61.71 5138.00,61.71              5138.00,61.71 5159.00,61.18 5159.00,61.18              5159.00,61.18 5170.00,62.08 5170.00,62.08              5176.95,61.69 5184.04,61.23 5191.00,62.08              5191.00,62.08 5200.00,64.53 5200.00,64.53              5200.00,64.53 5222.00,66.99 5222.00,66.99              5222.00,66.99 5245.00,64.70 5245.00,64.70              5251.10,63.82 5250.77,63.04 5258.00,63.00              5258.00,63.00 5275.00,62.00 5275.00,62.00              5275.00,62.00 5292.00,63.00 5292.00,63.00              5292.00,63.00 5320.00,63.00 5320.00,63.00              5320.00,63.00 5342.00,61.04 5342.00,61.04              5342.00,61.04 5358.00,61.04 5358.00,61.04              5358.00,61.04 5367.00,61.97 5367.00,61.97              5367.00,61.97 5375.00,61.18 5375.00,61.18              5375.00,61.18 5388.00,62.00 5388.00,62.00              5388.00,62.00 5408.00,62.00 5408.00,62.00              5408.00,62.00 5431.00,61.00 5431.00,61.00              5431.00,61.00 5448.00,62.98 5448.00,62.98              5448.00,62.98 5468.00,61.09 5468.00,61.09              5468.00,61.09 5487.00,62.91 5487.00,62.91              5487.00,62.91 5499.00,61.08 5499.00,61.08              5499.00,61.08 5510.00,62.96 5510.00,62.96              5510.00,62.96 5518.00,62.96 5518.00,62.96              5518.00,62.96 5526.00,63.96 5526.00,63.96              5540.22,64.58 5542.91,60.02 5556.00,60.00              5556.00,60.00 5587.00,61.96 5587.00,61.96              5587.00,61.96 5598.00,61.01 5598.00,61.01              5598.00,61.01 5609.00,61.96 5609.00,61.96              5617.74,62.30 5619.62,59.73 5626.00,60.18              5626.00,60.18 5633.00,61.08 5633.00,61.08              5633.00,61.08 5642.00,61.08 5642.00,61.08              5647.13,61.93 5648.23,63.81 5656.00,63.99              5656.00,63.99 5669.00,63.21 5669.00,63.21              5669.00,63.21 5694.00,64.96 5694.00,64.96              5694.00,64.96 5712.00,62.00 5712.00,62.00              5712.00,62.00 5733.00,62.00 5733.00,62.00              5733.00,62.00 5740.00,61.34 5740.00,61.34              5743.90,61.39 5746.52,63.14 5759.00,63.00              5759.00,63.00 5776.00,61.00 5776.00,61.00              5776.00,61.00 5801.00,61.00 5801.00,61.00              5801.00,61.00 5818.00,61.96 5818.00,61.96              5818.00,61.96 5839.00,60.04 5839.00,60.04              5839.00,60.04 5852.00,60.04 5852.00,60.04              5852.00,60.04 5866.00,58.21 5866.00,58.21              5866.00,58.21 5883.00,59.00 5883.00,59.00              5883.00,59.00 5895.00,60.08 5895.00,60.08              5895.00,60.08 5912.00,60.08 5912.00,60.08              5912.00,60.08 5937.00,62.96 5937.00,62.96              5937.00,62.96 5948.00,61.79 5948.00,61.79              5948.00,61.79 5960.00,63.87 5960.00,63.87              5960.00,63.87 5976.00,63.87 5976.00,63.87              5976.00,63.87 5982.00,62.77 5982.00,62.77              5986.33,62.30 5989.28,64.32 5994.00,64.83              6005.24,66.05 6001.95,62.00 6014.00,67.05              6016.24,67.99 6018.69,68.56 6020.68,70.00              6020.68,70.00 6028.04,77.91 6028.04,77.91              6034.63,84.27 6044.52,90.49 6054.00,89.91              6060.25,89.52 6065.36,86.96 6069.99,82.82              6072.39,80.67 6075.30,76.70 6078.09,75.60              6081.26,74.35 6085.38,75.85 6092.00,73.78              6092.00,73.78 6105.00,67.91 6105.00,67.91              6105.00,67.91 6115.00,66.10 6115.00,66.10              6115.00,66.10 6128.00,61.95 6128.00,61.95              6128.00,61.95 6141.00,61.95 6141.00,61.95              6141.00,61.95 6148.00,61.95 6148.00,61.95              6156.38,61.90 6159.14,60.02 6164.00,59.81              6164.00,59.81 6175.00,59.81 6175.00,59.81              6175.00,59.81 6189.00,59.00 6189.00,59.00              6189.00,59.00 6196.00,59.00 6196.00,59.00              6196.00,59.00 6215.00,60.30 6215.00,60.30              6215.00,60.30 6231.00,62.96 6231.00,62.96              6231.00,62.96 6256.00,61.29 6256.00,61.29              6256.00,61.29 6270.00,63.83 6270.00,63.83              6270.00,63.83 6287.00,65.13 6287.00,65.13              6293.08,66.05 6296.62,67.86 6303.00,67.98              6313.61,68.20 6321.44,63.23 6330.00,62.66              6330.00,62.66 6365.00,62.66 6365.00,62.66              6371.63,62.50 6378.28,59.28 6385.00,59.78              6385.00,59.78 6406.00,61.96 6406.00,61.96              6412.48,62.21 6413.02,61.08 6418.00,60.53              6418.00,60.53 6439.00,60.53 6439.00,60.53              6439.00,60.53 6460.00,63.91 6460.00,63.91              6460.00,63.91 6470.00,63.91 6470.00,63.91              6470.00,63.91 6477.00,62.87 6477.00,62.87              6477.00,62.87 6494.00,62.87 6494.00,62.87              6494.00,62.87 6515.00,61.01 6515.00,61.01              6515.00,61.01 6528.00,62.90 6528.00,62.90              6528.00,62.90 6543.00,62.90 6543.00,62.90              6550.17,63.78 6553.90,66.29 6562.00,65.96              6562.00,65.96 6596.00,60.91 6596.00,60.91              6596.00,60.91 6605.00,60.91 6605.00,60.91              6605.00,60.91 6613.00,59.60 6613.00,59.60              6613.00,59.60 6623.00,60.96 6623.00,60.96              6623.00,60.96 6639.00,60.00 6639.00,60.00              6648.27,60.11 6646.68,62.16 6661.00,62.00              6669.54,61.90 6670.55,59.98 6675.00,59.66              6675.00,59.66 6703.00,61.10 6703.00,61.10              6708.82,61.67 6710.84,64.61 6719.00,64.96              6729.25,65.41 6731.32,62.63 6736.00,62.30              6736.00,62.30 6751.00,63.00 6751.00,63.00              6751.00,63.00 6764.00,62.09 6764.00,62.09              6768.23,62.33 6770.03,63.25 6775.00,62.91              6775.00,62.91 6787.00,61.04 6787.00,61.04              6787.00,61.04 6803.00,62.00 6803.00,62.00              6811.83,62.00 6812.16,60.52 6817.00,60.21              6817.00,60.21 6830.00,61.09 6830.00,61.09              6830.00,61.09 6848.00,61.09 6848.00,61.09              6852.78,61.68 6854.07,62.87 6860.00,62.98              6868.00,63.14 6870.40,61.26 6874.00,61.38              6878.33,61.52 6880.94,64.33 6890.00,63.96              6890.00,63.96 6900.00,62.11 6900.00,62.11              6900.00,62.11 6909.00,62.11 6909.00,62.11              6909.00,62.11 6916.00,61.09 6916.00,61.09              6916.00,61.09 6933.00,62.00 6933.00,62.00              6933.00,62.00 6945.00,61.04 6945.00,61.04              6950.89,60.79 6952.11,61.60 6957.00,61.83              6957.00,61.83 6967.00,61.83 6967.00,61.83              6967.00,61.83 7001.00,65.00 7001.00,65.00              7011.03,64.88 7014.18,61.61 7019.00,61.49              7019.00,61.49 7039.00,62.87 7039.00,62.87              7039.00,62.87 7046.00,62.87 7046.00,62.87              7046.00,62.87 7058.00,62.87 7058.00,62.87              7058.00,62.87 7108.00,62.87 7108.00,62.87              7108.00,62.87 7125.00,64.91 7125.00,64.91              7131.27,64.52 7130.55,63.02 7141.00,63.00              7141.00,63.00 7172.00,62.00 7172.00,62.00              7172.00,62.00 7184.00,62.96 7184.00,62.96              7184.00,62.96 7197.00,62.96 7197.00,62.96              7197.00,62.96 7211.00,63.99 7211.00,63.99              7211.00,63.99 7229.00,62.00 7229.00,62.00              7229.00,62.00 7252.00,63.00 7252.00,63.00              7252.00,63.00 7280.00,63.00 7280.00,63.00              7280.00,63.00 7292.00,63.96 7292.00,63.96              7292.00,63.96 7303.00,63.96 7303.00,63.96              7303.00,63.96 7315.00,64.97 7315.00,64.97              7315.00,64.97 7324.00,64.04 7324.00,64.04              7324.00,64.04 7335.00,64.04 7335.00,64.04              7335.00,64.04 7351.00,63.00 7351.00,63.00              7351.00,63.00 7365.00,63.00 7365.00,63.00              7365.00,63.00 7376.00,62.05 7376.00,62.05              7376.00,62.05 7389.00,62.05 7389.00,62.05              7389.00,62.05 7404.00,63.00 7404.00,63.00              7404.00,63.00 7445.00,63.00 7445.00,63.00              7445.00,63.00 7462.00,64.00 7462.00,64.00              7462.00,64.00 7518.00,65.00 7518.00,65.00              7518.00,65.00 7534.00,65.00 7534.00,65.00              7534.00,65.00 7547.00,64.18 7547.00,64.18              7547.00,64.18 7562.00,65.37 7562.00,65.37              7568.46,66.61 7568.98,68.28 7577.00,67.96              7586.66,67.57 7586.84,64.02 7599.00,64.00              7599.00,64.00 7607.00,64.00 7607.00,64.00              7623.39,64.20 7633.66,69.37 7641.00,69.91              7650.69,70.62 7660.43,67.09 7670.00,66.18              7675.61,65.64 7679.56,67.78 7685.00,67.96              7691.37,68.17 7693.29,66.58 7698.00,66.19              7698.00,66.19 7710.00,66.91 7710.00,66.91              7710.00,66.91 7732.00,65.21 7732.00,65.21              7737.58,65.52 7738.07,66.98 7748.00,67.00              7748.00,67.00 7769.00,67.00 7769.00,67.00              7769.00,67.00 7783.00,68.00 7783.00,68.00              7783.00,68.00 7811.00,66.10 7811.00,66.10              7811.00,66.10 7822.00,67.91 7822.00,67.91              7828.95,68.33 7831.84,65.75 7838.00,66.18              7838.00,66.18 7850.00,67.00 7850.00,67.00              7850.00,67.00 7861.00,66.43 7861.00,66.43              7861.00,66.43 7878.00,71.79 7878.00,71.79              7878.00,71.79 7908.00,76.99 7908.00,76.99              7920.97,77.28 7922.32,73.12 7933.00,72.17              7935.50,71.95 7945.61,72.98 7948.00,73.63              7948.00,73.63 7957.00,76.53 7957.00,76.53              7957.00,76.53 7966.00,77.17 7966.00,77.17              7971.72,77.72 7976.53,79.08 7982.00,80.58              7982.00,80.58 7995.79,83.02 7995.79,83.02              7998.19,84.42 8000.31,88.64 8002.33,90.96              8006.05,95.24 8009.29,96.28 8010.98,99.18              8012.00,100.93 8012.48,105.55 8013.21,108.00              8014.87,113.61 8017.31,118.58 8021.18,123.00              8021.18,123.00 8037.00,138.42 8037.00,138.42              8037.00,138.42 8047.15,147.32 8047.15,147.32              8049.05,149.94 8049.53,154.66 8050.95,158.00              8052.56,161.79 8054.52,163.74 8056.37,167.00              8056.37,167.00 8059.82,175.00 8059.82,175.00              8061.81,179.07 8065.00,183.69 8068.09,186.99              8070.40,189.44 8074.13,192.14 8075.44,195.09              8078.97,203.05 8077.40,211.70 8078.75,220.00              8080.83,232.67 8083.78,232.13 8084.78,238.00              8084.78,238.00 8086.70,264.00 8086.70,264.00              8086.43,267.77 8084.30,270.47 8084.04,277.00              8083.81,282.61 8085.29,290.03 8087.91,295.00              8087.91,295.00 8095.16,307.00 8095.16,307.00              8095.91,308.97 8096.64,321.56 8096.49,324.00              8095.63,337.45 8096.31,333.90 8100.11,346.00              8100.11,346.00 8103.22,357.00 8103.22,357.00              8105.29,363.24 8107.80,363.74 8107.98,371.00              8108.18,378.69 8106.52,380.86 8106.27,387.00              8106.27,387.00 8106.27,400.00 8106.27,400.00              8105.78,406.27 8103.70,412.60 8104.09,419.00              8104.85,431.24 8110.98,429.54 8111.00,444.00              8111.02,455.77 8111.92,452.50 8113.00,461.00              8113.00,461.00 8113.00,470.00 8113.00,470.00              8113.00,470.00 8114.94,478.00 8114.94,478.00              8114.94,478.00 8114.94,485.00 8114.94,485.00              8115.67,489.54 8117.16,492.10 8116.82,497.00              8116.82,497.00 8115.04,524.00 8115.04,524.00              8115.04,524.00 8116.30,542.00 8116.30,542.00              8116.30,542.00 8118.79,558.00 8118.79,558.00              8118.79,558.00 8118.09,574.00 8118.09,574.00              8118.79,583.52 8120.78,578.17 8121.00,597.00              8121.00,597.00 8121.66,609.00 8121.66,609.00              8121.01,613.70 8118.68,617.20 8119.09,624.00              8119.09,624.00 8121.59,636.00 8121.59,636.00              8121.59,636.00 8121.00,646.00 8121.00,646.00              8120.80,663.58 8125.35,657.61 8124.99,673.00              8124.99,673.00 8123.37,692.00 8123.37,692.00              8121.50,698.78 8118.59,701.79 8119.09,710.00              8119.47,716.16 8121.80,718.27 8121.98,725.00              8121.98,725.00 8121.09,740.00 8121.09,740.00              8121.09,740.00 8122.04,747.00 8122.04,747.00              8122.04,747.00 8122.04,755.00 8122.04,755.00              8122.66,759.54 8124.17,762.08 8123.82,767.00              8123.82,767.00 8122.13,783.83 8122.13,783.83              8121.05,786.43 8117.66,789.38 8115.79,792.00              8112.02,797.28 8110.78,802.59 8111.04,809.00              8111.64,823.90 8123.24,828.13 8123.86,838.00              8123.86,838.00 8120.09,879.00 8120.09,879.00              8120.57,886.78 8124.15,889.75 8124.44,894.00              8124.44,894.00 8123.09,905.00 8123.09,905.00              8123.09,905.00 8121.90,926.00 8121.90,926.00              8121.90,926.00 8119.45,936.00 8119.45,936.00              8119.45,936.00 8116.01,961.00 8116.01,961.00              8116.01,975.40 8123.01,976.27 8123.81,986.00              8124.23,991.10 8121.84,994.33 8120.44,999.00              8118.58,1005.23 8116.87,1013.52 8117.01,1020.00              8117.29,1032.16 8121.93,1030.55 8122.00,1042.00              8122.00,1042.00 8126.00,1079.00 8126.00,1079.00              8126.21,1097.09 8123.46,1092.44 8121.47,1103.00              8121.47,1103.00 8120.01,1128.00 8120.01,1128.00              8120.01,1138.16 8123.55,1140.62 8123.58,1145.00              8123.61,1149.28 8119.11,1155.04 8120.17,1165.00              8120.99,1172.68 8124.85,1176.32 8124.48,1179.98              8123.85,1186.17 8116.11,1184.06 8108.33,1193.04              8099.95,1202.71 8099.95,1216.29 8108.33,1225.96              8112.27,1230.51 8117.76,1233.23 8123.00,1236.00              8120.90,1244.62 8122.90,1244.51 8122.49,1251.00              8122.49,1251.00 8121.92,1260.00 8121.92,1260.00              8121.92,1260.00 8121.92,1271.00 8121.92,1271.00              8120.87,1280.65 8120.14,1277.54 8120.00,1290.00              8120.00,1290.00 8117.09,1316.00 8117.09,1316.00              8117.09,1316.00 8119.16,1327.00 8119.16,1327.00              8119.21,1330.10 8117.77,1332.39 8118.04,1339.00              8118.37,1347.11 8121.46,1349.59 8121.49,1354.00              8121.49,1354.00 8118.17,1376.00 8118.17,1376.00              8117.51,1382.26 8119.13,1385.21 8118.90,1390.00              8118.39,1400.28 8116.53,1394.61 8117.68,1410.00              8117.68,1410.00 8117.04,1425.00 8117.04,1425.00              8117.54,1436.11 8119.73,1430.46 8117.83,1448.00              8117.83,1448.00 8114.04,1471.00 8114.04,1471.00              8114.04,1471.00 8116.97,1493.00 8116.97,1493.00              8116.97,1493.00 8116.97,1505.00 8116.97,1505.00              8116.97,1505.00 8116.97,1520.00 8116.97,1520.00              8115.42,1527.22 8112.70,1526.85 8113.01,1540.00              8113.24,1549.12 8115.96,1550.48 8116.98,1556.00              8116.98,1556.00 8116.98,1563.00 8116.98,1563.00              8116.98,1563.00 8118.82,1584.00 8118.82,1584.00              8118.82,1584.00 8118.18,1596.00 8118.18,1596.00              8118.28,1599.36 8119.47,1602.70 8118.18,1606.00              8116.26,1611.47 8108.46,1615.45 8108.04,1628.00              8107.81,1634.90 8110.00,1638.63 8111.62,1645.00              8111.62,1645.00 8115.06,1662.00 8115.06,1662.00              8115.06,1662.00 8115.06,1669.00 8115.06,1669.00              8116.05,1674.18 8118.14,1677.55 8117.90,1683.00              8117.90,1683.00 8114.64,1706.00 8114.64,1706.00              8114.64,1706.00 8112.68,1713.00 8112.68,1713.00              8112.68,1713.00 8111.42,1723.00 8111.42,1723.00              8109.68,1728.06 8102.35,1732.88 8103.09,1745.00              8103.63,1753.77 8107.63,1756.47 8109.36,1762.00              8109.36,1762.00 8112.53,1779.00 8112.53,1779.00              8112.53,1779.00 8112.01,1790.00 8112.01,1790.00              8112.11,1794.02 8113.32,1798.10 8112.62,1802.00              8111.13,1810.33 8106.75,1818.39 8107.04,1827.00              8107.34,1835.80 8113.71,1847.35 8110.79,1857.00              8107.94,1866.44 8103.77,1864.19 8097.18,1871.09              8091.24,1877.33 8089.82,1883.68 8090.01,1892.00              8090.21,1900.66 8094.77,1912.98 8099.79,1920.00              8103.19,1924.76 8109.00,1928.92 8109.86,1935.00              8111.29,1945.13 8106.70,1950.02 8104.67,1958.00              8104.67,1958.00 8102.61,1971.00 8102.61,1971.00              8102.61,1971.00 8099.68,1980.00 8099.68,1980.00              8099.68,1980.00 8098.00,2003.00 8098.00,2003.00              8098.16,2016.44 8103.66,2018.14 8105.50,2025.00              8107.10,2030.95 8103.63,2035.53 8104.09,2043.00              8104.54,2050.25 8108.34,2059.86 8107.82,2067.00              8107.82,2067.00 8106.09,2079.00 8106.09,2079.00              8105.78,2083.43 8106.45,2087.64 8105.21,2092.00              8102.51,2101.51 8097.38,2107.43 8098.09,2120.00              8098.94,2134.98 8101.92,2137.23 8102.90,2143.00              8102.90,2143.00 8102.90,2154.00 8102.90,2154.00              8103.04,2162.97 8104.75,2163.85 8104.96,2170.00              8104.96,2170.00 8102.09,2196.00 8102.09,2196.00              8102.09,2196.00 8103.26,2212.00 8103.26,2212.00              8102.72,2226.61 8105.97,2226.86 8105.97,2236.00              8105.97,2241.48 8104.67,2243.37 8104.09,2248.00              8104.09,2248.00 8104.09,2259.00 8104.09,2259.00              8104.09,2259.00 8104.91,2274.00 8104.91,2274.00              8104.91,2274.00 8104.15,2282.00 8104.15,2282.00              8104.15,2282.00 8104.15,2291.00 8104.15,2291.00              8103.94,2296.31 8101.72,2298.74 8102.04,2307.00              8102.04,2307.00 8103.92,2321.00 8103.92,2321.00              8103.92,2321.00 8103.92,2339.00 8103.92,2339.00              8103.98,2352.19 8100.15,2349.59 8100.00,2362.00              8099.88,2373.09 8100.95,2370.28 8102.63,2379.00              8102.63,2379.00 8103.82,2391.00 8103.82,2391.00              8103.82,2391.00 8102.71,2411.00 8102.71,2411.00              8102.71,2411.00 8101.04,2423.00 8101.04,2423.00              8100.84,2429.22 8102.28,2430.92 8102.91,2436.00              8102.91,2436.00 8102.91,2448.00 8102.91,2448.00              8102.91,2448.00 8102.00,2464.00 8102.00,2464.00              8102.00,2464.00 8102.81,2476.00 8102.81,2476.00              8102.81,2476.00 8101.30,2484.00 8101.30,2484.00              8101.30,2484.00 8100.04,2500.00 8100.04,2500.00              8100.04,2500.00 8100.91,2517.00 8100.91,2517.00              8100.91,2517.00 8099.13,2540.00 8099.13,2540.00              8099.13,2540.00 8099.13,2555.00 8099.13,2555.00              8099.75,2560.49 8100.91,2560.58 8101.00,2568.00              8101.14,2580.62 8098.71,2578.56 8098.09,2587.00              8097.73,2591.96 8098.56,2594.53 8098.79,2599.00              8098.79,2599.00 8098.03,2609.00 8098.03,2609.00              8098.03,2609.00 8098.97,2620.00 8098.97,2620.00              8098.97,2620.00 8097.04,2645.00 8097.04,2645.00              8097.04,2645.00 8098.26,2655.00 8098.26,2655.00              8098.26,2655.00 8097.17,2663.00 8097.17,2663.00              8097.17,2663.00 8096.09,2691.00 8096.09,2691.00              8096.09,2691.00 8098.00,2715.00 8098.00,2715.00              8098.07,2720.98 8097.54,2730.11 8096.70,2736.00              8096.70,2736.00 8095.29,2744.00 8095.29,2744.00              8095.29,2744.00 8095.29,2754.00 8095.29,2754.00              8095.29,2754.00 8094.09,2763.00 8094.09,2763.00              8093.73,2768.93 8095.54,2772.02 8095.79,2776.00              8095.79,2776.00 8094.04,2789.00 8094.04,2789.00              8094.04,2789.00 8094.90,2805.00 8094.90,2805.00              8094.90,2805.00 8092.09,2833.00 8092.09,2833.00              8092.52,2839.96 8096.52,2849.44 8095.81,2858.00              8095.18,2865.66 8091.66,2874.34 8092.09,2882.00              8092.09,2882.00 8093.00,2900.00 8093.00,2900.00              8093.00,2900.00 8092.00,2916.00 8092.00,2916.00              8092.00,2916.00 8092.00,2934.00 8092.00,2934.00              8091.66,2940.52 8089.74,2942.24 8090.04,2950.00              8090.04,2950.00 8090.79,2959.00 8090.79,2959.00              8090.79,2959.00 8089.09,2976.00 8089.09,2976.00              8089.45,2982.10 8092.22,2988.36 8091.82,2994.00              8091.82,2994.00 8090.09,3027.00 8090.09,3027.00              8090.09,3027.00 8091.40,3036.00 8091.40,3036.00              8091.40,3036.00 8090.09,3044.00 8090.09,3044.00              8090.09,3044.00 8090.09,3054.00 8090.09,3054.00              8090.09,3054.00 8090.79,3068.00 8090.79,3068.00              8090.30,3071.82 8088.43,3074.63 8088.16,3080.00              8088.16,3080.00 8088.16,3089.00 8088.16,3089.00              8087.79,3092.14 8085.70,3095.65 8086.09,3102.00              8086.48,3108.27 8087.98,3107.55 8088.00,3118.00              8088.00,3118.00 8089.00,3145.00 8089.00,3145.00              8089.00,3145.00 8086.63,3166.00 8086.63,3166.00              8086.63,3166.00 8084.15,3175.00 8084.15,3175.00              8084.15,3175.00 8084.15,3196.00 8084.15,3196.00              8084.12,3205.96 8087.74,3210.62 8087.61,3215.00              8087.52,3217.85 8085.34,3221.98 8084.44,3225.00              8082.95,3230.00 8082.95,3232.88 8083.00,3238.00              8083.00,3238.00 8084.82,3254.00 8084.82,3254.00              8084.82,3254.00 8083.04,3267.00 8083.04,3267.00              8083.04,3267.00 8084.00,3284.00 8084.00,3284.00              8084.19,3300.18 8081.88,3293.73 8078.90,3306.00              8077.77,3310.63 8077.95,3315.27 8078.00,3320.00              8078.00,3320.00 8079.82,3336.00 8079.82,3336.00              8079.82,3336.00 8078.31,3347.00 8078.31,3347.00              8078.31,3347.00 8078.31,3358.00 8078.31,3358.00              8077.88,3363.32 8076.02,3362.02 8075.91,3374.00              8075.91,3374.00 8075.91,3394.00 8075.91,3394.00              8075.29,3398.99 8073.76,3401.12 8074.09,3407.00              8074.09,3407.00 8075.00,3421.00 8075.00,3421.00              8075.09,3428.45 8076.24,3428.46 8076.83,3434.00              8076.83,3434.00 8077.82,3452.00 8077.82,3452.00              8077.82,3452.00 8077.09,3458.00 8077.09,3458.00              8077.09,3458.00 8077.91,3471.00 8077.91,3471.00              8077.91,3471.00 8077.01,3483.00 8077.01,3483.00              8077.01,3483.00 8077.98,3496.00 8077.98,3496.00              8077.98,3496.00 8077.10,3506.00 8077.10,3506.00              8077.10,3506.00 8077.10,3515.00 8077.10,3515.00              8076.61,3520.80 8075.86,3521.01 8076.01,3528.00              8076.01,3528.00 8076.54,3536.00 8076.54,3536.00              8076.54,3536.00 8074.09,3552.00 8074.09,3552.00              8074.09,3552.00 8074.99,3565.00 8074.99,3565.00              8074.99,3565.00 8073.86,3581.00 8073.86,3581.00              8073.86,3581.00 8073.86,3590.00 8073.86,3590.00              8072.98,3595.60 8071.80,3597.75 8072.04,3604.00              8072.04,3604.00 8073.79,3627.00 8073.79,3627.00              8073.79,3627.00 8072.06,3635.00 8072.06,3635.00              8072.06,3635.00 8072.06,3643.00 8072.06,3643.00              8071.33,3647.64 8070.03,3649.51 8070.03,3655.00              8070.03,3655.00 8071.43,3675.00 8071.43,3675.00              8071.43,3675.00 8070.09,3697.00 8070.09,3697.00              8070.09,3697.00 8070.98,3705.00 8070.98,3705.00              8070.98,3705.00 8070.98,3723.00 8070.98,3723.00              8070.98,3723.00 8072.92,3744.00 8072.92,3744.00              8072.92,3744.00 8069.13,3772.00 8069.13,3772.00              8069.13,3772.00 8069.13,3795.00 8069.13,3795.00              8069.13,3795.00 8067.09,3820.00 8067.09,3820.00              8067.09,3820.00 8069.24,3831.00 8069.24,3831.00              8069.16,3834.86 8065.58,3838.71 8066.09,3847.00              8066.09,3847.00 8067.92,3859.00 8067.92,3859.00              8067.92,3864.68 8065.72,3866.86 8066.04,3875.00              8066.04,3875.00 8066.90,3886.00 8066.90,3886.00              8066.90,3886.00 8063.44,3902.00 8063.44,3902.00              8063.44,3902.00 8062.04,3919.00 8062.04,3919.00              8061.78,3927.13 8064.98,3936.59 8065.19,3940.00              8065.19,3940.00 8063.96,3954.00 8063.96,3954.00              8063.96,3954.00 8063.96,3965.00 8063.96,3965.00              8063.96,3965.00 8063.02,3976.00 8063.02,3976.00              8063.16,3983.44 8064.53,3982.12 8064.09,3992.00              8064.09,3992.00 8064.84,4003.00 8064.84,4003.00              8064.84,4003.00 8064.84,4027.00 8064.84,4027.00              8064.87,4037.56 8059.37,4045.08 8059.04,4055.00              8058.72,4064.54 8062.68,4067.57 8062.81,4073.00              8062.87,4075.67 8058.69,4092.99 8059.04,4102.00              8059.04,4102.00 8060.91,4118.00 8060.91,4118.00              8060.91,4118.00 8060.91,4146.00 8060.91,4146.00              8060.91,4146.00 8061.92,4158.00 8061.92,4158.00              8061.92,4158.00 8060.00,4177.00 8060.00,4177.00              8060.00,4177.00 8059.04,4192.00 8059.04,4192.00              8059.15,4194.93 8060.04,4198.23 8059.57,4201.00              8058.95,4204.70 8056.58,4207.27 8056.09,4214.00              8056.09,4214.00 8058.00,4235.00 8058.00,4235.00              8058.00,4235.00 8057.00,4254.00 8057.00,4254.00              8057.00,4254.00 8058.87,4271.00 8058.87,4271.00              8058.92,4275.17 8056.90,4278.92 8056.30,4283.00              8056.30,4283.00 8055.29,4302.00 8055.29,4302.00              8055.29,4302.00 8055.29,4313.00 8055.29,4313.00              8055.66,4317.40 8054.52,4320.02 8055.29,4326.00              8055.29,4326.00 8057.20,4336.00 8057.20,4336.00              8057.20,4336.00 8055.09,4350.00 8055.09,4350.00              8055.09,4350.00 8056.12,4368.00 8056.12,4368.00              8056.12,4368.00 8056.12,4380.00 8056.12,4380.00              8056.12,4380.00 8053.09,4400.00 8053.09,4400.00              8053.09,4400.00 8052.04,4418.00 8052.04,4418.00              8052.04,4418.00 8052.96,4431.00 8052.96,4431.00              8052.96,4431.00 8050.33,4444.00 8050.33,4444.00              8050.33,4444.00 8050.33,4457.00 8050.33,4457.00              8050.33,4457.00 8049.63,4469.00 8049.63,4469.00              8048.57,4474.50 8046.68,4476.31 8047.09,4483.00              8047.09,4483.00 8049.06,4493.00 8049.06,4493.00              8049.06,4493.00 8049.06,4502.00 8049.06,4502.00              8049.06,4502.00 8050.60,4509.00 8050.60,4509.00              8050.83,4513.74 8048.11,4515.63 8048.00,4525.00              8048.00,4525.00 8049.96,4547.00 8049.96,4547.00              8049.96,4547.00 8049.00,4565.00 8049.00,4565.00              8049.00,4565.00 8050.97,4581.00 8050.97,4581.00              8050.97,4581.00 8047.00,4606.00 8047.00,4606.00              8047.00,4606.00 8045.83,4632.00 8045.83,4632.00              8045.83,4632.00 8043.63,4646.00 8043.63,4646.00              8042.54,4651.52 8040.69,4653.39 8041.09,4660.00              8041.45,4665.85 8043.57,4668.67 8044.08,4672.00              8044.08,4672.00 8044.99,4694.00 8044.99,4694.00              8045.08,4698.36 8042.50,4712.12 8040.93,4716.00              8040.93,4716.00 8037.22,4724.00 8037.22,4724.00              8036.37,4726.67 8034.92,4742.15 8035.09,4745.00              8035.72,4755.12 8041.38,4758.88 8043.10,4763.00              8043.10,4763.00 8043.10,4781.00 8043.10,4781.00              8043.10,4781.00 8043.10,4791.00 8043.10,4791.00              8042.69,4798.09 8040.66,4806.88 8041.09,4814.00              8041.70,4823.91 8044.79,4822.27 8042.79,4836.00              8042.79,4836.00 8037.28,4859.00 8037.28,4859.00              8037.28,4859.00 8037.28,4868.00 8037.28,4868.00              8037.20,4870.66 8034.52,4877.41 8034.09,4884.00              8034.09,4884.00 8034.91,4898.00 8034.91,4898.00              8034.91,4898.00 8034.91,4916.00 8034.91,4916.00              8034.22,4921.70 8032.76,4922.72 8033.04,4930.00              8033.04,4930.00 8034.00,4941.00 8034.00,4941.00              8034.08,4947.74 8034.41,4953.43 8032.61,4960.00              8030.10,4969.20 8026.71,4968.79 8027.01,4982.00              8027.21,4990.52 8029.82,4994.98 8030.96,5002.00              8032.59,5014.19 8030.67,5012.16 8030.96,5019.00              8030.96,5019.00 8032.66,5029.00 8032.66,5029.00              8032.66,5029.00 8032.02,5036.00 8032.02,5036.00              8032.02,5036.00 8032.02,5052.00 8032.02,5052.00              8032.02,5052.00 8033.00,5072.00 8033.00,5072.00              8033.00,5072.00 8032.00,5096.00 8032.00,5096.00              8032.10,5104.02 8034.54,5107.32 8033.91,5116.00              8033.05,5127.84 8027.66,5132.38 8025.63,5141.00              8023.81,5149.16 8026.28,5153.42 8025.63,5160.00              8025.62,5165.12 8024.47,5167.19 8025.63,5173.00              8026.02,5178.08 8028.25,5182.76 8027.81,5188.00              8027.81,5188.00 8026.09,5197.00 8026.09,5197.00              8026.09,5197.00 8026.09,5205.00 8026.09,5205.00              8026.09,5205.00 8025.00,5219.00 8025.00,5219.00              8025.00,5219.00 8025.00,5235.00 8025.00,5235.00              8024.97,5248.98 8019.02,5246.35 8018.09,5259.00              8017.14,5271.91 8020.22,5272.75 8021.13,5280.00              8021.13,5280.00 8021.13,5295.00 8021.13,5295.00              8021.13,5295.00 8020.04,5304.00 8020.04,5304.00              8020.04,5304.00 8020.66,5313.00 8020.66,5313.00              8020.66,5313.00 8019.95,5325.00 8019.95,5325.00              8019.40,5332.52 8014.57,5333.80 8015.04,5346.00              8015.04,5346.00 8017.38,5367.00 8017.38,5367.00              8016.54,5372.37 8011.49,5377.26 8012.09,5387.00              8012.81,5398.61 8018.16,5396.39 8018.00,5411.00              8017.93,5417.30 8016.46,5421.36 8017.17,5428.00              8018.07,5436.36 8021.15,5444.52 8020.98,5453.00              8020.98,5453.00 8019.09,5466.00 8019.09,5466.00              8019.09,5466.00 8019.79,5477.00 8019.79,5477.00              8019.79,5477.00 8018.04,5488.00 8018.04,5488.00              8018.04,5488.00 8018.78,5501.00 8018.78,5501.00              8018.32,5504.95 8016.25,5507.69 8016.04,5514.00              8015.73,5523.30 8019.45,5525.42 8018.90,5533.00              8018.51,5538.46 8016.26,5540.33 8014.56,5545.00              8012.34,5551.07 8013.52,5554.23 8012.51,5558.00              8011.43,5562.00 8008.31,5564.96 8008.04,5573.00              8007.81,5580.04 8009.50,5581.25 8010.63,5587.00              8010.63,5587.00 8011.93,5596.00 8011.93,5596.00              8011.93,5596.00 8014.79,5605.00 8014.79,5605.00              8015.54,5610.43 8013.06,5615.71 8012.15,5621.00              8012.15,5621.00 8012.15,5631.00 8012.15,5631.00              8012.15,5631.00 8011.03,5643.00 8011.03,5643.00              8011.03,5643.00 8011.66,5653.00 8011.66,5653.00              8011.19,5657.76 8010.08,5658.00 8010.00,5665.00              8010.00,5665.00 8010.69,5680.00 8010.69,5680.00              8009.53,5689.78 8004.66,5699.14 8005.27,5709.00              8005.17,5712.29 8006.26,5715.87 8005.27,5719.00              8004.57,5722.75 8000.55,5727.13 8001.09,5736.00              8001.92,5749.47 8009.62,5753.54 8014.60,5764.00              8016.94,5768.91 8016.99,5772.73 8017.00,5778.00              8017.00,5778.00 8017.00,5782.00 8017.00,5782.00              8016.91,5789.27 8015.32,5795.18 8016.17,5803.00              8016.81,5808.84 8019.33,5812.08 8018.85,5817.00              8018.42,5821.46 8016.04,5823.10 8014.68,5829.00              8014.68,5829.00 8012.92,5851.00 8012.92,5851.00              8012.91,5858.63 8014.68,5870.81 8012.92,5877.00              8011.47,5881.51 8006.88,5887.04 8003.96,5890.98              7999.94,5896.41 7998.68,5895.84 7994.01,5899.53              7987.59,5904.60 7986.34,5908.95 7975.00,5907.90              7969.62,5907.40 7967.19,5904.63 7961.00,5903.47              7956.19,5902.56 7950.81,5903.67 7947.00,5902.07              7950.43,5903.50 7929.10,5892.49 7932.00,5894.29              7920.45,5887.11 7922.36,5884.83 7907.00,5885.00              7907.00,5885.00 7891.00,5886.66 7891.00,5886.66              7891.00,5886.66 7867.00,5885.00 7867.00,5885.00              7862.30,5884.95 7857.54,5884.77 7853.00,5886.22              7853.00,5886.22 7844.00,5890.12 7844.00,5890.12              7839.80,5890.98 7835.73,5887.62 7828.00,5888.09              7821.07,5888.52 7818.52,5891.61 7812.00,5891.18              7805.25,5890.73 7803.89,5888.58 7798.00,5887.23              7794.06,5886.72 7788.19,5887.07 7784.00,5887.23              7776.23,5886.86 7773.03,5882.63 7766.00,5879.26              7766.00,5879.26 7757.00,5875.91 7757.00,5875.91              7746.07,5871.99 7748.90,5872.15 7737.00,5872.00              7727.28,5871.87 7729.20,5869.02 7716.00,5869.00              7716.00,5869.00 7694.00,5869.82 7694.00,5869.82              7694.00,5869.82 7681.00,5868.02 7681.00,5868.02              7681.00,5868.02 7668.00,5868.81 7668.00,5868.81              7656.73,5867.88 7646.50,5862.75 7635.00,5863.01              7615.34,5863.46 7603.74,5874.44 7584.00,5873.99              7574.04,5873.76 7574.49,5870.94 7567.00,5866.91              7563.90,5865.25 7556.54,5863.10 7553.00,5862.46              7553.00,5862.46 7540.00,5861.53 7540.00,5861.53              7540.00,5861.53 7524.00,5856.47 7524.00,5856.47              7524.00,5856.47 7500.00,5853.83 7500.00,5853.83              7500.00,5853.83 7484.00,5851.17 7484.00,5851.17              7484.00,5851.17 7469.00,5849.83 7469.00,5849.83              7469.00,5849.83 7457.00,5847.94 7457.00,5847.94              7457.00,5847.94 7449.00,5847.94 7449.00,5847.94              7449.00,5847.94 7408.00,5840.11 7408.00,5840.11              7408.00,5840.11 7400.00,5840.11 7400.00,5840.11              7400.00,5840.11 7390.00,5840.11 7390.00,5840.11              7382.80,5839.69 7382.10,5838.04 7373.00,5838.00              7365.55,5837.97 7358.39,5837.80 7351.00,5836.70              7335.55,5834.40 7343.84,5832.75 7322.00,5833.00              7322.00,5833.00 7309.00,5833.91 7309.00,5833.91              7309.00,5833.91 7275.00,5831.00 7275.00,5831.00              7275.00,5831.00 7220.00,5831.00 7220.00,5831.00              7220.00,5831.00 7189.00,5829.00 7189.00,5829.00              7189.00,5829.00 7168.00,5829.00 7168.00,5829.00              7162.84,5829.01 7155.00,5829.76 7150.00,5830.89              7150.00,5830.89 7138.00,5833.71 7138.00,5833.71              7134.81,5833.80 7131.31,5832.09 7128.00,5831.23              7124.79,5830.87 7120.33,5830.96 7117.00,5831.23              7117.00,5831.23 7104.00,5832.66 7104.00,5832.66              7104.00,5832.66 7097.00,5832.02 7097.00,5832.02              7097.00,5832.02 7076.00,5832.02 7076.00,5832.02              7076.00,5832.02 7061.00,5833.00 7061.00,5833.00              7061.00,5833.00 7030.00,5830.00 7030.00,5830.00              7030.00,5830.00 7008.00,5832.00 7008.00,5832.00              7008.00,5832.00 6979.00,5833.14 6979.00,5833.14              6979.00,5833.14 6969.00,5833.14 6969.00,5833.14              6969.00,5833.14 6946.00,5833.14 6946.00,5833.14              6946.00,5833.14 6933.00,5834.00 6933.00,5834.00              6933.00,5834.00 6913.00,5834.00 6913.00,5834.00              6913.00,5834.00 6895.00,5832.08 6895.00,5832.08              6895.00,5832.08 6880.00,5832.08 6880.00,5832.08              6880.00,5832.08 6867.00,5831.01 6867.00,5831.01              6867.00,5831.01 6852.00,5832.00 6852.00,5832.00              6852.00,5832.00 6810.00,5826.00 6810.00,5826.00              6810.00,5826.00 6744.00,5826.00 6744.00,5826.00              6744.00,5826.00 6722.00,5824.04 6722.00,5824.04              6722.00,5824.04 6705.00,5824.04 6705.00,5824.04              6705.00,5824.04 6695.00,5825.00 6695.00,5825.00              6687.63,5825.08 6680.30,5824.91 6673.00,5823.80              6673.00,5823.80 6666.00,5821.92 6666.00,5821.92              6661.03,5820.64 6655.16,5820.98 6650.00,5821.16              6650.00,5821.16 6639.00,5821.16 6639.00,5821.16              6639.00,5821.16 6627.00,5821.16 6627.00,5821.16              6627.00,5821.16 6599.00,5819.00 6599.00,5819.00              6599.00,5819.00 6569.00,5817.00 6569.00,5817.00              6569.00,5817.00 6537.00,5819.00 6537.00,5819.00              6537.00,5819.00 6516.00,5819.00 6516.00,5819.00              6516.00,5819.00 6494.00,5817.04 6494.00,5817.04              6494.00,5817.04 6478.00,5819.91 6478.00,5819.91              6478.00,5819.91 6458.00,5819.91 6458.00,5819.91              6458.00,5819.91 6434.00,5818.37 6434.00,5818.37              6434.00,5818.37 6415.00,5811.50 6415.00,5811.50              6408.43,5810.23 6403.92,5811.72 6400.00,5811.50              6400.00,5811.50 6392.00,5810.09 6392.00,5810.09              6392.00,5810.09 6381.00,5810.09 6381.00,5810.09              6373.39,5810.09 6372.69,5811.49 6367.00,5812.00              6367.00,5812.00 6359.00,5812.00 6359.00,5812.00              6359.00,5812.00 6347.00,5813.83 6347.00,5813.83              6347.00,5813.83 6319.00,5816.17 6319.00,5816.17              6309.62,5817.23 6314.32,5819.18 6299.00,5819.00              6299.00,5819.00 6285.00,5818.00 6285.00,5818.00              6285.00,5818.00 6256.00,5818.00 6256.00,5818.00              6256.00,5818.00 6240.00,5818.91 6240.00,5818.91              6233.45,5818.44 6225.89,5815.03 6218.00,5815.03              6218.00,5815.03 6189.00,5819.00 6189.00,5819.00              6189.00,5819.00 6164.00,5819.00 6164.00,5819.00              6164.00,5819.00 6152.00,5818.05 6152.00,5818.05              6152.00,5818.05 6135.00,5818.05 6135.00,5818.05              6135.00,5818.05 6118.00,5820.25 6118.00,5820.25              6118.00,5820.25 6092.00,5819.00 6092.00,5819.00              6092.00,5819.00 6067.00,5820.00 6067.00,5820.00              6067.00,5820.00 6046.00,5822.00 6046.00,5822.00              6046.00,5822.00 6029.00,5822.00 6029.00,5822.00              6029.00,5822.00 6008.00,5823.00 6008.00,5823.00              6008.00,5823.00 5993.00,5823.91 5993.00,5823.91              5981.95,5823.23 5979.94,5819.79 5962.00,5820.00              5955.82,5820.08 5953.63,5821.01 5948.00,5821.71              5948.00,5821.71 5917.00,5825.04 5917.00,5825.04              5917.00,5825.04 5903.00,5825.04 5903.00,5825.04              5903.00,5825.04 5892.00,5826.00 5892.00,5826.00              5892.00,5826.00 5871.00,5826.00 5871.00,5826.00              5871.00,5826.00 5848.00,5824.00 5848.00,5824.00              5848.00,5824.00 5825.00,5826.97 5825.00,5826.97              5817.13,5826.97 5814.59,5824.02 5803.00,5824.00              5803.00,5824.00 5785.00,5824.00 5785.00,5824.00              5785.00,5824.00 5763.00,5825.00 5763.00,5825.00              5763.00,5825.00 5743.00,5826.79 5743.00,5826.79              5743.00,5826.79 5734.00,5826.02 5734.00,5826.02              5734.00,5826.02 5717.00,5826.02 5717.00,5826.02              5717.00,5826.02 5699.00,5827.29 5699.00,5827.29              5699.00,5827.29 5690.00,5829.00 5690.00,5829.00              5690.00,5829.00 5681.00,5829.00 5681.00,5829.00              5676.00,5829.65 5669.90,5831.19 5665.00,5830.91              5665.00,5830.91 5656.00,5830.02 5656.00,5830.02              5656.00,5830.02 5642.00,5831.00 5642.00,5831.00              5642.00,5831.00 5622.00,5831.00 5622.00,5831.00              5609.65,5830.87 5602.12,5833.92 5597.00,5833.92              5590.55,5833.92 5587.22,5831.02 5576.00,5831.00              5576.00,5831.00 5558.00,5831.00 5558.00,5831.00              5558.00,5831.00 5542.00,5832.00 5542.00,5832.00              5542.00,5832.00 5525.00,5832.00 5525.00,5832.00              5525.00,5832.00 5513.00,5832.96 5513.00,5832.96              5513.00,5832.96 5499.00,5832.96 5499.00,5832.96              5499.00,5832.96 5482.00,5834.00 5482.00,5834.00              5482.00,5834.00 5468.00,5834.00 5468.00,5834.00              5468.00,5834.00 5452.00,5835.00 5452.00,5835.00              5452.00,5835.00 5430.00,5835.00 5430.00,5835.00              5430.00,5835.00 5421.00,5835.66 5421.00,5835.66              5421.00,5835.66 5414.00,5835.02 5414.00,5835.02              5414.00,5835.02 5402.00,5835.02 5402.00,5835.02              5402.00,5835.02 5389.00,5834.00 5389.00,5834.00              5389.00,5834.00 5364.00,5836.00 5364.00,5836.00              5364.00,5836.00 5339.00,5836.00 5339.00,5836.00              5339.00,5836.00 5314.00,5838.98 5314.00,5838.98              5306.71,5839.13 5305.09,5837.78 5299.00,5837.24              5299.00,5837.24 5285.00,5837.24 5285.00,5837.24              5285.00,5837.24 5276.00,5837.24 5276.00,5837.24              5276.00,5837.24 5269.00,5836.15 5269.00,5836.15              5269.00,5836.15 5259.00,5836.15 5259.00,5836.15              5259.00,5836.15 5248.00,5836.68 5248.00,5836.68              5248.00,5836.68 5196.00,5836.00 5196.00,5836.00              5185.76,5835.98 5186.04,5834.58 5179.00,5834.09              5171.86,5833.59 5169.37,5834.92 5165.00,5834.92              5165.00,5834.92 5151.00,5834.00 5151.00,5834.00              5151.00,5834.00 5129.00,5836.29 5129.00,5836.29              5129.00,5836.29 5119.00,5837.96 5119.00,5837.96              5119.00,5837.96 5092.00,5836.00 5092.00,5836.00              5092.00,5836.00 5059.00,5837.00 5059.00,5837.00              5059.00,5837.00 5040.00,5836.00 5040.00,5836.00              5040.00,5836.00 5025.00,5837.00 5025.00,5837.00              5025.00,5837.00 4993.00,5837.00 4993.00,5837.00              4993.00,5837.00 4972.00,5838.00 4972.00,5838.00              4972.00,5838.00 4953.00,5839.29 4953.00,5839.29              4945.60,5840.20 4945.41,5840.99 4937.00,5841.00              4937.00,5841.00 4912.00,5840.00 4912.00,5840.00              4912.00,5840.00 4893.00,5838.14 4893.00,5838.14              4893.00,5838.14 4877.00,5838.14 4877.00,5838.14              4877.00,5838.14 4841.00,5838.14 4841.00,5838.14              4841.00,5838.14 4805.00,5842.82 4805.00,5842.82              4799.20,5842.38 4798.07,5841.04 4790.00,5841.00              4790.00,5841.00 4752.00,5841.00 4752.00,5841.00              4752.00,5841.00 4730.00,5842.44 4730.00,5842.44              4723.46,5843.46 4718.91,5845.23 4712.00,5844.96              4712.00,5844.96 4692.00,5843.00 4692.00,5843.00              4692.00,5843.00 4671.00,5844.00 4671.00,5844.00              4671.00,5844.00 4627.00,5845.25 4627.00,5845.25              4627.00,5845.25 4617.00,5845.25 4617.00,5845.25              4617.00,5845.25 4590.00,5843.00 4590.00,5843.00              4590.00,5843.00 4548.00,5844.00 4548.00,5844.00              4539.40,5843.90 4536.79,5841.59 4530.00,5841.09              4530.00,5841.09 4475.00,5840.00 4475.00,5840.00              4475.00,5840.00 4456.00,5839.00 4456.00,5839.00              4456.00,5839.00 4443.00,5840.00 4443.00,5840.00              4443.00,5840.00 4423.00,5840.00 4423.00,5840.00              4423.00,5840.00 4403.00,5841.00 4403.00,5841.00              4403.00,5841.00 4393.00,5840.05 4393.00,5840.05              4393.00,5840.05 4374.00,5840.05 4374.00,5840.05              4374.00,5840.05 4359.00,5841.00 4359.00,5841.00              4359.00,5841.00 4330.00,5841.00 4330.00,5841.00              4330.00,5841.00 4307.00,5842.49 4307.00,5842.49              4294.62,5841.70 4282.36,5842.24 4270.00,5843.09              4270.00,5843.09 4260.00,5844.00 4260.00,5844.00              4260.00,5844.00 4245.00,5844.00 4245.00,5844.00              4245.00,5844.00 4232.00,5845.06 4232.00,5845.06              4232.00,5845.06 4218.00,5845.06 4218.00,5845.06              4218.00,5845.06 4206.00,5843.17 4206.00,5843.17              4206.00,5843.17 4188.00,5841.11 4188.00,5841.11              4188.00,5841.11 4168.00,5836.53 4168.00,5836.53              4168.00,5836.53 4157.00,5829.87 4157.00,5829.87              4148.71,5825.10 4139.63,5820.71 4133.63,5812.91              4125.11,5801.81 4121.75,5773.89 4100.00,5767.93              4097.06,5767.12 4094.03,5766.92 4091.00,5767.04              4080.69,5767.46 4071.66,5774.31 4066.48,5783.00              4064.10,5786.99 4063.98,5789.58 4062.70,5791.83              4062.70,5791.83 4045.53,5813.00 4045.53,5813.00              4045.53,5813.00 4038.73,5823.79 4038.73,5823.79              4034.66,5828.07 4025.58,5830.88 4020.00,5832.86              4020.00,5832.86 4002.00,5839.22 4002.00,5839.22              4002.00,5839.22 3992.00,5840.90 3992.00,5840.90              3983.53,5842.93 3980.58,5844.88 3971.00,5845.00              3971.00,5845.00 3967.00,5845.00 3967.00,5845.00              3967.00,5845.00 3949.00,5847.00 3949.00,5847.00              3949.00,5847.00 3945.00,5847.00 3945.00,5847.00              3945.00,5847.00 3925.00,5846.20 3925.00,5846.20              3919.54,5845.23 3920.66,5843.02 3908.00,5843.00              3908.00,5843.00 3897.00,5843.00 3897.00,5843.00              3888.39,5842.89 3886.55,5840.38 3879.00,5840.04              3868.05,5839.55 3866.70,5841.95 3857.00,5842.00              3857.00,5842.00 3853.00,5842.00 3853.00,5842.00              3853.00,5842.00 3817.00,5837.09 3817.00,5837.09              3808.40,5837.62 3802.64,5842.81 3795.00,5844.63              3795.00,5844.63 3781.00,5847.49 3781.00,5847.49              3777.62,5847.49 3775.87,5845.81 3767.00,5846.01              3767.00,5846.01 3752.00,5847.47 3752.00,5847.47              3745.09,5848.76 3746.77,5849.95 3738.00,5850.00              3738.00,5850.00 3706.00,5851.00 3706.00,5851.00              3695.07,5850.81 3693.96,5843.29 3681.00,5844.09              3673.20,5844.57 3666.99,5849.06 3662.00,5849.59              3662.00,5849.59 3652.00,5849.00 3652.00,5849.00              3652.00,5849.00 3625.00,5849.00 3625.00,5849.00              3625.00,5849.00 3601.00,5848.00 3601.00,5848.00              3593.13,5848.10 3582.09,5851.68 3574.00,5853.33              3574.00,5853.33 3553.00,5854.86 3553.00,5854.86              3553.00,5854.86 3530.00,5854.86 3530.00,5854.86              3519.50,5853.34 3520.28,5850.85 3507.00,5851.00              3507.00,5851.00 3455.00,5857.00 3455.00,5857.00              3455.00,5857.00 3435.00,5855.00 3435.00,5855.00              3435.00,5855.00 3414.00,5855.00 3414.00,5855.00              3414.00,5855.00 3400.00,5855.66 3400.00,5855.66              3391.51,5854.45 3384.36,5847.40 3373.00,5848.09              3373.00,5848.09 3361.00,5850.54 3361.00,5850.54              3361.00,5850.54 3351.00,5851.46 3351.00,5851.46              3351.00,5851.46 3335.00,5855.49 3335.00,5855.49              3335.00,5855.49 3320.00,5856.46 3320.00,5856.46              3310.06,5858.26 3312.17,5860.98 3300.00,5860.90              3300.00,5860.90 3286.00,5860.90 3286.00,5860.90              3280.01,5859.95 3279.80,5857.77 3269.00,5858.01              3258.34,5858.26 3251.97,5862.31 3247.00,5862.80              3247.00,5862.80 3222.00,5862.00 3222.00,5862.00              3222.00,5862.00 3208.00,5861.04 3208.00,5861.04              3208.00,5861.04 3200.00,5861.96 3200.00,5861.96              3200.00,5861.96 3183.00,5861.96 3183.00,5861.96              3183.00,5861.96 3158.00,5863.96 3158.00,5863.96              3158.00,5863.96 3144.00,5862.01 3144.00,5862.01              3135.03,5861.81 3135.77,5863.03 3129.00,5863.83              3129.00,5863.83 3102.00,5866.04 3102.00,5866.04              3102.00,5866.04 3084.00,5866.04 3084.00,5866.04              3080.46,5866.35 3077.58,5867.50 3074.00,5867.16              3074.00,5867.16 3062.00,5866.00 3062.00,5866.00              3062.00,5866.00 3032.00,5866.00 3032.00,5866.00              3032.00,5866.00 3015.00,5866.96 3015.00,5866.96              3015.00,5866.96 3001.00,5866.96 3001.00,5866.96              3001.00,5866.96 2991.00,5866.01 2991.00,5866.01              2984.58,5866.01 2983.85,5867.03 2980.00,5867.13              2980.00,5867.13 2965.00,5867.13 2965.00,5867.13              2965.00,5867.13 2949.00,5868.79 2949.00,5868.79              2949.00,5868.79 2934.00,5868.04 2934.00,5868.04              2934.00,5868.04 2923.00,5869.00 2923.00,5869.00              2923.00,5869.00 2904.00,5869.00 2904.00,5869.00              2904.00,5869.00 2888.00,5869.96 2888.00,5869.96              2880.86,5869.68 2875.76,5868.21 2869.00,5866.68              2866.93,5866.21 2863.19,5866.09 2861.63,5865.01              2859.61,5863.60 2858.38,5859.83 2854.82,5856.09              2848.02,5848.97 2841.31,5847.90 2832.00,5848.00              2821.83,5848.12 2817.33,5851.40 2809.00,5856.58              2806.36,5858.22 2799.70,5862.77 2797.00,5863.13              2792.54,5863.73 2790.75,5859.75 2781.00,5857.67              2775.92,5856.58 2759.12,5856.93 2753.00,5857.00              2739.93,5857.16 2728.31,5863.04 2722.00,5863.82              2722.00,5863.82 2704.00,5865.34 2704.00,5865.34              2704.00,5865.34 2693.00,5863.17 2693.00,5863.17              2693.00,5863.17 2680.00,5863.17 2680.00,5863.17              2680.00,5863.17 2672.00,5863.17 2672.00,5863.17              2672.00,5863.17 2653.00,5864.32 2653.00,5864.32              2650.51,5863.60 2646.60,5860.06 2644.00,5858.47              2638.55,5855.12 2634.32,5854.08 2628.00,5854.19              2628.00,5854.19 2609.00,5854.19 2609.00,5854.19              2609.00,5854.19 2602.00,5853.17 2602.00,5853.17              2597.51,5852.70 2587.20,5854.00 2583.00,5855.56              2578.48,5857.23 2574.43,5860.37 2571.33,5864.01              2569.55,5866.10 2567.82,5869.33 2565.62,5870.73              2562.05,5872.99 2555.26,5872.77 2551.00,5873.93              2545.09,5875.53 2541.63,5878.71 2533.00,5880.49              2533.00,5880.49 2519.00,5881.30 2519.00,5881.30              2514.32,5881.97 2508.69,5884.09 2504.00,5883.79              2498.79,5883.46 2491.64,5880.63 2482.00,5881.04              2471.51,5881.48 2466.16,5885.87 2455.00,5886.00              2455.00,5886.00 2435.00,5886.00 2435.00,5886.00              2435.00,5886.00 2421.00,5887.00 2421.00,5887.00              2412.81,5887.09 2406.89,5886.25 2399.00,5889.47              2393.27,5891.82 2390.66,5895.09 2387.00,5896.43              2392.08,5894.57 2364.24,5902.86 2370.00,5901.61              2370.00,5901.61 2361.00,5902.68 2361.00,5902.68              2361.00,5902.68 2351.00,5905.67 2351.00,5905.67              2337.25,5908.06 2331.02,5899.57 2320.00,5894.95              2314.86,5892.80 2306.45,5892.44 2301.00,5893.47              2291.91,5895.18 2284.04,5902.19 2281.22,5911.00              2279.01,5917.92 2281.22,5921.18 2277.69,5923.99              2275.52,5925.72 2271.69,5926.09 2269.00,5926.66              2269.00,5926.66 2246.00,5929.17 2246.00,5929.17              2239.58,5929.88 2236.67,5932.33 2233.00,5933.37              2233.00,5933.37 2223.00,5934.46 2223.00,5934.46              2215.69,5935.78 2214.54,5937.89 2206.00,5938.00              2199.14,5938.08 2196.87,5937.59 2190.00,5939.74              2190.00,5939.74 2184.00,5941.62 2184.00,5941.62              2184.00,5941.62 2170.00,5942.79 2170.00,5942.79              2170.00,5942.79 2158.00,5941.09 2158.00,5941.09              2152.07,5940.66 2139.99,5941.77 2134.00,5942.75              2121.54,5944.79 2122.79,5947.00 2115.00,5949.21              2110.29,5950.55 2105.74,5949.66 2101.00,5950.17              2095.46,5950.76 2095.45,5951.91 2088.00,5952.00              2088.00,5952.00 2066.00,5952.73 2066.00,5952.73              2060.27,5951.57 2059.61,5947.62 2044.00,5943.90              2044.00,5943.90 2035.00,5942.47 2035.00,5942.47              2035.00,5942.47 2024.00,5939.30 2024.00,5939.30              2024.00,5939.30 2014.00,5938.49 2014.00,5938.49              2014.00,5938.49 1996.00,5930.65 1996.00,5930.65              1988.65,5927.28 1987.29,5922.37 1981.96,5917.04              1974.79,5909.87 1968.95,5907.78 1959.00,5908.01              1954.56,5908.12 1950.96,5908.81 1947.00,5910.91              1942.76,5913.17 1939.15,5916.76 1934.00,5916.70              1930.85,5916.66 1925.22,5913.51 1922.00,5912.15              1922.00,5912.15 1912.00,5908.54 1912.00,5908.54              1904.70,5905.67 1900.31,5901.96 1892.00,5900.46              1892.00,5900.46 1873.00,5898.83 1873.00,5898.83              1863.99,5897.76 1863.17,5895.88 1852.00,5896.16              1847.29,5896.06 1842.67,5897.37 1838.00,5896.16              1827.73,5894.01 1829.56,5890.02 1814.00,5890.00              1802.00,5889.98 1789.90,5889.40 1778.00,5887.84              1778.00,5887.84 1770.00,5886.30 1770.00,5886.30              1770.00,5886.30 1762.00,5885.79 1762.00,5885.79              1757.49,5885.14 1753.83,5882.59 1747.00,5882.09              1738.18,5881.45 1732.32,5884.08 1724.00,5885.54              1724.00,5885.54 1694.00,5887.96 1694.00,5887.96              1694.00,5887.96 1660.00,5884.00 1660.00,5884.00              1660.00,5884.00 1645.00,5885.92 1645.00,5885.92              1645.00,5885.92 1633.00,5885.92 1633.00,5885.92              1633.00,5885.92 1624.00,5886.66 1624.00,5886.66              1624.00,5886.66 1612.00,5885.04 1612.00,5885.04              1601.23,5884.62 1599.42,5888.74 1591.00,5888.98              1591.00,5888.98 1568.00,5887.70 1568.00,5887.70              1562.49,5886.92 1562.80,5886.08 1556.00,5886.00              1556.00,5886.00 1540.00,5886.00 1540.00,5886.00              1531.19,5885.84 1531.35,5882.27 1524.00,5879.56              1518.95,5877.69 1514.26,5877.99 1509.00,5878.00              1491.53,5878.03 1490.70,5884.52 1481.00,5888.16              1477.15,5889.61 1471.42,5888.65 1467.00,5889.30              1467.00,5889.30 1457.00,5891.47 1457.00,5891.47              1451.85,5891.33 1447.39,5887.48 1443.00,5885.40              1438.90,5883.45 1435.46,5883.06 1431.00,5883.00              1431.00,5883.00 1401.00,5883.00 1401.00,5883.00              1388.95,5882.98 1390.76,5880.13 1380.00,5880.00              1365.71,5879.84 1354.09,5879.38 1340.00,5882.68              1329.69,5885.09 1329.15,5888.88 1315.00,5889.82              1308.67,5890.24 1304.56,5886.56 1297.00,5886.09              1287.55,5885.51 1284.17,5889.29 1277.00,5891.54              1277.00,5891.54 1269.00,5893.55 1269.00,5893.55              1269.00,5893.55 1262.00,5896.19 1262.00,5896.19              1262.00,5896.19 1245.00,5895.00 1245.00,5895.00              1245.00,5895.00 1233.00,5895.90 1233.00,5895.90              1233.00,5895.90 1221.00,5894.09 1221.00,5894.09              1221.00,5894.09 1211.00,5894.09 1211.00,5894.09              1207.51,5893.35 1204.34,5889.48 1198.00,5886.93              1191.77,5884.43 1174.87,5881.93 1168.00,5882.00              1157.09,5882.13 1156.77,5884.68 1148.00,5888.48              1148.00,5888.48 1135.00,5893.65 1135.00,5893.65              1130.34,5895.52 1126.82,5894.74 1122.00,5895.43              1116.07,5896.28 1106.14,5899.18 1101.00,5898.82              1098.73,5898.66 1089.63,5897.75 1088.00,5897.07              1088.00,5897.07 1082.00,5893.46 1082.00,5893.46              1071.85,5887.33 1065.42,5881.73 1053.00,5882.01              1046.88,5882.16 1045.83,5883.31 1041.00,5883.83              1035.03,5884.47 1033.80,5883.41 1027.00,5885.44              1027.00,5885.44 1015.00,5890.59 1015.00,5890.59              1007.32,5892.47 999.49,5890.37 992.00,5891.17              992.00,5891.17 961.00,5895.82 961.00,5895.82              961.00,5895.82 949.00,5894.17 949.00,5894.17              949.00,5894.17 937.00,5893.56 937.00,5893.56              937.00,5893.56 923.00,5891.04 923.00,5891.04              923.00,5891.04 904.00,5892.57 904.00,5892.57              904.00,5892.57 894.00,5889.47 894.00,5889.47              894.00,5889.47 884.00,5888.51 884.00,5888.51              880.09,5887.45 877.53,5884.64 870.00,5884.09              863.49,5883.61 856.05,5884.39 850.00,5886.95              844.62,5889.23 842.02,5893.10 836.00,5893.15              822.56,5893.27 817.19,5887.50 807.00,5888.09              797.68,5888.63 798.89,5890.72 787.00,5888.79              783.19,5888.17 774.01,5884.03 766.00,5883.17              759.27,5882.45 744.27,5881.28 738.00,5882.47              731.36,5883.72 725.93,5888.09 719.00,5888.61              719.00,5888.61 688.00,5885.00 688.00,5885.00              680.57,5885.09 679.45,5886.51 675.00,5886.79              675.00,5886.79 664.00,5886.00 664.00,5886.00              664.00,5886.00 633.00,5882.29 633.00,5882.29              633.00,5882.29 612.00,5880.83 612.00,5880.83              603.07,5879.87 606.59,5878.86 594.00,5879.00              594.00,5879.00 553.00,5886.71 553.00,5886.71              545.05,5887.65 542.48,5884.63 535.00,5885.09              535.00,5885.09 517.00,5888.83 517.00,5888.83              505.95,5890.01 502.10,5886.78 492.00,5887.01              483.90,5887.20 484.88,5889.13 473.00,5889.00              473.00,5889.00 444.00,5886.01 444.00,5886.01              436.68,5886.18 434.08,5888.37 431.00,5888.13              426.65,5887.79 424.37,5883.50 412.00,5884.04              403.80,5884.40 396.23,5889.45 387.00,5889.90              387.00,5889.90 375.00,5889.04 375.00,5889.04              375.00,5889.04 363.00,5890.61 363.00,5890.61              358.79,5890.32 357.33,5888.68 349.00,5889.04              340.02,5889.43 337.92,5893.08 332.00,5892.79              326.73,5892.52 319.83,5889.17 312.00,5889.02              301.24,5888.80 298.90,5892.34 292.00,5892.79              285.93,5893.18 278.93,5890.46 273.00,5890.09              262.96,5889.48 256.52,5894.98 252.00,5895.31              252.00,5895.31 242.00,5894.04 242.00,5894.04              242.00,5894.04 224.00,5893.12 224.00,5893.12              224.00,5893.12 212.00,5893.12 212.00,5893.12              212.00,5893.12 200.00,5892.09 200.00,5892.09              200.00,5892.09 183.00,5892.09 183.00,5892.09              183.00,5892.09 174.00,5893.54 174.00,5893.54              174.00,5893.54 152.00,5892.00 152.00,5892.00              146.76,5891.98 142.03,5891.71 137.00,5893.56              133.22,5894.95 130.55,5897.67 127.00,5896.35              124.38,5895.37 116.56,5887.15 114.92,5884.72              113.05,5881.94 113.49,5880.26 108.76,5874.00              103.90,5867.57 97.94,5862.25 94.18,5855.00              90.32,5847.55 91.06,5842.08 85.21,5834.00              81.27,5828.56 78.21,5827.68 75.39,5824.68              72.41,5821.51 62.15,5803.07 60.85,5799.00              60.85,5799.00 60.85,5783.00 60.85,5783.00              59.74,5776.51 57.09,5774.29 57.13,5771.00              57.18,5767.23 61.60,5763.11 60.91,5753.00              60.49,5746.95 58.44,5744.31 57.29,5739.00              54.95,5728.22 52.57,5709.76 54.21,5699.00              55.02,5693.70 59.44,5688.05 61.07,5682.00              63.24,5673.98 61.02,5663.44 61.72,5660.00              63.01,5653.67 66.85,5648.05 68.78,5642.00              70.31,5637.18 70.06,5632.00 70.00,5627.00              69.92,5620.66 68.17,5614.80 65.67,5609.00              63.73,5604.52 60.98,5601.10 61.33,5596.00              61.93,5587.13 67.04,5583.60 70.60,5576.00              73.38,5570.07 73.07,5564.35 73.00,5558.00              72.84,5544.33 67.21,5543.96 66.61,5535.00              66.61,5535.00 67.91,5509.00 67.91,5509.00              67.91,5509.00 65.19,5496.00 65.19,5496.00              65.19,5496.00 65.91,5478.00 65.91,5478.00              65.91,5478.00 63.01,5452.00 63.01,5452.00              63.01,5452.00 65.96,5431.00 65.96,5431.00              65.96,5431.00 63.07,5412.00 63.07,5412.00              61.44,5405.93 59.67,5405.50 60.04,5398.00              60.28,5393.21 61.73,5391.32 62.77,5387.00              63.18,5383.54 63.04,5376.75 62.77,5373.00              62.90,5364.94 61.38,5364.44 60.32,5358.00              60.32,5358.00 58.04,5324.00 58.04,5324.00              58.04,5324.00 59.04,5316.00 59.04,5316.00              59.04,5316.00 59.04,5305.00 59.04,5305.00              59.04,5305.00 60.91,5295.00 60.91,5295.00              61.51,5286.81 60.08,5283.53 60.08,5279.00              60.08,5279.00 60.96,5266.00 60.96,5266.00              60.96,5266.00 60.96,5256.00 60.96,5256.00              60.96,5256.00 60.18,5249.00 60.18,5249.00              60.18,5249.00 60.96,5238.00 60.96,5238.00              60.96,5238.00 60.02,5226.00 60.02,5226.00              60.02,5226.00 61.00,5212.00 61.00,5212.00              61.00,5212.00 61.00,5198.00 61.00,5198.00              61.00,5198.00 61.00,5180.00 61.00,5180.00              61.00,5180.00 61.00,5172.00 61.00,5172.00              61.00,5172.00 60.00,5159.00 60.00,5159.00              60.00,5159.00 60.00,5139.00 60.00,5139.00              60.02,5126.95 62.87,5128.76 63.00,5118.00              63.17,5103.28 61.05,5105.67 59.93,5096.00              59.93,5096.00 59.93,5086.00 59.93,5086.00              59.84,5079.50 57.52,5075.34 58.21,5070.00              58.21,5070.00 60.70,5060.00 60.70,5060.00              60.70,5060.00 61.37,5048.00 61.37,5048.00              62.36,5042.83 63.97,5041.63 63.97,5035.00              63.97,5035.00 61.09,4999.00 61.09,4999.00              61.31,4995.21 62.16,4993.40 61.91,4989.00              61.91,4989.00 60.18,4977.00 60.18,4977.00              60.18,4977.00 61.20,4967.00 61.20,4967.00              61.04,4962.93 60.11,4956.40 61.20,4953.00              63.65,4947.05 68.53,4944.13 71.89,4939.00              75.87,4932.93 76.08,4927.97 76.00,4921.00              75.82,4905.69 66.82,4896.31 64.27,4885.00              64.27,4885.00 65.00,4868.00 65.00,4868.00              64.91,4860.57 63.49,4859.45 63.21,4855.00              63.21,4855.00 64.00,4843.00 64.00,4843.00              64.00,4843.00 63.30,4830.00 63.30,4830.00              63.58,4825.98 65.97,4823.19 65.97,4816.00              65.97,4808.90 63.64,4806.03 63.25,4802.00              63.25,4802.00 64.00,4789.00 64.00,4789.00              64.01,4785.14 63.52,4777.28 64.93,4774.00              67.92,4767.07 79.46,4760.98 79.96,4746.00              80.22,4738.29 77.74,4733.10 73.24,4727.00              70.77,4723.65 66.80,4720.24 66.27,4716.00              65.43,4709.32 72.33,4703.68 71.96,4692.00              71.96,4692.00 70.54,4678.00 70.54,4678.00              70.54,4678.00 68.32,4669.00 68.32,4669.00              68.32,4669.00 67.70,4657.00 67.70,4657.00              66.53,4648.87 65.02,4650.82 65.09,4640.00              65.09,4640.00 65.09,4629.00 65.09,4629.00              65.97,4621.54 67.12,4623.96 67.03,4613.00              66.97,4610.24 65.90,4604.39 67.03,4602.34              68.76,4599.33 76.58,4597.09 80.00,4595.12              89.65,4589.57 94.41,4581.07 93.96,4570.00              93.58,4560.50 88.37,4553.21 81.00,4547.53              76.30,4543.90 70.87,4542.93 68.38,4536.98              66.19,4531.77 68.93,4523.43 69.70,4518.00              70.58,4511.79 69.18,4508.79 69.18,4505.00              69.18,4505.00 69.96,4494.00 69.96,4494.00              69.96,4494.00 68.00,4466.00 68.00,4466.00              68.00,4466.00 69.91,4446.00 69.91,4446.00              69.91,4446.00 69.18,4439.00 69.18,4439.00              69.18,4439.00 69.96,4431.00 69.96,4431.00              70.21,4424.45 69.01,4423.67 68.81,4419.00              68.81,4419.00 68.81,4409.00 68.81,4409.00              68.81,4409.00 68.08,4399.00 68.08,4399.00              68.08,4399.00 69.91,4387.00 69.91,4387.00              69.91,4387.00 69.25,4373.00 69.25,4373.00              68.97,4369.69 68.76,4360.74 69.25,4358.00              70.34,4354.85 72.17,4352.98 73.32,4348.00              74.48,4342.98 73.59,4339.33 75.97,4334.00              77.80,4329.89 81.24,4326.84 83.52,4323.00              86.65,4317.73 87.12,4312.98 86.99,4307.00              86.82,4299.91 82.13,4289.10 78.52,4283.00              78.52,4283.00 73.98,4276.00 73.98,4276.00              72.45,4272.62 71.93,4261.07 72.00,4257.00              72.16,4248.58 75.33,4248.81 78.60,4242.00              80.49,4238.06 80.99,4234.31 80.99,4230.00              80.99,4214.19 72.97,4214.75 72.09,4203.00              71.51,4195.27 72.84,4192.32 72.99,4186.00              73.23,4175.02 70.85,4174.46 70.22,4169.00              70.22,4169.00 70.91,4157.00 70.91,4157.00              70.91,4157.00 68.78,4145.00 68.78,4145.00              68.72,4137.98 69.30,4130.94 70.28,4124.00              70.28,4124.00 71.92,4115.00 71.92,4115.00              71.92,4115.00 71.92,4098.00 71.92,4098.00              85.87,4096.83 97.48,4086.31 97.96,4072.00              98.54,4054.53 82.98,4049.61 78.08,4035.00              77.12,4032.92 77.75,4022.34 78.08,4020.00              78.08,4020.00 87.56,4003.42 87.56,4003.42              89.78,4000.60 91.89,3999.58 94.89,3995.00              98.29,3989.82 97.56,3986.93 101.22,3983.95              112.88,3974.48 127.21,3971.68 127.96,3953.00              128.54,3938.77 118.79,3926.85 105.00,3923.68              101.02,3922.77 97.97,3923.07 94.00,3923.00              80.49,3922.75 79.53,3911.61 76.09,3905.00              74.87,3902.65 73.25,3900.59 72.51,3898.00              71.79,3895.51 72.05,3891.68 71.99,3889.00              71.99,3889.00 71.32,3879.00 71.32,3879.00              71.32,3879.00 72.91,3860.00 72.91,3860.00              72.58,3854.30 71.38,3851.36 72.30,3845.00              73.41,3837.28 76.33,3834.22 75.96,3825.00              75.96,3825.00 72.92,3804.00 72.92,3804.00              72.92,3804.00 72.92,3792.00 72.92,3792.00              72.92,3792.00 71.10,3782.00 71.10,3782.00              71.10,3782.00 72.00,3768.00 72.00,3768.00              72.00,3768.00 72.00,3743.00 72.00,3743.00              72.00,3743.00 71.34,3732.00 71.34,3732.00              71.34,3732.00 72.00,3715.00 72.00,3715.00              72.01,3709.11 72.92,3702.65 74.62,3697.00              76.64,3690.26 79.39,3686.85 78.91,3679.00              78.60,3673.95 77.13,3671.95 76.37,3668.00              76.37,3668.00 74.96,3648.00 74.96,3648.00              74.96,3648.00 74.96,3636.00 74.96,3636.00              74.96,3636.00 74.10,3627.00 74.10,3627.00              74.38,3621.25 75.97,3621.28 76.00,3611.00 Z            M 4090.00,1551.43            C 4082.23,1554.55 4077.30,1566.96 4079.57,1575.00              4081.10,1580.41 4089.02,1587.01 4094.90,1584.90              4100.70,1582.82 4099.82,1575.87 4100.04,1571.00              4100.42,1562.28 4104.41,1549.60 4090.00,1551.43 Z            M 4090.00,1600.53            C 4087.29,1600.97 4085.57,1601.50 4083.00,1602.62              4081.21,1603.40 4079.62,1604.13 4078.11,1605.41              4069.22,1612.98 4078.85,1621.70 4082.82,1629.00              4085.63,1634.15 4088.26,1646.63 4094.96,1645.46              4100.45,1644.50 4100.98,1636.38 4102.35,1632.00              4103.50,1628.31 4106.53,1620.36 4106.78,1617.00              4107.18,1611.50 4103.33,1602.84 4097.98,1600.53              4095.45,1599.74 4092.63,1600.04 4090.00,1600.53 Z            M 4092.00,1880.40            C 4079.95,1882.30 4070.67,1897.12 4073.53,1909.00              4075.07,1915.40 4078.72,1916.26 4081.10,1926.00              4082.60,1932.11 4082.66,1947.85 4091.99,1947.38              4101.05,1946.93 4097.43,1935.40 4098.51,1930.00              4101.29,1916.13 4106.29,1908.26 4102.99,1893.00              4101.50,1886.15 4099.88,1880.86 4092.00,1880.40 Z            M 4089.00,2058.87            C 4079.65,2059.24 4068.14,2074.71 4069.37,2084.00              4070.01,2088.85 4074.80,2094.24 4077.24,2099.00              4080.03,2104.43 4084.09,2115.24 4091.98,2113.53              4100.21,2111.74 4099.97,2099.43 4100.00,2093.00              4100.00,2093.00 4100.82,2080.00 4100.82,2080.00              4100.23,2072.26 4097.19,2061.31 4089.00,2058.87 Z"
            style="fill:#000000;fill-opacity:1"/>
</svg>
