<?xml version="1.0" encoding="UTF-8" standalone="no"?>
<svg
        width="172.699mm"
        height="117.581mm"
        viewBox="0 0 8159 5555"
        version="1.1"
        id="svg1238"
        sodipodi:docname="sheet7a.svg"
        inkscape:version="1.1.1 (3bf5ae0d25, 2021-09-20)"
        xmlns:inkscape="http://www.inkscape.org/namespaces/inkscape"
        xmlns:sodipodi="http://sodipodi.sourceforge.net/DTD/sodipodi-0.dtd"
        xmlns="http://www.w3.org/2000/svg"
>
    <defs
            id="defs1242"/>
    <sodipodi:namedview
            id="namedview1240"
            pagecolor="#ffffff"
            bordercolor="#666666"
            borderopacity="1.0"
            inkscape:pageshadow="2"
            inkscape:pageopacity="0.0"
            inkscape:pagecheckerboard="0"
            inkscape:document-units="mm"
            showgrid="false"
            inkscape:zoom="1.7844259"
            inkscape:cx="326.43552"
            inkscape:cy="222.20032"
            inkscape:window-width="1920"
            inkscape:window-height="1001"
            inkscape:window-x="-7"
            inkscape:window-y="-7"
            inkscape:window-maximized="1"
            inkscape:current-layer="svg1238"/>
    <path
            id="Selection"
            fill="none"
            stroke="black"
            stroke-width="1"
            d="M 138.00,147.00            C 145.17,146.67 148.50,144.85 155.00,143.51              155.00,143.51 162.00,142.70 162.00,142.70              162.00,142.70 173.00,140.44 173.00,140.44              173.00,140.44 182.00,139.70 182.00,139.70              189.09,138.69 187.39,138.01 196.00,138.00              196.00,138.00 210.00,138.00 210.00,138.00              210.00,138.00 222.00,137.04 222.00,137.04              222.00,137.04 235.00,137.04 235.00,137.04              235.00,137.04 258.00,134.04 258.00,134.04              258.00,134.04 273.00,135.00 273.00,135.00              273.00,135.00 315.00,135.00 315.00,135.00              315.00,135.00 330.00,134.01 330.00,134.01              330.00,134.01 345.00,135.00 345.00,135.00              345.00,135.00 373.00,136.00 373.00,136.00              373.00,136.00 388.00,135.04 388.00,135.04              388.00,135.04 400.00,135.04 400.00,135.04              403.88,135.35 405.71,136.15 410.00,135.91              410.00,135.91 418.00,135.21 418.00,135.21              418.00,135.21 429.00,135.91 429.00,135.91              429.00,135.91 445.00,135.91 445.00,135.91              452.01,135.08 450.07,134.02 460.00,133.92              460.00,133.92 498.00,133.92 498.00,133.92              498.00,133.92 508.00,132.15 508.00,132.15              508.00,132.15 527.00,129.92 527.00,129.92              535.84,128.35 533.70,127.02 544.00,127.00              544.00,127.00 559.00,127.00 559.00,127.00              559.00,127.00 589.00,125.00 589.00,125.00              589.00,125.00 605.00,125.00 605.00,125.00              605.00,125.00 618.00,124.32 618.00,124.32              622.84,124.69 627.07,125.30 632.00,124.83              632.00,124.83 674.00,116.92 674.00,116.92              674.00,116.92 685.00,116.92 685.00,116.92              685.00,116.92 693.00,115.15 693.00,115.15              693.00,115.15 705.00,115.15 705.00,115.15              705.00,115.15 748.00,110.72 748.00,110.72              748.00,110.72 757.00,110.72 757.00,110.72              757.00,110.72 764.00,110.72 764.00,110.72              764.00,110.72 776.00,110.72 776.00,110.72              776.00,110.72 790.00,109.00 790.00,109.00              790.00,109.00 799.00,109.00 799.00,109.00              799.00,109.00 828.00,105.00 828.00,105.00              828.00,105.00 836.00,105.00 836.00,105.00              836.00,105.00 869.00,99.29 869.00,99.29              869.00,99.29 885.00,97.72 885.00,97.72              885.00,97.72 906.00,94.28 906.00,94.28              906.00,94.28 921.00,92.70 921.00,92.70              942.34,89.56 946.55,86.27 971.00,85.85              971.00,85.85 979.00,85.85 979.00,85.85              979.00,85.85 992.00,85.85 992.00,85.85              992.00,85.85 1011.00,85.16 1011.00,85.16              1022.38,85.14 1021.11,86.36 1035.00,85.16              1039.28,85.00 1042.81,86.41 1047.00,86.92              1047.00,86.92 1055.00,86.92 1055.00,86.92              1057.76,87.04 1064.17,87.37 1066.37,88.98              1068.28,90.38 1072.94,99.55 1073.60,102.00              1074.55,105.54 1074.02,107.24 1075.93,112.00              1079.46,120.82 1086.09,128.50 1095.00,132.07              1095.00,132.07 1103.00,134.41 1103.00,134.41              1103.00,134.41 1114.00,139.09 1114.00,139.09              1114.00,139.09 1131.00,142.28 1131.00,142.28              1139.39,144.02 1145.02,145.89 1154.00,146.00              1170.45,146.19 1165.30,147.83 1175.00,148.79              1175.00,148.79 1185.00,148.79 1185.00,148.79              1185.00,148.79 1205.00,147.18 1205.00,147.18              1205.00,147.18 1216.00,148.96 1216.00,148.96              1216.00,148.96 1243.00,148.96 1243.00,148.96              1243.00,148.96 1258.00,149.86 1258.00,149.86              1258.00,149.86 1273.00,149.86 1273.00,149.86              1273.00,149.86 1287.00,150.96 1287.00,150.96              1287.00,150.96 1297.00,150.96 1297.00,150.96              1297.00,150.96 1304.00,150.18 1304.00,150.18              1304.00,150.18 1314.00,151.00 1314.00,151.00              1326.31,151.14 1322.26,151.89 1331.00,152.83              1331.00,152.83 1349.00,154.29 1349.00,154.29              1355.70,155.17 1356.24,156.16 1364.00,155.99              1369.86,155.85 1377.99,153.52 1384.00,152.46              1384.00,152.46 1396.00,151.70 1396.00,151.70              1396.00,151.70 1406.00,149.46 1406.00,149.46              1406.00,149.46 1424.00,148.00 1424.00,148.00              1424.00,148.00 1443.00,148.00 1443.00,148.00              1443.00,148.00 1456.00,147.10 1456.00,147.10              1464.18,147.48 1470.31,150.98 1483.00,151.00              1483.00,151.00 1506.00,152.00 1506.00,152.00              1514.35,151.96 1516.70,150.20 1521.00,150.18              1521.00,150.18 1541.00,152.00 1541.00,152.00              1549.32,151.90 1548.63,150.59 1555.00,149.37              1555.00,149.37 1582.00,147.00 1582.00,147.00              1582.00,147.00 1623.00,147.00 1623.00,147.00              1623.00,147.00 1644.00,145.00 1644.00,145.00              1644.00,145.00 1658.00,145.91 1658.00,145.91              1658.00,145.91 1671.00,145.00 1671.00,145.00              1671.00,145.00 1704.00,142.72 1704.00,142.72              1704.00,142.72 1722.00,140.18 1722.00,140.18              1722.00,140.18 1749.00,141.00 1749.00,141.00              1749.00,141.00 1779.00,137.71 1779.00,137.71              1781.91,138.01 1785.01,140.34 1788.00,141.44              1788.00,141.44 1805.00,145.53 1805.00,145.53              1805.00,145.53 1833.00,148.91 1833.00,148.91              1833.00,148.91 1849.00,148.00 1849.00,148.00              1849.00,148.00 1876.00,150.00 1876.00,150.00              1876.00,150.00 1889.00,149.04 1889.00,149.04              1889.00,149.04 1904.00,149.04 1904.00,149.04              1904.00,149.04 1922.00,147.04 1922.00,147.04              1922.00,147.04 1930.00,147.96 1930.00,147.96              1930.00,147.96 1943.00,147.96 1943.00,147.96              1953.83,147.98 1953.78,146.05 1961.00,145.34              1961.00,145.34 1974.00,146.00 1974.00,146.00              1974.00,146.00 2015.00,146.00 2015.00,146.00              2015.00,146.00 2027.00,145.09 2027.00,145.09              2027.00,145.09 2046.00,146.00 2046.00,146.00              2061.21,145.98 2066.37,142.40 2070.00,141.93              2070.00,141.93 2088.00,143.00 2088.00,143.00              2088.00,143.00 2098.00,143.97 2098.00,143.97              2098.00,143.97 2111.00,143.97 2111.00,143.97              2111.00,143.97 2133.00,143.97 2133.00,143.97              2133.00,143.97 2150.00,142.70 2150.00,142.70              2157.09,141.69 2155.39,141.01 2164.00,141.00              2164.00,141.00 2177.00,141.00 2177.00,141.00              2185.64,140.99 2188.64,139.34 2192.00,139.34              2192.00,139.34 2204.00,140.99 2204.00,140.99              2215.64,141.25 2222.88,137.80 2227.00,137.67              2227.00,137.67 2237.00,137.67 2237.00,137.67              2237.00,137.67 2257.00,137.67 2257.00,137.67              2257.00,137.67 2276.00,139.00 2276.00,139.00              2276.00,139.00 2292.00,139.00 2292.00,139.00              2292.00,139.00 2308.00,138.00 2308.00,138.00              2308.00,138.00 2323.00,138.83 2323.00,138.83              2323.00,138.83 2332.00,137.17 2332.00,137.17              2332.00,137.17 2347.00,135.54 2347.00,135.54              2355.95,133.92 2361.51,132.01 2371.00,132.00              2371.00,132.00 2383.00,132.00 2383.00,132.00              2383.00,132.00 2399.00,131.00 2399.00,131.00              2399.00,131.00 2423.00,131.00 2423.00,131.00              2423.00,131.00 2439.00,131.99 2439.00,131.99              2439.00,131.99 2450.00,131.03 2450.00,131.03              2450.00,131.03 2459.00,131.91 2459.00,131.91              2459.00,131.91 2481.00,133.00 2481.00,133.00              2481.00,133.00 2501.00,134.00 2501.00,134.00              2501.00,134.00 2520.00,136.00 2520.00,136.00              2520.00,136.00 2584.00,138.00 2584.00,138.00              2584.00,138.00 2597.00,137.04 2597.00,137.04              2597.00,137.04 2625.00,139.00 2625.00,139.00              2625.00,139.00 2638.00,138.00 2638.00,138.00              2638.00,138.00 2659.00,138.00 2659.00,138.00              2659.00,138.00 2676.00,137.04 2676.00,137.04              2676.00,137.04 2690.00,137.04 2690.00,137.04              2690.00,137.04 2701.00,137.91 2701.00,137.91              2701.00,137.91 2718.00,137.91 2718.00,137.91              2718.00,137.91 2729.00,137.91 2729.00,137.91              2729.00,137.91 2738.00,137.91 2738.00,137.91              2744.78,137.42 2743.44,136.02 2754.00,136.00              2754.00,136.00 2767.00,136.00 2767.00,136.00              2767.00,136.00 2788.00,137.00 2788.00,137.00              2788.00,137.00 2801.00,136.00 2801.00,136.00              2801.00,136.00 2825.00,136.00 2825.00,136.00              2825.00,136.00 2844.00,135.00 2844.00,135.00              2854.86,135.13 2854.22,138.86 2866.00,139.00              2866.00,139.00 2870.00,139.00 2870.00,139.00              2870.00,139.00 2896.00,141.04 2896.00,141.04              2896.00,141.04 2910.00,141.04 2910.00,141.04              2913.87,141.35 2915.71,142.15 2920.00,141.91              2923.47,141.71 2925.20,140.91 2929.00,141.18              2932.49,141.43 2934.01,142.13 2938.00,141.91              2938.00,141.91 2949.00,141.04 2949.00,141.04              2949.00,141.04 2962.00,142.00 2962.00,142.00              2962.00,142.00 2971.00,142.00 2971.00,142.00              2977.80,142.08 2977.49,142.92 2983.00,143.70              2983.00,143.70 3004.00,144.91 3004.00,144.91              3007.47,144.71 3009.20,143.91 3013.00,144.18              3013.00,144.18 3046.00,145.00 3046.00,145.00              3046.00,145.00 3065.00,147.00 3065.00,147.00              3065.00,147.00 3075.00,147.00 3075.00,147.00              3075.00,147.00 3084.00,148.96 3084.00,148.96              3084.00,148.96 3093.00,148.96 3093.00,148.96              3097.37,149.39 3098.97,150.16 3104.00,149.96              3111.65,149.66 3118.04,146.78 3123.00,146.18              3123.00,146.18 3145.00,147.00 3145.00,147.00              3154.02,146.89 3154.81,144.92 3161.00,144.09              3161.00,144.09 3169.00,144.09 3169.00,144.09              3169.00,144.09 3188.00,143.00 3188.00,143.00              3188.00,143.00 3203.00,141.04 3203.00,141.04              3203.00,141.04 3214.00,141.04 3214.00,141.04              3214.00,141.04 3225.00,139.26 3225.00,139.26              3225.00,139.26 3231.00,139.91 3231.00,139.91              3231.00,139.91 3256.00,137.00 3256.00,137.00              3256.00,137.00 3283.00,137.00 3283.00,137.00              3283.00,137.00 3309.00,135.00 3309.00,135.00              3309.00,135.00 3337.00,135.00 3337.00,135.00              3337.00,135.00 3363.00,133.04 3363.00,133.04              3363.00,133.04 3385.00,133.91 3385.00,133.91              3385.00,133.91 3420.00,132.00 3420.00,132.00              3420.00,132.00 3452.00,128.92 3452.00,128.92              3452.00,128.92 3465.00,128.92 3465.00,128.92              3465.00,128.92 3480.00,127.00 3480.00,127.00              3480.00,127.00 3505.00,126.00 3505.00,126.00              3514.70,126.18 3511.54,130.62 3519.09,137.82              3525.06,143.51 3532.82,146.29 3541.00,145.96              3551.49,145.54 3556.96,140.76 3562.00,140.13              3562.00,140.13 3594.00,143.00 3594.00,143.00              3594.00,143.00 3625.00,143.00 3625.00,143.00              3634.42,142.89 3638.02,140.66 3646.00,139.32              3646.00,139.32 3675.00,135.86 3675.00,135.86              3675.00,135.86 3693.00,135.86 3693.00,135.86              3693.00,135.86 3710.00,132.18 3710.00,132.18              3710.00,132.18 3728.00,130.72 3728.00,130.72              3728.00,130.72 3742.00,127.94 3742.00,127.94              3742.00,127.94 3752.00,127.94 3752.00,127.94              3762.94,126.14 3771.54,123.02 3783.00,123.00              3783.00,123.00 3799.00,121.37 3799.00,121.37              3799.00,121.37 3808.00,121.99 3808.00,121.99              3808.00,121.99 3820.00,121.26 3820.00,121.26              3824.53,121.44 3825.18,122.98 3835.00,123.00              3835.00,123.00 3856.00,123.00 3856.00,123.00              3856.00,123.00 3873.00,122.00 3873.00,122.00              3894.64,121.89 3909.79,115.66 3930.00,110.59              3930.00,110.59 3959.00,104.32 3959.00,104.32              3965.55,102.79 3971.88,98.59 3980.00,98.21              3985.08,97.98 3988.38,101.30 3993.00,102.78              3998.05,104.39 4004.66,104.06 4010.00,104.00              4010.00,104.00 4023.00,102.68 4023.00,102.68              4023.00,102.68 4050.00,110.54 4050.00,110.54              4050.00,110.54 4064.00,111.33 4064.00,111.33              4067.87,112.00 4071.29,114.04 4075.00,115.25              4075.00,115.25 4085.00,117.54 4085.00,117.54              4085.00,117.54 4096.00,123.44 4096.00,123.44              4101.80,125.61 4118.63,127.99 4125.00,128.00              4125.00,128.00 4151.00,130.00 4151.00,130.00              4151.00,130.00 4183.00,132.00 4183.00,132.00              4183.00,132.00 4193.00,132.96 4193.00,132.96              4193.00,132.96 4210.00,132.96 4210.00,132.96              4210.00,132.96 4233.00,135.00 4233.00,135.00              4233.00,135.00 4254.00,134.00 4254.00,134.00              4254.00,134.00 4297.00,134.00 4297.00,134.00              4297.00,134.00 4313.00,135.00 4313.00,135.00              4313.00,135.00 4337.00,136.09 4337.00,136.09              4337.00,136.09 4351.00,136.75 4351.00,136.75              4351.00,136.75 4361.00,136.75 4361.00,136.75              4361.00,136.75 4394.00,138.91 4394.00,138.91              4394.00,138.91 4405.00,138.04 4405.00,138.04              4405.00,138.04 4416.00,139.00 4416.00,139.00              4416.00,139.00 4438.00,139.00 4438.00,139.00              4438.00,139.00 4453.00,137.96 4453.00,137.96              4453.00,137.96 4466.00,137.96 4466.00,137.96              4466.00,137.96 4478.00,137.00 4478.00,137.00              4478.00,137.00 4527.00,137.00 4527.00,137.00              4527.00,137.00 4559.00,135.00 4559.00,135.00              4559.00,135.00 4588.00,135.00 4588.00,135.00              4588.00,135.00 4612.00,136.96 4612.00,136.96              4612.00,136.96 4625.00,134.93 4625.00,134.93              4625.00,134.93 4636.00,134.93 4636.00,134.93              4643.86,133.58 4647.35,132.01 4656.00,131.92              4656.00,131.92 4672.00,131.92 4672.00,131.92              4672.00,131.92 4690.00,130.00 4690.00,130.00              4690.00,130.00 4701.00,130.00 4701.00,130.00              4701.00,130.00 4719.00,129.00 4719.00,129.00              4719.00,129.00 4733.00,128.00 4733.00,128.00              4733.00,128.00 4747.00,129.00 4747.00,129.00              4747.00,129.00 4773.00,127.00 4773.00,127.00              4777.54,126.99 4780.54,127.17 4785.00,125.78              4787.92,124.87 4791.24,122.89 4794.00,122.56              4794.00,122.56 4815.00,124.00 4815.00,124.00              4815.00,124.00 4827.00,123.03 4827.00,123.03              4827.00,123.03 4842.00,124.00 4842.00,124.00              4842.00,124.00 4857.00,123.00 4857.00,123.00              4857.00,123.00 4878.00,122.18 4878.00,122.18              4881.49,122.43 4883.01,123.13 4887.00,122.91              4887.00,122.91 4899.00,122.00 4899.00,122.00              4899.00,122.00 4944.00,122.00 4944.00,122.00              4944.00,122.00 4957.00,123.00 4957.00,123.00              4957.00,123.00 4982.00,121.04 4982.00,121.04              4982.00,121.04 4998.00,121.96 4998.00,121.96              4998.00,121.96 5006.00,121.04 5006.00,121.04              5006.00,121.04 5018.00,121.04 5018.00,121.04              5018.00,121.04 5050.00,117.09 5050.00,117.09              5050.00,117.09 5075.00,118.99 5075.00,118.99              5075.00,118.99 5092.00,118.00 5092.00,118.00              5092.00,118.00 5135.00,118.00 5135.00,118.00              5135.00,118.00 5150.00,117.00 5150.00,117.00              5150.00,117.00 5170.00,117.00 5170.00,117.00              5170.00,117.00 5187.00,115.96 5187.00,115.96              5187.00,115.96 5203.00,115.96 5203.00,115.96              5203.00,115.96 5214.00,115.00 5214.00,115.00              5214.00,115.00 5233.00,115.00 5233.00,115.00              5233.00,115.00 5249.00,113.34 5249.00,113.34              5249.00,113.34 5265.00,114.96 5265.00,114.96              5265.00,114.96 5273.00,114.96 5273.00,114.96              5273.00,114.96 5285.00,116.00 5285.00,116.00              5285.00,116.00 5313.00,117.00 5313.00,117.00              5313.00,117.00 5328.00,115.86 5328.00,115.86              5328.00,115.86 5346.00,115.86 5346.00,115.86              5350.62,115.11 5356.81,112.93 5361.00,113.34              5368.04,114.02 5374.77,116.25 5382.00,115.96              5382.00,115.96 5392.00,114.15 5392.00,114.15              5392.00,114.15 5402.00,114.15 5402.00,114.15              5408.86,113.92 5415.29,112.26 5422.00,111.06              5422.00,111.06 5432.00,111.06 5432.00,111.06              5432.00,111.06 5440.00,109.30 5440.00,109.30              5440.00,109.30 5450.00,108.71 5450.00,108.71              5450.00,108.71 5460.00,108.71 5460.00,108.71              5460.00,108.71 5476.00,107.00 5476.00,107.00              5476.00,107.00 5501.00,107.00 5501.00,107.00              5501.00,107.00 5519.00,105.54 5519.00,105.54              5519.00,105.54 5527.00,103.79 5527.00,103.79              5527.00,103.79 5536.00,103.79 5536.00,103.79              5536.00,103.79 5557.00,102.19 5557.00,102.19              5562.23,102.62 5563.55,104.26 5571.00,103.96              5571.00,103.96 5582.00,102.46 5582.00,102.46              5582.00,102.46 5603.00,104.00 5603.00,104.00              5603.00,104.00 5617.00,103.34 5617.00,103.34              5617.00,103.34 5630.00,104.09 5630.00,104.09              5636.80,104.59 5635.44,105.98 5646.00,106.00              5646.00,106.00 5689.00,106.00 5689.00,106.00              5689.00,106.00 5705.00,105.00 5705.00,105.00              5705.00,105.00 5731.00,105.00 5731.00,105.00              5731.00,105.00 5743.00,104.04 5743.00,104.04              5743.00,104.04 5758.00,104.04 5758.00,104.04              5758.00,104.04 5782.00,99.94 5782.00,99.94              5782.00,99.94 5806.00,99.94 5806.00,99.94              5806.00,99.94 5814.00,97.60 5814.00,97.60              5814.00,97.60 5836.00,93.67 5836.00,93.67              5840.88,93.51 5843.35,96.98 5856.00,97.00              5856.00,97.00 5879.00,97.00 5879.00,97.00              5879.00,97.00 5902.00,99.00 5902.00,99.00              5902.00,99.00 5912.00,98.04 5912.00,98.04              5912.00,98.04 5925.00,98.04 5925.00,98.04              5925.00,98.04 5938.00,97.00 5938.00,97.00              5952.86,96.83 5955.22,100.98 5970.00,101.00              5970.00,101.00 5999.00,101.00 5999.00,101.00              5999.00,101.00 6015.00,100.04 6015.00,100.04              6015.00,100.04 6029.00,102.83 6029.00,102.83              6029.00,102.83 6039.00,103.71 6039.00,103.71              6039.00,103.71 6049.00,103.71 6049.00,103.71              6049.00,103.71 6074.00,105.00 6074.00,105.00              6074.00,105.00 6108.00,100.96 6108.00,100.96              6108.00,100.96 6127.00,100.96 6127.00,100.96              6127.00,100.96 6136.00,99.60 6136.00,99.60              6139.82,99.60 6141.21,101.18 6150.00,100.99              6150.00,100.99 6159.00,100.18 6159.00,100.18              6159.00,100.18 6176.00,102.30 6176.00,102.30              6185.22,103.62 6188.45,105.98 6199.00,105.96              6199.00,105.96 6211.00,105.96 6211.00,105.96              6211.00,105.96 6218.00,105.37 6218.00,105.37              6218.00,105.37 6230.00,106.30 6230.00,106.30              6235.29,107.05 6235.57,107.99 6242.00,107.99              6242.00,107.99 6252.00,107.18 6252.00,107.18              6252.00,107.18 6267.00,108.00 6267.00,108.00              6267.00,108.00 6282.00,107.09 6282.00,107.09              6282.00,107.09 6301.00,108.00 6301.00,108.00              6315.23,107.98 6326.07,101.02 6342.00,100.85              6342.00,100.85 6357.00,100.85 6357.00,100.85              6357.00,100.85 6367.00,100.85 6367.00,100.85              6367.00,100.85 6382.00,99.18 6382.00,99.18              6382.00,99.18 6427.00,100.00 6427.00,100.00              6427.00,100.00 6441.00,98.60 6441.00,98.60              6441.00,98.60 6453.00,100.00 6453.00,100.00              6453.00,100.00 6477.00,98.00 6477.00,98.00              6477.00,98.00 6494.00,96.70 6494.00,96.70              6500.79,95.73 6507.04,94.03 6514.00,94.00              6514.00,94.00 6530.00,93.08 6530.00,93.08              6530.00,93.08 6544.00,94.00 6544.00,94.00              6544.00,94.00 6589.00,89.54 6589.00,89.54              6589.00,89.54 6602.00,85.81 6602.00,85.81              6602.00,85.81 6626.00,81.33 6626.00,81.33              6626.00,81.33 6638.00,78.12 6638.00,78.12              6638.00,78.12 6660.00,74.72 6660.00,74.72              6667.82,73.41 6667.86,72.04 6677.00,72.00              6677.00,72.00 6686.00,72.00 6686.00,72.00              6686.00,72.00 6703.00,71.00 6703.00,71.00              6703.00,71.00 6720.00,72.91 6720.00,72.91              6720.00,72.91 6731.00,72.21 6731.00,72.21              6736.31,72.55 6735.78,73.98 6746.00,74.00              6746.00,74.00 6760.00,74.00 6760.00,74.00              6760.00,74.00 6776.00,72.57 6776.00,72.57              6776.00,72.57 6800.00,74.04 6800.00,74.04              6800.00,74.04 6812.00,74.04 6812.00,74.04              6817.16,74.44 6819.08,75.34 6825.00,74.91              6832.35,74.38 6834.03,72.00 6844.00,72.00              6844.00,72.00 6860.00,73.00 6860.00,73.00              6860.00,73.00 6877.00,74.00 6877.00,74.00              6877.00,74.00 6894.00,74.00 6894.00,74.00              6894.00,74.00 6912.00,72.54 6912.00,72.54              6912.00,72.54 6922.00,70.09 6922.00,70.09              6922.00,70.09 6936.00,70.09 6936.00,70.09              6943.45,70.09 6943.46,71.24 6949.00,71.91              6949.00,71.91 6965.00,71.91 6965.00,71.91              6965.00,71.91 6979.00,70.00 6979.00,70.00              6979.00,70.00 6988.00,70.00 6988.00,70.00              6988.00,70.00 6995.00,68.85 6995.00,68.85              6995.00,68.85 7004.00,68.85 7004.00,68.85              7004.00,68.85 7011.00,68.34 7011.00,68.34              7011.00,68.34 7018.00,68.98 7018.00,68.98              7018.00,68.98 7035.00,68.98 7035.00,68.98              7035.00,68.98 7057.00,67.74 7057.00,67.74              7057.00,67.74 7079.00,69.99 7079.00,69.99              7079.00,69.99 7109.00,66.74 7109.00,66.74              7127.78,67.43 7125.57,64.58 7136.00,64.10              7136.00,64.10 7154.00,66.00 7154.00,66.00              7154.00,66.00 7180.00,65.16 7180.00,65.16              7180.00,65.16 7210.00,65.16 7210.00,65.16              7210.00,65.16 7229.00,67.00 7229.00,67.00              7248.06,67.22 7242.50,65.32 7252.00,64.05              7252.00,64.05 7275.00,64.05 7275.00,64.05              7275.00,64.05 7285.00,63.00 7285.00,63.00              7285.00,63.00 7298.00,63.00 7298.00,63.00              7298.00,63.00 7318.00,61.04 7318.00,61.04              7318.00,61.04 7331.00,61.99 7331.00,61.99              7331.00,61.99 7343.00,61.19 7343.00,61.19              7348.26,61.62 7349.49,63.25 7357.00,62.96              7357.00,62.96 7374.00,62.00 7374.00,62.00              7374.00,62.00 7384.00,62.95 7384.00,62.95              7384.00,62.95 7402.00,62.95 7402.00,62.95              7402.00,62.95 7412.00,62.05 7412.00,62.05              7412.00,62.05 7430.00,62.05 7430.00,62.05              7430.00,62.05 7444.00,62.96 7444.00,62.96              7444.00,62.96 7452.00,61.77 7452.00,61.77              7457.28,61.20 7458.57,63.89 7468.00,63.77              7471.72,64.04 7477.48,64.17 7481.00,63.77              7481.00,63.77 7492.00,60.54 7492.00,60.54              7492.00,60.54 7512.00,61.99 7512.00,61.99              7512.00,61.99 7524.00,61.04 7524.00,61.04              7524.00,61.04 7537.00,61.04 7537.00,61.04              7546.52,60.88 7555.69,57.66 7565.00,56.14              7565.00,56.14 7579.00,54.83 7579.00,54.83              7588.19,53.84 7584.81,53.06 7597.00,53.00              7597.00,53.00 7618.00,50.30 7618.00,50.30              7618.00,50.30 7632.00,50.96 7632.00,50.96              7632.00,50.96 7643.00,49.09 7643.00,49.09              7643.00,49.09 7664.00,49.09 7664.00,49.09              7673.63,49.02 7672.76,50.08 7681.00,51.54              7681.00,51.54 7696.00,52.96 7696.00,52.96              7705.31,53.25 7706.48,49.75 7718.00,50.01              7718.00,50.01 7731.00,50.91 7731.00,50.91              7735.92,50.57 7739.92,48.56 7745.00,49.21              7745.00,49.21 7762.00,54.32 7762.00,54.32              7766.13,55.25 7772.62,55.05 7777.00,55.00              7783.80,54.92 7783.49,54.08 7789.00,53.30              7789.00,53.30 7808.00,52.26 7808.00,52.26              7808.00,52.26 7818.00,53.91 7818.00,53.91              7825.05,54.43 7827.97,53.27 7834.00,53.04              7841.87,52.73 7846.94,55.07 7854.00,55.91              7854.00,55.91 7866.00,55.91 7866.00,55.91              7873.92,55.90 7873.56,54.54 7879.00,53.76              7879.00,53.76 7896.00,53.21 7896.00,53.21              7904.66,53.76 7910.46,57.27 7922.00,56.99              7922.00,56.99 7933.00,55.66 7933.00,55.66              7933.00,55.66 7946.00,55.66 7946.00,55.66              7949.00,55.83 7952.01,55.01 7955.00,55.66              7961.98,56.86 7968.75,62.63 7975.00,65.60              7980.36,68.15 7983.73,67.57 7987.00,68.49              7987.00,68.49 7997.00,72.58 7997.00,72.58              7997.00,72.58 8007.00,75.57 8007.00,75.57              8007.00,75.57 8017.00,77.63 8017.00,77.63              8017.00,77.63 8027.00,82.45 8027.00,82.45              8035.16,85.55 8037.95,84.55 8043.00,93.00              8031.73,90.98 8029.74,92.78 8019.00,94.59              8010.60,96.00 8001.01,97.75 7994.00,102.79              7985.40,108.97 7984.70,114.99 7981.53,118.32              7979.04,120.93 7975.00,122.61 7972.00,124.79              7967.30,128.21 7967.26,129.70 7964.26,132.57              7961.27,135.43 7958.64,135.06 7954.00,138.11              7946.27,143.18 7941.52,151.68 7942.09,161.00              7942.93,174.52 7950.95,178.56 7958.79,187.09              7958.79,187.09 7966.18,196.91 7966.18,196.91              7970.04,200.96 7973.76,202.37 7977.58,205.60              7991.68,217.54 8007.87,233.89 8028.00,229.00              8028.21,238.75 8033.09,247.60 8039.33,254.99              8042.01,258.16 8045.79,260.76 8047.97,264.04              8050.06,267.18 8050.86,273.06 8052.00,277.00              8039.13,277.28 8040.28,280.24 8031.00,285.11              8031.00,285.11 8015.00,291.12 8015.00,291.12              8003.39,294.92 7982.74,305.50 7976.48,316.00              7972.36,322.91 7971.92,339.21 7973.68,347.00              7975.16,353.53 7978.86,362.80 7981.58,369.00              7984.21,375.02 7988.04,382.34 7993.04,386.67              7997.44,390.49 8011.17,397.19 8017.00,397.83              8023.54,398.54 8027.76,397.08 8034.00,397.00              8043.64,396.89 8041.76,397.51 8050.00,398.70              8050.00,398.70 8056.00,399.21 8056.00,399.21              8061.27,400.06 8064.40,403.41 8069.00,405.60              8073.18,407.59 8077.42,408.14 8082.00,407.94              8092.65,407.55 8088.00,406.93 8100.00,407.94              8102.38,408.11 8106.22,407.79 8107.39,410.43              8108.65,413.29 8105.69,417.80 8106.04,426.00              8106.14,428.33 8106.46,429.76 8107.00,432.00              8101.68,432.43 8093.75,433.20 8089.00,435.40              8089.00,435.40 8082.00,438.76 8082.00,438.76              8082.00,438.76 8069.00,442.55 8069.00,442.55              8064.41,444.30 8061.47,446.92 8056.00,448.40              8056.00,448.40 8043.00,450.92 8043.00,450.92              8043.00,450.92 8033.00,454.73 8033.00,454.73              8027.30,455.83 8020.82,453.49 8011.00,458.90              8002.77,463.45 8001.19,468.68 7998.39,471.61              7998.39,471.61 7983.00,482.49 7983.00,482.49              7983.00,482.49 7963.00,485.90 7963.00,485.90              7960.45,486.52 7956.42,488.33 7954.00,487.60              7950.70,486.61 7948.12,482.21 7942.00,478.91              7934.67,474.96 7929.69,476.06 7922.00,476.83              7918.90,477.14 7917.30,476.92 7914.00,477.68              7904.68,479.83 7889.86,493.07 7886.56,502.00              7884.20,508.36 7885.54,511.69 7884.68,517.00              7884.68,517.00 7882.13,529.00 7882.13,529.00              7882.13,529.00 7882.13,544.00 7882.13,544.00              7882.56,548.10 7883.14,549.44 7882.96,554.00              7882.96,554.00 7881.04,575.00 7881.04,575.00              7881.04,575.00 7883.00,600.00 7883.00,600.00              7883.00,600.00 7883.90,616.00 7883.90,616.00              7883.62,621.71 7880.65,629.78 7881.09,637.00              7881.09,637.00 7882.13,645.00 7882.13,645.00              7882.13,645.00 7882.13,655.00 7882.13,655.00              7882.13,655.00 7882.66,663.00 7882.66,663.00              7882.66,663.00 7881.04,681.00 7881.04,681.00              7881.04,681.00 7881.04,691.00 7881.04,691.00              7880.52,696.42 7878.75,698.93 7879.09,705.00              7879.09,705.00 7880.27,725.00 7880.27,725.00              7880.27,725.00 7880.27,737.00 7880.27,737.00              7880.27,737.00 7880.27,747.00 7880.27,747.00              7880.27,747.00 7880.27,779.00 7880.27,779.00              7880.27,779.00 7880.27,787.00 7880.27,787.00              7880.27,787.00 7879.00,799.00 7879.00,799.00              7879.00,799.00 7880.68,829.00 7880.68,829.00              7880.68,829.00 7879.04,847.00 7879.04,847.00              7879.04,847.00 7879.82,857.00 7879.82,857.00              7879.82,857.00 7879.09,865.00 7879.09,865.00              7879.09,865.00 7879.09,884.00 7879.09,884.00              7879.09,884.00 7879.09,893.00 7879.09,893.00              7878.79,896.14 7876.70,899.65 7877.09,906.00              7877.09,906.00 7878.91,917.00 7878.91,917.00              7879.35,923.07 7878.40,925.63 7878.09,931.00              7878.09,931.00 7879.83,949.00 7879.83,949.00              7879.83,949.00 7880.96,974.00 7880.96,974.00              7880.96,974.00 7879.09,999.00 7879.09,999.00              7879.09,999.00 7879.09,1016.00 7879.09,1016.00              7879.09,1016.00 7880.53,1024.00 7880.53,1024.00              7880.53,1024.00 7880.00,1034.00 7880.00,1034.00              7880.00,1034.00 7880.00,1055.00 7880.00,1055.00              7880.15,1067.44 7883.97,1065.14 7884.00,1081.00              7884.02,1091.46 7886.29,1099.09 7887.70,1109.00              7887.70,1109.00 7889.16,1125.00 7889.16,1125.00              7890.88,1138.15 7891.82,1133.97 7892.00,1150.00              7892.00,1150.00 7893.47,1171.00 7893.47,1171.00              7893.47,1171.00 7895.99,1181.00 7895.99,1181.00              7895.99,1181.00 7897.46,1205.00 7897.46,1205.00              7897.46,1205.00 7902.47,1224.00 7902.47,1224.00              7902.47,1224.00 7905.30,1244.00 7905.30,1244.00              7905.30,1244.00 7907.98,1254.00 7907.98,1254.00              7907.98,1254.00 7907.98,1261.00 7907.98,1261.00              7907.98,1261.00 7911.16,1287.00 7911.16,1287.00              7911.16,1287.00 7913.98,1298.00 7913.98,1298.00              7913.98,1298.00 7913.98,1305.00 7913.98,1305.00              7913.98,1305.00 7919.00,1330.00 7919.00,1330.00              7902.03,1337.58 7899.51,1350.25 7897.83,1367.00              7897.83,1367.00 7897.00,1376.00 7897.00,1376.00              7896.79,1394.11 7894.58,1387.80 7892.47,1399.00              7892.47,1399.00 7890.58,1426.00 7890.58,1426.00              7890.58,1426.00 7885.04,1464.00 7885.04,1464.00              7885.37,1472.15 7889.92,1477.33 7889.92,1489.00              7889.92,1489.00 7889.00,1496.00 7889.00,1496.00              7889.00,1496.00 7889.00,1506.00 7889.00,1506.00              7889.00,1506.00 7887.30,1514.00 7887.30,1514.00              7887.30,1514.00 7886.70,1521.00 7886.70,1521.00              7885.63,1528.41 7883.84,1535.41 7884.01,1543.00              7884.21,1551.69 7887.04,1553.30 7886.95,1560.00              7886.95,1560.00 7884.71,1584.00 7884.71,1584.00              7884.71,1584.00 7883.04,1595.00 7883.04,1595.00              7882.82,1600.61 7883.72,1601.95 7883.90,1606.00              7883.90,1606.00 7881.55,1627.00 7881.55,1627.00              7879.66,1636.44 7873.74,1654.28 7874.04,1662.00              7874.18,1665.69 7875.37,1675.68 7876.55,1679.00              7879.15,1686.39 7882.66,1688.82 7884.38,1698.00              7885.32,1702.98 7885.06,1714.45 7885.00,1720.00              7885.00,1720.00 7884.04,1734.00 7884.04,1734.00              7884.04,1734.00 7885.29,1751.00 7885.29,1751.00              7885.29,1751.00 7885.29,1762.00 7885.29,1762.00              7885.29,1762.00 7888.91,1794.00 7888.91,1794.00              7889.46,1802.01 7888.16,1804.56 7888.01,1811.00              7888.01,1811.00 7890.00,1832.00 7890.00,1832.00              7890.00,1832.00 7890.82,1846.00 7890.82,1846.00              7890.82,1846.00 7890.04,1853.00 7890.04,1853.00              7890.04,1853.00 7890.04,1864.00 7890.04,1864.00              7890.04,1864.00 7891.00,1879.00 7891.00,1879.00              7891.18,1895.11 7890.46,1900.53 7893.54,1917.00              7894.64,1922.89 7894.20,1923.88 7896.62,1930.00              7900.36,1939.50 7906.35,1946.43 7911.22,1955.00              7914.86,1961.41 7922.23,1978.96 7924.08,1986.00              7924.08,1986.00 7925.67,1996.00 7925.67,1996.00              7926.42,1999.52 7927.65,2002.34 7927.90,2006.00              7927.90,2006.00 7927.09,2019.00 7927.09,2019.00              7927.42,2024.33 7929.37,2026.91 7928.79,2030.00              7928.31,2032.54 7924.28,2037.99 7922.82,2041.00              7920.74,2045.29 7919.62,2051.25 7919.17,2056.00              7918.11,2067.07 7923.42,2078.86 7922.98,2090.00              7922.70,2097.03 7919.47,2098.06 7916.95,2104.00              7914.93,2108.78 7914.95,2112.94 7915.00,2118.00              7915.00,2118.00 7915.90,2130.00 7915.90,2130.00              7915.90,2130.00 7914.90,2137.00 7914.90,2137.00              7914.90,2137.00 7914.90,2146.00 7914.90,2146.00              7913.78,2153.14 7913.01,2152.65 7913.04,2161.00              7913.04,2161.00 7913.04,2173.00 7913.04,2173.00              7913.04,2173.00 7914.00,2184.00 7914.00,2184.00              7914.00,2184.00 7914.00,2202.00 7914.00,2202.00              7914.00,2202.00 7912.09,2219.00 7912.09,2219.00              7912.40,2224.05 7913.87,2226.05 7914.63,2230.00              7915.62,2235.19 7914.15,2235.94 7916.37,2245.00              7919.75,2258.78 7922.16,2259.99 7923.90,2266.00              7923.90,2266.00 7927.87,2288.00 7927.87,2288.00              7927.87,2288.00 7927.87,2298.00 7927.87,2298.00              7927.87,2298.00 7929.00,2314.00 7929.00,2314.00              7929.00,2314.00 7927.00,2350.00 7927.00,2350.00              7927.00,2350.00 7928.63,2371.00 7928.63,2371.00              7928.63,2371.00 7928.00,2382.00 7928.00,2382.00              7928.00,2382.00 7926.13,2406.00 7926.13,2406.00              7926.13,2406.00 7926.13,2422.00 7926.13,2422.00              7926.03,2425.84 7924.79,2427.67 7925.09,2433.00              7925.09,2433.00 7926.90,2444.00 7926.90,2444.00              7926.90,2444.00 7926.90,2452.00 7926.90,2452.00              7926.90,2452.00 7927.96,2460.00 7927.96,2460.00              7927.96,2460.00 7927.09,2477.00 7927.09,2477.00              7927.09,2477.00 7929.17,2501.00 7929.17,2501.00              7929.17,2501.00 7930.28,2509.00 7930.28,2509.00              7930.28,2509.00 7929.09,2522.00 7929.09,2522.00              7928.59,2530.89 7934.89,2543.45 7935.52,2548.00              7935.52,2548.00 7934.04,2560.00 7934.04,2560.00              7934.04,2560.00 7934.68,2576.00 7934.68,2576.00              7934.68,2576.00 7934.00,2598.00 7934.00,2598.00              7933.88,2606.85 7930.65,2608.38 7931.04,2618.00              7931.38,2626.44 7934.89,2629.27 7934.92,2636.00              7934.92,2636.00 7932.09,2656.00 7932.09,2656.00              7932.09,2656.00 7932.09,2670.00 7932.09,2670.00              7932.09,2670.00 7935.30,2700.00 7935.30,2700.00              7935.93,2704.27 7938.03,2712.84 7937.42,2717.00              7936.82,2721.02 7933.89,2722.83 7931.90,2731.00              7930.46,2736.94 7931.03,2747.50 7931.00,2754.00              7930.95,2764.22 7925.51,2772.62 7926.09,2782.00              7926.64,2790.93 7931.35,2794.21 7931.26,2801.00              7931.19,2805.95 7928.38,2810.21 7927.47,2815.00              7927.47,2815.00 7926.70,2822.00 7926.70,2822.00              7925.58,2829.65 7922.86,2838.33 7923.02,2846.00              7923.11,2850.96 7923.85,2851.45 7924.23,2855.00              7924.23,2855.00 7921.28,2872.00 7921.28,2872.00              7921.28,2872.00 7915.58,2912.00 7915.58,2912.00              7915.58,2912.00 7909.06,2935.00 7909.06,2935.00              7909.06,2935.00 7909.06,2944.00 7909.06,2944.00              7909.06,2944.00 7907.30,2952.00 7907.30,2952.00              7907.30,2952.00 7906.71,2960.00 7906.71,2960.00              7906.71,2960.00 7899.29,3006.00 7899.29,3006.00              7899.29,3006.00 7898.70,3016.00 7898.70,3016.00              7898.70,3016.00 7895.30,3030.00 7895.30,3030.00              7895.30,3030.00 7894.70,3042.00 7894.70,3042.00              7894.70,3042.00 7892.46,3052.00 7892.46,3052.00              7892.46,3052.00 7889.00,3083.00 7889.00,3083.00              7888.80,3100.40 7887.38,3095.10 7886.17,3107.00              7886.17,3107.00 7885.00,3140.00 7885.00,3140.00              7885.00,3140.00 7882.02,3168.00 7882.02,3168.00              7881.86,3176.18 7883.49,3177.33 7883.79,3182.00              7883.79,3182.00 7883.16,3195.00 7883.16,3195.00              7883.16,3195.00 7883.16,3206.00 7883.16,3206.00              7883.16,3206.00 7883.16,3214.00 7883.16,3214.00              7883.16,3214.00 7883.91,3225.00 7883.91,3225.00              7883.91,3225.00 7883.04,3233.00 7883.04,3233.00              7883.04,3233.00 7883.04,3243.00 7883.04,3243.00              7883.04,3243.00 7879.01,3273.00 7879.01,3273.00              7879.20,3281.31 7881.16,3281.28 7881.00,3295.00              7881.00,3295.00 7879.00,3311.00 7879.00,3311.00              7879.00,3311.00 7879.00,3320.00 7879.00,3320.00              7878.49,3323.54 7877.87,3325.13 7878.09,3329.00              7878.27,3332.18 7878.94,3333.55 7878.68,3337.00              7878.68,3337.00 7877.09,3357.00 7877.09,3357.00              7877.09,3357.00 7879.94,3374.00 7879.94,3374.00              7879.94,3374.00 7879.94,3384.00 7879.94,3384.00              7879.94,3384.00 7881.70,3392.00 7881.70,3392.00              7881.70,3392.00 7882.46,3399.00 7882.46,3399.00              7882.46,3399.00 7886.83,3423.00 7886.83,3423.00              7886.83,3423.00 7889.26,3455.00 7889.26,3455.00              7889.26,3455.00 7887.09,3475.00 7887.09,3475.00              7887.09,3475.00 7888.03,3490.00 7888.03,3490.00              7888.03,3490.00 7888.03,3520.00 7888.03,3520.00              7888.03,3520.00 7889.00,3533.00 7889.00,3533.00              7889.00,3533.00 7889.00,3562.00 7889.00,3562.00              7889.00,3562.00 7890.96,3581.00 7890.96,3581.00              7890.96,3581.00 7890.96,3590.00 7890.96,3590.00              7890.96,3590.00 7892.00,3602.00 7892.00,3602.00              7892.00,3602.00 7893.20,3627.00 7893.20,3627.00              7893.20,3627.00 7893.20,3648.00 7893.20,3648.00              7893.20,3648.00 7894.09,3665.00 7894.09,3665.00              7894.09,3665.00 7894.09,3678.00 7894.09,3678.00              7895.04,3686.10 7896.98,3685.82 7897.00,3697.00              7897.00,3697.00 7897.00,3728.00 7897.00,3728.00              7896.98,3741.73 7892.73,3738.75 7893.00,3762.00              7893.00,3762.00 7893.82,3774.00 7893.82,3774.00              7893.82,3774.00 7890.83,3807.00 7890.83,3807.00              7890.83,3807.00 7889.04,3818.00 7889.04,3818.00              7889.04,3818.00 7889.66,3827.00 7889.66,3827.00              7889.66,3827.00 7889.02,3834.00 7889.02,3834.00              7889.02,3834.00 7889.02,3848.00 7889.02,3848.00              7889.02,3848.00 7889.91,3861.00 7889.91,3861.00              7889.91,3861.00 7889.09,3868.00 7889.09,3868.00              7889.09,3868.00 7889.82,3878.00 7889.82,3878.00              7889.82,3878.00 7889.25,3885.00 7889.25,3885.00              7889.25,3885.00 7889.25,3894.00 7889.25,3894.00              7889.25,3894.00 7885.79,3918.00 7885.79,3918.00              7884.78,3924.24 7882.13,3924.58 7882.00,3935.00              7881.67,3963.04 7885.25,3977.19 7889.56,4004.00              7889.56,4004.00 7891.46,4019.00 7891.46,4019.00              7891.46,4019.00 7897.94,4055.00 7897.94,4055.00              7897.94,4055.00 7897.94,4064.00 7897.94,4064.00              7897.94,4064.00 7900.17,4085.00 7900.17,4085.00              7900.17,4085.00 7902.27,4106.00 7902.27,4106.00              7902.27,4106.00 7902.27,4114.00 7902.27,4114.00              7902.27,4114.00 7902.27,4123.00 7902.27,4123.00              7902.27,4123.00 7901.08,4130.00 7901.08,4130.00              7901.08,4130.00 7901.08,4138.00 7901.08,4138.00              7901.08,4138.00 7899.00,4159.00 7899.00,4159.00              7899.00,4159.00 7899.00,4182.00 7899.00,4182.00              7899.00,4182.00 7897.09,4199.00 7897.09,4199.00              7897.09,4199.00 7900.83,4233.00 7900.83,4233.00              7900.83,4233.00 7902.30,4252.00 7902.30,4252.00              7902.30,4252.00 7905.71,4265.00 7905.71,4265.00              7905.71,4265.00 7907.83,4279.00 7907.83,4279.00              7907.83,4279.00 7908.46,4289.00 7908.46,4289.00              7908.46,4289.00 7912.54,4303.00 7912.54,4303.00              7912.54,4303.00 7915.10,4317.00 7915.10,4317.00              7915.10,4317.00 7915.10,4328.00 7915.10,4328.00              7915.10,4328.00 7917.83,4342.00 7917.83,4342.00              7918.95,4352.52 7916.05,4356.46 7916.00,4366.00              7916.00,4366.00 7915.09,4382.00 7915.09,4382.00              7915.09,4382.00 7916.00,4394.00 7916.00,4394.00              7916.00,4394.00 7916.00,4419.00 7916.00,4419.00              7916.00,4419.00 7916.97,4432.00 7916.97,4432.00              7916.97,4432.00 7916.00,4446.00 7916.00,4446.00              7916.00,4446.00 7915.00,4466.00 7915.00,4466.00              7915.00,4466.00 7915.00,4488.00 7915.00,4488.00              7915.00,4488.00 7914.04,4500.00 7914.04,4500.00              7914.04,4500.00 7914.04,4515.00 7914.04,4515.00              7914.04,4515.00 7913.04,4528.00 7913.04,4528.00              7913.04,4528.00 7913.66,4537.00 7913.66,4537.00              7913.66,4537.00 7911.14,4551.00 7911.14,4551.00              7911.14,4551.00 7911.14,4562.00 7911.14,4562.00              7911.14,4562.00 7910.21,4578.00 7910.21,4578.00              7910.21,4578.00 7910.21,4586.00 7910.21,4586.00              7910.21,4586.00 7910.21,4599.00 7910.21,4599.00              7910.21,4599.00 7910.21,4608.00 7910.21,4608.00              7910.21,4608.00 7908.09,4635.00 7908.09,4635.00              7908.09,4635.00 7909.13,4643.00 7909.13,4643.00              7909.13,4643.00 7909.13,4662.00 7909.13,4662.00              7909.13,4662.00 7910.42,4678.00 7910.42,4678.00              7910.32,4682.70 7908.04,4686.94 7908.00,4696.00              7908.00,4696.00 7908.68,4710.00 7908.68,4710.00              7908.68,4710.00 7906.04,4734.00 7906.04,4734.00              7906.04,4734.00 7906.04,4746.00 7906.04,4746.00              7906.04,4746.00 7905.00,4761.00 7905.00,4761.00              7904.88,4771.41 7904.09,4770.44 7903.09,4779.00              7903.09,4779.00 7903.09,4796.00 7903.09,4796.00              7903.10,4804.60 7906.04,4812.69 7907.63,4821.00              7907.63,4821.00 7909.25,4838.00 7909.25,4838.00              7909.25,4838.00 7907.83,4865.00 7907.83,4865.00              7907.50,4868.53 7906.87,4870.14 7907.09,4874.00              7907.31,4877.82 7908.16,4879.55 7907.91,4884.00              7907.91,4884.00 7907.00,4894.00 7907.00,4894.00              7907.00,4894.00 7907.00,4916.00 7907.00,4916.00              7907.00,4916.00 7907.97,4930.00 7907.97,4930.00              7907.97,4930.00 7907.97,4961.00 7907.97,4961.00              7907.97,4961.00 7907.97,4972.00 7907.97,4972.00              7907.65,4975.80 7906.84,4977.84 7907.09,4982.00              7907.09,4982.00 7908.84,4992.00 7908.84,4992.00              7908.84,4992.00 7909.68,5017.00 7909.68,5017.00              7909.68,5017.00 7908.04,5029.00 7908.04,5029.00              7908.04,5029.00 7909.00,5045.00 7909.00,5045.00              7909.00,5045.00 7909.00,5068.00 7909.00,5068.00              7909.00,5068.00 7908.25,5090.00 7908.25,5090.00              7907.53,5095.27 7905.71,5097.83 7906.09,5104.00              7906.50,5110.62 7908.89,5112.54 7909.00,5121.00              7909.00,5121.00 7909.00,5125.00 7909.00,5125.00              7909.12,5134.91 7911.98,5135.94 7912.00,5148.00              7912.00,5148.00 7912.00,5176.00 7912.00,5176.00              7912.00,5176.00 7912.66,5187.00 7912.66,5187.00              7912.66,5187.00 7912.01,5197.00 7912.01,5197.00              7912.01,5197.00 7912.01,5217.00 7912.01,5217.00              7912.01,5217.00 7914.00,5244.00 7914.00,5244.00              7914.00,5244.00 7914.00,5264.00 7914.00,5264.00              7914.00,5264.00 7913.01,5280.00 7913.01,5280.00              7913.01,5280.00 7914.82,5301.00 7914.82,5301.00              7914.82,5301.00 7913.09,5315.00 7913.09,5315.00              7913.09,5315.00 7914.00,5329.00 7914.00,5329.00              7914.00,5329.00 7913.09,5342.00 7913.09,5342.00              7913.09,5342.00 7912.56,5362.00 7912.56,5362.00              7912.56,5362.00 7901.00,5396.00 7901.00,5396.00              7893.29,5395.83 7893.64,5394.78 7888.00,5394.17              7888.00,5394.17 7862.00,5393.00 7862.00,5393.00              7862.00,5393.00 7838.00,5394.00 7838.00,5394.00              7838.00,5394.00 7817.00,5393.00 7817.00,5393.00              7817.00,5393.00 7806.00,5393.00 7806.00,5393.00              7806.00,5393.00 7797.00,5393.66 7797.00,5393.66              7797.00,5393.66 7788.00,5393.09 7788.00,5393.09              7779.42,5393.62 7770.54,5399.98 7757.00,5400.00              7736.87,5400.03 7744.06,5401.42 7731.00,5402.83              7731.00,5402.83 7684.00,5405.00 7684.00,5405.00              7684.00,5405.00 7668.00,5406.00 7668.00,5406.00              7668.00,5406.00 7648.00,5406.00 7648.00,5406.00              7648.00,5406.00 7636.00,5406.91 7636.00,5406.91              7636.00,5406.91 7602.00,5408.26 7602.00,5408.26              7602.00,5408.26 7592.00,5407.61 7592.00,5407.61              7586.47,5406.44 7583.19,5403.02 7569.00,5403.00              7569.00,5403.00 7551.00,5403.00 7551.00,5403.00              7543.49,5403.09 7542.01,5404.65 7537.00,5404.90              7537.00,5404.90 7525.00,5404.00 7525.00,5404.00              7525.00,5404.00 7505.00,5404.00 7505.00,5404.00              7496.69,5403.90 7495.57,5401.87 7489.00,5401.17              7483.54,5400.59 7480.20,5401.88 7475.00,5401.98              7475.00,5401.98 7461.00,5401.00 7461.00,5401.00              7451.68,5400.89 7443.14,5402.38 7434.00,5403.70              7434.00,5403.70 7427.00,5404.30 7427.00,5404.30              7427.00,5404.30 7419.00,5406.10 7419.00,5406.10              7419.00,5406.10 7406.00,5406.10 7406.00,5406.10              7397.40,5406.72 7402.25,5408.20 7385.00,5408.00              7385.00,5408.00 7372.00,5407.09 7372.00,5407.09              7372.00,5407.09 7366.00,5407.66 7366.00,5407.66              7366.00,5407.66 7350.00,5406.03 7350.00,5406.03              7350.00,5406.03 7325.00,5408.00 7325.00,5408.00              7325.00,5408.00 7321.00,5408.00 7321.00,5408.00              7321.00,5408.00 7308.00,5407.04 7308.00,5407.04              7308.00,5407.04 7298.00,5408.70 7298.00,5408.70              7298.00,5408.70 7284.00,5409.82 7284.00,5409.82              7284.00,5409.82 7271.00,5409.08 7271.00,5409.08              7271.00,5409.08 7256.00,5409.08 7256.00,5409.08              7256.00,5409.08 7245.00,5410.90 7245.00,5410.90              7245.00,5410.90 7233.00,5410.09 7233.00,5410.09              7226.03,5410.52 7228.00,5412.15 7215.00,5412.00              7215.00,5412.00 7205.00,5411.04 7205.00,5411.04              7205.00,5411.04 7191.00,5411.04 7191.00,5411.04              7191.00,5411.04 7160.00,5407.28 7160.00,5407.28              7160.00,5407.28 7137.00,5406.00 7137.00,5406.00              7137.00,5406.00 7124.00,5405.00 7124.00,5405.00              7124.00,5405.00 7108.00,5405.00 7108.00,5405.00              7108.00,5405.00 7093.00,5404.19 7093.00,5404.19              7093.00,5404.19 7080.00,5404.19 7080.00,5404.19              7080.00,5404.19 7060.00,5401.06 7060.00,5401.06              7060.00,5401.06 7052.00,5401.06 7052.00,5401.06              7046.06,5400.19 7045.67,5398.83 7038.00,5399.02              7038.00,5399.02 7005.00,5399.02 7005.00,5399.02              6993.83,5399.14 6995.92,5402.17 6981.00,5402.00              6981.00,5402.00 6971.00,5401.04 6971.00,5401.04              6971.00,5401.04 6956.00,5401.04 6956.00,5401.04              6956.00,5401.04 6932.00,5399.00 6932.00,5399.00              6923.11,5399.11 6921.60,5401.15 6917.00,5401.59              6917.00,5401.59 6906.00,5401.04 6906.00,5401.04              6906.00,5401.04 6895.00,5401.91 6895.00,5401.91              6895.00,5401.91 6887.00,5401.08 6887.00,5401.08              6887.00,5401.08 6878.00,5401.08 6878.00,5401.08              6871.66,5400.36 6873.94,5399.02 6863.00,5399.00              6863.00,5399.00 6835.00,5400.21 6835.00,5400.21              6835.00,5400.21 6824.00,5400.21 6824.00,5400.21              6824.00,5400.21 6809.00,5402.70 6809.00,5402.70              6809.00,5402.70 6786.00,5404.00 6786.00,5404.00              6776.97,5404.11 6776.19,5406.08 6770.00,5406.82              6770.00,5406.82 6751.00,5407.47 6751.00,5407.47              6751.00,5407.47 6740.00,5410.63 6740.00,5410.63              6734.55,5411.34 6730.17,5407.75 6721.00,5409.47              6713.78,5410.82 6708.59,5414.56 6703.00,5416.22              6696.87,5418.03 6691.26,5417.93 6685.00,5418.00              6685.00,5418.00 6672.00,5418.91 6672.00,5418.91              6666.06,5418.54 6664.86,5416.65 6656.00,5417.04              6656.00,5417.04 6644.00,5419.08 6644.00,5419.08              6644.00,5419.08 6626.00,5419.08 6626.00,5419.08              6617.53,5418.90 6615.64,5416.88 6609.00,5416.00              6609.00,5416.00 6594.00,5416.00 6594.00,5416.00              6594.00,5416.00 6579.00,5411.67 6579.00,5411.67              6570.90,5410.00 6565.78,5412.21 6561.00,5411.67              6554.29,5411.42 6556.11,5409.17 6541.00,5409.00              6541.00,5409.00 6524.00,5407.63 6524.00,5407.63              6524.00,5407.63 6515.00,5405.30 6515.00,5405.30              6515.00,5405.30 6503.00,5404.70 6503.00,5404.70              6503.00,5404.70 6495.00,5403.17 6495.00,5403.17              6495.00,5403.17 6474.00,5401.91 6474.00,5401.91              6474.00,5401.91 6462.00,5401.09 6462.00,5401.09              6462.00,5401.09 6454.00,5401.09 6454.00,5401.09              6447.75,5400.50 6445.61,5398.87 6438.00,5399.02              6438.00,5399.02 6414.00,5400.78 6414.00,5400.78              6409.15,5400.40 6402.04,5396.53 6395.00,5396.09              6395.00,5396.09 6385.00,5396.82 6385.00,5396.82              6385.00,5396.82 6373.00,5396.00 6373.00,5396.00              6358.45,5396.15 6360.63,5401.84 6349.00,5402.00              6339.37,5402.12 6342.10,5401.50 6334.00,5399.68              6334.00,5399.68 6323.00,5398.10 6323.00,5398.10              6314.91,5396.17 6307.47,5393.10 6299.00,5393.00              6286.02,5392.85 6285.85,5392.98 6273.00,5389.51              6273.00,5389.51 6264.00,5386.68 6264.00,5386.68              6264.00,5386.68 6252.00,5384.11 6252.00,5384.11              6245.48,5382.07 6242.39,5379.67 6235.00,5380.09              6235.00,5380.09 6210.00,5383.00 6210.00,5383.00              6201.63,5383.09 6193.26,5383.07 6185.00,5381.54              6185.00,5381.54 6172.00,5377.68 6172.00,5377.68              6172.00,5377.68 6164.00,5376.51 6164.00,5376.51              6159.69,5375.33 6154.03,5371.60 6145.00,5370.30              6145.00,5370.30 6119.00,5368.00 6119.00,5368.00              6119.00,5368.00 6070.00,5362.00 6070.00,5362.00              6070.00,5362.00 6035.00,5361.00 6035.00,5361.00              6035.00,5361.00 6020.00,5360.08 6020.00,5360.08              6020.00,5360.08 6008.00,5360.08 6008.00,5360.08              6000.17,5359.14 5996.31,5354.78 5977.00,5355.00              5968.24,5355.11 5963.02,5357.28 5955.00,5358.68              5955.00,5358.68 5948.00,5359.68 5948.00,5359.68              5948.00,5359.68 5941.00,5361.63 5941.00,5361.63              5941.00,5361.63 5934.00,5362.46 5934.00,5362.46              5934.00,5362.46 5920.00,5365.92 5920.00,5365.92              5911.49,5368.35 5914.26,5369.56 5901.00,5371.25              5895.85,5371.90 5893.79,5369.82 5887.00,5370.04              5887.00,5370.04 5868.00,5372.82 5868.00,5372.82              5868.00,5372.82 5855.00,5371.04 5855.00,5371.04              5855.00,5371.04 5844.00,5371.04 5844.00,5371.04              5844.00,5371.04 5832.00,5370.00 5832.00,5370.00              5832.00,5370.00 5804.00,5372.49 5804.00,5372.49              5793.62,5371.82 5794.13,5369.81 5787.00,5368.47              5787.00,5368.47 5777.00,5367.79 5777.00,5367.79              5777.00,5367.79 5766.00,5365.09 5766.00,5365.09              5766.00,5365.09 5747.00,5365.09 5747.00,5365.09              5747.00,5365.09 5729.00,5364.09 5729.00,5364.09              5729.00,5364.09 5719.00,5366.15 5719.00,5366.15              5719.00,5366.15 5705.00,5366.15 5705.00,5366.15              5705.00,5366.15 5696.00,5367.62 5696.00,5367.62              5691.17,5367.46 5689.81,5364.46 5677.00,5365.04              5677.00,5365.04 5658.00,5368.82 5658.00,5368.82              5658.00,5368.82 5635.00,5367.04 5635.00,5367.04              5635.00,5367.04 5626.00,5367.68 5626.00,5367.68              5626.00,5367.68 5615.00,5367.01 5615.00,5367.01              5615.00,5367.01 5603.00,5368.00 5603.00,5368.00              5603.00,5368.00 5582.00,5368.00 5582.00,5368.00              5582.00,5368.00 5559.00,5369.35 5559.00,5369.35              5554.19,5369.58 5550.71,5368.48 5545.00,5369.35              5539.79,5370.05 5536.63,5371.86 5532.00,5373.08              5532.00,5373.08 5523.00,5374.66 5523.00,5374.66              5523.00,5374.66 5506.00,5378.54 5506.00,5378.54              5506.00,5378.54 5486.00,5380.67 5486.00,5380.67              5486.00,5380.67 5461.00,5386.77 5461.00,5386.77              5461.00,5386.77 5451.00,5388.68 5451.00,5388.68              5451.00,5388.68 5439.00,5391.57 5439.00,5391.57              5439.00,5391.57 5421.00,5393.17 5421.00,5393.17              5421.00,5393.17 5412.00,5394.00 5412.00,5394.00              5406.13,5394.06 5396.60,5394.39 5391.00,5395.68              5391.00,5395.68 5373.00,5401.49 5373.00,5401.49              5373.00,5401.49 5346.00,5403.00 5346.00,5403.00              5346.00,5403.00 5311.00,5399.00 5311.00,5399.00              5311.00,5399.00 5287.00,5400.99 5287.00,5400.99              5287.00,5400.99 5269.00,5398.09 5269.00,5398.09              5269.00,5398.09 5240.00,5398.09 5240.00,5398.09              5240.00,5398.09 5221.00,5396.00 5221.00,5396.00              5221.00,5396.00 5188.00,5393.01 5188.00,5393.01              5188.00,5393.01 5171.00,5395.00 5171.00,5395.00              5171.00,5395.00 5155.00,5396.00 5155.00,5396.00              5155.00,5396.00 5139.00,5396.00 5139.00,5396.00              5139.00,5396.00 5126.00,5396.92 5126.00,5396.92              5126.00,5396.92 5118.00,5396.05 5118.00,5396.05              5118.00,5396.05 5104.00,5396.05 5104.00,5396.05              5104.00,5396.05 5091.00,5397.00 5091.00,5397.00              5075.82,5397.17 5081.96,5397.15 5068.00,5400.00              5068.00,5400.00 5058.00,5401.93 5058.00,5401.93              5058.00,5401.93 5050.00,5404.61 5050.00,5404.61              5050.00,5404.61 5043.00,5405.47 5043.00,5405.47              5043.00,5405.47 5033.00,5408.32 5033.00,5408.32              5033.00,5408.32 5020.00,5410.66 5020.00,5410.66              5020.00,5410.66 5009.00,5413.68 5009.00,5413.68              5009.00,5413.68 4995.00,5415.26 4995.00,5415.26              4995.00,5415.26 4977.00,5419.92 4977.00,5419.92              4977.00,5419.92 4968.00,5419.92 4968.00,5419.92              4968.00,5419.92 4960.00,5421.70 4960.00,5421.70              4960.00,5421.70 4947.00,5422.82 4947.00,5422.82              4941.84,5423.18 4938.85,5421.34 4934.00,5420.46              4934.00,5420.46 4913.00,5419.13 4913.00,5419.13              4913.00,5419.13 4897.00,5419.13 4897.00,5419.13              4897.00,5419.13 4887.00,5419.13 4887.00,5419.13              4887.00,5419.13 4881.00,5419.13 4881.00,5419.13              4871.63,5418.81 4870.42,5420.61 4866.00,5420.66              4866.00,5420.66 4855.00,5420.00 4855.00,5420.00              4855.00,5420.00 4828.00,5420.00 4828.00,5420.00              4828.00,5420.00 4812.00,5421.66 4812.00,5421.66              4812.00,5421.66 4803.00,5421.00 4803.00,5421.00              4803.00,5421.00 4749.00,5421.00 4749.00,5421.00              4741.89,5421.01 4733.78,5422.06 4727.00,5424.22              4727.00,5424.22 4720.00,5426.61 4720.00,5426.61              4720.00,5426.61 4700.00,5428.30 4700.00,5428.30              4700.00,5428.30 4690.00,5430.88 4690.00,5430.88              4680.77,5432.81 4675.22,5432.90 4666.00,5433.00              4657.93,5433.10 4639.03,5438.59 4630.00,5440.58              4630.00,5440.58 4608.00,5443.68 4608.00,5443.68              4608.00,5443.68 4597.00,5447.24 4597.00,5447.24              4597.00,5447.24 4577.00,5451.00 4577.00,5451.00              4577.00,5451.00 4562.00,5454.83 4562.00,5454.83              4562.00,5454.83 4530.00,5458.29 4530.00,5458.29              4520.61,5459.44 4510.50,5461.56 4501.00,5460.91              4501.00,5460.91 4486.00,5459.54 4486.00,5459.54              4475.12,5457.58 4475.82,5454.85 4462.00,5455.00              4462.00,5455.00 4441.00,5457.49 4441.00,5457.49              4441.00,5457.49 4414.00,5454.86 4414.00,5454.86              4414.00,5454.86 4403.00,5452.30 4403.00,5452.30              4403.00,5452.30 4382.00,5450.83 4382.00,5450.83              4382.00,5450.83 4372.00,5449.00 4372.00,5449.00              4372.00,5449.00 4362.00,5449.00 4362.00,5449.00              4362.00,5449.00 4351.00,5447.28 4351.00,5447.28              4351.00,5447.28 4339.00,5447.28 4339.00,5447.28              4339.00,5447.28 4326.00,5443.46 4326.00,5443.46              4326.00,5443.46 4315.00,5442.61 4315.00,5442.61              4315.00,5442.61 4307.00,5439.93 4307.00,5439.93              4307.00,5439.93 4295.00,5437.46 4295.00,5437.46              4287.20,5436.06 4267.23,5434.97 4259.00,5435.01              4255.01,5435.02 4250.96,5435.60 4247.00,5435.01              4240.95,5434.15 4239.87,5432.20 4232.00,5432.01              4232.00,5432.01 4219.00,5432.79 4219.00,5432.79              4219.00,5432.79 4192.00,5431.01 4192.00,5431.01              4192.00,5431.01 4180.00,5432.37 4180.00,5432.37              4173.65,5431.93 4174.31,5429.98 4160.00,5430.00              4160.00,5430.00 4148.00,5430.82 4148.00,5430.82              4148.00,5430.82 4134.00,5429.90 4134.00,5429.90              4134.00,5429.90 4121.00,5426.06 4121.00,5426.06              4121.00,5426.06 4110.00,5426.06 4110.00,5426.06              4105.37,5425.33 4103.49,5424.03 4098.00,5424.03              4098.00,5424.03 4086.00,5424.91 4086.00,5424.91              4086.00,5424.91 4056.00,5424.91 4056.00,5424.91              4056.00,5424.91 4042.00,5421.46 4042.00,5421.46              4042.00,5421.46 4035.00,5420.47 4035.00,5420.47              4023.68,5417.88 4018.91,5413.11 4013.00,5411.22              4007.63,5409.50 3997.90,5409.93 3992.00,5410.00              3976.26,5410.19 3972.56,5418.21 3962.00,5423.74              3953.96,5427.95 3949.12,5427.64 3941.00,5429.92              3941.00,5429.92 3933.00,5432.62 3933.00,5432.62              3933.00,5432.62 3925.00,5433.90 3925.00,5433.90              3915.31,5436.21 3913.79,5437.98 3903.00,5438.00              3884.69,5438.03 3883.47,5434.14 3872.00,5434.00              3872.00,5434.00 3858.00,5434.00 3858.00,5434.00              3858.00,5434.00 3845.00,5433.00 3845.00,5433.00              3845.00,5433.00 3840.00,5433.00 3840.00,5433.00              3840.00,5433.00 3792.00,5426.00 3792.00,5426.00              3782.78,5425.95 3784.08,5424.37 3777.00,5423.30              3764.75,5421.44 3755.38,5420.70 3743.00,5421.25              3743.00,5421.25 3734.00,5421.25 3734.00,5421.25              3734.00,5421.25 3701.00,5424.00 3701.00,5424.00              3701.00,5424.00 3679.00,5425.09 3679.00,5425.09              3670.79,5425.73 3668.68,5428.88 3660.00,5429.00              3660.00,5429.00 3639.00,5427.04 3639.00,5427.04              3639.00,5427.04 3620.00,5429.47 3620.00,5429.47              3620.00,5429.47 3610.00,5431.90 3610.00,5431.90              3610.00,5431.90 3574.00,5434.00 3574.00,5434.00              3563.09,5434.02 3565.28,5435.31 3557.00,5436.68              3557.00,5436.68 3536.00,5439.30 3536.00,5439.30              3536.00,5439.30 3518.00,5444.48 3518.00,5444.48              3518.00,5444.48 3493.00,5447.47 3493.00,5447.47              3485.81,5448.82 3485.94,5450.89 3477.00,5451.04              3477.00,5451.04 3467.00,5451.04 3467.00,5451.04              3467.00,5451.04 3457.00,5452.00 3457.00,5452.00              3448.59,5452.09 3443.00,5450.44 3435.00,5449.30              3435.00,5449.30 3427.00,5448.70 3427.00,5448.70              3427.00,5448.70 3420.00,5447.06 3420.00,5447.06              3420.00,5447.06 3411.00,5447.06 3411.00,5447.06              3411.00,5447.06 3402.00,5445.16 3402.00,5445.16              3402.00,5445.16 3387.00,5443.54 3387.00,5443.54              3387.00,5443.54 3375.00,5440.46 3375.00,5440.46              3375.00,5440.46 3366.00,5439.70 3366.00,5439.70              3353.56,5437.92 3341.64,5435.02 3329.00,5435.00              3329.00,5435.00 3304.00,5432.00 3304.00,5432.00              3304.00,5432.00 3291.00,5430.96 3291.00,5430.96              3291.00,5430.96 3282.00,5430.96 3282.00,5430.96              3276.30,5430.22 3275.28,5428.76 3268.00,5429.04              3268.00,5429.04 3260.00,5429.82 3260.00,5429.82              3260.00,5429.82 3252.00,5429.02 3252.00,5429.02              3252.00,5429.02 3236.00,5429.02 3236.00,5429.02              3229.87,5429.01 3220.88,5430.47 3215.00,5432.21              3215.00,5432.21 3205.00,5435.33 3205.00,5435.33              3205.00,5435.33 3185.00,5437.00 3185.00,5437.00              3185.00,5437.00 3158.00,5436.00 3158.00,5436.00              3158.00,5436.00 3136.00,5433.17 3136.00,5433.17              3136.00,5433.17 3120.00,5431.83 3120.00,5431.83              3120.00,5431.83 3109.00,5430.00 3109.00,5430.00              3109.00,5430.00 3100.00,5430.00 3100.00,5430.00              3100.00,5430.00 3089.00,5427.46 3089.00,5427.46              3089.00,5427.46 3076.00,5425.74 3076.00,5425.74              3067.61,5424.13 3066.26,5421.01 3047.00,5418.28              3047.00,5418.28 3020.00,5415.00 3020.00,5415.00              3020.00,5415.00 3011.00,5415.00 3011.00,5415.00              3011.00,5415.00 3002.00,5413.00 3002.00,5413.00              3002.00,5413.00 2992.00,5413.00 2992.00,5413.00              2992.00,5413.00 2984.00,5411.06 2984.00,5411.06              2984.00,5411.06 2975.00,5411.06 2975.00,5411.06              2965.58,5409.82 2966.23,5408.87 2955.00,5409.00              2955.00,5409.00 2944.00,5409.68 2944.00,5409.68              2939.27,5409.32 2934.79,5408.66 2930.00,5409.17              2923.36,5409.88 2921.47,5411.90 2913.00,5412.00              2893.64,5412.22 2894.38,5415.98 2882.00,5416.00              2882.00,5416.00 2865.00,5416.00 2865.00,5416.00              2856.65,5415.99 2852.05,5414.25 2844.00,5413.06              2844.00,5413.06 2835.00,5413.06 2835.00,5413.06              2835.00,5413.06 2827.00,5411.30 2827.00,5411.30              2827.00,5411.30 2818.00,5410.71 2818.00,5410.71              2814.34,5410.26 2805.20,5408.55 2802.00,5407.20              2797.92,5405.48 2796.13,5403.17 2788.00,5400.52              2779.38,5397.70 2774.68,5398.10 2766.00,5398.00              2755.68,5397.88 2753.72,5395.29 2747.00,5394.30              2747.00,5394.30 2736.00,5393.38 2736.00,5393.38              2736.00,5393.38 2724.00,5390.30 2724.00,5390.30              2724.00,5390.30 2714.00,5389.10 2714.00,5389.10              2714.00,5389.10 2696.00,5384.19 2696.00,5384.19              2696.00,5384.19 2684.00,5379.43 2684.00,5379.43              2684.00,5379.43 2670.00,5376.49 2670.00,5376.49              2670.00,5376.49 2662.00,5374.46 2662.00,5374.46              2662.00,5374.46 2655.00,5373.51 2655.00,5373.51              2651.77,5372.62 2649.97,5370.83 2645.00,5369.68              2645.00,5369.68 2633.00,5368.37 2633.00,5368.37              2626.82,5366.69 2626.80,5365.19 2619.00,5365.01              2619.00,5365.01 2603.00,5365.79 2603.00,5365.79              2598.81,5365.18 2583.99,5359.40 2575.00,5359.04              2575.00,5359.04 2563.00,5359.96 2563.00,5359.96              2563.00,5359.96 2543.00,5358.71 2543.00,5358.71              2537.51,5358.04 2533.79,5356.81 2528.00,5357.04              2528.00,5357.04 2519.00,5357.79 2519.00,5357.79              2519.00,5357.79 2507.00,5355.06 2507.00,5355.06              2507.00,5355.06 2498.00,5355.06 2498.00,5355.06              2498.00,5355.06 2490.00,5353.30 2490.00,5353.30              2490.00,5353.30 2469.00,5352.00 2469.00,5352.00              2454.65,5351.84 2445.84,5357.47 2433.00,5362.04              2427.64,5363.95 2425.06,5362.68 2417.00,5367.45              2408.32,5372.59 2407.46,5375.54 2403.83,5377.93              2400.65,5380.03 2386.86,5386.05 2383.00,5387.06              2377.56,5388.51 2373.49,5386.83 2368.00,5387.06              2356.21,5387.50 2344.99,5391.86 2338.00,5392.69              2338.00,5392.69 2325.00,5392.04 2325.00,5392.04              2325.00,5392.04 2310.00,5394.83 2310.00,5394.83              2310.00,5394.83 2288.00,5396.30 2288.00,5396.30              2288.00,5396.30 2278.00,5398.69 2278.00,5398.69              2278.00,5398.69 2246.00,5403.75 2246.00,5403.75              2246.00,5403.75 2235.00,5405.46 2235.00,5405.46              2235.00,5405.46 2227.00,5407.17 2227.00,5407.17              2227.00,5407.17 2209.00,5406.00 2209.00,5406.00              2198.88,5406.12 2196.77,5408.99 2190.00,5409.82              2190.00,5409.82 2176.00,5411.28 2176.00,5411.28              2176.00,5411.28 2163.00,5413.72 2163.00,5413.72              2163.00,5413.72 2147.00,5415.46 2147.00,5415.46              2147.00,5415.46 2128.00,5420.39 2128.00,5420.39              2128.00,5420.39 2113.00,5422.83 2113.00,5422.83              2113.00,5422.83 2106.00,5423.47 2106.00,5423.47              2101.66,5424.29 2099.78,5425.61 2096.00,5426.90              2096.00,5426.90 2080.00,5431.47 2080.00,5431.47              2080.00,5431.47 2064.00,5433.44 2064.00,5433.44              2064.00,5433.44 2051.00,5436.63 2051.00,5436.63              2051.00,5436.63 2031.00,5438.00 2031.00,5438.00              2031.00,5438.00 2011.00,5439.99 2011.00,5439.99              2011.00,5439.99 1991.00,5437.86 1991.00,5437.86              1991.00,5437.86 1977.00,5437.86 1977.00,5437.86              1977.00,5437.86 1943.00,5433.00 1943.00,5433.00              1943.00,5433.00 1909.00,5434.26 1909.00,5434.26              1897.35,5434.68 1895.81,5431.02 1883.00,5431.00              1883.00,5431.00 1861.00,5431.00 1861.00,5431.00              1850.55,5430.95 1852.01,5428.97 1844.00,5427.47              1844.00,5427.47 1828.00,5426.09 1828.00,5426.09              1818.18,5425.42 1816.32,5427.07 1811.00,5427.22              1811.00,5427.22 1801.00,5427.22 1801.00,5427.22              1801.00,5427.22 1786.00,5429.57 1786.00,5429.57              1786.00,5429.57 1776.00,5430.17 1776.00,5430.17              1776.00,5430.17 1769.00,5431.37 1769.00,5431.37              1764.33,5431.72 1760.64,5429.46 1752.00,5430.09              1752.00,5430.09 1738.00,5432.71 1738.00,5432.71              1738.00,5432.71 1699.00,5435.00 1699.00,5435.00              1699.00,5435.00 1680.00,5434.00 1680.00,5434.00              1680.00,5434.00 1670.00,5434.63 1670.00,5434.63              1670.00,5434.63 1661.00,5433.06 1661.00,5433.06              1661.00,5433.06 1653.00,5433.06 1653.00,5433.06              1653.00,5433.06 1645.00,5431.15 1645.00,5431.15              1645.00,5431.15 1632.00,5431.15 1632.00,5431.15              1622.56,5431.05 1621.56,5432.93 1616.00,5433.08              1616.00,5433.08 1606.00,5433.08 1606.00,5433.08              1606.00,5433.08 1581.00,5433.08 1581.00,5433.08              1568.43,5432.98 1569.41,5429.21 1551.00,5429.00              1551.00,5429.00 1513.00,5426.00 1513.00,5426.00              1503.11,5426.12 1501.51,5429.14 1496.00,5428.66              1496.00,5428.66 1489.00,5427.26 1489.00,5427.26              1489.00,5427.26 1479.00,5425.64 1479.00,5425.64              1468.45,5423.37 1462.49,5420.87 1451.00,5420.09              1442.01,5419.48 1439.19,5421.90 1431.00,5422.00              1431.00,5422.00 1422.00,5422.00 1422.00,5422.00              1422.00,5422.00 1397.00,5423.82 1397.00,5423.82              1397.00,5423.82 1384.00,5422.04 1384.00,5422.04              1384.00,5422.04 1367.00,5422.04 1367.00,5422.04              1367.00,5422.04 1349.00,5423.53 1349.00,5423.53              1349.00,5423.53 1342.00,5422.30 1342.00,5422.30              1342.00,5422.30 1319.00,5420.00 1319.00,5420.00              1319.00,5420.00 1309.00,5420.00 1309.00,5420.00              1309.00,5420.00 1276.00,5417.00 1276.00,5417.00              1267.97,5417.10 1261.00,5419.56 1255.09,5425.18              1251.67,5428.44 1250.18,5432.17 1245.96,5434.59              1241.04,5437.40 1236.39,5436.94 1231.00,5437.00              1231.00,5437.00 1202.00,5441.43 1202.00,5441.43              1202.00,5441.43 1194.00,5443.67 1194.00,5443.67              1182.03,5446.48 1186.02,5442.86 1167.00,5449.20              1167.00,5449.20 1131.00,5461.48 1131.00,5461.48              1131.00,5461.48 1121.00,5462.30 1121.00,5462.30              1121.00,5462.30 1103.00,5466.54 1103.00,5466.54              1103.00,5466.54 1092.00,5467.46 1092.00,5467.46              1092.00,5467.46 1070.00,5473.54 1070.00,5473.54              1070.00,5473.54 1061.00,5474.17 1061.00,5474.17              1061.00,5474.17 1053.00,5475.70 1053.00,5475.70              1053.00,5475.70 1046.00,5476.47 1046.00,5476.47              1046.00,5476.47 1035.00,5479.53 1035.00,5479.53              1035.00,5479.53 1017.00,5482.28 1017.00,5482.28              1017.00,5482.28 1007.00,5484.68 1007.00,5484.68              998.97,5486.09 992.05,5485.99 984.00,5486.00              970.80,5486.02 972.71,5488.87 963.00,5489.00              952.16,5489.14 947.22,5488.56 936.00,5490.29              923.84,5492.18 924.76,5494.17 910.00,5494.00              910.00,5494.00 898.00,5493.02 898.00,5493.02              898.00,5493.02 887.00,5493.82 887.00,5493.82              887.00,5493.82 877.00,5493.09 877.00,5493.09              870.02,5493.50 870.52,5495.05 859.00,5495.00              859.00,5495.00 845.00,5494.09 845.00,5494.09              845.00,5494.09 837.00,5494.98 837.00,5494.98              837.00,5494.98 818.00,5494.98 818.00,5494.98              818.00,5494.98 794.00,5497.68 794.00,5497.68              794.00,5497.68 784.00,5497.03 784.00,5497.03              784.00,5497.03 771.00,5498.17 771.00,5498.17              771.00,5498.17 733.00,5503.04 733.00,5503.04              733.00,5503.04 722.00,5503.04 722.00,5503.04              722.00,5503.04 708.00,5504.34 708.00,5504.34              708.00,5504.34 699.00,5502.30 699.00,5502.30              699.00,5502.30 687.00,5501.15 687.00,5501.15              687.00,5501.15 680.00,5501.15 680.00,5501.15              675.63,5501.00 675.42,5499.82 667.00,5500.01              667.00,5500.01 640.00,5503.41 640.00,5503.41              640.00,5503.41 625.00,5502.09 625.00,5502.09              625.00,5502.09 612.00,5503.00 612.00,5503.00              599.94,5503.14 594.10,5500.93 583.00,5499.30              583.00,5499.30 561.00,5496.72 561.00,5496.72              561.00,5496.72 549.00,5494.30 549.00,5494.30              549.00,5494.30 541.00,5493.63 541.00,5493.63              541.00,5493.63 531.00,5491.17 531.00,5491.17              527.89,5490.83 523.78,5491.29 521.00,5490.49              521.00,5490.49 511.00,5485.56 511.00,5485.56              506.12,5483.75 501.11,5483.94 496.00,5484.00              496.00,5484.00 477.00,5486.00 477.00,5486.00              477.00,5486.00 414.00,5486.00 414.00,5486.00              414.00,5486.00 401.00,5486.82 401.00,5486.82              401.00,5486.82 388.00,5486.00 388.00,5486.00              388.00,5486.00 373.00,5487.00 373.00,5487.00              373.00,5487.00 355.00,5486.00 355.00,5486.00              355.00,5486.00 337.00,5484.39 337.00,5484.39              337.00,5484.39 327.00,5481.46 327.00,5481.46              327.00,5481.46 308.00,5480.00 308.00,5480.00              308.00,5480.00 286.00,5480.00 286.00,5480.00              286.00,5480.00 275.00,5480.68 275.00,5480.68              265.05,5479.88 259.47,5475.97 252.00,5475.17              252.00,5475.17 225.00,5472.47 225.00,5472.47              225.00,5472.47 187.00,5458.68 187.00,5458.68              187.00,5458.68 178.00,5457.38 178.00,5457.38              178.00,5457.38 169.00,5454.92 169.00,5454.92              169.00,5454.92 162.00,5453.63 162.00,5453.63              162.00,5453.63 152.00,5450.47 152.00,5450.47              152.00,5450.47 143.00,5449.83 143.00,5449.83              143.00,5449.83 128.00,5446.44 128.00,5446.44              123.38,5444.54 120.53,5439.34 112.00,5435.93              102.63,5432.18 96.65,5435.31 90.00,5433.80              82.31,5432.06 78.99,5427.51 71.00,5425.68              64.54,5424.20 58.30,5426.11 55.99,5423.26              54.72,5421.69 54.14,5411.58 53.83,5409.00              52.99,5401.97 49.29,5394.31 50.22,5387.00              50.75,5382.92 53.66,5379.00 55.08,5374.00              55.08,5374.00 58.83,5358.00 58.83,5358.00              58.83,5358.00 59.47,5345.00 59.47,5345.00              59.47,5345.00 62.53,5334.00 62.53,5334.00              62.53,5334.00 63.28,5322.00 63.28,5322.00              64.54,5311.49 66.13,5310.39 66.00,5299.00              66.00,5299.00 65.04,5285.00 65.04,5285.00              65.28,5280.23 66.72,5278.32 67.53,5274.00              67.53,5274.00 68.44,5266.00 68.44,5266.00              69.79,5257.41 70.99,5256.59 71.00,5247.00              71.02,5236.65 71.30,5238.50 72.70,5229.00              72.70,5229.00 73.39,5223.00 73.39,5223.00              74.16,5219.43 75.94,5217.14 76.57,5212.00              77.70,5205.25 75.59,5201.91 76.57,5196.00              76.57,5196.00 82.79,5168.00 82.79,5168.00              82.79,5168.00 84.83,5157.00 84.83,5157.00              85.45,5150.86 84.63,5151.48 86.21,5144.00              86.21,5144.00 90.90,5121.00 90.90,5121.00              90.90,5121.00 96.70,5095.00 96.70,5095.00              96.70,5095.00 97.96,5078.00 97.96,5078.00              97.96,5078.00 97.08,5069.00 97.08,5069.00              97.08,5064.47 98.51,5061.19 97.91,5053.00              97.50,5047.43 94.27,5040.41 94.77,5036.00              95.20,5032.18 96.72,5029.64 96.96,5024.00              96.96,5024.00 96.25,5011.00 96.25,5011.00              96.71,5006.16 98.89,5005.22 99.00,4996.00              99.19,4979.15 100.21,4986.37 102.53,4974.00              102.53,4974.00 105.30,4950.00 105.30,4950.00              106.60,4940.92 108.89,4932.30 109.21,4923.00              109.03,4920.47 108.84,4916.33 109.21,4914.00              110.31,4910.38 112.98,4907.40 114.60,4904.00              114.60,4904.00 120.56,4887.00 120.56,4887.00              123.63,4876.68 120.88,4871.89 121.32,4866.00              121.32,4866.00 121.96,4857.00 121.96,4857.00              121.70,4850.53 119.83,4848.46 119.21,4844.00              119.21,4844.00 118.54,4833.00 118.54,4833.00              118.54,4833.00 115.30,4820.00 115.30,4820.00              115.30,4820.00 114.53,4810.00 114.53,4810.00              113.47,4804.38 111.23,4801.89 110.39,4798.00              110.39,4798.00 109.83,4788.00 109.83,4788.00              109.83,4788.00 107.32,4773.00 107.32,4773.00              106.39,4768.97 105.23,4767.48 103.95,4764.00              103.95,4764.00 98.19,4744.00 98.19,4744.00              98.07,4739.75 102.71,4719.04 104.35,4715.00              104.35,4715.00 112.44,4698.00 112.44,4698.00              115.28,4690.34 115.68,4679.21 116.04,4671.00              116.04,4671.00 116.91,4660.00 116.91,4660.00              116.91,4660.00 112.18,4635.00 112.18,4635.00              112.18,4635.00 113.30,4617.00 113.30,4617.00              113.30,4617.00 114.83,4609.00 114.83,4609.00              114.83,4609.00 115.62,4597.00 115.62,4597.00              115.62,4597.00 119.39,4582.00 119.39,4582.00              119.39,4582.00 120.30,4574.00 120.30,4574.00              120.30,4574.00 121.83,4566.00 121.83,4566.00              121.83,4566.00 122.39,4559.00 122.39,4559.00              122.39,4559.00 125.53,4549.00 125.53,4549.00              125.53,4549.00 127.27,4536.00 127.27,4536.00              127.27,4536.00 130.70,4516.00 130.70,4516.00              130.70,4516.00 133.21,4496.00 133.21,4496.00              133.21,4496.00 136.07,4487.00 136.07,4487.00              136.07,4487.00 138.91,4466.00 138.91,4466.00              138.91,4466.00 138.00,4450.00 138.00,4450.00              138.00,4450.00 138.87,4427.00 138.87,4427.00              138.87,4427.00 138.87,4419.00 138.87,4419.00              138.95,4415.36 140.22,4413.15 139.91,4408.00              139.91,4408.00 138.69,4400.00 138.69,4400.00              138.69,4400.00 138.69,4384.00 138.69,4384.00              138.69,4384.00 139.97,4367.00 139.97,4367.00              139.97,4367.00 139.08,4357.00 139.08,4357.00              139.08,4357.00 139.91,4346.00 139.91,4346.00              139.91,4346.00 138.32,4322.00 138.32,4322.00              138.32,4322.00 139.00,4299.00 139.00,4299.00              139.00,4299.00 138.18,4288.00 138.18,4288.00              138.18,4288.00 139.00,4274.00 139.00,4274.00              139.00,4274.00 142.30,4242.00 142.30,4242.00              143.35,4234.83 143.99,4236.60 144.00,4228.00              144.00,4228.00 144.00,4199.00 144.00,4199.00              144.00,4199.00 145.00,4182.00 145.00,4182.00              145.00,4182.00 144.39,4164.00 144.39,4164.00              144.39,4164.00 145.91,4155.00 145.91,4155.00              145.91,4155.00 145.00,4136.00 145.00,4136.00              145.00,4136.00 146.00,4115.00 146.00,4115.00              146.00,4115.00 145.21,4104.00 145.21,4104.00              145.21,4104.00 148.34,4089.00 148.34,4089.00              148.34,4089.00 149.20,4082.00 149.20,4082.00              150.02,4076.63 152.34,4074.05 151.91,4067.00              151.47,4059.91 146.59,4050.94 147.09,4042.00              147.09,4042.00 148.91,4025.00 148.91,4025.00              148.91,4025.00 147.87,4017.00 147.87,4017.00              147.87,4017.00 147.87,4007.00 147.87,4007.00              147.87,4007.00 145.74,3980.00 145.74,3980.00              145.74,3980.00 146.96,3958.00 146.96,3958.00              146.96,3958.00 145.08,3943.00 145.08,3943.00              145.12,3934.18 150.31,3933.40 149.99,3919.00              149.99,3919.00 149.02,3905.00 149.02,3905.00              149.22,3897.56 151.99,3896.04 151.99,3887.00              151.99,3887.00 151.00,3868.00 151.00,3868.00              151.00,3868.00 150.26,3858.00 150.26,3858.00              150.26,3858.00 151.70,3850.00 151.70,3850.00              151.70,3850.00 152.91,3828.00 152.91,3828.00              152.91,3828.00 150.01,3798.00 150.01,3798.00              150.01,3798.00 150.91,3780.00 150.91,3780.00              150.91,3780.00 149.70,3766.00 149.70,3766.00              148.69,3758.91 148.01,3760.61 148.00,3752.00              148.00,3752.00 148.00,3728.00 148.00,3728.00              148.00,3728.00 148.97,3715.00 148.97,3715.00              148.97,3715.00 148.00,3703.00 148.00,3703.00              148.00,3703.00 149.00,3684.00 149.00,3684.00              149.00,3684.00 149.00,3671.00 149.00,3671.00              149.00,3671.00 150.91,3652.00 150.91,3652.00              150.91,3652.00 150.00,3638.00 150.00,3638.00              150.00,3638.00 147.96,3614.00 147.96,3614.00              147.96,3614.00 147.96,3597.00 147.96,3597.00              147.96,3597.00 146.71,3587.00 146.71,3587.00              146.71,3587.00 148.00,3559.00 148.00,3559.00              148.00,3559.00 151.00,3537.00 151.00,3537.00              151.00,3537.00 149.75,3521.00 149.75,3521.00              149.75,3521.00 150.83,3514.00 150.83,3514.00              151.55,3507.90 151.97,3504.19 151.74,3498.00              151.24,3484.02 156.48,3484.72 155.96,3472.00              155.73,3466.31 154.29,3464.42 153.92,3461.00              153.92,3461.00 153.92,3453.00 153.92,3453.00              153.92,3453.00 153.00,3436.00 153.00,3436.00              153.00,3436.00 151.17,3420.00 151.17,3420.00              151.17,3420.00 150.34,3402.00 150.34,3402.00              150.34,3402.00 151.94,3390.00 151.94,3390.00              151.94,3390.00 151.94,3367.00 151.94,3367.00              151.94,3367.00 149.18,3352.00 149.18,3352.00              149.18,3352.00 150.00,3345.00 150.00,3345.00              150.00,3345.00 150.00,3336.00 150.00,3336.00              150.00,3336.00 150.91,3329.00 150.91,3329.00              150.91,3329.00 150.18,3317.00 150.18,3317.00              150.18,3317.00 150.83,3307.00 150.83,3307.00              150.83,3307.00 150.83,3298.00 150.83,3298.00              150.83,3298.00 150.83,3288.00 150.83,3288.00              150.83,3288.00 149.00,3266.00 149.00,3266.00              149.00,3266.00 150.91,3245.00 150.91,3245.00              150.73,3241.82 150.06,3240.45 150.32,3237.00              150.32,3237.00 151.00,3225.00 151.00,3225.00              151.00,3225.00 150.34,3213.00 150.34,3213.00              151.01,3208.14 153.30,3204.96 152.91,3198.00              152.91,3198.00 151.18,3184.00 151.18,3184.00              151.20,3179.70 152.96,3177.35 153.00,3169.00              153.00,3169.00 154.17,3144.00 154.17,3144.00              154.17,3144.00 155.96,3132.00 155.96,3132.00              156.20,3124.54 153.66,3120.70 153.19,3115.00              153.19,3115.00 153.91,3103.00 153.91,3103.00              153.64,3098.38 151.97,3093.56 152.32,3089.00              152.32,3089.00 153.91,3074.00 153.91,3074.00              153.91,3074.00 153.01,3062.00 153.01,3062.00              153.01,3062.00 153.75,3048.00 153.75,3048.00              153.75,3048.00 153.75,3039.00 153.75,3039.00              153.75,3039.00 154.75,3009.00 154.75,3009.00              154.75,3009.00 154.75,2999.00 154.75,2999.00              155.10,2990.44 156.13,2991.41 156.00,2980.00              155.87,2969.27 153.02,2971.03 153.00,2959.00              153.00,2959.00 152.00,2942.00 152.00,2942.00              152.00,2942.00 152.00,2915.00 152.00,2915.00              152.00,2915.00 153.91,2898.00 153.91,2898.00              153.91,2898.00 151.04,2884.00 151.04,2884.00              151.04,2884.00 151.87,2871.00 151.87,2871.00              151.87,2871.00 151.87,2860.00 151.87,2860.00              151.87,2860.00 153.00,2832.00 153.00,2832.00              153.00,2832.00 152.18,2820.00 152.18,2820.00              152.18,2820.00 153.00,2787.00 153.00,2787.00              153.00,2787.00 153.99,2772.00 153.99,2772.00              153.99,2772.00 152.00,2747.00 152.00,2747.00              152.00,2747.00 152.00,2710.00 152.00,2710.00              152.00,2710.00 151.34,2699.00 151.34,2699.00              151.34,2699.00 152.91,2681.00 152.91,2681.00              152.91,2681.00 151.04,2669.00 151.04,2669.00              151.04,2669.00 152.04,2653.00 152.04,2653.00              152.04,2653.00 152.04,2638.00 152.04,2638.00              152.04,2638.00 153.00,2628.00 153.00,2628.00              153.00,2628.00 152.00,2601.00 152.00,2601.00              152.00,2601.00 152.97,2590.00 152.97,2590.00              152.97,2590.00 152.97,2543.00 152.97,2543.00              152.97,2543.00 151.00,2509.00 151.00,2509.00              151.00,2509.00 152.98,2493.00 152.98,2493.00              153.15,2484.77 151.33,2482.70 151.04,2476.00              150.76,2469.54 151.52,2467.68 151.96,2462.00              151.96,2462.00 151.96,2447.00 151.96,2447.00              152.19,2430.92 159.97,2421.02 160.00,2404.00              160.00,2404.00 160.00,2388.00 160.00,2388.00              160.00,2388.00 158.54,2372.00 158.54,2372.00              158.54,2372.00 156.63,2363.00 156.63,2363.00              156.63,2363.00 157.96,2342.00 157.96,2342.00              157.96,2342.00 155.75,2329.00 155.75,2329.00              155.75,2329.00 155.75,2302.00 155.75,2302.00              156.12,2291.70 155.38,2294.75 155.01,2287.00              155.01,2287.00 155.01,2266.00 155.01,2266.00              155.01,2266.00 155.01,2243.00 155.01,2243.00              155.01,2243.00 155.96,2227.00 155.96,2227.00              155.96,2227.00 155.01,2213.00 155.01,2213.00              155.01,2213.00 155.83,2204.00 155.83,2204.00              155.83,2204.00 155.83,2188.00 155.83,2188.00              155.83,2188.00 155.83,2180.00 155.83,2180.00              155.83,2180.00 155.83,2170.00 155.83,2170.00              155.14,2162.76 154.01,2161.68 154.00,2153.00              154.00,2153.00 155.00,2109.00 155.00,2109.00              155.00,2109.00 155.00,2088.00 155.00,2088.00              155.00,2088.00 154.08,2076.00 154.08,2076.00              154.08,2076.00 155.17,2064.00 155.17,2064.00              156.28,2052.88 160.98,2045.34 161.00,2034.00              161.02,2021.93 161.85,2025.12 162.83,2016.00              162.83,2016.00 163.37,2008.00 163.37,2008.00              164.25,2003.45 165.76,2001.95 165.96,1996.00              165.96,1996.00 161.83,1964.00 161.83,1964.00              161.83,1964.00 161.83,1947.00 161.83,1947.00              161.83,1947.00 161.83,1939.00 161.83,1939.00              161.83,1939.00 160.28,1928.00 160.28,1928.00              160.28,1928.00 158.00,1901.00 158.00,1901.00              158.00,1901.00 158.00,1893.00 158.00,1893.00              158.00,1893.00 157.00,1878.00 157.00,1878.00              157.00,1878.00 157.00,1868.00 157.00,1868.00              157.00,1868.00 156.34,1859.00 156.34,1859.00              156.34,1859.00 156.98,1852.00 156.98,1852.00              156.98,1852.00 156.98,1835.00 156.98,1835.00              156.98,1835.00 156.04,1821.00 156.04,1821.00              156.04,1821.00 157.79,1801.00 157.79,1801.00              157.79,1801.00 157.79,1790.00 157.79,1790.00              157.79,1790.00 157.79,1782.00 157.79,1782.00              157.79,1782.00 157.00,1771.00 157.00,1771.00              157.00,1771.00 157.00,1752.00 157.00,1752.00              157.00,1752.00 155.75,1734.00 155.75,1734.00              156.23,1723.95 159.14,1722.99 159.00,1710.00              159.00,1710.00 158.09,1697.00 158.09,1697.00              158.09,1697.00 160.91,1678.00 160.91,1678.00              160.91,1678.00 160.91,1666.00 160.91,1666.00              160.91,1666.00 161.91,1652.00 161.91,1652.00              161.91,1652.00 158.08,1626.00 158.08,1626.00              158.08,1626.00 158.08,1606.00 158.08,1606.00              158.08,1606.00 156.21,1588.00 156.21,1588.00              156.21,1588.00 156.96,1580.00 156.96,1580.00              156.96,1580.00 156.96,1568.00 156.96,1568.00              156.96,1568.00 152.09,1532.00 152.09,1532.00              152.09,1532.00 152.96,1524.00 152.96,1524.00              152.96,1524.00 151.53,1506.00 151.53,1506.00              150.78,1502.00 149.04,1499.17 149.21,1495.00              149.21,1495.00 150.83,1482.00 150.83,1482.00              150.83,1482.00 152.17,1465.00 152.17,1465.00              152.17,1465.00 154.00,1442.00 154.00,1442.00              154.00,1442.00 155.00,1427.00 155.00,1427.00              155.00,1427.00 157.00,1396.00 157.00,1396.00              157.00,1396.00 157.00,1384.00 157.00,1384.00              157.00,1384.00 160.68,1351.00 160.68,1351.00              160.68,1351.00 164.07,1341.00 164.07,1341.00              164.07,1341.00 165.91,1318.00 165.91,1318.00              165.42,1310.15 160.88,1304.92 161.76,1295.00              161.76,1295.00 161.76,1279.00 161.76,1279.00              161.76,1279.00 161.04,1265.00 161.04,1265.00              161.04,1265.00 162.67,1253.00 162.67,1253.00              162.67,1253.00 162.67,1241.00 162.67,1241.00              162.67,1241.00 164.00,1219.00 164.00,1219.00              164.00,1219.00 164.00,1174.00 164.00,1174.00              164.00,1174.00 163.00,1158.00 163.00,1158.00              163.00,1158.00 163.00,1127.00 163.00,1127.00              163.00,1127.00 162.00,1110.00 162.00,1110.00              162.00,1110.00 162.00,1089.00 162.00,1089.00              162.00,1089.00 162.91,1075.00 162.91,1075.00              162.56,1069.34 160.05,1063.46 160.00,1053.00              160.00,1053.00 160.00,1040.00 160.00,1040.00              160.00,1040.00 159.00,1022.00 159.00,1022.00              159.00,1022.00 158.00,1005.00 158.00,1005.00              158.00,1005.00 158.00,971.00 158.00,971.00              158.00,971.00 159.00,951.00 159.00,951.00              159.00,951.00 158.02,937.00 158.02,937.00              158.02,937.00 159.00,923.00 159.00,923.00              159.00,923.00 159.00,884.00 159.00,884.00              159.00,884.00 158.00,867.00 158.00,867.00              158.00,867.00 158.00,854.00 158.00,854.00              158.00,854.00 162.87,801.00 162.87,801.00              162.87,801.00 162.87,781.00 162.87,781.00              162.87,781.00 163.91,768.00 163.91,768.00              163.52,761.72 162.02,762.45 161.96,752.00              161.96,752.00 161.96,741.00 161.96,741.00              161.96,741.00 161.00,730.00 161.00,730.00              161.00,730.00 162.00,703.00 162.00,703.00              161.96,693.70 159.16,688.62 159.18,683.00              159.19,678.31 161.12,676.85 161.00,666.00              161.00,666.00 160.00,653.00 160.00,653.00              160.00,653.00 160.00,634.00 160.00,634.00              160.00,634.00 160.96,622.00 160.96,622.00              160.96,622.00 160.96,609.00 160.96,609.00              160.96,609.00 162.00,596.00 162.00,596.00              162.00,596.00 162.00,583.00 162.00,583.00              161.92,576.20 161.08,576.51 160.30,571.00              160.30,571.00 158.72,551.00 158.72,551.00              158.72,551.00 159.98,531.00 159.98,531.00              159.98,531.00 159.04,520.00 159.04,520.00              159.04,520.00 159.04,511.00 159.04,511.00              158.91,503.31 155.30,492.11 153.66,484.00              153.66,484.00 152.07,471.00 152.07,471.00              152.07,471.00 147.71,460.00 147.71,460.00              147.71,460.00 146.53,451.00 146.53,451.00              145.53,445.72 143.61,443.41 142.63,440.00              142.63,440.00 140.08,426.00 140.08,426.00              140.08,426.00 133.00,402.00 133.00,402.00              133.00,402.00 133.00,376.00 133.00,376.00              132.92,369.11 131.88,368.64 131.63,365.00              131.63,365.00 132.80,354.00 132.80,354.00              132.80,354.00 132.80,340.00 132.80,340.00              133.27,331.98 136.28,324.15 135.96,316.00              135.96,316.00 134.10,299.00 134.10,299.00              134.10,299.00 138.99,270.00 138.99,270.00              138.99,270.00 138.00,255.00 138.00,255.00              137.93,248.31 138.16,235.31 139.37,229.00              140.74,221.90 143.33,215.53 142.91,208.00              142.91,208.00 142.21,200.00 142.21,200.00              142.38,196.62 143.16,195.04 142.91,191.00              142.50,184.34 139.91,181.64 139.10,177.00              139.10,177.00 139.10,159.00 139.10,159.00              139.10,159.00 138.00,147.00 138.00,147.00 Z"
            style="fill:#000000;fill-opacity:1"/>
</svg>
