<?xml version="1.0" encoding="UTF-8" standalone="no"?>
<svg
        width="171.196mm"
        height="119.677mm"
        viewBox="0 0 8088 5654"
        version="1.1"
        id="svg1494"
        sodipodi:docname="sheet13b.svg"
        inkscape:version="1.1.1 (3bf5ae0d25, 2021-09-20)"
        xmlns:inkscape="http://www.inkscape.org/namespaces/inkscape"
        xmlns:sodipodi="http://sodipodi.sourceforge.net/DTD/sodipodi-0.dtd"
        xmlns="http://www.w3.org/2000/svg"
>
    <defs
            id="defs1498"/>
    <sodipodi:namedview
            id="namedview1496"
            pagecolor="#ffffff"
            bordercolor="#666666"
            borderopacity="1.0"
            inkscape:pageshadow="2"
            inkscape:pageopacity="0.0"
            inkscape:pagecheckerboard="0"
            inkscape:document-units="mm"
            showgrid="false"
            inkscape:zoom="1.6351385"
            inkscape:cx="323.21421"
            inkscape:cy="225.97474"
            inkscape:window-width="1920"
            inkscape:window-height="1001"
            inkscape:window-x="-7"
            inkscape:window-y="-7"
            inkscape:window-maximized="1"
            inkscape:current-layer="svg1494"/>
    <path
            id="Selection"
            fill="none"
            stroke="black"
            stroke-width="1"
            d="M 59.00,5513.00            C 57.26,5499.80 57.98,5486.30 58.00,5473.00              58.00,5473.00 59.00,5454.00 59.00,5454.00              59.00,5454.00 58.00,5440.00 58.00,5440.00              58.00,5440.00 58.00,5374.00 58.00,5374.00              58.00,5374.00 57.00,5359.00 57.00,5359.00              57.00,5359.00 57.00,5286.00 57.00,5286.00              57.00,5286.00 57.00,5162.00 57.00,5162.00              57.00,5162.00 56.00,5149.00 56.00,5149.00              56.00,5149.00 56.00,5123.00 56.00,5123.00              56.00,5123.00 56.91,5110.00 56.91,5110.00              56.91,5110.00 56.00,5098.00 56.00,5098.00              56.00,5098.00 56.00,5043.00 56.00,5043.00              56.00,5043.00 56.96,5027.00 56.96,5027.00              56.96,5027.00 56.00,5016.00 56.00,5016.00              56.00,5016.00 56.00,4998.00 56.00,4998.00              56.00,4998.00 57.00,4983.00 57.00,4983.00              57.00,4983.00 57.00,4950.00 57.00,4950.00              57.00,4950.00 56.00,4935.00 56.00,4935.00              56.00,4935.00 56.00,4899.00 56.00,4899.00              56.00,4899.00 57.00,4886.00 57.00,4886.00              57.00,4886.00 56.00,4868.00 56.00,4868.00              56.00,4868.00 56.00,4852.00 56.00,4852.00              56.00,4852.00 56.97,4840.00 56.97,4840.00              56.97,4840.00 56.10,4829.00 56.10,4829.00              56.28,4824.95 57.18,4823.63 56.96,4818.00              56.96,4818.00 56.00,4798.00 56.00,4798.00              56.00,4798.00 57.00,4779.00 57.00,4779.00              57.00,4779.00 56.32,4768.00 56.32,4768.00              56.65,4763.67 57.23,4761.72 56.91,4757.00              56.91,4757.00 56.08,4749.00 56.08,4749.00              56.08,4749.00 56.96,4736.00 56.96,4736.00              56.96,4736.00 56.96,4719.00 56.96,4719.00              56.96,4719.00 56.08,4711.00 56.08,4711.00              56.08,4711.00 57.00,4697.00 57.00,4697.00              57.00,4697.00 56.00,4683.00 56.00,4683.00              56.00,4683.00 56.00,4650.00 56.00,4650.00              56.00,4650.00 56.91,4636.00 56.91,4636.00              56.91,4636.00 56.03,4624.00 56.03,4624.00              56.03,4624.00 56.03,4552.00 56.03,4552.00              56.03,4552.00 56.03,4538.00 56.03,4538.00              56.35,4534.13 57.15,4532.29 56.91,4528.00              56.91,4528.00 56.00,4516.00 56.00,4516.00              56.00,4516.00 56.00,4453.00 56.00,4453.00              56.00,4453.00 55.01,4440.00 55.01,4440.00              55.01,4440.00 56.00,4425.00 56.00,4425.00              56.00,4425.00 56.00,4322.00 56.00,4322.00              56.00,4322.00 55.00,4307.00 55.00,4307.00              55.00,4307.00 55.00,4230.00 55.00,4230.00              55.00,4230.00 54.09,4215.00 54.09,4215.00              54.09,4215.00 55.00,4200.00 55.00,4200.00              55.00,4200.00 55.96,4186.00 55.96,4186.00              55.96,4186.00 55.00,4173.00 55.00,4173.00              55.00,4173.00 55.00,4027.00 55.00,4027.00              55.00,4027.00 54.00,4012.00 54.00,4012.00              54.00,4012.00 54.00,3966.00 54.00,3966.00              54.00,3966.00 54.00,3917.00 54.00,3917.00              54.00,3917.00 55.00,3901.00 55.00,3901.00              55.00,3901.00 55.00,3872.00 55.00,3872.00              55.00,3872.00 54.00,3857.00 54.00,3857.00              54.00,3857.00 54.00,3808.00 54.00,3808.00              54.00,3808.00 54.97,3794.00 54.97,3794.00              54.97,3794.00 54.00,3780.00 54.00,3780.00              54.00,3780.00 54.00,3680.00 54.00,3680.00              54.00,3680.00 53.45,3671.00 53.45,3671.00              53.45,3671.00 54.00,3662.00 54.00,3662.00              54.00,3662.00 53.00,3641.00 53.00,3641.00              53.00,3641.00 53.00,3611.00 53.00,3611.00              53.00,3611.00 53.90,3596.00 53.90,3596.00              53.90,3596.00 53.90,3557.00 53.90,3557.00              53.90,3557.00 53.90,3545.00 53.90,3545.00              53.90,3545.00 53.90,3512.00 53.90,3512.00              53.90,3512.00 53.90,3472.00 53.90,3472.00              53.90,3472.00 53.32,3460.00 53.32,3460.00              53.32,3460.00 53.99,3450.00 53.99,3450.00              53.99,3450.00 53.09,3438.00 53.09,3438.00              53.09,3438.00 53.99,3429.00 53.99,3429.00              53.99,3429.00 53.00,3412.00 53.00,3412.00              53.00,3412.00 53.00,3387.00 53.00,3387.00              53.00,3387.00 53.97,3373.00 53.97,3373.00              53.97,3373.00 53.00,3359.00 53.00,3359.00              53.00,3359.00 53.00,3239.00 53.00,3239.00              53.00,3239.00 53.00,3198.00 53.00,3198.00              53.00,3198.00 52.32,3187.00 52.32,3187.00              52.32,3187.00 52.87,3177.00 52.87,3177.00              52.87,3177.00 52.87,3156.00 52.87,3156.00              52.87,3156.00 52.87,3146.00 52.87,3146.00              52.87,3146.00 52.87,3135.00 52.87,3135.00              52.87,3135.00 52.09,3124.00 52.09,3124.00              52.31,3120.18 53.16,3118.45 52.91,3114.00              52.91,3114.00 52.00,3104.00 52.00,3104.00              51.84,3089.65 53.46,3092.29 53.91,3085.00              53.91,3085.00 53.09,3071.00 53.09,3071.00              53.48,3065.27 55.39,3063.02 54.91,3056.00              54.46,3049.42 53.02,3050.51 53.00,3040.00              53.00,3040.00 53.00,2973.00 53.00,2973.00              53.00,2973.00 52.18,2959.00 52.18,2959.00              52.18,2959.00 53.00,2934.00 53.00,2934.00              53.00,2934.00 52.00,2914.00 52.00,2914.00              52.00,2914.00 52.86,2899.00 52.86,2899.00              52.86,2899.00 52.86,2857.00 52.86,2857.00              52.86,2857.00 52.86,2849.00 52.86,2849.00              52.86,2849.00 54.91,2830.00 54.91,2830.00              54.91,2830.00 53.00,2811.00 53.00,2811.00              53.00,2811.00 53.00,2780.00 53.00,2780.00              53.00,2780.00 54.00,2763.00 54.00,2763.00              54.00,2763.00 53.00,2748.00 53.00,2748.00              53.00,2748.00 53.00,2683.00 53.00,2683.00              53.00,2683.00 52.00,2669.00 52.00,2669.00              52.00,2669.00 52.97,2656.00 52.97,2656.00              52.97,2656.00 52.32,2646.00 52.32,2646.00              52.32,2646.00 52.84,2635.00 52.84,2635.00              52.84,2635.00 52.84,2624.00 52.84,2624.00              52.84,2624.00 52.84,2612.00 52.84,2612.00              52.84,2612.00 52.18,2598.00 52.18,2598.00              52.18,2598.00 52.95,2590.00 52.95,2590.00              52.95,2590.00 52.18,2582.00 52.18,2582.00              52.18,2582.00 52.84,2570.00 52.84,2570.00              52.84,2570.00 52.84,2547.00 52.84,2547.00              52.84,2547.00 52.84,2515.00 52.84,2515.00              52.84,2515.00 53.91,2502.00 53.91,2502.00              53.91,2502.00 52.10,2490.00 52.10,2490.00              52.10,2490.00 52.97,2481.00 52.97,2481.00              52.97,2481.00 52.97,2463.00 52.97,2463.00              52.97,2463.00 52.97,2384.00 52.97,2384.00              52.97,2384.00 52.32,2353.00 52.32,2353.00              52.32,2353.00 53.00,2343.00 53.00,2343.00              53.00,2343.00 53.00,2299.00 53.00,2299.00              53.00,2299.00 52.37,2287.00 52.37,2287.00              52.37,2287.00 53.91,2263.00 53.91,2263.00              53.91,2263.00 53.04,2256.00 53.04,2256.00              53.04,2256.00 53.04,2242.00 53.04,2242.00              53.04,2242.00 52.18,2233.00 52.18,2233.00              52.18,2233.00 53.00,2221.00 53.00,2221.00              53.00,2221.00 53.00,2203.00 53.00,2203.00              53.00,2203.00 52.18,2191.00 52.18,2191.00              52.18,2191.00 53.00,2158.00 53.00,2158.00              53.00,2158.00 52.04,2144.00 52.04,2144.00              52.04,2144.00 53.00,2131.00 53.00,2131.00              53.00,2131.00 53.00,2110.00 53.00,2110.00              53.00,2110.00 52.00,2088.00 52.00,2088.00              52.00,2088.00 53.99,2066.00 53.99,2066.00              53.99,2066.00 52.21,2054.00 52.21,2054.00              52.21,2054.00 52.97,2044.00 52.97,2044.00              52.97,2044.00 52.18,2033.00 52.18,2033.00              52.18,2033.00 53.00,2022.00 53.00,2022.00              53.00,2022.00 52.00,2000.00 52.00,2000.00              52.00,2000.00 52.00,1967.00 52.00,1967.00              52.00,1967.00 53.00,1951.00 53.00,1951.00              53.00,1951.00 52.00,1935.00 52.00,1935.00              52.00,1935.00 52.00,1912.00 52.00,1912.00              52.00,1912.00 53.00,1897.00 53.00,1897.00              53.00,1897.00 52.00,1881.00 52.00,1881.00              52.00,1881.00 52.00,1793.00 52.00,1793.00              52.00,1793.00 52.00,1777.00 52.00,1777.00              52.00,1777.00 52.91,1763.00 52.91,1763.00              52.91,1763.00 52.00,1751.00 52.00,1751.00              52.00,1751.00 52.00,1624.00 52.00,1624.00              52.00,1624.00 52.00,1591.00 52.00,1591.00              52.00,1591.00 52.91,1576.00 52.91,1576.00              52.91,1576.00 51.10,1559.00 51.10,1559.00              51.10,1559.00 51.89,1547.00 51.89,1547.00              51.89,1547.00 51.89,1520.00 51.89,1520.00              51.89,1520.00 51.89,1511.00 51.89,1511.00              51.89,1511.00 51.89,1442.00 51.89,1442.00              51.89,1442.00 53.00,1423.00 53.00,1423.00              53.00,1423.00 52.00,1408.00 52.00,1408.00              52.00,1408.00 52.00,1349.00 52.00,1349.00              52.00,1349.00 52.91,1336.00 52.91,1336.00              52.91,1336.00 52.02,1325.00 52.02,1325.00              52.02,1325.00 53.00,1313.00 53.00,1313.00              53.00,1313.00 53.00,1256.00 53.00,1256.00              53.00,1256.00 54.91,1239.00 54.91,1239.00              54.55,1233.17 53.04,1233.00 53.00,1224.00              53.00,1224.00 53.00,1201.00 53.00,1201.00              53.00,1201.00 52.00,1181.00 52.00,1181.00              52.00,1181.00 52.91,1167.00 52.91,1167.00              52.91,1167.00 52.00,1155.00 52.00,1155.00              52.00,1155.00 52.00,1117.00 52.00,1117.00              52.00,1117.00 53.00,1104.00 53.00,1104.00              53.00,1104.00 52.01,1088.00 52.01,1088.00              52.01,1088.00 53.00,1073.00 53.00,1073.00              53.00,1073.00 53.00,1021.00 53.00,1021.00              53.00,1021.00 52.00,1006.00 52.00,1006.00              52.00,1006.00 52.00,981.00 52.00,981.00              52.00,981.00 52.91,966.00 52.91,966.00              52.91,966.00 52.00,956.00 52.00,956.00              52.00,956.00 52.00,945.00 52.00,945.00              52.00,945.00 53.99,916.00 53.99,916.00              53.99,916.00 52.10,894.00 52.10,894.00              52.10,894.00 53.00,881.00 53.00,881.00              53.00,881.00 52.00,861.00 52.00,861.00              52.00,861.00 52.00,833.00 52.00,833.00              52.00,833.00 52.91,818.00 52.91,818.00              52.91,818.00 52.02,807.00 52.02,807.00              52.02,807.00 52.97,796.00 52.97,796.00              52.97,796.00 51.88,782.00 51.88,782.00              51.88,782.00 51.88,711.00 51.88,711.00              51.88,711.00 51.88,701.00 51.88,701.00              51.88,701.00 52.91,693.00 52.91,693.00              52.91,693.00 52.01,680.00 52.01,680.00              52.01,680.00 53.00,664.00 53.00,664.00              53.00,664.00 52.00,649.00 52.00,649.00              52.00,649.00 52.00,525.00 52.00,525.00              52.00,525.00 51.01,510.00 51.01,510.00              51.01,510.00 52.96,495.00 52.96,495.00              52.96,495.00 52.00,478.00 52.00,478.00              52.00,478.00 52.00,467.00 52.00,467.00              52.00,467.00 52.95,457.00 52.95,457.00              52.95,457.00 52.95,445.00 52.95,445.00              52.95,445.00 52.00,426.00 52.00,426.00              52.00,426.00 52.91,413.00 52.91,413.00              52.91,413.00 51.01,388.00 51.01,388.00              51.01,388.00 52.00,374.00 52.00,374.00              52.00,374.00 52.00,283.00 52.00,283.00              52.00,283.00 52.95,273.00 52.95,273.00              52.95,273.00 52.95,259.00 52.95,259.00              52.95,259.00 52.04,248.00 52.04,248.00              52.04,248.00 52.97,234.00 52.97,234.00              52.97,234.00 52.05,225.00 52.05,225.00              52.05,225.00 52.05,211.00 52.05,211.00              52.05,211.00 53.00,196.00 53.00,196.00              53.00,196.00 53.00,177.00 53.00,177.00              53.00,177.00 52.00,163.00 52.00,163.00              52.00,163.00 52.00,159.00 52.00,159.00              52.00,159.00 51.00,143.00 51.00,143.00              51.00,143.00 52.00,128.00 52.00,128.00              52.00,128.00 52.00,98.00 52.00,98.00              52.00,98.00 53.00,83.00 53.00,83.00              53.00,83.00 53.00,67.00 53.00,67.00              53.00,65.12 52.88,61.89 53.60,60.21              56.28,53.98 69.00,52.03 75.00,51.96              75.00,51.96 88.00,51.96 88.00,51.96              88.00,51.96 102.00,51.00 102.00,51.00              102.00,51.00 119.00,52.00 119.00,52.00              119.00,52.00 132.00,51.00 132.00,51.00              132.00,51.00 136.00,51.00 136.00,51.00              136.00,51.00 148.00,51.86 148.00,51.86              148.00,51.86 163.00,51.86 163.00,51.86              163.00,51.86 173.00,51.86 173.00,51.86              173.00,51.86 205.00,51.86 205.00,51.86              205.00,51.86 222.00,52.99 222.00,52.99              222.00,52.99 236.00,52.00 236.00,52.00              236.00,52.00 426.00,52.00 426.00,52.00              426.00,52.00 440.00,52.97 440.00,52.97              440.00,52.97 454.00,52.00 454.00,52.00              454.00,52.00 550.00,52.00 550.00,52.00              550.00,52.00 563.00,53.00 563.00,53.00              563.00,53.00 567.00,53.00 567.00,53.00              567.00,53.00 582.00,52.00 582.00,52.00              582.00,52.00 741.00,52.00 741.00,52.00              741.00,52.00 751.00,51.05 751.00,51.05              751.00,51.05 763.00,51.05 763.00,51.05              763.00,51.05 778.00,52.00 778.00,52.00              778.00,52.00 793.00,51.34 793.00,51.34              793.00,51.34 802.00,51.96 802.00,51.96              802.00,51.96 815.00,51.00 815.00,51.00              815.00,51.00 971.00,51.00 971.00,51.00              971.00,51.00 1004.00,51.00 1004.00,51.00              1004.00,51.00 1021.00,50.01 1021.00,50.01              1021.00,50.01 1035.00,51.00 1035.00,51.00              1035.00,51.00 1118.00,51.00 1118.00,51.00              1118.00,51.00 1133.00,51.99 1133.00,51.99              1133.00,51.99 1143.00,51.32 1143.00,51.32              1143.00,51.32 1240.00,52.00 1240.00,52.00              1240.00,52.00 1255.00,51.00 1255.00,51.00              1255.00,51.00 1301.00,51.00 1301.00,51.00              1301.00,51.00 1361.00,51.00 1361.00,51.00              1361.00,51.00 1383.00,52.00 1383.00,52.00              1383.00,52.00 1397.00,51.04 1397.00,51.04              1397.00,51.04 1410.00,52.00 1410.00,52.00              1410.00,52.00 1479.00,52.00 1479.00,52.00              1479.00,52.00 1488.00,51.34 1488.00,51.34              1488.00,51.34 1499.00,52.00 1499.00,52.00              1499.00,52.00 1537.00,52.00 1537.00,52.00              1537.00,52.00 1549.00,51.18 1549.00,51.18              1549.00,51.18 1561.00,52.00 1561.00,52.00              1561.00,52.00 1596.00,52.00 1596.00,52.00              1596.00,52.00 1617.00,51.00 1617.00,51.00              1617.00,51.00 1632.00,52.00 1632.00,52.00              1632.00,52.00 1676.00,52.00 1676.00,52.00              1676.00,52.00 1688.00,52.95 1688.00,52.95              1688.00,52.95 1707.00,52.95 1707.00,52.95              1707.00,52.95 1722.00,52.00 1722.00,52.00              1722.00,52.00 1735.00,52.00 1735.00,52.00              1735.00,52.00 1748.00,52.91 1748.00,52.91              1748.00,52.91 1758.00,52.00 1758.00,52.00              1758.00,52.00 1781.00,52.00 1781.00,52.00              1781.00,52.00 1799.00,53.00 1799.00,53.00              1799.00,53.00 1814.00,51.87 1814.00,51.87              1814.00,51.87 1859.00,51.87 1859.00,51.87              1859.00,51.87 1869.00,51.87 1869.00,51.87              1869.00,51.87 1877.00,51.87 1877.00,51.87              1880.47,51.71 1882.21,50.91 1886.00,51.18              1886.00,51.18 1897.00,52.00 1897.00,52.00              1897.00,52.00 2073.00,52.00 2073.00,52.00              2073.00,52.00 2088.00,51.00 2088.00,51.00              2088.00,51.00 2105.00,51.00 2105.00,51.00              2105.00,51.00 2120.00,52.00 2120.00,52.00              2120.00,52.00 2240.00,52.00 2240.00,52.00              2240.00,52.00 2255.00,53.00 2255.00,53.00              2255.00,53.00 2355.00,53.00 2355.00,53.00              2355.00,53.00 2370.00,52.00 2370.00,52.00              2370.00,52.00 2430.00,52.00 2430.00,52.00              2430.00,52.00 2445.00,53.00 2445.00,53.00              2445.00,53.00 2532.00,53.00 2532.00,53.00              2532.00,53.00 2549.00,54.00 2549.00,54.00              2549.00,54.00 2562.00,53.00 2562.00,53.00              2562.00,53.00 2606.00,53.00 2606.00,53.00              2606.00,53.00 2621.00,52.00 2621.00,52.00              2621.00,52.00 2649.00,52.00 2649.00,52.00              2649.00,52.00 2666.00,53.00 2666.00,53.00              2666.00,53.00 2773.00,53.00 2773.00,53.00              2773.00,53.00 2788.00,53.99 2788.00,53.99              2788.00,53.99 2803.00,53.00 2803.00,53.00              2803.00,53.00 3000.00,53.00 3000.00,53.00              3000.00,53.00 3015.00,54.00 3015.00,54.00              3015.00,54.00 3070.00,54.00 3070.00,54.00              3070.00,54.00 3274.00,54.00 3274.00,54.00              3274.00,54.00 3347.00,54.00 3347.00,54.00              3347.00,54.00 3362.00,54.00 3362.00,54.00              3362.00,54.00 3374.00,53.18 3374.00,53.18              3374.00,53.18 3385.00,54.00 3385.00,54.00              3385.00,54.00 3466.00,54.00 3466.00,54.00              3466.00,54.00 3480.00,54.00 3480.00,54.00              3480.00,54.00 3493.00,53.09 3493.00,53.09              3493.00,53.09 3513.00,54.96 3513.00,54.96              3513.00,54.96 3527.00,54.00 3527.00,54.00              3527.00,54.00 3547.00,55.00 3547.00,55.00              3547.00,55.00 3562.00,54.00 3562.00,54.00              3562.00,54.00 3621.00,54.00 3621.00,54.00              3621.00,54.00 3633.00,54.95 3633.00,54.95              3633.00,54.95 3650.00,54.95 3650.00,54.95              3650.00,54.95 3665.00,54.00 3665.00,54.00              3665.00,54.00 3808.00,54.00 3808.00,54.00              3808.00,54.00 3858.00,54.00 3858.00,54.00              3858.00,54.00 3870.00,53.18 3870.00,53.18              3870.00,53.18 3880.00,54.00 3880.00,54.00              3880.00,54.00 3884.00,54.00 3884.00,54.00              3884.00,54.00 3899.00,53.00 3899.00,53.00              3899.00,53.00 3919.00,53.00 3919.00,53.00              3919.00,53.00 3933.00,52.01 3933.00,52.01              3933.00,52.01 3946.00,53.00 3946.00,53.00              3951.38,53.06 3971.95,53.27 3976.00,54.56              3977.85,55.15 3987.07,60.87 3988.75,62.24              3992.53,65.34 3991.35,68.28 3995.11,74.00              4000.34,81.97 4010.37,87.50 4020.00,86.91              4029.40,86.33 4039.84,78.67 4044.89,71.00              4048.40,65.67 4048.28,61.81 4054.02,57.49              4063.73,50.19 4076.79,54.98 4088.00,55.00              4088.00,55.00 4105.00,55.00 4105.00,55.00              4105.00,55.00 4120.00,56.00 4120.00,56.00              4120.00,56.00 4133.00,56.00 4133.00,56.00              4133.00,56.00 4148.00,55.04 4148.00,55.04              4148.00,55.04 4174.00,56.90 4174.00,56.90              4174.00,56.90 4188.00,56.90 4188.00,56.90              4188.00,56.90 4198.00,56.90 4198.00,56.90              4198.00,56.90 4207.00,56.90 4207.00,56.90              4207.00,56.90 4212.00,56.90 4212.00,56.90              4212.00,56.90 4227.00,58.00 4227.00,58.00              4227.00,58.00 4231.00,58.00 4231.00,58.00              4231.00,58.00 4246.00,59.00 4246.00,59.00              4246.00,59.00 4252.00,59.00 4252.00,59.00              4252.00,59.00 4261.00,58.34 4261.00,58.34              4261.00,58.34 4272.00,59.00 4272.00,59.00              4272.00,59.00 4348.00,59.00 4348.00,59.00              4348.00,59.00 4363.00,57.84 4363.00,57.84              4363.00,57.84 4393.00,57.84 4393.00,57.84              4393.00,57.84 4427.00,57.84 4427.00,57.84              4427.00,57.84 4444.00,59.00 4444.00,59.00              4444.00,59.00 4478.00,59.00 4478.00,59.00              4478.00,59.00 4493.00,59.91 4493.00,59.91              4493.00,59.91 4516.00,59.91 4516.00,59.91              4516.00,59.91 4540.00,59.91 4540.00,59.91              4540.00,59.91 4557.00,60.99 4557.00,60.99              4557.00,60.99 4568.00,60.18 4568.00,60.18              4568.00,60.18 4579.00,60.99 4579.00,60.99              4579.00,60.99 4588.00,60.04 4588.00,60.04              4588.00,60.04 4600.00,60.04 4600.00,60.04              4600.00,60.04 4615.00,59.00 4615.00,59.00              4615.00,59.00 4638.00,59.00 4638.00,59.00              4638.00,59.00 4651.00,58.00 4651.00,58.00              4651.00,58.00 4669.00,58.00 4669.00,58.00              4669.00,58.00 4682.00,58.91 4682.00,58.91              4685.82,58.69 4687.55,57.84 4692.00,58.09              4692.00,58.09 4704.00,59.00 4704.00,59.00              4704.00,59.00 4745.00,59.00 4745.00,59.00              4745.00,59.00 4760.00,58.00 4760.00,58.00              4760.00,58.00 4807.00,58.00 4807.00,58.00              4807.00,58.00 4822.00,59.00 4822.00,59.00              4822.00,59.00 4847.00,59.00 4847.00,59.00              4847.00,59.00 4859.00,58.05 4859.00,58.05              4859.00,58.05 4872.00,58.05 4872.00,58.05              4872.00,58.05 4887.00,59.00 4887.00,59.00              4887.00,59.00 4941.00,59.00 4941.00,59.00              4941.00,59.00 4958.00,60.00 4958.00,60.00              4958.00,60.00 5085.00,60.00 5085.00,60.00              5085.00,60.00 5098.00,59.08 5098.00,59.08              5098.00,59.08 5111.00,60.00 5111.00,60.00              5111.00,60.00 5116.00,60.00 5116.00,60.00              5116.00,60.00 5131.00,61.00 5131.00,61.00              5131.00,61.00 5147.00,61.00 5147.00,61.00              5147.00,61.00 5162.00,60.00 5162.00,60.00              5162.00,60.00 5344.00,60.00 5344.00,60.00              5344.00,60.00 5361.00,61.00 5361.00,61.00              5361.00,61.00 5438.00,61.00 5438.00,61.00              5438.00,61.00 5452.00,60.00 5452.00,60.00              5452.00,60.00 5483.00,60.00 5483.00,60.00              5483.00,60.00 5498.00,61.00 5498.00,61.00              5498.00,61.00 5584.00,61.00 5584.00,61.00              5584.00,61.00 5594.00,61.95 5594.00,61.95              5594.00,61.95 5613.00,61.95 5613.00,61.95              5613.00,61.95 5628.00,61.00 5628.00,61.00              5628.00,61.00 5654.00,61.00 5654.00,61.00              5654.00,61.00 5671.00,62.00 5671.00,62.00              5671.00,62.00 5688.00,62.00 5688.00,62.00              5688.00,62.00 5701.00,61.18 5701.00,61.18              5701.00,61.18 5721.00,62.00 5721.00,62.00              5721.00,62.00 5731.00,62.95 5731.00,62.95              5731.00,62.95 5750.00,62.95 5750.00,62.95              5750.00,62.95 5765.00,62.09 5765.00,62.09              5765.00,62.09 5778.00,62.09 5778.00,62.09              5786.93,63.13 5783.41,64.14 5796.00,64.00              5796.00,64.00 5813.00,62.09 5813.00,62.09              5813.00,62.09 5825.00,63.00 5825.00,63.00              5825.00,63.00 5862.00,63.00 5862.00,63.00              5862.00,63.00 5878.00,62.00 5878.00,62.00              5878.00,62.00 5996.00,62.00 5996.00,62.00              5996.00,62.00 6011.00,61.00 6011.00,61.00              6011.00,61.00 6026.00,61.00 6026.00,61.00              6026.00,61.00 6041.00,61.88 6041.00,61.88              6041.00,61.88 6056.00,61.88 6056.00,61.88              6056.00,61.88 6066.00,61.88 6066.00,61.88              6066.00,61.88 6107.00,61.88 6107.00,61.88              6107.00,61.88 6119.00,62.96 6119.00,62.96              6119.00,62.96 6133.00,62.96 6133.00,62.96              6133.00,62.96 6156.00,61.08 6156.00,61.08              6156.00,61.08 6173.00,62.96 6173.00,62.96              6173.00,62.96 6188.00,62.04 6188.00,62.04              6188.00,62.04 6203.00,62.04 6203.00,62.04              6203.00,62.04 6215.00,63.00 6215.00,63.00              6215.00,63.00 6332.00,63.00 6332.00,63.00              6332.00,63.00 6347.00,64.00 6347.00,64.00              6347.00,64.00 6431.00,64.00 6431.00,64.00              6431.00,64.00 6446.00,64.96 6446.00,64.96              6446.00,64.96 6457.00,64.96 6457.00,64.96              6457.00,64.96 6468.00,64.00 6468.00,64.00              6468.00,64.00 6483.00,65.00 6483.00,65.00              6483.00,65.00 6498.00,64.03 6498.00,64.03              6498.00,64.03 6512.00,65.00 6512.00,65.00              6512.00,65.00 6635.00,65.00 6635.00,65.00              6635.00,65.00 6650.00,66.00 6650.00,66.00              6650.00,66.00 6787.00,66.00 6787.00,66.00              6787.00,66.00 6806.00,67.00 6806.00,67.00              6806.00,67.00 6821.00,66.00 6821.00,66.00              6821.00,66.00 6828.00,66.00 6828.00,66.00              6828.00,66.00 6843.00,67.00 6843.00,67.00              6843.00,67.00 6895.00,67.00 6895.00,67.00              6895.00,67.00 6910.00,66.01 6910.00,66.01              6910.00,66.01 6925.00,67.00 6925.00,67.00              6925.00,67.00 6955.00,67.00 6955.00,67.00              6955.00,67.00 6972.00,68.00 6972.00,68.00              6972.00,68.00 7260.00,68.00 7260.00,68.00              7260.00,68.00 7277.00,69.00 7277.00,69.00              7277.00,69.00 7310.00,69.00 7310.00,69.00              7310.00,69.00 7321.00,68.32 7321.00,68.32              7321.00,68.32 7330.00,68.98 7330.00,68.98              7330.00,68.98 7344.00,68.00 7344.00,68.00              7344.00,68.00 7396.00,68.00 7396.00,68.00              7396.00,68.00 7410.00,67.03 7410.00,67.03              7410.00,67.03 7419.00,67.96 7419.00,67.96              7419.00,67.96 7428.00,67.96 7428.00,67.96              7428.00,67.96 7442.00,69.00 7442.00,69.00              7442.00,69.00 7457.00,68.00 7457.00,68.00              7457.00,68.00 7485.00,68.00 7485.00,68.00              7485.00,68.00 7500.00,69.00 7500.00,69.00              7500.00,69.00 7628.00,69.00 7628.00,69.00              7628.00,69.00 7643.00,70.00 7643.00,70.00              7643.00,70.00 7664.00,70.00 7664.00,70.00              7664.00,70.00 7676.00,70.96 7676.00,70.96              7676.00,70.96 7693.00,70.96 7693.00,70.96              7693.00,70.96 7706.00,71.96 7706.00,71.96              7706.00,71.96 7723.00,70.04 7723.00,70.04              7728.90,69.79 7730.05,70.57 7735.00,70.95              7735.00,70.95 7751.00,70.95 7751.00,70.95              7751.00,70.95 7763.00,70.19 7763.00,70.19              7763.00,70.19 7771.00,71.85 7771.00,71.85              7771.00,71.85 7784.00,71.85 7784.00,71.85              7784.00,71.85 7796.00,71.22 7796.00,71.22              7803.26,72.06 7799.81,74.19 7816.00,74.00              7816.00,74.00 7839.00,71.00 7839.00,71.00              7839.00,71.00 7843.00,71.00 7843.00,71.00              7843.00,71.00 7857.00,70.00 7857.00,70.00              7857.00,70.00 7887.00,70.00 7887.00,70.00              7887.00,70.00 7902.00,71.00 7902.00,71.00              7914.12,71.02 7918.03,70.89 7930.00,74.00              7930.00,74.00 7932.00,130.00 7932.00,130.00              7932.00,130.00 7934.00,158.00 7934.00,158.00              7934.00,158.00 7936.09,190.00 7936.09,190.00              7936.51,195.67 7938.22,197.88 7938.79,202.00              7938.79,202.00 7940.00,235.00 7940.00,235.00              7940.00,235.00 7939.00,249.00 7939.00,249.00              7939.00,249.00 7939.00,276.00 7939.00,276.00              7939.00,276.00 7945.04,318.00 7945.04,318.00              7945.04,318.00 7945.04,336.00 7945.04,336.00              7945.04,336.00 7946.28,345.00 7946.28,345.00              7946.28,345.00 7946.28,356.00 7946.28,356.00              7946.28,356.00 7948.16,382.00 7948.16,382.00              7948.16,382.00 7947.09,388.00 7947.09,388.00              7947.09,388.00 7947.09,399.00 7947.09,399.00              7947.09,399.00 7948.00,414.00 7948.00,414.00              7948.03,431.67 7947.35,433.01 7950.61,451.00              7953.05,464.43 7955.74,466.96 7956.61,471.00              7956.61,471.00 7958.21,486.00 7958.21,486.00              7958.21,486.00 7965.92,519.00 7965.92,519.00              7965.92,519.00 7970.96,532.00 7970.96,532.00              7970.96,532.00 7972.90,543.00 7972.90,543.00              7972.90,543.00 7975.62,552.00 7975.62,552.00              7975.62,552.00 7976.92,562.00 7976.92,562.00              7976.92,562.00 7980.92,573.00 7980.92,573.00              7983.88,581.61 7986.95,591.96 7987.00,601.00              7987.04,608.84 7987.89,608.97 7989.33,616.00              7989.33,616.00 7990.47,625.00 7990.47,625.00              7992.21,634.27 7993.14,629.82 7993.00,642.00              7992.96,645.46 7992.25,652.95 7990.91,656.00              7987.50,663.83 7981.74,666.40 7976.04,671.33              7976.04,671.33 7968.91,678.39 7968.91,678.39              7965.69,680.98 7963.52,681.59 7960.18,685.09              7954.46,691.10 7954.24,695.73 7951.79,703.00              7947.00,717.27 7945.80,711.23 7946.00,729.00              7946.00,729.00 7946.96,739.00 7946.96,739.00              7946.96,739.00 7946.96,754.00 7946.96,754.00              7946.96,754.00 7948.24,772.00 7948.24,772.00              7948.24,772.00 7948.24,781.00 7948.24,781.00              7948.24,781.00 7947.09,797.00 7947.09,797.00              7947.09,797.00 7949.00,813.00 7949.00,813.00              7949.00,813.00 7949.00,827.00 7949.00,827.00              7949.00,827.00 7949.90,837.00 7949.90,837.00              7949.90,837.00 7949.04,850.00 7949.04,850.00              7949.31,856.74 7950.98,856.59 7951.00,867.00              7951.00,867.00 7951.00,881.00 7951.00,881.00              7951.00,881.00 7952.13,908.00 7952.13,908.00              7952.13,908.00 7952.13,927.00 7952.13,927.00              7952.13,927.00 7951.04,942.00 7951.04,942.00              7951.04,942.00 7955.00,970.00 7955.00,970.00              7955.00,970.00 7954.00,994.00 7954.00,994.00              7954.00,994.00 7954.79,1005.00 7954.79,1005.00              7954.54,1008.90 7952.03,1016.25 7952.03,1023.00              7952.03,1030.68 7954.95,1033.76 7955.00,1044.00              7955.00,1044.00 7956.00,1063.00 7956.00,1063.00              7956.00,1063.00 7955.12,1076.00 7955.12,1076.00              7955.12,1076.00 7955.12,1088.00 7955.12,1088.00              7955.12,1088.00 7955.12,1095.00 7955.12,1095.00              7955.04,1098.68 7953.86,1100.42 7954.04,1106.00              7954.04,1106.00 7956.26,1124.00 7956.26,1124.00              7956.26,1124.00 7956.26,1134.00 7956.26,1134.00              7956.26,1134.00 7956.97,1144.00 7956.97,1144.00              7956.97,1144.00 7955.04,1161.00 7955.04,1161.00              7955.04,1161.00 7958.00,1187.00 7958.00,1187.00              7958.00,1187.00 7958.00,1222.00 7958.00,1222.00              7958.00,1222.00 7957.09,1237.00 7957.09,1237.00              7957.09,1237.00 7958.14,1249.00 7958.14,1249.00              7958.14,1249.00 7958.14,1272.00 7958.14,1272.00              7958.14,1272.00 7958.14,1296.00 7958.14,1296.00              7958.14,1296.00 7959.00,1313.00 7959.00,1313.00              7959.00,1313.00 7959.00,1329.00 7959.00,1329.00              7959.00,1329.00 7958.09,1343.00 7958.09,1343.00              7958.09,1343.00 7959.00,1355.00 7959.00,1355.00              7959.00,1355.00 7960.00,1378.00 7960.00,1378.00              7960.00,1378.00 7960.00,1395.00 7960.00,1395.00              7960.00,1395.00 7961.09,1420.00 7961.09,1420.00              7961.09,1420.00 7961.09,1437.00 7961.09,1437.00              7961.09,1437.00 7961.92,1445.00 7961.92,1445.00              7961.92,1445.00 7961.17,1456.00 7961.17,1456.00              7961.17,1456.00 7961.17,1479.00 7961.17,1479.00              7961.17,1479.00 7961.17,1489.00 7961.17,1489.00              7961.17,1489.00 7962.99,1519.00 7962.99,1519.00              7962.99,1519.00 7962.09,1531.00 7962.09,1531.00              7962.09,1531.00 7963.98,1546.00 7963.98,1546.00              7963.98,1546.00 7963.00,1562.00 7963.00,1562.00              7963.00,1562.00 7963.00,1587.00 7963.00,1587.00              7963.00,1587.00 7964.00,1602.00 7964.00,1602.00              7964.00,1602.00 7964.00,1621.00 7964.00,1621.00              7964.00,1621.00 7967.18,1648.00 7967.18,1648.00              7967.36,1653.99 7964.68,1657.37 7965.09,1664.00              7965.41,1669.10 7967.16,1671.93 7967.28,1675.00              7967.28,1675.00 7967.28,1702.00 7967.28,1702.00              7967.48,1708.29 7968.98,1707.55 7969.00,1718.00              7969.00,1718.00 7969.00,1733.00 7969.00,1733.00              7969.00,1733.00 7968.04,1748.00 7968.04,1748.00              7968.04,1748.00 7970.00,1766.00 7970.00,1766.00              7970.00,1766.00 7970.00,1785.00 7970.00,1785.00              7970.00,1785.00 7971.00,1801.00 7971.00,1801.00              7971.00,1801.00 7971.00,1850.00 7971.00,1850.00              7971.00,1850.00 7972.00,1867.00 7972.00,1867.00              7972.00,1867.00 7973.00,1897.00 7973.00,1897.00              7973.00,1897.00 7973.91,1912.00 7973.91,1912.00              7973.91,1912.00 7972.00,1933.00 7972.00,1933.00              7972.00,1933.00 7972.96,1946.00 7972.96,1946.00              7972.96,1946.00 7972.96,1958.00 7972.96,1958.00              7972.96,1958.00 7974.00,1972.00 7974.00,1972.00              7974.00,1972.00 7974.00,1988.00 7974.00,1988.00              7974.00,1988.00 7977.09,2018.00 7977.09,2018.00              7977.09,2018.00 7977.09,2050.00 7977.09,2050.00              7977.09,2050.00 7977.09,2059.00 7977.09,2059.00              7977.09,2059.00 7976.00,2075.00 7976.00,2075.00              7976.00,2075.00 7976.00,2099.00 7976.00,2099.00              7976.00,2099.00 7977.13,2116.00 7977.13,2116.00              7977.13,2116.00 7977.13,2140.00 7977.13,2140.00              7977.13,2140.00 7976.03,2158.00 7976.03,2158.00              7976.03,2158.00 7976.95,2167.00 7976.95,2167.00              7976.95,2167.00 7976.95,2178.00 7976.95,2178.00              7976.95,2178.00 7976.09,2191.00 7976.09,2191.00              7976.09,2191.00 7977.92,2207.00 7977.92,2207.00              7977.92,2207.00 7977.09,2218.00 7977.09,2218.00              7977.29,2221.47 7978.09,2223.20 7977.82,2227.00              7977.54,2230.97 7976.86,2232.37 7977.04,2237.00              7977.04,2237.00 7978.92,2256.00 7978.92,2256.00              7978.92,2256.00 7978.02,2268.00 7978.02,2268.00              7978.02,2268.00 7978.82,2279.00 7978.82,2279.00              7978.57,2282.45 7977.85,2284.09 7978.09,2288.00              7978.09,2288.00 7979.13,2296.00 7979.13,2296.00              7979.13,2296.00 7979.13,2314.00 7979.13,2314.00              7979.13,2314.00 7980.82,2331.00 7980.82,2331.00              7980.82,2331.00 7980.00,2355.00 7980.00,2355.00              7980.00,2355.00 7979.00,2386.00 7979.00,2386.00              7979.00,2386.00 7978.02,2402.00 7978.02,2402.00              7978.02,2402.00 7982.24,2434.00 7982.24,2434.00              7982.24,2434.00 7982.24,2447.00 7982.24,2447.00              7982.24,2447.00 7982.24,2455.00 7982.24,2455.00              7982.24,2455.00 7983.92,2476.00 7983.92,2476.00              7983.92,2476.00 7983.09,2487.00 7983.09,2487.00              7983.09,2487.00 7984.96,2507.00 7984.96,2507.00              7984.96,2507.00 7983.00,2524.00 7983.00,2524.00              7982.86,2536.31 7984.55,2535.99 7984.74,2541.00              7984.74,2541.00 7984.01,2550.00 7984.01,2550.00              7984.01,2550.00 7985.00,2567.00 7985.00,2567.00              7985.00,2567.00 7985.00,2580.00 7985.00,2580.00              7985.00,2580.00 7986.00,2599.00 7986.00,2599.00              7986.00,2599.00 7985.09,2613.00 7985.09,2613.00              7985.09,2613.00 7986.96,2632.00 7986.96,2632.00              7986.96,2632.00 7985.04,2654.00 7985.04,2654.00              7985.04,2654.00 7987.79,2669.00 7987.79,2669.00              7987.79,2669.00 7987.09,2683.00 7987.09,2683.00              7987.09,2683.00 7988.00,2697.00 7988.00,2697.00              7988.00,2697.00 7989.95,2721.00 7989.95,2721.00              7989.95,2721.00 7989.95,2735.00 7989.95,2735.00              7989.95,2735.00 7989.09,2745.00 7989.09,2745.00              7989.09,2745.00 7989.09,2769.00 7989.09,2769.00              7989.09,2769.00 7989.98,2777.00 7989.98,2777.00              7989.98,2777.00 7989.98,2795.00 7989.98,2795.00              7989.98,2795.00 7990.91,2810.00 7990.91,2810.00              7990.91,2810.00 7990.04,2817.00 7990.04,2817.00              7990.04,2817.00 7990.04,2834.00 7990.04,2834.00              7990.04,2834.00 7990.96,2846.00 7990.96,2846.00              7990.96,2846.00 7990.96,2861.00 7990.96,2861.00              7991.01,2869.99 7992.00,2870.32 7992.84,2878.00              7992.84,2878.00 7994.79,2901.00 7994.79,2901.00              7994.79,2901.00 7993.00,2922.00 7993.00,2922.00              7993.00,2922.00 7995.17,2950.00 7995.17,2950.00              7995.17,2950.00 7995.17,2965.00 7995.17,2965.00              7995.17,2965.00 7995.17,2973.00 7995.17,2973.00              7995.17,2973.00 7995.91,2985.00 7995.91,2985.00              7995.91,2985.00 7995.00,2998.00 7995.00,2998.00              7995.00,2998.00 7997.00,3025.00 7997.00,3025.00              7997.00,3025.00 7996.04,3035.00 7996.04,3035.00              7996.04,3035.00 7996.04,3049.00 7996.04,3049.00              7996.04,3049.00 7996.68,3062.00 7996.68,3062.00              7996.68,3062.00 7996.01,3072.00 7996.01,3072.00              7996.01,3072.00 7996.99,3084.00 7996.99,3084.00              7996.99,3084.00 7996.04,3094.00 7996.04,3094.00              7996.04,3094.00 7996.04,3110.00 7996.04,3110.00              7996.04,3110.00 7997.00,3125.00 7997.00,3125.00              7997.00,3125.00 7998.00,3153.00 7998.00,3153.00              7998.00,3153.00 7997.09,3166.00 7997.09,3166.00              7997.09,3166.00 7998.82,3188.00 7998.82,3188.00              7998.57,3191.49 7997.87,3193.01 7998.09,3197.00              7998.09,3197.00 7999.00,3209.00 7999.00,3209.00              7999.00,3209.00 7999.00,3229.00 7999.00,3229.00              7999.00,3229.00 8000.00,3242.00 8000.00,3242.00              8000.00,3242.00 8000.00,3264.00 8000.00,3264.00              8000.00,3264.00 8000.82,3274.00 8000.82,3274.00              8000.82,3274.00 8000.02,3282.00 8000.02,3282.00              8000.02,3282.00 8000.02,3297.00 8000.02,3297.00              8000.02,3297.00 7998.70,3316.00 7998.70,3316.00              7997.90,3321.59 7996.79,3322.41 7997.26,3329.00              7997.26,3329.00 7997.26,3337.00 7997.26,3337.00              7997.26,3337.00 7998.00,3358.00 7998.00,3358.00              7998.00,3358.00 7999.00,3385.00 7999.00,3385.00              7999.00,3385.00 7999.82,3399.00 7999.82,3399.00              7999.82,3399.00 7999.04,3408.00 7999.04,3408.00              7999.04,3408.00 7999.82,3418.00 7999.82,3418.00              7999.82,3418.00 7999.00,3432.00 7999.00,3432.00              7998.98,3443.49 7996.32,3442.83 7996.04,3451.00              7996.04,3451.00 7996.98,3461.00 7996.98,3461.00              7996.98,3461.00 7996.98,3479.00 7996.98,3479.00              7996.98,3479.00 8000.00,3507.00 8000.00,3507.00              8000.00,3507.00 8000.00,3534.00 8000.00,3534.00              8000.00,3534.00 7998.09,3551.00 7998.09,3551.00              7998.09,3551.00 7999.00,3561.00 7999.00,3561.00              7999.00,3561.00 7999.00,3585.00 7999.00,3585.00              7998.98,3594.93 7997.92,3592.99 7997.16,3600.00              7997.16,3600.00 7997.16,3615.00 7997.16,3615.00              7997.16,3615.00 7997.16,3626.00 7997.16,3626.00              7997.16,3626.00 7992.92,3643.00 7992.92,3643.00              7992.92,3643.00 7991.62,3653.00 7991.62,3653.00              7991.62,3653.00 7988.67,3663.00 7988.67,3663.00              7988.67,3663.00 7987.09,3686.00 7987.09,3686.00              7987.09,3686.00 7989.16,3708.00 7989.16,3708.00              7988.80,3711.92 7987.80,3713.20 7988.09,3718.00              7988.09,3718.00 7989.85,3727.00 7989.85,3727.00              7989.85,3727.00 7989.85,3738.00 7989.85,3738.00              7990.10,3746.54 7992.02,3747.55 7992.34,3752.00              7992.34,3752.00 7991.71,3768.00 7991.71,3768.00              7991.14,3772.40 7990.03,3775.25 7990.03,3780.00              7990.03,3780.00 7991.13,3790.00 7991.13,3790.00              7991.13,3790.00 7991.13,3801.00 7991.13,3801.00              7991.13,3801.00 7992.25,3810.00 7992.25,3810.00              7992.25,3810.00 7990.83,3835.00 7990.83,3835.00              7989.71,3846.16 7982.82,3860.35 7978.91,3871.00              7978.91,3871.00 7973.47,3894.00 7973.47,3894.00              7971.60,3903.96 7975.17,3907.20 7976.10,3913.00              7976.10,3913.00 7976.10,3922.00 7976.10,3922.00              7976.10,3922.00 7975.04,3943.00 7975.04,3943.00              7975.04,3943.00 7975.04,3952.00 7975.04,3952.00              7975.04,3952.00 7975.74,3959.00 7975.74,3959.00              7975.56,3963.53 7974.02,3964.18 7974.04,3974.00              7974.04,3974.00 7974.04,3983.00 7974.04,3983.00              7974.04,3983.00 7974.74,3990.00 7974.74,3990.00              7974.74,3990.00 7973.04,4001.00 7973.04,4001.00              7972.79,4007.30 7973.92,4008.54 7974.70,4014.00              7974.70,4014.00 7975.47,4023.00 7975.47,4023.00              7975.47,4023.00 7979.40,4040.00 7979.40,4040.00              7980.18,4043.90 7982.58,4051.75 7982.23,4055.00              7982.23,4055.00 7981.08,4061.00 7981.08,4061.00              7981.08,4061.00 7981.08,4072.00 7981.08,4072.00              7980.86,4081.98 7973.22,4094.35 7970.06,4104.00              7967.47,4112.84 7970.23,4116.17 7970.06,4123.00              7969.60,4129.00 7967.42,4130.86 7968.09,4140.00              7968.69,4148.21 7973.42,4155.23 7979.04,4160.99              7981.20,4163.19 7986.37,4167.12 7987.52,4169.32              7989.01,4172.21 7988.99,4177.75 7989.00,4181.00              7989.00,4181.00 7989.00,4195.00 7989.00,4195.00              7989.16,4208.52 7994.38,4209.75 7997.14,4217.00              8000.17,4224.97 7999.36,4230.45 8000.17,4238.00              8000.60,4241.98 8002.06,4244.92 8001.66,4249.00              8001.66,4249.00 8000.00,4257.00 8000.00,4257.00              8000.00,4257.00 8000.00,4268.00 8000.00,4268.00              8000.00,4268.00 7998.00,4286.00 7998.00,4286.00              7998.00,4286.00 7998.00,4295.00 7998.00,4295.00              7998.12,4304.83 8000.47,4305.65 8001.61,4311.00              8001.61,4311.00 8005.22,4334.00 8005.22,4334.00              8006.95,4339.38 8009.25,4340.67 8010.78,4347.00              8014.40,4365.95 8010.73,4367.46 8010.78,4380.00              8011.23,4389.33 8014.33,4390.90 8014.90,4397.00              8014.90,4397.00 8013.00,4425.00 8013.00,4425.00              8013.00,4425.00 8013.00,4449.00 8013.00,4449.00              8013.00,4449.00 8012.04,4462.00 8012.04,4462.00              8012.04,4462.00 8013.37,4473.00 8013.37,4473.00              8012.94,4479.12 8010.87,4479.01 8011.00,4491.00              8011.07,4497.11 8012.00,4498.60 8012.71,4504.00              8012.71,4504.00 8014.28,4522.00 8014.28,4522.00              8014.28,4522.00 8016.83,4539.00 8016.83,4539.00              8016.83,4539.00 8017.82,4556.00 8017.82,4556.00              8017.82,4556.00 8017.03,4564.00 8017.03,4564.00              8017.03,4564.00 8018.00,4580.00 8018.00,4580.00              8018.00,4580.00 8017.03,4592.00 8017.03,4592.00              8017.03,4592.00 8018.00,4610.00 8018.00,4610.00              8018.00,4610.00 8019.17,4631.00 8019.17,4631.00              8019.17,4631.00 8020.90,4641.00 8020.90,4641.00              8020.90,4641.00 8019.04,4657.00 8019.04,4657.00              8019.04,4657.00 8020.07,4666.00 8020.07,4666.00              8020.07,4666.00 8020.07,4677.00 8020.07,4677.00              8020.07,4677.00 8021.96,4688.00 8021.96,4688.00              8021.96,4688.00 8021.00,4705.00 8021.00,4705.00              8020.86,4717.62 8021.79,4714.41 8022.83,4724.00              8022.83,4724.00 8023.46,4732.00 8023.46,4732.00              8024.92,4740.24 8025.98,4739.37 8025.92,4749.00              8025.92,4749.00 8025.92,4771.00 8025.92,4771.00              8025.35,4776.01 8023.78,4780.92 8024.09,4786.00              8024.71,4795.98 8027.97,4795.66 8028.00,4814.00              8028.02,4825.60 8030.78,4831.23 8031.83,4841.00              8031.83,4841.00 8033.24,4863.00 8033.24,4863.00              8033.24,4863.00 8033.24,4871.00 8033.24,4871.00              8033.24,4871.00 8034.00,4882.00 8034.00,4882.00              8034.00,4882.00 8034.00,4903.00 8034.00,4903.00              8034.00,4903.00 8032.08,4917.00 8032.08,4917.00              8032.08,4917.00 8032.08,4929.00 8032.08,4929.00              8032.08,4929.00 8033.04,4941.00 8033.04,4941.00              8033.04,4941.00 8033.04,4949.00 8033.04,4949.00              8033.84,4955.24 8034.96,4954.57 8035.00,4963.00              8035.00,4963.00 8034.14,4983.00 8034.14,4983.00              8034.14,4983.00 8034.14,4991.00 8034.14,4991.00              8034.14,4991.00 8034.14,5001.00 8034.14,5001.00              8034.14,5001.00 8032.00,5021.00 8032.00,5021.00              8032.00,5021.00 8031.09,5042.00 8031.09,5042.00              8031.09,5042.00 8034.00,5073.00 8034.00,5073.00              8034.00,5073.00 8033.00,5086.00 8033.00,5086.00              8032.90,5095.75 8034.80,5097.27 8034.82,5102.00              8034.82,5102.00 8034.00,5114.00 8034.00,5114.00              8034.00,5114.00 8034.00,5130.00 8034.00,5130.00              8034.00,5130.00 8035.00,5145.00 8035.00,5145.00              8035.00,5145.00 8034.00,5159.00 8034.00,5159.00              8034.00,5159.00 8036.99,5188.00 8036.99,5188.00              8036.78,5197.21 8035.73,5194.05 8036.26,5206.00              8036.26,5206.00 8036.26,5217.00 8036.26,5217.00              8036.26,5217.00 8036.82,5227.00 8036.82,5227.00              8036.82,5227.00 8036.00,5248.00 8036.00,5248.00              8036.00,5248.00 8034.04,5274.00 8034.04,5274.00              8034.04,5274.00 8035.06,5284.00 8035.06,5284.00              8035.06,5284.00 8035.06,5297.00 8035.06,5297.00              8035.06,5297.00 8035.06,5306.00 8035.06,5306.00              8034.69,5321.37 8032.66,5322.16 8032.09,5330.00              8032.09,5330.00 8032.91,5346.00 8032.91,5346.00              8032.91,5346.00 8030.30,5361.00 8030.30,5361.00              8030.30,5361.00 8029.70,5369.00 8029.70,5369.00              8029.70,5369.00 8023.20,5401.00 8023.20,5401.00              8021.22,5408.04 8022.87,5420.92 8018.00,5426.47              8014.11,5430.90 8000.13,5431.50 7994.00,5432.88              7994.00,5432.88 7964.00,5435.09 7964.00,5435.09              7964.00,5435.09 7946.00,5436.53 7946.00,5436.53              7946.00,5436.53 7938.00,5435.09 7938.00,5435.09              7938.00,5435.09 7922.00,5435.09 7922.00,5435.09              7922.00,5435.09 7907.00,5434.04 7907.00,5434.04              7900.26,5434.31 7900.41,5435.98 7890.00,5435.96              7890.00,5435.96 7876.00,5435.96 7876.00,5435.96              7871.73,5435.62 7869.80,5434.76 7865.00,5435.09              7865.00,5435.09 7847.00,5438.81 7847.00,5438.81              7847.00,5438.81 7829.00,5438.05 7829.00,5438.05              7829.00,5438.05 7811.00,5438.05 7811.00,5438.05              7811.00,5438.05 7797.00,5440.57 7797.00,5440.57              7797.00,5440.57 7786.00,5441.43 7786.00,5441.43              7776.17,5442.84 7768.08,5445.98 7758.00,5446.00              7758.00,5446.00 7742.00,5446.00 7742.00,5446.00              7742.00,5446.00 7710.00,5449.15 7710.00,5449.15              7710.00,5449.15 7686.00,5449.15 7686.00,5449.15              7680.25,5450.15 7677.73,5452.74 7665.00,5454.57              7665.00,5454.57 7645.00,5456.47 7645.00,5456.47              7645.00,5456.47 7634.00,5460.09 7634.00,5460.09              7634.00,5460.09 7612.00,5464.68 7612.00,5464.68              7612.00,5464.68 7590.00,5466.91 7590.00,5466.91              7590.00,5466.91 7581.00,5467.46 7581.00,5467.46              7581.00,5467.46 7557.00,5472.85 7557.00,5472.85              7557.00,5472.85 7547.00,5472.85 7547.00,5472.85              7547.00,5472.85 7531.00,5474.17 7531.00,5474.17              7531.00,5474.17 7504.00,5475.68 7504.00,5475.68              7504.00,5475.68 7484.00,5473.63 7484.00,5473.63              7484.00,5473.63 7476.00,5471.47 7476.00,5471.47              7476.00,5471.47 7459.00,5470.04 7459.00,5470.04              7459.00,5470.04 7440.00,5469.00 7440.00,5469.00              7440.00,5469.00 7427.00,5469.00 7427.00,5469.00              7427.00,5469.00 7412.00,5470.00 7412.00,5470.00              7412.00,5470.00 7383.00,5470.00 7383.00,5470.00              7383.00,5470.00 7361.00,5471.00 7361.00,5471.00              7361.00,5471.00 7315.00,5475.26 7315.00,5475.26              7315.00,5475.26 7299.00,5473.92 7299.00,5473.92              7299.00,5473.92 7274.00,5473.92 7274.00,5473.92              7274.00,5473.92 7262.00,5472.17 7262.00,5472.17              7262.00,5472.17 7237.00,5469.83 7237.00,5469.83              7237.00,5469.83 7229.00,5468.15 7229.00,5468.15              7229.00,5468.15 7216.00,5468.15 7216.00,5468.15              7205.16,5467.98 7203.56,5465.12 7194.00,5464.33              7194.00,5464.33 7180.00,5464.33 7180.00,5464.33              7157.24,5463.04 7161.66,5466.28 7149.00,5465.99              7149.00,5465.99 7132.00,5464.00 7132.00,5464.00              7132.00,5464.00 7100.00,5465.96 7100.00,5465.96              7100.00,5465.96 7083.00,5465.00 7083.00,5465.00              7083.00,5465.00 7040.00,5465.00 7040.00,5465.00              7040.00,5465.00 7025.00,5466.00 7025.00,5466.00              7025.00,5466.00 7008.00,5466.00 7008.00,5466.00              7008.00,5466.00 6993.00,5465.02 6993.00,5465.02              6993.00,5465.02 6982.00,5466.12 6982.00,5466.12              6982.00,5466.12 6968.00,5466.12 6968.00,5466.12              6968.00,5466.12 6940.00,5468.00 6940.00,5468.00              6940.00,5468.00 6927.00,5468.82 6927.00,5468.82              6927.00,5468.82 6916.00,5468.00 6916.00,5468.00              6916.00,5468.00 6867.00,5469.00 6867.00,5469.00              6867.00,5469.00 6844.00,5471.00 6844.00,5471.00              6844.00,5471.00 6819.00,5471.00 6819.00,5471.00              6819.00,5471.00 6805.00,5470.03 6805.00,5470.03              6805.00,5470.03 6796.00,5470.96 6796.00,5470.96              6796.00,5470.96 6786.00,5470.96 6786.00,5470.96              6786.00,5470.96 6769.00,5472.17 6769.00,5472.17              6769.00,5472.17 6759.00,5472.17 6759.00,5472.17              6752.81,5471.87 6747.26,5469.69 6741.00,5470.09              6741.00,5470.09 6721.00,5472.00 6721.00,5472.00              6721.00,5472.00 6713.00,5472.00 6713.00,5472.00              6713.00,5472.00 6704.00,5474.06 6704.00,5474.06              6704.00,5474.06 6695.00,5474.06 6695.00,5474.06              6695.00,5474.06 6688.00,5475.29 6688.00,5475.29              6688.00,5475.29 6681.00,5475.29 6681.00,5475.29              6671.39,5474.68 6667.06,5477.93 6661.00,5478.79              6661.00,5478.79 6646.00,5480.74 6646.00,5480.74              6646.00,5480.74 6639.00,5480.04 6639.00,5480.04              6639.00,5480.04 6628.00,5480.04 6628.00,5480.04              6619.35,5479.88 6610.17,5473.33 6597.00,5473.01              6586.68,5472.76 6586.54,5474.32 6582.00,5474.53              6582.00,5474.53 6573.00,5474.00 6573.00,5474.00              6573.00,5474.00 6554.00,5474.00 6554.00,5474.00              6554.00,5474.00 6532.00,5475.00 6532.00,5475.00              6532.00,5475.00 6507.00,5477.00 6507.00,5477.00              6507.00,5477.00 6495.00,5476.04 6495.00,5476.04              6495.00,5476.04 6479.00,5477.14 6479.00,5477.14              6479.00,5477.14 6453.00,5477.14 6453.00,5477.14              6453.00,5477.14 6441.00,5477.14 6441.00,5477.14              6441.00,5477.14 6418.00,5478.79 6418.00,5478.79              6418.00,5478.79 6405.00,5478.00 6405.00,5478.00              6405.00,5478.00 6395.00,5478.95 6395.00,5478.95              6395.00,5478.95 6383.00,5478.95 6383.00,5478.95              6383.00,5478.95 6365.00,5477.09 6365.00,5477.09              6365.00,5477.09 6358.00,5478.10 6358.00,5478.10              6358.00,5478.10 6349.00,5478.10 6349.00,5478.10              6349.00,5478.10 6337.00,5480.17 6337.00,5480.17              6337.00,5480.17 6329.00,5480.17 6329.00,5480.17              6329.00,5480.17 6318.00,5480.96 6318.00,5480.96              6318.00,5480.96 6293.00,5479.00 6293.00,5479.00              6293.00,5479.00 6277.00,5478.01 6277.00,5478.01              6277.00,5478.01 6249.00,5481.00 6249.00,5481.00              6249.00,5481.00 6227.00,5483.88 6227.00,5483.88              6223.07,5484.74 6215.69,5486.83 6212.00,5486.45              6212.00,5486.45 6205.00,5485.09 6205.00,5485.09              6205.00,5485.09 6194.00,5485.09 6194.00,5485.09              6194.00,5485.09 6178.00,5486.82 6178.00,5486.82              6178.00,5486.82 6167.00,5485.09 6167.00,5485.09              6157.19,5484.40 6153.39,5486.57 6149.00,5486.16              6149.00,5486.16 6142.00,5485.04 6142.00,5485.04              6142.00,5485.04 6125.00,5485.04 6125.00,5485.04              6125.00,5485.04 6092.00,5482.02 6092.00,5482.02              6092.00,5482.02 6078.00,5483.00 6078.00,5483.00              6078.00,5483.00 6061.00,5483.00 6061.00,5483.00              6061.00,5483.00 6047.00,5482.00 6047.00,5482.00              6047.00,5482.00 6021.00,5482.00 6021.00,5482.00              6021.00,5482.00 5991.00,5484.94 5991.00,5484.94              5991.00,5484.94 5967.00,5484.94 5967.00,5484.94              5967.00,5484.94 5921.00,5484.94 5921.00,5484.94              5921.00,5484.94 5909.00,5484.09 5909.00,5484.09              5909.00,5484.09 5900.00,5484.66 5900.00,5484.66              5900.00,5484.66 5892.00,5484.03 5892.00,5484.03              5892.00,5484.03 5878.00,5485.00 5878.00,5485.00              5878.00,5485.00 5856.00,5485.00 5856.00,5485.00              5856.00,5485.00 5817.00,5488.17 5817.00,5488.17              5817.00,5488.17 5808.00,5489.74 5808.00,5489.74              5808.00,5489.74 5796.00,5489.00 5796.00,5489.00              5796.00,5489.00 5750.00,5489.00 5750.00,5489.00              5750.00,5489.00 5728.00,5488.00 5728.00,5488.00              5720.55,5488.09 5720.54,5489.24 5715.00,5489.91              5715.00,5489.91 5697.00,5489.91 5697.00,5489.91              5697.00,5489.91 5682.00,5489.00 5682.00,5489.00              5682.00,5489.00 5666.00,5489.00 5666.00,5489.00              5666.00,5489.00 5650.00,5490.00 5650.00,5490.00              5650.00,5490.00 5628.00,5490.00 5628.00,5490.00              5628.00,5490.00 5609.00,5489.00 5609.00,5489.00              5609.00,5489.00 5598.00,5489.66 5598.00,5489.66              5598.00,5489.66 5587.00,5489.00 5587.00,5489.00              5587.00,5489.00 5568.00,5489.96 5568.00,5489.96              5562.09,5489.70 5559.44,5487.84 5553.00,5488.04              5553.00,5488.04 5533.00,5489.96 5533.00,5489.96              5533.00,5489.96 5520.00,5489.01 5520.00,5489.01              5520.00,5489.01 5503.00,5491.43 5503.00,5491.43              5503.00,5491.43 5475.00,5490.37 5475.00,5490.37              5475.00,5490.37 5455.00,5490.37 5455.00,5490.37              5455.00,5490.37 5433.00,5489.01 5433.00,5489.01              5433.00,5489.01 5421.00,5490.00 5421.00,5490.00              5408.01,5490.15 5410.74,5491.35 5403.00,5491.91              5396.86,5492.36 5392.78,5491.42 5387.00,5491.09              5387.00,5491.09 5376.00,5491.98 5376.00,5491.98              5376.00,5491.98 5359.00,5491.98 5359.00,5491.98              5359.00,5491.98 5346.00,5491.00 5346.00,5491.00              5346.00,5491.00 5326.00,5491.00 5326.00,5491.00              5326.00,5491.00 5314.00,5492.04 5314.00,5492.04              5314.00,5492.04 5304.00,5492.04 5304.00,5492.04              5296.90,5492.88 5296.96,5493.99 5288.00,5494.13              5288.00,5494.13 5269.00,5494.13 5269.00,5494.13              5265.10,5494.03 5263.58,5492.78 5257.00,5493.04              5257.00,5493.04 5244.00,5493.96 5244.00,5493.96              5244.00,5493.96 5231.00,5493.96 5231.00,5493.96              5227.13,5493.65 5225.29,5492.85 5221.00,5493.09              5221.00,5493.09 5198.00,5494.74 5198.00,5494.74              5193.31,5494.85 5190.38,5492.70 5184.00,5493.09              5184.00,5493.09 5173.00,5495.24 5173.00,5495.24              5173.00,5495.24 5167.00,5495.24 5167.00,5495.24              5167.00,5495.24 5158.00,5495.24 5158.00,5495.24              5158.00,5495.24 5149.00,5495.24 5149.00,5495.24              5149.00,5495.24 5138.00,5496.00 5138.00,5496.00              5138.00,5496.00 5115.00,5496.00 5115.00,5496.00              5115.00,5496.00 5106.00,5496.00 5106.00,5496.00              5106.00,5496.00 5067.00,5500.00 5067.00,5500.00              5067.00,5500.00 5046.00,5498.04 5046.00,5498.04              5046.00,5498.04 5025.00,5501.47 5025.00,5501.47              5025.00,5501.47 5012.00,5500.92 5012.00,5500.92              5012.00,5500.92 4993.00,5500.92 4993.00,5500.92              4987.28,5500.28 4983.05,5498.80 4977.00,5499.04              4977.00,5499.04 4960.00,5501.18 4960.00,5501.18              4960.00,5501.18 4935.00,5501.18 4935.00,5501.18              4924.95,5500.98 4927.81,5499.93 4920.00,5498.47              4920.00,5498.47 4901.00,5496.02 4901.00,5496.02              4891.58,5495.83 4890.54,5498.02 4885.00,5498.89              4885.00,5498.89 4868.00,5498.89 4868.00,5498.89              4868.00,5498.89 4849.00,5497.79 4849.00,5497.79              4849.00,5497.79 4841.00,5495.68 4841.00,5495.68              4841.00,5495.68 4829.00,5494.17 4829.00,5494.17              4829.00,5494.17 4806.00,5492.91 4806.00,5492.91              4806.00,5492.91 4786.00,5491.00 4786.00,5491.00              4778.42,5490.92 4770.46,5491.22 4763.00,5489.61              4758.26,5488.59 4755.42,5485.66 4746.00,5486.04              4746.00,5486.04 4735.00,5487.66 4735.00,5487.66              4735.00,5487.66 4720.00,5485.09 4720.00,5485.09              4720.00,5485.09 4700.00,5485.09 4700.00,5485.09              4696.70,5485.04 4675.92,5488.52 4673.00,5489.55              4673.00,5489.55 4662.00,5494.37 4662.00,5494.37              4657.98,5495.53 4642.54,5496.99 4638.00,5497.00              4638.00,5497.00 4623.00,5497.00 4623.00,5497.00              4616.15,5496.92 4609.91,5494.28 4603.00,5495.30              4595.00,5496.48 4592.19,5500.93 4582.00,5500.92              4573.73,5500.92 4561.27,5496.06 4551.00,5497.17              4551.00,5497.17 4540.00,5499.79 4540.00,5499.79              4540.00,5499.79 4528.00,5500.30 4528.00,5500.30              4528.00,5500.30 4513.00,5504.10 4513.00,5504.10              4513.00,5504.10 4504.00,5505.47 4504.00,5505.47              4504.00,5505.47 4490.00,5509.75 4490.00,5509.75              4490.00,5509.75 4476.00,5509.00 4476.00,5509.00              4476.00,5509.00 4448.00,5512.04 4448.00,5512.04              4448.00,5512.04 4436.00,5512.04 4436.00,5512.04              4432.69,5512.33 4429.03,5513.66 4426.00,5513.30              4421.01,5512.71 4419.66,5509.75 4408.00,5510.01              4408.00,5510.01 4392.00,5512.00 4392.00,5512.00              4392.00,5512.00 4368.00,5512.00 4368.00,5512.00              4368.00,5512.00 4349.00,5510.00 4349.00,5510.00              4329.91,5509.78 4334.80,5512.37 4326.00,5513.79              4326.00,5513.79 4298.00,5516.49 4298.00,5516.49              4292.69,5516.80 4290.67,5514.74 4283.00,5515.04              4283.00,5515.04 4275.00,5515.96 4275.00,5515.96              4275.00,5515.96 4261.00,5515.96 4261.00,5515.96              4261.00,5515.96 4240.00,5514.01 4240.00,5514.01              4240.00,5514.01 4226.00,5515.00 4226.00,5515.00              4226.00,5515.00 4195.00,5515.00 4195.00,5515.00              4195.00,5515.00 4183.00,5515.82 4183.00,5515.82              4183.00,5515.82 4172.00,5515.19 4172.00,5515.19              4172.00,5515.19 4158.00,5515.19 4158.00,5515.19              4154.04,5515.05 4154.04,5514.09 4147.00,5514.00              4142.67,5513.95 4136.06,5513.75 4132.00,5514.68              4124.59,5516.38 4124.97,5518.88 4116.00,5519.04              4116.00,5519.04 4103.00,5519.04 4103.00,5519.04              4103.00,5519.04 4093.00,5519.96 4093.00,5519.96              4093.00,5519.96 4082.00,5518.09 4082.00,5518.09              4082.00,5518.09 4067.00,5518.09 4067.00,5518.09              4067.00,5518.09 4052.00,5519.00 4052.00,5519.00              4052.00,5519.00 4034.00,5519.00 4034.00,5519.00              4024.07,5519.02 4026.01,5520.08 4019.00,5520.91              4019.00,5520.91 4001.00,5520.91 4001.00,5520.91              3992.56,5520.84 3992.76,5517.55 3986.00,5513.91              3981.56,5511.52 3976.99,5510.85 3972.00,5511.04              3972.00,5511.04 3954.00,5513.16 3954.00,5513.16              3942.19,5516.36 3948.75,5518.18 3933.00,5518.00              3933.00,5518.00 3909.00,5516.09 3909.00,5516.09              3905.18,5516.31 3903.45,5517.16 3899.00,5516.91              3894.77,5516.67 3892.97,5515.75 3888.00,5516.09              3882.45,5516.47 3881.37,5517.99 3874.00,5517.99              3874.00,5517.99 3864.00,5517.05 3864.00,5517.05              3864.00,5517.05 3852.00,5517.05 3852.00,5517.05              3852.00,5517.05 3837.00,5518.00 3837.00,5518.00              3837.00,5518.00 3788.00,5518.00 3788.00,5518.00              3788.00,5518.00 3771.00,5519.00 3771.00,5519.00              3771.00,5519.00 3743.00,5519.00 3743.00,5519.00              3743.00,5519.00 3721.00,5518.00 3721.00,5518.00              3721.00,5518.00 3708.00,5519.20 3708.00,5519.20              3708.00,5519.20 3697.00,5517.09 3697.00,5517.09              3697.00,5517.09 3687.00,5517.82 3687.00,5517.82              3687.00,5517.82 3679.00,5517.02 3679.00,5517.02              3679.00,5517.02 3660.00,5517.02 3660.00,5517.02              3660.00,5517.02 3645.00,5516.09 3645.00,5516.09              3645.00,5516.09 3633.00,5517.00 3633.00,5517.00              3633.00,5517.00 3615.00,5517.00 3615.00,5517.00              3615.00,5517.00 3589.00,5514.00 3589.00,5514.00              3589.00,5514.00 3574.00,5514.00 3574.00,5514.00              3574.00,5514.00 3558.00,5513.00 3558.00,5513.00              3549.94,5512.99 3547.07,5512.86 3539.00,5511.72              3539.00,5511.72 3530.00,5510.00 3530.00,5510.00              3530.00,5510.00 3520.00,5510.00 3520.00,5510.00              3520.00,5510.00 3490.00,5508.00 3490.00,5508.00              3490.00,5508.00 3475.00,5509.00 3475.00,5509.00              3475.00,5509.00 3456.00,5509.00 3456.00,5509.00              3456.00,5509.00 3444.00,5508.04 3444.00,5508.04              3439.06,5507.85 3427.84,5509.32 3423.00,5510.64              3418.32,5511.92 3415.02,5514.09 3410.00,5513.90              3402.25,5513.59 3397.14,5511.62 3390.00,5510.26              3390.00,5510.26 3361.00,5506.83 3361.00,5506.83              3354.23,5506.03 3354.97,5504.81 3346.00,5505.01              3338.17,5505.19 3336.54,5507.25 3332.00,5507.78              3332.00,5507.78 3318.00,5507.01 3318.00,5507.01              3318.00,5507.01 3290.00,5510.00 3290.00,5510.00              3290.00,5510.00 3279.00,5510.53 3279.00,5510.53              3275.37,5510.36 3272.69,5508.74 3267.00,5509.09              3267.00,5509.09 3258.00,5510.61 3258.00,5510.61              3258.00,5510.61 3245.00,5510.09 3245.00,5510.09              3245.00,5510.09 3231.00,5512.83 3231.00,5512.83              3231.00,5512.83 3210.00,5514.17 3210.00,5514.17              3210.00,5514.17 3202.00,5515.94 3202.00,5515.94              3202.00,5515.94 3191.00,5515.94 3191.00,5515.94              3185.30,5516.78 3184.28,5518.24 3177.00,5517.96              3177.00,5517.96 3158.00,5517.00 3158.00,5517.00              3158.00,5517.00 3124.00,5519.96 3124.00,5519.96              3124.00,5519.96 3113.00,5519.04 3113.00,5519.04              3113.00,5519.04 3093.00,5521.00 3093.00,5521.00              3093.00,5521.00 3079.00,5521.00 3079.00,5521.00              3079.00,5521.00 3054.00,5519.00 3054.00,5519.00              3054.00,5519.00 3016.00,5519.00 3016.00,5519.00              3016.00,5519.00 2985.00,5521.00 2985.00,5521.00              2985.00,5521.00 2973.00,5520.01 2973.00,5520.01              2973.00,5520.01 2958.00,5520.91 2958.00,5520.91              2958.00,5520.91 2942.00,5520.00 2942.00,5520.00              2942.00,5520.00 2933.00,5520.66 2933.00,5520.66              2933.00,5520.66 2924.00,5520.09 2924.00,5520.09              2924.00,5520.09 2916.00,5520.92 2916.00,5520.92              2916.00,5520.92 2904.00,5520.04 2904.00,5520.04              2904.00,5520.04 2881.00,5522.00 2881.00,5522.00              2881.00,5522.00 2835.00,5522.00 2835.00,5522.00              2835.00,5522.00 2812.00,5523.84 2812.00,5523.84              2812.00,5523.84 2783.00,5523.84 2783.00,5523.84              2783.00,5523.84 2756.00,5522.00 2756.00,5522.00              2756.00,5522.00 2726.00,5523.82 2726.00,5523.82              2726.00,5523.82 2718.00,5523.03 2718.00,5523.03              2718.00,5523.03 2709.00,5523.96 2709.00,5523.96              2709.00,5523.96 2698.00,5523.96 2698.00,5523.96              2698.00,5523.96 2680.00,5525.96 2680.00,5525.96              2680.00,5525.96 2667.00,5524.04 2667.00,5524.04              2667.00,5524.04 2641.00,5526.22 2641.00,5526.22              2635.14,5526.19 2634.85,5523.76 2624.00,5524.01              2624.00,5524.01 2610.00,5525.96 2610.00,5525.96              2610.00,5525.96 2598.00,5525.01 2598.00,5525.01              2598.00,5525.01 2566.00,5527.00 2566.00,5527.00              2566.00,5527.00 2553.00,5527.66 2553.00,5527.66              2553.00,5527.66 2542.00,5526.96 2542.00,5526.96              2542.00,5526.96 2531.00,5526.96 2531.00,5526.96              2531.00,5526.96 2520.00,5526.04 2520.00,5526.04              2520.00,5526.04 2509.00,5526.96 2509.00,5526.96              2509.00,5526.96 2498.00,5526.09 2498.00,5526.09              2498.00,5526.09 2486.00,5527.19 2486.00,5527.19              2486.00,5527.19 2477.00,5527.19 2477.00,5527.19              2477.00,5527.19 2449.00,5527.19 2449.00,5527.19              2441.97,5528.34 2439.53,5531.33 2436.00,5532.07              2436.00,5532.07 2423.00,5532.07 2423.00,5532.07              2423.00,5532.07 2398.00,5534.43 2398.00,5534.43              2398.00,5534.43 2383.00,5533.37 2383.00,5533.37              2374.64,5531.06 2373.97,5528.13 2363.00,5528.00              2363.00,5528.00 2359.00,5528.00 2359.00,5528.00              2352.03,5528.09 2350.78,5529.35 2347.00,5529.53              2347.00,5529.53 2336.00,5529.00 2336.00,5529.00              2336.00,5529.00 2309.00,5529.00 2309.00,5529.00              2309.00,5529.00 2297.00,5528.05 2297.00,5528.05              2297.00,5528.05 2283.00,5528.05 2283.00,5528.05              2275.39,5528.09 2274.70,5529.49 2269.00,5529.91              2269.00,5529.91 2248.00,5531.09 2248.00,5531.09              2248.00,5531.09 2239.00,5532.21 2239.00,5532.21              2239.00,5532.21 2220.00,5532.21 2220.00,5532.21              2220.00,5532.21 2205.00,5530.09 2205.00,5530.09              2205.00,5530.09 2190.00,5531.00 2190.00,5531.00              2178.23,5531.05 2179.13,5529.33 2172.00,5529.11              2172.00,5529.11 2165.00,5529.11 2165.00,5529.11              2165.00,5529.11 2155.00,5529.11 2155.00,5529.11              2155.00,5529.11 2138.00,5530.00 2138.00,5530.00              2138.00,5530.00 2108.00,5528.00 2108.00,5528.00              2108.00,5528.00 2088.00,5528.00 2088.00,5528.00              2088.00,5528.00 2078.00,5528.66 2078.00,5528.66              2078.00,5528.66 2069.00,5528.00 2069.00,5528.00              2069.00,5528.00 2004.00,5528.00 2004.00,5528.00              2004.00,5528.00 1960.00,5523.00 1960.00,5523.00              1960.00,5523.00 1944.00,5523.00 1944.00,5523.00              1944.00,5523.00 1927.00,5523.96 1927.00,5523.96              1927.00,5523.96 1909.00,5522.70 1909.00,5522.70              1902.91,5521.83 1903.25,5521.03 1896.00,5521.00              1878.48,5520.92 1881.71,5518.80 1872.00,5518.09              1865.33,5517.60 1862.43,5518.84 1859.00,5518.82              1859.00,5518.82 1841.00,5516.79 1841.00,5516.79              1841.00,5516.79 1834.00,5514.92 1834.00,5514.92              1827.95,5513.29 1817.07,5510.79 1811.00,5511.04              1811.00,5511.04 1801.00,5512.50 1801.00,5512.50              1797.44,5512.70 1794.03,5511.33 1788.00,5512.50              1779.68,5514.04 1778.92,5517.33 1766.00,5517.90              1766.00,5517.90 1731.00,5514.00 1731.00,5514.00              1731.00,5514.00 1715.00,5515.00 1715.00,5515.00              1715.00,5515.00 1699.00,5516.00 1699.00,5516.00              1699.00,5516.00 1680.00,5517.83 1680.00,5517.83              1680.00,5517.83 1655.00,5519.90 1655.00,5519.90              1655.00,5519.90 1643.00,5519.00 1643.00,5519.00              1627.50,5518.82 1629.60,5521.87 1619.00,5522.00              1619.00,5522.00 1579.00,5524.00 1579.00,5524.00              1569.07,5524.02 1571.01,5525.08 1564.00,5525.92              1564.00,5525.92 1555.00,5525.92 1555.00,5525.92              1546.53,5526.10 1544.64,5528.12 1538.00,5528.92              1538.00,5528.92 1519.00,5528.92 1519.00,5528.92              1519.00,5528.92 1504.00,5530.00 1504.00,5530.00              1504.00,5530.00 1490.00,5530.00 1490.00,5530.00              1490.00,5530.00 1474.00,5531.00 1474.00,5531.00              1474.00,5531.00 1451.00,5531.00 1451.00,5531.00              1451.00,5531.00 1422.00,5528.00 1422.00,5528.00              1422.00,5528.00 1388.00,5528.00 1388.00,5528.00              1388.00,5528.00 1373.00,5529.23 1373.00,5529.23              1369.66,5529.04 1366.30,5528.84 1363.00,5529.23              1356.23,5530.74 1350.05,5534.91 1336.00,5535.91              1336.00,5535.91 1325.00,5536.66 1325.00,5536.66              1325.00,5536.66 1316.00,5536.00 1316.00,5536.00              1316.00,5536.00 1294.00,5538.15 1294.00,5538.15              1294.00,5538.15 1262.00,5538.15 1262.00,5538.15              1262.00,5538.15 1253.00,5538.15 1253.00,5538.15              1253.00,5538.15 1234.00,5539.00 1234.00,5539.00              1234.00,5539.00 1216.00,5538.00 1216.00,5538.00              1216.00,5538.00 1203.00,5537.04 1203.00,5537.04              1196.85,5537.25 1195.97,5538.96 1187.00,5539.00              1187.00,5539.00 1165.00,5539.00 1165.00,5539.00              1165.00,5539.00 1148.00,5540.00 1148.00,5540.00              1148.00,5540.00 1121.00,5540.00 1121.00,5540.00              1121.00,5540.00 1106.00,5539.00 1106.00,5539.00              1106.00,5539.00 1081.00,5541.22 1081.00,5541.22              1075.53,5541.20 1073.64,5538.70 1065.00,5539.04              1065.00,5539.04 1056.00,5539.92 1056.00,5539.92              1056.00,5539.92 1043.00,5539.04 1043.00,5539.04              1043.00,5539.04 1028.00,5541.10 1028.00,5541.10              1028.00,5541.10 1017.00,5541.10 1017.00,5541.10              1017.00,5541.10 1006.00,5542.08 1006.00,5542.08              1006.00,5542.08 994.00,5542.08 994.00,5542.08              994.00,5542.08 985.00,5543.62 985.00,5543.62              980.50,5543.47 979.60,5541.02 968.00,5541.00              968.00,5541.00 963.00,5541.00 963.00,5541.00              963.00,5541.00 953.00,5541.82 953.00,5541.82              953.00,5541.82 943.00,5540.96 943.00,5540.96              943.00,5540.96 932.00,5540.96 932.00,5540.96              932.00,5540.96 920.00,5540.00 920.00,5540.00              920.00,5540.00 889.00,5540.00 889.00,5540.00              880.77,5540.01 871.09,5541.91 863.00,5543.67              863.00,5543.67 854.00,5545.83 854.00,5545.83              854.00,5545.83 832.00,5548.29 832.00,5548.29              824.60,5549.44 821.11,5550.96 813.00,5551.00              813.00,5551.00 797.00,5551.00 797.00,5551.00              797.00,5551.00 781.00,5552.00 781.00,5552.00              781.00,5552.00 754.00,5549.09 754.00,5549.09              754.00,5549.09 736.00,5550.96 736.00,5550.96              736.00,5550.96 722.00,5550.96 722.00,5550.96              722.00,5550.96 709.00,5550.01 709.00,5550.01              709.00,5550.01 700.00,5550.96 700.00,5550.96              700.00,5550.96 683.00,5550.96 683.00,5550.96              683.00,5550.96 664.00,5552.96 664.00,5552.96              664.00,5552.96 651.00,5552.00 651.00,5552.00              651.00,5552.00 641.00,5552.00 641.00,5552.00              641.00,5552.00 615.00,5554.08 615.00,5554.08              615.00,5554.08 602.00,5554.08 602.00,5554.08              602.00,5554.08 587.00,5556.00 587.00,5556.00              587.00,5556.00 571.00,5556.00 571.00,5556.00              571.00,5556.00 538.00,5560.00 538.00,5560.00              538.00,5560.00 530.00,5560.00 530.00,5560.00              530.00,5560.00 518.00,5562.04 518.00,5562.04              518.00,5562.04 508.00,5562.04 508.00,5562.04              508.00,5562.04 472.00,5566.83 472.00,5566.83              472.00,5566.83 454.00,5568.09 454.00,5568.09              454.00,5568.09 442.00,5569.00 442.00,5569.00              442.00,5569.00 392.00,5569.00 392.00,5569.00              392.00,5569.00 365.00,5573.00 365.00,5573.00              365.00,5573.00 357.00,5573.00 357.00,5573.00              357.00,5573.00 348.00,5573.97 348.00,5573.97              348.00,5573.97 339.00,5573.04 339.00,5573.04              339.00,5573.04 327.00,5573.04 327.00,5573.04              317.07,5573.02 319.01,5574.08 312.00,5574.92              312.00,5574.92 302.00,5574.92 302.00,5574.92              302.00,5574.92 270.00,5577.61 270.00,5577.61              270.00,5577.61 240.00,5583.08 240.00,5583.08              240.00,5583.08 230.00,5583.08 230.00,5583.08              230.00,5583.08 213.00,5585.00 213.00,5585.00              213.00,5585.00 196.00,5585.00 196.00,5585.00              188.24,5585.01 183.67,5585.67 177.00,5590.10              173.17,5592.65 169.76,5596.70 166.00,5598.30              161.88,5600.05 157.34,5599.75 153.00,5600.17              153.00,5600.17 141.00,5601.30 141.00,5601.30              141.00,5601.30 132.00,5602.90 132.00,5602.90              121.77,5603.39 115.55,5598.00 107.00,5594.34              107.00,5594.34 92.00,5588.93 92.00,5588.93              81.66,5586.14 77.30,5590.16 68.00,5591.00              68.00,5591.00 67.00,5581.00 67.00,5581.00              67.00,5581.00 87.00,5578.28 87.00,5578.28              87.00,5578.28 111.00,5575.54 111.00,5575.54              120.09,5573.73 117.20,5572.02 129.00,5572.00              129.00,5572.00 150.00,5572.00 150.00,5572.00              150.00,5572.00 162.00,5571.00 162.00,5571.00              162.00,5571.00 181.00,5571.00 181.00,5571.00              183.57,5571.03 194.46,5569.89 197.00,5569.32              197.00,5569.32 204.00,5567.37 204.00,5567.37              204.00,5567.37 224.00,5566.00 224.00,5566.00              233.62,5565.99 242.41,5566.13 252.00,5564.70              252.00,5564.70 266.00,5561.44 266.00,5561.44              272.28,5560.45 276.57,5561.82 283.00,5559.44              303.58,5551.83 307.63,5524.34 289.00,5512.11              278.38,5505.13 264.03,5508.98 252.00,5509.00              252.00,5509.00 217.00,5510.68 217.00,5510.68              198.05,5509.26 203.62,5511.31 194.00,5511.21              194.00,5511.21 176.00,5511.21 176.00,5511.21              176.00,5511.21 161.00,5510.00 161.00,5510.00              161.00,5510.00 140.00,5511.00 140.00,5511.00              140.00,5511.00 122.00,5511.00 122.00,5511.00              122.00,5511.00 90.00,5513.00 90.00,5513.00              90.00,5513.00 59.00,5513.00 59.00,5513.00 Z"
            style="fill:#000000;fill-opacity:1"/>
</svg>
