<?xml version="1.0" encoding="UTF-8" standalone="no"?>
<svg
        width="172.107mm"
        height="121.37mm"
        viewBox="0 0 8131 5734"
        version="1.1"
        id="svg5254"
        sodipodi:docname="sheet5a.svg"
        inkscape:version="1.1.1 (3bf5ae0d25, 2021-09-20)"
        xmlns:inkscape="http://www.inkscape.org/namespaces/inkscape"
        xmlns:sodipodi="http://sodipodi.sourceforge.net/DTD/sodipodi-0.dtd"
        xmlns="http://www.w3.org/2000/svg"
>
    <defs
            id="defs5258"/>
    <sodipodi:namedview
            id="namedview5256"
            pagecolor="#ffffff"
            bordercolor="#666666"
            borderopacity="1.0"
            inkscape:pageshadow="2"
            inkscape:pageopacity="0.0"
            inkscape:pagecheckerboard="0"
            inkscape:document-units="mm"
            showgrid="false"
            inkscape:zoom="1.7287186"
            inkscape:cx="325.38552"
            inkscape:cy="229.36064"
            inkscape:window-width="1920"
            inkscape:window-height="1001"
            inkscape:window-x="-7"
            inkscape:window-y="-7"
            inkscape:window-maximized="1"
            inkscape:current-layer="svg5254"/>
    <path
            id="Selection #3"
            fill="none"
            stroke="black"
            stroke-width="1"
            d="M 7887.00,53.44            C 7897.32,52.21 7901.89,57.49 7911.00,60.94              7918.96,63.94 7924.77,63.89 7933.00,64.00              7941.56,64.12 7940.93,66.13 7948.00,68.07              7951.91,69.15 7955.51,68.92 7958.91,71.51              7963.27,74.83 7964.74,80.77 7974.00,86.53              7974.00,86.53 7985.99,93.61 7985.99,93.61              7989.91,96.60 7991.61,99.64 7995.04,102.90              7995.04,102.90 8003.91,110.10 8003.91,110.10              8011.45,117.45 8018.20,125.83 8024.80,134.00              8030.38,140.90 8036.41,145.76 8040.37,154.00              8040.37,154.00 8048.59,188.00 8048.59,188.00              8048.59,188.00 8055.22,204.00 8055.22,204.00              8057.80,212.72 8057.90,222.99 8058.00,232.00              8058.09,239.45 8059.24,239.46 8060.06,245.00              8060.06,245.00 8060.06,257.00 8060.06,257.00              8060.06,257.00 8061.83,265.00 8061.83,265.00              8061.83,265.00 8062.44,273.00 8062.44,273.00              8062.44,273.00 8065.83,294.00 8065.83,294.00              8065.83,294.00 8067.00,323.00 8067.00,323.00              8067.00,323.00 8066.00,347.00 8066.00,347.00              8066.00,347.00 8068.00,377.00 8068.00,377.00              8068.00,377.00 8067.04,387.00 8067.04,387.00              8067.04,387.00 8067.04,404.00 8067.04,404.00              8067.04,404.00 8066.01,420.00 8066.01,420.00              8066.01,420.00 8067.00,435.00 8067.00,435.00              8067.00,435.00 8066.01,450.00 8066.01,450.00              8066.01,450.00 8067.00,462.00 8067.00,462.00              8067.00,462.00 8067.00,480.00 8067.00,480.00              8066.89,489.21 8063.72,493.42 8064.18,500.00              8064.18,500.00 8065.91,516.00 8065.91,516.00              8065.91,516.00 8065.18,528.00 8065.18,528.00              8065.18,528.00 8066.96,543.00 8066.96,543.00              8066.96,543.00 8066.96,560.00 8066.96,560.00              8066.96,560.00 8068.00,577.00 8068.00,577.00              8068.00,577.00 8068.00,597.00 8068.00,597.00              8068.00,597.00 8067.00,613.00 8067.00,613.00              8067.00,613.00 8067.00,633.00 8067.00,633.00              8067.00,633.00 8066.04,647.00 8066.04,647.00              8066.04,647.00 8067.99,666.00 8067.99,666.00              8067.99,666.00 8067.00,681.00 8067.00,681.00              8067.00,681.00 8067.00,697.00 8067.00,697.00              8067.00,697.00 8066.09,712.00 8066.09,712.00              8066.44,718.00 8067.96,719.30 8068.00,728.00              8068.00,728.00 8068.00,762.00 8068.00,762.00              8068.00,762.00 8068.99,779.00 8068.99,779.00              8068.99,779.00 8067.09,804.00 8067.09,804.00              8067.09,804.00 8067.96,815.00 8067.96,815.00              8067.96,815.00 8067.02,827.00 8067.02,827.00              8067.02,827.00 8068.00,839.00 8068.00,839.00              8068.00,839.00 8068.00,852.00 8068.00,852.00              8068.00,852.00 8068.89,868.00 8068.89,868.00              8068.89,868.00 8068.89,884.00 8068.89,884.00              8068.89,884.00 8068.89,902.00 8068.89,902.00              8068.89,902.00 8068.09,914.00 8068.09,914.00              8068.09,914.00 8069.91,929.00 8069.91,929.00              8069.91,929.00 8069.91,944.00 8069.91,944.00              8069.91,944.00 8068.04,958.00 8068.04,958.00              8068.04,958.00 8068.04,968.00 8068.04,968.00              8068.04,968.00 8067.00,983.00 8067.00,983.00              8067.00,983.00 8068.00,1001.00 8068.00,1001.00              8068.00,1001.00 8067.09,1014.00 8067.09,1014.00              8067.09,1014.00 8067.96,1028.00 8067.96,1028.00              8067.96,1028.00 8067.08,1037.00 8067.08,1037.00              8067.08,1037.00 8067.98,1049.00 8067.98,1049.00              8067.98,1049.00 8066.85,1061.00 8066.85,1061.00              8066.85,1061.00 8066.85,1077.00 8066.85,1077.00              8066.85,1077.00 8064.10,1089.00 8064.10,1089.00              8063.51,1097.59 8067.89,1103.07 8067.92,1110.00              8067.92,1110.00 8064.49,1133.00 8064.49,1133.00              8063.62,1137.04 8062.39,1139.57 8062.09,1144.00              8061.61,1151.00 8063.60,1154.55 8064.99,1161.00              8064.99,1161.00 8069.47,1189.00 8069.47,1189.00              8069.47,1189.00 8068.09,1198.00 8068.09,1198.00              8068.09,1198.00 8069.00,1217.00 8069.00,1217.00              8069.00,1217.00 8067.21,1231.00 8067.21,1231.00              8067.21,1231.00 8068.00,1247.00 8068.00,1247.00              8068.00,1247.00 8067.04,1261.00 8067.04,1261.00              8067.04,1261.00 8069.00,1284.00 8069.00,1284.00              8069.00,1284.00 8069.00,1299.00 8069.00,1299.00              8069.00,1299.00 8068.18,1311.00 8068.18,1311.00              8068.18,1311.00 8070.49,1335.00 8070.49,1335.00              8070.49,1335.00 8069.04,1348.00 8069.04,1348.00              8069.04,1348.00 8069.04,1365.00 8069.04,1365.00              8069.04,1365.00 8067.18,1385.00 8067.18,1385.00              8067.18,1385.00 8069.00,1398.00 8069.00,1398.00              8069.00,1398.00 8069.00,1411.00 8069.00,1411.00              8070.03,1419.59 8071.02,1417.99 8071.00,1429.00              8071.00,1429.00 8070.04,1441.00 8070.04,1441.00              8070.04,1441.00 8070.04,1454.00 8070.04,1454.00              8070.04,1454.00 8069.09,1468.00 8069.09,1468.00              8069.09,1468.00 8069.96,1482.00 8069.96,1482.00              8069.96,1482.00 8068.19,1507.00 8068.19,1507.00              8068.78,1514.18 8070.98,1514.44 8071.00,1526.00              8071.00,1526.00 8071.00,1576.00 8071.00,1576.00              8071.00,1576.00 8070.13,1593.00 8070.13,1593.00              8070.13,1593.00 8070.13,1619.00 8070.13,1619.00              8070.13,1619.00 8068.37,1638.00 8068.37,1638.00              8068.37,1638.00 8069.00,1653.00 8069.00,1653.00              8069.00,1653.00 8070.96,1674.00 8070.96,1674.00              8070.96,1674.00 8070.09,1685.00 8070.09,1685.00              8070.36,1689.79 8071.21,1691.12 8070.96,1697.00              8070.96,1697.00 8070.00,1710.00 8070.00,1710.00              8070.00,1710.00 8070.00,1756.00 8070.00,1756.00              8070.00,1756.00 8071.00,1773.00 8071.00,1773.00              8071.00,1773.00 8071.00,1805.00 8071.00,1805.00              8071.00,1805.00 8069.08,1826.00 8069.08,1826.00              8069.08,1826.00 8071.00,1850.00 8071.00,1850.00              8071.00,1850.00 8071.00,1884.00 8071.00,1884.00              8071.00,1884.00 8071.82,1896.00 8071.82,1896.00              8071.82,1896.00 8071.00,1905.00 8071.00,1905.00              8071.00,1905.00 8071.99,1921.00 8071.99,1921.00              8071.99,1921.00 8071.09,1931.00 8071.09,1931.00              8071.09,1931.00 8071.92,1942.00 8071.92,1942.00              8071.92,1942.00 8071.00,1956.00 8071.00,1956.00              8071.00,1956.00 8072.24,1975.00 8072.24,1975.00              8072.24,1975.00 8072.24,1998.00 8072.24,1998.00              8072.24,1998.00 8071.00,2012.00 8071.00,2012.00              8071.00,2012.00 8071.68,2034.00 8071.68,2034.00              8071.68,2034.00 8069.02,2056.00 8069.02,2056.00              8068.82,2065.77 8071.23,2065.11 8070.99,2076.00              8070.99,2076.00 8070.00,2088.00 8070.00,2088.00              8070.00,2088.00 8070.00,2114.00 8070.00,2114.00              8069.96,2122.67 8068.64,2123.34 8067.44,2131.00              8067.44,2131.00 8065.96,2151.00 8065.96,2151.00              8065.96,2151.00 8065.96,2160.00 8065.96,2160.00              8065.65,2163.87 8064.85,2165.71 8065.09,2170.00              8065.09,2170.00 8066.00,2189.00 8066.00,2189.00              8066.13,2199.79 8070.97,2203.61 8071.00,2222.00              8071.00,2222.00 8072.09,2247.00 8072.09,2247.00              8072.09,2247.00 8072.97,2256.00 8072.97,2256.00              8072.97,2256.00 8070.96,2278.00 8070.96,2278.00              8070.96,2278.00 8070.96,2291.00 8070.96,2291.00              8070.57,2295.95 8069.79,2297.10 8070.04,2303.00              8070.04,2303.00 8071.91,2318.00 8071.91,2318.00              8071.91,2318.00 8071.91,2334.00 8071.91,2334.00              8071.91,2334.00 8071.00,2349.00 8071.00,2349.00              8071.00,2349.00 8071.00,2364.00 8071.00,2364.00              8071.00,2364.00 8072.00,2380.00 8072.00,2380.00              8072.00,2380.00 8072.00,2407.00 8072.00,2407.00              8072.00,2407.00 8071.03,2421.00 8071.03,2421.00              8071.03,2421.00 8072.08,2433.00 8072.08,2433.00              8072.08,2433.00 8072.08,2445.00 8072.08,2445.00              8073.14,2454.71 8074.14,2452.81 8074.00,2465.00              8074.00,2465.00 8073.00,2480.00 8073.00,2480.00              8073.00,2480.00 8073.00,2521.00 8073.00,2521.00              8073.00,2521.00 8074.00,2534.00 8074.00,2534.00              8074.00,2534.00 8074.00,2582.00 8074.00,2582.00              8074.00,2582.00 8075.00,2601.00 8075.00,2601.00              8075.00,2601.00 8073.00,2630.00 8073.00,2630.00              8073.00,2630.00 8073.00,2646.00 8073.00,2646.00              8073.00,2646.00 8073.82,2659.00 8073.82,2659.00              8073.82,2659.00 8072.09,2675.00 8072.09,2675.00              8072.09,2675.00 8073.99,2689.00 8073.99,2689.00              8073.99,2689.00 8072.32,2711.00 8072.32,2711.00              8073.29,2723.93 8070.68,2724.63 8071.04,2734.00              8071.04,2734.00 8072.00,2748.00 8072.00,2748.00              8072.00,2748.00 8071.09,2761.00 8071.09,2761.00              8071.09,2761.00 8073.99,2795.00 8073.99,2795.00              8073.99,2795.00 8073.00,2808.00 8073.00,2808.00              8073.00,2808.00 8073.00,2838.00 8073.00,2838.00              8073.00,2838.00 8071.32,2859.00 8071.32,2859.00              8071.32,2859.00 8073.00,2878.00 8073.00,2878.00              8073.00,2878.00 8073.00,2933.00 8073.00,2933.00              8073.00,2933.00 8072.04,2947.00 8072.04,2947.00              8072.04,2947.00 8074.00,2972.00 8074.00,2972.00              8074.00,2972.00 8074.00,3002.00 8074.00,3002.00              8074.00,3002.00 8072.09,3026.00 8072.09,3026.00              8072.09,3026.00 8074.82,3054.00 8074.82,3054.00              8074.33,3060.44 8073.01,3060.46 8073.04,3070.00              8073.04,3070.00 8073.04,3083.00 8073.04,3083.00              8073.35,3086.87 8074.15,3088.71 8073.91,3093.00              8073.91,3093.00 8072.18,3117.00 8072.18,3117.00              8071.83,3121.92 8073.34,3124.46 8073.83,3129.00              8073.83,3129.00 8074.82,3153.00 8074.82,3153.00              8074.82,3153.00 8073.04,3165.00 8073.04,3165.00              8073.04,3165.00 8073.99,3178.00 8073.99,3178.00              8073.99,3178.00 8073.05,3188.00 8073.05,3188.00              8073.05,3188.00 8073.05,3200.00 8073.05,3200.00              8073.05,3200.00 8074.00,3214.00 8074.00,3214.00              8074.00,3214.00 8074.00,3239.00 8074.00,3239.00              8074.00,3239.00 8072.08,3259.00 8072.08,3259.00              8072.08,3259.00 8072.96,3266.00 8072.96,3266.00              8072.96,3266.00 8072.96,3274.00 8072.96,3274.00              8072.96,3274.00 8074.00,3286.00 8074.00,3286.00              8074.00,3286.00 8074.00,3313.00 8074.00,3313.00              8074.00,3313.00 8074.99,3327.00 8074.99,3327.00              8074.99,3327.00 8073.21,3350.00 8073.21,3350.00              8073.21,3350.00 8073.98,3359.00 8073.98,3359.00              8073.98,3359.00 8073.98,3373.00 8073.98,3373.00              8073.98,3373.00 8074.91,3386.00 8074.91,3386.00              8074.91,3386.00 8073.04,3406.00 8073.04,3406.00              8073.04,3406.00 8074.00,3421.00 8074.00,3421.00              8074.00,3421.00 8073.04,3438.00 8073.04,3438.00              8073.04,3438.00 8076.00,3466.00 8076.00,3466.00              8076.00,3466.00 8076.00,3488.00 8076.00,3488.00              8076.00,3488.00 8077.00,3511.00 8077.00,3511.00              8077.00,3511.00 8074.02,3539.00 8074.02,3539.00              8074.17,3547.15 8076.17,3547.84 8076.00,3563.00              8076.00,3563.00 8074.12,3594.00 8074.12,3594.00              8074.12,3594.00 8074.12,3606.00 8074.12,3606.00              8074.12,3606.00 8073.04,3616.00 8073.04,3616.00              8073.04,3616.00 8074.00,3633.00 8074.00,3633.00              8074.00,3633.00 8073.18,3645.00 8073.18,3645.00              8073.18,3645.00 8075.91,3662.00 8075.91,3662.00              8075.91,3662.00 8074.18,3684.00 8074.18,3684.00              8074.18,3684.00 8076.00,3705.00 8076.00,3705.00              8076.00,3705.00 8076.00,3720.00 8076.00,3720.00              8076.00,3720.00 8076.99,3735.00 8076.99,3735.00              8076.99,3735.00 8075.18,3761.00 8075.18,3761.00              8075.18,3761.00 8075.96,3772.00 8075.96,3772.00              8075.96,3772.00 8075.96,3787.00 8075.96,3787.00              8075.96,3787.00 8075.00,3799.00 8075.00,3799.00              8075.00,3799.00 8075.00,3814.00 8075.00,3814.00              8075.00,3814.00 8076.00,3830.00 8076.00,3830.00              8076.00,3830.00 8075.04,3841.00 8075.04,3841.00              8075.04,3841.00 8076.00,3854.00 8076.00,3854.00              8076.00,3854.00 8075.00,3874.00 8075.00,3874.00              8075.00,3874.00 8074.00,3888.00 8074.00,3888.00              8074.00,3888.00 8074.00,3913.00 8074.00,3913.00              8074.13,3923.65 8077.43,3930.39 8077.91,3937.00              8077.91,3937.00 8076.00,3969.00 8076.00,3969.00              8076.00,3969.00 8076.00,3993.00 8076.00,3993.00              8076.00,3993.00 8074.09,4016.00 8074.09,4016.00              8074.09,4016.00 8075.00,4033.00 8075.00,4033.00              8075.00,4033.00 8074.09,4046.00 8074.09,4046.00              8074.09,4046.00 8077.00,4079.00 8077.00,4079.00              8077.00,4079.00 8077.00,4093.00 8077.00,4093.00              8077.00,4093.00 8076.00,4108.00 8076.00,4108.00              8076.00,4108.00 8076.96,4122.00 8076.96,4122.00              8076.49,4133.54 8070.80,4135.38 8071.00,4153.00              8071.16,4166.74 8076.97,4165.92 8077.00,4184.00              8077.00,4184.00 8077.00,4197.00 8077.00,4197.00              8077.00,4197.00 8078.00,4213.00 8078.00,4213.00              8078.00,4213.00 8077.04,4223.00 8077.04,4223.00              8077.04,4223.00 8077.04,4239.00 8077.04,4239.00              8076.87,4249.40 8073.59,4251.33 8070.75,4260.00              8070.75,4260.00 8067.18,4283.00 8067.18,4283.00              8067.19,4286.66 8070.12,4296.80 8071.12,4301.00              8073.86,4312.58 8077.98,4330.38 8078.00,4342.00              8078.00,4342.00 8078.00,4365.00 8078.00,4365.00              8078.00,4365.00 8079.00,4380.00 8079.00,4380.00              8079.00,4380.00 8079.00,4397.00 8079.00,4397.00              8079.00,4397.00 8078.00,4415.00 8078.00,4415.00              8078.00,4415.00 8076.00,4441.00 8076.00,4441.00              8076.00,4441.00 8076.00,4459.00 8076.00,4459.00              8076.00,4459.00 8077.00,4476.00 8077.00,4476.00              8077.00,4476.00 8076.00,4491.00 8076.00,4491.00              8076.00,4491.00 8076.00,4523.00 8076.00,4523.00              8076.00,4523.00 8074.19,4548.00 8074.19,4548.00              8074.73,4554.62 8077.38,4557.01 8076.96,4567.00              8076.96,4567.00 8074.18,4587.00 8074.18,4587.00              8074.18,4587.00 8076.00,4606.00 8076.00,4606.00              8076.00,4606.00 8077.00,4624.00 8077.00,4624.00              8077.00,4624.00 8077.00,4648.00 8077.00,4648.00              8077.00,4648.00 8075.18,4666.00 8075.18,4666.00              8075.18,4666.00 8075.96,4677.00 8075.96,4677.00              8075.96,4677.00 8075.04,4690.00 8075.04,4690.00              8075.04,4690.00 8077.00,4715.00 8077.00,4715.00              8077.00,4715.00 8077.00,4747.00 8077.00,4747.00              8077.00,4747.00 8075.09,4769.00 8075.09,4769.00              8075.09,4769.00 8074.04,4787.00 8074.04,4787.00              8074.04,4787.00 8074.82,4795.00 8074.82,4795.00              8074.82,4795.00 8074.00,4808.00 8074.00,4808.00              8074.07,4814.11 8075.01,4815.61 8075.71,4821.00              8075.71,4821.00 8076.99,4842.00 8076.99,4842.00              8076.99,4842.00 8076.01,4854.00 8076.01,4854.00              8076.01,4854.00 8077.00,4867.00 8077.00,4867.00              8077.00,4867.00 8075.70,4890.00 8075.70,4890.00              8075.70,4890.00 8074.00,4898.00 8074.00,4898.00              8074.00,4898.00 8074.00,4906.00 8074.00,4906.00              8073.23,4911.54 8072.09,4911.55 8072.00,4919.00              8071.77,4939.03 8074.94,4935.44 8076.85,4949.00              8076.85,4949.00 8076.85,4970.00 8076.85,4970.00              8076.85,4970.00 8075.08,4985.00 8075.08,4985.00              8075.08,4985.00 8075.96,4993.00 8075.96,4993.00              8075.96,4993.00 8075.96,5004.00 8075.96,5004.00              8075.96,5004.00 8077.00,5020.00 8077.00,5020.00              8077.00,5020.00 8076.01,5037.00 8076.01,5037.00              8076.01,5037.00 8076.96,5051.00 8076.96,5051.00              8076.96,5051.00 8073.84,5080.00 8073.84,5080.00              8073.84,5080.00 8073.08,5087.00 8073.08,5087.00              8073.09,5094.92 8077.38,5099.69 8076.91,5108.00              8076.69,5111.81 8075.84,5113.54 8076.09,5118.00              8076.09,5118.00 8076.99,5130.00 8076.99,5130.00              8076.99,5130.00 8074.19,5156.00 8074.19,5156.00              8074.19,5156.00 8075.83,5165.00 8075.83,5165.00              8075.83,5165.00 8076.99,5190.00 8076.99,5190.00              8076.90,5193.89 8075.32,5204.45 8074.04,5208.00              8071.66,5214.62 8067.51,5219.00 8068.19,5227.00              8068.77,5234.00 8072.06,5237.31 8074.04,5243.00              8075.37,5246.82 8074.77,5250.07 8075.46,5254.00              8075.46,5254.00 8078.40,5269.00 8078.40,5269.00              8079.05,5282.34 8075.34,5292.88 8075.04,5302.00              8075.04,5302.00 8076.41,5316.00 8076.41,5316.00              8076.41,5316.00 8075.04,5330.00 8075.04,5330.00              8075.04,5330.00 8075.92,5341.00 8075.92,5341.00              8075.89,5347.00 8072.51,5352.13 8072.09,5359.00              8072.09,5359.00 8073.96,5375.00 8073.96,5375.00              8074.43,5387.08 8068.79,5388.93 8067.30,5399.00              8066.06,5407.42 8068.99,5415.56 8069.00,5424.00              8069.00,5424.00 8069.54,5439.00 8069.54,5439.00              8069.40,5443.03 8067.79,5446.25 8068.19,5451.00              8068.19,5451.00 8070.68,5462.00 8070.68,5462.00              8070.68,5462.00 8071.99,5481.00 8071.99,5481.00              8072.14,5488.02 8070.80,5492.40 8070.17,5499.00              8069.85,5502.33 8070.29,5505.75 8069.37,5509.00              8067.97,5513.93 8063.61,5518.83 8064.18,5527.00              8064.46,5530.91 8065.16,5532.48 8064.96,5537.00              8064.65,5544.16 8061.11,5549.25 8059.50,5556.00              8059.50,5556.00 8055.84,5581.00 8055.84,5581.00              8055.84,5581.00 8046.92,5603.00 8046.92,5603.00              8046.92,5603.00 8045.47,5615.00 8045.47,5615.00              8044.24,5620.18 8037.18,5631.24 8032.91,5634.30              8029.40,5636.81 8024.11,5637.31 8020.00,5638.93              8020.00,5638.93 8009.00,5644.13 8009.00,5644.13              8009.00,5644.13 7996.00,5648.69 7996.00,5648.69              7986.79,5652.05 7983.54,5656.10 7971.00,5659.10              7965.70,5660.37 7961.35,5659.94 7956.00,5660.00              7956.00,5660.00 7943.00,5661.00 7943.00,5661.00              7943.00,5661.00 7923.00,5661.00 7923.00,5661.00              7923.00,5661.00 7904.00,5659.09 7904.00,5659.09              7897.01,5659.52 7894.20,5662.47 7886.00,5661.91              7886.00,5661.91 7864.00,5657.29 7864.00,5657.29              7864.00,5657.29 7821.00,5653.00 7821.00,5653.00              7821.00,5653.00 7808.00,5653.00 7808.00,5653.00              7808.00,5653.00 7788.00,5652.00 7788.00,5652.00              7788.00,5652.00 7774.00,5650.17 7774.00,5650.17              7774.00,5650.17 7752.00,5648.83 7752.00,5648.83              7744.15,5648.05 7743.91,5646.60 7734.00,5647.04              7720.76,5647.62 7702.68,5656.71 7697.00,5657.67              7688.06,5659.19 7686.70,5654.02 7672.00,5654.00              7672.00,5654.00 7656.00,5654.00 7656.00,5654.00              7651.78,5654.05 7646.82,5655.29 7643.00,5654.67              7643.00,5654.67 7630.00,5650.19 7630.00,5650.19              7630.00,5650.19 7612.00,5644.95 7612.00,5644.95              7612.00,5644.95 7589.00,5636.04 7589.00,5636.04              7579.24,5633.25 7579.67,5637.60 7568.00,5634.76              7568.00,5634.76 7541.00,5624.43 7541.00,5624.43              7535.69,5623.19 7523.11,5620.80 7518.00,5621.09              7518.00,5621.09 7508.00,5622.00 7508.00,5622.00              7508.00,5622.00 7489.00,5622.00 7489.00,5622.00              7478.19,5622.13 7466.67,5627.97 7460.00,5628.59              7460.00,5628.59 7440.00,5627.00 7440.00,5627.00              7440.00,5627.00 7426.00,5628.00 7426.00,5628.00              7426.00,5628.00 7401.00,5628.00 7401.00,5628.00              7383.96,5628.03 7383.23,5634.18 7372.00,5637.37              7372.00,5637.37 7360.00,5638.30 7360.00,5638.30              7360.00,5638.30 7349.00,5640.56 7349.00,5640.56              7349.00,5640.56 7328.00,5642.00 7328.00,5642.00              7318.29,5641.89 7309.50,5637.30 7300.00,5635.61              7300.00,5635.61 7290.00,5634.54 7290.00,5634.54              7290.00,5634.54 7276.00,5631.42 7276.00,5631.42              7259.33,5628.41 7256.03,5629.18 7240.00,5629.00              7234.56,5628.93 7219.86,5627.62 7215.00,5625.90              7215.00,5625.90 7199.00,5617.93 7199.00,5617.93              7199.00,5617.93 7185.00,5614.25 7185.00,5614.25              7185.00,5614.25 7169.00,5608.49 7169.00,5608.49              7169.00,5608.49 7132.00,5601.42 7132.00,5601.42              7132.00,5601.42 7119.00,5599.47 7119.00,5599.47              7111.90,5597.70 7106.75,5591.31 7097.00,5589.47              7087.16,5587.61 7082.32,5592.03 7075.00,5590.24              7075.00,5590.24 7063.00,5585.61 7063.00,5585.61              7063.00,5585.61 7049.00,5581.30 7049.00,5581.30              7040.35,5578.22 7033.81,5574.54 7024.00,5575.09              7014.65,5575.62 7005.19,5576.27 6996.00,5578.21              6996.00,5578.21 6979.00,5582.68 6979.00,5582.68              6979.00,5582.68 6964.00,5583.68 6964.00,5583.68              6964.00,5583.68 6953.00,5586.91 6953.00,5586.91              6953.00,5586.91 6938.00,5588.47 6938.00,5588.47              6932.95,5589.41 6929.27,5591.92 6924.00,5591.92              6910.41,5591.92 6895.77,5578.29 6877.00,5577.09              6868.48,5576.54 6864.77,5579.69 6856.00,5578.83              6856.00,5578.83 6827.00,5574.21 6827.00,5574.21              6820.99,5574.59 6816.34,5577.79 6808.00,5577.99              6808.00,5577.99 6763.00,5572.69 6763.00,5572.69              6756.28,5571.35 6752.99,5567.58 6744.00,5568.09              6744.00,5568.09 6706.00,5572.91 6706.00,5572.91              6691.82,5572.04 6671.00,5559.01 6656.00,5559.03              6648.67,5559.04 6645.50,5561.84 6639.00,5563.32              6633.63,5564.54 6628.48,5564.10 6623.00,5566.35              6623.00,5566.35 6610.00,5572.91 6610.00,5572.91              6606.84,5573.43 6602.46,5570.30 6599.00,5569.22              6594.15,5567.71 6589.02,5567.94 6584.00,5568.00              6574.03,5568.12 6561.19,5573.86 6552.00,5577.65              6545.52,5580.33 6540.69,5579.28 6528.00,5586.31              6520.25,5590.60 6518.10,5594.92 6513.00,5596.99              6508.52,5598.81 6506.83,5596.83 6496.00,5601.43              6496.00,5601.43 6477.00,5611.87 6477.00,5611.87              6473.14,5613.28 6459.55,5614.05 6455.00,5614.00              6455.00,5614.00 6424.00,5610.54 6424.00,5610.54              6417.56,5609.40 6415.22,5607.75 6408.00,5608.04              6408.00,5608.04 6394.00,5610.86 6394.00,5610.86              6387.28,5611.66 6380.71,5611.16 6374.00,5610.86              6365.09,5610.82 6356.15,5613.02 6349.00,5618.53              6343.99,5622.39 6340.46,5627.33 6335.00,5630.89              6325.74,5636.95 6320.82,5633.38 6312.00,5636.93              6304.22,5640.07 6299.71,5646.61 6292.00,5647.79              6287.38,5648.49 6271.43,5649.33 6267.00,5648.54              6252.68,5645.96 6247.40,5639.20 6228.00,5640.04              6211.25,5640.77 6201.52,5648.21 6183.00,5648.00              6171.78,5647.87 6171.23,5644.14 6160.00,5644.00              6150.96,5643.90 6128.03,5645.91 6119.00,5647.43              6108.11,5649.28 6107.56,5651.98 6095.00,5652.00              6095.00,5652.00 6070.00,5652.00 6070.00,5652.00              6070.00,5652.00 6058.00,5651.09 6058.00,5651.09              6058.00,5651.09 6015.00,5647.67 6015.00,5647.67              6015.00,5647.67 5996.00,5641.30 5996.00,5641.30              5986.82,5639.94 5974.80,5643.03 5969.00,5642.73              5964.43,5642.49 5959.39,5639.34 5952.00,5639.04              5942.36,5638.65 5938.02,5642.30 5931.00,5642.54              5917.18,5643.03 5913.81,5639.09 5898.00,5643.42              5898.00,5643.42 5883.00,5648.45 5883.00,5648.45              5874.25,5652.02 5871.07,5655.87 5861.00,5656.00              5848.25,5656.15 5850.47,5656.10 5838.00,5658.60              5833.13,5659.57 5825.75,5661.55 5821.00,5660.66              5816.17,5659.76 5811.80,5656.02 5806.00,5654.22              5799.51,5652.20 5795.68,5653.93 5789.00,5650.25              5782.21,5646.50 5780.67,5641.90 5772.00,5638.46              5772.00,5638.46 5752.00,5633.09 5752.00,5633.09              5752.00,5633.09 5733.00,5624.91 5733.00,5624.91              5733.00,5624.91 5707.00,5616.26 5707.00,5616.26              5707.00,5616.26 5697.00,5612.76 5697.00,5612.76              5697.00,5612.76 5683.00,5611.24 5683.00,5611.24              5683.00,5611.24 5662.00,5603.68 5662.00,5603.68              5662.00,5603.68 5649.00,5602.72 5649.00,5602.72              5637.79,5601.37 5626.30,5599.87 5615.00,5600.00              5602.50,5600.15 5600.99,5603.87 5594.00,5605.47              5590.38,5606.30 5580.28,5605.99 5576.00,5606.17              5572.39,5606.01 5564.56,5607.07 5562.00,5606.17              5558.69,5605.40 5555.03,5602.30 5552.00,5600.46              5552.00,5600.46 5543.00,5596.03 5543.00,5596.03              5543.00,5596.03 5534.00,5590.90 5534.00,5590.90              5528.56,5588.11 5525.28,5588.45 5520.00,5586.78              5520.00,5586.78 5508.00,5581.60 5508.00,5581.60              5503.80,5580.22 5490.42,5578.75 5486.00,5579.17              5481.90,5579.55 5475.86,5580.98 5472.00,5580.68              5467.65,5580.33 5463.40,5578.82 5459.00,5579.19              5459.00,5579.19 5445.00,5582.68 5445.00,5582.68              5445.00,5582.68 5422.00,5584.00 5422.00,5584.00              5416.67,5584.06 5408.99,5584.12 5404.00,5582.32              5404.00,5582.32 5388.00,5572.38 5388.00,5572.38              5381.73,5569.26 5370.03,5567.85 5363.00,5568.01              5363.00,5568.01 5350.00,5569.00 5350.00,5569.00              5350.00,5569.00 5339.00,5568.04 5339.00,5568.04              5339.00,5568.04 5322.00,5568.04 5322.00,5568.04              5322.00,5568.04 5293.00,5571.92 5293.00,5571.92              5293.00,5571.92 5282.00,5571.92 5282.00,5571.92              5269.45,5572.02 5269.70,5574.05 5259.00,5577.64              5259.00,5577.64 5248.00,5580.93 5248.00,5580.93              5248.00,5580.93 5239.00,5584.90 5239.00,5584.90              5239.00,5584.90 5219.00,5588.29 5219.00,5588.29              5219.00,5588.29 5200.00,5594.50 5200.00,5594.50              5200.00,5594.50 5184.00,5594.00 5184.00,5594.00              5184.00,5594.00 5170.00,5593.04 5170.00,5593.04              5170.00,5593.04 5157.00,5594.00 5157.00,5594.00              5142.71,5594.03 5143.80,5596.24 5132.00,5599.40              5132.00,5599.40 5105.00,5603.73 5105.00,5603.73              5096.18,5605.03 5096.80,5604.96 5088.00,5605.00              5079.57,5605.04 5080.24,5606.16 5074.00,5606.83              5074.00,5606.83 5057.00,5608.42 5057.00,5608.42              5057.00,5608.42 5037.00,5613.54 5037.00,5613.54              5037.00,5613.54 5022.00,5615.46 5022.00,5615.46              5012.32,5617.22 5014.00,5619.13 5002.00,5619.00              4993.62,5618.90 4988.05,5616.07 4980.00,5614.45              4980.00,5614.45 4960.00,5611.28 4960.00,5611.28              4960.00,5611.28 4952.00,5610.48 4952.00,5610.48              4944.32,5608.84 4942.08,5605.63 4932.00,5606.04              4924.09,5606.36 4920.16,5609.31 4915.00,5610.47              4909.47,5611.72 4906.34,5609.99 4899.00,5612.93              4888.80,5617.01 4890.99,5620.14 4876.00,5622.88              4863.46,5624.93 4864.82,5623.13 4854.00,5622.88              4849.20,5622.95 4845.62,5622.92 4841.00,5624.55              4837.15,5625.90 4832.88,5628.80 4829.00,5629.18              4829.00,5629.18 4813.00,5627.12 4813.00,5627.12              4813.00,5627.12 4802.00,5627.12 4802.00,5627.12              4796.49,5626.78 4796.13,5625.85 4789.00,5626.01              4789.00,5626.01 4762.00,5628.00 4762.00,5628.00              4762.00,5628.00 4743.00,5629.99 4743.00,5629.99              4732.97,5630.21 4726.60,5626.77 4716.00,5628.30              4709.04,5629.30 4703.51,5632.45 4699.00,5633.47              4695.69,5634.22 4691.45,5633.96 4688.00,5634.00              4688.00,5634.00 4660.00,5636.82 4660.00,5636.82              4660.00,5636.82 4641.00,5633.43 4641.00,5633.43              4641.00,5633.43 4630.00,5631.88 4630.00,5631.88              4630.00,5631.88 4620.00,5631.88 4620.00,5631.88              4620.00,5631.88 4601.00,5628.17 4601.00,5628.17              4601.00,5628.17 4576.00,5629.82 4576.00,5629.82              4576.00,5629.82 4560.00,5628.00 4560.00,5628.00              4560.00,5628.00 4539.00,5628.00 4539.00,5628.00              4539.00,5628.00 4515.00,5625.00 4515.00,5625.00              4497.99,5624.80 4486.27,5627.81 4470.00,5631.42              4470.00,5631.42 4455.00,5634.71 4455.00,5634.71              4455.00,5634.71 4414.00,5637.00 4414.00,5637.00              4414.00,5637.00 4401.00,5636.09 4401.00,5636.09              4401.00,5636.09 4391.00,5637.00 4391.00,5637.00              4391.00,5637.00 4378.00,5637.00 4378.00,5637.00              4365.65,5637.02 4366.25,5639.37 4357.00,5640.70              4357.00,5640.70 4346.00,5641.44 4346.00,5641.44              4346.00,5641.44 4317.00,5647.54 4317.00,5647.54              4317.00,5647.54 4310.00,5648.32 4310.00,5648.32              4310.00,5648.32 4293.00,5652.80 4293.00,5652.80              4286.40,5653.44 4279.12,5649.02 4267.00,5649.00              4267.00,5649.00 4262.00,5649.00 4262.00,5649.00              4262.00,5649.00 4252.00,5649.91 4252.00,5649.91              4252.00,5649.91 4224.00,5652.09 4224.00,5652.09              4224.00,5652.09 4214.00,5653.00 4214.00,5653.00              4206.00,5653.09 4197.89,5652.41 4190.00,5654.00              4180.67,5655.89 4173.56,5659.88 4164.00,5659.91              4164.00,5659.91 4152.00,5659.91 4152.00,5659.91              4152.00,5659.91 4126.00,5654.12 4126.00,5654.12              4119.67,5652.45 4112.87,5650.76 4108.17,5645.95              4105.92,5643.65 4099.86,5636.65 4098.41,5634.00              4098.41,5634.00 4093.65,5620.00 4093.65,5620.00              4089.07,5609.86 4076.65,5599.10 4065.00,5599.18              4053.95,5599.26 4040.37,5611.02 4034.98,5620.00              4034.98,5620.00 4029.04,5632.00 4029.04,5632.00              4025.90,5636.91 4015.66,5648.13 4011.00,5651.35              4004.62,5655.76 3993.58,5656.38 3986.00,5657.42              3986.00,5657.42 3960.00,5661.92 3960.00,5661.92              3960.00,5661.92 3953.00,5661.00 3953.00,5661.00              3953.00,5661.00 3944.00,5661.00 3944.00,5661.00              3936.90,5660.12 3936.96,5659.01 3928.00,5659.00              3928.00,5659.00 3909.00,5659.00 3909.00,5659.00              3909.00,5659.00 3894.00,5660.00 3894.00,5660.00              3889.03,5660.02 3882.74,5659.66 3878.00,5660.67              3878.00,5660.67 3870.00,5662.68 3870.00,5662.68              3870.00,5662.68 3857.00,5664.26 3857.00,5664.26              3857.00,5664.26 3846.00,5666.70 3846.00,5666.70              3837.99,5667.85 3833.71,5665.66 3827.00,5666.09              3827.00,5666.09 3795.00,5669.00 3795.00,5669.00              3795.00,5669.00 3782.00,5668.00 3782.00,5668.00              3776.13,5667.94 3768.59,5668.39 3763.00,5667.38              3763.00,5667.38 3745.00,5662.19 3745.00,5662.19              3736.13,5661.44 3731.33,5666.99 3724.00,5667.81              3724.00,5667.81 3710.00,5667.00 3710.00,5667.00              3710.00,5667.00 3686.00,5668.09 3686.00,5668.09              3686.00,5668.09 3675.00,5669.71 3675.00,5669.71              3675.00,5669.71 3647.00,5671.82 3647.00,5671.82              3647.00,5671.82 3626.00,5669.34 3626.00,5669.34              3621.64,5669.36 3617.84,5671.38 3611.00,5670.91              3611.00,5670.91 3594.00,5668.01 3594.00,5668.01              3594.00,5668.01 3577.00,5669.00 3577.00,5669.00              3577.00,5669.00 3551.00,5669.00 3551.00,5669.00              3551.00,5669.00 3526.00,5667.00 3526.00,5667.00              3515.40,5667.13 3513.06,5670.31 3504.00,5669.96              3504.00,5669.96 3491.00,5668.28 3491.00,5668.28              3491.00,5668.28 3476.00,5667.09 3476.00,5667.09              3476.00,5667.09 3460.00,5667.99 3460.00,5667.99              3460.00,5667.99 3446.00,5667.01 3446.00,5667.01              3438.18,5667.19 3433.50,5670.18 3427.00,5669.90              3427.00,5669.90 3411.00,5667.27 3411.00,5667.27              3400.70,5665.68 3390.42,5664.88 3380.00,5665.00              3380.00,5665.00 3352.00,5668.00 3352.00,5668.00              3352.00,5668.00 3331.00,5668.00 3331.00,5668.00              3331.00,5668.00 3301.00,5670.96 3301.00,5670.96              3301.00,5670.96 3289.00,5669.28 3289.00,5669.28              3289.00,5669.28 3266.00,5666.57 3266.00,5666.57              3266.00,5666.57 3246.00,5663.17 3246.00,5663.17              3240.92,5662.74 3236.02,5664.35 3231.00,5664.92              3231.00,5664.92 3215.00,5664.92 3215.00,5664.92              3215.00,5664.92 3204.00,5665.79 3204.00,5665.79              3198.88,5665.50 3197.44,5664.00 3189.00,5664.00              3189.00,5664.00 3169.00,5665.00 3169.00,5665.00              3169.00,5665.00 3155.00,5664.04 3155.00,5664.04              3155.00,5664.04 3131.00,5666.91 3131.00,5666.91              3121.35,5667.57 3119.07,5665.08 3113.00,5665.08              3113.00,5665.08 3097.00,5667.83 3097.00,5667.83              3089.37,5668.64 3084.00,5667.17 3077.00,5667.01              3077.00,5667.01 3059.00,5667.91 3059.00,5667.91              3059.00,5667.91 3027.00,5665.00 3027.00,5665.00              3013.57,5664.85 3013.51,5667.87 3003.00,5668.00              3003.00,5668.00 2944.00,5663.09 2944.00,5663.09              2933.47,5662.50 2929.37,5668.03 2923.00,5668.39              2923.00,5668.39 2883.00,5664.09 2883.00,5664.09              2883.00,5664.09 2872.00,5665.13 2872.00,5665.13              2872.00,5665.13 2857.00,5665.13 2857.00,5665.13              2857.00,5665.13 2837.00,5667.00 2837.00,5667.00              2837.00,5667.00 2815.00,5667.00 2815.00,5667.00              2815.00,5667.00 2795.00,5665.00 2795.00,5665.00              2795.00,5665.00 2775.00,5665.00 2775.00,5665.00              2775.00,5665.00 2738.00,5661.52 2738.00,5661.52              2734.29,5661.79 2732.06,5662.74 2728.00,5662.49              2728.00,5662.49 2694.00,5663.00 2694.00,5663.00              2683.34,5663.13 2681.96,5666.98 2669.00,5667.00              2669.00,5667.00 2625.00,5667.00 2625.00,5667.00              2625.00,5667.00 2610.00,5668.00 2610.00,5668.00              2610.00,5668.00 2588.00,5666.54 2588.00,5666.54              2583.65,5665.77 2579.47,5664.08 2575.00,5664.08              2575.00,5664.08 2542.00,5668.99 2542.00,5668.99              2542.00,5668.99 2520.00,5667.00 2520.00,5667.00              2509.71,5666.88 2499.12,5667.81 2489.00,5665.72              2489.00,5665.72 2469.00,5660.45 2469.00,5660.45              2469.00,5660.45 2452.00,5658.70 2452.00,5658.70              2446.78,5657.95 2442.46,5655.79 2437.00,5656.18              2437.00,5656.18 2425.00,5657.66 2425.00,5657.66              2421.69,5657.66 2419.22,5656.66 2413.00,5657.09              2408.35,5657.41 2403.45,5659.23 2399.00,5658.80              2396.00,5658.51 2392.94,5657.23 2390.00,5656.48              2390.00,5656.48 2366.00,5652.08 2366.00,5652.08              2366.00,5652.08 2342.00,5655.71 2342.00,5655.71              2336.94,5656.34 2333.02,5655.49 2328.00,5656.76              2328.00,5656.76 2309.00,5662.54 2309.00,5662.54              2309.00,5662.54 2281.00,5664.91 2281.00,5664.91              2273.96,5665.31 2266.37,5661.89 2259.00,5661.17              2259.00,5661.17 2230.00,5662.59 2230.00,5662.59              2230.00,5662.59 2218.00,5659.46 2218.00,5659.46              2210.52,5658.10 2198.59,5656.91 2191.00,5657.00              2191.00,5657.00 2163.00,5659.00 2163.00,5659.00              2163.00,5659.00 2146.00,5659.00 2146.00,5659.00              2146.00,5659.00 2120.00,5660.79 2120.00,5660.79              2113.87,5661.10 2108.57,5657.69 2102.00,5658.18              2102.00,5658.18 2077.00,5662.96 2077.00,5662.96              2069.20,5663.21 2064.67,5659.95 2052.00,5660.00              2052.00,5660.00 2038.00,5661.00 2038.00,5661.00              2038.00,5661.00 2017.00,5661.00 2017.00,5661.00              2017.00,5661.00 2002.00,5660.00 2002.00,5660.00              2002.00,5660.00 1978.00,5658.17 1978.00,5658.17              1978.00,5658.17 1969.00,5657.57 1969.00,5657.57              1969.00,5657.57 1944.00,5652.44 1944.00,5652.44              1944.00,5652.44 1930.00,5650.72 1930.00,5650.72              1919.33,5648.93 1903.55,5643.63 1893.00,5644.04              1893.00,5644.04 1881.00,5645.92 1881.00,5645.92              1881.00,5645.92 1867.00,5645.92 1867.00,5645.92              1861.67,5646.07 1846.95,5647.57 1842.00,5649.04              1835.30,5651.04 1830.96,5654.10 1823.00,5655.54              1819.84,5656.11 1818.04,5655.90 1815.00,5656.04              1815.00,5656.04 1806.00,5656.68 1806.00,5656.68              1806.00,5656.68 1790.00,5655.00 1790.00,5655.00              1790.00,5655.00 1768.00,5655.00 1768.00,5655.00              1768.00,5655.00 1751.00,5656.00 1751.00,5656.00              1751.00,5656.00 1721.00,5656.00 1721.00,5656.00              1721.00,5656.00 1706.00,5655.00 1706.00,5655.00              1690.29,5654.82 1695.69,5653.34 1684.00,5651.44              1684.00,5651.44 1674.00,5650.10 1674.00,5650.10              1667.60,5648.58 1663.98,5647.11 1657.00,5646.29              1657.00,5646.29 1630.00,5647.00 1630.00,5647.00              1630.00,5647.00 1604.00,5650.00 1604.00,5650.00              1590.00,5650.02 1580.80,5650.67 1567.00,5653.66              1560.61,5655.04 1547.76,5659.22 1542.00,5658.82              1542.00,5658.82 1534.00,5658.03 1534.00,5658.03              1534.00,5658.03 1518.00,5659.00 1518.00,5659.00              1507.72,5659.13 1504.00,5662.26 1495.00,5665.46              1484.93,5669.05 1477.67,5670.88 1467.00,5671.00              1467.00,5671.00 1444.00,5672.97 1444.00,5672.97              1444.00,5672.97 1430.00,5672.00 1430.00,5672.00              1430.00,5672.00 1388.00,5671.00 1388.00,5671.00              1388.00,5671.00 1378.00,5671.91 1378.00,5671.91              1378.00,5671.91 1358.00,5673.17 1358.00,5673.17              1358.00,5673.17 1341.00,5674.96 1341.00,5674.96              1341.00,5674.96 1318.00,5672.91 1318.00,5672.91              1318.00,5672.91 1300.00,5672.91 1300.00,5672.91              1292.99,5672.08 1294.93,5671.02 1285.00,5671.00              1285.00,5671.00 1266.00,5671.00 1266.00,5671.00              1266.00,5671.00 1235.00,5668.91 1235.00,5668.91              1235.00,5668.91 1206.00,5666.04 1206.00,5666.04              1206.00,5666.04 1195.00,5667.00 1195.00,5667.00              1195.00,5667.00 1169.00,5667.00 1169.00,5667.00              1169.00,5667.00 1129.00,5674.87 1129.00,5674.87              1120.53,5675.08 1113.72,5667.41 1103.00,5668.18              1103.00,5668.18 1067.00,5673.67 1067.00,5673.67              1059.25,5673.01 1053.41,5669.71 1045.00,5670.04              1045.00,5670.04 1027.00,5671.00 1027.00,5671.00              1027.00,5671.00 1011.00,5669.18 1011.00,5669.18              1011.00,5669.18 998.00,5670.00 998.00,5670.00              998.00,5670.00 975.00,5672.00 975.00,5672.00              975.00,5672.00 956.00,5673.00 956.00,5673.00              956.00,5673.00 936.00,5674.91 936.00,5674.91              936.00,5674.91 925.00,5674.00 925.00,5674.00              925.00,5674.00 910.00,5674.00 910.00,5674.00              910.00,5674.00 894.00,5675.00 894.00,5675.00              894.00,5675.00 874.00,5675.00 874.00,5675.00              874.00,5675.00 844.00,5677.00 844.00,5677.00              844.00,5677.00 831.00,5676.09 831.00,5676.09              831.00,5676.09 817.00,5677.90 817.00,5677.90              817.00,5677.90 787.00,5675.09 787.00,5675.09              780.72,5675.48 781.45,5676.98 771.00,5677.00              771.00,5677.00 748.00,5676.00 748.00,5676.00              748.00,5676.00 738.00,5676.00 738.00,5676.00              738.00,5676.00 726.00,5676.82 726.00,5676.82              726.00,5676.82 713.00,5676.00 713.00,5676.00              702.15,5675.98 697.66,5672.27 686.00,5673.09              675.34,5673.83 664.87,5679.88 656.00,5680.83              648.65,5681.62 644.87,5679.89 640.00,5680.10              640.00,5680.10 621.00,5682.68 621.00,5682.68              621.00,5682.68 599.00,5680.01 599.00,5680.01              599.00,5680.01 571.00,5681.96 571.00,5681.96              564.44,5681.67 561.91,5679.17 554.00,5679.02              545.51,5678.85 538.20,5681.65 530.00,5682.71              530.00,5682.71 517.00,5683.25 517.00,5683.25              517.00,5683.25 510.00,5683.25 510.00,5683.25              505.79,5683.75 502.12,5682.57 498.00,5682.08              498.00,5682.08 486.00,5682.08 486.00,5682.08              486.00,5682.08 472.00,5681.18 472.00,5681.18              472.00,5681.18 460.00,5682.91 460.00,5682.91              460.00,5682.91 447.00,5682.03 447.00,5682.03              447.00,5682.03 438.00,5682.95 438.00,5682.95              438.00,5682.95 425.00,5682.95 425.00,5682.95              425.00,5682.95 405.00,5682.00 405.00,5682.00              405.00,5682.00 382.00,5680.32 382.00,5680.32              382.00,5680.32 356.00,5683.00 356.00,5683.00              356.00,5683.00 344.00,5683.00 344.00,5683.00              344.00,5683.00 323.00,5684.68 323.00,5684.68              323.00,5684.68 313.00,5684.00 313.00,5684.00              313.00,5684.00 282.00,5684.00 282.00,5684.00              282.00,5684.00 265.00,5684.96 265.00,5684.96              265.00,5684.96 257.00,5683.90 257.00,5683.90              257.00,5683.90 246.00,5683.90 246.00,5683.90              246.00,5683.90 231.00,5681.10 231.00,5681.10              231.00,5681.10 222.00,5681.96 222.00,5681.96              222.00,5681.96 206.00,5681.96 206.00,5681.96              206.00,5681.96 188.00,5680.09 188.00,5680.09              180.41,5679.57 177.37,5680.69 169.00,5679.00              154.64,5676.09 155.56,5673.09 139.00,5673.00              124.03,5672.92 124.40,5663.87 114.00,5655.51              110.97,5653.08 98.31,5643.25 96.74,5640.91              93.88,5636.65 93.59,5620.76 92.08,5615.00              90.57,5609.26 88.99,5608.08 87.76,5601.00              86.74,5595.14 87.27,5594.17 86.91,5589.00              86.91,5589.00 84.87,5570.00 84.87,5570.00              84.28,5565.73 83.64,5560.02 82.43,5556.00              81.04,5551.37 79.08,5549.10 79.47,5544.00              79.47,5544.00 80.00,5530.00 80.00,5530.00              79.88,5519.69 77.23,5518.98 75.52,5511.00              74.45,5506.03 75.19,5502.62 72.90,5496.00              72.90,5496.00 66.87,5482.00 66.87,5482.00              63.32,5468.70 67.51,5464.11 66.87,5455.00              66.39,5449.32 63.79,5443.62 64.18,5438.00              64.18,5438.00 65.32,5424.00 65.32,5424.00              66.00,5419.88 67.67,5416.63 67.90,5412.00              68.22,5405.41 65.22,5400.91 65.18,5396.00              65.18,5396.00 66.91,5385.00 66.91,5385.00              66.91,5385.00 66.20,5373.00 66.20,5373.00              66.08,5365.17 67.16,5368.15 66.20,5357.00              65.80,5350.03 68.46,5350.99 65.34,5337.00              63.85,5330.38 58.70,5312.78 59.10,5307.00              59.10,5307.00 61.82,5293.00 61.82,5293.00              61.82,5293.00 60.00,5277.00 60.00,5277.00              60.00,5277.00 60.00,5253.00 60.00,5253.00              60.02,5238.68 64.99,5225.07 66.71,5211.00              67.66,5203.31 65.75,5201.11 66.09,5195.00              66.09,5195.00 67.00,5178.00 67.00,5178.00              67.00,5178.00 63.00,5138.00 63.00,5138.00              63.13,5127.03 67.39,5124.09 66.82,5116.00              66.82,5116.00 66.11,5106.00 66.11,5106.00              66.11,5106.00 66.11,5102.00 66.11,5102.00              66.10,5093.53 67.08,5095.15 66.11,5085.00              66.00,5080.72 67.41,5077.19 67.83,5073.00              68.36,5067.66 67.60,5062.26 66.72,5057.00              66.72,5057.00 60.20,5034.00 60.20,5034.00              60.29,5028.08 65.47,5023.81 65.90,5015.00              66.32,5006.30 62.32,5006.23 62.91,4993.00              62.91,4993.00 62.21,4982.00 62.21,4982.00              62.21,4982.00 64.72,4966.00 64.72,4966.00              64.72,4966.00 67.29,4942.00 67.29,4942.00              68.51,4932.91 72.29,4914.60 71.96,4906.00              71.96,4906.00 70.08,4890.00 70.08,4890.00              70.08,4890.00 70.08,4878.00 70.08,4878.00              70.08,4878.00 65.71,4843.00 65.71,4843.00              65.71,4843.00 64.38,4835.00 64.38,4835.00              64.38,4835.00 64.99,4826.00 64.99,4826.00              64.99,4826.00 63.19,4804.00 63.19,4804.00              63.19,4804.00 66.78,4788.00 66.78,4788.00              66.78,4788.00 66.78,4772.00 66.78,4772.00              66.99,4763.24 65.88,4762.31 65.17,4755.00              65.17,4755.00 63.83,4731.00 63.83,4731.00              63.83,4731.00 62.04,4716.00 62.04,4716.00              61.78,4707.85 65.71,4700.97 64.91,4690.00              64.35,4682.39 61.75,4680.25 59.55,4674.00              58.38,4670.69 56.94,4659.45 57.18,4656.00              57.18,4656.00 58.96,4635.00 58.96,4635.00              58.96,4635.00 58.18,4627.00 58.18,4627.00              58.18,4627.00 59.28,4613.00 59.28,4613.00              59.28,4613.00 61.91,4592.00 61.91,4592.00              61.91,4592.00 60.17,4580.00 60.17,4580.00              60.17,4580.00 58.70,4562.00 58.70,4562.00              57.42,4553.06 55.88,4554.29 56.00,4543.00              56.16,4529.35 67.29,4498.18 66.98,4483.00              66.75,4471.39 60.92,4467.09 59.39,4460.00              59.39,4460.00 58.70,4450.00 58.70,4450.00              58.70,4450.00 55.17,4438.00 55.17,4438.00              55.17,4438.00 55.17,4415.00 55.17,4415.00              55.09,4407.55 56.23,4407.54 57.06,4402.00              57.06,4402.00 57.06,4393.00 57.06,4393.00              57.06,4393.00 61.83,4361.00 61.83,4361.00              62.52,4353.80 61.08,4350.62 61.00,4344.00              61.00,4344.00 63.02,4319.00 63.02,4319.00              63.02,4319.00 66.83,4305.00 66.83,4305.00              67.58,4297.97 65.79,4295.79 65.08,4290.00              65.08,4290.00 65.08,4279.00 65.08,4279.00              64.86,4267.59 60.37,4266.70 59.18,4258.00              59.18,4258.00 57.21,4238.00 57.21,4238.00              57.55,4232.65 60.32,4228.10 59.91,4221.00              59.91,4221.00 58.09,4209.00 58.09,4209.00              57.56,4199.90 62.03,4192.34 62.66,4186.00              62.66,4186.00 61.09,4163.00 61.09,4163.00              61.09,4163.00 64.39,4148.00 64.39,4148.00              64.39,4148.00 65.17,4136.00 65.17,4136.00              65.50,4132.54 66.14,4130.75 65.91,4127.00              65.39,4118.63 61.21,4115.26 61.21,4110.00              61.21,4104.80 65.80,4100.33 65.82,4093.00              65.84,4088.37 63.74,4084.62 64.04,4077.00              64.04,4077.00 64.82,4067.00 64.82,4067.00              64.82,4067.00 63.34,4056.00 63.34,4056.00              63.34,4056.00 63.98,4049.00 63.98,4049.00              63.98,4049.00 63.98,4037.00 63.98,4037.00              63.98,4037.00 63.00,4022.00 63.00,4022.00              62.92,4014.63 62.97,4003.00 61.07,3996.00              58.53,3986.59 53.60,3985.99 54.04,3975.00              54.36,3966.90 56.84,3966.13 57.00,3952.00              57.09,3944.55 58.24,3944.54 59.00,3939.00              59.00,3939.00 59.00,3929.00 59.00,3929.00              59.00,3929.00 62.45,3908.00 62.45,3908.00              63.82,3901.30 66.46,3894.90 66.91,3888.00              67.85,3873.66 58.21,3867.60 58.08,3858.00              58.08,3858.00 58.83,3851.00 58.83,3851.00              58.83,3851.00 59.51,3840.00 59.51,3840.00              59.51,3840.00 65.84,3818.00 65.84,3818.00              65.84,3818.00 65.84,3800.00 65.84,3800.00              65.84,3800.00 66.66,3789.00 66.66,3789.00              66.24,3784.74 63.96,3780.28 64.62,3776.00              64.62,3776.00 70.41,3759.00 70.41,3759.00              70.41,3759.00 76.49,3733.00 76.49,3733.00              76.49,3733.00 80.22,3723.00 80.22,3723.00              81.31,3719.30 82.84,3703.95 82.82,3700.00              82.80,3695.05 78.20,3676.98 75.36,3673.00              69.63,3664.94 62.92,3663.19 60.31,3657.98              58.82,3655.01 59.01,3651.26 59.00,3648.00              59.00,3648.00 59.00,3642.00 59.00,3642.00              59.00,3642.00 60.00,3627.00 60.00,3627.00              60.00,3627.00 60.00,3608.00 60.00,3608.00              60.00,3608.00 57.18,3579.00 57.18,3579.00              57.25,3573.40 60.65,3568.28 62.07,3563.00              62.07,3563.00 63.79,3550.00 63.79,3550.00              64.99,3545.82 68.22,3541.07 70.24,3537.00              73.90,3529.63 72.94,3528.60 75.34,3523.00              78.15,3516.41 81.02,3512.66 81.83,3505.00              82.45,3499.10 81.21,3493.04 78.04,3488.00              75.73,3484.33 72.09,3481.12 70.85,3477.00              70.85,3477.00 70.85,3451.00 70.85,3451.00              70.90,3443.01 69.47,3442.57 68.32,3436.00              67.04,3428.68 67.04,3421.15 64.78,3414.00              62.85,3407.89 58.27,3402.59 58.06,3396.00              57.80,3388.10 63.12,3375.34 65.10,3367.00              66.57,3360.82 65.57,3359.07 66.30,3354.00              68.10,3341.37 68.82,3346.45 69.00,3331.00              69.00,3331.00 69.92,3320.00 69.92,3320.00              69.92,3314.63 68.22,3313.33 69.92,3307.00              72.10,3298.90 77.65,3293.28 76.91,3282.00              76.50,3275.74 75.04,3274.75 75.00,3266.00              74.96,3256.40 75.63,3251.61 73.35,3242.00              71.03,3232.27 65.11,3223.68 65.08,3216.00              65.02,3204.06 72.36,3194.59 71.90,3185.00              71.62,3179.34 69.71,3176.88 68.10,3172.00              68.10,3172.00 66.10,3160.00 66.10,3160.00              64.86,3154.80 61.52,3147.01 61.47,3142.00              61.43,3137.35 64.09,3133.31 65.38,3129.00              66.41,3125.57 69.06,3109.35 68.90,3106.00              68.46,3097.07 63.85,3091.70 61.09,3084.00              58.80,3077.62 58.93,3073.60 59.00,3067.00              59.00,3067.00 63.83,3032.00 63.83,3032.00              64.44,3024.76 61.17,3019.80 62.33,3013.00              63.57,3005.72 68.43,3002.85 67.96,2991.00              67.96,2991.00 66.08,2979.00 66.08,2979.00              66.08,2979.00 66.08,2962.00 66.08,2962.00              65.95,2951.03 62.75,2949.08 63.01,2938.00              63.25,2928.43 67.86,2924.64 68.04,2913.00              68.04,2913.00 68.04,2903.00 68.04,2903.00              68.04,2903.00 68.96,2892.00 68.96,2892.00              68.96,2892.00 67.10,2865.00 67.10,2865.00              67.10,2865.00 67.64,2854.00 67.64,2854.00              67.49,2849.44 66.53,2848.06 67.64,2843.00              68.52,2837.34 71.33,2833.20 70.81,2827.00              69.89,2815.96 61.19,2810.70 61.05,2795.00              61.05,2795.00 61.05,2783.00 61.05,2783.00              61.05,2783.00 61.77,2774.00 61.77,2774.00              61.77,2774.00 61.77,2762.00 61.77,2762.00              61.77,2762.00 63.83,2750.00 63.83,2750.00              63.83,2750.00 65.17,2730.00 65.17,2730.00              65.60,2725.54 67.15,2720.35 66.82,2716.00              66.49,2711.72 64.98,2708.56 65.32,2704.00              65.32,2704.00 67.51,2687.00 67.51,2687.00              71.09,2671.05 72.77,2675.87 73.00,2656.00              73.11,2646.53 75.93,2627.89 79.09,2619.00              79.09,2619.00 84.46,2606.00 84.46,2606.00              84.46,2606.00 88.21,2590.00 88.21,2590.00              88.21,2590.00 94.65,2579.00 94.65,2579.00              94.65,2579.00 98.08,2567.00 98.08,2567.00              98.08,2567.00 104.47,2556.00 104.47,2556.00              106.39,2551.65 107.80,2541.83 107.96,2537.00              108.49,2520.43 99.34,2506.36 92.63,2492.00              92.63,2492.00 84.90,2469.00 84.90,2469.00              83.57,2464.64 84.24,2462.26 83.83,2458.00              83.83,2458.00 82.56,2445.00 82.56,2445.00              82.56,2445.00 80.30,2434.00 80.30,2434.00              79.70,2429.80 80.36,2427.77 79.07,2423.00              76.02,2411.74 67.05,2407.64 66.78,2400.00              66.52,2392.87 73.28,2380.92 73.79,2373.00              73.79,2373.00 73.02,2361.00 73.02,2361.00              73.13,2355.35 74.59,2352.02 73.70,2346.00              72.42,2337.30 69.06,2336.53 69.00,2324.00              68.93,2309.85 67.09,2312.82 65.32,2302.00              65.32,2302.00 64.00,2278.00 64.00,2278.00              63.93,2271.69 64.35,2263.00 66.22,2257.00              66.22,2257.00 72.08,2242.00 72.08,2242.00              73.45,2236.77 72.67,2234.73 73.29,2230.00              73.29,2230.00 75.82,2217.00 75.82,2217.00              75.82,2217.00 74.00,2198.00 74.00,2198.00              74.00,2198.00 70.01,2158.00 70.01,2158.00              70.21,2149.31 72.74,2147.35 74.71,2140.00              76.21,2134.43 75.94,2131.54 76.00,2126.00              76.00,2126.00 77.82,2112.00 77.82,2112.00              77.82,2112.00 76.19,2096.00 76.19,2096.00              76.19,2096.00 77.70,2088.00 77.70,2088.00              78.55,2082.03 77.25,2080.26 79.16,2073.00              79.16,2073.00 86.34,2051.00 86.34,2051.00              89.37,2043.91 92.38,2040.36 91.91,2032.00              91.91,2032.00 89.01,2007.00 89.01,2007.00              89.23,1997.82 92.53,1994.15 90.10,1984.00              86.67,1969.66 80.30,1965.51 77.85,1958.00              76.67,1954.40 76.96,1947.02 77.00,1943.00              77.12,1933.24 80.07,1931.89 81.53,1924.00              82.51,1918.72 81.13,1915.15 81.01,1910.00              80.71,1896.70 84.86,1896.91 84.91,1885.00              84.91,1885.00 84.91,1867.00 84.91,1867.00              86.18,1861.35 89.34,1859.57 90.81,1850.00              92.22,1839.51 91.63,1831.47 90.81,1821.00              90.81,1821.00 90.01,1812.00 90.01,1812.00              89.90,1806.99 91.17,1794.30 93.31,1790.00              95.32,1785.97 100.35,1782.09 103.39,1778.00              107.47,1772.51 114.34,1758.60 116.48,1752.00              119.53,1742.60 116.76,1740.62 117.04,1733.00              117.23,1727.80 119.00,1724.86 119.70,1720.00              119.70,1720.00 120.53,1709.00 120.53,1709.00              120.53,1709.00 126.70,1694.00 126.70,1694.00              126.70,1694.00 132.71,1665.00 132.71,1665.00              132.71,1665.00 133.32,1653.00 133.32,1653.00              133.32,1653.00 136.25,1643.00 136.25,1643.00              137.42,1638.56 138.94,1625.65 139.00,1621.00              139.08,1613.68 139.35,1609.29 140.43,1602.00              141.12,1597.29 142.48,1592.75 141.48,1588.00              138.46,1573.52 126.62,1562.16 122.69,1554.00              122.69,1554.00 118.68,1545.00 118.68,1545.00              118.68,1545.00 111.09,1531.00 111.09,1531.00              111.09,1531.00 99.92,1498.00 99.92,1498.00              99.92,1498.00 97.07,1484.00 97.07,1484.00              97.07,1484.00 91.67,1471.00 91.67,1471.00              89.80,1462.99 99.30,1458.28 99.90,1446.00              100.25,1438.70 96.74,1433.58 94.77,1427.00              94.77,1427.00 91.33,1404.00 91.33,1404.00              90.71,1396.44 97.47,1389.06 96.91,1379.00              96.91,1379.00 96.21,1371.00 96.21,1371.00              96.21,1371.00 97.54,1357.00 97.54,1357.00              97.39,1352.58 95.44,1348.96 96.17,1342.00              96.17,1342.00 97.83,1333.00 97.83,1333.00              97.83,1333.00 99.46,1315.00 99.46,1315.00              101.21,1305.15 103.13,1304.38 103.00,1293.00              102.94,1288.41 101.49,1277.61 100.55,1273.00              100.55,1273.00 98.09,1263.00 98.09,1263.00              98.09,1263.00 98.09,1255.00 98.09,1255.00              98.09,1255.00 91.04,1213.00 91.04,1213.00              90.76,1203.93 95.52,1198.99 96.66,1191.00              96.66,1191.00 95.00,1166.00 95.00,1166.00              95.00,1166.00 95.00,1137.00 95.00,1137.00              95.00,1137.00 96.00,1122.00 96.00,1122.00              96.23,1102.35 94.79,1109.69 91.04,1094.00              91.04,1094.00 89.34,1084.00 89.34,1084.00              89.34,1084.00 85.23,1067.00 85.23,1067.00              82.59,1051.69 85.16,1047.26 85.23,1033.00              84.88,1023.06 81.79,1020.91 82.00,1003.00              82.00,1003.00 82.90,991.00 82.90,991.00              82.90,991.00 81.01,972.00 81.01,972.00              81.01,972.00 82.00,960.00 82.00,960.00              82.00,960.00 82.00,941.00 82.00,941.00              82.00,941.00 80.88,927.00 80.88,927.00              80.88,927.00 80.88,918.00 80.88,918.00              81.16,901.61 79.72,906.87 78.16,895.00              76.68,883.73 75.87,872.37 76.00,861.00              76.00,861.00 78.92,836.00 78.92,836.00              78.92,836.00 78.92,826.00 78.92,826.00              78.92,826.00 79.91,811.00 79.91,811.00              79.31,801.31 73.25,792.75 73.01,783.00              73.01,783.00 74.00,768.00 74.00,768.00              74.00,768.00 74.00,749.00 74.00,749.00              74.00,749.00 77.91,716.00 77.91,716.00              78.23,711.05 77.39,709.35 77.04,705.00              77.04,705.00 77.04,692.00 77.04,692.00              77.04,692.00 73.39,660.00 73.39,660.00              72.47,655.10 70.18,647.62 70.52,643.00              70.52,643.00 75.00,612.00 75.00,612.00              75.16,597.80 73.40,593.91 71.93,581.00              71.93,581.00 71.93,571.00 71.93,571.00              70.01,559.16 69.07,563.96 69.00,549.00              68.96,541.65 68.11,541.31 67.29,535.00              67.29,535.00 66.01,515.00 66.01,515.00              66.01,515.00 67.00,495.00 67.00,495.00              67.17,481.10 72.97,480.81 73.00,462.00              73.00,462.00 73.00,442.00 73.00,442.00              73.00,442.00 71.96,430.00 71.96,430.00              71.96,430.00 71.96,420.00 71.96,420.00              71.44,415.90 70.86,414.56 71.04,410.00              71.04,410.00 71.79,401.00 71.79,401.00              71.79,401.00 70.06,392.00 70.06,392.00              70.06,392.00 70.06,384.00 70.06,384.00              70.06,384.00 68.00,370.00 68.00,370.00              68.00,370.00 64.78,331.00 64.78,331.00              64.78,331.00 67.72,313.00 67.72,313.00              67.72,313.00 69.93,295.00 69.93,295.00              69.93,295.00 73.94,285.00 73.94,285.00              76.19,279.09 77.98,272.21 79.20,266.00              83.19,245.63 79.60,239.99 80.09,232.00              80.09,232.00 82.91,217.00 82.91,217.00              83.32,210.20 81.17,207.58 80.33,202.00              79.72,198.03 80.65,195.79 80.91,192.00              81.30,186.30 80.38,181.64 82.56,176.00              85.20,169.18 91.01,168.52 95.98,163.90              95.98,163.90 110.83,146.00 110.83,146.00              110.83,146.00 131.17,120.76 131.17,120.76              131.17,120.76 140.00,114.92 140.00,114.92              140.00,114.92 154.00,106.13 154.00,106.13              154.00,106.13 166.00,101.40 166.00,101.40              185.52,93.52 183.51,94.11 204.00,89.10              204.00,89.10 219.00,84.55 219.00,84.55              225.78,83.42 234.12,88.97 243.00,87.70              251.18,86.53 254.86,82.21 260.00,80.64              260.00,80.64 266.00,79.72 266.00,79.72              278.35,77.95 276.53,78.14 289.00,78.00              301.90,77.84 304.15,72.28 312.00,72.18              312.00,72.18 327.00,73.96 327.00,73.96              327.00,73.96 343.00,73.00 343.00,73.00              355.98,73.15 359.34,79.57 371.00,78.91              371.00,78.91 389.00,76.17 389.00,76.17              394.93,75.60 396.88,76.76 402.00,76.96              402.00,76.96 452.00,73.00 452.00,73.00              452.00,73.00 482.00,75.17 482.00,75.17              482.00,75.17 498.00,76.82 498.00,76.82              498.00,76.82 520.00,73.92 520.00,73.92              520.00,73.92 529.00,73.92 529.00,73.92              529.00,73.92 541.00,72.04 541.00,72.04              541.00,72.04 555.00,72.04 555.00,72.04              555.00,72.04 565.00,71.05 565.00,71.05              565.00,71.05 579.00,71.05 579.00,71.05              579.00,71.05 593.00,71.91 593.00,71.91              593.00,71.91 627.00,69.00 627.00,69.00              627.00,69.00 648.00,68.00 648.00,68.00              648.00,68.00 658.00,68.95 658.00,68.95              658.00,68.95 671.00,68.95 671.00,68.95              671.00,68.95 685.00,68.04 685.00,68.04              689.77,68.23 694.21,70.16 699.00,69.64              704.64,69.42 707.97,68.34 714.00,69.64              721.70,70.91 726.78,74.27 736.00,73.96              741.16,73.79 743.41,72.47 748.00,71.51              748.00,71.51 768.00,69.04 768.00,69.04              768.00,69.04 791.00,72.00 791.00,72.00              791.00,72.00 822.00,70.56 822.00,70.56              832.75,68.87 833.57,66.02 848.00,66.00              848.00,66.00 873.00,66.00 873.00,66.00              873.00,66.00 885.00,67.04 885.00,67.04              885.00,67.04 894.00,67.04 894.00,67.04              894.00,67.04 901.00,67.92 901.00,67.92              901.00,67.92 917.00,66.08 917.00,66.08              917.00,66.08 929.00,67.82 929.00,67.82              929.00,67.82 940.00,66.29 940.00,66.29              940.00,66.29 957.00,65.18 957.00,65.18              957.00,65.18 979.00,69.66 979.00,69.66              979.00,69.66 997.00,69.66 997.00,69.66              997.00,69.66 1015.00,72.14 1015.00,72.14              1015.00,72.14 1025.00,72.14 1025.00,72.14              1025.00,72.14 1035.00,73.91 1035.00,73.91              1039.07,74.20 1043.10,73.51 1047.00,74.99              1053.65,77.51 1059.71,85.13 1071.00,85.91              1071.00,85.91 1110.00,79.46 1110.00,79.46              1110.00,79.46 1118.00,80.94 1118.00,80.94              1118.00,80.94 1125.00,80.94 1125.00,80.94              1125.00,80.94 1133.00,82.70 1133.00,82.70              1133.00,82.70 1151.00,83.68 1151.00,83.68              1151.00,83.68 1170.00,82.04 1170.00,82.04              1170.00,82.04 1196.00,84.92 1196.00,84.92              1196.00,84.92 1214.00,84.92 1214.00,84.92              1228.93,85.02 1226.07,88.98 1241.00,89.00              1241.00,89.00 1282.00,89.00 1282.00,89.00              1282.00,89.00 1296.00,87.17 1296.00,87.17              1296.00,87.17 1312.00,85.92 1312.00,85.92              1312.00,85.92 1330.00,83.04 1330.00,83.04              1330.00,83.04 1378.00,87.96 1378.00,87.96              1378.00,87.96 1401.00,85.54 1401.00,85.54              1409.26,84.04 1406.73,83.02 1417.00,82.86              1417.00,82.86 1428.00,82.86 1428.00,82.86              1428.00,82.86 1438.00,81.04 1438.00,81.04              1438.00,81.04 1453.00,81.04 1453.00,81.04              1453.00,81.04 1467.00,80.00 1467.00,80.00              1467.00,80.00 1482.00,80.00 1482.00,80.00              1482.00,80.00 1493.00,79.04 1493.00,79.04              1493.00,79.04 1509.00,79.98 1509.00,79.98              1509.00,79.98 1522.00,79.02 1522.00,79.02              1522.00,79.02 1543.00,80.68 1543.00,80.68              1543.00,80.68 1564.00,78.18 1564.00,78.18              1568.87,78.24 1572.22,80.83 1580.00,80.98              1592.45,81.23 1597.79,75.50 1608.00,76.09              1623.35,76.98 1628.79,85.43 1642.00,85.96              1651.12,86.33 1651.91,84.12 1659.00,82.53              1662.43,81.76 1667.37,82.04 1671.00,82.00              1671.00,82.00 1699.00,79.00 1699.00,79.00              1699.00,79.00 1711.00,78.18 1711.00,78.18              1714.97,78.46 1716.37,79.14 1721.00,78.96              1727.04,78.73 1731.23,77.36 1738.00,78.18              1746.50,79.21 1755.41,84.64 1768.00,83.91              1768.00,83.91 1795.00,78.53 1795.00,78.53              1795.00,78.53 1810.00,79.92 1810.00,79.92              1810.00,79.92 1817.00,79.17 1817.00,79.17              1817.00,79.17 1837.00,78.00 1837.00,78.00              1837.00,78.00 1852.00,78.96 1852.00,78.96              1857.65,78.72 1865.34,77.17 1871.00,77.84              1875.83,78.40 1882.42,81.80 1888.00,81.82              1888.00,81.82 1923.00,78.17 1923.00,78.17              1923.00,78.17 1958.00,75.91 1958.00,75.91              1958.00,75.91 1978.00,74.01 1978.00,74.01              1978.00,74.01 1996.00,74.96 1996.00,74.96              1996.00,74.96 2006.00,74.96 2006.00,74.96              2010.32,74.62 2012.11,73.77 2017.00,74.09              2024.43,74.57 2028.68,77.28 2037.00,76.96              2037.00,76.96 2081.00,73.00 2081.00,73.00              2081.00,73.00 2100.00,73.00 2100.00,73.00              2100.00,73.00 2116.00,72.01 2116.00,72.01              2116.00,72.01 2129.00,72.96 2129.00,72.96              2129.00,72.96 2145.00,72.00 2145.00,72.00              2145.00,72.00 2162.00,72.96 2162.00,72.96              2162.00,72.96 2182.00,69.39 2182.00,69.39              2190.99,67.58 2192.66,64.13 2203.00,63.92              2203.00,63.92 2218.00,63.92 2218.00,63.92              2221.84,63.45 2226.34,61.88 2230.00,62.37              2230.00,62.37 2247.00,68.85 2247.00,68.85              2247.00,68.85 2291.00,76.83 2291.00,76.83              2302.34,77.96 2307.76,73.75 2315.00,74.32              2315.00,74.32 2334.00,77.51 2334.00,77.51              2334.00,77.51 2341.00,80.06 2341.00,80.06              2344.93,81.45 2353.71,82.62 2358.00,82.91              2367.06,83.53 2378.83,80.41 2388.00,79.14              2388.00,79.14 2401.00,79.14 2401.00,79.14              2401.00,79.14 2411.00,78.39 2411.00,78.39              2411.00,78.39 2428.00,81.95 2428.00,81.95              2428.00,81.95 2439.00,81.95 2439.00,81.95              2444.89,82.89 2447.29,85.30 2456.00,84.96              2456.00,84.96 2478.00,83.26 2478.00,83.26              2482.96,83.45 2487.99,86.34 2495.00,85.91              2501.51,85.51 2505.33,82.73 2511.00,81.52              2518.71,79.86 2527.15,80.09 2535.00,80.00              2535.00,80.00 2553.00,77.38 2553.00,77.38              2553.00,77.38 2565.00,77.99 2565.00,77.99              2571.89,77.83 2574.52,75.75 2582.00,76.04              2582.00,76.04 2596.00,77.96 2596.00,77.96              2596.00,77.96 2610.00,77.01 2610.00,77.01              2610.00,77.01 2623.00,77.91 2623.00,77.91              2623.00,77.91 2640.00,76.02 2640.00,76.02              2640.00,76.02 2656.00,77.00 2656.00,77.00              2656.00,77.00 2708.00,77.00 2708.00,77.00              2708.00,77.00 2739.00,75.48 2739.00,75.48              2743.80,76.04 2746.09,74.39 2753.00,75.48              2761.63,76.41 2770.16,80.00 2779.00,78.70              2788.02,77.37 2795.84,70.46 2803.00,70.35              2807.26,70.29 2811.56,72.98 2822.00,73.04              2822.00,73.04 2838.00,73.04 2838.00,73.04              2838.00,73.04 2849.00,74.00 2849.00,74.00              2849.00,74.00 2868.00,74.00 2868.00,74.00              2880.34,74.02 2880.12,77.25 2892.00,76.99              2892.00,76.99 2915.00,74.51 2915.00,74.51              2932.46,75.62 2940.03,71.00 2955.00,70.21              2955.00,70.21 2972.00,71.83 2972.00,71.83              2972.00,71.83 3001.00,73.00 3001.00,73.00              3001.00,73.00 3017.00,73.83 3017.00,73.83              3017.00,73.83 3025.00,72.07 3025.00,72.07              3025.00,72.07 3035.00,72.07 3035.00,72.07              3035.00,72.07 3055.00,68.92 3055.00,68.92              3055.00,68.92 3063.00,68.92 3063.00,68.92              3068.09,68.32 3071.49,66.77 3077.00,67.09              3077.00,67.09 3098.00,71.54 3098.00,71.54              3098.00,71.54 3106.00,72.43 3106.00,72.43              3118.24,74.20 3130.59,76.98 3143.00,77.00              3143.00,77.00 3149.00,77.00 3149.00,77.00              3149.00,77.00 3159.00,76.18 3159.00,76.18              3159.00,76.18 3171.00,77.92 3171.00,77.92              3171.00,77.92 3185.00,77.92 3185.00,77.92              3185.00,77.92 3201.00,78.99 3201.00,78.99              3201.00,78.99 3215.00,78.00 3215.00,78.00              3215.00,78.00 3265.00,77.00 3265.00,77.00              3265.00,77.00 3293.00,79.00 3293.00,79.00              3293.00,79.00 3303.00,80.04 3303.00,80.04              3303.00,80.04 3314.00,80.04 3314.00,80.04              3314.00,80.04 3328.00,82.00 3328.00,82.00              3328.00,82.00 3348.00,81.00 3348.00,81.00              3348.00,81.00 3358.00,81.95 3358.00,81.95              3358.00,81.95 3377.00,81.95 3377.00,81.95              3377.00,81.95 3390.00,81.00 3390.00,81.00              3390.00,81.00 3407.00,81.00 3407.00,81.00              3407.00,81.00 3422.00,81.99 3422.00,81.99              3422.00,81.99 3442.00,79.32 3442.00,79.32              3442.00,79.32 3457.00,80.28 3457.00,80.28              3457.00,80.28 3477.00,82.96 3477.00,82.96              3477.00,82.96 3497.00,81.01 3497.00,81.01              3497.00,81.01 3509.00,81.91 3509.00,81.91              3509.00,81.91 3522.00,81.00 3522.00,81.00              3522.00,81.00 3542.00,81.00 3542.00,81.00              3542.00,81.00 3561.00,80.04 3561.00,80.04              3561.00,80.04 3599.00,83.00 3599.00,83.00              3599.00,83.00 3625.00,82.00 3625.00,82.00              3638.21,82.06 3638.25,87.34 3650.00,86.96              3661.38,86.59 3670.81,80.82 3687.00,81.00              3687.00,81.00 3700.00,81.99 3700.00,81.99              3700.00,81.99 3713.00,81.00 3713.00,81.00              3713.00,81.00 3733.00,81.00 3733.00,81.00              3733.00,81.00 3748.00,81.99 3748.00,81.99              3748.00,81.99 3763.00,81.00 3763.00,81.00              3763.00,81.00 3785.00,81.00 3785.00,81.00              3785.00,81.00 3799.00,80.00 3799.00,80.00              3799.00,80.00 3822.00,81.46 3822.00,81.46              3834.97,83.76 3828.81,84.81 3845.00,85.00              3845.00,85.00 3868.00,86.29 3868.00,86.29              3868.00,86.29 3883.00,88.95 3883.00,88.95              3883.00,88.95 3893.00,88.95 3893.00,88.95              3893.00,88.95 3914.00,94.05 3914.00,94.05              3922.65,96.97 3923.07,105.44 3926.44,113.00              3930.62,122.38 3938.44,129.80 3949.00,130.82              3959.45,131.84 3969.41,124.99 3974.18,116.00              3978.04,108.72 3983.99,96.01 3994.00,96.72              4005.56,97.54 4008.12,101.60 4017.00,106.66              4017.00,106.66 4031.00,113.55 4031.00,113.55              4038.18,118.13 4043.56,123.59 4053.00,122.81              4061.26,122.13 4069.59,117.63 4077.00,114.31              4077.00,114.31 4089.00,109.73 4089.00,109.73              4089.00,109.73 4098.00,104.95 4098.00,104.95              4103.08,102.83 4109.56,102.73 4115.00,101.69              4115.00,101.69 4129.00,97.52 4129.00,97.52              4129.00,97.52 4142.00,96.00 4142.00,96.00              4142.00,96.00 4161.00,92.46 4161.00,92.46              4167.05,92.60 4175.95,96.79 4185.00,95.83              4185.00,95.83 4206.00,90.30 4206.00,90.30              4206.00,90.30 4228.00,88.34 4228.00,88.34              4228.00,88.34 4234.00,88.91 4234.00,88.91              4234.00,88.91 4276.00,84.00 4276.00,84.00              4276.00,84.00 4318.00,81.00 4318.00,81.00              4326.73,80.89 4332.01,78.33 4340.00,77.15              4340.00,77.15 4362.00,77.15 4362.00,77.15              4362.00,77.15 4377.00,78.00 4377.00,78.00              4377.00,78.00 4414.00,79.00 4414.00,79.00              4414.00,79.00 4434.00,80.79 4434.00,80.79              4434.00,80.79 4452.00,79.00 4452.00,79.00              4452.00,79.00 4486.00,77.00 4486.00,77.00              4486.00,77.00 4518.00,79.96 4518.00,79.96              4518.00,79.96 4530.00,79.96 4530.00,79.96              4530.00,79.96 4541.00,79.00 4541.00,79.00              4541.00,79.00 4555.00,80.00 4555.00,80.00              4555.00,80.00 4573.00,80.00 4573.00,80.00              4573.00,80.00 4596.00,83.67 4596.00,83.67              4596.00,83.67 4606.00,85.81 4606.00,85.81              4606.00,85.81 4641.00,83.09 4641.00,83.09              4650.79,83.80 4653.74,88.89 4662.00,88.92              4670.83,88.95 4677.34,83.03 4694.00,83.00              4694.00,83.00 4699.00,83.00 4699.00,83.00              4699.00,83.00 4720.00,84.82 4720.00,84.82              4726.44,84.33 4726.46,83.01 4736.00,83.04              4736.00,83.04 4748.00,83.04 4748.00,83.04              4751.87,83.35 4753.71,84.15 4758.00,83.91              4758.00,83.91 4775.00,82.01 4775.00,82.01              4775.00,82.01 4792.00,83.00 4792.00,83.00              4792.00,83.00 4812.00,83.00 4812.00,83.00              4820.96,83.01 4820.90,84.12 4828.00,84.92              4828.00,84.92 4847.00,84.92 4847.00,84.92              4847.00,84.92 4864.00,86.00 4864.00,86.00              4864.00,86.00 4879.00,85.01 4879.00,85.01              4887.83,85.23 4890.94,89.39 4899.00,88.82              4899.00,88.82 4923.00,86.00 4923.00,86.00              4923.00,86.00 4951.00,86.00 4951.00,86.00              4951.00,86.00 4989.00,90.00 4989.00,90.00              4989.00,90.00 5015.00,90.00 5015.00,90.00              5015.00,90.00 5041.00,87.96 5041.00,87.96              5041.00,87.96 5053.00,87.96 5053.00,87.96              5053.00,87.96 5065.00,87.00 5065.00,87.00              5065.00,87.00 5079.00,87.00 5079.00,87.00              5079.00,87.00 5095.00,88.00 5095.00,88.00              5095.00,88.00 5128.00,88.00 5128.00,88.00              5128.00,88.00 5138.00,87.38 5138.00,87.38              5146.94,87.93 5161.21,92.49 5170.00,94.50              5170.00,94.50 5200.00,96.96 5200.00,96.96              5200.00,96.96 5224.00,95.00 5224.00,95.00              5224.00,95.00 5242.00,95.00 5242.00,95.00              5242.00,95.00 5257.00,95.83 5257.00,95.83              5257.00,95.83 5268.00,93.32 5268.00,93.32              5268.00,93.32 5293.00,91.08 5293.00,91.08              5293.00,91.08 5310.00,92.92 5310.00,92.92              5310.00,92.92 5323.00,92.92 5323.00,92.92              5323.00,92.92 5336.00,94.15 5336.00,94.15              5336.00,94.15 5351.00,94.15 5351.00,94.15              5361.20,95.77 5358.52,97.93 5373.00,98.00              5385.75,98.07 5385.19,102.07 5395.00,104.21              5401.73,105.86 5404.83,104.44 5411.00,104.21              5411.00,104.21 5423.00,104.81 5423.00,104.81              5429.02,104.31 5432.61,101.51 5438.00,99.75              5444.07,97.76 5450.65,97.01 5457.00,97.00              5457.00,97.00 5463.00,97.00 5463.00,97.00              5463.00,97.00 5482.00,98.96 5482.00,98.96              5482.00,98.96 5494.00,98.10 5494.00,98.10              5494.00,98.10 5505.00,98.97 5505.00,98.97              5505.00,98.97 5519.00,98.00 5519.00,98.00              5519.00,98.00 5539.00,98.00 5539.00,98.00              5539.00,98.00 5556.00,97.00 5556.00,97.00              5556.00,97.00 5571.00,98.00 5571.00,98.00              5571.00,98.00 5615.00,101.00 5615.00,101.00              5615.00,101.00 5630.00,102.00 5630.00,102.00              5630.00,102.00 5634.00,102.00 5634.00,102.00              5634.00,102.00 5658.00,105.00 5658.00,105.00              5658.00,105.00 5699.00,101.00 5699.00,101.00              5699.00,101.00 5735.00,101.00 5735.00,101.00              5735.00,101.00 5762.00,102.98 5762.00,102.98              5762.00,102.98 5778.00,102.00 5778.00,102.00              5778.00,102.00 5797.00,102.00 5797.00,102.00              5797.00,102.00 5817.00,101.00 5817.00,101.00              5817.00,101.00 5831.00,101.91 5831.00,101.91              5831.00,101.91 5865.00,99.32 5865.00,99.32              5865.00,99.32 5883.00,101.00 5883.00,101.00              5883.00,101.00 5914.00,103.91 5914.00,103.91              5914.00,103.91 5926.00,103.01 5926.00,103.01              5926.00,103.01 5945.00,104.00 5945.00,104.00              5958.78,104.02 5958.84,107.71 5970.00,108.60              5977.19,109.55 5982.22,108.18 5986.00,108.60              5986.00,108.60 6004.00,109.97 6004.00,109.97              6004.00,109.97 6013.00,109.05 6013.00,109.05              6013.00,109.05 6030.00,109.05 6030.00,109.05              6030.00,109.05 6045.00,109.99 6045.00,109.99              6053.94,109.78 6056.32,106.71 6069.00,107.01              6069.00,107.01 6107.00,111.00 6107.00,111.00              6119.19,111.14 6117.29,110.14 6127.00,109.08              6127.00,109.08 6144.00,109.08 6144.00,109.08              6144.00,109.08 6172.00,105.58 6172.00,105.58              6172.00,105.58 6196.00,109.00 6196.00,109.00              6196.00,109.00 6220.00,109.00 6220.00,109.00              6220.00,109.00 6235.00,108.09 6235.00,108.09              6235.00,108.09 6264.00,110.91 6264.00,110.91              6264.00,110.91 6277.00,110.00 6277.00,110.00              6277.00,110.00 6289.00,110.90 6289.00,110.90              6289.00,110.90 6303.00,109.09 6303.00,109.09              6303.00,109.09 6317.00,109.96 6317.00,109.96              6327.27,109.56 6334.44,104.51 6347.00,105.04              6347.00,105.04 6372.00,107.61 6372.00,107.61              6372.00,107.61 6386.00,110.70 6386.00,110.70              6386.00,110.70 6394.00,111.29 6394.00,111.29              6400.99,112.20 6404.38,114.26 6412.00,113.96              6412.00,113.96 6425.00,113.00 6425.00,113.00              6425.00,113.00 6455.00,113.00 6455.00,113.00              6455.00,113.00 6485.00,111.00 6485.00,111.00              6505.07,110.78 6521.31,120.96 6546.00,121.00              6546.00,121.00 6571.00,121.00 6571.00,121.00              6571.00,121.00 6597.00,123.00 6597.00,123.00              6597.00,123.00 6610.00,122.00 6610.00,122.00              6610.00,122.00 6638.00,121.00 6638.00,121.00              6638.00,121.00 6659.00,118.29 6659.00,118.29              6659.00,118.29 6684.00,117.00 6684.00,117.00              6684.00,117.00 6694.00,117.95 6694.00,117.95              6694.00,117.95 6709.00,117.95 6709.00,117.95              6709.00,117.95 6720.00,117.21 6720.00,117.21              6720.00,117.21 6731.00,118.92 6731.00,118.92              6731.00,118.92 6742.00,118.92 6742.00,118.92              6742.00,118.92 6773.00,122.46 6773.00,122.46              6777.67,123.31 6783.51,125.82 6788.00,125.82              6788.00,125.82 6802.00,123.28 6802.00,123.28              6814.29,121.54 6826.60,120.14 6839.00,120.00              6839.00,120.00 6853.00,118.86 6853.00,118.86              6853.00,118.86 6865.00,118.86 6865.00,118.86              6865.00,118.86 6874.00,117.08 6874.00,117.08              6874.00,117.08 6884.00,117.08 6884.00,117.08              6884.00,117.08 6897.00,116.00 6897.00,116.00              6897.00,116.00 6919.00,115.00 6919.00,115.00              6919.00,115.00 6936.00,113.51 6936.00,113.51              6936.00,113.51 6950.00,115.00 6950.00,115.00              6950.00,115.00 6982.00,116.17 6982.00,116.17              6982.00,116.17 7004.00,117.91 7004.00,117.91              7004.00,117.91 7022.00,116.04 7022.00,116.04              7022.00,116.04 7037.00,116.04 7037.00,116.04              7037.00,116.04 7056.00,115.00 7056.00,115.00              7056.00,115.00 7067.00,115.86 7067.00,115.86              7067.00,115.86 7080.00,115.86 7080.00,115.86              7080.00,115.86 7089.00,116.82 7089.00,116.82              7089.00,116.82 7102.00,115.17 7102.00,115.17              7102.00,115.17 7117.00,114.32 7117.00,114.32              7117.00,114.32 7125.00,114.99 7125.00,114.99              7125.00,114.99 7137.00,114.18 7137.00,114.18              7137.00,114.18 7158.00,117.96 7158.00,117.96              7165.83,118.21 7170.21,115.36 7177.00,114.33              7181.98,113.57 7184.43,115.25 7190.00,114.91              7190.00,114.91 7206.00,111.91 7206.00,111.91              7206.00,111.91 7221.00,111.91 7221.00,111.91              7226.90,111.93 7236.07,109.62 7242.00,108.10              7242.00,108.10 7257.00,102.57 7257.00,102.57              7257.00,102.57 7282.00,97.40 7282.00,97.40              7282.00,97.40 7300.00,92.16 7300.00,92.16              7300.00,92.16 7320.00,92.16 7320.00,92.16              7334.15,91.83 7336.11,85.90 7347.00,79.90              7356.48,74.68 7370.14,70.75 7381.00,71.01              7387.79,71.18 7399.73,74.19 7406.00,76.87              7406.00,76.87 7416.00,81.45 7416.00,81.45              7416.00,81.45 7426.00,83.66 7426.00,83.66              7437.80,86.31 7433.57,86.82 7447.00,87.00              7456.30,87.13 7464.39,93.33 7475.00,94.71              7485.80,96.12 7488.77,93.58 7496.00,93.09              7496.00,93.09 7516.00,94.00 7516.00,94.00              7525.09,93.89 7530.60,91.45 7539.00,89.15              7539.00,89.15 7558.00,84.29 7558.00,84.29              7558.00,84.29 7585.00,76.46 7585.00,76.46              7585.00,76.46 7608.00,73.83 7608.00,73.83              7608.00,73.83 7622.00,71.04 7622.00,71.04              7622.00,71.04 7632.00,71.04 7632.00,71.04              7632.00,71.04 7646.00,69.00 7646.00,69.00              7646.00,69.00 7654.00,69.00 7654.00,69.00              7654.00,69.00 7668.00,66.43 7668.00,66.43              7668.00,66.43 7684.00,64.56 7684.00,64.56              7684.00,64.56 7698.00,62.09 7698.00,62.09              7704.39,61.64 7705.98,62.68 7711.00,62.90              7711.00,62.90 7718.00,62.32 7718.00,62.32              7718.00,62.32 7734.00,64.00 7734.00,64.00              7734.00,64.00 7755.00,63.00 7755.00,63.00              7755.00,63.00 7792.00,59.00 7792.00,59.00              7792.00,59.00 7810.00,59.81 7810.00,59.81              7818.18,59.14 7827.14,53.66 7834.00,54.34              7840.44,54.97 7847.64,59.37 7855.00,58.82              7855.00,58.82 7871.00,55.59 7871.00,55.59              7871.00,55.59 7887.00,53.44 7887.00,53.44 Z            M 4322.00,1300.33            C 4316.47,1301.71 4308.99,1306.19 4310.69,1313.00              4311.45,1316.04 4314.27,1319.10 4315.74,1322.00              4315.74,1322.00 4318.67,1328.91 4318.67,1328.91              4321.17,1333.27 4326.92,1336.42 4332.00,1335.62              4340.15,1334.33 4338.91,1326.24 4340.25,1323.17              4341.40,1320.55 4343.98,1319.12 4344.36,1315.99              4344.64,1313.66 4343.24,1310.97 4342.12,1309.00              4336.80,1299.66 4331.90,1299.23 4322.00,1300.33 Z"
            style="fill:#000000;fill-opacity:1"/>
</svg>
