<?xml version="1.0" encoding="UTF-8" standalone="no"?>
<svg
        width="176.911mm"
        height="117.666mm"
        viewBox="0 0 8358 5559"
        version="1.1"
        id="svg832"
        sodipodi:docname="folio9a.svg"
        inkscape:version="1.1.1 (3bf5ae0d25, 2021-09-20)"
        xmlns:inkscape="http://www.inkscape.org/namespaces/inkscape"
        xmlns:sodipodi="http://sodipodi.sourceforge.net/DTD/sodipodi-0.dtd"
        xmlns="http://www.w3.org/2000/svg"
>
    <defs
            id="defs836"/>
    <sodipodi:namedview
            id="namedview834"
            pagecolor="#ffffff"
            bordercolor="#666666"
            borderopacity="1.0"
            inkscape:pageshadow="2"
            inkscape:pageopacity="0.0"
            inkscape:pagecheckerboard="0"
            inkscape:document-units="mm"
            showgrid="false"
            inkscape:zoom="1.7831369"
            inkscape:cx="334.52283"
            inkscape:cy="222.36095"
            inkscape:window-width="1920"
            inkscape:window-height="1001"
            inkscape:window-x="-7"
            inkscape:window-y="-7"
            inkscape:window-maximized="1"
            inkscape:current-layer="svg832"/>
    <path
            id="Selection #1"
            fill="none"
            stroke="black"
            stroke-width="1"
            d="M 566.00,119.04            C 563.75,130.88 562.15,128.20 559.92,136.00              559.92,136.00 552.09,180.00 552.09,180.00              551.17,196.31 565.74,210.62 582.00,209.96              598.94,209.28 605.97,196.59 616.58,186.21              616.58,186.21 626.99,178.67 626.99,178.67              630.79,175.45 645.05,157.50 647.10,153.00              647.10,153.00 649.75,146.00 649.75,146.00              649.75,146.00 658.53,128.00 658.53,128.00              659.57,125.40 660.56,119.50 662.56,118.02              664.26,116.77 667.92,117.00 670.00,117.00              670.00,117.00 706.00,117.00 706.00,117.00              706.00,117.00 718.00,115.90 718.00,115.90              718.00,115.90 730.00,115.90 730.00,115.90              730.00,115.90 740.00,115.90 740.00,115.90              740.00,115.90 788.00,115.90 788.00,115.90              788.00,115.90 802.00,116.96 802.00,116.96              802.00,116.96 815.00,115.04 815.00,115.04              815.00,115.04 838.00,115.04 838.00,115.04              838.00,115.04 853.00,114.04 853.00,114.04              853.00,114.04 869.00,114.04 869.00,114.04              869.00,114.04 880.00,114.96 880.00,114.96              880.00,114.96 889.00,114.08 889.00,114.08              889.00,114.08 902.00,115.00 902.00,115.00              902.00,115.00 921.00,114.11 921.00,114.11              936.11,115.45 933.82,114.02 946.00,114.11              946.00,114.11 1000.00,114.11 1000.00,114.11              1000.00,114.11 1012.00,113.04 1012.00,113.04              1012.00,113.04 1023.00,113.04 1023.00,113.04              1023.00,113.04 1038.00,112.00 1038.00,112.00              1038.00,112.00 1055.00,112.00 1055.00,112.00              1055.00,112.00 1069.00,112.99 1069.00,112.99              1069.00,112.99 1079.00,111.90 1079.00,111.90              1079.00,111.90 1089.00,111.90 1089.00,111.90              1089.00,111.90 1100.00,111.90 1100.00,111.90              1100.00,111.90 1116.00,111.90 1116.00,111.90              1116.00,111.90 1135.00,110.79 1135.00,110.79              1138.99,110.89 1143.01,111.26 1147.00,110.79              1147.00,110.79 1159.00,108.14 1159.00,108.14              1159.00,108.14 1172.00,109.00 1172.00,109.00              1172.00,109.00 1192.00,110.00 1192.00,110.00              1192.00,110.00 1217.00,110.00 1217.00,110.00              1217.00,110.00 1240.00,108.21 1240.00,108.21              1240.00,108.21 1248.00,108.96 1248.00,108.96              1248.00,108.96 1258.00,108.96 1258.00,108.96              1258.00,108.96 1273.00,108.09 1273.00,108.09              1273.00,108.09 1283.00,108.99 1283.00,108.99              1283.00,108.99 1293.00,108.05 1293.00,108.05              1293.00,108.05 1306.00,108.05 1306.00,108.05              1306.00,108.05 1321.00,108.96 1321.00,108.96              1321.00,108.96 1332.00,107.38 1332.00,107.38              1332.00,107.38 1343.00,107.91 1343.00,107.91              1343.00,107.91 1358.00,106.08 1358.00,106.08              1358.00,106.08 1372.00,106.08 1372.00,106.08              1372.00,106.08 1383.00,105.46 1383.00,105.46              1387.55,105.61 1388.93,106.99 1398.00,107.00              1398.00,107.00 1425.00,107.00 1425.00,107.00              1425.00,107.00 1437.00,107.96 1437.00,107.96              1437.00,107.96 1450.00,107.96 1450.00,107.96              1461.19,107.98 1460.12,106.31 1466.00,105.85              1466.00,105.85 1477.00,105.85 1477.00,105.85              1477.00,105.85 1486.00,104.47 1486.00,104.47              1486.00,104.47 1503.00,105.95 1503.00,105.95              1503.00,105.95 1522.00,105.95 1522.00,105.95              1522.00,105.95 1543.00,103.87 1543.00,103.87              1543.00,103.87 1565.00,103.87 1565.00,103.87              1565.00,103.87 1590.00,105.96 1590.00,105.96              1590.00,105.96 1597.00,105.18 1597.00,105.18              1597.00,105.18 1609.00,105.96 1609.00,105.96              1609.00,105.96 1621.00,104.00 1621.00,104.00              1621.00,104.00 1631.00,104.00 1631.00,104.00              1631.00,104.00 1642.00,102.54 1642.00,102.54              1646.27,101.76 1649.55,100.10 1654.00,100.08              1654.00,100.08 1676.00,102.00 1676.00,102.00              1676.00,102.00 1687.00,102.00 1687.00,102.00              1687.00,102.00 1715.00,105.00 1715.00,105.00              1715.00,105.00 1729.00,104.04 1729.00,104.04              1729.00,104.04 1744.00,104.04 1744.00,104.04              1744.00,104.04 1752.00,104.96 1752.00,104.96              1760.70,105.30 1762.95,102.92 1768.00,102.10              1768.00,102.10 1791.00,102.10 1791.00,102.10              1791.00,102.10 1808.00,100.01 1808.00,100.01              1808.00,100.01 1827.00,101.92 1827.00,101.92              1827.00,101.92 1839.00,101.92 1839.00,101.92              1843.26,101.43 1848.79,100.24 1853.00,100.51              1853.00,100.51 1875.00,101.96 1875.00,101.96              1875.00,101.96 1889.00,100.51 1889.00,100.51              1889.00,100.51 1926.00,100.00 1926.00,100.00              1926.00,100.00 1940.00,101.00 1940.00,101.00              1940.00,101.00 1955.00,100.18 1955.00,100.18              1955.00,100.18 1969.00,101.00 1969.00,101.00              1969.00,101.00 1984.00,99.47 1984.00,99.47              1984.00,99.47 1992.00,100.92 1992.00,100.92              1992.00,100.92 2002.00,100.92 2002.00,100.92              2002.00,100.92 2018.00,102.00 2018.00,102.00              2026.33,101.90 2027.32,100.08 2032.00,99.80              2032.00,99.80 2050.00,100.96 2050.00,100.96              2050.00,100.96 2068.00,99.34 2068.00,99.34              2068.00,99.34 2091.00,101.00 2091.00,101.00              2099.24,101.00 2101.01,99.39 2105.00,99.34              2105.00,99.34 2116.00,99.99 2116.00,99.99              2116.00,99.99 2126.00,99.21 2126.00,99.21              2126.00,99.21 2136.00,99.96 2136.00,99.96              2136.00,99.96 2163.00,98.01 2163.00,98.01              2163.00,98.01 2172.00,98.96 2172.00,98.96              2172.00,98.96 2185.00,98.96 2185.00,98.96              2185.00,98.96 2198.00,100.00 2198.00,100.00              2198.00,100.00 2202.00,100.00 2202.00,100.00              2202.00,100.00 2212.00,99.05 2212.00,99.05              2212.00,99.05 2229.00,99.05 2229.00,99.05              2229.00,99.05 2244.00,100.00 2244.00,100.00              2244.00,100.00 2278.00,98.83 2278.00,98.83              2278.00,98.83 2295.00,96.71 2295.00,96.71              2295.00,96.71 2317.00,98.04 2317.00,98.04              2317.00,98.04 2329.00,98.04 2329.00,98.04              2329.00,98.04 2340.00,99.00 2340.00,99.00              2340.00,99.00 2361.00,99.00 2361.00,99.00              2361.00,99.00 2379.00,97.52 2379.00,97.52              2379.00,97.52 2412.00,100.99 2412.00,100.99              2412.00,100.99 2428.00,100.00 2428.00,100.00              2428.00,100.00 2445.00,100.00 2445.00,100.00              2454.92,99.98 2456.04,98.37 2462.00,98.10              2462.00,98.10 2479.00,99.00 2479.00,99.00              2479.00,99.00 2489.00,99.95 2489.00,99.95              2489.00,99.95 2507.00,99.95 2507.00,99.95              2507.00,99.95 2517.00,99.04 2517.00,99.04              2517.00,99.04 2533.00,99.04 2533.00,99.04              2533.00,99.04 2548.00,100.00 2548.00,100.00              2548.00,100.00 2567.00,100.00 2567.00,100.00              2567.00,100.00 2580.00,99.00 2580.00,99.00              2580.00,99.00 2602.00,99.00 2602.00,99.00              2602.00,99.00 2614.00,99.97 2614.00,99.97              2614.00,99.97 2625.00,99.01 2625.00,99.01              2625.00,99.01 2641.00,99.96 2641.00,99.96              2641.00,99.96 2654.00,99.00 2654.00,99.00              2654.00,99.00 2683.00,99.00 2683.00,99.00              2683.00,99.00 2700.00,99.91 2700.00,99.91              2700.00,99.91 2717.00,98.04 2717.00,98.04              2717.00,98.04 2730.00,98.99 2730.00,98.99              2730.00,98.99 2798.00,98.99 2798.00,98.99              2798.00,98.99 2812.00,99.98 2812.00,99.98              2812.00,99.98 2828.00,98.57 2828.00,98.57              2828.00,98.57 2844.00,99.96 2844.00,99.96              2844.00,99.96 2860.00,99.02 2860.00,99.02              2860.00,99.02 2873.00,100.00 2873.00,100.00              2873.00,100.00 2899.00,100.00 2899.00,100.00              2899.00,100.00 2914.00,98.18 2914.00,98.18              2914.00,98.18 2926.00,99.96 2926.00,99.96              2932.53,100.22 2934.08,98.97 2938.00,98.92              2938.00,98.92 2948.00,98.92 2948.00,98.92              2948.00,98.92 2965.00,98.92 2965.00,98.92              2965.00,98.92 2985.00,101.00 2985.00,101.00              2985.00,101.00 3005.00,100.18 3005.00,100.18              3005.00,100.18 3031.00,102.00 3031.00,102.00              3031.00,102.00 3045.00,101.00 3045.00,101.00              3045.00,101.00 3071.00,101.00 3071.00,101.00              3071.00,101.00 3086.00,101.91 3086.00,101.91              3086.00,101.91 3099.00,101.00 3099.00,101.00              3099.00,101.00 3114.00,102.00 3114.00,102.00              3114.00,102.00 3131.00,100.37 3131.00,100.37              3131.00,100.37 3150.00,102.98 3150.00,102.98              3150.00,102.98 3169.00,101.04 3169.00,101.04              3169.00,101.04 3179.00,102.70 3179.00,102.70              3179.00,102.70 3200.00,103.91 3200.00,103.91              3200.00,103.91 3214.00,102.08 3214.00,102.08              3214.00,102.08 3224.00,102.08 3224.00,102.08              3224.00,102.08 3236.00,101.18 3236.00,101.18              3236.00,101.18 3247.00,102.00 3247.00,102.00              3247.00,102.00 3259.00,101.19 3259.00,101.19              3259.00,101.19 3268.00,102.91 3268.00,102.91              3268.00,102.91 3283.00,102.91 3283.00,102.91              3283.00,102.91 3309.00,100.00 3309.00,100.00              3309.00,100.00 3330.00,100.00 3330.00,100.00              3330.00,100.00 3346.00,99.00 3346.00,99.00              3346.00,99.00 3376.00,99.00 3376.00,99.00              3376.00,99.00 3396.00,101.00 3396.00,101.00              3396.00,101.00 3400.00,101.00 3400.00,101.00              3400.00,101.00 3409.00,100.34 3409.00,100.34              3409.00,100.34 3416.00,100.98 3416.00,100.98              3416.00,100.98 3432.00,100.98 3432.00,100.98              3442.29,100.98 3442.58,99.26 3449.00,99.04              3449.00,99.04 3460.00,99.96 3460.00,99.96              3464.63,100.14 3466.03,99.46 3470.00,99.18              3470.00,99.18 3498.00,100.96 3498.00,100.96              3498.00,100.96 3509.00,99.46 3509.00,99.46              3509.00,99.46 3527.00,100.95 3527.00,100.95              3527.00,100.95 3540.00,100.95 3540.00,100.95              3540.00,100.95 3550.00,99.96 3550.00,99.96              3550.00,99.96 3561.00,99.96 3561.00,99.96              3565.50,99.40 3567.12,98.90 3572.00,99.01              3572.00,99.01 3586.00,99.96 3586.00,99.96              3586.00,99.96 3601.00,99.96 3601.00,99.96              3601.00,99.96 3612.00,99.00 3612.00,99.00              3612.00,99.00 3629.00,99.00 3629.00,99.00              3629.00,99.00 3640.00,98.32 3640.00,98.32              3640.00,98.32 3679.00,99.00 3679.00,99.00              3679.00,99.00 3692.00,98.08 3692.00,98.08              3692.00,98.08 3701.00,98.78 3701.00,98.78              3701.00,98.78 3711.00,98.78 3711.00,98.78              3711.00,98.78 3732.00,99.96 3732.00,99.96              3732.00,99.96 3748.00,99.01 3748.00,99.01              3759.26,99.98 3762.69,99.93 3774.00,99.01              3774.00,99.01 3782.00,98.02 3782.00,98.02              3782.00,98.02 3794.00,98.96 3794.00,98.96              3794.00,98.96 3805.00,98.32 3805.00,98.32              3805.00,98.32 3816.00,99.00 3816.00,99.00              3816.00,99.00 3829.00,98.09 3829.00,98.09              3829.00,98.09 3836.00,98.96 3836.00,98.96              3836.00,98.96 3849.00,98.96 3849.00,98.96              3849.00,98.96 3871.00,100.00 3871.00,100.00              3871.00,100.00 3896.00,98.00 3896.00,98.00              3896.00,98.00 3910.00,98.96 3910.00,98.96              3910.00,98.96 3929.00,97.78 3929.00,97.78              3929.00,97.78 3940.00,97.78 3940.00,97.78              3940.00,97.78 3950.00,97.03 3950.00,97.03              3950.00,97.03 3960.00,97.98 3960.00,97.98              3960.00,97.98 3977.00,97.98 3977.00,97.98              3977.00,97.98 3997.00,100.00 3997.00,100.00              3997.00,100.00 4032.00,101.09 4032.00,101.09              4032.00,101.09 4056.00,102.96 4056.00,102.96              4056.00,102.96 4067.00,102.00 4067.00,102.00              4067.00,102.00 4092.00,102.00 4092.00,102.00              4092.00,102.00 4106.00,102.96 4106.00,102.96              4106.00,102.96 4118.00,101.09 4118.00,101.09              4118.00,101.09 4134.00,102.17 4134.00,102.17              4142.16,103.06 4149.36,106.30 4158.00,105.96              4166.16,105.64 4171.95,102.77 4181.00,104.47              4181.00,104.47 4199.00,108.69 4199.00,108.69              4202.26,109.77 4204.11,111.73 4209.00,113.07              4209.00,113.07 4222.00,114.46 4222.00,114.46              4231.51,116.13 4235.85,118.11 4246.00,118.00              4257.27,117.87 4257.23,115.38 4266.00,110.76              4266.00,110.76 4274.00,107.65 4274.00,107.65              4280.60,104.72 4282.78,101.99 4291.00,102.61              4297.15,102.90 4303.87,103.58 4310.00,102.61              4316.64,101.75 4322.79,99.05 4330.00,99.51              4330.00,99.51 4354.00,100.91 4354.00,100.91              4354.00,100.91 4375.00,99.18 4375.00,99.18              4375.00,99.18 4386.00,100.00 4386.00,100.00              4386.00,100.00 4420.00,100.00 4420.00,100.00              4420.00,100.00 4433.00,101.00 4433.00,101.00              4433.00,101.00 4467.00,102.00 4467.00,102.00              4467.00,102.00 4488.00,101.00 4488.00,101.00              4488.00,101.00 4501.00,100.09 4501.00,100.09              4501.00,100.09 4517.00,101.96 4517.00,101.96              4517.00,101.96 4528.00,100.07 4528.00,100.07              4528.00,100.07 4539.00,100.07 4539.00,100.07              4539.00,100.07 4546.00,99.21 4546.00,99.21              4546.00,99.21 4555.00,99.98 4555.00,99.98              4555.00,99.98 4572.00,99.98 4572.00,99.98              4572.00,99.98 4587.00,100.96 4587.00,100.96              4587.00,100.96 4610.00,99.00 4610.00,99.00              4610.00,99.00 4659.00,99.00 4659.00,99.00              4659.00,99.00 4677.00,100.96 4677.00,100.96              4677.00,100.96 4697.00,100.96 4697.00,100.96              4697.00,100.96 4718.00,99.79 4718.00,99.79              4718.00,99.79 4727.00,99.79 4727.00,99.79              4727.00,99.79 4744.00,99.18 4744.00,99.18              4744.00,99.18 4752.00,99.95 4752.00,99.95              4752.00,99.95 4760.00,99.18 4760.00,99.18              4760.00,99.18 4769.00,99.99 4769.00,99.99              4769.00,99.99 4789.00,99.00 4789.00,99.00              4789.00,99.00 4810.00,97.32 4810.00,97.32              4810.00,97.32 4827.00,98.79 4827.00,98.79              4827.00,98.79 4836.00,98.79 4836.00,98.79              4841.19,99.05 4840.80,100.17 4849.00,99.99              4849.00,99.99 4875.00,96.84 4875.00,96.84              4875.00,96.84 4884.00,97.99 4884.00,97.99              4884.00,97.99 4919.00,97.99 4919.00,97.99              4926.57,98.09 4928.54,99.78 4935.00,100.94              4935.00,100.94 4945.00,100.94 4945.00,100.94              4945.00,100.94 4954.00,102.83 4954.00,102.83              4960.35,103.50 4963.09,101.83 4968.00,102.18              4971.95,102.46 4973.40,103.15 4978.00,102.96              4987.40,102.58 4995.48,98.02 5008.00,98.00              5008.00,98.00 5019.00,98.00 5019.00,98.00              5019.00,98.00 5028.00,97.34 5028.00,97.34              5028.00,97.34 5041.00,99.00 5041.00,99.00              5041.00,99.00 5064.00,99.00 5064.00,99.00              5064.00,99.00 5076.00,99.96 5076.00,99.96              5076.00,99.96 5092.00,99.96 5092.00,99.96              5092.00,99.96 5113.00,102.00 5113.00,102.00              5113.00,102.00 5153.00,102.00 5153.00,102.00              5153.00,102.00 5166.00,101.10 5166.00,101.10              5166.00,101.10 5205.00,104.00 5205.00,104.00              5205.00,104.00 5220.00,102.37 5220.00,102.37              5220.00,102.37 5233.00,103.00 5233.00,103.00              5233.00,103.00 5243.00,102.18 5243.00,102.18              5243.00,102.18 5256.00,103.00 5256.00,103.00              5256.00,103.00 5271.00,102.00 5271.00,102.00              5271.00,102.00 5314.00,102.00 5314.00,102.00              5314.00,102.00 5332.00,102.00 5332.00,102.00              5332.00,102.00 5347.00,102.96 5347.00,102.96              5347.00,102.96 5359.00,102.00 5359.00,102.00              5359.00,102.00 5372.00,101.05 5372.00,101.05              5372.00,101.05 5390.00,101.05 5390.00,101.05              5390.00,101.05 5405.00,102.00 5405.00,102.00              5405.00,102.00 5425.00,102.00 5425.00,102.00              5425.00,102.00 5445.00,104.00 5445.00,104.00              5445.00,104.00 5460.00,102.85 5460.00,102.85              5460.00,102.85 5469.00,102.85 5469.00,102.85              5469.00,102.85 5477.00,101.90 5477.00,101.90              5477.00,101.90 5490.00,101.90 5490.00,101.90              5490.00,101.90 5500.00,101.90 5500.00,101.90              5500.00,101.90 5512.00,101.90 5512.00,101.90              5512.00,101.90 5532.00,100.00 5532.00,100.00              5532.00,100.00 5551.00,100.00 5551.00,100.00              5551.00,100.00 5563.00,100.95 5563.00,100.95              5563.00,100.95 5578.00,100.95 5578.00,100.95              5578.00,100.95 5593.00,99.34 5593.00,99.34              5593.00,99.34 5604.00,100.00 5604.00,100.00              5604.00,100.00 5633.00,100.00 5633.00,100.00              5633.00,100.00 5647.00,99.04 5647.00,99.04              5647.00,99.04 5674.00,101.00 5674.00,101.00              5674.00,101.00 5688.00,101.91 5688.00,101.91              5688.00,101.91 5697.00,100.39 5697.00,100.39              5697.00,100.39 5708.00,100.98 5708.00,100.98              5708.00,100.98 5724.00,100.98 5724.00,100.98              5724.00,100.98 5754.00,99.04 5754.00,99.04              5754.00,99.04 5765.00,99.04 5765.00,99.04              5765.00,99.04 5775.00,100.00 5775.00,100.00              5775.00,100.00 5798.00,99.00 5798.00,99.00              5798.00,99.00 5814.00,98.00 5814.00,98.00              5814.00,98.00 5830.00,98.00 5830.00,98.00              5830.00,98.00 5840.00,97.18 5840.00,97.18              5840.00,97.18 5852.00,98.00 5852.00,98.00              5866.58,98.02 5878.20,91.32 5892.00,92.04              5898.11,92.36 5900.31,95.10 5907.00,95.83              5907.00,95.83 5931.00,95.00 5931.00,95.00              5931.00,95.00 5962.00,98.91 5962.00,98.91              5962.00,98.91 5971.00,98.10 5971.00,98.10              5975.13,98.29 5976.69,99.25 5982.00,98.91              5982.00,98.91 6003.00,96.00 6003.00,96.00              6003.00,96.00 6023.00,96.96 6023.00,96.96              6023.00,96.96 6040.00,96.00 6040.00,96.00              6040.00,96.00 6072.00,99.96 6072.00,99.96              6072.00,99.96 6085.00,99.32 6085.00,99.32              6089.73,99.68 6094.22,100.35 6099.00,99.83              6099.00,99.83 6111.00,97.22 6111.00,97.22              6115.99,96.77 6123.47,99.29 6132.00,97.22              6138.47,95.83 6139.86,93.48 6145.00,90.83              6145.00,90.83 6155.00,86.31 6155.00,86.31              6155.00,86.31 6168.00,82.05 6168.00,82.05              6168.00,82.05 6181.00,75.35 6181.00,75.35              6181.00,75.35 6190.00,72.78 6190.00,72.78              6190.00,72.78 6198.00,69.62 6198.00,69.62              6198.00,69.62 6217.00,66.71 6217.00,66.71              6217.00,66.71 6224.00,65.40 6224.00,65.40              6227.64,65.24 6230.56,67.15 6234.00,68.07              6234.00,68.07 6247.00,70.10 6247.00,70.10              6252.27,71.62 6253.98,74.07 6261.00,74.83              6274.70,76.31 6277.98,70.02 6294.00,70.00              6294.00,70.00 6314.00,69.19 6314.00,69.19              6314.00,69.19 6323.00,70.91 6323.00,70.91              6323.00,70.91 6344.00,70.91 6344.00,70.91              6344.00,70.91 6359.00,70.00 6359.00,70.00              6359.00,70.00 6380.00,70.00 6380.00,70.00              6380.00,70.00 6400.00,69.00 6400.00,69.00              6400.00,69.00 6416.00,70.08 6416.00,70.08              6416.00,70.08 6427.00,70.08 6427.00,70.08              6436.54,71.09 6433.80,71.86 6446.00,72.00              6446.00,72.00 6479.00,76.91 6479.00,76.91              6479.00,76.91 6497.00,76.01 6497.00,76.01              6497.00,76.01 6511.00,76.98 6511.00,76.98              6511.00,76.98 6540.00,76.98 6540.00,76.98              6540.00,76.98 6559.00,78.37 6559.00,78.37              6566.60,79.83 6574.06,82.39 6582.00,81.91              6588.96,81.48 6595.34,78.17 6602.00,76.51              6602.00,76.51 6611.00,74.46 6611.00,74.46              6614.48,73.27 6616.10,72.24 6620.00,71.46              6620.00,71.46 6664.00,64.26 6664.00,64.26              6664.00,64.26 6674.00,65.00 6674.00,65.00              6685.90,65.13 6683.46,63.67 6690.00,62.94              6690.00,62.94 6702.00,62.94 6702.00,62.94              6709.52,62.91 6716.67,60.18 6724.00,58.66              6724.00,58.66 6739.00,56.53 6739.00,56.53              6739.00,56.53 6747.00,54.75 6747.00,54.75              6747.00,54.75 6754.00,54.75 6754.00,54.75              6761.20,55.23 6762.14,53.86 6768.00,53.17              6768.00,53.17 6783.00,51.83 6783.00,51.83              6783.00,51.83 6791.00,50.30 6791.00,50.30              6791.00,50.30 6808.00,49.34 6808.00,49.34              6808.00,49.34 6842.00,52.58 6842.00,52.58              6842.00,52.58 6853.00,59.05 6853.00,59.05              6858.60,61.42 6860.93,60.49 6866.00,61.32              6874.70,62.76 6877.54,65.25 6888.00,63.70              6899.19,62.05 6900.64,55.95 6909.00,52.00              6909.00,68.40 6911.89,72.31 6925.00,82.23              6929.12,85.35 6931.88,87.67 6937.00,89.07              6937.00,89.07 6957.00,90.91 6957.00,90.91              6960.82,90.69 6962.55,89.84 6967.00,90.09              6967.00,90.09 6977.00,91.00 6977.00,91.00              6977.00,91.00 7005.00,91.00 7005.00,91.00              7005.00,91.00 7018.00,91.96 7018.00,91.96              7018.00,91.96 7036.00,90.08 7036.00,90.08              7036.00,90.08 7052.00,91.00 7052.00,91.00              7052.00,91.00 7064.00,90.18 7064.00,90.18              7067.97,90.46 7069.37,91.14 7074.00,90.96              7074.00,90.96 7084.00,90.18 7084.00,90.18              7084.00,90.18 7109.00,93.96 7109.00,93.96              7116.26,94.28 7128.40,91.38 7136.00,90.30              7136.00,90.30 7149.00,89.54 7149.00,89.54              7149.00,89.54 7161.00,87.08 7161.00,87.08              7161.00,87.08 7170.00,84.47 7170.00,84.47              7176.07,83.33 7179.15,84.91 7188.00,81.12              7188.00,81.12 7204.00,73.30 7204.00,73.30              7206.86,71.50 7213.55,66.42 7216.00,65.58              7216.00,65.58 7227.00,64.54 7227.00,64.54              7239.95,62.27 7244.53,61.06 7258.00,61.00              7258.00,61.00 7273.00,60.00 7273.00,60.00              7273.00,60.00 7311.00,63.96 7311.00,63.96              7311.00,63.96 7323.00,62.08 7323.00,62.08              7323.00,62.08 7342.00,62.08 7342.00,62.08              7342.00,62.08 7373.00,58.02 7373.00,58.02              7381.81,58.23 7381.94,61.98 7396.00,62.00              7403.48,62.01 7413.30,63.74 7420.00,62.54              7420.00,62.54 7432.00,59.46 7432.00,59.46              7432.00,59.46 7443.00,58.32 7443.00,58.32              7446.34,57.57 7450.77,55.47 7454.00,55.69              7459.04,56.02 7463.96,60.31 7468.00,62.90              7473.00,66.10 7480.04,68.72 7486.00,68.96              7501.89,69.60 7507.16,59.90 7514.00,56.63              7525.03,51.37 7523.92,54.55 7534.00,54.96              7544.99,55.40 7545.61,51.15 7558.00,52.05              7564.44,52.52 7565.72,55.78 7574.00,57.55              7574.00,57.55 7586.00,59.84 7586.00,59.84              7586.00,59.84 7602.00,61.49 7602.00,61.49              7608.08,63.13 7626.80,74.65 7639.00,73.91              7639.00,73.91 7648.00,72.06 7648.00,72.06              7648.00,72.06 7656.00,72.06 7656.00,72.06              7656.00,72.06 7663.00,70.23 7663.00,70.23              7666.80,69.80 7672.03,69.99 7676.00,70.23              7676.00,70.23 7689.00,70.87 7689.00,70.87              7689.00,70.87 7702.00,70.87 7702.00,70.87              7702.00,70.87 7716.00,72.83 7716.00,72.83              7720.68,73.28 7724.13,72.56 7729.00,73.68              7737.89,75.72 7740.36,80.78 7750.00,81.83              7754.09,82.27 7772.59,83.17 7776.00,82.53              7783.81,81.07 7792.89,76.03 7801.00,76.51              7801.00,76.51 7821.00,79.96 7821.00,79.96              7827.40,80.17 7833.95,77.97 7841.00,79.38              7841.00,79.38 7856.00,84.11 7856.00,84.11              7863.03,85.71 7866.60,84.55 7873.00,85.17              7878.01,85.65 7882.92,87.22 7888.00,86.91              7894.04,86.53 7897.21,83.97 7902.00,84.21              7902.00,84.21 7928.00,88.70 7928.00,88.70              7928.00,88.70 7939.00,89.21 7939.00,89.21              7944.77,90.02 7944.83,91.89 7954.00,92.00              7973.32,92.22 7970.87,97.47 7984.00,96.96              7984.00,96.96 7993.00,96.21 7993.00,96.21              7993.00,96.21 8020.00,100.85 8020.00,100.85              8024.21,101.87 8025.39,103.12 8029.00,104.44              8033.18,105.98 8048.76,109.79 8053.00,109.96              8060.91,110.28 8068.28,107.65 8076.00,106.90              8076.00,106.90 8086.00,106.90 8086.00,106.90              8095.19,106.59 8097.43,102.57 8106.00,103.09              8106.00,103.09 8123.00,105.63 8123.00,105.63              8123.00,105.63 8142.00,111.34 8142.00,111.34              8142.00,111.34 8177.00,119.33 8177.00,119.33              8177.00,119.33 8186.00,123.44 8186.00,123.44              8186.00,123.44 8198.49,126.98 8198.49,126.98              8200.21,128.12 8204.42,133.97 8206.13,136.00              8216.57,148.36 8214.73,146.59 8221.26,160.00              8221.26,160.00 8225.68,169.00 8225.68,169.00              8225.68,169.00 8233.37,191.00 8233.37,191.00              8238.01,200.41 8242.56,203.41 8247.08,215.00              8247.08,215.00 8251.93,234.00 8251.93,234.00              8251.93,234.00 8255.56,244.00 8255.56,244.00              8255.56,244.00 8265.21,275.00 8265.21,275.00              8265.21,275.00 8269.13,284.00 8269.13,284.00              8273.23,293.56 8275.82,299.67 8277.74,310.00              8280.91,327.03 8272.43,325.93 8275.47,342.00              8275.98,344.72 8280.57,356.49 8281.91,359.00              8281.91,359.00 8286.07,366.00 8286.07,366.00              8287.77,369.94 8287.69,376.70 8288.46,381.00              8290.23,390.88 8292.98,394.07 8293.00,405.00              8293.00,405.00 8293.00,422.00 8293.00,422.00              8293.00,422.00 8292.16,434.00 8292.16,434.00              8292.16,434.00 8292.16,442.00 8292.16,442.00              8292.16,442.00 8291.00,450.00 8291.00,450.00              8291.00,450.00 8291.00,458.00 8291.00,458.00              8291.00,458.00 8286.04,495.00 8286.04,495.00              8286.04,495.00 8286.91,503.00 8286.91,503.00              8287.44,510.66 8286.83,513.54 8288.46,522.00              8289.94,529.72 8292.79,532.40 8292.99,541.00              8292.99,541.00 8292.04,557.00 8292.04,557.00              8292.19,560.86 8293.09,563.05 8292.70,567.00              8291.35,580.62 8288.35,575.24 8289.68,593.00              8289.68,593.00 8289.04,602.00 8289.04,602.00              8288.76,609.28 8290.22,610.30 8290.83,616.00              8290.83,616.00 8292.00,638.00 8292.00,638.00              8292.21,656.53 8286.53,661.84 8287.04,674.00              8287.04,674.00 8290.70,702.00 8290.70,702.00              8290.70,702.00 8291.47,713.00 8291.47,713.00              8293.32,722.84 8296.15,719.19 8296.00,733.00              8296.00,733.00 8295.00,749.00 8295.00,749.00              8295.10,757.77 8297.50,759.95 8297.49,764.00              8297.49,764.00 8295.09,778.00 8295.09,778.00              8295.09,778.00 8295.09,802.00 8295.09,802.00              8295.11,811.29 8296.79,818.01 8294.40,828.00              8294.40,828.00 8291.52,840.00 8291.52,840.00              8290.17,844.61 8286.56,848.35 8287.09,857.00              8287.82,868.79 8296.97,876.25 8297.63,889.00              8297.63,889.00 8296.09,906.00 8296.09,906.00              8296.70,917.75 8295.14,913.11 8293.98,922.00              8293.98,922.00 8293.98,933.00 8293.98,933.00              8292.91,939.26 8291.05,938.38 8291.00,949.00              8291.00,949.00 8294.82,989.00 8294.82,989.00              8294.82,989.00 8293.04,999.00 8293.04,999.00              8293.04,999.00 8293.04,1010.00 8293.04,1010.00              8293.04,1010.00 8291.96,1022.00 8291.96,1022.00              8291.96,1022.00 8291.96,1034.00 8291.96,1034.00              8291.65,1037.80 8290.84,1039.84 8291.09,1044.00              8291.44,1049.73 8294.11,1055.20 8293.68,1061.00              8293.68,1061.00 8292.09,1077.00 8292.09,1077.00              8292.09,1077.00 8292.75,1088.00 8292.75,1088.00              8292.36,1092.03 8290.03,1094.90 8290.03,1102.00              8290.03,1107.15 8291.07,1108.60 8291.70,1113.00              8291.70,1113.00 8293.00,1132.00 8293.00,1132.00              8293.00,1132.00 8293.70,1149.00 8293.70,1149.00              8293.70,1149.00 8290.23,1160.00 8290.23,1160.00              8289.75,1163.82 8290.04,1169.91 8290.23,1174.00              8290.23,1174.00 8289.09,1187.00 8289.09,1187.00              8289.09,1187.00 8291.00,1212.00 8291.00,1212.00              8291.00,1212.00 8290.04,1225.00 8290.04,1225.00              8290.04,1225.00 8292.00,1245.00 8292.00,1245.00              8292.00,1245.00 8289.00,1287.00 8289.00,1287.00              8289.00,1287.00 8291.68,1311.00 8291.68,1311.00              8291.68,1311.00 8291.17,1330.00 8291.17,1330.00              8291.17,1330.00 8291.17,1342.00 8291.17,1342.00              8291.17,1342.00 8291.17,1351.00 8291.17,1351.00              8291.17,1351.00 8292.51,1376.00 8292.51,1376.00              8292.41,1380.44 8290.11,1382.15 8290.00,1391.00              8289.83,1406.17 8293.44,1406.46 8292.96,1416.00              8292.67,1421.77 8290.31,1424.26 8290.04,1431.00              8290.04,1431.00 8290.69,1444.00 8290.69,1444.00              8289.62,1452.98 8286.68,1461.81 8287.04,1471.00              8287.21,1475.32 8288.63,1479.70 8287.59,1484.00              8285.92,1490.89 8279.14,1497.99 8275.91,1504.00              8273.02,1509.40 8273.64,1513.01 8272.02,1515.49              8272.02,1515.49 8264.33,1523.01 8264.33,1523.01              8257.99,1530.51 8257.83,1535.83 8258.53,1545.00              8258.97,1550.65 8256.32,1552.94 8256.04,1560.00              8255.72,1567.90 8258.43,1574.03 8261.78,1581.00              8263.76,1585.12 8266.57,1588.27 8266.01,1593.00              8265.41,1597.96 8263.75,1600.06 8264.09,1606.00              8264.47,1612.50 8266.09,1613.34 8266.11,1623.00              8265.91,1631.10 8263.58,1636.52 8266.11,1645.00              8271.07,1660.61 8276.99,1665.43 8279.78,1672.00              8279.78,1672.00 8282.20,1681.00 8282.20,1681.00              8283.15,1684.25 8284.18,1686.50 8284.70,1690.00              8284.70,1690.00 8285.57,1703.00 8285.57,1703.00              8284.95,1706.71 8280.56,1714.42 8281.09,1723.00              8281.57,1730.66 8284.66,1733.01 8285.74,1738.00              8287.30,1745.16 8287.05,1752.72 8287.00,1760.00              8286.92,1772.80 8281.80,1767.98 8282.00,1786.00              8282.15,1798.83 8287.22,1801.74 8287.90,1809.00              8288.59,1816.44 8285.69,1819.27 8286.04,1828.00              8286.41,1837.11 8290.40,1839.73 8290.91,1848.00              8291.35,1855.13 8288.68,1857.73 8289.09,1865.00              8289.41,1870.55 8290.62,1875.10 8289.79,1881.00              8289.79,1881.00 8287.92,1888.00 8287.92,1888.00              8286.47,1893.40 8284.85,1902.47 8285.20,1908.00              8285.20,1908.00 8285.20,1915.00 8285.20,1915.00              8284.69,1923.28 8277.74,1933.41 8278.02,1947.00              8278.21,1956.60 8282.46,1961.85 8282.49,1967.00              8282.53,1971.96 8278.01,1977.86 8279.17,1990.00              8279.53,1993.79 8280.19,2001.75 8281.22,2005.00              8282.47,2008.93 8285.68,2013.14 8285.60,2017.00              8285.51,2021.83 8280.49,2026.24 8281.09,2036.00              8281.47,2042.19 8283.81,2045.18 8284.81,2049.00              8285.17,2051.64 8285.00,2057.08 8284.81,2060.00              8284.81,2060.00 8285.96,2073.00 8285.96,2073.00              8285.96,2073.00 8285.19,2084.00 8285.19,2084.00              8285.19,2084.00 8285.19,2091.00 8285.19,2091.00              8285.19,2091.00 8285.19,2099.00 8285.19,2099.00              8284.67,2109.04 8287.81,2111.17 8288.90,2117.00              8288.90,2117.00 8288.90,2142.00 8288.90,2142.00              8288.91,2149.60 8287.47,2150.45 8287.09,2156.00              8286.73,2161.28 8287.84,2163.71 8287.82,2167.00              8287.82,2167.00 8285.79,2184.00 8285.79,2184.00              8285.79,2184.00 8283.47,2193.00 8283.47,2193.00              8283.47,2193.00 8282.09,2211.00 8282.09,2211.00              8282.46,2216.97 8285.32,2222.80 8284.91,2230.00              8284.91,2230.00 8284.04,2237.00 8284.04,2237.00              8284.04,2237.00 8284.04,2253.00 8284.04,2253.00              8284.02,2267.99 8288.90,2267.61 8288.25,2279.00              8287.54,2291.59 8281.14,2293.67 8281.00,2307.00              8280.85,2322.45 8288.05,2330.57 8289.58,2337.00              8290.55,2341.06 8289.03,2345.68 8289.03,2350.00              8289.03,2350.00 8290.66,2371.00 8290.66,2371.00              8290.62,2374.57 8288.09,2381.86 8287.21,2386.00              8287.21,2386.00 8285.30,2399.00 8285.30,2399.00              8285.30,2399.00 8281.95,2406.00 8281.95,2406.00              8280.24,2410.11 8277.82,2421.59 8278.09,2426.00              8278.09,2426.00 8281.95,2448.00 8281.95,2448.00              8285.31,2456.03 8289.87,2460.64 8290.00,2470.00              8290.00,2470.00 8291.17,2489.00 8291.17,2489.00              8291.17,2489.00 8292.74,2498.00 8292.74,2498.00              8292.74,2498.00 8291.87,2510.00 8291.87,2510.00              8291.37,2513.95 8288.97,2517.19 8287.93,2521.00              8286.35,2526.77 8287.47,2530.40 8286.67,2535.00              8285.60,2541.20 8283.12,2542.04 8283.00,2552.00              8283.00,2552.00 8283.00,2556.00 8283.00,2556.00              8283.00,2556.00 8283.51,2564.00 8283.51,2564.00              8283.51,2564.00 8280.00,2579.00 8280.00,2579.00              8277.78,2583.57 8271.03,2587.94 8271.03,2600.00              8271.03,2606.54 8273.60,2612.72 8275.10,2619.00              8276.42,2624.48 8276.44,2629.36 8278.56,2635.00              8281.87,2643.85 8285.49,2641.42 8285.09,2652.00              8284.80,2659.42 8287.27,2662.31 8286.88,2668.00              8286.53,2673.23 8283.77,2675.92 8284.04,2684.00              8284.04,2684.00 8285.79,2697.00 8285.79,2697.00              8285.46,2702.16 8279.16,2714.84 8279.00,2728.00              8278.84,2741.80 8280.46,2740.26 8282.54,2752.00              8282.54,2752.00 8284.46,2770.00 8284.46,2770.00              8285.42,2775.33 8287.82,2785.89 8287.82,2791.00              8287.82,2800.11 8284.02,2804.03 8284.01,2816.00              8284.01,2816.00 8284.01,2843.00 8284.01,2843.00              8284.01,2843.00 8284.53,2851.00 8284.53,2851.00              8284.36,2854.63 8282.76,2857.19 8283.09,2863.00              8283.09,2863.00 8284.47,2882.00 8284.47,2882.00              8285.23,2886.11 8287.30,2889.70 8286.77,2894.00              8286.77,2894.00 8283.93,2903.00 8283.93,2903.00              8283.93,2903.00 8281.21,2920.00 8281.21,2920.00              8280.75,2925.52 8282.46,2927.40 8281.21,2933.00              8279.34,2942.86 8275.15,2943.97 8275.00,2956.00              8274.83,2970.40 8275.06,2974.17 8280.09,2988.00              8283.30,2996.83 8286.17,2998.01 8288.08,3009.00              8288.08,3009.00 8287.00,3026.00 8287.00,3026.00              8287.10,3035.17 8289.19,3035.97 8289.78,3041.00              8289.78,3041.00 8289.17,3055.00 8289.17,3055.00              8289.07,3057.50 8289.88,3061.97 8289.17,3064.00              8288.67,3066.40 8284.88,3071.07 8283.33,3074.00              8280.39,3079.56 8279.87,3083.83 8280.01,3090.00              8280.20,3098.22 8282.86,3100.88 8282.87,3104.00              8282.87,3104.00 8279.45,3115.00 8279.45,3115.00              8277.76,3122.93 8277.91,3128.03 8278.00,3136.00              8278.00,3136.00 8278.82,3146.00 8278.82,3146.00              8278.82,3146.00 8278.09,3153.00 8278.09,3153.00              8278.09,3153.00 8280.92,3173.00 8280.92,3173.00              8280.92,3173.00 8280.92,3182.00 8280.92,3182.00              8280.92,3182.00 8281.66,3195.00 8281.66,3195.00              8281.66,3195.00 8279.04,3209.00 8279.04,3209.00              8278.83,3215.48 8280.61,3217.93 8280.66,3222.00              8280.66,3222.00 8280.04,3228.00 8280.04,3228.00              8280.04,3228.00 8280.04,3238.00 8280.04,3238.00              8280.04,3238.00 8279.04,3249.00 8279.04,3249.00              8279.04,3249.00 8279.82,3261.00 8279.82,3261.00              8279.82,3261.00 8278.63,3276.00 8278.63,3276.00              8277.41,3282.37 8276.10,3281.67 8276.00,3290.00              8275.93,3296.20 8277.30,3311.98 8278.47,3318.00              8279.64,3324.09 8282.36,3326.71 8282.51,3331.00              8282.90,3342.65 8278.14,3351.62 8277.95,3363.00              8277.95,3363.00 8277.95,3378.00 8277.95,3378.00              8276.76,3383.07 8271.03,3390.01 8271.03,3400.00              8271.03,3408.81 8274.96,3415.17 8276.61,3423.00              8277.52,3427.30 8276.26,3430.86 8278.22,3437.00              8280.01,3442.58 8283.13,3445.03 8283.64,3449.00              8284.44,3455.34 8278.67,3459.65 8278.09,3469.00              8277.78,3474.14 8279.05,3476.35 8279.13,3480.00              8279.13,3480.00 8279.13,3493.00 8279.13,3493.00              8279.10,3501.24 8280.39,3500.60 8281.63,3507.00              8281.63,3507.00 8282.46,3515.00 8282.46,3515.00              8282.81,3517.04 8283.40,3518.89 8283.40,3521.00              8283.40,3521.00 8280.46,3535.00 8280.46,3535.00              8280.46,3535.00 8278.87,3552.00 8278.87,3552.00              8278.87,3552.00 8276.09,3567.00 8276.09,3567.00              8275.63,3574.09 8277.48,3576.15 8277.91,3582.00              8277.91,3582.00 8278.82,3596.00 8278.82,3596.00              8278.82,3596.00 8278.09,3606.00 8278.09,3606.00              8278.09,3606.00 8279.79,3624.00 8279.79,3624.00              8279.79,3624.00 8277.00,3647.00 8277.00,3647.00              8277.00,3647.00 8278.00,3675.00 8278.00,3675.00              8278.12,3685.23 8283.37,3691.55 8282.86,3701.00              8282.65,3704.81 8280.56,3708.18 8279.68,3712.00              8279.68,3712.00 8276.09,3738.00 8276.09,3738.00              8275.73,3744.23 8277.37,3746.47 8278.67,3752.00              8278.67,3752.00 8280.46,3765.00 8280.46,3765.00              8280.92,3767.60 8281.58,3769.22 8281.54,3772.00              8281.54,3772.00 8280.00,3784.00 8280.00,3784.00              8280.00,3784.00 8280.00,3795.00 8280.00,3795.00              8280.00,3795.00 8278.17,3804.00 8278.17,3804.00              8278.17,3804.00 8277.00,3834.00 8277.00,3834.00              8276.98,3845.05 8274.62,3846.79 8274.09,3855.00              8273.42,3865.29 8277.89,3867.96 8276.83,3878.00              8276.83,3878.00 8273.30,3894.00 8273.30,3894.00              8273.30,3894.00 8271.83,3912.00 8271.83,3912.00              8271.83,3912.00 8270.29,3921.00 8270.29,3921.00              8270.29,3921.00 8269.09,3935.00 8269.09,3935.00              8268.48,3943.91 8270.45,3953.24 8271.70,3962.00              8271.70,3962.00 8272.29,3970.00 8272.29,3970.00              8272.84,3974.25 8274.13,3977.56 8273.82,3982.00              8273.54,3985.86 8272.79,3987.68 8273.09,3992.00              8273.09,3992.00 8274.74,4001.00 8274.74,4001.00              8277.04,4013.35 8281.20,4028.92 8281.00,4041.00              8280.86,4049.29 8278.32,4048.89 8276.68,4056.00              8275.74,4060.09 8275.95,4067.57 8276.18,4072.00              8276.05,4075.75 8277.18,4080.78 8276.18,4084.00              8275.30,4088.05 8270.52,4094.70 8271.09,4104.00              8271.84,4116.06 8279.64,4118.79 8279.72,4126.00              8279.81,4133.12 8275.69,4137.52 8274.47,4144.00              8274.47,4144.00 8273.83,4155.00 8273.83,4155.00              8273.83,4155.00 8271.30,4170.00 8271.30,4170.00              8271.30,4170.00 8270.38,4180.00 8270.38,4180.00              8269.40,4185.20 8268.52,4185.77 8267.22,4190.00              8265.55,4195.43 8263.88,4207.29 8264.01,4213.00              8264.11,4217.11 8266.71,4232.48 8268.40,4236.00              8271.29,4242.02 8275.20,4244.44 8276.83,4247.28              8278.48,4250.15 8279.13,4257.63 8278.96,4261.00              8278.54,4268.97 8275.02,4267.94 8275.00,4282.00              8275.00,4282.00 8275.00,4287.00 8275.00,4287.00              8275.00,4287.00 8274.18,4298.00 8274.18,4298.00              8274.18,4298.00 8274.18,4307.00 8274.18,4307.00              8274.18,4307.00 8274.18,4315.00 8274.18,4315.00              8274.45,4320.29 8276.18,4323.06 8276.54,4326.00              8276.94,4329.30 8275.35,4334.19 8275.04,4338.00              8275.04,4338.00 8275.04,4347.00 8275.04,4347.00              8275.04,4347.00 8273.04,4369.00 8273.04,4369.00              8273.04,4369.00 8273.04,4381.00 8273.04,4381.00              8272.95,4390.76 8270.56,4391.92 8271.04,4403.00              8271.04,4403.00 8273.44,4426.00 8273.44,4426.00              8273.44,4426.00 8275.79,4438.00 8275.79,4438.00              8275.79,4438.00 8275.01,4452.00 8275.01,4452.00              8275.01,4452.00 8275.77,4461.00 8275.77,4461.00              8275.42,4465.66 8271.63,4468.40 8269.56,4474.00              8268.00,4478.22 8268.20,4481.74 8267.34,4486.00              8267.34,4486.00 8265.41,4496.00 8265.41,4496.00              8265.41,4496.00 8263.30,4504.00 8263.30,4504.00              8261.89,4513.58 8266.37,4521.28 8266.91,4530.00              8267.12,4533.51 8265.47,4542.70 8264.32,4546.00              8264.32,4546.00 8261.40,4552.00 8261.40,4552.00              8258.83,4557.54 8258.31,4565.07 8259.68,4571.00              8262.35,4582.57 8275.51,4594.11 8278.36,4599.04              8282.44,4606.10 8280.75,4607.79 8281.04,4615.00              8281.52,4626.69 8286.12,4622.87 8283.70,4638.00              8282.26,4647.07 8278.06,4649.24 8275.56,4656.00              8272.75,4663.59 8274.66,4666.29 8274.42,4673.00              8274.66,4676.26 8273.62,4678.75 8274.42,4684.00              8274.78,4689.75 8277.02,4695.41 8280.53,4700.00              8282.82,4703.00 8286.74,4706.28 8287.48,4710.00              8287.48,4710.00 8286.00,4724.00 8286.00,4724.00              8285.91,4733.46 8287.10,4732.21 8287.96,4739.00              8287.96,4739.00 8287.96,4749.00 8287.96,4749.00              8287.96,4749.00 8290.20,4762.00 8290.20,4762.00              8290.20,4762.00 8290.20,4769.00 8290.20,4769.00              8289.90,4773.06 8290.66,4778.92 8291.29,4783.00              8291.29,4783.00 8295.17,4805.00 8295.17,4805.00              8295.17,4805.00 8295.17,4813.00 8295.17,4813.00              8294.90,4822.46 8294.67,4831.66 8296.46,4841.00              8298.26,4850.40 8301.98,4858.21 8302.00,4868.00              8302.01,4876.78 8302.84,4893.58 8304.29,4902.00              8304.29,4902.00 8307.61,4913.00 8307.61,4913.00              8307.61,4913.00 8308.96,4929.00 8308.96,4929.00              8308.96,4929.00 8306.70,4959.00 8306.70,4959.00              8306.70,4959.00 8305.04,4969.00 8305.04,4969.00              8305.04,4969.00 8306.98,4988.00 8306.98,4988.00              8307.16,4997.06 8304.66,4999.00 8305.09,5006.00              8305.09,5006.00 8306.79,5016.00 8306.79,5016.00              8306.79,5016.00 8306.09,5027.00 8306.09,5027.00              8306.09,5027.00 8307.90,5044.00 8307.90,5044.00              8307.90,5044.00 8307.00,5056.00 8307.00,5056.00              8306.86,5068.53 8307.93,5073.32 8304.87,5086.00              8303.04,5093.58 8299.14,5093.69 8299.13,5106.00              8299.13,5106.00 8299.13,5117.00 8299.13,5117.00              8299.13,5117.00 8298.09,5124.00 8298.09,5124.00              8298.09,5124.00 8298.09,5133.00 8298.09,5133.00              8298.09,5141.05 8298.93,5145.29 8294.61,5152.83              8294.61,5152.83 8287.79,5161.00 8287.79,5161.00              8284.01,5166.26 8280.77,5176.49 8281.18,5183.00              8281.19,5184.91 8281.69,5187.15 8281.18,5189.00              8280.71,5191.53 8278.22,5194.58 8276.90,5197.00              8276.90,5197.00 8272.76,5207.00 8272.76,5207.00              8270.47,5211.47 8267.92,5213.76 8266.22,5219.00              8262.59,5230.18 8264.69,5231.15 8265.17,5241.00              8265.17,5241.00 8265.17,5249.00 8265.17,5249.00              8265.11,5251.31 8265.61,5253.71 8265.17,5256.00              8265.72,5253.06 8259.99,5275.08 8261.16,5272.00              8259.47,5276.46 8254.70,5281.15 8254.09,5291.00              8253.73,5296.90 8255.54,5299.37 8255.07,5303.00              8255.07,5303.00 8247.47,5325.00 8247.47,5325.00              8244.38,5341.38 8256.52,5354.84 8272.00,5358.00              8272.00,5358.00 8266.93,5372.00 8266.93,5372.00              8266.20,5374.69 8266.09,5378.85 8264.98,5380.91              8263.06,5384.45 8257.87,5386.71 8253.48,5394.00              8249.47,5400.64 8250.28,5405.17 8247.44,5408.68              8247.44,5408.68 8229.09,5423.09 8229.09,5423.09              8224.07,5428.15 8220.91,5435.65 8214.83,5440.35              8212.36,5442.27 8196.44,5448.77 8189.00,5454.53              8181.21,5460.56 8178.95,5467.59 8173.83,5470.30              8169.04,5472.83 8164.11,5471.56 8159.00,5472.30              8159.00,5472.30 8141.00,5477.22 8141.00,5477.22              8141.00,5477.22 8132.00,5481.31 8132.00,5481.31              8132.00,5481.31 8124.00,5482.93 8124.00,5482.93              8124.00,5482.93 8115.00,5486.52 8115.00,5486.52              8115.00,5486.52 8086.00,5492.28 8086.00,5492.28              8086.00,5492.28 8074.00,5494.66 8074.00,5494.66              8074.00,5494.66 8056.00,5492.61 8056.00,5492.61              8050.91,5491.51 8048.63,5488.57 8038.00,5489.04              8028.00,5489.47 8023.27,5495.38 8014.00,5495.74              8014.00,5495.74 8002.00,5495.01 8002.00,5495.01              8002.00,5495.01 7992.00,5495.79 7992.00,5495.79              7992.00,5495.79 7979.00,5494.04 7979.00,5494.04              7979.00,5494.04 7971.00,5494.04 7971.00,5494.04              7971.00,5494.04 7959.00,5493.00 7959.00,5493.00              7959.00,5493.00 7929.00,5493.00 7929.00,5493.00              7929.00,5493.00 7916.00,5493.92 7916.00,5493.92              7916.00,5493.92 7897.00,5492.09 7897.00,5492.09              7897.00,5492.09 7883.00,5493.00 7883.00,5493.00              7883.00,5493.00 7850.00,5491.13 7850.00,5491.13              7850.00,5491.13 7830.00,5491.13 7830.00,5491.13              7830.00,5491.13 7815.00,5490.00 7815.00,5490.00              7815.00,5490.00 7800.00,5490.00 7800.00,5490.00              7800.00,5490.00 7784.00,5489.00 7784.00,5489.00              7784.00,5489.00 7760.00,5489.00 7760.00,5489.00              7760.00,5489.00 7743.00,5488.01 7743.00,5488.01              7743.00,5488.01 7730.00,5489.00 7730.00,5489.00              7730.00,5489.00 7704.00,5489.00 7704.00,5489.00              7690.97,5488.98 7686.29,5486.16 7676.00,5485.33              7676.00,5485.33 7662.00,5485.33 7662.00,5485.33              7662.00,5485.33 7650.00,5484.71 7650.00,5484.71              7650.00,5484.71 7641.00,5483.17 7641.00,5483.17              7641.00,5483.17 7624.00,5481.72 7624.00,5481.72              7614.60,5480.45 7612.17,5478.89 7602.00,5479.00              7602.00,5479.00 7587.00,5479.99 7587.00,5479.99              7587.00,5479.99 7575.00,5479.19 7575.00,5479.19              7575.00,5479.19 7564.00,5479.19 7564.00,5479.19              7564.00,5479.19 7554.00,5479.19 7554.00,5479.19              7554.00,5479.19 7536.00,5479.19 7536.00,5479.19              7536.00,5479.19 7524.00,5479.19 7524.00,5479.19              7520.51,5479.27 7518.75,5478.78 7515.00,5479.19              7515.00,5479.19 7497.00,5482.92 7497.00,5482.92              7492.83,5482.89 7489.09,5480.90 7485.00,5480.15              7485.00,5480.15 7468.00,5480.15 7468.00,5480.15              7456.09,5480.02 7457.64,5481.90 7450.00,5482.82              7450.00,5482.82 7425.00,5484.00 7425.00,5484.00              7418.44,5483.92 7412.41,5482.21 7406.00,5481.30              7406.00,5481.30 7396.00,5480.63 7396.00,5480.63              7389.47,5479.38 7389.11,5477.74 7381.00,5478.27              7381.00,5478.27 7374.00,5478.27 7374.00,5478.27              7369.41,5478.20 7367.53,5476.10 7359.00,5476.00              7359.00,5476.00 7322.00,5473.00 7322.00,5473.00              7322.00,5473.00 7299.00,5474.00 7299.00,5474.00              7290.67,5474.10 7291.37,5475.41 7285.00,5476.63              7285.00,5476.63 7273.00,5477.30 7273.00,5477.30              7264.87,5478.47 7266.82,5479.98 7256.00,5480.00              7256.00,5480.00 7231.00,5480.00 7231.00,5480.00              7231.00,5480.00 7213.00,5481.00 7213.00,5481.00              7213.00,5481.00 7193.00,5482.17 7193.00,5482.17              7186.52,5482.88 7186.04,5484.89 7178.00,5485.00              7178.00,5485.00 7165.00,5485.00 7165.00,5485.00              7165.00,5485.00 7140.00,5487.00 7140.00,5487.00              7140.00,5487.00 7109.00,5488.09 7109.00,5488.09              7109.00,5488.09 7081.00,5490.14 7081.00,5490.14              7081.00,5490.14 7070.00,5490.14 7070.00,5490.14              7070.00,5490.14 7050.00,5490.14 7050.00,5490.14              7050.00,5490.14 7038.00,5491.21 7038.00,5491.21              7038.00,5491.21 7016.00,5491.21 7016.00,5491.21              7016.00,5491.21 7001.00,5492.39 7001.00,5492.39              6994.65,5492.08 6989.86,5489.11 6981.00,5489.00              6976.04,5488.95 6965.38,5488.67 6961.00,5489.68              6961.00,5489.68 6951.00,5493.37 6951.00,5493.37              6951.00,5493.37 6940.00,5495.22 6940.00,5495.22              6936.60,5496.28 6933.56,5498.26 6930.00,5498.79              6925.77,5499.41 6920.55,5498.06 6916.00,5498.00              6916.00,5498.00 6894.00,5499.00 6894.00,5499.00              6894.00,5499.00 6868.00,5495.01 6868.00,5495.01              6852.73,5494.66 6855.22,5499.80 6838.00,5500.00              6826.82,5500.14 6816.00,5502.13 6805.00,5503.70              6805.00,5503.70 6791.00,5504.46 6791.00,5504.46              6791.00,5504.46 6778.00,5507.82 6778.00,5507.82              6764.31,5509.64 6745.18,5509.17 6731.00,5509.00              6722.59,5508.89 6722.93,5507.24 6716.00,5505.68              6716.00,5505.68 6704.00,5504.61 6704.00,5504.61              6704.00,5504.61 6691.00,5500.80 6691.00,5500.80              6691.00,5500.80 6661.00,5495.46 6661.00,5495.46              6661.00,5495.46 6652.00,5494.30 6652.00,5494.30              6652.00,5494.30 6645.00,5490.95 6645.00,5490.95              6641.57,5489.50 6632.72,5486.76 6629.00,5486.00              6615.58,5483.27 6600.70,5483.98 6587.00,5484.00              6587.00,5484.00 6575.00,5484.90 6575.00,5484.90              6575.00,5484.90 6558.00,5484.00 6558.00,5484.00              6558.00,5484.00 6531.00,5481.70 6531.00,5481.70              6522.62,5480.51 6522.02,5479.02 6512.00,5479.00              6512.00,5479.00 6497.00,5479.00 6497.00,5479.00              6497.00,5479.00 6478.00,5478.00 6478.00,5478.00              6478.00,5478.00 6464.00,5478.82 6464.00,5478.82              6464.00,5478.82 6453.00,5478.00 6453.00,5478.00              6453.00,5478.00 6435.00,5478.00 6435.00,5478.00              6435.00,5478.00 6422.00,5478.82 6422.00,5478.82              6422.00,5478.82 6386.00,5477.00 6386.00,5477.00              6386.00,5477.00 6371.00,5476.09 6371.00,5476.09              6371.00,5476.09 6358.00,5476.99 6358.00,5476.99              6358.00,5476.99 6349.00,5476.04 6349.00,5476.04              6349.00,5476.04 6336.00,5476.04 6336.00,5476.04              6336.00,5476.04 6321.00,5475.00 6321.00,5475.00              6321.00,5475.00 6301.00,5475.82 6301.00,5475.82              6301.00,5475.82 6278.00,5473.00 6278.00,5473.00              6278.00,5473.00 6269.00,5473.00 6269.00,5473.00              6269.00,5473.00 6233.00,5470.00 6233.00,5470.00              6233.00,5470.00 6210.00,5470.00 6210.00,5470.00              6210.00,5470.00 6201.00,5470.66 6201.00,5470.66              6201.00,5470.66 6184.00,5470.00 6184.00,5470.00              6184.00,5470.00 6169.00,5471.00 6169.00,5471.00              6169.00,5471.00 6151.00,5471.00 6151.00,5471.00              6151.00,5471.00 6136.00,5470.00 6136.00,5470.00              6136.00,5470.00 6096.00,5470.00 6096.00,5470.00              6096.00,5470.00 6075.00,5469.00 6075.00,5469.00              6075.00,5469.00 6061.00,5468.00 6061.00,5468.00              6061.00,5468.00 6046.00,5468.66 6046.00,5468.66              6046.00,5468.66 6024.00,5467.00 6024.00,5467.00              6024.00,5467.00 5992.00,5466.00 5992.00,5466.00              5992.00,5466.00 5978.00,5467.43 5978.00,5467.43              5978.00,5467.43 5951.00,5466.00 5951.00,5466.00              5951.00,5466.00 5936.00,5466.00 5936.00,5466.00              5936.00,5466.00 5923.00,5467.08 5923.00,5467.08              5923.00,5467.08 5909.00,5467.08 5909.00,5467.08              5909.00,5467.08 5897.00,5468.65 5897.00,5468.65              5897.00,5468.65 5885.00,5466.17 5885.00,5466.17              5885.00,5466.17 5872.00,5466.68 5872.00,5466.68              5872.00,5466.68 5855.00,5465.00 5855.00,5465.00              5855.00,5465.00 5829.00,5465.00 5829.00,5465.00              5829.00,5465.00 5800.00,5462.00 5800.00,5462.00              5800.00,5462.00 5773.00,5463.96 5773.00,5463.96              5773.00,5463.96 5758.00,5463.09 5758.00,5463.09              5758.00,5463.09 5746.00,5463.99 5746.00,5463.99              5746.00,5463.99 5737.00,5463.09 5737.00,5463.09              5737.00,5463.09 5710.00,5462.00 5710.00,5462.00              5710.00,5462.00 5693.00,5463.83 5693.00,5463.83              5693.00,5463.83 5676.00,5464.66 5676.00,5464.66              5676.00,5464.66 5665.00,5463.04 5665.00,5463.04              5665.00,5463.04 5643.00,5463.04 5643.00,5463.04              5643.00,5463.04 5628.00,5461.09 5628.00,5461.09              5628.00,5461.09 5614.00,5461.66 5614.00,5461.66              5614.00,5461.66 5590.00,5460.00 5590.00,5460.00              5590.00,5460.00 5567.00,5457.92 5567.00,5457.92              5567.00,5457.92 5549.00,5457.92 5549.00,5457.92              5549.00,5457.92 5531.00,5456.00 5531.00,5456.00              5531.00,5456.00 5421.00,5456.00 5421.00,5456.00              5421.00,5456.00 5407.00,5457.63 5407.00,5457.63              5392.10,5456.95 5391.20,5453.30 5365.00,5453.00              5365.00,5453.00 5350.00,5452.00 5350.00,5452.00              5350.00,5452.00 5338.00,5452.00 5338.00,5452.00              5338.00,5452.00 5321.00,5451.00 5321.00,5451.00              5321.00,5451.00 5305.00,5450.00 5305.00,5450.00              5305.00,5450.00 5287.00,5450.00 5287.00,5450.00              5287.00,5450.00 5272.00,5448.96 5272.00,5448.96              5272.00,5448.96 5259.00,5448.96 5259.00,5448.96              5259.00,5448.96 5250.00,5448.03 5250.00,5448.03              5250.00,5448.03 5238.00,5449.00 5238.00,5449.00              5238.00,5449.00 5220.00,5449.00 5220.00,5449.00              5220.00,5449.00 5205.00,5448.00 5205.00,5448.00              5205.00,5448.00 5190.00,5446.96 5190.00,5446.96              5190.00,5446.96 5180.00,5446.96 5180.00,5446.96              5174.47,5446.24 5174.43,5445.09 5167.00,5445.00              5167.00,5445.00 5149.00,5446.00 5149.00,5446.00              5149.00,5446.00 5139.00,5446.00 5139.00,5446.00              5139.00,5446.00 5106.00,5444.00 5106.00,5444.00              5106.00,5444.00 5093.00,5444.99 5093.00,5444.99              5093.00,5444.99 5080.00,5444.06 5080.00,5444.06              5080.00,5444.06 5062.00,5444.06 5062.00,5444.06              5062.00,5444.06 5053.00,5444.92 5053.00,5444.92              5053.00,5444.92 5042.00,5443.92 5042.00,5443.92              5042.00,5443.92 5031.00,5443.92 5031.00,5443.92              5023.99,5443.08 5025.93,5442.02 5016.00,5442.00              5016.00,5442.00 4993.00,5441.09 4993.00,5441.09              4993.00,5441.09 4983.00,5440.56 4983.00,5440.56              4983.00,5440.56 4942.00,5432.24 4942.00,5432.24              4932.15,5429.72 4928.89,5426.76 4918.00,5427.01              4918.00,5427.01 4900.00,5429.49 4900.00,5429.49              4900.00,5429.49 4880.00,5428.00 4880.00,5428.00              4880.00,5428.00 4867.00,5429.00 4867.00,5429.00              4867.00,5429.00 4845.00,5429.00 4845.00,5429.00              4845.00,5429.00 4825.00,5427.08 4825.00,5427.08              4825.00,5427.08 4814.00,5427.08 4814.00,5427.08              4805.78,5426.89 4804.96,5424.60 4798.00,5424.09              4792.09,5423.66 4790.16,5424.56 4785.00,5424.96              4785.00,5424.96 4775.00,5424.96 4775.00,5424.96              4775.00,5424.96 4753.00,5427.00 4753.00,5427.00              4753.00,5427.00 4725.00,5428.17 4725.00,5428.17              4715.79,5429.10 4717.76,5430.13 4706.00,5430.00              4706.00,5430.00 4691.00,5429.00 4691.00,5429.00              4691.00,5429.00 4655.00,5430.00 4655.00,5430.00              4655.00,5430.00 4644.00,5430.79 4644.00,5430.79              4644.00,5430.79 4621.00,5428.08 4621.00,5428.08              4621.00,5428.08 4604.00,5428.08 4604.00,5428.08              4604.00,5428.08 4593.00,5427.04 4593.00,5427.04              4593.00,5427.04 4580.00,5427.79 4580.00,5427.79              4580.00,5427.79 4565.00,5426.04 4565.00,5426.04              4565.00,5426.04 4543.00,5426.04 4543.00,5426.04              4543.00,5426.04 4526.00,5424.63 4526.00,5424.63              4517.83,5423.05 4520.45,5422.02 4510.00,5422.00              4510.00,5422.00 4479.00,5420.00 4479.00,5420.00              4479.00,5420.00 4456.00,5420.00 4456.00,5420.00              4456.00,5420.00 4443.00,5419.09 4443.00,5419.09              4443.00,5419.09 4436.00,5419.82 4436.00,5419.82              4436.00,5419.82 4429.00,5419.00 4429.00,5419.00              4429.00,5419.00 4418.00,5419.00 4418.00,5419.00              4418.00,5419.00 4406.00,5418.00 4406.00,5418.00              4406.00,5418.00 4375.00,5418.00 4375.00,5418.00              4375.00,5418.00 4352.00,5416.09 4352.00,5416.09              4346.00,5416.44 4344.70,5417.96 4336.00,5418.00              4336.00,5418.00 4312.00,5417.00 4312.00,5417.00              4312.00,5417.00 4301.00,5416.04 4301.00,5416.04              4293.50,5415.72 4291.40,5417.15 4286.00,5417.29              4286.00,5417.29 4258.00,5416.00 4258.00,5416.00              4241.86,5415.81 4240.24,5410.04 4230.00,5405.93              4223.02,5403.13 4217.34,5402.92 4210.00,5403.00              4192.71,5403.21 4193.40,5411.52 4179.00,5410.96              4179.00,5410.96 4159.00,5409.09 4159.00,5409.09              4159.00,5409.09 4143.00,5409.09 4143.00,5409.09              4133.58,5410.18 4134.22,5411.13 4123.00,5411.00              4114.75,5410.90 4111.37,5408.35 4104.00,5407.15              4104.00,5407.15 4078.00,5407.15 4078.00,5407.15              4078.00,5407.15 4057.00,5409.13 4057.00,5409.13              4057.00,5409.13 4047.00,5409.13 4047.00,5409.13              4047.00,5409.13 4025.00,5409.13 4025.00,5409.13              4025.00,5409.13 4014.00,5409.66 4014.00,5409.66              4014.00,5409.66 4003.00,5409.00 4003.00,5409.00              4003.00,5409.00 3970.00,5409.00 3970.00,5409.00              3970.00,5409.00 3938.00,5405.09 3938.00,5405.09              3938.00,5405.09 3923.00,5405.82 3923.00,5405.82              3923.00,5405.82 3914.00,5405.04 3914.00,5405.04              3914.00,5405.04 3906.00,5405.82 3906.00,5405.82              3906.00,5405.82 3896.00,5405.00 3896.00,5405.00              3896.00,5405.00 3874.00,5405.00 3874.00,5405.00              3874.00,5405.00 3849.00,5403.00 3849.00,5403.00              3849.00,5403.00 3836.00,5403.00 3836.00,5403.00              3836.00,5403.00 3817.00,5402.09 3817.00,5402.09              3817.00,5402.09 3800.00,5404.83 3800.00,5404.83              3800.00,5404.83 3764.00,5407.00 3764.00,5407.00              3756.90,5407.09 3752.55,5408.76 3746.00,5409.70              3746.00,5409.70 3731.00,5411.46 3731.00,5411.46              3731.00,5411.46 3702.00,5419.34 3702.00,5419.34              3702.00,5419.34 3691.00,5423.46 3691.00,5423.46              3691.00,5423.46 3683.00,5425.93 3683.00,5425.93              3683.00,5425.93 3675.00,5429.59 3675.00,5429.59              3675.00,5429.59 3650.00,5436.22 3650.00,5436.22              3650.00,5436.22 3631.00,5444.07 3631.00,5444.07              3624.64,5446.57 3611.86,5448.99 3605.00,5449.09              3605.00,5449.09 3593.00,5449.09 3593.00,5449.09              3587.46,5449.76 3587.45,5450.91 3580.00,5451.00              3580.00,5451.00 3565.00,5451.00 3565.00,5451.00              3555.07,5451.02 3557.01,5452.08 3550.00,5453.00              3550.00,5453.00 3538.00,5453.00 3538.00,5453.00              3528.63,5454.08 3529.38,5455.13 3518.00,5455.00              3518.00,5455.00 3469.00,5450.04 3469.00,5450.04              3469.00,5450.04 3459.00,5450.04 3459.00,5450.04              3459.00,5450.04 3449.00,5450.99 3449.00,5450.99              3449.00,5450.99 3438.00,5450.02 3438.00,5450.02              3438.00,5450.02 3421.00,5450.02 3421.00,5450.02              3421.00,5450.02 3394.00,5446.68 3394.00,5446.68              3384.28,5445.04 3387.34,5443.86 3375.00,5444.00              3375.00,5444.00 3363.00,5444.90 3363.00,5444.90              3363.00,5444.90 3350.00,5443.04 3350.00,5443.04              3350.00,5443.04 3321.00,5446.66 3321.00,5446.66              3321.00,5446.66 3295.00,5445.00 3295.00,5445.00              3285.38,5444.95 3286.14,5442.95 3279.00,5442.08              3279.00,5442.08 3268.00,5442.08 3268.00,5442.08              3258.33,5441.88 3258.70,5440.00 3251.00,5437.93              3251.00,5437.93 3238.00,5436.57 3238.00,5436.57              3232.44,5435.77 3225.32,5433.81 3220.00,5434.31              3220.00,5434.31 3214.00,5434.31 3214.00,5434.31              3209.89,5434.34 3196.91,5430.15 3193.00,5428.36              3193.00,5428.36 3183.00,5423.55 3183.00,5423.55              3183.00,5423.55 3161.00,5418.35 3161.00,5418.35              3146.09,5414.97 3147.26,5413.21 3131.00,5413.00              3123.60,5412.90 3120.88,5410.68 3114.00,5409.46              3114.00,5409.46 3088.00,5408.00 3088.00,5408.00              3074.89,5407.98 3047.16,5407.24 3035.00,5404.61              3021.23,5401.64 3010.52,5391.91 2997.00,5388.38              2987.11,5385.79 2977.16,5385.66 2967.00,5384.91              2967.00,5384.91 2949.00,5383.00 2949.00,5383.00              2936.04,5382.98 2939.17,5382.19 2929.00,5381.08              2929.00,5381.08 2918.00,5381.08 2918.00,5381.08              2918.00,5381.08 2903.00,5380.00 2903.00,5380.00              2903.00,5380.00 2893.00,5380.00 2893.00,5380.00              2893.00,5380.00 2853.00,5377.00 2853.00,5377.00              2853.00,5377.00 2832.00,5375.04 2832.00,5375.04              2832.00,5375.04 2818.00,5376.99 2818.00,5376.99              2809.54,5377.18 2808.85,5375.86 2802.00,5375.17              2802.00,5375.17 2781.00,5373.91 2781.00,5373.91              2781.00,5373.91 2771.00,5373.00 2771.00,5373.00              2758.57,5372.86 2754.88,5371.99 2743.00,5370.30              2743.00,5370.30 2733.00,5369.56 2733.00,5369.56              2733.00,5369.56 2713.00,5365.43 2713.00,5365.43              2713.00,5365.43 2698.00,5363.72 2698.00,5363.72              2698.00,5363.72 2675.00,5360.04 2675.00,5360.04              2675.00,5360.04 2666.00,5360.04 2666.00,5360.04              2666.00,5360.04 2656.00,5359.11 2656.00,5359.11              2656.00,5359.11 2637.00,5359.11 2637.00,5359.11              2637.00,5359.11 2627.00,5359.11 2627.00,5359.11              2627.00,5359.11 2615.00,5359.11 2615.00,5359.11              2615.00,5359.11 2575.00,5352.69 2575.00,5352.69              2575.00,5352.69 2560.00,5347.68 2560.00,5347.68              2560.00,5347.68 2529.00,5345.00 2529.00,5345.00              2522.03,5345.00 2513.16,5346.55 2507.00,5349.90              2507.00,5349.90 2500.00,5354.07 2500.00,5354.07              2500.00,5354.07 2483.00,5357.96 2483.00,5357.96              2472.19,5358.50 2460.15,5353.77 2450.00,5350.52              2443.64,5348.48 2442.48,5349.48 2438.00,5348.40              2428.05,5346.01 2418.35,5343.02 2408.00,5343.00              2408.00,5343.00 2371.00,5342.00 2371.00,5342.00              2358.60,5341.98 2353.99,5337.03 2335.00,5337.00              2335.00,5337.00 2312.00,5337.00 2312.00,5337.00              2312.00,5337.00 2293.00,5338.00 2293.00,5338.00              2293.00,5338.00 2274.00,5340.86 2274.00,5340.86              2274.00,5340.86 2263.00,5340.86 2263.00,5340.86              2263.00,5340.86 2237.00,5343.00 2237.00,5343.00              2237.00,5343.00 2218.00,5343.00 2218.00,5343.00              2209.06,5342.99 2209.14,5341.89 2202.00,5341.17              2202.00,5341.17 2168.00,5339.00 2168.00,5339.00              2159.48,5338.99 2151.38,5335.95 2143.00,5334.46              2135.39,5333.11 2127.70,5333.09 2120.00,5333.00              2120.00,5333.00 2101.00,5330.10 2101.00,5330.10              2101.00,5330.10 2091.00,5330.10 2091.00,5330.10              2091.00,5330.10 2070.00,5328.00 2070.00,5328.00              2070.00,5328.00 2013.00,5328.00 2013.00,5328.00              2000.92,5327.98 2001.36,5325.13 1991.00,5325.00              1991.00,5325.00 1976.00,5325.82 1976.00,5325.82              1976.00,5325.82 1968.00,5324.93 1968.00,5324.93              1968.00,5324.93 1953.00,5324.93 1953.00,5324.93              1953.00,5324.93 1942.00,5322.94 1942.00,5322.94              1942.00,5322.94 1932.00,5322.94 1932.00,5322.94              1932.00,5322.94 1923.00,5320.47 1923.00,5320.47              1923.00,5320.47 1913.00,5319.68 1913.00,5319.68              1913.00,5319.68 1904.00,5317.37 1904.00,5317.37              1896.13,5315.42 1892.82,5316.09 1885.00,5316.00              1875.61,5315.89 1871.72,5312.66 1864.00,5313.00              1854.05,5313.65 1852.70,5314.79 1842.00,5313.00              1842.00,5313.00 1826.00,5309.21 1826.00,5309.21              1826.00,5309.21 1815.00,5307.70 1815.00,5307.70              1804.40,5306.14 1803.75,5305.13 1792.00,5305.00              1792.00,5305.00 1768.00,5302.04 1768.00,5302.04              1768.00,5302.04 1758.00,5303.70 1758.00,5303.70              1758.00,5303.70 1737.00,5305.25 1737.00,5305.25              1737.00,5305.25 1724.00,5303.17 1724.00,5303.17              1717.24,5302.51 1716.52,5303.51 1708.00,5301.71              1697.41,5299.49 1695.31,5297.02 1683.00,5297.00              1683.00,5297.00 1650.00,5298.00 1650.00,5298.00              1632.46,5298.21 1635.07,5306.97 1620.00,5307.00              1620.00,5307.00 1613.00,5307.00 1613.00,5307.00              1596.39,5307.08 1597.22,5313.76 1586.00,5316.48              1569.17,5320.56 1563.46,5318.81 1547.00,5319.00              1547.00,5319.00 1520.00,5322.70 1520.00,5322.70              1520.00,5322.70 1512.00,5323.30 1512.00,5323.30              1512.00,5323.30 1504.00,5324.83 1504.00,5324.83              1497.98,5325.47 1496.88,5324.83 1490.00,5326.43              1479.22,5328.93 1475.85,5333.97 1459.00,5334.00              1459.00,5334.00 1432.00,5334.00 1432.00,5334.00              1432.00,5334.00 1414.00,5332.68 1414.00,5332.68              1407.56,5331.62 1407.04,5330.10 1399.00,5330.00              1399.00,5330.00 1382.00,5330.79 1382.00,5330.79              1377.12,5330.13 1375.65,5328.17 1368.00,5328.02              1355.19,5327.76 1353.72,5332.97 1340.00,5333.00              1327.36,5333.03 1330.87,5334.29 1324.00,5335.15              1324.00,5335.15 1310.00,5335.15 1310.00,5335.15              1306.02,5335.60 1303.08,5337.06 1299.00,5336.66              1299.00,5336.66 1290.00,5335.09 1290.00,5335.09              1290.00,5335.09 1276.00,5335.91 1276.00,5335.91              1276.00,5335.91 1269.00,5334.89 1269.00,5334.89              1269.00,5334.89 1260.00,5334.89 1260.00,5334.89              1253.91,5333.83 1254.25,5333.03 1247.00,5333.00              1247.00,5333.00 1225.00,5333.00 1225.00,5333.00              1225.00,5333.00 1211.00,5334.70 1211.00,5334.70              1207.59,5334.47 1204.73,5332.51 1199.00,5332.09              1199.00,5332.09 1178.00,5330.83 1178.00,5330.83              1178.00,5330.83 1160.00,5328.96 1160.00,5328.96              1160.00,5328.96 1149.00,5328.96 1149.00,5328.96              1149.00,5328.96 1138.00,5328.00 1138.00,5328.00              1138.00,5328.00 1114.00,5328.00 1114.00,5328.00              1114.00,5328.00 1096.00,5329.44 1096.00,5329.44              1096.00,5329.44 1086.00,5326.47 1086.00,5326.47              1086.00,5326.47 1077.00,5325.83 1077.00,5325.83              1077.00,5325.83 1063.00,5323.83 1063.00,5323.83              1057.17,5323.14 1056.13,5321.76 1049.00,5322.04              1049.00,5322.04 1032.00,5323.00 1032.00,5323.00              1032.00,5323.00 1013.00,5324.86 1013.00,5324.86              1013.00,5324.86 990.00,5324.86 990.00,5324.86              980.26,5323.55 976.03,5321.02 966.00,5321.22              966.00,5321.22 942.00,5321.22 942.00,5321.22              929.58,5320.10 936.23,5318.24 915.00,5318.00              915.00,5318.00 888.00,5315.70 888.00,5315.70              880.17,5314.55 877.97,5312.81 869.00,5313.01              869.00,5313.01 859.00,5313.64 859.00,5313.64              859.00,5313.64 848.00,5310.98 848.00,5310.98              848.00,5310.98 838.00,5310.98 838.00,5310.98              838.00,5310.98 825.00,5306.89 825.00,5306.89              817.01,5304.89 814.09,5304.91 806.00,5305.00              806.00,5305.00 793.00,5306.20 793.00,5306.20              793.00,5306.20 780.00,5306.20 780.00,5306.20              772.23,5306.09 764.63,5307.58 757.00,5308.70              757.00,5308.70 736.00,5310.17 736.00,5310.17              726.69,5311.17 730.47,5311.88 718.00,5312.00              704.52,5312.14 710.47,5311.20 701.00,5310.15              701.00,5310.15 690.00,5310.15 690.00,5310.15              684.22,5309.42 685.37,5308.04 676.00,5308.00              676.00,5308.00 650.00,5308.00 650.00,5308.00              643.30,5307.91 638.64,5305.48 632.00,5304.44              632.00,5304.44 621.00,5303.83 621.00,5303.83              621.00,5303.83 613.00,5302.06 613.00,5302.06              613.00,5302.06 605.00,5302.06 605.00,5302.06              605.00,5302.06 595.00,5300.24 595.00,5300.24              586.68,5299.34 579.34,5302.24 571.00,5300.24              571.00,5300.24 558.00,5295.22 558.00,5295.22              558.00,5295.22 511.00,5282.23 511.00,5282.23              499.31,5280.35 487.78,5281.87 476.00,5282.23              476.00,5282.23 441.00,5285.00 441.00,5285.00              428.05,5284.84 427.87,5277.73 410.00,5277.04              400.72,5276.68 393.38,5279.87 387.33,5287.01              385.32,5289.38 382.58,5294.73 380.61,5295.98              378.26,5297.47 370.07,5297.03 367.00,5297.00              358.33,5296.89 357.39,5295.34 350.00,5293.68              350.00,5293.68 335.00,5291.64 335.00,5291.64              335.00,5291.64 316.00,5286.44 316.00,5286.44              316.00,5286.44 308.00,5285.70 308.00,5285.70              308.00,5285.70 280.00,5282.00 280.00,5282.00              280.00,5282.00 271.00,5282.00 271.00,5282.00              265.06,5281.48 263.65,5279.74 256.00,5280.04              256.00,5280.04 246.00,5280.82 246.00,5280.82              246.00,5280.82 219.00,5278.00 219.00,5278.00              204.01,5277.83 207.71,5276.21 198.00,5275.17              195.39,5274.89 189.27,5275.30 187.39,5274.43              185.20,5273.41 182.05,5267.48 179.82,5265.04              177.31,5262.29 173.75,5259.95 171.85,5256.96              169.07,5252.59 167.53,5243.10 166.08,5238.00              166.08,5238.00 161.41,5227.00 161.41,5227.00              161.41,5227.00 160.70,5220.00 160.70,5220.00              160.70,5220.00 158.55,5209.00 158.55,5209.00              156.52,5199.49 151.02,5196.26 151.01,5192.00              151.01,5189.52 154.38,5184.80 155.53,5182.00              158.01,5175.93 158.07,5171.39 158.00,5165.00              158.00,5165.00 156.31,5151.00 156.31,5151.00              156.31,5151.00 162.30,5136.09 162.30,5136.09              165.00,5131.21 173.33,5127.67 175.53,5116.00              177.61,5105.02 173.30,5098.27 166.79,5090.00              160.14,5081.55 153.28,5075.50 142.00,5075.04              132.65,5074.66 129.40,5077.67 126.00,5078.27              124.81,5078.47 124.19,5078.48 123.00,5078.27              121.39,5077.98 113.12,5074.45 104.00,5072.74              99.75,5071.94 97.52,5071.03 93.00,5071.03              93.00,5071.03 82.00,5072.48 82.00,5072.48              79.94,5072.43 69.10,5067.50 67.60,5066.08              65.69,5064.28 66.10,5061.38 65.83,5059.00              65.41,5055.39 64.35,5052.34 62.99,5049.00              62.99,5049.00 57.04,5037.00 57.04,5037.00              57.04,5037.00 57.04,5025.00 57.04,5025.00              57.04,5025.00 55.04,5010.00 55.04,5010.00              55.04,5010.00 55.04,5001.00 55.04,5001.00              54.46,4994.83 52.43,4992.36 51.96,4989.00              51.96,4989.00 51.96,4975.00 51.96,4975.00              51.96,4975.00 49.26,4951.00 49.26,4951.00              49.26,4951.00 49.91,4945.00 49.91,4945.00              49.91,4945.00 51.17,4925.00 51.17,4925.00              51.84,4918.75 52.96,4919.45 53.00,4911.00              53.00,4911.00 54.00,4892.00 54.00,4892.00              54.00,4892.00 54.91,4874.00 54.91,4874.00              54.60,4868.63 52.76,4864.94 53.09,4859.00              53.09,4859.00 55.00,4842.00 55.00,4842.00              55.00,4842.00 54.18,4827.00 54.18,4827.00              54.18,4827.00 54.96,4816.00 54.96,4816.00              54.67,4808.80 51.68,4803.97 52.04,4795.00              52.04,4795.00 54.00,4784.00 54.00,4784.00              54.00,4784.00 54.00,4774.00 54.00,4774.00              54.00,4774.00 56.00,4749.00 56.00,4749.00              56.00,4749.00 57.00,4733.00 57.00,4733.00              57.00,4733.00 56.01,4718.00 56.01,4718.00              55.78,4707.65 58.01,4708.50 58.91,4701.00              58.91,4701.00 58.91,4672.00 58.91,4672.00              58.91,4672.00 58.21,4661.00 58.21,4661.00              58.21,4661.00 59.71,4652.00 59.71,4652.00              59.71,4652.00 62.00,4623.00 62.00,4623.00              62.02,4613.11 63.38,4599.12 67.00,4590.00              74.10,4593.19 76.38,4597.43 85.00,4598.70              97.23,4600.51 108.10,4595.77 114.52,4585.00              117.24,4580.44 116.92,4578.23 118.61,4574.00              120.48,4569.30 122.40,4568.02 123.53,4562.00              123.53,4562.00 124.17,4550.00 124.17,4550.00              124.83,4543.84 126.33,4543.36 125.96,4535.00              125.81,4531.47 121.79,4517.64 120.44,4514.00              116.12,4502.36 109.02,4501.89 108.96,4487.00              108.96,4487.00 108.96,4475.00 108.96,4475.00              108.96,4475.00 108.00,4465.00 108.00,4465.00              108.00,4465.00 108.00,4450.00 108.00,4450.00              108.00,4450.00 107.00,4434.00 107.00,4434.00              107.00,4434.00 106.00,4406.00 106.00,4406.00              106.00,4406.00 105.00,4385.00 105.00,4385.00              105.00,4385.00 103.04,4352.00 103.04,4352.00              103.04,4352.00 103.04,4341.00 103.04,4341.00              103.04,4341.00 104.00,4331.00 104.00,4331.00              104.05,4326.33 103.69,4321.60 104.67,4317.00              106.24,4309.63 108.44,4307.71 110.45,4302.00              112.45,4296.35 114.99,4280.19 115.00,4274.00              115.01,4268.02 116.55,4261.79 115.70,4256.00              114.83,4250.10 112.34,4247.32 112.48,4244.00              112.66,4239.74 117.36,4235.88 117.91,4227.00              118.31,4220.50 116.50,4218.54 115.37,4213.00              115.37,4213.00 113.78,4204.00 113.78,4204.00              111.17,4195.62 103.04,4184.09 96.00,4179.00              98.17,4162.56 94.94,4166.51 95.00,4152.00              95.08,4134.74 102.83,4133.56 103.00,4117.00              103.09,4107.51 101.45,4106.07 100.30,4098.00              100.30,4098.00 99.80,4088.00 99.80,4088.00              99.80,4088.00 99.80,4081.00 99.80,4081.00              99.85,4078.42 102.70,4068.18 103.93,4066.00              106.17,4062.00 110.45,4059.19 112.78,4052.00              113.79,4048.89 115.85,4039.18 115.90,4036.00              116.08,4032.25 114.88,4028.23 115.90,4025.00              115.90,4025.00 118.44,4019.00 118.44,4019.00              119.91,4015.02 120.13,4009.60 123.30,4006.63              128.67,4001.62 135.22,4001.38 141.00,3998.60              149.38,3994.57 157.32,3985.36 158.70,3976.00              160.48,3963.94 156.67,3959.62 156.30,3954.00              156.30,3954.00 157.91,3943.00 157.91,3943.00              158.27,3937.06 156.16,3929.95 152.89,3925.00              142.10,3908.66 114.46,3908.68 98.00,3915.00              98.00,3915.00 105.71,3899.00 105.71,3899.00              108.51,3894.49 110.92,3893.16 113.65,3887.00              116.10,3881.50 115.49,3878.71 116.81,3875.00              119.09,3868.56 121.38,3866.78 120.91,3859.00              120.39,3850.61 116.59,3846.06 115.49,3842.00              114.48,3838.23 115.65,3834.99 113.44,3829.00              113.44,3829.00 109.45,3820.00 109.45,3820.00              108.96,3817.51 109.93,3812.99 109.98,3810.00              109.98,3810.00 109.00,3797.00 109.00,3797.00              123.73,3795.76 136.70,3783.27 135.69,3768.00              135.69,3768.00 135.69,3762.00 135.69,3762.00              135.83,3754.24 139.52,3753.38 134.00,3739.00              148.78,3732.60 159.00,3719.39 152.05,3703.00              148.97,3695.76 144.44,3693.59 142.30,3689.83              140.84,3687.26 138.46,3678.25 133.21,3671.00              124.81,3659.42 119.56,3665.88 120.02,3653.00              120.31,3644.81 124.97,3643.55 124.97,3633.00              124.97,3624.29 121.44,3619.85 120.19,3615.00              119.24,3609.73 120.00,3600.73 120.19,3595.00              131.25,3593.41 133.20,3590.38 141.42,3583.63              145.45,3580.32 148.35,3579.95 152.67,3574.96              160.35,3566.10 162.66,3551.29 160.53,3540.00              160.53,3540.00 157.06,3529.00 157.06,3529.00              157.06,3529.00 157.06,3520.00 157.06,3520.00              156.35,3511.80 154.33,3502.70 151.44,3495.00              148.65,3487.54 143.83,3484.74 141.98,3481.72              140.73,3479.66 138.60,3468.99 138.00,3466.00              143.99,3461.67 148.14,3456.39 149.53,3449.00              149.53,3449.00 150.63,3439.00 150.63,3439.00              150.63,3439.00 155.11,3424.00 155.11,3424.00              155.11,3424.00 158.91,3395.00 158.91,3395.00              158.91,3395.00 158.39,3383.00 158.39,3383.00              158.39,3383.00 161.63,3367.00 161.63,3367.00              163.11,3361.59 164.69,3360.74 164.96,3354.00              164.96,3354.00 164.32,3342.00 164.32,3342.00              164.32,3342.00 166.96,3307.00 166.96,3307.00              166.96,3307.00 164.18,3284.00 164.18,3284.00              164.20,3279.98 166.05,3276.46 166.00,3265.00              166.00,3265.00 165.08,3253.00 165.08,3253.00              165.08,3253.00 165.82,3242.00 165.82,3242.00              165.82,3242.00 165.82,3234.00 165.82,3234.00              165.82,3234.00 165.82,3225.00 165.82,3225.00              165.82,3225.00 165.00,3215.00 165.00,3215.00              164.90,3205.86 165.70,3199.78 168.46,3191.00              170.26,3185.25 173.36,3183.23 172.96,3173.00              172.40,3158.66 167.85,3155.90 166.41,3150.00              165.33,3145.55 167.03,3141.04 164.05,3134.00              161.91,3128.96 158.59,3126.33 157.03,3122.00              155.37,3117.42 155.36,3111.78 154.83,3107.00              154.83,3107.00 151.30,3087.00 151.30,3087.00              151.30,3087.00 150.32,3073.00 150.32,3073.00              149.05,3067.48 147.13,3065.67 145.81,3062.00              144.58,3058.58 145.01,3055.64 143.05,3051.00              143.05,3051.00 138.51,3042.00 138.51,3042.00              138.51,3042.00 137.70,3035.00 137.70,3035.00              135.80,3021.85 134.81,3027.96 135.00,3011.00              135.14,2999.45 138.49,2995.83 138.91,2989.00              138.91,2989.00 138.04,2978.00 138.04,2978.00              138.04,2978.00 141.91,2950.00 141.91,2950.00              141.91,2950.00 138.34,2933.00 138.34,2933.00              138.34,2933.00 138.91,2922.00 138.91,2922.00              138.11,2907.47 140.43,2914.14 142.53,2903.00              142.53,2903.00 143.96,2880.00 143.96,2880.00              143.62,2871.64 140.55,2870.59 141.09,2862.00              141.09,2862.00 142.39,2851.00 142.39,2851.00              143.92,2843.88 146.15,2845.62 146.00,2832.00              145.90,2823.15 143.51,2821.07 143.38,2817.00              143.38,2817.00 144.83,2808.00 144.83,2808.00              144.83,2808.00 145.91,2786.00 145.91,2786.00              145.55,2780.27 143.29,2776.75 142.85,2773.00              142.85,2773.00 143.99,2761.00 143.99,2761.00              144.28,2748.14 140.54,2748.69 141.04,2739.00              141.42,2731.63 144.86,2731.11 145.00,2720.00              145.00,2720.00 145.99,2704.00 145.99,2704.00              146.31,2689.84 141.47,2688.18 141.04,2680.00              141.04,2680.00 143.27,2659.00 143.27,2659.00              143.27,2659.00 151.13,2643.00 151.13,2643.00              151.13,2643.00 154.46,2634.00 154.46,2634.00              158.87,2622.53 161.15,2622.17 161.00,2609.00              160.89,2599.81 158.29,2597.74 158.19,2593.00              158.11,2588.82 160.17,2585.79 159.96,2579.00              159.96,2579.00 158.96,2571.00 158.96,2571.00              158.96,2571.00 158.96,2562.00 158.96,2562.00              158.96,2562.00 157.46,2553.00 157.46,2553.00              157.46,2553.00 158.91,2533.00 158.91,2533.00              158.91,2533.00 156.44,2520.00 156.44,2520.00              156.44,2520.00 155.70,2510.00 155.70,2510.00              155.70,2510.00 154.35,2502.00 154.35,2502.00              154.35,2502.00 159.73,2480.00 159.73,2480.00              161.48,2464.78 160.12,2459.33 159.73,2445.00              159.73,2445.00 159.73,2435.00 159.73,2435.00              159.85,2432.10 158.93,2428.69 159.73,2426.00              160.44,2421.98 164.39,2418.67 163.96,2408.00              163.52,2397.15 158.18,2395.01 157.34,2387.00              157.34,2387.00 159.96,2353.00 159.96,2353.00              160.26,2343.37 156.74,2343.33 157.01,2332.00              157.31,2319.97 164.49,2314.02 163.96,2301.00              163.62,2292.57 160.34,2290.21 160.19,2285.00              160.19,2285.00 160.83,2269.00 160.83,2269.00              161.58,2261.91 164.25,2255.22 163.96,2248.00              163.64,2239.99 160.46,2237.01 160.42,2233.00              160.38,2229.03 163.21,2226.65 162.96,2217.00              162.68,2205.92 165.23,2206.11 164.96,2198.00              164.71,2190.71 162.00,2187.64 161.48,2184.00              161.48,2184.00 162.00,2172.00 162.00,2172.00              162.02,2158.87 159.80,2158.21 159.78,2153.00              159.78,2153.00 161.94,2137.00 161.94,2137.00              161.94,2137.00 161.94,2128.00 161.94,2128.00              162.50,2124.47 163.13,2122.86 162.91,2119.00              162.91,2119.00 162.18,2113.00 162.18,2113.00              161.75,2106.84 164.33,2103.96 163.91,2097.00              163.72,2093.94 162.61,2090.94 162.89,2088.00              163.37,2083.08 164.98,2084.36 164.78,2073.00              164.78,2073.00 164.78,2061.00 164.78,2061.00              164.78,2061.00 164.78,2051.00 164.78,2051.00              164.78,2051.00 164.78,2042.00 164.78,2042.00              165.02,2037.14 166.90,2034.38 167.15,2026.00              167.15,2026.00 167.15,2017.00 167.15,2017.00              167.99,2012.13 169.15,2010.67 168.96,2005.00              168.96,2005.00 167.17,1994.00 167.17,1994.00              167.17,1994.00 166.00,1968.00 166.00,1968.00              166.00,1968.00 167.99,1943.00 167.99,1943.00              167.99,1943.00 167.00,1926.00 167.00,1926.00              167.00,1926.00 168.97,1899.00 168.97,1899.00              168.97,1899.00 168.04,1886.00 168.04,1886.00              168.04,1886.00 169.74,1864.00 169.74,1864.00              169.74,1864.00 169.74,1852.00 169.74,1852.00              169.74,1852.00 171.96,1831.00 171.96,1831.00              171.96,1831.00 171.96,1815.00 171.96,1815.00              171.96,1815.00 174.39,1784.00 174.39,1784.00              174.74,1782.34 177.31,1775.50 178.12,1774.00              181.29,1768.12 186.50,1766.02 190.47,1760.99              195.29,1754.89 198.97,1741.79 198.97,1734.00              198.97,1726.64 195.84,1719.43 190.82,1714.09              181.43,1704.10 177.02,1707.38 177.00,1695.00              177.00,1695.00 177.00,1648.00 177.00,1648.00              177.01,1639.26 178.57,1635.92 179.70,1628.00              180.82,1620.16 181.09,1611.91 180.81,1604.00              180.81,1604.00 180.81,1595.00 180.81,1595.00              181.01,1590.31 182.31,1589.23 181.91,1583.00              181.91,1583.00 179.38,1565.00 179.38,1565.00              179.51,1562.08 183.35,1554.75 183.91,1545.00              184.21,1539.67 182.97,1537.84 182.91,1534.00              182.91,1534.00 182.91,1526.00 182.91,1526.00              182.91,1526.00 182.91,1520.00 182.91,1520.00              182.98,1508.34 179.39,1502.87 179.46,1497.00              179.55,1489.26 181.62,1481.61 182.70,1474.00              182.70,1474.00 183.30,1465.00 183.30,1465.00              183.30,1465.00 184.83,1457.00 184.83,1457.00              184.83,1457.00 184.00,1435.00 184.00,1435.00              184.00,1435.00 184.95,1425.00 184.95,1425.00              184.95,1425.00 184.95,1413.00 184.95,1413.00              184.95,1413.00 184.18,1401.00 184.18,1401.00              184.57,1395.85 186.19,1393.18 185.91,1387.00              185.67,1381.66 185.53,1376.31 186.46,1371.00              186.46,1371.00 187.91,1364.00 187.91,1364.00              187.91,1364.00 187.91,1346.00 187.91,1346.00              187.91,1346.00 187.01,1330.00 187.01,1330.00              187.01,1330.00 188.00,1320.00 188.00,1320.00              188.00,1320.00 188.00,1299.00 188.00,1299.00              188.00,1299.00 188.98,1289.00 188.98,1289.00              188.98,1289.00 188.09,1274.00 188.09,1274.00              188.09,1274.00 191.91,1254.00 191.91,1254.00              191.91,1254.00 191.02,1242.00 191.02,1242.00              191.02,1242.00 191.91,1228.00 191.91,1228.00              191.91,1228.00 191.00,1213.00 191.00,1213.00              191.00,1213.00 191.00,1183.00 191.00,1183.00              191.00,1183.00 192.96,1154.00 192.96,1154.00              193.15,1147.98 191.65,1145.50 191.38,1141.00              191.38,1141.00 192.00,1118.00 192.00,1118.00              192.09,1110.43 193.78,1108.46 194.70,1102.00              194.70,1102.00 196.00,1078.00 196.00,1078.00              196.02,1065.05 199.18,1068.95 199.00,1053.00              199.00,1053.00 196.59,1036.00 196.59,1036.00              196.65,1031.18 199.33,1026.93 198.91,1020.00              198.91,1020.00 197.72,1011.00 197.72,1011.00              197.72,1011.00 200.00,986.00 200.00,986.00              200.00,986.00 200.00,978.00 200.00,978.00              200.92,970.99 201.98,972.93 202.15,963.00              202.15,963.00 202.15,951.00 202.15,951.00              202.15,951.00 203.92,943.00 203.92,943.00              203.92,943.00 203.92,931.00 203.92,931.00              203.92,931.00 206.00,910.00 206.00,910.00              206.00,910.00 205.41,897.00 205.41,897.00              205.84,892.50 209.33,885.54 208.91,878.00              208.91,878.00 208.00,868.00 208.00,868.00              208.00,868.00 211.00,833.00 211.00,833.00              211.00,833.00 210.32,814.00 210.32,814.00              210.32,814.00 211.91,794.00 211.91,794.00              211.71,790.53 210.91,788.79 211.18,785.00              211.99,773.76 215.70,770.22 217.54,761.00              218.86,754.34 218.97,749.68 219.00,743.00              219.00,743.00 221.91,721.00 221.91,721.00              221.91,721.00 221.91,704.00 221.91,704.00              221.90,695.76 220.61,696.40 219.37,690.00              219.37,690.00 216.48,667.00 216.48,667.00              216.37,662.25 219.33,659.08 218.96,650.00              218.96,650.00 217.72,640.00 217.72,640.00              217.72,640.00 219.92,618.00 219.92,618.00              219.92,618.00 219.92,602.00 219.92,602.00              220.04,578.74 227.97,578.86 228.00,560.00              228.00,560.00 228.00,550.00 228.00,550.00              228.00,550.00 229.96,530.00 229.96,530.00              229.96,530.00 229.96,520.00 229.96,520.00              229.96,520.00 231.00,504.00 231.00,504.00              231.00,504.00 232.37,489.00 232.37,489.00              232.37,489.00 234.70,480.00 234.70,480.00              234.70,480.00 237.04,461.00 237.04,461.00              237.04,461.00 242.35,445.00 242.35,445.00              242.35,445.00 245.87,427.00 245.87,427.00              245.87,427.00 249.23,416.00 249.23,416.00              249.23,416.00 253.32,405.00 253.32,405.00              253.32,405.00 254.32,397.00 254.32,397.00              254.32,397.00 256.85,387.00 256.85,387.00              256.85,387.00 256.85,364.00 256.85,364.00              256.85,364.00 258.07,353.00 258.07,353.00              258.07,353.00 258.07,340.00 258.07,340.00              258.84,333.76 259.96,334.43 260.00,326.00              260.00,326.00 260.00,313.00 260.00,313.00              260.00,313.00 264.91,273.00 264.91,273.00              264.61,268.21 262.86,265.11 263.10,260.00              263.36,254.75 266.99,243.35 266.99,232.00              266.99,223.91 265.08,222.68 264.80,218.00              264.47,212.44 265.77,209.18 264.07,203.00              262.68,197.91 260.58,196.01 259.13,192.00              258.27,189.63 257.05,176.43 257.41,174.00              257.41,174.00 259.32,167.00 259.32,167.00              262.31,153.97 265.56,139.66 274.17,129.00              276.21,126.47 280.25,120.88 283.09,119.74              286.93,118.20 293.57,120.65 298.00,120.91              298.00,120.91 312.00,120.00 312.00,120.00              323.32,119.95 320.37,121.01 328.00,121.92              328.00,121.92 338.00,121.92 338.00,121.92              338.00,121.92 355.00,123.00 355.00,123.00              363.23,122.96 365.87,121.18 370.00,121.18              374.69,121.18 377.09,123.27 385.00,122.96              385.00,122.96 395.00,122.10 395.00,122.10              400.77,122.38 400.72,123.98 411.00,123.80              411.00,123.80 432.00,123.80 432.00,123.80              432.00,123.80 444.00,124.95 444.00,124.95              444.00,124.95 458.00,124.95 458.00,124.95              458.00,124.95 475.00,123.08 475.00,123.08              475.00,123.08 486.00,123.08 486.00,123.08              486.00,123.08 527.00,120.00 527.00,120.00              527.00,120.00 542.00,120.00 542.00,120.00              542.00,120.00 554.00,119.04 554.00,119.04              554.00,119.04 566.00,119.04 566.00,119.04 Z            M 1629.00,1724.00            C 1639.53,1722.24 1639.25,1714.59 1634.61,1711.01              1632.21,1709.15 1628.91,1708.95 1626.00,1709.04              1621.21,1709.19 1618.38,1710.38 1614.00,1711.95              1606.57,1714.62 1598.23,1718.09 1603.31,1727.96              1606.91,1734.93 1619.80,1736.86 1624.87,1733.26              1628.19,1730.90 1628.65,1727.73 1629.00,1724.00 Z"
            style="fill:#000000;fill-opacity:1"/>
</svg>
