<?xml version="1.0" encoding="UTF-8" standalone="no"?>
<svg
        width="176.615mm"
        height="116.269mm"
        viewBox="0 0 8344 5493"
        version="1.1"
        id="svg3810"
        sodipodi:docname="page3.svg"
        inkscape:version="1.1.1 (3bf5ae0d25, 2021-09-20)"
        xmlns:inkscape="http://www.inkscape.org/namespaces/inkscape"
        xmlns:sodipodi="http://sodipodi.sourceforge.net/DTD/sodipodi-0.dtd"
        xmlns="http://www.w3.org/2000/svg"
>
    <defs
            id="defs3814"/>
    <sodipodi:namedview
            id="namedview3812"
            pagecolor="#ffffff"
            bordercolor="#666666"
            borderopacity="1.0"
            inkscape:pageshadow="2"
            inkscape:pageopacity="0.0"
            inkscape:pagecheckerboard="0"
            inkscape:document-units="mm"
            showgrid="false"
            inkscape:zoom="1.8045617"
            inkscape:cx="333.87608"
            inkscape:cy="219.72094"
            inkscape:window-width="1920"
            inkscape:window-height="1001"
            inkscape:window-x="-7"
            inkscape:window-y="-7"
            inkscape:window-maximized="1"
            inkscape:current-layer="svg3810"/>
    <path
            id="Selection #1"
            fill="none"
            stroke="black"
            stroke-width="1"
            d="M 88.00,5136.00            C 100.59,5128.64 105.70,5113.82 101.56,5100.00              97.48,5086.36 90.29,5086.25 83.74,5077.99              82.08,5075.89 78.44,5071.31 77.59,5069.00              76.79,5066.82 76.99,5062.68 74.91,5057.00              74.91,5057.00 69.51,5046.00 69.51,5046.00              68.87,5043.77 69.08,5041.30 68.83,5039.00              68.83,5039.00 67.09,5030.00 67.09,5030.00              67.09,5030.00 67.09,5017.00 67.09,5017.00              67.09,5017.00 66.21,5001.00 66.21,5001.00              66.21,5001.00 70.33,4988.00 70.33,4988.00              70.33,4988.00 71.32,4981.00 71.32,4981.00              71.32,4981.00 73.77,4972.00 73.77,4972.00              73.77,4972.00 73.77,4955.00 73.77,4955.00              74.21,4937.36 83.61,4938.81 82.96,4922.00              82.80,4917.81 81.69,4904.49 80.45,4901.00              77.82,4893.59 73.31,4890.94 73.10,4885.00              73.10,4885.00 80.91,4839.00 80.91,4839.00              80.61,4834.09 78.81,4831.21 79.25,4826.00              79.62,4819.85 80.80,4815.40 79.25,4809.00              77.40,4800.67 74.13,4801.43 73.92,4791.00              73.92,4791.00 73.92,4778.00 73.92,4778.00              73.30,4773.07 71.74,4770.74 72.09,4765.00              72.48,4758.65 75.34,4754.09 74.91,4747.00              74.44,4739.44 72.02,4739.52 72.00,4728.00              72.00,4728.00 73.00,4705.00 73.00,4705.00              73.00,4705.00 74.00,4692.00 74.00,4692.00              74.00,4692.00 73.22,4677.00 73.22,4677.00              73.22,4677.00 76.05,4666.00 76.05,4666.00              76.05,4666.00 76.05,4655.00 76.05,4655.00              77.54,4648.69 83.49,4646.17 82.96,4633.00              82.54,4622.55 77.61,4619.27 75.27,4614.00              74.16,4611.49 70.92,4597.50 71.23,4595.00              71.93,4589.21 75.27,4588.41 74.99,4576.00              74.81,4568.28 72.98,4568.65 73.00,4556.00              73.00,4556.00 75.00,4534.00 75.00,4534.00              75.00,4534.00 73.80,4513.00 73.80,4513.00              73.80,4513.00 73.80,4503.00 73.80,4503.00              74.16,4498.90 75.97,4496.50 75.97,4490.00              75.97,4490.00 74.00,4468.00 74.00,4468.00              73.98,4463.61 73.77,4459.28 74.93,4455.00              74.93,4455.00 80.76,4439.00 80.76,4439.00              80.76,4439.00 80.76,4418.00 80.76,4418.00              80.82,4410.62 78.86,4408.74 78.55,4405.00              78.23,4401.23 80.14,4399.02 79.98,4391.00              79.98,4391.00 78.03,4376.00 78.03,4376.00              78.03,4376.00 79.96,4351.00 79.96,4351.00              79.96,4351.00 77.19,4321.00 77.19,4321.00              77.30,4316.54 79.68,4313.93 79.96,4307.00              80.37,4296.78 77.02,4296.84 77.10,4285.00              77.10,4285.00 77.10,4270.00 77.10,4270.00              77.89,4265.13 80.32,4262.20 79.91,4255.00              79.91,4255.00 78.92,4245.00 78.92,4245.00              78.92,4245.00 78.92,4208.00 78.92,4208.00              78.92,4208.00 78.92,4197.00 78.92,4197.00              78.92,4197.00 81.32,4169.00 81.32,4169.00              82.41,4162.41 84.29,4161.12 83.96,4153.00              83.59,4143.90 79.82,4141.35 79.44,4137.00              79.44,4137.00 80.91,4128.00 80.91,4128.00              80.91,4128.00 80.91,4119.00 80.91,4119.00              80.91,4119.00 79.34,4106.00 79.34,4106.00              79.34,4106.00 80.92,4096.00 80.92,4096.00              80.92,4096.00 80.92,4084.00 80.92,4084.00              81.02,4071.70 84.27,4073.33 83.99,4061.00              83.86,4055.34 82.97,4054.69 82.30,4050.00              82.30,4050.00 81.00,4032.00 81.00,4032.00              81.00,4032.00 79.08,4010.00 79.08,4010.00              79.08,4010.00 80.91,3998.00 80.91,3998.00              80.91,3998.00 80.21,3987.00 80.21,3987.00              80.21,3987.00 83.99,3961.00 83.99,3961.00              84.19,3952.23 82.60,3950.82 82.60,3947.00              82.60,3947.00 83.99,3935.00 83.99,3935.00              83.99,3926.48 81.38,3923.42 81.48,3919.00              81.48,3919.00 84.99,3897.00 84.99,3897.00              84.99,3897.00 84.00,3880.00 84.00,3880.00              84.00,3880.00 82.91,3850.00 82.91,3850.00              82.91,3850.00 82.01,3840.00 82.01,3840.00              82.01,3840.00 82.95,3827.00 82.95,3827.00              82.95,3827.00 82.95,3812.00 82.95,3812.00              82.95,3812.00 82.26,3805.00 82.26,3805.00              82.26,3805.00 83.85,3797.00 83.85,3797.00              83.85,3797.00 83.85,3787.00 83.85,3787.00              83.85,3787.00 85.53,3768.00 85.53,3768.00              87.38,3759.75 89.22,3761.10 88.80,3750.00              88.80,3750.00 88.80,3742.00 88.80,3742.00              88.93,3736.73 90.69,3733.93 89.83,3726.00              89.83,3726.00 87.37,3716.00 87.37,3716.00              87.37,3716.00 86.70,3706.00 86.70,3706.00              84.88,3693.66 84.03,3702.52 83.85,3684.00              83.99,3679.82 82.99,3673.45 83.85,3670.00              85.05,3663.39 88.97,3660.40 88.97,3651.00              88.97,3642.24 83.82,3636.14 84.70,3629.00              85.29,3624.18 90.54,3620.28 89.91,3610.00              89.53,3603.81 87.19,3600.82 86.19,3597.00              85.84,3594.40 86.00,3588.89 86.19,3586.00              86.02,3575.76 87.52,3576.24 88.70,3568.00              88.70,3568.00 89.44,3555.00 89.44,3555.00              90.48,3548.36 92.25,3545.12 91.96,3538.00              91.96,3538.00 90.06,3528.00 90.06,3528.00              90.06,3528.00 90.06,3519.00 90.06,3519.00              90.06,3519.00 88.04,3508.00 88.04,3508.00              88.04,3508.00 88.91,3491.00 88.91,3491.00              88.91,3491.00 87.74,3482.00 87.74,3482.00              87.74,3482.00 87.74,3472.00 87.74,3472.00              87.74,3472.00 87.04,3460.00 87.04,3460.00              87.34,3452.54 89.15,3454.06 89.00,3441.00              88.91,3433.49 87.35,3432.01 87.10,3427.00              87.10,3427.00 87.97,3416.00 87.97,3416.00              87.97,3416.00 87.00,3404.00 87.00,3404.00              86.78,3384.50 90.40,3382.31 90.96,3368.00              90.96,3368.00 90.39,3357.00 90.39,3357.00              90.39,3357.00 91.83,3349.00 91.83,3349.00              91.83,3349.00 93.00,3324.00 93.00,3324.00              92.92,3317.21 92.08,3317.51 91.30,3312.00              91.30,3312.00 89.83,3293.00 89.83,3293.00              89.21,3287.28 87.76,3286.26 88.04,3279.00              88.04,3279.00 88.96,3271.00 88.96,3271.00              88.96,3271.00 88.96,3259.00 88.96,3259.00              88.96,3259.00 91.99,3237.00 91.99,3237.00              91.99,3237.00 91.18,3223.00 91.18,3223.00              91.54,3218.00 92.37,3215.43 91.83,3210.00              91.83,3210.00 89.47,3197.00 89.47,3197.00              89.29,3192.79 91.26,3189.14 90.91,3183.00              90.91,3183.00 90.00,3168.00 90.00,3168.00              90.00,3168.00 93.00,3130.00 93.00,3130.00              92.91,3122.57 91.76,3122.53 90.97,3117.00              90.97,3117.00 90.97,3100.00 90.97,3100.00              90.97,3100.00 90.97,3079.00 90.97,3079.00              90.97,3079.00 92.96,3064.00 92.96,3064.00              92.96,3064.00 91.92,3049.00 91.92,3049.00              91.92,3049.00 91.92,3032.00 91.92,3032.00              91.92,3032.00 91.92,3022.00 91.92,3022.00              91.92,3022.00 91.92,3007.00 91.92,3007.00              91.92,3007.00 93.00,2996.00 93.00,2996.00              93.00,2996.00 92.00,2975.00 92.00,2975.00              92.00,2975.00 91.34,2962.00 91.34,2962.00              92.11,2954.22 94.05,2955.32 94.00,2943.00              94.00,2943.00 92.75,2919.00 92.75,2919.00              92.75,2919.00 92.75,2910.00 92.75,2910.00              92.75,2910.00 92.04,2903.00 92.04,2903.00              92.04,2903.00 92.04,2887.00 92.04,2887.00              92.04,2887.00 92.97,2873.00 92.97,2873.00              92.97,2873.00 92.00,2861.00 92.00,2861.00              92.00,2861.00 92.96,2846.00 92.96,2846.00              92.96,2846.00 92.96,2833.00 92.96,2833.00              92.96,2833.00 94.91,2815.00 94.91,2815.00              94.91,2815.00 93.00,2800.00 93.00,2800.00              93.00,2800.00 95.00,2764.00 95.00,2764.00              95.00,2764.00 95.96,2749.00 95.96,2749.00              95.96,2749.00 94.00,2722.00 94.00,2722.00              94.00,2722.00 93.26,2707.00 93.26,2707.00              93.20,2698.94 94.15,2701.10 93.26,2691.00              93.26,2691.00 95.00,2673.00 95.00,2673.00              95.00,2673.00 95.00,2649.00 95.00,2649.00              95.00,2649.00 94.00,2632.00 94.00,2632.00              94.00,2632.00 94.00,2613.00 94.00,2613.00              94.00,2613.00 94.96,2601.00 94.96,2601.00              94.96,2601.00 94.96,2590.00 94.96,2590.00              94.96,2590.00 95.96,2579.00 95.96,2579.00              95.96,2579.00 95.26,2568.00 95.26,2568.00              95.42,2563.99 97.26,2561.15 96.91,2555.00              96.91,2555.00 95.04,2530.00 95.04,2530.00              95.04,2530.00 95.96,2518.00 95.96,2518.00              95.96,2518.00 95.18,2510.00 95.18,2510.00              95.18,2510.00 96.96,2492.00 96.96,2492.00              96.96,2492.00 96.09,2481.00 96.09,2481.00              96.09,2481.00 97.99,2461.00 97.99,2461.00              97.99,2461.00 97.08,2447.00 97.08,2447.00              97.08,2447.00 97.08,2432.00 97.08,2432.00              97.85,2425.17 99.18,2424.52 98.99,2416.00              98.99,2416.00 97.51,2401.00 97.51,2401.00              97.51,2401.00 99.00,2384.00 99.00,2384.00              99.00,2384.00 99.00,2359.00 99.00,2359.00              99.00,2359.00 100.00,2335.00 100.00,2335.00              100.00,2335.00 98.04,2311.00 98.04,2311.00              98.04,2311.00 99.96,2296.00 99.96,2296.00              99.96,2296.00 99.18,2285.00 99.18,2285.00              99.18,2285.00 99.91,2278.00 99.91,2278.00              99.91,2278.00 98.09,2255.00 98.09,2255.00              98.09,2255.00 99.17,2241.00 99.17,2241.00              99.71,2236.01 101.24,2233.88 100.91,2228.00              100.91,2228.00 100.00,2216.00 100.00,2216.00              100.00,2216.00 100.00,2182.00 100.00,2182.00              100.00,2182.00 100.91,2167.00 100.91,2167.00              100.91,2167.00 100.05,2160.00 100.05,2160.00              100.05,2160.00 100.05,2144.00 100.05,2144.00              100.05,2144.00 100.61,2125.00 100.61,2125.00              100.61,2125.00 100.61,2112.00 100.61,2112.00              99.98,2105.57 104.42,2100.74 103.91,2092.00              103.91,2092.00 100.19,2074.00 100.19,2074.00              100.19,2074.00 103.70,2049.00 103.70,2049.00              103.70,2049.00 105.00,2028.00 105.00,2028.00              105.00,2028.00 105.00,2009.00 105.00,2009.00              105.00,2009.00 103.89,1997.00 103.89,1997.00              104.34,1992.38 107.33,1985.25 106.96,1976.00              106.72,1969.93 104.92,1967.65 104.78,1964.00              104.78,1964.00 104.78,1956.00 104.78,1956.00              104.78,1956.00 103.09,1946.00 103.09,1946.00              103.09,1946.00 103.09,1928.00 103.09,1928.00              103.09,1928.00 105.00,1890.00 105.00,1890.00              105.00,1890.00 104.00,1870.00 104.00,1870.00              104.00,1870.00 103.18,1860.00 103.18,1860.00              103.18,1860.00 104.91,1849.00 104.91,1849.00              105.35,1841.73 101.68,1835.15 103.22,1826.00              104.43,1818.80 109.86,1817.41 110.00,1804.00              110.17,1786.89 104.77,1793.18 105.00,1773.00              105.00,1773.00 106.46,1758.00 106.46,1758.00              106.46,1758.00 107.91,1750.00 107.91,1750.00              108.65,1739.86 105.68,1737.98 106.04,1729.00              106.30,1722.58 107.96,1722.05 108.00,1713.00              108.00,1713.00 108.00,1700.00 108.00,1700.00              108.00,1700.00 108.95,1689.00 108.95,1689.00              108.95,1689.00 108.95,1676.00 108.95,1676.00              108.95,1676.00 106.08,1656.00 106.08,1656.00              106.08,1656.00 106.08,1641.00 106.08,1641.00              106.08,1641.00 104.61,1626.00 104.61,1626.00              104.61,1626.00 107.70,1605.00 107.70,1605.00              107.70,1605.00 108.30,1597.00 108.30,1597.00              108.97,1592.31 109.86,1591.66 109.99,1586.00              109.99,1586.00 109.47,1577.00 109.47,1577.00              109.47,1577.00 113.97,1550.00 113.97,1550.00              113.97,1537.37 107.28,1535.90 106.17,1526.00              106.17,1526.00 105.46,1510.00 105.46,1510.00              106.07,1505.09 109.25,1501.31 108.99,1490.00              108.99,1490.00 107.26,1477.00 107.26,1477.00              107.26,1477.00 109.96,1449.00 109.96,1449.00              109.96,1449.00 109.10,1441.00 109.10,1441.00              109.10,1441.00 109.80,1424.00 109.80,1424.00              110.18,1417.52 111.97,1420.20 112.00,1403.00              112.00,1403.00 112.91,1383.00 112.91,1383.00              112.91,1383.00 110.18,1358.00 110.18,1358.00              110.56,1352.67 111.11,1342.80 112.35,1338.00              113.96,1331.80 117.38,1329.36 116.96,1319.00              116.57,1309.41 111.74,1306.89 112.02,1293.00              112.02,1293.00 116.00,1263.00 116.00,1263.00              116.00,1263.00 116.00,1251.00 116.00,1251.00              116.00,1251.00 115.10,1234.00 115.10,1234.00              115.65,1228.04 118.33,1226.17 117.96,1217.00              117.96,1217.00 114.08,1196.00 114.08,1196.00              114.08,1196.00 112.21,1189.00 112.21,1189.00              112.21,1189.00 111.10,1174.00 111.10,1174.00              111.10,1174.00 112.19,1164.00 112.19,1164.00              112.03,1160.83 111.79,1154.81 112.19,1152.00              112.19,1152.00 117.32,1137.00 117.32,1137.00              117.32,1137.00 118.57,1125.28 118.57,1125.28              119.40,1123.26 122.66,1120.17 124.21,1118.00              127.26,1113.72 128.78,1109.24 128.96,1104.00              129.17,1097.59 127.44,1092.08 123.47,1087.01              120.22,1082.85 117.80,1082.17 115.63,1076.99              112.42,1069.30 114.99,1061.01 115.00,1053.00              115.00,1053.00 115.00,1044.00 115.00,1044.00              115.00,1044.00 114.18,1034.00 114.18,1034.00              114.18,1034.00 114.80,1021.00 114.80,1021.00              114.80,1021.00 114.80,1012.00 114.80,1012.00              114.80,1012.00 115.71,1005.00 115.71,1005.00              115.71,1005.00 116.96,985.00 116.96,985.00              116.96,985.00 115.00,967.00 115.00,967.00              115.00,967.00 115.00,956.00 115.00,956.00              115.10,948.60 117.32,945.88 118.54,939.00              118.54,939.00 119.91,925.00 119.91,925.00              120.50,915.67 116.92,912.70 117.21,907.00              117.52,901.08 121.34,894.30 120.96,885.00              120.54,874.67 116.10,873.75 116.03,866.00              115.97,857.86 120.41,856.63 119.96,845.00              119.33,828.83 115.97,825.46 115.21,820.00              115.21,820.00 116.00,805.00 116.00,805.00              116.00,805.00 116.00,790.00 116.00,790.00              116.00,790.00 118.91,765.00 118.91,765.00              118.91,765.00 118.91,744.00 118.91,744.00              118.91,744.00 115.68,728.00 115.68,728.00              115.25,722.33 117.98,720.14 117.91,709.00              117.91,709.00 117.91,698.00 117.91,698.00              117.91,698.00 116.38,689.00 116.38,689.00              116.38,689.00 118.93,679.00 118.93,679.00              118.93,679.00 118.93,670.00 118.93,670.00              118.93,670.00 120.91,655.00 120.91,655.00              121.51,645.65 118.02,642.13 117.56,638.00              117.56,638.00 119.00,619.00 119.00,619.00              118.88,609.48 116.24,608.13 116.06,602.00              115.92,597.44 118.64,587.09 119.54,582.00              119.54,582.00 120.34,569.00 120.34,569.00              121.27,564.17 124.69,560.41 126.65,556.00              128.81,551.15 129.11,547.22 128.99,542.00              128.65,527.56 119.20,523.79 118.96,507.00              118.96,507.00 118.96,496.00 118.96,496.00              118.96,496.00 118.04,486.00 118.04,486.00              118.04,486.00 120.06,474.00 120.06,474.00              120.06,474.00 120.06,464.00 120.06,464.00              121.20,457.47 126.50,453.41 125.91,443.00              125.31,432.44 122.09,424.17 121.80,421.00              121.80,421.00 122.91,405.00 122.91,405.00              122.91,405.00 121.04,395.00 121.04,395.00              121.04,395.00 121.04,381.00 121.04,381.00              121.04,381.00 119.47,372.00 119.47,372.00              119.47,372.00 120.00,363.00 120.00,363.00              120.00,363.00 120.00,320.00 120.00,320.00              120.00,320.00 117.54,299.00 117.54,299.00              117.54,299.00 117.54,278.00 117.54,278.00              117.54,278.00 118.71,271.00 118.71,271.00              120.43,259.83 120.81,259.50 121.00,248.00              121.15,239.18 124.46,239.28 125.70,231.00              125.70,231.00 126.67,222.00 126.67,222.00              126.67,222.00 130.54,207.00 130.54,207.00              130.54,207.00 131.27,197.00 131.27,197.00              131.63,195.13 138.61,178.89 139.72,177.61              140.79,176.38 143.58,174.52 145.00,173.62              151.35,169.62 153.01,171.80 160.00,170.10              166.68,168.48 178.39,162.37 185.00,163.75              188.18,164.41 191.01,166.32 194.00,167.53              194.00,167.53 203.00,170.22 203.00,170.22              210.24,172.56 212.25,175.25 221.00,174.96              233.21,174.55 243.07,167.41 253.00,161.19              258.07,158.01 264.75,153.28 271.00,153.19              273.90,153.15 279.71,155.09 283.00,155.79              283.00,155.79 294.00,157.49 294.00,157.49              294.00,157.49 302.00,160.78 302.00,160.78              302.00,160.78 314.00,163.34 314.00,163.34              314.00,163.34 327.00,165.83 327.00,165.83              327.00,165.83 337.00,166.46 337.00,166.46              337.00,166.46 359.00,170.67 359.00,170.67              359.00,170.67 371.00,170.67 371.00,170.67              371.00,170.67 383.00,172.00 383.00,172.00              383.00,172.00 392.00,172.00 392.00,172.00              399.95,172.74 400.34,176.27 413.00,175.99              416.55,175.91 420.86,174.81 424.00,175.40              427.19,176.00 432.30,178.92 440.00,179.83              458.28,182.00 469.08,183.59 487.00,188.58              487.00,188.58 501.00,192.14 501.00,192.14              507.36,194.71 510.34,201.29 522.00,205.45              532.66,209.26 540.73,208.51 545.00,209.61              554.86,212.14 556.37,216.85 569.00,217.15              571.95,217.03 581.97,216.55 584.00,217.15              584.00,217.15 594.00,224.09 594.00,224.09              594.00,224.09 611.00,230.46 611.00,230.46              621.45,234.48 627.06,238.86 639.00,239.00              639.00,239.00 670.00,236.00 670.00,236.00              670.00,236.00 690.00,237.96 690.00,237.96              700.74,237.53 706.56,232.69 711.00,231.49              711.00,231.49 726.00,230.32 726.00,230.32              731.60,229.03 733.41,226.90 737.00,225.69              737.00,225.69 745.00,224.10 745.00,224.10              745.00,224.10 761.00,219.25 761.00,219.25              767.21,217.19 769.64,214.43 775.00,211.82              775.00,211.82 790.00,205.96 790.00,205.96              790.00,205.96 802.00,203.28 802.00,203.28              802.00,203.28 818.00,198.29 818.00,198.29              818.00,198.29 849.00,193.00 849.00,193.00              849.00,193.00 859.00,193.00 859.00,193.00              859.00,193.00 909.00,188.00 909.00,188.00              909.00,188.00 922.00,187.09 922.00,187.09              922.00,187.09 933.00,188.00 933.00,188.00              946.77,188.06 948.13,190.61 957.00,190.84              957.00,190.84 966.00,190.84 966.00,190.84              966.00,190.84 979.00,190.84 979.00,190.84              979.00,190.84 1003.00,188.00 1003.00,188.00              1003.00,188.00 1025.00,188.00 1025.00,188.00              1025.00,188.00 1041.00,189.96 1041.00,189.96              1041.00,189.96 1051.00,189.04 1051.00,189.04              1051.00,189.04 1067.00,189.04 1067.00,189.04              1067.00,189.04 1087.00,190.91 1087.00,190.91              1087.00,190.91 1105.00,190.91 1105.00,190.91              1105.00,190.91 1125.00,189.70 1125.00,189.70              1130.51,188.92 1130.20,188.08 1137.00,188.00              1137.00,188.00 1172.00,191.00 1172.00,191.00              1172.00,191.00 1187.00,192.00 1187.00,192.00              1187.00,192.00 1224.00,192.00 1224.00,192.00              1224.00,192.00 1237.00,190.34 1237.00,190.34              1237.00,190.34 1248.00,191.00 1248.00,191.00              1248.00,191.00 1262.00,191.00 1262.00,191.00              1262.00,191.00 1274.00,191.96 1274.00,191.96              1274.00,191.96 1288.00,191.96 1288.00,191.96              1300.61,191.98 1303.49,188.46 1309.00,188.47              1309.00,188.47 1325.00,189.91 1325.00,189.91              1325.00,189.91 1338.00,189.91 1338.00,189.91              1338.00,189.91 1346.00,188.60 1346.00,188.60              1346.00,188.60 1354.00,189.92 1354.00,189.92              1354.00,189.92 1362.00,189.92 1362.00,189.92              1362.00,189.92 1381.00,191.96 1381.00,191.96              1381.00,191.96 1392.00,191.09 1392.00,191.09              1392.00,191.09 1406.00,193.01 1406.00,193.01              1406.00,193.01 1413.00,193.01 1413.00,193.01              1420.47,194.08 1422.72,196.98 1436.00,197.00              1436.00,197.00 1464.00,197.00 1464.00,197.00              1464.00,197.00 1482.00,195.18 1482.00,195.18              1482.00,195.18 1492.00,196.00 1492.00,196.00              1492.00,196.00 1512.00,196.00 1512.00,196.00              1512.00,196.00 1534.00,194.00 1534.00,194.00              1534.00,194.00 1543.00,194.00 1543.00,194.00              1549.23,193.16 1549.57,191.68 1558.00,192.04              1558.00,192.04 1574.00,193.49 1574.00,193.49              1577.98,194.57 1581.75,197.94 1590.00,199.00              1590.00,199.00 1599.00,199.00 1599.00,199.00              1599.00,199.00 1627.00,201.97 1627.00,201.97              1627.00,201.97 1646.00,200.00 1646.00,200.00              1646.00,200.00 1667.00,200.00 1667.00,200.00              1667.00,200.00 1683.00,200.91 1683.00,200.91              1683.00,200.91 1697.00,200.91 1697.00,200.91              1705.56,199.91 1704.59,199.12 1715.00,199.00              1715.00,199.00 1741.00,195.21 1741.00,195.21              1741.00,195.21 1765.00,196.96 1765.00,196.96              1771.64,196.69 1776.44,194.22 1781.00,193.81              1781.00,193.81 1791.00,193.81 1791.00,193.81              1806.36,194.17 1807.49,195.79 1824.00,193.81              1824.00,193.81 1849.00,189.48 1849.00,189.48              1853.23,189.38 1856.34,191.81 1864.00,191.99              1871.12,192.15 1877.22,190.57 1884.00,188.56              1884.00,188.56 1890.00,186.89 1890.00,186.89              1890.00,186.89 1909.00,186.89 1909.00,186.89              1909.00,186.89 1919.00,187.95 1919.00,187.95              1919.00,187.95 1931.00,187.95 1931.00,187.95              1931.00,187.95 1943.00,187.18 1943.00,187.18              1949.47,187.67 1952.99,189.90 1961.00,190.00              1961.00,190.00 1990.00,190.00 1990.00,190.00              1990.00,190.00 2005.00,189.00 2005.00,189.00              2005.00,189.00 2037.00,186.84 2037.00,186.84              2045.41,185.73 2047.25,182.50 2051.00,182.69              2054.67,182.87 2057.05,186.42 2066.00,188.33              2066.00,188.33 2091.00,190.38 2091.00,190.38              2091.00,190.38 2102.00,193.98 2102.00,193.98              2111.77,197.00 2126.96,200.98 2137.00,200.87              2137.00,200.87 2153.00,200.87 2153.00,200.87              2153.00,200.87 2163.00,200.87 2163.00,200.87              2169.12,200.89 2173.63,203.27 2180.00,202.91              2184.30,202.66 2185.87,201.76 2191.00,202.09              2191.00,202.09 2209.00,204.00 2209.00,204.00              2217.75,204.10 2218.22,203.24 2226.00,202.29              2226.00,202.29 2236.00,201.70 2236.00,201.70              2244.49,200.49 2252.33,198.90 2261.00,199.00              2261.00,199.00 2275.00,199.96 2275.00,199.96              2275.00,199.96 2293.00,198.08 2293.00,198.08              2293.00,198.08 2300.00,198.08 2300.00,198.08              2300.00,198.08 2311.00,197.04 2311.00,197.04              2311.00,197.04 2322.00,197.04 2322.00,197.04              2322.00,197.04 2341.00,196.00 2341.00,196.00              2341.00,196.00 2364.00,198.96 2364.00,198.96              2364.00,198.96 2375.00,198.39 2375.00,198.39              2379.17,198.70 2382.56,200.77 2390.00,199.70              2402.14,197.96 2404.65,192.19 2411.00,190.22              2419.32,187.63 2427.43,188.01 2436.00,188.00              2443.01,187.99 2449.36,186.74 2456.00,184.46              2456.00,184.46 2462.00,182.19 2462.00,182.19              2462.00,182.19 2478.00,182.19 2478.00,182.19              2478.00,182.19 2490.00,181.22 2490.00,181.22              2490.00,181.22 2498.00,183.34 2498.00,183.34              2505.86,185.29 2513.92,186.09 2522.00,186.00              2522.00,186.00 2534.00,184.80 2534.00,184.80              2534.00,184.80 2545.00,184.80 2545.00,184.80              2545.00,184.80 2554.00,184.05 2554.00,184.05              2554.00,184.05 2568.00,184.05 2568.00,184.05              2575.45,184.09 2575.46,185.24 2581.00,185.92              2581.00,185.92 2595.00,185.92 2595.00,185.92              2606.93,186.16 2608.38,190.94 2616.00,194.60              2620.64,196.83 2624.95,197.09 2630.00,196.79              2630.00,196.79 2638.00,196.79 2638.00,196.79              2638.00,196.79 2666.00,200.00 2666.00,200.00              2666.00,200.00 2691.00,200.00 2691.00,200.00              2691.00,200.00 2704.00,201.00 2704.00,201.00              2704.00,201.00 2729.00,201.00 2729.00,201.00              2729.00,201.00 2765.00,199.00 2765.00,199.00              2765.00,199.00 2795.00,199.00 2795.00,199.00              2795.00,199.00 2817.00,197.70 2817.00,197.70              2826.81,196.30 2830.57,194.02 2842.00,193.87              2842.00,193.87 2876.00,193.87 2876.00,193.87              2890.49,194.27 2887.07,193.00 2897.00,192.82              2897.00,192.82 2911.00,192.82 2911.00,192.82              2911.00,192.82 2921.00,194.70 2921.00,194.70              2921.00,194.70 2938.00,196.00 2938.00,196.00              2938.00,196.00 2990.00,201.00 2990.00,201.00              2990.00,201.00 3007.00,201.00 3007.00,201.00              3007.00,201.00 3018.00,200.18 3018.00,200.18              3018.00,200.18 3030.00,200.99 3030.00,200.99              3030.00,200.99 3054.00,198.09 3054.00,198.09              3054.00,198.09 3070.00,198.96 3070.00,198.96              3070.00,198.96 3081.00,198.96 3081.00,198.96              3081.00,198.96 3091.00,198.11 3091.00,198.11              3091.00,198.11 3107.00,198.11 3107.00,198.11              3113.76,199.16 3111.79,200.98 3124.00,201.00              3124.00,201.00 3143.00,201.00 3143.00,201.00              3143.00,201.00 3160.00,203.00 3160.00,203.00              3171.07,203.13 3178.82,202.42 3190.00,204.28              3197.99,205.62 3204.90,208.90 3213.00,209.00              3218.90,209.07 3224.33,209.38 3230.00,207.46              3230.00,207.46 3236.00,205.39 3236.00,205.39              3236.00,205.39 3245.00,204.70 3245.00,204.70              3245.00,204.70 3256.00,201.93 3256.00,201.93              3256.00,201.93 3275.00,199.58 3275.00,199.58              3275.00,199.58 3294.00,196.09 3294.00,196.09              3294.00,196.09 3309.00,196.96 3309.00,196.96              3309.00,196.96 3328.00,195.51 3328.00,195.51              3328.00,195.51 3361.00,197.00 3361.00,197.00              3361.00,197.00 3388.00,194.10 3388.00,194.10              3388.00,194.10 3400.00,195.00 3400.00,195.00              3400.00,195.00 3419.00,195.00 3419.00,195.00              3428.58,194.99 3428.58,193.68 3433.00,193.69              3433.00,193.69 3442.00,193.69 3442.00,193.69              3445.47,193.71 3447.20,192.91 3451.00,193.18              3451.00,193.18 3464.00,194.46 3464.00,194.46              3464.00,194.46 3474.00,196.93 3474.00,196.93              3474.00,196.93 3483.00,196.93 3483.00,196.93              3483.00,196.93 3495.00,198.91 3495.00,198.91              3495.00,198.91 3511.00,198.91 3511.00,198.91              3520.91,198.88 3523.62,196.02 3529.00,195.36              3529.00,195.36 3541.00,196.00 3541.00,196.00              3541.00,196.00 3554.00,196.00 3554.00,196.00              3554.00,196.00 3581.00,192.10 3581.00,192.10              3581.00,192.10 3592.00,192.10 3592.00,192.10              3595.87,191.65 3597.71,190.85 3602.00,191.09              3602.00,191.09 3621.00,192.00 3621.00,192.00              3621.00,192.00 3636.00,193.00 3636.00,193.00              3636.00,193.00 3650.00,193.00 3650.00,193.00              3650.00,193.00 3661.00,193.96 3661.00,193.96              3661.00,193.96 3673.00,193.96 3673.00,193.96              3681.96,194.01 3681.90,195.12 3689.00,195.92              3689.00,195.92 3709.00,195.92 3709.00,195.92              3721.37,196.02 3719.82,199.19 3730.00,200.70              3741.45,202.41 3749.61,201.19 3751.00,201.36              3754.91,201.85 3757.85,205.07 3766.00,206.77              3766.00,206.77 3793.00,206.77 3793.00,206.77              3793.00,206.77 3808.00,205.08 3808.00,205.08              3808.00,205.08 3819.00,206.00 3819.00,206.00              3819.00,206.00 3844.00,206.00 3844.00,206.00              3853.93,205.98 3851.99,204.92 3859.00,203.94              3859.00,203.94 3868.00,203.94 3868.00,203.94              3881.55,201.95 3886.09,200.17 3901.00,200.00              3907.83,199.92 3908.99,198.90 3915.00,198.15              3915.00,198.15 3938.00,195.20 3938.00,195.20              3938.00,195.20 3954.00,191.45 3954.00,191.45              3954.00,191.45 3984.00,188.00 3984.00,188.00              3984.00,188.00 4010.00,188.00 4010.00,188.00              4010.00,188.00 4027.00,186.57 4027.00,186.57              4027.00,186.57 4055.00,189.00 4055.00,189.00              4055.00,189.00 4072.00,187.09 4072.00,187.09              4072.00,187.09 4082.00,188.71 4082.00,188.71              4082.00,188.71 4094.00,189.92 4094.00,189.92              4094.00,189.92 4116.00,189.92 4116.00,189.92              4125.88,190.14 4125.69,193.99 4133.00,199.21              4138.10,202.86 4143.70,204.97 4150.00,204.97              4157.48,204.97 4165.93,201.82 4172.00,197.56              4176.27,194.57 4180.25,190.18 4185.00,188.48              4189.82,186.75 4209.07,182.90 4214.00,183.01              4222.30,183.21 4220.72,185.16 4235.00,185.00              4235.00,185.00 4249.00,184.00 4249.00,184.00              4249.00,184.00 4260.00,184.96 4260.00,184.96              4260.00,184.96 4273.00,184.96 4273.00,184.96              4273.00,184.96 4290.00,183.34 4290.00,183.34              4294.48,183.39 4295.45,185.24 4306.00,184.99              4315.41,184.76 4315.81,181.69 4325.00,182.04              4325.00,182.04 4337.00,183.00 4337.00,183.00              4337.00,183.00 4369.00,183.00 4369.00,183.00              4369.00,183.00 4381.00,182.32 4381.00,182.32              4381.00,182.32 4389.00,183.00 4389.00,183.00              4401.19,183.14 4399.29,182.14 4409.00,181.09              4409.00,181.09 4421.00,181.09 4421.00,181.09              4421.00,181.09 4431.00,181.96 4431.00,181.96              4431.00,181.96 4444.00,181.96 4444.00,181.96              4444.00,181.96 4477.00,188.00 4477.00,188.00              4482.38,188.06 4486.91,188.18 4492.00,186.05              4496.42,184.19 4502.42,179.84 4507.00,178.82              4507.00,178.82 4523.00,178.82 4523.00,178.82              4529.79,178.92 4529.49,178.08 4535.00,177.06              4535.00,177.06 4547.00,177.06 4547.00,177.06              4553.24,176.16 4552.57,175.04 4561.00,174.96              4561.00,174.96 4573.00,174.96 4573.00,174.96              4573.00,174.96 4580.00,174.18 4580.00,174.18              4580.00,174.18 4589.00,174.99 4589.00,174.99              4597.37,175.18 4603.24,173.68 4610.00,168.47              4613.39,165.86 4618.28,160.15 4622.00,158.95              4625.13,157.93 4628.86,159.67 4632.00,160.33              4635.72,161.12 4639.23,161.04 4643.00,161.00              4653.47,160.87 4652.94,157.48 4665.00,159.13              4669.69,159.77 4671.66,162.09 4677.00,163.32              4683.71,164.87 4686.78,162.92 4693.00,164.14              4693.00,164.14 4702.00,167.07 4702.00,167.07              4708.06,168.71 4719.83,170.99 4726.00,171.00              4726.00,171.00 4754.00,171.00 4754.00,171.00              4754.00,171.00 4766.00,171.95 4766.00,171.95              4766.00,171.95 4779.00,171.95 4779.00,171.95              4779.00,171.95 4791.00,171.34 4791.00,171.34              4791.00,171.34 4824.00,178.96 4824.00,178.96              4824.00,178.96 4840.00,177.84 4840.00,177.84              4840.00,177.84 4859.00,177.84 4859.00,177.84              4859.00,177.84 4871.00,177.84 4871.00,177.84              4871.00,177.84 4901.00,180.91 4901.00,180.91              4901.00,180.91 4921.00,180.00 4921.00,180.00              4921.00,180.00 4936.00,181.00 4936.00,181.00              4936.00,181.00 4944.00,181.00 4944.00,181.00              4944.00,181.00 4959.00,180.00 4959.00,180.00              4959.00,180.00 4968.00,180.00 4968.00,180.00              4968.00,180.00 4989.00,176.75 4989.00,176.75              4989.00,176.75 4999.00,177.95 4999.00,177.95              4999.00,177.95 5022.00,177.95 5022.00,177.95              5022.00,177.95 5050.00,176.56 5050.00,176.56              5050.00,176.56 5064.00,180.77 5064.00,180.77              5064.00,180.77 5081.00,180.77 5081.00,180.77              5096.75,180.98 5105.94,176.11 5115.00,176.00              5125.45,175.88 5126.97,176.25 5137.00,177.70              5137.00,177.70 5144.00,178.39 5144.00,178.39              5153.07,180.32 5148.82,182.17 5164.00,182.00              5164.00,182.00 5178.00,179.93 5178.00,179.93              5178.00,179.93 5191.00,179.93 5191.00,179.93              5191.00,179.93 5200.00,177.66 5200.00,177.66              5200.00,177.66 5212.00,178.96 5212.00,178.96              5212.00,178.96 5221.00,178.96 5221.00,178.96              5227.75,179.08 5227.48,179.91 5233.00,180.70              5233.00,180.70 5250.00,182.00 5250.00,182.00              5250.00,182.00 5261.00,182.00 5261.00,182.00              5261.00,182.00 5279.00,181.10 5279.00,181.10              5279.00,181.10 5293.00,184.70 5293.00,184.70              5300.72,185.81 5304.77,183.83 5311.00,184.04              5311.00,184.04 5326.00,185.77 5326.00,185.77              5326.00,185.77 5348.00,185.77 5348.00,185.77              5353.08,184.58 5357.57,181.76 5361.00,182.01              5367.16,182.45 5377.90,189.39 5389.00,188.96              5389.00,188.96 5401.00,187.93 5401.00,187.93              5404.96,188.52 5406.68,191.16 5413.00,193.25              5419.70,195.47 5426.04,195.08 5433.00,195.00              5441.54,194.90 5441.74,193.35 5449.00,191.82              5455.73,190.40 5468.06,189.08 5475.00,189.00              5481.06,188.92 5486.75,187.68 5492.00,184.52              5496.77,181.65 5498.46,178.75 5504.00,176.93              5504.00,176.93 5522.00,171.05 5522.00,171.05              5526.76,169.02 5529.04,166.32 5533.00,164.21              5533.00,164.21 5544.00,159.67 5544.00,159.67              5544.00,159.67 5563.00,148.33 5563.00,148.33              5567.49,145.72 5570.14,146.08 5575.00,142.89              5580.35,139.39 5581.95,136.21 5585.17,133.63              5585.17,133.63 5599.00,124.24 5599.00,124.24              5599.00,124.24 5621.00,113.90 5621.00,113.90              5626.97,109.93 5628.88,106.23 5632.17,103.63              5635.50,100.99 5639.73,100.02 5645.00,95.67              5647.34,93.74 5652.56,87.95 5655.00,87.34              5658.90,86.35 5661.08,91.50 5666.01,95.67              5672.55,101.19 5678.63,102.96 5687.00,103.00              5687.00,103.00 5691.00,103.00 5691.00,103.00              5698.45,102.91 5698.42,101.78 5704.00,101.17              5713.62,100.13 5720.37,100.64 5729.00,94.90              5739.15,88.15 5741.15,78.91 5744.47,75.96              5751.48,69.75 5759.68,71.18 5768.00,70.99              5772.82,70.87 5786.87,68.31 5791.00,66.09              5796.90,62.91 5798.79,59.00 5802.17,58.46              5805.37,57.96 5810.97,60.39 5814.00,61.46              5822.31,64.39 5830.01,68.89 5839.00,69.00              5839.00,69.00 5843.00,69.00 5843.00,69.00              5853.27,68.88 5852.54,66.83 5860.00,64.63              5860.00,64.63 5875.00,61.84 5875.00,61.84              5888.65,58.25 5891.98,54.11 5907.00,57.00              5907.00,57.00 5912.89,58.23 5912.89,58.23              5917.57,59.90 5919.81,68.66 5921.54,73.00              5923.99,79.14 5928.17,83.93 5934.00,87.09              5939.28,89.94 5946.99,91.93 5953.00,92.00              5953.00,92.00 5957.00,92.00 5957.00,92.00              5964.81,92.11 5964.48,93.69 5971.00,96.66              5971.00,96.66 5990.00,105.81 5990.00,105.81              5999.63,110.62 6000.34,112.94 6012.00,113.00              6014.99,113.01 6018.21,112.72 6021.00,113.98              6024.68,115.64 6027.55,119.60 6035.00,121.32              6035.00,121.32 6049.00,122.18 6049.00,122.18              6049.00,122.18 6060.00,124.70 6060.00,124.70              6068.72,126.00 6075.34,125.90 6084.00,126.00              6101.03,126.20 6102.93,130.25 6113.00,131.70              6117.62,132.37 6124.04,131.24 6128.00,133.17              6128.00,133.17 6136.00,138.89 6136.00,138.89              6136.00,138.89 6146.00,143.68 6146.00,143.68              6151.88,147.21 6153.31,150.08 6161.00,151.53              6169.48,153.14 6178.37,151.53 6186.00,147.63              6189.41,145.88 6193.87,141.92 6197.00,141.35              6199.85,140.83 6203.26,142.32 6206.00,143.09              6211.59,144.67 6217.15,146.19 6223.00,145.96              6223.00,145.96 6243.00,144.07 6243.00,144.07              6248.42,142.59 6250.34,140.09 6254.00,140.63              6256.89,141.05 6259.97,143.91 6266.00,145.32              6266.00,145.32 6289.00,149.96 6289.00,149.96              6296.11,153.07 6299.38,159.51 6313.00,158.96              6322.48,158.58 6325.15,154.51 6330.00,153.72              6333.42,153.17 6337.99,154.99 6345.00,153.07              6350.64,151.53 6352.71,148.83 6356.00,148.91              6356.00,148.91 6374.00,154.34 6374.00,154.34              6374.00,154.34 6386.00,156.91 6386.00,156.91              6386.00,156.91 6396.00,160.32 6396.00,160.32              6396.00,160.32 6406.00,161.30 6406.00,161.30              6406.00,161.30 6415.00,163.33 6415.00,163.33              6419.94,164.35 6424.99,163.91 6430.00,164.00              6441.07,164.21 6436.47,171.36 6450.00,179.52              6458.36,184.56 6463.21,183.49 6472.00,184.09              6472.00,184.09 6480.00,184.96 6480.00,184.96              6483.77,185.08 6502.77,183.60 6506.00,182.45              6512.59,180.11 6516.41,175.93 6520.00,174.82              6522.87,173.79 6530.47,175.24 6535.00,174.82              6542.15,174.39 6546.15,171.46 6551.00,171.12              6557.40,170.67 6565.67,173.15 6572.00,173.91              6572.00,173.91 6584.00,173.91 6584.00,173.91              6595.10,173.87 6603.73,170.27 6607.00,170.19              6607.00,170.19 6637.00,172.99 6637.00,172.99              6637.00,172.99 6647.00,172.32 6647.00,172.32              6651.41,172.65 6655.53,173.24 6660.00,172.91              6660.00,172.91 6671.00,171.18 6671.00,171.18              6671.00,171.18 6678.00,171.96 6678.00,171.96              6678.00,171.96 6690.00,171.96 6690.00,171.96              6690.00,171.96 6709.00,173.37 6709.00,173.37              6715.37,174.59 6714.67,175.90 6723.00,176.00              6723.00,176.00 6742.00,176.00 6742.00,176.00              6742.00,176.00 6755.00,175.00 6755.00,175.00              6755.00,175.00 6777.00,175.00 6777.00,175.00              6777.00,175.00 6798.00,173.01 6798.00,173.01              6798.00,173.01 6819.00,175.92 6819.00,175.92              6819.00,175.92 6841.00,175.92 6841.00,175.92              6849.61,175.99 6847.91,175.31 6855.00,174.30              6855.00,174.30 6872.00,173.00 6872.00,173.00              6872.00,173.00 6891.00,172.21 6891.00,172.21              6891.00,172.21 6903.00,174.70 6903.00,174.70              6903.00,174.70 6923.00,176.00 6923.00,176.00              6923.00,176.00 6957.00,176.00 6957.00,176.00              6966.93,175.98 6964.99,174.92 6972.00,174.09              6972.00,174.09 6983.00,174.09 6983.00,174.09              6983.00,174.09 6999.00,176.06 6999.00,176.06              6999.00,176.06 7009.00,176.06 7009.00,176.06              7009.00,176.06 7019.00,177.94 7019.00,177.94              7019.00,177.94 7040.00,177.94 7040.00,177.94              7040.00,177.94 7049.00,177.14 7049.00,177.14              7054.35,177.41 7059.19,180.88 7069.00,181.00              7073.18,181.05 7080.21,180.71 7084.00,181.52              7093.07,183.45 7094.53,187.51 7107.00,186.96              7115.25,186.60 7119.49,182.89 7127.00,182.18              7127.00,182.18 7157.00,183.91 7157.00,183.91              7165.27,183.31 7167.82,179.71 7174.00,179.10              7185.33,178.00 7189.50,181.97 7200.00,180.83              7207.07,180.06 7210.53,177.02 7214.00,175.81              7214.00,175.81 7229.00,174.08 7229.00,174.08              7238.14,174.09 7247.82,179.38 7255.00,179.91              7263.30,180.52 7266.36,179.03 7272.00,179.03              7272.00,179.03 7297.00,181.00 7297.00,181.00              7297.00,181.00 7310.00,180.00 7310.00,180.00              7310.00,180.00 7328.00,180.00 7328.00,180.00              7346.01,180.21 7343.30,185.97 7360.00,186.00              7360.00,186.00 7400.00,187.18 7400.00,187.18              7407.98,188.19 7406.56,190.98 7420.00,190.85              7420.00,190.85 7435.00,190.85 7435.00,190.85              7435.00,190.85 7444.00,188.78 7444.00,188.78              7444.00,188.78 7452.00,188.78 7452.00,188.78              7468.44,187.97 7492.74,181.43 7503.00,168.00              7515.51,170.35 7513.28,170.02 7526.00,170.00              7537.29,169.98 7539.30,167.38 7543.00,167.42              7547.39,167.46 7549.55,170.87 7560.00,171.00              7560.00,171.00 7581.00,170.18 7581.00,170.18              7581.00,170.18 7600.00,171.85 7600.00,171.85              7600.00,171.85 7625.00,171.85 7625.00,171.85              7630.73,170.88 7641.51,167.32 7647.00,167.84              7647.00,167.84 7654.00,168.95 7654.00,168.95              7654.00,168.95 7672.00,168.95 7672.00,168.95              7672.00,168.95 7685.00,168.09 7685.00,168.09              7691.39,168.45 7697.54,169.66 7704.00,168.70              7711.74,167.56 7713.99,164.00 7718.00,163.79              7720.02,163.68 7723.69,165.10 7726.00,165.53              7726.00,165.53 7734.00,166.37 7734.00,166.37              7742.62,168.04 7743.64,169.94 7754.00,168.83              7760.33,168.15 7765.94,165.21 7772.00,163.60              7772.00,163.60 7780.00,162.10 7780.00,162.10              7780.00,162.10 7786.00,160.72 7786.00,160.72              7789.09,160.56 7792.02,162.24 7795.00,163.08              7795.00,163.08 7810.00,165.83 7810.00,165.83              7818.29,166.62 7820.98,164.29 7826.00,163.80              7826.00,163.80 7838.00,163.80 7838.00,163.80              7838.00,163.80 7863.00,163.22 7863.00,163.22              7863.00,163.22 7875.00,165.91 7875.00,165.91              7875.00,165.91 7893.00,165.91 7893.00,165.91              7893.00,165.91 7911.00,167.97 7911.00,167.97              7911.00,167.97 7936.00,165.10 7936.00,165.10              7936.00,165.10 7945.00,165.96 7945.00,165.96              7945.00,165.96 7961.00,165.96 7961.00,165.96              7974.18,165.98 7976.65,162.21 7982.00,162.27              7982.00,162.27 8002.00,165.99 8002.00,165.99              8015.79,166.30 8019.06,161.14 8029.00,161.00              8029.00,161.00 8059.00,162.00 8059.00,162.00              8059.00,162.00 8076.00,164.00 8076.00,164.00              8076.00,164.00 8089.00,163.18 8089.00,163.18              8089.00,163.18 8100.00,165.00 8100.00,165.00              8100.00,165.00 8111.00,165.00 8111.00,165.00              8111.00,165.00 8135.00,168.00 8135.00,168.00              8135.00,168.00 8166.00,169.91 8166.00,169.91              8168.68,170.09 8175.48,169.51 8177.40,171.02              8179.21,172.45 8179.15,176.73 8179.68,179.00              8179.68,179.00 8185.92,197.00 8185.92,197.00              8185.92,197.00 8188.87,204.00 8188.87,204.00              8188.87,204.00 8190.47,233.00 8190.47,233.00              8192.50,243.80 8197.93,243.32 8198.00,255.00              8198.04,262.13 8197.54,264.85 8199.38,272.00              8199.38,272.00 8202.91,283.00 8202.91,283.00              8203.01,286.21 8200.79,288.14 8201.01,298.00              8201.29,309.95 8205.69,309.02 8207.58,321.00              8207.58,321.00 8209.17,340.00 8209.17,340.00              8209.17,340.00 8211.46,354.00 8211.46,354.00              8211.46,354.00 8215.54,371.00 8215.54,371.00              8215.54,371.00 8217.68,385.00 8217.68,385.00              8217.68,385.00 8222.54,402.00 8222.54,402.00              8222.54,402.00 8224.74,418.00 8224.74,418.00              8224.74,418.00 8224.04,428.00 8224.04,428.00              8224.04,428.00 8224.99,441.00 8224.99,441.00              8224.99,441.00 8223.00,466.00 8223.00,466.00              8223.00,466.00 8222.09,480.00 8222.09,480.00              8222.09,480.00 8223.00,487.00 8223.00,487.00              8223.00,487.00 8223.00,498.00 8223.00,498.00              8223.00,498.00 8223.92,506.00 8223.92,506.00              8223.92,506.00 8222.01,532.00 8222.01,532.00              8222.01,532.00 8224.00,553.00 8224.00,553.00              8224.11,562.35 8221.30,573.19 8224.56,582.00              8226.72,587.85 8229.94,590.31 8233.40,595.00              8237.29,600.28 8248.68,617.47 8250.93,623.00              8252.42,626.68 8251.74,629.25 8252.30,633.00              8252.30,633.00 8255.13,643.00 8255.13,643.00              8255.13,643.00 8255.13,653.00 8255.13,653.00              8255.13,653.00 8256.70,661.00 8256.70,661.00              8256.70,661.00 8259.84,691.00 8259.84,691.00              8259.84,691.00 8259.84,696.00 8259.84,696.00              8257.63,708.14 8251.77,701.85 8241.00,705.22              8233.50,707.56 8226.83,712.88 8223.40,720.00              8221.49,723.98 8221.32,726.75 8220.93,731.00              8220.93,731.00 8220.03,740.00 8220.03,740.00              8220.03,740.00 8221.96,759.00 8221.96,759.00              8221.96,759.00 8220.08,774.00 8220.08,774.00              8220.08,774.00 8220.08,801.00 8220.08,801.00              8220.08,801.00 8220.08,812.00 8220.08,812.00              8219.75,815.37 8217.82,818.12 8218.04,825.00              8218.04,825.00 8219.26,840.00 8219.26,840.00              8219.26,840.00 8219.26,851.00 8219.26,851.00              8219.26,851.00 8219.81,861.00 8219.81,861.00              8218.95,871.39 8215.42,874.56 8221.32,886.00              8224.65,892.45 8228.36,898.97 8234.00,903.67              8238.76,907.64 8242.19,908.18 8244.16,910.49              8244.16,910.49 8248.48,919.00 8248.48,919.00              8248.48,919.00 8262.09,935.82 8262.09,935.82              8269.17,942.55 8274.33,941.26 8276.70,944.51              8277.53,945.65 8278.34,948.54 8278.92,950.00              8278.92,950.00 8282.38,958.00 8282.38,958.00              8282.38,958.00 8286.45,980.00 8286.45,980.00              8286.45,980.00 8285.00,997.00 8285.00,997.00              8285.00,997.00 8284.09,1009.00 8284.09,1009.00              8284.09,1009.00 8282.91,1032.00 8282.91,1032.00              8282.91,1032.00 8282.00,1043.00 8282.00,1043.00              8275.70,1043.06 8271.44,1043.55 8266.00,1047.11              8263.56,1048.70 8259.04,1053.09 8257.00,1053.71              8253.19,1054.86 8250.60,1050.62 8242.00,1050.09              8229.83,1049.34 8220.12,1057.57 8215.00,1068.00              8207.61,1065.67 8204.63,1061.68 8196.00,1061.09              8177.99,1059.85 8164.14,1075.86 8163.09,1093.00              8162.68,1099.69 8165.17,1102.86 8164.66,1108.00              8164.16,1113.12 8160.60,1120.52 8160.04,1134.00              8160.04,1134.00 8161.92,1157.00 8161.92,1157.00              8161.92,1157.00 8161.92,1171.00 8161.92,1171.00              8162.04,1179.75 8163.36,1179.48 8163.81,1185.00              8163.81,1185.00 8163.01,1196.00 8163.01,1196.00              8162.77,1206.81 8164.95,1207.01 8165.79,1213.00              8165.79,1213.00 8166.30,1225.00 8166.30,1225.00              8166.30,1225.00 8168.54,1235.00 8168.54,1235.00              8168.54,1235.00 8172.00,1268.00 8172.00,1268.00              8172.00,1268.00 8172.00,1274.00 8172.00,1274.00              8172.00,1274.00 8174.94,1292.00 8174.94,1292.00              8174.94,1292.00 8174.94,1304.00 8174.94,1304.00              8175.37,1306.17 8176.03,1308.89 8175.82,1311.00              8175.43,1314.97 8172.72,1317.60 8170.91,1321.00              8168.77,1325.02 8167.83,1329.46 8168.09,1334.00              8168.34,1338.35 8169.46,1341.23 8168.79,1346.00              8168.79,1346.00 8166.68,1354.00 8166.68,1354.00              8166.68,1354.00 8164.04,1376.00 8164.04,1376.00              8164.49,1387.05 8171.00,1392.79 8172.49,1398.00              8174.24,1404.08 8171.14,1409.63 8178.53,1418.99              8180.91,1422.01 8183.63,1424.24 8187.00,1426.09              8189.23,1427.31 8192.19,1427.94 8193.44,1430.30              8194.94,1433.14 8194.82,1439.74 8195.17,1443.00              8195.78,1448.58 8196.91,1448.53 8197.00,1456.00              8197.00,1456.00 8200.00,1484.00 8200.00,1484.00              8200.00,1484.00 8201.00,1510.00 8201.00,1510.00              8201.00,1510.00 8205.47,1544.00 8205.47,1544.00              8206.93,1551.81 8207.98,1548.95 8208.04,1559.00              8208.04,1559.00 8208.04,1575.00 8208.04,1575.00              8208.04,1575.00 8209.53,1584.00 8209.53,1584.00              8209.53,1584.00 8209.03,1592.00 8209.03,1592.00              8209.03,1592.00 8209.82,1600.00 8209.82,1600.00              8209.82,1600.00 8209.04,1610.00 8209.04,1610.00              8208.63,1620.52 8212.41,1623.17 8212.62,1628.00              8212.62,1628.00 8211.00,1643.00 8211.00,1643.00              8210.97,1658.51 8206.44,1664.96 8206.04,1675.00              8205.83,1680.14 8207.22,1692.44 8209.40,1697.00              8212.10,1702.64 8216.41,1706.33 8218.01,1713.00              8218.64,1715.63 8217.96,1722.58 8218.01,1726.00              8218.01,1726.00 8222.13,1754.00 8222.13,1754.00              8222.40,1758.53 8220.19,1760.38 8220.01,1768.00              8219.71,1781.16 8222.27,1780.05 8227.16,1790.00              8227.16,1790.00 8229.95,1798.00 8229.95,1798.00              8230.90,1800.34 8232.32,1802.44 8232.64,1805.00              8232.64,1805.00 8231.04,1823.00 8231.04,1823.00              8231.35,1830.67 8235.43,1838.89 8235.70,1843.00              8235.98,1847.14 8233.81,1850.08 8234.04,1857.00              8234.04,1857.00 8240.22,1883.00 8240.22,1883.00              8242.83,1891.12 8249.50,1896.85 8251.03,1899.42              8253.36,1903.39 8253.68,1913.33 8254.67,1918.00              8255.78,1923.21 8259.03,1930.19 8258.91,1935.00              8258.77,1940.48 8255.22,1943.27 8252.93,1949.00              8250.66,1954.66 8251.42,1957.61 8250.31,1961.00              8248.70,1965.88 8244.69,1970.19 8244.09,1980.00              8244.09,1980.00 8244.82,1992.00 8244.82,1992.00              8244.82,1992.00 8243.63,2008.00 8243.63,2008.00              8243.63,2008.00 8240.17,2022.00 8240.17,2022.00              8239.39,2029.35 8241.15,2033.25 8240.82,2038.00              8240.82,2038.00 8239.70,2052.00 8239.70,2052.00              8239.70,2052.00 8238.17,2060.00 8238.17,2060.00              8238.17,2060.00 8236.96,2078.00 8236.96,2078.00              8236.54,2085.23 8232.54,2087.99 8233.09,2097.00              8233.09,2097.00 8234.79,2107.00 8234.79,2107.00              8234.79,2107.00 8234.00,2120.00 8234.00,2120.00              8234.00,2120.00 8235.09,2144.00 8235.09,2144.00              8235.50,2149.66 8237.50,2154.76 8237.37,2162.00              8237.26,2167.43 8232.71,2172.03 8233.04,2182.00              8233.35,2191.30 8236.59,2193.75 8239.19,2201.00              8239.19,2201.00 8242.79,2221.00 8242.79,2221.00              8242.96,2223.68 8242.42,2225.44 8242.17,2228.00              8242.17,2228.00 8241.61,2235.00 8241.61,2235.00              8240.72,2239.20 8238.33,2241.73 8238.04,2249.00              8237.54,2261.26 8242.87,2265.09 8245.44,2272.00              8245.44,2272.00 8252.22,2298.00 8252.22,2298.00              8254.24,2304.46 8257.32,2306.96 8257.91,2315.00              8258.39,2321.53 8257.27,2323.60 8257.04,2329.00              8257.04,2329.00 8257.82,2341.00 8257.82,2341.00              8257.82,2341.00 8257.03,2350.00 8257.03,2350.00              8257.03,2356.95 8259.67,2360.67 8259.96,2367.00              8259.96,2367.00 8258.02,2397.00 8258.02,2397.00              8257.79,2408.29 8262.02,2410.71 8261.17,2419.00              8261.17,2419.00 8258.99,2432.00 8258.99,2432.00              8256.85,2436.52 8250.55,2440.32 8250.04,2452.00              8249.62,2461.62 8253.73,2468.75 8254.25,2478.00              8255.07,2492.40 8249.36,2494.75 8250.09,2506.00              8250.27,2508.77 8252.67,2522.58 8253.56,2525.00              8255.82,2531.14 8258.00,2531.73 8259.53,2541.00              8259.53,2541.00 8258.00,2562.00 8258.00,2562.00              8258.15,2574.23 8262.71,2575.68 8263.42,2582.00              8263.96,2586.81 8260.60,2590.01 8261.09,2598.00              8261.45,2603.74 8263.72,2606.72 8263.30,2610.00              8262.79,2613.97 8259.24,2616.16 8259.01,2626.00              8258.75,2637.43 8261.24,2637.79 8262.72,2644.00              8263.75,2649.08 8263.36,2656.77 8262.72,2662.00              8262.72,2662.00 8260.51,2683.00 8260.51,2683.00              8259.31,2687.44 8255.34,2691.14 8255.04,2700.00              8254.79,2707.64 8256.65,2708.71 8258.37,2715.00              8258.37,2715.00 8260.16,2731.00 8260.16,2731.00              8259.55,2737.61 8258.56,2740.81 8259.09,2748.00              8259.09,2748.00 8260.74,2759.00 8260.74,2759.00              8260.74,2759.00 8258.00,2783.00 8258.00,2783.00              8257.88,2792.86 8255.06,2793.73 8252.09,2802.00              8252.09,2802.00 8248.93,2814.00 8248.93,2814.00              8246.18,2820.66 8244.03,2821.77 8244.03,2830.00              8244.03,2837.75 8246.28,2839.30 8247.63,2845.00              8247.63,2845.00 8248.93,2852.00 8248.93,2852.00              8248.93,2852.00 8251.37,2859.00 8251.37,2859.00              8251.37,2859.00 8255.00,2885.00 8255.00,2885.00              8255.00,2885.00 8255.00,2895.00 8255.00,2895.00              8255.00,2895.00 8256.68,2919.00 8256.68,2919.00              8256.68,2919.00 8256.00,2949.00 8256.00,2949.00              8255.87,2959.92 8250.03,2967.49 8251.09,2982.00              8251.89,2993.03 8257.92,2995.38 8258.86,3002.00              8259.76,3008.37 8257.78,3012.32 8256.94,3018.00              8256.94,3018.00 8256.94,3027.00 8256.94,3027.00              8256.03,3031.70 8255.15,3032.31 8255.01,3038.00              8254.63,3053.66 8259.64,3053.09 8258.89,3062.00              8258.57,3065.88 8256.55,3069.24 8255.68,3073.00              8255.68,3073.00 8253.17,3088.00 8253.17,3088.00              8252.16,3097.60 8256.63,3104.90 8256.58,3109.00              8256.54,3113.26 8251.26,3120.41 8251.13,3131.00              8251.13,3131.00 8251.13,3142.00 8251.13,3142.00              8251.13,3142.00 8250.09,3156.00 8250.09,3156.00              8250.09,3156.00 8251.85,3165.00 8251.85,3165.00              8251.85,3165.00 8251.85,3176.00 8251.85,3176.00              8252.01,3185.03 8253.66,3188.60 8250.53,3198.00              8248.35,3204.55 8242.41,3207.86 8242.04,3219.00              8241.65,3230.64 8247.39,3234.00 8248.21,3239.00              8248.21,3239.00 8246.00,3257.00 8246.00,3257.00              8246.00,3257.00 8246.00,3282.00 8246.00,3282.00              8245.91,3289.45 8244.76,3289.46 8243.98,3295.00              8243.98,3295.00 8243.98,3305.00 8243.98,3305.00              8242.81,3311.44 8238.03,3314.75 8238.03,3325.00              8238.03,3332.74 8241.07,3337.38 8241.54,3341.00              8241.95,3344.23 8240.35,3349.23 8240.09,3353.00              8240.09,3353.00 8240.68,3367.00 8240.68,3367.00              8240.68,3367.00 8237.04,3387.00 8237.04,3387.00              8236.76,3395.34 8239.81,3397.59 8239.23,3403.00              8239.23,3403.00 8238.29,3411.00 8238.29,3411.00              8238.29,3411.00 8238.29,3421.00 8238.29,3421.00              8238.29,3421.00 8237.15,3428.00 8237.15,3428.00              8237.15,3428.00 8237.15,3438.00 8237.15,3438.00              8237.02,3447.93 8238.08,3445.99 8238.91,3453.00              8238.91,3453.00 8238.91,3467.00 8238.91,3467.00              8239.01,3476.06 8240.01,3475.44 8240.25,3480.00              8240.25,3480.00 8238.79,3500.00 8238.79,3500.00              8238.24,3503.61 8236.29,3506.54 8235.22,3510.00              8235.22,3510.00 8232.03,3530.00 8232.03,3530.00              8232.03,3538.86 8234.69,3540.05 8237.19,3547.00              8238.42,3550.42 8237.99,3553.36 8239.95,3558.00              8241.09,3560.69 8243.98,3564.64 8244.36,3567.00              8244.86,3570.11 8242.60,3573.11 8241.56,3576.00              8240.07,3580.08 8239.92,3583.72 8240.01,3588.00              8240.01,3588.00 8241.47,3609.00 8241.47,3609.00              8241.47,3609.00 8243.63,3617.00 8243.63,3617.00              8243.63,3617.00 8245.54,3634.00 8245.54,3634.00              8245.61,3636.93 8244.70,3639.17 8244.06,3642.00              8244.06,3642.00 8244.06,3653.00 8244.06,3653.00              8243.12,3659.66 8241.25,3661.54 8242.17,3670.00              8242.58,3673.74 8243.56,3675.63 8244.41,3679.00              8244.41,3679.00 8250.27,3709.00 8250.27,3709.00              8250.20,3713.07 8244.61,3720.34 8245.09,3731.00              8245.09,3731.00 8244.00,3750.00 8244.00,3750.00              8243.98,3760.97 8244.20,3769.11 8241.74,3780.00              8240.79,3784.21 8238.13,3786.74 8236.56,3791.00              8234.41,3796.82 8235.41,3799.56 8234.83,3805.00              8234.30,3809.93 8232.74,3812.26 8233.09,3818.00              8233.64,3826.96 8238.17,3831.94 8238.32,3836.00              8238.32,3836.00 8238.32,3848.00 8238.32,3848.00              8238.54,3854.25 8239.96,3853.93 8240.00,3863.00              8240.00,3863.00 8240.00,3903.00 8240.00,3903.00              8240.02,3912.93 8241.08,3910.99 8241.91,3918.00              8241.91,3918.00 8241.91,3927.00 8241.91,3927.00              8242.02,3936.98 8244.98,3944.45 8246.21,3954.00              8246.21,3954.00 8246.21,3966.00 8246.21,3966.00              8246.21,3966.00 8248.90,3989.00 8248.90,3989.00              8248.90,3989.00 8248.09,4002.00 8248.09,4002.00              8248.09,4002.00 8249.75,4021.00 8249.75,4021.00              8249.06,4028.14 8246.21,4027.73 8246.00,4045.00              8245.89,4053.97 8241.38,4062.64 8242.09,4073.00              8242.09,4073.00 8244.93,4089.00 8244.93,4089.00              8244.93,4089.00 8247.04,4096.00 8247.04,4096.00              8247.04,4096.00 8247.04,4107.00 8247.04,4107.00              8247.04,4107.00 8247.93,4119.00 8247.93,4119.00              8247.68,4124.09 8244.31,4128.38 8242.34,4133.00              8239.97,4138.54 8239.94,4142.13 8240.00,4148.00              8240.13,4158.67 8247.15,4172.79 8246.79,4180.00              8246.79,4180.00 8243.61,4209.00 8243.61,4209.00              8243.61,4209.00 8239.16,4221.00 8239.16,4221.00              8237.69,4226.42 8237.94,4231.44 8238.00,4237.00              8238.00,4237.00 8238.91,4247.00 8238.91,4247.00              8238.91,4247.00 8238.04,4258.00 8238.04,4258.00              8237.63,4268.45 8241.34,4271.46 8242.02,4276.00              8242.02,4276.00 8242.02,4288.00 8242.02,4288.00              8241.40,4298.10 8235.80,4301.80 8236.00,4319.00              8236.12,4328.93 8239.16,4331.06 8239.24,4335.00              8239.31,4338.60 8236.70,4341.21 8237.04,4350.00              8237.04,4350.00 8237.75,4359.00 8237.75,4359.00              8237.42,4362.50 8235.43,4365.58 8235.09,4371.00              8235.09,4371.00 8235.61,4381.00 8235.61,4381.00              8235.27,4385.69 8233.85,4385.54 8234.01,4395.00              8234.25,4408.58 8230.42,4407.16 8231.04,4421.00              8231.42,4429.43 8233.85,4431.92 8236.80,4439.00              8236.80,4439.00 8238.95,4445.00 8238.95,4445.00              8240.69,4449.10 8243.10,4451.22 8242.49,4456.00              8241.82,4461.27 8237.37,4467.74 8236.30,4475.00              8236.30,4475.00 8234.82,4498.00 8234.82,4498.00              8234.82,4498.00 8230.06,4519.00 8230.06,4519.00              8230.06,4519.00 8230.06,4531.00 8230.06,4531.00              8230.06,4531.00 8227.29,4544.00 8227.29,4544.00              8227.29,4544.00 8225.54,4558.00 8225.54,4558.00              8225.54,4558.00 8220.46,4578.00 8220.46,4578.00              8220.46,4578.00 8219.22,4591.00 8219.22,4591.00              8216.81,4599.85 8213.11,4608.71 8213.00,4618.00              8212.75,4639.70 8209.65,4650.43 8205.83,4671.00              8204.55,4677.94 8201.74,4682.15 8202.09,4690.00              8202.50,4699.12 8201.01,4705.13 8200.08,4714.00              8200.08,4714.00 8200.08,4727.00 8200.08,4727.00              8200.08,4727.00 8198.01,4746.00 8198.01,4746.00              8198.31,4759.03 8207.89,4770.77 8221.00,4772.70              8225.53,4773.37 8228.61,4772.79 8233.00,4772.00              8232.96,4786.59 8230.11,4785.31 8228.47,4794.00              8228.47,4794.00 8227.00,4820.00 8227.00,4820.00              8227.00,4820.00 8221.17,4862.00 8221.17,4862.00              8222.22,4871.76 8227.98,4876.43 8229.44,4881.00              8229.44,4881.00 8230.30,4891.00 8230.30,4891.00              8230.30,4891.00 8231.70,4898.00 8231.70,4898.00              8231.70,4898.00 8232.90,4917.00 8232.90,4917.00              8232.90,4917.00 8229.40,4946.00 8229.40,4946.00              8229.40,4946.00 8225.47,4959.00 8225.47,4959.00              8225.47,4959.00 8224.63,4968.00 8224.63,4968.00              8223.01,4976.43 8219.78,4981.58 8220.15,4991.00              8220.15,4991.00 8220.15,4998.00 8220.15,4998.00              8220.15,4998.00 8222.99,5029.00 8222.99,5029.00              8222.99,5029.00 8222.02,5039.00 8222.02,5039.00              8222.02,5039.00 8222.02,5056.00 8222.02,5056.00              8221.98,5067.84 8218.63,5067.78 8219.04,5078.00              8219.04,5078.00 8220.79,5089.00 8220.79,5089.00              8220.79,5089.00 8220.00,5106.00 8220.00,5106.00              8219.91,5113.45 8218.78,5113.42 8218.17,5119.00              8218.17,5119.00 8216.84,5137.00 8216.84,5137.00              8216.95,5146.75 8215.80,5145.28 8216.84,5157.00              8216.84,5159.11 8215.83,5171.21 8215.16,5173.00              8213.99,5176.11 8211.75,5178.21 8210.22,5183.00              8208.18,5189.37 8209.56,5193.63 8208.61,5198.00              8207.19,5204.60 8203.05,5210.19 8199.91,5216.00              8199.91,5216.00 8197.08,5221.82 8197.08,5221.82              8194.90,5225.03 8191.44,5226.16 8187.33,5231.01              8187.33,5231.01 8181.64,5239.00 8181.64,5239.00              8173.53,5249.44 8170.64,5253.48 8164.00,5265.00              8164.00,5265.00 8151.00,5261.05 8151.00,5261.05              8139.51,5256.22 8139.37,5254.09 8125.00,5249.80              8121.83,5248.85 8119.36,5247.79 8116.00,5247.30              8105.15,5245.70 8094.85,5249.98 8084.00,5250.18              8084.00,5250.18 8065.00,5250.18 8065.00,5250.18              8065.00,5250.18 8052.00,5248.04 8052.00,5248.04              8043.31,5247.66 8041.48,5249.57 8037.00,5249.74              8037.00,5249.74 8027.00,5249.00 8027.00,5249.00              8011.61,5248.82 8004.09,5249.20 7990.00,5256.27              7982.13,5260.21 7969.13,5270.32 7961.00,5272.70              7961.00,5272.70 7945.00,5274.93 7945.00,5274.93              7945.00,5274.93 7931.00,5280.87 7931.00,5280.87              7931.00,5280.87 7910.00,5284.55 7910.00,5284.55              7903.64,5286.81 7901.15,5289.90 7896.00,5292.79              7896.00,5292.79 7885.00,5297.33 7885.00,5297.33              7885.00,5297.33 7876.00,5303.02 7876.00,5303.02              7872.16,5304.75 7869.18,5303.25 7863.00,5305.22              7856.87,5307.18 7854.09,5310.75 7851.00,5311.93              7847.08,5313.43 7839.37,5310.18 7830.00,5313.93              7819.15,5318.27 7815.99,5326.09 7809.00,5329.00              7809.00,5329.00 7798.00,5331.95 7798.00,5331.95              7798.00,5331.95 7786.00,5336.90 7786.00,5336.90              7786.00,5336.90 7779.00,5340.39 7779.00,5340.39              7779.00,5340.39 7768.00,5343.87 7768.00,5343.87              7768.00,5343.87 7757.00,5349.04 7757.00,5349.04              7757.00,5349.04 7748.00,5351.22 7748.00,5351.22              7741.99,5353.15 7739.22,5356.66 7732.00,5358.32              7732.00,5358.32 7711.00,5360.17 7711.00,5360.17              7703.63,5361.04 7699.71,5363.89 7692.00,5364.00              7692.00,5364.00 7657.00,5364.00 7657.00,5364.00              7657.00,5364.00 7643.00,5363.04 7643.00,5363.04              7643.00,5363.04 7627.00,5364.81 7627.00,5364.81              7627.00,5364.81 7618.00,5363.16 7618.00,5363.16              7618.00,5363.16 7601.00,5361.91 7601.00,5361.91              7601.00,5361.91 7591.00,5361.00 7591.00,5361.00              7574.81,5360.82 7572.17,5364.96 7564.00,5366.53              7564.00,5366.53 7550.00,5369.06 7550.00,5369.06              7550.00,5369.06 7541.00,5369.06 7541.00,5369.06              7541.00,5369.06 7527.00,5372.49 7527.00,5372.49              7527.00,5372.49 7518.00,5373.44 7518.00,5373.44              7499.59,5376.32 7502.42,5379.29 7480.00,5379.00              7469.49,5378.86 7465.67,5373.06 7452.00,5373.00              7437.13,5372.93 7436.00,5376.48 7429.00,5375.89              7424.19,5375.49 7421.38,5373.09 7417.00,5371.55              7413.84,5370.43 7406.43,5369.32 7403.00,5369.09              7389.67,5368.18 7382.02,5373.06 7377.00,5373.79              7377.00,5373.79 7361.00,5373.01 7361.00,5373.01              7349.31,5373.28 7330.65,5385.95 7321.00,5386.90              7321.00,5386.90 7306.00,5387.66 7306.00,5387.66              7301.01,5387.17 7300.17,5385.75 7293.00,5386.04              7293.00,5386.04 7281.00,5388.08 7281.00,5388.08              7281.00,5388.08 7264.00,5388.08 7264.00,5388.08              7246.18,5388.03 7228.59,5396.21 7210.00,5396.00              7203.21,5395.92 7203.51,5395.08 7198.00,5394.30              7198.00,5394.30 7181.00,5393.00 7181.00,5393.00              7169.16,5392.87 7155.38,5395.71 7144.00,5398.92              7144.00,5398.92 7136.00,5401.61 7136.00,5401.61              7136.00,5401.61 7125.00,5402.68 7125.00,5402.68              7125.00,5402.68 7104.00,5410.82 7104.00,5410.82              7100.02,5412.75 7097.35,5415.16 7093.00,5416.48              7093.00,5416.48 7075.00,5419.46 7075.00,5419.46              7075.00,5419.46 7061.00,5422.90 7061.00,5422.90              7061.00,5422.90 7038.00,5424.67 7038.00,5424.67              7030.47,5426.26 7024.13,5429.57 7017.00,5432.04              7017.00,5432.04 6998.00,5436.50 6998.00,5436.50              6986.93,5439.11 6983.88,5438.21 6974.00,5439.17              6974.00,5439.17 6953.00,5441.99 6953.00,5441.99              6953.00,5441.99 6936.00,5441.24 6936.00,5441.24              6936.00,5441.24 6920.00,5441.24 6920.00,5441.24              6920.00,5441.24 6907.00,5440.51 6907.00,5440.51              6907.00,5440.51 6889.00,5433.11 6889.00,5433.11              6884.59,5430.79 6880.74,5427.83 6876.00,5426.09              6869.04,5423.54 6865.07,5424.09 6858.00,5424.00              6852.07,5423.92 6841.04,5420.50 6835.00,5418.72              6835.00,5418.72 6822.00,5416.22 6822.00,5416.22              6813.69,5413.94 6801.48,5410.10 6793.00,5410.00              6790.18,5409.97 6784.42,5410.28 6782.00,5409.40              6782.00,5409.40 6765.00,5397.46 6765.00,5397.46              6765.00,5397.46 6752.38,5391.28 6752.38,5391.28              6748.86,5388.43 6747.41,5381.92 6738.00,5377.40              6732.06,5374.55 6725.41,5374.93 6719.00,5375.00              6709.17,5375.12 6708.35,5377.47 6703.00,5378.61              6703.00,5378.61 6685.00,5381.66 6685.00,5381.66              6685.00,5381.66 6669.00,5380.04 6669.00,5380.04              6661.35,5379.72 6660.22,5381.01 6656.00,5381.13              6656.00,5381.13 6645.00,5381.13 6645.00,5381.13              6645.00,5381.13 6634.00,5382.23 6634.00,5382.23              6634.00,5382.23 6615.00,5382.23 6615.00,5382.23              6615.00,5382.23 6604.00,5379.23 6604.00,5379.23              6600.33,5378.80 6592.06,5378.96 6588.00,5379.23              6588.00,5379.23 6573.00,5380.00 6573.00,5380.00              6573.00,5380.00 6555.00,5379.03 6555.00,5379.03              6555.00,5379.03 6541.00,5379.96 6541.00,5379.96              6541.00,5379.96 6530.00,5379.00 6530.00,5379.00              6530.00,5379.00 6499.00,5381.82 6499.00,5381.82              6499.00,5381.82 6486.00,5381.00 6486.00,5381.00              6486.00,5381.00 6472.00,5382.09 6472.00,5382.09              6472.00,5382.09 6457.00,5382.09 6457.00,5382.09              6451.46,5382.76 6451.45,5383.91 6444.00,5384.00              6444.00,5384.00 6429.00,5384.00 6429.00,5384.00              6429.00,5384.00 6414.00,5383.00 6414.00,5383.00              6414.00,5383.00 6395.00,5383.00 6395.00,5383.00              6395.00,5383.00 6377.00,5382.00 6377.00,5382.00              6377.00,5382.00 6363.00,5383.00 6363.00,5383.00              6363.00,5383.00 6339.00,5382.00 6339.00,5382.00              6339.00,5382.00 6325.00,5382.82 6325.00,5382.82              6325.00,5382.82 6302.00,5381.02 6302.00,5381.02              6302.00,5381.02 6279.00,5382.43 6279.00,5382.43              6279.00,5382.43 6264.00,5381.00 6264.00,5381.00              6264.00,5381.00 6248.00,5382.16 6248.00,5382.16              6248.00,5382.16 6241.00,5381.04 6241.00,5381.04              6241.00,5381.04 6222.00,5381.04 6222.00,5381.04              6222.00,5381.04 6207.00,5380.01 6207.00,5380.01              6207.00,5380.01 6191.00,5382.54 6191.00,5382.54              6191.00,5382.54 6183.00,5381.29 6183.00,5381.29              6178.77,5380.73 6169.01,5379.80 6165.00,5380.09              6159.32,5380.50 6158.61,5381.91 6151.00,5382.08              6151.00,5382.08 6137.00,5382.08 6137.00,5382.08              6137.00,5382.08 6128.00,5384.00 6128.00,5384.00              6128.00,5384.00 6118.00,5384.00 6118.00,5384.00              6113.18,5384.69 6112.12,5385.84 6106.00,5385.99              6101.78,5386.08 6093.98,5385.58 6090.51,5383.10              6087.66,5381.06 6083.89,5373.87 6075.00,5369.38              6059.35,5361.47 6056.02,5364.82 6041.00,5364.91              6041.00,5364.91 6027.00,5364.91 6027.00,5364.91              6027.00,5364.91 6016.00,5363.04 6016.00,5363.04              6004.14,5362.56 6001.30,5367.75 5990.00,5366.95              5984.92,5366.58 5982.75,5364.32 5978.00,5362.75              5972.00,5360.77 5965.29,5360.01 5959.00,5360.08              5959.00,5360.08 5949.00,5360.08 5949.00,5360.08              5949.00,5360.08 5939.00,5361.54 5939.00,5361.54              5939.00,5361.54 5928.00,5360.04 5928.00,5360.04              5928.00,5360.04 5907.00,5361.00 5907.00,5361.00              5907.00,5361.00 5886.00,5363.37 5886.00,5363.37              5881.59,5363.67 5878.72,5361.46 5870.00,5362.09              5870.00,5362.09 5847.00,5365.46 5847.00,5365.46              5847.00,5365.46 5840.00,5367.15 5840.00,5367.15              5840.00,5367.15 5831.00,5367.15 5831.00,5367.15              5823.51,5367.95 5820.45,5371.52 5816.00,5371.47              5816.00,5371.47 5808.00,5369.67 5808.00,5369.67              5803.31,5368.67 5802.00,5369.42 5797.00,5367.81              5786.70,5364.48 5786.73,5360.71 5773.00,5361.26              5773.00,5361.26 5765.00,5361.26 5765.00,5361.26              5760.41,5361.20 5758.52,5359.10 5750.00,5359.00              5734.51,5358.83 5736.01,5362.30 5727.00,5364.48              5717.29,5366.82 5705.00,5367.63 5695.00,5367.26              5695.00,5367.26 5666.00,5363.00 5666.00,5363.00              5666.00,5363.00 5645.00,5363.00 5645.00,5363.00              5645.00,5363.00 5599.00,5371.91 5599.00,5371.91              5599.00,5371.91 5579.00,5369.00 5579.00,5369.00              5566.37,5368.86 5566.89,5370.56 5556.00,5372.54              5556.00,5372.54 5547.00,5373.89 5547.00,5373.89              5547.00,5373.89 5537.00,5376.15 5537.00,5376.15              5537.00,5376.15 5500.00,5376.15 5500.00,5376.15              5500.00,5376.15 5470.00,5376.15 5470.00,5376.15              5470.00,5376.15 5455.00,5375.00 5455.00,5375.00              5455.00,5375.00 5442.00,5376.04 5442.00,5376.04              5442.00,5376.04 5434.00,5376.04 5434.00,5376.04              5434.00,5376.04 5427.00,5376.92 5427.00,5376.92              5421.19,5376.85 5419.51,5374.12 5410.00,5374.00              5382.74,5373.68 5382.53,5384.19 5357.00,5383.04              5357.00,5383.04 5347.00,5383.04 5347.00,5383.04              5339.99,5382.08 5341.93,5381.02 5332.00,5381.00              5332.00,5381.00 5311.00,5380.00 5311.00,5380.00              5311.00,5380.00 5292.00,5380.91 5292.00,5380.91              5282.39,5381.45 5280.62,5377.06 5268.00,5377.00              5263.36,5376.98 5258.53,5377.34 5254.00,5376.25              5254.00,5376.25 5236.00,5369.68 5236.00,5369.68              5231.33,5368.61 5223.12,5369.06 5218.00,5369.00              5218.00,5369.00 5203.00,5367.04 5203.00,5367.04              5203.00,5367.04 5185.00,5368.00 5185.00,5368.00              5173.34,5367.85 5175.79,5362.79 5157.00,5363.00              5157.00,5363.00 5138.00,5364.22 5138.00,5364.22              5138.00,5364.22 5129.00,5360.93 5129.00,5360.93              5129.00,5360.93 5112.00,5359.04 5112.00,5359.04              5105.78,5358.84 5104.08,5360.28 5099.00,5360.92              5099.00,5360.92 5087.00,5360.92 5087.00,5360.92              5087.00,5360.92 5062.00,5363.46 5062.00,5363.46              5062.00,5363.46 5053.00,5365.68 5053.00,5365.68              5053.00,5365.68 5042.00,5366.47 5042.00,5366.47              5036.56,5367.49 5035.02,5369.44 5029.00,5370.09              5029.00,5370.09 5013.00,5369.00 5013.00,5369.00              5013.00,5369.00 4984.00,5368.00 4984.00,5368.00              4984.00,5368.00 4975.00,5368.66 4975.00,5368.66              4975.00,5368.66 4950.00,5367.00 4950.00,5367.00              4950.00,5367.00 4934.00,5367.00 4934.00,5367.00              4920.02,5366.97 4921.56,5360.47 4907.00,5361.04              4907.00,5361.04 4880.00,5364.92 4880.00,5364.92              4873.17,5365.65 4867.80,5365.08 4861.00,5364.92              4853.55,5364.91 4853.54,5363.76 4848.00,5363.17              4848.00,5363.17 4827.00,5362.00 4827.00,5362.00              4827.00,5362.00 4810.00,5362.97 4810.00,5362.97              4810.00,5362.97 4797.00,5361.17 4797.00,5361.17              4797.00,5361.17 4782.00,5361.17 4782.00,5361.17              4782.00,5361.17 4760.00,5362.00 4760.00,5362.00              4760.00,5362.00 4741.00,5363.66 4741.00,5363.66              4741.00,5363.66 4725.00,5363.00 4725.00,5363.00              4725.00,5363.00 4715.00,5363.74 4715.00,5363.74              4710.38,5363.56 4708.65,5362.12 4698.00,5362.00              4698.00,5362.00 4676.00,5360.00 4676.00,5360.00              4665.53,5360.12 4665.03,5362.88 4659.00,5363.89              4659.00,5363.89 4638.00,5363.89 4638.00,5363.89              4638.00,5363.89 4621.00,5362.04 4621.00,5362.04              4614.99,5362.24 4611.66,5364.48 4605.00,5363.90              4605.00,5363.90 4593.00,5361.09 4593.00,5361.09              4593.00,5361.09 4570.00,5361.09 4570.00,5361.09              4560.01,5361.12 4558.33,5364.15 4545.00,5364.00              4545.00,5364.00 4526.00,5363.00 4526.00,5363.00              4526.00,5363.00 4509.00,5362.17 4509.00,5362.17              4501.00,5362.92 4495.18,5365.17 4487.00,5364.99              4487.00,5364.99 4476.00,5364.02 4476.00,5364.02              4476.00,5364.02 4460.00,5365.00 4460.00,5365.00              4460.00,5365.00 4436.00,5364.00 4436.00,5364.00              4436.00,5364.00 4423.00,5365.00 4423.00,5365.00              4423.00,5365.00 4401.00,5365.00 4401.00,5365.00              4401.00,5365.00 4388.00,5366.00 4388.00,5366.00              4388.00,5366.00 4370.00,5366.00 4370.00,5366.00              4361.02,5366.11 4359.56,5368.38 4355.00,5368.70              4355.00,5368.70 4344.00,5368.04 4344.00,5368.04              4339.23,5368.23 4334.79,5370.16 4330.00,5369.82              4330.00,5369.82 4312.00,5368.00 4312.00,5368.00              4312.00,5368.00 4291.00,5366.83 4291.00,5366.83              4291.00,5366.83 4282.00,5365.09 4282.00,5365.09              4282.00,5365.09 4265.00,5365.09 4265.00,5365.09              4253.05,5364.98 4251.90,5361.66 4242.00,5362.04              4239.09,5362.15 4235.72,5363.04 4233.00,5362.57              4229.27,5361.93 4226.47,5359.28 4220.00,5358.30              4216.92,5357.83 4207.49,5357.41 4205.30,5355.98              4202.59,5354.21 4202.50,5350.88 4202.68,5348.00              4202.88,5344.24 4203.26,5340.78 4202.68,5337.00              4202.30,5334.24 4200.75,5330.51 4201.21,5328.00              4201.63,5325.75 4204.52,5321.56 4205.65,5319.00              4207.93,5313.87 4207.99,5310.44 4208.00,5305.00              4208.00,5305.00 4209.00,5285.00 4209.00,5285.00              4209.06,5272.89 4208.65,5276.59 4206.36,5266.00              4203.25,5251.59 4199.99,5240.22 4184.00,5235.22              4179.37,5233.77 4174.78,5233.95 4170.00,5234.00              4164.99,5234.06 4158.65,5235.07 4154.00,5236.93              4142.52,5241.53 4128.97,5253.95 4125.22,5266.00              4123.83,5270.45 4123.95,5274.41 4124.00,5279.00              4124.13,5290.06 4127.27,5291.15 4129.38,5298.00              4131.83,5305.96 4130.82,5310.05 4136.10,5318.00              4140.46,5324.56 4146.64,5328.35 4147.60,5331.17              4148.31,5333.25 4146.89,5336.78 4146.47,5339.00              4144.84,5347.49 4145.24,5351.94 4135.00,5352.00              4135.00,5352.00 4131.00,5352.00 4131.00,5352.00              4125.34,5352.07 4115.20,5354.75 4110.00,5356.95              4110.00,5356.95 4101.00,5361.50 4101.00,5361.50              4097.67,5362.49 4079.09,5363.99 4075.00,5364.00              4075.00,5364.00 4065.00,5364.00 4065.00,5364.00              4065.00,5364.00 4052.00,5363.09 4052.00,5363.09              4052.00,5363.09 4030.00,5364.99 4030.00,5364.99              4014.38,5364.63 4011.95,5358.82 3996.00,5359.00              3983.91,5359.14 3985.66,5362.98 3972.00,5363.00              3972.00,5363.00 3949.00,5363.00 3949.00,5363.00              3949.00,5363.00 3933.00,5364.42 3933.00,5364.42              3933.00,5364.42 3925.00,5363.09 3925.00,5363.09              3925.00,5363.09 3912.00,5363.09 3912.00,5363.09              3900.60,5362.94 3900.74,5358.75 3879.00,5359.00              3879.00,5359.00 3860.00,5360.85 3860.00,5360.85              3860.00,5360.85 3844.00,5360.85 3844.00,5360.85              3837.23,5359.74 3833.54,5357.75 3826.00,5358.04              3826.00,5358.04 3806.00,5360.00 3806.00,5360.00              3806.00,5360.00 3772.00,5360.00 3772.00,5360.00              3767.92,5359.99 3760.69,5359.66 3757.00,5358.07              3757.00,5358.07 3748.00,5352.95 3748.00,5352.95              3748.00,5352.95 3738.00,5349.80 3738.00,5349.80              3730.08,5346.32 3727.51,5343.20 3718.00,5343.02              3712.81,5342.91 3708.66,5343.46 3704.00,5345.91              3699.25,5348.41 3696.34,5351.76 3691.00,5353.03              3691.00,5353.03 3679.00,5354.30 3679.00,5354.30              3679.00,5354.30 3654.00,5357.54 3654.00,5357.54              3654.00,5357.54 3640.00,5356.00 3640.00,5356.00              3622.90,5355.92 3622.05,5359.94 3607.00,5360.63              3601.55,5360.87 3597.85,5358.11 3589.00,5358.00              3589.00,5358.00 3573.00,5358.96 3573.00,5358.96              3573.00,5358.96 3560.00,5358.96 3560.00,5358.96              3560.00,5358.96 3534.00,5362.54 3534.00,5362.54              3534.00,5362.54 3523.00,5362.00 3523.00,5362.00              3523.00,5362.00 3503.00,5362.00 3503.00,5362.00              3503.00,5362.00 3485.00,5363.96 3485.00,5363.96              3485.00,5363.96 3474.00,5363.00 3474.00,5363.00              3474.00,5363.00 3441.00,5364.81 3441.00,5364.81              3441.00,5364.81 3432.00,5363.09 3432.00,5363.09              3432.00,5363.09 3421.00,5363.09 3421.00,5363.09              3421.00,5363.09 3399.00,5362.00 3399.00,5362.00              3399.00,5362.00 3382.00,5363.30 3382.00,5363.30              3382.00,5363.30 3374.00,5364.91 3374.00,5364.91              3374.00,5364.91 3351.00,5364.91 3351.00,5364.91              3336.77,5364.83 3331.83,5361.00 3324.00,5360.17              3324.00,5360.17 3303.00,5362.00 3303.00,5362.00              3303.00,5362.00 3285.00,5362.00 3285.00,5362.00              3274.97,5361.98 3277.80,5360.92 3270.00,5359.47              3270.00,5359.47 3259.00,5358.54 3259.00,5358.54              3253.40,5357.55 3247.76,5355.74 3242.00,5356.09              3237.09,5356.39 3234.21,5358.19 3229.00,5357.82              3229.00,5357.82 3214.00,5357.00 3214.00,5357.00              3214.00,5357.00 3193.00,5354.09 3193.00,5354.09              3193.00,5354.09 3174.00,5354.09 3174.00,5354.09              3168.09,5354.07 3164.20,5354.91 3159.00,5357.88              3156.41,5359.36 3152.39,5362.66 3150.00,5363.13              3150.00,5363.13 3137.00,5363.13 3137.00,5363.13              3137.00,5363.13 3114.00,5363.13 3114.00,5363.13              3101.64,5362.98 3104.19,5360.06 3092.00,5360.00              3092.00,5360.00 3073.00,5359.00 3073.00,5359.00              3073.00,5359.00 3055.00,5359.00 3055.00,5359.00              3048.25,5359.08 3048.52,5359.91 3043.00,5360.70              3043.00,5360.70 3028.00,5362.00 3028.00,5362.00              3028.00,5362.00 3006.00,5362.00 3006.00,5362.00              3006.00,5362.00 2996.00,5361.05 2996.00,5361.05              2996.00,5361.05 2982.00,5361.05 2982.00,5361.05              2982.00,5361.05 2963.00,5363.00 2963.00,5363.00              2963.00,5363.00 2930.00,5363.00 2930.00,5363.00              2930.00,5363.00 2913.00,5364.00 2913.00,5364.00              2913.00,5364.00 2870.00,5364.00 2870.00,5364.00              2870.00,5364.00 2855.00,5365.00 2855.00,5365.00              2855.00,5365.00 2838.00,5365.68 2838.00,5365.68              2838.00,5365.68 2820.00,5364.00 2820.00,5364.00              2820.00,5364.00 2809.00,5364.00 2809.00,5364.00              2809.00,5364.00 2799.00,5364.82 2799.00,5364.82              2799.00,5364.82 2789.00,5363.17 2789.00,5363.17              2780.27,5362.24 2780.27,5363.80 2769.00,5361.40              2762.05,5359.92 2756.18,5355.93 2749.00,5355.17              2740.93,5354.32 2734.89,5357.25 2730.00,5357.61              2730.00,5357.61 2717.00,5357.00 2717.00,5357.00              2717.00,5357.00 2695.00,5358.91 2695.00,5358.91              2695.00,5358.91 2683.00,5358.03 2683.00,5358.03              2683.00,5358.03 2666.00,5359.00 2666.00,5359.00              2655.45,5358.98 2657.72,5357.44 2650.00,5356.30              2650.00,5356.30 2635.00,5355.09 2635.00,5355.09              2635.00,5355.09 2608.00,5356.91 2608.00,5356.91              2608.00,5356.91 2594.00,5355.09 2594.00,5355.09              2594.00,5355.09 2580.00,5355.09 2580.00,5355.09              2580.00,5355.09 2559.00,5356.29 2559.00,5356.29              2559.00,5356.29 2548.00,5357.91 2548.00,5357.91              2548.00,5357.91 2528.00,5357.00 2528.00,5357.00              2528.00,5357.00 2510.00,5357.00 2510.00,5357.00              2510.00,5357.00 2494.00,5356.00 2494.00,5356.00              2487.02,5356.07 2486.94,5357.05 2483.00,5357.19              2483.00,5357.19 2473.00,5357.19 2473.00,5357.19              2473.00,5357.19 2421.00,5358.00 2421.00,5358.00              2421.00,5358.00 2401.00,5359.00 2401.00,5359.00              2401.00,5359.00 2386.00,5358.00 2386.00,5358.00              2386.00,5358.00 2360.00,5358.00 2360.00,5358.00              2360.00,5358.00 2345.00,5357.00 2345.00,5357.00              2345.00,5357.00 2318.00,5356.00 2318.00,5356.00              2307.02,5355.87 2306.67,5353.50 2298.00,5351.16              2298.00,5351.16 2283.00,5348.88 2283.00,5348.88              2272.23,5346.52 2277.87,5344.98 2262.00,5345.00              2262.00,5345.00 2246.00,5346.00 2246.00,5346.00              2246.00,5346.00 2219.00,5346.00 2219.00,5346.00              2219.00,5346.00 2200.00,5347.30 2200.00,5347.30              2200.00,5347.30 2183.00,5351.58 2183.00,5351.58              2183.00,5351.58 2166.00,5354.67 2166.00,5354.67              2166.00,5354.67 2155.00,5358.22 2155.00,5358.22              2155.00,5358.22 2145.00,5360.38 2145.00,5360.38              2145.00,5360.38 2128.00,5366.16 2128.00,5366.16              2128.00,5366.16 2114.00,5366.16 2114.00,5366.16              2106.24,5366.66 2109.09,5367.87 2096.00,5368.10              2096.00,5368.10 2089.00,5368.10 2089.00,5368.10              2089.00,5368.10 2071.00,5362.82 2071.00,5362.82              2063.54,5361.12 2059.94,5363.05 2055.00,5362.82              2043.47,5361.81 2045.34,5362.51 2035.00,5362.82              2035.00,5362.82 2026.00,5362.82 2026.00,5362.82              2026.00,5362.82 2015.00,5364.96 2015.00,5364.96              2002.44,5365.46 1999.98,5357.29 1987.00,5358.09              1980.84,5358.47 1978.73,5360.80 1972.00,5360.98              1972.00,5360.98 1954.00,5360.00 1954.00,5360.00              1944.98,5360.04 1945.76,5361.09 1938.00,5363.22              1938.00,5363.22 1929.00,5364.67 1929.00,5364.67              1919.59,5366.69 1922.66,5368.13 1911.00,5368.00              1911.00,5368.00 1892.00,5366.00 1892.00,5366.00              1892.00,5366.00 1868.00,5366.66 1868.00,5366.66              1868.00,5366.66 1861.00,5365.30 1861.00,5365.30              1852.92,5364.11 1844.16,5362.91 1836.00,5363.00              1836.00,5363.00 1815.00,5364.79 1815.00,5364.79              1815.00,5364.79 1803.00,5364.09 1803.00,5364.09              1797.45,5364.47 1796.60,5365.91 1789.00,5365.97              1789.00,5365.97 1775.00,5365.97 1775.00,5365.97              1767.20,5365.96 1760.90,5363.88 1753.00,5365.97              1737.61,5369.91 1734.52,5377.77 1723.00,5376.81              1714.84,5376.14 1707.52,5370.67 1698.00,5369.06              1698.00,5369.06 1686.00,5369.06 1686.00,5369.06              1686.00,5369.06 1677.00,5367.09 1677.00,5367.09              1677.00,5367.09 1660.00,5367.09 1660.00,5367.09              1647.78,5366.98 1649.83,5364.12 1641.00,5363.17              1641.00,5363.17 1624.00,5363.99 1624.00,5363.99              1614.97,5363.78 1612.35,5361.84 1605.00,5360.47              1605.00,5360.47 1586.00,5359.00 1586.00,5359.00              1586.00,5359.00 1573.00,5359.00 1573.00,5359.00              1566.86,5359.08 1565.41,5360.01 1560.00,5360.71              1553.65,5361.54 1546.40,5362.07 1540.00,5362.00              1540.00,5362.00 1509.00,5359.03 1509.00,5359.03              1509.00,5359.03 1498.00,5359.97 1498.00,5359.97              1498.00,5359.97 1483.00,5359.00 1483.00,5359.00              1483.00,5359.00 1456.00,5361.96 1456.00,5361.96              1456.00,5361.96 1445.00,5360.92 1445.00,5360.92              1445.00,5360.92 1432.00,5360.92 1432.00,5360.92              1426.30,5360.22 1425.28,5358.76 1418.00,5359.04              1418.00,5359.04 1409.00,5360.06 1409.00,5360.06              1409.00,5360.06 1398.00,5360.06 1398.00,5360.06              1398.00,5360.06 1382.00,5361.92 1382.00,5361.92              1375.81,5361.85 1375.26,5359.02 1363.00,5359.00              1363.00,5359.00 1349.00,5359.66 1349.00,5359.66              1349.00,5359.66 1336.00,5359.04 1336.00,5359.04              1336.00,5359.04 1325.00,5360.22 1325.00,5360.22              1325.00,5360.22 1309.00,5360.22 1309.00,5360.22              1309.00,5360.22 1291.00,5363.74 1291.00,5363.74              1287.71,5363.82 1285.17,5362.75 1282.00,5362.30              1282.00,5362.30 1264.00,5361.09 1264.00,5361.09              1264.00,5361.09 1258.00,5361.82 1258.00,5361.82              1255.35,5362.01 1244.78,5360.74 1242.00,5360.11              1242.00,5360.11 1233.00,5358.17 1233.00,5358.17              1224.33,5357.26 1221.73,5360.40 1213.00,5359.96              1207.19,5359.66 1204.93,5357.35 1198.00,5357.04              1182.75,5356.35 1182.86,5360.69 1175.00,5360.94              1175.00,5360.94 1157.00,5359.00 1157.00,5359.00              1147.72,5358.99 1143.01,5360.66 1140.00,5360.66              1140.00,5360.66 1131.00,5359.09 1131.00,5359.09              1131.00,5359.09 1121.00,5359.09 1121.00,5359.09              1121.00,5359.09 1109.00,5359.96 1109.00,5359.96              1109.00,5359.96 1098.00,5359.96 1098.00,5359.96              1098.00,5359.96 1087.00,5361.27 1087.00,5361.27              1082.01,5361.18 1080.58,5357.14 1069.00,5357.00              1069.00,5357.00 1065.00,5357.00 1065.00,5357.00              1065.00,5357.00 1049.00,5356.00 1049.00,5356.00              1049.00,5356.00 1038.00,5356.68 1038.00,5356.68              1038.00,5356.68 1029.00,5356.08 1029.00,5356.08              1029.00,5356.08 1017.00,5356.08 1017.00,5356.08              1017.00,5356.08 1003.00,5357.26 1003.00,5357.26              1003.00,5357.26 980.00,5355.00 980.00,5355.00              980.00,5355.00 966.00,5355.82 966.00,5355.82              966.00,5355.82 951.00,5355.00 951.00,5355.00              951.00,5355.00 929.00,5353.01 929.00,5353.01              914.64,5352.67 916.16,5356.40 906.00,5355.96              899.11,5355.66 897.27,5353.11 888.00,5353.00              888.00,5353.00 870.00,5353.82 870.00,5353.82              870.00,5353.82 845.00,5352.04 845.00,5352.04              845.00,5352.04 837.00,5352.96 837.00,5352.96              837.00,5352.96 824.00,5352.96 824.00,5352.96              824.00,5352.96 811.00,5354.00 811.00,5354.00              811.00,5354.00 795.00,5354.00 795.00,5354.00              795.00,5354.00 783.00,5353.04 783.00,5353.04              783.00,5353.04 770.00,5353.04 770.00,5353.04              770.00,5353.04 759.00,5352.04 759.00,5352.04              759.00,5352.04 744.00,5352.91 744.00,5352.91              744.00,5352.91 728.00,5352.00 728.00,5352.00              728.00,5352.00 715.00,5351.01 715.00,5351.01              715.00,5351.01 700.00,5352.00 700.00,5352.00              700.00,5352.00 686.00,5352.00 686.00,5352.00              686.00,5352.00 675.00,5352.92 675.00,5352.92              675.00,5352.92 663.00,5351.09 663.00,5351.09              663.00,5351.09 646.00,5352.00 646.00,5352.00              646.00,5352.00 634.00,5353.40 634.00,5353.40              634.00,5353.40 620.00,5352.00 620.00,5352.00              620.00,5352.00 601.00,5352.00 601.00,5352.00              601.00,5352.00 587.00,5352.91 587.00,5352.91              587.00,5352.91 572.00,5352.00 572.00,5352.00              572.00,5352.00 557.00,5351.00 557.00,5351.00              557.00,5351.00 486.00,5351.00 486.00,5351.00              486.00,5351.00 474.00,5351.96 474.00,5351.96              474.00,5351.96 457.00,5351.96 457.00,5351.96              457.00,5351.96 442.00,5353.16 442.00,5353.16              442.00,5353.16 413.00,5350.00 413.00,5350.00              413.00,5350.00 400.00,5350.00 400.00,5350.00              400.00,5350.00 389.00,5350.68 389.00,5350.68              389.00,5350.68 368.00,5350.13 368.00,5350.13              368.00,5350.13 353.00,5350.13 353.00,5350.13              353.00,5350.13 332.00,5351.00 332.00,5351.00              332.00,5351.00 317.00,5351.99 317.00,5351.99              310.88,5351.84 309.82,5350.69 305.00,5350.04              305.00,5350.04 297.00,5350.04 297.00,5350.04              297.00,5350.04 278.00,5349.00 278.00,5349.00              278.00,5349.00 256.00,5347.00 256.00,5347.00              256.00,5347.00 241.00,5348.04 241.00,5348.04              241.00,5348.04 228.00,5348.04 228.00,5348.04              228.00,5348.04 217.00,5349.00 217.00,5349.00              217.00,5349.00 196.00,5349.00 196.00,5349.00              185.04,5348.98 188.08,5347.54 179.00,5345.43              179.00,5345.43 166.00,5343.61 166.00,5343.61              166.00,5343.61 155.00,5340.13 155.00,5340.13              150.88,5339.11 142.18,5338.36 139.39,5335.69              139.39,5335.69 130.00,5321.00 130.00,5321.00              123.37,5310.00 115.44,5301.82 116.04,5288.00              116.04,5288.00 118.96,5272.00 118.96,5272.00              118.96,5272.00 117.85,5258.00 117.85,5258.00              117.85,5258.00 117.85,5242.00 117.85,5242.00              116.09,5231.04 114.23,5237.50 114.00,5218.00              113.90,5209.57 111.10,5201.90 108.59,5194.00              108.59,5194.00 106.44,5186.00 106.44,5186.00              106.44,5186.00 103.46,5179.00 103.46,5179.00              103.46,5179.00 101.07,5170.00 101.07,5170.00              101.07,5170.00 96.72,5161.00 96.72,5161.00              96.72,5161.00 88.00,5136.00 88.00,5136.00 Z"
            style="fill:#000000;fill-opacity:1"/>
</svg>
