<?xml version="1.0" encoding="UTF-8" standalone="no"?>
<svg
        width="172.593mm"
        height="121.031mm"
        viewBox="0 0 8154 5718"
        version="1.1"
        id="svg1035"
        sodipodi:docname="sheet6b.svg"
        inkscape:version="1.1.1 (3bf5ae0d25, 2021-09-20)"
        xmlns:inkscape="http://www.inkscape.org/namespaces/inkscape"
        xmlns:sodipodi="http://sodipodi.sourceforge.net/DTD/sodipodi-0.dtd"
        xmlns="http://www.w3.org/2000/svg"
>
    <defs
            id="defs1039"/>
    <sodipodi:namedview
            id="namedview1037"
            pagecolor="#ffffff"
            bordercolor="#666666"
            borderopacity="1.0"
            inkscape:pageshadow="2"
            inkscape:pageopacity="0.0"
            inkscape:pagecheckerboard="0"
            inkscape:document-units="mm"
            showgrid="false"
            inkscape:zoom="1.7335607"
            inkscape:cx="326.20721"
            inkscape:cy="228.72"
            inkscape:window-width="1920"
            inkscape:window-height="1001"
            inkscape:window-x="-7"
            inkscape:window-y="-7"
            inkscape:window-maximized="1"
            inkscape:current-layer="svg1035"/>
    <path
            id="Selection"
            fill="none"
            stroke="black"
            stroke-width="1"
            d="M 7207.00,67.00            C 7212.79,68.16 7213.80,68.92 7220.00,69.00              7231.21,69.13 7246.04,67.86 7257.00,65.55              7257.00,65.55 7265.00,63.37 7265.00,63.37              7265.00,63.37 7281.00,60.30 7281.00,60.30              7281.00,60.30 7289.00,59.32 7289.00,59.32              7299.59,56.94 7310.10,53.13 7321.00,52.32              7326.37,51.93 7329.11,54.19 7336.00,53.96              7336.00,53.96 7348.00,52.04 7348.00,52.04              7348.00,52.04 7370.00,52.04 7370.00,52.04              7383.95,52.02 7381.38,54.37 7391.00,57.91              7391.00,57.91 7404.00,61.19 7404.00,61.19              7412.20,63.01 7417.36,61.34 7425.00,61.19              7425.00,61.19 7441.00,62.00 7441.00,62.00              7448.03,62.01 7456.33,61.88 7463.00,64.47              7467.55,66.24 7469.44,69.24 7476.00,71.07              7484.43,73.42 7493.34,73.10 7502.00,73.00              7502.00,73.00 7531.00,70.70 7531.00,70.70              7537.55,69.76 7541.90,68.09 7549.00,68.00              7549.00,68.00 7560.00,68.00 7560.00,68.00              7560.00,68.00 7587.00,66.40 7587.00,66.40              7597.75,68.41 7601.51,74.97 7619.00,75.00              7619.00,75.00 7636.00,75.00 7636.00,75.00              7636.00,75.00 7646.00,76.05 7646.00,76.05              7646.00,76.05 7655.00,76.05 7655.00,76.05              7661.97,77.02 7662.15,79.23 7673.00,78.99              7673.00,78.99 7682.00,78.26 7682.00,78.26              7682.00,78.26 7691.00,79.15 7691.00,79.15              7691.00,79.15 7701.00,79.15 7701.00,79.15              7701.00,79.15 7711.00,80.96 7711.00,80.96              7711.00,80.96 7721.00,80.09 7721.00,80.09              7721.00,80.09 7756.00,78.00 7756.00,78.00              7767.42,77.98 7772.26,74.68 7783.00,73.12              7783.00,73.12 7793.00,73.12 7793.00,73.12              7793.00,73.12 7801.00,72.04 7801.00,72.04              7801.00,72.04 7816.00,72.04 7816.00,72.04              7816.00,72.04 7837.00,70.34 7837.00,70.34              7837.00,70.34 7844.00,70.98 7844.00,70.98              7844.00,70.98 7864.00,70.98 7864.00,70.98              7864.00,70.98 7882.00,72.00 7882.00,72.00              7882.00,72.00 7892.00,71.18 7892.00,71.18              7892.00,71.18 7907.00,72.00 7907.00,72.00              7907.00,72.00 7945.00,68.70 7945.00,68.70              7952.16,67.64 7954.14,64.56 7958.00,64.91              7958.00,64.91 7980.00,73.45 7980.00,73.45              7985.81,75.50 7992.03,75.45 7998.00,76.66              7998.00,76.66 8017.00,81.70 8017.00,81.70              8028.16,83.34 8034.82,79.07 8041.00,78.10              8041.00,78.10 8050.00,78.10 8050.00,78.10              8054.51,78.01 8068.26,78.86 8071.40,81.85              8073.19,83.56 8073.25,87.55 8073.93,90.00              8076.32,98.67 8077.32,93.89 8079.44,107.00              8079.44,107.00 8082.79,121.00 8082.79,121.00              8082.79,121.00 8083.68,132.00 8083.68,132.00              8083.68,132.00 8087.65,143.00 8087.65,143.00              8089.34,149.50 8088.93,155.41 8089.00,162.00              8089.15,174.61 8094.14,176.15 8095.85,187.00              8095.85,187.00 8095.85,204.00 8095.85,204.00              8095.85,204.00 8095.09,217.00 8095.09,217.00              8095.61,225.34 8099.55,228.02 8099.70,233.00              8099.70,233.00 8099.17,238.00 8099.17,238.00              8097.90,251.31 8096.79,245.84 8094.68,255.00              8093.79,258.87 8093.96,263.97 8094.00,268.00              8094.09,275.69 8096.31,279.14 8097.63,286.00              8097.63,286.00 8098.54,302.00 8098.54,302.00              8098.59,305.94 8095.72,315.05 8096.04,323.00              8096.04,323.00 8097.82,335.00 8097.82,335.00              8097.82,335.00 8097.01,348.00 8097.01,348.00              8097.01,348.00 8097.91,360.00 8097.91,360.00              8097.91,360.00 8096.04,380.00 8096.04,380.00              8095.67,388.78 8097.63,390.01 8097.16,395.00              8097.16,395.00 8096.27,403.00 8096.27,403.00              8096.27,403.00 8096.27,413.00 8096.27,413.00              8096.27,413.00 8095.03,430.00 8095.03,430.00              8095.03,430.00 8096.29,449.00 8096.29,449.00              8096.29,449.00 8096.29,457.00 8096.29,457.00              8096.29,457.00 8096.29,468.00 8096.29,468.00              8096.29,468.00 8096.29,483.00 8096.29,483.00              8096.29,483.00 8095.00,498.00 8095.00,498.00              8095.00,498.00 8095.00,507.00 8095.00,507.00              8094.92,513.80 8094.08,513.49 8093.30,519.00              8093.30,519.00 8092.01,540.00 8092.01,540.00              8092.01,540.00 8093.92,554.00 8093.92,554.00              8093.92,560.03 8091.33,563.12 8092.17,571.00              8093.12,579.83 8095.98,577.78 8095.92,590.00              8095.92,590.00 8095.92,603.00 8095.92,603.00              8095.92,603.00 8094.00,621.00 8094.00,621.00              8094.00,621.00 8094.00,645.00 8094.00,645.00              8094.00,645.00 8094.68,655.00 8094.68,655.00              8094.68,655.00 8093.91,672.00 8093.91,672.00              8093.91,672.00 8092.30,681.00 8092.30,681.00              8092.30,681.00 8091.04,696.00 8091.04,696.00              8091.04,696.00 8093.00,715.00 8093.00,715.00              8093.00,715.00 8095.00,747.00 8095.00,747.00              8095.00,747.00 8094.00,767.00 8094.00,767.00              8094.00,767.00 8094.00,788.00 8094.00,788.00              8094.00,788.00 8092.09,805.00 8092.09,805.00              8092.09,805.00 8092.96,819.00 8092.96,819.00              8092.76,823.71 8091.76,825.76 8092.09,831.00              8092.09,831.00 8093.99,856.00 8093.99,856.00              8093.99,856.00 8092.04,870.00 8092.04,870.00              8092.04,870.00 8093.00,885.00 8093.00,885.00              8093.00,885.00 8091.00,910.00 8091.00,910.00              8091.00,910.00 8091.00,925.00 8091.00,925.00              8091.00,925.00 8092.90,950.00 8092.90,950.00              8092.90,950.00 8092.02,960.00 8092.02,960.00              8092.02,960.00 8092.02,975.00 8092.02,975.00              8091.89,983.44 8089.55,985.21 8089.09,992.00              8089.09,992.00 8089.91,1006.00 8089.91,1006.00              8089.91,1006.00 8088.09,1017.00 8088.09,1017.00              8088.09,1017.00 8089.00,1031.00 8089.00,1031.00              8089.00,1031.00 8089.00,1045.00 8089.00,1045.00              8089.00,1045.00 8089.74,1055.00 8089.74,1055.00              8089.59,1058.98 8087.74,1061.90 8088.09,1068.00              8088.09,1068.00 8090.11,1079.00 8090.11,1079.00              8090.11,1079.00 8090.11,1090.00 8090.11,1090.00              8090.11,1090.00 8090.11,1098.00 8090.11,1098.00              8090.75,1102.21 8089.57,1105.88 8088.97,1110.00              8088.97,1110.00 8088.97,1123.00 8088.97,1123.00              8089.05,1127.36 8090.20,1131.75 8088.97,1136.00              8086.80,1141.63 8082.53,1143.98 8080.92,1152.00              8078.51,1161.41 8081.60,1169.30 8080.92,1174.00              8080.79,1177.97 8079.81,1179.10 8080.09,1184.00              8080.09,1184.00 8083.47,1208.00 8083.47,1208.00              8083.47,1208.00 8085.11,1215.00 8085.11,1215.00              8085.11,1215.00 8084.01,1226.00 8084.01,1226.00              8083.72,1238.77 8087.24,1238.92 8087.90,1246.00              8088.30,1250.38 8087.22,1253.76 8087.02,1258.00              8087.02,1258.00 8087.02,1272.00 8087.02,1272.00              8087.02,1272.00 8088.00,1287.00 8088.00,1287.00              8088.00,1287.00 8088.00,1339.00 8088.00,1339.00              8088.00,1339.00 8088.99,1354.00 8088.99,1354.00              8088.99,1354.00 8088.04,1368.00 8088.04,1368.00              8088.04,1368.00 8088.04,1382.00 8088.04,1382.00              8088.04,1382.00 8088.82,1389.00 8088.82,1389.00              8088.82,1389.00 8088.04,1396.00 8088.04,1396.00              8088.04,1396.00 8088.04,1407.00 8088.04,1407.00              8088.04,1407.00 8087.00,1422.00 8087.00,1422.00              8087.00,1422.00 8087.00,1449.00 8087.00,1449.00              8087.00,1449.00 8086.00,1466.00 8086.00,1466.00              8086.00,1466.00 8086.00,1491.00 8086.00,1491.00              8086.00,1491.00 8086.82,1505.00 8086.82,1505.00              8086.82,1505.00 8086.00,1521.00 8086.00,1521.00              8086.00,1521.00 8087.00,1538.00 8087.00,1538.00              8087.00,1538.00 8087.00,1553.00 8087.00,1553.00              8087.00,1553.00 8086.00,1569.00 8086.00,1569.00              8086.00,1569.00 8086.00,1590.00 8086.00,1590.00              8086.00,1590.00 8083.09,1613.00 8083.09,1613.00              8083.09,1613.00 8083.96,1620.00 8083.96,1620.00              8083.96,1620.00 8083.96,1634.00 8083.96,1634.00              8083.96,1634.00 8084.66,1643.00 8084.66,1643.00              8084.66,1643.00 8084.03,1651.00 8084.03,1651.00              8084.03,1651.00 8085.00,1663.00 8085.00,1663.00              8085.00,1663.00 8085.00,1680.00 8085.00,1680.00              8085.00,1680.00 8084.04,1694.00 8084.04,1694.00              8084.04,1694.00 8085.00,1705.00 8085.00,1705.00              8085.00,1705.00 8084.13,1723.00 8084.13,1723.00              8084.13,1723.00 8084.13,1731.00 8084.13,1731.00              8084.13,1731.00 8084.13,1745.00 8084.13,1745.00              8084.13,1745.00 8082.04,1758.00 8082.04,1758.00              8082.04,1758.00 8084.22,1787.00 8084.22,1787.00              8084.22,1787.00 8083.08,1794.00 8083.08,1794.00              8083.08,1794.00 8083.08,1803.00 8083.08,1803.00              8083.08,1803.00 8082.00,1818.00 8082.00,1818.00              8082.00,1818.00 8083.00,1844.00 8083.00,1844.00              8083.00,1844.00 8082.01,1860.00 8082.01,1860.00              8082.01,1860.00 8082.82,1869.00 8082.82,1869.00              8082.82,1869.00 8082.08,1876.00 8082.08,1876.00              8082.08,1876.00 8080.00,1902.00 8080.00,1902.00              8080.00,1902.00 8081.00,1923.00 8081.00,1923.00              8081.00,1923.00 8080.00,1936.00 8080.00,1936.00              8080.00,1936.00 8080.00,1957.00 8080.00,1957.00              8079.98,1966.93 8078.92,1964.99 8078.17,1972.00              8078.17,1972.00 8077.63,1984.00 8077.63,1984.00              8076.56,1989.58 8074.71,1991.18 8075.09,1998.00              8075.09,1998.00 8076.11,2005.00 8076.11,2005.00              8076.11,2005.00 8076.11,2015.00 8076.11,2015.00              8076.11,2015.00 8079.90,2036.00 8079.90,2036.00              8079.90,2036.00 8079.04,2048.00 8079.04,2048.00              8079.04,2048.00 8080.91,2072.00 8080.91,2072.00              8080.91,2072.00 8080.00,2089.00 8080.00,2089.00              8080.00,2089.00 8079.00,2104.00 8079.00,2104.00              8079.00,2104.00 8079.00,2146.00 8079.00,2146.00              8078.89,2155.33 8076.85,2153.69 8077.00,2167.00              8077.00,2167.00 8077.91,2180.00 8077.91,2180.00              8077.91,2180.00 8077.02,2191.00 8077.02,2191.00              8077.02,2191.00 8077.02,2220.00 8077.02,2220.00              8077.02,2220.00 8077.66,2229.00 8077.66,2229.00              8077.66,2229.00 8077.00,2244.00 8077.00,2244.00              8077.00,2244.00 8077.00,2298.00 8077.00,2298.00              8077.00,2298.00 8076.00,2317.00 8076.00,2317.00              8076.00,2317.00 8077.00,2332.00 8077.00,2332.00              8077.00,2332.00 8077.00,2370.00 8077.00,2370.00              8077.00,2370.00 8076.09,2383.00 8076.09,2383.00              8076.27,2386.18 8076.94,2387.55 8076.84,2391.00              8076.84,2391.00 8076.84,2425.00 8076.84,2425.00              8076.84,2425.00 8076.09,2440.00 8076.09,2440.00              8076.09,2440.00 8076.09,2477.00 8076.09,2477.00              8076.09,2477.00 8076.09,2485.00 8076.09,2485.00              8076.09,2485.00 8075.04,2494.00 8075.04,2494.00              8075.04,2494.00 8075.66,2503.00 8075.66,2503.00              8075.66,2503.00 8075.00,2518.00 8075.00,2518.00              8075.00,2518.00 8075.99,2531.00 8075.99,2531.00              8075.99,2531.00 8075.00,2544.00 8075.00,2544.00              8075.00,2544.00 8075.96,2564.00 8075.96,2564.00              8075.96,2564.00 8074.20,2580.00 8074.20,2580.00              8074.20,2580.00 8074.20,2592.00 8074.20,2592.00              8074.20,2592.00 8074.20,2603.00 8074.20,2603.00              8074.20,2603.00 8074.20,2612.00 8074.20,2612.00              8074.20,2612.00 8073.00,2629.00 8073.00,2629.00              8073.00,2629.00 8073.00,2643.00 8073.00,2643.00              8073.00,2643.00 8073.66,2652.00 8073.66,2652.00              8073.66,2652.00 8073.00,2667.00 8073.00,2667.00              8073.09,2674.45 8074.24,2674.46 8074.91,2680.00              8074.91,2680.00 8074.91,2697.00 8074.91,2697.00              8074.91,2697.00 8074.00,2712.00 8074.00,2712.00              8074.00,2712.00 8074.90,2724.00 8074.90,2724.00              8074.90,2724.00 8073.09,2738.00 8073.09,2738.00              8073.09,2738.00 8073.09,2757.00 8073.09,2757.00              8073.09,2757.00 8073.82,2769.00 8073.82,2769.00              8073.82,2769.00 8073.00,2782.00 8073.00,2782.00              8073.00,2782.00 8073.96,2799.00 8073.96,2799.00              8073.96,2799.00 8072.14,2810.00 8072.14,2810.00              8072.14,2810.00 8072.14,2828.00 8072.14,2828.00              8072.14,2828.00 8072.14,2857.00 8072.14,2857.00              8072.14,2857.00 8071.09,2872.00 8071.09,2872.00              8071.27,2875.18 8071.94,2876.55 8071.68,2880.00              8071.68,2880.00 8071.00,2898.00 8071.00,2898.00              8071.00,2898.00 8072.00,2914.00 8072.00,2914.00              8072.00,2914.00 8072.00,2930.00 8072.00,2930.00              8072.00,2930.00 8071.00,2946.00 8071.00,2946.00              8071.00,2946.00 8071.68,2961.00 8071.68,2961.00              8071.68,2961.00 8071.13,2972.00 8071.13,2972.00              8071.13,2972.00 8071.13,2980.00 8071.13,2980.00              8071.13,2980.00 8070.03,2990.00 8070.03,2990.00              8070.03,2990.00 8071.00,3004.00 8071.00,3004.00              8071.00,3004.00 8071.00,3020.00 8071.00,3020.00              8071.00,3020.00 8070.00,3036.00 8070.00,3036.00              8070.00,3036.00 8070.00,3056.00 8070.00,3056.00              8070.00,3056.00 8070.82,3067.00 8070.82,3067.00              8070.80,3071.31 8069.01,3073.64 8069.00,3083.00              8069.00,3083.00 8069.00,3110.00 8069.00,3110.00              8069.00,3110.00 8069.82,3122.00 8069.82,3122.00              8069.82,3122.00 8069.00,3134.00 8069.00,3134.00              8069.00,3134.00 8069.00,3167.00 8069.00,3167.00              8069.00,3167.00 8067.70,3184.00 8067.70,3184.00              8066.92,3189.48 8066.07,3189.25 8066.00,3196.00              8066.00,3196.00 8068.00,3216.00 8068.00,3216.00              8068.00,3216.00 8068.84,3245.00 8068.84,3245.00              8068.84,3245.00 8068.84,3273.00 8068.84,3273.00              8068.84,3273.00 8068.09,3286.00 8068.09,3286.00              8068.09,3286.00 8069.00,3298.00 8069.00,3298.00              8069.00,3298.00 8067.04,3320.00 8067.04,3320.00              8067.04,3320.00 8067.79,3332.00 8067.79,3332.00              8067.79,3332.00 8066.09,3351.00 8066.09,3351.00              8066.09,3351.00 8067.04,3358.00 8067.04,3358.00              8067.04,3358.00 8067.04,3367.00 8067.04,3367.00              8067.04,3367.00 8067.82,3373.00 8067.82,3373.00              8067.82,3373.00 8066.01,3397.00 8066.01,3397.00              8066.01,3397.00 8066.91,3410.00 8066.91,3410.00              8066.46,3416.58 8065.02,3415.49 8065.00,3426.00              8065.00,3426.00 8065.00,3465.00 8065.00,3465.00              8065.00,3465.00 8064.09,3478.00 8064.09,3478.00              8064.09,3478.00 8065.82,3495.00 8065.82,3495.00              8065.82,3495.00 8065.00,3507.00 8065.00,3507.00              8065.00,3507.00 8065.00,3526.00 8065.00,3526.00              8065.00,3526.00 8064.00,3542.00 8064.00,3542.00              8064.00,3542.00 8064.68,3583.00 8064.68,3583.00              8064.68,3583.00 8064.00,3596.00 8064.00,3596.00              8064.00,3596.00 8059.01,3632.00 8059.01,3632.00              8059.01,3632.00 8060.47,3650.00 8060.47,3650.00              8060.47,3650.00 8063.61,3662.00 8063.61,3662.00              8063.95,3666.54 8061.70,3669.52 8062.09,3676.00              8062.09,3676.00 8063.91,3687.00 8063.91,3687.00              8063.91,3687.00 8063.09,3700.00 8063.09,3700.00              8063.09,3700.00 8064.00,3712.00 8064.00,3712.00              8064.00,3712.00 8064.00,3729.00 8064.00,3729.00              8064.00,3729.00 8062.09,3758.00 8062.09,3758.00              8062.09,3758.00 8062.82,3765.00 8062.82,3765.00              8062.82,3765.00 8062.00,3777.00 8062.00,3777.00              8062.00,3777.00 8062.00,3811.00 8062.00,3811.00              8062.00,3811.00 8061.00,3828.00 8061.00,3828.00              8061.00,3828.00 8061.00,3840.00 8061.00,3840.00              8061.00,3840.00 8061.82,3852.00 8061.82,3852.00              8061.82,3852.00 8061.00,3863.00 8061.00,3863.00              8061.00,3863.00 8061.00,3886.00 8061.00,3886.00              8061.00,3886.00 8060.23,3904.00 8060.23,3904.00              8060.23,3904.00 8060.23,3914.00 8060.23,3914.00              8060.23,3914.00 8060.23,3922.00 8060.23,3922.00              8060.23,3922.00 8060.23,3929.00 8060.23,3929.00              8060.23,3929.00 8059.00,3943.00 8059.00,3943.00              8059.00,3943.00 8059.96,3959.00 8059.96,3959.00              8059.96,3959.00 8059.96,3973.00 8059.96,3973.00              8059.96,3973.00 8059.00,3985.00 8059.00,3985.00              8059.00,3985.00 8059.54,3998.00 8059.54,3998.00              8059.40,4002.02 8057.77,4005.22 8058.09,4011.00              8058.09,4011.00 8058.82,4018.00 8058.82,4018.00              8058.82,4018.00 8058.09,4028.00 8058.09,4028.00              8058.09,4028.00 8059.00,4039.00 8059.00,4039.00              8059.00,4039.00 8059.00,4068.00 8059.00,4068.00              8059.00,4068.00 8057.02,4098.00 8057.02,4098.00              8057.02,4098.00 8058.00,4115.00 8058.00,4115.00              8057.91,4122.43 8056.76,4122.47 8056.08,4128.00              8056.08,4128.00 8056.08,4143.00 8056.08,4143.00              8056.08,4143.00 8055.04,4154.00 8055.04,4154.00              8054.84,4160.49 8056.51,4162.51 8056.91,4168.00              8057.40,4174.79 8056.13,4177.24 8056.02,4183.00              8056.02,4183.00 8057.00,4197.00 8057.00,4197.00              8057.00,4197.00 8057.66,4211.00 8057.66,4211.00              8057.66,4211.00 8057.15,4218.00 8057.15,4218.00              8057.15,4218.00 8057.15,4225.00 8057.15,4225.00              8056.98,4229.67 8055.03,4232.66 8055.03,4239.00              8055.03,4246.08 8057.29,4247.60 8056.96,4256.00              8056.96,4256.00 8056.09,4267.00 8056.09,4267.00              8056.09,4267.00 8056.96,4274.00 8056.96,4274.00              8056.96,4274.00 8056.96,4290.00 8056.96,4290.00              8056.96,4290.00 8058.66,4311.00 8058.66,4311.00              8058.66,4311.00 8057.00,4326.00 8057.00,4326.00              8057.00,4326.00 8057.00,4360.00 8057.00,4360.00              8057.00,4360.00 8056.00,4373.00 8056.00,4373.00              8056.00,4373.00 8056.00,4393.00 8056.00,4393.00              8056.00,4393.00 8054.09,4409.00 8054.09,4409.00              8054.09,4409.00 8054.09,4426.00 8054.09,4426.00              8054.09,4426.00 8055.00,4439.00 8055.00,4439.00              8055.00,4439.00 8055.00,4461.00 8055.00,4461.00              8055.00,4461.00 8054.04,4475.00 8054.04,4475.00              8054.04,4475.00 8054.95,4483.00 8054.95,4483.00              8054.95,4483.00 8054.95,4498.00 8054.95,4498.00              8054.95,4498.00 8053.96,4508.00 8053.96,4508.00              8053.96,4508.00 8053.96,4515.00 8053.96,4515.00              8053.30,4519.90 8051.76,4522.55 8052.09,4528.00              8052.42,4533.26 8054.26,4535.74 8053.91,4542.00              8053.91,4542.00 8053.02,4550.00 8053.02,4550.00              8053.02,4550.00 8053.02,4567.00 8053.02,4567.00              8053.02,4567.00 8052.09,4582.00 8052.09,4582.00              8052.09,4582.00 8053.14,4594.00 8053.14,4594.00              8053.14,4594.00 8053.14,4623.00 8053.14,4623.00              8053.14,4623.00 8053.14,4656.00 8053.14,4656.00              8053.14,4656.00 8052.11,4670.00 8052.11,4670.00              8052.11,4670.00 8052.11,4680.00 8052.11,4680.00              8052.11,4680.00 8052.11,4688.00 8052.11,4688.00              8052.11,4688.00 8052.11,4703.00 8052.11,4703.00              8052.11,4703.00 8051.32,4717.00 8051.32,4717.00              8051.32,4717.00 8051.32,4724.00 8051.32,4724.00              8051.32,4724.00 8051.32,4731.00 8051.32,4731.00              8051.32,4731.00 8051.32,4754.00 8051.32,4754.00              8051.32,4754.00 8050.17,4765.00 8050.17,4765.00              8050.17,4765.00 8050.17,4779.00 8050.17,4779.00              8050.17,4779.00 8052.24,4817.00 8052.24,4817.00              8052.24,4817.00 8052.24,4829.00 8052.24,4829.00              8052.24,4829.00 8051.00,4842.00 8051.00,4842.00              8051.00,4842.00 8051.00,4867.00 8051.00,4867.00              8051.00,4867.00 8048.09,4892.00 8048.09,4892.00              8048.09,4892.00 8050.95,4905.00 8050.95,4905.00              8050.95,4905.00 8050.95,4929.00 8050.95,4929.00              8050.95,4929.00 8052.00,4945.00 8052.00,4945.00              8051.91,4952.43 8050.76,4952.47 8050.09,4958.00              8050.09,4958.00 8050.09,4969.00 8050.09,4969.00              8050.09,4969.00 8051.00,4984.00 8051.00,4984.00              8051.00,4984.00 8051.00,5004.00 8051.00,5004.00              8050.98,5019.03 8047.17,5024.98 8047.02,5033.00              8046.80,5043.98 8049.98,5042.95 8050.00,5055.00              8050.00,5055.00 8049.00,5111.00 8049.00,5111.00              8049.00,5111.00 8048.13,5128.00 8048.13,5128.00              8048.13,5128.00 8048.13,5136.00 8048.13,5136.00              8048.13,5136.00 8047.00,5155.00 8047.00,5155.00              8047.00,5155.00 8047.88,5167.00 8047.88,5167.00              8047.42,5173.80 8044.83,5172.26 8045.00,5187.00              8045.11,5196.34 8047.51,5198.86 8045.82,5213.00              8045.02,5219.62 8041.58,5226.69 8042.09,5235.00              8042.55,5242.45 8045.77,5245.53 8046.33,5249.00              8046.33,5249.00 8045.04,5260.00 8045.04,5260.00              8045.04,5260.00 8046.13,5273.00 8046.13,5273.00              8046.13,5273.00 8046.13,5284.00 8046.13,5284.00              8046.13,5284.00 8046.13,5322.00 8046.13,5322.00              8046.13,5322.00 8046.74,5333.00 8046.74,5333.00              8046.74,5333.00 8045.04,5342.00 8045.04,5342.00              8045.04,5342.00 8045.04,5350.00 8045.04,5350.00              8045.04,5350.00 8044.00,5364.00 8044.00,5364.00              8044.00,5364.00 8045.49,5386.00 8045.49,5386.00              8045.49,5386.00 8044.00,5402.00 8044.00,5402.00              8044.00,5402.00 8043.09,5419.00 8043.09,5419.00              8043.40,5424.49 8044.46,5427.92 8043.90,5434.00              8043.41,5439.19 8041.34,5441.18 8041.04,5448.00              8041.04,5448.00 8042.00,5467.00 8042.00,5467.00              8042.00,5467.00 8043.99,5484.00 8043.99,5484.00              8044.20,5493.28 8042.38,5493.66 8040.67,5502.00              8039.28,5508.75 8040.68,5508.79 8037.46,5517.00              8034.54,5524.42 8030.58,5526.59 8031.04,5538.00              8031.16,5541.02 8032.80,5546.89 8032.23,5548.91              8031.52,5551.44 8026.00,5555.93 8023.79,5559.00              8018.28,5566.67 8018.94,5571.79 8017.05,5574.39              8017.05,5574.39 8002.09,5586.18 8002.09,5586.18              7995.93,5592.09 7999.56,5591.38 7989.04,5600.31              7989.04,5600.31 7983.72,5604.93 7983.72,5604.93              7983.72,5604.93 7969.00,5610.81 7969.00,5610.81              7960.07,5615.26 7957.47,5617.51 7947.00,5620.10              7947.00,5620.10 7937.00,5622.22 7937.00,5622.22              7927.86,5625.05 7927.97,5626.95 7917.00,5627.00              7900.47,5627.08 7905.41,5629.17 7895.00,5630.90              7887.42,5631.82 7879.61,5631.01 7872.00,5630.90              7872.00,5630.90 7841.00,5630.90 7841.00,5630.90              7831.07,5631.02 7833.01,5632.08 7826.00,5632.91              7826.00,5632.91 7814.00,5632.91 7814.00,5632.91              7808.69,5633.01 7800.30,5634.56 7796.00,5633.73              7796.00,5633.73 7783.00,5628.22 7783.00,5628.22              7779.22,5627.04 7765.34,5626.01 7761.00,5626.00              7761.00,5626.00 7747.00,5626.00 7747.00,5626.00              7747.00,5626.00 7732.00,5625.09 7732.00,5625.09              7732.00,5625.09 7710.00,5628.00 7710.00,5628.00              7710.00,5628.00 7698.00,5628.00 7698.00,5628.00              7698.00,5628.00 7689.00,5628.66 7689.00,5628.66              7689.00,5628.66 7677.00,5628.01 7677.00,5628.01              7677.00,5628.01 7665.00,5628.91 7665.00,5628.91              7658.90,5628.53 7658.68,5626.79 7649.00,5627.01              7640.68,5627.21 7642.27,5629.18 7627.00,5629.00              7617.71,5628.89 7619.32,5626.84 7605.00,5627.00              7605.00,5627.00 7572.00,5629.40 7572.00,5629.40              7572.00,5629.40 7559.00,5628.00 7559.00,5628.00              7559.00,5628.00 7538.00,5628.00 7538.00,5628.00              7538.00,5628.00 7523.00,5627.00 7523.00,5627.00              7523.00,5627.00 7513.00,5627.00 7513.00,5627.00              7503.39,5626.95 7499.62,5624.99 7491.00,5623.46              7491.00,5623.46 7469.00,5622.00 7469.00,5622.00              7451.64,5621.81 7453.86,5626.93 7440.00,5627.00              7440.00,5627.00 7420.00,5627.68 7420.00,5627.68              7420.00,5627.68 7410.00,5627.00 7410.00,5627.00              7410.00,5627.00 7394.00,5627.00 7394.00,5627.00              7394.00,5627.00 7373.00,5625.00 7373.00,5625.00              7373.00,5625.00 7352.00,5625.00 7352.00,5625.00              7347.56,5625.01 7344.27,5624.99 7340.00,5626.56              7335.01,5628.39 7333.87,5630.63 7328.00,5630.96              7328.00,5630.96 7313.00,5630.00 7313.00,5630.00              7295.91,5629.92 7301.79,5626.02 7286.00,5626.00              7286.00,5626.00 7257.00,5629.00 7257.00,5629.00              7257.00,5629.00 7244.00,5629.00 7244.00,5629.00              7244.00,5629.00 7227.00,5628.04 7227.00,5628.04              7227.00,5628.04 7219.00,5628.96 7219.00,5628.96              7219.00,5628.96 7206.00,5628.96 7206.00,5628.96              7206.00,5628.96 7188.00,5630.00 7188.00,5630.00              7188.00,5630.00 7171.00,5629.01 7171.00,5629.01              7171.00,5629.01 7160.00,5629.81 7160.00,5629.81              7160.00,5629.81 7152.00,5628.30 7152.00,5628.30              7152.00,5628.30 7135.00,5627.00 7135.00,5627.00              7135.00,5627.00 7101.00,5625.00 7101.00,5625.00              7101.00,5625.00 7091.00,5625.96 7091.00,5625.96              7091.00,5625.96 7075.00,5625.96 7075.00,5625.96              7064.87,5625.98 7064.51,5624.47 7058.00,5624.09              7058.00,5624.09 7048.00,5624.61 7048.00,5624.61              7043.05,5624.25 7044.36,5623.02 7034.00,5623.04              7034.00,5623.04 7021.00,5623.04 7021.00,5623.04              7021.00,5623.04 7007.00,5624.00 7007.00,5624.00              7007.00,5624.00 6994.00,5623.09 6994.00,5623.09              6994.00,5623.09 6984.00,5624.00 6984.00,5624.00              6984.00,5624.00 6963.00,5623.09 6963.00,5623.09              6957.18,5623.51 6954.41,5625.74 6950.00,5625.46              6942.22,5624.97 6937.34,5622.02 6926.00,5622.00              6926.00,5622.00 6892.00,5622.00 6892.00,5622.00              6892.00,5622.00 6864.00,5621.00 6864.00,5621.00              6859.58,5621.06 6856.06,5621.46 6852.00,5623.40              6848.72,5624.97 6845.43,5628.09 6842.00,5628.41              6839.18,5628.68 6831.23,5626.33 6828.00,5625.67              6823.56,5624.76 6820.43,5625.05 6816.00,5625.00              6816.00,5625.00 6774.00,5619.00 6774.00,5619.00              6760.31,5618.94 6752.34,5617.52 6739.00,5615.72              6728.26,5614.27 6728.97,5612.02 6717.00,5611.84              6717.00,5611.84 6701.00,5611.84 6701.00,5611.84              6701.00,5611.84 6689.00,5609.09 6689.00,5609.09              6684.68,5608.79 6682.86,5609.54 6679.00,5609.82              6679.00,5609.82 6661.00,5608.79 6661.00,5608.79              6661.00,5608.79 6653.00,5606.68 6653.00,5606.68              6653.00,5606.68 6630.00,5604.04 6630.00,5604.04              6630.00,5604.04 6622.00,5605.04 6622.00,5605.04              6622.00,5605.04 6612.00,5605.04 6612.00,5605.04              6612.00,5605.04 6605.00,5606.21 6605.00,5606.21              6600.48,5606.27 6598.73,5603.87 6587.00,5604.00              6587.00,5604.00 6569.00,5605.30 6569.00,5605.30              6569.00,5605.30 6561.00,5606.74 6561.00,5606.74              6561.00,5606.74 6550.00,5606.04 6550.00,5606.04              6539.15,5606.48 6524.83,5612.99 6517.00,5613.83              6517.00,5613.83 6494.00,5615.01 6494.00,5615.01              6494.00,5615.01 6463.00,5618.96 6463.00,5618.96              6463.00,5618.96 6456.00,5618.96 6456.00,5618.96              6452.46,5619.35 6449.58,5620.50 6446.00,5620.16              6446.00,5620.16 6439.00,5619.04 6439.00,5619.04              6439.00,5619.04 6416.00,5619.04 6416.00,5619.04              6408.55,5618.91 6408.54,5617.76 6403.00,5617.04              6403.00,5617.04 6395.00,5617.04 6395.00,5617.04              6395.00,5617.04 6374.00,5615.09 6374.00,5615.09              6367.32,5614.63 6364.96,5615.50 6359.00,5615.96              6359.00,5615.96 6344.00,5615.96 6344.00,5615.96              6344.00,5615.96 6318.00,5613.01 6318.00,5613.01              6305.21,5612.71 6304.56,5615.94 6293.00,5616.00              6293.00,5616.00 6271.00,5616.00 6271.00,5616.00              6271.00,5616.00 6257.00,5617.00 6257.00,5617.00              6257.00,5617.00 6244.00,5617.00 6244.00,5617.00              6244.00,5617.00 6232.00,5617.96 6232.00,5617.96              6232.00,5617.96 6216.00,5617.96 6216.00,5617.96              6207.04,5617.99 6207.10,5616.88 6200.00,5616.09              6200.00,5616.09 6190.00,5616.09 6190.00,5616.09              6190.00,5616.09 6176.00,5616.96 6176.00,5616.96              6168.18,5616.64 6170.49,5614.82 6155.00,5615.00              6155.00,5615.00 6137.00,5616.55 6137.00,5616.55              6137.00,5616.55 6125.00,5615.04 6125.00,5615.04              6125.00,5615.04 6102.00,5616.00 6102.00,5616.00              6102.00,5616.00 6093.00,5616.82 6093.00,5616.82              6093.00,5616.82 6083.00,5616.04 6083.00,5616.04              6083.00,5616.04 6073.00,5616.66 6073.00,5616.66              6073.00,5616.66 6063.00,5616.04 6063.00,5616.04              6063.00,5616.04 6050.00,5617.00 6050.00,5617.00              6050.00,5617.00 5975.00,5617.00 5975.00,5617.00              5975.00,5617.00 5957.00,5615.70 5957.00,5615.70              5949.91,5614.69 5951.62,5614.01 5943.00,5614.00              5943.00,5614.00 5917.00,5614.00 5917.00,5614.00              5917.00,5614.00 5899.00,5612.09 5899.00,5612.09              5899.00,5612.09 5886.00,5612.09 5886.00,5612.09              5886.00,5612.09 5854.00,5616.09 5854.00,5616.09              5854.00,5616.09 5842.00,5616.09 5842.00,5616.09              5842.00,5616.09 5832.00,5617.74 5832.00,5617.74              5832.00,5617.74 5820.00,5616.28 5820.00,5616.28              5820.00,5616.28 5801.00,5615.09 5801.00,5615.09              5801.00,5615.09 5778.00,5615.09 5778.00,5615.09              5778.00,5615.09 5769.00,5615.09 5769.00,5615.09              5769.00,5615.09 5755.00,5614.00 5755.00,5614.00              5755.00,5614.00 5743.00,5614.92 5743.00,5614.92              5743.00,5614.92 5735.00,5614.04 5735.00,5614.04              5735.00,5614.04 5721.00,5614.04 5721.00,5614.04              5715.02,5614.01 5701.36,5616.68 5696.00,5618.95              5688.04,5622.32 5689.37,5625.40 5679.00,5624.98              5669.50,5624.60 5668.98,5616.58 5656.00,5615.17              5644.10,5613.88 5640.72,5617.11 5635.00,5617.59              5630.46,5617.96 5627.20,5615.02 5616.00,5615.08              5616.00,5615.08 5605.00,5615.08 5605.00,5615.08              5600.77,5615.57 5593.88,5617.13 5590.00,5616.81              5590.00,5616.81 5582.00,5615.30 5582.00,5615.30              5582.00,5615.30 5561.00,5614.00 5561.00,5614.00              5561.00,5614.00 5537.00,5614.00 5537.00,5614.00              5537.00,5614.00 5516.00,5611.03 5516.00,5611.03              5509.54,5611.03 5507.38,5612.80 5502.00,5613.68              5502.00,5613.68 5484.00,5615.00 5484.00,5615.00              5484.00,5615.00 5449.00,5615.00 5449.00,5615.00              5449.00,5615.00 5428.00,5616.17 5428.00,5616.17              5423.46,5616.66 5420.92,5618.17 5416.00,5617.82              5416.00,5617.82 5409.00,5617.15 5409.00,5617.15              5409.00,5617.15 5401.00,5617.15 5401.00,5617.15              5401.00,5617.15 5386.00,5616.09 5386.00,5616.09              5386.00,5616.09 5375.00,5616.09 5375.00,5616.09              5375.00,5616.09 5364.00,5617.92 5364.00,5617.92              5357.86,5617.86 5357.24,5615.02 5345.00,5614.91              5345.00,5614.91 5331.00,5614.91 5331.00,5614.91              5331.00,5614.91 5321.00,5613.04 5321.00,5613.04              5321.00,5613.04 5308.00,5613.04 5308.00,5613.04              5308.00,5613.04 5276.00,5609.04 5276.00,5609.04              5276.00,5609.04 5259.00,5610.00 5259.00,5610.00              5259.00,5610.00 5235.00,5611.68 5235.00,5611.68              5235.00,5611.68 5220.00,5610.04 5220.00,5610.04              5220.00,5610.04 5207.00,5611.00 5207.00,5611.00              5207.00,5611.00 5188.00,5610.00 5188.00,5610.00              5175.46,5610.01 5164.23,5613.63 5162.00,5613.63              5158.24,5613.63 5154.32,5611.25 5148.00,5611.04              5148.00,5611.04 5138.00,5611.82 5138.00,5611.82              5138.00,5611.82 5124.00,5611.15 5124.00,5611.15              5124.00,5611.15 5114.00,5611.15 5114.00,5611.15              5114.00,5611.15 5096.00,5611.15 5096.00,5611.15              5096.00,5611.15 5082.00,5611.15 5082.00,5611.15              5082.00,5611.15 5053.00,5614.00 5053.00,5614.00              5053.00,5614.00 5031.00,5612.04 5031.00,5612.04              5031.00,5612.04 5020.00,5613.54 5020.00,5613.54              5020.00,5613.54 4998.00,5612.02 4998.00,5612.02              4998.00,5612.02 4983.00,5613.17 4983.00,5613.17              4983.00,5613.17 4975.00,5614.28 4975.00,5614.28              4975.00,5614.28 4954.00,5612.68 4954.00,5612.68              4954.00,5612.68 4945.00,5610.46 4945.00,5610.46              4945.00,5610.46 4932.00,5609.68 4932.00,5609.68              4932.00,5609.68 4923.00,5607.46 4923.00,5607.46              4923.00,5607.46 4902.00,5606.00 4902.00,5606.00              4891.68,5605.98 4893.42,5605.66 4884.00,5604.30              4884.00,5604.30 4876.00,5603.54 4876.00,5603.54              4876.00,5603.54 4855.00,5600.31 4855.00,5600.31              4855.00,5600.31 4845.00,5600.31 4845.00,5600.31              4840.58,5600.32 4840.58,5599.01 4831.00,5599.04              4831.00,5599.04 4817.00,5599.04 4817.00,5599.04              4817.00,5599.04 4806.00,5600.00 4806.00,5600.00              4806.00,5600.00 4786.00,5600.00 4786.00,5600.00              4786.00,5600.00 4774.00,5600.63 4774.00,5600.63              4774.00,5600.63 4759.00,5598.17 4759.00,5598.17              4759.00,5598.17 4741.00,5596.82 4741.00,5596.82              4741.00,5596.82 4728.00,5593.15 4728.00,5593.15              4728.00,5593.15 4709.00,5593.15 4709.00,5593.15              4704.26,5593.06 4698.47,5593.95 4694.00,5595.55              4690.53,5596.79 4687.41,5599.07 4684.00,5599.73              4684.00,5599.73 4664.00,5601.92 4664.00,5601.92              4664.00,5601.92 4651.00,5601.00 4651.00,5601.00              4651.00,5601.00 4645.00,5601.00 4645.00,5601.00              4645.00,5601.00 4630.00,5600.17 4630.00,5600.17              4621.81,5601.04 4612.17,5604.28 4604.00,5603.96              4604.00,5603.96 4586.00,5603.00 4586.00,5603.00              4586.00,5603.00 4565.00,5605.00 4565.00,5605.00              4555.81,5604.90 4557.11,5602.87 4545.00,5603.00              4545.00,5603.00 4534.00,5603.79 4534.00,5603.79              4534.00,5603.79 4514.00,5602.00 4514.00,5602.00              4514.00,5602.00 4498.00,5602.00 4498.00,5602.00              4498.00,5602.00 4489.00,5602.53 4489.00,5602.53              4489.00,5602.53 4482.00,5601.15 4482.00,5601.15              4482.00,5601.15 4472.00,5601.15 4472.00,5601.15              4472.00,5601.15 4457.00,5602.67 4457.00,5602.67              4451.42,5602.20 4450.53,5601.04 4443.00,5601.00              4443.00,5601.00 4400.00,5599.00 4400.00,5599.00              4400.00,5599.00 4378.00,5597.00 4378.00,5597.00              4378.00,5597.00 4350.00,5600.15 4350.00,5600.15              4350.00,5600.15 4340.00,5600.15 4340.00,5600.15              4336.36,5600.82 4333.99,5601.92 4330.00,5601.92              4324.22,5601.93 4313.47,5598.02 4300.00,5598.00              4300.00,5598.00 4278.00,5598.00 4278.00,5598.00              4278.00,5598.00 4264.00,5599.15 4264.00,5599.15              4264.00,5599.15 4250.00,5599.15 4250.00,5599.15              4243.50,5600.24 4243.09,5601.90 4235.00,5602.00              4235.00,5602.00 4219.00,5601.01 4219.00,5601.01              4209.39,5600.80 4206.01,5603.41 4201.00,5602.78              4197.29,5602.31 4180.83,5595.13 4170.00,5595.00              4164.32,5594.94 4153.01,5594.43 4148.00,5592.00              4148.00,5592.00 4139.00,5585.81 4139.00,5585.81              4135.51,5583.64 4131.10,5581.54 4128.17,5578.79              4117.18,5568.48 4112.28,5553.79 4095.00,5553.04              4081.10,5552.43 4078.00,5556.80 4068.83,5565.72              4062.49,5571.88 4056.33,5578.54 4049.00,5583.54              4045.36,5586.03 4037.36,5590.20 4033.00,5590.42              4029.32,5591.05 4024.76,5589.45 4018.00,5590.42              4008.97,5591.14 4009.34,5593.98 3997.00,5594.00              3997.00,5594.00 3983.00,5594.00 3983.00,5594.00              3983.00,5594.00 3968.00,5595.91 3968.00,5595.91              3968.00,5595.91 3953.00,5595.00 3953.00,5595.00              3953.00,5595.00 3949.00,5595.00 3949.00,5595.00              3949.00,5595.00 3929.00,5593.04 3929.00,5593.04              3929.00,5593.04 3921.00,5593.82 3921.00,5593.82              3921.00,5593.82 3909.00,5593.00 3909.00,5593.00              3909.00,5593.00 3902.00,5593.00 3902.00,5593.00              3890.06,5593.14 3886.97,5597.33 3881.00,5598.61              3876.48,5599.59 3868.44,5598.01 3863.00,5598.00              3863.00,5598.00 3844.00,5598.00 3844.00,5598.00              3833.80,5598.12 3837.31,5600.36 3825.00,5598.85              3810.69,5597.09 3813.50,5593.80 3796.00,5594.00              3796.00,5594.00 3762.00,5600.91 3762.00,5600.91              3762.00,5600.91 3751.00,5600.91 3751.00,5600.91              3741.02,5600.88 3742.71,5597.97 3724.00,5598.00              3711.79,5598.02 3713.76,5599.84 3707.00,5600.90              3707.00,5600.90 3688.00,5600.90 3688.00,5600.90              3688.00,5600.90 3677.00,5601.84 3677.00,5601.84              3677.00,5601.84 3641.00,5601.84 3641.00,5601.84              3641.00,5601.84 3629.00,5602.61 3629.00,5602.61              3620.44,5601.97 3616.53,5598.03 3598.00,5598.00              3580.25,5597.97 3575.58,5589.04 3561.00,5586.46              3549.85,5584.49 3543.35,5589.86 3536.00,5589.16              3529.06,5588.51 3528.96,5587.02 3519.00,5587.09              3519.00,5587.09 3500.00,5587.09 3500.00,5587.09              3491.43,5588.09 3494.95,5588.94 3483.00,5589.00              3472.73,5589.05 3470.87,5591.17 3464.00,5591.82              3459.91,5592.21 3456.98,5591.19 3453.00,5591.04              3446.20,5590.78 3443.87,5592.24 3438.00,5592.92              3438.00,5592.92 3423.00,5592.92 3423.00,5592.92              3423.00,5592.92 3408.00,5594.08 3408.00,5594.08              3408.00,5594.08 3398.00,5594.08 3398.00,5594.08              3398.00,5594.08 3389.00,5595.74 3389.00,5595.74              3389.00,5595.74 3376.00,5595.01 3376.00,5595.01              3376.00,5595.01 3356.00,5596.96 3356.00,5596.96              3356.00,5596.96 3343.00,5596.00 3343.00,5596.00              3343.00,5596.00 3320.00,5597.00 3320.00,5597.00              3320.00,5597.00 3305.00,5597.99 3305.00,5597.99              3292.11,5597.69 3293.21,5593.02 3278.00,5593.15              3278.00,5593.15 3258.00,5593.15 3258.00,5593.15              3252.91,5594.03 3246.98,5596.63 3242.00,5596.16              3242.00,5596.16 3235.00,5595.04 3235.00,5595.04              3235.00,5595.04 3213.00,5595.04 3213.00,5595.04              3213.00,5595.04 3195.00,5593.63 3195.00,5593.63              3195.00,5593.63 3186.00,5591.30 3186.00,5591.30              3186.00,5591.30 3171.00,5589.70 3171.00,5589.70              3165.48,5588.91 3165.75,5588.08 3159.00,5588.15              3159.00,5588.15 3131.00,5588.15 3131.00,5588.15              3131.00,5588.15 3112.00,5593.48 3112.00,5593.48              3112.00,5593.48 3101.00,5594.30 3101.00,5594.30              3101.00,5594.30 3082.00,5596.90 3082.00,5596.90              3082.00,5596.90 3073.00,5595.96 3073.00,5595.96              3073.00,5595.96 3064.00,5595.96 3064.00,5595.96              3064.00,5595.96 3056.00,5594.30 3056.00,5594.30              3049.82,5593.41 3043.24,5592.93 3037.00,5593.00              3037.00,5593.00 2992.00,5595.82 2992.00,5595.82              2992.00,5595.82 2969.00,5593.04 2969.00,5593.04              2969.00,5593.04 2955.00,5593.04 2955.00,5593.04              2951.15,5593.35 2949.24,5594.15 2945.00,5593.91              2945.00,5593.91 2934.00,5592.17 2934.00,5592.17              2934.00,5592.17 2907.00,5591.00 2907.00,5591.00              2894.64,5591.02 2893.93,5593.80 2886.00,5594.47              2881.26,5594.87 2879.18,5592.77 2869.00,5593.01              2869.00,5593.01 2853.00,5594.91 2853.00,5594.91              2853.00,5594.91 2842.00,5594.04 2842.00,5594.04              2832.85,5594.39 2819.19,5598.32 2810.00,5600.63              2805.31,5601.80 2793.99,5606.80 2791.00,5606.27              2791.00,5606.27 2777.00,5601.38 2777.00,5601.38              2768.51,5599.21 2768.68,5600.58 2762.00,5599.71              2753.86,5598.65 2749.91,5597.01 2741.00,5597.00              2741.00,5597.00 2722.00,5597.00 2722.00,5597.00              2722.00,5597.00 2704.00,5595.00 2704.00,5595.00              2704.00,5595.00 2673.00,5598.83 2673.00,5598.83              2673.00,5598.83 2654.00,5598.00 2654.00,5598.00              2654.00,5598.00 2632.00,5598.00 2632.00,5598.00              2632.00,5598.00 2609.00,5596.00 2609.00,5596.00              2600.02,5596.11 2598.56,5598.38 2594.00,5598.70              2594.00,5598.70 2582.00,5598.01 2582.00,5598.01              2565.60,5598.39 2556.55,5609.54 2546.00,5610.82              2536.99,5611.91 2535.47,5609.48 2528.00,5608.30              2511.25,5605.63 2511.54,5604.80 2494.00,5605.00              2494.00,5605.00 2474.00,5606.91 2474.00,5606.91              2474.00,5606.91 2466.00,5606.02 2466.00,5606.02              2466.00,5606.02 2448.00,5606.02 2448.00,5606.02              2448.00,5606.02 2431.00,5605.00 2431.00,5605.00              2413.14,5604.97 2413.19,5607.88 2403.00,5608.00              2403.00,5608.00 2377.00,5606.00 2377.00,5606.00              2377.00,5606.00 2363.00,5604.96 2363.00,5604.96              2363.00,5604.96 2355.00,5604.96 2355.00,5604.96              2345.48,5603.81 2348.58,5602.86 2336.00,5603.00              2336.00,5603.00 2311.00,5605.68 2311.00,5605.68              2301.50,5604.97 2287.04,5603.75 2278.00,5606.44              2269.83,5608.87 2255.21,5616.93 2247.00,5616.16              2247.00,5616.16 2240.00,5615.04 2240.00,5615.04              2240.00,5615.04 2227.00,5615.04 2227.00,5615.04              2227.00,5615.04 2194.00,5610.00 2194.00,5610.00              2176.50,5609.97 2182.42,5608.29 2172.00,5607.08              2172.00,5607.08 2160.00,5607.08 2160.00,5607.08              2160.00,5607.08 2139.00,5604.04 2139.00,5604.04              2125.60,5603.44 2125.97,5606.98 2114.00,5607.00              2114.00,5607.00 2099.00,5607.00 2099.00,5607.00              2099.00,5607.00 2056.00,5610.17 2056.00,5610.17              2056.00,5610.17 2017.00,5610.17 2017.00,5610.17              2017.00,5610.17 2009.00,5610.17 2009.00,5610.17              2009.00,5610.17 1996.00,5612.45 1996.00,5612.45              1991.18,5612.94 1989.51,5610.80 1980.00,5611.01              1980.00,5611.01 1963.00,5612.96 1963.00,5612.96              1963.00,5612.96 1927.00,5605.09 1927.00,5605.09              1920.80,5604.73 1917.92,5606.66 1914.00,5606.66              1908.90,5606.66 1901.02,5602.33 1887.00,5607.56              1887.00,5607.56 1874.00,5614.51 1874.00,5614.51              1874.00,5614.51 1855.00,5622.20 1855.00,5622.20              1849.79,5623.53 1845.27,5621.73 1840.00,5622.20              1840.00,5622.20 1816.00,5626.54 1816.00,5626.54              1816.00,5626.54 1802.00,5627.90 1802.00,5627.90              1796.61,5629.21 1792.17,5631.38 1788.09,5635.18              1785.50,5637.60 1783.00,5641.70 1779.09,5641.72              1775.75,5641.74 1773.87,5638.21 1771.82,5636.04              1769.02,5633.07 1765.77,5630.56 1762.00,5628.95              1756.78,5626.73 1750.64,5625.88 1745.00,5626.01              1745.00,5626.01 1734.00,5627.43 1734.00,5627.43              1730.40,5627.25 1728.56,5624.96 1723.00,5623.68              1711.68,5621.07 1700.90,5624.58 1694.00,5634.00              1694.00,5634.00 1676.00,5630.17 1676.00,5630.17              1671.91,5629.73 1663.74,5629.81 1660.00,5628.41              1656.43,5627.07 1653.94,5623.58 1649.00,5620.91              1642.58,5617.46 1635.13,5616.92 1628.00,5617.00              1615.37,5617.15 1613.60,5621.86 1608.00,5623.03              1608.00,5623.03 1596.00,5623.03 1596.00,5623.03              1596.00,5623.03 1586.00,5624.29 1586.00,5624.29              1586.00,5624.29 1573.00,5624.29 1573.00,5624.29              1573.00,5624.29 1561.00,5625.42 1561.00,5625.42              1561.00,5625.42 1549.00,5624.00 1549.00,5624.00              1534.59,5623.84 1532.68,5627.80 1527.00,5627.73              1527.00,5627.73 1518.00,5626.00 1518.00,5626.00              1518.00,5626.00 1506.00,5626.00 1506.00,5626.00              1499.76,5625.16 1500.43,5624.04 1492.00,5624.16              1492.00,5624.16 1469.00,5624.16 1469.00,5624.16              1469.00,5624.16 1460.00,5624.16 1460.00,5624.16              1447.67,5624.54 1436.33,5631.52 1424.00,5632.37              1424.00,5632.37 1405.00,5629.09 1405.00,5629.09              1397.93,5628.66 1396.00,5630.67 1390.00,5632.37              1383.24,5634.29 1380.44,5633.09 1373.00,5637.47              1373.00,5637.47 1366.00,5641.97 1366.00,5641.97              1366.00,5641.97 1359.00,5645.48 1359.00,5645.48              1356.64,5646.89 1353.43,5649.66 1351.00,5650.16              1351.00,5650.16 1337.00,5650.16 1337.00,5650.16              1333.82,5649.96 1322.48,5649.02 1320.00,5647.84              1316.85,5646.35 1314.04,5643.10 1309.00,5640.95              1302.81,5638.32 1281.80,5633.76 1275.00,5634.04              1262.94,5634.53 1262.46,5640.64 1253.00,5639.89              1253.00,5639.89 1242.00,5637.15 1242.00,5637.15              1242.00,5637.15 1228.00,5637.15 1228.00,5637.15              1218.30,5637.05 1212.14,5639.53 1204.00,5644.69              1201.32,5646.40 1189.18,5654.23 1187.00,5654.68              1183.29,5655.45 1181.01,5652.22 1172.00,5652.01              1165.16,5651.86 1160.96,5652.46 1155.00,5656.07              1151.50,5658.19 1144.49,5663.99 1141.00,5664.21              1141.00,5664.21 1133.00,5664.21 1133.00,5664.21              1133.00,5664.21 1123.00,5664.73 1123.00,5664.73              1123.00,5664.73 1106.00,5660.65 1106.00,5660.65              1100.52,5659.22 1098.15,5656.53 1091.00,5656.09              1082.16,5655.55 1076.04,5660.37 1071.00,5658.73              1068.09,5657.78 1063.66,5653.50 1061.00,5651.51              1055.85,5647.68 1050.47,5645.69 1044.00,5646.09              1035.10,5646.64 1030.70,5651.53 1026.00,5652.07              1026.00,5652.07 993.00,5648.00 993.00,5648.00              993.00,5648.00 977.00,5648.00 977.00,5648.00              967.42,5648.01 967.42,5649.32 963.00,5649.31              963.00,5649.31 954.00,5649.31 954.00,5649.31              954.00,5649.31 946.00,5650.20 946.00,5650.20              946.00,5650.20 936.00,5650.20 936.00,5650.20              936.00,5650.20 922.00,5650.20 922.00,5650.20              922.00,5650.20 915.00,5648.47 915.00,5648.47              911.14,5647.74 902.03,5647.01 898.00,5647.00              898.00,5647.00 869.00,5647.00 869.00,5647.00              856.16,5647.02 857.67,5649.20 851.00,5650.61              846.32,5651.60 842.65,5650.14 836.00,5652.95              829.72,5655.62 825.43,5661.05 821.00,5660.94              818.27,5660.87 813.16,5657.19 810.00,5655.93              804.71,5653.81 800.54,5653.95 795.00,5654.00              780.44,5654.15 789.16,5653.84 778.00,5650.22              778.00,5650.22 769.00,5647.79 769.00,5647.79              763.78,5645.71 762.43,5643.86 756.00,5643.17              748.54,5642.37 745.62,5644.61 741.00,5644.79              734.39,5644.74 730.53,5642.89 723.00,5644.79              718.08,5646.26 708.66,5651.31 704.00,5651.47              701.36,5651.55 697.84,5650.00 695.00,5649.47              684.85,5647.57 691.07,5651.39 675.00,5645.32              668.69,5642.93 665.10,5640.28 658.00,5640.04              650.92,5639.81 643.94,5641.71 637.00,5642.70              637.00,5642.70 628.00,5643.30 628.00,5643.30              628.00,5643.30 616.00,5646.40 616.00,5646.40              616.00,5646.40 608.00,5647.47 608.00,5647.47              600.23,5648.94 602.03,5650.94 592.00,5651.00              592.00,5651.00 572.00,5652.04 572.00,5652.04              564.61,5652.37 562.50,5654.96 558.00,5654.30              544.86,5652.38 541.13,5646.56 533.00,5644.68              524.48,5642.71 512.93,5647.06 502.00,5646.19              498.70,5645.93 485.73,5640.49 476.00,5641.09              467.93,5641.59 465.22,5644.98 460.00,5646.87              457.05,5647.94 445.25,5649.15 442.00,5648.91              442.00,5648.91 422.00,5645.24 422.00,5645.24              422.00,5645.24 408.00,5645.24 408.00,5645.24              408.00,5645.24 387.00,5640.17 387.00,5640.17              379.94,5639.41 376.60,5640.67 370.00,5642.00              365.28,5635.78 358.70,5630.04 351.00,5627.88              343.04,5625.75 337.33,5627.82 330.00,5627.88              330.00,5627.88 315.00,5626.70 315.00,5626.70              315.00,5626.70 300.00,5623.56 300.00,5623.56              300.00,5623.56 289.00,5619.90 289.00,5619.90              289.00,5619.90 271.00,5616.52 271.00,5616.52              267.04,5615.36 265.18,5613.20 258.00,5611.77              249.36,5609.82 245.02,5612.74 238.00,5611.77              233.11,5611.27 227.46,5606.92 222.00,5605.22              215.10,5603.07 211.70,5604.90 206.00,5603.05              202.66,5601.97 197.04,5599.76 194.53,5597.39              194.53,5597.39 184.96,5585.00 184.96,5585.00              180.37,5580.17 171.44,5571.35 167.96,5566.00              159.30,5552.69 160.78,5548.77 157.05,5540.00              154.72,5534.52 150.58,5530.97 147.80,5526.00              147.80,5526.00 143.65,5514.00 143.65,5514.00              141.77,5509.76 139.25,5506.34 135.96,5503.09              133.96,5501.10 130.54,5498.57 129.52,5495.96              129.52,5495.96 130.99,5479.00 130.99,5479.00              130.74,5468.13 125.74,5464.75 125.40,5458.00              125.12,5452.36 129.41,5450.14 128.96,5439.00              128.80,5434.96 128.10,5433.62 127.46,5430.00              127.46,5430.00 126.54,5421.00 126.54,5421.00              126.54,5421.00 122.63,5408.00 122.63,5408.00              122.63,5408.00 121.08,5400.00 121.08,5400.00              119.87,5395.41 116.54,5386.38 114.56,5382.00              114.56,5382.00 105.54,5366.00 105.54,5366.00              105.54,5366.00 96.39,5340.00 96.39,5340.00              96.39,5340.00 92.10,5309.00 92.10,5309.00              91.87,5304.22 93.49,5301.20 92.83,5295.00              92.29,5289.96 90.80,5288.24 89.63,5284.00              89.63,5284.00 87.78,5274.00 87.78,5274.00              86.88,5271.18 84.59,5267.56 84.48,5265.00              84.34,5261.68 86.83,5258.92 87.70,5253.00              87.70,5253.00 89.00,5228.00 89.00,5228.00              89.00,5228.00 87.37,5211.00 87.37,5211.00              87.37,5211.00 88.73,5200.00 88.73,5200.00              88.73,5200.00 88.73,5190.00 88.73,5190.00              89.37,5182.38 93.35,5172.21 92.91,5165.00              92.68,5161.23 91.48,5158.85 91.84,5155.00              91.84,5155.00 92.89,5148.00 92.89,5148.00              92.89,5148.00 92.89,5135.00 92.89,5135.00              92.89,5135.00 92.89,5124.00 92.89,5124.00              92.89,5124.00 93.96,5105.00 93.96,5105.00              93.68,5098.47 91.55,5095.58 91.79,5083.00              91.86,5078.86 93.76,5076.09 94.82,5072.00              95.18,5068.55 95.01,5063.61 94.82,5060.00              94.82,5060.00 94.82,5050.00 94.82,5050.00              95.57,5045.77 100.45,5037.48 96.78,5026.00              94.13,5017.74 88.44,5014.38 86.13,5010.72              86.13,5010.72 83.62,5005.00 83.62,5005.00              82.31,5002.08 81.62,5001.34 81.12,4998.00              80.45,4993.55 79.40,4980.13 79.83,4976.00              80.37,4970.93 81.12,4969.83 80.99,4964.00              80.83,4957.12 77.25,4937.17 75.57,4930.00              75.57,4930.00 72.48,4920.00 72.48,4920.00              71.92,4915.96 75.10,4910.56 73.72,4899.00              73.72,4899.00 70.23,4881.00 70.23,4881.00              70.37,4876.68 73.40,4874.18 75.07,4868.00              76.74,4861.84 75.53,4858.77 75.74,4853.00              76.37,4835.92 81.08,4841.78 85.10,4825.00              85.10,4825.00 87.74,4806.00 87.74,4806.00              87.74,4806.00 87.74,4794.00 87.74,4794.00              87.74,4794.00 90.70,4781.00 90.70,4781.00              91.49,4775.51 90.32,4773.61 92.12,4765.00              93.50,4758.39 96.35,4753.15 95.91,4746.00              95.91,4746.00 93.90,4735.00 93.90,4735.00              93.90,4735.00 93.90,4721.00 93.90,4721.00              92.73,4714.22 90.70,4706.91 91.09,4700.00              91.09,4700.00 92.00,4681.00 92.00,4681.00              92.02,4669.65 94.44,4670.60 94.91,4663.00              94.91,4663.00 94.00,4650.00 94.00,4650.00              94.00,4650.00 95.00,4635.00 95.00,4635.00              95.16,4620.30 89.19,4612.12 84.55,4599.00              84.55,4599.00 79.90,4581.00 79.90,4581.00              79.90,4581.00 79.90,4569.00 79.90,4569.00              79.90,4569.00 78.23,4561.00 78.23,4561.00              76.84,4551.58 77.16,4543.43 78.23,4534.00              78.23,4534.00 80.91,4520.00 80.91,4520.00              81.40,4511.94 77.85,4506.81 77.21,4502.00              77.21,4502.00 77.91,4489.00 77.91,4489.00              77.91,4489.00 76.08,4479.00 76.08,4479.00              76.08,4479.00 76.08,4465.00 76.08,4465.00              76.08,4465.00 75.47,4456.00 75.47,4456.00              75.67,4451.81 77.58,4449.02 76.83,4442.00              76.83,4442.00 74.10,4431.00 74.10,4431.00              74.10,4431.00 74.10,4418.00 74.10,4418.00              74.10,4418.00 72.19,4402.00 72.19,4402.00              72.27,4398.65 73.90,4395.39 74.66,4392.00              75.30,4387.91 74.89,4384.09 74.66,4380.00              74.66,4380.00 74.66,4368.00 74.66,4368.00              74.66,4368.00 72.37,4359.00 72.37,4359.00              72.37,4359.00 71.71,4349.00 71.71,4349.00              70.56,4340.16 69.03,4340.81 69.00,4330.22              75.98,4332.02 81.93,4333.06 89.00,4330.22              100.98,4326.01 112.63,4307.70 111.91,4295.00              111.91,4295.00 109.53,4272.00 109.53,4272.00              108.03,4263.99 106.05,4265.45 105.88,4255.00              105.88,4255.00 105.88,4242.00 105.88,4242.00              105.88,4242.00 107.00,4230.00 107.00,4230.00              107.00,4230.00 107.00,4198.00 107.00,4198.00              107.00,4198.00 105.81,4187.00 105.81,4187.00              105.30,4181.28 108.77,4176.37 105.81,4167.00              103.21,4158.98 97.87,4156.30 96.43,4151.00              95.66,4148.18 96.45,4145.13 95.07,4140.00              95.07,4140.00 92.63,4133.00 92.63,4133.00              92.63,4133.00 90.78,4124.00 90.78,4124.00              90.78,4124.00 87.39,4115.00 87.39,4115.00              87.39,4115.00 86.71,4108.00 86.71,4108.00              86.71,4108.00 84.30,4095.00 84.30,4095.00              84.30,4095.00 83.70,4087.00 83.70,4087.00              83.70,4087.00 80.22,4075.00 80.22,4075.00              80.22,4075.00 80.96,4063.00 80.96,4063.00              80.96,4063.00 79.10,4048.00 79.10,4048.00              78.87,4041.75 81.49,4040.27 83.44,4035.00              83.44,4035.00 88.39,4015.00 88.39,4015.00              88.39,4015.00 89.37,4006.00 89.37,4006.00              90.16,4001.93 91.55,4000.19 91.73,3995.00              91.73,3995.00 91.73,3984.00 91.73,3984.00              91.73,3984.00 92.79,3976.00 92.79,3976.00              93.25,3970.98 91.66,3966.94 92.79,3962.00              94.74,3951.93 101.61,3949.35 100.91,3937.00              100.53,3930.39 100.04,3921.31 98.57,3915.00              98.57,3915.00 94.87,3904.00 94.87,3904.00              94.63,3900.97 96.70,3898.35 96.96,3892.00              97.38,3881.59 91.94,3873.83 92.27,3867.00              92.86,3861.87 93.51,3859.26 92.27,3854.00              91.09,3850.41 88.72,3846.99 88.57,3844.00              88.38,3840.18 91.95,3832.81 92.00,3823.00              92.08,3805.12 96.24,3809.04 95.98,3796.00              95.79,3786.18 92.13,3783.81 91.56,3779.00              91.32,3777.04 92.56,3760.72 90.53,3750.00              89.22,3743.01 85.57,3739.28 86.09,3730.00              86.09,3730.00 88.91,3709.00 88.91,3709.00              88.68,3705.05 87.68,3694.37 86.44,3691.00              86.44,3691.00 82.61,3683.00 82.61,3683.00              81.36,3679.88 76.81,3663.76 76.98,3661.00              77.25,3656.63 80.95,3651.08 82.44,3647.00              84.32,3641.85 83.63,3638.81 84.93,3634.00              86.70,3627.42 89.39,3624.84 88.91,3617.00              88.45,3609.66 85.28,3607.28 85.53,3602.00              85.91,3594.00 90.86,3589.30 90.76,3577.00              90.76,3577.00 90.76,3563.00 90.76,3563.00              90.76,3563.00 94.45,3554.00 94.45,3554.00              94.45,3554.00 96.57,3546.00 96.57,3546.00              96.57,3546.00 100.08,3536.00 100.08,3536.00              100.08,3536.00 101.99,3511.00 101.99,3511.00              101.79,3502.48 98.99,3500.11 98.85,3496.00              98.69,3491.44 102.37,3484.45 101.91,3477.00              101.21,3465.76 93.83,3461.64 93.48,3456.00              93.48,3456.00 96.96,3439.00 96.96,3439.00              97.21,3431.35 94.65,3428.77 94.63,3424.00              94.63,3424.00 98.00,3399.00 98.00,3399.00              98.00,3399.00 100.00,3377.00 100.00,3377.00              100.00,3377.00 99.04,3360.00 99.04,3360.00              99.04,3360.00 101.99,3334.00 101.99,3334.00              101.79,3325.52 99.38,3323.70 98.19,3319.00              97.81,3316.26 98.03,3311.02 98.19,3308.00              98.19,3308.00 96.34,3283.00 96.34,3283.00              96.39,3279.12 97.99,3277.10 98.00,3268.00              98.00,3268.00 94.00,3232.00 94.00,3232.00              94.00,3232.00 94.00,3209.00 94.00,3209.00              94.00,3209.00 94.96,3192.00 94.96,3192.00              94.96,3192.00 93.00,3177.00 93.00,3177.00              92.93,3170.78 93.60,3162.82 91.78,3157.00              88.90,3147.78 83.89,3145.78 81.17,3130.00              79.16,3118.34 84.49,3116.29 83.91,3106.00              83.91,3106.00 82.32,3090.00 82.32,3090.00              81.56,3086.66 79.53,3083.08 79.51,3080.00              79.51,3080.00 81.91,3066.00 81.91,3066.00              82.32,3058.93 80.07,3056.17 78.68,3050.00              78.68,3050.00 77.54,3042.00 77.54,3042.00              77.54,3042.00 76.51,3036.00 76.51,3036.00              76.54,3032.72 79.32,3028.00 80.33,3024.00              82.40,3015.85 81.91,3013.02 82.00,3005.00              82.09,2997.45 83.83,2994.77 84.71,2988.00              85.19,2984.35 84.66,2980.45 85.63,2977.00              85.63,2977.00 88.45,2970.00 88.45,2970.00              90.16,2965.13 91.97,2954.22 91.77,2949.00              92.02,2945.13 92.20,2938.58 91.77,2935.00              90.22,2927.99 87.65,2922.87 88.09,2915.00              88.09,2915.00 89.00,2894.00 89.00,2894.00              89.00,2894.00 87.96,2884.00 87.96,2884.00              87.96,2884.00 87.96,2876.00 87.96,2876.00              87.96,2876.00 86.44,2867.00 86.44,2867.00              86.93,2861.31 92.99,2857.78 92.99,2845.00              92.99,2842.02 91.81,2830.71 91.07,2828.00              91.07,2828.00 87.29,2818.00 87.29,2818.00              87.29,2818.00 87.96,2806.00 87.96,2806.00              87.96,2806.00 86.21,2795.00 86.21,2795.00              85.95,2789.88 90.45,2781.82 89.91,2773.00              89.62,2768.31 88.16,2765.75 87.84,2763.00              87.84,2763.00 87.84,2754.00 87.84,2754.00              87.48,2747.02 84.62,2744.44 85.04,2736.00              85.04,2736.00 89.83,2711.00 89.83,2711.00              90.79,2702.01 88.55,2699.34 88.21,2694.00              88.21,2694.00 89.00,2683.00 89.00,2683.00              89.00,2683.00 89.70,2662.00 89.70,2662.00              89.16,2658.34 86.31,2652.43 87.75,2649.29              88.99,2646.61 93.37,2646.42 96.00,2645.44              100.06,2643.93 103.84,2641.23 106.67,2637.96              112.26,2631.52 113.89,2623.30 112.70,2615.00              112.70,2615.00 111.08,2607.00 111.08,2607.00              111.08,2607.00 111.08,2598.00 111.08,2598.00              111.08,2598.00 110.10,2580.00 110.10,2580.00              110.10,2580.00 112.83,2568.00 112.83,2568.00              113.43,2562.47 112.57,2547.46 111.53,2542.00              108.90,2528.08 97.39,2519.23 94.07,2506.00              92.81,2501.00 96.30,2498.77 95.77,2490.00              95.77,2490.00 95.77,2484.00 95.77,2484.00              96.19,2476.97 98.15,2474.11 96.32,2466.00              95.13,2460.74 92.20,2454.12 88.67,2450.04              86.85,2447.93 82.38,2444.74 81.66,2442.68              80.53,2439.43 83.99,2434.75 82.70,2426.00              81.60,2418.54 75.80,2411.10 75.21,2396.00              75.01,2390.95 78.22,2386.81 79.32,2382.00              79.32,2382.00 80.61,2370.00 80.61,2370.00              80.61,2370.00 83.79,2361.00 83.79,2361.00              83.79,2361.00 88.00,2338.00 88.00,2338.00              103.20,2338.00 119.36,2335.93 124.78,2319.00              126.01,2315.16 126.04,2311.97 126.00,2308.00              125.87,2295.36 121.34,2294.16 119.50,2288.00              119.50,2288.00 117.70,2272.00 117.70,2272.00              116.83,2265.93 114.64,2260.34 111.69,2255.00              106.99,2246.52 103.00,2245.34 99.68,2239.99              99.68,2239.99 96.60,2233.00 96.60,2233.00              96.60,2233.00 92.69,2226.00 92.69,2226.00              89.26,2216.76 90.87,2206.40 92.69,2197.00              92.69,2197.00 93.51,2190.00 93.51,2190.00              94.89,2185.45 99.18,2182.40 102.09,2177.00              105.32,2171.00 104.17,2167.34 106.41,2163.00              106.41,2163.00 119.60,2143.00 119.60,2143.00              122.08,2137.84 124.07,2124.03 127.23,2121.60              127.23,2121.60 147.00,2117.78 147.00,2117.78              151.47,2116.33 154.03,2114.14 158.00,2111.87              166.69,2106.91 173.58,2104.45 177.44,2094.00              179.46,2088.56 179.06,2081.78 179.00,2076.00              178.86,2064.38 176.08,2063.27 172.66,2054.00              170.90,2049.25 171.75,2047.63 168.53,2042.00              164.82,2035.51 159.41,2031.49 157.68,2024.00              157.68,2024.00 153.07,1989.00 153.07,1989.00              151.74,1984.14 149.89,1982.45 148.68,1979.00              148.68,1979.00 147.07,1972.00 147.07,1972.00              147.07,1972.00 142.78,1959.00 142.78,1959.00              141.76,1955.85 139.52,1952.08 139.30,1949.00              139.30,1949.00 142.91,1929.00 142.91,1929.00              143.49,1918.76 139.64,1916.73 135.84,1909.00              135.84,1909.00 132.09,1899.00 132.09,1899.00              130.39,1895.77 127.68,1892.47 126.80,1889.00              125.46,1884.99 126.80,1881.04 126.80,1877.00              127.59,1860.88 117.99,1857.59 111.84,1845.00              109.24,1839.68 110.44,1834.95 105.89,1828.00              101.61,1821.47 97.35,1820.14 95.93,1815.96              94.05,1810.42 99.44,1808.16 98.96,1796.00              98.96,1796.00 96.32,1778.00 96.32,1778.00              95.13,1772.75 93.30,1770.89 93.04,1765.00              92.71,1757.47 94.56,1755.60 94.91,1750.00              95.39,1742.15 92.70,1739.58 90.93,1733.00              89.24,1726.72 90.99,1726.53 87.83,1717.00              87.83,1717.00 83.48,1705.00 83.48,1705.00              83.37,1702.16 85.49,1698.73 86.45,1696.00              87.91,1691.83 88.23,1687.38 87.91,1683.00              87.11,1672.10 80.85,1669.40 81.39,1662.00              81.70,1657.84 84.08,1654.75 85.44,1651.00              86.93,1646.92 87.08,1643.28 86.99,1639.00              86.99,1639.00 86.34,1631.00 86.34,1631.00              86.34,1631.00 86.99,1619.00 86.99,1619.00              86.99,1619.00 86.37,1610.00 86.37,1610.00              86.37,1610.00 87.71,1601.00 87.71,1601.00              87.71,1601.00 89.98,1574.00 89.98,1574.00              90.20,1562.74 86.54,1561.22 86.67,1556.00              86.67,1556.00 88.83,1543.00 88.83,1543.00              88.83,1543.00 89.37,1531.00 89.37,1531.00              90.77,1523.69 93.38,1516.65 92.91,1509.00              92.63,1504.52 91.00,1501.46 91.48,1498.00              92.15,1493.12 95.26,1492.01 94.99,1480.00              94.99,1480.00 93.30,1464.00 93.30,1464.00              93.30,1464.00 97.10,1435.00 97.10,1435.00              97.10,1435.00 97.10,1423.00 97.10,1423.00              97.96,1418.02 101.64,1407.35 107.00,1405.92              109.73,1405.19 114.86,1407.25 118.00,1407.70              126.34,1408.90 135.23,1407.81 141.99,1402.47              156.03,1391.39 150.67,1379.53 151.04,1370.00              151.04,1370.00 151.96,1358.00 151.96,1358.00              151.62,1349.62 148.67,1347.45 146.93,1341.00              146.93,1341.00 143.53,1316.00 143.53,1316.00              142.20,1308.94 139.06,1307.01 138.22,1302.00              136.71,1292.93 141.99,1290.63 141.99,1279.00              141.99,1275.62 139.54,1259.99 138.44,1257.00              138.44,1257.00 134.41,1248.00 134.41,1248.00              133.36,1243.66 134.93,1238.86 132.78,1232.00              132.78,1232.00 124.46,1214.00 124.46,1214.00              122.30,1207.10 123.86,1200.82 119.66,1191.00              114.70,1179.38 110.03,1176.97 108.02,1173.00              106.91,1170.81 106.76,1167.54 106.07,1165.00              106.07,1165.00 102.19,1155.00 102.19,1155.00              102.19,1155.00 102.19,1139.00 102.19,1139.00              101.88,1129.32 94.67,1112.89 96.04,1105.00              96.65,1101.50 98.61,1092.83 100.29,1090.00              104.16,1083.48 111.11,1079.62 111.91,1068.00              112.76,1055.61 106.51,1052.09 105.05,1046.00              105.05,1046.00 105.05,1040.00 105.05,1040.00              103.36,1024.87 106.72,1027.41 106.99,1016.00              107.23,1005.22 105.54,1006.55 103.35,998.00              103.35,998.00 99.78,980.00 99.78,980.00              98.72,976.60 96.74,973.56 96.21,970.00              95.43,964.69 97.54,960.79 96.83,954.00              96.83,954.00 93.04,930.00 93.04,930.00              93.04,930.00 93.04,921.00 93.04,921.00              93.04,921.00 91.34,906.00 91.34,906.00              91.34,906.00 91.91,896.00 91.91,896.00              91.91,896.00 89.49,884.00 89.49,884.00              89.49,884.00 91.91,857.00 91.91,857.00              91.91,857.00 90.04,836.00 90.04,836.00              90.04,836.00 92.96,814.00 92.96,814.00              93.32,805.57 91.84,805.23 91.17,799.00              91.17,799.00 90.00,779.00 90.00,779.00              90.00,779.00 90.80,766.00 90.80,766.00              90.80,766.00 90.80,753.00 90.80,753.00              90.80,753.00 90.80,746.00 90.80,746.00              90.80,746.00 89.56,735.00 89.56,735.00              90.13,729.83 92.94,729.58 93.08,718.00              93.08,718.00 93.08,703.00 93.08,703.00              94.15,692.91 94.94,695.67 95.00,683.00              95.00,683.00 96.99,663.00 96.99,663.00              96.99,663.00 96.00,645.00 96.00,645.00              96.00,645.00 90.34,611.00 90.34,611.00              90.34,611.00 91.70,603.00 91.70,603.00              91.70,603.00 92.37,596.00 92.37,596.00              94.16,586.72 96.98,579.89 97.09,570.00              97.09,570.00 97.09,557.00 97.09,557.00              97.78,551.30 99.24,550.28 98.96,543.00              98.96,543.00 98.00,529.00 98.00,529.00              98.00,529.00 99.98,513.00 99.98,513.00              100.12,506.13 99.12,505.78 98.15,500.00              98.15,500.00 98.15,490.00 98.15,490.00              97.87,479.40 95.03,478.54 93.53,472.00              93.53,472.00 92.70,454.00 92.70,454.00              91.78,447.76 89.29,445.43 88.78,442.00              88.78,442.00 90.91,413.00 90.91,413.00              90.91,413.00 90.34,407.00 90.34,407.00              90.34,407.00 92.84,392.00 92.84,392.00              94.44,387.74 98.31,384.68 98.91,376.00              99.71,364.34 94.25,361.15 93.22,355.00              91.36,343.92 97.22,342.11 99.32,333.00              100.97,325.87 98.65,322.67 100.89,318.00              101.80,316.11 110.90,303.28 112.39,302.19              114.95,300.29 123.92,297.46 131.91,288.99              141.85,278.44 143.16,265.67 143.00,252.00              143.00,252.00 140.26,232.00 140.26,232.00              140.26,232.00 140.98,223.00 140.98,223.00              141.06,218.91 138.54,201.53 137.05,198.00              134.87,192.84 130.36,186.99 126.00,183.52              121.63,180.04 116.97,178.78 114.14,173.90              113.24,172.34 111.21,168.60 110.70,167.00              110.70,167.00 108.39,150.00 108.39,150.00              108.39,150.00 109.73,142.00 109.73,142.00              109.73,142.00 109.73,131.00 109.73,131.00              110.01,126.25 113.53,115.05 115.00,110.00              116.34,105.43 122.45,91.56 125.63,88.56              128.77,85.60 135.89,85.86 140.00,86.04              140.00,86.04 148.00,87.04 148.00,87.04              148.00,87.04 158.00,87.04 158.00,87.04              165.37,87.96 165.86,89.65 176.00,88.91              183.84,88.34 192.29,83.77 200.00,81.90              205.35,80.60 206.61,81.33 211.00,80.70              211.00,80.70 225.00,77.32 225.00,77.32              225.00,77.32 235.00,76.53 235.00,76.53              242.99,75.03 245.49,70.98 251.00,71.16              255.77,71.32 257.97,74.42 264.00,76.07              268.69,77.36 270.48,76.68 274.00,77.21              274.00,77.21 289.00,81.66 289.00,81.66              300.75,86.00 299.14,89.97 315.00,90.00              328.59,90.03 331.05,95.15 346.00,95.00              346.00,95.00 364.00,93.00 364.00,93.00              364.00,93.00 374.00,93.00 374.00,93.00              374.00,93.00 392.00,91.09 392.00,91.09              392.00,91.09 403.00,91.09 403.00,91.09              403.00,91.09 421.00,92.96 421.00,92.96              427.82,92.73 435.11,89.13 446.00,88.88              446.00,88.88 463.00,88.88 463.00,88.88              463.00,88.88 474.00,90.00 474.00,90.00              484.76,90.12 495.31,90.12 506.00,88.83              506.00,88.83 516.00,86.37 516.00,86.37              516.00,86.37 535.00,85.00 535.00,85.00              535.00,85.00 579.00,83.93 579.00,83.93              579.00,83.93 587.00,83.93 587.00,83.93              587.00,83.93 612.00,78.07 612.00,78.07              616.12,76.94 619.63,74.17 624.00,74.10              627.24,74.04 629.10,75.02 632.00,76.09              632.00,76.09 641.00,79.38 641.00,79.38              651.76,84.72 652.30,87.93 666.00,87.96              666.00,87.96 681.00,87.96 681.00,87.96              681.00,87.96 692.00,87.00 692.00,87.00              692.00,87.00 714.00,87.00 714.00,87.00              714.00,87.00 727.00,86.04 727.00,86.04              727.00,86.04 746.00,87.00 746.00,87.00              746.00,87.00 772.00,85.32 772.00,85.32              772.00,85.32 789.00,87.00 789.00,87.00              789.00,87.00 806.00,87.00 806.00,87.00              806.00,87.00 823.00,85.92 823.00,85.92              823.00,85.92 834.00,85.92 834.00,85.92              834.00,85.92 850.00,87.96 850.00,87.96              850.00,87.96 863.00,87.00 863.00,87.00              863.00,87.00 880.00,86.00 880.00,86.00              888.55,85.90 891.53,86.14 900.00,87.28              900.00,87.28 912.00,88.96 912.00,88.96              922.03,89.38 923.44,86.66 931.00,87.09              931.00,87.09 941.00,88.00 941.00,88.00              941.00,88.00 961.00,88.00 961.00,88.00              961.00,88.00 973.00,87.04 973.00,87.04              973.00,87.04 987.00,87.04 987.00,87.04              987.00,87.04 1012.00,85.00 1012.00,85.00              1012.00,85.00 1041.00,89.91 1041.00,89.91              1041.00,89.91 1055.00,89.91 1055.00,89.91              1055.00,89.91 1078.00,87.32 1078.00,87.32              1078.00,87.32 1088.00,84.10 1088.00,84.10              1088.00,84.10 1102.00,84.10 1102.00,84.10              1110.87,83.89 1111.44,82.03 1119.00,80.62              1119.00,80.62 1142.00,78.91 1142.00,78.91              1142.00,78.91 1156.00,78.91 1156.00,78.91              1161.54,78.24 1161.55,77.09 1169.00,77.00              1169.00,77.00 1189.00,77.00 1189.00,77.00              1201.70,76.98 1206.95,72.61 1219.00,70.79              1224.33,69.74 1225.10,70.77 1230.00,70.79              1230.00,70.79 1244.00,70.00 1244.00,70.00              1244.00,70.00 1254.00,70.00 1254.00,70.00              1254.00,70.00 1282.00,66.10 1282.00,66.10              1282.00,66.10 1293.00,66.10 1293.00,66.10              1293.00,66.10 1301.00,64.92 1301.00,64.92              1301.00,64.92 1309.00,64.92 1309.00,64.92              1309.00,64.92 1322.00,64.92 1322.00,64.92              1322.00,64.92 1335.00,65.91 1335.00,65.91              1335.00,65.91 1359.00,63.22 1359.00,63.22              1359.00,63.22 1389.00,69.63 1389.00,69.63              1389.00,69.63 1404.00,69.63 1404.00,69.63              1404.00,69.63 1412.00,72.07 1412.00,72.07              1412.00,72.07 1437.00,77.46 1437.00,77.46              1443.46,78.64 1445.80,80.24 1453.00,79.96              1462.74,79.58 1466.04,76.02 1477.00,76.00              1477.00,76.00 1506.00,76.00 1506.00,76.00              1506.00,76.00 1525.00,74.00 1525.00,74.00              1525.00,74.00 1535.00,74.00 1535.00,74.00              1535.00,74.00 1546.00,72.70 1546.00,72.70              1546.00,72.70 1558.00,70.28 1558.00,70.28              1563.72,70.22 1564.35,73.98 1578.00,73.86              1578.00,73.86 1594.00,73.86 1594.00,73.86              1594.00,73.86 1605.00,73.86 1605.00,73.86              1613.47,74.04 1612.75,75.16 1619.00,75.91              1619.00,75.91 1632.00,75.91 1632.00,75.91              1632.00,75.91 1658.00,73.70 1658.00,73.70              1658.00,73.70 1668.00,72.04 1668.00,72.04              1668.00,72.04 1687.00,74.00 1687.00,74.00              1687.00,74.00 1714.00,75.00 1714.00,75.00              1714.00,75.00 1730.00,74.00 1730.00,74.00              1730.00,74.00 1743.00,74.96 1743.00,74.96              1743.00,74.96 1756.00,74.00 1756.00,74.00              1756.00,74.00 1789.00,74.00 1789.00,74.00              1789.00,74.00 1817.00,72.00 1817.00,72.00              1817.00,72.00 1849.00,73.00 1849.00,73.00              1849.00,73.00 1859.00,73.96 1859.00,73.96              1859.00,73.96 1871.00,73.96 1871.00,73.96              1880.33,74.11 1878.69,76.15 1892.00,76.00              1892.00,76.00 1913.00,73.75 1913.00,73.75              1913.00,73.75 1926.00,74.91 1926.00,74.91              1929.98,74.68 1932.68,73.62 1937.00,74.21              1941.91,74.87 1944.33,77.31 1953.00,76.96              1953.00,76.96 1965.00,74.84 1965.00,74.84              1967.92,74.79 1970.14,76.17 1978.00,75.99              1985.95,75.80 1990.59,72.73 1997.00,73.18              2002.81,73.59 2008.09,74.55 2014.00,73.70              2023.02,72.40 2021.28,70.02 2033.00,69.96              2033.00,69.96 2045.00,69.96 2045.00,69.96              2045.00,69.96 2057.00,68.96 2057.00,68.96              2057.00,68.96 2068.00,68.96 2068.00,68.96              2068.00,68.96 2078.00,68.00 2078.00,68.00              2078.00,68.00 2091.00,68.00 2091.00,68.00              2091.00,68.00 2101.00,67.26 2101.00,67.26              2104.99,67.41 2106.78,68.91 2114.00,69.00              2114.00,69.00 2130.00,69.00 2130.00,69.00              2130.00,69.00 2146.00,70.00 2146.00,70.00              2146.00,70.00 2175.00,70.00 2175.00,70.00              2175.00,70.00 2189.00,70.96 2189.00,70.96              2189.00,70.96 2213.00,69.09 2213.00,69.09              2213.00,69.09 2246.00,72.99 2246.00,72.99              2256.38,72.75 2258.60,68.91 2263.00,67.89              2263.00,67.89 2283.00,67.89 2283.00,67.89              2283.00,67.89 2293.00,68.95 2293.00,68.95              2293.00,68.95 2312.00,68.95 2312.00,68.95              2312.00,68.95 2341.00,67.00 2341.00,67.00              2341.00,67.00 2362.00,67.00 2362.00,67.00              2362.00,67.00 2377.00,68.00 2377.00,68.00              2377.00,68.00 2393.00,67.09 2393.00,67.09              2393.00,67.09 2411.00,67.09 2411.00,67.09              2415.93,67.70 2418.27,69.26 2424.00,68.91              2429.05,68.60 2431.05,67.13 2435.00,66.19              2437.76,65.84 2444.87,65.97 2448.00,66.19              2455.47,66.09 2462.67,67.66 2470.00,68.70              2470.00,68.70 2479.00,69.21 2479.00,69.21              2485.84,70.17 2484.00,72.14 2497.00,72.00              2501.86,71.94 2505.64,71.43 2510.00,69.09              2514.22,66.82 2516.16,64.16 2521.00,62.86              2521.00,62.86 2545.00,60.08 2545.00,60.08              2545.00,60.08 2558.00,61.00 2558.00,61.00              2558.00,61.00 2567.00,61.00 2567.00,61.00              2567.00,61.00 2579.00,59.65 2579.00,59.65              2582.96,59.37 2586.98,60.56 2593.00,59.65              2602.44,58.35 2602.67,56.47 2618.00,55.32              2618.00,55.32 2639.00,56.00 2639.00,56.00              2649.75,55.98 2649.19,54.43 2658.00,53.15              2658.00,53.15 2676.00,53.15 2676.00,53.15              2686.86,53.19 2683.58,57.97 2700.00,57.91              2700.00,57.91 2722.00,57.91 2722.00,57.91              2726.97,57.30 2729.17,55.75 2735.00,56.09              2735.00,56.09 2748.00,58.05 2748.00,58.05              2748.00,58.05 2766.00,58.05 2766.00,58.05              2766.00,58.05 2785.00,61.91 2785.00,61.91              2785.00,61.91 2804.00,61.00 2804.00,61.00              2804.00,61.00 2836.00,59.83 2836.00,59.83              2843.01,59.08 2841.07,58.02 2851.00,58.00              2851.00,58.00 2867.00,58.00 2867.00,58.00              2867.00,58.00 2879.00,56.51 2879.00,56.51              2879.00,56.51 2889.00,58.85 2889.00,58.85              2889.00,58.85 2906.00,58.85 2906.00,58.85              2906.00,58.85 2930.00,57.01 2930.00,57.01              2930.00,57.01 2944.00,58.91 2944.00,58.91              2944.00,58.91 2958.00,58.91 2958.00,58.91              2958.00,58.91 2977.00,57.00 2977.00,57.00              2977.00,57.00 2992.00,56.32 2992.00,56.32              2992.00,56.32 3004.00,57.00 3004.00,57.00              3004.00,57.00 3014.00,57.95 3014.00,57.95              3014.00,57.95 3033.00,57.95 3033.00,57.95              3033.00,57.95 3052.00,57.00 3052.00,57.00              3052.00,57.00 3069.00,57.80 3069.00,57.80              3069.00,57.80 3090.00,57.80 3090.00,57.80              3090.00,57.80 3103.00,59.04 3103.00,59.04              3103.00,59.04 3113.00,59.04 3113.00,59.04              3117.51,59.60 3119.12,60.10 3124.00,59.99              3124.00,59.99 3133.00,59.46 3133.00,59.46              3136.92,59.94 3139.46,62.29 3148.00,61.96              3148.00,61.96 3157.00,61.08 3157.00,61.08              3157.00,61.08 3165.00,61.91 3165.00,61.91              3165.00,61.91 3190.00,63.00 3190.00,63.00              3190.00,63.00 3201.00,62.08 3201.00,62.08              3205.71,62.08 3208.96,63.59 3216.00,62.83              3222.26,62.15 3224.96,59.55 3229.00,59.67              3234.10,59.82 3237.65,63.25 3249.00,62.99              3257.85,62.78 3265.44,57.84 3274.00,55.95              3277.94,55.01 3287.80,56.06 3293.00,55.95              3293.00,55.95 3307.00,55.00 3307.00,55.00              3307.00,55.00 3332.00,55.00 3332.00,55.00              3332.00,55.00 3346.00,55.85 3346.00,55.85              3346.00,55.85 3364.00,55.85 3364.00,55.85              3364.00,55.85 3376.00,55.85 3376.00,55.85              3376.00,55.85 3394.00,55.00 3394.00,55.00              3394.00,55.00 3409.00,56.00 3409.00,56.00              3409.00,56.00 3434.00,57.00 3434.00,57.00              3434.00,57.00 3451.00,58.96 3451.00,58.96              3451.00,58.96 3461.00,58.04 3461.00,58.04              3461.00,58.04 3471.00,58.04 3471.00,58.04              3471.00,58.04 3481.00,57.05 3481.00,57.05              3481.00,57.05 3500.00,57.05 3500.00,57.05              3500.00,57.05 3520.00,59.98 3520.00,59.98              3520.00,59.98 3544.00,57.17 3544.00,57.17              3544.00,57.17 3559.00,57.96 3559.00,57.96              3559.00,57.96 3573.00,57.96 3573.00,57.96              3573.00,57.96 3582.00,57.03 3582.00,57.03              3582.00,57.03 3593.00,57.97 3593.00,57.97              3593.00,57.97 3603.00,57.32 3603.00,57.32              3603.00,57.32 3618.00,58.00 3618.00,58.00              3618.00,58.00 3634.00,58.99 3634.00,58.99              3641.59,58.80 3644.32,56.58 3649.00,56.22              3649.00,56.22 3667.00,57.00 3667.00,57.00              3667.00,57.00 3680.00,58.00 3680.00,58.00              3680.00,58.00 3697.00,59.00 3697.00,59.00              3697.00,59.00 3711.00,59.00 3711.00,59.00              3711.00,59.00 3728.00,59.96 3728.00,59.96              3728.00,59.96 3753.00,58.00 3753.00,58.00              3753.00,58.00 3768.00,58.81 3768.00,58.81              3768.00,58.81 3785.00,58.81 3785.00,58.81              3785.00,58.81 3802.00,58.81 3802.00,58.81              3802.00,58.81 3813.00,58.81 3813.00,58.81              3813.00,58.81 3824.00,58.81 3824.00,58.81              3824.00,58.81 3849.00,58.81 3849.00,58.81              3858.93,59.02 3856.99,60.08 3864.00,60.91              3864.00,60.91 3872.00,60.91 3872.00,60.91              3872.00,60.91 3883.00,61.95 3883.00,61.95              3883.00,61.95 3897.00,61.95 3897.00,61.95              3897.00,61.95 3921.00,59.00 3921.00,59.00              3921.00,59.00 3925.00,59.00 3925.00,59.00              3925.00,59.00 3939.00,58.00 3939.00,58.00              3939.00,58.00 3953.00,58.00 3953.00,58.00              3953.00,58.00 3968.00,58.99 3968.00,58.99              3968.00,58.99 3976.00,58.34 3976.00,58.34              3976.00,58.34 3998.00,60.21 3998.00,60.21              3998.00,60.21 4009.00,62.83 4009.00,62.83              4015.70,63.56 4019.05,62.15 4025.00,62.01              4025.00,62.01 4048.00,64.39 4048.00,64.39              4048.00,64.39 4056.00,67.07 4056.00,67.07              4056.00,67.07 4066.00,69.00 4066.00,69.00              4060.97,89.68 4079.47,111.29 4101.00,106.32              4111.22,103.96 4118.15,95.87 4120.84,86.00              4122.01,81.71 4122.45,73.65 4125.51,70.65              4127.00,69.18 4129.07,68.51 4131.00,67.90              4143.79,63.41 4145.71,68.42 4157.00,67.90              4167.06,67.55 4169.07,63.22 4175.00,62.22              4175.00,62.22 4185.00,61.54 4185.00,61.54              4190.44,60.58 4198.87,57.82 4204.00,58.18              4204.00,58.18 4218.00,59.00 4218.00,59.00              4218.00,59.00 4236.00,59.91 4236.00,59.91              4236.00,59.91 4256.00,56.14 4256.00,56.14              4256.00,56.14 4273.00,56.14 4273.00,56.14              4273.00,56.14 4307.00,58.98 4307.00,58.98              4307.00,58.98 4326.00,58.98 4326.00,58.98              4326.00,58.98 4345.00,58.00 4345.00,58.00              4345.00,58.00 4366.00,56.00 4366.00,56.00              4366.00,56.00 4395.00,57.00 4395.00,57.00              4395.00,57.00 4418.00,55.25 4418.00,55.25              4422.98,55.78 4425.74,59.37 4436.00,58.96              4442.50,58.70 4446.89,56.08 4452.00,56.53              4456.74,56.95 4459.72,58.92 4464.00,60.07              4468.36,61.25 4476.44,62.09 4481.00,61.99              4491.36,61.75 4488.16,58.77 4508.00,59.00              4508.00,59.00 4531.00,61.91 4531.00,61.91              4538.44,61.45 4543.46,57.99 4547.00,57.80              4547.00,57.80 4564.00,57.80 4564.00,57.80              4564.00,57.80 4576.00,57.80 4576.00,57.80              4579.87,57.65 4581.71,56.85 4586.00,57.09              4586.00,57.09 4593.00,57.83 4593.00,57.83              4593.00,57.83 4602.00,57.83 4602.00,57.83              4602.00,57.83 4621.00,59.00 4621.00,59.00              4621.00,59.00 4641.00,59.00 4641.00,59.00              4641.00,59.00 4656.00,58.00 4656.00,58.00              4656.00,58.00 4680.00,56.37 4680.00,56.37              4680.00,56.37 4690.00,56.96 4690.00,56.96              4690.00,56.96 4699.00,56.13 4699.00,56.13              4704.34,56.33 4707.06,58.89 4716.00,59.00              4733.76,59.21 4728.94,56.06 4741.00,56.00              4741.00,56.00 4756.00,55.18 4756.00,55.18              4756.00,55.18 4771.00,56.00 4771.00,56.00              4771.00,56.00 4797.00,57.88 4797.00,57.88              4797.00,57.88 4818.00,57.88 4818.00,57.88              4818.00,57.88 4830.00,57.88 4830.00,57.88              4830.00,57.88 4847.00,57.88 4847.00,57.88              4847.00,57.88 4880.00,59.91 4880.00,59.91              4886.67,59.50 4885.21,57.95 4897.00,58.00              4897.00,58.00 4912.00,58.96 4912.00,58.96              4912.00,58.96 4922.00,58.03 4922.00,58.03              4922.00,58.03 4931.00,58.96 4931.00,58.96              4931.00,58.96 4940.00,58.96 4940.00,58.96              4940.00,58.96 4950.00,59.96 4950.00,59.96              4950.00,59.96 4961.00,59.96 4961.00,59.96              4961.00,59.96 4974.00,60.91 4974.00,60.91              4974.00,60.91 4990.00,60.00 4990.00,60.00              5003.70,60.02 4999.79,63.18 5016.00,63.00              5016.00,63.00 5035.00,62.00 5035.00,62.00              5035.00,62.00 5049.00,61.00 5049.00,61.00              5049.00,61.00 5083.00,61.00 5083.00,61.00              5083.00,61.00 5099.00,62.00 5099.00,62.00              5099.00,62.00 5110.00,61.21 5110.00,61.21              5110.00,61.21 5118.00,62.94 5118.00,62.94              5118.00,62.94 5126.00,62.94 5126.00,62.94              5132.58,63.88 5132.01,65.19 5141.00,64.99              5147.12,64.84 5148.18,63.69 5153.00,63.09              5153.00,63.09 5166.00,63.09 5166.00,63.09              5166.00,63.09 5187.00,64.00 5187.00,64.00              5187.00,64.00 5197.00,63.04 5197.00,63.04              5197.00,63.04 5213.00,63.04 5213.00,63.04              5213.00,63.04 5235.00,64.00 5235.00,64.00              5235.00,64.00 5249.00,63.00 5249.00,63.00              5249.00,63.00 5276.00,63.00 5276.00,63.00              5276.00,63.00 5302.00,65.00 5302.00,65.00              5302.00,65.00 5317.00,64.18 5317.00,64.18              5317.00,64.18 5334.00,66.00 5334.00,66.00              5334.00,66.00 5342.00,66.00 5342.00,66.00              5342.00,66.00 5351.00,66.97 5351.00,66.97              5351.00,66.97 5375.00,64.26 5375.00,64.26              5379.57,64.18 5387.86,67.97 5396.00,67.97              5396.00,67.97 5413.00,66.00 5413.00,66.00              5413.00,66.00 5417.00,66.00 5417.00,66.00              5427.45,66.02 5427.11,67.66 5434.00,67.96              5439.85,68.22 5441.08,67.42 5446.00,67.04              5446.00,67.04 5457.00,67.04 5457.00,67.04              5457.00,67.04 5470.00,65.75 5470.00,65.75              5470.00,65.75 5480.00,65.75 5480.00,65.75              5480.00,65.75 5490.00,65.04 5490.00,65.04              5490.00,65.04 5505.00,66.46 5505.00,66.46              5512.33,67.76 5512.47,68.96 5521.00,69.00              5521.00,69.00 5540.00,68.00 5540.00,68.00              5540.00,68.00 5605.00,68.00 5605.00,68.00              5605.00,68.00 5619.00,67.18 5619.00,67.18              5619.00,67.18 5632.00,69.56 5632.00,69.56              5632.00,69.56 5650.00,71.00 5650.00,71.00              5659.01,71.10 5658.03,70.11 5664.00,69.80              5664.00,69.80 5674.00,69.80 5674.00,69.80              5679.96,69.72 5682.13,68.12 5687.00,67.32              5687.00,67.32 5698.00,66.37 5698.00,66.37              5698.00,66.37 5713.00,67.95 5713.00,67.95              5713.00,67.95 5731.00,67.95 5731.00,67.95              5731.00,67.95 5741.00,66.76 5741.00,66.76              5741.00,66.76 5751.00,66.76 5751.00,66.76              5751.00,66.76 5762.00,66.76 5762.00,66.76              5762.00,66.76 5779.00,66.76 5779.00,66.76              5779.00,66.76 5796.00,68.00 5796.00,68.00              5796.00,68.00 5814.00,67.18 5814.00,67.18              5814.00,67.18 5825.00,68.00 5825.00,68.00              5825.00,68.00 5857.00,68.00 5857.00,68.00              5857.00,68.00 5869.00,68.95 5869.00,68.95              5869.00,68.95 5882.00,68.95 5882.00,68.95              5882.00,68.95 5892.00,68.04 5892.00,68.04              5892.00,68.04 5904.00,68.04 5904.00,68.04              5904.00,68.04 5918.00,68.96 5918.00,68.96              5918.00,68.96 5927.00,67.87 5927.00,67.87              5927.00,67.87 5942.00,67.87 5942.00,67.87              5942.00,67.87 5955.00,67.18 5955.00,67.18              5955.00,67.18 5983.00,69.00 5983.00,69.00              5983.00,69.00 6004.00,70.99 6004.00,70.99              6011.04,70.82 6013.34,68.89 6017.00,68.84              6020.82,68.78 6026.37,71.28 6033.00,70.91              6033.00,70.91 6040.00,69.89 6040.00,69.89              6040.00,69.89 6048.00,69.89 6048.00,69.89              6055.09,68.69 6053.38,68.01 6062.00,68.00              6062.00,68.00 6108.00,68.91 6108.00,68.91              6108.00,68.91 6147.00,68.91 6147.00,68.91              6147.00,68.91 6158.00,68.91 6158.00,68.91              6158.00,68.91 6182.00,70.09 6182.00,70.09              6182.00,70.09 6194.00,70.86 6194.00,70.86              6194.00,70.86 6227.00,70.86 6227.00,70.86              6227.00,70.86 6259.00,70.86 6259.00,70.86              6259.00,70.86 6281.00,73.04 6281.00,73.04              6281.00,73.04 6297.00,73.04 6297.00,73.04              6297.00,73.04 6307.00,73.99 6307.00,73.99              6307.00,73.99 6322.00,73.00 6322.00,73.00              6322.00,73.00 6344.00,73.00 6344.00,73.00              6344.00,73.00 6360.00,72.00 6360.00,72.00              6360.00,72.00 6395.00,72.00 6395.00,72.00              6395.00,72.00 6416.00,73.99 6416.00,73.99              6416.00,73.99 6426.00,72.96 6426.00,72.96              6426.00,72.96 6435.00,72.96 6435.00,72.96              6435.00,72.96 6451.00,71.78 6451.00,71.78              6451.00,71.78 6459.00,71.78 6459.00,71.78              6459.00,71.78 6498.00,69.59 6498.00,69.59              6498.00,69.59 6521.00,73.54 6521.00,73.54              6521.00,73.54 6543.00,74.99 6543.00,74.99              6543.00,74.99 6571.00,73.00 6571.00,73.00              6571.00,73.00 6586.00,73.96 6586.00,73.96              6586.00,73.96 6601.00,73.96 6601.00,73.96              6601.00,73.96 6634.00,77.96 6634.00,77.96              6634.00,77.96 6666.00,75.34 6666.00,75.34              6666.00,75.34 6682.00,77.00 6682.00,77.00              6682.00,77.00 6767.00,77.00 6767.00,77.00              6767.00,77.00 6786.00,75.18 6786.00,75.18              6786.00,75.18 6798.00,76.00 6798.00,76.00              6798.00,76.00 6812.00,76.00 6812.00,76.00              6812.00,76.00 6821.00,75.34 6821.00,75.34              6821.00,75.34 6830.00,75.95 6830.00,75.95              6830.00,75.95 6844.00,75.95 6844.00,75.95              6844.00,75.95 6852.00,75.21 6852.00,75.21              6852.00,75.21 6858.00,76.11 6858.00,76.11              6858.00,76.11 6867.00,76.11 6867.00,76.11              6874.47,77.36 6873.27,78.04 6882.00,78.00              6889.40,77.97 6893.07,76.68 6900.00,75.46              6900.00,75.46 6927.00,73.09 6927.00,73.09              6927.00,73.09 6939.00,74.60 6939.00,74.60              6939.00,74.60 6947.00,76.70 6947.00,76.70              6947.00,76.70 6957.00,77.28 6957.00,77.28              6975.23,79.47 6965.32,80.26 6988.00,80.00              6988.00,80.00 7017.00,77.32 7017.00,77.32              7017.00,77.32 7026.00,78.00 7026.00,78.00              7026.00,78.00 7060.00,79.00 7060.00,79.00              7060.00,79.00 7075.00,79.91 7075.00,79.91              7075.00,79.91 7085.00,79.04 7085.00,79.04              7091.40,79.26 7092.39,81.15 7101.00,80.98              7109.14,80.83 7115.44,78.38 7123.00,77.15              7123.00,77.15 7142.00,77.15 7142.00,77.15              7152.13,77.12 7155.33,80.00 7164.00,82.10              7173.81,84.48 7189.80,83.85 7198.00,77.47              7202.16,74.23 7204.12,71.26 7207.00,67.00 Z"
            style="fill:#000000;fill-opacity:1"/>
</svg>
