<?xml version="1.0" encoding="UTF-8" standalone="no"?>
<svg
        width="174.202mm"
        height="118.343mm"
        viewBox="0 0 8230 5591"
        version="1.1"
        id="svg1006"
        sodipodi:docname="sheet11a.svg"
        inkscape:version="1.1.1 (3bf5ae0d25, 2021-09-20)"
        xmlns:inkscape="http://www.inkscape.org/namespaces/inkscape"
        xmlns:sodipodi="http://sodipodi.sourceforge.net/DTD/sodipodi-0.dtd"
        xmlns="http://www.w3.org/2000/svg"
>
    <defs
            id="defs1010"/>
    <sodipodi:namedview
            id="namedview1008"
            pagecolor="#ffffff"
            bordercolor="#666666"
            borderopacity="1.0"
            inkscape:pageshadow="2"
            inkscape:pageopacity="0.0"
            inkscape:pagecheckerboard="0"
            inkscape:document-units="mm"
            showgrid="false"
            inkscape:zoom="1.0282484"
            inkscape:cx="329.20062"
            inkscape:cy="223.1951"
            inkscape:window-width="1920"
            inkscape:window-height="1001"
            inkscape:window-x="-7"
            inkscape:window-y="-7"
            inkscape:window-maximized="1"
            inkscape:current-layer="svg1006"/>
    <path
            id="Selection"
            fill="none"
            stroke="black"
            stroke-width="1"
            d="M 7914.00,5479.00            C 7902.35,5476.87 7902.69,5474.73 7896.00,5473.47              7888.30,5472.01 7884.28,5474.29 7880.00,5474.39              7876.47,5474.87 7873.55,5473.58 7868.00,5474.39              7861.37,5474.88 7857.94,5477.85 7853.00,5478.46              7849.00,5478.93 7845.45,5477.25 7839.00,5478.46              7833.58,5479.49 7830.21,5482.24 7826.00,5481.73              7821.10,5481.15 7810.73,5472.36 7806.00,5469.47              7798.99,5465.18 7789.14,5464.10 7781.00,5464.00              7770.70,5463.89 7762.44,5465.91 7755.32,5474.04              7751.85,5478.00 7746.96,5487.33 7742.82,5489.57              7741.21,5490.44 7730.56,5494.05 7729.00,5494.02              7729.00,5494.02 7719.00,5492.09 7719.00,5492.09              7709.37,5491.50 7704.73,5496.23 7700.00,5497.51              7696.99,5498.32 7687.69,5497.96 7684.00,5498.16              7684.00,5498.16 7675.00,5498.16 7675.00,5498.16              7672.30,5497.81 7668.23,5494.79 7665.00,5493.47              7665.00,5493.47 7653.00,5489.88 7653.00,5489.88              7653.00,5489.88 7644.00,5484.31 7644.00,5484.31              7638.90,5481.52 7625.76,5477.45 7620.00,5477.09              7612.77,5476.65 7606.33,5479.32 7601.04,5484.18              7601.04,5484.18 7593.68,5492.02 7593.68,5492.02              7591.83,5493.22 7588.30,5493.71 7586.00,5494.56              7576.36,5498.13 7581.89,5499.17 7567.00,5499.00              7567.00,5499.00 7549.00,5497.01 7549.00,5497.01              7534.49,5496.69 7534.33,5501.67 7526.00,5501.94              7521.47,5502.09 7519.07,5500.88 7515.00,5500.30              7515.00,5500.30 7495.00,5499.09 7495.00,5499.09              7488.72,5499.48 7489.45,5500.98 7479.00,5501.23              7475.14,5501.01 7469.65,5500.79 7466.00,5501.23              7466.00,5501.23 7459.00,5503.06 7459.00,5503.06              7459.00,5503.06 7446.00,5503.06 7446.00,5503.06              7446.00,5503.06 7426.00,5504.00 7426.00,5504.00              7426.00,5504.00 7413.00,5503.00 7413.00,5503.00              7413.00,5503.00 7397.00,5503.00 7397.00,5503.00              7397.00,5503.00 7366.00,5505.20 7366.00,5505.20              7366.00,5505.20 7355.00,5505.20 7355.00,5505.20              7355.00,5505.20 7347.00,5504.17 7347.00,5504.17              7347.00,5504.17 7320.00,5503.00 7320.00,5503.00              7320.00,5503.00 7301.00,5505.00 7301.00,5505.00              7301.00,5505.00 7279.00,5505.00 7279.00,5505.00              7279.00,5505.00 7265.00,5506.00 7265.00,5506.00              7265.00,5506.00 7242.00,5504.00 7242.00,5504.00              7242.00,5504.00 7228.00,5505.00 7228.00,5505.00              7228.00,5505.00 7200.00,5505.00 7200.00,5505.00              7200.00,5505.00 7183.00,5504.00 7183.00,5504.00              7183.00,5504.00 7163.00,5505.79 7163.00,5505.79              7163.00,5505.79 7146.00,5504.61 7146.00,5504.61              7141.58,5503.68 7137.83,5500.61 7130.00,5501.09              7130.00,5501.09 7118.00,5503.39 7118.00,5503.39              7114.25,5503.51 7111.03,5501.76 7104.00,5502.04              7104.00,5502.04 7089.00,5504.91 7089.00,5504.91              7089.00,5504.91 7073.00,5504.00 7073.00,5504.00              7073.00,5504.00 7046.00,5506.00 7046.00,5506.00              7046.00,5506.00 7027.00,5506.00 7027.00,5506.00              7027.00,5506.00 6999.00,5503.04 6999.00,5503.04              6991.17,5503.36 6978.87,5508.41 6970.00,5507.91              6970.00,5507.91 6962.00,5507.15 6962.00,5507.15              6962.00,5507.15 6953.00,5507.15 6953.00,5507.15              6953.00,5507.15 6936.00,5506.00 6936.00,5506.00              6930.18,5506.03 6918.36,5507.03 6913.00,5505.49              6907.29,5503.86 6905.30,5499.01 6893.00,5499.01              6878.62,5499.01 6877.53,5505.97 6864.00,5506.00              6864.00,5506.00 6860.00,5506.00 6860.00,5506.00              6860.00,5506.00 6847.00,5506.99 6847.00,5506.99              6847.00,5506.99 6832.00,5506.00 6832.00,5506.00              6832.00,5506.00 6815.00,5506.00 6815.00,5506.00              6815.00,5506.00 6799.00,5505.09 6799.00,5505.09              6799.00,5505.09 6773.00,5505.09 6773.00,5505.09              6773.00,5505.09 6764.00,5505.09 6764.00,5505.09              6764.00,5505.09 6742.00,5506.17 6742.00,5506.17              6742.00,5506.17 6730.00,5507.37 6730.00,5507.37              6725.05,5507.33 6723.68,5505.01 6715.00,5505.01              6715.00,5505.01 6685.00,5507.68 6685.00,5507.68              6685.00,5507.68 6662.00,5505.98 6662.00,5505.98              6662.00,5505.98 6642.00,5505.98 6642.00,5505.98              6636.53,5505.69 6632.64,5503.77 6627.00,5504.09              6627.00,5504.09 6591.00,5507.00 6591.00,5507.00              6591.00,5507.00 6576.00,5506.04 6576.00,5506.04              6576.00,5506.04 6561.00,5506.04 6561.00,5506.04              6561.00,5506.04 6549.00,5506.99 6549.00,5506.99              6549.00,5506.99 6540.00,5506.04 6540.00,5506.04              6540.00,5506.04 6529.00,5506.04 6529.00,5506.04              6529.00,5506.04 6514.00,5507.00 6514.00,5507.00              6514.00,5507.00 6478.00,5508.15 6478.00,5508.15              6478.00,5508.15 6464.00,5508.15 6464.00,5508.15              6464.00,5508.15 6455.00,5508.15 6455.00,5508.15              6455.00,5508.15 6438.00,5508.15 6438.00,5508.15              6438.00,5508.15 6418.00,5508.15 6418.00,5508.15              6418.00,5508.15 6402.00,5507.00 6402.00,5507.00              6402.00,5507.00 6372.00,5507.00 6372.00,5507.00              6372.00,5507.00 6356.00,5508.00 6356.00,5508.00              6356.00,5508.00 6322.00,5508.00 6322.00,5508.00              6322.00,5508.00 6312.00,5508.54 6312.00,5508.54              6307.31,5507.96 6306.61,5505.77 6296.00,5506.01              6296.00,5506.01 6264.00,5509.82 6264.00,5509.82              6264.00,5509.82 6253.00,5509.00 6253.00,5509.00              6253.00,5509.00 6221.00,5509.00 6221.00,5509.00              6221.00,5509.00 6207.00,5509.90 6207.00,5509.90              6207.00,5509.90 6198.00,5508.30 6198.00,5508.30              6198.00,5508.30 6179.00,5507.03 6179.00,5507.03              6179.00,5507.03 6163.00,5509.62 6163.00,5509.62              6163.00,5509.62 6152.00,5509.00 6152.00,5509.00              6152.00,5509.00 6129.00,5510.99 6129.00,5510.99              6129.00,5510.99 6113.00,5510.00 6113.00,5510.00              6113.00,5510.00 6096.00,5511.00 6096.00,5511.00              6096.00,5511.00 6082.00,5511.00 6082.00,5511.00              6082.00,5511.00 6066.00,5511.00 6066.00,5511.00              6066.00,5511.00 6031.00,5509.00 6031.00,5509.00              6031.00,5509.00 6015.00,5510.14 6015.00,5510.14              6015.00,5510.14 6004.00,5510.14 6004.00,5510.14              6004.00,5510.14 5988.00,5510.14 5988.00,5510.14              5988.00,5510.14 5969.00,5512.26 5969.00,5512.26              5969.00,5512.26 5933.00,5511.00 5933.00,5511.00              5933.00,5511.00 5903.00,5513.00 5903.00,5513.00              5903.00,5513.00 5888.00,5512.00 5888.00,5512.00              5888.00,5512.00 5849.00,5512.00 5849.00,5512.00              5849.00,5512.00 5830.00,5513.00 5830.00,5513.00              5830.00,5513.00 5816.00,5512.04 5816.00,5512.04              5816.00,5512.04 5805.00,5512.04 5805.00,5512.04              5805.00,5512.04 5798.00,5512.82 5798.00,5512.82              5798.00,5512.82 5788.00,5512.09 5788.00,5512.09              5788.00,5512.09 5774.00,5512.09 5774.00,5512.09              5766.99,5512.92 5768.93,5513.98 5759.00,5514.00              5759.00,5514.00 5746.00,5514.00 5746.00,5514.00              5746.00,5514.00 5731.00,5513.04 5731.00,5513.04              5731.00,5513.04 5716.00,5513.04 5716.00,5513.04              5716.00,5513.04 5706.00,5514.00 5706.00,5514.00              5706.00,5514.00 5662.00,5515.00 5662.00,5515.00              5662.00,5515.00 5643.00,5516.00 5643.00,5516.00              5643.00,5516.00 5633.00,5515.04 5633.00,5515.04              5633.00,5515.04 5619.00,5515.04 5619.00,5515.04              5619.00,5515.04 5602.00,5516.00 5602.00,5516.00              5602.00,5516.00 5566.00,5516.00 5566.00,5516.00              5566.00,5516.00 5546.00,5515.00 5546.00,5515.00              5546.00,5515.00 5537.00,5515.66 5537.00,5515.66              5537.00,5515.66 5528.00,5515.00 5528.00,5515.00              5528.00,5515.00 5508.00,5515.00 5508.00,5515.00              5508.00,5515.00 5496.00,5515.63 5496.00,5515.63              5496.00,5515.63 5473.00,5514.09 5473.00,5514.09              5473.00,5514.09 5447.00,5516.00 5447.00,5516.00              5447.00,5516.00 5413.00,5515.00 5413.00,5515.00              5413.00,5515.00 5381.00,5517.00 5381.00,5517.00              5381.00,5517.00 5360.00,5517.61 5360.00,5517.61              5352.43,5517.05 5348.32,5514.90 5339.00,5515.00              5339.00,5515.00 5328.00,5516.09 5328.00,5516.09              5328.00,5516.09 5320.00,5516.09 5320.00,5516.09              5320.00,5516.09 5299.00,5516.09 5299.00,5516.09              5299.00,5516.09 5287.00,5516.99 5287.00,5516.99              5277.99,5517.19 5278.58,5515.88 5272.00,5515.09              5272.00,5515.09 5254.00,5515.09 5254.00,5515.09              5254.00,5515.09 5242.00,5516.00 5242.00,5516.00              5242.00,5516.00 5233.00,5516.00 5233.00,5516.00              5233.00,5516.00 5225.00,5516.92 5225.00,5516.92              5225.00,5516.92 5200.00,5515.00 5200.00,5515.00              5189.04,5514.88 5191.46,5516.03 5184.00,5516.96              5184.00,5516.96 5175.00,5516.96 5175.00,5516.96              5175.00,5516.96 5168.00,5517.90 5168.00,5517.90              5168.00,5517.90 5156.00,5517.00 5156.00,5517.00              5156.00,5517.00 5137.00,5517.00 5137.00,5517.00              5137.00,5517.00 5117.00,5518.91 5117.00,5518.91              5110.72,5518.52 5111.45,5517.02 5101.00,5517.04              5101.00,5517.04 5085.00,5517.04 5085.00,5517.04              5080.05,5517.43 5078.90,5518.21 5073.00,5517.96              5073.00,5517.96 5046.00,5516.00 5046.00,5516.00              5046.00,5516.00 5035.00,5516.96 5035.00,5516.96              5035.00,5516.96 5022.00,5516.22 5022.00,5516.22              5022.00,5516.22 5014.00,5516.22 5014.00,5516.22              5009.29,5516.18 5006.63,5513.70 4998.00,5514.04              4998.00,5514.04 4963.00,5516.96 4963.00,5516.96              4963.00,5516.96 4948.00,5516.03 4948.00,5516.03              4948.00,5516.03 4895.00,5516.03 4895.00,5516.03              4895.00,5516.03 4877.00,5516.03 4877.00,5516.03              4877.00,5516.03 4869.00,5517.09 4869.00,5517.09              4869.00,5517.09 4859.00,5517.09 4859.00,5517.09              4859.00,5517.09 4849.00,5517.09 4849.00,5517.09              4849.00,5517.09 4826.00,5518.26 4826.00,5518.26              4826.00,5518.26 4778.00,5519.20 4778.00,5519.20              4778.00,5519.20 4767.00,5519.20 4767.00,5519.20              4767.00,5519.20 4752.00,5518.00 4752.00,5518.00              4752.00,5518.00 4741.00,5518.00 4741.00,5518.00              4741.00,5518.00 4723.00,5519.00 4723.00,5519.00              4723.00,5519.00 4710.00,5518.00 4710.00,5518.00              4710.00,5518.00 4698.00,5518.61 4698.00,5518.61              4693.91,5518.31 4692.28,5516.76 4685.00,5517.04              4685.00,5517.04 4674.00,5517.91 4674.00,5517.91              4674.00,5517.91 4666.00,5517.16 4666.00,5517.16              4666.00,5517.16 4654.00,5517.16 4654.00,5517.16              4654.00,5517.16 4644.00,5517.16 4644.00,5517.16              4644.00,5517.16 4624.00,5516.00 4624.00,5516.00              4624.00,5516.00 4603.00,5517.90 4603.00,5517.90              4596.03,5517.43 4595.97,5515.02 4584.00,5515.09              4584.00,5515.09 4570.00,5515.09 4570.00,5515.09              4565.07,5515.70 4562.74,5517.26 4557.00,5516.91              4551.77,5516.59 4549.55,5514.82 4543.00,5515.04              4543.00,5515.04 4530.00,5516.79 4530.00,5516.79              4530.00,5516.79 4505.00,5515.00 4505.00,5515.00              4505.00,5515.00 4496.00,5515.00 4496.00,5515.00              4496.00,5515.00 4464.00,5517.79 4464.00,5517.79              4464.00,5517.79 4446.00,5517.00 4446.00,5517.00              4446.00,5517.00 4431.00,5516.01 4431.00,5516.01              4431.00,5516.01 4416.00,5517.25 4416.00,5517.25              4416.00,5517.25 4395.00,5517.25 4395.00,5517.25              4395.00,5517.25 4382.00,5517.91 4382.00,5517.91              4382.00,5517.91 4370.00,5517.00 4370.00,5517.00              4370.00,5517.00 4343.00,5517.00 4343.00,5517.00              4332.10,5516.94 4329.67,5512.54 4320.00,5513.09              4320.00,5513.09 4304.00,5514.29 4304.00,5514.29              4304.00,5514.29 4293.00,5514.29 4293.00,5514.29              4293.00,5514.29 4279.00,5516.82 4279.00,5516.82              4273.99,5516.82 4272.26,5514.53 4261.00,5515.04              4253.45,5515.38 4251.29,5518.01 4246.00,5517.79              4235.77,5517.36 4229.47,5512.55 4222.00,5512.09              4222.00,5512.09 4207.00,5512.99 4207.00,5512.99              4202.90,5512.89 4191.48,5510.72 4188.00,5508.87              4188.00,5508.87 4181.00,5503.78 4181.00,5503.78              4181.00,5503.78 4164.00,5492.95 4164.00,5492.95              4158.01,5490.42 4150.45,5490.93 4144.00,5491.00              4136.36,5491.09 4125.07,5493.81 4119.00,5498.53              4114.39,5502.12 4111.97,5506.59 4107.99,5508.69              4104.87,5510.33 4100.88,5509.88 4097.00,5510.93              4087.44,5513.50 4081.51,5516.98 4071.00,5517.00              4071.00,5517.00 4066.00,5517.00 4066.00,5517.00              4056.84,5516.89 4058.13,5514.83 4043.00,5515.00              4029.01,5515.17 4032.49,5519.97 4019.00,5520.00              4019.00,5520.00 4005.00,5519.09 4005.00,5519.09              3995.99,5518.58 3991.97,5522.54 3987.00,5523.93              3987.00,5523.93 3968.00,5523.93 3968.00,5523.93              3968.00,5523.93 3959.00,5523.93 3959.00,5523.93              3954.01,5523.62 3951.73,5521.82 3945.00,5522.04              3935.86,5522.35 3938.42,5525.21 3920.00,5525.00              3920.00,5525.00 3906.00,5524.04 3906.00,5524.04              3906.00,5524.04 3888.00,5525.24 3888.00,5525.24              3888.00,5525.24 3838.00,5525.24 3838.00,5525.24              3838.00,5525.24 3822.00,5526.00 3822.00,5526.00              3822.00,5526.00 3788.00,5527.00 3788.00,5527.00              3788.00,5527.00 3771.00,5526.04 3771.00,5526.04              3771.00,5526.04 3763.00,5527.04 3763.00,5527.04              3763.00,5527.04 3754.00,5527.04 3754.00,5527.04              3754.00,5527.04 3747.00,5527.92 3747.00,5527.92              3747.00,5527.92 3725.00,5525.04 3725.00,5525.04              3725.00,5525.04 3703.00,5526.92 3703.00,5526.92              3703.00,5526.92 3691.00,5526.00 3691.00,5526.00              3691.00,5526.00 3655.00,5525.00 3655.00,5525.00              3647.55,5525.09 3647.54,5526.24 3642.00,5526.91              3642.00,5526.91 3627.00,5526.91 3627.00,5526.91              3627.00,5526.91 3600.00,5528.66 3600.00,5528.66              3600.00,5528.66 3591.00,5528.00 3591.00,5528.00              3591.00,5528.00 3573.00,5529.00 3573.00,5529.00              3573.00,5529.00 3506.00,5530.00 3506.00,5530.00              3506.00,5530.00 3483.00,5528.09 3483.00,5528.09              3474.98,5527.54 3471.78,5528.82 3468.00,5528.82              3468.00,5528.82 3461.00,5528.05 3461.00,5528.05              3461.00,5528.05 3447.00,5528.05 3447.00,5528.05              3447.00,5528.05 3429.00,5530.04 3429.00,5530.04              3429.00,5530.04 3416.00,5530.04 3416.00,5530.04              3416.00,5530.04 3406.00,5531.00 3406.00,5531.00              3406.00,5531.00 3384.00,5530.00 3384.00,5530.00              3384.00,5530.00 3370.00,5529.02 3370.00,5529.02              3370.00,5529.02 3354.00,5531.00 3354.00,5531.00              3354.00,5531.00 3323.00,5531.00 3323.00,5531.00              3314.00,5530.88 3314.06,5528.12 3304.00,5528.00              3304.00,5528.00 3286.00,5529.00 3286.00,5529.00              3286.00,5529.00 3268.00,5529.00 3268.00,5529.00              3259.04,5529.01 3259.10,5530.12 3252.00,5530.91              3252.00,5530.91 3236.00,5530.91 3236.00,5530.91              3227.48,5530.88 3225.58,5527.97 3218.00,5527.17              3218.00,5527.17 3203.00,5528.00 3203.00,5528.00              3203.00,5528.00 3189.00,5528.00 3189.00,5528.00              3189.00,5528.00 3175.00,5527.18 3175.00,5527.18              3175.00,5527.18 3163.00,5527.18 3163.00,5527.18              3163.00,5527.18 3152.00,5527.18 3152.00,5527.18              3152.00,5527.18 3137.00,5529.87 3137.00,5529.87              3137.00,5529.87 3122.00,5529.04 3122.00,5529.04              3117.88,5529.22 3116.68,5529.89 3113.00,5530.54              3113.00,5530.54 3096.00,5531.68 3096.00,5531.68              3096.00,5531.68 3080.00,5530.00 3080.00,5530.00              3080.00,5530.00 3024.00,5530.00 3024.00,5530.00              3024.00,5530.00 3012.00,5530.95 3012.00,5530.95              3012.00,5530.95 2999.00,5530.95 2999.00,5530.95              2999.00,5530.95 2985.00,5530.04 2985.00,5530.04              2985.00,5530.04 2975.00,5530.97 2975.00,5530.97              2975.00,5530.97 2966.00,5530.04 2966.00,5530.04              2966.00,5530.04 2954.00,5530.04 2954.00,5530.04              2954.00,5530.04 2935.00,5528.01 2935.00,5528.01              2935.00,5528.01 2908.00,5531.00 2908.00,5531.00              2908.00,5531.00 2895.00,5530.04 2895.00,5530.04              2895.00,5530.04 2871.00,5532.00 2871.00,5532.00              2871.00,5532.00 2857.00,5531.04 2857.00,5531.04              2857.00,5531.04 2841.00,5531.04 2841.00,5531.04              2841.00,5531.04 2833.00,5531.96 2833.00,5531.96              2833.00,5531.96 2816.00,5531.05 2816.00,5531.05              2816.00,5531.05 2801.00,5531.05 2801.00,5531.05              2801.00,5531.05 2789.00,5532.00 2789.00,5532.00              2789.00,5532.00 2743.00,5532.00 2743.00,5532.00              2743.00,5532.00 2731.00,5532.97 2731.00,5532.97              2731.00,5532.97 2714.00,5532.97 2714.00,5532.97              2714.00,5532.97 2698.00,5532.97 2698.00,5532.97              2698.00,5532.97 2679.00,5532.00 2679.00,5532.00              2679.00,5532.00 2669.00,5532.95 2669.00,5532.95              2669.00,5532.95 2655.00,5532.95 2655.00,5532.95              2655.00,5532.95 2640.00,5532.00 2640.00,5532.00              2640.00,5532.00 2626.00,5532.00 2626.00,5532.00              2626.00,5532.00 2611.00,5533.12 2611.00,5533.12              2611.00,5533.12 2568.00,5533.12 2568.00,5533.12              2568.00,5533.12 2532.00,5533.12 2532.00,5533.12              2532.00,5533.12 2522.00,5533.12 2522.00,5533.12              2522.00,5533.12 2515.00,5533.12 2515.00,5533.12              2515.00,5533.12 2503.00,5534.00 2503.00,5534.00              2503.00,5534.00 2354.00,5534.00 2354.00,5534.00              2354.00,5534.00 2339.00,5535.00 2339.00,5535.00              2339.00,5535.00 2280.00,5535.00 2280.00,5535.00              2269.49,5534.86 2273.59,5531.79 2255.00,5532.00              2255.00,5532.00 2230.00,5535.00 2230.00,5535.00              2230.00,5535.00 2223.00,5535.00 2223.00,5535.00              2223.00,5535.00 2208.00,5536.00 2208.00,5536.00              2208.00,5536.00 2152.00,5536.00 2152.00,5536.00              2152.00,5536.00 2139.00,5536.91 2139.00,5536.91              2132.76,5536.52 2133.17,5534.90 2123.00,5535.00              2113.94,5535.10 2115.09,5537.18 2100.00,5537.00              2090.40,5536.88 2089.38,5533.76 2078.00,5534.01              2078.00,5534.01 2065.00,5535.83 2065.00,5535.83              2065.00,5535.83 2042.00,5537.00 2042.00,5537.00              2042.00,5537.00 2025.00,5538.00 2025.00,5538.00              2025.00,5538.00 1965.00,5538.00 1965.00,5538.00              1965.00,5538.00 1944.00,5536.01 1944.00,5536.01              1944.00,5536.01 1930.00,5537.00 1930.00,5537.00              1930.00,5537.00 1877.00,5538.00 1877.00,5538.00              1877.00,5538.00 1859.00,5539.00 1859.00,5539.00              1859.00,5539.00 1849.00,5538.04 1849.00,5538.04              1849.00,5538.04 1837.00,5538.04 1837.00,5538.04              1837.00,5538.04 1822.00,5537.00 1822.00,5537.00              1822.00,5537.00 1784.00,5537.00 1784.00,5537.00              1784.00,5537.00 1771.00,5536.04 1771.00,5536.04              1764.85,5536.25 1763.97,5537.96 1755.00,5538.27              1755.00,5538.27 1732.00,5538.27 1732.00,5538.27              1732.00,5538.27 1725.00,5538.27 1725.00,5538.27              1725.00,5538.27 1717.00,5538.27 1717.00,5538.27              1717.00,5538.27 1702.00,5535.46 1702.00,5535.46              1702.00,5535.46 1691.00,5534.83 1691.00,5534.83              1686.07,5534.30 1683.73,5532.74 1678.00,5533.09              1671.36,5533.50 1665.42,5537.03 1660.00,5537.94              1660.00,5537.94 1651.00,5537.94 1651.00,5537.94              1651.00,5537.94 1609.00,5540.00 1609.00,5540.00              1609.00,5540.00 1597.00,5539.07 1597.00,5539.07              1594.05,5539.02 1590.82,5539.77 1588.00,5539.07              1582.29,5537.79 1579.29,5532.54 1567.00,5533.04              1558.33,5533.39 1553.27,5537.24 1547.00,5537.95              1547.00,5537.95 1502.00,5537.95 1502.00,5537.95              1486.97,5537.82 1480.31,5533.24 1471.00,5533.01              1471.00,5533.01 1448.00,5534.30 1448.00,5534.30              1448.00,5534.30 1439.00,5536.18 1439.00,5536.18              1439.00,5536.18 1428.00,5536.18 1428.00,5536.18              1428.00,5536.18 1412.00,5536.18 1412.00,5536.18              1412.00,5536.18 1400.00,5537.00 1400.00,5537.00              1400.00,5537.00 1377.00,5537.00 1377.00,5537.00              1377.00,5537.00 1356.00,5538.96 1356.00,5538.96              1356.00,5538.96 1341.00,5538.96 1341.00,5538.96              1341.00,5538.96 1333.00,5538.04 1333.00,5538.04              1333.00,5538.04 1317.00,5539.00 1317.00,5539.00              1317.00,5539.00 1296.00,5538.13 1296.00,5538.13              1296.00,5538.13 1282.00,5538.13 1282.00,5538.13              1282.00,5538.13 1265.00,5537.00 1265.00,5537.00              1265.00,5537.00 1254.00,5537.96 1254.00,5537.96              1254.00,5537.96 1241.00,5537.96 1241.00,5537.96              1241.00,5537.96 1218.00,5536.03 1218.00,5536.03              1218.00,5536.03 1209.00,5536.96 1209.00,5536.96              1209.00,5536.96 1199.00,5536.96 1199.00,5536.96              1199.00,5536.96 1190.00,5537.66 1190.00,5537.66              1190.00,5537.66 1183.00,5537.02 1183.00,5537.02              1183.00,5537.02 1171.00,5537.02 1171.00,5537.02              1171.00,5537.02 1159.00,5537.95 1159.00,5537.95              1159.00,5537.95 1142.00,5537.95 1142.00,5537.95              1142.00,5537.95 1129.00,5537.11 1129.00,5537.11              1129.00,5537.11 1110.00,5537.11 1110.00,5537.11              1110.00,5537.11 1083.00,5534.03 1083.00,5534.03              1083.00,5534.03 1054.00,5537.43 1054.00,5537.43              1054.00,5537.43 1032.00,5534.04 1032.00,5534.04              1032.00,5534.04 998.00,5537.49 998.00,5537.49              993.73,5537.74 991.97,5536.60 988.00,5536.09              988.00,5536.09 978.00,5536.09 978.00,5536.09              969.97,5536.10 967.44,5538.19 958.00,5536.79              952.85,5536.03 949.00,5533.03 941.00,5533.03              932.74,5533.03 929.97,5536.06 925.00,5536.79              925.00,5536.79 911.00,5536.09 911.00,5536.09              911.00,5536.09 891.00,5538.00 891.00,5538.00              891.00,5538.00 869.00,5538.00 869.00,5538.00              869.00,5538.00 855.00,5537.00 855.00,5537.00              855.00,5537.00 837.00,5537.00 837.00,5537.00              837.00,5537.00 825.00,5537.87 825.00,5537.87              825.00,5537.87 810.00,5535.04 810.00,5535.04              810.00,5535.04 794.00,5536.90 794.00,5536.90              794.00,5536.90 781.00,5536.00 781.00,5536.00              781.00,5536.00 762.00,5535.04 762.00,5535.04              762.00,5535.04 745.00,5537.00 745.00,5537.00              745.00,5537.00 712.00,5534.00 712.00,5534.00              712.00,5534.00 693.00,5535.96 693.00,5535.96              693.00,5535.96 685.00,5535.05 685.00,5535.05              685.00,5535.05 670.00,5535.05 670.00,5535.05              661.90,5535.10 659.79,5537.10 656.00,5537.16              656.00,5537.16 641.00,5535.17 641.00,5535.17              641.00,5535.17 622.00,5534.00 622.00,5534.00              622.00,5534.00 603.00,5534.00 603.00,5534.00              603.00,5534.00 590.00,5534.82 590.00,5534.82              586.51,5534.57 584.99,5533.87 581.00,5534.09              581.00,5534.09 565.00,5535.46 565.00,5535.46              565.00,5535.46 556.00,5537.51 556.00,5537.51              556.00,5537.51 532.00,5537.00 532.00,5537.00              532.00,5537.00 516.00,5538.00 516.00,5538.00              506.74,5537.89 508.13,5535.87 496.00,5536.00              496.00,5536.00 486.00,5536.96 486.00,5536.96              486.00,5536.96 474.00,5536.96 474.00,5536.96              474.00,5536.96 459.00,5536.00 459.00,5536.00              459.00,5536.00 430.00,5535.00 430.00,5535.00              417.99,5534.98 415.07,5530.92 403.00,5530.09              398.52,5529.78 393.30,5529.88 389.00,5531.22              385.75,5532.23 382.19,5534.44 379.00,5534.75              373.74,5535.25 370.82,5531.57 363.00,5531.09              354.12,5530.55 348.76,5535.27 342.00,5534.86              336.91,5534.55 335.19,5531.63 329.00,5529.93              329.00,5529.93 308.00,5527.35 308.00,5527.35              302.45,5525.61 300.64,5521.21 291.00,5517.00              286.99,5515.26 283.41,5513.65 279.00,5513.17              276.23,5512.87 271.35,5513.30 269.09,5512.40              265.39,5510.94 254.59,5498.61 250.96,5495.29              248.88,5493.38 242.11,5488.26 240.99,5486.49              240.99,5486.49 238.62,5476.00 238.62,5476.00              238.62,5476.00 235.63,5467.00 235.63,5467.00              235.63,5467.00 234.53,5460.00 234.53,5460.00              234.53,5460.00 232.37,5452.00 232.37,5452.00              231.04,5445.21 232.37,5442.87 227.89,5436.00              227.89,5436.00 221.63,5428.00 221.63,5428.00              221.63,5428.00 217.21,5421.00 217.21,5421.00              214.10,5416.66 205.36,5408.86 201.00,5405.53              192.47,5399.01 186.06,5402.22 180.29,5391.00              176.51,5383.66 179.54,5377.66 176.07,5369.00              172.15,5359.20 166.20,5357.28 163.45,5349.00              161.23,5342.78 165.35,5339.63 163.45,5330.00              162.44,5324.22 160.31,5322.52 159.23,5318.00              159.23,5318.00 156.94,5307.00 156.94,5307.00              156.94,5307.00 156.94,5299.00 156.94,5299.00              155.75,5292.57 153.73,5292.00 154.04,5284.00              154.04,5284.00 154.73,5275.00 154.73,5275.00              155.17,5269.56 153.17,5262.65 154.73,5258.00              156.53,5250.96 162.83,5249.24 163.00,5235.00              163.06,5229.41 163.05,5225.22 160.60,5220.00              158.78,5216.11 154.03,5209.58 153.14,5206.00              152.10,5201.83 154.30,5199.37 153.91,5193.00              153.20,5181.51 146.31,5179.19 144.70,5170.00              144.70,5170.00 144.70,5154.00 144.70,5154.00              144.70,5154.00 139.46,5127.00 139.46,5127.00              139.46,5127.00 138.54,5118.00 138.54,5118.00              138.54,5118.00 135.42,5105.00 135.42,5105.00              135.42,5105.00 132.54,5090.00 132.54,5090.00              131.11,5082.87 127.20,5077.49 124.81,5071.00              123.75,5068.11 121.52,5053.19 121.45,5050.00              121.24,5040.04 129.14,5038.34 129.84,5026.00              129.84,5026.00 129.84,5017.00 129.84,5017.00              130.55,5012.04 133.24,5010.19 132.99,4999.00              132.99,4999.00 131.00,4983.00 131.00,4983.00              130.96,4979.05 130.80,4974.80 131.99,4971.00              133.57,4965.91 136.35,4963.70 136.91,4956.00              136.91,4956.00 135.32,4931.00 135.32,4931.00              135.32,4931.00 131.47,4919.00 131.47,4919.00              131.47,4919.00 130.32,4905.00 130.32,4905.00              127.11,4891.10 113.12,4886.42 106.34,4875.00              103.14,4869.60 103.93,4862.15 104.00,4856.00              104.05,4852.01 105.26,4840.42 107.30,4837.30              109.37,4834.14 113.26,4834.61 118.96,4829.67              123.06,4826.12 133.89,4811.10 136.05,4806.00              137.28,4803.09 137.82,4800.15 137.96,4797.00              138.34,4788.36 136.58,4782.58 130.82,4776.00              127.90,4772.67 121.24,4767.16 119.65,4763.91              119.65,4763.91 114.78,4747.00 114.78,4747.00              114.78,4747.00 108.60,4730.00 108.60,4730.00              108.60,4730.00 105.55,4708.00 105.55,4708.00              105.55,4708.00 106.79,4694.00 106.79,4694.00              106.79,4694.00 106.79,4682.00 106.79,4682.00              106.79,4682.00 106.79,4675.00 106.79,4675.00              106.79,4675.00 106.79,4668.00 106.79,4668.00              106.79,4668.00 110.77,4655.00 110.77,4655.00              110.77,4655.00 110.77,4636.00 110.77,4636.00              110.77,4636.00 110.08,4623.00 110.08,4623.00              110.08,4623.00 111.00,4608.00 111.00,4608.00              111.04,4599.03 112.75,4598.15 112.96,4592.00              112.96,4592.00 111.58,4576.00 111.58,4576.00              111.68,4571.81 113.25,4570.06 112.96,4563.00              112.70,4556.46 110.54,4553.69 110.30,4550.00              110.01,4545.79 112.29,4542.65 111.91,4536.00              111.91,4536.00 109.54,4521.00 109.54,4521.00              109.11,4517.22 110.59,4514.18 109.54,4508.00              109.54,4508.00 105.94,4493.00 105.94,4493.00              105.94,4493.00 105.94,4469.00 105.94,4469.00              105.94,4469.00 105.94,4461.00 105.94,4461.00              106.17,4454.00 108.81,4453.58 109.00,4437.00              109.00,4437.00 111.96,4418.00 111.96,4418.00              111.96,4418.00 108.18,4387.00 108.18,4387.00              109.07,4375.25 115.42,4365.32 114.96,4354.00              114.57,4344.27 110.41,4341.97 109.34,4336.00              109.34,4336.00 109.96,4322.00 109.96,4322.00              109.96,4322.00 109.04,4314.00 109.04,4314.00              109.04,4314.00 109.04,4298.00 109.04,4298.00              109.08,4281.98 119.23,4277.22 119.00,4257.00              118.91,4249.56 117.76,4249.54 117.17,4244.00              116.47,4237.40 117.89,4234.06 115.46,4227.00              115.46,4227.00 106.69,4207.00 106.69,4207.00              105.98,4204.33 106.84,4200.88 106.69,4198.00              106.69,4198.00 106.69,4188.00 106.69,4188.00              106.69,4188.00 107.92,4180.00 107.92,4180.00              107.92,4180.00 107.92,4170.00 107.92,4170.00              107.92,4170.00 107.92,4163.00 107.92,4163.00              107.92,4163.00 112.92,4147.00 112.92,4147.00              116.72,4138.40 119.98,4140.11 120.00,4125.00              120.00,4125.00 120.00,4109.00 120.00,4109.00              120.04,4100.57 121.16,4101.24 121.91,4095.00              121.91,4095.00 121.91,4083.00 121.91,4083.00              121.99,4077.76 121.94,4073.88 119.60,4069.00              117.84,4065.32 113.68,4061.12 114.37,4057.00              115.12,4052.55 120.25,4049.96 123.60,4043.00              125.97,4038.06 127.12,4024.67 126.99,4019.00              126.90,4015.19 123.73,3997.61 122.45,3994.00              122.45,3994.00 116.70,3982.00 116.70,3982.00              115.18,3977.34 116.90,3971.67 115.07,3965.00              113.58,3959.55 111.09,3957.53 110.58,3954.00              110.14,3950.87 112.17,3944.46 112.71,3941.00              114.48,3929.52 115.13,3924.69 115.00,3913.00              115.00,3913.00 112.09,3891.00 112.09,3891.00              111.26,3876.37 119.41,3874.75 118.99,3857.00              118.99,3857.00 117.00,3836.00 117.00,3836.00              117.00,3836.00 117.83,3813.00 117.83,3813.00              117.83,3813.00 113.46,3790.00 113.46,3790.00              113.72,3778.69 119.86,3768.24 120.00,3757.00              120.05,3752.18 120.32,3745.55 119.07,3741.00              117.55,3735.45 114.99,3733.55 114.07,3729.00              114.07,3729.00 114.07,3719.00 114.07,3719.00              114.07,3719.00 111.33,3702.00 111.33,3702.00              109.60,3693.93 106.63,3691.59 106.48,3688.00              106.34,3684.56 110.16,3678.67 111.45,3675.00              113.38,3669.54 113.06,3663.70 113.00,3658.00              112.89,3648.80 110.31,3646.84 110.19,3642.00              110.19,3642.00 111.96,3624.00 111.96,3624.00              111.67,3616.83 109.18,3614.47 108.75,3608.00              108.75,3608.00 108.75,3592.00 108.75,3592.00              108.75,3592.00 108.75,3584.00 108.75,3584.00              108.75,3584.00 106.41,3572.00 106.41,3572.00              106.41,3568.37 108.80,3565.81 108.99,3558.00              109.22,3548.41 107.53,3545.70 107.46,3541.00              107.39,3536.57 109.27,3534.55 108.96,3527.00              108.96,3527.00 107.47,3517.00 107.47,3517.00              107.47,3517.00 108.25,3508.00 108.25,3508.00              108.03,3504.97 107.76,3499.73 108.25,3497.00              109.57,3492.99 113.45,3488.76 112.91,3480.00              112.54,3474.12 110.32,3471.04 109.93,3468.00              109.93,3468.00 110.96,3454.00 110.96,3454.00              110.96,3454.00 110.96,3442.00 110.96,3442.00              110.65,3438.16 109.84,3436.23 110.09,3432.00              110.48,3425.36 113.79,3420.17 115.83,3414.00              115.83,3414.00 119.16,3402.00 119.16,3402.00              121.39,3397.40 126.79,3393.73 127.83,3384.00              129.17,3371.42 122.72,3366.63 120.39,3361.00              119.40,3358.61 117.60,3346.56 117.84,3344.00              118.41,3337.81 119.57,3334.83 118.83,3328.00              118.26,3322.80 116.07,3320.13 116.71,3315.00              116.71,3315.00 116.71,3307.00 116.71,3307.00              116.61,3298.35 112.89,3294.98 112.59,3291.00              112.29,3286.95 115.33,3284.39 114.96,3275.00              114.72,3268.89 113.59,3266.22 114.09,3259.00              114.09,3259.00 116.74,3232.00 116.74,3232.00              116.23,3217.80 122.66,3218.14 121.91,3206.00              121.37,3197.32 117.15,3194.33 116.71,3190.00              116.40,3186.88 118.25,3184.32 117.96,3177.00              117.96,3177.00 117.08,3168.00 117.08,3168.00              117.08,3163.63 118.42,3160.99 117.91,3154.00              117.91,3154.00 116.34,3144.00 116.34,3144.00              116.34,3144.00 117.91,3134.00 117.91,3134.00              117.91,3134.00 116.32,3115.00 116.32,3115.00              114.94,3108.97 112.65,3107.10 112.86,3100.00              113.01,3094.98 116.09,3093.10 118.52,3089.00              121.10,3084.66 122.13,3080.02 121.96,3075.00              121.78,3069.76 120.26,3065.28 117.21,3061.00              115.66,3058.83 112.40,3055.74 111.57,3053.72              110.86,3051.98 111.00,3048.91 111.00,3047.00              111.00,3047.00 111.00,3042.00 111.00,3042.00              111.00,3042.00 111.96,3032.00 111.96,3032.00              111.96,3032.00 111.96,3021.00 111.96,3021.00              111.96,3021.00 108.00,2991.00 108.00,2991.00              108.00,2991.00 108.00,2964.00 108.00,2964.00              108.00,2964.00 110.37,2941.00 110.37,2941.00              111.27,2936.32 112.71,2935.13 112.96,2929.00              112.96,2929.00 111.92,2915.00 111.92,2915.00              112.59,2910.63 116.38,2907.44 115.96,2897.00              115.96,2897.00 114.34,2886.00 114.34,2886.00              114.34,2882.06 116.26,2879.25 115.91,2873.00              115.58,2867.23 114.61,2864.58 115.09,2858.00              115.81,2848.16 119.52,2838.00 118.91,2828.00              118.91,2828.00 117.21,2818.00 117.21,2818.00              117.21,2818.00 118.00,2806.00 118.00,2806.00              118.00,2806.00 118.00,2780.00 118.00,2780.00              118.00,2780.00 114.34,2745.00 114.34,2745.00              114.34,2745.00 117.70,2725.00 117.70,2725.00              117.70,2725.00 118.32,2716.00 118.32,2716.00              119.90,2706.37 121.14,2709.38 121.00,2697.00              120.90,2688.66 119.43,2688.58 118.88,2684.00              118.88,2684.00 118.32,2667.00 118.32,2667.00              118.32,2667.00 118.97,2660.00 118.97,2660.00              118.97,2660.00 118.04,2651.00 118.04,2651.00              118.04,2651.00 118.04,2640.00 118.04,2640.00              118.04,2640.00 117.04,2628.00 117.04,2628.00              117.04,2628.00 118.96,2609.00 118.96,2609.00              119.16,2602.77 117.68,2600.89 117.39,2597.00              117.39,2597.00 118.00,2587.00 118.00,2587.00              118.00,2587.00 117.31,2560.00 117.31,2560.00              118.71,2554.08 126.69,2549.74 125.91,2537.00              125.91,2537.00 124.46,2527.00 124.46,2527.00              124.46,2527.00 126.83,2508.00 126.83,2508.00              126.83,2508.00 129.09,2478.00 129.09,2478.00              129.48,2472.65 131.27,2469.91 130.91,2464.00              130.25,2453.39 123.11,2448.75 120.61,2439.00              118.52,2430.87 122.34,2425.70 121.91,2418.00              121.91,2418.00 120.58,2402.00 120.58,2402.00              121.27,2397.36 126.54,2393.27 125.91,2383.00              125.59,2377.85 122.63,2371.45 123.59,2367.00              124.89,2360.96 131.62,2356.59 130.91,2345.00              130.58,2339.76 128.69,2335.14 125.47,2331.01              123.23,2328.14 120.46,2326.35 119.14,2322.91              118.30,2320.72 116.26,2313.17 116.48,2311.00              116.79,2307.84 119.33,2303.89 118.91,2297.00              118.54,2290.98 116.03,2287.29 115.80,2283.00              115.80,2283.00 115.80,2273.00 115.80,2273.00              115.80,2273.00 114.58,2263.00 114.58,2263.00              114.58,2263.00 115.96,2239.00 115.96,2239.00              115.96,2239.00 115.09,2226.00 115.09,2226.00              115.74,2214.55 120.50,2211.57 119.91,2202.00              119.31,2192.38 114.20,2188.97 113.30,2185.00              113.30,2185.00 115.09,2169.00 115.09,2169.00              115.09,2169.00 115.09,2158.00 115.09,2158.00              116.28,2148.83 118.03,2153.88 118.00,2137.00              118.00,2137.00 116.75,2116.00 116.75,2116.00              116.75,2116.00 119.00,2098.00 119.00,2098.00              119.00,2098.00 119.00,2084.00 119.00,2084.00              119.00,2084.00 120.98,2062.00 120.98,2062.00              120.98,2062.00 118.00,2037.00 118.00,2037.00              117.84,2022.66 119.46,2025.28 119.91,2018.00              120.31,2011.41 117.94,2008.29 118.21,2003.00              118.21,2003.00 121.97,1982.00 121.97,1982.00              121.97,1972.58 116.19,1961.00 116.26,1956.00              116.41,1944.90 119.16,1934.82 120.70,1924.00              120.70,1924.00 122.00,1902.00 122.00,1902.00              122.07,1888.25 127.02,1880.45 127.83,1873.00              128.41,1867.64 127.46,1864.86 127.21,1860.00              127.21,1860.00 128.56,1842.00 128.56,1842.00              128.56,1842.00 134.05,1832.00 134.05,1832.00              136.34,1826.60 135.53,1823.98 136.39,1820.00              137.21,1816.18 139.21,1813.74 139.83,1808.00              141.00,1797.03 136.02,1792.23 134.80,1788.00              133.27,1783.43 135.38,1780.89 134.80,1774.00              134.52,1768.23 132.19,1764.33 132.60,1761.00              133.04,1757.44 135.85,1755.25 137.32,1749.00              137.32,1749.00 139.38,1735.00 139.38,1735.00              140.30,1730.89 142.69,1727.07 143.70,1720.00              143.70,1720.00 144.46,1708.00 144.46,1708.00              145.84,1700.36 149.08,1697.01 149.83,1690.00              151.09,1678.22 145.61,1676.74 146.04,1666.00              146.04,1666.00 148.00,1651.00 148.00,1651.00              148.00,1651.00 146.84,1636.00 146.84,1636.00              147.25,1631.56 148.28,1630.40 147.91,1625.00              147.91,1625.00 146.06,1616.00 146.06,1616.00              146.06,1616.00 146.06,1608.00 146.06,1608.00              145.07,1600.98 144.02,1602.93 144.09,1593.00              144.09,1593.00 144.09,1580.00 144.09,1580.00              144.78,1574.34 146.25,1573.22 145.96,1566.00              145.62,1557.67 140.05,1548.42 138.38,1540.00              137.22,1534.20 138.59,1528.70 138.91,1523.00              139.10,1519.66 136.80,1506.33 135.78,1503.00              134.64,1499.29 132.61,1496.00 132.60,1492.00              132.59,1488.74 136.98,1476.16 136.97,1466.00              136.97,1457.65 133.82,1454.73 133.22,1450.00              133.22,1450.00 134.08,1438.00 134.08,1438.00              134.08,1438.00 134.08,1420.00 134.08,1420.00              134.67,1415.37 135.97,1413.48 135.97,1408.00              135.97,1408.00 134.38,1396.00 134.38,1396.00              134.51,1391.95 137.36,1388.37 136.91,1381.00              136.59,1375.90 134.81,1372.90 134.46,1370.00              133.92,1365.54 136.35,1362.02 135.96,1353.00              135.65,1345.76 133.27,1343.29 132.90,1339.00              132.90,1339.00 132.90,1327.00 132.90,1327.00              132.90,1327.00 131.00,1306.00 131.00,1306.00              131.00,1306.00 130.25,1285.00 130.25,1285.00              130.87,1279.15 133.94,1278.85 134.00,1267.00              134.00,1267.00 134.00,1261.00 134.00,1261.00              134.00,1261.00 132.34,1248.00 132.34,1248.00              132.31,1242.96 134.97,1237.96 135.70,1233.00              136.51,1227.52 135.48,1219.77 135.70,1218.00              136.31,1213.16 141.54,1209.28 140.91,1199.00              140.60,1193.97 139.14,1191.97 138.37,1188.00              138.37,1188.00 135.42,1171.00 135.42,1171.00              135.46,1166.68 139.41,1162.86 138.91,1154.00              138.91,1154.00 137.53,1140.00 137.53,1140.00              137.53,1140.00 135.55,1132.00 135.55,1132.00              135.19,1127.81 137.86,1124.13 136.70,1116.00              136.70,1116.00 132.14,1096.00 132.14,1096.00              132.14,1096.00 133.99,1081.00 133.99,1081.00              133.99,1081.00 133.18,1071.00 133.18,1071.00              133.18,1071.00 133.91,1061.00 133.91,1061.00              133.68,1056.97 132.70,1054.53 133.10,1050.00              133.55,1044.92 135.74,1042.62 135.96,1036.00              136.16,1029.83 134.67,1027.85 134.39,1024.00              134.39,1024.00 134.91,1013.00 134.91,1013.00              134.91,1013.00 133.29,1003.00 133.29,1003.00              133.29,1003.00 132.73,989.00 132.73,989.00              132.73,989.00 132.73,984.00 132.73,984.00              132.73,984.00 132.73,974.00 132.73,974.00              132.73,974.00 132.73,955.00 132.73,955.00              133.71,950.01 135.24,947.88 134.91,942.00              134.91,942.00 134.00,932.00 134.00,932.00              133.82,915.91 138.97,919.46 138.97,907.00              138.97,899.13 133.34,886.19 134.09,874.00              134.51,867.18 136.71,865.89 135.91,855.00              135.39,847.88 132.26,843.22 132.59,834.00              132.59,834.00 134.17,809.00 134.17,809.00              134.76,803.15 136.23,800.76 135.96,794.00              135.70,787.53 133.85,785.50 133.21,781.00              133.21,781.00 131.75,764.00 131.75,764.00              131.75,764.00 132.96,755.00 132.96,755.00              133.28,747.10 131.64,746.48 130.37,740.00              129.56,735.87 130.29,734.15 128.45,729.00              128.45,729.00 123.40,718.00 123.40,718.00              120.59,707.53 120.88,696.75 121.00,686.00              121.00,686.00 122.00,670.00 122.00,670.00              122.00,670.00 121.32,659.00 121.32,659.00              121.64,654.72 122.25,652.67 121.91,648.00              121.91,648.00 120.08,638.00 120.08,638.00              120.08,638.00 120.08,628.00 120.08,628.00              120.08,628.00 118.08,613.00 118.08,613.00              118.08,613.00 118.08,601.00 118.08,601.00              117.89,591.82 114.15,585.95 112.46,577.00              112.46,577.00 109.20,554.00 109.20,554.00              107.55,545.50 105.04,539.89 105.00,531.00              105.00,531.00 105.00,517.00 105.00,517.00              104.88,507.08 102.95,507.62 100.79,500.00              100.79,500.00 99.33,491.00 99.33,491.00              99.33,491.00 95.90,479.00 95.90,479.00              94.22,471.98 95.92,471.32 93.57,463.00              93.57,463.00 86.38,442.00 86.38,442.00              86.38,442.00 82.49,433.00 82.49,433.00              81.35,428.76 82.86,424.53 80.78,418.00              77.60,408.04 73.02,406.59 73.00,393.00              73.00,393.00 70.92,363.00 70.92,363.00              70.92,363.00 70.92,353.00 70.92,353.00              70.92,353.00 68.18,334.00 68.18,334.00              68.18,334.00 69.00,321.00 69.00,321.00              68.88,311.16 65.65,308.41 65.81,303.00              65.81,303.00 70.08,285.00 70.08,285.00              70.08,285.00 71.68,272.00 71.68,272.00              74.15,261.23 75.97,266.68 76.00,250.00              76.00,250.00 77.59,228.00 77.59,228.00              77.59,228.00 87.39,213.28 87.39,213.28              87.39,213.28 93.54,206.99 93.54,206.99              101.07,198.01 107.14,187.35 117.00,180.51              120.87,177.82 123.18,178.45 129.00,174.93              133.70,172.09 140.78,166.17 145.00,164.56              145.00,164.56 165.00,159.45 165.00,159.45              168.84,158.07 181.92,151.21 185.00,148.67              185.00,148.67 195.17,139.01 195.17,139.01              197.43,138.03 202.04,139.09 205.00,139.01              213.80,138.36 220.35,133.08 226.00,132.21              226.00,132.21 242.00,130.18 242.00,130.18              252.40,130.13 257.97,133.43 268.00,126.21              272.81,122.75 276.47,117.57 278.45,112.00              280.43,106.45 279.16,103.97 283.23,99.00              285.19,96.61 290.34,91.40 293.00,90.01              294.71,89.11 307.49,86.41 314.00,82.52              322.49,77.45 322.92,72.16 328.09,70.14              337.23,66.58 340.11,67.83 348.00,66.70              348.00,66.70 357.00,65.00 357.00,65.00              357.00,65.00 366.00,65.00 366.00,65.00              366.00,65.00 386.00,62.71 386.00,62.71              386.00,62.71 393.00,61.39 393.00,61.39              393.00,61.39 404.00,61.98 404.00,61.98              412.73,61.81 419.47,57.15 426.00,58.40              432.44,59.64 436.84,64.53 442.00,67.89              447.00,71.16 454.00,73.28 460.00,72.91              469.11,72.35 476.13,65.78 484.00,65.11              492.53,64.38 497.82,69.13 505.00,71.07              508.77,72.09 510.54,71.79 514.00,72.30              514.00,72.30 530.00,75.96 530.00,75.96              534.08,77.47 537.25,80.11 541.00,82.09              543.91,83.63 547.26,84.27 549.82,86.43              549.82,86.43 557.09,94.82 557.09,94.82              562.69,100.15 568.45,101.91 576.00,102.00              593.04,102.20 590.15,99.91 603.00,92.21              603.00,92.21 614.00,86.21 614.00,86.21              621.51,80.85 619.73,79.82 630.00,75.43              630.00,75.43 642.00,70.56 642.00,70.56              642.00,70.56 650.00,66.60 650.00,66.60              650.00,66.60 658.00,63.68 658.00,63.68              669.59,58.30 668.72,57.69 682.00,54.08              682.00,54.08 690.00,51.85 690.00,51.85              696.75,50.98 701.03,53.82 707.00,54.85              707.00,54.85 731.00,54.85 731.00,54.85              744.11,55.06 749.44,58.49 761.00,61.11              761.00,61.11 779.00,64.22 779.00,64.22              779.00,64.22 788.00,68.07 788.00,68.07              793.59,70.27 804.00,72.20 810.00,71.96              810.00,71.96 829.00,68.39 829.00,68.39              829.00,68.39 836.00,69.70 836.00,69.70              836.00,69.70 844.00,70.44 844.00,70.44              856.99,72.47 850.56,72.93 866.00,73.00              866.00,73.00 900.00,77.96 900.00,77.96              906.42,78.17 908.52,76.49 914.00,76.09              914.00,76.09 946.00,75.00 946.00,75.00              958.39,74.98 955.93,73.61 966.00,69.61              966.00,69.61 977.00,66.10 977.00,66.10              979.97,64.77 982.90,62.67 986.00,61.89              989.73,60.78 994.60,62.13 999.00,61.89              999.00,61.89 1008.00,61.14 1008.00,61.14              1008.00,61.14 1028.00,65.87 1028.00,65.87              1031.28,67.08 1033.94,69.45 1037.00,71.09              1037.00,71.09 1051.00,77.07 1051.00,77.07              1056.67,79.29 1062.21,79.45 1068.00,80.66              1068.00,80.66 1082.00,84.57 1082.00,84.57              1082.00,84.57 1092.00,86.92 1092.00,86.92              1103.19,90.07 1104.19,94.40 1118.00,96.56              1118.00,96.56 1141.00,97.83 1141.00,97.83              1141.00,97.83 1156.00,95.04 1156.00,95.04              1156.00,95.04 1165.00,95.04 1165.00,95.04              1165.00,95.04 1173.00,93.87 1173.00,93.87              1173.00,93.87 1182.00,93.87 1182.00,93.87              1187.81,92.84 1192.67,89.55 1198.00,89.61              1198.00,89.61 1210.00,90.30 1210.00,90.30              1210.00,90.30 1219.00,91.91 1219.00,91.91              1219.00,91.91 1232.00,93.11 1232.00,93.11              1232.00,93.11 1241.00,93.11 1241.00,93.11              1241.00,93.11 1253.00,95.83 1253.00,95.83              1253.00,95.83 1269.00,97.14 1269.00,97.14              1279.75,98.95 1279.47,102.20 1299.00,102.96              1299.00,102.96 1312.00,102.34 1312.00,102.34              1312.00,102.34 1349.00,113.33 1349.00,113.33              1349.00,113.33 1377.00,117.09 1377.00,117.09              1386.08,120.03 1387.24,124.57 1396.00,127.08              1399.13,127.97 1407.90,129.85 1411.00,129.79              1411.00,129.79 1421.00,129.79 1421.00,129.79              1424.21,130.13 1427.82,132.33 1431.00,133.45              1431.00,133.45 1445.00,136.79 1445.00,136.79              1445.00,136.79 1462.00,139.32 1462.00,139.32              1462.00,139.32 1473.00,141.83 1473.00,141.83              1473.00,141.83 1489.00,143.20 1489.00,143.20              1489.00,143.20 1502.00,147.62 1502.00,147.62              1508.78,149.36 1513.12,149.08 1520.00,149.00              1528.86,148.89 1529.70,147.07 1537.00,145.52              1537.00,145.52 1545.00,144.70 1545.00,144.70              1548.09,144.25 1556.93,141.59 1560.00,140.46              1560.00,140.46 1580.00,131.12 1580.00,131.12              1580.00,131.12 1588.00,126.26 1588.00,126.26              1591.34,124.71 1594.30,124.68 1599.00,122.10              1605.19,118.69 1605.94,116.08 1616.00,111.26              1624.78,107.06 1627.00,108.87 1635.00,106.25              1635.00,106.25 1649.00,99.96 1649.00,99.96              1649.00,99.96 1658.00,98.07 1658.00,98.07              1658.00,98.07 1667.00,94.63 1667.00,94.63              1667.00,94.63 1676.00,93.07 1676.00,93.07              1682.50,91.29 1686.52,87.11 1692.00,85.13              1696.33,83.56 1701.43,84.05 1706.00,84.00              1715.72,83.88 1721.90,79.19 1738.00,79.00              1750.11,78.87 1753.19,82.17 1764.00,82.91              1774.41,83.62 1776.48,80.61 1783.00,81.30              1783.00,81.30 1809.00,87.85 1809.00,87.85              1809.00,87.85 1823.00,90.63 1823.00,90.63              1823.00,90.63 1830.00,93.45 1830.00,93.45              1830.00,93.45 1852.00,99.13 1852.00,99.13              1861.50,101.07 1865.60,99.10 1874.00,99.13              1874.00,99.13 1886.00,99.13 1886.00,99.13              1893.59,99.09 1895.51,100.76 1902.00,101.70              1902.00,101.70 1909.00,102.32 1909.00,102.32              1909.00,102.32 1927.00,105.63 1927.00,105.63              1935.57,108.00 1937.70,110.88 1948.00,111.00              1954.99,111.08 1968.51,109.80 1975.00,107.78              1975.00,107.78 1983.00,104.63 1983.00,104.63              1983.00,104.63 1994.00,102.25 1994.00,102.25              1994.00,102.25 2007.00,97.57 2007.00,97.57              2007.00,97.57 2021.00,95.08 2021.00,95.08              2030.65,92.58 2037.77,88.12 2048.00,88.00              2057.09,87.90 2067.09,87.56 2076.00,89.37              2082.78,90.75 2090.47,94.35 2097.00,96.77              2097.00,96.77 2113.00,101.87 2113.00,101.87              2113.00,101.87 2130.00,109.17 2130.00,109.17              2136.68,112.73 2137.54,115.04 2146.00,117.10              2158.47,120.13 2165.68,115.84 2171.00,115.22              2171.00,115.22 2190.00,116.00 2190.00,116.00              2201.30,115.86 2204.87,111.15 2213.00,111.61              2213.00,111.61 2234.00,115.70 2234.00,115.70              2234.00,115.70 2252.00,117.37 2252.00,117.37              2252.00,117.37 2264.00,120.70 2264.00,120.70              2264.00,120.70 2291.00,122.68 2291.00,122.68              2296.69,123.98 2301.28,127.46 2313.00,129.54              2313.00,129.54 2325.00,130.43 2325.00,130.43              2337.82,132.27 2340.25,134.16 2354.00,134.00              2354.00,134.00 2372.00,132.04 2372.00,132.04              2378.74,132.31 2378.59,133.98 2389.00,134.00              2389.00,134.00 2406.00,134.00 2406.00,134.00              2406.00,134.00 2431.00,136.00 2431.00,136.00              2431.00,136.00 2440.00,136.00 2440.00,136.00              2447.18,136.61 2445.63,138.13 2457.00,138.00              2467.22,137.88 2470.00,134.42 2476.00,134.34              2476.00,134.34 2487.00,135.94 2487.00,135.94              2487.00,135.94 2496.00,135.94 2496.00,135.94              2504.19,137.05 2501.87,138.13 2513.00,138.00              2513.00,138.00 2544.00,134.35 2544.00,134.35              2544.00,134.35 2562.00,137.96 2562.00,137.96              2562.00,137.96 2580.00,137.00 2580.00,137.00              2580.00,137.00 2593.00,138.04 2593.00,138.04              2593.00,138.04 2605.00,138.04 2605.00,138.04              2605.00,138.04 2620.00,139.00 2620.00,139.00              2620.00,139.00 2640.00,136.84 2640.00,136.84              2640.00,136.84 2663.00,136.84 2663.00,136.84              2663.00,136.84 2673.00,136.84 2673.00,136.84              2673.00,136.84 2688.00,138.00 2688.00,138.00              2688.00,138.00 2697.00,138.00 2697.00,138.00              2697.00,138.00 2711.00,139.00 2711.00,139.00              2711.00,139.00 2726.00,138.00 2726.00,138.00              2726.00,138.00 2759.00,137.00 2759.00,137.00              2759.00,137.00 2774.00,136.00 2774.00,136.00              2789.08,135.83 2787.14,139.31 2799.00,141.37              2805.42,142.73 2811.63,141.54 2818.00,141.37              2818.00,141.37 2830.00,141.96 2830.00,141.96              2830.00,141.96 2847.00,140.07 2847.00,140.07              2857.68,137.20 2858.96,134.02 2872.00,134.00              2872.00,134.00 2904.00,134.00 2904.00,134.00              2913.93,134.02 2911.99,135.08 2919.00,135.91              2919.00,135.91 2930.00,135.91 2930.00,135.91              2930.00,135.91 2952.00,133.17 2952.00,133.17              2958.36,132.56 2963.80,133.56 2970.00,133.91              2970.00,133.91 2981.00,133.08 2981.00,133.08              2981.00,133.08 2988.00,133.96 2988.00,133.96              2988.00,133.96 2996.00,133.96 2996.00,133.96              2996.00,133.96 3012.00,135.91 3012.00,135.91              3017.11,135.62 3018.81,134.64 3025.00,135.09              3025.00,135.09 3035.00,136.83 3035.00,136.83              3035.00,136.83 3054.00,138.09 3054.00,138.09              3054.00,138.09 3063.00,138.98 3063.00,138.98              3063.00,138.98 3090.00,137.00 3090.00,137.00              3090.00,137.00 3103.00,137.00 3103.00,137.00              3103.00,137.00 3119.00,135.85 3119.00,135.85              3119.00,135.85 3136.00,135.85 3136.00,135.85              3136.00,135.85 3148.00,132.78 3148.00,132.78              3148.00,132.78 3159.00,132.78 3159.00,132.78              3159.00,132.78 3178.00,132.78 3178.00,132.78              3183.87,132.24 3186.20,130.78 3193.00,131.04              3193.00,131.04 3204.00,132.00 3204.00,132.00              3204.00,132.00 3229.00,132.00 3229.00,132.00              3229.00,132.00 3243.00,131.04 3243.00,131.04              3247.69,131.23 3249.69,132.15 3254.00,133.49              3254.00,133.49 3265.00,136.81 3265.00,136.81              3276.47,141.17 3277.74,143.98 3291.00,144.00              3291.00,144.00 3311.00,144.00 3311.00,144.00              3324.15,143.84 3331.50,138.91 3342.00,137.77              3345.82,137.35 3350.16,139.24 3354.00,140.11              3359.01,141.26 3365.86,142.10 3371.00,141.99              3371.00,141.99 3383.00,140.19 3383.00,140.19              3383.00,140.19 3395.00,140.99 3395.00,140.99              3395.00,140.99 3404.00,140.34 3404.00,140.34              3408.97,140.40 3417.07,143.98 3429.00,144.00              3429.00,144.00 3462.00,143.00 3462.00,143.00              3462.00,143.00 3492.00,145.00 3492.00,145.00              3492.00,145.00 3508.00,144.18 3508.00,144.18              3514.24,144.78 3517.42,147.62 3525.00,147.96              3540.93,148.68 3538.29,144.02 3552.00,143.92              3552.00,143.92 3562.00,143.92 3562.00,143.92              3566.09,143.44 3567.44,142.86 3572.00,143.04              3572.00,143.04 3589.00,145.00 3589.00,145.00              3589.00,145.00 3614.00,145.00 3614.00,145.00              3614.00,145.00 3629.00,144.04 3629.00,144.04              3629.00,144.04 3648.00,146.92 3648.00,146.92              3648.00,146.92 3675.00,146.92 3675.00,146.92              3684.19,146.99 3683.21,146.02 3688.00,145.92              3688.00,145.92 3697.00,145.92 3697.00,145.92              3697.00,145.92 3715.00,145.92 3715.00,145.92              3715.00,145.92 3730.00,145.09 3730.00,145.09              3730.00,145.09 3745.00,146.00 3745.00,146.00              3745.00,146.00 3757.00,145.18 3757.00,145.18              3757.00,145.18 3778.00,146.00 3778.00,146.00              3778.00,146.00 3803.00,144.32 3803.00,144.32              3803.00,144.32 3832.00,146.96 3832.00,146.96              3832.00,146.96 3856.00,145.18 3856.00,145.18              3856.00,145.18 3867.00,146.00 3867.00,146.00              3867.00,146.00 3913.00,146.00 3913.00,146.00              3913.00,146.00 3935.00,147.00 3935.00,147.00              3935.00,147.00 3950.00,146.01 3950.00,146.01              3950.00,146.01 3967.00,147.00 3967.00,147.00              3967.00,147.00 3993.00,149.00 3993.00,149.00              3993.00,149.00 4012.00,149.00 4012.00,149.00              4012.00,149.00 4022.00,148.37 4022.00,148.37              4022.00,148.37 4040.00,150.92 4040.00,150.92              4040.00,150.92 4059.00,150.92 4059.00,150.92              4062.46,151.01 4071.98,151.40 4074.70,153.17              4078.01,155.33 4076.98,159.14 4080.48,165.00              4082.42,168.25 4084.41,170.23 4086.85,173.00              4094.54,181.74 4099.70,186.46 4112.00,185.96              4126.00,185.39 4129.61,178.03 4136.62,168.00              4136.62,168.00 4141.90,161.00 4141.90,161.00              4143.37,158.78 4145.83,153.25 4147.63,151.99              4149.17,150.92 4154.78,150.73 4157.00,150.42              4157.00,150.42 4171.00,148.34 4171.00,148.34              4171.00,148.34 4182.00,148.99 4182.00,148.99              4182.00,148.99 4192.00,148.08 4192.00,148.08              4192.00,148.08 4205.00,149.00 4205.00,149.00              4205.00,149.00 4209.00,149.00 4209.00,149.00              4215.80,149.08 4215.49,149.92 4221.00,150.70              4221.00,150.70 4243.00,151.96 4243.00,151.96              4243.00,151.96 4256.00,151.00 4256.00,151.00              4256.00,151.00 4270.00,151.00 4270.00,151.00              4270.00,151.00 4285.00,150.00 4285.00,150.00              4285.00,150.00 4290.00,150.00 4290.00,150.00              4290.00,150.00 4305.00,149.00 4305.00,149.00              4305.00,149.00 4309.00,149.00 4309.00,149.00              4309.00,149.00 4324.00,150.00 4324.00,150.00              4324.00,150.00 4343.00,150.00 4343.00,150.00              4343.00,150.00 4356.00,150.91 4356.00,150.91              4356.00,150.91 4376.00,149.00 4376.00,149.00              4376.00,149.00 4389.00,149.99 4389.00,149.99              4389.00,149.99 4404.00,149.00 4404.00,149.00              4404.00,149.00 4440.00,149.00 4440.00,149.00              4440.00,149.00 4454.00,150.00 4454.00,150.00              4454.00,150.00 4469.00,150.00 4469.00,150.00              4469.00,150.00 4485.00,151.00 4485.00,151.00              4485.00,151.00 4520.00,151.00 4520.00,151.00              4520.00,151.00 4531.00,150.47 4531.00,150.47              4531.00,150.47 4539.00,151.83 4539.00,151.83              4539.00,151.83 4570.00,153.00 4570.00,153.00              4570.00,153.00 4589.00,150.57 4589.00,150.57              4589.00,150.57 4606.00,152.04 4606.00,152.04              4606.00,152.04 4619.00,152.04 4619.00,152.04              4619.00,152.04 4631.00,153.00 4631.00,153.00              4631.00,153.00 4673.00,153.00 4673.00,153.00              4673.00,153.00 4695.00,150.08 4695.00,150.08              4695.00,150.08 4714.00,150.08 4714.00,150.08              4729.62,150.17 4729.08,148.11 4738.00,148.00              4738.00,148.00 4773.00,148.00 4773.00,148.00              4773.00,148.00 4809.00,150.00 4809.00,150.00              4809.00,150.00 4822.00,149.00 4822.00,149.00              4822.00,149.00 4847.00,149.00 4847.00,149.00              4847.00,149.00 4864.00,148.00 4864.00,148.00              4864.00,148.00 4882.00,149.92 4882.00,149.92              4882.00,149.92 4897.00,149.92 4897.00,149.92              4897.00,149.92 4910.00,151.00 4910.00,151.00              4910.00,151.00 4929.00,151.00 4929.00,151.00              4929.00,151.00 4944.00,149.84 4944.00,149.84              4944.00,149.84 4962.00,149.84 4962.00,149.84              4962.00,149.84 4974.00,149.84 4974.00,149.84              4974.00,149.84 4990.00,151.10 4990.00,151.10              4990.00,151.10 5002.00,151.10 5002.00,151.10              5010.11,152.34 5011.57,154.20 5021.00,153.99              5021.00,153.99 5038.00,152.04 5038.00,152.04              5044.50,151.76 5046.29,152.52 5052.00,152.95              5052.00,152.95 5066.00,152.95 5066.00,152.95              5066.00,152.95 5089.00,151.19 5089.00,151.19              5093.95,151.60 5094.70,152.91 5102.00,153.00              5102.00,153.00 5134.00,151.00 5134.00,151.00              5134.00,151.00 5165.00,152.96 5165.00,152.96              5165.00,152.96 5178.00,152.96 5178.00,152.96              5178.00,152.96 5190.00,152.01 5190.00,152.01              5190.00,152.01 5203.00,153.00 5203.00,153.00              5203.00,153.00 5217.00,152.00 5217.00,152.00              5217.00,152.00 5232.00,152.00 5232.00,152.00              5232.00,152.00 5249.00,150.60 5249.00,150.60              5249.00,150.60 5271.00,153.00 5271.00,153.00              5271.00,153.00 5286.00,153.00 5286.00,153.00              5286.00,153.00 5298.00,153.95 5298.00,153.95              5298.00,153.95 5316.00,153.95 5316.00,153.95              5316.00,153.95 5333.00,152.00 5333.00,152.00              5333.00,152.00 5360.00,152.00 5360.00,152.00              5360.00,152.00 5375.00,153.00 5375.00,153.00              5375.00,153.00 5395.00,152.00 5395.00,152.00              5395.00,152.00 5415.00,153.00 5415.00,153.00              5415.00,153.00 5434.00,153.00 5434.00,153.00              5441.32,152.91 5442.87,151.57 5448.00,151.18              5448.00,151.18 5462.00,152.00 5462.00,152.00              5462.00,152.00 5485.00,152.00 5485.00,152.00              5494.93,152.02 5492.99,153.08 5500.00,153.91              5500.00,153.91 5515.00,153.91 5515.00,153.91              5515.00,153.91 5530.00,153.00 5530.00,153.00              5530.00,153.00 5609.00,153.00 5609.00,153.00              5609.00,153.00 5619.00,152.34 5619.00,152.34              5619.00,152.34 5630.00,153.00 5630.00,153.00              5630.00,153.00 5653.00,153.00 5653.00,153.00              5653.00,153.00 5668.00,151.75 5668.00,151.75              5668.00,151.75 5675.00,152.96 5675.00,152.96              5675.00,152.96 5683.00,152.96 5683.00,152.96              5683.00,152.96 5695.00,154.00 5695.00,154.00              5695.00,154.00 5706.00,154.00 5706.00,154.00              5706.00,154.00 5729.00,156.00 5729.00,156.00              5729.00,156.00 5751.00,156.00 5751.00,156.00              5751.00,156.00 5763.00,154.90 5763.00,154.90              5763.00,154.90 5772.00,154.90 5772.00,154.90              5772.00,154.90 5779.00,154.90 5779.00,154.90              5779.00,154.90 5788.00,154.90 5788.00,154.90              5788.00,154.90 5808.00,154.90 5808.00,154.90              5808.00,154.90 5833.00,152.00 5833.00,152.00              5833.00,152.00 5891.00,152.00 5891.00,152.00              5891.00,152.00 5907.00,150.87 5907.00,150.87              5907.00,150.87 5934.00,150.87 5934.00,150.87              5934.00,150.87 5945.00,150.34 5945.00,150.34              5945.00,150.34 5952.00,150.98 5952.00,150.98              5952.00,150.98 5968.00,150.98 5968.00,150.98              5968.00,150.98 5987.00,152.38 5987.00,152.38              5994.06,153.78 5994.29,155.88 6004.00,156.00              6004.00,156.00 6038.00,154.00 6038.00,154.00              6038.00,154.00 6071.00,153.00 6071.00,153.00              6071.00,153.00 6100.00,151.00 6100.00,151.00              6100.00,151.00 6125.00,150.00 6125.00,150.00              6125.00,150.00 6162.00,153.00 6162.00,153.00              6162.00,153.00 6181.00,152.08 6181.00,152.08              6181.00,152.08 6200.00,152.08 6200.00,152.08              6207.31,152.88 6208.24,153.99 6217.00,154.00              6217.00,154.00 6257.00,154.00 6257.00,154.00              6257.00,154.00 6284.00,152.00 6284.00,152.00              6284.00,152.00 6304.00,151.00 6304.00,151.00              6304.00,151.00 6318.00,151.00 6318.00,151.00              6318.00,151.00 6345.00,149.09 6345.00,149.09              6351.97,149.52 6350.00,151.15 6363.00,151.00              6363.00,151.00 6375.00,150.18 6375.00,150.18              6375.00,150.18 6408.00,152.00 6408.00,152.00              6408.00,152.00 6422.00,151.04 6422.00,151.04              6422.00,151.04 6440.00,152.00 6440.00,152.00              6440.00,152.00 6453.00,151.09 6453.00,151.09              6453.00,151.09 6475.00,153.00 6475.00,153.00              6475.00,153.00 6493.00,155.00 6493.00,155.00              6493.00,155.00 6507.00,154.32 6507.00,154.32              6510.17,154.56 6511.41,155.11 6515.00,154.91              6515.00,154.91 6545.00,152.21 6545.00,152.21              6545.00,152.21 6559.00,152.91 6559.00,152.91              6559.00,152.91 6583.00,150.55 6583.00,150.55              6583.00,150.55 6591.00,151.96 6591.00,151.96              6591.00,151.96 6612.00,151.96 6612.00,151.96              6612.00,151.96 6629.00,153.00 6629.00,153.00              6629.00,153.00 6669.00,151.00 6669.00,151.00              6669.00,151.00 6679.00,151.96 6679.00,151.96              6679.00,151.96 6696.00,151.96 6696.00,151.96              6696.00,151.96 6708.00,151.04 6708.00,151.04              6708.00,151.04 6720.00,151.04 6720.00,151.04              6720.00,151.04 6733.00,150.09 6733.00,150.09              6733.00,150.09 6758.00,152.00 6758.00,152.00              6758.00,152.00 6776.00,151.00 6776.00,151.00              6776.00,151.00 6789.00,152.00 6789.00,152.00              6789.00,152.00 6811.00,152.00 6811.00,152.00              6811.00,152.00 6825.00,151.02 6825.00,151.02              6825.00,151.02 6838.00,152.00 6838.00,152.00              6838.00,152.00 6852.00,151.32 6852.00,151.32              6852.00,151.32 6864.00,152.00 6864.00,152.00              6864.00,152.00 6878.00,151.00 6878.00,151.00              6878.00,151.00 6903.00,151.00 6903.00,151.00              6903.00,151.00 6921.00,150.09 6921.00,150.09              6921.00,150.09 6947.00,153.00 6947.00,153.00              6947.00,153.00 7007.00,152.00 7007.00,152.00              7007.00,152.00 7024.00,151.00 7024.00,151.00              7024.00,151.00 7066.00,151.00 7066.00,151.00              7066.00,151.00 7079.00,151.96 7079.00,151.96              7079.00,151.96 7092.00,151.09 7092.00,151.09              7092.00,151.09 7102.00,152.00 7102.00,152.00              7102.00,152.00 7122.00,152.00 7122.00,152.00              7122.00,152.00 7139.00,153.00 7139.00,153.00              7139.00,153.00 7159.00,153.00 7159.00,153.00              7159.00,153.00 7172.00,151.34 7172.00,151.34              7172.00,151.34 7179.00,151.98 7179.00,151.98              7179.00,151.98 7198.00,151.98 7198.00,151.98              7198.00,151.98 7210.00,151.04 7210.00,151.04              7210.00,151.04 7221.00,151.04 7221.00,151.04              7221.00,151.04 7236.00,150.00 7236.00,150.00              7236.00,150.00 7262.00,150.00 7262.00,150.00              7262.00,150.00 7279.00,151.00 7279.00,151.00              7279.00,151.00 7348.00,151.00 7348.00,151.00              7348.00,151.00 7363.00,152.08 7363.00,152.08              7363.00,152.08 7378.00,152.08 7378.00,152.08              7383.54,152.76 7383.55,153.91 7391.00,154.00              7391.00,154.00 7406.00,154.00 7406.00,154.00              7406.00,154.00 7419.00,153.00 7419.00,153.00              7419.00,153.00 7442.00,153.00 7442.00,153.00              7442.00,153.00 7457.00,154.00 7457.00,154.00              7457.00,154.00 7478.00,153.00 7478.00,153.00              7478.00,153.00 7518.00,153.00 7518.00,153.00              7518.00,153.00 7535.00,152.00 7535.00,152.00              7535.00,152.00 7570.00,152.00 7570.00,152.00              7570.00,152.00 7586.00,150.92 7586.00,150.92              7586.00,150.92 7596.00,150.92 7596.00,150.92              7596.00,150.92 7615.00,148.72 7615.00,148.72              7615.00,148.72 7629.00,150.00 7629.00,150.00              7629.00,150.00 7661.00,150.00 7661.00,150.00              7661.00,150.00 7680.00,151.00 7680.00,151.00              7680.00,151.00 7695.00,150.00 7695.00,150.00              7695.00,150.00 7714.00,150.00 7714.00,150.00              7714.00,150.00 7727.00,150.99 7727.00,150.99              7727.00,150.99 7739.00,150.04 7739.00,150.04              7739.00,150.04 7756.00,150.04 7756.00,150.04              7756.00,150.04 7770.00,149.18 7770.00,149.18              7770.00,149.18 7781.00,149.82 7781.00,149.82              7781.00,149.82 7807.00,149.82 7807.00,149.82              7807.00,149.82 7830.00,152.00 7830.00,152.00              7830.00,152.00 7851.00,150.00 7851.00,150.00              7851.00,150.00 7880.00,150.00 7880.00,150.00              7892.45,150.02 7891.94,153.30 7905.00,152.99              7916.10,152.72 7914.13,149.02 7927.00,149.00              7927.00,149.00 7948.00,149.00 7948.00,149.00              7948.00,149.00 7965.00,149.99 7965.00,149.99              7965.00,149.99 7985.00,146.06 7985.00,146.06              7985.00,146.06 7993.00,146.06 7993.00,146.06              7999.33,145.14 8006.03,141.34 8011.00,137.47              8016.25,133.39 8020.13,128.32 8022.25,122.00              8023.30,118.89 8024.68,111.51 8028.21,110.44              8030.63,109.70 8035.50,113.06 8038.00,114.07              8044.87,116.85 8051.72,117.85 8059.00,118.96              8059.00,118.96 8071.00,118.96 8071.00,118.96              8071.00,118.96 8082.00,121.83 8082.00,121.83              8086.16,122.27 8090.67,121.00 8094.00,122.51              8094.00,122.51 8102.00,127.91 8102.00,127.91              8107.21,131.28 8112.53,134.47 8116.73,139.17              8120.37,143.25 8127.63,157.60 8130.37,163.00              8130.37,163.00 8136.16,173.00 8136.16,173.00              8136.16,173.00 8138.22,184.00 8138.22,184.00              8142.62,198.36 8149.93,220.24 8150.00,235.00              8150.05,246.31 8150.96,244.25 8151.92,253.00              8151.92,253.00 8151.92,265.00 8151.92,265.00              8151.92,265.00 8154.89,286.00 8154.89,286.00              8155.68,289.52 8157.76,296.62 8157.21,300.00              8156.54,304.09 8151.94,307.49 8150.30,319.00              8148.89,328.88 8152.59,331.76 8152.96,339.00              8153.75,354.66 8143.14,354.58 8144.09,370.00              8144.61,378.39 8147.67,380.46 8151.37,387.00              8153.72,391.16 8158.63,403.28 8159.21,408.00              8160.06,414.97 8157.23,418.47 8156.30,425.00              8155.61,429.80 8156.88,432.79 8155.59,437.00              8153.05,445.28 8149.41,448.11 8150.09,458.00              8150.51,464.19 8155.42,478.31 8158.27,484.00              8158.27,484.00 8163.51,494.00 8163.51,494.00              8166.91,504.95 8160.03,506.21 8160.03,518.00              8160.03,529.82 8165.85,530.75 8166.00,542.00              8166.00,542.00 8164.09,565.00 8164.09,565.00              8164.09,565.00 8166.72,580.00 8166.72,580.00              8166.76,583.88 8164.40,587.35 8163.22,591.00              8163.22,591.00 8156.94,613.90 8156.94,613.90              8154.24,619.21 8149.88,618.63 8144.33,625.04              8138.46,631.81 8139.23,636.21 8137.20,641.00              8134.44,647.51 8128.40,651.71 8129.09,663.00              8129.86,675.58 8139.31,688.59 8152.00,691.00              8154.59,699.85 8158.06,700.38 8161.47,707.00              8164.38,712.65 8163.49,714.55 8164.46,720.00              8165.31,724.78 8168.20,736.50 8167.40,741.00              8166.27,747.38 8156.99,750.80 8153.93,762.00              8150.99,772.74 8157.15,782.58 8156.49,793.00              8156.29,796.19 8155.97,803.32 8155.21,806.00              8152.98,813.90 8149.87,816.31 8151.30,826.00              8152.66,835.25 8158.45,840.04 8161.79,848.00              8163.37,851.78 8162.81,854.10 8163.28,858.00              8163.28,858.00 8165.83,873.00 8165.83,873.00              8166.83,882.89 8159.44,892.33 8160.09,903.00              8160.40,908.03 8161.86,910.03 8162.63,914.00              8162.63,914.00 8163.46,922.00 8163.46,922.00              8163.46,922.00 8165.82,932.00 8165.82,932.00              8165.82,932.00 8166.61,948.00 8166.61,948.00              8166.61,948.00 8165.17,956.00 8165.17,956.00              8165.17,956.00 8164.00,979.00 8164.00,979.00              8164.11,987.81 8168.55,996.10 8167.81,1005.00              8167.81,1005.00 8166.04,1016.00 8166.04,1016.00              8166.04,1016.00 8166.68,1028.00 8166.68,1028.00              8165.61,1042.20 8162.65,1046.78 8155.66,1059.00              8151.78,1065.79 8148.09,1068.43 8147.17,1077.00              8145.91,1088.82 8151.52,1093.45 8153.78,1099.00              8153.78,1099.00 8158.74,1118.00 8158.74,1118.00              8160.26,1122.46 8163.08,1126.38 8164.03,1131.00              8166.05,1140.73 8158.82,1146.61 8159.00,1163.00              8159.00,1163.00 8160.30,1183.00 8160.30,1183.00              8160.30,1183.00 8163.17,1200.00 8163.17,1200.00              8163.17,1200.00 8163.82,1219.00 8163.82,1219.00              8163.82,1219.00 8161.33,1249.00 8161.33,1249.00              8159.56,1257.64 8157.36,1263.63 8152.05,1270.83              8148.18,1276.07 8139.25,1281.41 8140.09,1295.00              8140.46,1301.03 8143.03,1306.54 8147.18,1310.91              8153.34,1317.38 8159.80,1318.38 8160.00,1329.00              8160.00,1329.00 8160.00,1365.00 8160.00,1365.00              8160.08,1371.80 8160.92,1371.49 8161.70,1377.00              8161.70,1377.00 8162.66,1395.00 8162.66,1395.00              8162.66,1395.00 8162.11,1403.00 8162.11,1403.00              8162.11,1403.00 8162.11,1414.00 8162.11,1414.00              8161.82,1418.46 8159.73,1420.93 8160.04,1429.00              8160.04,1429.00 8161.22,1441.00 8161.22,1441.00              8161.22,1441.00 8161.22,1451.00 8161.22,1451.00              8161.41,1460.27 8163.97,1456.43 8164.00,1475.00              8164.01,1484.10 8165.61,1486.13 8165.66,1490.00              8165.66,1490.00 8163.04,1516.00 8163.04,1516.00              8163.04,1516.00 8164.00,1527.00 8164.00,1527.00              8164.00,1527.00 8164.00,1549.00 8164.00,1549.00              8163.99,1552.97 8164.16,1557.33 8161.91,1560.82              8161.91,1560.82 8151.43,1571.00 8151.43,1571.00              8144.58,1578.90 8139.42,1587.07 8140.09,1598.00              8141.03,1613.13 8155.14,1620.26 8158.28,1624.32              8159.47,1625.87 8161.40,1631.00 8162.05,1633.00              8163.57,1637.69 8164.97,1656.47 8165.00,1662.00              8165.00,1662.00 8166.52,1678.00 8166.52,1678.00              8165.72,1683.69 8163.02,1682.69 8163.00,1696.00              8163.00,1696.00 8163.00,1712.00 8163.00,1712.00              8163.00,1712.00 8160.04,1740.00 8160.04,1740.00              8160.04,1740.00 8162.82,1763.00 8162.82,1763.00              8162.82,1763.00 8162.00,1810.00 8162.00,1810.00              8162.00,1810.00 8163.96,1830.00 8163.96,1830.00              8163.96,1830.00 8163.01,1844.00 8163.01,1844.00              8163.01,1844.00 8163.82,1855.00 8163.82,1855.00              8163.82,1855.00 8163.01,1866.00 8163.01,1866.00              8163.01,1866.00 8164.37,1888.00 8164.37,1888.00              8163.81,1895.01 8160.67,1903.06 8161.09,1910.00              8161.09,1910.00 8164.00,1924.00 8164.00,1924.00              8164.00,1924.00 8164.00,1931.00 8164.00,1931.00              8165.04,1940.04 8166.05,1940.49 8166.00,1951.00              8166.00,1951.00 8164.99,1962.00 8164.99,1962.00              8164.99,1962.00 8164.99,1970.00 8164.99,1970.00              8164.25,1976.87 8160.63,1980.38 8158.56,1986.00              8156.05,1992.78 8155.92,1999.89 8156.00,2007.00              8156.06,2011.42 8156.46,2014.94 8158.40,2019.00              8159.77,2021.86 8162.69,2025.43 8163.16,2028.00              8163.16,2028.00 8163.16,2043.00 8163.16,2043.00              8163.16,2043.00 8160.05,2065.00 8160.05,2065.00              8157.14,2073.82 8152.01,2081.47 8152.01,2091.00              8152.01,2091.00 8154.71,2111.00 8154.71,2111.00              8154.71,2111.00 8156.46,2130.00 8156.46,2130.00              8156.46,2130.00 8159.19,2140.00 8159.19,2140.00              8159.68,2144.41 8155.96,2148.67 8157.30,2158.00              8157.30,2158.00 8162.19,2176.00 8162.19,2176.00              8162.19,2176.00 8160.70,2203.00 8160.70,2203.00              8159.95,2208.29 8159.01,2208.57 8159.01,2215.00              8159.01,2226.22 8162.87,2226.10 8163.00,2236.00              8163.15,2247.53 8161.50,2246.40 8161.09,2253.00              8161.09,2253.00 8162.17,2273.00 8162.17,2273.00              8162.17,2273.00 8166.82,2292.00 8166.82,2292.00              8166.82,2292.00 8165.05,2315.00 8165.05,2315.00              8165.05,2315.00 8165.05,2328.00 8165.05,2328.00              8165.05,2328.00 8166.34,2342.00 8166.34,2342.00              8166.08,2345.65 8164.28,2347.93 8164.04,2354.00              8164.04,2354.00 8164.70,2365.00 8164.70,2365.00              8164.70,2365.00 8162.47,2374.00 8162.47,2374.00              8162.47,2374.00 8160.77,2394.00 8160.77,2394.00              8160.77,2394.00 8160.77,2412.00 8160.77,2412.00              8159.42,2418.34 8156.69,2424.46 8157.09,2431.00              8157.43,2436.42 8159.42,2439.50 8159.75,2443.00              8159.75,2443.00 8159.01,2456.00 8159.01,2456.00              8159.23,2465.43 8162.61,2467.14 8161.89,2472.00              8161.89,2472.00 8160.03,2478.00 8160.03,2478.00              8159.12,2480.83 8158.57,2483.41 8157.00,2486.00              8153.00,2492.59 8142.37,2498.52 8143.04,2515.00              8143.28,2520.88 8145.35,2527.21 8148.79,2532.00              8150.68,2534.62 8154.42,2537.80 8155.41,2540.17              8156.52,2542.84 8157.00,2551.83 8157.00,2555.00              8157.00,2555.00 8157.00,2566.00 8157.00,2566.00              8157.13,2576.38 8160.81,2588.34 8160.82,2592.00              8160.82,2592.00 8160.00,2599.00 8160.00,2599.00              8160.00,2599.00 8160.00,2608.00 8160.00,2608.00              8160.00,2608.00 8158.00,2636.00 8158.00,2636.00              8158.13,2646.74 8163.19,2652.91 8162.45,2660.00              8161.62,2667.99 8159.85,2665.71 8160.00,2679.00              8160.05,2683.30 8161.30,2687.97 8160.52,2692.00              8159.06,2699.57 8155.15,2699.82 8155.00,2712.00              8155.00,2712.00 8155.00,2731.00 8155.00,2731.00              8155.00,2731.00 8154.09,2748.00 8154.09,2748.00              8154.66,2755.77 8158.00,2758.70 8157.87,2765.00              8157.87,2765.00 8156.17,2780.00 8156.17,2780.00              8156.17,2780.00 8154.83,2802.00 8154.83,2802.00              8154.17,2808.16 8152.67,2808.64 8153.04,2817.00              8153.47,2826.91 8157.35,2826.92 8156.96,2837.00              8156.96,2837.00 8156.00,2856.00 8156.00,2856.00              8156.00,2856.00 8158.24,2881.00 8158.24,2881.00              8158.01,2886.13 8155.12,2888.37 8155.00,2898.00              8155.00,2898.00 8155.00,2903.00 8155.00,2903.00              8155.09,2910.45 8156.24,2910.46 8156.83,2916.00              8156.83,2916.00 8158.00,2939.00 8158.00,2939.00              8158.00,2939.00 8157.00,2959.00 8157.00,2959.00              8157.00,2959.00 8158.40,2973.00 8158.40,2973.00              8158.40,2973.00 8157.17,2981.00 8157.17,2981.00              8157.17,2981.00 8156.00,3002.00 8156.00,3002.00              8156.00,3002.00 8156.74,3012.00 8156.74,3012.00              8156.57,3016.34 8155.00,3017.46 8155.00,3026.00              8155.00,3026.00 8155.66,3036.00 8155.66,3036.00              8155.66,3036.00 8155.04,3045.00 8155.04,3045.00              8155.04,3045.00 8155.63,3053.00 8155.63,3053.00              8155.63,3053.00 8154.00,3083.00 8154.00,3083.00              8153.98,3093.45 8152.48,3092.72 8152.30,3099.00              8152.30,3099.00 8152.30,3108.00 8152.30,3108.00              8152.30,3108.00 8150.10,3118.00 8150.10,3118.00              8150.10,3118.00 8150.10,3135.00 8150.10,3135.00              8150.10,3135.00 8150.10,3156.00 8150.10,3156.00              8149.96,3165.05 8147.42,3168.09 8148.17,3176.00              8148.46,3179.10 8149.53,3185.10 8150.55,3188.00              8151.79,3191.54 8154.37,3195.12 8153.45,3199.00              8152.49,3203.03 8147.83,3206.86 8145.56,3213.00              8143.37,3218.90 8144.64,3222.03 8142.78,3228.00              8142.78,3228.00 8136.92,3244.00 8136.92,3244.00              8136.92,3244.00 8135.40,3255.00 8135.40,3255.00              8134.10,3260.40 8131.44,3265.36 8131.09,3271.00              8130.56,3279.64 8136.81,3291.65 8135.24,3297.99              8134.17,3302.29 8130.14,3304.69 8127.53,3308.01              8122.81,3314.01 8121.05,3321.51 8122.47,3329.00              8124.70,3340.82 8133.07,3344.51 8136.37,3348.32              8138.56,3350.85 8139.45,3353.91 8143.18,3357.91              8145.35,3360.23 8148.36,3362.23 8149.83,3365.04              8151.42,3368.09 8150.79,3372.41 8151.47,3376.00              8152.06,3379.19 8153.94,3382.95 8153.40,3386.00              8152.72,3389.88 8148.60,3393.13 8149.04,3404.00              8149.04,3404.00 8150.79,3415.00 8150.79,3415.00              8150.79,3415.00 8150.04,3427.00 8150.04,3427.00              8150.31,3433.78 8153.98,3439.66 8154.15,3455.00              8154.15,3455.00 8154.15,3494.00 8154.15,3494.00              8154.15,3494.00 8154.15,3503.00 8154.15,3503.00              8154.15,3503.00 8151.30,3514.00 8151.30,3514.00              8151.30,3514.00 8150.47,3527.00 8150.47,3527.00              8150.47,3527.00 8148.21,3534.00 8148.21,3534.00              8146.89,3538.49 8146.00,3546.28 8146.00,3551.00              8146.00,3559.68 8147.28,3558.98 8148.63,3566.00              8148.63,3566.00 8149.30,3575.00 8149.30,3575.00              8149.30,3575.00 8150.72,3583.00 8150.72,3583.00              8150.77,3587.38 8148.20,3589.90 8147.30,3596.00              8146.67,3600.26 8147.66,3610.36 8148.17,3615.00              8148.94,3621.94 8151.66,3624.58 8152.81,3629.00              8153.20,3631.74 8152.97,3637.88 8152.81,3641.00              8153.10,3649.20 8153.56,3652.46 8151.62,3661.00              8150.43,3666.21 8147.03,3669.21 8147.03,3678.00              8147.03,3689.50 8151.98,3688.30 8152.00,3702.00              8152.00,3702.00 8151.09,3720.00 8151.09,3720.00              8151.45,3725.83 8152.96,3726.00 8153.00,3735.00              8153.00,3735.00 8152.00,3762.00 8152.00,3762.00              8151.87,3769.67 8149.09,3769.00 8144.79,3775.00              8141.03,3780.23 8138.69,3786.50 8139.09,3793.00              8139.31,3796.59 8141.96,3812.00 8143.40,3815.00              8146.16,3820.76 8150.95,3825.04 8153.21,3833.00              8154.44,3837.34 8154.06,3851.72 8154.00,3857.00              8153.94,3861.47 8151.77,3881.36 8150.43,3885.00              8150.43,3885.00 8144.40,3895.00 8144.40,3895.00              8141.16,3901.76 8141.72,3908.87 8143.00,3916.00              8131.54,3919.35 8123.35,3929.88 8124.09,3942.00              8124.90,3955.07 8133.60,3958.89 8137.30,3964.09              8138.91,3966.36 8141.09,3973.17 8141.63,3976.00              8141.63,3976.00 8142.17,3988.00 8142.17,3988.00              8142.17,3988.00 8144.27,4001.00 8144.27,4001.00              8144.27,4001.00 8144.27,4008.00 8144.27,4008.00              8144.27,4008.00 8144.27,4018.00 8144.27,4018.00              8144.27,4018.00 8144.27,4027.00 8144.27,4027.00              8144.27,4027.00 8142.04,4057.00 8142.04,4057.00              8142.30,4063.47 8144.17,4065.54 8144.98,4070.00              8144.98,4070.00 8144.98,4078.00 8144.98,4078.00              8144.98,4078.00 8147.46,4091.00 8147.46,4091.00              8147.46,4091.00 8149.67,4099.00 8149.67,4099.00              8151.14,4105.22 8152.22,4111.64 8152.72,4118.00              8153.47,4124.66 8154.07,4132.47 8152.72,4139.00              8151.56,4143.76 8148.61,4147.23 8149.09,4155.00              8149.57,4162.74 8152.98,4165.68 8153.79,4171.00              8153.79,4171.00 8153.00,4193.00 8153.00,4193.00              8153.00,4193.00 8152.04,4210.00 8152.04,4210.00              8152.04,4210.00 8153.99,4232.00 8153.99,4232.00              8153.99,4232.00 8153.00,4244.00 8153.00,4244.00              8153.00,4244.00 8153.00,4263.00 8153.00,4263.00              8153.00,4263.00 8151.09,4288.00 8151.09,4288.00              8151.09,4288.00 8152.00,4299.00 8152.00,4299.00              8152.00,4299.00 8151.00,4319.00 8151.00,4319.00              8151.00,4319.00 8151.82,4332.00 8151.82,4332.00              8151.82,4332.00 8151.20,4342.00 8151.20,4342.00              8151.20,4342.00 8151.20,4352.00 8151.20,4352.00              8151.13,4356.39 8149.79,4358.61 8150.09,4364.00              8150.09,4364.00 8151.91,4378.00 8151.91,4378.00              8151.91,4378.00 8151.09,4392.00 8151.09,4392.00              8151.09,4392.00 8152.13,4400.00 8152.13,4400.00              8152.13,4400.00 8152.13,4409.00 8152.13,4409.00              8151.94,4423.74 8149.30,4427.35 8149.04,4435.00              8149.04,4435.00 8150.91,4458.00 8150.91,4458.00              8150.58,4463.78 8149.61,4466.42 8150.09,4473.00              8150.09,4473.00 8151.82,4484.00 8151.82,4484.00              8151.82,4484.00 8151.00,4496.00 8151.00,4496.00              8151.00,4496.00 8151.00,4520.00 8151.00,4520.00              8151.00,4520.00 8151.82,4534.00 8151.82,4534.00              8151.82,4534.00 8150.17,4549.00 8150.17,4549.00              8150.17,4549.00 8150.17,4558.00 8150.17,4558.00              8150.17,4558.00 8147.09,4581.00 8147.09,4581.00              8147.40,4586.05 8148.87,4588.05 8149.63,4592.00              8149.63,4592.00 8150.17,4605.00 8150.17,4605.00              8150.76,4610.54 8151.91,4610.55 8152.00,4618.00              8152.00,4618.00 8150.90,4636.00 8150.90,4636.00              8150.90,4636.00 8150.90,4644.00 8150.90,4644.00              8150.90,4644.00 8148.43,4657.00 8148.43,4657.00              8148.43,4657.00 8147.56,4666.00 8147.56,4666.00              8145.25,4680.33 8143.90,4670.99 8144.00,4692.00              8144.00,4692.00 8146.00,4713.00 8146.00,4713.00              8145.85,4726.03 8141.77,4728.96 8142.00,4749.00              8142.00,4749.00 8144.47,4772.00 8144.47,4772.00              8144.47,4772.00 8146.78,4781.00 8146.78,4781.00              8146.78,4781.00 8146.00,4795.00 8146.00,4795.00              8146.00,4795.00 8146.00,4808.00 8146.00,4808.00              8146.00,4808.00 8148.15,4828.00 8148.15,4828.00              8148.15,4828.00 8148.15,4838.00 8148.15,4838.00              8148.15,4838.00 8149.00,4857.00 8149.00,4857.00              8149.00,4857.00 8147.03,4875.00 8147.03,4875.00              8147.03,4875.00 8148.28,4888.00 8148.28,4888.00              8148.28,4888.00 8147.00,4902.00 8147.00,4902.00              8147.00,4902.00 8148.00,4925.00 8148.00,4925.00              8148.00,4925.00 8148.00,4964.00 8148.00,4964.00              8147.98,4975.27 8146.26,4976.41 8144.47,4986.00              8144.47,4986.00 8142.09,5015.00 8142.09,5015.00              8142.09,5015.00 8145.96,5043.00 8145.96,5043.00              8146.17,5049.34 8144.08,5053.88 8143.14,5060.00              8143.14,5060.00 8143.14,5077.00 8143.14,5077.00              8143.14,5077.00 8140.44,5095.00 8140.44,5095.00              8140.44,5095.00 8134.35,5106.00 8134.35,5106.00              8131.84,5111.65 8131.93,5116.00 8132.00,5122.00              8132.12,5131.97 8135.53,5134.86 8135.90,5143.00              8135.90,5143.00 8134.63,5160.00 8134.63,5160.00              8133.07,5168.14 8132.02,5165.57 8132.04,5176.00              8132.04,5176.00 8132.04,5193.00 8132.04,5193.00              8132.39,5197.37 8133.16,5198.97 8132.96,5204.00              8132.69,5211.03 8129.21,5223.72 8127.67,5231.00              8126.81,5235.05 8127.41,5239.84 8125.83,5243.00              8123.08,5248.49 8116.40,5251.06 8113.16,5263.00              8113.16,5263.00 8110.36,5285.00 8110.36,5285.00              8110.36,5285.00 8104.56,5297.00 8104.56,5297.00              8102.79,5301.81 8103.34,5304.87 8102.31,5308.00              8102.31,5308.00 8098.56,5316.00 8098.56,5316.00              8098.56,5316.00 8096.18,5325.00 8096.18,5325.00              8096.18,5325.00 8091.56,5334.00 8091.56,5334.00              8091.56,5334.00 8087.63,5352.00 8087.63,5352.00              8087.63,5352.00 8083.44,5365.00 8083.44,5365.00              8083.44,5365.00 8075.39,5381.00 8075.39,5381.00              8073.30,5384.22 8071.17,5386.33 8069.40,5390.00              8069.40,5390.00 8066.02,5399.00 8066.02,5399.00              8066.02,5399.00 8056.40,5418.00 8056.40,5418.00              8056.40,5418.00 8053.02,5427.91 8053.02,5427.91              8051.36,5430.70 8047.60,5432.89 8045.09,5435.14              8042.31,5437.64 8035.56,5445.29 8032.83,5446.40              8031.01,5447.14 8027.26,5446.97 8025.00,5447.30              8025.00,5447.30 8009.00,5451.56 8009.00,5451.56              8009.00,5451.56 7989.00,5462.70 7989.00,5462.70              7984.24,5465.70 7979.05,5469.05 7975.09,5473.04              7973.33,5474.81 7970.62,5478.61 7967.96,5478.66              7965.18,5478.72 7955.68,5469.89 7952.00,5467.91              7938.43,5460.63 7922.49,5467.26 7914.00,5479.00 Z"
            style="fill:#000000;fill-opacity:1"/>
</svg>
