<?xml version="1.0" encoding="UTF-8" standalone="no"?>
<svg
        width="176.171mm"
        height="116.544mm"
        viewBox="0 0 8323 5506"
        version="1.1"
        id="svg4572"
        sodipodi:docname="sheet2b.svg"
        inkscape:version="1.1.1 (3bf5ae0d25, 2021-09-20)"
        xmlns:inkscape="http://www.inkscape.org/namespaces/inkscape"
        xmlns:sodipodi="http://sodipodi.sourceforge.net/DTD/sodipodi-0.dtd"
        xmlns="http://www.w3.org/2000/svg"
>
    <defs
            id="defs4576"/>
    <sodipodi:namedview
            id="namedview4574"
            pagecolor="#ffffff"
            bordercolor="#666666"
            borderopacity="1.0"
            inkscape:pageshadow="2"
            inkscape:pageopacity="0.0"
            inkscape:pagecheckerboard="0"
            inkscape:document-units="mm"
            showgrid="false"
            inkscape:zoom="1.8003036"
            inkscape:cx="332.99939"
            inkscape:cy="220.24063"
            inkscape:window-width="1920"
            inkscape:window-height="1001"
            inkscape:window-x="-7"
            inkscape:window-y="-7"
            inkscape:window-maximized="1"
            inkscape:current-layer="svg4572"/>
    <path
            id="Selection #3"
            fill="none"
            stroke="black"
            stroke-width="1"
            d="M 55.00,1057.00            C 55.00,1057.00 51.00,1025.00 51.00,1025.00              51.00,1025.00 51.00,1017.00 51.00,1017.00              51.00,1017.00 49.10,998.00 49.10,998.00              49.10,998.00 54.13,976.00 54.13,976.00              54.13,976.00 59.65,956.28 59.65,956.28              61.48,953.15 65.86,953.21 69.00,952.23              73.71,950.76 77.41,948.25 81.00,944.91              84.20,941.93 86.82,939.02 88.65,935.00              90.36,931.25 90.64,927.18 92.72,924.01              96.72,917.95 107.58,912.85 113.64,902.00              119.19,892.06 116.02,883.37 116.08,873.00              116.08,873.00 116.08,860.00 116.08,860.00              116.08,860.00 117.82,844.00 117.82,844.00              117.82,844.00 116.09,828.00 116.09,828.00              116.09,828.00 116.96,811.00 116.96,811.00              116.96,811.00 115.00,786.00 115.00,786.00              115.00,786.00 115.00,771.00 115.00,771.00              115.00,771.00 116.00,752.00 116.00,752.00              115.86,740.70 108.53,730.19 98.00,725.93              94.10,724.35 91.14,724.06 87.00,724.00              85.01,723.98 81.33,724.27 79.73,723.01              77.34,721.11 77.04,713.91 77.16,711.00              77.16,711.00 77.16,693.00 77.16,693.00              77.16,693.00 79.70,683.00 79.70,683.00              79.70,683.00 80.30,673.00 80.30,673.00              80.30,673.00 83.55,658.00 83.55,658.00              85.02,650.66 84.40,642.90 87.34,636.00              89.47,630.97 91.99,625.43 95.16,621.00              100.38,613.68 108.71,604.48 111.22,596.00              114.20,585.91 111.89,579.95 112.00,570.00              112.00,570.00 113.96,548.00 113.96,548.00              113.96,548.00 113.00,532.00 113.00,532.00              113.00,532.00 113.00,497.00 113.00,497.00              113.00,497.00 112.04,484.00 112.04,484.00              112.04,484.00 112.90,472.00 112.90,472.00              112.63,466.58 111.04,465.90 110.96,457.00              110.96,457.00 110.96,444.00 110.96,444.00              110.96,444.00 110.01,435.00 110.01,435.00              109.77,424.36 114.05,413.31 116.63,403.00              116.63,403.00 120.88,379.00 120.88,379.00              123.39,368.44 128.32,351.31 128.81,341.00              128.81,341.00 128.81,330.00 128.81,330.00              128.81,330.00 133.81,309.00 133.81,309.00              134.20,304.36 132.47,300.99 133.18,295.00              134.49,284.03 137.77,287.20 138.00,268.00              138.11,259.32 141.77,253.11 143.48,245.00              143.48,245.00 145.38,222.00 145.38,222.00              145.38,222.00 151.36,206.00 151.36,206.00              152.35,202.44 155.34,188.77 157.70,186.99              159.36,185.74 162.97,186.00 165.00,186.00              165.00,186.00 190.00,185.00 190.00,185.00              190.00,185.00 227.00,181.17 227.00,181.17              227.00,181.17 257.00,180.00 257.00,180.00              257.00,180.00 279.00,179.00 279.00,179.00              279.00,179.00 307.00,177.00 307.00,177.00              317.93,177.13 316.57,180.20 334.00,180.00              334.00,180.00 352.00,178.49 352.00,178.49              352.00,178.49 364.00,181.20 364.00,181.20              364.00,181.20 385.00,183.83 385.00,183.83              392.67,184.55 396.40,182.36 401.00,182.34              401.00,182.34 423.00,184.00 423.00,184.00              423.00,184.00 443.00,182.00 443.00,182.00              443.00,182.00 466.00,180.96 466.00,180.96              466.00,180.96 475.00,180.96 475.00,180.96              475.00,180.96 500.00,179.02 500.00,179.02              509.07,179.21 514.05,183.87 521.00,183.82              526.54,183.78 541.01,177.74 550.00,178.04              560.06,178.38 571.93,185.62 582.00,185.96              593.70,186.35 604.34,179.79 616.00,180.02              616.00,180.02 639.00,182.92 639.00,182.92              639.00,182.92 649.00,182.92 649.00,182.92              656.60,183.09 657.45,184.53 663.00,184.91              663.00,184.91 685.00,183.02 685.00,183.02              685.00,183.02 712.00,187.52 712.00,187.52              720.38,188.75 725.71,187.00 730.00,187.52              746.66,188.57 744.87,185.65 755.00,186.04              760.71,186.26 762.29,187.54 769.00,186.71              769.00,186.71 788.00,183.09 788.00,183.09              794.03,182.73 799.94,186.02 814.00,186.00              819.28,185.99 829.74,183.54 833.00,184.74              836.86,186.17 839.39,190.06 844.00,192.59              846.87,194.16 867.68,201.12 871.00,201.89              873.26,202.05 875.71,202.00 878.00,201.89              878.00,201.89 889.00,201.89 889.00,201.89              895.77,202.08 895.49,202.91 901.00,203.70              901.00,203.70 912.00,204.68 912.00,204.68              912.00,204.68 936.00,201.09 936.00,201.09              936.00,201.09 963.00,200.00 963.00,200.00              963.00,200.00 978.00,200.91 978.00,200.91              986.77,200.37 993.14,195.03 1011.00,195.00              1011.00,195.00 1030.00,195.00 1030.00,195.00              1030.00,195.00 1043.00,195.82 1043.00,195.82              1043.00,195.82 1056.00,194.04 1056.00,194.04              1056.00,194.04 1069.00,195.00 1069.00,195.00              1089.30,195.23 1092.06,189.75 1114.00,190.00              1126.68,190.15 1129.51,195.26 1139.00,195.91              1139.00,195.91 1158.00,194.01 1158.00,194.01              1158.00,194.01 1182.00,197.91 1182.00,197.91              1182.00,197.91 1207.00,196.75 1207.00,196.75              1213.96,197.18 1220.50,202.46 1229.00,201.82              1229.00,201.82 1256.00,196.12 1256.00,196.12              1256.00,196.12 1265.00,196.12 1265.00,196.12              1265.00,196.12 1277.00,194.38 1277.00,194.38              1277.00,194.38 1290.00,191.09 1290.00,191.09              1290.00,191.09 1313.00,192.79 1313.00,192.79              1313.00,192.79 1339.00,188.87 1339.00,188.87              1339.00,188.87 1347.00,188.87 1347.00,188.87              1347.00,188.87 1360.00,188.21 1360.00,188.21              1365.15,188.50 1371.55,190.98 1383.00,190.96              1383.00,190.96 1399.00,190.96 1399.00,190.96              1399.00,190.96 1411.00,189.86 1411.00,189.86              1411.00,189.86 1429.00,189.86 1429.00,189.86              1434.89,188.95 1439.99,186.75 1446.00,187.09              1446.00,187.09 1453.00,188.04 1453.00,188.04              1453.00,188.04 1463.00,188.04 1463.00,188.04              1463.00,188.04 1481.00,190.00 1481.00,190.00              1481.00,190.00 1500.00,190.00 1500.00,190.00              1505.79,190.07 1509.06,191.42 1515.00,190.57              1515.00,190.57 1538.00,186.08 1538.00,186.08              1543.93,186.04 1546.30,188.98 1558.00,189.00              1558.00,189.00 1577.00,189.00 1577.00,189.00              1577.00,189.00 1592.00,189.91 1592.00,189.91              1592.00,189.91 1627.00,187.00 1627.00,187.00              1636.07,186.99 1637.45,185.61 1642.00,185.68              1642.00,185.68 1652.00,185.68 1652.00,185.68              1652.00,185.68 1664.00,184.57 1664.00,184.57              1664.00,184.57 1677.00,185.96 1677.00,185.96              1677.00,185.96 1688.00,185.21 1688.00,185.21              1688.00,185.21 1703.00,187.00 1703.00,187.00              1706.67,187.04 1712.56,187.19 1716.00,186.49              1719.90,185.69 1726.24,183.30 1730.00,183.35              1735.72,183.43 1737.69,186.98 1750.00,187.00              1750.00,187.00 1776.00,185.91 1776.00,185.91              1776.00,185.91 1783.00,185.18 1783.00,185.18              1788.27,185.20 1792.37,187.89 1801.00,188.00              1801.00,188.00 1812.00,188.00 1812.00,188.00              1820.66,188.12 1820.01,190.11 1827.00,192.40              1831.33,193.82 1845.64,196.94 1850.00,197.00              1850.00,197.00 1863.00,197.00 1863.00,197.00              1871.48,196.99 1880.10,195.80 1887.00,190.47              1893.91,185.13 1895.31,179.94 1902.00,176.97              1907.45,174.55 1911.41,176.18 1917.00,175.96              1917.00,175.96 1938.00,174.32 1938.00,174.32              1938.00,174.32 1951.00,169.76 1951.00,169.76              1951.00,169.76 1961.00,168.07 1961.00,168.07              1968.10,166.15 1972.56,161.70 1977.00,161.31              1980.87,160.97 1987.78,164.28 1992.00,165.34              1998.78,167.03 2021.69,170.63 2028.00,169.70              2034.30,168.77 2036.92,166.29 2042.00,164.78              2042.00,164.78 2050.00,163.10 2050.00,163.10              2050.00,163.10 2068.00,158.25 2068.00,158.25              2072.79,156.91 2078.13,153.80 2083.00,154.36              2083.00,154.36 2092.00,156.54 2092.00,156.54              2092.00,156.54 2116.00,158.81 2116.00,158.81              2116.00,158.81 2128.00,156.20 2128.00,156.20              2133.32,155.70 2138.08,158.41 2143.00,159.97              2150.09,162.22 2163.77,165.60 2171.00,164.83              2179.88,163.88 2183.01,159.72 2190.00,155.46              2190.00,155.46 2199.00,150.46 2199.00,150.46              2202.16,148.45 2204.42,146.47 2208.00,144.95              2211.28,143.56 2215.48,142.95 2219.00,142.12              2242.16,136.62 2242.75,137.27 2266.00,137.00              2275.78,136.88 2277.05,134.48 2284.00,133.32              2288.65,132.55 2291.89,133.69 2298.00,131.78              2307.85,128.70 2306.20,125.07 2319.00,125.00              2322.04,124.99 2325.00,125.12 2328.00,124.48              2333.42,123.33 2348.75,115.58 2354.00,112.57              2358.03,110.27 2360.56,108.43 2365.00,106.63              2376.39,101.99 2382.03,105.77 2392.00,101.02              2399.74,97.32 2405.22,91.26 2409.55,84.00              2411.17,81.29 2413.84,75.30 2415.63,73.42              2418.74,70.16 2432.51,66.89 2437.00,67.46              2437.00,67.46 2460.00,75.56 2460.00,75.56              2468.00,77.92 2470.76,76.45 2478.00,77.17              2478.00,77.17 2491.00,78.97 2491.00,78.97              2499.12,78.97 2505.46,74.68 2513.00,72.35              2516.35,71.31 2530.61,70.22 2534.00,70.49              2540.51,71.02 2549.02,78.34 2556.00,81.07              2563.21,83.90 2572.25,82.91 2580.00,83.00              2593.02,83.16 2593.89,88.71 2600.10,98.00              2602.32,101.32 2605.86,105.15 2609.00,107.61              2618.05,114.71 2631.07,113.12 2642.00,113.00              2651.70,112.88 2658.96,110.31 2667.00,105.00              2669.97,103.03 2676.51,97.27 2680.00,98.30              2682.54,99.05 2688.25,105.35 2691.00,107.47              2691.00,107.47 2705.00,115.60 2705.00,115.60              2705.00,115.60 2718.00,125.13 2718.00,125.13              2718.00,125.13 2735.00,134.43 2735.00,134.43              2735.00,134.43 2751.00,144.11 2751.00,144.11              2751.00,144.11 2764.00,150.47 2764.00,150.47              2769.28,153.74 2770.91,156.44 2775.00,159.37              2775.00,159.37 2800.00,173.31 2800.00,173.31              2800.00,173.31 2813.00,181.73 2813.00,181.73              2820.92,185.77 2827.28,185.94 2835.00,188.61              2835.00,188.61 2849.00,195.45 2849.00,195.45              2855.39,197.71 2858.26,196.53 2863.00,197.32              2863.00,197.32 2874.00,200.19 2874.00,200.19              2874.00,200.19 2891.00,202.42 2891.00,202.42              2896.09,203.21 2909.78,206.11 2914.00,205.50              2914.00,205.50 2931.00,199.52 2931.00,199.52              2937.21,198.19 2943.82,199.96 2951.00,198.08              2959.47,195.86 2961.87,192.63 2972.00,193.04              2972.00,193.04 2989.00,196.78 2989.00,196.78              2989.00,196.78 3007.00,196.78 3007.00,196.78              3014.09,196.91 3015.06,195.83 3021.00,195.17              3021.00,195.17 3041.00,193.83 3041.00,193.83              3048.10,193.12 3048.04,192.01 3057.00,192.00              3057.00,192.00 3091.00,192.00 3091.00,192.00              3091.00,192.00 3132.00,187.04 3132.00,187.04              3137.73,187.29 3141.51,189.55 3147.00,190.54              3147.00,190.54 3170.00,191.96 3170.00,191.96              3170.00,191.96 3208.00,185.18 3208.00,185.18              3208.00,185.18 3215.00,186.10 3215.00,186.10              3215.00,186.10 3225.00,186.10 3225.00,186.10              3225.00,186.10 3243.00,190.85 3243.00,190.85              3243.00,190.85 3255.00,190.85 3255.00,190.85              3266.42,190.86 3271.94,187.71 3281.00,186.50              3281.00,186.50 3298.00,187.00 3298.00,187.00              3298.00,187.00 3308.00,187.95 3308.00,187.95              3308.00,187.95 3325.00,187.95 3325.00,187.95              3325.00,187.95 3338.00,187.09 3338.00,187.09              3338.00,187.09 3372.00,191.00 3372.00,191.00              3372.00,191.00 3394.00,191.00 3394.00,191.00              3394.00,191.00 3413.00,190.00 3413.00,190.00              3413.00,190.00 3427.00,190.91 3427.00,190.91              3427.00,190.91 3456.00,188.91 3456.00,188.91              3456.00,188.91 3468.00,188.00 3468.00,188.00              3468.00,188.00 3499.00,188.00 3499.00,188.00              3499.00,188.00 3562.00,181.00 3562.00,181.00              3562.00,181.00 3583.00,182.00 3583.00,182.00              3583.00,182.00 3593.00,181.04 3593.00,181.04              3593.00,181.04 3608.00,181.04 3608.00,181.04              3620.78,180.98 3625.11,177.15 3636.00,175.32              3636.00,175.32 3653.00,173.53 3653.00,173.53              3653.00,173.53 3666.00,169.47 3666.00,169.47              3666.00,169.47 3677.00,168.83 3677.00,168.83              3677.00,168.83 3687.00,167.11 3687.00,167.11              3687.00,167.11 3700.00,167.11 3700.00,167.11              3703.91,166.95 3709.66,165.47 3712.91,167.11              3715.28,168.42 3719.77,173.79 3722.00,175.99              3728.35,182.24 3736.69,187.49 3746.00,186.82              3746.00,186.82 3763.00,185.00 3763.00,185.00              3763.00,185.00 3769.00,185.00 3769.00,185.00              3769.00,185.00 3794.00,188.00 3794.00,188.00              3794.00,188.00 3821.00,188.00 3821.00,188.00              3836.71,188.19 3837.88,196.62 3853.00,196.99              3865.40,197.29 3863.62,195.23 3873.00,193.47              3873.00,193.47 3881.00,192.71 3881.00,192.71              3881.00,192.71 3889.00,191.29 3889.00,191.29              3889.00,191.29 3909.00,190.04 3909.00,190.04              3909.00,190.04 3924.00,191.00 3924.00,191.00              3924.00,191.00 3941.00,192.91 3941.00,192.91              3941.00,192.91 3956.00,191.76 3956.00,191.76              3956.00,191.76 3972.00,191.76 3972.00,191.76              3972.00,191.76 3989.00,193.00 3989.00,193.00              3989.00,193.00 4008.00,191.22 4008.00,191.22              4012.27,191.55 4017.76,194.61 4026.00,194.96              4026.00,194.96 4041.00,194.09 4041.00,194.09              4041.00,194.09 4062.00,195.00 4062.00,195.00              4062.00,195.00 4088.00,193.04 4088.00,193.04              4088.00,193.04 4099.00,193.91 4099.00,193.91              4099.00,193.91 4121.00,193.00 4121.00,193.00              4126.51,193.07 4147.34,197.58 4152.00,200.05              4160.85,204.73 4164.53,212.98 4181.00,212.97              4195.46,212.97 4198.63,204.21 4207.00,200.30              4212.04,197.94 4220.47,198.06 4226.00,198.00              4226.00,198.00 4250.00,196.00 4250.00,196.00              4250.00,196.00 4274.00,196.00 4274.00,196.00              4274.00,196.00 4289.00,196.91 4289.00,196.91              4289.00,196.91 4305.00,195.01 4305.00,195.01              4305.00,195.01 4324.00,196.00 4324.00,196.00              4324.00,196.00 4339.00,195.01 4339.00,195.01              4339.00,195.01 4348.00,195.91 4348.00,195.91              4348.00,195.91 4387.00,201.08 4387.00,201.08              4387.00,201.08 4402.00,203.83 4402.00,203.83              4402.00,203.83 4454.00,208.17 4454.00,208.17              4454.00,208.17 4500.00,213.00 4500.00,213.00              4500.00,213.00 4513.00,213.00 4513.00,213.00              4513.00,213.00 4532.00,212.00 4532.00,212.00              4532.00,212.00 4558.00,213.91 4558.00,213.91              4570.78,213.18 4575.81,209.18 4581.00,208.55              4584.79,208.10 4591.93,209.68 4596.00,209.91              4607.07,210.53 4613.35,205.24 4619.00,203.63              4622.60,202.61 4631.77,203.05 4636.00,203.00              4636.00,203.00 4649.00,202.00 4649.00,202.00              4649.00,202.00 4664.00,202.00 4664.00,202.00              4664.00,202.00 4680.00,201.00 4680.00,201.00              4680.00,201.00 4699.00,201.00 4699.00,201.00              4699.00,201.00 4715.00,200.00 4715.00,200.00              4715.00,200.00 4749.00,200.00 4749.00,200.00              4749.00,200.00 4781.00,204.00 4781.00,204.00              4781.00,204.00 4800.00,204.00 4800.00,204.00              4800.00,204.00 4831.00,206.79 4831.00,206.79              4831.00,206.79 4853.00,205.00 4853.00,205.00              4861.53,204.96 4861.67,203.76 4869.00,202.46              4869.00,202.46 4895.00,200.00 4895.00,200.00              4895.00,200.00 4910.00,201.91 4910.00,201.91              4910.00,201.91 4952.00,203.00 4952.00,203.00              4952.00,203.00 4975.00,205.00 4975.00,205.00              4975.00,205.00 5002.00,202.00 5002.00,202.00              5002.00,202.00 5031.00,202.00 5031.00,202.00              5040.77,202.02 5050.31,205.18 5060.00,206.57              5060.00,206.57 5069.00,207.29 5069.00,207.29              5069.00,207.29 5080.00,209.04 5080.00,209.04              5080.00,209.04 5090.00,209.04 5090.00,209.04              5100.46,210.29 5102.92,215.19 5120.00,215.00              5132.63,214.85 5137.57,210.02 5151.00,210.00              5151.00,210.00 5170.00,210.00 5170.00,210.00              5170.00,210.00 5187.00,208.00 5187.00,208.00              5187.00,208.00 5203.00,208.83 5203.00,208.83              5203.00,208.83 5218.00,207.56 5218.00,207.56              5226.67,206.21 5225.96,205.02 5236.00,205.00              5236.00,205.00 5254.00,205.00 5254.00,205.00              5254.00,205.00 5268.00,205.99 5268.00,205.99              5268.00,205.99 5281.00,205.00 5281.00,205.00              5281.00,205.00 5298.00,206.00 5298.00,206.00              5298.00,206.00 5313.00,206.00 5313.00,206.00              5313.00,206.00 5327.00,207.00 5327.00,207.00              5347.82,207.24 5368.32,204.14 5389.00,202.17              5389.00,202.17 5413.00,200.91 5413.00,200.91              5413.00,200.91 5435.00,199.18 5435.00,199.18              5435.00,199.18 5452.00,200.96 5452.00,200.96              5452.00,200.96 5463.00,200.16 5463.00,200.16              5473.15,201.08 5471.53,200.10 5480.00,200.16              5480.00,200.16 5522.00,203.04 5522.00,203.04              5522.00,203.04 5532.00,203.04 5532.00,203.04              5532.00,203.04 5555.00,204.96 5555.00,204.96              5555.00,204.96 5568.00,204.01 5568.00,204.01              5568.00,204.01 5593.00,206.00 5593.00,206.00              5593.00,206.00 5620.00,206.00 5620.00,206.00              5620.00,206.00 5635.00,206.99 5635.00,206.99              5635.00,206.99 5646.00,206.02 5646.00,206.02              5646.00,206.02 5662.00,206.02 5662.00,206.02              5669.58,205.91 5673.05,203.94 5680.00,203.17              5680.00,203.17 5712.00,199.65 5712.00,199.65              5712.00,199.65 5730.00,192.04 5730.00,192.04              5734.91,190.60 5738.99,191.05 5744.00,191.00              5744.00,191.00 5769.00,189.00 5769.00,189.00              5769.00,189.00 5787.00,189.00 5787.00,189.00              5787.00,189.00 5813.00,190.96 5813.00,190.96              5813.00,190.96 5837.00,188.08 5837.00,188.08              5837.00,188.08 5860.00,188.08 5860.00,188.08              5876.60,188.03 5884.79,194.19 5902.00,193.80              5902.00,193.80 5911.00,193.80 5911.00,193.80              5911.00,193.80 5934.00,198.04 5934.00,198.04              5934.00,198.04 5947.00,202.32 5947.00,202.32              5953.08,203.70 5963.64,204.07 5970.00,204.00              5970.00,204.00 5994.00,200.33 5994.00,200.33              5994.00,200.33 6005.00,201.08 6005.00,201.08              6005.00,201.08 6022.00,201.08 6022.00,201.08              6030.59,202.03 6030.97,203.98 6042.00,204.00              6042.00,204.00 6064.00,204.00 6064.00,204.00              6064.00,204.00 6080.00,203.01 6080.00,203.01              6080.00,203.01 6117.00,207.16 6117.00,207.16              6117.00,207.16 6125.00,207.97 6125.00,207.97              6125.00,207.97 6145.00,205.92 6145.00,205.92              6145.00,205.92 6159.00,205.92 6159.00,205.92              6159.00,205.92 6179.00,204.00 6179.00,204.00              6179.00,204.00 6202.00,204.83 6202.00,204.83              6202.00,204.83 6238.00,197.21 6238.00,197.21              6245.81,195.56 6245.24,196.46 6251.00,195.71              6251.00,195.71 6264.00,193.39 6264.00,193.39              6276.08,191.11 6279.31,187.22 6284.00,186.71              6287.92,186.28 6293.04,189.04 6297.00,190.08              6301.52,191.26 6304.47,190.95 6309.00,191.00              6309.00,191.00 6322.00,192.00 6322.00,192.00              6322.00,192.00 6334.00,192.00 6334.00,192.00              6334.00,192.00 6353.00,193.00 6353.00,193.00              6353.00,193.00 6368.00,193.91 6368.00,193.91              6368.00,193.91 6399.00,191.00 6399.00,191.00              6399.00,191.00 6442.00,191.00 6442.00,191.00              6442.00,191.00 6470.00,194.91 6470.00,194.91              6470.00,194.91 6482.00,193.60 6482.00,193.60              6482.00,193.60 6519.00,197.99 6519.00,197.99              6519.00,197.99 6533.00,197.00 6533.00,197.00              6533.00,197.00 6552.00,197.00 6552.00,197.00              6552.00,197.00 6577.00,199.00 6577.00,199.00              6577.00,199.00 6598.00,198.17 6598.00,198.17              6598.00,198.17 6611.00,200.56 6611.00,200.56              6611.00,200.56 6621.00,201.29 6621.00,201.29              6621.00,201.29 6639.00,203.96 6639.00,203.96              6639.00,203.96 6671.00,202.00 6671.00,202.00              6671.00,202.00 6692.00,203.17 6692.00,203.17              6697.54,203.76 6697.55,204.91 6705.00,205.00              6720.17,205.17 6719.82,203.50 6733.00,201.44              6733.00,201.44 6744.00,200.56 6744.00,200.56              6744.00,200.56 6758.00,197.46 6758.00,197.46              6758.00,197.46 6781.00,196.00 6781.00,196.00              6781.00,196.00 6806.00,198.96 6806.00,198.96              6806.00,198.96 6821.00,198.96 6821.00,198.96              6821.00,198.96 6832.00,198.00 6832.00,198.00              6832.00,198.00 6853.00,198.00 6853.00,198.00              6853.00,198.00 6873.00,200.00 6873.00,200.00              6873.00,200.00 6893.00,198.60 6893.00,198.60              6893.00,198.60 6903.00,198.60 6903.00,198.60              6903.00,198.60 6922.00,195.43 6922.00,195.43              6922.00,195.43 6945.00,193.91 6945.00,193.91              6945.00,193.91 6955.00,192.14 6955.00,192.14              6955.00,192.14 6965.00,192.14 6965.00,192.14              6965.00,192.14 6975.00,191.05 6975.00,191.05              6975.00,191.05 6992.00,191.05 6992.00,191.05              6992.00,191.05 7007.00,192.00 7007.00,192.00              7007.00,192.00 7026.00,192.00 7026.00,192.00              7034.09,192.10 7034.50,193.76 7041.00,194.85              7041.00,194.85 7055.00,194.85 7055.00,194.85              7055.00,194.85 7065.00,194.09 7065.00,194.09              7069.45,193.84 7071.18,194.69 7075.00,194.91              7075.00,194.91 7101.00,192.32 7101.00,192.32              7101.00,192.32 7115.00,194.00 7115.00,194.00              7115.00,194.00 7140.00,194.00 7140.00,194.00              7149.93,193.98 7150.42,192.52 7156.00,192.21              7156.00,192.21 7168.00,192.91 7168.00,192.91              7168.00,192.91 7191.00,190.83 7191.00,190.83              7191.00,190.83 7199.00,190.03 7199.00,190.03              7199.00,190.03 7212.00,191.96 7212.00,191.96              7212.00,191.96 7221.00,191.96 7221.00,191.96              7221.00,191.96 7236.00,193.00 7236.00,193.00              7236.00,193.00 7253.00,192.00 7253.00,192.00              7253.00,192.00 7273.00,192.00 7273.00,192.00              7273.00,192.00 7289.00,191.00 7289.00,191.00              7289.00,191.00 7307.00,191.00 7307.00,191.00              7307.00,191.00 7321.00,190.04 7321.00,190.04              7321.00,190.04 7330.00,191.07 7330.00,191.07              7330.00,191.07 7344.00,191.07 7344.00,191.07              7344.00,191.07 7355.00,192.96 7355.00,192.96              7355.00,192.96 7372.00,191.92 7372.00,191.92              7372.00,191.92 7386.00,191.92 7386.00,191.92              7386.00,191.92 7410.00,189.04 7410.00,189.04              7410.00,189.04 7420.00,189.96 7420.00,189.96              7420.00,189.96 7433.00,189.96 7433.00,189.96              7433.00,189.96 7472.00,195.00 7472.00,195.00              7485.80,195.16 7503.57,196.58 7517.00,199.68              7517.00,199.68 7535.00,205.57 7535.00,205.57              7535.00,205.57 7553.00,210.55 7553.00,210.55              7553.00,210.55 7574.00,219.79 7574.00,219.79              7574.00,219.79 7596.00,225.77 7596.00,225.77              7596.00,225.77 7609.00,230.96 7609.00,230.96              7609.00,230.96 7623.00,232.79 7623.00,232.79              7628.44,234.33 7633.21,238.12 7639.00,239.31              7639.00,239.31 7668.00,238.00 7668.00,238.00              7668.00,238.00 7693.00,240.00 7693.00,240.00              7706.01,239.84 7708.35,236.63 7719.00,232.46              7719.00,232.46 7733.00,227.74 7733.00,227.74              7733.00,227.74 7750.00,219.22 7750.00,219.22              7755.42,217.49 7761.37,218.06 7767.00,218.00              7777.96,217.87 7785.83,212.91 7796.00,210.50              7804.07,208.59 7811.15,209.32 7819.00,205.68              7828.35,201.34 7829.87,196.47 7838.00,193.09              7847.79,189.02 7869.20,184.70 7880.00,183.29              7880.00,183.29 7888.00,182.70 7888.00,182.70              7888.00,182.70 7911.00,177.51 7911.00,177.51              7917.62,176.38 7919.66,178.74 7928.00,177.51              7928.00,177.51 7952.00,172.46 7952.00,172.46              7961.78,170.61 7967.32,171.02 7977.00,171.00              7985.65,170.99 7990.78,169.54 7999.00,168.27              7999.00,168.27 8020.00,165.07 8020.00,165.07              8020.00,165.07 8034.00,159.53 8034.00,159.53              8034.00,159.53 8045.00,158.56 8045.00,158.56              8045.00,158.56 8063.00,155.33 8063.00,155.33              8071.51,154.60 8079.45,160.20 8086.00,164.86              8095.16,171.38 8103.25,177.44 8115.00,176.96              8127.29,176.46 8141.48,166.04 8153.00,166.08              8160.88,166.11 8164.62,170.73 8171.00,174.09              8175.45,176.44 8179.06,176.94 8184.00,177.00              8187.89,177.04 8192.43,176.58 8195.96,178.45              8200.61,180.92 8202.25,186.36 8203.95,191.00              8209.41,205.90 8207.35,212.27 8209.29,227.00              8211.02,240.13 8213.81,236.82 8214.00,253.00              8214.00,253.00 8219.55,292.00 8219.55,292.00              8219.55,292.00 8217.27,306.00 8217.27,306.00              8215.76,315.81 8214.89,325.06 8215.00,335.00              8215.00,335.00 8215.92,346.00 8215.92,346.00              8215.92,346.00 8215.04,357.00 8215.04,357.00              8215.04,357.00 8216.00,368.00 8216.00,368.00              8216.00,368.00 8215.00,394.00 8215.00,394.00              8215.00,394.00 8213.00,412.00 8213.00,412.00              8213.00,412.00 8213.62,425.00 8213.62,425.00              8213.62,425.00 8212.00,438.00 8212.00,438.00              8211.89,447.71 8213.55,452.89 8214.72,462.00              8214.72,462.00 8216.17,477.00 8216.17,477.00              8216.59,481.02 8218.02,484.93 8217.67,489.00              8217.67,489.00 8216.09,499.00 8216.09,499.00              8215.40,509.53 8218.48,502.66 8214.39,524.00              8212.93,531.59 8209.03,538.35 8209.03,546.00              8209.03,555.16 8212.49,557.60 8214.51,565.00              8216.73,573.11 8215.47,575.18 8216.30,581.00              8216.30,581.00 8218.83,593.00 8218.83,593.00              8220.93,611.83 8215.51,612.85 8216.04,626.00              8216.04,626.00 8217.97,640.00 8217.97,640.00              8217.97,640.00 8216.00,655.00 8216.00,655.00              8216.00,655.00 8218.30,682.00 8218.30,682.00              8218.82,685.64 8219.92,688.02 8219.92,692.00              8219.92,692.00 8218.01,707.00 8218.01,707.00              8217.78,717.37 8220.60,721.97 8220.66,727.00              8220.66,727.00 8218.09,750.00 8218.09,750.00              8218.09,750.00 8218.09,769.00 8218.09,769.00              8218.09,769.00 8220.00,795.00 8220.00,795.00              8220.00,795.00 8220.00,827.00 8220.00,827.00              8220.00,827.00 8218.19,851.00 8218.19,851.00              8218.66,856.75 8221.31,860.91 8220.91,868.00              8220.91,868.00 8217.18,892.00 8217.18,892.00              8217.20,897.88 8220.14,900.69 8220.00,913.00              8220.00,913.00 8218.00,935.00 8218.00,935.00              8218.00,935.00 8218.00,939.00 8218.00,939.00              8218.14,950.26 8221.98,949.32 8222.00,963.00              8222.00,963.00 8222.00,994.00 8222.00,994.00              8222.00,994.00 8221.10,1006.00 8221.10,1006.00              8221.10,1006.00 8222.66,1019.00 8222.66,1019.00              8222.66,1019.00 8222.04,1029.00 8222.04,1029.00              8222.04,1029.00 8223.00,1042.00 8223.00,1042.00              8223.00,1042.00 8223.00,1070.00 8223.00,1070.00              8222.77,1089.43 8209.43,1088.61 8210.04,1107.00              8210.39,1117.51 8215.88,1121.73 8218.00,1127.00              8218.00,1127.00 8221.26,1144.00 8221.26,1144.00              8223.13,1153.80 8224.98,1151.87 8225.00,1164.00              8225.00,1164.00 8225.00,1171.00 8225.00,1171.00              8225.00,1171.00 8225.90,1181.00 8225.90,1181.00              8225.90,1181.00 8224.83,1195.00 8224.83,1195.00              8223.52,1207.08 8220.80,1205.75 8221.00,1223.00              8221.00,1223.00 8222.82,1238.00 8222.82,1238.00              8222.82,1238.00 8221.10,1253.00 8221.10,1253.00              8221.10,1253.00 8222.00,1266.00 8222.00,1266.00              8222.07,1279.72 8225.28,1283.26 8225.42,1289.00              8225.42,1289.00 8223.70,1311.00 8223.70,1311.00              8223.70,1311.00 8222.18,1320.00 8222.18,1320.00              8222.18,1320.00 8227.63,1360.00 8227.63,1360.00              8227.63,1360.00 8224.04,1392.00 8224.04,1392.00              8224.04,1392.00 8225.91,1406.00 8225.91,1406.00              8225.91,1406.00 8228.09,1451.00 8228.09,1451.00              8228.09,1451.00 8229.96,1473.00 8229.96,1473.00              8229.96,1473.00 8229.96,1485.00 8229.96,1485.00              8229.61,1489.37 8228.84,1490.97 8229.04,1496.00              8229.04,1496.00 8230.91,1508.00 8230.91,1508.00              8230.91,1508.00 8230.91,1525.00 8230.91,1525.00              8230.95,1528.61 8229.99,1537.73 8228.90,1541.00              8226.21,1549.03 8221.40,1554.10 8222.10,1564.00              8222.62,1571.49 8226.90,1574.46 8227.83,1583.00              8227.83,1583.00 8229.29,1606.00 8229.29,1606.00              8229.29,1606.00 8231.90,1620.00 8231.90,1620.00              8231.90,1620.00 8231.90,1630.00 8231.90,1630.00              8232.30,1633.13 8232.93,1634.72 8232.68,1638.00              8232.68,1638.00 8231.08,1649.00 8231.08,1649.00              8231.08,1649.00 8231.08,1663.00 8231.08,1663.00              8231.08,1663.00 8229.00,1687.00 8229.00,1687.00              8229.00,1687.00 8229.00,1705.00 8229.00,1705.00              8229.00,1705.00 8231.91,1731.00 8231.91,1731.00              8232.44,1738.78 8230.99,1744.51 8230.51,1752.00              8230.51,1752.00 8233.00,1778.00 8233.00,1778.00              8232.87,1789.05 8227.51,1798.57 8228.09,1808.00              8228.61,1816.41 8233.37,1821.17 8234.68,1829.00              8235.96,1836.70 8233.77,1843.00 8234.04,1850.00              8234.04,1850.00 8235.00,1864.00 8235.00,1864.00              8235.00,1864.00 8233.00,1892.00 8233.00,1892.00              8233.00,1892.00 8234.00,1914.00 8234.00,1914.00              8234.00,1914.00 8235.96,1941.00 8235.96,1941.00              8235.96,1941.00 8233.29,1958.00 8233.29,1958.00              8233.29,1958.00 8232.71,1969.00 8232.71,1969.00              8232.71,1969.00 8231.18,1979.00 8231.18,1979.00              8231.18,1979.00 8234.00,2006.00 8234.00,2006.00              8234.00,2006.00 8233.00,2023.00 8233.00,2023.00              8233.00,2023.00 8234.00,2038.00 8234.00,2038.00              8234.00,2038.00 8237.00,2076.00 8237.00,2076.00              8236.89,2084.66 8234.28,2086.74 8234.04,2094.00              8233.77,2102.18 8236.91,2106.44 8237.13,2112.00              8237.13,2112.00 8237.13,2127.00 8237.13,2127.00              8237.13,2127.00 8237.66,2136.00 8237.66,2136.00              8237.66,2136.00 8237.09,2145.00 8237.09,2145.00              8237.09,2145.00 8238.00,2157.00 8238.00,2157.00              8238.00,2157.00 8238.00,2198.00 8238.00,2198.00              8238.00,2198.00 8237.09,2211.00 8237.09,2211.00              8237.09,2211.00 8238.00,2227.00 8238.00,2227.00              8238.00,2227.00 8239.62,2240.00 8239.62,2240.00              8239.62,2240.00 8239.01,2252.00 8239.01,2252.00              8239.01,2252.00 8239.99,2266.00 8239.99,2266.00              8239.99,2266.00 8239.00,2278.00 8239.00,2278.00              8239.00,2278.00 8239.00,2298.00 8239.00,2298.00              8239.00,2298.00 8239.68,2309.00 8239.68,2309.00              8239.68,2309.00 8239.04,2317.00 8239.04,2317.00              8239.04,2317.00 8239.54,2324.00 8239.54,2324.00              8239.40,2328.16 8237.76,2330.87 8238.04,2338.00              8238.04,2338.00 8239.04,2351.00 8239.04,2351.00              8239.04,2351.00 8239.04,2364.00 8239.04,2364.00              8239.04,2364.00 8240.00,2378.00 8240.00,2378.00              8240.00,2378.00 8239.09,2391.00 8239.09,2391.00              8239.09,2391.00 8240.00,2405.00 8240.00,2405.00              8240.00,2405.00 8239.18,2419.00 8239.18,2419.00              8239.18,2419.00 8241.00,2441.00 8241.00,2441.00              8241.00,2441.00 8241.00,2468.00 8241.00,2468.00              8241.00,2468.00 8242.00,2487.00 8242.00,2487.00              8242.00,2487.00 8241.10,2499.00 8241.10,2499.00              8241.10,2499.00 8242.68,2515.00 8242.68,2515.00              8242.68,2515.00 8242.04,2524.00 8242.04,2524.00              8242.04,2524.00 8242.99,2535.00 8242.99,2535.00              8242.99,2535.00 8242.05,2545.00 8242.05,2545.00              8242.05,2545.00 8242.05,2560.00 8242.05,2560.00              8242.05,2560.00 8243.00,2575.00 8243.00,2575.00              8243.00,2575.00 8243.00,2608.00 8243.00,2608.00              8243.00,2608.00 8244.00,2623.00 8244.00,2623.00              8244.00,2623.00 8244.00,2661.00 8244.00,2661.00              8244.00,2661.00 8243.04,2677.00 8243.04,2677.00              8243.04,2677.00 8244.26,2696.00 8244.26,2696.00              8244.26,2696.00 8244.26,2704.00 8244.26,2704.00              8244.26,2704.00 8244.99,2715.00 8244.99,2715.00              8244.99,2715.00 8244.04,2725.00 8244.04,2725.00              8244.04,2725.00 8244.04,2737.00 8244.04,2737.00              8244.04,2737.00 8242.04,2757.00 8242.04,2757.00              8242.04,2757.00 8242.91,2765.00 8242.91,2765.00              8242.91,2765.00 8244.09,2787.00 8244.09,2787.00              8244.09,2787.00 8244.95,2797.00 8244.95,2797.00              8244.95,2797.00 8244.95,2809.00 8244.95,2809.00              8244.95,2809.00 8244.01,2819.00 8244.01,2819.00              8244.01,2819.00 8245.00,2832.00 8245.00,2832.00              8245.00,2832.00 8246.00,2876.00 8246.00,2876.00              8246.00,2876.00 8246.96,2892.00 8246.96,2892.00              8246.96,2892.00 8246.09,2900.00 8246.09,2900.00              8246.09,2900.00 8246.82,2910.00 8246.82,2910.00              8246.82,2910.00 8246.08,2918.00 8246.08,2918.00              8246.08,2918.00 8246.99,2931.00 8246.99,2931.00              8246.99,2931.00 8245.00,2953.00 8245.00,2953.00              8245.00,2953.00 8248.00,2980.00 8248.00,2980.00              8247.98,2991.58 8245.30,2993.35 8245.04,3001.00              8244.92,3004.75 8245.50,3006.54 8245.96,3010.00              8245.96,3010.00 8245.96,3019.00 8245.96,3019.00              8245.96,3019.00 8247.00,3031.00 8247.00,3031.00              8247.00,3031.00 8247.00,3056.00 8247.00,3056.00              8247.00,3056.00 8246.01,3073.00 8246.01,3073.00              8246.01,3073.00 8247.00,3087.00 8247.00,3087.00              8247.00,3087.00 8247.00,3099.00 8247.00,3099.00              8247.00,3099.00 8248.00,3120.00 8248.00,3120.00              8248.00,3120.00 8247.05,3130.00 8247.05,3130.00              8247.05,3130.00 8247.05,3146.00 8247.05,3146.00              8247.05,3146.00 8248.00,3161.00 8248.00,3161.00              8248.00,3161.00 8248.00,3180.00 8248.00,3180.00              8248.00,3180.00 8247.09,3191.00 8247.09,3191.00              8247.09,3191.00 8248.16,3206.00 8248.16,3206.00              8247.59,3210.98 8244.73,3215.63 8245.18,3222.00              8245.18,3222.00 8246.00,3235.00 8246.00,3235.00              8246.00,3235.00 8250.00,3264.00 8250.00,3264.00              8250.00,3264.00 8250.00,3293.00 8250.00,3293.00              8250.00,3293.00 8248.54,3314.00 8248.54,3314.00              8247.61,3319.26 8244.92,3326.80 8245.21,3332.00              8245.21,3332.00 8247.00,3342.00 8247.00,3342.00              8247.00,3342.00 8247.00,3352.00 8247.00,3352.00              8247.00,3352.00 8249.00,3373.00 8249.00,3373.00              8249.00,3373.00 8251.96,3399.00 8251.96,3399.00              8251.96,3399.00 8251.00,3411.00 8251.00,3411.00              8251.00,3411.00 8251.00,3420.00 8251.00,3420.00              8251.00,3420.00 8251.96,3434.00 8251.96,3434.00              8251.96,3434.00 8251.03,3444.00 8251.03,3444.00              8251.03,3444.00 8251.95,3453.00 8251.95,3453.00              8251.95,3453.00 8251.95,3465.00 8251.95,3465.00              8251.95,3465.00 8251.05,3475.00 8251.05,3475.00              8251.05,3475.00 8251.05,3491.00 8251.05,3491.00              8251.05,3491.00 8251.96,3506.00 8251.96,3506.00              8251.96,3506.00 8248.00,3544.00 8248.00,3544.00              8248.00,3544.00 8250.00,3561.00 8250.00,3561.00              8250.16,3575.25 8251.24,3569.88 8252.85,3580.00              8252.85,3580.00 8252.85,3597.00 8252.85,3597.00              8252.89,3606.30 8249.49,3610.92 8250.18,3618.00              8250.95,3626.00 8255.31,3629.28 8254.89,3637.00              8254.55,3643.24 8250.74,3648.06 8251.04,3657.00              8251.30,3664.75 8254.47,3667.83 8254.90,3674.00              8254.90,3674.00 8254.08,3685.00 8254.08,3685.00              8254.08,3685.00 8254.99,3698.00 8254.99,3698.00              8254.85,3704.05 8253.44,3706.54 8252.46,3712.00              8252.46,3712.00 8250.04,3736.00 8250.04,3736.00              8250.04,3736.00 8250.91,3744.00 8250.91,3744.00              8250.91,3744.00 8252.29,3764.00 8252.29,3764.00              8252.29,3764.00 8254.00,3773.00 8254.00,3773.00              8254.00,3773.00 8254.00,3781.00 8254.00,3781.00              8254.92,3788.01 8255.98,3786.07 8256.00,3796.00              8256.00,3796.00 8256.00,3827.00 8256.00,3827.00              8256.00,3827.00 8256.91,3845.00 8256.91,3845.00              8256.91,3845.00 8254.34,3873.00 8254.34,3873.00              8254.34,3873.00 8255.82,3884.00 8255.82,3884.00              8255.82,3884.00 8255.04,3894.00 8255.04,3894.00              8255.04,3894.00 8257.74,3923.00 8257.74,3923.00              8257.74,3923.00 8255.10,3937.00 8255.10,3937.00              8255.10,3937.00 8256.45,3951.00 8256.45,3951.00              8255.92,3955.90 8253.74,3959.64 8254.19,3965.00              8254.63,3970.37 8258.93,3981.48 8259.00,3997.00              8259.00,3997.00 8259.00,4001.00 8259.00,4001.00              8259.00,4001.00 8259.96,4016.00 8259.96,4016.00              8259.96,4016.00 8258.04,4029.00 8258.04,4029.00              8258.04,4029.00 8258.04,4038.00 8258.04,4038.00              8258.04,4038.00 8256.00,4067.00 8256.00,4067.00              8256.10,4075.02 8257.63,4075.57 8258.84,4082.00              8258.84,4082.00 8258.84,4097.00 8258.84,4097.00              8258.84,4097.00 8259.69,4110.00 8259.69,4110.00              8259.69,4110.00 8257.18,4123.00 8257.18,4123.00              8257.18,4123.00 8259.73,4141.00 8259.73,4141.00              8259.44,4146.28 8255.74,4149.92 8256.04,4159.00              8256.04,4159.00 8258.83,4174.00 8258.83,4174.00              8258.83,4174.00 8261.00,4211.00 8261.00,4211.00              8261.00,4211.00 8261.00,4228.00 8261.00,4228.00              8261.00,4228.00 8260.04,4240.00 8260.04,4240.00              8260.04,4240.00 8260.04,4256.00 8260.04,4256.00              8260.02,4266.71 8262.81,4271.98 8262.82,4277.00              8262.82,4277.00 8261.08,4288.00 8261.08,4288.00              8261.08,4288.00 8261.08,4297.00 8261.08,4297.00              8261.08,4297.00 8260.04,4308.00 8260.04,4308.00              8259.70,4316.79 8262.21,4318.16 8261.96,4326.00              8261.96,4326.00 8261.04,4334.00 8261.04,4334.00              8261.04,4334.00 8261.04,4344.00 8261.04,4344.00              8261.04,4344.00 8260.00,4359.00 8260.00,4359.00              8260.00,4359.00 8260.82,4376.00 8260.82,4376.00              8260.82,4376.00 8259.18,4395.00 8259.18,4395.00              8259.18,4395.00 8260.82,4407.00 8260.82,4407.00              8260.82,4407.00 8259.96,4420.00 8259.96,4420.00              8259.96,4420.00 8259.96,4430.00 8259.96,4430.00              8259.65,4433.79 8258.84,4435.86 8259.09,4440.00              8259.73,4450.28 8264.98,4451.12 8265.00,4466.00              8265.00,4466.00 8265.00,4477.00 8265.00,4477.00              8264.92,4483.28 8263.46,4487.40 8264.17,4494.00              8264.17,4494.00 8267.39,4508.00 8267.39,4508.00              8267.39,4508.00 8265.00,4540.00 8265.00,4540.00              8265.00,4540.00 8266.00,4565.00 8266.00,4565.00              8265.92,4571.78 8263.45,4578.21 8264.17,4585.00              8265.07,4593.40 8269.06,4595.32 8267.56,4605.00              8264.65,4623.83 8258.05,4628.19 8258.08,4638.00              8258.10,4643.94 8261.27,4649.29 8262.48,4655.00              8262.48,4655.00 8263.17,4669.00 8263.17,4669.00              8263.17,4669.00 8266.08,4681.00 8266.08,4681.00              8266.08,4681.00 8266.08,4692.00 8266.08,4692.00              8266.08,4692.00 8267.17,4717.00 8267.17,4717.00              8267.17,4717.00 8268.92,4729.00 8268.92,4729.00              8268.92,4729.00 8266.21,4753.00 8266.21,4753.00              8265.93,4758.58 8268.82,4763.78 8268.82,4769.00              8268.82,4769.00 8266.15,4782.00 8266.15,4782.00              8266.15,4782.00 8266.15,4796.00 8266.15,4796.00              8265.83,4808.69 8259.21,4806.64 8260.04,4825.00              8260.04,4825.00 8262.66,4840.00 8262.66,4840.00              8263.17,4844.99 8261.01,4850.12 8262.66,4860.00              8262.66,4860.00 8266.78,4890.00 8266.78,4890.00              8266.30,4895.31 8262.77,4898.58 8260.35,4903.00              8257.70,4907.84 8256.82,4912.52 8257.04,4918.00              8257.04,4918.00 8265.74,4952.00 8265.74,4952.00              8265.74,4952.00 8267.29,4968.00 8267.29,4968.00              8267.29,4968.00 8269.05,4978.00 8269.05,4978.00              8269.05,4978.00 8269.05,4987.00 8269.05,4987.00              8269.05,4987.00 8272.91,5000.00 8272.91,5000.00              8272.91,5000.00 8272.91,5033.00 8272.91,5033.00              8272.95,5037.28 8271.89,5046.08 8270.44,5050.00              8270.44,5050.00 8264.22,5063.00 8264.22,5063.00              8261.83,5070.65 8264.51,5073.09 8260.19,5080.00              8255.11,5088.11 8247.58,5091.08 8242.64,5098.00              8240.15,5101.48 8239.12,5104.92 8238.13,5109.00              8234.34,5124.61 8240.29,5133.41 8253.00,5142.00              8253.00,5142.00 8243.55,5165.00 8243.55,5165.00              8243.55,5165.00 8239.55,5174.00 8239.55,5174.00              8239.55,5174.00 8225.44,5226.00 8225.44,5226.00              8225.44,5226.00 8224.82,5238.00 8224.82,5238.00              8224.82,5238.00 8222.22,5249.00 8222.22,5249.00              8222.22,5249.00 8222.22,5267.00 8222.22,5267.00              8222.22,5267.00 8221.04,5281.00 8221.04,5281.00              8221.37,5289.31 8224.90,5292.22 8223.54,5300.00              8221.83,5309.72 8216.29,5315.86 8211.45,5324.00              8208.40,5329.12 8206.71,5334.71 8201.96,5338.61              8197.91,5341.94 8193.80,5342.53 8189.00,5343.91              8184.08,5345.32 8177.85,5348.23 8173.00,5348.99              8173.00,5348.99 8165.00,5348.99 8165.00,5348.99              8165.00,5348.99 8148.00,5353.82 8148.00,5353.82              8140.90,5354.68 8136.62,5352.77 8131.00,5353.09              8131.00,5353.09 8124.00,5353.91 8124.00,5353.91              8119.71,5354.15 8117.87,5353.35 8114.00,5353.04              8114.00,5353.04 8104.00,5353.04 8104.00,5353.04              8104.00,5353.04 8081.00,5351.21 8081.00,5351.21              8081.00,5351.21 8066.00,5353.00 8066.00,5353.00              8066.00,5353.00 8037.00,5354.09 8037.00,5354.09              8027.32,5354.77 8030.58,5356.18 8015.00,5356.00              8015.00,5356.00 7993.00,5354.04 7993.00,5354.04              7993.00,5354.04 7979.00,5354.04 7979.00,5354.04              7979.00,5354.04 7963.00,5353.04 7963.00,5353.04              7963.00,5353.04 7939.00,5355.00 7939.00,5355.00              7939.00,5355.00 7923.00,5354.09 7923.00,5354.09              7923.00,5354.09 7897.00,5356.92 7897.00,5356.92              7897.00,5356.92 7880.00,5355.10 7880.00,5355.10              7880.00,5355.10 7870.00,5355.96 7870.00,5355.96              7870.00,5355.96 7854.00,5355.00 7854.00,5355.00              7854.00,5355.00 7797.00,5355.00 7797.00,5355.00              7797.00,5355.00 7782.00,5356.00 7782.00,5356.00              7782.00,5356.00 7763.00,5356.00 7763.00,5356.00              7763.00,5356.00 7747.00,5356.96 7747.00,5356.96              7740.61,5356.71 7737.10,5354.64 7730.00,5355.09              7730.00,5355.09 7704.00,5357.82 7704.00,5357.82              7697.56,5357.33 7697.54,5356.01 7688.00,5356.08              7688.00,5356.08 7674.00,5356.08 7674.00,5356.08              7674.00,5356.08 7665.00,5357.48 7665.00,5357.48              7665.00,5357.48 7648.00,5356.00 7648.00,5356.00              7648.00,5356.00 7636.00,5356.00 7636.00,5356.00              7636.00,5356.00 7614.00,5355.00 7614.00,5355.00              7614.00,5355.00 7587.00,5357.00 7587.00,5357.00              7587.00,5357.00 7558.00,5357.00 7558.00,5357.00              7558.00,5357.00 7537.00,5358.00 7537.00,5358.00              7537.00,5358.00 7527.00,5358.82 7527.00,5358.82              7527.00,5358.82 7512.00,5357.08 7512.00,5357.08              7512.00,5357.08 7503.00,5357.08 7503.00,5357.08              7503.00,5357.08 7491.00,5356.18 7491.00,5356.18              7491.00,5356.18 7468.00,5358.79 7468.00,5358.79              7468.00,5358.79 7451.00,5357.32 7451.00,5357.32              7443.80,5356.79 7434.86,5361.30 7430.00,5361.38              7424.83,5361.46 7422.05,5358.12 7412.00,5358.00              7412.00,5358.00 7408.00,5358.00 7408.00,5358.00              7408.00,5358.00 7382.00,5360.00 7382.00,5360.00              7382.00,5360.00 7372.00,5360.00 7372.00,5360.00              7372.00,5360.00 7360.00,5359.18 7360.00,5359.18              7360.00,5359.18 7327.00,5362.00 7327.00,5362.00              7327.00,5362.00 7312.00,5361.00 7312.00,5361.00              7312.00,5361.00 7272.00,5361.00 7272.00,5361.00              7256.73,5361.02 7260.42,5364.98 7246.00,5365.00              7246.00,5365.00 7216.00,5364.00 7216.00,5364.00              7216.00,5364.00 7200.00,5365.00 7200.00,5365.00              7200.00,5365.00 7182.00,5364.00 7182.00,5364.00              7182.00,5364.00 7161.00,5365.61 7161.00,5365.61              7154.89,5365.13 7152.64,5361.80 7142.00,5362.02              7132.17,5362.21 7129.22,5366.15 7124.00,5366.50              7124.00,5366.50 7109.00,5364.08 7109.00,5364.08              7109.00,5364.08 7092.00,5365.91 7092.00,5365.91              7085.26,5366.37 7082.87,5365.42 7077.00,5365.09              7077.00,5365.09 7048.00,5368.66 7048.00,5368.66              7048.00,5368.66 7019.00,5364.01 7019.00,5364.01              7019.00,5364.01 6999.00,5364.96 6999.00,5364.96              6999.00,5364.96 6973.00,5363.19 6973.00,5363.19              6973.00,5363.19 6956.00,5366.74 6956.00,5366.74              6956.00,5366.74 6944.00,5365.17 6944.00,5365.17              6944.00,5365.17 6919.00,5364.04 6919.00,5364.04              6919.00,5364.04 6906.00,5365.83 6906.00,5365.83              6906.00,5365.83 6883.00,5367.00 6883.00,5367.00              6873.38,5366.89 6871.64,5364.05 6861.00,5364.00              6861.00,5364.00 6827.00,5364.00 6827.00,5364.00              6827.00,5364.00 6809.00,5365.29 6809.00,5365.29              6802.67,5366.11 6801.23,5367.27 6794.00,5366.96              6794.00,5366.96 6783.00,5365.29 6783.00,5365.29              6783.00,5365.29 6757.00,5363.09 6757.00,5363.09              6757.00,5363.09 6725.00,5366.44 6725.00,5366.44              6719.61,5367.28 6709.87,5370.04 6705.00,5369.68              6691.21,5368.65 6692.73,5370.66 6681.00,5371.83              6681.00,5371.83 6659.00,5373.17 6659.00,5373.17              6659.00,5373.17 6645.00,5375.00 6645.00,5375.00              6638.82,5375.07 6636.14,5374.74 6630.00,5376.75              6622.18,5379.31 6619.16,5382.96 6610.00,5381.82              6604.21,5381.10 6600.90,5377.98 6596.00,5375.31              6590.36,5372.24 6582.47,5369.73 6576.00,5370.09              6576.00,5370.09 6563.00,5371.79 6563.00,5371.79              6563.00,5371.79 6552.00,5371.00 6552.00,5371.00              6552.00,5371.00 6548.00,5371.00 6548.00,5371.00              6548.00,5371.00 6535.00,5370.00 6535.00,5370.00              6535.00,5370.00 6511.00,5370.00 6511.00,5370.00              6511.00,5370.00 6500.00,5369.21 6500.00,5369.21              6500.00,5369.21 6466.00,5372.82 6466.00,5372.82              6466.00,5372.82 6458.00,5372.01 6458.00,5372.01              6458.00,5372.01 6435.00,5373.17 6435.00,5373.17              6430.90,5373.56 6429.56,5374.14 6425.00,5373.96              6425.00,5373.96 6381.00,5367.00 6381.00,5367.00              6381.00,5367.00 6361.00,5367.00 6361.00,5367.00              6355.37,5366.99 6349.22,5365.53 6344.00,5366.46              6335.49,5367.99 6333.07,5371.35 6323.00,5370.96              6323.00,5370.96 6315.00,5370.04 6315.00,5370.04              6315.00,5370.04 6307.00,5370.04 6307.00,5370.04              6307.00,5370.04 6296.00,5369.04 6296.00,5369.04              6296.00,5369.04 6285.00,5369.04 6285.00,5369.04              6285.00,5369.04 6271.00,5368.19 6271.00,5368.19              6261.58,5368.97 6255.63,5374.85 6243.00,5375.00              6243.00,5375.00 6215.00,5373.00 6215.00,5373.00              6206.08,5372.89 6203.92,5370.28 6196.00,5367.75              6196.00,5367.75 6168.00,5360.52 6168.00,5360.52              6168.00,5360.52 6154.00,5358.10 6154.00,5358.10              6142.91,5355.29 6143.62,5353.02 6130.00,5353.00              6130.00,5353.00 6088.00,5352.00 6088.00,5352.00              6088.00,5352.00 6073.00,5351.09 6073.00,5351.09              6067.80,5351.41 6062.98,5353.54 6058.00,5354.84              6058.00,5354.84 6044.00,5357.42 6044.00,5357.42              6034.40,5360.05 6029.13,5362.98 6019.00,5363.00              6019.00,5363.00 5988.00,5364.00 5988.00,5364.00              5988.00,5364.00 5971.00,5365.00 5971.00,5365.00              5971.00,5365.00 5953.00,5364.04 5953.00,5364.04              5946.60,5364.26 5940.39,5367.27 5934.00,5366.82              5934.00,5366.82 5913.00,5365.00 5913.00,5365.00              5913.00,5365.00 5891.00,5365.00 5891.00,5365.00              5891.00,5365.00 5874.00,5364.01 5874.00,5364.01              5874.00,5364.01 5861.00,5365.00 5861.00,5365.00              5861.00,5365.00 5842.00,5364.00 5842.00,5364.00              5842.00,5364.00 5821.00,5365.00 5821.00,5365.00              5821.00,5365.00 5809.00,5364.10 5809.00,5364.10              5809.00,5364.10 5792.00,5365.82 5792.00,5365.82              5792.00,5365.82 5766.00,5363.00 5766.00,5363.00              5766.00,5363.00 5747.00,5363.00 5747.00,5363.00              5747.00,5363.00 5724.00,5364.66 5724.00,5364.66              5724.00,5364.66 5703.00,5363.09 5703.00,5363.09              5703.00,5363.09 5689.00,5364.30 5689.00,5364.30              5678.53,5365.80 5681.18,5367.15 5668.00,5367.00              5668.00,5367.00 5654.00,5366.00 5654.00,5366.00              5654.00,5366.00 5637.00,5366.00 5637.00,5366.00              5637.00,5366.00 5624.00,5365.01 5624.00,5365.01              5624.00,5365.01 5609.00,5365.91 5609.00,5365.91              5603.34,5365.56 5597.13,5362.80 5591.00,5363.10              5585.31,5363.38 5581.19,5365.80 5576.00,5367.48              5576.00,5367.48 5560.00,5370.71 5560.00,5370.71              5560.00,5370.71 5540.00,5371.82 5540.00,5371.82              5535.95,5371.51 5532.11,5369.99 5528.00,5370.21              5528.00,5370.21 5504.00,5372.99 5504.00,5372.99              5504.00,5372.99 5489.00,5372.04 5489.00,5372.04              5489.00,5372.04 5478.00,5372.91 5478.00,5372.91              5478.00,5372.91 5467.00,5372.00 5467.00,5372.00              5467.00,5372.00 5438.00,5372.00 5438.00,5372.00              5438.00,5372.00 5416.00,5370.08 5416.00,5370.08              5416.00,5370.08 5400.00,5371.00 5400.00,5371.00              5400.00,5371.00 5386.00,5370.12 5386.00,5370.12              5386.00,5370.12 5371.00,5370.12 5371.00,5370.12              5371.00,5370.12 5357.00,5369.04 5357.00,5369.04              5357.00,5369.04 5343.00,5369.04 5343.00,5369.04              5343.00,5369.04 5333.00,5370.00 5333.00,5370.00              5333.00,5370.00 5315.00,5370.71 5315.00,5370.71              5315.00,5370.71 5281.00,5366.09 5281.00,5366.09              5281.00,5366.09 5266.00,5367.00 5266.00,5367.00              5266.00,5367.00 5243.00,5368.30 5243.00,5368.30              5243.00,5368.30 5229.00,5370.91 5229.00,5370.91              5229.00,5370.91 5210.00,5370.24 5210.00,5370.24              5202.71,5370.09 5195.27,5372.14 5188.00,5370.24              5179.33,5368.48 5175.07,5362.17 5161.00,5362.00              5161.00,5362.00 5111.00,5365.91 5111.00,5365.91              5111.00,5365.91 5089.00,5365.17 5089.00,5365.17              5089.00,5365.17 5066.00,5369.85 5066.00,5369.85              5066.00,5369.85 5049.00,5369.85 5049.00,5369.85              5049.00,5369.85 5035.00,5369.00 5035.00,5369.00              5035.00,5369.00 5016.00,5370.00 5016.00,5370.00              5016.00,5370.00 4986.00,5373.98 4986.00,5373.98              4986.00,5373.98 4971.00,5373.00 4971.00,5373.00              4971.00,5373.00 4929.00,5370.18 4929.00,5370.18              4929.00,5370.18 4912.00,5371.00 4912.00,5371.00              4912.00,5371.00 4892.00,5372.82 4892.00,5372.82              4892.00,5372.82 4876.00,5372.00 4876.00,5372.00              4876.00,5372.00 4861.00,5371.01 4861.00,5371.01              4861.00,5371.01 4849.00,5371.96 4849.00,5371.96              4849.00,5371.96 4830.00,5370.04 4830.00,5370.04              4830.00,5370.04 4813.00,5370.04 4813.00,5370.04              4813.00,5370.04 4802.00,5370.96 4802.00,5370.96              4802.00,5370.96 4778.00,5368.00 4778.00,5368.00              4778.00,5368.00 4764.00,5368.00 4764.00,5368.00              4764.00,5368.00 4748.00,5367.01 4748.00,5367.01              4748.00,5367.01 4730.00,5368.99 4730.00,5368.99              4730.00,5368.99 4702.00,5365.01 4702.00,5365.01              4702.00,5365.01 4683.00,5365.96 4683.00,5365.96              4683.00,5365.96 4642.00,5360.80 4642.00,5360.80              4634.07,5359.40 4629.37,5353.03 4618.00,5353.03              4610.36,5353.03 4607.54,5355.33 4601.00,5358.13              4601.00,5358.13 4591.00,5361.87 4591.00,5361.87              4579.88,5366.64 4579.34,5368.94 4566.00,5368.96              4566.00,5368.96 4554.00,5368.96 4554.00,5368.96              4554.00,5368.96 4544.00,5368.01 4544.00,5368.01              4544.00,5368.01 4532.00,5368.99 4532.00,5368.99              4532.00,5368.99 4510.00,5367.18 4510.00,5367.18              4510.00,5367.18 4481.00,5369.96 4481.00,5369.96              4481.00,5369.96 4450.00,5367.32 4450.00,5367.32              4450.00,5367.32 4423.00,5371.00 4423.00,5371.00              4410.42,5371.06 4411.43,5372.48 4404.00,5372.91              4404.00,5372.91 4389.00,5372.00 4389.00,5372.00              4389.00,5372.00 4365.00,5370.89 4365.00,5370.89              4365.00,5370.89 4356.00,5370.89 4356.00,5370.89              4349.96,5369.83 4344.19,5366.68 4338.00,5367.19              4338.00,5367.19 4317.00,5372.77 4317.00,5372.77              4317.00,5372.77 4296.00,5372.77 4296.00,5372.77              4296.00,5372.77 4283.00,5372.08 4283.00,5372.08              4283.00,5372.08 4270.00,5373.00 4270.00,5373.00              4260.26,5373.02 4250.62,5372.12 4241.00,5370.56              4241.00,5370.56 4223.00,5365.51 4223.00,5365.51              4223.00,5365.51 4198.00,5360.86 4198.00,5360.86              4198.00,5360.86 4179.70,5349.37 4179.70,5349.37              4177.29,5346.82 4174.12,5335.30 4164.00,5335.37              4158.04,5335.41 4152.37,5340.97 4149.91,5346.00              4148.54,5348.81 4148.10,5351.93 4145.58,5354.01              4145.58,5354.01 4132.00,5360.00 4132.00,5360.00              4118.60,5365.74 4112.39,5369.98 4097.00,5370.00              4097.00,5370.00 4092.00,5370.00 4092.00,5370.00              4083.75,5370.10 4078.79,5372.70 4071.00,5373.94              4071.00,5373.94 4061.00,5373.94 4061.00,5373.94              4061.00,5373.94 4026.00,5377.09 4026.00,5377.09              4026.00,5377.09 4002.00,5378.99 4002.00,5378.99              4002.00,5378.99 3993.00,5378.22 3993.00,5378.22              3993.00,5378.22 3983.00,5378.22 3983.00,5378.22              3983.00,5378.22 3967.00,5375.09 3967.00,5375.09              3967.00,5375.09 3953.00,5375.99 3953.00,5375.99              3953.00,5375.99 3936.00,5374.04 3936.00,5374.04              3936.00,5374.04 3914.00,5375.00 3914.00,5375.00              3914.00,5375.00 3902.00,5374.01 3902.00,5374.01              3902.00,5374.01 3890.00,5374.96 3890.00,5374.96              3890.00,5374.96 3877.00,5374.96 3877.00,5374.96              3877.00,5374.96 3863.00,5375.91 3863.00,5375.91              3863.00,5375.91 3848.00,5375.00 3848.00,5375.00              3840.55,5374.91 3840.54,5373.76 3835.00,5373.09              3835.00,5373.09 3822.00,5373.09 3822.00,5373.09              3822.00,5373.09 3808.00,5372.18 3808.00,5372.18              3808.00,5372.18 3789.00,5373.99 3789.00,5373.99              3780.67,5373.79 3776.69,5370.82 3770.00,5370.18              3770.00,5370.18 3749.00,5371.00 3749.00,5371.00              3749.00,5371.00 3723.00,5372.68 3723.00,5372.68              3723.00,5372.68 3716.00,5372.01 3716.00,5372.01              3716.00,5372.01 3690.00,5374.00 3690.00,5374.00              3690.00,5374.00 3657.00,5371.00 3657.00,5371.00              3657.00,5371.00 3637.00,5371.00 3637.00,5371.00              3637.00,5371.00 3620.00,5372.82 3620.00,5372.82              3620.00,5372.82 3605.00,5372.00 3605.00,5372.00              3605.00,5372.00 3589.00,5373.00 3589.00,5373.00              3589.00,5373.00 3566.00,5373.00 3566.00,5373.00              3566.00,5373.00 3545.00,5370.10 3545.00,5370.10              3537.26,5370.48 3532.27,5374.32 3523.00,5373.96              3523.00,5373.96 3512.00,5373.00 3512.00,5373.00              3512.00,5373.00 3494.00,5374.00 3494.00,5374.00              3494.00,5374.00 3478.00,5375.00 3478.00,5375.00              3478.00,5375.00 3462.00,5375.00 3462.00,5375.00              3462.00,5375.00 3433.00,5372.00 3433.00,5372.00              3413.46,5371.78 3417.81,5376.97 3400.00,5377.00              3400.00,5377.00 3344.00,5378.00 3344.00,5378.00              3344.00,5378.00 3310.00,5379.90 3310.00,5379.90              3310.00,5379.90 3294.00,5376.30 3294.00,5376.30              3287.87,5375.42 3285.99,5376.80 3275.00,5374.34              3275.00,5374.34 3259.00,5370.19 3259.00,5370.19              3259.00,5370.19 3239.00,5372.00 3239.00,5372.00              3239.00,5372.00 3212.00,5370.34 3212.00,5370.34              3205.83,5370.98 3201.51,5374.67 3195.00,5374.95              3187.65,5375.28 3183.12,5372.31 3175.00,5373.17              3167.47,5373.97 3162.05,5377.67 3156.00,5378.68              3156.00,5378.68 3136.00,5378.00 3136.00,5378.00              3136.00,5378.00 3124.00,5378.97 3124.00,5378.97              3124.00,5378.97 3112.00,5378.09 3112.00,5378.09              3102.62,5378.67 3089.93,5385.64 3084.00,5386.67              3084.00,5386.67 3068.00,5387.75 3068.00,5387.75              3068.00,5387.75 3051.00,5391.61 3051.00,5391.61              3051.00,5391.61 3037.00,5390.04 3037.00,5390.04              3037.00,5390.04 3021.00,5391.00 3021.00,5391.00              3021.00,5391.00 3008.00,5391.00 3008.00,5391.00              3008.00,5391.00 2977.00,5394.00 2977.00,5394.00              2973.92,5394.01 2969.95,5394.15 2967.00,5393.47              2960.97,5392.09 2949.51,5384.76 2933.00,5384.04              2918.89,5383.42 2916.15,5387.49 2910.00,5387.65              2910.00,5387.65 2882.00,5385.18 2882.00,5385.18              2882.00,5385.18 2845.00,5386.00 2845.00,5386.00              2845.00,5386.00 2828.00,5387.00 2828.00,5387.00              2828.00,5387.00 2806.00,5387.00 2806.00,5387.00              2796.11,5386.95 2795.29,5384.96 2787.00,5383.46              2787.00,5383.46 2776.00,5382.10 2776.00,5382.10              2771.53,5381.04 2767.70,5379.41 2763.00,5379.09              2752.51,5378.37 2750.57,5383.05 2738.00,5381.83              2738.00,5381.83 2691.00,5374.10 2691.00,5374.10              2691.00,5374.10 2682.00,5374.10 2682.00,5374.10              2682.00,5374.10 2673.00,5373.03 2673.00,5373.03              2673.00,5373.03 2641.00,5378.00 2641.00,5378.00              2628.53,5378.14 2621.26,5377.67 2609.00,5374.76              2601.81,5373.06 2594.53,5369.66 2587.00,5370.09              2587.00,5370.09 2575.00,5371.92 2575.00,5371.92              2575.00,5371.92 2564.00,5371.92 2564.00,5371.92              2551.83,5372.15 2549.93,5376.36 2543.00,5378.87              2539.03,5380.31 2535.99,5379.75 2532.00,5380.46              2528.20,5381.14 2524.95,5382.58 2521.00,5382.16              2521.00,5382.16 2507.00,5378.46 2507.00,5378.46              2507.00,5378.46 2496.00,5377.83 2496.00,5377.83              2496.00,5377.83 2483.00,5375.75 2483.00,5375.75              2477.56,5374.81 2470.29,5372.78 2465.00,5373.09              2460.57,5373.35 2456.47,5375.02 2452.00,5374.68              2452.00,5374.68 2441.00,5373.08 2441.00,5373.08              2441.00,5373.08 2425.00,5373.08 2425.00,5373.08              2425.00,5373.08 2413.00,5372.02 2413.00,5372.02              2413.00,5372.02 2397.00,5373.00 2397.00,5373.00              2397.00,5373.00 2384.00,5372.09 2384.00,5372.09              2384.00,5372.09 2377.00,5373.00 2377.00,5373.00              2377.00,5373.00 2368.00,5373.00 2368.00,5373.00              2368.00,5373.00 2342.00,5378.90 2342.00,5378.90              2336.21,5379.16 2331.55,5376.77 2326.00,5376.17              2318.43,5375.36 2313.85,5376.92 2307.00,5377.00              2307.00,5377.00 2298.00,5377.00 2298.00,5377.00              2286.41,5376.94 2276.41,5373.67 2265.00,5379.38              2260.53,5381.61 2256.52,5385.15 2253.37,5389.00              2250.46,5392.56 2248.88,5396.23 2244.00,5397.57              2238.85,5398.98 2229.57,5397.07 2224.00,5397.00              2224.00,5397.00 2192.00,5394.00 2192.00,5394.00              2192.00,5394.00 2161.00,5393.00 2161.00,5393.00              2161.00,5393.00 2144.00,5393.96 2144.00,5393.96              2137.48,5393.67 2135.77,5391.74 2128.00,5392.04              2128.00,5392.04 2120.00,5392.96 2120.00,5392.96              2120.00,5392.96 2106.00,5392.96 2106.00,5392.96              2106.00,5392.96 2088.00,5394.49 2088.00,5394.49              2088.00,5394.49 2071.00,5393.10 2071.00,5393.10              2071.00,5393.10 2052.00,5394.91 2052.00,5394.91              2052.00,5394.91 2033.00,5393.18 2033.00,5393.18              2033.00,5393.18 2015.00,5394.96 2015.00,5394.96              2015.00,5394.96 1995.00,5394.00 1995.00,5394.00              1995.00,5394.00 1981.00,5395.00 1981.00,5395.00              1981.00,5395.00 1952.00,5395.00 1952.00,5395.00              1952.00,5395.00 1939.00,5396.00 1939.00,5396.00              1939.00,5396.00 1925.00,5396.00 1925.00,5396.00              1925.00,5396.00 1912.00,5396.91 1912.00,5396.91              1912.00,5396.91 1895.00,5396.91 1895.00,5396.91              1895.00,5396.91 1875.00,5394.96 1875.00,5394.96              1875.00,5394.96 1862.00,5394.96 1862.00,5394.96              1862.00,5394.96 1850.00,5394.01 1850.00,5394.01              1850.00,5394.01 1838.00,5394.91 1838.00,5394.91              1838.00,5394.91 1813.00,5392.00 1813.00,5392.00              1813.00,5392.00 1798.00,5392.82 1798.00,5392.82              1798.00,5392.82 1787.00,5392.00 1787.00,5392.00              1787.00,5392.00 1770.00,5393.00 1770.00,5393.00              1770.00,5393.00 1741.00,5393.00 1741.00,5393.00              1726.63,5393.02 1731.49,5396.22 1712.00,5396.00              1712.00,5396.00 1693.00,5394.09 1693.00,5394.09              1687.56,5393.74 1685.38,5394.82 1682.00,5394.82              1682.00,5394.82 1668.00,5393.77 1668.00,5393.77              1655.83,5394.06 1657.15,5396.45 1642.00,5393.77              1632.53,5391.72 1629.44,5388.12 1619.00,5388.00              1611.84,5387.92 1606.09,5388.30 1600.00,5392.64              1600.00,5392.64 1587.58,5404.37 1587.58,5404.37              1583.98,5407.34 1574.41,5411.81 1570.00,5414.34              1565.35,5417.00 1561.01,5421.04 1556.00,5422.75              1550.22,5424.73 1545.72,5423.37 1539.00,5424.89              1539.00,5424.89 1519.00,5430.11 1519.00,5430.11              1519.00,5430.11 1504.00,5432.89 1504.00,5432.89              1504.00,5432.89 1485.00,5438.00 1485.00,5438.00              1485.00,5438.00 1468.00,5439.81 1468.00,5439.81              1454.78,5442.45 1444.88,5451.37 1432.00,5454.84              1425.83,5456.50 1419.33,5456.00 1413.00,5456.00              1413.00,5456.00 1384.00,5456.00 1384.00,5456.00              1384.00,5456.00 1362.00,5453.43 1362.00,5453.43              1362.00,5453.43 1345.00,5451.72 1345.00,5451.72              1345.00,5451.72 1329.00,5447.42 1329.00,5447.42              1329.00,5447.42 1319.00,5445.24 1319.00,5445.24              1319.00,5445.24 1297.00,5438.67 1297.00,5438.67              1297.00,5438.67 1281.00,5436.72 1281.00,5436.72              1281.00,5436.72 1262.00,5433.08 1262.00,5433.08              1262.00,5433.08 1245.00,5430.36 1245.00,5430.36              1245.00,5430.36 1232.00,5423.92 1232.00,5423.92              1232.00,5423.92 1213.00,5417.16 1213.00,5417.16              1213.00,5417.16 1199.00,5414.25 1199.00,5414.25              1199.00,5414.25 1182.00,5408.46 1182.00,5408.46              1182.00,5408.46 1159.00,5406.09 1159.00,5406.09              1159.00,5406.09 1126.00,5409.96 1126.00,5409.96              1126.00,5409.96 1071.00,5401.16 1071.00,5401.16              1071.00,5401.16 1066.00,5401.16 1066.00,5401.16              1066.00,5401.16 1056.00,5401.16 1056.00,5401.16              1052.05,5401.13 1049.37,5399.91 1045.00,5400.10              1045.00,5400.10 1034.00,5401.63 1034.00,5401.63              1034.00,5401.63 1017.00,5400.47 1017.00,5400.47              1002.99,5397.31 989.88,5386.43 974.00,5386.89              966.40,5387.33 969.04,5388.42 960.00,5386.89              952.64,5385.37 945.62,5382.60 938.00,5383.09              921.59,5384.13 919.19,5389.54 910.00,5389.19              910.00,5389.19 885.00,5387.32 885.00,5387.32              872.21,5388.34 867.21,5392.19 851.00,5392.00              851.00,5392.00 807.00,5384.61 807.00,5384.61              807.00,5384.61 778.00,5380.80 778.00,5380.80              764.20,5378.05 762.92,5374.83 748.00,5375.00              748.00,5375.00 730.00,5377.00 730.00,5377.00              730.00,5377.00 720.00,5377.00 720.00,5377.00              720.00,5377.00 710.00,5378.91 710.00,5378.91              710.00,5378.91 691.00,5378.00 691.00,5378.00              691.00,5378.00 668.00,5378.00 668.00,5378.00              668.00,5378.00 646.00,5379.74 646.00,5379.74              639.16,5379.47 627.27,5374.12 617.00,5374.00              610.78,5373.93 607.13,5374.35 601.00,5372.24              601.00,5372.24 588.00,5366.20 588.00,5366.20              588.00,5366.20 560.00,5355.37 560.00,5355.37              560.00,5355.37 542.00,5346.34 542.00,5346.34              542.00,5346.34 530.00,5342.70 530.00,5342.70              530.00,5342.70 515.00,5331.93 515.00,5331.93              506.74,5326.91 503.11,5327.15 494.00,5327.00              486.08,5326.86 483.01,5323.32 476.00,5320.34              468.57,5317.16 466.79,5319.15 460.00,5315.68              460.00,5315.68 443.00,5306.68 443.00,5306.68              438.79,5304.06 436.01,5301.19 431.00,5299.62              431.00,5299.62 408.00,5295.07 408.00,5295.07              408.00,5295.07 392.00,5288.68 392.00,5288.68              385.82,5287.26 382.73,5288.87 375.00,5285.88              356.68,5278.81 347.39,5264.04 321.00,5263.91              321.00,5263.91 302.00,5263.91 302.00,5263.91              297.53,5263.35 294.94,5261.88 290.00,5262.10              282.29,5262.45 279.18,5265.13 267.00,5265.00              250.26,5264.81 229.95,5259.77 214.00,5264.16              207.19,5266.03 195.71,5272.05 189.00,5275.22              186.44,5276.43 179.74,5279.63 177.09,5279.08              174.59,5278.55 172.85,5275.92 171.42,5274.00              171.42,5274.00 161.67,5260.00 161.67,5260.00              161.67,5260.00 153.79,5248.00 153.79,5248.00              153.79,5248.00 142.79,5237.68 142.79,5237.68              140.37,5234.85 132.17,5218.61 131.19,5215.00              130.85,5212.50 131.03,5208.66 131.19,5206.00              130.87,5195.25 127.33,5194.61 124.78,5186.00              122.71,5178.99 123.08,5172.17 123.00,5165.00              123.00,5165.00 121.00,5144.00 121.00,5144.00              121.00,5144.00 121.00,5133.00 121.00,5133.00              119.84,5123.06 119.14,5125.15 119.00,5113.00              119.00,5113.00 118.04,5099.00 118.04,5099.00              118.04,5099.00 118.82,5089.00 118.82,5089.00              118.82,5089.00 117.04,5073.00 117.04,5073.00              117.04,5073.00 117.04,5061.00 117.04,5061.00              117.04,5061.00 115.37,5040.00 115.37,5040.00              115.13,5035.22 117.09,5027.82 117.71,5023.00              117.71,5023.00 118.82,5003.00 118.82,5003.00              118.82,5003.00 113.67,4983.00 113.67,4983.00              113.67,4983.00 112.54,4975.00 112.54,4975.00              112.54,4975.00 108.46,4957.00 108.46,4957.00              108.46,4957.00 106.04,4929.00 106.04,4929.00              105.87,4923.43 107.66,4911.78 108.56,4906.00              108.56,4906.00 109.65,4896.00 109.65,4896.00              111.42,4890.24 118.61,4884.52 117.82,4874.00              117.16,4865.34 113.02,4855.02 113.00,4839.00              112.99,4833.79 113.32,4829.12 112.10,4824.00              112.10,4824.00 110.32,4817.00 110.32,4817.00              110.32,4817.00 109.32,4808.00 109.32,4808.00              106.36,4794.90 105.00,4802.71 105.00,4785.00              105.00,4785.00 112.00,4785.82 112.00,4785.82              115.43,4786.06 118.83,4785.36 122.00,4784.07              124.70,4782.98 126.79,4781.69 129.00,4779.79              143.31,4767.49 138.07,4755.74 137.92,4740.00              137.92,4740.00 137.92,4724.00 137.92,4724.00              136.87,4714.43 136.02,4717.54 136.00,4705.00              135.98,4693.89 133.07,4687.54 130.65,4677.00              128.28,4666.63 125.02,4646.40 125.00,4636.00              124.97,4622.29 123.17,4621.96 120.66,4610.00              120.66,4610.00 118.54,4595.00 118.54,4595.00              118.54,4595.00 113.46,4573.00 113.46,4573.00              113.46,4573.00 112.70,4563.00 112.70,4563.00              112.70,4563.00 109.30,4548.00 109.30,4548.00              109.30,4548.00 107.71,4529.00 107.71,4529.00              107.71,4529.00 104.30,4512.00 104.30,4512.00              104.30,4512.00 102.83,4493.00 102.83,4493.00              101.91,4484.51 97.07,4477.83 96.53,4471.00              96.16,4466.34 98.38,4463.11 100.13,4459.00              102.73,4452.90 107.86,4442.04 108.70,4436.00              109.90,4427.39 106.02,4422.91 104.63,4418.00              104.63,4418.00 103.00,4397.00 103.00,4397.00              103.00,4397.00 100.09,4372.00 100.09,4372.00              100.29,4368.58 101.10,4366.70 100.82,4363.00              100.46,4358.30 98.55,4353.82 99.21,4349.00              99.91,4343.98 103.40,4340.46 102.91,4332.00              102.45,4324.12 99.24,4317.41 97.67,4310.00              96.71,4305.46 96.98,4298.79 97.00,4294.00              97.05,4284.02 99.41,4283.33 99.91,4276.00              99.91,4276.00 99.00,4262.00 99.00,4262.00              99.00,4262.00 99.00,4244.00 99.00,4244.00              98.98,4230.27 96.47,4232.46 94.53,4224.00              94.53,4224.00 92.00,4194.00 92.00,4194.00              92.00,4194.00 97.91,4161.00 97.91,4161.00              98.50,4150.58 93.09,4146.13 90.88,4137.00              89.73,4132.95 90.94,4122.31 90.88,4117.00              91.12,4107.35 97.60,4092.51 96.81,4083.00              96.81,4083.00 92.11,4066.00 92.11,4066.00              90.52,4056.59 92.29,4056.59 92.11,4050.00              91.45,4042.07 88.78,4039.38 89.01,4029.00              89.01,4029.00 90.84,4011.00 90.84,4011.00              90.84,4011.00 90.84,3982.00 90.84,3982.00              91.07,3976.39 93.11,3962.72 94.28,3957.00              94.28,3957.00 96.71,3946.00 96.71,3946.00              96.71,3946.00 98.82,3923.00 98.82,3923.00              98.82,3923.00 98.04,3912.00 98.04,3912.00              98.04,3912.00 98.87,3900.00 98.87,3900.00              98.87,3900.00 98.87,3877.00 98.87,3877.00              98.87,3877.00 100.73,3859.00 100.73,3859.00              100.73,3859.00 100.73,3851.00 100.73,3851.00              101.22,3844.71 105.92,3840.50 105.92,3832.00              105.92,3832.00 100.05,3805.00 100.05,3805.00              97.20,3797.49 95.12,3798.40 95.00,3789.00              95.00,3789.00 95.00,3771.00 95.00,3771.00              95.00,3771.00 93.00,3754.00 93.00,3754.00              92.94,3748.57 93.39,3743.33 92.10,3738.00              90.99,3733.41 88.24,3728.37 88.18,3724.00              88.18,3724.00 92.90,3691.00 92.90,3691.00              94.33,3685.12 97.29,3680.29 96.82,3674.00              96.82,3674.00 92.57,3650.00 92.57,3650.00              92.57,3650.00 97.00,3612.00 97.00,3612.00              97.16,3597.72 93.38,3589.55 93.50,3585.00              93.60,3580.92 97.64,3575.64 99.30,3571.00              101.94,3563.61 103.99,3550.87 104.00,3543.00              104.01,3538.79 104.25,3534.09 103.32,3530.00              103.32,3530.00 99.18,3516.00 99.18,3516.00              99.18,3516.00 98.04,3497.00 98.04,3497.00              98.04,3497.00 98.99,3484.00 98.99,3484.00              98.99,3484.00 98.18,3473.00 98.18,3473.00              98.18,3473.00 101.00,3453.00 101.00,3453.00              101.06,3447.65 101.17,3444.20 99.48,3439.00              97.75,3433.68 94.65,3428.78 95.20,3423.00              95.71,3417.64 99.37,3412.14 98.91,3404.00              98.91,3404.00 97.00,3375.00 97.00,3375.00              97.00,3375.00 96.04,3358.00 96.04,3358.00              96.04,3358.00 97.96,3344.00 97.96,3344.00              98.30,3335.33 95.00,3329.30 94.00,3321.00              94.00,3321.00 94.00,3311.00 94.00,3311.00              93.01,3303.37 91.95,3306.32 92.00,3295.00              92.00,3295.00 92.82,3282.00 92.82,3282.00              92.82,3282.00 90.04,3255.00 90.04,3255.00              90.41,3247.12 94.20,3244.32 94.81,3237.00              95.50,3228.85 91.40,3224.65 88.52,3218.00              87.21,3214.95 85.48,3207.39 84.97,3204.00              83.73,3195.68 86.50,3180.03 86.90,3171.00              86.90,3171.00 85.32,3154.00 85.32,3154.00              85.32,3154.00 85.91,3143.00 85.91,3143.00              85.39,3134.61 81.08,3129.75 81.08,3123.00              81.08,3116.08 84.83,3113.42 83.91,3100.00              82.96,3086.15 79.33,3081.15 79.04,3075.00              78.56,3064.71 82.42,3059.33 81.91,3051.00              81.47,3043.89 79.05,3042.96 79.00,3033.00              79.00,3033.00 78.39,3014.00 78.39,3014.00              79.71,3007.85 84.97,3003.40 84.97,2993.00              84.97,2993.00 82.00,2964.00 82.00,2964.00              82.00,2964.00 82.00,2953.00 82.00,2953.00              82.00,2953.00 81.00,2934.00 81.00,2934.00              81.00,2934.00 82.82,2906.00 82.82,2906.00              81.79,2891.55 82.57,2897.00 83.83,2884.00              83.83,2884.00 84.39,2875.00 84.39,2875.00              85.35,2870.53 94.87,2854.13 94.82,2842.00              94.79,2833.71 88.08,2825.88 85.06,2818.00              79.07,2802.34 78.19,2795.41 78.00,2779.00              78.00,2779.00 77.21,2768.00 77.21,2768.00              77.50,2762.89 79.25,2760.41 78.96,2753.00              78.96,2753.00 78.00,2738.00 78.00,2738.00              78.02,2725.04 82.49,2722.41 81.91,2713.00              81.50,2706.34 78.54,2702.04 76.92,2696.00              76.92,2696.00 73.29,2673.00 73.29,2673.00              72.04,2663.04 78.40,2649.21 77.96,2638.00              77.96,2638.00 73.09,2604.00 73.09,2604.00              73.85,2590.94 80.44,2585.29 79.96,2573.00              79.68,2565.84 77.24,2562.78 78.44,2555.00              78.44,2555.00 85.91,2526.00 85.91,2526.00              85.91,2526.00 83.01,2498.00 83.01,2498.00              83.01,2498.00 85.81,2473.00 85.81,2473.00              85.14,2464.94 81.06,2460.01 79.63,2455.00              78.68,2451.65 79.19,2448.41 78.83,2445.00              78.12,2438.42 76.81,2439.01 77.01,2430.00              77.01,2430.00 78.96,2415.00 78.96,2415.00              78.96,2415.00 78.00,2398.00 78.00,2398.00              78.00,2398.00 78.00,2381.00 78.00,2381.00              78.00,2381.00 79.17,2360.00 79.17,2360.00              79.17,2360.00 80.96,2349.00 80.96,2349.00              80.96,2349.00 80.04,2334.00 80.04,2334.00              80.37,2325.49 83.64,2317.99 85.96,2310.00              85.96,2310.00 87.90,2302.00 87.90,2302.00              87.90,2302.00 93.70,2285.00 93.70,2285.00              96.64,2276.75 99.36,2274.76 98.96,2265.00              98.53,2254.32 94.80,2257.48 95.00,2240.00              95.26,2217.68 103.30,2218.92 103.00,2194.00              102.89,2185.60 100.40,2183.31 100.46,2178.00              100.46,2178.00 101.92,2163.00 101.92,2163.00              101.92,2163.00 101.92,2151.00 101.92,2151.00              101.92,2151.00 103.00,2133.00 103.00,2133.00              103.00,2133.00 101.37,2119.00 101.37,2119.00              101.37,2119.00 101.96,2108.00 101.96,2108.00              101.96,2108.00 100.71,2092.00 100.71,2092.00              100.71,2092.00 99.17,2083.00 99.17,2083.00              99.17,2083.00 96.83,2052.00 96.83,2052.00              96.83,2052.00 93.00,2009.00 93.00,2009.00              92.98,2004.38 91.90,1992.12 90.45,1988.00              90.45,1988.00 86.77,1979.00 86.77,1979.00              86.77,1979.00 84.23,1968.00 84.23,1968.00              82.25,1961.58 77.61,1956.14 78.34,1949.00              78.34,1949.00 81.55,1937.00 81.55,1937.00              82.75,1931.30 83.33,1921.87 85.55,1917.00              88.49,1910.58 93.58,1907.93 96.45,1900.00              98.81,1893.48 102.23,1876.83 101.96,1870.00              101.96,1870.00 101.32,1861.00 101.32,1861.00              101.32,1861.00 104.96,1840.00 104.96,1840.00              105.15,1834.04 102.85,1824.76 104.01,1819.00              104.01,1819.00 115.10,1791.00 115.10,1791.00              117.27,1781.88 113.00,1776.12 113.49,1769.00              113.60,1767.40 118.23,1751.95 118.74,1740.00              118.74,1740.00 118.74,1729.00 118.74,1729.00              118.74,1729.00 123.94,1715.00 123.94,1715.00              125.43,1711.02 129.71,1693.88 129.90,1690.00              129.90,1690.00 125.92,1662.00 125.92,1662.00              125.92,1662.00 125.92,1653.00 125.92,1653.00              125.92,1653.00 124.13,1641.00 124.13,1641.00              124.13,1641.00 126.91,1627.00 126.91,1627.00              126.91,1627.00 126.18,1614.00 126.18,1614.00              126.18,1614.00 127.17,1598.00 127.17,1598.00              127.17,1598.00 128.71,1589.00 128.71,1589.00              128.71,1589.00 130.00,1577.00 130.00,1577.00              130.00,1577.00 130.00,1566.00 130.00,1566.00              131.11,1557.28 131.86,1561.31 132.00,1549.00              132.00,1549.00 138.83,1478.00 138.83,1478.00              138.83,1478.00 141.58,1455.00 141.58,1455.00              141.89,1452.70 142.17,1448.15 143.01,1446.22              144.94,1441.80 150.68,1442.75 157.61,1434.00              163.96,1425.98 162.16,1418.33 163.80,1413.00              165.77,1406.62 172.60,1401.38 171.82,1391.00              171.82,1391.00 167.01,1363.00 167.01,1363.00              167.01,1363.00 167.91,1351.00 167.91,1351.00              168.58,1339.14 161.58,1334.53 160.81,1328.00              160.81,1328.00 162.00,1313.00 162.00,1313.00              162.00,1313.00 166.44,1262.00 166.44,1262.00              167.78,1253.47 170.90,1243.40 171.08,1235.00              171.08,1235.00 171.08,1226.00 171.08,1226.00              171.62,1221.49 173.17,1217.62 172.82,1213.00              172.50,1208.82 170.95,1205.37 171.33,1201.00              171.33,1201.00 172.83,1192.00 172.83,1192.00              172.83,1192.00 175.09,1160.00 175.09,1160.00              175.09,1160.00 175.98,1149.00 175.98,1149.00              175.98,1149.00 171.10,1122.00 171.10,1122.00              170.79,1115.62 173.68,1110.97 172.83,1103.00              171.33,1088.96 157.27,1076.27 143.00,1077.09              134.86,1077.56 125.63,1082.19 122.00,1081.40              118.42,1080.62 115.02,1076.74 112.00,1074.63              107.40,1071.41 101.61,1069.75 96.00,1070.09              90.12,1070.45 86.24,1073.08 83.17,1071.80              80.64,1070.73 78.45,1066.82 74.00,1063.64              68.61,1059.77 61.41,1058.21 55.00,1057.00 Z            M 4176.00,3955.79            C 4172.21,3956.16 4163.13,3958.72 4161.21,3962.22              4159.58,3965.21 4160.66,3981.24 4175.00,3980.95              4192.26,3980.59 4191.23,3957.88 4176.00,3955.79 Z            M 4166.00,5264.41            C 4155.44,5266.59 4155.57,5272.03 4153.00,5281.00              4151.97,5284.60 4149.94,5290.42 4150.22,5294.00              4151.07,5304.84 4162.55,5309.06 4172.00,5307.81              4184.31,5306.19 4191.73,5290.04 4187.89,5279.00              4184.64,5269.63 4175.62,5264.36 4166.00,5264.41 Z"
            style="fill:#000000;fill-opacity:1"/>
</svg>
