<?xml version="1.0" encoding="UTF-8" standalone="no"?>
<svg
        width="172.974mm"
        height="125.222mm"
        viewBox="0 0 8172 5916"
        version="1.1"
        id="svg832"
        sodipodi:docname="folio4a.svg"
        inkscape:version="1.1.1 (3bf5ae0d25, 2021-09-20)"
        xmlns:inkscape="http://www.inkscape.org/namespaces/inkscape"
        xmlns:sodipodi="http://sodipodi.sourceforge.net/DTD/sodipodi-0.dtd"
        xmlns="http://www.w3.org/2000/svg"
>
    <defs
            id="defs836"/>
    <sodipodi:namedview
            id="namedview834"
            pagecolor="#ffffff"
            bordercolor="#666666"
            borderopacity="1.0"
            inkscape:pageshadow="2"
            inkscape:pageopacity="0.0"
            inkscape:pagecheckerboard="0"
            inkscape:document-units="mm"
            showgrid="false"
            inkscape:zoom="1.6755409"
            inkscape:cx="326.76015"
            inkscape:cy="236.64"
            inkscape:window-width="1920"
            inkscape:window-height="1001"
            inkscape:window-x="-7"
            inkscape:window-y="-7"
            inkscape:window-maximized="1"
            inkscape:current-layer="svg832"/>
    <path
            id="Selection #1"
            fill="none"
            stroke="black"
            stroke-width="1"
            d="M 511.00,156.00            C 511.00,156.00 544.00,157.83 544.00,157.83              554.32,156.72 561.41,150.77 571.00,151.02              581.03,151.27 579.78,156.83 594.00,157.00              600.34,157.07 606.80,156.77 613.00,155.32              613.00,155.32 622.00,152.56 622.00,152.56              622.00,152.56 647.00,153.97 647.00,153.97              647.00,153.97 674.00,151.85 674.00,151.85              674.00,151.85 689.00,151.85 689.00,151.85              693.68,151.03 698.21,148.92 703.00,149.33              703.00,149.33 726.00,151.98 726.00,151.98              732.97,151.85 734.68,150.05 739.00,149.67              743.00,149.56 745.27,150.43 750.00,149.67              750.00,149.67 776.00,140.85 776.00,140.85              776.00,140.85 787.00,135.78 787.00,135.78              789.70,135.11 796.73,136.95 801.00,137.00              805.37,137.05 814.37,136.36 818.00,138.17              822.42,140.39 825.55,145.50 829.09,148.82              834.61,154.01 841.45,156.81 849.00,156.99              863.67,157.32 871.15,149.74 882.00,141.00              884.60,138.91 889.48,134.13 892.17,133.12              896.75,131.41 902.84,132.51 908.00,131.32              913.61,130.03 915.34,127.70 919.00,127.87              921.10,127.96 935.25,132.29 942.00,131.91              942.00,131.91 955.00,130.70 955.00,130.70              955.00,130.70 963.00,129.04 963.00,129.04              963.00,129.04 973.00,129.04 973.00,129.04              973.00,129.04 993.00,126.30 993.00,126.30              993.00,126.30 1002.00,125.54 1002.00,125.54              1011.84,123.76 1017.89,118.99 1023.00,118.21              1033.69,116.58 1041.30,121.56 1052.00,119.53              1061.11,117.81 1063.93,112.50 1068.00,111.97              1070.16,111.69 1073.73,113.45 1076.00,114.07              1078.81,114.84 1085.09,115.85 1088.00,115.96              1095.28,116.24 1096.91,114.69 1101.00,114.39              1101.00,114.39 1115.00,115.00 1115.00,115.00              1115.00,115.00 1125.00,116.00 1125.00,116.00              1125.00,116.00 1135.00,116.00 1135.00,116.00              1135.00,116.00 1151.00,118.47 1151.00,118.47              1151.00,118.47 1162.00,121.53 1162.00,121.53              1162.00,121.53 1175.00,122.72 1175.00,122.72              1179.59,124.03 1182.11,127.32 1186.00,129.90              1192.31,134.07 1199.49,135.95 1207.00,134.53              1220.83,131.92 1223.49,123.07 1229.80,113.00              1232.60,108.52 1235.37,106.60 1237.44,101.00              1239.87,94.45 1238.20,85.20 1245.29,81.40              1245.29,81.40 1267.00,76.87 1267.00,76.87              1267.00,76.87 1278.00,74.77 1278.00,74.77              1278.00,74.77 1293.00,74.77 1293.00,74.77              1293.00,74.77 1303.00,74.04 1303.00,74.04              1303.00,74.04 1317.00,74.04 1317.00,74.04              1317.00,74.04 1353.00,78.99 1353.00,78.99              1361.43,78.79 1362.61,76.58 1369.00,75.31              1380.38,73.06 1381.64,73.11 1393.00,72.99              1393.00,72.99 1410.00,72.99 1410.00,72.99              1410.00,72.99 1424.00,71.14 1424.00,71.14              1427.40,71.30 1439.61,75.48 1449.00,74.91              1449.00,74.91 1462.00,72.30 1462.00,72.30              1462.00,72.30 1482.00,71.00 1482.00,71.00              1482.00,71.00 1498.00,70.09 1498.00,70.09              1508.00,69.53 1508.81,74.47 1517.00,78.05              1523.25,80.79 1529.26,82.56 1536.00,83.57              1536.00,83.57 1542.00,84.49 1542.00,84.49              1542.00,84.49 1551.00,88.07 1551.00,88.07              1554.72,89.09 1556.57,88.79 1560.00,89.30              1560.00,89.30 1581.00,91.91 1581.00,91.91              1581.00,91.91 1599.00,93.20 1599.00,93.20              1599.00,93.20 1614.00,98.33 1614.00,98.33              1614.00,98.33 1637.00,100.10 1637.00,100.10              1645.49,100.99 1641.49,103.19 1658.00,103.00              1670.76,102.85 1675.44,97.77 1695.00,98.00              1695.00,98.00 1715.00,100.00 1715.00,100.00              1715.00,100.00 1732.00,99.31 1732.00,99.31              1745.45,100.91 1741.09,104.66 1759.00,103.32              1759.00,103.32 1779.00,104.00 1779.00,104.00              1779.00,104.00 1803.00,108.47 1803.00,108.47              1803.00,108.47 1818.00,115.61 1818.00,115.61              1820.85,116.91 1823.90,117.32 1826.26,119.48              1837.12,129.44 1840.63,144.50 1854.00,149.44              1858.01,150.93 1861.78,151.08 1866.00,150.99              1873.31,150.82 1878.51,148.72 1883.99,143.82              1887.06,141.06 1890.45,135.94 1894.01,134.60              1900.22,132.26 1907.10,135.83 1913.00,136.70              1919.82,137.71 1923.33,135.97 1928.00,136.20              1933.65,136.75 1936.06,137.68 1942.00,136.20              1947.32,134.63 1951.09,131.59 1957.00,131.21              1957.00,131.21 1983.00,135.00 1983.00,135.00              1988.26,135.06 1993.88,135.32 1999.00,134.10              2002.84,133.19 2011.15,130.39 2014.82,131.31              2017.81,132.06 2020.57,136.55 2023.04,138.82              2028.18,143.54 2034.98,146.72 2042.00,146.96              2050.10,147.23 2056.66,143.72 2060.00,143.58              2064.20,143.41 2066.75,146.60 2075.00,146.96              2086.08,147.44 2088.49,144.12 2093.00,143.59              2096.35,143.00 2099.32,144.58 2106.00,143.59              2117.80,142.18 2119.33,139.04 2125.00,137.86              2128.62,136.88 2133.08,137.95 2137.00,137.86              2141.77,138.05 2144.25,138.10 2149.00,137.20              2151.63,136.69 2155.47,135.44 2158.00,136.32              2158.00,136.32 2168.00,143.10 2168.00,143.10              2168.00,143.10 2176.00,147.18 2176.00,147.18              2186.91,153.10 2184.60,152.93 2197.00,154.17              2200.45,154.51 2202.29,155.14 2206.00,154.91              2206.00,154.91 2235.00,147.44 2235.00,147.44              2235.00,147.44 2242.00,144.49 2242.00,144.49              2245.64,143.51 2247.85,144.69 2255.00,142.56              2261.96,140.49 2264.75,137.50 2268.00,137.07              2270.14,136.78 2274.65,138.26 2277.00,138.79              2286.74,141.02 2292.14,144.87 2303.00,144.86              2303.00,144.86 2314.00,144.86 2314.00,144.86              2314.00,144.86 2329.00,144.86 2329.00,144.86              2329.00,144.86 2351.00,144.00 2351.00,144.00              2362.69,143.86 2364.18,140.78 2373.00,134.62              2377.78,131.27 2380.36,130.80 2384.82,125.96              2391.64,118.54 2389.56,114.28 2395.06,112.14              2395.06,112.14 2403.00,109.97 2403.00,109.97              2403.00,109.97 2413.00,105.77 2413.00,105.77              2413.00,105.77 2422.00,103.07 2422.00,103.07              2422.00,103.07 2434.00,96.52 2434.00,96.52              2439.82,94.41 2445.87,95.85 2454.00,92.53              2459.40,90.32 2461.82,87.52 2465.00,85.94              2465.00,85.94 2475.00,82.91 2475.00,82.91              2475.00,82.91 2482.00,79.49 2482.00,79.49              2488.15,76.37 2495.21,75.74 2502.00,75.17              2510.50,74.46 2519.91,78.16 2528.00,80.10              2536.06,82.04 2541.94,81.91 2550.00,82.00              2559.51,82.12 2563.18,85.41 2575.00,83.56              2587.09,81.67 2595.58,75.65 2607.00,71.95              2607.00,71.95 2642.00,65.58 2642.00,65.58              2642.00,65.58 2673.00,57.54 2673.00,57.54              2680.80,56.81 2685.12,62.36 2694.00,62.91              2704.18,63.53 2708.03,58.42 2715.00,57.20              2715.00,57.20 2739.00,54.09 2739.00,54.09              2739.00,54.09 2746.00,54.91 2746.00,54.91              2752.65,55.28 2758.59,52.60 2765.00,51.46              2765.00,51.46 2790.00,50.80 2790.00,50.80              2790.00,50.80 2802.00,53.93 2802.00,53.93              2802.00,53.93 2810.00,53.93 2810.00,53.93              2810.00,53.93 2828.00,55.91 2828.00,55.91              2837.69,56.57 2839.50,54.03 2845.00,54.75              2845.00,54.75 2854.00,56.71 2854.00,56.71              2854.00,56.71 2905.00,63.00 2905.00,63.00              2927.04,63.25 2917.48,64.68 2934.00,66.71              2934.00,66.71 2959.00,68.00 2959.00,68.00              2969.12,68.11 2973.59,67.76 2984.00,69.44              2984.00,69.44 3002.00,73.70 3002.00,73.70              3002.00,73.70 3019.00,75.28 3019.00,75.28              3027.37,76.68 3035.42,78.90 3044.00,79.00              3055.53,79.13 3053.50,79.80 3063.00,80.83              3063.00,80.83 3080.00,82.21 3080.00,82.21              3080.00,82.21 3087.00,84.09 3087.00,84.09              3095.69,86.54 3098.26,85.99 3107.00,86.00              3110.07,86.00 3113.00,85.93 3116.00,86.71              3122.31,88.35 3133.13,97.66 3146.00,96.91              3157.74,96.23 3167.67,89.08 3180.00,87.30              3185.59,86.49 3207.81,85.25 3213.00,85.89              3213.00,85.89 3233.00,90.00 3233.00,90.00              3230.61,101.88 3228.57,112.86 3237.33,122.96              3240.40,126.51 3244.51,128.96 3248.00,132.08              3254.89,138.24 3260.18,142.51 3270.00,141.91              3270.00,141.91 3288.00,137.53 3288.00,137.53              3292.25,137.48 3302.22,143.38 3310.00,143.91              3310.00,143.91 3328.00,142.87 3328.00,142.87              3328.00,142.87 3339.00,142.87 3339.00,142.87              3339.00,142.87 3352.00,141.55 3352.00,141.55              3352.00,141.55 3365.00,143.72 3365.00,143.72              3365.00,143.72 3387.00,144.99 3387.00,144.99              3395.48,144.79 3398.15,141.90 3404.00,142.32              3413.97,143.04 3423.00,147.22 3433.00,146.99              3441.48,146.79 3443.30,144.38 3448.00,143.19              3450.69,142.82 3456.95,143.00 3460.00,143.19              3460.00,143.19 3486.00,141.53 3486.00,141.53              3490.46,140.69 3494.39,138.08 3499.00,138.13              3506.83,138.22 3515.49,140.42 3523.00,142.56              3523.00,142.56 3531.00,144.85 3531.00,144.85              3531.00,144.85 3541.00,144.85 3541.00,144.85              3541.00,144.85 3554.00,145.91 3554.00,145.91              3554.00,145.91 3573.00,142.77 3573.00,142.77              3573.00,142.77 3579.00,143.91 3579.00,143.91              3579.00,143.91 3590.00,143.91 3590.00,143.91              3590.00,143.91 3601.00,144.95 3601.00,144.95              3601.00,144.95 3616.00,144.95 3616.00,144.95              3616.00,144.95 3628.00,144.03 3628.00,144.03              3628.00,144.03 3640.00,144.80 3640.00,144.80              3640.00,144.80 3661.00,144.80 3661.00,144.80              3671.91,147.24 3672.10,152.84 3686.00,153.00              3698.78,153.14 3696.39,151.64 3707.00,148.44              3717.03,145.41 3719.44,145.89 3730.00,140.74              3741.01,135.37 3738.93,132.96 3751.00,131.04              3752.95,131.00 3756.09,130.60 3758.00,131.04              3763.96,131.48 3767.33,136.79 3772.00,139.90              3778.18,144.01 3792.58,148.33 3800.00,147.91              3800.00,147.91 3820.00,145.19 3820.00,145.19              3824.19,145.29 3826.61,147.52 3832.00,148.53              3832.00,148.53 3844.00,149.22 3844.00,149.22              3851.75,150.52 3852.01,155.93 3867.00,156.00              3867.00,156.00 3883.00,154.81 3883.00,154.81              3883.00,154.81 3894.00,158.84 3894.00,158.84              3897.28,159.73 3910.37,160.95 3914.00,161.00              3932.85,161.22 3928.78,158.11 3942.00,155.00              3944.23,160.71 3945.43,164.38 3950.09,168.82              3954.38,172.90 3958.12,173.84 3960.49,175.78              3960.49,175.78 3966.08,181.83 3966.08,181.83              3967.91,183.69 3969.48,184.76 3970.87,187.09              3970.87,187.09 3973.40,193.00 3973.40,193.00              3973.40,193.00 3978.11,201.00 3978.11,201.00              3978.11,201.00 3983.51,216.00 3983.51,216.00              3984.87,221.09 3982.23,227.89 3988.79,237.00              3996.17,247.24 4015.03,254.72 4019.54,258.63              4019.54,258.63 4028.01,267.67 4028.01,267.67              4035.10,273.66 4049.58,279.31 4059.00,277.53              4074.33,274.64 4082.75,259.39 4087.45,246.00              4087.45,246.00 4089.56,238.00 4089.56,238.00              4090.90,234.71 4094.35,231.63 4096.52,228.00              4096.52,228.00 4100.13,220.28 4100.13,220.28              4102.33,216.80 4115.30,204.09 4119.00,201.70              4119.00,201.70 4137.00,193.19 4137.00,193.19              4137.00,193.19 4147.00,187.40 4147.00,187.40              4147.00,187.40 4158.00,182.75 4158.00,182.75              4167.24,178.17 4176.13,171.40 4186.00,168.44              4186.00,168.44 4203.00,164.21 4203.00,164.21              4203.00,164.21 4221.00,162.08 4221.00,162.08              4233.45,158.80 4241.53,153.21 4244.00,152.51              4246.79,151.71 4254.65,152.04 4258.00,152.00              4258.00,152.00 4271.00,151.00 4271.00,151.00              4275.92,150.95 4281.20,151.35 4286.00,150.33              4286.00,150.33 4294.00,148.32 4294.00,148.32              4294.00,148.32 4306.00,147.71 4306.00,147.71              4306.00,147.71 4320.00,144.67 4320.00,144.67              4328.46,142.93 4338.36,142.90 4347.00,143.00              4365.49,143.22 4367.39,147.31 4380.00,149.77              4383.75,150.20 4391.87,150.04 4396.00,149.77              4396.00,149.77 4418.00,148.32 4418.00,148.32              4418.00,148.32 4433.00,143.73 4433.00,143.73              4436.20,143.02 4437.94,143.74 4441.00,143.73              4450.34,144.42 4455.64,140.01 4461.00,139.21              4461.00,139.21 4482.00,140.00 4482.00,140.00              4482.00,140.00 4492.00,139.30 4492.00,139.30              4496.56,139.62 4498.03,141.89 4507.00,142.00              4507.00,142.00 4537.00,139.00 4537.00,139.00              4537.00,139.00 4588.00,139.00 4588.00,139.00              4598.66,138.98 4599.94,136.90 4604.00,136.84              4604.00,136.84 4625.00,139.99 4625.00,139.99              4625.00,139.99 4646.00,138.34 4646.00,138.34              4646.00,138.34 4664.00,139.00 4664.00,139.00              4664.00,139.00 4694.00,137.00 4694.00,137.00              4694.00,137.00 4710.00,137.00 4710.00,137.00              4710.00,137.00 4729.00,135.04 4729.00,135.04              4729.00,135.04 4737.00,135.96 4737.00,135.96              4737.00,135.96 4753.00,135.96 4753.00,135.96              4753.00,135.96 4767.00,135.03 4767.00,135.03              4767.00,135.03 4780.00,135.96 4780.00,135.96              4780.00,135.96 4788.00,135.09 4788.00,135.09              4788.00,135.09 4814.00,134.18 4814.00,134.18              4814.00,134.18 4826.00,135.83 4826.00,135.83              4833.53,136.55 4836.55,135.29 4843.00,135.04              4843.00,135.04 4887.00,142.96 4887.00,142.96              4887.00,142.96 4917.00,140.00 4917.00,140.00              4917.00,140.00 4944.00,137.00 4944.00,137.00              4956.46,137.02 4967.55,143.85 4980.00,144.00              4987.44,144.08 4993.63,144.01 5001.00,142.54              5007.90,141.16 5008.34,139.25 5021.00,137.22              5021.00,137.22 5041.00,137.22 5041.00,137.22              5041.00,137.22 5058.00,138.99 5058.00,138.99              5068.58,139.23 5078.64,136.28 5089.00,135.09              5089.00,135.09 5104.00,135.09 5104.00,135.09              5104.00,135.09 5126.00,137.00 5126.00,137.00              5126.00,137.00 5141.00,135.26 5141.00,135.26              5141.00,135.26 5158.00,136.95 5158.00,136.95              5158.00,136.95 5179.00,136.95 5179.00,136.95              5185.80,136.92 5185.49,136.08 5191.00,135.30              5191.00,135.30 5209.00,134.04 5209.00,134.04              5209.00,134.04 5224.00,135.00 5224.00,135.00              5224.00,135.00 5242.00,135.00 5242.00,135.00              5242.00,135.00 5263.00,133.01 5263.00,133.01              5263.00,133.01 5278.00,134.00 5278.00,134.00              5287.99,133.88 5288.11,131.24 5296.00,131.02              5309.15,130.64 5308.42,134.20 5326.00,134.00              5336.36,133.87 5335.92,131.02 5348.00,131.00              5348.00,131.00 5363.00,131.00 5363.00,131.00              5363.00,131.00 5379.00,132.00 5379.00,132.00              5379.00,132.00 5405.00,132.00 5405.00,132.00              5415.59,131.98 5417.67,130.06 5426.00,129.09              5426.00,129.09 5449.00,129.09 5449.00,129.09              5458.71,129.13 5456.80,131.98 5470.00,132.00              5470.00,132.00 5488.00,132.00 5488.00,132.00              5488.00,132.00 5501.00,131.18 5501.00,131.18              5501.00,131.18 5542.00,132.00 5542.00,132.00              5542.00,132.00 5563.00,132.83 5563.00,132.83              5571.50,131.92 5580.26,128.13 5589.00,128.78              5589.00,128.78 5614.00,131.00 5614.00,131.00              5618.66,131.02 5624.53,131.28 5629.00,130.33              5629.00,130.33 5643.00,126.21 5643.00,126.21              5638.39,126.87 5667.61,124.27 5662.00,124.34              5662.00,124.34 5688.00,125.91 5688.00,125.91              5688.00,125.91 5706.00,124.01 5706.00,124.01              5714.94,124.23 5717.86,128.47 5727.00,127.91              5733.36,127.52 5738.22,124.74 5744.00,123.52              5744.00,123.52 5763.00,121.54 5763.00,121.54              5770.04,120.13 5776.57,116.90 5784.00,116.39              5790.37,115.95 5799.80,121.39 5809.00,120.72              5811.65,120.77 5813.18,120.27 5816.00,120.72              5821.49,121.03 5834.36,125.88 5845.00,125.83              5845.00,125.83 5858.00,125.83 5858.00,125.83              5858.00,125.83 5872.00,125.83 5872.00,125.83              5881.24,125.89 5884.03,123.10 5890.00,123.08              5890.00,123.08 5901.00,124.92 5901.00,124.92              5901.00,124.92 5915.00,124.92 5915.00,124.92              5926.50,125.14 5925.33,127.41 5940.00,124.34              5949.37,122.37 5958.65,117.68 5968.00,118.04              5968.00,118.04 5981.00,119.00 5981.00,119.00              5981.00,119.00 6028.00,119.00 6028.00,119.00              6028.00,119.00 6041.00,119.91 6041.00,119.91              6041.00,119.91 6064.00,117.76 6064.00,117.76              6064.00,117.76 6078.00,117.76 6078.00,117.76              6085.34,118.85 6092.39,122.34 6100.00,121.91              6100.00,121.91 6116.00,120.08 6116.00,120.08              6116.00,120.08 6128.00,120.08 6128.00,120.08              6128.00,120.08 6145.00,119.00 6145.00,119.00              6145.00,119.00 6158.00,119.85 6158.00,119.85              6158.00,119.85 6179.00,119.85 6179.00,119.85              6179.00,119.85 6190.00,117.30 6190.00,117.30              6190.00,117.30 6200.00,116.54 6200.00,116.54              6209.91,114.78 6224.03,111.05 6234.00,111.00              6234.00,111.00 6245.00,110.32 6245.00,110.32              6245.00,110.32 6255.00,110.97 6255.00,110.97              6255.00,110.97 6270.00,109.91 6270.00,109.91              6274.45,109.60 6278.73,107.96 6283.00,108.33              6283.00,108.33 6295.00,110.70 6295.00,110.70              6295.00,110.70 6322.00,113.00 6322.00,113.00              6322.00,113.00 6351.00,116.00 6351.00,116.00              6351.00,116.00 6366.00,116.00 6366.00,116.00              6366.00,116.00 6388.00,115.00 6388.00,115.00              6388.00,115.00 6401.00,116.00 6401.00,116.00              6401.00,116.00 6418.00,116.00 6418.00,116.00              6418.00,116.00 6439.00,114.00 6439.00,114.00              6439.00,114.00 6473.00,112.91 6473.00,112.91              6473.00,112.91 6485.00,110.08 6485.00,110.08              6485.00,110.08 6497.00,110.08 6497.00,110.08              6508.82,108.56 6502.95,106.78 6522.00,107.00              6528.19,107.08 6532.94,108.70 6539.00,109.57              6539.00,109.57 6552.00,110.17 6552.00,110.17              6559.10,110.88 6559.04,111.99 6568.00,112.04              6568.00,112.04 6583.00,112.04 6583.00,112.04              6583.00,112.04 6595.00,112.96 6595.00,112.96              6595.00,112.96 6607.00,112.96 6607.00,112.96              6607.00,112.96 6613.00,112.34 6613.00,112.34              6613.00,112.34 6622.00,113.92 6622.00,113.92              6622.00,113.92 6634.00,113.92 6634.00,113.92              6642.14,114.11 6641.32,115.81 6648.00,118.53              6652.71,120.44 6667.28,125.32 6672.00,125.96              6672.00,125.96 6681.00,125.96 6681.00,125.96              6681.00,125.96 6695.00,127.00 6695.00,127.00              6695.00,127.00 6712.00,126.01 6712.00,126.01              6712.00,126.01 6728.00,126.96 6728.00,126.96              6728.00,126.96 6743.00,125.08 6743.00,125.08              6743.00,125.08 6753.00,125.99 6753.00,125.99              6753.00,125.99 6777.00,124.83 6777.00,124.83              6777.00,124.83 6788.00,123.08 6788.00,123.08              6793.13,123.08 6795.40,124.99 6805.00,125.00              6805.00,125.00 6854.00,125.00 6854.00,125.00              6860.08,124.99 6860.80,124.32 6866.00,123.77              6871.79,123.15 6873.60,126.83 6887.00,125.91              6887.00,125.91 6911.00,123.54 6911.00,123.54              6920.17,121.91 6919.25,120.02 6930.00,120.00              6930.00,120.00 6961.00,120.00 6961.00,120.00              6961.00,120.00 6983.00,118.10 6983.00,118.10              6983.00,118.10 6993.00,120.53 6993.00,120.53              6993.00,120.53 7003.00,121.32 7003.00,121.32              7003.00,121.32 7013.00,123.85 7013.00,123.85              7013.00,123.85 7038.00,123.85 7038.00,123.85              7047.60,123.88 7053.91,120.16 7059.00,120.26              7066.67,120.41 7076.58,125.76 7086.00,125.99              7098.01,126.28 7102.06,122.71 7111.00,122.21              7111.00,122.21 7120.00,122.98 7120.00,122.98              7120.00,122.98 7134.00,122.98 7134.00,122.98              7134.00,122.98 7146.00,121.88 7146.00,121.88              7146.00,121.88 7155.00,121.88 7155.00,121.88              7155.00,121.88 7162.00,121.88 7162.00,121.88              7162.00,121.88 7170.00,121.88 7170.00,121.88              7170.00,121.88 7187.00,121.04 7187.00,121.04              7192.38,121.32 7194.06,123.19 7199.00,124.32              7203.03,125.25 7213.67,126.05 7218.00,126.00              7218.00,126.00 7229.00,125.32 7229.00,125.32              7229.00,125.32 7241.00,125.96 7241.00,125.96              7241.00,125.96 7258.00,125.00 7258.00,125.00              7258.00,125.00 7273.00,125.99 7273.00,125.99              7273.00,125.99 7285.00,125.09 7285.00,125.09              7285.00,125.09 7319.00,127.00 7319.00,127.00              7319.00,127.00 7334.00,126.00 7334.00,126.00              7334.00,126.00 7350.00,126.00 7350.00,126.00              7350.00,126.00 7363.00,124.84 7363.00,124.84              7368.67,125.36 7369.16,126.15 7376.00,125.99              7376.00,125.99 7387.00,125.18 7387.00,125.18              7387.00,125.18 7395.00,125.98 7395.00,125.98              7395.00,125.98 7408.00,125.19 7408.00,125.19              7412.95,125.60 7413.70,126.91 7421.00,127.00              7438.21,127.20 7434.98,124.60 7442.00,123.67              7442.00,123.67 7453.00,123.67 7453.00,123.67              7453.00,123.67 7466.00,121.84 7466.00,121.84              7470.62,121.95 7476.51,125.87 7481.00,127.45              7485.77,129.14 7495.80,129.99 7501.00,130.00              7501.00,130.00 7515.00,130.00 7515.00,130.00              7515.00,130.00 7524.00,129.32 7524.00,129.32              7524.00,129.32 7544.00,130.87 7544.00,130.87              7544.00,130.87 7552.00,130.87 7552.00,130.87              7555.90,130.97 7557.42,132.22 7564.00,131.96              7569.43,131.75 7571.12,130.62 7578.00,131.09              7578.00,131.09 7622.00,134.00 7622.00,134.00              7622.00,134.00 7632.00,133.18 7632.00,133.18              7632.00,133.18 7646.00,133.96 7646.00,133.96              7651.73,133.71 7655.58,132.48 7662.00,133.10              7669.17,133.80 7669.22,137.28 7682.00,136.99              7692.47,136.74 7694.11,132.78 7701.00,132.10              7701.00,132.10 7716.00,131.46 7716.00,131.46              7720.45,132.01 7721.07,133.89 7730.00,134.00              7741.97,134.13 7741.78,132.21 7747.00,131.87              7751.61,131.57 7754.90,134.34 7762.00,133.91              7762.00,133.91 7775.00,131.18 7775.00,131.18              7775.00,131.18 7790.00,132.00 7790.00,132.00              7790.00,132.00 7799.00,132.00 7799.00,132.00              7807.43,132.04 7806.76,133.16 7813.00,133.83              7813.00,133.83 7838.00,135.00 7838.00,135.00              7838.00,135.00 7852.00,135.00 7852.00,135.00              7852.00,135.00 7867.00,134.00 7867.00,134.00              7867.00,134.00 7888.00,134.00 7888.00,134.00              7888.00,134.00 7909.00,135.00 7909.00,135.00              7917.78,135.05 7916.09,136.24 7923.00,137.53              7927.54,138.38 7933.60,137.68 7937.90,139.70              7941.66,141.47 7942.68,145.24 7946.18,148.91              7949.23,152.10 7954.24,155.04 7958.00,157.58              7965.83,162.86 7974.82,164.71 7984.00,161.78              7988.47,160.35 7992.14,157.07 7996.00,157.25              7999.80,157.43 8002.90,160.88 8006.00,162.89              8010.40,165.74 8012.21,165.81 8017.00,166.96              8019.23,167.50 8021.70,168.14 8022.95,170.34              8023.78,171.98 8022.97,180.43 8022.95,183.00              8023.04,186.43 8023.18,188.67 8024.22,192.00              8025.96,197.59 8035.28,214.82 8039.18,218.91              8043.69,223.63 8047.65,224.31 8049.80,227.39              8054.55,234.18 8047.68,240.92 8050.68,254.00              8051.63,258.12 8057.73,270.38 8060.11,274.00              8061.97,276.84 8066.35,281.05 8066.89,284.00              8067.28,286.19 8065.76,289.76 8065.16,292.00              8065.16,292.00 8063.54,299.00 8063.54,299.00              8061.92,304.18 8059.37,305.92 8059.04,314.00              8059.04,314.00 8060.30,332.00 8060.30,332.00              8060.30,332.00 8062.06,340.00 8062.06,340.00              8062.06,340.00 8062.06,352.00 8062.06,352.00              8062.06,352.00 8064.79,362.00 8064.79,362.00              8065.35,365.93 8064.73,367.10 8065.90,372.00              8069.28,386.22 8073.83,386.26 8073.26,402.00              8073.26,402.00 8074.96,429.00 8074.96,429.00              8074.96,429.00 8074.09,444.00 8074.09,444.00              8074.09,444.00 8074.66,450.00 8074.66,450.00              8074.66,450.00 8073.06,458.00 8073.06,458.00              8073.06,458.00 8073.06,467.00 8073.06,467.00              8072.22,472.70 8070.76,473.72 8071.04,481.00              8071.42,490.69 8074.36,497.36 8074.78,501.00              8074.78,501.00 8074.01,513.00 8074.01,513.00              8074.01,513.00 8075.14,525.00 8075.14,525.00              8075.14,525.00 8075.14,532.00 8075.14,532.00              8074.74,542.73 8078.43,546.71 8079.12,551.00              8079.12,551.00 8079.12,561.00 8079.12,561.00              8079.12,561.00 8080.41,572.00 8080.41,572.00              8080.02,574.90 8076.83,579.42 8075.55,583.00              8075.55,583.00 8073.23,591.00 8073.23,591.00              8071.53,595.32 8069.34,597.79 8067.93,603.00              8067.93,603.00 8066.21,614.00 8066.21,614.00              8063.98,621.90 8061.03,625.60 8061.03,635.00              8061.03,641.32 8063.85,646.93 8065.21,653.00              8065.21,653.00 8068.22,677.00 8068.22,677.00              8070.48,684.05 8074.54,686.44 8076.49,691.00              8076.49,691.00 8081.79,710.00 8081.79,710.00              8081.79,710.00 8082.30,718.00 8082.30,718.00              8083.41,725.54 8085.10,723.83 8085.00,734.00              8084.97,736.97 8084.13,746.60 8082.99,749.00              8081.35,752.45 8077.35,755.35 8075.22,762.00              8072.98,769.02 8073.70,777.77 8072.56,785.00              8070.89,795.60 8066.46,806.97 8067.09,818.00              8067.09,818.00 8070.66,841.00 8070.66,841.00              8070.66,841.00 8069.06,849.00 8069.06,849.00              8069.06,849.00 8069.06,858.00 8069.06,858.00              8069.06,858.00 8067.04,869.00 8067.04,869.00              8066.72,876.79 8071.92,891.12 8074.41,899.00              8077.01,907.25 8075.35,911.41 8076.30,918.00              8077.36,925.33 8079.89,926.66 8080.00,935.00              8080.06,940.16 8079.57,946.06 8080.93,951.00              8082.58,957.04 8085.52,958.99 8085.40,963.00              8085.40,963.00 8081.67,976.00 8081.67,976.00              8081.67,976.00 8080.56,988.00 8080.56,988.00              8079.33,995.84 8076.72,1002.77 8077.04,1011.00              8077.04,1011.00 8078.04,1019.00 8078.04,1019.00              8078.04,1019.00 8078.04,1028.00 8078.04,1028.00              8078.04,1028.00 8079.40,1036.00 8079.40,1036.00              8079.37,1042.74 8072.34,1052.98 8073.09,1064.00              8073.51,1070.13 8076.22,1081.01 8079.79,1086.00              8085.70,1094.27 8092.33,1094.52 8091.16,1107.00              8090.80,1110.95 8089.81,1112.14 8090.09,1117.00              8090.09,1117.00 8093.15,1132.00 8093.15,1132.00              8093.15,1132.00 8093.15,1142.00 8093.15,1142.00              8093.15,1142.00 8100.22,1172.00 8100.22,1172.00              8100.22,1172.00 8106.00,1185.00 8106.00,1185.00              8089.04,1194.75 8087.92,1202.11 8088.00,1220.00              8088.05,1231.33 8091.16,1232.84 8091.24,1237.00              8091.24,1237.00 8089.09,1248.00 8089.09,1248.00              8089.09,1248.00 8089.61,1258.00 8089.61,1258.00              8089.24,1263.07 8087.88,1261.79 8088.00,1273.00              8088.08,1279.78 8088.92,1279.50 8089.94,1285.00              8089.94,1285.00 8089.94,1293.00 8089.94,1293.00              8089.94,1293.00 8092.29,1306.00 8092.29,1306.00              8092.29,1306.00 8094.58,1318.00 8094.58,1318.00              8094.61,1323.35 8090.48,1325.17 8090.04,1335.00              8089.83,1339.69 8089.92,1344.54 8091.56,1349.00              8093.15,1353.34 8095.37,1355.11 8095.89,1360.00              8097.45,1374.66 8093.64,1377.93 8094.09,1386.00              8094.28,1389.36 8095.11,1391.42 8094.81,1395.00              8094.81,1395.00 8092.67,1405.00 8092.67,1405.00              8092.67,1405.00 8090.04,1426.00 8090.04,1426.00              8090.33,1433.11 8092.05,1432.23 8092.00,1444.00              8092.00,1444.00 8090.09,1462.00 8090.09,1462.00              8090.09,1462.00 8093.64,1483.00 8093.64,1483.00              8094.45,1485.97 8096.50,1490.35 8096.62,1493.00              8096.78,1496.81 8094.10,1501.81 8094.16,1510.00              8094.16,1510.00 8094.16,1532.00 8094.16,1532.00              8094.16,1532.00 8094.16,1544.00 8094.16,1544.00              8094.16,1544.00 8093.00,1565.00 8093.00,1565.00              8092.94,1578.15 8095.17,1582.13 8095.20,1587.00              8095.23,1592.39 8091.57,1595.55 8092.09,1604.00              8092.55,1611.47 8096.08,1615.23 8096.59,1620.00              8096.59,1620.00 8096.00,1644.00 8096.00,1644.00              8095.87,1654.60 8092.82,1652.50 8093.00,1668.00              8093.00,1668.00 8094.50,1693.00 8094.50,1693.00              8094.50,1693.00 8092.61,1705.00 8092.61,1705.00              8091.64,1709.51 8088.61,1713.20 8089.09,1721.00              8089.68,1730.46 8096.03,1736.69 8097.61,1744.00              8097.61,1744.00 8099.82,1762.00 8099.82,1762.00              8099.84,1766.22 8098.36,1770.49 8099.17,1778.00              8099.17,1778.00 8104.54,1797.00 8104.54,1797.00              8104.54,1797.00 8104.00,1809.00 8104.00,1809.00              8103.99,1816.54 8104.39,1819.40 8102.79,1827.00              8102.79,1827.00 8101.17,1835.00 8101.17,1835.00              8101.17,1835.00 8100.00,1864.00 8100.00,1864.00              8100.00,1864.00 8099.00,1877.00 8099.00,1877.00              8099.00,1877.00 8097.70,1904.00 8097.70,1904.00              8096.49,1912.21 8092.55,1918.44 8093.04,1931.00              8093.04,1931.00 8093.96,1940.00 8093.96,1940.00              8094.28,1948.14 8092.21,1950.77 8090.67,1958.00              8090.67,1958.00 8088.83,1971.00 8088.83,1971.00              8088.83,1971.00 8085.20,1986.00 8085.20,1986.00              8083.63,1993.92 8084.46,1993.41 8083.83,2000.00              8083.83,2000.00 8081.98,2013.00 8081.98,2013.00              8081.98,2013.00 8081.98,2021.00 8081.98,2021.00              8081.98,2021.00 8078.23,2032.00 8078.23,2032.00              8077.74,2035.87 8078.05,2042.77 8078.23,2047.00              8078.23,2047.00 8075.04,2072.00 8075.04,2072.00              8075.04,2072.00 8075.91,2090.00 8075.91,2090.00              8075.91,2090.00 8073.04,2114.00 8073.04,2114.00              8073.04,2114.00 8073.70,2128.00 8073.70,2128.00              8073.70,2128.00 8071.47,2137.00 8071.47,2137.00              8071.47,2137.00 8069.03,2158.00 8069.03,2158.00              8069.03,2170.74 8076.40,2176.94 8078.84,2186.00              8080.60,2192.53 8078.01,2198.63 8078.21,2206.00              8078.21,2206.00 8078.21,2217.00 8078.21,2217.00              8078.21,2217.00 8078.21,2223.00 8078.21,2223.00              8078.36,2226.60 8076.76,2229.25 8077.09,2235.00              8077.36,2239.61 8079.29,2244.63 8078.78,2249.00              8078.78,2249.00 8076.68,2257.00 8076.68,2257.00              8075.67,2261.39 8073.87,2271.72 8074.04,2276.00              8074.04,2276.00 8075.50,2287.00 8075.50,2287.00              8075.76,2293.34 8074.21,2299.37 8075.50,2306.00              8076.62,2312.12 8080.40,2317.39 8080.79,2324.00              8081.11,2329.47 8078.22,2332.74 8077.30,2339.00              8076.51,2344.38 8077.93,2349.63 8078.00,2355.00              8078.00,2355.00 8076.96,2370.00 8076.96,2370.00              8076.96,2370.00 8076.96,2378.00 8076.96,2378.00              8076.36,2382.91 8074.80,2389.24 8075.09,2394.00              8075.55,2401.45 8079.18,2405.76 8078.20,2410.00              8077.52,2412.95 8074.50,2416.18 8072.93,2422.00              8071.68,2426.61 8072.34,2428.23 8071.79,2432.00              8071.79,2432.00 8066.94,2449.00 8066.94,2449.00              8066.94,2449.00 8063.56,2456.00 8063.56,2456.00              8063.56,2456.00 8060.39,2467.00 8060.39,2467.00              8056.65,2476.41 8054.74,2475.26 8055.01,2487.00              8055.35,2501.78 8066.46,2512.05 8069.00,2517.00              8070.03,2519.02 8070.61,2522.71 8070.83,2525.00              8070.83,2525.00 8071.91,2542.00 8071.91,2542.00              8071.91,2542.00 8070.70,2555.00 8070.70,2555.00              8070.03,2559.69 8069.14,2560.34 8069.01,2566.00              8069.01,2566.00 8069.71,2580.00 8069.71,2580.00              8068.73,2585.84 8064.70,2586.54 8065.01,2600.00              8065.24,2609.80 8068.96,2612.27 8069.15,2617.00              8069.15,2617.00 8068.05,2625.00 8068.05,2625.00              8068.05,2625.00 8068.05,2635.00 8068.05,2635.00              8068.19,2651.05 8073.61,2659.28 8073.74,2667.00              8073.82,2671.94 8071.11,2674.96 8071.00,2684.00              8070.90,2693.00 8072.02,2697.41 8073.54,2706.00              8073.54,2706.00 8074.46,2714.00 8074.46,2714.00              8074.46,2714.00 8077.19,2725.00 8077.19,2725.00              8077.41,2730.67 8074.33,2734.13 8072.56,2739.00              8070.98,2743.32 8071.01,2746.52 8071.09,2751.00              8071.09,2751.00 8071.09,2771.00 8071.09,2771.00              8071.65,2775.43 8073.13,2778.14 8072.90,2783.00              8072.90,2783.00 8071.08,2793.00 8071.08,2793.00              8069.23,2803.59 8067.05,2814.23 8067.00,2825.00              8066.93,2838.02 8062.58,2838.59 8063.04,2850.00              8063.29,2856.21 8065.25,2858.82 8065.25,2862.00              8065.25,2862.00 8063.08,2872.00 8063.08,2872.00              8063.08,2872.00 8063.08,2886.00 8063.08,2886.00              8063.08,2886.00 8061.09,2906.00 8061.09,2906.00              8061.09,2906.00 8061.09,2917.00 8061.09,2917.00              8061.53,2920.36 8062.85,2923.59 8062.61,2927.00              8062.61,2927.00 8059.09,2946.00 8059.09,2946.00              8059.09,2946.00 8059.91,2965.00 8059.91,2965.00              8059.52,2970.42 8057.75,2972.92 8058.09,2979.00              8058.57,2987.44 8059.50,2995.76 8061.43,3004.00              8061.43,3004.00 8064.52,3014.00 8064.52,3014.00              8064.52,3014.00 8063.04,3033.00 8063.04,3033.00              8062.83,3039.67 8064.65,3041.99 8064.90,3047.00              8064.90,3047.00 8064.00,3061.00 8064.00,3061.00              8063.99,3065.48 8063.71,3071.79 8064.68,3076.00              8065.73,3080.59 8068.17,3084.14 8068.26,3089.00              8068.32,3092.13 8067.28,3094.98 8066.67,3098.00              8066.67,3098.00 8065.53,3107.00 8065.53,3107.00              8063.89,3115.71 8060.61,3120.33 8061.04,3131.00              8061.37,3139.17 8066.47,3147.00 8065.81,3155.00              8065.43,3159.61 8063.73,3162.03 8064.09,3168.00              8064.09,3168.00 8068.22,3192.00 8068.22,3192.00              8070.75,3199.63 8078.80,3208.08 8077.58,3217.00              8076.35,3226.05 8071.01,3230.96 8071.01,3242.00              8071.01,3248.87 8072.35,3250.19 8072.42,3254.00              8072.70,3257.53 8071.38,3261.78 8072.42,3268.00              8073.40,3275.45 8076.36,3281.16 8075.29,3290.00              8075.29,3290.00 8070.67,3306.00 8070.67,3306.00              8070.67,3306.00 8068.40,3324.00 8068.40,3324.00              8067.05,3329.67 8064.45,3335.10 8064.09,3341.00              8064.09,3341.00 8064.69,3352.00 8064.69,3352.00              8063.96,3356.58 8060.34,3358.80 8058.68,3366.00              8057.87,3369.51 8058.01,3372.45 8058.00,3376.00              8057.98,3387.22 8056.01,3385.25 8055.17,3393.00              8054.45,3399.62 8056.19,3408.24 8056.83,3415.00              8057.38,3420.71 8056.35,3424.04 8058.56,3430.00              8061.88,3438.97 8068.71,3442.73 8074.68,3449.17              8074.68,3449.17 8082.41,3459.00 8082.41,3459.00              8083.95,3461.13 8087.70,3466.70 8088.44,3469.00              8088.44,3469.00 8089.93,3479.00 8089.93,3479.00              8091.54,3484.90 8094.37,3487.09 8095.49,3491.00              8095.49,3491.00 8096.68,3502.00 8096.68,3502.00              8098.22,3508.84 8101.34,3512.27 8100.91,3520.00              8100.91,3520.00 8100.00,3532.00 8100.00,3532.00              8100.00,3532.00 8100.00,3537.00 8100.00,3537.00              8100.00,3537.00 8102.79,3557.00 8102.79,3557.00              8102.79,3557.00 8099.39,3576.00 8099.39,3576.00              8098.49,3582.37 8099.86,3586.67 8099.39,3590.00              8099.33,3593.76 8097.74,3596.26 8098.09,3602.00              8098.09,3602.00 8102.71,3624.00 8102.71,3624.00              8102.71,3624.00 8102.04,3639.00 8102.04,3639.00              8102.04,3639.00 8103.79,3650.00 8103.79,3650.00              8103.79,3650.00 8103.01,3661.00 8103.01,3661.00              8103.01,3668.14 8104.58,3669.93 8104.74,3674.00              8104.74,3674.00 8104.09,3685.00 8104.09,3685.00              8104.57,3692.08 8107.69,3695.67 8107.18,3703.00              8107.18,3703.00 8104.09,3725.00 8104.09,3725.00              8104.09,3725.00 8101.79,3756.00 8101.79,3756.00              8100.50,3762.72 8095.54,3764.69 8096.04,3777.00              8096.45,3787.17 8104.11,3798.97 8111.96,3805.00              8110.90,3811.16 8110.26,3818.90 8111.96,3825.00              8113.62,3831.16 8116.89,3833.46 8116.68,3838.00              8116.68,3838.00 8113.66,3848.00 8113.66,3848.00              8113.66,3848.00 8109.54,3864.00 8109.54,3864.00              8109.54,3864.00 8106.56,3871.00 8106.56,3871.00              8105.19,3874.77 8104.05,3885.80 8104.00,3890.00              8103.95,3894.28 8104.59,3902.13 8102.07,3905.61              8100.29,3908.06 8094.82,3910.23 8092.00,3912.10              8087.53,3915.08 8082.23,3920.38 8079.48,3925.00              8076.13,3930.62 8074.79,3944.40 8075.18,3951.00              8075.18,3951.00 8075.18,3959.00 8075.18,3959.00              8075.18,3959.00 8075.18,3968.00 8075.18,3968.00              8075.15,3973.98 8076.34,3975.36 8076.61,3979.00              8076.61,3979.00 8076.09,3989.00 8076.09,3989.00              8076.09,3989.00 8078.94,4004.00 8078.94,4004.00              8078.94,4004.00 8078.94,4013.00 8078.94,4013.00              8078.94,4013.00 8082.45,4031.00 8082.45,4031.00              8082.45,4031.00 8090.37,4051.00 8090.37,4051.00              8091.29,4054.27 8090.96,4059.47 8091.00,4063.00              8091.09,4070.37 8092.31,4070.89 8092.61,4075.00              8092.61,4075.00 8092.09,4086.00 8092.09,4086.00              8092.09,4086.00 8093.20,4094.00 8093.20,4094.00              8093.20,4094.00 8093.20,4104.00 8093.20,4104.00              8093.20,4104.00 8094.00,4119.00 8094.00,4119.00              8093.96,4122.38 8093.37,4128.98 8092.07,4132.00              8090.64,4135.34 8087.95,4137.62 8086.22,4143.00              8084.55,4148.21 8084.94,4156.37 8085.00,4162.00              8085.10,4170.08 8087.16,4172.42 8087.11,4176.00              8087.11,4176.00 8085.09,4187.00 8085.09,4187.00              8084.68,4193.69 8086.57,4195.50 8087.63,4201.00              8087.63,4201.00 8089.79,4224.00 8089.79,4224.00              8089.08,4237.82 8080.46,4249.49 8080.01,4269.00              8079.79,4278.77 8082.53,4284.42 8083.27,4293.00              8083.27,4293.00 8083.27,4303.00 8083.27,4303.00              8083.52,4309.86 8088.38,4318.67 8087.75,4325.00              8087.75,4325.00 8084.67,4336.00 8084.67,4336.00              8084.67,4336.00 8082.83,4350.00 8082.83,4350.00              8082.83,4350.00 8080.30,4360.00 8080.30,4360.00              8080.30,4360.00 8078.79,4379.00 8078.79,4379.00              8078.79,4379.00 8076.47,4388.00 8076.47,4388.00              8076.47,4388.00 8074.46,4402.00 8074.46,4402.00              8074.46,4402.00 8073.69,4410.00 8073.69,4410.00              8072.87,4413.43 8069.71,4416.78 8067.88,4420.00              8064.91,4425.20 8064.07,4429.09 8064.00,4435.00              8063.80,4452.56 8067.96,4451.94 8070.51,4461.00              8071.61,4464.90 8070.60,4470.39 8076.53,4478.00              8084.05,4487.67 8091.82,4487.54 8095.47,4491.30              8100.14,4496.11 8099.93,4506.63 8100.00,4513.00              8100.23,4531.99 8113.09,4542.55 8111.94,4559.00              8111.52,4564.96 8107.76,4567.06 8105.56,4573.00              8103.79,4577.76 8104.49,4580.51 8100.40,4590.00              8098.04,4595.50 8095.22,4597.32 8093.68,4604.00              8092.64,4608.51 8093.06,4615.18 8093.00,4620.00              8093.00,4620.00 8087.42,4644.00 8087.42,4644.00              8087.42,4644.00 8087.42,4662.00 8087.42,4662.00              8086.99,4666.55 8085.81,4668.13 8086.04,4674.00              8086.04,4674.00 8086.66,4681.00 8086.66,4681.00              8086.61,4685.12 8084.72,4687.92 8085.09,4694.00              8085.75,4704.68 8091.24,4705.67 8094.58,4721.00              8095.03,4723.07 8095.68,4725.91 8095.44,4728.00              8095.03,4731.55 8092.56,4734.18 8091.47,4740.00              8091.47,4740.00 8090.30,4753.00 8090.30,4753.00              8088.88,4757.37 8084.62,4761.48 8084.09,4770.00              8083.74,4775.72 8085.36,4778.44 8085.61,4782.00              8085.61,4782.00 8083.44,4798.00 8083.44,4798.00              8083.44,4798.00 8070.95,4819.00 8070.95,4819.00              8068.39,4825.05 8069.64,4828.83 8067.98,4831.83              8066.34,4834.79 8062.19,4836.78 8058.48,4843.00              8055.78,4847.52 8055.82,4851.65 8053.47,4854.24              8053.47,4854.24 8044.04,4862.04 8044.04,4862.04              8035.81,4870.27 8034.87,4875.93 8035.00,4887.00              8035.13,4898.15 8038.27,4899.13 8040.32,4905.00              8040.32,4905.00 8042.22,4913.00 8042.22,4913.00              8042.93,4915.34 8044.10,4917.54 8044.33,4920.00              8044.92,4926.39 8042.44,4930.37 8040.93,4936.00              8039.00,4943.17 8039.63,4953.55 8043.48,4960.00              8049.29,4969.75 8056.11,4971.81 8065.00,4976.90              8065.00,4976.90 8073.00,4982.54 8073.00,4982.54              8075.56,4984.15 8078.58,4985.61 8080.71,4987.82              8084.48,4991.73 8081.83,4994.62 8084.95,5002.00              8084.95,5002.00 8092.22,5014.00 8092.22,5014.00              8097.06,5024.36 8094.91,5022.71 8096.67,5031.00              8096.67,5031.00 8098.68,5039.00 8098.68,5039.00              8098.68,5039.00 8100.66,5058.00 8100.66,5058.00              8100.66,5058.00 8095.19,5084.00 8095.19,5084.00              8095.19,5084.00 8092.56,5090.00 8092.56,5090.00              8092.56,5090.00 8089.49,5100.83 8089.49,5100.83              8087.83,5104.23 8083.93,5106.22 8080.48,5112.00              8076.79,5118.19 8077.65,5122.16 8076.16,5126.00              8076.16,5126.00 8070.55,5137.00 8070.55,5137.00              8068.54,5142.64 8068.93,5149.07 8069.00,5155.00              8069.18,5169.57 8076.40,5173.54 8078.99,5179.00              8080.53,5182.25 8079.50,5184.51 8080.92,5190.00              8080.92,5190.00 8086.44,5211.00 8086.44,5211.00              8086.74,5214.63 8085.13,5217.47 8084.47,5221.00              8084.47,5221.00 8083.00,5236.00 8083.00,5236.00              8082.95,5240.68 8082.71,5249.78 8083.68,5254.00              8084.95,5259.51 8087.20,5261.46 8087.64,5265.00              8087.64,5265.00 8087.00,5287.00 8087.00,5287.00              8087.00,5287.00 8085.03,5304.00 8085.03,5304.00              8085.03,5312.77 8088.82,5316.36 8088.82,5322.00              8088.82,5327.55 8085.33,5331.03 8084.30,5338.00              8083.32,5344.60 8084.85,5350.60 8084.82,5357.00              8084.82,5357.00 8083.09,5368.00 8083.09,5368.00              8083.09,5368.00 8083.82,5380.00 8083.82,5380.00              8083.36,5386.43 8081.61,5392.46 8082.09,5399.00              8082.44,5403.84 8085.17,5413.25 8084.34,5418.00              8083.71,5421.56 8080.72,5424.37 8079.23,5431.00              8078.80,5434.53 8079.04,5438.40 8079.23,5442.00              8078.91,5449.55 8077.17,5452.23 8076.09,5459.00              8076.09,5459.00 8076.09,5470.00 8076.09,5470.00              8075.37,5475.63 8073.20,5477.08 8073.01,5485.00              8072.85,5491.92 8074.54,5499.67 8077.35,5506.00              8077.35,5506.00 8084.19,5519.00 8084.19,5519.00              8084.19,5519.00 8086.72,5533.00 8086.72,5533.00              8087.16,5536.10 8088.12,5542.18 8087.34,5545.00              8086.31,5548.72 8083.45,5551.43 8081.93,5557.00              8080.71,5561.45 8080.95,5567.33 8081.00,5572.00              8081.00,5572.00 8081.96,5586.00 8081.96,5586.00              8081.66,5593.55 8079.01,5595.11 8080.43,5605.00              8080.98,5608.82 8082.29,5616.57 8083.56,5620.00              8086.39,5627.66 8087.95,5625.20 8088.00,5635.00              8088.00,5635.00 8088.00,5654.00 8088.00,5654.00              8087.86,5665.16 8084.44,5664.75 8080.95,5673.00              8078.63,5678.50 8079.41,5682.02 8078.44,5685.00              8078.44,5685.00 8072.56,5696.00 8072.56,5696.00              8069.83,5703.37 8072.03,5708.24 8069.98,5711.68              8068.25,5714.58 8062.12,5717.23 8057.48,5725.00              8053.84,5731.10 8052.41,5741.71 8050.27,5744.72              8050.27,5744.72 8042.53,5753.00 8042.53,5753.00              8040.60,5755.48 8038.71,5759.51 8036.61,5761.30              8036.61,5761.30 8028.00,5766.11 8028.00,5766.11              8028.00,5766.11 8013.00,5777.74 8013.00,5777.74              8008.26,5781.32 7996.37,5791.26 7992.00,5793.44              7986.47,5796.20 7970.66,5795.26 7964.00,5796.46              7958.55,5797.45 7956.48,5799.04 7952.00,5800.38              7952.00,5800.38 7937.00,5802.93 7937.00,5802.93              7931.46,5804.45 7929.43,5806.87 7926.00,5808.16              7926.00,5808.16 7912.00,5810.56 7912.00,5810.56              7904.62,5811.72 7902.30,5810.70 7895.00,5814.88              7891.62,5816.81 7886.01,5822.24 7883.00,5822.54              7879.16,5822.92 7876.36,5818.97 7871.00,5816.40              7867.98,5814.95 7856.50,5812.54 7853.00,5812.17              7840.72,5810.88 7836.26,5816.99 7831.00,5818.49              7828.57,5819.19 7824.63,5818.97 7822.00,5819.00              7809.83,5819.15 7807.64,5823.83 7802.00,5824.44              7802.00,5824.44 7791.00,5823.04 7791.00,5823.04              7783.36,5822.79 7781.23,5825.32 7774.00,5824.91              7774.00,5824.91 7753.00,5823.09 7753.00,5823.09              7742.44,5823.74 7735.20,5829.29 7728.00,5831.10              7728.00,5831.10 7707.00,5834.66 7707.00,5834.66              7702.59,5834.66 7699.49,5832.37 7692.00,5833.17              7683.97,5834.03 7682.31,5837.52 7676.00,5837.95              7665.27,5838.68 7659.61,5832.16 7646.00,5832.00              7646.00,5832.00 7598.00,5836.97 7598.00,5836.97              7587.21,5836.97 7578.00,5833.28 7572.00,5833.04              7563.36,5832.69 7561.06,5835.33 7556.00,5834.59              7551.80,5833.97 7547.19,5831.20 7539.00,5831.01              7533.34,5830.88 7519.44,5833.52 7514.00,5835.22              7510.06,5836.45 7505.72,5839.47 7502.00,5839.49              7502.00,5839.49 7478.00,5833.68 7478.00,5833.68              7473.28,5832.62 7466.06,5833.06 7461.00,5833.00              7454.44,5832.92 7448.41,5831.21 7442.00,5830.30              7442.00,5830.30 7419.00,5829.04 7419.00,5829.04              7419.00,5829.04 7409.00,5830.70 7409.00,5830.70              7409.00,5830.70 7393.00,5832.00 7393.00,5832.00              7388.16,5832.05 7382.60,5832.21 7378.00,5830.58              7373.55,5829.00 7371.83,5826.53 7366.00,5824.93              7366.00,5824.93 7352.00,5822.50 7352.00,5822.50              7342.20,5820.26 7330.11,5817.63 7320.00,5818.04              7308.64,5818.50 7299.63,5826.97 7283.00,5827.00              7283.00,5827.00 7265.00,5827.00 7265.00,5827.00              7257.55,5827.09 7257.54,5828.23 7252.00,5829.06              7252.00,5829.06 7243.00,5829.06 7243.00,5829.06              7243.00,5829.06 7225.00,5832.83 7225.00,5832.83              7212.74,5834.14 7208.39,5829.67 7200.00,5829.09              7191.09,5828.48 7185.74,5832.62 7177.00,5832.96              7177.00,5832.96 7154.00,5831.09 7154.00,5831.09              7154.00,5831.09 7142.00,5832.91 7142.00,5832.91              7142.00,5832.91 7128.00,5833.47 7128.00,5833.47              7121.86,5834.61 7118.22,5836.95 7111.00,5836.39              7107.12,5836.24 7105.12,5835.69 7101.00,5836.39              7094.02,5837.33 7091.59,5840.41 7086.00,5840.89              7086.00,5840.89 7063.00,5840.00 7063.00,5840.00              7063.00,5840.00 7050.00,5839.04 7050.00,5839.04              7044.27,5839.22 7039.15,5840.72 7033.00,5839.79              7028.30,5839.08 7026.00,5836.60 7019.00,5836.09              7007.30,5835.23 7004.26,5838.33 6999.00,5837.48              6994.46,5836.75 6991.87,5834.24 6988.00,5832.40              6985.54,5831.23 6970.62,5826.46 6968.00,5826.17              6958.55,5825.15 6956.60,5827.01 6949.00,5827.83              6944.25,5828.34 6942.20,5827.57 6937.00,5829.22              6930.52,5831.28 6926.72,5834.75 6918.00,5835.43              6913.24,5835.81 6910.70,5832.90 6904.00,5832.15              6904.00,5832.15 6892.00,5832.15 6892.00,5832.15              6892.00,5832.15 6884.00,5830.30 6884.00,5830.30              6884.00,5830.30 6864.00,5829.05 6864.00,5829.05              6864.00,5829.05 6851.00,5829.05 6851.00,5829.05              6843.38,5828.75 6840.31,5831.38 6837.00,5831.21              6832.68,5830.99 6830.21,5826.77 6821.00,5826.09              6808.65,5825.18 6805.54,5828.50 6801.00,5828.49              6798.41,5828.49 6794.89,5827.01 6787.00,5827.00              6787.00,5827.00 6773.00,5827.66 6773.00,5827.66              6773.00,5827.66 6766.00,5827.02 6766.00,5827.02              6766.00,5827.02 6745.00,5827.02 6745.00,5827.02              6745.00,5827.02 6717.00,5825.04 6717.00,5825.04              6704.99,5825.53 6702.20,5832.52 6693.00,5832.87              6693.00,5832.87 6655.00,5830.04 6655.00,5830.04              6655.00,5830.04 6639.00,5830.04 6639.00,5830.04              6634.65,5830.39 6633.00,5831.16 6628.00,5830.96              6621.26,5830.69 6621.41,5829.02 6611.00,5829.00              6611.00,5829.00 6573.00,5830.00 6573.00,5830.00              6566.17,5830.08 6561.63,5831.92 6555.00,5832.87              6555.00,5832.87 6539.00,5834.17 6539.00,5834.17              6539.00,5834.17 6528.00,5836.26 6528.00,5836.26              6522.84,5837.26 6518.42,5839.92 6514.00,5839.87              6500.80,5839.72 6496.21,5832.60 6486.00,5829.22              6475.15,5825.62 6473.74,5826.87 6464.00,5825.83              6464.00,5825.83 6455.00,5824.09 6455.00,5824.09              6455.00,5824.09 6439.00,5824.09 6439.00,5824.09              6428.53,5824.13 6425.14,5827.65 6421.00,5828.00              6417.61,5828.28 6415.24,5826.10 6407.00,5826.00              6407.00,5826.00 6387.00,5827.91 6387.00,5827.91              6387.00,5827.91 6374.00,5826.01 6374.00,5826.01              6361.95,5825.74 6362.73,5828.37 6354.00,5830.06              6342.48,5832.30 6341.29,5831.95 6330.00,5832.32              6330.00,5832.32 6319.00,5832.32 6319.00,5832.32              6314.19,5832.18 6309.85,5831.55 6305.00,5832.32              6305.00,5832.32 6295.00,5835.52 6295.00,5835.52              6295.00,5835.52 6280.00,5835.00 6280.00,5835.00              6280.00,5835.00 6269.00,5834.04 6269.00,5834.04              6269.00,5834.04 6260.00,5834.66 6260.00,5834.66              6260.00,5834.66 6253.00,5834.02 6253.00,5834.02              6253.00,5834.02 6240.00,5834.02 6240.00,5834.02              6240.00,5834.02 6216.00,5836.99 6216.00,5836.99              6202.97,5837.30 6206.44,5834.24 6197.00,5831.22              6192.47,5829.77 6187.69,5829.95 6183.00,5830.00              6183.00,5830.00 6169.00,5832.06 6169.00,5832.06              6169.00,5832.06 6160.00,5832.06 6160.00,5832.06              6160.00,5832.06 6153.00,5833.61 6153.00,5833.61              6153.00,5833.61 6141.00,5832.04 6141.00,5832.04              6135.98,5831.84 6130.72,5832.86 6126.00,5834.55              6122.93,5835.64 6119.01,5838.13 6116.00,5838.29              6112.31,5838.48 6108.14,5835.66 6101.00,5836.09              6095.65,5836.42 6094.58,5837.91 6087.00,5838.12              6087.00,5838.12 6057.00,5838.12 6057.00,5838.12              6057.00,5838.12 6048.00,5838.12 6048.00,5838.12              6048.00,5838.12 6031.00,5836.04 6031.00,5836.04              6031.00,5836.04 6015.00,5837.00 6015.00,5837.00              6000.96,5837.07 5997.06,5841.00 5991.00,5840.53              5991.00,5840.53 5965.00,5841.19 5965.00,5841.19              5960.61,5840.84 5958.44,5838.36 5951.00,5838.04              5951.00,5838.04 5939.00,5838.90 5939.00,5838.90              5939.00,5838.90 5923.00,5837.61 5923.00,5837.61              5923.00,5837.61 5911.00,5832.55 5911.00,5832.55              5905.91,5830.75 5901.29,5830.94 5896.00,5831.00              5882.78,5831.16 5877.15,5835.94 5873.00,5836.22              5873.00,5836.22 5853.00,5836.22 5853.00,5836.22              5853.00,5836.22 5827.00,5837.26 5827.00,5837.26              5827.00,5837.26 5803.00,5837.26 5803.00,5837.26              5791.01,5836.59 5791.55,5841.17 5776.00,5841.00              5776.00,5841.00 5759.00,5839.70 5759.00,5839.70              5759.00,5839.70 5750.00,5838.09 5750.00,5838.09              5750.00,5838.09 5727.00,5839.00 5727.00,5839.00              5727.00,5839.00 5707.00,5840.28 5707.00,5840.28              5707.00,5840.28 5689.00,5842.79 5689.00,5842.79              5682.22,5843.05 5681.11,5838.77 5669.00,5839.02              5669.00,5839.02 5652.00,5841.00 5652.00,5841.00              5652.00,5841.00 5636.00,5841.00 5636.00,5841.00              5636.00,5841.00 5617.00,5842.00 5617.00,5842.00              5617.00,5842.00 5602.00,5843.62 5602.00,5843.62              5602.00,5843.62 5591.00,5841.16 5591.00,5841.16              5591.00,5841.16 5569.00,5840.25 5569.00,5840.25              5558.14,5839.80 5558.54,5836.47 5549.00,5836.04              5537.71,5835.53 5536.80,5837.65 5528.00,5838.69              5528.00,5838.69 5517.00,5838.03 5517.00,5838.03              5517.00,5838.03 5505.00,5838.96 5505.00,5838.96              5505.00,5838.96 5482.00,5838.96 5482.00,5838.96              5473.08,5837.10 5474.48,5833.02 5459.00,5833.09              5459.00,5833.09 5443.00,5833.09 5443.00,5833.09              5439.32,5833.57 5436.77,5834.83 5433.00,5834.45              5428.69,5834.01 5427.43,5832.86 5422.00,5833.04              5415.23,5833.27 5412.89,5835.78 5408.00,5835.23              5402.90,5834.66 5400.57,5832.72 5394.00,5833.09              5390.53,5833.29 5388.80,5834.09 5385.00,5833.82              5385.00,5833.82 5363.00,5833.00 5363.00,5833.00              5353.65,5833.04 5354.99,5834.43 5349.00,5835.30              5345.53,5835.80 5342.28,5834.07 5339.00,5833.15              5332.72,5831.39 5322.03,5827.84 5316.00,5828.04              5305.67,5828.39 5299.76,5833.66 5295.00,5835.32              5290.10,5837.03 5282.23,5837.99 5277.00,5837.96              5277.00,5837.96 5266.00,5837.96 5266.00,5837.96              5266.00,5837.96 5256.00,5837.01 5256.00,5837.01              5256.00,5837.01 5247.00,5837.66 5247.00,5837.66              5247.00,5837.66 5235.00,5837.00 5235.00,5837.00              5235.00,5837.00 5215.00,5838.00 5215.00,5838.00              5215.00,5838.00 5182.00,5841.17 5182.00,5841.17              5178.30,5841.58 5174.75,5843.01 5171.00,5842.87              5165.65,5842.67 5161.89,5839.74 5157.00,5838.22              5152.49,5836.82 5143.79,5835.90 5139.00,5836.01              5139.00,5836.01 5127.00,5837.66 5127.00,5837.66              5127.00,5837.66 5121.00,5837.04 5121.00,5837.04              5121.00,5837.04 5109.00,5837.04 5109.00,5837.04              5109.00,5837.04 5091.00,5835.63 5091.00,5835.63              5085.29,5834.53 5084.12,5832.80 5077.00,5833.04              5067.67,5833.35 5065.49,5837.55 5057.00,5837.96              5046.40,5838.48 5044.51,5836.05 5035.00,5836.00              5035.00,5836.00 5024.00,5836.00 5024.00,5836.00              5024.00,5836.00 5003.00,5835.00 5003.00,5835.00              5003.00,5835.00 4993.00,5835.96 4993.00,5835.96              4993.00,5835.96 4979.00,5835.96 4979.00,5835.96              4979.00,5835.96 4962.00,5837.91 4962.00,5837.91              4962.00,5837.91 4947.00,5837.91 4947.00,5837.91              4934.58,5837.79 4930.08,5827.22 4916.00,5828.09              4903.03,5828.89 4900.50,5837.97 4884.00,5838.08              4884.00,5838.08 4874.00,5838.08 4874.00,5838.08              4874.00,5838.08 4865.00,5839.54 4865.00,5839.54              4865.00,5839.54 4852.00,5837.17 4852.00,5837.17              4852.00,5837.17 4837.00,5838.00 4837.00,5838.00              4837.00,5838.00 4817.00,5838.00 4817.00,5838.00              4817.00,5838.00 4798.00,5838.96 4798.00,5838.96              4798.00,5838.96 4751.00,5836.00 4751.00,5836.00              4751.00,5836.00 4730.00,5837.29 4730.00,5837.29              4722.22,5838.30 4721.12,5839.96 4712.00,5840.00              4712.00,5840.00 4690.00,5841.00 4690.00,5841.00              4690.00,5841.00 4678.00,5841.00 4678.00,5841.00              4678.00,5841.00 4658.00,5839.08 4658.00,5839.08              4658.00,5839.08 4642.00,5839.08 4642.00,5839.08              4642.00,5839.08 4620.00,5840.00 4620.00,5840.00              4620.00,5840.00 4606.00,5839.04 4606.00,5839.04              4606.00,5839.04 4596.00,5839.81 4596.00,5839.81              4587.10,5839.08 4577.97,5835.69 4569.00,5836.04              4569.00,5836.04 4562.00,5836.66 4562.00,5836.66              4562.00,5836.66 4551.00,5836.00 4551.00,5836.00              4551.00,5836.00 4519.00,5836.00 4519.00,5836.00              4519.00,5836.00 4507.00,5836.97 4507.00,5836.97              4507.00,5836.97 4492.00,5836.01 4492.00,5836.01              4492.00,5836.01 4469.00,5838.00 4469.00,5838.00              4453.48,5838.18 4457.60,5834.66 4443.00,5835.01              4435.17,5835.20 4432.47,5837.39 4426.00,5838.63              4426.00,5838.63 4402.00,5840.83 4402.00,5840.83              4396.51,5841.29 4393.13,5839.68 4388.00,5839.08              4388.00,5839.08 4377.00,5839.08 4377.00,5839.08              4377.00,5839.08 4356.00,5837.70 4356.00,5837.70              4349.29,5836.74 4342.86,5835.08 4336.00,5835.00              4336.00,5835.00 4321.00,5835.00 4321.00,5835.00              4313.46,5834.90 4314.30,5833.65 4308.00,5831.93              4300.80,5829.95 4286.21,5826.75 4279.00,5827.04              4269.95,5827.40 4269.14,5830.81 4256.00,5829.91              4256.00,5829.91 4238.00,5828.61 4238.00,5828.61              4233.06,5827.57 4231.32,5825.01 4222.00,5825.01              4212.41,5825.01 4211.90,5827.88 4203.00,5828.00              4197.73,5828.06 4177.87,5825.62 4173.00,5824.21              4173.00,5824.21 4161.09,5819.37 4161.09,5819.37              4156.60,5817.03 4156.82,5814.10 4150.00,5808.67              4139.30,5800.15 4133.87,5800.85 4121.00,5801.00              4117.98,5801.04 4115.96,5801.13 4113.00,5801.93              4109.09,5802.99 4090.26,5811.43 4087.00,5813.79              4077.23,5820.86 4081.28,5825.93 4068.00,5826.00              4068.00,5826.00 4064.00,5826.00 4064.00,5826.00              4056.73,5826.09 4053.48,5827.78 4047.00,5828.70              4042.16,5829.39 4039.43,5828.46 4034.00,5829.93              4034.00,5829.93 4022.00,5834.95 4022.00,5834.95              4022.00,5834.95 4011.00,5834.95 4011.00,5834.95              4011.00,5834.95 3986.00,5837.08 3986.00,5837.08              3986.00,5837.08 3975.00,5839.98 3975.00,5839.98              3975.00,5839.98 3965.00,5839.98 3965.00,5839.98              3957.99,5840.92 3959.93,5841.98 3950.00,5842.00              3950.00,5842.00 3940.00,5842.00 3940.00,5842.00              3940.00,5842.00 3900.00,5847.91 3900.00,5847.91              3900.00,5847.91 3889.00,5846.09 3889.00,5846.09              3889.00,5846.09 3868.00,5845.00 3868.00,5845.00              3868.00,5845.00 3845.00,5842.99 3845.00,5842.99              3845.00,5842.99 3837.00,5842.99 3837.00,5842.99              3830.41,5842.29 3830.35,5839.76 3819.00,5840.01              3819.00,5840.01 3802.00,5841.00 3802.00,5841.00              3802.00,5841.00 3787.00,5842.74 3787.00,5842.74              3787.00,5842.74 3752.00,5839.04 3752.00,5839.04              3752.00,5839.04 3741.00,5839.96 3741.00,5839.96              3741.00,5839.96 3717.00,5838.00 3717.00,5838.00              3717.00,5838.00 3697.00,5838.00 3697.00,5838.00              3697.00,5838.00 3682.00,5838.96 3682.00,5838.96              3682.00,5838.96 3666.00,5838.00 3666.00,5838.00              3666.00,5838.00 3647.00,5836.01 3647.00,5836.01              3647.00,5836.01 3638.00,5836.95 3638.00,5836.95              3638.00,5836.95 3625.00,5836.95 3625.00,5836.95              3625.00,5836.95 3609.00,5836.00 3609.00,5836.00              3604.41,5836.01 3601.45,5835.98 3597.00,5837.55              3593.14,5838.91 3590.20,5841.28 3586.00,5841.37              3586.00,5841.37 3565.00,5840.00 3565.00,5840.00              3565.00,5840.00 3540.00,5838.83 3540.00,5838.83              3532.98,5838.07 3534.93,5837.02 3525.00,5837.00              3525.00,5837.00 3494.00,5838.17 3494.00,5838.17              3486.24,5839.02 3488.20,5840.98 3477.00,5841.00              3477.00,5841.00 3463.00,5840.04 3463.00,5840.04              3463.00,5840.04 3449.00,5840.04 3449.00,5840.04              3449.00,5840.04 3434.00,5838.08 3434.00,5838.08              3434.00,5838.08 3420.00,5838.08 3420.00,5838.08              3407.09,5837.98 3395.39,5830.97 3376.00,5831.00              3376.00,5831.00 3359.00,5831.96 3359.00,5831.96              3359.00,5831.96 3341.00,5829.04 3341.00,5829.04              3341.00,5829.04 3326.00,5829.04 3326.00,5829.04              3319.14,5828.80 3310.88,5830.84 3304.00,5831.72              3304.00,5831.72 3288.00,5833.29 3288.00,5833.29              3288.00,5833.29 3279.00,5835.00 3279.00,5835.00              3279.00,5835.00 3268.00,5835.00 3268.00,5835.00              3268.00,5835.00 3258.00,5836.91 3258.00,5836.91              3253.84,5837.16 3251.80,5836.35 3248.00,5836.05              3248.00,5836.05 3238.00,5836.05 3238.00,5836.05              3224.84,5836.16 3222.18,5841.43 3214.00,5844.67              3201.66,5849.54 3201.34,5847.72 3192.00,5849.47              3184.20,5850.93 3187.03,5851.98 3177.00,5851.92              3177.00,5851.92 3165.00,5851.92 3165.00,5851.92              3159.15,5851.25 3156.75,5849.77 3150.00,5850.04              3150.00,5850.04 3140.00,5851.94 3140.00,5851.94              3140.00,5851.94 3133.00,5851.94 3133.00,5851.94              3126.75,5852.86 3125.10,5854.74 3120.00,5856.40              3114.28,5858.27 3106.02,5859.06 3100.00,5859.00              3092.73,5858.91 3089.48,5857.22 3083.00,5856.06              3083.00,5856.06 3074.00,5856.06 3074.00,5856.06              3074.00,5856.06 3059.00,5852.32 3059.00,5852.32              3055.34,5851.04 3053.83,5849.21 3048.00,5847.44              3048.00,5847.44 3029.00,5842.46 3029.00,5842.46              3029.00,5842.46 3019.00,5841.63 3019.00,5841.63              3019.00,5841.63 3009.00,5839.13 3009.00,5839.13              3009.00,5839.13 2989.00,5836.89 2989.00,5836.89              2989.00,5836.89 2981.00,5836.89 2981.00,5836.89              2981.00,5836.89 2970.00,5834.30 2970.00,5834.30              2970.00,5834.30 2951.00,5832.70 2951.00,5832.70              2945.49,5831.92 2945.79,5831.08 2939.00,5831.00              2939.00,5831.00 2932.00,5831.00 2932.00,5831.00              2924.82,5830.91 2924.74,5829.85 2919.00,5829.17              2910.52,5828.16 2905.54,5827.90 2897.00,5828.00              2890.23,5828.08 2890.51,5828.91 2885.00,5829.70              2885.00,5829.70 2877.00,5830.28 2877.00,5830.28              2877.00,5830.28 2860.00,5832.17 2860.00,5832.17              2860.00,5832.17 2841.00,5832.17 2841.00,5832.17              2828.30,5832.15 2823.83,5836.97 2817.00,5838.14              2812.16,5838.97 2810.45,5837.65 2806.00,5837.09              2806.00,5837.09 2790.00,5837.09 2790.00,5837.09              2790.00,5837.09 2766.00,5839.81 2766.00,5839.81              2766.00,5839.81 2759.00,5838.46 2759.00,5838.46              2759.00,5838.46 2729.00,5832.49 2729.00,5832.49              2721.71,5831.26 2717.47,5833.03 2713.00,5832.49              2713.00,5832.49 2703.00,5831.04 2703.00,5831.04              2703.00,5831.04 2694.00,5831.04 2694.00,5831.04              2694.00,5831.04 2682.00,5830.00 2682.00,5830.00              2682.00,5830.00 2666.00,5830.00 2666.00,5830.00              2666.00,5830.00 2650.00,5829.00 2650.00,5829.00              2650.00,5829.00 2618.00,5829.00 2618.00,5829.00              2618.00,5829.00 2589.00,5832.24 2589.00,5832.24              2589.00,5832.24 2565.00,5831.00 2565.00,5831.00              2549.62,5830.83 2552.43,5833.48 2542.00,5837.34              2542.00,5837.34 2533.00,5839.95 2533.00,5839.95              2533.00,5839.95 2524.00,5844.36 2524.00,5844.36              2524.00,5844.36 2514.00,5846.50 2514.00,5846.50              2511.22,5847.34 2500.23,5850.50 2498.00,5850.49              2487.58,5850.47 2483.09,5843.20 2475.00,5838.48              2469.13,5835.05 2464.56,5834.93 2458.00,5835.00              2446.14,5835.14 2445.64,5839.04 2439.00,5839.87              2439.00,5839.87 2423.00,5840.59 2423.00,5840.59              2418.86,5839.98 2416.50,5837.71 2408.00,5838.04              2408.00,5838.04 2400.00,5839.04 2400.00,5839.04              2400.00,5839.04 2390.00,5839.04 2390.00,5839.04              2385.18,5839.69 2384.12,5840.85 2378.00,5840.99              2365.00,5841.28 2361.41,5836.22 2351.00,5832.55              2346.80,5831.06 2342.34,5831.02 2338.00,5830.20              2330.27,5828.74 2323.98,5826.83 2316.00,5827.01              2310.34,5827.14 2309.69,5828.03 2305.00,5828.70              2305.00,5828.70 2277.00,5832.00 2277.00,5832.00              2277.00,5832.00 2260.00,5832.00 2260.00,5832.00              2260.00,5832.00 2249.00,5833.16 2249.00,5833.16              2249.00,5833.16 2232.00,5830.28 2232.00,5830.28              2225.56,5829.52 2222.07,5830.39 2216.00,5830.82              2216.00,5830.82 2204.00,5830.00 2204.00,5830.00              2204.00,5830.00 2167.00,5830.00 2167.00,5830.00              2157.10,5829.98 2158.86,5828.88 2152.00,5828.23              2152.00,5828.23 2143.00,5828.23 2143.00,5828.23              2143.00,5828.23 2129.00,5827.04 2129.00,5827.04              2129.00,5827.04 2116.00,5828.43 2116.00,5828.43              2116.00,5828.43 2099.00,5827.00 2099.00,5827.00              2099.00,5827.00 2081.00,5826.04 2081.00,5826.04              2066.36,5826.61 2061.90,5829.22 2049.00,5831.54              2049.00,5831.54 2040.00,5832.92 2040.00,5832.92              2040.00,5832.92 2025.00,5838.34 2025.00,5838.34              2018.48,5839.47 2008.73,5835.09 2001.00,5835.00              1994.57,5834.93 1990.29,5834.65 1984.00,5836.43              1984.00,5836.43 1970.00,5841.85 1970.00,5841.85              1970.00,5841.85 1959.00,5841.85 1959.00,5841.85              1959.00,5841.85 1951.00,5842.79 1951.00,5842.79              1951.00,5842.79 1944.00,5841.46 1944.00,5841.46              1944.00,5841.46 1931.00,5839.55 1931.00,5839.55              1931.00,5839.55 1908.00,5833.84 1908.00,5833.84              1908.00,5833.84 1895.00,5829.47 1895.00,5829.47              1895.00,5829.47 1873.00,5828.00 1873.00,5828.00              1873.00,5828.00 1857.00,5827.22 1857.00,5827.22              1857.00,5827.22 1848.00,5827.22 1848.00,5827.22              1848.00,5827.22 1838.00,5826.04 1838.00,5826.04              1838.00,5826.04 1818.00,5826.04 1818.00,5826.04              1805.13,5825.98 1807.10,5822.28 1796.00,5822.01              1788.94,5821.84 1777.79,5824.13 1771.00,5826.22              1768.16,5827.09 1765.98,5828.35 1763.00,5828.79              1763.00,5828.79 1737.00,5827.09 1737.00,5827.09              1732.25,5827.36 1719.20,5829.01 1715.00,5830.56              1715.00,5830.56 1705.00,5835.35 1705.00,5835.35              1699.77,5836.92 1695.70,5834.61 1686.00,5838.09              1678.95,5840.62 1672.79,5844.72 1665.00,5846.47              1653.52,5849.06 1621.26,5848.15 1608.00,5848.00              1608.00,5848.00 1589.00,5846.33 1589.00,5846.33              1589.00,5846.33 1577.00,5843.28 1577.00,5843.28              1562.11,5840.78 1566.98,5843.80 1550.00,5838.49              1550.00,5838.49 1537.00,5834.21 1537.00,5834.21              1532.44,5832.09 1528.89,5829.27 1524.00,5827.93              1519.21,5826.61 1511.19,5826.98 1506.00,5827.00              1492.01,5827.07 1482.73,5833.17 1477.00,5846.00              1477.00,5846.00 1452.00,5843.00 1452.00,5843.00              1439.82,5842.86 1441.95,5844.17 1432.00,5845.71              1432.00,5845.71 1418.00,5847.46 1418.00,5847.46              1418.00,5847.46 1409.00,5849.68 1409.00,5849.68              1409.00,5849.68 1401.00,5850.68 1401.00,5850.68              1401.00,5850.68 1383.00,5855.56 1383.00,5855.56              1379.97,5856.67 1376.87,5858.99 1374.00,5859.23              1374.00,5859.23 1364.00,5859.23 1364.00,5859.23              1357.09,5859.32 1348.96,5863.45 1342.00,5862.75              1342.00,5862.75 1327.00,5858.42 1327.00,5858.42              1322.16,5857.10 1317.65,5856.78 1313.00,5854.65              1313.00,5854.65 1303.00,5848.95 1303.00,5848.95              1303.00,5848.95 1284.00,5842.97 1284.00,5842.97              1273.28,5838.11 1274.60,5832.49 1265.00,5826.10              1254.63,5819.21 1244.71,5821.15 1233.00,5821.00              1225.53,5820.90 1225.53,5819.49 1219.00,5817.90              1219.00,5817.90 1210.00,5816.48 1210.00,5816.48              1210.00,5816.48 1201.00,5813.90 1201.00,5813.90              1201.00,5813.90 1168.00,5809.80 1168.00,5809.80              1168.00,5809.80 1160.00,5807.64 1160.00,5807.64              1151.83,5805.44 1144.50,5804.01 1136.00,5804.00              1136.00,5804.00 1108.00,5805.09 1108.00,5805.09              1104.21,5805.37 1100.55,5806.86 1097.00,5806.61              1097.00,5806.61 1090.00,5805.30 1090.00,5805.30              1090.00,5805.30 1079.00,5804.11 1079.00,5804.11              1079.00,5804.11 1061.00,5799.15 1061.00,5799.15              1061.00,5799.15 1050.00,5799.15 1050.00,5799.15              1042.17,5799.10 1039.00,5801.40 1033.00,5800.82              1020.98,5799.68 1017.92,5793.70 1008.00,5793.09              1004.34,5792.87 992.61,5794.37 989.00,5795.44              986.12,5796.30 981.73,5798.63 979.00,5798.37              975.59,5798.06 973.20,5795.11 967.00,5793.68              967.00,5793.68 957.00,5792.79 957.00,5792.79              957.00,5792.79 941.00,5788.54 941.00,5788.54              941.00,5788.54 930.00,5783.45 930.00,5783.45              930.00,5783.45 917.00,5778.44 917.00,5778.44              917.00,5778.44 908.00,5775.94 908.00,5775.94              908.00,5775.94 900.00,5771.93 900.00,5771.93              900.00,5771.93 890.00,5768.80 890.00,5768.80              890.00,5768.80 880.00,5764.44 880.00,5764.44              874.45,5762.77 861.55,5759.81 856.00,5760.04              848.96,5760.32 846.53,5762.74 842.00,5762.73              842.00,5762.73 818.00,5760.00 818.00,5760.00              814.53,5759.96 805.81,5760.34 803.00,5759.44              799.24,5758.24 796.79,5755.08 791.00,5753.22              791.00,5753.22 779.00,5750.79 779.00,5750.79              769.55,5746.97 760.40,5741.13 750.00,5740.85              750.00,5740.85 741.00,5740.85 741.00,5740.85              741.00,5740.85 731.00,5738.46 731.00,5738.46              731.00,5738.46 713.00,5737.04 713.00,5737.04              713.00,5737.04 683.00,5741.62 683.00,5741.62              679.79,5741.47 675.60,5738.94 672.00,5737.92              672.00,5737.92 658.00,5735.49 658.00,5735.49              654.91,5734.59 651.83,5732.10 649.00,5730.46              649.00,5730.46 641.00,5726.40 641.00,5726.40              635.36,5723.05 630.05,5719.02 624.00,5716.35              615.35,5712.52 605.59,5714.88 596.00,5712.61              591.25,5711.49 587.90,5708.06 582.00,5706.22              582.00,5706.22 564.00,5703.85 564.00,5703.85              558.09,5703.11 555.47,5701.78 549.00,5702.04              535.05,5702.60 529.88,5713.67 516.00,5717.48              508.11,5719.93 494.21,5716.09 486.00,5717.48              478.29,5718.44 476.15,5721.33 470.00,5724.60              470.00,5724.60 455.00,5729.30 455.00,5729.30              450.95,5730.03 446.14,5727.89 442.00,5727.15              442.00,5727.15 433.00,5727.15 433.00,5727.15              433.00,5727.15 417.00,5729.22 417.00,5729.22              417.00,5729.22 400.00,5727.67 400.00,5727.67              400.00,5727.67 362.00,5715.68 362.00,5715.68              358.03,5714.78 349.13,5713.92 345.00,5714.01              345.00,5714.01 337.00,5714.66 337.00,5714.66              337.00,5714.66 327.00,5714.04 327.00,5714.04              327.00,5714.04 309.00,5716.90 309.00,5716.90              305.29,5716.00 302.60,5711.74 299.91,5709.17              296.55,5705.96 292.10,5702.96 288.00,5700.78              266.68,5689.44 264.88,5692.69 245.00,5685.46              245.00,5685.46 238.00,5682.55 238.00,5682.55              238.00,5682.55 231.00,5680.25 231.00,5680.25              231.00,5680.25 224.00,5676.37 224.00,5676.37              215.64,5672.15 211.08,5671.90 202.00,5672.00              191.75,5672.12 188.50,5675.46 180.00,5676.70              174.14,5677.55 167.92,5677.97 162.00,5678.00              151.34,5678.05 152.29,5679.91 146.00,5680.79              146.00,5680.79 126.00,5682.09 126.00,5682.09              126.00,5682.09 119.00,5682.91 119.00,5682.91              112.58,5683.27 102.91,5681.68 98.39,5676.79              96.53,5674.79 94.95,5671.44 93.58,5669.00              92.17,5666.51 90.43,5663.75 89.64,5661.00              88.46,5656.93 89.68,5654.57 87.46,5648.00              83.87,5637.41 85.97,5638.90 83.84,5631.00              83.84,5631.00 80.78,5622.00 80.78,5622.00              80.78,5622.00 75.85,5597.00 75.85,5597.00              75.53,5593.10 77.15,5589.83 77.70,5586.00              77.70,5586.00 78.91,5571.00 78.91,5571.00              79.35,5564.16 77.76,5562.49 77.08,5557.00              77.08,5557.00 77.08,5538.00 77.08,5538.00              77.08,5538.00 76.00,5521.00 76.00,5521.00              76.00,5521.00 75.47,5512.00 75.47,5512.00              75.64,5508.34 77.15,5506.16 76.96,5500.00              76.96,5500.00 75.21,5476.00 75.21,5476.00              75.62,5468.70 78.90,5464.41 79.00,5455.00              79.13,5442.11 76.13,5443.88 76.00,5434.00              76.00,5434.00 76.00,5412.00 76.00,5412.00              76.00,5412.00 77.00,5397.00 77.00,5397.00              77.00,5397.00 77.00,5393.00 77.00,5393.00              77.00,5393.00 78.28,5372.00 78.28,5372.00              78.28,5372.00 79.97,5357.00 79.97,5357.00              79.97,5357.00 77.57,5332.00 77.57,5332.00              77.57,5332.00 79.99,5310.00 79.99,5310.00              79.99,5303.16 78.62,5301.68 78.47,5298.00              78.29,5293.76 80.25,5290.47 79.96,5283.00              79.96,5283.00 79.09,5275.00 79.09,5275.00              79.09,5275.00 77.04,5236.00 77.04,5236.00              77.04,5236.00 77.04,5224.00 77.04,5224.00              77.04,5224.00 78.04,5212.00 78.04,5212.00              78.04,5212.00 78.04,5196.00 78.04,5196.00              78.43,5191.05 79.21,5189.90 78.96,5184.00              78.96,5184.00 77.01,5163.00 77.01,5163.00              77.01,5163.00 79.00,5143.00 79.00,5143.00              79.00,5143.00 79.83,5124.00 79.83,5124.00              79.01,5116.50 76.78,5117.35 77.01,5107.00              77.01,5107.00 77.85,5094.00 77.85,5094.00              77.85,5094.00 77.85,5078.00 77.85,5078.00              77.85,5078.00 77.85,5060.00 77.85,5060.00              77.85,5060.00 77.00,5040.00 77.00,5040.00              77.02,5028.03 79.99,5027.84 79.99,5018.00              79.99,5009.12 76.82,5003.74 76.39,4998.00              76.39,4998.00 77.00,4971.00 77.00,4971.00              77.00,4971.00 76.08,4960.00 76.08,4960.00              76.08,4960.00 77.00,4945.00 77.00,4945.00              77.00,4945.00 76.00,4932.00 76.00,4932.00              76.00,4932.00 76.00,4913.00 76.00,4913.00              76.00,4913.00 76.83,4896.00 76.83,4896.00              76.83,4896.00 76.83,4886.00 76.83,4886.00              76.83,4886.00 76.83,4846.00 76.83,4846.00              76.83,4846.00 76.00,4833.00 76.00,4833.00              76.00,4833.00 76.00,4812.00 76.00,4812.00              76.00,4812.00 78.00,4788.00 78.00,4788.00              78.00,4788.00 77.00,4768.00 77.00,4768.00              77.00,4768.00 76.34,4759.00 76.34,4759.00              76.34,4759.00 77.00,4748.00 77.00,4748.00              77.00,4748.00 77.00,4719.00 77.00,4719.00              77.00,4719.00 76.37,4709.00 76.37,4709.00              76.37,4709.00 78.96,4685.00 78.96,4685.00              78.96,4685.00 77.00,4665.00 77.00,4665.00              77.00,4665.00 77.00,4632.00 77.00,4632.00              77.00,4632.00 78.00,4615.00 78.00,4615.00              78.00,4615.00 78.00,4601.00 78.00,4601.00              78.00,4601.00 77.00,4585.00 77.00,4585.00              77.00,4585.00 77.00,4556.00 77.00,4556.00              77.00,4556.00 77.97,4542.00 77.97,4542.00              77.97,4542.00 77.00,4530.00 77.00,4530.00              77.00,4530.00 77.00,4514.00 77.00,4514.00              77.05,4503.96 79.08,4505.73 80.76,4498.00              80.76,4498.00 80.76,4478.00 80.76,4478.00              80.76,4478.00 80.76,4468.00 80.76,4468.00              80.76,4468.00 80.76,4457.00 80.76,4457.00              80.89,4448.02 78.62,4446.56 78.30,4442.00              78.30,4442.00 79.00,4432.00 79.00,4432.00              79.00,4432.00 77.37,4411.00 77.37,4411.00              77.37,4411.00 78.00,4400.00 78.00,4400.00              78.00,4400.00 78.00,4380.00 78.00,4380.00              78.00,4380.00 77.04,4365.00 77.04,4365.00              77.22,4360.31 78.25,4358.36 77.91,4353.00              77.91,4353.00 76.00,4332.00 76.00,4332.00              76.00,4332.00 77.98,4315.00 77.98,4315.00              77.98,4315.00 77.18,4304.00 77.18,4304.00              77.18,4300.61 78.26,4298.38 77.91,4293.00              77.37,4284.65 75.93,4287.31 76.00,4273.00              76.00,4273.00 77.00,4259.00 77.00,4259.00              77.00,4259.00 77.00,4239.00 77.00,4239.00              77.00,4239.00 76.18,4227.00 76.18,4227.00              76.18,4227.00 76.96,4213.00 76.96,4213.00              76.76,4208.38 75.74,4206.07 76.09,4201.00              76.57,4193.96 79.23,4190.87 78.99,4180.00              78.99,4180.00 77.09,4161.00 77.09,4161.00              77.09,4161.00 77.09,4134.00 77.09,4134.00              77.09,4134.00 80.91,4102.00 80.91,4102.00              80.91,4102.00 76.63,4083.00 76.63,4083.00              76.63,4083.00 77.96,4072.00 77.96,4072.00              77.96,4072.00 76.51,4054.00 76.51,4054.00              76.51,4054.00 77.91,4038.00 77.91,4038.00              77.91,4038.00 76.00,4019.00 76.00,4019.00              76.00,4019.00 76.00,3996.00 76.00,3996.00              76.00,3996.00 76.96,3981.00 76.96,3981.00              76.96,3981.00 75.04,3954.00 75.04,3954.00              75.04,3954.00 75.97,3944.00 75.97,3944.00              75.97,3944.00 75.00,3932.00 75.00,3932.00              75.00,3932.00 76.00,3914.00 76.00,3914.00              76.00,3914.00 76.00,3898.00 76.00,3898.00              76.00,3898.00 76.99,3883.00 76.99,3883.00              76.99,3883.00 76.00,3866.00 76.00,3866.00              76.00,3866.00 76.95,3856.00 76.95,3856.00              76.95,3856.00 76.95,3843.00 76.95,3843.00              76.95,3843.00 75.70,3828.00 75.70,3828.00              75.70,3828.00 75.70,3814.00 75.70,3814.00              76.37,3808.93 77.12,3807.83 76.99,3802.00              76.99,3802.00 76.00,3789.00 76.00,3789.00              76.00,3789.00 76.00,3785.00 76.00,3785.00              76.00,3785.00 76.96,3771.00 76.96,3771.00              76.96,3771.00 76.21,3762.00 76.21,3762.00              76.21,3762.00 78.00,3741.00 78.00,3741.00              78.00,3741.00 76.46,3720.00 76.46,3720.00              76.46,3720.00 77.71,3710.00 77.71,3710.00              77.71,3710.00 77.71,3699.00 77.71,3699.00              78.39,3685.13 76.19,3681.82 76.47,3676.00              76.64,3672.23 77.91,3670.96 78.00,3664.00              78.00,3664.00 78.96,3645.00 78.96,3645.00              78.96,3645.00 76.00,3621.00 76.00,3621.00              76.00,3621.00 75.03,3604.00 75.03,3604.00              75.03,3604.00 75.91,3591.00 75.91,3591.00              75.91,3591.00 74.27,3579.00 74.27,3579.00              74.25,3574.24 76.89,3572.24 77.00,3563.00              77.00,3563.00 77.00,3559.00 77.00,3559.00              77.14,3549.12 81.81,3547.41 80.91,3535.00              80.36,3527.47 75.11,3513.06 76.38,3506.00              78.58,3493.76 88.67,3487.31 87.91,3474.00              87.26,3462.61 83.80,3459.05 82.47,3452.00              81.19,3445.23 83.18,3444.51 80.36,3434.00              78.17,3425.84 75.05,3420.66 75.00,3412.00              75.00,3412.00 75.00,3408.00 75.00,3408.00              75.00,3408.00 74.37,3398.00 74.37,3398.00              74.37,3398.00 76.00,3379.00 76.00,3379.00              76.00,3379.00 76.00,3361.00 76.00,3361.00              76.00,3361.00 75.00,3346.00 75.00,3346.00              75.00,3346.00 75.00,3291.00 75.00,3291.00              75.00,3291.00 75.96,3281.00 75.96,3281.00              75.96,3281.00 75.96,3267.00 75.96,3267.00              76.03,3259.75 76.83,3260.09 77.70,3254.00              77.70,3254.00 78.97,3237.00 78.97,3237.00              78.97,3230.50 77.16,3228.10 76.87,3224.00              76.87,3224.00 76.87,3212.00 76.87,3212.00              76.87,3212.00 76.87,3181.00 76.87,3181.00              76.87,3181.00 76.00,3164.00 76.00,3164.00              76.00,3164.00 77.00,3114.00 77.00,3114.00              77.00,3114.00 74.76,3082.00 74.76,3082.00              74.76,3082.00 74.76,3062.00 74.76,3062.00              74.76,3062.00 76.00,3049.00 76.00,3049.00              76.00,3049.00 76.00,3031.00 76.00,3031.00              76.00,3031.00 75.21,3019.00 75.21,3019.00              75.21,3019.00 76.17,3005.00 76.17,3005.00              76.78,2999.34 78.25,2998.22 77.96,2991.00              77.63,2982.78 75.02,2982.62 75.00,2971.00              75.00,2971.00 75.00,2958.00 75.00,2958.00              75.00,2958.00 75.91,2945.00 75.91,2945.00              75.91,2945.00 75.00,2929.00 75.00,2929.00              75.00,2929.00 75.91,2914.00 75.91,2914.00              75.91,2914.00 75.00,2902.00 75.00,2902.00              75.00,2902.00 75.00,2848.00 75.00,2848.00              75.00,2848.00 74.00,2831.00 74.00,2831.00              74.00,2831.00 74.00,2768.00 74.00,2768.00              74.00,2768.00 73.00,2748.00 73.00,2748.00              73.00,2748.00 75.00,2728.00 75.00,2728.00              75.00,2728.00 75.00,2724.00 75.00,2724.00              75.00,2724.00 75.96,2714.00 75.96,2714.00              75.96,2714.00 75.96,2699.00 75.96,2699.00              75.99,2690.24 74.88,2689.31 74.09,2682.00              74.09,2682.00 74.09,2671.00 74.09,2671.00              74.09,2671.00 74.96,2661.00 74.96,2661.00              74.96,2661.00 74.96,2650.00 74.96,2650.00              74.96,2650.00 75.91,2637.00 75.91,2637.00              75.91,2637.00 75.00,2627.00 75.00,2627.00              75.00,2627.00 75.00,2605.00 75.00,2605.00              75.00,2605.00 77.91,2580.00 77.91,2580.00              77.71,2576.53 76.91,2574.80 77.18,2571.00              77.18,2571.00 77.96,2564.00 77.96,2564.00              77.96,2564.00 75.92,2543.00 75.92,2543.00              75.92,2543.00 75.92,2523.00 75.92,2523.00              75.43,2518.84 74.03,2512.94 74.32,2509.00              74.32,2509.00 75.00,2497.00 75.00,2497.00              75.00,2497.00 74.10,2479.00 74.10,2479.00              74.66,2473.02 77.33,2471.17 76.96,2462.00              76.96,2462.00 75.30,2452.00 75.30,2452.00              75.30,2452.00 74.00,2432.00 74.00,2432.00              74.00,2432.00 74.00,2402.00 74.00,2402.00              74.00,2402.00 72.82,2388.00 72.82,2388.00              72.82,2388.00 72.82,2377.00 72.82,2377.00              72.82,2377.00 72.82,2330.00 72.82,2330.00              72.82,2330.00 72.82,2321.00 72.82,2321.00              72.82,2321.00 72.21,2312.00 72.21,2312.00              72.55,2306.69 73.98,2307.22 74.00,2297.00              74.00,2297.00 74.00,2283.00 74.00,2283.00              74.00,2283.00 73.08,2272.00 73.08,2272.00              73.08,2272.00 74.00,2260.00 74.00,2260.00              74.00,2260.00 74.00,2231.00 74.00,2231.00              74.00,2231.00 73.00,2213.00 73.00,2213.00              73.00,2213.00 73.97,2201.00 73.97,2201.00              73.97,2201.00 73.00,2185.00 73.00,2185.00              73.00,2185.00 72.04,2174.00 72.04,2174.00              72.04,2174.00 73.00,2161.00 73.00,2161.00              73.00,2161.00 73.00,2131.00 73.00,2131.00              73.00,2131.00 72.18,2119.00 72.18,2119.00              72.18,2119.00 72.96,2108.00 72.96,2108.00              72.96,2108.00 72.01,2095.00 72.01,2095.00              72.01,2095.00 72.91,2083.00 72.91,2083.00              72.91,2083.00 72.00,2073.00 72.00,2073.00              72.00,2073.00 72.00,2047.00 72.00,2047.00              72.00,2047.00 73.86,2024.00 73.86,2024.00              73.86,2024.00 73.86,2014.00 73.86,2014.00              73.86,2014.00 73.00,2005.00 73.00,2005.00              73.00,2005.00 73.00,1996.00 73.00,1996.00              73.00,1996.00 71.08,1982.00 71.08,1982.00              71.08,1982.00 72.96,1966.00 72.96,1966.00              72.96,1966.00 72.00,1950.00 72.00,1950.00              72.00,1950.00 72.00,1930.00 72.00,1930.00              72.00,1930.00 72.97,1917.00 72.97,1917.00              72.97,1917.00 72.00,1883.00 72.00,1883.00              72.00,1883.00 70.45,1867.00 70.45,1867.00              70.45,1867.00 73.00,1831.00 73.00,1831.00              73.00,1831.00 73.00,1818.00 73.00,1818.00              73.00,1818.00 71.18,1794.00 71.18,1794.00              71.18,1794.00 72.00,1780.00 72.00,1780.00              72.00,1780.00 71.08,1769.00 71.08,1769.00              71.08,1769.00 72.00,1756.00 72.00,1756.00              72.00,1756.00 72.00,1628.00 72.00,1628.00              72.00,1628.00 73.00,1614.00 73.00,1614.00              73.00,1614.00 73.00,1596.00 73.00,1596.00              73.00,1596.00 72.34,1587.00 72.34,1587.00              72.34,1583.70 73.34,1581.29 72.91,1575.00              72.91,1575.00 71.71,1544.00 71.71,1544.00              71.71,1544.00 71.71,1537.00 71.71,1537.00              71.71,1537.00 71.71,1526.00 71.71,1526.00              71.71,1526.00 71.71,1517.00 71.71,1517.00              71.71,1517.00 73.00,1492.00 73.00,1492.00              73.00,1492.00 73.00,1488.00 73.00,1488.00              73.00,1488.00 72.00,1474.00 72.00,1474.00              72.00,1474.00 72.00,1446.00 72.00,1446.00              72.00,1446.00 73.00,1433.00 73.00,1433.00              73.00,1433.00 72.04,1420.00 72.04,1420.00              72.04,1420.00 72.04,1404.00 72.04,1404.00              72.04,1404.00 71.04,1388.00 71.04,1388.00              71.04,1388.00 71.91,1377.00 71.91,1377.00              71.91,1377.00 71.91,1355.00 71.91,1355.00              71.91,1355.00 71.91,1347.00 71.91,1347.00              71.91,1347.00 71.05,1338.00 71.05,1338.00              71.05,1338.00 71.05,1322.00 71.05,1322.00              71.05,1322.00 71.91,1309.00 71.91,1309.00              71.91,1309.00 70.75,1293.00 70.75,1293.00              70.75,1293.00 72.00,1279.00 72.00,1279.00              72.00,1279.00 72.00,1249.00 72.00,1249.00              72.00,1249.00 71.01,1237.00 71.01,1237.00              71.01,1237.00 72.00,1219.00 72.00,1219.00              72.00,1219.00 71.00,1205.00 71.00,1205.00              71.00,1205.00 71.00,1176.00 71.00,1176.00              71.00,1176.00 72.00,1155.00 72.00,1155.00              72.00,1155.00 71.00,1140.00 71.00,1140.00              71.00,1140.00 71.00,1107.00 71.00,1107.00              71.00,1107.00 71.96,1094.00 71.96,1094.00              71.96,1094.00 71.34,1083.00 71.34,1083.00              71.34,1083.00 71.91,1077.00 71.91,1077.00              71.91,1077.00 71.00,1062.00 71.00,1062.00              71.00,1062.00 71.00,1046.00 71.00,1046.00              71.00,1046.00 72.00,1032.00 72.00,1032.00              72.00,1032.00 71.00,1011.00 71.00,1011.00              71.00,1011.00 70.04,997.00 70.04,997.00              70.31,990.26 71.98,990.41 72.00,980.00              72.00,980.00 72.00,975.00 72.00,975.00              72.00,975.00 71.39,965.00 71.39,965.00              71.75,960.05 72.98,961.36 73.00,951.00              73.00,951.00 73.00,947.00 73.00,947.00              73.00,947.00 72.00,932.00 72.00,932.00              72.00,932.00 72.00,910.00 72.00,910.00              72.00,910.00 69.86,891.00 69.86,891.00              69.86,891.00 69.86,853.00 69.86,853.00              69.86,853.00 70.96,844.00 70.96,844.00              70.96,844.00 70.96,835.00 70.96,835.00              70.96,835.00 72.00,818.00 72.00,818.00              72.00,818.00 71.03,806.00 71.03,806.00              71.03,806.00 72.00,793.00 72.00,793.00              72.00,793.00 71.00,772.00 71.00,772.00              71.00,772.00 71.00,755.00 71.00,755.00              71.00,755.00 70.34,744.00 70.34,744.00              70.39,739.88 72.28,737.09 71.91,731.00              71.91,731.00 70.04,719.00 70.04,719.00              70.04,719.00 70.96,701.00 70.96,701.00              70.96,701.00 70.32,692.00 70.32,692.00              70.32,692.00 71.00,678.00 71.00,678.00              71.00,678.00 69.32,662.00 69.32,662.00              69.32,662.00 70.00,634.00 70.00,634.00              70.00,634.00 70.99,618.00 70.99,618.00              70.99,618.00 70.08,604.00 70.08,604.00              70.08,604.00 71.00,593.00 71.00,593.00              71.00,593.00 71.00,573.00 71.00,573.00              71.00,573.00 70.00,558.00 70.00,558.00              70.00,558.00 70.00,538.00 70.00,538.00              70.00,538.00 69.04,522.00 69.04,522.00              69.04,522.00 70.93,510.00 70.93,510.00              70.93,510.00 70.93,493.00 70.93,493.00              70.93,493.00 70.00,480.00 70.00,480.00              70.00,480.00 68.80,434.00 68.80,434.00              68.80,434.00 68.80,423.00 68.80,423.00              68.80,423.00 69.96,407.00 69.96,407.00              69.96,407.00 69.21,398.00 69.21,398.00              69.21,398.00 70.96,382.00 70.96,382.00              70.96,382.00 69.18,364.00 69.18,364.00              69.18,364.00 71.17,341.00 71.17,341.00              71.80,335.35 72.91,335.38 73.10,328.00              73.10,328.00 73.10,318.00 73.10,318.00              73.10,318.00 75.53,309.00 75.53,309.00              75.53,309.00 77.54,296.00 77.54,296.00              77.54,296.00 78.56,284.00 78.56,284.00              78.56,284.00 83.62,275.00 83.62,275.00              83.62,275.00 87.98,262.00 87.98,262.00              87.98,262.00 94.90,253.00 94.90,253.00              101.00,243.83 96.29,247.17 105.99,237.92              105.99,237.92 111.42,232.72 111.42,232.72              111.42,232.72 126.00,226.06 126.00,226.06              126.00,226.06 135.00,221.33 135.00,221.33              138.69,219.88 141.53,219.86 146.00,217.62              155.14,213.04 155.75,207.65 162.01,205.53              162.01,205.53 174.00,203.07 174.00,203.07              177.40,202.15 180.41,200.28 184.00,200.27              184.00,200.27 202.00,201.96 202.00,201.96              206.90,201.76 213.62,199.83 218.00,197.62              221.05,196.09 224.79,192.82 228.00,192.62              229.98,192.50 234.61,194.11 237.00,194.54              240.54,195.17 247.48,195.20 251.00,194.54              259.57,192.91 262.86,188.12 267.00,185.97              271.16,183.81 276.69,184.43 285.00,178.90              291.48,174.59 292.75,170.62 296.09,169.81              299.19,169.05 302.36,171.97 310.00,171.97              319.19,171.97 322.12,168.11 326.00,168.13              329.65,168.14 331.14,171.12 343.00,171.00              352.76,170.90 353.75,168.50 359.00,167.39              362.48,166.65 364.90,167.44 370.00,166.07              370.00,166.07 378.00,163.56 378.00,163.56              381.43,163.17 387.33,165.18 391.00,165.70              391.00,165.70 414.00,167.00 414.00,167.00              423.52,166.89 426.24,163.59 430.00,165.12              432.38,166.09 436.54,170.58 439.00,172.47              439.00,172.47 448.83,178.79 448.83,178.79              453.87,182.77 454.17,185.36 462.00,189.18              473.38,194.73 482.63,192.00 493.00,186.30              504.65,179.91 510.83,173.98 511.00,160.00              511.00,160.00 511.00,156.00 511.00,156.00 Z            M 6500.00,4017.43            C 6493.70,4019.91 6486.89,4027.95 6486.51,4035.00              6486.35,4037.92 6488.32,4042.89 6489.11,4046.00              6490.01,4049.60 6490.39,4053.73 6493.39,4056.30              6498.00,4060.26 6509.48,4059.16 6515.00,4057.65              6517.58,4056.94 6519.61,4055.93 6521.30,4053.79              6523.69,4050.77 6528.13,4037.80 6527.63,4034.00              6525.94,4021.10 6511.35,4015.70 6500.00,4017.43 Z            M 4958.00,4390.43            C 4958.00,4390.43 4950.72,4392.90 4950.72,4392.90              4946.82,4393.61 4941.54,4391.39 4937.85,4397.06              4934.69,4401.92 4936.49,4407.38 4939.04,4412.00              4944.02,4421.01 4953.83,4429.40 4965.00,4427.66              4966.29,4427.46 4967.81,4427.01 4968.98,4426.43              4979.53,4421.25 4972.59,4411.85 4971.60,4408.00              4970.88,4404.67 4971.98,4402.79 4971.60,4400.00              4970.45,4393.45 4964.00,4390.49 4958.00,4390.43 Z"
            style="fill:#000000;fill-opacity:1"/>
</svg>
