<?xml version="1.0" encoding="UTF-8" standalone="no"?>
<svg
        width="172.636mm"
        height="126.937mm"
        viewBox="0 0 8156 5997"
        version="1.1"
        id="svg1215"
        sodipodi:docname="sheet12a.svg"
        inkscape:version="1.1.1 (3bf5ae0d25, 2021-09-20)"
        xmlns:inkscape="http://www.inkscape.org/namespaces/inkscape"
        xmlns:sodipodi="http://sodipodi.sourceforge.net/DTD/sodipodi-0.dtd"
        xmlns="http://www.w3.org/2000/svg"
>
    <defs
            id="defs1219"/>
    <sodipodi:namedview
            id="namedview1217"
            pagecolor="#ffffff"
            bordercolor="#666666"
            borderopacity="1.0"
            inkscape:pageshadow="2"
            inkscape:pageopacity="0.0"
            inkscape:pagecheckerboard="0"
            inkscape:document-units="mm"
            showgrid="false"
            inkscape:zoom="1.6214994"
            inkscape:cx="326.54962"
            inkscape:cy="239.59306"
            inkscape:window-width="1920"
            inkscape:window-height="1001"
            inkscape:window-x="-7"
            inkscape:window-y="-7"
            inkscape:window-maximized="1"
            inkscape:current-layer="svg1215"/>
    <path
            id="Selection #2"
            fill="none"
            stroke="black"
            stroke-width="1"
            d="M 7996.00,5916.00            C 7990.91,5893.69 7969.02,5882.78 7948.00,5891.88              7938.17,5896.13 7933.64,5904.82 7923.00,5905.00              7917.58,5905.09 7911.17,5904.53 7906.00,5905.93              7906.00,5905.93 7891.00,5912.07 7891.00,5912.07              7891.00,5912.07 7871.00,5914.90 7871.00,5914.90              7871.00,5914.90 7850.00,5921.45 7850.00,5921.45              7850.00,5921.45 7825.00,5919.00 7825.00,5919.00              7825.00,5919.00 7802.00,5921.96 7802.00,5921.96              7802.00,5921.96 7788.00,5921.96 7788.00,5921.96              7788.00,5921.96 7779.00,5921.03 7779.00,5921.03              7779.00,5921.03 7767.00,5922.00 7767.00,5922.00              7767.00,5922.00 7747.00,5920.96 7747.00,5920.96              7747.00,5920.96 7737.00,5920.96 7737.00,5920.96              7737.00,5920.96 7727.00,5919.00 7727.00,5919.00              7727.00,5919.00 7720.00,5919.00 7720.00,5919.00              7713.78,5918.16 7708.75,5915.71 7702.00,5916.09              7698.18,5916.31 7696.45,5917.16 7692.00,5916.91              7692.00,5916.91 7661.00,5913.32 7661.00,5913.32              7661.00,5913.32 7637.00,5916.90 7637.00,5916.90              7637.00,5916.90 7608.00,5915.00 7608.00,5915.00              7608.00,5915.00 7593.00,5915.91 7593.00,5915.91              7593.00,5915.91 7573.00,5913.28 7573.00,5913.28              7573.00,5913.28 7550.00,5912.00 7550.00,5912.00              7550.00,5912.00 7523.00,5912.00 7523.00,5912.00              7523.00,5912.00 7506.00,5913.00 7506.00,5913.00              7506.00,5913.00 7475.00,5913.00 7475.00,5913.00              7475.00,5913.00 7459.00,5911.86 7459.00,5911.86              7459.00,5911.86 7439.00,5911.86 7439.00,5911.86              7439.00,5911.86 7418.00,5909.18 7418.00,5909.18              7418.00,5909.18 7394.00,5911.00 7394.00,5911.00              7394.00,5911.00 7384.00,5911.00 7384.00,5911.00              7375.09,5911.01 7371.14,5912.65 7363.00,5913.94              7363.00,5913.94 7354.00,5913.94 7354.00,5913.94              7344.56,5915.11 7347.04,5915.94 7335.00,5916.00              7335.00,5916.00 7306.00,5918.29 7306.00,5918.29              7306.00,5918.29 7287.00,5918.29 7287.00,5918.29              7287.00,5918.29 7277.00,5918.29 7277.00,5918.29              7277.00,5918.29 7267.00,5919.83 7267.00,5919.83              7267.00,5919.83 7242.00,5920.91 7242.00,5920.91              7242.00,5920.91 7226.00,5917.30 7226.00,5917.30              7219.88,5916.42 7216.71,5917.87 7211.00,5917.98              7211.00,5917.98 7197.00,5917.09 7197.00,5917.09              7197.00,5917.09 7190.00,5918.04 7190.00,5918.04              7190.00,5918.04 7180.00,5918.04 7180.00,5918.04              7180.00,5918.04 7171.00,5919.71 7171.00,5919.71              7171.00,5919.71 7146.00,5920.96 7146.00,5920.96              7138.80,5920.55 7137.04,5917.07 7131.00,5914.35              7126.21,5912.19 7122.15,5911.90 7117.00,5912.01              7112.73,5912.11 7097.53,5913.30 7094.00,5914.55              7083.26,5918.34 7085.26,5921.98 7072.00,5922.00              7072.00,5922.00 7068.00,5922.00 7068.00,5922.00              7068.00,5922.00 7048.00,5920.00 7048.00,5920.00              7048.00,5920.00 7022.00,5920.00 7022.00,5920.00              7022.00,5920.00 7009.00,5919.09 7009.00,5919.09              7009.00,5919.09 6993.00,5920.78 6993.00,5920.78              6993.00,5920.78 6982.00,5918.07 6982.00,5918.07              6982.00,5918.07 6974.00,5918.07 6974.00,5918.07              6974.00,5918.07 6946.00,5916.00 6946.00,5916.00              6946.00,5916.00 6923.00,5914.18 6923.00,5914.18              6923.00,5914.18 6896.00,5917.00 6896.00,5917.00              6889.09,5917.03 6874.95,5914.82 6868.00,5913.33              6868.00,5913.33 6856.00,5910.15 6856.00,5910.15              6856.00,5910.15 6845.00,5910.15 6845.00,5910.15              6845.00,5910.15 6820.00,5911.59 6820.00,5911.59              6820.00,5911.59 6805.00,5907.16 6805.00,5907.16              6805.00,5907.16 6785.00,5907.16 6785.00,5907.16              6773.81,5906.95 6768.54,5903.03 6760.00,5903.03              6749.57,5903.03 6745.75,5908.47 6736.00,5907.91              6736.00,5907.91 6722.00,5906.03 6722.00,5906.03              6722.00,5906.03 6704.00,5907.96 6704.00,5907.96              6696.22,5908.26 6691.88,5905.70 6685.00,5905.18              6685.00,5905.18 6670.00,5906.91 6670.00,5906.91              6670.00,5906.91 6651.00,5905.91 6651.00,5905.91              6651.00,5905.91 6611.00,5902.09 6611.00,5902.09              6602.56,5902.61 6602.70,5905.18 6587.00,5905.00              6587.00,5905.00 6575.00,5904.03 6575.00,5904.03              6575.00,5904.03 6566.00,5905.00 6566.00,5905.00              6566.00,5905.00 6554.00,5905.00 6554.00,5905.00              6554.00,5905.00 6542.00,5906.00 6542.00,5906.00              6542.00,5906.00 6501.00,5906.00 6501.00,5906.00              6501.00,5906.00 6477.00,5907.92 6477.00,5907.92              6477.00,5907.92 6466.00,5907.00 6466.00,5907.00              6466.00,5907.00 6462.00,5907.00 6462.00,5907.00              6462.00,5907.00 6445.00,5906.04 6445.00,5906.04              6445.00,5906.04 6431.00,5906.04 6431.00,5906.04              6431.00,5906.04 6421.00,5907.00 6421.00,5907.00              6421.00,5907.00 6401.00,5905.01 6401.00,5905.01              6401.00,5905.01 6348.00,5909.04 6348.00,5909.04              6348.00,5909.04 6338.00,5909.82 6338.00,5909.82              6338.00,5909.82 6323.00,5908.10 6323.00,5908.10              6316.72,5908.41 6304.77,5913.50 6291.00,5912.96              6291.00,5912.96 6260.00,5910.19 6260.00,5910.19              6245.37,5911.42 6240.96,5924.14 6232.00,5928.43              6232.00,5928.43 6188.00,5936.89 6188.00,5936.89              6171.15,5942.47 6159.24,5957.47 6138.00,5956.99              6138.00,5956.99 6122.00,5955.54 6122.00,5955.54              6122.00,5955.54 6111.00,5953.09 6111.00,5953.09              6111.00,5953.09 6095.00,5954.00 6095.00,5954.00              6095.00,5954.00 6079.00,5954.00 6079.00,5954.00              6079.00,5954.00 6065.00,5953.04 6065.00,5953.04              6060.85,5953.20 6057.21,5954.38 6053.00,5953.79              6049.50,5953.30 6046.36,5951.58 6043.00,5950.57              6043.00,5950.57 6024.00,5945.31 6024.00,5945.31              6024.00,5945.31 6005.00,5938.52 6005.00,5938.52              6005.00,5938.52 5978.00,5936.09 5978.00,5936.09              5978.00,5936.09 5964.00,5936.96 5964.00,5936.96              5964.00,5936.96 5955.00,5935.91 5955.00,5935.91              5955.00,5935.91 5938.00,5935.91 5938.00,5935.91              5938.00,5935.91 5915.00,5935.91 5915.00,5935.91              5902.96,5936.58 5898.59,5930.54 5890.00,5923.89              5880.92,5916.86 5868.99,5909.39 5857.00,5910.09              5845.39,5910.77 5835.81,5917.74 5825.00,5917.99              5813.69,5918.25 5814.35,5915.49 5806.00,5914.49              5800.82,5913.56 5798.52,5915.02 5794.00,5914.49              5794.00,5914.49 5774.00,5912.33 5774.00,5912.33              5774.00,5912.33 5757.00,5907.94 5757.00,5907.94              5757.00,5907.94 5749.00,5907.94 5749.00,5907.94              5749.00,5907.94 5739.00,5906.09 5739.00,5906.09              5739.00,5906.09 5718.00,5904.83 5718.00,5904.83              5718.00,5904.83 5709.00,5903.29 5709.00,5903.29              5709.00,5903.29 5701.00,5902.62 5701.00,5902.62              5696.32,5901.69 5688.91,5897.44 5681.00,5896.06              5681.00,5896.06 5669.00,5896.06 5669.00,5896.06              5669.00,5896.06 5660.00,5894.29 5660.00,5894.29              5660.00,5894.29 5650.00,5893.72 5650.00,5893.72              5650.00,5893.72 5632.00,5891.17 5632.00,5891.17              5632.00,5891.17 5614.00,5889.83 5614.00,5889.83              5614.00,5889.83 5603.00,5887.46 5603.00,5887.46              5603.00,5887.46 5590.00,5886.70 5590.00,5886.70              5581.76,5885.52 5582.24,5884.02 5572.00,5884.00              5572.00,5884.00 5553.00,5884.00 5553.00,5884.00              5544.04,5883.99 5544.10,5882.88 5537.00,5882.08              5537.00,5882.08 5518.00,5882.08 5518.00,5882.08              5518.00,5882.08 5489.00,5880.04 5489.00,5880.04              5489.00,5880.04 5477.00,5881.00 5477.00,5881.00              5464.77,5881.05 5460.43,5877.73 5454.00,5878.18              5454.00,5878.18 5433.00,5880.00 5433.00,5880.00              5433.00,5880.00 5414.00,5879.00 5414.00,5879.00              5405.59,5878.96 5403.60,5877.62 5396.00,5876.44              5396.00,5876.44 5375.00,5875.01 5375.00,5875.01              5375.00,5875.01 5355.00,5876.29 5355.00,5876.29              5355.00,5876.29 5328.00,5879.00 5328.00,5879.00              5328.00,5879.00 5313.00,5879.00 5313.00,5879.00              5313.00,5879.00 5288.00,5880.29 5288.00,5880.29              5288.00,5880.29 5275.00,5879.00 5275.00,5879.00              5275.00,5879.00 5251.00,5879.00 5251.00,5879.00              5251.00,5879.00 5231.00,5880.96 5231.00,5880.96              5231.00,5880.96 5201.00,5878.54 5201.00,5878.54              5195.37,5877.54 5188.59,5874.76 5183.00,5875.18              5176.57,5875.67 5176.54,5876.99 5167.00,5877.04              5167.00,5877.04 5153.00,5877.04 5153.00,5877.04              5153.00,5877.04 5141.00,5877.99 5141.00,5877.99              5141.00,5877.99 5129.00,5877.00 5129.00,5877.00              5129.00,5877.00 5106.00,5877.00 5106.00,5877.00              5106.00,5877.00 5082.00,5875.04 5082.00,5875.04              5082.00,5875.04 5065.00,5875.99 5065.00,5875.99              5065.00,5875.99 5040.00,5874.18 5040.00,5874.18              5040.00,5874.18 5029.00,5875.00 5029.00,5875.00              5029.00,5875.00 5012.00,5875.00 5012.00,5875.00              5012.00,5875.00 4990.00,5876.92 4990.00,5876.92              4990.00,5876.92 4969.00,5875.00 4969.00,5875.00              4969.00,5875.00 4944.00,5875.00 4944.00,5875.00              4944.00,5875.00 4929.00,5875.91 4929.00,5875.91              4929.00,5875.91 4888.00,5873.00 4888.00,5873.00              4888.00,5873.00 4873.00,5874.00 4873.00,5874.00              4873.00,5874.00 4854.00,5874.00 4854.00,5874.00              4843.25,5873.98 4845.03,5872.64 4836.00,5870.50              4830.65,5869.24 4818.58,5868.01 4813.00,5868.00              4813.00,5868.00 4762.00,5870.09 4762.00,5870.09              4762.00,5870.09 4746.00,5871.82 4746.00,5871.82              4746.00,5871.82 4722.00,5869.08 4722.00,5869.08              4722.00,5869.08 4709.00,5869.08 4709.00,5869.08              4709.00,5869.08 4677.00,5866.10 4677.00,5866.10              4677.00,5866.10 4658.00,5867.82 4658.00,5867.82              4658.00,5867.82 4635.00,5865.09 4635.00,5865.09              4635.00,5865.09 4627.00,5865.96 4627.00,5865.96              4619.38,5866.26 4615.99,5864.20 4609.00,5863.14              4609.00,5863.14 4594.00,5863.14 4594.00,5863.14              4594.00,5863.14 4565.00,5861.00 4565.00,5861.00              4565.00,5861.00 4543.00,5861.00 4543.00,5861.00              4543.00,5861.00 4519.00,5859.04 4519.00,5859.04              4519.00,5859.04 4504.00,5861.00 4504.00,5861.00              4504.00,5861.00 4486.00,5861.00 4486.00,5861.00              4486.00,5861.00 4460.00,5858.00 4460.00,5858.00              4460.00,5858.00 4443.00,5858.00 4443.00,5858.00              4443.00,5858.00 4426.00,5860.42 4426.00,5860.42              4426.00,5860.42 4409.00,5859.00 4409.00,5859.00              4409.00,5859.00 4387.00,5859.00 4387.00,5859.00              4387.00,5859.00 4353.00,5856.09 4353.00,5856.09              4353.00,5856.09 4342.00,5856.96 4342.00,5856.96              4342.00,5856.96 4324.00,5856.00 4324.00,5856.00              4324.00,5856.00 4310.00,5855.04 4310.00,5855.04              4310.00,5855.04 4289.00,5856.90 4289.00,5856.90              4289.00,5856.90 4269.00,5853.09 4269.00,5853.09              4269.00,5853.09 4255.00,5853.68 4255.00,5853.68              4240.45,5852.59 4239.86,5851.63 4224.00,5853.17              4224.00,5853.17 4207.00,5855.67 4207.00,5855.67              4207.00,5855.67 4198.00,5854.17 4198.00,5854.17              4198.00,5854.17 4186.00,5853.54 4186.00,5853.54              4186.00,5853.54 4172.00,5850.00 4172.00,5850.00              4172.00,5850.00 4160.00,5848.15 4160.00,5848.15              4160.00,5848.15 4144.00,5839.78 4144.00,5839.78              4144.00,5839.78 4131.04,5834.01 4131.04,5834.01              4131.04,5834.01 4112.04,5815.91 4112.04,5815.91              4097.41,5801.58 4096.75,5772.93 4072.00,5765.22              4068.21,5764.04 4064.92,5763.92 4061.00,5764.01              4038.94,5764.52 4028.61,5786.09 4019.30,5803.00              4017.47,5806.33 4013.84,5813.27 4011.61,5815.96              4007.61,5820.80 4000.35,5824.21 3995.00,5827.69              3995.00,5827.69 3984.00,5835.00 3984.00,5835.00              3984.00,5835.00 3972.00,5838.93 3972.00,5838.93              3972.00,5838.93 3960.00,5844.37 3960.00,5844.37              3960.00,5844.37 3936.00,5846.96 3936.00,5846.96              3929.04,5846.69 3927.61,5844.80 3918.00,5845.01              3907.16,5845.26 3903.56,5848.21 3885.00,5848.00              3873.91,5847.87 3870.70,5843.62 3860.00,5844.04              3860.00,5844.04 3826.00,5846.66 3826.00,5846.66              3826.00,5846.66 3819.00,5846.04 3819.00,5846.04              3819.00,5846.04 3790.00,5847.91 3790.00,5847.91              3790.00,5847.91 3757.00,5844.09 3757.00,5844.09              3757.00,5844.09 3741.00,5845.09 3741.00,5845.09              3741.00,5845.09 3708.00,5845.09 3708.00,5845.09              3708.00,5845.09 3699.00,5845.09 3699.00,5845.09              3699.00,5845.09 3681.00,5844.00 3681.00,5844.00              3681.00,5844.00 3663.00,5844.00 3663.00,5844.00              3663.00,5844.00 3647.00,5845.00 3647.00,5845.00              3647.00,5845.00 3631.00,5845.00 3631.00,5845.00              3631.00,5845.00 3601.00,5848.96 3601.00,5848.96              3601.00,5848.96 3590.00,5848.09 3590.00,5848.09              3590.00,5848.09 3571.00,5849.96 3571.00,5849.96              3571.00,5849.96 3554.00,5849.96 3554.00,5849.96              3554.00,5849.96 3537.00,5850.99 3537.00,5850.99              3537.00,5850.99 3523.00,5850.00 3523.00,5850.00              3523.00,5850.00 3507.00,5850.00 3507.00,5850.00              3507.00,5850.00 3477.00,5848.09 3477.00,5848.09              3477.00,5848.09 3458.00,5849.90 3458.00,5849.90              3458.00,5849.90 3446.00,5848.17 3446.00,5848.17              3446.00,5848.17 3415.00,5847.04 3415.00,5847.04              3415.00,5847.04 3393.00,5849.63 3393.00,5849.63              3393.00,5849.63 3381.00,5849.00 3381.00,5849.00              3381.00,5849.00 3350.00,5849.00 3350.00,5849.00              3328.16,5848.74 3320.82,5842.42 3306.00,5840.15              3306.00,5840.15 3296.00,5840.15 3296.00,5840.15              3296.00,5840.15 3271.00,5843.00 3271.00,5843.00              3271.00,5843.00 3244.00,5843.00 3244.00,5843.00              3244.00,5843.00 3230.00,5843.96 3230.00,5843.96              3230.00,5843.96 3219.00,5843.00 3219.00,5843.00              3219.00,5843.00 3196.00,5843.00 3196.00,5843.00              3196.00,5843.00 3182.00,5843.96 3182.00,5843.96              3182.00,5843.96 3149.00,5841.00 3149.00,5841.00              3149.00,5841.00 3135.00,5841.96 3135.00,5841.96              3135.00,5841.96 3111.00,5840.00 3111.00,5840.00              3111.00,5840.00 3096.00,5840.00 3096.00,5840.00              3096.00,5840.00 3085.00,5840.68 3085.00,5840.68              3085.00,5840.68 3060.00,5840.00 3060.00,5840.00              3060.00,5840.00 3045.00,5841.00 3045.00,5841.00              3045.00,5841.00 3026.00,5841.00 3026.00,5841.00              3026.00,5841.00 3011.00,5840.00 3011.00,5840.00              3011.00,5840.00 2977.00,5840.00 2977.00,5840.00              2977.00,5840.00 2964.00,5841.10 2964.00,5841.10              2964.00,5841.10 2954.00,5841.10 2954.00,5841.10              2954.00,5841.10 2895.00,5841.10 2895.00,5841.10              2895.00,5841.10 2851.00,5844.00 2851.00,5844.00              2851.00,5844.00 2819.00,5844.00 2819.00,5844.00              2814.69,5843.95 2802.00,5842.40 2798.00,5841.22              2786.84,5837.92 2785.04,5833.65 2769.00,5834.01              2755.29,5834.33 2753.85,5839.98 2738.00,5840.00              2738.00,5840.00 2729.00,5840.00 2729.00,5840.00              2729.00,5840.00 2713.00,5840.92 2713.00,5840.92              2713.00,5840.92 2699.00,5840.92 2699.00,5840.92              2699.00,5840.92 2679.00,5839.00 2679.00,5839.00              2679.00,5839.00 2637.00,5838.00 2637.00,5838.00              2637.00,5838.00 2603.00,5836.00 2603.00,5836.00              2603.00,5836.00 2574.00,5836.00 2574.00,5836.00              2574.00,5836.00 2559.00,5837.00 2559.00,5837.00              2559.00,5837.00 2542.00,5837.00 2542.00,5837.00              2542.00,5837.00 2526.00,5835.28 2526.00,5835.28              2526.00,5835.28 2506.00,5834.00 2506.00,5834.00              2506.00,5834.00 2459.00,5832.00 2459.00,5832.00              2459.00,5832.00 2444.00,5830.86 2444.00,5830.86              2444.00,5830.86 2427.00,5830.86 2427.00,5830.86              2420.23,5829.83 2417.55,5828.09 2410.00,5828.00              2410.00,5828.00 2375.00,5827.00 2375.00,5827.00              2375.00,5827.00 2349.00,5825.04 2349.00,5825.04              2349.00,5825.04 2333.00,5826.46 2333.00,5826.46              2333.00,5826.46 2322.00,5828.62 2322.00,5828.62              2322.00,5828.62 2310.00,5828.04 2310.00,5828.04              2310.00,5828.04 2289.00,5830.79 2289.00,5830.79              2289.00,5830.79 2277.00,5830.00 2277.00,5830.00              2277.00,5830.00 2255.00,5830.00 2255.00,5830.00              2255.00,5830.00 2217.00,5827.00 2217.00,5827.00              2217.00,5827.00 2208.00,5827.00 2208.00,5827.00              2208.00,5827.00 2192.00,5825.04 2192.00,5825.04              2192.00,5825.04 2182.00,5825.04 2182.00,5825.04              2182.00,5825.04 2176.00,5824.21 2176.00,5824.21              2176.00,5824.21 2156.00,5826.96 2156.00,5826.96              2156.00,5826.96 2142.00,5826.00 2142.00,5826.00              2125.28,5825.81 2123.06,5824.10 2108.00,5822.28              2108.00,5822.28 2100.00,5821.71 2100.00,5821.71              2092.59,5820.80 2092.42,5820.01 2084.00,5820.00              2084.00,5820.00 2070.00,5820.00 2070.00,5820.00              2070.00,5820.00 2060.00,5820.82 2060.00,5820.82              2060.00,5820.82 2051.00,5820.01 2051.00,5820.01              2051.00,5820.01 2031.00,5821.66 2031.00,5821.66              2031.00,5821.66 2011.00,5820.00 2011.00,5820.00              2011.00,5820.00 1956.00,5821.00 1956.00,5821.00              1942.16,5820.98 1941.16,5814.70 1926.00,5814.04              1917.38,5813.66 1917.41,5814.64 1910.00,5815.94              1910.00,5815.94 1900.00,5815.94 1900.00,5815.94              1892.99,5816.92 1894.93,5817.98 1885.00,5818.00              1885.00,5818.00 1866.00,5818.00 1866.00,5818.00              1866.00,5818.00 1852.00,5817.09 1852.00,5817.09              1852.00,5817.09 1842.00,5818.00 1842.00,5818.00              1842.00,5818.00 1812.00,5815.00 1812.00,5815.00              1812.00,5815.00 1788.00,5813.96 1788.00,5813.96              1788.00,5813.96 1779.00,5813.96 1779.00,5813.96              1779.00,5813.96 1767.00,5812.00 1767.00,5812.00              1767.00,5812.00 1758.00,5812.00 1758.00,5812.00              1752.06,5811.48 1750.65,5809.74 1743.00,5810.04              1743.00,5810.04 1715.00,5813.45 1715.00,5813.45              1705.40,5815.41 1706.21,5816.98 1695.00,5816.91              1695.00,5816.91 1677.00,5816.91 1677.00,5816.91              1673.06,5816.41 1670.05,5814.99 1666.00,5815.21              1666.00,5815.21 1656.00,5817.06 1656.00,5817.06              1656.00,5817.06 1645.00,5817.06 1645.00,5817.06              1639.49,5818.08 1639.80,5818.92 1633.00,5819.00              1633.00,5819.00 1613.00,5819.00 1613.00,5819.00              1613.00,5819.00 1584.00,5816.10 1584.00,5816.10              1579.42,5816.33 1576.15,5817.98 1572.00,5818.68              1572.00,5818.68 1553.00,5820.83 1553.00,5820.83              1544.11,5821.68 1539.40,5819.78 1534.00,5820.09              1534.00,5820.09 1516.00,5822.59 1516.00,5822.59              1510.30,5822.03 1506.43,5818.20 1497.00,5818.02              1497.00,5818.02 1481.00,5819.00 1481.00,5819.00              1481.00,5819.00 1457.00,5818.00 1457.00,5818.00              1457.00,5818.00 1433.00,5819.00 1433.00,5819.00              1433.00,5819.00 1422.00,5819.00 1422.00,5819.00              1422.00,5819.00 1393.00,5820.82 1393.00,5820.82              1393.00,5820.82 1359.00,5816.00 1359.00,5816.00              1352.70,5815.93 1345.20,5816.36 1339.00,5817.46              1339.00,5817.46 1329.00,5819.70 1329.00,5819.70              1329.00,5819.70 1317.00,5820.29 1317.00,5820.29              1309.86,5821.22 1310.35,5821.99 1302.00,5822.00              1302.00,5822.00 1284.00,5822.00 1284.00,5822.00              1284.00,5822.00 1263.00,5824.00 1263.00,5824.00              1263.00,5824.00 1244.00,5823.21 1244.00,5823.21              1234.57,5823.74 1237.17,5826.03 1217.00,5826.00              1217.00,5826.00 1189.00,5824.00 1189.00,5824.00              1189.00,5824.00 1162.00,5822.00 1162.00,5822.00              1162.00,5822.00 1138.00,5823.96 1138.00,5823.96              1138.00,5823.96 1114.00,5822.18 1114.00,5822.18              1114.00,5822.18 1084.00,5826.46 1084.00,5826.46              1079.49,5827.32 1076.77,5828.78 1072.00,5828.96              1072.00,5828.96 1052.00,5827.04 1052.00,5827.04              1052.00,5827.04 1042.00,5827.04 1042.00,5827.04              1042.00,5827.04 1023.00,5826.00 1023.00,5826.00              1023.00,5826.00 1011.00,5826.70 1011.00,5826.70              997.23,5825.24 992.45,5819.97 974.00,5820.00              974.00,5820.00 947.00,5821.97 947.00,5821.97              947.00,5821.97 927.00,5820.09 927.00,5820.09              927.00,5820.09 917.00,5821.00 917.00,5821.00              917.00,5821.00 889.00,5822.17 889.00,5822.17              889.00,5822.17 863.00,5824.82 863.00,5824.82              863.00,5824.82 846.00,5824.00 846.00,5824.00              846.00,5824.00 823.00,5825.00 823.00,5825.00              812.00,5825.02 809.40,5827.61 801.00,5827.96              801.00,5827.96 787.00,5827.01 787.00,5827.01              778.63,5826.82 772.98,5828.72 765.00,5829.71              765.00,5829.71 752.00,5831.25 752.00,5831.25              752.00,5831.25 733.00,5834.94 733.00,5834.94              733.00,5834.94 722.00,5834.94 722.00,5834.94              722.00,5834.94 714.00,5836.85 714.00,5836.85              714.00,5836.85 702.00,5836.85 702.00,5836.85              702.00,5836.85 672.00,5841.67 672.00,5841.67              672.00,5841.67 657.00,5844.91 657.00,5844.91              657.00,5844.91 645.00,5844.08 645.00,5844.08              645.00,5844.08 630.00,5845.91 630.00,5845.91              619.77,5846.49 616.99,5841.44 607.00,5841.04              600.34,5840.77 586.29,5844.82 580.00,5847.46              576.38,5848.98 571.82,5852.39 568.00,5852.33              563.32,5852.27 559.42,5847.80 554.00,5845.35              546.89,5842.14 543.56,5843.80 538.00,5841.89              530.19,5839.22 524.33,5831.95 511.00,5834.47              497.08,5837.09 490.01,5848.83 488.29,5862.00              487.79,5865.80 488.55,5873.08 486.98,5875.89              484.38,5880.54 478.57,5880.08 471.00,5885.10              463.84,5889.86 460.10,5896.45 455.96,5898.91              449.70,5902.64 437.26,5902.08 430.00,5902.00              419.82,5901.88 403.88,5898.53 395.00,5893.56              386.14,5888.60 376.30,5879.31 366.00,5878.19              359.58,5877.48 352.01,5880.50 347.00,5884.39              343.95,5886.76 341.72,5889.69 338.00,5891.11              335.69,5891.99 332.47,5892.06 330.00,5891.96              322.44,5891.66 320.17,5889.05 310.00,5889.00              310.00,5889.00 292.00,5889.00 292.00,5889.00              292.00,5889.00 280.00,5889.96 280.00,5889.96              280.00,5889.96 259.00,5888.08 259.00,5888.08              254.36,5887.71 244.91,5887.19 241.00,5885.33              241.00,5885.33 217.00,5868.43 217.00,5868.43              198.87,5858.05 192.40,5864.91 179.18,5852.54              174.82,5848.45 173.58,5843.47 169.79,5839.00              165.58,5834.03 156.02,5826.12 153.45,5821.00              151.09,5816.28 152.92,5813.05 150.07,5806.00              147.52,5799.69 143.69,5797.20 140.90,5791.00              140.90,5791.00 137.46,5778.00 137.46,5778.00              135.81,5773.23 130.93,5763.35 130.59,5759.00              130.59,5759.00 130.59,5749.00 130.59,5749.00              130.59,5749.00 129.98,5742.00 129.98,5742.00              129.98,5742.00 129.98,5731.00 129.98,5731.00              129.98,5731.00 129.18,5724.00 129.18,5724.00              129.18,5724.00 129.91,5714.00 129.91,5714.00              129.73,5710.87 129.06,5709.37 129.32,5706.00              129.32,5706.00 130.92,5696.00 130.92,5696.00              130.92,5696.00 130.92,5685.00 130.92,5685.00              130.92,5685.00 130.00,5670.00 130.00,5670.00              130.00,5670.00 130.95,5657.00 130.95,5657.00              130.95,5657.00 130.95,5644.00 130.95,5644.00              130.88,5634.39 127.78,5630.83 127.50,5626.00              127.23,5621.51 130.18,5616.35 129.90,5610.00              129.90,5610.00 126.70,5579.00 126.70,5579.00              126.70,5579.00 124.09,5566.00 124.09,5566.00              124.09,5566.00 123.38,5552.00 123.38,5552.00              123.66,5547.40 125.23,5544.77 124.91,5539.00              124.91,5539.00 124.00,5527.00 124.00,5527.00              124.00,5527.00 124.00,5520.00 124.00,5520.00              124.00,5520.00 123.34,5511.00 123.34,5511.00              123.34,5511.00 124.92,5500.00 124.92,5500.00              124.92,5500.00 124.92,5483.00 124.92,5483.00              124.92,5483.00 126.68,5461.00 126.68,5461.00              126.68,5461.00 123.47,5442.00 123.47,5442.00              123.44,5438.81 125.25,5434.41 125.99,5431.00              127.22,5425.30 127.01,5422.69 126.86,5417.00              126.86,5417.00 126.86,5407.00 126.86,5407.00              126.86,5407.00 127.96,5397.00 127.96,5397.00              127.96,5397.00 127.96,5380.00 127.96,5380.00              128.02,5366.67 130.75,5365.81 131.69,5358.00              131.69,5358.00 130.77,5344.00 130.77,5344.00              130.77,5344.00 130.77,5322.00 130.77,5322.00              128.75,5311.90 124.01,5297.41 124.00,5288.00              124.00,5288.00 124.00,5274.00 124.00,5274.00              123.90,5265.94 122.38,5265.44 121.32,5259.00              120.59,5254.53 121.57,5253.33 119.99,5246.00              118.91,5241.03 117.29,5238.19 117.04,5233.00              116.32,5218.07 121.91,5217.30 121.92,5207.00              121.92,5207.00 118.38,5182.00 118.38,5182.00              117.11,5177.88 114.48,5174.52 114.35,5170.00              114.35,5170.00 118.49,5142.00 118.49,5142.00              118.49,5142.00 117.76,5130.00 117.76,5130.00              117.76,5130.00 117.76,5121.00 117.76,5121.00              117.66,5113.46 113.76,5104.91 113.39,5100.00              113.39,5100.00 113.91,5093.00 113.91,5093.00              113.91,5093.00 112.32,5078.00 112.32,5078.00              111.99,5073.59 113.61,5069.37 113.91,5065.00              113.91,5065.00 115.13,5050.00 115.13,5050.00              115.13,5050.00 115.13,5041.00 115.13,5041.00              115.13,5041.00 118.54,5027.00 118.54,5027.00              118.54,5027.00 119.83,5015.00 119.83,5015.00              120.69,5005.80 117.37,5001.74 117.46,4996.00              117.46,4996.00 120.79,4967.00 120.79,4967.00              120.79,4967.00 119.08,4952.00 119.08,4952.00              119.08,4952.00 119.08,4944.00 119.08,4944.00              119.08,4944.00 115.49,4918.00 115.49,4918.00              115.49,4918.00 113.46,4910.00 113.46,4910.00              113.46,4910.00 112.83,4897.00 112.83,4897.00              111.82,4887.58 110.87,4888.23 111.00,4877.00              111.00,4877.00 111.96,4860.00 111.96,4860.00              111.96,4860.00 110.00,4842.00 110.00,4842.00              110.00,4842.00 109.00,4817.00 109.00,4817.00              109.00,4817.00 107.00,4789.00 107.00,4789.00              107.00,4789.00 103.34,4761.00 103.34,4761.00              103.34,4761.00 104.83,4750.00 104.83,4750.00              104.83,4750.00 106.00,4728.00 106.00,4728.00              106.00,4728.00 106.96,4717.00 106.96,4717.00              106.96,4717.00 106.96,4705.00 106.96,4705.00              106.96,4705.00 108.00,4688.00 108.00,4688.00              108.00,4688.00 107.00,4671.00 107.00,4671.00              107.00,4671.00 105.96,4661.00 105.96,4661.00              105.96,4661.00 105.96,4651.00 105.96,4651.00              105.96,4651.00 104.34,4637.00 104.34,4637.00              104.36,4632.70 106.37,4628.66 105.82,4623.00              105.23,4616.85 102.73,4613.88 101.63,4610.00              100.78,4606.96 100.96,4601.32 101.00,4598.00              101.00,4598.00 103.97,4576.00 103.97,4576.00              103.97,4562.14 99.78,4550.37 99.09,4541.00              98.05,4526.89 99.02,4524.36 100.08,4511.00              100.08,4511.00 100.92,4503.00 100.92,4503.00              100.92,4503.00 100.00,4495.00 100.00,4495.00              100.00,4495.00 100.00,4484.00 100.00,4484.00              100.00,4484.00 99.00,4472.00 99.00,4472.00              99.00,4472.00 99.00,4455.00 99.00,4455.00              99.00,4455.00 98.01,4438.00 98.01,4438.00              98.01,4438.00 99.63,4421.00 99.63,4421.00              99.63,4421.00 98.29,4412.00 98.29,4412.00              98.29,4412.00 97.00,4393.00 97.00,4393.00              97.00,4393.00 96.00,4360.00 96.00,4360.00              95.99,4352.65 94.21,4345.34 95.30,4338.00              96.34,4330.96 100.39,4326.67 99.82,4319.00              99.09,4309.41 96.84,4308.68 97.00,4295.00              97.00,4295.00 97.70,4283.00 97.70,4283.00              97.70,4283.00 93.18,4243.00 93.18,4243.00              93.18,4243.00 94.00,4225.00 94.00,4225.00              94.00,4225.00 93.32,4213.00 93.32,4213.00              93.56,4209.77 94.13,4208.60 93.83,4205.00              93.47,4200.68 92.19,4196.36 92.52,4192.00              92.52,4192.00 93.96,4181.00 93.96,4181.00              94.24,4174.50 93.48,4172.70 93.04,4167.00              93.04,4167.00 93.04,4148.00 93.04,4148.00              92.99,4139.04 91.88,4139.10 90.94,4132.00              90.94,4132.00 90.94,4119.00 90.94,4119.00              90.94,4119.00 89.09,4110.00 89.09,4110.00              89.09,4110.00 90.00,4092.00 90.00,4092.00              90.00,4092.00 90.00,4078.00 90.00,4078.00              90.09,4070.68 91.43,4069.13 91.82,4064.00              92.10,4060.30 91.28,4058.42 91.09,4055.00              90.65,4047.23 94.15,4043.48 93.79,4037.00              93.79,4037.00 91.46,4025.00 91.46,4025.00              91.46,4025.00 88.51,3996.00 88.51,3996.00              88.51,3996.00 90.82,3975.00 90.82,3975.00              90.82,3975.00 89.08,3957.00 89.08,3957.00              89.08,3957.00 90.68,3939.00 90.68,3939.00              90.68,3939.00 90.00,3926.00 90.00,3926.00              90.00,3926.00 84.09,3888.00 84.09,3888.00              84.09,3888.00 85.92,3877.00 85.92,3877.00              85.92,3877.00 85.92,3859.00 85.92,3859.00              86.11,3849.99 89.33,3846.84 88.82,3840.00              88.33,3833.57 87.01,3833.54 87.00,3824.00              87.00,3824.00 87.00,3811.00 87.00,3811.00              87.00,3811.00 87.79,3800.00 87.79,3800.00              87.79,3800.00 85.00,3771.00 85.00,3771.00              85.00,3771.00 83.00,3727.00 83.00,3727.00              83.00,3727.00 84.04,3717.00 84.04,3717.00              84.04,3717.00 84.04,3709.00 84.04,3709.00              84.62,3704.46 86.16,3700.68 85.82,3696.00              85.82,3696.00 83.08,3678.00 83.08,3678.00              83.08,3678.00 83.82,3671.00 83.82,3671.00              83.82,3671.00 82.00,3653.00 82.00,3653.00              82.00,3653.00 82.00,3639.00 82.00,3639.00              82.00,3639.00 81.09,3629.00 81.09,3629.00              81.09,3629.00 82.00,3610.00 82.00,3610.00              82.00,3610.00 82.00,3589.00 82.00,3589.00              82.11,3579.88 84.90,3578.38 84.92,3572.00              84.92,3572.00 82.04,3555.00 82.04,3555.00              82.04,3555.00 82.91,3539.00 82.91,3539.00              82.91,3539.00 81.00,3518.00 81.00,3518.00              81.00,3518.00 81.00,3500.00 81.00,3500.00              81.00,3500.00 79.01,3473.00 79.01,3473.00              79.01,3473.00 79.99,3462.00 79.99,3462.00              79.99,3462.00 79.04,3448.00 79.04,3448.00              79.04,3448.00 79.69,3438.00 79.69,3438.00              80.26,3431.75 77.97,3427.28 79.69,3419.00              80.86,3411.25 84.93,3404.04 84.92,3396.00              84.91,3387.52 80.74,3384.99 81.01,3373.00              81.01,3373.00 82.82,3356.00 82.82,3356.00              82.82,3356.00 78.29,3332.00 78.29,3332.00              78.29,3332.00 77.18,3314.00 77.18,3314.00              77.18,3314.00 77.79,3306.00 77.79,3306.00              77.79,3306.00 75.92,3292.00 75.92,3292.00              75.92,3292.00 75.92,3282.00 75.92,3282.00              74.98,3273.16 72.79,3266.36 73.01,3257.00              73.01,3257.00 74.71,3245.00 74.71,3245.00              74.71,3245.00 75.91,3226.00 75.91,3226.00              75.91,3226.00 73.00,3199.00 73.00,3199.00              73.00,3199.00 73.00,3183.00 73.00,3183.00              73.00,3183.00 73.91,3170.00 73.91,3170.00              73.91,3170.00 72.08,3156.00 72.08,3156.00              72.08,3156.00 72.08,3145.00 72.08,3145.00              72.08,3145.00 70.04,3123.00 70.04,3123.00              70.04,3123.00 70.04,3109.00 70.04,3109.00              70.04,3109.00 71.00,3097.00 71.00,3097.00              71.00,3097.00 71.00,3052.00 71.00,3052.00              71.00,3052.00 68.17,3029.00 68.17,3029.00              67.38,3021.14 69.23,3017.67 68.91,3012.00              68.91,3012.00 68.00,2998.00 68.00,2998.00              68.00,2998.00 70.99,2971.00 70.99,2971.00              70.99,2971.00 67.51,2945.00 67.51,2945.00              67.51,2945.00 68.96,2924.00 68.96,2924.00              68.96,2924.00 67.04,2898.00 67.04,2898.00              67.04,2898.00 68.82,2881.00 68.82,2881.00              68.82,2881.00 67.51,2868.00 67.51,2868.00              67.51,2868.00 70.96,2843.00 70.96,2843.00              71.16,2836.78 69.48,2833.55 69.04,2828.00              69.04,2828.00 69.04,2805.00 69.04,2805.00              68.88,2794.96 66.33,2792.17 65.30,2785.00              64.47,2779.23 65.62,2777.10 65.91,2772.00              66.29,2765.18 64.01,2763.05 64.01,2755.00              64.01,2755.00 64.96,2742.00 64.96,2742.00              64.77,2736.13 63.53,2733.00 64.09,2726.00              64.56,2720.21 67.26,2716.19 66.82,2710.00              66.82,2710.00 63.73,2686.00 63.73,2686.00              63.73,2686.00 62.21,2677.00 62.21,2677.00              62.21,2677.00 63.91,2653.00 63.91,2653.00              63.66,2648.65 62.47,2645.83 62.76,2641.00              62.76,2641.00 64.00,2629.00 64.00,2629.00              64.00,2629.00 62.01,2602.00 62.01,2602.00              61.68,2587.33 68.92,2574.71 68.92,2564.00              68.92,2564.00 63.00,2513.00 63.00,2513.00              63.00,2513.00 62.09,2498.00 62.09,2498.00              62.09,2498.00 62.60,2486.00 62.60,2486.00              62.53,2482.01 61.48,2479.24 62.60,2475.00              63.39,2470.33 67.92,2464.32 67.92,2456.00              67.92,2448.27 64.02,2444.87 64.04,2432.00              64.04,2432.00 64.04,2419.00 64.04,2419.00              64.04,2419.00 64.96,2408.00 64.96,2408.00              64.96,2408.00 64.00,2395.00 64.00,2395.00              63.98,2384.23 64.95,2384.18 65.92,2375.00              65.92,2375.00 65.92,2364.00 65.92,2364.00              65.92,2364.00 67.00,2350.00 67.00,2350.00              67.00,2350.00 65.56,2325.00 65.56,2325.00              64.53,2318.60 63.14,2317.78 61.79,2313.00              61.79,2313.00 59.33,2290.00 59.33,2290.00              59.33,2290.00 64.67,2262.00 64.67,2262.00              65.20,2255.80 62.04,2252.39 62.03,2245.00              62.03,2245.00 62.98,2235.00 62.98,2235.00              62.98,2235.00 62.98,2217.00 62.98,2217.00              62.98,2217.00 61.21,2200.00 61.21,2200.00              61.21,2200.00 61.91,2189.00 61.91,2189.00              61.91,2189.00 61.00,2174.00 61.00,2174.00              61.00,2174.00 61.91,2164.00 61.91,2164.00              62.32,2156.79 59.62,2153.91 60.10,2147.00              60.10,2147.00 62.81,2134.00 62.81,2134.00              63.20,2129.34 61.50,2126.37 62.17,2120.00              62.65,2115.51 64.18,2112.85 63.82,2108.00              63.82,2108.00 61.32,2093.00 61.32,2093.00              61.32,2093.00 61.96,2081.00 61.96,2081.00              61.96,2081.00 60.11,2061.00 60.11,2061.00              60.66,2051.44 71.79,2039.60 70.81,2028.00              69.90,2017.09 62.05,2013.27 59.82,2003.00              57.26,1991.23 60.88,1985.84 62.69,1975.00              63.51,1968.91 62.20,1967.90 62.69,1963.00              62.69,1963.00 62.69,1942.00 62.69,1942.00              63.03,1936.27 64.46,1930.72 63.71,1925.00              63.71,1925.00 57.67,1903.00 57.67,1903.00              56.42,1897.14 55.93,1885.19 56.00,1879.00              56.00,1879.00 56.92,1868.00 56.92,1868.00              56.92,1868.00 56.01,1858.00 56.01,1858.00              56.01,1858.00 57.09,1839.00 57.09,1839.00              57.09,1839.00 58.81,1820.00 58.81,1820.00              58.42,1815.21 56.12,1810.89 56.53,1806.00              56.53,1806.00 64.00,1764.00 64.00,1764.00              64.00,1764.00 64.00,1758.00 64.00,1758.00              63.87,1747.06 60.62,1746.15 58.67,1737.00              58.67,1737.00 57.70,1725.00 57.70,1725.00              57.70,1725.00 55.30,1714.00 55.30,1714.00              55.30,1714.00 54.34,1697.00 54.34,1697.00              54.34,1697.00 57.04,1674.00 57.04,1674.00              57.04,1674.00 57.04,1661.00 57.04,1661.00              57.04,1661.00 57.92,1653.00 57.92,1653.00              57.92,1653.00 57.04,1644.00 57.04,1644.00              56.81,1638.17 59.11,1626.53 61.09,1621.00              63.20,1615.11 65.40,1612.93 65.91,1606.00              66.83,1593.38 62.12,1590.34 61.75,1583.00              61.75,1583.00 63.96,1563.00 63.96,1563.00              63.62,1554.66 59.99,1550.73 59.18,1544.00              58.24,1536.10 61.22,1533.24 60.99,1523.00              60.76,1513.35 57.29,1510.30 55.82,1504.00              55.02,1500.52 56.35,1489.35 57.72,1486.00              59.37,1482.00 63.87,1478.96 67.00,1475.96              74.01,1469.26 81.42,1461.86 83.48,1452.00              84.86,1445.44 81.15,1431.47 77.36,1426.00              73.37,1420.25 67.34,1416.71 67.06,1409.00              66.85,1403.37 69.92,1392.85 72.76,1388.00              72.76,1388.00 79.60,1377.00 79.60,1377.00              82.57,1370.75 83.08,1362.82 83.00,1356.00              82.89,1346.80 79.07,1339.53 74.05,1332.00              72.31,1329.39 68.45,1325.73 67.92,1323.00              67.20,1319.23 71.56,1314.33 70.69,1307.00              70.69,1307.00 67.44,1292.00 67.44,1292.00              66.53,1286.18 67.48,1284.22 65.51,1277.00              65.51,1277.00 60.52,1263.00 60.52,1263.00              60.52,1263.00 58.17,1240.00 58.17,1240.00              57.05,1228.29 61.87,1218.48 62.00,1207.00              62.00,1207.00 56.46,1170.00 56.46,1170.00              56.46,1170.00 61.60,1145.00 61.60,1145.00              62.52,1138.58 61.18,1134.89 61.60,1131.00              61.60,1131.00 64.00,1090.00 64.00,1090.00              63.86,1078.22 60.02,1079.15 60.00,1065.00              59.99,1058.08 60.20,1050.83 61.32,1044.00              61.32,1044.00 63.82,1033.00 63.82,1033.00              63.82,1033.00 63.04,1019.00 63.04,1019.00              63.04,1019.00 65.08,1007.00 65.08,1007.00              65.08,1007.00 65.08,995.00 65.08,995.00              65.08,995.00 70.47,974.00 70.47,974.00              70.47,974.00 76.10,963.00 76.10,963.00              76.10,963.00 79.56,954.00 79.56,954.00              82.14,948.87 87.08,945.62 90.36,941.00              94.01,935.87 93.92,932.53 95.57,927.00              97.48,920.59 100.30,916.02 99.91,909.00              99.25,897.31 94.27,882.19 96.67,871.00              99.01,860.05 108.53,852.63 108.96,841.00              109.38,829.29 102.18,821.32 99.96,813.00              97.78,805.05 99.91,799.62 99.96,792.00              100.03,789.09 99.43,780.80 100.99,778.70              102.09,777.21 105.30,776.08 107.00,775.01              110.34,772.91 113.91,769.32 116.03,766.00              119.30,760.91 119.41,756.11 121.99,751.00              121.99,751.00 127.66,742.00 127.66,742.00              129.55,738.69 134.62,725.79 135.78,722.00              137.48,716.48 136.57,714.57 137.51,710.00              138.47,705.36 140.24,702.03 139.81,697.00              139.18,689.49 134.91,684.50 132.04,678.00              129.49,672.25 127.92,664.99 124.36,660.00              124.36,660.00 112.85,647.00 112.85,647.00              109.58,641.52 112.21,635.00 103.90,626.01              96.74,618.27 83.20,611.72 78.01,603.00              74.37,596.89 75.93,585.84 74.07,579.00              72.72,574.01 70.55,570.72 66.96,567.04              65.04,565.08 61.60,562.68 61.11,559.91              60.66,557.36 62.92,553.33 62.92,548.00              62.92,540.61 58.80,535.67 59.21,529.00              59.65,521.84 64.94,509.82 65.00,498.00              65.00,498.00 65.00,494.00 65.00,494.00              65.00,494.00 67.00,475.00 67.00,475.00              67.00,475.00 67.00,471.00 67.00,471.00              67.00,471.00 67.96,457.00 67.96,457.00              67.53,446.41 64.72,451.31 66.09,433.00              66.09,433.00 70.97,414.00 70.97,414.00              73.18,401.19 71.25,402.57 70.97,392.00              70.84,384.16 73.25,376.19 78.39,370.09              81.53,366.36 86.29,363.81 90.03,358.00              95.16,350.04 95.10,341.07 95.00,332.00              94.82,317.24 81.54,302.09 82.04,289.00              82.21,284.61 83.85,273.94 85.53,270.00              85.53,270.00 93.45,255.00 93.45,255.00              96.03,247.76 94.35,243.12 95.38,238.00              95.38,238.00 101.64,221.00 101.64,221.00              103.64,214.79 102.55,210.31 103.81,204.00              105.22,196.91 106.96,194.32 108.97,188.00              108.97,188.00 115.46,167.00 115.46,167.00              115.46,167.00 131.49,141.00 131.49,141.00              131.49,141.00 141.65,128.00 141.65,128.00              141.65,128.00 152.90,113.00 152.90,113.00              155.66,108.85 157.08,104.78 161.09,101.39              165.30,97.84 173.74,95.64 179.00,93.55              190.04,89.17 202.11,81.14 214.00,81.00              220.35,80.93 226.90,81.62 233.00,79.45              239.57,77.12 243.96,72.22 250.00,71.21              250.00,71.21 265.00,69.70 265.00,69.70              265.00,69.70 275.00,67.46 275.00,67.46              275.00,67.46 292.00,64.46 292.00,64.46              292.00,64.46 303.00,63.54 303.00,63.54              303.00,63.54 313.00,61.30 313.00,61.30              313.00,61.30 333.00,59.70 333.00,59.70              333.00,59.70 355.00,55.00 355.00,55.00              355.00,55.00 365.00,55.00 365.00,55.00              365.00,55.00 379.00,53.00 379.00,53.00              388.96,52.89 390.30,54.00 399.00,55.00              399.00,55.00 407.00,55.00 407.00,55.00              407.00,55.00 427.00,59.77 427.00,59.77              427.00,59.77 443.00,59.77 443.00,59.77              443.00,59.77 466.00,61.96 466.00,61.96              475.21,61.55 475.88,58.13 486.00,58.00              486.00,58.00 499.00,58.00 499.00,58.00              499.00,58.00 517.00,56.21 517.00,56.21              522.70,55.92 527.00,58.98 538.00,59.00              538.00,59.00 563.00,59.00 563.00,59.00              563.00,59.00 584.00,57.00 584.00,57.00              584.00,57.00 612.00,57.00 612.00,57.00              612.00,57.00 629.00,57.96 629.00,57.96              629.00,57.96 641.00,57.96 641.00,57.96              641.00,57.96 653.00,57.01 653.00,57.01              653.00,57.01 666.00,57.96 666.00,57.96              666.00,57.96 682.00,55.04 682.00,55.04              688.30,54.74 690.47,55.56 696.00,55.91              696.00,55.91 708.00,55.32 708.00,55.32              708.00,55.32 733.00,57.90 733.00,57.90              733.00,57.90 759.00,55.51 759.00,55.51              759.00,55.51 777.00,57.00 777.00,57.00              777.00,57.00 794.00,57.00 794.00,57.00              794.00,57.00 836.00,61.94 836.00,61.94              836.00,61.94 844.00,61.94 844.00,61.94              844.00,61.94 870.00,63.91 870.00,63.91              870.00,63.91 887.00,61.08 887.00,61.08              887.00,61.08 903.00,59.83 903.00,59.83              910.10,59.12 910.04,58.01 919.00,58.04              919.00,58.04 931.00,58.04 931.00,58.04              934.87,58.35 936.72,59.15 941.00,58.91              941.00,58.91 961.00,56.33 961.00,56.33              961.00,56.33 974.00,58.83 974.00,58.83              974.00,58.83 994.00,59.91 994.00,59.91              994.00,59.91 1006.00,59.00 1006.00,59.00              1006.00,59.00 1026.00,59.00 1026.00,59.00              1026.00,59.00 1037.00,57.96 1037.00,57.96              1037.00,57.96 1047.00,57.96 1047.00,57.96              1047.00,57.96 1060.00,55.22 1060.00,55.22              1065.22,54.83 1071.06,57.91 1077.00,57.92              1077.00,57.92 1096.00,56.00 1096.00,56.00              1096.00,56.00 1116.00,56.00 1116.00,56.00              1122.60,56.08 1132.43,59.41 1138.00,62.97              1146.34,68.29 1149.25,73.63 1161.00,72.91              1165.64,72.62 1170.17,71.00 1174.00,68.38              1176.97,66.34 1180.49,62.68 1184.00,61.87              1188.43,60.85 1193.68,64.53 1201.00,63.82              1208.19,63.13 1212.60,59.25 1219.00,57.61              1222.71,56.66 1229.87,57.04 1234.00,57.00              1234.00,57.00 1243.00,56.47 1243.00,56.47              1243.00,56.47 1255.00,58.83 1255.00,58.83              1255.00,58.83 1284.00,61.28 1284.00,61.28              1284.00,61.28 1304.00,63.90 1304.00,63.90              1304.00,63.90 1313.00,63.09 1313.00,63.09              1313.00,63.09 1332.00,62.00 1332.00,62.00              1332.00,62.00 1348.00,61.00 1348.00,61.00              1348.00,61.00 1368.00,60.00 1368.00,60.00              1368.00,60.00 1381.00,60.91 1381.00,60.91              1389.69,60.42 1397.08,57.94 1406.00,59.62              1417.31,61.75 1418.37,67.58 1433.00,66.96              1447.49,66.35 1452.38,62.25 1458.00,61.33              1461.93,60.69 1464.29,61.70 1468.00,61.91              1476.25,62.37 1482.10,58.25 1487.00,58.70              1487.00,58.70 1499.00,61.70 1499.00,61.70              1499.00,61.70 1534.00,63.91 1534.00,63.91              1542.47,63.39 1548.67,58.49 1556.00,59.11              1559.88,59.43 1563.24,61.45 1567.00,62.32              1571.22,63.29 1579.58,63.99 1584.00,63.92              1584.00,63.92 1594.00,63.92 1594.00,63.92              1594.00,63.92 1609.00,62.08 1609.00,62.08              1609.00,62.08 1625.00,64.79 1625.00,64.79              1625.00,64.79 1645.00,64.00 1645.00,64.00              1655.57,63.95 1656.26,61.04 1668.00,61.82              1668.00,61.82 1691.00,59.00 1691.00,59.00              1714.72,58.96 1707.12,58.08 1730.00,63.12              1730.00,63.12 1737.00,64.40 1737.00,64.40              1742.00,65.77 1745.86,70.07 1750.00,73.07              1756.26,77.61 1765.14,81.39 1773.00,80.91              1783.18,80.28 1788.15,74.14 1794.00,72.03              1798.07,70.76 1801.82,72.14 1806.00,72.03              1806.00,72.03 1819.00,70.28 1819.00,70.28              1819.00,70.28 1827.00,69.70 1827.00,69.70              1834.43,68.64 1834.87,67.04 1844.00,67.00              1854.76,66.95 1855.97,67.21 1867.00,65.72              1867.00,65.72 1887.00,62.09 1887.00,62.09              1887.00,62.09 1901.00,62.96 1901.00,62.96              1901.00,62.96 1912.00,62.01 1912.00,62.01              1912.00,62.01 1922.00,62.96 1922.00,62.96              1922.00,62.96 1935.00,62.96 1935.00,62.96              1935.00,62.96 1951.00,62.00 1951.00,62.00              1951.00,62.00 1983.00,64.00 1983.00,64.00              1991.15,63.90 1997.61,61.27 2006.00,62.17              2006.00,62.17 2030.00,68.85 2030.00,68.85              2041.56,72.01 2040.43,70.27 2047.00,71.67              2056.64,73.71 2067.44,79.96 2077.00,79.92              2091.88,79.86 2099.46,64.20 2115.00,64.00              2122.58,63.91 2146.06,67.10 2153.00,69.55              2161.81,72.65 2170.16,79.56 2180.00,78.82              2180.00,78.82 2208.00,72.80 2208.00,72.80              2208.00,72.80 2230.00,69.37 2230.00,69.37              2239.50,66.53 2237.77,62.02 2253.00,62.00              2253.00,62.00 2291.00,62.00 2291.00,62.00              2291.00,62.00 2312.00,63.96 2312.00,63.96              2312.00,63.96 2327.00,61.62 2327.00,61.62              2332.06,61.74 2334.33,64.93 2348.00,65.00              2348.00,65.00 2359.00,65.96 2359.00,65.96              2359.00,65.96 2374.00,65.96 2374.00,65.96              2374.00,65.96 2392.00,67.82 2392.00,67.82              2392.00,67.82 2404.00,66.04 2404.00,66.04              2404.00,66.04 2441.00,70.90 2441.00,70.90              2441.00,70.90 2464.00,69.10 2464.00,69.10              2464.00,69.10 2493.00,72.66 2493.00,72.66              2493.00,72.66 2511.00,68.44 2511.00,68.44              2511.00,68.44 2550.00,66.00 2550.00,66.00              2550.00,66.00 2583.00,64.00 2583.00,64.00              2583.00,64.00 2596.00,64.00 2596.00,64.00              2596.00,64.00 2609.00,64.91 2609.00,64.91              2612.46,64.71 2614.24,63.91 2618.00,64.18              2618.00,64.18 2631.00,65.96 2631.00,65.96              2631.00,65.96 2646.00,65.00 2646.00,65.00              2657.11,65.12 2662.52,69.39 2671.00,68.91              2671.00,68.91 2704.00,65.01 2704.00,65.01              2704.00,65.01 2714.00,65.98 2714.00,65.98              2714.00,65.98 2732.00,65.98 2732.00,65.98              2732.00,65.98 2764.00,64.00 2764.00,64.00              2764.00,64.00 2801.00,64.00 2801.00,64.00              2801.00,64.00 2819.00,65.92 2819.00,65.92              2819.00,65.92 2830.00,65.92 2830.00,65.92              2830.00,65.92 2873.00,71.00 2873.00,71.00              2884.54,71.16 2886.77,78.24 2900.00,76.83              2910.10,75.75 2912.96,70.10 2921.00,67.79              2925.50,66.49 2929.52,67.31 2934.00,66.83              2934.00,66.83 2946.00,64.22 2946.00,64.22              2946.00,64.22 2959.00,65.00 2959.00,65.00              2959.00,65.00 2980.00,66.00 2980.00,66.00              2980.00,66.00 2996.00,64.51 2996.00,64.51              2996.00,64.51 3024.00,67.96 3024.00,67.96              3032.83,67.60 3036.75,63.63 3045.00,64.09              3045.00,64.09 3057.00,65.00 3057.00,65.00              3057.00,65.00 3098.00,65.00 3098.00,65.00              3098.00,65.00 3134.00,67.00 3134.00,67.00              3134.00,67.00 3148.00,66.00 3148.00,66.00              3148.00,66.00 3171.00,67.17 3171.00,67.17              3171.00,67.17 3194.00,72.84 3194.00,72.84              3194.00,72.84 3219.00,72.84 3219.00,72.84              3234.54,72.98 3237.61,67.68 3252.00,68.01              3260.41,68.21 3263.99,71.31 3273.00,70.96              3279.49,70.71 3282.32,68.74 3290.00,69.04              3290.00,69.04 3304.00,70.92 3304.00,70.92              3304.00,70.92 3329.00,67.09 3329.00,67.09              3329.00,67.09 3347.00,67.99 3347.00,67.99              3354.17,67.82 3358.34,65.44 3363.00,65.26              3363.00,65.26 3388.00,66.96 3388.00,66.96              3388.00,66.96 3399.00,66.96 3399.00,66.96              3399.00,66.96 3411.00,66.01 3411.00,66.01              3411.00,66.01 3422.00,66.99 3422.00,66.99              3422.00,66.99 3437.00,66.00 3437.00,66.00              3437.00,66.00 3462.00,67.82 3462.00,67.82              3462.00,67.82 3476.00,65.09 3476.00,65.09              3476.00,65.09 3498.00,66.00 3498.00,66.00              3498.00,66.00 3520.00,67.00 3520.00,67.00              3526.80,67.08 3526.49,67.92 3532.00,68.85              3532.00,68.85 3541.00,68.85 3541.00,68.85              3541.00,68.85 3571.00,72.00 3571.00,72.00              3571.00,72.00 3602.00,69.01 3602.00,69.01              3602.00,69.01 3615.00,70.00 3615.00,70.00              3615.00,70.00 3643.00,70.00 3643.00,70.00              3643.00,70.00 3660.00,69.01 3660.00,69.01              3671.26,69.29 3671.43,74.84 3685.00,75.00              3685.00,75.00 3703.00,74.09 3703.00,74.09              3703.00,74.09 3712.00,74.09 3712.00,74.09              3712.00,74.09 3721.00,76.19 3721.00,76.19              3721.00,76.19 3740.00,77.81 3740.00,77.81              3751.09,76.89 3761.28,68.45 3773.00,69.32              3773.00,69.32 3787.00,71.10 3787.00,71.10              3787.00,71.10 3798.00,71.10 3798.00,71.10              3806.14,72.35 3813.71,74.01 3822.00,74.00              3822.00,74.00 3839.00,72.18 3839.00,72.18              3846.31,71.65 3865.04,77.10 3873.00,78.54              3873.00,78.54 3884.00,79.17 3884.00,79.17              3884.00,79.17 3897.00,80.46 3897.00,80.46              3897.00,80.46 3907.00,82.70 3907.00,82.70              3907.00,82.70 3915.00,83.33 3915.00,83.33              3921.16,84.41 3925.75,88.50 3932.00,89.88              3932.00,89.88 3973.00,95.71 3973.00,95.71              3973.00,95.71 3983.00,96.42 3983.00,96.42              3987.13,97.44 3992.74,102.33 3997.00,104.69              3997.00,104.69 4022.00,117.21 4022.00,117.21              4022.00,117.21 4037.37,131.09 4037.37,131.09              4037.37,131.09 4047.34,151.00 4047.34,151.00              4047.34,151.00 4054.92,163.00 4054.92,163.00              4056.89,167.69 4054.81,170.80 4058.52,182.00              4063.03,195.64 4078.36,207.92 4093.00,207.92              4106.43,207.92 4113.73,197.83 4119.24,187.00              4125.49,174.71 4122.85,178.16 4125.76,167.00              4125.76,167.00 4128.48,159.00 4128.48,159.00              4132.89,145.50 4136.25,133.93 4148.00,124.67              4148.00,124.67 4166.00,112.79 4166.00,112.79              4166.00,112.79 4186.00,97.73 4186.00,97.73              4191.76,94.42 4214.03,87.73 4221.00,86.46              4237.63,83.44 4240.07,87.33 4250.00,85.54              4254.61,84.71 4258.61,82.95 4263.00,81.52              4267.91,79.92 4283.05,76.43 4288.00,76.09              4299.38,75.30 4303.59,79.32 4311.00,78.89              4320.48,78.35 4323.29,71.55 4336.00,72.04              4336.00,72.04 4365.00,74.96 4365.00,74.96              4373.22,74.63 4373.38,72.02 4385.00,72.00              4385.00,72.00 4408.00,73.00 4408.00,73.00              4408.00,73.00 4441.00,77.15 4441.00,77.15              4441.00,77.15 4459.00,79.96 4459.00,79.96              4459.00,79.96 4480.00,78.70 4480.00,78.70              4480.00,78.70 4490.00,76.46 4490.00,76.46              4490.00,76.46 4504.00,75.04 4504.00,75.04              4504.00,75.04 4521.00,75.96 4521.00,75.96              4521.00,75.96 4540.00,74.04 4540.00,74.04              4540.00,74.04 4548.00,74.96 4548.00,74.96              4548.00,74.96 4564.00,74.96 4564.00,74.96              4564.00,74.96 4578.00,75.96 4578.00,75.96              4578.00,75.96 4606.00,74.18 4606.00,74.18              4612.88,75.03 4616.59,79.48 4626.00,78.91              4633.56,78.44 4633.48,76.02 4645.00,76.00              4645.00,76.00 4670.00,75.00 4670.00,75.00              4670.00,75.00 4697.00,72.04 4697.00,72.04              4697.00,72.04 4711.00,72.04 4711.00,72.04              4714.87,72.35 4716.71,73.15 4721.00,72.91              4721.00,72.91 4734.00,72.01 4734.00,72.01              4734.00,72.01 4746.00,73.00 4746.00,73.00              4746.00,73.00 4813.00,73.00 4813.00,73.00              4813.00,73.00 4831.00,74.82 4831.00,74.82              4831.00,74.82 4842.00,74.09 4842.00,74.09              4842.00,74.09 4860.00,74.09 4860.00,74.09              4860.00,74.09 4873.00,76.91 4873.00,76.91              4873.00,76.91 4889.00,76.00 4889.00,76.00              4889.00,76.00 4918.00,76.00 4918.00,76.00              4918.00,76.00 4930.00,76.91 4930.00,76.91              4930.00,76.91 4969.00,79.00 4969.00,79.00              4969.00,79.00 4982.00,78.21 4982.00,78.21              4982.00,78.21 5009.00,80.91 5009.00,80.91              5017.68,80.40 5018.16,78.16 5032.00,78.00              5032.00,78.00 5053.00,75.14 5053.00,75.14              5053.00,75.14 5065.00,75.14 5065.00,75.14              5065.00,75.14 5091.00,73.01 5091.00,73.01              5091.00,73.01 5107.00,74.00 5107.00,74.00              5107.00,74.00 5126.00,74.00 5126.00,74.00              5126.00,74.00 5147.00,75.43 5147.00,75.43              5147.00,75.43 5167.00,78.00 5167.00,78.00              5167.00,78.00 5184.00,78.00 5184.00,78.00              5194.89,78.02 5192.84,79.35 5202.00,81.33              5205.70,82.14 5221.57,84.10 5225.00,83.91              5225.00,83.91 5250.00,80.08 5250.00,80.08              5256.51,80.09 5259.76,82.98 5271.00,82.92              5271.00,82.92 5286.00,82.92 5286.00,82.92              5286.00,82.92 5297.00,81.09 5297.00,81.09              5297.00,81.09 5309.00,81.82 5309.00,81.82              5309.00,81.82 5321.00,79.46 5321.00,79.46              5321.00,79.46 5350.00,76.18 5350.00,76.18              5350.00,76.18 5367.00,77.92 5367.00,77.92              5367.00,77.92 5380.00,77.00 5380.00,77.00              5380.00,77.00 5400.00,76.00 5400.00,76.00              5400.00,76.00 5416.00,76.00 5416.00,76.00              5416.00,76.00 5432.00,75.04 5432.00,75.04              5432.00,75.04 5440.00,75.91 5440.00,75.91              5440.00,75.91 5451.00,75.32 5451.00,75.32              5457.14,75.81 5459.86,77.15 5467.00,76.99              5467.00,76.99 5484.00,75.61 5484.00,75.61              5484.00,75.61 5517.00,79.96 5517.00,79.96              5517.00,79.96 5548.00,77.00 5548.00,77.00              5548.00,77.00 5567.00,77.00 5567.00,77.00              5567.00,77.00 5584.00,78.00 5584.00,78.00              5584.00,78.00 5606.00,80.96 5606.00,80.96              5606.00,80.96 5623.00,80.00 5623.00,80.00              5623.00,80.00 5642.00,81.00 5642.00,81.00              5642.00,81.00 5656.00,80.02 5656.00,80.02              5656.00,80.02 5674.00,81.00 5674.00,81.00              5674.00,81.00 5694.00,80.00 5694.00,80.00              5694.00,80.00 5709.00,81.00 5709.00,81.00              5709.00,81.00 5726.00,81.00 5726.00,81.00              5726.00,81.00 5740.00,80.09 5740.00,80.09              5740.00,80.09 5752.00,81.00 5752.00,81.00              5752.00,81.00 5779.00,81.00 5779.00,81.00              5779.00,81.00 5799.00,82.00 5799.00,82.00              5799.00,82.00 5812.00,82.91 5812.00,82.91              5812.00,82.91 5831.00,81.00 5831.00,81.00              5831.00,81.00 5837.00,81.00 5837.00,81.00              5837.00,81.00 5852.00,80.00 5852.00,80.00              5852.00,80.00 5889.00,80.00 5889.00,80.00              5889.00,80.00 5904.00,81.00 5904.00,81.00              5904.00,81.00 5921.00,81.00 5921.00,81.00              5927.79,81.08 5927.49,81.92 5933.00,82.70              5933.00,82.70 5950.00,84.00 5950.00,84.00              5950.00,84.00 5965.00,84.00 5965.00,84.00              5965.00,84.00 5982.00,83.00 5982.00,83.00              5982.00,83.00 5995.00,82.08 5995.00,82.08              5995.00,82.08 6011.00,84.00 6011.00,84.00              6025.20,84.16 6022.68,83.83 6037.00,85.72              6037.00,85.72 6053.99,87.43 6053.99,87.43              6059.07,88.86 6061.72,95.10 6065.18,99.00              6071.67,106.29 6080.08,110.97 6090.00,110.97              6095.63,110.97 6098.75,109.48 6104.00,108.23              6113.63,105.96 6122.16,104.51 6131.00,99.69              6131.00,99.69 6152.00,86.08 6152.00,86.08              6155.86,84.44 6163.71,84.01 6168.00,84.00              6168.00,84.00 6176.00,84.00 6176.00,84.00              6176.00,84.00 6193.00,82.92 6193.00,82.92              6193.00,82.92 6204.00,82.92 6204.00,82.92              6204.00,82.92 6215.00,83.96 6215.00,83.96              6215.00,83.96 6238.00,82.00 6238.00,82.00              6238.00,82.00 6242.00,82.00 6242.00,82.00              6242.00,82.00 6256.00,82.96 6256.00,82.96              6256.00,82.96 6267.00,82.09 6267.00,82.09              6267.00,82.09 6289.00,84.82 6289.00,84.82              6289.00,84.82 6313.00,83.09 6313.00,83.09              6313.00,83.09 6339.00,86.90 6339.00,86.90              6343.90,87.11 6346.75,85.51 6353.00,86.17              6353.00,86.17 6362.00,87.96 6362.00,87.96              6362.00,87.96 6372.00,87.96 6372.00,87.96              6372.00,87.96 6383.00,90.00 6383.00,90.00              6383.00,90.00 6394.00,90.00 6394.00,90.00              6394.00,90.00 6414.00,92.00 6414.00,92.00              6414.00,92.00 6434.00,90.48 6434.00,90.48              6434.00,90.48 6446.00,87.13 6446.00,87.13              6446.00,87.13 6456.00,87.13 6456.00,87.13              6456.00,87.13 6469.00,85.91 6469.00,85.91              6472.88,85.64 6474.73,84.85 6479.00,85.09              6479.00,85.09 6499.00,87.83 6499.00,87.83              6499.00,87.83 6527.00,89.00 6527.00,89.00              6527.00,89.00 6553.00,86.18 6553.00,86.18              6553.00,86.18 6577.00,88.00 6577.00,88.00              6577.00,88.00 6590.00,88.91 6590.00,88.91              6590.00,88.91 6606.00,86.09 6606.00,86.09              6606.00,86.09 6639.00,85.00 6639.00,85.00              6639.00,85.00 6654.00,84.00 6654.00,84.00              6654.00,84.00 6675.00,84.00 6675.00,84.00              6675.00,84.00 6708.00,85.96 6708.00,85.96              6708.00,85.96 6723.00,85.96 6723.00,85.96              6723.00,85.96 6735.00,85.00 6735.00,85.00              6735.00,85.00 6749.00,85.00 6749.00,85.00              6749.00,85.00 6769.00,86.00 6769.00,86.00              6769.00,86.00 6782.00,86.96 6782.00,86.96              6782.00,86.96 6793.00,86.00 6793.00,86.00              6793.00,86.00 6807.00,86.00 6807.00,86.00              6807.00,86.00 6830.00,85.00 6830.00,85.00              6830.00,85.00 6853.00,87.00 6853.00,87.00              6853.00,87.00 6876.00,85.91 6876.00,85.91              6880.37,85.61 6881.97,84.84 6887.00,85.04              6887.00,85.04 6895.00,85.96 6895.00,85.96              6895.00,85.96 6908.00,85.96 6908.00,85.96              6908.00,85.96 6925.00,85.00 6925.00,85.00              6925.00,85.00 6935.00,85.95 6935.00,85.95              6935.00,85.95 6949.00,85.95 6949.00,85.95              6949.00,85.95 6962.00,85.00 6962.00,85.00              6962.00,85.00 6980.00,85.00 6980.00,85.00              6980.00,85.00 7013.00,87.82 7013.00,87.82              7018.80,87.38 7019.93,86.04 7028.00,86.00              7028.00,86.00 7045.00,86.82 7045.00,86.82              7045.00,86.82 7061.00,85.09 7061.00,85.09              7061.00,85.09 7074.00,86.94 7074.00,86.94              7074.00,86.94 7094.00,86.94 7094.00,86.94              7094.00,86.94 7106.00,86.00 7106.00,86.00              7106.00,86.00 7130.00,86.00 7130.00,86.00              7130.00,86.00 7147.00,85.01 7147.00,85.01              7147.00,85.01 7172.00,87.00 7172.00,87.00              7172.00,87.00 7208.00,87.00 7208.00,87.00              7208.00,87.00 7220.00,86.05 7220.00,86.05              7220.00,86.05 7234.00,86.05 7234.00,86.05              7234.00,86.05 7249.00,87.00 7249.00,87.00              7249.00,87.00 7289.00,87.00 7289.00,87.00              7289.00,87.00 7306.00,88.00 7306.00,88.00              7306.00,88.00 7330.00,88.00 7330.00,88.00              7330.00,88.00 7344.00,88.91 7344.00,88.91              7344.00,88.91 7373.00,86.05 7373.00,86.05              7373.00,86.05 7386.00,86.05 7386.00,86.05              7386.00,86.05 7398.00,87.00 7398.00,87.00              7398.00,87.00 7431.00,87.00 7431.00,87.00              7431.00,87.00 7446.00,86.00 7446.00,86.00              7446.00,86.00 7490.00,86.00 7490.00,86.00              7490.00,86.00 7509.00,88.00 7509.00,88.00              7509.00,88.00 7519.00,88.00 7519.00,88.00              7519.00,88.00 7527.00,88.97 7527.00,88.97              7527.00,88.97 7550.00,86.02 7550.00,86.02              7550.00,86.02 7575.00,88.00 7575.00,88.00              7575.00,88.00 7595.00,88.00 7595.00,88.00              7595.00,88.00 7605.00,87.34 7605.00,87.34              7605.00,87.34 7618.00,88.91 7618.00,88.91              7618.00,88.91 7629.00,88.91 7629.00,88.91              7629.00,88.91 7654.00,87.21 7654.00,87.21              7654.00,87.21 7671.00,88.00 7671.00,88.00              7671.00,88.00 7688.00,89.00 7688.00,89.00              7688.00,89.00 7703.00,90.00 7703.00,90.00              7714.06,90.05 7713.62,90.93 7723.00,91.92              7723.00,91.92 7732.00,91.92 7732.00,91.92              7732.00,91.92 7743.00,92.96 7743.00,92.96              7743.00,92.96 7774.00,91.00 7774.00,91.00              7774.00,91.00 7795.00,89.00 7795.00,89.00              7795.00,89.00 7816.00,89.00 7816.00,89.00              7816.00,89.00 7845.00,91.00 7845.00,91.00              7845.00,91.00 7863.00,92.92 7863.00,92.92              7863.00,92.92 7879.00,92.92 7879.00,92.92              7887.54,93.11 7888.69,95.22 7896.00,96.54              7896.00,96.54 7913.00,98.51 7913.00,98.51              7929.84,102.04 7928.04,104.77 7948.00,105.00              7948.00,105.00 7968.00,108.00 7968.00,108.00              7968.00,108.00 7978.00,108.00 7978.00,108.00              7983.94,108.76 7999.15,112.94 8004.00,115.99              8012.01,121.03 8013.48,130.03 8017.04,138.00              8017.04,138.00 8027.34,155.00 8027.34,155.00              8030.94,160.49 8035.03,166.48 8040.00,170.79              8043.12,173.49 8048.25,175.97 8050.40,179.09              8053.78,184.00 8049.87,187.91 8054.68,199.00              8058.49,207.80 8062.96,209.94 8066.54,219.00              8068.81,224.76 8073.93,241.28 8074.00,247.00              8074.00,247.00 8074.00,273.00 8074.00,273.00              8074.00,273.00 8075.00,293.00 8075.00,293.00              8075.00,293.00 8074.04,307.00 8074.04,307.00              8074.04,307.00 8074.98,316.00 8074.98,316.00              8074.98,316.00 8074.98,332.00 8074.98,332.00              8074.98,332.00 8076.00,345.00 8076.00,345.00              8076.00,345.00 8076.00,363.00 8076.00,363.00              8076.00,363.00 8074.18,384.00 8074.18,384.00              8074.18,384.00 8075.00,400.00 8075.00,400.00              8075.00,400.00 8076.00,415.00 8076.00,415.00              8076.00,415.00 8076.00,482.00 8076.00,482.00              8076.00,482.00 8076.00,586.00 8076.00,586.00              8076.00,586.00 8075.01,601.00 8075.01,601.00              8075.01,601.00 8076.00,615.00 8076.00,615.00              8076.00,615.00 8076.68,644.00 8076.68,644.00              8076.68,644.00 8076.00,690.00 8076.00,690.00              8076.00,690.00 8075.04,704.00 8075.04,704.00              8075.04,704.00 8076.00,717.00 8076.00,717.00              8076.00,717.00 8076.00,790.00 8076.00,790.00              8076.00,790.00 8077.00,805.00 8077.00,805.00              8077.00,805.00 8077.00,824.00 8077.00,824.00              8077.00,824.00 8078.00,838.00 8078.00,838.00              8078.00,838.00 8078.00,842.00 8078.00,842.00              8078.00,842.00 8077.00,857.00 8077.00,857.00              8077.00,857.00 8077.00,904.00 8077.00,904.00              8077.00,904.00 8076.00,919.00 8076.00,919.00              8076.00,919.00 8077.99,951.00 8077.99,951.00              8077.99,951.00 8077.00,965.00 8077.00,965.00              8077.00,965.00 8077.00,1002.00 8077.00,1002.00              8077.00,1002.00 8078.00,1019.00 8078.00,1019.00              8078.00,1019.00 8078.00,1114.00 8078.00,1114.00              8078.00,1114.00 8079.00,1130.00 8079.00,1130.00              8079.00,1130.00 8078.00,1146.00 8078.00,1146.00              8078.00,1146.00 8078.00,1158.00 8078.00,1158.00              8078.00,1158.00 8079.00,1172.00 8079.00,1172.00              8079.00,1172.00 8079.00,1176.00 8079.00,1176.00              8079.00,1176.00 8078.00,1191.00 8078.00,1191.00              8078.00,1191.00 8079.00,1206.00 8079.00,1206.00              8079.00,1206.00 8079.00,1239.00 8079.00,1239.00              8079.00,1239.00 8079.89,1250.00 8079.89,1250.00              8079.89,1250.00 8079.89,1271.00 8079.89,1271.00              8079.89,1271.00 8079.89,1381.00 8079.89,1381.00              8079.89,1381.00 8080.97,1393.00 8080.97,1393.00              8080.97,1393.00 8080.04,1407.00 8080.04,1407.00              8080.04,1407.00 8080.96,1419.00 8080.96,1419.00              8080.96,1419.00 8080.00,1430.00 8080.00,1430.00              8080.00,1430.00 8080.99,1447.00 8080.99,1447.00              8080.99,1447.00 8080.00,1462.00 8080.00,1462.00              8080.00,1462.00 8080.00,1477.00 8080.00,1477.00              8080.00,1477.00 8081.00,1499.00 8081.00,1499.00              8081.00,1499.00 8080.04,1513.00 8080.04,1513.00              8080.04,1513.00 8081.00,1526.00 8081.00,1526.00              8081.00,1526.00 8081.00,1648.00 8081.00,1648.00              8081.00,1648.00 8081.00,1723.00 8081.00,1723.00              8081.00,1723.00 8082.00,1738.00 8082.00,1738.00              8082.00,1738.00 8082.00,1760.00 8082.00,1760.00              8082.00,1760.00 8081.05,1770.00 8081.05,1770.00              8081.05,1770.00 8081.05,1787.00 8081.05,1787.00              8081.05,1787.00 8082.00,1802.00 8082.00,1802.00              8082.00,1802.00 8082.00,1885.00 8082.00,1885.00              8082.00,1885.00 8083.00,1905.00 8083.00,1905.00              8083.00,1905.00 8082.03,1917.00 8082.03,1917.00              8082.03,1917.00 8083.00,1929.00 8083.00,1929.00              8083.00,1929.00 8083.00,1952.00 8083.00,1952.00              8083.00,1952.00 8082.09,1965.00 8082.09,1965.00              8082.09,1965.00 8083.00,1977.00 8083.00,1977.00              8083.00,1977.00 8083.00,2023.00 8083.00,2023.00              8083.00,2023.00 8084.00,2038.00 8084.00,2038.00              8084.00,2038.00 8084.00,2060.00 8084.00,2060.00              8084.00,2060.00 8083.00,2077.00 8083.00,2077.00              8083.00,2077.00 8084.00,2094.00 8084.00,2094.00              8084.00,2094.00 8084.97,2108.00 8084.97,2108.00              8084.97,2108.00 8084.00,2122.00 8084.00,2122.00              8084.00,2122.00 8084.00,2131.00 8084.00,2131.00              8084.00,2131.00 8085.00,2146.00 8085.00,2146.00              8085.00,2146.00 8085.00,2243.00 8085.00,2243.00              8085.00,2243.00 8086.00,2258.00 8086.00,2258.00              8086.00,2258.00 8086.00,2306.00 8086.00,2306.00              8086.00,2306.00 8085.04,2321.00 8085.04,2321.00              8085.04,2321.00 8087.00,2340.00 8087.00,2340.00              8087.00,2340.00 8087.00,2344.00 8087.00,2344.00              8087.00,2344.00 8086.01,2357.00 8086.01,2357.00              8086.01,2357.00 8087.00,2372.00 8087.00,2372.00              8087.00,2372.00 8087.00,2394.00 8087.00,2394.00              8087.00,2394.00 8087.99,2411.00 8087.99,2411.00              8087.99,2411.00 8087.01,2423.00 8087.01,2423.00              8087.01,2423.00 8088.00,2437.00 8088.00,2437.00              8088.00,2437.00 8088.00,2463.00 8088.00,2463.00              8088.00,2463.00 8089.00,2479.00 8089.00,2479.00              8089.00,2479.00 8089.00,2504.00 8089.00,2504.00              8089.00,2504.00 8090.00,2521.00 8090.00,2521.00              8090.00,2521.00 8090.00,2573.00 8090.00,2573.00              8090.00,2573.00 8091.00,2590.00 8091.00,2590.00              8091.00,2590.00 8091.00,2636.00 8091.00,2636.00              8091.00,2636.00 8092.00,2655.00 8092.00,2655.00              8092.00,2655.00 8091.00,2668.00 8091.00,2668.00              8091.00,2668.00 8092.00,2684.00 8092.00,2684.00              8092.00,2684.00 8091.01,2701.00 8091.01,2701.00              8091.01,2701.00 8092.00,2716.00 8092.00,2716.00              8092.00,2716.00 8092.00,2730.00 8092.00,2730.00              8092.00,2730.00 8092.91,2743.00 8092.91,2743.00              8092.91,2743.00 8092.04,2751.00 8092.04,2751.00              8092.04,2751.00 8093.00,2764.00 8093.00,2764.00              8093.00,2764.00 8093.00,2789.00 8093.00,2789.00              8093.00,2789.00 8092.00,2804.00 8092.00,2804.00              8092.00,2804.00 8092.00,2845.00 8092.00,2845.00              8092.00,2845.00 8093.00,2860.00 8093.00,2860.00              8093.00,2860.00 8093.00,2936.00 8093.00,2936.00              8093.01,2944.96 8094.12,2944.90 8094.91,2952.00              8094.91,2952.00 8094.91,2965.00 8094.91,2965.00              8094.91,2965.00 8094.00,2980.00 8094.00,2980.00              8094.00,2980.00 8094.00,2995.00 8094.00,2995.00              8094.00,2995.00 8093.00,3012.00 8093.00,3012.00              8093.00,3012.00 8093.00,3084.00 8093.00,3084.00              8093.00,3084.00 8093.96,3097.00 8093.96,3097.00              8093.96,3097.00 8093.09,3112.00 8093.09,3112.00              8093.09,3112.00 8094.00,3124.00 8094.00,3124.00              8094.00,3124.00 8094.00,3175.00 8094.00,3175.00              8094.00,3175.00 8093.00,3194.00 8093.00,3194.00              8093.00,3194.00 8093.95,3204.00 8093.95,3204.00              8093.95,3204.00 8093.95,3218.00 8093.95,3218.00              8093.95,3218.00 8092.18,3239.00 8092.18,3239.00              8092.18,3239.00 8093.96,3256.00 8093.96,3256.00              8093.96,3256.00 8093.96,3269.00 8093.96,3269.00              8093.96,3269.00 8094.97,3281.00 8094.97,3281.00              8094.97,3281.00 8094.04,3293.00 8094.04,3293.00              8094.04,3293.00 8095.00,3307.00 8095.00,3307.00              8095.00,3307.00 8094.00,3321.00 8094.00,3321.00              8094.00,3321.00 8094.00,3351.00 8094.00,3351.00              8094.00,3351.00 8095.00,3366.00 8095.00,3366.00              8095.00,3366.00 8095.00,3465.00 8095.00,3465.00              8095.00,3465.00 8096.00,3483.00 8096.00,3483.00              8096.00,3483.00 8095.04,3497.00 8095.04,3497.00              8095.04,3497.00 8096.00,3511.00 8096.00,3511.00              8096.00,3511.00 8094.96,3521.00 8094.96,3521.00              8094.96,3521.00 8094.96,3531.00 8094.96,3531.00              8094.96,3531.00 8094.03,3539.00 8094.03,3539.00              8094.03,3539.00 8095.00,3553.00 8095.00,3553.00              8095.00,3553.00 8095.00,3559.00 8095.00,3559.00              8095.00,3559.00 8094.00,3575.00 8094.00,3575.00              8094.00,3575.00 8096.68,3600.00 8096.68,3600.00              8096.68,3600.00 8094.32,3625.00 8094.32,3625.00              8094.32,3625.00 8095.96,3640.00 8095.96,3640.00              8095.96,3640.00 8095.96,3650.00 8095.96,3650.00              8095.96,3650.00 8095.02,3661.00 8095.02,3661.00              8095.02,3661.00 8096.00,3675.00 8096.00,3675.00              8096.00,3675.00 8096.00,3735.00 8096.00,3735.00              8096.00,3735.00 8095.01,3750.00 8095.01,3750.00              8095.01,3750.00 8096.00,3763.00 8096.00,3763.00              8096.00,3763.00 8096.00,3796.00 8096.00,3796.00              8096.00,3796.00 8095.01,3811.00 8095.01,3811.00              8095.01,3811.00 8097.00,3841.00 8097.00,3841.00              8097.00,3841.00 8095.00,3860.00 8095.00,3860.00              8095.00,3860.00 8096.08,3876.00 8096.08,3876.00              8096.08,3876.00 8096.08,3886.00 8096.08,3886.00              8096.95,3894.03 8098.53,3896.93 8097.91,3906.00              8097.20,3916.46 8094.91,3926.49 8095.68,3937.00              8095.68,3937.00 8093.03,3957.00 8093.03,3957.00              8093.03,3966.44 8096.94,3968.60 8096.96,3980.00              8096.96,3980.00 8096.96,3996.00 8096.96,3996.00              8096.96,3996.00 8096.04,4007.00 8096.04,4007.00              8096.04,4007.00 8097.00,4020.00 8097.00,4020.00              8097.00,4020.00 8097.00,4065.00 8097.00,4065.00              8097.00,4065.00 8096.18,4077.00 8096.18,4077.00              8096.18,4077.00 8097.00,4088.00 8097.00,4088.00              8097.00,4088.00 8098.00,4109.00 8098.00,4109.00              8098.00,4109.00 8098.00,4127.00 8098.00,4127.00              8098.00,4127.00 8097.04,4143.00 8097.04,4143.00              8097.04,4143.00 8097.04,4158.00 8097.04,4158.00              8097.04,4158.00 8098.00,4168.00 8098.00,4168.00              8098.20,4185.58 8096.68,4197.76 8094.84,4215.00              8094.84,4215.00 8092.19,4241.00 8092.19,4241.00              8092.19,4241.00 8094.33,4251.00 8094.33,4251.00              8094.33,4251.00 8095.46,4260.00 8095.46,4260.00              8096.79,4267.46 8099.27,4273.05 8098.96,4281.00              8098.96,4281.00 8097.05,4296.00 8097.05,4296.00              8097.05,4296.00 8097.05,4318.00 8097.05,4318.00              8097.05,4318.00 8097.97,4330.00 8097.97,4330.00              8097.97,4330.00 8097.00,4343.00 8097.00,4343.00              8097.00,4343.00 8097.82,4358.00 8097.82,4358.00              8097.82,4358.00 8096.18,4375.00 8096.18,4375.00              8096.18,4375.00 8099.00,4410.00 8099.00,4410.00              8099.00,4410.00 8099.00,4470.00 8099.00,4470.00              8099.00,4470.00 8100.00,4484.00 8100.00,4484.00              8100.00,4484.00 8100.00,4488.00 8100.00,4488.00              8100.00,4488.00 8096.08,4515.00 8096.08,4515.00              8096.08,4521.88 8098.98,4523.69 8099.00,4535.00              8099.00,4535.00 8100.00,4581.00 8100.00,4581.00              8100.00,4581.00 8099.00,4594.00 8099.00,4594.00              8099.00,4594.00 8099.99,4608.00 8099.99,4608.00              8099.99,4608.00 8099.00,4624.00 8099.00,4624.00              8099.00,4624.00 8097.09,4653.00 8097.09,4653.00              8097.09,4653.00 8098.68,4671.00 8098.68,4671.00              8098.68,4671.00 8097.04,4681.00 8097.04,4681.00              8097.04,4681.00 8097.04,4689.00 8097.04,4689.00              8097.04,4689.00 8096.00,4702.00 8096.00,4702.00              8096.00,4702.00 8093.18,4730.00 8093.18,4730.00              8093.60,4735.88 8093.91,4742.27 8095.23,4748.00              8097.62,4758.28 8099.98,4760.67 8100.00,4772.00              8100.00,4772.00 8100.00,4832.00 8100.00,4832.00              8099.98,4841.62 8098.09,4843.80 8098.08,4849.00              8098.08,4849.00 8099.00,4862.00 8099.00,4862.00              8099.00,4862.00 8099.00,4874.00 8099.00,4874.00              8099.00,4874.00 8101.00,4901.00 8101.00,4901.00              8101.00,4901.00 8101.00,4921.00 8101.00,4921.00              8100.77,4940.66 8088.01,4943.53 8089.10,4959.00              8089.81,4969.24 8097.14,4972.58 8099.32,4982.00              8101.64,4992.06 8097.73,5004.65 8098.18,5011.00              8098.18,5011.00 8099.96,5030.00 8099.96,5030.00              8099.96,5030.00 8099.09,5041.00 8099.09,5041.00              8099.09,5041.00 8101.00,5062.00 8101.00,5062.00              8101.00,5062.00 8101.00,5093.00 8101.00,5093.00              8101.00,5093.00 8100.00,5108.00 8100.00,5108.00              8100.00,5108.00 8101.00,5127.00 8101.00,5127.00              8101.00,5127.00 8101.00,5154.00 8101.00,5154.00              8101.00,5154.00 8101.95,5166.00 8101.95,5166.00              8101.95,5166.00 8101.95,5185.00 8101.95,5185.00              8101.95,5185.00 8099.00,5217.00 8099.00,5217.00              8099.00,5217.00 8097.09,5235.00 8097.09,5235.00              8097.09,5235.00 8097.82,5242.00 8097.82,5242.00              8097.82,5242.00 8097.21,5250.00 8097.21,5250.00              8097.21,5250.00 8098.86,5260.00 8098.86,5260.00              8098.86,5260.00 8098.86,5270.00 8098.86,5270.00              8098.86,5270.00 8099.97,5282.00 8099.97,5282.00              8099.97,5282.00 8099.17,5294.00 8099.17,5294.00              8099.17,5294.00 8101.68,5314.00 8101.68,5314.00              8101.68,5314.00 8100.00,5336.00 8100.00,5336.00              8099.87,5347.39 8101.65,5347.53 8101.96,5355.00              8101.96,5355.00 8101.17,5370.00 8101.17,5370.00              8101.17,5370.00 8102.96,5387.00 8102.96,5387.00              8102.96,5387.00 8102.00,5404.00 8102.00,5404.00              8102.00,5404.00 8101.01,5416.00 8101.01,5416.00              8101.01,5416.00 8101.99,5434.00 8101.99,5434.00              8101.99,5434.00 8101.00,5454.00 8101.00,5454.00              8101.00,5454.00 8102.79,5473.00 8102.79,5473.00              8102.79,5473.00 8101.04,5487.00 8101.04,5487.00              8101.04,5487.00 8102.00,5504.00 8102.00,5504.00              8102.00,5504.00 8099.04,5530.00 8099.04,5530.00              8099.04,5530.00 8101.17,5555.00 8101.17,5555.00              8101.17,5555.00 8101.92,5562.00 8101.92,5562.00              8101.92,5562.00 8101.18,5569.00 8101.18,5569.00              8101.18,5569.00 8101.96,5582.00 8101.96,5582.00              8101.73,5586.51 8100.36,5588.72 8099.45,5593.00              8099.45,5593.00 8097.13,5606.00 8097.13,5606.00              8094.84,5612.30 8088.93,5615.21 8086.68,5625.00              8086.68,5625.00 8084.19,5649.00 8084.19,5649.00              8084.50,5652.83 8086.44,5657.23 8085.69,5661.00              8084.43,5667.27 8077.66,5669.89 8074.79,5680.00              8072.91,5687.46 8075.16,5689.96 8074.79,5695.00              8074.79,5695.00 8072.42,5707.00 8072.42,5707.00              8071.62,5712.25 8072.66,5714.75 8072.42,5718.00              8072.42,5718.00 8071.04,5739.00 8071.04,5739.00              8070.83,5744.40 8072.60,5750.47 8071.73,5755.00              8071.01,5758.74 8068.15,5762.46 8066.49,5766.00              8066.49,5766.00 8061.63,5778.00 8061.63,5778.00              8061.63,5778.00 8054.40,5790.00 8054.40,5790.00              8050.89,5797.38 8053.63,5799.70 8048.53,5808.00              8041.28,5819.81 8024.69,5833.17 8026.33,5852.00              8026.76,5856.98 8028.47,5861.76 8031.07,5866.00              8032.41,5868.20 8035.96,5872.56 8035.84,5875.00              8035.73,5877.51 8030.13,5883.43 8028.35,5886.00              8020.52,5897.30 8010.15,5912.67 7996.00,5916.00 Z            M 4089.00,1635.33            C 4086.76,1635.89 4085.10,1636.22 4083.21,1637.70              4078.89,1641.09 4076.59,1650.69 4077.19,1656.00              4077.94,1662.63 4081.63,1668.23 4089.00,1667.24              4091.57,1666.89 4094.75,1665.71 4096.82,1664.15              4100.47,1661.39 4106.54,1651.69 4106.28,1647.00              4105.84,1638.87 4095.96,1634.71 4089.00,1635.33 Z            M 4085.02,1917.60            C 4078.02,1921.52 4079.84,1925.38 4078.25,1932.00              4077.30,1935.95 4075.97,1938.77 4076.33,1943.00              4076.33,1943.00 4077.82,1953.00 4077.82,1953.00              4077.82,1953.00 4077.05,1960.00 4077.05,1960.00              4077.05,1960.00 4077.05,1973.00 4077.05,1973.00              4077.11,1982.09 4079.01,1981.61 4080.44,1988.00              4081.09,1991.51 4079.99,1993.57 4080.44,1995.96              4081.70,2001.35 4087.76,2001.55 4091.98,1999.85              4097.49,1997.64 4102.87,1985.67 4103.86,1980.00              4103.86,1980.00 4106.51,1968.00 4106.51,1968.00              4106.51,1968.00 4105.04,1945.00 4105.04,1945.00              4105.04,1945.00 4105.04,1930.00 4105.04,1930.00              4104.97,1927.75 4105.01,1925.22 4103.83,1923.21              4100.63,1917.79 4090.59,1916.42 4085.02,1917.60 Z            M 4086.02,2081.43            C 4083.98,2082.28 4083.21,2082.34 4081.72,2084.23              4079.48,2087.07 4075.93,2100.27 4076.22,2104.00              4076.22,2104.00 4078.61,2114.00 4078.61,2114.00              4078.70,2117.60 4076.74,2119.32 4077.04,2127.00              4077.26,2132.64 4078.95,2149.26 4087.96,2146.22              4090.89,2145.23 4092.68,2142.29 4094.51,2140.00              4099.05,2134.29 4103.25,2130.93 4100.77,2123.00              4098.77,2116.58 4095.15,2115.77 4095.33,2111.83              4095.46,2108.91 4105.84,2078.90 4086.02,2081.43 Z            M 4068.00,5688.37            C 4061.09,5689.96 4052.96,5695.55 4051.57,5703.00              4050.51,5708.71 4057.20,5718.91 4062.09,5721.55              4064.45,5722.82 4067.37,5723.13 4070.00,5722.81              4078.18,5721.83 4090.12,5710.81 4088.65,5702.00              4087.06,5692.45 4076.72,5688.02 4068.00,5688.37 Z"
            style="fill:#000000;fill-opacity:1"/>
</svg>
