<?xml version="1.0" encoding="UTF-8" standalone="no"?>
<svg
        width="172.509mm"
        height="120.947mm"
        viewBox="0 0 8150 5714"
        version="1.1"
        id="svg832"
        sodipodi:docname="sheet6a.svg"
        inkscape:version="1.1.1 (3bf5ae0d25, 2021-09-20)"
        xmlns:inkscape="http://www.inkscape.org/namespaces/inkscape"
        xmlns:sodipodi="http://sodipodi.sourceforge.net/DTD/sodipodi-0.dtd"
        xmlns="http://www.w3.org/2000/svg"
>
    <defs
            id="defs836"/>
    <sodipodi:namedview
            id="namedview834"
            pagecolor="#ffffff"
            bordercolor="#666666"
            borderopacity="1.0"
            inkscape:pageshadow="2"
            inkscape:pageopacity="0.0"
            inkscape:pagecheckerboard="0"
            inkscape:document-units="mm"
            showgrid="false"
            inkscape:zoom="1.7347647"
            inkscape:cx="325.98081"
            inkscape:cy="228.56126"
            inkscape:window-width="1920"
            inkscape:window-height="1001"
            inkscape:window-x="-7"
            inkscape:window-y="-7"
            inkscape:window-maximized="1"
            inkscape:current-layer="svg832"/>
    <path
            id="Selection"
            fill="none"
            stroke="black"
            stroke-width="1"
            d="M 8086.00,4327.00            C 8085.63,4333.82 8083.78,4335.35 8083.17,4341.00              8082.65,4345.87 8083.51,4347.68 8083.82,4352.00              8084.47,4361.17 8078.59,4367.79 8079.04,4379.00              8079.36,4386.95 8082.48,4389.90 8082.61,4394.00              8082.61,4394.00 8080.09,4407.00 8080.09,4407.00              8080.09,4407.00 8080.09,4427.00 8080.09,4427.00              8080.09,4427.00 8080.86,4435.00 8080.86,4435.00              8080.63,4439.54 8078.34,4442.08 8078.04,4449.00              8078.04,4449.00 8078.99,4466.00 8078.99,4466.00              8078.99,4466.00 8078.03,4477.00 8078.03,4477.00              8078.03,4477.00 8078.79,4487.00 8078.79,4487.00              8078.79,4487.00 8077.03,4503.00 8077.03,4503.00              8077.03,4503.00 8078.91,4516.00 8078.91,4516.00              8079.45,4523.36 8078.29,4526.66 8078.04,4533.00              8077.76,4540.23 8079.35,4542.11 8079.53,4546.00              8079.53,4546.00 8079.00,4558.00 8079.00,4558.00              8079.05,4561.92 8080.33,4567.77 8079.58,4571.00              8079.58,4571.00 8074.70,4582.00 8074.70,4582.00              8074.70,4582.00 8067.46,4606.00 8067.46,4606.00              8065.16,4612.66 8060.89,4621.25 8060.17,4628.00              8059.42,4635.07 8061.21,4637.18 8061.83,4643.00              8061.83,4643.00 8062.46,4655.00 8062.46,4655.00              8063.22,4659.29 8065.09,4663.60 8064.66,4668.00              8064.66,4668.00 8063.09,4677.00 8063.09,4677.00              8062.56,4685.63 8066.49,4689.69 8066.65,4695.00              8067.02,4707.86 8061.75,4714.34 8062.01,4726.00              8062.01,4726.00 8064.47,4746.00 8064.47,4746.00              8065.10,4749.39 8066.73,4752.66 8066.81,4756.00              8066.95,4761.92 8063.68,4769.31 8064.09,4776.00              8064.49,4782.52 8067.73,4788.67 8068.09,4792.00              8068.49,4795.57 8066.09,4800.81 8067.30,4809.00              8068.82,4819.27 8076.60,4827.07 8077.70,4832.00              8077.70,4832.00 8078.30,4842.00 8078.30,4842.00              8078.30,4842.00 8080.27,4852.00 8080.27,4852.00              8080.27,4852.00 8080.27,4861.00 8080.27,4861.00              8080.35,4868.64 8084.58,4877.89 8084.59,4881.00              8084.60,4885.20 8081.78,4886.89 8082.01,4898.00              8082.24,4908.88 8082.46,4920.21 8080.68,4931.00              8078.85,4942.09 8075.02,4941.67 8075.22,4956.00              8075.22,4956.00 8075.22,4970.00 8075.22,4970.00              8075.22,4970.00 8075.22,4978.00 8075.22,4978.00              8075.22,4978.00 8075.22,4984.00 8075.22,4984.00              8075.22,4984.00 8074.17,4991.00 8074.17,4991.00              8074.17,4991.00 8073.61,4998.00 8073.61,4998.00              8071.30,5008.87 8062.89,5012.98 8059.56,5022.00              8055.55,5032.83 8060.56,5040.09 8061.07,5044.00              8061.54,5047.65 8059.75,5049.95 8060.09,5056.00              8060.09,5056.00 8062.61,5073.00 8062.61,5073.00              8062.61,5073.00 8062.09,5083.00 8062.09,5083.00              8062.09,5083.00 8063.42,5092.00 8063.42,5092.00              8063.42,5092.00 8062.09,5113.00 8062.09,5113.00              8062.09,5113.00 8062.96,5124.00 8062.96,5124.00              8062.96,5124.00 8062.00,5140.00 8062.00,5140.00              8062.00,5140.00 8063.23,5155.00 8063.23,5155.00              8063.01,5159.10 8062.77,5166.26 8063.23,5170.00              8063.23,5170.00 8066.81,5183.00 8066.81,5183.00              8066.81,5183.00 8066.09,5196.00 8066.09,5196.00              8066.38,5200.22 8068.04,5203.92 8067.79,5208.00              8067.54,5212.06 8065.74,5214.96 8066.09,5221.00              8066.09,5221.00 8067.92,5234.00 8067.92,5234.00              8067.92,5234.00 8067.09,5242.00 8067.09,5242.00              8066.61,5250.49 8070.70,5255.16 8070.31,5261.00              8070.31,5261.00 8063.68,5284.00 8063.68,5284.00              8063.68,5284.00 8062.79,5292.00 8062.79,5292.00              8062.06,5297.08 8059.68,5299.80 8060.09,5307.00              8060.09,5307.00 8060.96,5318.00 8060.96,5318.00              8060.96,5318.00 8059.17,5329.00 8059.17,5329.00              8058.81,5332.41 8059.39,5335.73 8058.16,5339.00              8058.16,5339.00 8052.55,5350.00 8052.55,5350.00              8049.39,5358.75 8051.17,5358.35 8045.51,5370.00              8045.51,5370.00 8036.93,5385.00 8036.93,5385.00              8036.93,5385.00 8030.54,5416.00 8030.54,5416.00              8029.17,5423.40 8025.60,5427.97 8026.09,5436.00              8026.65,5445.05 8031.07,5447.12 8030.65,5453.00              8030.13,5460.31 8023.37,5469.32 8024.09,5481.00              8024.42,5486.36 8027.18,5490.29 8025.58,5493.99              8023.95,5497.78 8018.69,5500.61 8014.53,5506.00              8008.65,5513.60 8010.05,5518.21 8008.02,5521.58              8006.28,5524.47 8001.54,5527.46 7998.40,5534.00              7995.55,5539.93 7996.84,5543.35 7994.18,5549.00              7994.18,5549.00 7987.08,5562.91 7987.08,5562.91              7985.39,5565.55 7982.39,5567.64 7980.18,5570.04              7980.18,5570.04 7973.82,5577.99 7973.82,5577.99              7973.82,5577.99 7966.04,5585.17 7966.04,5585.17              7960.99,5589.97 7960.49,5593.06 7956.79,5595.65              7947.21,5602.35 7945.40,5599.74 7936.00,5601.67              7925.33,5603.86 7924.68,5606.45 7920.00,5607.59              7920.00,5607.59 7902.00,5609.46 7902.00,5609.46              7895.25,5610.82 7892.54,5613.63 7888.00,5614.61              7888.00,5614.61 7872.00,5616.40 7872.00,5616.40              7872.00,5616.40 7848.00,5622.91 7848.00,5622.91              7848.00,5622.91 7828.00,5625.22 7828.00,5625.22              7828.00,5625.22 7814.00,5625.22 7814.00,5625.22              7798.18,5625.19 7793.60,5634.25 7786.00,5637.42              7782.85,5638.73 7776.93,5637.75 7773.00,5638.17              7773.00,5638.17 7749.00,5642.06 7749.00,5642.06              7745.72,5642.09 7743.04,5640.18 7740.00,5639.22              7736.07,5637.98 7731.09,5637.73 7727.00,5638.17              7716.14,5639.35 7715.05,5645.35 7707.00,5644.70              7692.43,5643.52 7691.98,5637.41 7680.00,5638.09              7677.19,5638.25 7668.58,5639.42 7666.00,5640.22              7663.10,5641.12 7659.81,5643.11 7657.00,5643.31              7657.00,5643.31 7648.00,5642.04 7648.00,5642.04              7648.00,5642.04 7636.00,5642.04 7636.00,5642.04              7621.71,5642.02 7622.93,5645.11 7615.00,5647.37              7615.00,5647.37 7606.00,5648.46 7606.00,5648.46              7606.00,5648.46 7598.00,5650.11 7598.00,5650.11              7598.00,5650.11 7588.00,5648.04 7588.00,5648.04              7588.00,5648.04 7580.00,5648.04 7580.00,5648.04              7580.00,5648.04 7564.00,5647.00 7564.00,5647.00              7553.96,5646.98 7556.89,5645.98 7549.00,5644.47              7549.00,5644.47 7542.00,5643.40 7542.00,5643.40              7542.00,5643.40 7534.00,5641.15 7534.00,5641.15              7534.00,5641.15 7525.00,5641.15 7525.00,5641.15              7517.55,5640.91 7517.54,5639.76 7512.00,5639.09              7512.00,5639.09 7500.00,5639.09 7500.00,5639.09              7489.30,5639.05 7483.77,5642.92 7474.00,5645.39              7474.00,5645.39 7464.00,5646.90 7464.00,5646.90              7460.52,5647.73 7457.68,5648.95 7454.00,5648.92              7454.00,5648.92 7433.00,5642.69 7433.00,5642.69              7425.17,5640.90 7418.37,5642.78 7415.00,5642.69              7410.90,5642.06 7407.30,5639.28 7399.00,5640.17              7399.00,5640.17 7377.00,5647.40 7377.00,5647.40              7377.00,5647.40 7349.00,5650.88 7349.00,5650.88              7349.00,5650.88 7333.00,5656.46 7333.00,5656.46              7330.56,5656.46 7321.33,5651.69 7318.00,5650.54              7312.10,5648.51 7309.78,5649.44 7306.00,5648.37              7297.40,5645.92 7300.19,5644.02 7287.00,5644.00              7287.00,5644.00 7261.00,5644.00 7261.00,5644.00              7246.80,5644.02 7247.23,5647.38 7238.00,5648.70              7233.34,5649.36 7227.98,5648.02 7223.00,5648.00              7223.00,5648.00 7204.00,5648.83 7204.00,5648.83              7204.00,5648.83 7193.00,5647.63 7193.00,5647.63              7186.60,5646.39 7187.24,5645.10 7179.00,5645.00              7179.00,5645.00 7145.00,5647.28 7145.00,5647.28              7145.00,5647.28 7130.00,5649.33 7130.00,5649.33              7124.90,5649.45 7121.03,5644.88 7109.00,5646.17              7105.07,5646.59 7096.44,5649.06 7093.00,5650.91              7087.35,5653.95 7086.05,5657.37 7079.00,5656.83              7066.37,5655.86 7063.45,5656.26 7051.00,5659.37              7051.00,5659.37 7042.00,5661.84 7042.00,5661.84              7042.00,5661.84 7022.00,5661.84 7022.00,5661.84              7012.04,5661.86 7011.84,5658.37 7004.00,5653.88              6998.14,5650.52 6991.76,5648.77 6985.00,5649.04              6977.67,5649.34 6974.93,5652.07 6971.00,5651.48              6965.13,5650.60 6954.13,5641.17 6948.00,5638.32              6938.82,5634.06 6930.77,5634.98 6921.00,5635.00              6921.00,5635.00 6901.00,5636.79 6901.00,5636.79              6894.78,5635.87 6887.73,5629.21 6875.00,5631.46              6868.09,5632.68 6860.99,5634.76 6855.00,5638.47              6851.24,5640.80 6847.93,5644.32 6844.00,5645.85              6839.75,5647.51 6835.41,5646.77 6831.00,5647.09              6825.31,5647.51 6824.60,5648.91 6817.00,5649.00              6813.98,5649.03 6809.70,5649.30 6807.00,5647.98              6803.72,5646.38 6801.00,5642.53 6795.00,5639.95              6795.00,5639.95 6779.00,5633.93 6779.00,5633.93              6779.00,5633.93 6771.00,5632.63 6771.00,5632.63              6760.38,5630.47 6763.98,5630.16 6752.00,5630.00              6743.95,5629.89 6743.44,5627.86 6737.00,5627.17              6731.08,5626.54 6729.91,5627.71 6725.00,5628.23              6721.27,5628.63 6716.83,5626.79 6713.00,5626.00              6705.54,5624.48 6700.55,5624.09 6693.00,5624.00              6693.00,5624.00 6665.00,5622.04 6665.00,5622.04              6665.00,5622.04 6650.00,5623.92 6650.00,5623.92              6650.00,5623.92 6639.00,5623.92 6639.00,5623.92              6639.00,5623.92 6626.00,5624.79 6626.00,5624.79              6620.24,5624.05 6619.90,5621.76 6609.00,5622.01              6609.00,5622.01 6594.00,5623.90 6594.00,5623.90              6587.64,5623.59 6588.84,5621.86 6576.00,5622.25              6576.00,5622.25 6568.00,5622.25 6568.00,5622.25              6568.00,5622.25 6558.00,5622.25 6558.00,5622.25              6555.04,5622.08 6550.46,5623.04 6548.00,5622.25              6542.38,5621.42 6541.37,5617.15 6529.00,5617.00              6522.76,5616.93 6516.79,5616.62 6511.00,5619.40              6505.37,5622.11 6502.71,5626.05 6499.00,5627.40              6499.00,5627.40 6479.00,5629.29 6479.00,5629.29              6475.76,5629.71 6468.73,5631.67 6466.00,5631.15              6461.65,5630.33 6458.90,5625.61 6450.00,5624.30              6438.34,5622.58 6428.59,5627.88 6423.00,5628.54              6418.48,5629.07 6415.46,5626.40 6406.00,5627.09              6400.17,5627.52 6394.60,5629.94 6390.01,5633.53              6386.14,5636.56 6383.57,5640.91 6378.00,5640.68              6373.59,5640.50 6370.35,5636.10 6367.00,5633.53              6362.14,5629.79 6357.88,5628.22 6352.00,5626.89              6352.00,5626.89 6335.00,5625.29 6335.00,5625.29              6329.18,5623.80 6327.20,5620.69 6319.00,5620.09              6308.69,5619.34 6305.30,5622.54 6302.00,5622.04              6299.40,5621.65 6295.64,5618.34 6293.00,5616.91              6293.00,5616.91 6275.00,5608.89 6275.00,5608.89              6266.71,5606.27 6260.73,5605.34 6252.00,5606.17              6252.00,5606.17 6245.00,5606.92 6245.00,5606.92              6245.00,5606.92 6228.00,5606.00 6228.00,5606.00              6224.27,5606.05 6209.65,5608.40 6206.00,5609.43              6201.57,5610.67 6196.64,5612.92 6192.00,5612.45              6186.15,5611.85 6186.84,5611.01 6179.00,5611.00              6179.00,5611.00 6128.00,5610.04 6128.00,5610.04              6128.00,5610.04 6114.00,5610.04 6114.00,5610.04              6114.00,5610.04 6103.00,5610.98 6103.00,5610.98              6103.00,5610.98 6090.00,5609.92 6090.00,5609.92              6090.00,5609.92 6080.00,5609.92 6080.00,5609.92              6080.00,5609.92 6064.00,5608.00 6064.00,5608.00              6064.00,5608.00 6045.00,5608.00 6045.00,5608.00              6033.09,5607.98 6032.75,5604.29 6021.00,5605.09              6021.00,5605.09 6005.00,5606.83 6005.00,5606.83              6005.00,5606.83 5994.00,5607.43 5994.00,5607.43              5994.00,5607.43 5971.00,5611.00 5971.00,5611.00              5956.32,5611.17 5954.21,5613.96 5942.00,5615.85              5942.00,5615.85 5924.00,5615.85 5924.00,5615.85              5918.76,5616.06 5913.62,5617.74 5909.00,5617.02              5897.86,5615.29 5890.77,5610.80 5881.00,5608.16              5874.35,5606.36 5864.93,5605.92 5858.00,5606.00              5858.00,5606.00 5846.00,5606.90 5846.00,5606.90              5846.00,5606.90 5819.00,5605.00 5819.00,5605.00              5808.84,5604.88 5803.67,5606.21 5794.00,5607.71              5781.30,5609.66 5765.81,5611.15 5753.00,5611.00              5753.00,5611.00 5733.00,5609.00 5733.00,5609.00              5733.00,5609.00 5710.00,5609.00 5710.00,5609.00              5710.00,5609.00 5699.00,5609.82 5699.00,5609.82              5699.00,5609.82 5692.00,5609.04 5692.00,5609.04              5692.00,5609.04 5678.00,5609.04 5678.00,5609.04              5678.00,5609.04 5664.00,5608.00 5664.00,5608.00              5654.42,5607.96 5647.58,5607.65 5638.00,5609.46              5627.76,5611.39 5623.95,5614.57 5613.00,5613.96              5603.95,5613.45 5599.28,5607.38 5591.00,5604.91              5582.52,5602.38 5579.71,5602.04 5571.00,5602.00              5571.00,5602.00 5540.00,5599.00 5540.00,5599.00              5540.00,5599.00 5526.00,5600.94 5526.00,5600.94              5526.00,5600.94 5507.00,5600.94 5507.00,5600.94              5507.00,5600.94 5487.00,5600.94 5487.00,5600.94              5487.00,5600.94 5459.00,5598.00 5459.00,5598.00              5459.00,5598.00 5427.00,5599.00 5427.00,5599.00              5416.04,5599.02 5393.82,5601.29 5383.00,5603.46              5375.67,5604.93 5372.08,5608.68 5368.00,5608.52              5365.55,5608.42 5361.47,5606.05 5359.00,5605.01              5353.63,5602.75 5348.68,5601.17 5343.00,5599.89              5343.00,5599.89 5314.00,5595.04 5314.00,5595.04              5314.00,5595.04 5295.00,5596.11 5295.00,5596.11              5295.00,5596.11 5275.00,5596.11 5275.00,5596.11              5263.01,5595.26 5259.80,5592.83 5245.00,5593.00              5245.00,5593.00 5228.00,5594.96 5228.00,5594.96              5228.00,5594.96 5194.00,5594.96 5194.00,5594.96              5194.00,5594.96 5168.00,5597.00 5168.00,5597.00              5168.00,5597.00 5151.00,5597.00 5151.00,5597.00              5151.00,5597.00 5119.00,5595.00 5119.00,5595.00              5119.00,5595.00 5096.00,5597.87 5096.00,5597.87              5084.36,5598.94 5075.58,5598.71 5064.00,5597.87              5056.68,5597.41 5049.08,5596.72 5042.00,5594.70              5033.80,5592.36 5033.10,5590.12 5023.00,5590.00              5023.00,5590.00 5002.00,5590.00 5002.00,5590.00              4993.04,5590.01 4992.04,5591.12 4984.00,5592.54              4984.00,5592.54 4974.00,5593.29 4974.00,5593.29              4962.41,5594.80 4966.95,5595.98 4952.00,5596.00              4952.00,5596.00 4940.00,5597.04 4940.00,5597.04              4940.00,5597.04 4930.00,5597.04 4930.00,5597.04              4930.00,5597.04 4916.00,5598.90 4916.00,5598.90              4909.28,5599.16 4908.45,5596.02 4896.00,5596.00              4888.23,5595.99 4880.68,5596.04 4873.00,5597.46              4873.00,5597.46 4863.00,5599.82 4863.00,5599.82              4863.00,5599.82 4850.00,5600.82 4850.00,5600.82              4850.00,5600.82 4838.00,5600.00 4838.00,5600.00              4838.00,5600.00 4818.00,5599.00 4818.00,5599.00              4818.00,5599.00 4802.00,5599.00 4802.00,5599.00              4802.00,5599.00 4792.00,5599.63 4792.00,5599.63              4792.00,5599.63 4773.00,5598.00 4773.00,5598.00              4773.00,5598.00 4745.00,5597.00 4745.00,5597.00              4745.00,5597.00 4724.00,5595.00 4724.00,5595.00              4724.00,5595.00 4695.00,5594.00 4695.00,5594.00              4695.00,5594.00 4675.00,5591.92 4675.00,5591.92              4675.00,5591.92 4664.00,5591.92 4664.00,5591.92              4664.00,5591.92 4646.00,5590.04 4646.00,5590.04              4646.00,5590.04 4633.00,5590.04 4633.00,5590.04              4629.20,5590.35 4627.16,5591.16 4623.00,5590.91              4616.77,5590.53 4610.65,5587.77 4600.00,5588.01              4587.56,5588.30 4585.01,5594.01 4579.00,5596.51              4574.28,5598.47 4568.07,5598.99 4563.00,5599.00              4563.00,5599.00 4555.00,5599.00 4555.00,5599.00              4542.08,5599.15 4538.12,5602.68 4532.00,5603.97              4528.42,5604.64 4523.79,5604.02 4520.00,5603.97              4520.00,5603.97 4487.00,5603.97 4487.00,5603.97              4487.00,5603.97 4472.00,5603.00 4472.00,5603.00              4472.00,5603.00 4456.00,5603.00 4456.00,5603.00              4448.55,5602.91 4448.54,5601.76 4443.00,5601.09              4443.00,5601.09 4430.00,5601.09 4430.00,5601.09              4416.47,5601.02 4416.48,5604.90 4403.00,5603.91              4403.00,5603.91 4375.00,5598.15 4375.00,5598.15              4375.00,5598.15 4357.00,5598.15 4357.00,5598.15              4357.00,5598.15 4331.00,5602.18 4331.00,5602.18              4325.67,5602.55 4324.74,5601.43 4320.00,5600.90              4320.00,5600.90 4298.00,5600.90 4298.00,5600.90              4290.50,5601.01 4284.75,5602.32 4277.00,5600.90              4272.64,5599.65 4267.85,5596.12 4259.00,5595.17              4249.62,5594.17 4246.83,5596.05 4239.00,5596.92              4239.00,5596.92 4228.00,5596.92 4228.00,5596.92              4228.00,5596.92 4216.00,5597.82 4216.00,5597.82              4212.09,5597.54 4210.42,5596.81 4206.00,5597.09              4206.00,5597.09 4191.00,5598.81 4191.00,5598.81              4191.00,5598.81 4182.00,5597.13 4182.00,5597.13              4173.47,5595.85 4174.30,5596.09 4166.00,5596.00              4166.00,5596.00 4142.00,5593.20 4142.00,5593.20              4142.00,5593.20 4128.00,5593.20 4128.00,5593.20              4124.68,5592.63 4121.05,5589.62 4118.00,5587.88              4111.69,5584.28 4109.26,5584.33 4103.00,5578.82              4090.59,5567.89 4087.02,5553.23 4067.00,5554.04              4044.37,5554.95 4043.59,5574.94 4029.00,5585.10              4018.04,5592.73 4010.03,5595.15 3997.00,5596.72              3997.00,5596.72 3984.00,5597.47 3984.00,5597.47              3975.91,5598.99 3970.63,5603.97 3954.00,5604.00              3954.00,5604.00 3925.00,5604.00 3925.00,5604.00              3913.39,5603.86 3909.14,5599.02 3895.00,5599.00              3895.00,5599.00 3886.00,5599.00 3886.00,5599.00              3886.00,5599.00 3875.00,5599.68 3875.00,5599.68              3875.00,5599.68 3867.00,5599.00 3867.00,5599.00              3867.00,5599.00 3861.00,5599.00 3861.00,5599.00              3861.00,5599.00 3826.00,5602.16 3826.00,5602.16              3826.00,5602.16 3818.00,5600.87 3818.00,5600.87              3818.00,5600.87 3806.00,5600.87 3806.00,5600.87              3806.00,5600.87 3783.00,5597.01 3783.00,5597.01              3770.64,5596.72 3771.15,5599.83 3756.00,5600.00              3756.00,5600.00 3743.00,5601.00 3743.00,5601.00              3743.00,5601.00 3716.00,5602.00 3716.00,5602.00              3705.84,5602.02 3703.28,5604.19 3698.00,5604.26              3698.00,5604.26 3683.00,5603.00 3683.00,5603.00              3683.00,5603.00 3659.00,5605.00 3659.00,5605.00              3659.00,5605.00 3637.00,5605.00 3637.00,5605.00              3637.00,5605.00 3626.00,5605.66 3626.00,5605.66              3626.00,5605.66 3617.00,5605.00 3617.00,5605.00              3617.00,5605.00 3593.00,5606.09 3593.00,5606.09              3593.00,5606.09 3584.00,5606.97 3584.00,5606.97              3584.00,5606.97 3576.00,5606.17 3576.00,5606.17              3576.00,5606.17 3555.00,5605.00 3555.00,5605.00              3555.00,5605.00 3526.00,5602.04 3526.00,5602.04              3526.00,5602.04 3518.00,5602.96 3518.00,5602.96              3518.00,5602.96 3503.00,5602.96 3503.00,5602.96              3489.52,5603.14 3495.49,5602.20 3486.00,5601.17              3486.00,5601.17 3474.00,5600.61 3474.00,5600.61              3474.00,5600.61 3467.00,5598.22 3467.00,5598.22              3462.04,5596.70 3454.23,5596.01 3449.00,5596.00              3449.00,5596.00 3431.00,5596.00 3431.00,5596.00              3421.83,5596.11 3421.77,5597.98 3416.00,5598.90              3416.00,5598.90 3405.00,5598.90 3405.00,5598.90              3396.41,5599.10 3394.35,5601.22 3388.00,5601.82              3388.00,5601.82 3373.00,5601.00 3373.00,5601.00              3373.00,5601.00 3354.00,5601.00 3354.00,5601.00              3354.00,5601.00 3332.00,5602.00 3332.00,5602.00              3323.04,5602.01 3323.10,5603.12 3316.00,5603.92              3316.00,5603.92 3300.00,5603.92 3300.00,5603.92              3289.17,5604.02 3278.66,5607.18 3268.00,5608.70              3268.00,5608.70 3247.00,5610.00 3247.00,5610.00              3230.83,5610.19 3236.78,5611.30 3225.00,5612.84              3225.00,5612.84 3206.00,5615.04 3206.00,5615.04              3206.00,5615.04 3198.00,5615.04 3198.00,5615.04              3192.95,5615.67 3189.44,5617.24 3184.00,5616.91              3177.72,5616.52 3178.45,5615.02 3168.00,5615.00              3168.00,5615.00 3158.00,5615.00 3158.00,5615.00              3158.00,5615.00 3143.00,5614.09 3143.00,5614.09              3143.00,5614.09 3126.00,5615.00 3126.00,5615.00              3126.00,5615.00 3100.00,5617.00 3100.00,5617.00              3090.96,5616.88 3088.65,5613.33 3080.00,5613.04              3080.00,5613.04 3068.00,5613.97 3068.00,5613.97              3068.00,5613.97 3052.00,5613.00 3052.00,5613.00              3052.00,5613.00 3032.00,5615.00 3032.00,5615.00              3032.00,5615.00 3014.00,5614.01 3014.00,5614.01              3002.78,5613.76 2999.99,5616.85 2996.00,5617.01              2993.35,5617.11 2989.85,5615.34 2987.00,5614.68              2982.78,5613.71 2974.43,5613.01 2970.00,5613.00              2970.00,5613.00 2950.00,5613.00 2950.00,5613.00              2950.00,5613.00 2934.00,5614.00 2934.00,5614.00              2934.00,5614.00 2880.00,5613.00 2880.00,5613.00              2880.00,5613.00 2852.00,5616.49 2852.00,5616.49              2846.95,5616.30 2842.10,5615.55 2837.00,5616.49              2832.26,5617.00 2830.11,5618.68 2825.00,5618.96              2825.00,5618.96 2810.00,5618.04 2810.00,5618.04              2804.08,5618.24 2801.70,5620.18 2795.00,5619.96              2795.00,5619.96 2780.00,5618.23 2780.00,5618.23              2780.00,5618.23 2762.00,5618.23 2762.00,5618.23              2758.17,5619.18 2753.14,5621.69 2750.00,5621.61              2745.04,5621.48 2743.53,5617.73 2731.00,5618.01              2731.00,5618.01 2719.00,5619.25 2719.00,5619.25              2719.00,5619.25 2696.00,5617.00 2696.00,5617.00              2696.00,5617.00 2663.00,5617.68 2663.00,5617.68              2663.00,5617.68 2642.00,5615.04 2642.00,5615.04              2642.00,5615.04 2630.00,5616.96 2630.00,5616.96              2630.00,5616.96 2610.00,5616.96 2610.00,5616.96              2610.00,5616.96 2581.00,5619.00 2581.00,5619.00              2581.00,5619.00 2568.00,5619.82 2568.00,5619.82              2558.71,5619.14 2559.89,5617.94 2547.00,5618.00              2547.00,5618.00 2523.00,5621.23 2523.00,5621.23              2517.51,5620.62 2516.01,5618.72 2508.00,5619.04              2493.12,5619.64 2491.76,5629.05 2481.00,5628.98              2471.73,5628.92 2469.85,5625.43 2464.00,5622.95              2457.22,5620.08 2448.35,5618.01 2441.00,5618.00              2441.00,5618.00 2437.00,5618.00 2437.00,5618.00              2437.00,5618.00 2422.00,5617.00 2422.00,5617.00              2422.00,5617.00 2408.00,5617.00 2408.00,5617.00              2408.00,5617.00 2393.00,5618.00 2393.00,5618.00              2393.00,5618.00 2340.00,5620.00 2340.00,5620.00              2340.00,5620.00 2324.00,5621.66 2324.00,5621.66              2324.00,5621.66 2315.00,5620.08 2315.00,5620.08              2315.00,5620.08 2300.00,5620.08 2300.00,5620.08              2300.00,5620.08 2269.00,5615.04 2269.00,5615.04              2261.86,5614.81 2257.32,5617.15 2251.00,5617.92              2251.00,5617.92 2226.00,5617.92 2226.00,5617.92              2226.00,5617.92 2215.00,5619.15 2215.00,5619.15              2215.00,5619.15 2201.00,5619.15 2201.00,5619.15              2201.00,5619.15 2195.00,5619.15 2195.00,5619.15              2195.00,5619.15 2173.00,5620.92 2173.00,5620.92              2173.00,5620.92 2159.00,5620.92 2159.00,5620.92              2159.00,5620.92 2145.00,5622.00 2145.00,5622.00              2145.00,5622.00 2128.00,5621.01 2128.00,5621.01              2128.00,5621.01 2112.00,5622.00 2112.00,5622.00              2112.00,5622.00 2099.00,5621.00 2099.00,5621.00              2099.00,5621.00 2070.00,5622.00 2070.00,5622.00              2070.00,5622.00 2049.00,5620.00 2049.00,5620.00              2049.00,5620.00 2035.00,5620.00 2035.00,5620.00              2035.00,5620.00 2022.00,5620.91 2022.00,5620.91              2022.00,5620.91 2012.00,5620.09 2012.00,5620.09              2012.00,5620.09 1993.00,5620.09 1993.00,5620.09              1993.00,5620.09 1975.00,5622.00 1975.00,5622.00              1975.00,5622.00 1951.00,5622.00 1951.00,5622.00              1951.00,5622.00 1937.00,5622.82 1937.00,5622.82              1937.00,5622.82 1926.00,5622.00 1926.00,5622.00              1926.00,5622.00 1904.00,5622.00 1904.00,5622.00              1904.00,5622.00 1891.00,5621.01 1891.00,5621.01              1891.00,5621.01 1878.00,5621.63 1878.00,5621.63              1878.00,5621.63 1864.00,5621.00 1864.00,5621.00              1864.00,5621.00 1849.00,5620.00 1849.00,5620.00              1849.00,5620.00 1832.00,5620.00 1832.00,5620.00              1832.00,5620.00 1818.00,5621.82 1818.00,5621.82              1818.00,5621.82 1806.00,5621.00 1806.00,5621.00              1806.00,5621.00 1789.00,5621.00 1789.00,5621.00              1789.00,5621.00 1774.00,5622.00 1774.00,5622.00              1774.00,5622.00 1746.00,5624.00 1746.00,5624.00              1746.00,5624.00 1721.00,5625.00 1721.00,5625.00              1721.00,5625.00 1709.00,5625.79 1709.00,5625.79              1709.00,5625.79 1696.00,5624.54 1696.00,5624.54              1685.97,5622.76 1678.58,5619.90 1668.00,5620.13              1668.00,5620.13 1659.00,5620.13 1659.00,5620.13              1659.00,5620.13 1636.00,5617.39 1636.00,5617.39              1636.00,5617.39 1627.00,5614.43 1627.00,5614.43              1621.26,5612.81 1609.97,5611.01 1604.00,5611.00              1593.69,5610.98 1595.65,5609.99 1588.00,5609.09              1588.00,5609.09 1569.00,5609.09 1569.00,5609.09              1569.00,5609.09 1556.00,5610.19 1556.00,5610.19              1551.87,5610.04 1548.82,5607.67 1542.00,5608.09              1542.00,5608.09 1532.00,5610.00 1532.00,5610.00              1532.00,5610.00 1525.00,5610.00 1525.00,5610.00              1525.00,5610.00 1508.00,5612.30 1508.00,5612.30              1508.00,5612.30 1500.00,5613.83 1500.00,5613.83              1500.00,5613.83 1474.00,5615.00 1474.00,5615.00              1465.12,5615.11 1462.06,5617.25 1456.00,5617.82              1450.78,5618.32 1446.62,5616.35 1439.00,5617.17              1439.00,5617.17 1425.00,5620.92 1425.00,5620.92              1425.00,5620.92 1417.00,5620.92 1417.00,5620.92              1417.00,5620.92 1379.00,5624.00 1379.00,5624.00              1367.97,5624.13 1353.45,5630.98 1338.00,5631.00              1338.00,5631.00 1333.00,5631.00 1333.00,5631.00              1325.08,5631.10 1319.25,5633.91 1316.00,5633.53              1312.12,5633.07 1309.49,5629.59 1304.00,5627.56              1299.43,5625.87 1289.04,5625.01 1284.00,5625.08              1284.00,5625.08 1268.00,5625.08 1268.00,5625.08              1259.07,5626.06 1261.71,5626.87 1250.00,5627.00              1250.00,5627.00 1241.00,5627.66 1241.00,5627.66              1241.00,5627.66 1230.00,5627.01 1230.00,5627.01              1230.00,5627.01 1206.00,5630.16 1206.00,5630.16              1206.00,5630.16 1196.00,5628.08 1196.00,5628.08              1196.00,5628.08 1184.00,5628.08 1184.00,5628.08              1184.00,5628.08 1160.00,5626.01 1160.00,5626.01              1152.34,5626.19 1149.24,5628.61 1145.00,5628.52              1145.00,5628.52 1126.00,5626.00 1126.00,5626.00              1110.15,5625.82 1111.73,5628.68 1104.00,5629.79              1093.90,5631.25 1083.20,5631.12 1073.00,5631.00              1073.00,5631.00 1060.00,5630.00 1060.00,5630.00              1060.00,5630.00 1041.00,5630.00 1041.00,5630.00              1028.99,5630.02 1030.93,5631.78 1023.00,5632.82              1023.00,5632.82 1006.00,5634.09 1006.00,5634.09              1006.00,5634.09 977.00,5636.00 977.00,5636.00              977.00,5636.00 952.00,5634.00 952.00,5634.00              952.00,5634.00 918.00,5634.00 918.00,5634.00              918.00,5634.00 900.00,5635.00 900.00,5635.00              886.65,5634.98 887.84,5631.28 877.00,5631.01              863.60,5630.69 862.64,5633.84 856.00,5635.00              856.00,5635.00 836.00,5635.00 836.00,5635.00              836.00,5635.00 825.00,5635.00 825.00,5635.00              822.21,5634.70 818.19,5632.19 812.00,5631.30              812.00,5631.30 785.00,5630.01 785.00,5630.01              785.00,5630.01 759.00,5632.83 759.00,5632.83              759.00,5632.83 725.00,5634.00 725.00,5634.00              709.27,5633.81 705.16,5629.06 697.00,5628.17              688.67,5627.27 685.48,5628.74 678.00,5629.86              678.00,5629.86 669.00,5629.86 669.00,5629.86              669.00,5629.86 650.00,5632.83 650.00,5632.83              650.00,5632.83 607.00,5635.49 607.00,5635.49              607.00,5635.49 600.00,5635.49 600.00,5635.49              600.00,5635.49 593.00,5635.49 593.00,5635.49              593.00,5635.49 576.00,5635.49 576.00,5635.49              576.00,5635.49 565.00,5634.08 565.00,5634.08              565.00,5634.08 553.00,5634.08 553.00,5634.08              553.00,5634.08 534.00,5635.09 534.00,5635.09              534.00,5635.09 527.00,5635.82 527.00,5635.82              521.97,5635.76 518.97,5633.11 510.00,5633.00              510.00,5633.00 482.00,5635.82 482.00,5635.82              478.51,5635.57 476.99,5634.87 473.00,5635.09              473.00,5635.09 457.00,5636.00 457.00,5636.00              457.00,5636.00 438.00,5634.70 438.00,5634.70              430.91,5633.69 432.62,5633.01 424.00,5633.14              407.93,5632.97 408.68,5630.63 390.00,5633.14              378.63,5634.90 378.33,5636.90 372.00,5638.70              367.25,5640.05 360.06,5640.23 355.00,5640.41              355.00,5640.41 344.00,5639.39 344.00,5639.39              338.05,5638.60 335.57,5639.88 332.00,5639.39              332.00,5639.39 317.00,5637.09 317.00,5637.09              308.85,5636.53 307.88,5637.98 303.00,5638.19              303.00,5638.19 288.00,5638.19 288.00,5638.19              288.00,5638.19 275.00,5639.66 275.00,5639.66              275.00,5639.66 258.00,5637.63 258.00,5637.63              258.00,5637.63 250.00,5635.47 250.00,5635.47              250.00,5635.47 233.00,5633.33 233.00,5633.33              233.00,5633.33 218.00,5628.75 218.00,5628.75              218.00,5628.75 208.00,5626.23 208.00,5626.23              202.04,5624.40 196.60,5621.52 191.00,5618.89              191.00,5618.89 173.00,5611.37 173.00,5611.37              165.69,5606.44 163.56,5602.43 157.96,5597.28              157.96,5597.28 142.93,5584.68 142.93,5584.68              141.12,5582.05 141.47,5578.95 138.52,5574.00              133.98,5566.39 126.95,5563.71 125.58,5557.00              124.77,5552.98 127.33,5549.88 126.91,5543.00              126.42,5535.15 121.99,5530.08 119.32,5523.00              119.32,5523.00 114.39,5501.00 114.39,5501.00              114.39,5501.00 116.91,5470.00 116.91,5470.00              116.91,5470.00 116.91,5452.00 116.91,5452.00              116.22,5446.29 114.13,5441.10 114.51,5435.00              114.51,5435.00 114.00,5409.00 114.00,5409.00              114.00,5409.00 113.32,5396.00 113.32,5396.00              113.32,5396.00 114.00,5387.00 114.00,5387.00              114.00,5387.00 114.96,5369.00 114.96,5369.00              114.96,5369.00 113.30,5359.00 113.30,5359.00              113.30,5359.00 112.00,5338.00 112.00,5338.00              112.00,5338.00 112.97,5323.00 112.97,5323.00              112.97,5323.00 112.00,5309.00 112.00,5309.00              112.00,5309.00 112.00,5264.00 112.00,5264.00              112.02,5250.32 115.18,5252.54 115.00,5237.00              114.90,5228.98 113.37,5228.43 112.32,5222.00              112.32,5222.00 111.21,5209.00 111.21,5209.00              111.21,5209.00 112.99,5195.00 112.99,5195.00              112.99,5195.00 111.00,5174.00 111.00,5174.00              111.00,5174.00 111.00,5156.00 111.00,5156.00              110.91,5148.57 109.49,5147.45 109.21,5143.00              109.21,5143.00 110.00,5132.00 110.00,5132.00              110.00,5132.00 109.00,5117.00 109.00,5117.00              109.00,5117.00 108.32,5080.00 108.32,5080.00              108.56,5076.83 109.11,5075.59 108.91,5072.00              108.91,5072.00 108.02,5061.00 108.02,5061.00              108.02,5061.00 110.00,5036.00 110.00,5036.00              109.92,5029.21 109.08,5029.51 108.30,5024.00              108.30,5024.00 107.00,5005.00 107.00,5005.00              107.00,5005.00 108.00,4970.00 108.00,4970.00              108.00,4970.00 106.34,4957.00 106.34,4957.00              106.34,4957.00 108.00,4931.00 108.00,4931.00              108.00,4931.00 108.00,4927.00 108.00,4927.00              108.00,4927.00 106.75,4909.00 106.75,4909.00              106.75,4909.00 108.99,4889.00 108.99,4889.00              108.99,4889.00 107.00,4870.00 107.00,4870.00              107.00,4870.00 105.51,4825.00 105.51,4825.00              105.51,4825.00 106.91,4807.00 106.91,4807.00              106.91,4807.00 108.00,4778.00 108.00,4778.00              108.00,4778.00 106.18,4750.00 106.18,4750.00              106.18,4750.00 106.99,4739.00 106.99,4739.00              106.99,4739.00 106.18,4730.00 106.18,4730.00              106.18,4730.00 106.97,4721.00 106.97,4721.00              106.97,4721.00 106.04,4712.00 106.04,4712.00              106.04,4712.00 106.04,4696.00 106.04,4696.00              106.04,4696.00 105.32,4685.00 105.32,4685.00              105.32,4685.00 105.90,4677.00 105.90,4677.00              105.90,4677.00 105.90,4665.00 105.90,4665.00              105.90,4665.00 105.90,4657.00 105.90,4657.00              105.90,4657.00 105.00,4644.00 105.00,4644.00              105.00,4644.00 105.00,4586.00 105.00,4586.00              105.00,4586.00 104.01,4571.00 104.01,4571.00              104.01,4571.00 104.96,4560.00 104.96,4560.00              104.96,4560.00 104.34,4549.00 104.34,4549.00              104.34,4549.00 105.00,4534.00 105.00,4534.00              105.00,4534.00 103.71,4515.00 103.71,4515.00              103.71,4515.00 102.37,4506.00 102.37,4506.00              102.37,4506.00 103.00,4494.00 103.00,4494.00              103.00,4494.00 103.00,4433.00 103.00,4433.00              103.00,4433.00 103.96,4419.00 103.96,4419.00              103.96,4419.00 101.17,4400.00 101.17,4400.00              101.17,4400.00 101.99,4388.00 101.99,4388.00              101.99,4388.00 101.00,4373.00 101.00,4373.00              101.00,4373.00 100.00,4348.00 100.00,4348.00              100.00,4348.00 101.00,4333.00 101.00,4333.00              101.00,4333.00 99.86,4320.00 99.86,4320.00              99.86,4320.00 99.86,4297.00 99.86,4297.00              99.86,4297.00 101.00,4284.00 101.00,4284.00              101.00,4284.00 101.00,4261.00 101.00,4261.00              101.00,4261.00 101.96,4246.00 101.96,4246.00              101.96,4246.00 100.09,4235.00 100.09,4235.00              100.09,4235.00 100.09,4213.00 100.09,4213.00              100.09,4213.00 101.96,4198.00 101.96,4198.00              101.96,4198.00 100.71,4182.00 100.71,4182.00              100.71,4182.00 101.99,4169.00 101.99,4169.00              101.99,4169.00 100.96,4152.00 100.96,4152.00              100.96,4152.00 100.96,4139.00 100.96,4139.00              100.96,4139.00 100.00,4128.00 100.00,4128.00              100.00,4128.00 100.00,4105.00 100.00,4105.00              99.91,4098.03 98.65,4096.78 98.47,4093.00              98.47,4093.00 99.00,4082.00 99.00,4082.00              99.00,4082.00 99.00,4060.00 99.00,4060.00              99.00,4060.00 98.34,4049.00 98.34,4049.00              98.34,4049.00 99.00,4039.00 99.00,4039.00              99.00,4039.00 99.00,4013.00 99.00,4013.00              99.00,4013.00 98.34,4004.00 98.34,4004.00              98.34,4004.00 98.91,3995.00 98.91,3995.00              98.91,3995.00 97.18,3980.00 97.18,3980.00              97.18,3980.00 98.00,3968.00 98.00,3968.00              98.00,3968.00 98.96,3951.00 98.96,3951.00              98.74,3944.58 97.02,3944.29 97.00,3934.00              97.00,3934.00 97.00,3917.00 97.00,3917.00              97.00,3917.00 97.97,3904.00 97.97,3904.00              97.97,3904.00 97.00,3890.00 97.00,3890.00              97.00,3890.00 97.00,3873.00 97.00,3873.00              97.00,3873.00 96.00,3853.00 96.00,3853.00              96.00,3853.00 96.96,3839.00 96.96,3839.00              96.96,3839.00 95.00,3818.00 95.00,3818.00              95.00,3818.00 95.00,3805.00 95.00,3805.00              95.00,3805.00 95.91,3792.00 95.91,3792.00              95.91,3792.00 95.02,3784.00 95.02,3784.00              95.02,3784.00 95.02,3767.00 95.02,3767.00              95.02,3767.00 93.18,3748.00 93.18,3748.00              93.18,3748.00 93.83,3737.00 93.83,3737.00              93.83,3737.00 93.83,3727.00 93.83,3727.00              93.83,3727.00 93.83,3706.00 93.83,3706.00              93.83,3706.00 93.10,3694.00 93.10,3694.00              93.10,3694.00 94.91,3682.00 94.91,3682.00              95.30,3675.25 92.90,3672.19 93.48,3668.00              93.48,3668.00 96.07,3660.00 96.07,3660.00              96.07,3660.00 98.91,3638.00 98.91,3638.00              98.51,3631.55 96.20,3629.28 95.17,3624.00              93.69,3616.37 93.01,3604.85 93.00,3597.00              93.00,3597.00 92.18,3583.00 92.18,3583.00              92.18,3583.00 93.98,3557.00 93.98,3557.00              93.98,3557.00 92.00,3530.00 92.00,3530.00              92.00,3530.00 92.00,3506.00 92.00,3506.00              92.00,3506.00 92.96,3489.00 92.96,3489.00              92.96,3489.00 92.96,3474.00 92.96,3474.00              92.96,3474.00 92.08,3466.00 92.08,3466.00              92.08,3466.00 92.91,3455.00 92.91,3455.00              92.91,3455.00 92.00,3443.00 92.00,3443.00              92.00,3443.00 92.00,3431.00 92.00,3431.00              92.00,3431.00 90.71,3407.00 90.71,3407.00              90.71,3403.87 91.13,3402.42 90.71,3399.00              90.71,3399.00 89.32,3380.00 89.32,3380.00              89.32,3380.00 90.96,3359.00 90.96,3359.00              90.96,3359.00 90.00,3342.00 90.00,3342.00              90.00,3342.00 90.96,3329.00 90.96,3329.00              90.96,3329.00 88.09,3304.00 88.09,3304.00              88.09,3304.00 88.81,3297.00 88.81,3297.00              88.81,3297.00 88.81,3279.00 88.81,3279.00              88.81,3279.00 88.81,3269.00 88.81,3269.00              88.81,3269.00 88.00,3251.00 88.00,3251.00              88.00,3251.00 88.00,3224.00 88.00,3224.00              88.00,3224.00 89.00,3209.00 89.00,3209.00              89.00,3209.00 85.74,3163.00 85.74,3163.00              85.74,3163.00 86.91,3148.00 86.91,3148.00              86.91,3148.00 85.19,3138.00 85.19,3138.00              85.19,3138.00 86.00,3124.00 86.00,3124.00              86.00,3124.00 86.00,3089.00 86.00,3089.00              85.98,3079.18 84.44,3078.53 84.26,3074.00              84.26,3074.00 84.98,3066.00 84.98,3066.00              84.98,3066.00 84.98,3050.00 84.98,3050.00              84.98,3050.00 84.00,3034.00 84.00,3034.00              84.00,3034.00 84.00,3007.00 84.00,3007.00              84.00,3007.00 82.97,2990.00 82.97,2990.00              82.97,2990.00 82.97,2940.00 82.97,2940.00              82.97,2940.00 82.97,2930.00 82.97,2930.00              82.97,2930.00 82.97,2890.00 82.97,2890.00              82.97,2890.00 83.96,2878.00 83.96,2878.00              83.96,2878.00 83.08,2869.00 83.08,2869.00              83.08,2869.00 83.91,2858.00 83.91,2858.00              83.91,2858.00 83.00,2846.00 83.00,2846.00              83.00,2846.00 83.00,2823.00 83.00,2823.00              83.00,2823.00 81.03,2803.00 81.03,2803.00              81.03,2803.00 81.83,2792.00 81.83,2792.00              81.83,2792.00 81.83,2779.00 81.83,2779.00              81.83,2779.00 81.83,2748.00 81.83,2748.00              81.98,2738.22 80.54,2738.86 79.77,2732.00              79.17,2726.62 82.39,2723.89 81.91,2716.00              81.58,2710.65 80.09,2709.58 80.00,2702.00              80.00,2702.00 80.00,2687.00 80.00,2687.00              80.00,2687.00 82.00,2669.00 82.00,2669.00              82.00,2669.00 81.18,2657.00 81.18,2657.00              81.18,2657.00 81.98,2649.00 81.98,2649.00              81.98,2649.00 81.98,2634.00 81.98,2634.00              81.99,2624.42 80.68,2624.42 80.47,2620.00              80.47,2620.00 81.00,2611.00 81.00,2611.00              81.00,2611.00 79.88,2588.00 79.88,2588.00              79.88,2588.00 79.88,2561.00 79.88,2561.00              79.88,2561.00 79.88,2551.00 79.88,2551.00              79.88,2551.00 79.88,2535.00 79.88,2535.00              79.88,2535.00 80.97,2523.00 80.97,2523.00              80.97,2523.00 79.00,2507.00 79.00,2507.00              79.00,2507.00 79.00,2483.00 79.00,2483.00              79.00,2483.00 78.10,2471.00 78.10,2471.00              78.35,2466.02 80.18,2463.61 79.96,2457.00              79.96,2457.00 77.21,2438.00 77.21,2438.00              77.21,2438.00 78.00,2426.00 78.00,2426.00              78.00,2426.00 78.91,2410.00 78.91,2410.00              78.91,2410.00 78.08,2399.00 78.08,2399.00              78.08,2399.00 78.91,2388.00 78.91,2388.00              78.91,2388.00 77.32,2368.00 77.32,2368.00              77.32,2368.00 78.00,2358.00 78.00,2358.00              78.00,2358.00 78.00,2345.00 78.00,2345.00              78.00,2345.00 79.91,2314.00 79.91,2314.00              79.91,2314.00 77.10,2301.00 77.10,2301.00              77.10,2301.00 77.99,2288.00 77.99,2288.00              77.99,2288.00 77.05,2272.00 77.05,2272.00              77.05,2272.00 77.05,2255.00 77.05,2255.00              77.05,2255.00 77.97,2246.00 77.97,2246.00              77.97,2246.00 77.00,2233.00 77.00,2233.00              77.00,2233.00 77.00,2200.00 77.00,2200.00              77.00,2200.00 77.98,2189.00 77.98,2189.00              77.98,2189.00 77.98,2172.00 77.98,2172.00              77.98,2158.90 75.02,2160.58 75.00,2148.00              75.00,2148.00 75.00,2114.00 75.00,2114.00              75.00,2114.00 74.34,2103.00 74.34,2103.00              74.34,2103.00 74.96,2094.00 74.96,2094.00              74.96,2094.00 73.80,2077.00 73.80,2077.00              73.80,2077.00 73.80,2066.00 73.80,2066.00              73.80,2066.00 75.00,2038.00 75.00,2038.00              75.00,2038.00 78.98,2010.00 78.98,2010.00              78.98,2010.00 76.70,1981.00 76.70,1981.00              76.70,1981.00 74.62,1971.00 74.62,1971.00              74.62,1971.00 74.62,1955.00 74.62,1955.00              74.62,1955.00 74.62,1944.00 74.62,1944.00              74.09,1937.05 73.01,1938.91 73.00,1929.00              73.00,1929.00 73.92,1911.00 73.92,1911.00              73.92,1911.00 73.92,1899.00 73.92,1899.00              73.92,1899.00 71.18,1877.00 71.18,1877.00              71.18,1877.00 72.00,1865.00 72.00,1865.00              72.00,1865.00 71.00,1850.00 71.00,1850.00              71.00,1850.00 72.00,1830.00 72.00,1830.00              72.00,1830.00 70.04,1803.00 70.04,1803.00              70.04,1803.00 71.00,1780.00 71.00,1780.00              71.00,1780.00 71.98,1766.00 71.98,1766.00              71.98,1766.00 70.00,1740.00 70.00,1740.00              70.00,1740.00 70.00,1725.00 70.00,1725.00              70.00,1725.00 69.00,1709.00 69.00,1709.00              69.00,1709.00 69.72,1653.00 69.72,1653.00              69.77,1648.42 71.24,1646.87 70.96,1640.00              70.96,1640.00 69.39,1630.00 69.39,1630.00              69.39,1630.00 70.00,1615.00 70.00,1615.00              70.00,1615.00 68.00,1597.00 68.00,1597.00              68.00,1597.00 68.00,1576.00 68.00,1576.00              68.00,1576.00 66.72,1559.00 66.72,1559.00              66.78,1553.65 69.32,1548.71 68.91,1542.00              68.91,1542.00 67.39,1533.00 67.39,1533.00              67.39,1533.00 67.96,1522.00 67.96,1522.00              67.96,1522.00 67.09,1511.00 67.09,1511.00              67.36,1506.21 68.21,1504.88 67.96,1499.00              67.96,1499.00 67.04,1487.00 67.04,1487.00              67.04,1487.00 68.00,1473.00 68.00,1473.00              68.00,1473.00 67.00,1458.00 67.00,1458.00              67.00,1458.00 67.00,1431.00 67.00,1431.00              67.00,1431.00 66.04,1419.00 66.04,1419.00              66.04,1419.00 66.04,1404.00 66.04,1404.00              66.04,1404.00 65.00,1387.00 65.00,1387.00              65.00,1387.00 66.00,1371.00 66.00,1371.00              66.00,1371.00 65.00,1356.00 65.00,1356.00              65.00,1356.00 66.00,1339.00 66.00,1339.00              66.00,1339.00 66.00,1325.00 66.00,1325.00              66.00,1325.00 66.96,1309.00 66.96,1309.00              66.96,1309.00 66.02,1300.00 66.02,1300.00              66.02,1300.00 66.02,1282.00 66.02,1282.00              66.02,1282.00 66.91,1267.00 66.91,1267.00              66.91,1267.00 65.14,1255.00 65.14,1255.00              65.14,1255.00 68.61,1237.00 68.61,1237.00              68.61,1237.00 68.61,1221.00 68.61,1221.00              68.61,1221.00 70.08,1215.00 70.08,1215.00              72.08,1207.38 74.09,1199.92 74.00,1192.00              73.91,1184.57 72.49,1183.45 72.21,1179.00              72.21,1179.00 72.99,1166.00 72.99,1166.00              72.85,1160.26 71.21,1155.11 68.63,1150.00              66.38,1145.54 63.76,1143.36 64.32,1138.00              64.92,1132.25 66.19,1132.96 65.99,1124.00              65.80,1115.88 63.26,1113.68 63.27,1109.00              63.27,1109.00 63.96,1100.00 63.96,1100.00              63.96,1100.00 63.21,1091.00 63.21,1091.00              63.57,1085.37 65.12,1086.19 65.00,1075.00              65.00,1075.00 63.37,1061.00 63.37,1061.00              63.37,1061.00 64.17,1047.00 64.17,1047.00              64.84,1040.77 66.32,1040.42 65.96,1032.00              65.96,1032.00 63.08,1014.00 63.08,1014.00              63.08,1014.00 63.08,1002.00 63.08,1002.00              63.08,1002.00 62.32,991.00 62.32,991.00              62.56,987.85 63.12,986.56 62.91,983.00              62.91,983.00 61.09,972.00 61.09,972.00              61.09,972.00 61.09,951.00 61.09,951.00              61.09,951.00 61.96,941.00 61.96,941.00              61.96,941.00 61.96,930.00 61.96,930.00              61.96,930.00 62.91,917.00 62.91,917.00              62.91,917.00 61.04,899.00 61.04,899.00              61.04,899.00 61.04,887.00 61.04,887.00              61.35,883.20 62.16,881.17 61.91,877.00              61.91,877.00 60.83,870.00 60.83,870.00              60.83,870.00 60.18,851.00 60.18,851.00              60.18,851.00 61.91,831.00 61.91,831.00              61.91,831.00 61.04,824.00 61.04,824.00              61.04,824.00 61.04,810.00 61.04,810.00              61.04,810.00 59.02,791.00 59.02,791.00              59.02,791.00 59.02,741.00 59.02,741.00              59.02,741.00 60.71,727.00 60.71,727.00              60.71,727.00 60.71,717.00 60.71,717.00              60.71,717.00 61.83,694.00 61.83,694.00              61.83,694.00 59.32,683.00 59.32,683.00              59.32,683.00 58.08,667.00 58.08,667.00              58.08,667.00 59.96,644.00 59.96,644.00              59.96,644.00 58.94,635.00 58.94,635.00              58.94,635.00 58.94,621.00 58.94,621.00              58.94,621.00 57.26,610.00 57.26,610.00              57.15,605.32 59.27,602.58 58.91,596.00              58.91,596.00 58.34,590.00 58.34,590.00              58.34,590.00 59.98,578.00 59.98,578.00              59.98,578.00 59.02,562.00 59.02,562.00              59.23,554.24 62.43,552.73 62.91,545.00              63.36,537.60 57.96,526.39 57.19,517.00              57.19,517.00 57.91,505.00 57.91,505.00              57.91,505.00 57.26,498.00 57.26,498.00              57.26,498.00 58.00,489.00 58.00,489.00              58.00,489.00 56.92,476.00 56.92,476.00              56.92,476.00 56.92,456.00 56.92,456.00              56.92,456.00 58.00,431.00 58.00,431.00              58.00,431.00 54.75,405.00 54.75,405.00              54.60,400.92 55.44,399.66 55.91,396.00              55.91,396.00 55.91,383.00 55.91,383.00              55.91,383.00 54.04,368.00 54.04,368.00              54.04,368.00 54.99,355.00 54.99,355.00              54.99,355.00 54.19,341.00 54.19,341.00              54.64,335.48 56.34,334.62 55.96,326.00              55.66,319.11 54.02,319.45 54.19,309.00              54.19,309.00 54.19,295.00 54.19,295.00              55.46,290.03 59.42,286.01 58.91,277.00              58.91,277.00 52.68,240.00 52.68,240.00              52.49,234.57 55.15,232.21 55.92,226.00              55.92,226.00 55.92,202.00 55.92,202.00              56.14,191.64 61.08,185.73 62.53,178.00              62.53,178.00 65.22,148.00 65.22,148.00              65.22,148.00 68.84,138.00 68.84,138.00              68.84,138.00 70.63,129.00 70.63,129.00              72.42,122.70 74.24,121.49 73.91,114.00              73.41,102.50 75.70,106.36 77.53,97.00              78.09,94.14 77.74,90.89 80.31,88.93              83.19,86.75 88.56,87.15 92.00,86.68              98.54,86.45 101.94,85.30 109.00,86.68              115.68,87.51 119.87,90.31 127.00,89.91              127.00,89.91 153.00,85.46 153.00,85.46              159.36,84.32 164.65,84.19 171.00,81.91              171.00,81.91 180.00,77.92 180.00,77.92              180.00,77.92 188.00,75.12 188.00,75.12              190.31,74.13 193.66,72.04 196.00,71.82              198.98,71.54 206.10,75.14 210.00,76.10              217.18,77.88 234.58,79.99 242.00,80.00              242.00,80.00 287.00,80.00 287.00,80.00              287.00,80.00 299.00,79.04 299.00,79.04              299.00,79.04 313.00,79.04 313.00,79.04              313.00,79.04 328.00,80.00 328.00,80.00              328.00,80.00 351.00,80.00 351.00,80.00              351.00,80.00 379.00,83.37 379.00,83.37              379.00,83.37 388.00,85.70 388.00,85.70              388.00,85.70 408.00,86.78 408.00,86.78              408.00,86.78 416.00,86.78 416.00,86.78              416.00,86.78 432.00,88.00 432.00,88.00              432.00,88.00 438.00,88.00 438.00,88.00              445.22,87.91 447.01,86.41 451.00,86.26              451.00,86.26 462.00,86.98 462.00,86.98              462.00,86.98 478.00,86.04 478.00,86.04              478.00,86.04 489.00,86.91 489.00,86.91              495.63,86.50 498.14,84.00 503.00,83.10              511.06,81.90 524.05,83.01 533.00,83.10              550.78,82.97 555.20,73.51 569.00,74.04              569.00,74.04 609.00,77.00 609.00,77.00              609.00,77.00 622.00,78.04 622.00,78.04              622.00,78.04 630.00,78.04 630.00,78.04              630.00,78.04 653.00,81.00 653.00,81.00              660.33,81.08 669.01,80.54 676.00,78.25              685.98,74.98 686.02,71.74 699.00,69.83              699.00,69.83 710.00,69.83 710.00,69.83              710.00,69.83 728.00,67.75 728.00,67.75              728.00,67.75 743.00,69.00 743.00,69.00              748.07,69.06 753.10,69.28 758.00,67.78              771.72,63.58 772.02,59.03 787.00,58.80              787.00,58.80 798.00,58.80 798.00,58.80              798.00,58.80 819.00,60.00 819.00,60.00              819.00,60.00 833.00,59.04 833.00,59.04              840.96,59.35 848.33,62.59 856.00,64.35              856.00,64.35 869.00,66.38 869.00,66.38              869.00,66.38 881.00,69.70 881.00,69.70              881.00,69.70 892.00,70.60 892.00,70.60              903.11,73.25 917.84,78.12 929.00,78.00              938.11,77.89 941.67,74.85 944.82,75.40              948.69,76.06 950.07,81.70 958.00,86.89              965.32,91.68 972.67,91.09 981.00,91.00              992.01,90.87 993.08,87.66 999.00,86.39              1004.49,85.20 1009.65,86.75 1015.00,86.96              1015.00,86.96 1029.00,86.04 1029.00,86.04              1035.42,86.26 1035.71,87.98 1046.00,87.96              1046.00,87.96 1056.00,87.96 1056.00,87.96              1056.00,87.96 1065.00,87.03 1065.00,87.03              1065.00,87.03 1077.00,88.00 1077.00,88.00              1077.00,88.00 1096.00,88.00 1096.00,88.00              1096.00,88.00 1115.00,87.32 1115.00,87.32              1115.00,87.32 1124.00,87.96 1124.00,87.96              1124.00,87.96 1145.00,85.51 1145.00,85.51              1145.00,85.51 1178.00,87.96 1178.00,87.96              1178.00,87.96 1194.00,85.58 1194.00,85.58              1194.00,85.58 1209.00,85.58 1209.00,85.58              1216.93,84.97 1225.06,79.55 1234.00,80.09              1234.00,80.09 1272.00,86.91 1272.00,86.91              1272.00,86.91 1282.00,85.29 1282.00,85.29              1282.00,85.29 1290.00,84.72 1290.00,84.72              1290.00,84.72 1302.00,83.21 1302.00,83.21              1302.00,83.21 1310.00,83.95 1310.00,83.95              1310.00,83.95 1323.00,83.95 1323.00,83.95              1323.00,83.95 1332.00,83.34 1332.00,83.34              1332.00,83.34 1346.00,84.91 1346.00,84.91              1346.00,84.91 1358.00,84.91 1358.00,84.91              1358.00,84.91 1370.00,84.18 1370.00,84.18              1370.00,84.18 1447.00,85.00 1447.00,85.00              1447.00,85.00 1471.00,85.00 1471.00,85.00              1471.00,85.00 1492.00,83.00 1492.00,83.00              1492.00,83.00 1513.00,84.91 1513.00,84.91              1513.00,84.91 1552.00,82.32 1552.00,82.32              1557.36,82.72 1562.59,83.41 1568.00,82.83              1576.43,81.92 1574.41,79.86 1587.00,80.00              1587.00,80.00 1611.00,82.99 1611.00,82.99              1611.00,82.99 1627.00,81.83 1627.00,81.83              1640.99,80.41 1654.83,75.49 1669.00,76.04              1669.00,76.04 1686.00,77.92 1686.00,77.92              1686.00,77.92 1698.00,77.92 1698.00,77.92              1698.00,77.92 1715.00,79.30 1715.00,79.30              1722.11,80.32 1720.41,80.99 1729.00,80.92              1729.00,80.92 1739.00,80.92 1739.00,80.92              1746.31,80.12 1747.24,79.01 1756.00,79.00              1756.00,79.00 1779.00,79.00 1779.00,79.00              1779.00,79.00 1795.00,77.55 1795.00,77.55              1795.00,77.55 1818.00,80.00 1818.00,80.00              1818.00,80.00 1836.00,79.18 1836.00,79.18              1836.00,79.18 1845.00,80.00 1845.00,80.00              1845.00,80.00 1868.00,79.00 1868.00,79.00              1868.00,79.00 1890.00,77.00 1890.00,77.00              1890.00,77.00 1909.00,77.00 1909.00,77.00              1909.00,77.00 1921.00,76.05 1921.00,76.05              1921.00,76.05 1934.00,76.05 1934.00,76.05              1934.00,76.05 1944.00,76.96 1944.00,76.96              1944.00,76.96 1955.00,76.96 1955.00,76.96              1955.00,76.96 1974.00,76.00 1974.00,76.00              1974.00,76.00 1996.00,74.01 1996.00,74.01              1996.00,74.01 2022.00,75.96 2022.00,75.96              2022.00,75.96 2038.00,74.09 2038.00,74.09              2038.00,74.09 2045.00,74.96 2045.00,74.96              2045.00,74.96 2060.00,74.96 2060.00,74.96              2060.00,74.96 2080.00,73.09 2080.00,73.09              2080.00,73.09 2106.00,75.00 2106.00,75.00              2106.00,75.00 2125.00,76.00 2125.00,76.00              2125.00,76.00 2140.00,75.00 2140.00,75.00              2140.00,75.00 2171.00,75.00 2171.00,75.00              2171.00,75.00 2183.00,74.04 2183.00,74.04              2183.00,74.04 2194.00,74.04 2194.00,74.04              2194.00,74.04 2204.00,73.18 2204.00,73.18              2204.00,73.18 2214.00,73.99 2214.00,73.99              2214.00,73.99 2224.00,73.04 2224.00,73.04              2224.00,73.04 2239.00,73.04 2239.00,73.04              2239.00,73.04 2249.00,72.18 2249.00,72.18              2249.00,72.18 2261.00,73.00 2261.00,73.00              2261.00,73.00 2288.00,73.00 2288.00,73.00              2288.00,73.00 2305.00,73.99 2305.00,73.99              2305.00,73.99 2314.00,73.04 2314.00,73.04              2314.00,73.04 2327.00,73.04 2327.00,73.04              2327.00,73.04 2340.00,72.18 2340.00,72.18              2340.00,72.18 2354.00,73.00 2354.00,73.00              2354.00,73.00 2378.00,71.04 2378.00,71.04              2378.00,71.04 2395.00,71.04 2395.00,71.04              2395.00,71.04 2406.00,71.96 2406.00,71.96              2406.00,71.96 2416.00,71.18 2416.00,71.18              2416.00,71.18 2442.00,72.99 2442.00,72.99              2442.00,72.99 2458.00,71.00 2458.00,71.00              2458.00,71.00 2474.00,72.15 2474.00,72.15              2474.00,72.15 2489.00,72.15 2489.00,72.15              2494.56,73.09 2499.07,74.97 2505.00,74.97              2510.49,74.97 2512.37,73.67 2517.00,73.00              2517.00,73.00 2528.00,73.00 2528.00,73.00              2528.00,73.00 2536.00,71.47 2536.00,71.47              2536.00,71.47 2547.00,72.04 2547.00,72.04              2547.00,72.04 2562.00,72.04 2562.00,72.04              2565.87,72.35 2567.71,73.15 2572.00,72.91              2576.79,72.64 2578.12,71.79 2584.00,72.04              2584.00,72.04 2595.00,73.00 2595.00,73.00              2595.00,73.00 2611.00,72.02 2611.00,72.02              2611.00,72.02 2620.00,72.96 2620.00,72.96              2620.00,72.96 2634.00,72.96 2634.00,72.96              2648.98,72.98 2646.23,69.15 2657.00,69.00              2657.00,69.00 2682.00,70.00 2682.00,70.00              2682.00,70.00 2695.00,71.00 2695.00,71.00              2695.00,71.00 2718.00,71.00 2718.00,71.00              2718.00,71.00 2731.00,70.00 2731.00,70.00              2731.00,70.00 2756.00,70.00 2756.00,70.00              2769.34,70.13 2775.14,67.75 2778.00,67.79              2778.00,67.79 2785.00,68.83 2785.00,68.83              2785.00,68.83 2816.00,70.96 2816.00,70.96              2822.18,70.71 2828.26,68.08 2835.00,68.51              2835.00,68.51 2880.00,66.00 2880.00,66.00              2880.00,66.00 2899.00,67.00 2899.00,67.00              2899.00,67.00 2915.00,67.00 2915.00,67.00              2915.00,67.00 2929.00,67.91 2929.00,67.91              2929.00,67.91 2951.00,66.01 2951.00,66.01              2951.00,66.01 2967.00,67.00 2967.00,67.00              2967.00,67.00 2978.00,66.32 2978.00,66.32              2978.00,66.32 2998.00,67.00 2998.00,67.00              2998.00,67.00 3014.00,67.96 3014.00,67.96              3014.00,67.96 3034.00,66.70 3034.00,66.70              3034.00,66.70 3044.00,64.30 3044.00,64.30              3044.00,64.30 3058.00,65.00 3058.00,65.00              3058.00,65.00 3073.00,64.00 3073.00,64.00              3073.00,64.00 3107.00,64.00 3107.00,64.00              3107.00,64.00 3122.00,64.99 3122.00,64.99              3122.00,64.99 3135.00,64.04 3135.00,64.04              3135.00,64.04 3148.00,64.99 3148.00,64.99              3148.00,64.99 3163.00,63.32 3163.00,63.32              3163.00,63.32 3176.00,64.96 3176.00,64.96              3182.50,65.24 3184.29,64.48 3190.00,64.04              3190.00,64.04 3201.00,64.04 3201.00,64.04              3201.00,64.04 3219.00,62.70 3219.00,62.70              3219.00,62.70 3228.00,61.09 3228.00,61.09              3228.00,61.09 3242.00,62.00 3242.00,62.00              3242.00,62.00 3259.00,61.08 3259.00,61.08              3259.00,61.08 3275.00,61.08 3275.00,61.08              3275.00,61.08 3289.00,63.00 3289.00,63.00              3289.00,63.00 3316.00,62.00 3316.00,62.00              3316.00,62.00 3329.00,61.18 3329.00,61.18              3329.00,61.18 3349.00,62.91 3349.00,62.91              3349.00,62.91 3358.00,61.30 3358.00,61.30              3358.00,61.30 3375.00,60.00 3375.00,60.00              3375.00,60.00 3379.00,60.00 3379.00,60.00              3379.00,60.00 3388.00,59.34 3388.00,59.34              3388.00,59.34 3398.00,59.96 3398.00,59.96              3398.00,59.96 3415.00,59.00 3415.00,59.00              3424.02,59.12 3423.90,61.88 3434.00,62.00              3434.00,62.00 3438.00,62.00 3438.00,62.00              3447.79,61.88 3449.63,59.01 3454.00,58.85              3454.00,58.85 3462.00,59.91 3462.00,59.91              3466.68,60.25 3468.71,59.64 3473.00,59.32              3473.00,59.32 3491.00,61.00 3491.00,61.00              3491.00,61.00 3529.00,62.00 3529.00,62.00              3529.00,62.00 3544.00,60.96 3544.00,60.96              3544.00,60.96 3559.00,60.96 3559.00,60.96              3559.00,60.96 3567.00,60.08 3567.00,60.08              3567.00,60.08 3578.00,60.96 3578.00,60.96              3578.00,60.96 3588.00,60.01 3588.00,60.01              3588.00,60.01 3608.00,61.21 3608.00,61.21              3615.39,62.24 3612.45,64.17 3627.00,64.00              3635.67,63.89 3638.73,61.38 3643.00,61.48              3643.00,61.48 3650.00,62.94 3650.00,62.94              3650.00,62.94 3660.00,62.94 3660.00,62.94              3664.99,63.71 3667.12,65.24 3673.00,64.91              3673.00,64.91 3693.00,62.10 3693.00,62.10              3697.52,61.02 3702.31,58.88 3707.00,59.34              3714.08,60.03 3715.71,61.84 3725.00,60.83              3725.00,60.83 3737.00,58.19 3737.00,58.19              3737.00,58.19 3744.00,58.96 3744.00,58.96              3744.00,58.96 3754.00,58.96 3754.00,58.96              3754.00,58.96 3770.00,60.97 3770.00,60.97              3770.00,60.97 3786.00,59.00 3786.00,59.00              3797.33,58.87 3795.44,59.97 3804.00,60.96              3804.00,60.96 3813.00,60.96 3813.00,60.96              3813.00,60.96 3825.00,62.00 3825.00,62.00              3825.00,62.00 3843.00,62.00 3843.00,62.00              3843.00,62.00 3875.00,59.96 3875.00,59.96              3875.00,59.96 3885.00,59.96 3885.00,59.96              3890.86,59.51 3893.46,58.61 3900.00,59.09              3907.92,59.67 3908.35,61.98 3920.00,62.00              3920.00,62.00 3941.00,62.00 3941.00,62.00              3941.00,62.00 3954.00,61.19 3954.00,61.19              3954.00,61.19 3969.00,63.83 3969.00,63.83              3972.28,64.15 3977.20,63.70 3980.00,64.51              3984.73,65.86 3987.38,69.91 3996.00,70.83              4003.43,71.62 4006.38,69.44 4011.00,69.26              4011.00,69.26 4018.00,69.91 4018.00,69.91              4020.51,70.10 4022.52,69.89 4025.00,70.70              4033.41,73.44 4033.96,78.43 4039.18,83.91              4044.89,89.89 4051.86,92.29 4060.00,91.96              4076.51,91.29 4080.57,78.37 4088.00,73.74              4091.11,71.80 4094.56,72.00 4098.00,71.07              4098.00,71.07 4106.00,68.39 4106.00,68.39              4106.00,68.39 4116.00,67.11 4116.00,67.11              4116.00,67.11 4126.00,64.60 4126.00,64.60              4126.00,64.60 4146.00,64.60 4146.00,64.60              4146.00,64.60 4159.00,62.00 4159.00,62.00              4159.00,62.00 4168.00,62.00 4168.00,62.00              4168.00,62.00 4182.00,60.77 4182.00,60.77              4182.00,60.77 4197.00,60.77 4197.00,60.77              4197.00,60.77 4228.00,60.77 4228.00,60.77              4239.26,61.02 4237.65,63.80 4255.00,64.00              4255.00,64.00 4270.00,64.83 4270.00,64.83              4270.00,64.83 4278.00,63.06 4278.00,63.06              4278.00,63.06 4286.00,63.06 4286.00,63.06              4293.02,62.07 4291.07,61.02 4301.00,61.04              4301.00,61.04 4311.00,61.04 4311.00,61.04              4314.87,61.35 4316.71,62.15 4321.00,61.91              4321.00,61.91 4332.00,61.00 4332.00,61.00              4332.00,61.00 4365.00,61.00 4365.00,61.00              4365.00,61.00 4377.00,61.95 4377.00,61.95              4377.00,61.95 4390.00,61.95 4390.00,61.95              4390.00,61.95 4405.00,60.04 4405.00,60.04              4405.00,60.04 4428.00,62.00 4428.00,62.00              4428.00,62.00 4452.00,61.00 4452.00,61.00              4458.14,60.92 4459.60,59.99 4465.00,59.29              4465.00,59.29 4482.00,58.04 4482.00,58.04              4482.00,58.04 4495.00,58.96 4495.00,58.96              4499.63,58.81 4502.98,57.51 4508.00,58.21              4512.38,58.81 4514.73,60.75 4521.00,60.96              4521.00,60.96 4541.00,59.08 4541.00,59.08              4541.00,59.08 4554.00,59.08 4554.00,59.08              4554.00,59.08 4571.00,61.00 4571.00,61.00              4571.00,61.00 4585.00,60.03 4585.00,60.03              4585.00,60.03 4603.00,61.00 4603.00,61.00              4613.29,60.98 4614.90,59.01 4620.00,58.82              4624.92,58.64 4625.93,61.13 4638.00,61.00              4638.00,61.00 4656.00,59.04 4656.00,59.04              4656.00,59.04 4670.00,59.04 4670.00,59.04              4670.00,59.04 4682.00,60.04 4682.00,60.04              4682.00,60.04 4697.00,60.04 4697.00,60.04              4697.00,60.04 4709.00,60.99 4709.00,60.99              4709.00,60.99 4743.00,57.70 4743.00,57.70              4743.00,57.70 4752.00,56.09 4752.00,56.09              4752.00,56.09 4765.00,55.47 4765.00,55.47              4765.00,55.47 4773.00,56.81 4773.00,56.81              4773.00,56.81 4783.00,56.81 4783.00,56.81              4783.00,56.81 4792.00,56.81 4792.00,56.81              4792.00,56.81 4812.00,57.91 4812.00,57.91              4812.00,57.91 4837.00,55.84 4837.00,55.84              4837.00,55.84 4858.00,58.00 4858.00,58.00              4858.00,58.00 4876.00,56.21 4876.00,56.21              4881.55,56.94 4897.08,63.60 4905.00,63.96              4908.91,64.14 4913.21,64.09 4917.00,63.07              4920.36,62.17 4923.46,60.24 4927.00,60.28              4927.00,60.28 4935.00,61.94 4935.00,61.94              4935.00,61.94 4942.00,61.94 4942.00,61.94              4947.72,62.79 4948.74,64.24 4956.00,63.96              4956.00,63.96 4971.00,63.00 4971.00,63.00              4971.00,63.00 4986.00,63.91 4986.00,63.91              4986.00,63.91 4995.00,62.47 4995.00,62.47              4995.00,62.47 5007.00,63.00 5007.00,63.00              5007.00,63.00 5028.00,60.81 5028.00,60.81              5028.00,60.81 5043.00,60.81 5043.00,60.81              5043.00,60.81 5065.00,58.35 5065.00,58.35              5068.98,58.43 5072.69,60.75 5079.00,60.96              5082.75,61.08 5084.54,60.50 5088.00,60.00              5088.00,60.00 5097.00,60.00 5097.00,60.00              5097.00,60.00 5110.00,58.10 5110.00,58.10              5116.22,57.83 5118.59,60.19 5126.00,59.96              5126.00,59.96 5140.00,58.08 5140.00,58.08              5140.00,58.08 5151.00,58.08 5151.00,58.08              5151.00,58.08 5166.00,56.55 5166.00,56.55              5166.00,56.55 5173.00,57.91 5173.00,57.91              5173.00,57.91 5184.00,57.91 5184.00,57.91              5184.00,57.91 5203.00,59.00 5203.00,59.00              5203.00,59.00 5224.00,57.00 5224.00,57.00              5224.00,57.00 5248.00,58.00 5248.00,58.00              5248.00,58.00 5261.00,58.91 5261.00,58.91              5261.00,58.91 5275.00,55.84 5275.00,55.84              5275.00,55.84 5291.00,58.00 5291.00,58.00              5291.00,58.00 5306.00,58.00 5306.00,58.00              5306.00,58.00 5325.00,59.30 5325.00,59.30              5325.00,59.30 5333.00,60.91 5333.00,60.91              5333.00,60.91 5351.00,60.91 5351.00,60.91              5351.00,60.91 5368.00,61.99 5368.00,61.99              5368.00,61.99 5386.00,58.21 5386.00,58.21              5386.00,58.21 5407.00,58.21 5407.00,58.21              5407.00,58.21 5422.00,56.08 5422.00,56.08              5422.00,56.08 5436.00,57.91 5436.00,57.91              5442.41,58.35 5452.48,57.53 5459.00,56.83              5468.85,55.77 5468.96,52.20 5484.00,52.81              5484.00,52.81 5496.00,52.81 5496.00,52.81              5496.00,52.81 5503.00,54.57 5503.00,54.57              5503.00,54.57 5519.00,56.96 5519.00,56.96              5527.61,57.23 5531.74,53.71 5537.00,54.25              5539.95,54.55 5543.87,56.63 5547.00,57.56              5550.62,58.64 5562.33,60.13 5566.00,59.91              5569.36,59.70 5572.61,58.45 5576.00,58.85              5580.66,59.40 5582.90,61.82 5591.00,61.98              5591.00,61.98 5608.00,60.26 5608.00,60.26              5608.00,60.26 5631.00,63.31 5631.00,63.31              5634.85,64.24 5637.77,67.57 5642.00,69.60              5646.66,71.84 5654.82,73.17 5660.00,72.96              5666.35,72.70 5669.13,70.77 5674.00,70.18              5674.00,70.18 5691.00,69.53 5691.00,69.53              5691.00,69.53 5702.00,66.42 5702.00,66.42              5702.00,66.42 5731.00,69.99 5731.00,69.99              5731.00,69.99 5752.00,68.00 5752.00,68.00              5752.00,68.00 5787.00,68.00 5787.00,68.00              5787.00,68.00 5809.00,66.08 5809.00,66.08              5817.14,66.09 5824.28,70.24 5838.00,69.87              5838.00,69.87 5857.00,69.87 5857.00,69.87              5857.00,69.87 5878.00,67.96 5878.00,67.96              5878.00,67.96 5897.00,67.96 5897.00,67.96              5897.00,67.96 5906.00,70.77 5906.00,70.77              5909.53,71.20 5918.05,71.04 5922.00,70.77              5922.00,70.77 5939.00,69.09 5939.00,69.09              5939.00,69.09 5956.00,69.09 5956.00,69.09              5956.00,69.09 5969.00,70.00 5969.00,70.00              5969.00,70.00 5993.00,70.00 5993.00,70.00              5993.00,70.00 6014.00,68.83 6014.00,68.83              6014.00,68.83 6022.00,67.76 6022.00,67.76              6022.00,67.76 6031.00,67.76 6031.00,67.76              6031.00,67.76 6043.00,67.76 6043.00,67.76              6050.01,67.08 6048.07,66.02 6058.00,66.09              6058.00,66.09 6072.00,66.09 6072.00,66.09              6072.00,66.09 6083.00,67.96 6083.00,67.96              6083.00,67.96 6097.00,67.18 6097.00,67.18              6097.00,67.18 6117.00,68.72 6117.00,68.72              6117.00,68.72 6129.00,68.72 6129.00,68.72              6132.19,68.93 6141.60,73.49 6152.00,72.91              6155.13,72.73 6156.64,72.06 6160.00,72.32              6169.01,73.04 6171.66,76.68 6180.00,76.96              6188.06,77.23 6191.52,74.42 6195.00,73.90              6195.00,73.90 6208.00,73.90 6208.00,73.90              6208.00,73.90 6219.00,73.08 6219.00,73.08              6219.00,73.08 6231.00,73.91 6231.00,73.91              6231.00,73.91 6247.00,72.08 6247.00,72.08              6253.21,72.08 6259.26,74.51 6268.00,73.91              6268.00,73.91 6293.00,71.17 6293.00,71.17              6293.00,71.17 6318.00,69.91 6318.00,69.91              6318.00,69.91 6333.00,69.00 6333.00,69.00              6339.80,69.08 6339.49,69.92 6345.00,70.94              6345.00,70.94 6355.00,70.94 6355.00,70.94              6362.71,72.00 6359.52,73.01 6371.00,73.00              6371.00,73.00 6393.00,71.00 6393.00,71.00              6393.00,71.00 6410.00,72.87 6410.00,72.87              6410.00,72.87 6418.00,72.87 6418.00,72.87              6418.00,72.87 6428.00,72.87 6428.00,72.87              6428.00,72.87 6444.00,72.87 6444.00,72.87              6444.00,72.87 6458.00,71.55 6458.00,71.55              6464.34,72.20 6466.35,73.83 6474.00,72.70              6479.52,71.89 6483.33,68.81 6489.00,69.18              6507.52,70.41 6507.09,74.99 6519.00,74.99              6519.00,74.99 6536.00,73.53 6536.00,73.53              6542.91,72.24 6541.21,71.05 6550.00,70.71              6550.00,70.71 6561.00,70.71 6561.00,70.71              6566.50,70.57 6568.82,71.46 6575.00,70.71              6575.00,70.71 6594.00,66.79 6594.00,66.79              6594.00,66.79 6618.00,70.57 6618.00,70.57              6618.00,70.57 6651.00,72.91 6651.00,72.91              6651.00,72.91 6665.00,72.91 6665.00,72.91              6665.00,72.91 6673.00,72.91 6673.00,72.91              6673.00,72.91 6706.00,77.00 6706.00,77.00              6715.92,76.88 6716.01,74.68 6722.00,73.39              6722.00,73.39 6730.00,72.32 6730.00,72.32              6730.00,72.32 6743.00,68.62 6743.00,68.62              6743.00,68.62 6753.00,65.85 6753.00,65.85              6753.00,65.85 6764.00,65.85 6764.00,65.85              6764.00,65.85 6773.00,65.85 6773.00,65.85              6783.58,65.87 6785.71,62.36 6792.00,62.13              6795.76,61.99 6799.30,63.43 6803.00,63.83              6803.00,63.83 6822.00,64.96 6822.00,64.96              6829.55,64.66 6832.40,61.82 6837.00,61.77              6842.76,61.69 6846.14,65.34 6854.00,65.91              6854.00,65.91 6873.00,64.59 6873.00,64.59              6873.00,64.59 6901.00,67.96 6901.00,67.96              6901.00,67.96 6914.00,67.96 6914.00,67.96              6914.00,67.96 6924.00,67.00 6924.00,67.00              6931.91,66.91 6935.22,66.68 6943.00,68.91              6948.47,70.48 6953.25,73.20 6959.00,73.83              6959.00,73.83 6985.00,73.00 6985.00,73.00              6992.45,73.09 6992.45,74.23 6998.00,74.83              6998.00,74.83 7019.00,76.17 7019.00,76.17              7019.00,76.17 7035.00,78.37 7035.00,78.37              7039.69,79.28 7040.88,80.71 7047.00,80.92              7052.97,81.20 7055.03,79.65 7061.00,80.92              7072.86,83.34 7072.00,85.18 7079.00,87.07              7079.00,87.07 7103.00,88.99 7103.00,88.99              7103.00,88.99 7122.00,87.07 7122.00,87.07              7130.25,84.86 7134.28,81.55 7144.00,82.04              7150.51,82.37 7153.14,85.35 7161.00,84.91              7161.00,84.91 7174.00,84.00 7174.00,84.00              7174.00,84.00 7203.00,86.97 7203.00,86.97              7203.00,86.97 7220.00,84.37 7220.00,84.37              7220.00,84.37 7240.00,85.99 7240.00,85.99              7240.00,85.99 7253.00,84.04 7253.00,84.04              7253.00,84.04 7274.00,84.04 7274.00,84.04              7284.63,84.15 7282.69,88.14 7297.00,88.00              7306.40,87.90 7310.75,84.61 7318.00,84.21              7318.00,84.21 7346.00,86.96 7346.00,86.96              7346.00,86.96 7354.00,85.89 7354.00,85.89              7354.00,85.89 7369.00,85.89 7369.00,85.89              7377.93,84.43 7376.71,82.87 7388.00,83.00              7397.62,83.12 7398.59,86.25 7410.00,85.99              7417.55,85.81 7420.74,83.45 7425.00,83.35              7425.00,83.35 7446.00,85.96 7446.00,85.96              7446.00,85.96 7458.00,85.00 7458.00,85.00              7458.00,85.00 7486.00,85.00 7486.00,85.00              7492.08,84.99 7499.46,84.26 7505.00,81.60              7505.00,81.60 7514.00,75.68 7514.00,75.68              7517.77,73.44 7526.58,70.74 7531.00,71.11              7531.00,71.11 7545.00,75.11 7545.00,75.11              7558.06,78.10 7571.52,80.84 7585.00,81.00              7585.00,81.00 7605.00,82.00 7605.00,82.00              7605.00,82.00 7618.00,81.00 7618.00,81.00              7628.06,80.89 7627.31,82.00 7636.00,83.54              7636.00,83.54 7644.00,84.30 7644.00,84.30              7654.22,85.77 7664.64,88.12 7675.00,88.00              7685.17,87.88 7686.62,84.68 7696.00,85.04              7696.00,85.04 7704.00,86.11 7704.00,86.11              7704.00,86.11 7718.00,86.11 7718.00,86.11              7718.00,86.11 7735.00,88.96 7735.00,88.96              7742.96,89.21 7745.05,86.25 7757.00,87.09              7757.00,87.09 7769.00,88.96 7769.00,88.96              7769.00,88.96 7789.00,88.96 7789.00,88.96              7789.00,88.96 7809.00,90.96 7809.00,90.96              7821.37,90.48 7825.92,86.98 7831.00,86.10              7831.00,86.10 7839.00,86.10 7839.00,86.10              7850.90,85.86 7861.19,79.91 7872.00,75.81              7881.90,72.05 7882.78,73.78 7889.00,72.07              7894.08,70.68 7895.72,68.41 7901.00,68.05              7908.81,67.53 7910.36,70.28 7917.00,71.53              7917.00,71.53 7926.00,72.46 7926.00,72.46              7926.00,72.46 7938.00,75.54 7938.00,75.54              7938.00,75.54 7958.00,78.46 7958.00,78.46              7967.76,80.41 7969.98,84.29 7983.00,83.99              7983.00,83.99 7993.00,82.79 7993.00,82.79              7993.00,82.79 8002.00,82.79 8002.00,82.79              8006.57,82.36 8008.52,81.03 8014.00,81.03              8018.43,81.03 8022.65,82.39 8027.00,83.00              8027.69,97.79 8034.12,98.16 8037.60,107.00              8041.47,116.83 8041.98,120.64 8042.00,131.00              8042.02,141.87 8044.03,142.47 8044.19,147.00              8044.19,147.00 8042.71,158.00 8042.71,158.00              8042.11,161.52 8040.07,169.04 8037.57,171.51              8034.77,174.27 8029.13,174.85 8022.33,183.00              8015.82,190.80 8017.31,193.42 8015.63,202.00              8014.54,207.55 8013.18,207.81 8013.01,215.00              8013.01,215.00 8013.61,227.00 8013.61,227.00              8013.61,227.00 8012.13,235.00 8012.13,235.00              8010.63,245.01 8009.67,259.66 8013.90,269.00              8017.33,276.55 8020.15,277.03 8024.39,282.17              8028.34,286.95 8028.54,288.83 8034.00,293.91              8034.00,293.91 8042.28,300.61 8042.28,300.61              8042.28,300.61 8046.48,309.00 8046.48,309.00              8048.74,312.79 8052.44,315.99 8053.57,320.00              8053.57,320.00 8055.93,334.00 8055.93,334.00              8057.46,339.50 8059.91,341.32 8060.79,346.00              8062.88,357.15 8056.66,360.64 8057.04,372.00              8057.04,372.00 8061.23,401.00 8061.23,401.00              8061.23,401.00 8061.23,413.00 8061.23,413.00              8061.23,413.00 8064.94,437.00 8064.94,437.00              8064.52,443.85 8058.42,448.90 8059.09,460.00              8059.28,463.06 8060.39,466.06 8060.11,469.00              8060.11,469.00 8054.15,494.00 8054.15,494.00              8054.15,494.00 8054.15,511.00 8054.15,511.00              8054.15,511.00 8056.00,529.00 8056.00,529.00              8056.00,529.00 8056.00,545.00 8056.00,545.00              8056.00,545.00 8056.66,554.00 8056.66,554.00              8056.66,554.00 8056.01,562.00 8056.01,562.00              8055.90,567.27 8057.48,577.78 8058.68,583.00              8058.68,583.00 8060.63,590.00 8060.63,590.00              8060.63,590.00 8061.30,602.00 8061.30,602.00              8061.30,602.00 8063.16,611.00 8063.16,611.00              8063.25,619.80 8054.28,623.78 8055.09,637.00              8055.09,637.00 8056.90,648.00 8056.90,648.00              8056.90,648.00 8056.04,661.00 8056.04,661.00              8056.04,661.00 8058.08,687.00 8058.08,687.00              8058.08,687.00 8058.08,698.00 8058.08,698.00              8058.08,698.00 8060.10,708.00 8060.10,708.00              8060.10,708.00 8060.10,719.00 8060.10,719.00              8060.10,719.00 8063.70,733.00 8063.70,733.00              8063.70,733.00 8064.25,756.00 8064.25,756.00              8064.25,756.00 8063.10,768.00 8063.10,768.00              8063.10,768.00 8063.10,778.00 8063.10,778.00              8063.10,778.00 8063.10,792.00 8063.10,792.00              8062.98,801.93 8061.92,799.99 8061.09,807.00              8061.09,807.00 8061.09,822.00 8061.09,822.00              8061.09,822.00 8062.99,840.00 8062.99,840.00              8062.99,840.00 8062.00,858.00 8062.00,858.00              8062.00,858.00 8065.24,880.00 8065.24,880.00              8065.24,880.00 8062.30,892.00 8062.30,892.00              8062.30,892.00 8061.00,920.00 8061.00,920.00              8061.00,920.00 8057.91,946.00 8057.91,946.00              8057.91,946.00 8057.91,965.00 8057.91,965.00              8057.91,965.00 8055.30,976.00 8055.30,976.00              8055.30,976.00 8054.54,984.00 8054.54,984.00              8054.54,984.00 8047.17,1010.00 8047.17,1010.00              8046.29,1018.22 8049.90,1025.83 8050.00,1034.00              8050.02,1036.33 8050.13,1039.84 8049.44,1042.00              8047.78,1047.21 8039.86,1053.23 8042.47,1067.00              8044.28,1076.58 8050.81,1081.05 8053.71,1087.00              8053.71,1087.00 8056.08,1094.00 8056.08,1094.00              8057.53,1098.25 8058.47,1099.27 8058.18,1104.00              8058.18,1104.00 8051.89,1139.00 8051.89,1139.00              8051.89,1139.00 8051.89,1149.00 8051.89,1149.00              8051.97,1150.75 8051.97,1152.28 8051.89,1154.00              8051.89,1154.00 8044.98,1171.00 8044.98,1171.00              8042.09,1175.57 8039.60,1177.28 8036.89,1183.00              8033.87,1189.38 8031.72,1199.90 8030.46,1207.00              8030.46,1207.00 8029.44,1214.00 8029.44,1214.00              8028.34,1217.40 8023.93,1222.25 8021.55,1229.00              8018.94,1236.38 8020.67,1241.11 8019.61,1246.00              8019.61,1246.00 8016.55,1254.00 8016.55,1254.00              8015.36,1257.37 8012.18,1270.59 8012.04,1274.00              8011.67,1283.07 8014.49,1285.88 8014.90,1292.00              8015.49,1300.49 8012.25,1304.15 8010.68,1311.00              8010.68,1311.00 8009.57,1325.00 8009.57,1325.00              8007.77,1337.40 8006.21,1332.11 8006.00,1348.00              8005.88,1356.40 8003.81,1356.03 8002.47,1363.00              7999.83,1376.64 8000.08,1388.19 8012.00,1397.47              8014.90,1399.72 8017.50,1401.04 8021.00,1402.09              8024.87,1403.24 8028.94,1404.16 8033.00,1403.91              8038.17,1403.59 8043.42,1401.07 8047.00,1401.82              8052.35,1402.95 8052.59,1406.62 8053.68,1411.00              8054.46,1414.18 8056.47,1418.07 8056.49,1421.00              8056.52,1424.10 8054.74,1427.20 8055.09,1433.00              8055.09,1433.00 8061.59,1459.00 8061.59,1459.00              8062.06,1464.25 8058.77,1468.20 8059.01,1479.00              8059.20,1487.14 8061.67,1490.10 8062.09,1494.00              8062.50,1497.68 8060.34,1501.31 8061.17,1510.00              8061.17,1510.00 8065.91,1541.00 8065.91,1541.00              8066.71,1552.70 8064.11,1553.76 8064.09,1563.00              8064.09,1563.00 8064.09,1576.00 8064.09,1576.00              8065.29,1586.48 8066.67,1583.94 8066.09,1597.00              8065.76,1604.38 8068.09,1607.18 8068.25,1611.00              8068.25,1611.00 8068.25,1618.00 8068.25,1618.00              8067.79,1624.65 8069.03,1626.13 8069.28,1630.00              8069.46,1633.60 8068.60,1636.12 8069.28,1641.00              8069.28,1641.00 8071.37,1651.00 8071.37,1651.00              8071.67,1655.36 8069.76,1657.58 8070.27,1664.00              8070.27,1664.00 8070.27,1670.00 8070.27,1670.00              8069.98,1674.01 8066.59,1677.89 8067.09,1686.00              8067.47,1692.16 8069.80,1694.27 8069.98,1701.00              8070.16,1707.32 8067.39,1719.24 8064.94,1725.00              8063.20,1729.10 8061.88,1729.91 8060.68,1735.00              8059.74,1739.01 8058.74,1746.95 8059.17,1751.00              8059.17,1751.00 8060.62,1760.00 8060.62,1760.00              8060.62,1760.00 8056.68,1774.00 8056.68,1774.00              8055.73,1778.21 8055.95,1785.48 8056.00,1790.00              8056.14,1801.51 8060.61,1803.73 8059.53,1809.00              8059.07,1811.27 8051.47,1823.11 8049.68,1826.00              8049.68,1826.00 8044.23,1836.00 8044.23,1836.00              8040.22,1842.64 8031.49,1855.92 8029.22,1863.00              8026.55,1871.37 8029.54,1875.51 8027.78,1882.00              8026.41,1887.05 8024.44,1889.61 8022.40,1894.00              8022.40,1894.00 8019.05,1904.00 8019.05,1904.00              8016.68,1909.62 8015.16,1909.57 8013.43,1917.00              8012.42,1921.32 8011.70,1925.55 8012.17,1930.00              8012.65,1934.55 8014.45,1938.20 8013.79,1943.00              8013.79,1943.00 8010.46,1954.00 8010.46,1954.00              8010.46,1954.00 8008.04,1969.00 8008.04,1969.00              8008.04,1969.00 8000.90,1987.00 8000.90,1987.00              8000.90,1987.00 7998.83,2006.00 7998.83,2006.00              7998.83,2006.00 7995.37,2023.00 7995.37,2023.00              7993.84,2029.66 7986.45,2036.29 7982.91,2043.00              7980.52,2047.54 7980.81,2049.50 7979.65,2054.00              7979.65,2054.00 7977.22,2061.00 7977.22,2061.00              7975.57,2066.38 7975.94,2073.32 7976.00,2079.00              7976.18,2094.16 7983.18,2098.26 7994.00,2106.80              7998.47,2110.34 8002.46,2114.00 8008.00,2115.78              8016.22,2118.41 8024.02,2115.43 8027.40,2118.74              8029.40,2120.69 8028.88,2124.40 8029.17,2127.00              8029.57,2130.64 8030.61,2133.85 8032.48,2137.00              8032.48,2137.00 8047.39,2158.00 8047.39,2158.00              8050.60,2162.99 8050.10,2166.05 8052.40,2171.00              8052.40,2171.00 8060.30,2187.00 8060.30,2187.00              8060.30,2187.00 8061.46,2195.00 8061.46,2195.00              8062.43,2200.47 8064.51,2210.70 8063.79,2216.00              8063.79,2216.00 8061.66,2224.00 8061.66,2224.00              8060.32,2229.28 8059.66,2232.40 8056.21,2236.96              8051.32,2243.42 8045.29,2243.02 8039.91,2253.00              8036.60,2259.15 8035.84,2275.26 8034.38,2283.00              8032.54,2292.72 8028.48,2293.23 8029.04,2306.00              8029.57,2318.18 8038.95,2329.26 8051.00,2331.53              8057.41,2332.75 8062.76,2331.51 8069.00,2331.00              8069.02,2337.82 8070.21,2354.69 8071.92,2361.00              8073.55,2367.04 8079.45,2386.70 8079.13,2392.00              8078.78,2397.83 8076.94,2403.38 8075.68,2409.00              8075.68,2409.00 8074.83,2418.00 8074.83,2418.00              8073.90,2426.58 8072.62,2423.05 8073.38,2434.00              8073.84,2440.54 8070.19,2441.63 8066.09,2446.01              8062.74,2449.59 8060.23,2453.23 8058.93,2458.00              8056.43,2467.11 8058.93,2472.63 8060.00,2481.00              8060.00,2481.00 8060.00,2489.00 8060.00,2489.00              8060.56,2492.61 8062.19,2496.52 8061.57,2500.00              8060.96,2503.43 8057.86,2507.58 8056.35,2511.00              8054.29,2515.65 8054.62,2518.52 8052.43,2522.00              8049.10,2527.28 8045.98,2528.51 8043.93,2536.00              8042.67,2540.60 8043.16,2543.49 8042.96,2548.00              8042.74,2553.09 8041.60,2555.25 8042.17,2561.00              8043.01,2569.54 8044.98,2569.95 8045.00,2581.00              8045.00,2581.00 8045.00,2596.00 8045.00,2596.00              8044.98,2608.37 8041.64,2607.05 8041.09,2616.00              8040.42,2626.85 8047.37,2636.97 8057.00,2641.60              8060.36,2643.21 8063.35,2643.69 8067.00,2644.00              8066.97,2654.27 8065.26,2654.61 8065.04,2661.00              8065.04,2661.00 8066.96,2679.00 8066.96,2679.00              8066.96,2679.00 8066.96,2691.00 8066.96,2691.00              8066.96,2691.00 8066.01,2700.00 8066.01,2700.00              8066.01,2700.00 8067.47,2721.00 8067.47,2721.00              8068.41,2726.03 8070.81,2730.50 8070.82,2736.00              8070.82,2736.00 8070.06,2756.00 8070.06,2756.00              8069.03,2760.03 8065.68,2762.89 8065.09,2771.00              8064.25,2782.53 8067.88,2785.17 8068.22,2790.00              8068.22,2790.00 8068.22,2804.00 8068.22,2804.00              8068.22,2804.00 8068.22,2816.00 8068.22,2816.00              8067.12,2820.27 8061.50,2825.52 8062.09,2836.00              8062.09,2836.00 8063.93,2853.00 8063.93,2853.00              8063.93,2853.00 8067.69,2863.00 8067.69,2863.00              8067.69,2863.00 8067.00,2874.00 8067.00,2874.00              8067.00,2874.00 8065.83,2894.00 8065.83,2894.00              8065.83,2894.00 8065.03,2902.00 8065.03,2902.00              8065.03,2902.00 8066.37,2920.00 8066.37,2920.00              8066.02,2923.74 8062.34,2931.71 8062.01,2946.00              8061.75,2957.81 8066.26,2963.11 8069.08,2974.00              8069.08,2974.00 8070.47,2986.00 8070.47,2986.00              8071.36,2990.79 8073.31,2994.28 8073.53,3000.00              8073.88,3004.53 8072.31,3006.19 8073.53,3014.00              8075.36,3027.46 8078.56,3028.15 8078.70,3033.00              8078.70,3033.00 8074.09,3060.00 8074.09,3060.00              8073.61,3067.09 8075.93,3071.75 8075.81,3076.00              8075.64,3082.08 8070.48,3085.93 8071.09,3096.00              8071.09,3096.00 8072.94,3105.00 8072.94,3105.00              8072.94,3105.00 8072.94,3114.00 8072.94,3114.00              8072.94,3114.00 8074.67,3123.00 8074.67,3123.00              8075.01,3126.93 8071.91,3138.29 8070.25,3142.00              8068.05,3146.92 8066.18,3147.81 8064.68,3154.00              8060.65,3170.59 8062.99,3171.75 8062.24,3177.00              8061.14,3184.60 8059.55,3182.87 8060.04,3194.00              8060.04,3194.00 8061.96,3208.00 8061.96,3208.00              8062.16,3213.03 8061.39,3214.63 8061.04,3219.00              8061.04,3219.00 8061.04,3235.00 8061.04,3235.00              8061.04,3235.00 8058.12,3261.00 8058.12,3261.00              8058.12,3261.00 8058.12,3287.00 8058.12,3287.00              8058.12,3287.00 8058.12,3297.00 8058.12,3297.00              8058.12,3297.00 8058.12,3305.00 8058.12,3305.00              8057.92,3321.86 8056.24,3313.90 8053.68,3325.00              8053.68,3325.00 8052.04,3342.00 8052.04,3342.00              8051.77,3350.64 8054.96,3354.07 8055.31,3358.00              8055.31,3358.00 8055.31,3368.00 8055.31,3368.00              8055.31,3368.00 8057.92,3390.00 8057.92,3390.00              8057.92,3390.00 8057.92,3403.00 8057.92,3403.00              8057.92,3403.00 8059.96,3420.00 8059.96,3420.00              8059.96,3420.00 8059.01,3434.00 8059.01,3434.00              8058.79,3443.73 8061.57,3449.41 8061.31,3453.00              8060.80,3460.31 8052.72,3467.86 8052.09,3478.00              8051.62,3485.59 8055.97,3493.40 8055.30,3498.00              8054.67,3502.35 8053.10,3502.39 8053.00,3511.00              8052.94,3516.20 8052.72,3520.95 8054.21,3526.00              8054.21,3526.00 8059.51,3539.00 8059.51,3539.00              8059.51,3539.00 8060.68,3549.00 8060.68,3549.00              8061.58,3553.00 8063.52,3556.87 8063.79,3561.00              8063.79,3561.00 8063.01,3574.00 8063.01,3574.00              8063.23,3583.23 8066.86,3587.35 8067.98,3594.00              8067.98,3594.00 8067.98,3601.00 8067.98,3601.00              8067.98,3601.00 8071.00,3635.00 8071.00,3635.00              8071.00,3635.00 8071.00,3644.00 8071.00,3644.00              8071.00,3644.00 8074.16,3670.00 8074.16,3670.00              8073.09,3680.81 8065.45,3682.33 8066.04,3697.00              8066.36,3705.04 8069.33,3706.95 8068.96,3716.00              8068.96,3716.00 8066.37,3733.00 8066.37,3733.00              8064.21,3740.89 8063.05,3739.43 8063.00,3749.00              8063.00,3749.00 8062.09,3766.00 8062.09,3766.00              8062.09,3766.00 8063.23,3773.00 8063.23,3773.00              8063.77,3777.99 8060.85,3779.74 8061.00,3793.00              8061.09,3800.60 8062.49,3801.31 8062.91,3807.00              8062.91,3807.00 8063.46,3822.00 8063.46,3822.00              8063.46,3822.00 8066.70,3841.00 8066.70,3841.00              8066.70,3841.00 8063.47,3852.00 8063.47,3852.00              8063.47,3852.00 8062.70,3864.00 8062.70,3864.00              8061.68,3871.15 8058.61,3879.90 8059.09,3887.00              8059.09,3887.00 8060.23,3894.00 8060.23,3894.00              8060.23,3894.00 8055.09,3926.00 8055.09,3926.00              8055.31,3929.91 8056.35,3939.52 8057.54,3943.00              8057.54,3943.00 8063.19,3957.00 8063.19,3957.00              8063.88,3960.90 8061.70,3963.63 8062.09,3970.00              8062.58,3977.87 8066.12,3980.85 8066.64,3985.00              8066.64,3985.00 8066.09,3995.00 8066.09,3995.00              8066.46,4001.42 8067.22,4012.03 8068.92,4018.00              8071.03,4025.37 8075.24,4028.01 8076.23,4034.00              8076.96,4038.43 8073.70,4048.65 8073.17,4054.00              8073.17,4054.00 8073.96,4072.00 8073.96,4072.00              8073.71,4076.80 8072.28,4078.67 8071.47,4083.00              8071.47,4083.00 8070.63,4091.00 8070.63,4091.00              8070.63,4091.00 8068.47,4099.00 8068.47,4099.00              8068.47,4099.00 8067.51,4111.00 8067.51,4111.00              8066.66,4114.15 8064.83,4116.03 8063.68,4121.00              8063.68,4121.00 8062.79,4129.00 8062.79,4129.00              8062.79,4129.00 8058.97,4147.00 8058.97,4147.00              8056.84,4152.85 8051.29,4155.34 8049.55,4165.00              8048.08,4172.33 8049.87,4178.20 8049.55,4183.00              8049.55,4183.00 8049.00,4198.00 8049.00,4198.00              8049.00,4198.00 8048.04,4213.00 8048.04,4213.00              8048.04,4213.00 8048.04,4230.00 8048.04,4230.00              8048.04,4230.00 8048.97,4239.00 8048.97,4239.00              8048.97,4239.00 8048.09,4248.00 8048.09,4248.00              8048.09,4248.00 8048.75,4259.00 8048.75,4259.00              8048.33,4262.94 8045.86,4265.71 8045.17,4272.00              8045.17,4272.00 8044.04,4289.00 8044.04,4289.00              8044.04,4289.00 8045.70,4299.00 8045.70,4299.00              8046.21,4302.42 8045.91,4304.29 8046.93,4308.00              8049.24,4316.42 8056.69,4324.12 8065.00,4326.78              8068.71,4327.96 8072.15,4328.07 8076.00,4327.99              8076.00,4327.99 8086.00,4327.00 8086.00,4327.00 Z"
            style="fill:#000000;fill-opacity:1"/>
</svg>
