<?xml version="1.0" encoding="UTF-8" standalone="no"?>
<svg
        width="169.948mm"
        height="125.667mm"
        viewBox="0 0 8029 5937"
        version="1.1"
        id="svg1086"
        sodipodi:docname="folio17a.svg"
        inkscape:version="1.1.1 (3bf5ae0d25, 2021-09-20)"
        xmlns:inkscape="http://www.inkscape.org/namespaces/inkscape"
        xmlns:sodipodi="http://sodipodi.sourceforge.net/DTD/sodipodi-0.dtd"
        xmlns="http://www.w3.org/2000/svg"
>
    <defs
            id="defs1090"/>
    <sodipodi:namedview
            id="namedview1088"
            pagecolor="#ffffff"
            bordercolor="#666666"
            borderopacity="1.0"
            inkscape:pageshadow="2"
            inkscape:pageopacity="0.0"
            inkscape:pagecheckerboard="0"
            inkscape:document-units="mm"
            showgrid="false"
            inkscape:zoom="1.647146"
            inkscape:cx="321.46513"
            inkscape:cy="237.68385"
            inkscape:window-width="1920"
            inkscape:window-height="1001"
            inkscape:window-x="-7"
            inkscape:window-y="-7"
            inkscape:window-maximized="1"
            inkscape:current-layer="svg1086"/>
    <path
            id="Selection #2"
            fill="none"
            stroke="black"
            stroke-width="1"
            d="M 7124.00,5747.00            C 7117.52,5747.87 7107.77,5750.85 7102.00,5750.49              7083.08,5749.29 7089.84,5751.35 7076.00,5753.00              7076.00,5753.00 7067.00,5753.00 7067.00,5753.00              7067.00,5753.00 7057.00,5754.83 7057.00,5754.83              7057.00,5754.83 7049.00,5755.51 7049.00,5755.51              7049.00,5755.51 7024.00,5761.57 7024.00,5761.57              7024.00,5761.57 7011.00,5766.64 7011.00,5766.64              7011.00,5766.64 6994.00,5770.88 6994.00,5770.88              6984.84,5773.06 6983.72,5774.98 6974.00,5775.00              6974.00,5775.00 6944.00,5775.00 6944.00,5775.00              6937.28,5775.01 6922.05,5776.55 6916.00,5778.93              6916.00,5778.93 6889.00,5792.26 6889.00,5792.26              6883.29,5794.20 6873.59,5797.90 6868.00,5798.85              6868.00,5798.85 6853.00,5798.85 6853.00,5798.85              6853.00,5798.85 6837.00,5800.17 6837.00,5800.17              6827.44,5801.17 6823.06,5804.87 6812.00,5805.00              6812.00,5805.00 6782.00,5805.00 6782.00,5805.00              6770.30,5804.86 6765.83,5800.57 6757.00,5799.07              6757.00,5799.07 6748.00,5799.07 6748.00,5799.07              6736.66,5797.75 6733.18,5797.48 6722.00,5794.29              6704.67,5789.34 6703.09,5784.39 6694.00,5781.93              6694.00,5781.93 6675.00,5780.00 6675.00,5780.00              6675.00,5780.00 6647.00,5774.50 6647.00,5774.50              6647.00,5774.50 6629.00,5768.72 6629.00,5768.72              6629.00,5768.72 6616.00,5765.71 6616.00,5765.71              6616.00,5765.71 6602.00,5760.52 6602.00,5760.52              6597.21,5758.94 6592.53,5758.47 6588.00,5756.09              6580.99,5752.40 6574.30,5745.44 6566.00,5745.13              6566.00,5745.13 6550.00,5747.57 6550.00,5747.57              6550.00,5747.57 6539.00,5748.18 6539.00,5748.18              6539.00,5748.18 6517.00,5754.43 6517.00,5754.43              6517.00,5754.43 6487.00,5764.92 6487.00,5764.92              6487.00,5764.92 6478.00,5764.92 6478.00,5764.92              6478.00,5764.92 6464.00,5767.94 6464.00,5767.94              6464.00,5767.94 6452.00,5767.94 6452.00,5767.94              6446.34,5768.78 6440.76,5771.12 6435.00,5770.68              6435.00,5770.68 6424.00,5769.08 6424.00,5769.08              6424.00,5769.08 6412.00,5769.08 6412.00,5769.08              6412.00,5769.08 6391.00,5767.08 6391.00,5767.08              6391.00,5767.08 6376.00,5767.08 6376.00,5767.08              6370.88,5767.68 6367.55,5769.22 6362.00,5768.91              6362.00,5768.91 6351.00,5768.04 6351.00,5768.04              6351.00,5768.04 6339.00,5769.00 6339.00,5769.00              6339.00,5769.00 6311.00,5769.00 6311.00,5769.00              6304.37,5768.99 6290.41,5766.96 6284.00,5765.24              6284.00,5765.24 6275.00,5762.21 6275.00,5762.21              6275.00,5762.21 6263.00,5759.35 6263.00,5759.35              6256.52,5756.39 6252.33,5746.68 6248.22,5741.00              6239.78,5729.36 6228.68,5720.85 6214.00,5721.00              6206.45,5721.08 6186.43,5724.93 6179.00,5727.20              6179.00,5727.20 6166.00,5731.57 6166.00,5731.57              6166.00,5731.57 6152.00,5734.91 6152.00,5734.91              6152.00,5734.91 6139.00,5739.11 6139.00,5739.11              6139.00,5739.11 6124.00,5742.52 6124.00,5742.52              6124.00,5742.52 6108.00,5749.00 6108.00,5749.00              6108.00,5749.00 6085.00,5757.31 6085.00,5757.31              6085.00,5757.31 6057.00,5765.68 6057.00,5765.68              6057.00,5765.68 6046.00,5766.29 6046.00,5766.29              6046.00,5766.29 6028.00,5769.57 6028.00,5769.57              6028.00,5769.57 6011.00,5772.01 6011.00,5772.01              6011.00,5772.01 5956.00,5788.54 5956.00,5788.54              5943.73,5790.75 5936.46,5788.02 5925.00,5788.00              5925.00,5788.00 5879.00,5788.00 5879.00,5788.00              5879.00,5788.00 5868.00,5788.87 5868.00,5788.87              5862.59,5788.67 5859.73,5786.01 5851.00,5786.01              5851.00,5786.01 5825.00,5788.08 5825.00,5788.08              5825.00,5788.08 5814.00,5788.08 5814.00,5788.08              5814.00,5788.08 5788.00,5792.91 5788.00,5792.91              5781.33,5793.37 5778.95,5792.49 5773.00,5792.04              5773.00,5792.04 5757.00,5792.04 5757.00,5792.04              5757.00,5792.04 5721.00,5795.08 5721.00,5795.08              5721.00,5795.08 5707.00,5795.08 5707.00,5795.08              5707.00,5795.08 5689.00,5797.00 5689.00,5797.00              5689.00,5797.00 5675.00,5797.00 5675.00,5797.00              5675.00,5797.00 5633.00,5792.00 5633.00,5792.00              5633.00,5792.00 5611.00,5792.00 5611.00,5792.00              5611.00,5792.00 5598.00,5792.91 5598.00,5792.91              5598.00,5792.91 5588.00,5792.00 5588.00,5792.00              5588.00,5792.00 5551.00,5796.00 5551.00,5796.00              5551.00,5796.00 5515.00,5798.83 5515.00,5798.83              5515.00,5798.83 5495.00,5800.17 5495.00,5800.17              5486.07,5801.06 5488.71,5801.87 5477.00,5802.00              5477.00,5802.00 5464.00,5803.00 5464.00,5803.00              5464.00,5803.00 5442.00,5803.00 5442.00,5803.00              5442.00,5803.00 5428.00,5803.97 5428.00,5803.97              5428.00,5803.97 5412.00,5802.01 5412.00,5802.01              5407.15,5801.90 5405.48,5802.40 5401.00,5802.96              5401.00,5802.96 5391.00,5802.96 5391.00,5802.96              5391.00,5802.96 5378.00,5804.00 5378.00,5804.00              5378.00,5804.00 5368.00,5803.04 5368.00,5803.04              5368.00,5803.04 5357.00,5803.04 5357.00,5803.04              5357.00,5803.04 5344.00,5802.00 5344.00,5802.00              5321.02,5801.73 5325.24,5808.97 5307.00,5809.00              5307.00,5809.00 5273.00,5809.00 5273.00,5809.00              5264.65,5809.01 5265.14,5809.78 5258.00,5810.71              5258.00,5810.71 5234.00,5811.96 5234.00,5811.96              5234.00,5811.96 5216.00,5810.09 5216.00,5810.09              5216.00,5810.09 5201.00,5812.87 5201.00,5812.87              5193.27,5813.98 5185.81,5814.91 5178.00,5815.00              5178.00,5815.00 5163.00,5816.00 5163.00,5816.00              5163.00,5816.00 5121.00,5816.00 5121.00,5816.00              5121.00,5816.00 5106.00,5815.00 5106.00,5815.00              5106.00,5815.00 5094.00,5815.00 5094.00,5815.00              5094.00,5815.00 5063.00,5817.82 5063.00,5817.82              5063.00,5817.82 5043.00,5816.03 5043.00,5816.03              5043.00,5816.03 5027.00,5817.00 5027.00,5817.00              5027.00,5817.00 5013.00,5816.04 5013.00,5816.04              5013.00,5816.04 5004.00,5816.96 5004.00,5816.96              5004.00,5816.96 4986.00,5815.91 4986.00,5815.91              4986.00,5815.91 4961.00,5813.91 4961.00,5813.91              4961.00,5813.91 4951.00,5813.00 4951.00,5813.00              4944.21,5812.92 4938.77,5813.00 4932.00,5811.49              4932.00,5811.49 4920.00,5808.01 4920.00,5808.01              4920.00,5808.01 4909.00,5808.01 4909.00,5808.01              4909.00,5808.01 4901.00,5806.30 4901.00,5806.30              4901.00,5806.30 4876.00,5804.04 4876.00,5804.04              4876.00,5804.04 4859.00,5804.99 4859.00,5804.99              4859.00,5804.99 4850.00,5803.96 4850.00,5803.96              4850.00,5803.96 4840.00,5803.96 4840.00,5803.96              4835.46,5803.34 4832.92,5801.83 4828.00,5802.18              4828.00,5802.18 4815.00,5803.00 4815.00,5803.00              4815.00,5803.00 4797.00,5804.83 4797.00,5804.83              4797.00,5804.83 4775.00,5806.00 4775.00,5806.00              4775.00,5806.00 4755.00,5807.46 4755.00,5807.46              4755.00,5807.46 4744.00,5809.82 4744.00,5809.82              4744.00,5809.82 4732.00,5809.18 4732.00,5809.18              4727.76,5809.50 4724.48,5811.03 4720.00,5810.68              4720.00,5810.68 4700.00,5809.00 4700.00,5809.00              4688.59,5809.02 4684.44,5811.45 4674.00,5813.55              4664.79,5815.40 4662.91,5814.90 4654.00,5815.00              4647.05,5815.09 4645.76,5816.23 4640.00,5816.83              4640.00,5816.83 4618.00,5818.00 4618.00,5818.00              4618.00,5818.00 4592.00,5819.30 4592.00,5819.30              4583.76,5820.48 4584.24,5821.98 4574.00,5822.00              4574.00,5822.00 4552.00,5822.00 4552.00,5822.00              4552.00,5822.00 4535.00,5823.00 4535.00,5823.00              4535.00,5823.00 4520.00,5823.00 4520.00,5823.00              4520.00,5823.00 4497.00,5824.00 4497.00,5824.00              4497.00,5824.00 4487.00,5823.04 4487.00,5823.04              4487.00,5823.04 4471.00,5823.04 4471.00,5823.04              4471.00,5823.04 4454.00,5824.00 4454.00,5824.00              4454.00,5824.00 4434.00,5824.00 4434.00,5824.00              4434.00,5824.00 4418.00,5825.00 4418.00,5825.00              4418.00,5825.00 4391.00,5825.00 4391.00,5825.00              4391.00,5825.00 4374.00,5826.00 4374.00,5826.00              4374.00,5826.00 4355.00,5826.00 4355.00,5826.00              4355.00,5826.00 4340.00,5825.00 4340.00,5825.00              4340.00,5825.00 4322.00,5825.00 4322.00,5825.00              4322.00,5825.00 4297.00,5827.00 4297.00,5827.00              4297.00,5827.00 4241.00,5828.00 4241.00,5828.00              4241.00,5828.00 4218.00,5826.00 4218.00,5826.00              4218.00,5826.00 4200.00,5827.08 4200.00,5827.08              4200.00,5827.08 4189.00,5827.08 4189.00,5827.08              4184.55,5827.59 4181.76,5828.43 4177.00,5828.13              4177.00,5828.13 4154.00,5828.13 4154.00,5828.13              4154.00,5828.13 4141.00,5829.06 4141.00,5829.06              4141.00,5829.06 4129.00,5829.06 4129.00,5829.06              4129.00,5829.06 4118.00,5830.66 4118.00,5830.66              4118.00,5830.66 4098.00,5829.09 4098.00,5829.09              4092.08,5828.76 4088.96,5831.04 4083.00,5828.47              4077.78,5826.21 4072.92,5820.90 4068.00,5817.60              4061.29,5813.09 4054.03,5811.10 4046.00,5811.00              4032.66,5810.85 4019.46,5811.52 4007.00,5816.87              3997.97,5820.75 3992.45,5826.45 3985.00,5828.78              3985.00,5828.78 3954.00,5832.00 3954.00,5832.00              3954.00,5832.00 3950.00,5832.00 3950.00,5832.00              3950.00,5832.00 3935.00,5831.00 3935.00,5831.00              3935.00,5831.00 3929.00,5831.00 3929.00,5831.00              3929.00,5831.00 3874.00,5827.21 3874.00,5827.21              3874.00,5827.21 3858.00,5830.57 3858.00,5830.57              3847.38,5832.35 3845.33,5831.95 3835.00,5832.00              3827.66,5832.04 3827.31,5832.89 3821.00,5833.94              3821.00,5833.94 3813.00,5833.94 3813.00,5833.94              3803.33,5835.14 3806.46,5835.86 3794.00,5836.00              3794.00,5836.00 3770.00,5838.00 3770.00,5838.00              3770.00,5838.00 3741.00,5839.09 3741.00,5839.09              3741.00,5839.09 3730.00,5839.96 3730.00,5839.96              3730.00,5839.96 3717.00,5839.00 3717.00,5839.00              3717.00,5839.00 3700.00,5839.00 3700.00,5839.00              3689.64,5839.13 3690.08,5841.98 3678.00,5842.00              3678.00,5842.00 3642.00,5840.00 3642.00,5840.00              3642.00,5840.00 3622.00,5838.71 3622.00,5838.71              3622.00,5838.71 3611.00,5837.09 3611.00,5837.09              3611.00,5837.09 3595.00,5838.00 3595.00,5838.00              3595.00,5838.00 3565.00,5838.00 3565.00,5838.00              3565.00,5838.00 3536.00,5835.18 3536.00,5835.18              3536.00,5835.18 3524.00,5836.00 3524.00,5836.00              3524.00,5836.00 3500.00,5836.00 3500.00,5836.00              3500.00,5836.00 3487.00,5836.79 3487.00,5836.79              3487.00,5836.79 3445.00,5833.91 3445.00,5833.91              3445.00,5833.91 3433.00,5833.01 3433.00,5833.01              3433.00,5833.01 3401.00,5835.49 3401.00,5835.49              3401.00,5835.49 3378.00,5834.00 3378.00,5834.00              3378.00,5834.00 3334.00,5834.00 3334.00,5834.00              3334.00,5834.00 3297.00,5837.00 3297.00,5837.00              3297.00,5837.00 3281.00,5836.00 3281.00,5836.00              3281.00,5836.00 3236.00,5840.99 3236.00,5840.99              3236.00,5840.99 3222.00,5840.00 3222.00,5840.00              3222.00,5840.00 3202.00,5840.00 3202.00,5840.00              3202.00,5840.00 3185.00,5838.10 3185.00,5838.10              3185.00,5838.10 3163.00,5841.83 3163.00,5841.83              3163.00,5841.83 3124.00,5844.00 3124.00,5844.00              3124.00,5844.00 3111.00,5843.09 3111.00,5843.09              3111.00,5843.09 3092.00,5845.14 3092.00,5845.14              3092.00,5845.14 3078.00,5845.14 3078.00,5845.14              3069.32,5846.42 3068.20,5847.98 3058.00,5848.00              3058.00,5848.00 3034.00,5848.00 3034.00,5848.00              3034.00,5848.00 3012.00,5846.18 3012.00,5846.18              3012.00,5846.18 2995.00,5847.96 2995.00,5847.96              2995.00,5847.96 2978.00,5847.96 2978.00,5847.96              2978.00,5847.96 2960.00,5848.91 2960.00,5848.91              2960.00,5848.91 2944.00,5847.00 2944.00,5847.00              2944.00,5847.00 2936.00,5847.00 2936.00,5847.00              2931.50,5846.40 2929.88,5845.90 2925.00,5846.01              2925.00,5846.01 2910.00,5847.00 2910.00,5847.00              2910.00,5847.00 2897.00,5846.09 2897.00,5846.09              2897.00,5846.09 2887.00,5846.96 2887.00,5846.96              2887.00,5846.96 2876.00,5846.00 2876.00,5846.00              2876.00,5846.00 2850.00,5846.00 2850.00,5846.00              2850.00,5846.00 2834.00,5845.04 2834.00,5845.04              2834.00,5845.04 2821.00,5846.00 2821.00,5846.00              2821.00,5846.00 2794.00,5846.00 2794.00,5846.00              2794.00,5846.00 2775.00,5845.00 2775.00,5845.00              2775.00,5845.00 2763.00,5845.97 2763.00,5845.97              2763.00,5845.97 2749.00,5845.00 2749.00,5845.00              2749.00,5845.00 2724.00,5846.00 2724.00,5846.00              2724.00,5846.00 2713.00,5845.04 2713.00,5845.04              2713.00,5845.04 2700.00,5845.04 2700.00,5845.04              2700.00,5845.04 2686.00,5843.09 2686.00,5843.09              2686.00,5843.09 2669.00,5843.09 2669.00,5843.09              2669.00,5843.09 2646.00,5846.83 2646.00,5846.83              2646.00,5846.83 2625.00,5846.08 2625.00,5846.08              2625.00,5846.08 2612.00,5846.08 2612.00,5846.08              2612.00,5846.08 2595.00,5847.66 2595.00,5847.66              2595.00,5847.66 2588.00,5847.02 2588.00,5847.02              2588.00,5847.02 2569.00,5847.02 2569.00,5847.02              2569.00,5847.02 2539.00,5843.04 2539.00,5843.04              2523.98,5843.52 2518.20,5847.47 2511.00,5848.84              2511.00,5848.84 2499.00,5848.84 2499.00,5848.84              2499.00,5848.84 2468.00,5851.00 2468.00,5851.00              2468.00,5851.00 2437.00,5851.00 2437.00,5851.00              2437.00,5851.00 2427.00,5850.09 2427.00,5850.09              2427.00,5850.09 2402.00,5849.00 2402.00,5849.00              2402.00,5849.00 2380.00,5851.00 2380.00,5851.00              2380.00,5851.00 2347.00,5853.00 2347.00,5853.00              2347.00,5853.00 2328.00,5854.00 2328.00,5854.00              2328.00,5854.00 2309.00,5852.17 2309.00,5852.17              2309.00,5852.17 2271.00,5850.00 2271.00,5850.00              2260.78,5850.13 2256.67,5854.28 2249.00,5855.16              2249.00,5855.16 2234.00,5854.17 2234.00,5854.17              2234.00,5854.17 2198.00,5858.00 2198.00,5858.00              2198.00,5858.00 2176.00,5858.00 2176.00,5858.00              2176.00,5858.00 2162.00,5857.04 2162.00,5857.04              2162.00,5857.04 2149.00,5857.96 2149.00,5857.96              2149.00,5857.96 2130.00,5856.05 2130.00,5856.05              2130.00,5856.05 2114.00,5856.05 2114.00,5856.05              2114.00,5856.05 2096.00,5857.91 2096.00,5857.91              2096.00,5857.91 2082.00,5857.91 2082.00,5857.91              2082.00,5857.91 2069.00,5857.01 2069.00,5857.01              2069.00,5857.01 2058.00,5857.92 2058.00,5857.92              2058.00,5857.92 2047.00,5857.09 2047.00,5857.09              2047.00,5857.09 2040.00,5858.10 2040.00,5858.10              2040.00,5858.10 2030.00,5858.10 2030.00,5858.10              2023.01,5859.20 2023.24,5860.08 2015.00,5860.00              2015.00,5860.00 1985.00,5858.00 1985.00,5858.00              1985.00,5858.00 1966.00,5858.00 1966.00,5858.00              1954.38,5857.98 1953.72,5855.62 1946.00,5855.09              1946.00,5855.09 1930.00,5855.99 1930.00,5855.99              1930.00,5855.99 1921.00,5855.18 1921.00,5855.18              1921.00,5855.18 1914.00,5856.00 1914.00,5856.00              1914.00,5856.00 1905.00,5856.00 1905.00,5856.00              1905.00,5856.00 1894.00,5857.71 1894.00,5857.71              1894.00,5857.71 1878.00,5858.43 1878.00,5858.43              1878.00,5858.43 1857.00,5855.04 1857.00,5855.04              1857.00,5855.04 1827.00,5858.00 1827.00,5858.00              1827.00,5858.00 1793.00,5859.82 1793.00,5859.82              1793.00,5859.82 1770.00,5857.10 1770.00,5857.10              1770.00,5857.10 1760.00,5858.94 1760.00,5858.94              1760.00,5858.94 1747.00,5858.94 1747.00,5858.94              1739.54,5859.97 1741.96,5861.12 1731.00,5861.00              1731.00,5861.00 1716.00,5859.16 1716.00,5859.16              1716.00,5859.16 1701.00,5857.83 1701.00,5857.83              1696.89,5857.43 1695.57,5856.86 1691.00,5857.04              1691.00,5857.04 1678.00,5858.15 1678.00,5858.15              1678.00,5858.15 1661.00,5858.15 1661.00,5858.15              1661.00,5858.15 1647.00,5861.82 1647.00,5861.82              1647.00,5861.82 1624.00,5863.09 1624.00,5863.09              1624.00,5863.09 1605.00,5864.91 1605.00,5864.91              1605.00,5864.91 1579.00,5863.01 1579.00,5863.01              1579.00,5863.01 1570.00,5863.96 1570.00,5863.96              1570.00,5863.96 1560.00,5863.96 1560.00,5863.96              1560.00,5863.96 1536.00,5865.96 1536.00,5865.96              1536.00,5865.96 1518.00,5865.96 1518.00,5865.96              1518.00,5865.96 1510.00,5865.04 1510.00,5865.04              1510.00,5865.04 1497.00,5865.82 1497.00,5865.82              1497.00,5865.82 1487.00,5864.08 1487.00,5864.08              1487.00,5864.08 1473.00,5864.08 1473.00,5864.08              1464.38,5864.01 1466.09,5864.69 1459.00,5865.70              1459.00,5865.70 1436.00,5867.96 1436.00,5867.96              1436.00,5867.96 1409.00,5866.03 1409.00,5866.03              1409.00,5866.03 1382.00,5868.79 1382.00,5868.79              1382.00,5868.79 1365.00,5867.09 1365.00,5867.09              1365.00,5867.09 1341.00,5868.82 1341.00,5868.82              1341.00,5868.82 1328.00,5868.00 1328.00,5868.00              1314.04,5867.98 1283.27,5860.30 1271.00,5853.69              1261.78,5848.72 1259.52,5845.61 1252.00,5839.21              1252.00,5839.21 1243.39,5832.67 1243.39,5832.67              1243.39,5832.67 1236.67,5823.00 1236.67,5823.00              1230.77,5815.88 1223.44,5811.56 1214.00,5812.09              1214.00,5812.09 1207.00,5813.04 1207.00,5813.04              1207.00,5813.04 1197.00,5813.04 1197.00,5813.04              1197.00,5813.04 1178.00,5815.83 1178.00,5815.83              1178.00,5815.83 1155.00,5817.17 1155.00,5817.17              1155.00,5817.17 1143.00,5819.07 1143.00,5819.07              1143.00,5819.07 1132.00,5819.07 1132.00,5819.07              1132.00,5819.07 1127.00,5819.07 1127.00,5819.07              1127.00,5819.07 1090.00,5814.00 1090.00,5814.00              1090.00,5814.00 1084.00,5814.00 1084.00,5814.00              1084.00,5814.00 1064.00,5815.96 1064.00,5815.96              1064.00,5815.96 1049.00,5815.00 1049.00,5815.00              1049.00,5815.00 1024.00,5816.16 1024.00,5816.16              1024.00,5816.16 1008.00,5817.82 1008.00,5817.82              1008.00,5817.82 1002.00,5817.18 1002.00,5817.18              1002.00,5817.18 965.00,5822.00 965.00,5822.00              959.84,5822.06 951.78,5822.36 947.00,5821.07              940.45,5819.31 935.67,5815.57 928.00,5815.09              922.92,5814.78 918.01,5816.35 913.00,5816.83              913.00,5816.83 902.00,5817.52 902.00,5817.52              902.00,5817.52 887.00,5821.99 887.00,5821.99              887.00,5821.99 872.00,5824.74 872.00,5824.74              872.00,5824.74 854.00,5830.50 854.00,5830.50              854.00,5830.50 841.00,5832.61 841.00,5832.61              841.00,5832.61 828.00,5835.94 828.00,5835.94              828.00,5835.94 817.00,5835.94 817.00,5835.94              817.00,5835.94 807.00,5837.83 807.00,5837.83              807.00,5837.83 778.00,5839.00 778.00,5839.00              769.04,5839.01 769.11,5840.12 762.00,5841.06              762.00,5841.06 753.00,5841.06 753.00,5841.06              743.42,5842.67 747.39,5843.94 736.00,5843.18              728.32,5842.67 718.61,5846.67 711.00,5848.19              711.00,5848.19 675.00,5855.44 675.00,5855.44              675.00,5855.44 642.00,5867.97 642.00,5867.97              632.07,5871.11 632.20,5869.27 625.00,5870.30              625.00,5870.30 598.00,5874.90 598.00,5874.90              598.00,5874.90 568.00,5884.73 568.00,5884.73              558.99,5885.20 550.40,5880.61 542.00,5878.51              542.00,5878.51 518.00,5875.83 518.00,5875.83              510.77,5875.07 510.98,5874.01 502.00,5874.00              502.00,5874.00 485.00,5874.00 485.00,5874.00              485.00,5874.00 458.00,5870.43 458.00,5870.43              458.00,5870.43 449.00,5869.71 449.00,5869.71              443.40,5868.98 441.25,5867.79 435.00,5868.04              429.73,5868.25 425.77,5870.07 421.00,5869.52              409.41,5868.21 398.72,5860.25 385.00,5861.09              376.95,5861.59 371.93,5866.00 362.00,5867.78              362.00,5867.78 321.00,5867.78 321.00,5867.78              307.92,5867.84 303.73,5860.99 292.00,5859.30              286.57,5858.52 284.81,5859.48 280.00,5859.82              280.00,5859.82 269.00,5859.18 269.00,5859.18              263.95,5859.55 259.13,5861.20 254.00,5860.91              254.00,5860.91 240.00,5860.00 240.00,5860.00              228.49,5859.98 222.43,5856.84 212.00,5852.81              208.21,5851.35 202.20,5849.67 199.00,5847.78              199.00,5847.78 191.00,5841.60 191.00,5841.60              185.37,5837.48 176.03,5832.77 169.00,5832.43              162.58,5831.65 157.83,5835.03 153.04,5832.43              146.10,5829.25 148.33,5821.96 148.84,5816.00              149.23,5811.24 147.32,5806.66 148.84,5802.00              150.83,5795.98 157.61,5790.43 156.91,5779.00              156.51,5772.48 153.84,5769.29 153.18,5764.00              153.18,5764.00 152.56,5755.00 152.56,5755.00              152.56,5755.00 148.29,5734.00 148.29,5734.00              148.29,5734.00 147.54,5721.00 147.54,5721.00              147.54,5721.00 142.32,5700.00 142.32,5700.00              142.32,5700.00 141.53,5688.00 141.53,5688.00              141.53,5688.00 138.30,5676.00 138.30,5676.00              138.30,5676.00 137.00,5657.00 137.00,5657.00              137.00,5657.00 137.92,5646.00 137.92,5646.00              137.92,5646.00 135.33,5629.00 135.33,5629.00              135.33,5629.00 136.00,5614.00 136.00,5614.00              136.00,5614.00 135.00,5596.00 135.00,5596.00              135.00,5596.00 135.96,5581.00 135.96,5581.00              135.96,5581.00 135.00,5570.00 135.00,5570.00              134.83,5554.23 137.80,5555.26 140.84,5544.00              140.84,5544.00 142.79,5532.00 142.79,5532.00              144.72,5525.18 147.24,5523.60 146.96,5515.00              146.50,5501.42 138.22,5498.81 136.39,5491.00              136.39,5491.00 134.83,5476.00 134.83,5476.00              134.83,5476.00 132.00,5453.00 132.00,5453.00              132.00,5453.00 132.00,5432.00 132.00,5432.00              132.00,5432.00 130.71,5417.00 130.71,5417.00              130.71,5417.00 131.92,5408.00 131.92,5408.00              131.92,5408.00 131.92,5399.00 131.92,5399.00              131.99,5390.02 130.93,5390.23 130.17,5383.00              130.17,5383.00 128.83,5366.00 128.83,5366.00              128.44,5361.91 127.86,5360.55 128.04,5356.00              128.04,5356.00 130.00,5340.00 130.00,5340.00              130.00,5340.00 129.09,5321.00 129.09,5321.00              129.09,5321.00 130.68,5303.00 130.68,5303.00              130.68,5303.00 129.00,5291.00 129.00,5291.00              129.00,5291.00 129.00,5283.00 129.00,5283.00              127.93,5274.58 126.98,5277.62 127.00,5266.00              127.00,5266.00 128.00,5251.00 128.00,5251.00              128.00,5251.00 128.00,5232.00 128.00,5232.00              128.00,5232.00 127.04,5218.00 127.04,5218.00              127.04,5218.00 127.91,5207.00 127.91,5207.00              127.91,5207.00 126.89,5200.00 126.89,5200.00              126.89,5200.00 126.89,5191.00 126.89,5191.00              125.83,5184.91 125.03,5185.25 125.00,5178.00              125.00,5178.00 125.00,5174.00 125.00,5174.00              125.00,5174.00 126.00,5159.00 126.00,5159.00              126.00,5159.00 126.00,5154.00 126.00,5154.00              126.00,5154.00 122.00,5123.00 122.00,5123.00              122.00,5123.00 122.00,5118.00 122.00,5118.00              122.00,5118.00 123.96,5095.00 123.96,5095.00              123.96,5095.00 123.04,5080.00 123.04,5080.00              123.04,5080.00 123.96,5068.00 123.96,5068.00              123.96,5068.00 122.00,5046.00 122.00,5046.00              122.00,5046.00 122.00,5029.00 122.00,5029.00              122.00,5029.00 121.04,5018.00 121.04,5018.00              121.04,5018.00 121.99,5001.00 121.99,5001.00              121.99,5001.00 120.00,4970.00 120.00,4970.00              120.00,4970.00 120.00,4944.00 120.00,4944.00              120.00,4944.00 118.00,4912.00 118.00,4912.00              118.00,4912.00 118.00,4877.00 118.00,4877.00              118.00,4877.00 120.96,4838.00 120.96,4838.00              120.96,4838.00 120.00,4828.00 120.00,4828.00              120.00,4828.00 120.00,4819.00 120.00,4819.00              120.00,4819.00 119.00,4807.00 119.00,4807.00              119.00,4807.00 119.00,4790.00 119.00,4790.00              119.00,4790.00 118.00,4770.00 118.00,4770.00              118.00,4770.00 120.00,4751.00 120.00,4751.00              120.00,4751.00 120.70,4727.00 120.70,4727.00              119.19,4716.74 115.02,4718.25 115.00,4703.00              115.00,4703.00 115.00,4699.00 115.00,4699.00              115.00,4699.00 115.66,4690.00 115.66,4690.00              115.66,4690.00 115.00,4677.00 115.00,4677.00              115.00,4677.00 115.99,4663.00 115.99,4663.00              115.99,4663.00 115.00,4650.00 115.00,4650.00              115.00,4650.00 114.09,4636.00 114.09,4636.00              114.09,4636.00 112.83,4615.00 112.83,4615.00              112.12,4607.89 111.01,4607.96 111.00,4599.00              111.00,4599.00 111.00,4575.00 111.00,4575.00              111.00,4575.00 113.68,4550.00 113.68,4550.00              113.68,4550.00 112.09,4528.00 112.09,4528.00              112.09,4528.00 114.82,4504.00 114.82,4504.00              114.82,4504.00 114.00,4473.00 114.00,4473.00              114.02,4457.39 118.23,4463.34 118.00,4443.00              117.82,4427.59 111.81,4426.74 112.00,4410.00              112.00,4410.00 113.00,4395.00 113.00,4395.00              113.00,4395.00 113.00,4375.00 113.00,4375.00              113.00,4375.00 112.05,4363.00 112.05,4363.00              112.05,4363.00 112.05,4350.00 112.05,4350.00              112.05,4350.00 113.82,4331.00 113.82,4331.00              113.82,4331.00 111.08,4308.00 111.08,4308.00              111.08,4308.00 111.08,4295.00 111.08,4295.00              110.98,4285.07 109.92,4287.01 109.09,4280.00              109.09,4280.00 109.09,4265.00 109.09,4265.00              108.98,4249.79 103.41,4238.64 103.04,4227.00              103.04,4227.00 105.00,4209.00 105.00,4209.00              105.08,4202.11 104.01,4181.15 102.62,4175.00              102.62,4175.00 98.31,4163.00 98.31,4163.00              96.73,4155.08 96.04,4147.05 96.00,4139.00              96.00,4139.00 95.01,4126.00 95.01,4126.00              94.69,4111.75 100.36,4108.51 99.90,4099.00              99.54,4091.60 95.95,4087.65 94.63,4083.00              94.63,4083.00 93.00,4061.00 93.00,4061.00              93.00,4061.00 94.00,4036.00 94.00,4036.00              94.00,4036.00 93.04,4021.00 93.04,4021.00              93.04,4021.00 93.04,4009.00 93.04,4009.00              93.04,4009.00 93.96,4001.00 93.96,4001.00              93.96,4001.00 93.00,3985.00 93.00,3985.00              93.00,3985.00 92.00,3951.00 92.00,3951.00              91.98,3938.65 89.63,3939.25 88.10,3930.00              88.10,3930.00 88.10,3922.00 88.10,3922.00              88.10,3922.00 85.24,3904.00 85.24,3904.00              83.98,3899.09 78.75,3888.43 76.08,3884.00              73.97,3880.51 70.82,3876.90 69.65,3873.00              68.83,3870.29 69.01,3866.84 69.00,3864.00              68.97,3857.93 67.66,3848.66 65.54,3843.00              65.54,3843.00 56.79,3823.00 56.79,3823.00              56.79,3823.00 54.18,3800.00 54.18,3800.00              54.46,3796.03 55.14,3794.63 54.96,3790.00              54.45,3776.95 52.63,3775.89 57.03,3762.00              57.03,3762.00 67.55,3736.00 67.55,3736.00              67.55,3736.00 71.00,3717.00 71.00,3717.00              71.00,3717.00 71.00,3707.00 71.00,3707.00              71.76,3701.46 72.91,3701.45 73.00,3694.00              73.12,3683.23 77.06,3663.71 79.88,3653.00              79.88,3653.00 84.70,3635.00 84.70,3635.00              85.52,3629.09 83.76,3626.91 84.09,3621.00              84.09,3621.00 85.96,3604.00 85.96,3604.00              85.96,3604.00 85.00,3589.00 85.00,3589.00              85.00,3589.00 86.00,3570.00 86.00,3570.00              86.00,3570.00 84.04,3541.00 84.04,3541.00              83.72,3532.71 86.52,3529.86 83.46,3521.00              78.89,3507.77 70.07,3500.22 69.77,3485.00              69.77,3485.00 69.77,3467.00 69.77,3467.00              69.77,3467.00 65.53,3454.00 65.53,3454.00              64.80,3450.80 64.96,3444.49 65.00,3441.00              65.00,3441.00 66.44,3421.00 66.44,3421.00              66.44,3421.00 69.39,3407.00 69.39,3407.00              69.39,3407.00 70.51,3399.00 70.51,3399.00              70.51,3399.00 72.54,3391.00 72.54,3391.00              72.54,3391.00 74.42,3373.00 74.42,3373.00              75.60,3364.49 76.96,3358.77 77.00,3350.00              77.07,3336.22 82.15,3325.68 86.26,3313.00              92.03,3295.15 94.22,3287.91 94.00,3269.00              94.00,3269.00 91.04,3245.00 91.04,3245.00              91.04,3245.00 92.97,3228.00 92.97,3228.00              92.97,3228.00 91.09,3206.00 91.09,3206.00              91.09,3206.00 90.00,3164.00 90.00,3164.00              90.00,3164.00 88.18,3135.00 88.18,3135.00              88.18,3135.00 89.92,3123.00 89.92,3123.00              89.92,3123.00 87.08,3097.00 87.08,3097.00              87.08,3097.00 87.08,3076.00 87.08,3076.00              87.08,3076.00 85.09,3056.00 85.09,3056.00              85.31,3052.21 86.23,3050.22 85.82,3046.00              85.82,3046.00 83.09,3032.00 83.09,3032.00              83.09,3032.00 83.96,3015.00 83.96,3015.00              83.96,3015.00 81.00,2990.00 81.00,2990.00              81.00,2990.00 84.82,2958.00 84.82,2958.00              84.82,2958.00 84.09,2952.00 84.09,2952.00              84.09,2952.00 84.91,2934.00 84.91,2934.00              84.15,2923.12 80.02,2920.58 80.00,2907.00              80.00,2907.00 80.00,2893.00 80.00,2893.00              80.00,2893.00 80.91,2880.00 80.91,2880.00              80.91,2880.00 80.00,2870.00 80.00,2870.00              80.00,2870.00 80.00,2845.00 80.00,2845.00              80.00,2845.00 80.91,2832.00 80.91,2832.00              80.91,2832.00 80.04,2821.00 80.04,2821.00              80.04,2821.00 80.91,2813.00 80.91,2813.00              80.91,2813.00 82.09,2789.00 82.09,2789.00              82.09,2789.00 83.00,2776.00 83.00,2776.00              83.00,2776.00 81.96,2766.00 81.96,2766.00              81.96,2766.00 81.96,2757.00 81.96,2757.00              81.40,2752.54 79.85,2747.36 80.18,2743.00              80.56,2737.97 82.24,2734.87 81.91,2729.00              81.91,2729.00 80.10,2714.00 80.10,2714.00              80.10,2714.00 80.82,2703.00 80.82,2703.00              80.82,2703.00 79.45,2693.00 79.45,2693.00              79.45,2693.00 80.04,2682.00 80.04,2682.00              80.04,2682.00 80.04,2666.00 80.04,2666.00              80.04,2666.00 80.87,2656.00 80.87,2656.00              80.87,2656.00 80.87,2645.00 80.87,2645.00              81.07,2639.44 83.37,2637.41 82.96,2628.00              82.63,2620.43 79.17,2613.27 78.30,2607.00              77.47,2601.04 79.64,2595.81 79.90,2590.00              79.90,2590.00 79.09,2578.00 79.09,2578.00              79.09,2578.00 80.00,2565.00 80.00,2565.00              80.00,2565.00 79.03,2553.00 79.03,2553.00              79.03,2553.00 79.96,2544.00 79.96,2544.00              79.96,2544.00 79.96,2531.00 79.96,2531.00              79.96,2531.00 78.00,2496.00 78.00,2496.00              78.00,2496.00 78.00,2459.00 78.00,2459.00              78.00,2459.00 79.00,2443.00 79.00,2443.00              79.00,2443.00 79.00,2418.00 79.00,2418.00              79.00,2418.00 78.18,2403.00 78.18,2403.00              78.18,2403.00 81.68,2388.00 81.68,2388.00              81.68,2388.00 82.29,2373.00 82.29,2373.00              82.29,2373.00 85.92,2347.00 85.92,2347.00              85.92,2347.00 83.17,2331.00 83.17,2331.00              83.17,2331.00 81.83,2310.00 81.83,2310.00              81.83,2310.00 79.30,2297.00 79.30,2297.00              79.30,2297.00 78.00,2274.00 78.00,2274.00              78.00,2274.00 78.00,2247.00 78.00,2247.00              78.00,2247.00 79.16,2232.00 79.16,2232.00              79.16,2232.00 79.16,2206.00 79.16,2206.00              79.16,2206.00 79.96,2193.00 79.96,2193.00              79.96,2193.00 78.21,2180.00 78.21,2180.00              78.21,2180.00 78.98,2168.00 78.98,2168.00              78.98,2168.00 78.05,2159.00 78.05,2159.00              78.05,2159.00 78.05,2144.00 78.05,2144.00              78.05,2144.00 78.91,2131.00 78.91,2131.00              78.66,2126.65 77.47,2123.83 77.76,2119.00              78.10,2113.17 79.42,2111.50 78.91,2104.00              78.60,2099.48 76.98,2094.32 77.32,2090.00              77.32,2090.00 79.96,2064.00 79.96,2064.00              79.96,2064.00 77.00,2032.00 77.00,2032.00              77.00,2032.00 77.00,2017.00 77.00,2017.00              77.00,2017.00 76.01,2002.00 76.01,2002.00              76.01,2002.00 76.96,1990.00 76.96,1990.00              76.96,1990.00 76.01,1977.00 76.01,1977.00              76.01,1977.00 76.96,1967.00 76.96,1967.00              76.96,1967.00 76.00,1949.00 76.00,1949.00              76.00,1949.00 76.96,1938.00 76.96,1938.00              76.96,1938.00 76.96,1921.00 76.96,1921.00              76.96,1921.00 76.00,1906.00 76.00,1906.00              76.00,1906.00 76.00,1887.00 76.00,1887.00              76.00,1887.00 75.01,1872.00 75.01,1872.00              75.01,1872.00 75.92,1861.00 75.92,1861.00              75.92,1861.00 74.00,1838.00 74.00,1838.00              74.00,1838.00 75.00,1823.00 75.00,1823.00              75.00,1823.00 75.00,1783.00 75.00,1783.00              75.00,1783.00 74.00,1766.00 74.00,1766.00              74.00,1766.00 74.00,1748.00 74.00,1748.00              74.00,1748.00 74.82,1735.00 74.82,1735.00              74.82,1735.00 74.01,1723.00 74.01,1723.00              74.01,1723.00 74.97,1712.00 74.97,1712.00              74.97,1712.00 73.00,1686.00 73.00,1686.00              73.00,1686.00 74.00,1665.00 74.00,1665.00              74.00,1665.00 73.09,1652.00 73.09,1652.00              73.09,1652.00 73.96,1645.00 73.96,1645.00              73.96,1645.00 73.96,1630.00 73.96,1630.00              73.96,1630.00 74.97,1617.00 74.97,1617.00              74.97,1617.00 74.04,1603.00 74.04,1603.00              74.04,1603.00 74.04,1590.00 74.04,1590.00              74.35,1586.13 75.15,1584.29 74.91,1580.00              74.91,1580.00 74.00,1564.00 74.00,1564.00              74.00,1564.00 73.01,1551.00 73.01,1551.00              73.01,1551.00 74.00,1538.00 74.00,1538.00              74.00,1538.00 74.00,1516.00 74.00,1516.00              74.00,1516.00 74.82,1504.00 74.82,1504.00              74.82,1504.00 73.00,1489.00 73.00,1489.00              73.00,1489.00 73.00,1459.00 73.00,1459.00              73.00,1459.00 73.82,1445.00 73.82,1445.00              73.82,1445.00 72.00,1434.00 72.00,1434.00              72.00,1434.00 72.00,1425.00 72.00,1425.00              71.50,1421.53 70.92,1419.78 71.04,1416.00              71.04,1416.00 73.66,1392.00 73.66,1392.00              73.66,1392.00 71.76,1373.00 71.76,1373.00              71.76,1373.00 71.76,1347.00 71.76,1347.00              71.76,1347.00 74.68,1316.00 74.68,1316.00              74.68,1316.00 68.00,1270.00 68.00,1270.00              68.00,1270.00 68.00,1253.00 68.00,1253.00              68.00,1253.00 68.97,1240.00 68.97,1240.00              68.97,1240.00 68.00,1228.00 68.00,1228.00              68.00,1228.00 69.00,1208.00 69.00,1208.00              69.00,1208.00 68.00,1193.00 68.00,1193.00              68.00,1193.00 68.00,1180.00 68.00,1180.00              68.00,1180.00 68.91,1167.00 68.91,1167.00              68.91,1167.00 64.14,1129.00 64.14,1129.00              64.14,1129.00 64.14,1112.00 64.14,1112.00              64.14,1112.00 67.90,1090.00 67.90,1090.00              67.90,1090.00 66.09,1076.00 66.09,1076.00              66.09,1076.00 66.09,1066.00 66.09,1066.00              66.09,1066.00 67.97,1042.00 67.97,1042.00              67.97,1042.00 67.04,1034.00 67.04,1034.00              67.04,1034.00 67.04,1025.00 67.04,1025.00              67.04,1025.00 66.00,1015.00 66.00,1015.00              66.00,1015.00 66.00,998.00 66.00,998.00              66.00,998.00 69.00,973.00 69.00,973.00              69.00,973.00 69.00,946.00 69.00,946.00              69.00,946.00 68.00,932.00 68.00,932.00              68.00,932.00 68.00,904.00 68.00,904.00              68.00,904.00 66.09,878.00 66.09,878.00              66.57,870.18 68.93,870.15 69.00,857.00              69.00,857.00 70.00,842.00 70.00,842.00              70.00,842.00 69.00,828.00 69.00,828.00              69.00,828.00 69.00,805.00 69.00,805.00              69.00,805.00 70.04,793.00 70.04,793.00              70.04,793.00 70.04,784.00 70.04,784.00              70.04,784.00 70.92,777.00 70.92,777.00              70.92,777.00 70.03,767.00 70.03,767.00              70.03,767.00 70.96,757.00 70.96,757.00              70.96,757.00 70.32,749.00 70.32,749.00              70.32,749.00 70.96,740.00 70.96,740.00              70.96,740.00 69.04,715.00 69.04,715.00              69.04,715.00 70.68,695.00 70.68,695.00              70.68,695.00 68.92,677.00 68.92,677.00              68.92,677.00 68.92,668.00 68.92,668.00              68.92,668.00 67.86,658.00 67.86,658.00              67.86,658.00 67.86,643.00 67.86,643.00              67.86,643.00 68.96,629.00 68.96,629.00              68.96,629.00 67.00,600.00 67.00,600.00              67.00,600.00 67.98,586.00 67.98,586.00              67.98,586.00 64.52,562.00 64.52,562.00              64.52,562.00 65.83,553.00 65.83,553.00              65.83,553.00 67.09,534.00 67.09,534.00              67.09,534.00 67.92,526.00 67.92,526.00              67.92,526.00 65.17,501.00 65.17,501.00              64.42,493.13 66.12,489.86 65.90,485.00              65.57,477.76 63.83,478.97 64.00,464.00              64.00,464.00 66.00,438.00 66.00,438.00              66.00,438.00 66.00,425.00 66.00,425.00              66.00,425.00 66.82,415.00 66.82,415.00              66.82,411.21 65.54,408.00 66.09,400.00              66.09,400.00 67.92,388.00 67.92,388.00              67.92,388.00 67.92,376.00 67.92,376.00              67.92,376.00 71.00,336.00 71.00,336.00              71.00,336.00 71.00,311.00 71.00,311.00              71.02,297.31 74.11,298.68 76.26,289.00              78.04,281.48 75.24,277.80 76.26,271.00              76.97,265.65 80.40,261.49 80.91,254.00              81.37,247.34 79.75,245.42 78.94,240.00              78.94,240.00 78.94,230.00 78.94,230.00              78.94,230.00 75.68,210.00 75.68,210.00              75.68,210.00 77.00,189.00 77.00,189.00              77.00,189.00 77.00,174.00 77.00,174.00              77.00,174.00 77.83,155.00 77.83,155.00              76.53,141.52 74.81,142.68 75.00,126.00              75.04,122.57 75.29,118.17 77.14,115.18              79.35,111.60 88.09,106.81 92.00,104.78              96.78,102.30 99.56,101.13 105.00,101.02              108.65,100.94 118.45,102.02 122.00,102.82              130.03,104.63 131.59,108.99 139.00,112.72              145.86,116.18 154.40,117.08 162.00,117.00              171.66,116.89 179.80,113.14 184.00,113.19              187.93,113.25 192.89,116.00 197.00,117.08              201.65,118.30 206.23,117.99 211.00,118.00              214.48,118.01 217.73,117.83 221.00,119.28              227.49,122.15 232.88,130.49 245.00,129.90              253.36,129.49 257.71,124.90 265.00,122.93              270.92,121.33 276.17,122.45 282.00,121.83              282.00,121.83 298.00,118.10 298.00,118.10              298.00,118.10 307.00,118.10 307.00,118.10              307.00,118.10 314.00,117.04 314.00,117.04              314.00,117.04 332.00,117.04 332.00,117.04              332.00,117.04 364.00,114.01 364.00,114.01              364.00,114.01 382.00,115.91 382.00,115.91              382.00,115.91 406.00,114.04 406.00,114.04              410.11,114.20 423.93,115.15 427.00,116.69              433.52,119.94 438.43,128.74 452.00,127.91              459.83,127.42 463.28,123.74 468.00,123.25              473.16,122.71 478.28,126.38 485.00,125.81              491.27,125.29 496.80,121.63 503.00,120.47              503.00,120.47 518.00,119.56 518.00,119.56              518.00,119.56 532.00,116.21 532.00,116.21              532.00,116.21 557.00,114.00 557.00,114.00              566.70,113.96 576.42,114.37 586.00,112.53              586.00,112.53 596.00,109.68 596.00,109.68              596.00,109.68 614.00,108.33 614.00,108.33              618.34,108.49 620.28,109.53 625.00,108.33              629.05,107.57 632.75,105.13 637.00,105.20              642.99,105.29 648.42,111.05 662.00,114.11              671.35,116.22 674.08,112.22 680.00,113.29              683.91,114.00 686.73,117.04 690.00,119.05              694.08,121.55 698.24,122.75 703.00,122.96              722.50,123.84 747.95,114.75 757.00,114.09              764.05,113.57 766.97,114.73 773.00,114.96              773.00,114.96 791.00,113.91 791.00,113.91              791.00,113.91 804.00,112.70 804.00,112.70              807.91,112.14 812.20,110.40 816.00,110.46              826.50,110.63 839.66,116.19 856.00,116.00              856.00,116.00 870.00,114.17 870.00,114.17              877.33,113.44 878.63,114.68 888.00,112.71              888.00,112.71 909.00,107.93 909.00,107.93              919.58,106.89 922.62,108.16 927.00,107.93              927.00,107.93 947.00,104.34 947.00,104.34              947.00,104.34 965.00,106.79 965.00,106.79              965.00,106.79 987.00,101.43 987.00,101.43              987.00,101.43 1012.00,102.00 1012.00,102.00              1012.00,102.00 1027.00,103.91 1027.00,103.91              1027.00,103.91 1047.00,103.00 1047.00,103.00              1047.00,103.00 1064.00,103.91 1064.00,103.91              1067.52,103.71 1073.74,102.27 1077.00,102.98              1081.26,103.92 1084.40,108.02 1089.00,110.64              1094.48,113.75 1098.92,113.99 1105.00,114.00              1105.00,114.00 1118.00,114.00 1118.00,114.00              1130.85,113.98 1128.79,111.76 1138.00,110.30              1138.00,110.30 1151.00,108.71 1151.00,108.71              1151.00,108.71 1163.00,106.29 1163.00,106.29              1163.00,106.29 1185.00,105.00 1185.00,105.00              1185.00,105.00 1224.00,101.17 1224.00,101.17              1224.00,101.17 1246.00,99.91 1246.00,99.91              1246.00,99.91 1259.00,99.00 1259.00,99.00              1271.53,99.17 1270.15,106.74 1276.53,115.00              1282.96,123.33 1290.45,127.37 1301.00,126.96              1308.70,126.66 1316.97,124.63 1323.00,119.67              1327.59,115.90 1334.42,107.59 1339.00,105.31              1339.00,105.31 1351.00,102.12 1351.00,102.12              1351.00,102.12 1364.00,98.16 1364.00,98.16              1364.00,98.16 1392.00,98.16 1392.00,98.16              1395.98,98.05 1402.47,98.69 1406.00,100.45              1411.09,103.00 1416.04,109.92 1427.00,109.92              1442.12,109.92 1441.90,99.08 1457.00,99.00              1457.00,99.00 1479.00,98.00 1479.00,98.00              1479.00,98.00 1497.00,98.98 1497.00,98.98              1503.33,99.21 1510.04,96.73 1516.00,98.98              1516.00,98.98 1528.00,105.65 1528.00,105.65              1528.00,105.65 1540.00,109.98 1540.00,109.98              1546.40,113.06 1549.34,115.38 1557.00,114.91              1570.87,114.05 1578.92,102.23 1588.00,98.97              1591.93,97.56 1595.00,98.23 1599.00,97.83              1599.00,97.83 1609.00,96.00 1609.00,96.00              1609.00,96.00 1619.00,96.00 1619.00,96.00              1619.00,96.00 1629.00,93.51 1629.00,93.51              1629.00,93.51 1650.00,90.39 1650.00,90.39              1650.00,90.39 1657.00,90.91 1657.00,90.91              1667.07,91.60 1671.61,91.57 1681.00,96.25              1688.45,99.96 1698.50,107.50 1707.00,106.66              1707.00,106.66 1738.00,98.00 1738.00,98.00              1742.18,96.79 1747.72,94.79 1752.00,95.20              1757.76,95.75 1765.73,100.48 1775.00,99.91              1775.00,99.91 1803.00,93.10 1803.00,93.10              1807.92,92.86 1811.28,94.59 1816.00,94.91              1816.00,94.91 1831.00,94.04 1831.00,94.04              1836.82,94.29 1842.11,97.30 1848.00,96.81              1848.00,96.81 1861.00,94.09 1861.00,94.09              1868.82,93.50 1873.50,96.44 1879.00,96.79              1879.00,96.79 1898.00,95.00 1898.00,95.00              1898.00,95.00 1919.00,94.00 1919.00,94.00              1919.00,94.00 1940.00,94.00 1940.00,94.00              1956.46,93.97 1957.06,88.57 1969.00,89.04              1969.00,89.04 2015.00,96.96 2015.00,96.96              2020.26,96.78 2024.02,95.06 2029.00,94.29              2038.07,92.89 2046.80,91.04 2056.00,91.00              2056.00,91.00 2070.00,90.00 2070.00,90.00              2088.60,89.78 2090.71,84.69 2105.00,85.01              2105.00,85.01 2142.00,89.79 2142.00,89.79              2142.00,89.79 2178.00,87.00 2178.00,87.00              2178.00,87.00 2188.00,86.04 2188.00,86.04              2188.00,86.04 2198.00,86.04 2198.00,86.04              2198.00,86.04 2213.00,85.00 2213.00,85.00              2213.00,85.00 2237.00,85.00 2237.00,85.00              2237.00,85.00 2252.00,83.96 2252.00,83.96              2252.00,83.96 2266.00,83.96 2266.00,83.96              2266.00,83.96 2278.00,83.00 2278.00,83.00              2278.00,83.00 2310.00,83.00 2310.00,83.00              2310.00,83.00 2322.00,82.05 2322.00,82.05              2322.00,82.05 2336.00,82.05 2336.00,82.05              2336.00,82.05 2355.00,83.28 2355.00,83.28              2355.00,83.28 2378.00,85.96 2378.00,85.96              2378.00,85.96 2404.00,81.04 2404.00,81.04              2404.00,81.04 2423.00,82.00 2423.00,82.00              2423.00,82.00 2436.00,82.00 2436.00,82.00              2436.00,82.00 2449.00,82.91 2449.00,82.91              2449.00,82.91 2457.00,82.08 2457.00,82.08              2457.00,82.08 2466.00,82.92 2466.00,82.92              2466.00,82.92 2481.00,80.17 2481.00,80.17              2481.00,80.17 2512.00,79.00 2512.00,79.00              2520.43,79.04 2519.76,80.16 2526.00,80.93              2526.00,80.93 2536.00,80.93 2536.00,80.93              2536.00,80.93 2544.00,81.91 2544.00,81.91              2544.00,81.91 2557.00,81.00 2557.00,81.00              2557.00,81.00 2575.00,81.00 2575.00,81.00              2575.00,81.00 2593.00,80.09 2593.00,80.09              2593.00,80.09 2613.00,81.96 2613.00,81.96              2613.00,81.96 2621.00,81.04 2621.00,81.04              2621.00,81.04 2638.00,81.04 2638.00,81.04              2638.00,81.04 2675.00,77.13 2675.00,77.13              2680.88,77.01 2683.92,79.99 2693.00,79.99              2693.00,79.99 2722.00,78.04 2722.00,78.04              2722.00,78.04 2737.00,78.04 2737.00,78.04              2737.00,78.04 2747.00,78.99 2747.00,78.99              2747.00,78.99 2761.00,78.04 2761.00,78.04              2761.00,78.04 2777.00,79.00 2777.00,79.00              2777.00,79.00 2791.00,79.96 2791.00,79.96              2791.00,79.96 2802.00,79.09 2802.00,79.09              2805.42,79.29 2807.30,80.10 2811.00,79.82              2811.00,79.82 2826.00,77.71 2826.00,77.71              2826.00,77.71 2840.00,78.29 2840.00,78.29              2840.00,78.29 2851.00,79.92 2851.00,79.92              2851.00,79.92 2865.00,77.44 2865.00,77.44              2865.00,77.44 2883.00,76.00 2883.00,76.00              2883.00,76.00 2902.00,76.99 2902.00,76.99              2902.00,76.99 2913.00,76.46 2913.00,76.46              2917.03,76.60 2920.25,78.21 2925.00,77.81              2933.50,77.11 2939.95,72.51 2949.00,73.09              2949.00,73.09 2983.00,75.00 2983.00,75.00              2996.36,75.02 2998.70,80.18 3008.00,78.68              3013.28,77.82 3030.25,70.03 3035.00,67.05              3035.00,67.05 3044.00,61.05 3044.00,61.05              3050.51,57.97 3056.29,59.62 3063.00,58.56              3073.41,56.92 3077.26,53.15 3090.00,53.00              3090.00,53.00 3094.00,53.00 3094.00,53.00              3103.10,52.89 3105.91,50.55 3114.00,48.48              3121.15,46.65 3133.63,45.01 3141.00,45.00              3141.00,45.00 3150.00,45.00 3150.00,45.00              3150.00,45.00 3166.00,46.92 3166.00,46.92              3166.00,46.92 3202.00,43.32 3202.00,43.32              3202.00,43.32 3220.00,45.00 3220.00,45.00              3220.00,45.00 3240.00,45.00 3240.00,45.00              3240.00,45.00 3256.00,46.00 3256.00,46.00              3256.00,46.00 3280.00,46.00 3280.00,46.00              3292.60,46.02 3291.67,48.81 3300.00,49.99              3300.00,49.99 3309.00,49.99 3309.00,49.99              3309.00,49.99 3337.00,54.45 3337.00,54.45              3347.60,56.62 3346.09,58.98 3359.00,59.00              3359.00,59.00 3385.00,59.00 3385.00,59.00              3397.98,59.02 3404.16,63.23 3416.00,65.38              3416.00,65.38 3438.00,67.92 3438.00,67.92              3438.00,67.92 3451.00,66.96 3451.00,66.96              3451.00,66.96 3466.00,66.96 3466.00,66.96              3466.00,66.96 3475.00,66.01 3475.00,66.01              3475.00,66.01 3491.00,67.00 3491.00,67.00              3491.00,67.00 3518.00,69.00 3518.00,69.00              3518.00,69.00 3530.00,69.00 3530.00,69.00              3530.00,69.00 3561.00,67.00 3561.00,67.00              3561.00,67.00 3576.00,67.00 3576.00,67.00              3576.00,67.00 3586.00,66.04 3586.00,66.04              3586.00,66.04 3597.00,66.04 3597.00,66.04              3609.03,66.02 3615.27,69.31 3626.00,70.71              3626.00,70.71 3634.00,71.28 3634.00,71.28              3634.00,71.28 3659.00,74.00 3659.00,74.00              3659.00,74.00 3683.00,74.00 3683.00,74.00              3683.00,74.00 3698.00,73.00 3698.00,73.00              3698.00,73.00 3721.00,73.00 3721.00,73.00              3721.00,73.00 3737.00,72.00 3737.00,72.00              3737.00,72.00 3763.00,72.00 3763.00,72.00              3763.00,72.00 3792.00,74.00 3792.00,74.00              3792.00,74.00 3805.00,73.09 3805.00,73.09              3805.00,73.09 3824.00,75.00 3824.00,75.00              3824.00,75.00 3857.00,77.00 3857.00,77.00              3857.00,77.00 3873.00,77.00 3873.00,77.00              3880.56,76.91 3884.18,75.18 3891.00,74.29              3891.00,74.29 3923.00,72.01 3923.00,72.01              3931.53,72.23 3932.24,74.90 3939.00,78.65              3939.00,78.65 3951.00,84.31 3951.00,84.31              3958.93,88.57 3965.49,93.45 3975.00,92.91              3991.82,91.95 3993.37,87.31 4006.00,80.99              4006.00,80.99 4021.00,75.55 4021.00,75.55              4037.05,69.05 4031.80,67.78 4051.00,68.00              4060.88,68.12 4061.75,70.50 4070.00,72.71              4070.00,72.71 4085.00,75.56 4085.00,75.56              4093.96,76.95 4098.10,73.34 4105.00,73.34              4110.68,73.34 4115.54,76.30 4124.00,75.96              4132.20,75.63 4139.11,71.36 4147.00,69.67              4156.87,67.56 4168.86,67.89 4179.00,68.00              4179.00,68.00 4203.00,69.91 4203.00,69.91              4203.00,69.91 4224.00,68.17 4224.00,68.17              4224.00,68.17 4242.00,70.92 4242.00,70.92              4242.00,70.92 4268.00,70.92 4268.00,70.92              4268.00,70.92 4282.00,71.82 4282.00,71.82              4282.00,71.82 4302.00,70.00 4302.00,70.00              4302.00,70.00 4314.00,70.99 4314.00,70.99              4322.52,71.18 4323.17,69.85 4330.00,69.17              4330.00,69.17 4357.00,68.01 4357.00,68.01              4357.00,68.01 4375.00,70.96 4375.00,70.96              4375.00,70.96 4392.00,69.96 4392.00,69.96              4392.00,69.96 4407.00,69.96 4407.00,69.96              4407.00,69.96 4415.00,69.04 4415.00,69.04              4415.00,69.04 4432.00,70.00 4432.00,70.00              4432.00,70.00 4488.00,70.00 4488.00,70.00              4496.96,69.99 4496.90,68.88 4504.00,68.08              4504.00,68.08 4520.00,68.08 4520.00,68.08              4520.00,68.08 4536.00,67.00 4536.00,67.00              4536.00,67.00 4580.00,68.00 4580.00,68.00              4580.00,68.00 4596.00,68.91 4596.00,68.91              4596.00,68.91 4611.00,67.10 4611.00,67.10              4611.00,67.10 4621.00,69.00 4621.00,69.00              4621.00,69.00 4630.00,69.00 4630.00,69.00              4630.00,69.00 4647.00,70.91 4647.00,70.91              4647.00,70.91 4663.00,70.00 4663.00,70.00              4663.00,70.00 4693.00,71.17 4693.00,71.17              4698.00,71.65 4704.10,73.19 4709.00,72.91              4713.79,72.64 4715.12,71.79 4721.00,72.02              4731.34,72.47 4736.03,73.97 4747.00,72.02              4746.00,76.97 4744.24,81.92 4744.04,87.00              4743.44,101.76 4755.38,117.13 4771.00,115.81              4787.22,114.45 4801.23,93.97 4812.00,90.65              4814.45,89.89 4817.44,90.00 4820.00,90.00              4820.00,90.00 4833.00,90.00 4833.00,90.00              4842.48,90.13 4844.85,94.71 4853.00,98.80              4861.64,102.98 4870.31,103.13 4879.00,98.80              4885.47,95.69 4890.63,89.89 4892.78,83.00              4894.91,76.18 4892.96,73.85 4893.77,71.09              4894.61,68.20 4904.07,59.62 4907.00,58.95              4910.92,58.05 4916.24,62.56 4920.00,64.01              4920.00,64.01 4946.00,69.12 4946.00,69.12              4959.73,72.37 4977.81,73.02 4992.00,73.00              4992.00,73.00 5009.00,72.00 5009.00,72.00              5009.00,72.00 5026.00,72.00 5026.00,72.00              5026.00,72.00 5040.00,71.00 5040.00,71.00              5040.00,71.00 5074.00,73.00 5074.00,73.00              5074.00,73.00 5115.00,74.00 5115.00,74.00              5115.00,74.00 5142.00,72.32 5142.00,72.32              5145.17,72.56 5146.41,73.11 5150.00,72.91              5150.00,72.91 5168.00,71.32 5168.00,71.32              5168.00,71.32 5178.00,72.00 5178.00,72.00              5178.00,72.00 5199.00,72.00 5199.00,72.00              5199.00,72.00 5215.00,72.99 5215.00,72.99              5215.00,72.99 5229.00,72.00 5229.00,72.00              5229.00,72.00 5275.00,74.00 5275.00,74.00              5275.00,74.00 5290.00,75.00 5290.00,75.00              5290.00,75.00 5315.00,76.00 5315.00,76.00              5315.00,76.00 5334.00,77.00 5334.00,77.00              5334.00,77.00 5353.00,75.71 5353.00,75.71              5359.76,74.83 5364.86,72.76 5372.00,73.04              5372.00,73.04 5390.00,74.95 5390.00,74.95              5390.00,74.95 5407.00,74.95 5407.00,74.95              5407.00,74.95 5421.00,74.00 5421.00,74.00              5421.00,74.00 5451.00,76.00 5451.00,76.00              5451.00,76.00 5465.00,75.00 5465.00,75.00              5465.00,75.00 5498.00,75.00 5498.00,75.00              5498.00,75.00 5513.00,76.00 5513.00,76.00              5513.00,76.00 5525.00,76.00 5525.00,76.00              5525.00,76.00 5553.00,78.00 5553.00,78.00              5553.00,78.00 5570.00,78.00 5570.00,78.00              5570.00,78.00 5591.00,79.00 5591.00,79.00              5591.00,79.00 5609.00,80.98 5609.00,80.98              5609.00,80.98 5618.00,79.96 5618.00,79.96              5618.00,79.96 5628.00,79.96 5628.00,79.96              5632.53,79.39 5637.53,77.86 5642.00,78.18              5642.00,78.18 5648.00,78.91 5648.00,78.91              5653.75,79.23 5656.00,77.57 5661.00,78.33              5667.04,79.24 5672.64,82.28 5679.00,81.82              5684.69,81.41 5688.75,79.80 5695.00,80.04              5695.00,80.04 5706.00,81.00 5706.00,81.00              5706.00,81.00 5731.00,81.00 5731.00,81.00              5731.00,81.00 5756.00,83.00 5756.00,83.00              5756.00,83.00 5770.00,83.00 5770.00,83.00              5770.00,83.00 5783.00,82.32 5783.00,82.32              5783.00,82.32 5794.00,83.00 5794.00,83.00              5794.00,83.00 5806.00,82.18 5806.00,82.18              5806.00,82.18 5825.00,84.00 5825.00,84.00              5825.00,84.00 5839.00,85.00 5839.00,85.00              5839.00,85.00 5868.00,85.00 5868.00,85.00              5882.74,85.02 5884.78,89.22 5897.00,92.51              5904.99,94.67 5912.82,93.91 5921.00,94.00              5921.00,94.00 5935.00,94.96 5935.00,94.96              5935.00,94.96 5944.00,94.34 5944.00,94.34              5944.00,94.34 5956.00,96.96 5956.00,96.96              5956.00,96.96 5966.00,96.96 5966.00,96.96              5966.00,96.96 5982.00,98.00 5982.00,98.00              5982.00,98.00 5992.00,98.96 5992.00,98.96              5992.00,98.96 6004.00,98.96 6004.00,98.96              6004.00,98.96 6030.00,101.00 6030.00,101.00              6030.00,101.00 6046.00,101.00 6046.00,101.00              6046.00,101.00 6064.00,100.00 6064.00,100.00              6064.00,100.00 6081.00,101.00 6081.00,101.00              6081.00,101.00 6097.00,102.98 6097.00,102.98              6103.56,103.12 6105.19,102.04 6111.00,101.29              6111.00,101.29 6127.00,100.04 6127.00,100.04              6127.00,100.04 6147.00,102.00 6147.00,102.00              6163.95,102.19 6157.93,101.17 6171.00,99.30              6171.00,99.30 6185.00,97.92 6185.00,97.92              6193.87,96.36 6196.33,95.02 6206.00,95.00              6206.00,95.00 6235.00,95.00 6235.00,95.00              6235.00,95.00 6257.00,93.51 6257.00,93.51              6268.84,94.32 6277.81,99.60 6286.00,99.96              6286.00,99.96 6302.00,99.00 6302.00,99.00              6302.00,99.00 6325.00,99.00 6325.00,99.00              6325.00,99.00 6340.00,99.96 6340.00,99.96              6340.00,99.96 6354.00,99.00 6354.00,99.00              6354.00,99.00 6367.00,99.91 6367.00,99.91              6367.00,99.91 6374.00,98.89 6374.00,98.89              6374.00,98.89 6382.00,98.89 6382.00,98.89              6382.00,98.89 6392.00,97.04 6392.00,97.04              6398.78,96.77 6405.32,98.89 6412.00,99.71              6412.00,99.71 6432.00,101.80 6432.00,101.80              6437.98,102.95 6444.98,105.26 6451.00,104.91              6451.00,104.91 6461.00,103.46 6461.00,103.46              6461.00,103.46 6495.00,106.00 6495.00,106.00              6495.00,106.00 6512.00,107.00 6512.00,107.00              6512.00,107.00 6555.00,109.00 6555.00,109.00              6555.00,109.00 6582.00,105.04 6582.00,105.04              6582.00,105.04 6626.00,110.63 6626.00,110.63              6626.00,110.63 6636.00,110.00 6636.00,110.00              6636.00,110.00 6654.00,111.00 6654.00,111.00              6654.00,111.00 6670.00,110.00 6670.00,110.00              6670.00,110.00 6685.00,111.00 6685.00,111.00              6698.22,111.02 6711.90,110.41 6725.00,112.30              6734.51,113.67 6738.56,118.42 6750.00,117.96              6757.06,117.68 6761.76,114.67 6769.00,115.09              6769.00,115.09 6780.00,116.96 6780.00,116.96              6780.00,116.96 6790.00,116.96 6790.00,116.96              6790.00,116.96 6803.00,118.00 6803.00,118.00              6812.68,118.05 6814.56,120.03 6822.00,120.92              6822.00,120.92 6835.00,120.92 6835.00,120.92              6835.00,120.92 6848.00,122.15 6848.00,122.15              6848.00,122.15 6862.00,122.15 6862.00,122.15              6862.00,122.15 6876.00,125.70 6876.00,125.70              6876.00,125.70 6887.00,126.67 6887.00,126.67              6894.09,128.17 6899.35,131.34 6907.00,130.91              6907.00,130.91 6926.00,129.00 6926.00,129.00              6926.00,129.00 6939.00,129.96 6939.00,129.96              6939.00,129.96 6956.00,129.96 6956.00,129.96              6956.00,129.96 6981.00,132.04 6981.00,132.04              6981.00,132.04 6993.00,132.04 6993.00,132.04              6993.00,132.04 7005.00,132.92 7005.00,132.92              7005.00,132.92 7018.00,132.92 7018.00,132.92              7018.00,132.92 7027.00,131.84 7027.00,131.84              7027.00,131.84 7036.00,131.84 7036.00,131.84              7040.67,131.78 7042.70,130.74 7048.00,131.09              7053.48,131.45 7056.76,133.16 7063.00,132.96              7063.00,132.96 7085.00,131.00 7085.00,131.00              7085.00,131.00 7104.00,130.00 7104.00,130.00              7104.00,130.00 7122.00,130.00 7122.00,130.00              7136.86,129.98 7139.49,125.02 7154.00,125.00              7154.00,125.00 7170.00,125.00 7170.00,125.00              7170.00,125.00 7199.00,123.00 7199.00,123.00              7199.00,123.00 7219.00,124.82 7219.00,124.82              7219.00,124.82 7249.00,118.47 7249.00,118.47              7249.00,118.47 7268.00,119.97 7268.00,119.97              7268.00,119.97 7287.00,117.04 7287.00,117.04              7287.00,117.04 7310.00,118.96 7310.00,118.96              7324.72,119.53 7328.58,113.46 7340.00,109.52              7340.00,109.52 7353.00,105.51 7353.00,105.51              7353.00,105.51 7366.00,103.11 7366.00,103.11              7366.00,103.11 7384.00,97.88 7384.00,97.88              7387.50,96.96 7394.52,95.39 7398.00,95.21              7398.00,95.21 7407.00,95.96 7407.00,95.96              7407.00,95.96 7426.00,94.70 7426.00,94.70              7426.00,94.70 7442.00,90.32 7442.00,90.32              7442.00,90.32 7450.00,89.54 7450.00,89.54              7450.00,89.54 7468.00,86.17 7468.00,86.17              7468.00,86.17 7491.00,84.91 7491.00,84.91              7491.00,84.91 7501.00,84.00 7501.00,84.00              7522.20,83.76 7533.16,81.71 7552.00,93.96              7552.00,93.96 7571.00,109.04 7571.00,109.04              7575.94,113.74 7579.75,118.50 7586.00,121.62              7593.66,125.46 7603.64,124.88 7612.00,126.90              7612.00,126.90 7627.00,131.48 7627.00,131.48              7627.00,131.48 7634.00,132.46 7634.00,132.46              7634.00,132.46 7644.00,134.74 7644.00,134.74              7644.00,134.74 7677.00,138.00 7677.00,138.00              7677.00,138.00 7686.00,138.00 7686.00,138.00              7686.00,138.00 7713.00,140.00 7713.00,140.00              7713.00,140.00 7751.00,140.00 7751.00,140.00              7751.00,140.00 7783.00,144.83 7783.00,144.83              7790.05,145.45 7795.72,142.03 7801.00,142.70              7801.00,142.70 7814.00,146.96 7814.00,146.96              7818.33,148.20 7821.82,147.93 7826.00,150.00              7826.00,150.00 7834.00,155.08 7834.00,155.08              7840.35,158.90 7848.56,161.26 7856.00,160.96              7862.70,160.69 7868.05,158.41 7873.00,153.90              7876.87,150.36 7880.37,144.21 7886.00,144.29              7892.24,144.38 7901.95,152.21 7911.00,153.68              7918.53,154.90 7940.28,148.75 7949.00,147.00              7949.22,157.02 7951.71,164.20 7956.26,173.00              7958.60,177.54 7962.31,182.36 7963.89,187.00              7965.21,191.55 7964.06,199.68 7963.89,205.00              7963.88,214.71 7959.71,219.01 7960.10,227.00              7960.55,236.14 7966.18,240.67 7966.90,248.00              7968.20,261.34 7963.09,265.24 7963.08,274.00              7963.08,274.00 7965.46,299.00 7965.46,299.00              7966.58,305.33 7967.91,306.81 7968.00,314.00              7968.00,314.00 7968.68,342.00 7968.68,342.00              7968.68,342.00 7968.00,361.00 7968.00,361.00              7968.00,361.00 7966.18,385.00 7966.18,385.00              7966.18,385.00 7968.79,411.00 7968.79,411.00              7968.79,411.00 7968.17,422.00 7968.17,422.00              7968.17,422.00 7970.90,442.00 7970.90,442.00              7970.90,442.00 7970.00,456.00 7970.00,456.00              7970.00,456.00 7969.00,496.00 7969.00,496.00              7969.00,496.00 7967.04,514.00 7967.04,514.00              7967.04,514.00 7968.96,537.00 7968.96,537.00              7968.96,537.00 7968.05,547.00 7968.05,547.00              7968.05,547.00 7968.05,558.00 7968.05,558.00              7968.05,558.00 7969.96,577.00 7969.96,577.00              7969.96,577.00 7969.00,592.00 7969.00,592.00              7969.00,592.00 7970.00,616.00 7970.00,616.00              7970.00,616.00 7969.04,626.00 7969.04,626.00              7969.04,626.00 7969.04,638.00 7969.04,638.00              7969.04,638.00 7968.00,653.00 7968.00,653.00              7968.00,653.00 7968.00,666.00 7968.00,666.00              7968.00,666.00 7970.00,692.00 7970.00,692.00              7970.00,692.00 7968.85,710.00 7968.85,710.00              7968.85,710.00 7968.85,726.00 7968.85,726.00              7967.95,731.22 7965.79,735.54 7966.18,741.00              7966.18,741.00 7968.04,759.00 7968.04,759.00              7968.04,759.00 7968.04,771.00 7968.04,771.00              7968.04,771.00 7969.00,783.00 7969.00,783.00              7969.00,783.00 7969.00,809.00 7969.00,809.00              7969.00,809.00 7969.54,818.00 7969.54,818.00              7969.39,822.55 7968.01,823.93 7968.04,833.00              7968.04,833.00 7968.04,844.00 7968.04,844.00              7968.04,844.00 7968.82,851.00 7968.82,851.00              7968.82,851.00 7968.00,861.00 7968.00,861.00              7968.00,861.00 7969.00,921.00 7969.00,921.00              7969.00,921.00 7967.18,946.00 7967.18,946.00              7967.18,946.00 7969.04,966.00 7969.04,966.00              7969.04,966.00 7969.04,979.00 7969.04,979.00              7969.04,979.00 7969.96,990.00 7969.96,990.00              7969.96,990.00 7969.00,1001.00 7969.00,1001.00              7969.00,1001.00 7969.00,1026.00 7969.00,1026.00              7969.00,1026.00 7970.00,1045.00 7970.00,1045.00              7970.00,1045.00 7969.01,1060.00 7969.01,1060.00              7969.01,1060.00 7970.99,1088.00 7970.99,1088.00              7970.99,1088.00 7968.09,1114.00 7968.09,1114.00              7967.80,1118.51 7968.59,1120.16 7968.79,1124.00              7968.79,1124.00 7968.04,1133.00 7968.04,1133.00              7968.04,1133.00 7969.00,1147.00 7969.00,1147.00              7969.00,1147.00 7967.10,1169.00 7967.10,1169.00              7967.10,1169.00 7968.00,1187.00 7968.00,1187.00              7968.00,1187.00 7967.04,1201.00 7967.04,1201.00              7967.04,1201.00 7968.61,1214.00 7968.61,1214.00              7968.16,1219.89 7964.64,1223.06 7965.04,1233.00              7965.56,1245.87 7971.98,1245.01 7972.00,1260.00              7972.00,1260.00 7972.00,1286.00 7972.00,1286.00              7972.00,1286.00 7971.08,1297.00 7971.08,1297.00              7971.08,1297.00 7971.98,1306.00 7971.98,1306.00              7971.98,1306.00 7971.98,1323.00 7971.98,1323.00              7971.98,1323.00 7973.96,1344.00 7973.96,1344.00              7973.96,1344.00 7972.96,1355.00 7972.96,1355.00              7972.96,1355.00 7972.96,1368.00 7972.96,1368.00              7972.96,1368.00 7972.18,1375.00 7972.18,1375.00              7972.18,1375.00 7973.00,1391.00 7973.00,1391.00              7973.00,1391.00 7974.92,1416.00 7974.92,1416.00              7974.92,1416.00 7974.00,1431.00 7974.00,1431.00              7974.00,1431.00 7975.82,1463.00 7975.82,1463.00              7975.82,1463.00 7974.71,1479.00 7974.71,1479.00              7974.71,1479.00 7973.10,1489.00 7973.10,1489.00              7972.88,1493.93 7974.46,1496.31 7973.83,1503.00              7973.83,1503.00 7972.71,1516.00 7972.71,1516.00              7971.80,1523.40 7971.01,1523.59 7971.14,1532.00              7971.14,1532.00 7971.14,1557.00 7971.14,1557.00              7971.14,1557.00 7970.09,1570.00 7970.09,1570.00              7970.44,1575.96 7972.14,1578.12 7971.98,1586.00              7971.98,1586.00 7971.04,1595.00 7971.04,1595.00              7971.04,1595.00 7971.04,1610.00 7971.04,1610.00              7971.04,1610.00 7970.01,1622.00 7970.01,1622.00              7970.01,1622.00 7971.00,1640.00 7971.00,1640.00              7971.00,1640.00 7968.08,1660.00 7968.08,1660.00              7968.08,1660.00 7969.63,1675.00 7969.63,1675.00              7969.63,1675.00 7967.06,1692.00 7967.06,1692.00              7967.06,1692.00 7967.06,1701.00 7967.06,1701.00              7966.53,1704.16 7965.94,1705.58 7966.18,1709.00              7966.18,1709.00 7969.91,1738.00 7969.91,1738.00              7969.91,1738.00 7968.85,1757.00 7968.85,1757.00              7968.85,1757.00 7968.85,1782.00 7968.85,1782.00              7967.74,1788.50 7964.63,1792.12 7965.09,1800.00              7965.71,1810.66 7971.31,1817.56 7970.99,1832.00              7970.99,1832.00 7969.18,1854.00 7969.18,1854.00              7969.18,1854.00 7970.96,1875.00 7970.96,1875.00              7970.96,1875.00 7970.96,1891.00 7970.96,1891.00              7970.96,1891.00 7970.00,1903.00 7970.00,1903.00              7970.00,1903.00 7970.00,1942.00 7970.00,1942.00              7970.00,1942.00 7970.99,1954.00 7970.99,1954.00              7970.99,1954.00 7970.09,1966.00 7970.09,1966.00              7970.09,1966.00 7971.00,1979.00 7971.00,1979.00              7971.00,1979.00 7969.04,2002.00 7969.04,2002.00              7969.28,2008.11 7970.41,2010.78 7969.91,2018.00              7969.91,2018.00 7968.01,2039.00 7968.01,2039.00              7968.01,2039.00 7969.00,2051.00 7969.00,2051.00              7969.00,2051.00 7965.95,2089.00 7965.95,2089.00              7965.95,2089.00 7965.95,2124.00 7965.95,2124.00              7966.02,2135.34 7967.99,2133.25 7965.95,2146.00              7964.98,2151.21 7962.37,2155.62 7962.10,2161.00              7961.76,2168.03 7965.36,2173.09 7964.91,2181.00              7964.91,2181.00 7963.08,2199.00 7963.08,2199.00              7963.08,2199.00 7963.08,2216.00 7963.08,2216.00              7963.08,2216.00 7964.96,2228.00 7964.96,2228.00              7964.96,2228.00 7963.18,2247.00 7963.18,2247.00              7963.18,2247.00 7964.00,2259.00 7964.00,2259.00              7964.00,2259.00 7965.00,2275.00 7965.00,2275.00              7965.00,2275.00 7965.00,2299.00 7965.00,2299.00              7965.00,2299.00 7966.96,2321.00 7966.96,2321.00              7966.96,2321.00 7965.00,2349.00 7965.00,2349.00              7965.00,2349.00 7966.00,2377.00 7966.00,2377.00              7966.00,2377.00 7965.04,2391.00 7965.04,2391.00              7965.04,2391.00 7966.00,2404.00 7966.00,2404.00              7966.00,2404.00 7965.00,2444.00 7965.00,2444.00              7965.02,2456.03 7967.32,2455.58 7967.91,2463.00              7967.91,2463.00 7967.00,2484.00 7967.00,2484.00              7967.00,2484.00 7966.02,2496.00 7966.02,2496.00              7966.02,2496.00 7967.00,2510.00 7967.00,2510.00              7967.00,2510.00 7967.00,2556.00 7967.00,2556.00              7967.00,2556.00 7966.04,2568.00 7966.04,2568.00              7966.04,2568.00 7966.04,2579.00 7966.04,2579.00              7966.04,2579.00 7959.08,2626.00 7959.08,2626.00              7959.10,2638.45 7966.97,2638.78 7967.00,2656.00              7967.00,2656.00 7967.00,2660.00 7967.00,2660.00              7967.00,2660.00 7967.79,2671.00 7967.79,2671.00              7967.79,2671.00 7966.29,2680.00 7966.29,2680.00              7966.29,2680.00 7965.02,2699.00 7965.02,2699.00              7965.02,2699.00 7965.95,2710.00 7965.95,2710.00              7965.95,2710.00 7965.95,2728.00 7965.95,2728.00              7965.95,2728.00 7965.10,2740.00 7965.10,2740.00              7965.10,2740.00 7967.00,2764.00 7967.00,2764.00              7967.00,2764.00 7967.00,2775.00 7967.00,2775.00              7967.00,2775.00 7966.18,2787.00 7966.18,2787.00              7966.18,2787.00 7966.92,2794.00 7966.92,2794.00              7966.92,2794.00 7965.00,2813.00 7965.00,2813.00              7965.00,2813.00 7963.83,2840.00 7963.83,2840.00              7963.83,2840.00 7962.32,2857.00 7962.32,2857.00              7962.32,2857.00 7965.00,2881.00 7965.00,2881.00              7965.00,2881.00 7963.96,2891.00 7963.96,2891.00              7963.96,2891.00 7963.96,2901.00 7963.96,2901.00              7963.96,2901.00 7962.21,2914.00 7962.21,2914.00              7962.21,2914.00 7963.00,2927.00 7963.00,2927.00              7963.00,2927.00 7963.00,2946.00 7963.00,2946.00              7963.00,2946.00 7963.95,2960.00 7963.95,2960.00              7963.95,2960.00 7963.95,2977.00 7963.95,2977.00              7963.95,2977.00 7963.10,2986.00 7963.10,2986.00              7963.10,2986.00 7965.00,3006.00 7965.00,3006.00              7965.00,3006.00 7965.00,3029.00 7965.00,3029.00              7965.00,3029.00 7963.18,3061.00 7963.18,3061.00              7963.80,3069.17 7965.14,3067.40 7965.00,3080.00              7965.00,3080.00 7963.08,3100.00 7963.08,3100.00              7963.08,3100.00 7963.91,3108.00 7963.91,3108.00              7963.91,3108.00 7965.00,3134.00 7965.00,3134.00              7964.87,3144.92 7961.24,3146.12 7961.01,3156.00              7961.01,3156.00 7962.00,3176.00 7962.00,3176.00              7962.00,3176.00 7963.29,3196.00 7963.29,3196.00              7964.22,3203.14 7964.99,3202.65 7965.00,3211.00              7965.00,3211.00 7965.00,3239.00 7965.00,3239.00              7965.00,3239.00 7965.68,3250.00 7965.68,3250.00              7965.68,3250.00 7963.91,3271.00 7963.91,3271.00              7963.91,3271.00 7963.18,3278.00 7963.18,3278.00              7963.18,3278.00 7964.90,3294.00 7964.90,3294.00              7964.90,3294.00 7963.04,3311.00 7963.04,3311.00              7963.04,3311.00 7963.04,3325.00 7963.04,3325.00              7962.95,3335.65 7959.65,3339.16 7960.09,3347.00              7960.31,3350.81 7961.16,3352.56 7960.91,3357.00              7960.91,3357.00 7959.08,3371.00 7959.08,3371.00              7959.08,3371.00 7960.00,3386.00 7960.00,3386.00              7960.00,3386.00 7963.00,3416.00 7963.00,3416.00              7963.00,3416.00 7963.00,3438.00 7963.00,3438.00              7963.00,3438.00 7964.91,3454.00 7964.91,3454.00              7964.91,3454.00 7964.00,3470.00 7964.00,3470.00              7964.00,3470.00 7964.97,3486.00 7964.97,3486.00              7964.97,3486.00 7963.00,3504.00 7963.00,3504.00              7962.86,3516.38 7964.10,3513.37 7965.68,3523.00              7965.68,3523.00 7967.00,3543.00 7967.00,3543.00              7967.00,3543.00 7964.09,3575.00 7964.09,3575.00              7964.09,3575.00 7964.99,3584.00 7964.99,3584.00              7964.99,3584.00 7963.00,3607.00 7963.00,3607.00              7963.00,3607.00 7963.00,3619.00 7963.00,3619.00              7963.00,3619.00 7965.49,3642.00 7965.49,3642.00              7965.49,3642.00 7962.00,3689.00 7962.00,3689.00              7962.00,3689.00 7962.00,3698.00 7962.00,3698.00              7962.00,3698.00 7959.04,3713.00 7959.04,3713.00              7959.04,3713.00 7960.00,3728.00 7960.00,3728.00              7960.00,3728.00 7960.00,3757.00 7960.00,3757.00              7960.00,3757.00 7960.91,3775.00 7960.91,3775.00              7960.35,3782.65 7956.63,3787.81 7957.09,3796.00              7957.09,3796.00 7960.82,3822.00 7960.82,3822.00              7960.82,3822.00 7958.00,3842.00 7958.00,3842.00              7958.00,3842.00 7959.09,3872.00 7959.09,3872.00              7959.09,3872.00 7960.00,3885.00 7960.00,3885.00              7960.00,3885.00 7958.09,3913.00 7958.09,3913.00              7958.09,3913.00 7960.00,3935.00 7960.00,3935.00              7960.00,3935.00 7960.00,3958.00 7960.00,3958.00              7960.00,3958.00 7959.04,3974.00 7959.04,3974.00              7959.04,3974.00 7959.99,3987.00 7959.99,3987.00              7959.99,3987.00 7958.00,4014.00 7958.00,4014.00              7958.00,4014.00 7958.00,4038.00 7958.00,4038.00              7958.00,4038.00 7957.01,4055.00 7957.01,4055.00              7957.01,4055.00 7958.91,4072.00 7958.91,4072.00              7958.64,4076.79 7957.79,4078.12 7958.04,4084.00              7958.24,4088.68 7959.25,4090.76 7958.91,4096.00              7958.52,4102.01 7956.76,4104.93 7957.04,4112.00              7957.04,4112.00 7959.00,4138.00 7959.00,4138.00              7959.00,4138.00 7959.00,4163.00 7959.00,4163.00              7959.00,4163.00 7958.04,4175.00 7958.04,4175.00              7958.04,4175.00 7960.82,4215.00 7960.82,4215.00              7960.82,4215.00 7956.09,4248.00 7956.09,4248.00              7956.09,4248.00 7958.54,4260.00 7958.54,4260.00              7958.54,4260.00 7959.91,4273.00 7959.91,4273.00              7959.91,4273.00 7957.10,4297.00 7957.10,4297.00              7957.10,4297.00 7959.00,4323.00 7959.00,4323.00              7959.00,4323.00 7959.00,4357.00 7959.00,4357.00              7959.01,4365.96 7960.12,4365.90 7960.91,4373.00              7960.91,4373.00 7960.91,4383.00 7960.91,4383.00              7960.91,4383.00 7959.32,4405.00 7959.32,4405.00              7959.32,4405.00 7961.96,4431.00 7961.96,4431.00              7961.96,4431.00 7959.04,4463.00 7959.04,4463.00              7959.04,4463.00 7959.95,4473.00 7959.95,4473.00              7959.95,4473.00 7959.95,4491.00 7959.95,4491.00              7959.93,4496.30 7956.89,4512.88 7955.25,4518.00              7955.25,4518.00 7950.92,4530.00 7950.92,4530.00              7950.92,4530.00 7948.68,4546.00 7948.68,4546.00              7947.69,4551.67 7945.70,4554.51 7946.09,4561.00              7946.75,4571.77 7952.58,4579.70 7955.21,4589.00              7956.47,4593.43 7955.74,4597.50 7956.17,4602.00              7956.17,4602.00 7958.00,4622.00 7958.00,4622.00              7958.00,4622.00 7958.00,4633.00 7958.00,4633.00              7958.09,4640.57 7959.78,4642.54 7960.70,4649.00              7960.70,4649.00 7961.46,4663.00 7961.46,4663.00              7962.31,4667.68 7963.72,4669.80 7963.96,4675.00              7963.96,4675.00 7962.18,4696.00 7962.18,4696.00              7962.18,4696.00 7962.96,4707.00 7962.96,4707.00              7962.96,4707.00 7962.00,4719.00 7962.00,4719.00              7962.00,4719.00 7962.00,4752.00 7962.00,4752.00              7962.00,4752.00 7964.96,4786.00 7964.96,4786.00              7964.96,4786.00 7964.09,4794.00 7964.09,4794.00              7964.09,4794.00 7965.00,4807.00 7965.00,4807.00              7965.00,4807.00 7964.21,4820.00 7964.21,4820.00              7964.52,4825.51 7966.19,4826.80 7965.99,4836.00              7965.99,4836.00 7964.26,4859.00 7964.26,4859.00              7964.26,4859.00 7964.26,4871.00 7964.26,4871.00              7963.64,4884.38 7966.64,4883.45 7966.96,4893.00              7966.96,4893.00 7965.00,4919.00 7965.00,4919.00              7965.00,4919.00 7965.00,4938.00 7965.00,4938.00              7965.00,4938.00 7964.00,4951.00 7964.00,4951.00              7964.00,4951.00 7962.09,4982.00 7962.09,4982.00              7962.09,4982.00 7964.00,5001.00 7964.00,5001.00              7964.00,5001.00 7964.00,5022.00 7964.00,5022.00              7964.00,5022.00 7962.00,5048.00 7962.00,5048.00              7962.00,5048.00 7962.00,5087.00 7962.00,5087.00              7962.00,5087.00 7961.09,5100.00 7961.09,5100.00              7961.09,5100.00 7962.92,5119.00 7962.92,5119.00              7962.92,5119.00 7962.19,5127.00 7962.19,5127.00              7962.19,5127.00 7962.19,5140.00 7962.19,5140.00              7962.19,5140.00 7962.19,5150.00 7962.19,5150.00              7962.17,5155.07 7962.00,5160.17 7960.30,5165.00              7957.27,5173.62 7953.37,5176.85 7953.04,5187.00              7952.79,5194.93 7957.29,5206.08 7958.79,5215.00              7958.79,5215.00 7958.79,5251.00 7958.79,5251.00              7958.96,5260.11 7957.38,5260.55 7956.30,5268.00              7956.30,5268.00 7955.38,5277.00 7955.38,5277.00              7955.38,5277.00 7943.95,5316.00 7943.95,5316.00              7943.95,5316.00 7937.57,5335.79 7937.57,5335.79              7934.54,5339.30 7928.33,5340.88 7924.00,5342.33              7924.00,5342.33 7912.00,5346.91 7912.00,5346.91              7903.89,5349.79 7901.45,5348.63 7894.00,5355.18              7886.02,5362.20 7882.13,5368.29 7882.00,5379.00              7881.97,5381.62 7882.19,5385.58 7881.49,5388.00              7881.49,5388.00 7865.90,5413.00 7865.90,5413.00              7865.90,5413.00 7852.98,5455.00 7852.98,5455.00              7850.81,5461.98 7846.60,5469.77 7847.10,5477.00              7847.46,5482.40 7849.92,5487.85 7853.33,5492.00              7857.06,5496.54 7862.42,5501.38 7868.00,5503.44              7883.25,5509.09 7911.60,5498.08 7927.00,5493.58              7933.64,5491.63 7946.12,5484.74 7951.96,5488.60              7957.37,5492.17 7965.91,5505.14 7964.60,5512.00              7963.70,5516.70 7958.14,5524.20 7955.82,5529.00              7953.26,5534.29 7951.81,5545.11 7952.04,5551.00              7952.04,5551.00 7952.92,5560.00 7952.92,5560.00              7952.92,5560.00 7950.48,5579.00 7950.48,5579.00              7948.85,5585.74 7944.51,5589.58 7945.09,5599.00              7945.09,5599.00 7948.15,5614.00 7948.15,5614.00              7948.15,5614.00 7948.15,5624.00 7948.15,5624.00              7948.15,5624.00 7948.15,5628.00 7948.15,5628.00              7948.15,5628.00 7951.00,5655.00 7951.00,5655.00              7939.05,5655.00 7934.16,5655.21 7925.00,5664.04              7922.50,5666.46 7920.11,5668.96 7918.36,5672.00              7915.23,5677.47 7915.81,5681.52 7912.86,5685.83              7910.42,5689.39 7904.36,5693.96 7901.00,5697.09              7888.59,5708.65 7893.08,5705.20 7879.00,5714.34              7875.36,5716.71 7869.33,5720.75 7865.04,5721.42              7858.75,5722.41 7861.12,5716.30 7852.91,5708.09              7845.82,5701.01 7833.98,5696.83 7824.00,5698.30              7818.27,5699.14 7813.12,5702.19 7808.00,5704.75              7808.00,5704.75 7791.00,5713.31 7791.00,5713.31              7791.00,5713.31 7778.00,5720.75 7778.00,5720.75              7778.00,5720.75 7740.00,5736.40 7740.00,5736.40              7740.00,5736.40 7726.00,5742.55 7726.00,5742.55              7726.00,5742.55 7697.00,5752.57 7697.00,5752.57              7697.00,5752.57 7673.00,5758.54 7673.00,5758.54              7673.00,5758.54 7665.00,5759.46 7665.00,5759.46              7653.26,5761.56 7649.69,5763.98 7636.00,5764.00              7636.00,5764.00 7614.00,5763.00 7614.00,5763.00              7606.25,5763.01 7590.13,5764.53 7583.00,5767.09              7583.00,5767.09 7567.00,5774.47 7567.00,5774.47              7567.00,5774.47 7536.00,5777.17 7536.00,5777.17              7536.00,5777.17 7525.00,5778.46 7525.00,5778.46              7525.00,5778.46 7514.00,5780.89 7514.00,5780.89              7505.28,5781.26 7501.41,5772.27 7488.00,5773.09              7481.01,5773.52 7476.28,5776.56 7470.00,5778.24              7465.62,5779.42 7452.60,5780.94 7448.00,5781.00              7448.00,5781.00 7431.00,5781.00 7431.00,5781.00              7420.34,5780.87 7420.84,5777.19 7404.00,5777.00              7404.00,5777.00 7366.00,5770.44 7366.00,5770.44              7366.00,5770.44 7345.00,5768.68 7345.00,5768.68              7345.00,5768.68 7332.00,5765.46 7332.00,5765.46              7332.00,5765.46 7294.00,5761.18 7294.00,5761.18              7294.00,5761.18 7283.00,5761.81 7283.00,5761.81              7277.40,5761.35 7261.79,5757.49 7257.00,5754.65              7247.82,5749.21 7240.09,5735.16 7224.00,5731.24              7209.48,5727.70 7202.41,5731.66 7189.00,5734.77              7189.00,5734.77 7164.00,5739.00 7164.00,5739.00              7164.56,5735.86 7165.15,5733.24 7164.90,5730.00              7164.31,5722.09 7153.61,5713.60 7147.00,5710.04              7147.00,5710.04 7133.00,5704.44 7133.00,5704.44              7130.35,5703.49 7125.79,5702.28 7123.00,5702.35              7116.11,5702.52 7109.07,5708.05 7108.19,5715.00              7106.25,5730.46 7120.49,5735.09 7124.00,5747.00 Z            M 3979.00,220.00            C 3981.64,213.97 3985.36,202.52 3984.90,196.00              3984.08,184.22 3971.52,179.76 3965.39,186.23              3959.25,192.71 3959.76,205.66 3958.21,211.00              3956.44,217.12 3952.30,220.60 3949.67,226.00              3946.86,231.77 3945.48,248.28 3948.45,253.96              3950.31,257.51 3955.54,261.17 3958.62,265.00              3962.82,270.21 3967.04,280.82 3975.00,280.49              3982.06,280.19 3985.23,274.14 3986.39,268.00              3987.19,262.20 3986.13,261.90 3986.39,258.00              3986.39,258.00 3987.83,251.00 3987.83,251.00              3988.55,244.21 3987.40,239.52 3986.43,233.00              3985.95,229.79 3986.05,226.07 3983.99,223.39              3982.59,221.56 3980.98,220.96 3979.00,220.00 Z            M 4517.00,230.30            C 4512.83,231.09 4508.44,232.09 4505.42,235.34              4501.89,239.13 4501.03,246.05 4506.13,248.98              4508.55,250.37 4514.11,250.00 4517.00,250.00              4520.68,249.99 4524.71,250.23 4527.95,248.15              4533.66,244.47 4534.57,236.09 4528.79,232.01              4525.38,229.60 4520.93,229.91 4517.00,230.30 Z            M 3042.04,437.43            C 3040.45,438.13 3039.99,438.01 3038.65,439.43              3036.20,442.02 3033.77,453.99 3032.89,458.00              3030.95,466.80 3034.48,467.62 3034.65,474.00              3034.65,474.00 3034.03,482.00 3034.03,482.00              3034.03,482.00 3035.00,494.00 3035.00,494.00              3035.11,503.33 3035.78,519.21 3038.16,528.00              3039.47,532.84 3043.87,542.80 3046.62,546.96              3048.33,549.54 3050.49,552.10 3053.96,551.58              3057.31,551.08 3058.98,547.43 3061.21,545.18              3063.49,542.87 3068.15,539.80 3071.00,538.07              3071.00,538.07 3092.00,527.83 3092.00,527.83              3103.12,521.57 3112.76,513.40 3121.28,504.02              3130.21,494.19 3137.87,497.89 3137.91,488.00              3137.94,481.95 3133.25,476.82 3130.00,472.00              3123.49,462.34 3123.81,464.57 3116.04,457.71              3112.96,454.98 3110.89,451.90 3106.99,450.23              3106.99,450.23 3078.00,445.17 3078.00,445.17              3078.00,445.17 3068.00,444.48 3068.00,444.48              3057.73,442.29 3053.51,435.69 3042.04,437.43 Z"
            style="fill:#000000;fill-opacity:1"/>
</svg>
