<?xml version="1.0" encoding="UTF-8" standalone="no"?>
<svg
        width="173.44mm"
        height="121.92mm"
        viewBox="0 0 8194 5760"
        version="1.1"
        id="svg832"
        sodipodi:docname="sheet4a.svg"
        inkscape:version="1.1.1 (3bf5ae0d25, 2021-09-20)"
        xmlns:inkscape="http://www.inkscape.org/namespaces/inkscape"
        xmlns:sodipodi="http://sodipodi.sourceforge.net/DTD/sodipodi-0.dtd"
        xmlns="http://www.w3.org/2000/svg"
>
    <defs
            id="defs836"/>
    <sodipodi:namedview
            id="namedview834"
            pagecolor="#ffffff"
            bordercolor="#666666"
            borderopacity="1.0"
            inkscape:pageshadow="2"
            inkscape:pageopacity="0.0"
            inkscape:pagecheckerboard="0"
            inkscape:document-units="mm"
            showgrid="false"
            inkscape:zoom="2.4337486"
            inkscape:cx="588.18728"
            inkscape:cy="416.02489"
            inkscape:window-width="1920"
            inkscape:window-height="1001"
            inkscape:window-x="-7"
            inkscape:window-y="-7"
            inkscape:window-maximized="1"
            inkscape:current-layer="svg832"/>
    <path
            id="Selection #1"
            fill="none"
            stroke="black"
            stroke-width="1"
            d="M 7242.00,5691.00            C 7231.29,5676.17 7211.58,5676.13 7195.00,5674.91              7189.29,5674.49 7188.61,5673.09 7181.00,5673.00              7170.09,5672.87 7159.73,5670.88 7149.00,5669.30              7149.00,5669.30 7135.00,5667.17 7135.00,5667.17              7135.00,5667.17 7127.00,5666.62 7127.00,5666.62              7127.00,5666.62 7112.00,5661.45 7112.00,5661.45              7102.81,5659.50 7093.35,5659.89 7084.00,5660.00              7071.20,5660.15 7066.04,5663.49 7062.00,5664.11              7062.00,5664.11 7051.00,5664.11 7051.00,5664.11              7041.48,5664.22 7032.49,5664.09 7023.00,5662.84              7023.00,5662.84 7003.00,5660.23 7003.00,5660.23              6999.05,5659.96 6990.53,5659.80 6987.00,5660.23              6978.93,5661.99 6980.72,5664.23 6970.00,5663.99              6970.00,5663.99 6958.00,5663.09 6958.00,5663.09              6958.00,5663.09 6939.00,5665.11 6939.00,5665.11              6939.00,5665.11 6925.00,5665.11 6925.00,5665.11              6911.80,5664.84 6908.60,5659.81 6892.00,5660.00              6892.00,5660.00 6878.00,5661.74 6878.00,5661.74              6878.00,5661.74 6872.00,5661.04 6872.00,5661.04              6872.00,5661.04 6864.00,5661.04 6864.00,5661.04              6864.00,5661.04 6844.00,5660.00 6844.00,5660.00              6844.00,5660.00 6830.00,5659.00 6830.00,5659.00              6822.96,5658.92 6815.90,5659.10 6809.00,5660.68              6809.00,5660.68 6801.00,5662.80 6801.00,5662.80              6801.00,5662.80 6787.00,5664.30 6787.00,5664.30              6787.00,5664.30 6776.00,5667.01 6776.00,5667.01              6776.00,5667.01 6755.00,5661.89 6755.00,5661.89              6747.60,5660.17 6744.02,5661.91 6737.00,5661.89              6737.00,5661.89 6722.00,5661.89 6722.00,5661.89              6708.27,5662.02 6710.46,5664.53 6702.00,5666.47              6702.00,5666.47 6691.00,5667.46 6691.00,5667.46              6691.00,5667.46 6680.00,5670.40 6680.00,5670.40              6680.00,5670.40 6667.00,5672.32 6667.00,5672.32              6662.49,5672.70 6661.11,5671.61 6657.00,5671.08              6657.00,5671.08 6648.00,5671.08 6648.00,5671.08              6641.31,5670.92 6641.54,5670.11 6636.00,5669.30              6630.03,5668.42 6624.03,5668.07 6618.00,5668.00              6618.00,5668.00 6608.00,5667.09 6608.00,5667.09              6608.00,5667.09 6579.00,5666.00 6579.00,5666.00              6579.00,5666.00 6560.00,5668.00 6560.00,5668.00              6547.22,5668.15 6551.93,5667.14 6543.00,5665.47              6543.00,5665.47 6535.00,5664.83 6535.00,5664.83              6527.04,5663.96 6519.12,5661.72 6511.00,5662.04              6511.00,5662.04 6495.00,5663.68 6495.00,5663.68              6489.30,5663.25 6483.75,5662.67 6478.00,5663.09              6478.00,5663.09 6468.00,5664.54 6468.00,5664.54              6468.00,5664.54 6444.00,5663.17 6444.00,5663.17              6444.00,5663.17 6432.00,5666.20 6432.00,5666.20              6432.00,5666.20 6422.00,5666.20 6422.00,5666.20              6418.46,5666.81 6415.58,5668.40 6412.00,5667.92              6412.00,5667.92 6406.00,5666.47 6406.00,5666.47              6406.00,5666.47 6399.00,5665.63 6399.00,5665.63              6399.00,5665.63 6392.00,5663.68 6392.00,5663.68              6389.12,5663.03 6377.98,5661.92 6375.00,5662.04              6375.00,5662.04 6356.00,5664.92 6356.00,5664.92              6356.00,5664.92 6345.00,5663.09 6345.00,5663.09              6345.00,5663.09 6329.00,5663.09 6329.00,5663.09              6329.00,5663.09 6317.00,5663.91 6317.00,5663.91              6317.00,5663.91 6298.00,5665.17 6298.00,5665.17              6298.00,5665.17 6287.00,5666.91 6287.00,5666.91              6287.00,5666.91 6272.00,5666.91 6272.00,5666.91              6272.00,5666.91 6262.00,5666.05 6262.00,5666.05              6262.00,5666.05 6244.00,5666.05 6244.00,5666.05              6244.00,5666.05 6231.00,5667.00 6231.00,5667.00              6231.00,5667.00 6209.00,5665.00 6209.00,5665.00              6209.00,5665.00 6145.00,5665.00 6145.00,5665.00              6145.00,5665.00 6132.00,5664.01 6132.00,5664.01              6132.00,5664.01 6116.00,5665.00 6116.00,5665.00              6116.00,5665.00 6095.00,5666.00 6095.00,5666.00              6085.35,5666.12 6084.11,5668.89 6075.00,5668.95              6075.00,5668.95 6061.00,5668.95 6061.00,5668.95              6061.00,5668.95 6049.00,5667.96 6049.00,5667.96              6049.00,5667.96 6037.00,5667.96 6037.00,5667.96              6037.00,5667.96 6025.00,5667.01 6025.00,5667.01              6025.00,5667.01 6011.00,5667.99 6011.00,5667.99              6011.00,5667.99 5996.00,5667.00 5996.00,5667.00              5996.00,5667.00 5983.00,5667.91 5983.00,5667.91              5983.00,5667.91 5973.00,5667.04 5973.00,5667.04              5973.00,5667.04 5946.00,5669.00 5946.00,5669.00              5946.00,5669.00 5923.00,5669.00 5923.00,5669.00              5923.00,5669.00 5902.00,5667.09 5902.00,5667.09              5902.00,5667.09 5890.00,5668.00 5890.00,5668.00              5890.00,5668.00 5856.00,5668.00 5856.00,5668.00              5856.00,5668.00 5844.00,5668.96 5844.00,5668.96              5844.00,5668.96 5830.00,5668.96 5830.00,5668.96              5830.00,5668.96 5816.00,5670.00 5816.00,5670.00              5816.00,5670.00 5791.00,5668.00 5791.00,5668.00              5791.00,5668.00 5760.00,5669.25 5760.00,5669.25              5760.00,5669.25 5738.00,5666.04 5738.00,5666.04              5731.45,5665.83 5729.08,5667.61 5725.00,5667.66              5725.00,5667.66 5704.00,5666.18 5704.00,5666.18              5704.00,5666.18 5695.00,5666.18 5695.00,5666.18              5687.74,5665.90 5686.15,5661.45 5676.00,5661.04              5664.13,5660.56 5656.37,5666.04 5645.00,5664.83              5645.00,5664.83 5630.00,5662.37 5630.00,5662.37              5620.91,5659.88 5611.70,5656.15 5602.00,5657.17              5597.20,5657.68 5592.05,5659.47 5588.00,5662.11              5585.61,5663.66 5582.59,5666.56 5580.00,5667.26              5580.00,5667.26 5568.00,5667.26 5568.00,5667.26              5568.00,5667.26 5545.00,5670.00 5545.00,5670.00              5545.00,5670.00 5536.00,5670.00 5536.00,5670.00              5536.00,5670.00 5524.00,5671.00 5524.00,5671.00              5524.00,5671.00 5509.00,5671.00 5509.00,5671.00              5509.00,5671.00 5496.00,5671.91 5496.00,5671.91              5496.00,5671.91 5486.00,5671.00 5486.00,5671.00              5486.00,5671.00 5450.00,5673.00 5450.00,5673.00              5450.00,5673.00 5431.00,5673.00 5431.00,5673.00              5431.00,5673.00 5414.00,5673.99 5414.00,5673.99              5414.00,5673.99 5396.00,5672.25 5396.00,5672.25              5396.00,5672.25 5389.00,5672.25 5389.00,5672.25              5384.64,5672.21 5380.39,5671.70 5376.00,5672.25              5370.52,5672.76 5369.16,5674.43 5363.00,5674.09              5363.00,5674.09 5346.00,5674.09 5346.00,5674.09              5346.00,5674.09 5331.00,5673.13 5331.00,5673.13              5331.00,5673.13 5311.00,5673.13 5311.00,5673.13              5311.00,5673.13 5299.00,5673.13 5299.00,5673.13              5299.00,5673.13 5291.00,5673.13 5291.00,5673.13              5291.00,5673.13 5279.00,5674.17 5279.00,5674.17              5279.00,5674.17 5219.00,5674.17 5219.00,5674.17              5219.00,5674.17 5208.00,5674.17 5208.00,5674.17              5208.00,5674.17 5192.00,5676.56 5192.00,5676.56              5189.16,5676.30 5186.01,5674.18 5183.00,5673.22              5178.87,5671.91 5175.26,5671.96 5171.00,5672.00              5159.24,5672.14 5160.15,5675.98 5146.00,5675.91              5146.00,5675.91 5135.00,5675.91 5135.00,5675.91              5129.34,5675.22 5128.22,5673.75 5121.00,5674.04              5116.23,5674.23 5111.79,5676.16 5107.00,5675.82              5107.00,5675.82 5093.00,5674.04 5093.00,5674.04              5093.00,5674.04 5072.00,5674.04 5072.00,5674.04              5072.00,5674.04 5045.00,5677.00 5045.00,5677.00              5045.00,5677.00 5015.00,5676.00 5015.00,5676.00              5015.00,5676.00 4999.00,5675.00 4999.00,5675.00              4999.00,5675.00 4970.00,5678.00 4970.00,5678.00              4970.00,5678.00 4950.00,5677.00 4950.00,5677.00              4950.00,5677.00 4934.00,5678.81 4934.00,5678.81              4927.97,5678.32 4929.31,5677.02 4919.00,5677.04              4919.00,5677.04 4905.00,5677.04 4905.00,5677.04              4905.00,5677.04 4892.00,5678.00 4892.00,5678.00              4892.00,5678.00 4879.00,5678.99 4879.00,5678.99              4868.16,5679.23 4866.39,5676.55 4859.00,5676.09              4853.04,5675.73 4848.64,5677.75 4843.00,5678.99              4843.00,5678.99 4826.00,5681.46 4826.00,5681.46              4821.03,5682.34 4814.00,5684.05 4809.00,5683.68              4809.00,5683.68 4768.00,5679.00 4768.00,5679.00              4768.00,5679.00 4764.00,5679.00 4764.00,5679.00              4751.09,5679.16 4744.05,5685.12 4738.00,5684.67              4727.23,5683.88 4720.90,5676.44 4709.00,5677.09              4709.00,5677.09 4703.00,5677.66 4703.00,5677.66              4703.00,5677.66 4691.00,5676.01 4691.00,5676.01              4691.00,5676.01 4677.00,5676.66 4677.00,5676.66              4677.00,5676.66 4668.00,5675.09 4668.00,5675.09              4668.00,5675.09 4647.00,5676.54 4647.00,5676.54              4647.00,5676.54 4634.00,5675.15 4634.00,5675.15              4634.00,5675.15 4616.00,5675.15 4616.00,5675.15              4616.00,5675.15 4602.00,5678.62 4602.00,5678.62              4602.00,5678.62 4575.00,5677.00 4575.00,5677.00              4562.74,5677.02 4558.09,5680.87 4547.00,5681.00              4547.00,5681.00 4524.00,5681.00 4524.00,5681.00              4524.00,5681.00 4509.00,5680.00 4509.00,5680.00              4509.00,5680.00 4495.00,5680.82 4495.00,5680.82              4486.06,5681.45 4481.31,5677.15 4474.00,5674.55              4468.81,5672.70 4461.72,5672.82 4456.00,5671.69              4449.85,5670.47 4446.75,5667.62 4439.00,5668.09              4424.37,5668.99 4419.35,5678.49 4404.00,5679.46              4400.21,5679.70 4397.65,5678.15 4394.00,5677.47              4394.00,5677.47 4386.00,5676.63 4386.00,5676.63              4377.83,5675.05 4380.45,5674.02 4370.00,5674.00              4370.00,5674.00 4353.00,5674.99 4353.00,5674.99              4353.00,5674.99 4334.00,5674.00 4334.00,5674.00              4329.80,5674.05 4319.80,5675.16 4316.00,5676.56              4316.00,5676.56 4307.00,5680.59 4307.00,5680.59              4307.00,5680.59 4296.00,5681.68 4296.00,5681.68              4291.64,5682.00 4289.17,5680.64 4285.00,5680.17              4285.00,5680.17 4250.00,5676.04 4250.00,5676.04              4250.00,5676.04 4242.00,5676.63 4242.00,5676.63              4235.11,5676.25 4234.71,5674.95 4224.00,5675.00              4211.55,5675.06 4212.43,5677.14 4198.00,5672.90              4198.00,5672.90 4183.00,5665.55 4183.00,5665.55              4172.98,5661.93 4167.31,5663.81 4164.38,5661.98              4161.84,5660.40 4160.93,5656.84 4155.96,5652.18              4155.96,5652.18 4138.63,5634.96 4138.63,5634.96              4138.63,5634.96 4124.12,5611.00 4124.12,5611.00              4121.26,5606.63 4121.02,5603.51 4117.47,5599.01              4112.15,5592.27 4100.63,5586.41 4092.00,5586.04              4079.24,5585.48 4066.05,5592.98 4060.95,5605.00              4058.47,5610.86 4059.48,5614.82 4058.26,5618.00              4056.67,5622.16 4052.30,5624.97 4049.40,5631.00              4046.97,5636.05 4044.80,5648.12 4040.93,5653.89              4037.90,5658.41 4026.19,5661.61 4021.00,5663.56              4014.20,5666.10 4009.04,5671.10 3999.00,5673.74              3999.00,5673.74 3981.00,5674.30 3981.00,5674.30              3981.00,5674.30 3950.00,5680.51 3950.00,5680.51              3945.50,5680.42 3941.69,5677.19 3933.00,5677.02              3922.25,5676.80 3919.21,5680.23 3914.00,5680.75              3914.00,5680.75 3899.00,5679.04 3899.00,5679.04              3891.74,5678.76 3889.26,5680.50 3886.00,5680.49              3886.00,5680.49 3873.00,5677.30 3873.00,5677.30              3873.00,5677.30 3841.00,5676.00 3841.00,5676.00              3829.40,5676.14 3825.47,5680.58 3821.00,5680.99              3817.20,5681.34 3812.80,5678.01 3804.00,5679.30              3799.64,5679.94 3793.17,5682.83 3789.00,5682.42              3785.29,5682.04 3782.27,5678.76 3778.00,5676.95              3772.59,5674.66 3769.32,5675.41 3766.00,5674.51              3761.89,5673.38 3757.74,5669.55 3749.00,5670.09              3742.81,5670.47 3739.82,5672.81 3736.00,5673.61              3736.00,5673.61 3724.00,5674.68 3724.00,5674.68              3724.00,5674.68 3712.00,5679.07 3712.00,5679.07              3712.00,5679.07 3686.00,5682.83 3686.00,5682.83              3677.06,5683.71 3675.25,5680.68 3666.00,5681.04              3661.05,5681.23 3658.61,5682.42 3653.00,5681.83              3653.00,5681.83 3624.00,5677.09 3624.00,5677.09              3609.57,5676.10 3611.06,5680.18 3595.00,5680.00              3595.00,5680.00 3579.00,5679.09 3579.00,5679.09              3575.33,5679.36 3571.23,5680.94 3568.00,5680.53              3564.36,5680.08 3558.79,5676.61 3551.00,5677.09              3542.93,5677.59 3538.66,5681.73 3534.00,5682.37              3529.24,5683.02 3526.17,5679.63 3518.00,5680.09              3518.00,5680.09 3490.00,5685.61 3490.00,5685.61              3486.59,5685.85 3483.36,5684.53 3480.00,5684.08              3480.00,5684.08 3472.00,5684.08 3472.00,5684.08              3472.00,5684.08 3455.00,5682.09 3455.00,5682.09              3455.00,5682.09 3425.00,5684.30 3425.00,5684.30              3425.00,5684.30 3415.00,5686.68 3415.00,5686.68              3415.00,5686.68 3396.00,5688.29 3396.00,5688.29              3396.00,5688.29 3386.00,5688.29 3386.00,5688.29              3386.00,5688.29 3367.00,5689.00 3367.00,5689.00              3367.00,5689.00 3349.00,5690.97 3349.00,5690.97              3349.00,5690.97 3335.00,5689.92 3335.00,5689.92              3329.62,5690.11 3326.62,5690.49 3321.00,5689.92              3313.33,5688.93 3314.77,5687.89 3305.00,5688.00              3305.00,5688.00 3286.00,5689.17 3286.00,5689.17              3282.58,5689.54 3280.62,5690.51 3277.00,5690.40              3270.95,5690.22 3266.56,5688.45 3261.00,5687.46              3261.00,5687.46 3248.00,5686.83 3248.00,5686.83              3243.22,5686.32 3241.93,5685.13 3236.00,5685.02              3236.00,5685.02 3215.00,5687.43 3215.00,5687.43              3212.11,5687.29 3208.97,5685.18 3206.00,5684.22              3200.92,5682.58 3195.32,5681.89 3190.00,5682.01              3185.96,5682.11 3170.00,5684.74 3166.00,5685.91              3158.20,5688.20 3156.07,5690.33 3147.00,5689.96              3147.00,5689.96 3127.00,5687.09 3127.00,5687.09              3123.41,5686.89 3122.17,5687.44 3119.00,5687.68              3119.00,5687.68 3107.00,5687.09 3107.00,5687.09              3099.50,5687.61 3092.15,5692.65 3082.00,5691.81              3082.00,5691.81 3074.00,5690.30 3074.00,5690.30              3074.00,5690.30 3057.00,5689.01 3057.00,5689.01              3050.15,5689.17 3047.41,5691.26 3040.00,5690.96              3040.00,5690.96 3028.00,5689.09 3028.00,5689.09              3019.81,5688.49 3016.53,5689.92 3012.00,5689.92              3012.00,5689.92 3001.00,5689.00 3001.00,5689.00              3001.00,5689.00 2982.00,5690.17 2982.00,5690.17              2982.00,5690.17 2973.00,5691.28 2973.00,5691.28              2973.00,5691.28 2964.00,5691.28 2964.00,5691.28              2964.00,5691.28 2954.00,5691.28 2954.00,5691.28              2954.00,5691.28 2934.00,5689.09 2934.00,5689.09              2934.00,5689.09 2915.00,5690.70 2915.00,5690.70              2909.93,5690.28 2905.31,5685.60 2894.00,5686.04              2894.00,5686.04 2886.00,5686.96 2886.00,5686.96              2886.00,5686.96 2873.00,5686.96 2873.00,5686.96              2873.00,5686.96 2857.00,5686.04 2857.00,5686.04              2857.00,5686.04 2831.00,5688.00 2831.00,5688.00              2831.00,5688.00 2807.00,5688.79 2807.00,5688.79              2801.69,5688.45 2802.24,5687.02 2792.00,5687.00              2780.38,5686.98 2783.42,5687.93 2775.00,5689.06              2775.00,5689.06 2766.00,5689.06 2766.00,5689.06              2766.00,5689.06 2753.00,5690.92 2753.00,5690.92              2746.00,5690.91 2742.40,5687.59 2732.00,5688.04              2721.06,5688.52 2725.40,5692.03 2708.00,5692.00              2708.00,5692.00 2686.00,5690.02 2686.00,5690.02              2686.00,5690.02 2657.00,5692.16 2657.00,5692.16              2657.00,5692.16 2650.00,5691.09 2650.00,5691.09              2643.12,5690.67 2639.02,5693.23 2635.00,5693.51              2627.69,5694.01 2619.14,5691.88 2612.00,5691.17              2605.23,5690.49 2600.83,5691.91 2598.00,5691.70              2598.00,5691.70 2589.00,5689.47 2589.00,5689.47              2589.00,5689.47 2580.00,5688.30 2580.00,5688.30              2580.00,5688.30 2574.00,5685.40 2574.00,5685.40              2569.18,5683.17 2561.32,5681.82 2556.00,5682.04              2546.98,5682.40 2540.48,5688.17 2532.00,5688.60              2528.56,5688.77 2525.39,5687.10 2522.00,5686.47              2522.00,5686.47 2505.00,5685.02 2505.00,5685.02              2500.59,5685.10 2496.93,5685.82 2493.00,5687.91              2490.13,5689.44 2487.24,5692.14 2484.00,5692.40              2484.00,5692.40 2474.00,5691.04 2474.00,5691.04              2474.00,5691.04 2441.00,5690.00 2441.00,5690.00              2441.00,5690.00 2425.00,5692.08 2425.00,5692.08              2425.00,5692.08 2415.00,5692.08 2415.00,5692.08              2415.00,5692.08 2399.00,5691.01 2399.00,5691.01              2388.00,5690.76 2386.62,5693.35 2381.00,5693.78              2381.00,5693.78 2368.00,5693.04 2368.00,5693.04              2368.00,5693.04 2357.00,5694.92 2357.00,5694.92              2357.00,5694.92 2339.00,5694.92 2339.00,5694.92              2332.04,5695.09 2330.77,5696.36 2327.00,5696.53              2327.00,5696.53 2314.00,5695.29 2314.00,5695.29              2314.00,5695.29 2304.00,5695.29 2304.00,5695.29              2304.00,5695.29 2291.00,5694.09 2291.00,5694.09              2291.00,5694.09 2271.00,5692.83 2271.00,5692.83              2271.00,5692.83 2260.00,5691.04 2260.00,5691.04              2254.07,5690.84 2250.37,5692.59 2245.00,5693.34              2245.00,5693.34 2231.00,5693.34 2231.00,5693.34              2225.69,5693.33 2221.32,5688.58 2210.00,5689.04              2202.54,5689.34 2199.78,5691.94 2196.00,5692.57              2196.00,5692.57 2184.00,5692.04 2184.00,5692.04              2184.00,5692.04 2173.00,5692.99 2173.00,5692.99              2173.00,5692.99 2155.00,5692.00 2155.00,5692.00              2141.62,5692.02 2142.10,5695.81 2127.00,5695.13              2127.00,5695.13 2114.00,5695.13 2114.00,5695.13              2114.00,5695.13 2096.00,5694.00 2096.00,5694.00              2096.00,5694.00 2082.00,5693.09 2082.00,5693.09              2082.00,5693.09 2066.00,5695.91 2066.00,5695.91              2061.60,5696.16 2059.79,5695.31 2056.00,5695.09              2056.00,5695.09 2043.00,5696.00 2043.00,5696.00              2043.00,5696.00 2020.00,5694.78 2020.00,5694.78              2015.72,5694.06 2013.77,5691.74 2009.00,5690.22              2006.34,5689.37 1993.95,5688.03 1991.00,5688.03              1983.79,5688.03 1982.82,5689.78 1977.00,5691.37              1977.00,5691.37 1968.00,5692.47 1968.00,5692.47              1961.86,5693.62 1961.48,5695.26 1954.00,5694.96              1954.00,5694.96 1944.00,5693.15 1944.00,5693.15              1944.00,5693.15 1932.00,5693.15 1932.00,5693.15              1918.14,5693.02 1917.74,5696.18 1911.00,5697.81              1911.00,5697.81 1895.00,5697.81 1895.00,5697.81              1895.00,5697.81 1876.00,5695.92 1876.00,5695.92              1876.00,5695.92 1864.00,5695.92 1864.00,5695.92              1854.48,5694.81 1857.58,5693.86 1845.00,5694.00              1845.00,5694.00 1823.00,5696.53 1823.00,5696.53              1823.00,5696.53 1805.00,5692.31 1805.00,5692.31              1800.14,5690.67 1797.96,5687.24 1788.00,5687.01              1777.70,5686.78 1778.11,5688.80 1770.00,5688.99              1770.00,5688.99 1752.00,5688.13 1752.00,5688.13              1752.00,5688.13 1744.00,5688.13 1744.00,5688.13              1740.04,5688.03 1738.02,5686.68 1732.00,5687.09              1725.60,5687.53 1721.23,5690.12 1718.00,5690.54              1718.00,5690.54 1709.00,5690.01 1709.00,5690.01              1709.00,5690.01 1697.00,5690.74 1697.00,5690.74              1693.01,5690.59 1691.22,5689.09 1684.00,5689.07              1684.00,5689.07 1670.00,5689.07 1670.00,5689.07              1670.00,5689.07 1652.00,5689.07 1652.00,5689.07              1649.56,5689.00 1643.97,5689.38 1642.00,5689.07              1642.00,5689.07 1633.00,5683.95 1633.00,5683.95              1628.22,5681.93 1624.06,5681.95 1619.00,5682.00              1609.37,5682.11 1601.87,5686.35 1594.00,5687.11              1589.05,5687.58 1584.40,5683.97 1573.00,5687.75              1568.96,5689.08 1567.55,5690.26 1564.00,5692.03              1556.78,5695.63 1545.11,5700.00 1537.00,5699.49              1537.00,5699.49 1510.00,5700.00 1510.00,5700.00              1510.00,5700.00 1496.00,5699.09 1496.00,5699.09              1496.00,5699.09 1474.00,5701.08 1474.00,5701.08              1474.00,5701.08 1463.00,5701.08 1463.00,5701.08              1463.00,5701.08 1450.00,5703.74 1450.00,5703.74              1450.00,5703.74 1438.00,5703.00 1438.00,5703.00              1438.00,5703.00 1427.00,5703.00 1427.00,5703.00              1417.73,5702.95 1418.98,5701.33 1412.00,5700.06              1412.00,5700.06 1402.00,5700.06 1402.00,5700.06              1393.07,5698.87 1396.59,5697.86 1384.00,5698.00              1384.00,5698.00 1374.00,5698.96 1374.00,5698.96              1374.00,5698.96 1357.00,5698.96 1357.00,5698.96              1347.08,5698.98 1348.96,5697.91 1342.00,5697.21              1342.00,5697.21 1331.00,5697.21 1331.00,5697.21              1331.00,5697.21 1319.00,5696.51 1319.00,5696.51              1314.95,5695.42 1312.24,5692.37 1304.00,5692.04              1288.22,5691.40 1283.29,5702.10 1272.00,5702.28              1272.00,5702.28 1254.00,5701.15 1254.00,5701.15              1254.00,5701.15 1245.00,5701.15 1245.00,5701.15              1245.00,5701.15 1236.00,5697.93 1236.00,5697.93              1230.75,5696.49 1228.11,5697.16 1223.00,5697.24              1223.00,5697.24 1209.00,5697.24 1209.00,5697.24              1198.79,5696.95 1197.91,5693.75 1189.00,5694.04              1189.00,5694.04 1162.00,5698.70 1162.00,5698.70              1149.89,5700.45 1142.21,5700.98 1130.00,5701.00              1130.00,5701.00 1118.00,5701.95 1118.00,5701.95              1118.00,5701.95 1104.00,5701.95 1104.00,5701.95              1095.30,5701.88 1093.23,5698.63 1085.00,5699.09              1085.00,5699.09 1056.00,5700.81 1056.00,5700.81              1050.48,5700.36 1050.73,5699.04 1042.00,5699.00              1027.52,5698.94 1028.02,5701.75 1022.00,5702.54              1013.44,5703.65 1007.02,5696.76 994.00,5697.02              985.59,5697.18 982.37,5699.36 975.00,5701.37              975.00,5701.37 959.00,5704.24 959.00,5704.24              959.00,5704.24 934.00,5703.00 934.00,5703.00              929.83,5702.95 914.68,5701.52 911.00,5700.38              911.00,5700.38 902.00,5696.34 902.00,5696.34              896.54,5694.01 886.94,5692.01 881.00,5692.01              870.53,5692.01 868.55,5695.41 863.00,5696.61              863.00,5696.61 855.00,5697.30 855.00,5697.30              855.00,5697.30 847.00,5699.01 847.00,5699.01              847.00,5699.01 835.00,5699.01 835.00,5699.01              835.00,5699.01 802.00,5699.01 802.00,5699.01              802.00,5699.01 786.00,5698.00 786.00,5698.00              786.00,5698.00 770.00,5699.00 770.00,5699.00              758.19,5699.02 761.52,5699.91 753.00,5700.83              753.00,5700.83 744.00,5701.47 744.00,5701.47              736.20,5702.92 739.03,5703.98 729.00,5704.00              729.00,5704.00 717.00,5704.00 717.00,5704.00              717.00,5704.00 707.00,5704.74 707.00,5704.74              703.01,5704.59 701.22,5703.09 694.00,5703.00              685.23,5702.90 676.65,5704.01 668.00,5705.30              668.00,5705.30 660.00,5707.08 660.00,5707.08              660.00,5707.08 651.00,5707.08 651.00,5707.08              651.00,5707.08 643.00,5707.95 643.00,5707.95              643.00,5707.95 630.00,5707.95 630.00,5707.95              630.00,5707.95 614.00,5706.04 614.00,5706.04              614.00,5706.04 601.00,5706.66 601.00,5706.66              597.04,5706.27 596.02,5705.13 590.00,5705.02              581.64,5704.85 579.76,5706.80 575.00,5706.82              570.81,5706.84 566.58,5705.36 559.00,5706.17              559.00,5706.17 540.00,5708.82 540.00,5708.82              540.00,5708.82 509.00,5705.00 509.00,5705.00              509.00,5705.00 497.00,5705.82 497.00,5705.82              497.00,5705.82 483.00,5705.00 483.00,5705.00              483.00,5705.00 460.00,5706.00 460.00,5706.00              460.00,5706.00 447.00,5704.90 447.00,5704.90              434.26,5704.86 430.50,5707.05 416.00,5704.90              410.20,5703.89 405.93,5699.60 395.00,5700.04              388.51,5700.30 386.02,5702.42 382.00,5702.51              382.00,5702.51 367.00,5701.70 367.00,5701.70              361.48,5700.91 360.48,5699.78 354.00,5700.04              354.00,5700.04 344.00,5701.70 344.00,5701.70              344.00,5701.70 323.00,5702.74 323.00,5702.74              318.30,5702.56 313.77,5700.03 307.00,5700.03              307.00,5700.03 280.00,5702.98 280.00,5702.98              280.00,5702.98 263.00,5700.37 263.00,5700.37              253.36,5697.67 254.62,5696.02 243.00,5696.00              243.00,5696.00 236.00,5696.00 236.00,5696.00              226.06,5695.98 217.34,5692.08 208.00,5689.22              205.22,5688.37 198.98,5688.02 197.56,5686.98              196.15,5685.95 193.90,5680.34 192.21,5678.00              189.24,5673.88 184.36,5670.06 180.00,5667.47              180.00,5667.47 159.09,5658.70 159.09,5658.70              155.15,5656.52 152.81,5651.59 146.00,5647.48              140.44,5644.12 137.60,5644.73 132.14,5639.41              126.94,5634.33 129.94,5630.96 124.21,5623.00              121.71,5619.53 118.75,5616.96 115.00,5614.91              112.56,5613.58 109.52,5612.88 107.72,5610.70              105.30,5607.77 105.72,5602.66 100.47,5596.01              96.84,5591.42 93.99,5590.44 91.39,5587.68              91.39,5587.68 79.26,5571.00 79.26,5571.00              77.27,5568.42 73.64,5564.82 72.60,5562.00              71.13,5558.02 70.94,5541.93 71.00,5537.00              71.15,5525.92 76.97,5526.26 76.97,5514.00              76.97,5503.03 71.75,5499.66 69.39,5494.00              68.57,5492.02 66.25,5480.32 66.09,5478.00              66.09,5478.00 67.39,5456.00 67.39,5456.00              68.58,5450.35 71.25,5449.53 70.99,5438.00              70.99,5438.00 69.53,5416.00 69.53,5416.00              68.52,5410.62 66.29,5408.49 66.05,5403.00              65.70,5395.21 69.02,5393.36 69.00,5380.00              69.00,5380.00 67.70,5361.00 67.70,5361.00              67.70,5361.00 65.58,5352.00 65.58,5352.00              65.41,5347.80 68.69,5345.00 68.96,5337.00              69.34,5325.63 62.69,5320.46 63.55,5312.00              64.15,5306.15 64.99,5306.84 64.91,5299.00              64.91,5299.00 64.91,5287.00 64.91,5287.00              64.91,5287.00 63.83,5280.00 63.83,5280.00              63.83,5280.00 63.83,5272.00 63.83,5272.00              63.83,5272.00 62.89,5256.00 62.89,5256.00              62.89,5256.00 62.89,5244.00 62.89,5244.00              62.89,5244.00 62.89,5232.00 62.89,5232.00              63.72,5226.92 65.16,5225.22 64.96,5219.00              64.96,5219.00 61.78,5183.00 61.78,5183.00              61.78,5183.00 63.96,5170.00 63.96,5170.00              64.20,5162.81 61.83,5160.16 62.34,5155.00              62.34,5155.00 64.06,5146.00 64.06,5146.00              64.06,5146.00 64.06,5133.00 64.06,5133.00              64.91,5127.99 67.31,5125.63 66.96,5117.00              66.56,5107.14 62.18,5104.61 61.71,5100.00              61.71,5100.00 62.96,5084.00 62.96,5084.00              62.96,5084.00 62.01,5070.00 62.01,5070.00              62.01,5070.00 62.91,5058.00 62.91,5058.00              62.67,5054.19 61.16,5050.83 61.55,5047.00              61.55,5047.00 65.96,5025.00 65.96,5025.00              65.96,5025.00 62.17,5002.00 62.17,5002.00              62.17,5002.00 62.91,4989.00 62.91,4989.00              62.55,4983.17 61.04,4983.00 61.04,4974.00              61.04,4974.00 61.04,4964.00 61.04,4964.00              61.35,4960.13 62.15,4958.28 61.91,4954.00              61.91,4954.00 59.28,4938.00 59.28,4938.00              59.24,4934.46 61.17,4931.35 62.07,4928.00              62.07,4928.00 64.96,4911.00 64.96,4911.00              65.37,4900.82 61.62,4896.28 60.14,4890.00              60.14,4890.00 60.14,4883.00 60.14,4883.00              60.14,4883.00 58.87,4875.00 58.87,4875.00              58.87,4875.00 58.87,4865.00 58.87,4865.00              58.87,4865.00 59.91,4840.00 59.91,4840.00              59.91,4840.00 57.09,4816.00 57.09,4816.00              57.09,4816.00 57.91,4809.00 57.91,4809.00              57.91,4809.00 59.09,4784.00 59.09,4784.00              59.09,4784.00 59.97,4775.00 59.97,4775.00              59.97,4775.00 58.00,4757.00 58.00,4757.00              58.00,4757.00 58.00,4737.00 58.00,4737.00              58.00,4737.00 56.76,4715.00 56.76,4715.00              56.76,4715.00 56.76,4706.00 56.76,4706.00              56.76,4706.00 58.17,4685.00 58.17,4685.00              58.79,4679.28 60.24,4678.25 59.96,4671.00              59.96,4671.00 58.09,4654.00 58.09,4654.00              58.30,4650.24 59.17,4648.31 58.91,4644.00              58.91,4644.00 57.30,4635.00 57.30,4635.00              57.30,4635.00 56.76,4620.00 56.76,4620.00              56.76,4620.00 56.76,4612.00 56.76,4612.00              56.76,4612.00 58.00,4584.00 58.00,4584.00              57.98,4574.07 56.92,4576.01 56.09,4569.00              56.09,4569.00 56.09,4558.00 56.09,4558.00              56.09,4558.00 57.00,4541.00 57.00,4541.00              57.00,4541.00 57.00,4527.00 57.00,4527.00              57.00,4527.00 58.96,4509.00 58.96,4509.00              58.96,4509.00 58.96,4499.00 58.96,4499.00              58.96,4499.00 60.00,4482.00 60.00,4482.00              60.00,4482.00 58.04,4463.00 58.04,4463.00              58.04,4463.00 58.96,4449.00 58.96,4449.00              58.96,4449.00 57.34,4427.00 57.34,4427.00              57.34,4427.00 58.00,4412.00 58.00,4412.00              58.00,4412.00 59.99,4386.00 59.99,4386.00              59.99,4386.00 58.09,4359.00 58.09,4359.00              58.09,4359.00 59.98,4346.00 59.98,4346.00              59.98,4346.00 58.04,4323.00 58.04,4323.00              58.04,4323.00 58.04,4311.00 58.04,4311.00              58.04,4311.00 58.99,4301.00 58.99,4301.00              58.99,4301.00 58.00,4287.00 58.00,4287.00              58.00,4287.00 59.98,4264.00 59.98,4264.00              59.98,4264.00 58.01,4249.00 58.01,4249.00              58.01,4249.00 58.96,4234.00 58.96,4234.00              58.78,4228.68 57.15,4226.47 57.53,4222.00              57.53,4222.00 59.96,4208.00 59.96,4208.00              60.22,4202.15 59.42,4200.92 59.09,4196.00              59.09,4196.00 58.57,4184.00 58.57,4184.00              58.57,4184.00 58.57,4164.00 58.57,4164.00              58.57,4164.00 59.91,4156.00 59.91,4156.00              59.91,4156.00 59.91,4143.00 59.91,4143.00              59.91,4143.00 59.34,4134.00 59.34,4134.00              59.34,4134.00 59.98,4127.00 59.98,4127.00              59.98,4127.00 59.98,4115.00 59.98,4115.00              59.98,4115.00 59.03,4101.00 59.03,4101.00              59.03,4101.00 59.96,4087.00 59.96,4087.00              59.96,4087.00 59.00,4075.00 59.00,4075.00              59.00,4075.00 59.00,4048.00 59.00,4048.00              59.00,4048.00 58.01,4031.00 58.01,4031.00              58.01,4031.00 59.00,4014.00 59.00,4014.00              59.00,4014.00 58.21,4003.00 58.21,4003.00              58.21,4003.00 59.96,3985.00 59.96,3985.00              59.96,3985.00 58.03,3968.00 58.03,3968.00              58.03,3968.00 59.00,3953.00 59.00,3953.00              59.00,3953.00 58.39,3943.00 58.39,3943.00              58.39,3943.00 59.70,3936.00 59.70,3936.00              59.70,3936.00 60.97,3919.00 60.97,3919.00              60.97,3919.00 59.70,3899.00 59.70,3899.00              59.70,3899.00 58.09,3891.00 58.09,3891.00              58.09,3891.00 58.09,3871.00 58.09,3871.00              58.13,3859.92 62.39,3856.64 61.96,3846.00              61.65,3838.40 59.12,3837.41 59.00,3829.00              59.00,3829.00 57.32,3797.00 57.32,3797.00              56.66,3788.08 61.97,3783.89 61.97,3774.00              61.97,3765.95 59.12,3764.59 59.03,3756.00              59.03,3756.00 59.03,3752.00 59.03,3752.00              59.03,3752.00 59.03,3734.00 59.03,3734.00              59.03,3734.00 59.96,3724.00 59.96,3724.00              59.96,3724.00 58.38,3712.00 58.38,3712.00              58.38,3712.00 59.96,3703.00 59.96,3703.00              59.96,3703.00 59.96,3694.00 59.96,3694.00              59.96,3694.00 61.00,3677.00 61.00,3677.00              61.00,3677.00 60.01,3661.00 60.01,3661.00              60.01,3661.00 62.91,3638.00 62.91,3638.00              62.91,3638.00 60.09,3621.00 60.09,3621.00              60.09,3621.00 60.91,3608.00 60.91,3608.00              60.91,3608.00 60.18,3601.00 60.18,3601.00              60.18,3601.00 61.00,3586.00 61.00,3586.00              61.00,3586.00 60.00,3573.00 60.00,3573.00              60.00,3573.00 60.00,3550.00 60.00,3550.00              60.00,3550.00 58.00,3524.00 58.00,3524.00              58.00,3524.00 61.00,3498.00 61.00,3498.00              61.13,3486.92 60.08,3486.55 59.09,3477.00              59.09,3477.00 59.09,3459.00 59.09,3459.00              59.09,3459.00 59.99,3444.00 59.99,3444.00              59.99,3444.00 59.32,3434.00 59.32,3434.00              59.32,3434.00 60.00,3422.00 60.00,3422.00              60.00,3422.00 59.03,3409.00 59.03,3409.00              59.03,3409.00 59.96,3400.00 59.96,3400.00              59.96,3400.00 59.96,3384.00 59.96,3384.00              59.96,3384.00 58.09,3365.00 58.09,3365.00              58.09,3365.00 58.09,3352.00 58.09,3352.00              58.09,3352.00 59.14,3337.00 59.14,3337.00              59.14,3337.00 59.14,3325.00 59.14,3325.00              59.14,3325.00 60.96,3314.00 60.96,3314.00              60.96,3314.00 59.92,3304.00 59.92,3304.00              59.92,3304.00 59.92,3287.00 59.92,3287.00              59.92,3287.00 60.95,3269.00 60.95,3269.00              60.95,3269.00 60.95,3254.00 60.95,3254.00              60.95,3254.00 60.10,3245.00 60.10,3245.00              60.41,3238.82 62.46,3238.28 61.96,3227.00              61.96,3227.00 58.71,3201.00 58.71,3201.00              58.71,3201.00 59.91,3180.00 59.91,3180.00              59.91,3180.00 59.00,3168.00 59.00,3168.00              59.00,3168.00 59.00,3100.00 59.00,3100.00              59.00,3100.00 60.30,3081.00 60.30,3081.00              60.97,3076.32 61.86,3075.66 61.99,3070.00              61.99,3070.00 61.18,3058.00 61.18,3058.00              61.18,3058.00 61.96,3050.00 61.96,3050.00              61.96,3050.00 61.04,3039.00 61.04,3039.00              61.04,3039.00 61.04,3026.00 61.04,3026.00              61.02,3012.18 65.40,3009.98 64.96,2999.00              64.69,2992.24 62.59,2990.20 62.10,2985.00              62.10,2985.00 61.47,2972.00 61.47,2972.00              61.47,2972.00 62.92,2964.00 62.92,2964.00              62.92,2964.00 62.92,2955.00 62.92,2955.00              62.92,2955.00 64.96,2938.00 64.96,2938.00              64.73,2931.03 62.00,2928.14 62.21,2923.00              62.21,2923.00 63.96,2908.00 63.96,2908.00              63.64,2898.26 60.77,2899.00 61.00,2879.00              61.00,2879.00 61.96,2869.00 61.96,2869.00              61.96,2869.00 61.96,2852.00 61.96,2852.00              61.96,2852.00 62.96,2836.00 62.96,2836.00              62.96,2836.00 62.09,2828.00 62.09,2828.00              61.84,2823.55 62.69,2821.82 62.84,2818.00              62.84,2818.00 62.84,2809.00 62.84,2809.00              63.27,2805.45 65.28,2802.89 64.96,2795.00              64.70,2788.59 62.61,2785.37 62.20,2781.00              61.66,2775.32 64.21,2772.45 63.96,2765.00              63.96,2765.00 62.17,2754.00 62.17,2754.00              62.17,2754.00 61.09,2726.00 61.09,2726.00              61.09,2726.00 62.96,2705.00 62.96,2705.00              62.96,2705.00 60.01,2680.00 60.01,2680.00              60.01,2680.00 62.05,2663.00 62.05,2663.00              62.05,2663.00 62.05,2640.00 62.05,2640.00              62.05,2640.00 62.05,2619.00 62.05,2619.00              62.75,2613.62 63.99,2613.03 63.99,2606.00              63.99,2606.00 62.00,2582.00 62.00,2582.00              62.00,2582.00 62.98,2568.00 62.98,2568.00              62.98,2568.00 62.00,2555.00 62.00,2555.00              62.00,2555.00 62.00,2526.00 62.00,2526.00              62.00,2526.00 61.00,2502.00 61.00,2502.00              61.00,2502.00 62.00,2487.00 62.00,2487.00              62.00,2487.00 61.00,2468.00 61.00,2468.00              61.00,2468.00 62.00,2447.00 62.00,2447.00              62.00,2447.00 64.00,2413.00 64.00,2413.00              64.00,2413.00 64.00,2395.00 64.00,2395.00              64.00,2395.00 63.03,2382.00 63.03,2382.00              63.03,2382.00 63.96,2368.00 63.96,2368.00              63.96,2368.00 63.96,2356.00 63.96,2356.00              63.34,2348.18 62.69,2352.32 62.96,2342.00              62.96,2342.00 62.00,2326.00 62.00,2326.00              62.00,2326.00 61.32,2307.00 61.32,2307.00              61.32,2307.00 61.96,2298.00 61.96,2298.00              61.96,2298.00 61.00,2281.00 61.00,2281.00              61.00,2281.00 62.00,2260.00 62.00,2260.00              62.00,2260.00 61.00,2247.00 61.00,2247.00              61.00,2247.00 62.00,2231.00 62.00,2231.00              62.00,2231.00 62.00,2212.00 62.00,2212.00              62.00,2212.00 62.91,2197.00 62.91,2197.00              62.91,2197.00 61.00,2164.00 61.00,2164.00              61.00,2164.00 60.21,2153.00 60.21,2153.00              60.21,2153.00 61.83,2144.00 61.83,2144.00              61.83,2144.00 63.00,2120.00 63.00,2120.00              63.00,2120.00 61.09,2103.00 61.09,2103.00              61.09,2103.00 62.00,2090.00 62.00,2090.00              62.00,2090.00 61.04,2071.00 61.04,2071.00              61.04,2071.00 61.78,2058.00 61.78,2058.00              61.78,2058.00 61.78,2048.00 61.78,2048.00              61.78,2048.00 63.91,2036.00 63.91,2036.00              64.30,2029.57 62.07,2026.59 62.39,2022.00              62.66,2018.16 64.24,2015.94 63.91,2010.00              63.91,2010.00 61.09,1981.00 61.09,1981.00              61.09,1981.00 63.70,1968.00 63.70,1968.00              63.70,1968.00 64.37,1959.00 64.37,1959.00              65.43,1953.50 67.32,1951.68 66.91,1945.00              66.39,1936.64 61.79,1932.54 61.00,1923.00              61.00,1923.00 61.00,1914.00 61.00,1914.00              61.00,1914.00 60.34,1908.00 60.34,1908.00              60.34,1908.00 61.00,1892.00 61.00,1892.00              61.00,1892.00 62.00,1877.00 62.00,1877.00              62.00,1877.00 59.59,1846.00 59.59,1846.00              59.41,1840.58 61.88,1835.67 60.83,1826.00              60.17,1819.94 57.40,1815.93 57.34,1811.00              57.26,1805.13 59.52,1799.66 60.54,1794.00              60.54,1794.00 62.00,1769.00 62.00,1769.00              62.00,1769.00 61.04,1759.00 61.04,1759.00              61.04,1759.00 61.04,1745.00 61.04,1745.00              61.04,1745.00 59.04,1730.00 59.04,1730.00              59.04,1730.00 60.91,1703.00 60.91,1703.00              60.91,1703.00 59.00,1681.00 59.00,1681.00              59.00,1681.00 57.57,1645.00 57.57,1645.00              57.57,1645.00 59.00,1625.00 59.00,1625.00              59.00,1625.00 59.00,1603.00 59.00,1603.00              59.00,1603.00 60.00,1586.00 60.00,1586.00              60.00,1586.00 59.18,1568.00 59.18,1568.00              59.18,1568.00 60.00,1551.00 60.00,1551.00              60.00,1551.00 60.75,1536.00 60.75,1536.00              60.75,1536.00 60.75,1522.00 60.75,1522.00              60.75,1522.00 61.96,1505.00 61.96,1505.00              61.96,1505.00 60.80,1487.00 60.80,1487.00              60.80,1487.00 60.80,1478.00 60.80,1478.00              60.80,1478.00 62.91,1456.00 62.91,1456.00              62.91,1456.00 60.82,1442.00 60.82,1442.00              60.82,1442.00 60.82,1428.00 60.82,1428.00              60.82,1428.00 61.84,1417.00 61.84,1417.00              61.84,1417.00 61.84,1408.00 61.84,1408.00              61.84,1408.00 61.84,1395.00 61.84,1395.00              61.84,1395.00 61.08,1384.00 61.08,1384.00              61.08,1384.00 62.00,1372.00 62.00,1372.00              62.00,1372.00 61.00,1348.00 61.00,1348.00              61.00,1348.00 59.34,1332.00 59.34,1332.00              59.34,1332.00 60.79,1324.00 60.79,1324.00              60.79,1324.00 60.79,1305.00 60.79,1305.00              60.79,1305.00 61.91,1289.00 61.91,1289.00              61.91,1289.00 61.34,1283.00 61.34,1283.00              61.34,1283.00 61.96,1273.00 61.96,1273.00              61.96,1273.00 61.04,1265.00 61.04,1265.00              61.04,1265.00 61.04,1251.00 61.04,1251.00              60.85,1236.35 61.66,1242.90 62.91,1232.00              62.91,1232.00 62.91,1217.00 62.91,1217.00              62.91,1217.00 61.73,1205.00 61.73,1205.00              61.73,1205.00 63.00,1191.00 63.00,1191.00              63.00,1191.00 62.00,1175.00 62.00,1175.00              62.00,1175.00 62.00,1139.00 62.00,1139.00              62.00,1139.00 62.99,1126.00 62.99,1126.00              62.99,1126.00 61.61,1104.00 61.61,1104.00              61.61,1104.00 61.61,1087.00 61.61,1087.00              61.61,1087.00 61.61,1076.00 61.61,1076.00              61.61,1076.00 62.91,1058.00 62.91,1058.00              62.91,1058.00 62.04,1051.00 62.04,1051.00              62.04,1051.00 62.04,1037.00 62.04,1037.00              62.04,1037.00 62.91,1022.00 62.91,1022.00              62.91,1022.00 62.00,1005.00 62.00,1005.00              62.00,1005.00 61.04,990.00 61.04,990.00              61.04,990.00 62.99,976.00 62.99,976.00              62.99,976.00 62.34,965.00 62.34,965.00              62.34,965.00 62.91,956.00 62.91,956.00              62.91,956.00 62.18,949.00 62.18,949.00              62.18,949.00 63.00,937.00 63.00,937.00              63.00,937.00 63.00,908.00 63.00,908.00              63.00,908.00 63.00,811.00 63.00,811.00              63.00,811.00 64.97,793.00 64.97,793.00              64.97,793.00 63.00,777.00 63.00,777.00              63.00,777.00 63.00,772.00 63.00,772.00              63.00,772.00 64.91,755.00 64.91,755.00              64.91,755.00 61.71,730.00 61.71,730.00              61.71,730.00 63.96,698.00 63.96,698.00              63.96,698.00 62.89,690.00 62.89,690.00              62.89,690.00 62.89,668.00 62.89,668.00              62.89,668.00 62.89,660.00 62.89,660.00              62.89,660.00 65.92,640.00 65.92,640.00              65.92,640.00 65.92,616.00 65.92,616.00              65.92,616.00 67.97,600.00 67.97,600.00              67.97,591.59 65.05,591.10 65.00,581.00              65.00,581.00 65.00,547.00 65.00,547.00              65.00,547.00 63.04,518.00 63.04,518.00              63.04,518.00 65.96,501.00 65.96,501.00              65.96,501.00 64.34,485.00 64.34,485.00              64.39,480.72 66.12,479.61 66.00,469.00              66.00,469.00 65.03,457.00 65.03,457.00              65.03,457.00 65.96,444.00 65.96,444.00              65.96,444.00 64.57,433.00 64.57,433.00              64.57,433.00 65.98,413.00 65.98,413.00              65.98,413.00 64.71,402.00 64.71,402.00              64.71,402.00 64.71,393.00 64.71,393.00              64.71,393.00 64.00,380.00 64.00,380.00              64.00,380.00 63.00,363.00 63.00,363.00              63.00,363.00 63.00,343.00 63.00,343.00              63.12,333.45 66.28,330.14 65.94,322.00              65.94,322.00 65.94,290.00 65.94,290.00              65.94,290.00 65.04,282.00 65.04,282.00              65.04,282.00 65.04,271.00 65.04,271.00              65.04,271.00 63.79,260.00 63.79,260.00              63.74,255.94 65.98,253.27 66.00,243.00              66.00,243.00 66.00,227.00 66.00,227.00              66.09,219.40 67.53,218.55 67.91,213.00              67.91,213.00 67.00,199.00 67.00,199.00              66.80,181.92 68.63,185.97 69.83,174.00              70.35,168.79 69.97,163.02 71.88,158.00              71.88,158.00 78.60,147.00 78.60,147.00              80.36,143.34 80.30,140.44 82.55,137.00              84.89,133.40 87.26,131.86 89.60,127.00              93.02,119.88 91.45,114.52 92.31,111.00              93.00,108.22 96.71,103.34 98.74,101.30              102.86,97.16 106.04,99.50 114.00,93.48              114.00,93.48 131.17,78.98 131.17,78.98              132.99,77.89 135.89,77.43 138.00,76.79              146.40,74.27 147.54,72.80 157.00,73.01              157.00,73.01 196.00,77.99 196.00,77.99              196.00,77.99 208.00,77.04 208.00,77.04              208.00,77.04 221.00,77.04 221.00,77.04              232.03,76.98 235.93,74.52 246.00,73.14              246.00,73.14 265.00,73.14 265.00,73.14              265.00,73.14 277.00,72.41 277.00,72.41              280.38,72.91 284.24,75.32 291.00,74.91              291.00,74.91 303.00,72.32 303.00,72.32              303.00,72.32 329.00,69.83 329.00,69.83              329.00,69.83 340.00,68.17 340.00,68.17              340.00,68.17 355.00,68.96 355.00,68.96              355.00,68.96 371.00,68.96 371.00,68.96              371.00,68.96 382.00,68.00 382.00,68.00              382.00,68.00 398.00,69.00 398.00,69.00              398.00,69.00 448.00,69.00 448.00,69.00              448.00,69.00 463.00,70.00 463.00,70.00              463.00,70.00 488.00,70.00 488.00,70.00              488.00,70.00 516.00,71.96 516.00,71.96              516.00,71.96 527.00,70.09 527.00,70.09              527.00,70.09 544.00,70.09 544.00,70.09              544.00,70.09 565.00,72.00 565.00,72.00              570.67,71.93 585.24,68.72 591.00,67.08              595.02,65.93 598.37,63.41 602.00,63.30              602.00,63.30 634.00,66.00 634.00,66.00              634.00,66.00 658.00,69.00 658.00,69.00              658.00,69.00 674.00,69.00 674.00,69.00              682.46,69.04 681.71,70.15 688.00,70.83              688.00,70.83 715.00,73.08 715.00,73.08              715.00,73.08 727.00,73.08 727.00,73.08              727.00,73.08 736.00,74.83 736.00,74.83              736.00,74.83 746.00,76.00 746.00,76.00              755.84,77.99 761.87,80.98 772.00,81.00              772.00,81.00 796.00,80.27 796.00,80.27              801.80,81.44 803.00,85.89 817.00,87.71              817.00,87.71 832.00,88.85 832.00,88.85              832.00,88.85 839.00,88.85 839.00,88.85              842.92,88.97 844.47,90.22 851.00,89.96              851.00,89.96 863.00,88.18 863.00,88.18              863.00,88.18 874.00,88.96 874.00,88.96              874.00,88.96 889.00,87.18 889.00,87.18              889.00,87.18 918.00,89.91 918.00,89.91              927.91,89.35 930.32,87.86 939.00,84.46              939.00,84.46 946.00,82.05 946.00,82.05              948.89,80.81 952.37,78.17 955.00,77.80              955.00,77.80 977.00,77.80 977.00,77.80              985.74,78.11 995.36,81.46 1004.00,82.70              1022.91,85.43 1041.85,87.97 1061.00,88.00              1061.00,88.00 1081.00,89.91 1081.00,89.91              1081.00,89.91 1100.00,86.29 1100.00,86.29              1107.38,85.38 1114.77,86.01 1122.00,83.45              1131.30,80.18 1135.32,74.57 1141.00,72.80              1145.15,71.51 1149.69,72.32 1154.00,71.70              1154.00,71.70 1172.00,67.75 1172.00,67.75              1172.00,67.75 1183.00,67.75 1183.00,67.75              1183.00,67.75 1205.00,67.75 1205.00,67.75              1210.08,66.97 1214.95,64.37 1220.00,64.84              1220.00,64.84 1226.00,65.83 1226.00,65.83              1226.00,65.83 1249.00,67.00 1249.00,67.00              1249.00,67.00 1277.00,68.96 1277.00,68.96              1277.00,68.96 1289.00,68.00 1289.00,68.00              1289.00,68.00 1324.00,67.18 1324.00,67.18              1324.00,67.18 1335.00,67.99 1335.00,67.99              1335.00,67.99 1352.00,66.92 1352.00,66.92              1352.00,66.92 1363.00,66.92 1363.00,66.92              1363.00,66.92 1381.00,65.00 1381.00,65.00              1381.00,65.00 1392.00,65.00 1392.00,65.00              1392.00,65.00 1410.00,64.00 1410.00,64.00              1417.22,64.03 1416.86,64.80 1423.00,65.70              1430.76,66.84 1439.18,67.99 1447.00,68.00              1447.00,68.00 1463.00,68.00 1463.00,68.00              1463.00,68.00 1473.00,67.26 1473.00,67.26              1477.29,67.43 1478.47,68.96 1487.00,69.00              1487.00,69.00 1511.00,70.09 1511.00,70.09              1511.00,70.09 1522.00,71.00 1522.00,71.00              1522.00,71.00 1541.00,71.00 1541.00,71.00              1541.00,71.00 1585.00,66.09 1585.00,66.09              1585.00,66.09 1612.00,68.08 1612.00,68.08              1612.00,68.08 1627.00,68.08 1627.00,68.08              1627.00,68.08 1645.00,70.00 1645.00,70.00              1645.00,70.00 1672.00,70.00 1672.00,70.00              1672.00,70.00 1687.00,69.00 1687.00,69.00              1687.00,69.00 1707.00,69.00 1707.00,69.00              1707.00,69.00 1719.00,68.18 1719.00,68.18              1719.00,68.18 1730.00,69.00 1730.00,69.00              1730.00,69.00 1745.00,69.96 1745.00,69.96              1745.00,69.96 1755.00,69.18 1755.00,69.18              1755.00,69.18 1765.00,70.00 1765.00,70.00              1765.00,70.00 1792.00,68.00 1792.00,68.00              1792.00,68.00 1803.00,68.00 1803.00,68.00              1812.93,66.77 1811.05,65.16 1825.00,65.00              1825.00,65.00 1853.00,62.57 1853.00,62.57              1861.59,61.30 1868.21,59.01 1877.00,59.00              1877.00,59.00 1902.00,59.00 1902.00,59.00              1902.00,59.00 1931.00,56.83 1931.00,56.83              1936.65,56.20 1936.62,55.09 1944.00,55.00              1944.00,55.00 1957.00,55.00 1957.00,55.00              1957.00,55.00 1970.00,55.96 1970.00,55.96              1970.00,55.96 1979.00,55.02 1979.00,55.02              1979.00,55.02 1996.00,55.02 1996.00,55.02              1996.00,55.02 2011.00,54.00 2011.00,54.00              2011.00,54.00 2026.00,54.94 2026.00,54.94              2026.00,54.94 2043.00,54.94 2043.00,54.94              2043.00,54.94 2052.00,54.94 2052.00,54.94              2059.59,55.63 2062.30,57.09 2071.00,57.00              2071.00,57.00 2087.00,56.00 2087.00,56.00              2087.00,56.00 2107.00,57.00 2107.00,57.00              2107.00,57.00 2140.00,60.00 2140.00,60.00              2140.00,60.00 2167.00,57.18 2167.00,57.18              2167.00,57.18 2188.00,58.96 2188.00,58.96              2188.00,58.96 2211.00,57.18 2211.00,57.18              2211.00,57.18 2232.00,58.00 2232.00,58.00              2232.00,58.00 2247.00,59.00 2247.00,59.00              2247.00,59.00 2278.00,60.00 2278.00,60.00              2278.00,60.00 2311.00,57.00 2311.00,57.00              2311.00,57.00 2332.00,59.00 2332.00,59.00              2332.00,59.00 2356.00,59.00 2356.00,59.00              2356.00,59.00 2371.00,59.91 2371.00,59.91              2371.00,59.91 2389.00,59.00 2389.00,59.00              2389.00,59.00 2402.00,59.96 2402.00,59.96              2402.00,59.96 2413.00,58.17 2413.00,58.17              2413.00,58.17 2442.00,57.00 2442.00,57.00              2451.87,57.12 2455.27,60.38 2463.00,60.91              2470.03,61.39 2472.66,59.39 2477.00,59.34              2477.00,59.34 2484.00,59.98 2484.00,59.98              2484.00,59.98 2499.00,59.98 2499.00,59.98              2499.00,59.98 2518.00,60.83 2518.00,60.83              2523.55,60.23 2528.28,57.78 2534.00,58.18              2534.00,58.18 2545.00,58.99 2545.00,58.99              2545.00,58.99 2556.00,58.10 2556.00,58.10              2556.00,58.10 2571.00,59.30 2571.00,59.30              2571.00,59.30 2581.00,60.96 2581.00,60.96              2586.85,61.22 2588.08,60.42 2593.00,60.04              2593.00,60.04 2605.00,60.04 2605.00,60.04              2605.00,60.04 2622.00,58.21 2622.00,58.21              2622.00,58.21 2656.00,62.00 2656.00,62.00              2656.00,62.00 2677.00,64.00 2677.00,64.00              2677.00,64.00 2702.00,64.00 2702.00,64.00              2702.00,64.00 2714.00,62.86 2714.00,62.86              2714.00,62.86 2722.00,62.86 2722.00,62.86              2722.00,62.86 2741.00,62.86 2741.00,62.86              2741.00,62.86 2760.00,61.83 2760.00,61.83              2760.00,61.83 2767.00,61.08 2767.00,61.08              2767.00,61.08 2778.00,62.00 2778.00,62.00              2778.00,62.00 2804.00,62.00 2804.00,62.00              2804.00,62.00 2818.00,63.00 2818.00,63.00              2818.00,63.00 2850.00,63.00 2850.00,63.00              2850.00,63.00 2865.00,64.00 2865.00,64.00              2865.00,64.00 2889.00,65.00 2889.00,65.00              2889.00,65.00 2904.00,64.00 2904.00,64.00              2904.00,64.00 2927.00,64.00 2927.00,64.00              2927.00,64.00 2949.00,63.00 2949.00,63.00              2949.00,63.00 2961.00,62.02 2961.00,62.02              2961.00,62.02 2972.00,62.96 2972.00,62.96              2972.00,62.96 2987.00,62.96 2987.00,62.96              2987.00,62.96 2997.00,63.96 2997.00,63.96              2997.00,63.96 3012.00,63.96 3012.00,63.96              3012.00,63.96 3038.00,62.51 3038.00,62.51              3038.00,62.51 3073.00,62.00 3073.00,62.00              3073.00,62.00 3103.00,63.91 3103.00,63.91              3103.00,63.91 3120.00,63.00 3120.00,63.00              3120.00,63.00 3136.00,61.34 3136.00,61.34              3139.86,61.38 3141.91,62.99 3151.00,63.00              3151.00,63.00 3186.00,63.00 3186.00,63.00              3186.00,63.00 3216.00,61.10 3216.00,61.10              3216.00,61.10 3226.00,63.53 3226.00,63.53              3236.60,65.57 3255.41,68.12 3266.00,68.00              3276.94,67.87 3280.95,65.09 3290.00,63.46              3290.00,63.46 3302.00,62.91 3302.00,62.91              3302.00,62.91 3310.00,61.56 3310.00,61.56              3310.00,61.56 3327.00,64.91 3327.00,64.91              3327.00,64.91 3342.00,64.00 3342.00,64.00              3342.00,64.00 3383.00,64.00 3383.00,64.00              3383.00,64.00 3407.00,66.28 3407.00,66.28              3407.00,66.28 3429.00,71.54 3429.00,71.54              3436.27,72.88 3443.63,73.08 3451.00,73.00              3458.45,72.91 3458.46,71.76 3464.00,71.08              3464.00,71.08 3482.00,71.08 3482.00,71.08              3488.75,70.92 3488.48,70.09 3494.00,69.30              3494.00,69.30 3511.00,67.92 3511.00,67.92              3511.00,67.92 3528.00,67.92 3528.00,67.92              3528.00,67.92 3545.00,66.00 3545.00,66.00              3545.00,66.00 3565.00,66.00 3565.00,66.00              3565.00,66.00 3590.00,68.46 3590.00,68.46              3600.39,70.30 3610.35,73.12 3621.00,73.00              3621.00,73.00 3644.00,71.70 3644.00,71.70              3651.72,70.56 3649.45,69.02 3660.00,69.00              3660.00,69.00 3674.00,69.00 3674.00,69.00              3674.00,69.00 3690.00,68.00 3690.00,68.00              3690.00,68.00 3714.00,68.00 3714.00,68.00              3714.00,68.00 3728.00,69.00 3728.00,69.00              3736.69,69.09 3742.53,66.30 3750.00,67.96              3758.92,69.95 3758.44,75.34 3774.00,74.99              3774.00,74.99 3788.00,73.34 3788.00,73.34              3788.00,73.34 3799.00,74.96 3799.00,74.96              3799.00,74.96 3813.00,73.85 3813.00,73.85              3813.00,73.85 3822.00,73.85 3822.00,73.85              3828.10,72.83 3827.74,72.04 3835.00,72.00              3835.00,72.00 3863.00,69.09 3863.00,69.09              3863.00,69.09 3883.00,69.09 3883.00,69.09              3889.79,69.08 3889.49,69.92 3895.00,70.70              3895.00,70.70 3904.00,71.30 3904.00,71.30              3904.00,71.30 3916.00,73.92 3916.00,73.92              3930.25,76.41 3953.73,79.16 3968.00,79.00              3976.78,78.89 3978.95,76.50 3983.00,76.51              3983.00,76.51 3995.00,78.00 3995.00,78.00              3995.00,78.00 4016.00,76.83 4016.00,76.83              4021.93,76.19 4024.13,74.18 4031.00,74.01              4040.90,73.77 4046.63,75.55 4055.00,80.53              4055.00,80.53 4060.68,83.81 4060.68,83.81              4064.36,86.69 4065.91,91.71 4074.00,95.60              4079.59,98.29 4084.98,98.07 4091.00,98.00              4099.10,97.90 4106.93,95.51 4112.91,89.82              4116.89,86.02 4117.81,82.76 4120.38,80.93              4122.48,79.44 4126.43,78.98 4129.00,78.34              4137.98,76.08 4135.29,75.02 4146.00,75.00              4146.00,75.00 4175.00,73.83 4175.00,73.83              4175.00,73.83 4185.00,72.17 4185.00,72.17              4185.00,72.17 4207.00,71.00 4207.00,71.00              4207.00,71.00 4221.00,70.19 4221.00,70.19              4228.58,70.81 4236.26,73.35 4244.00,72.91              4244.00,72.91 4260.00,70.29 4260.00,70.29              4260.00,70.29 4285.00,68.00 4285.00,68.00              4285.00,68.00 4289.00,68.00 4289.00,68.00              4289.00,68.00 4304.00,69.00 4304.00,69.00              4304.00,69.00 4316.00,69.00 4316.00,69.00              4316.00,69.00 4341.00,67.00 4341.00,67.00              4341.00,67.00 4358.00,67.00 4358.00,67.00              4358.00,67.00 4369.00,66.21 4369.00,66.21              4374.31,66.55 4373.78,67.98 4384.00,68.00              4384.00,68.00 4398.00,68.00 4398.00,68.00              4398.00,68.00 4413.00,69.00 4413.00,69.00              4413.00,69.00 4428.00,69.96 4428.00,69.96              4428.00,69.96 4451.00,67.96 4451.00,67.96              4451.00,67.96 4460.00,67.96 4460.00,67.96              4464.10,67.44 4465.44,66.86 4470.00,67.04              4470.00,67.04 4494.00,68.96 4494.00,68.96              4499.68,68.77 4503.02,66.66 4509.00,67.17              4517.15,67.87 4522.64,71.36 4530.00,70.91              4536.04,70.54 4539.39,68.07 4544.00,67.87              4544.00,67.87 4556.00,67.87 4556.00,67.87              4556.00,67.87 4573.00,67.00 4573.00,67.00              4573.00,67.00 4596.00,69.00 4596.00,69.00              4596.00,69.00 4608.00,68.04 4608.00,68.04              4608.00,68.04 4622.00,68.04 4622.00,68.04              4622.00,68.04 4643.00,69.92 4643.00,69.92              4643.00,69.92 4655.00,69.92 4655.00,69.92              4655.00,69.92 4667.00,70.97 4667.00,70.97              4667.00,70.97 4688.00,69.04 4688.00,69.04              4688.00,69.04 4702.00,70.00 4702.00,70.00              4702.00,70.00 4717.00,69.00 4717.00,69.00              4717.00,69.00 4745.00,69.00 4745.00,69.00              4745.00,69.00 4770.00,70.99 4770.00,70.99              4770.00,70.99 4798.00,70.99 4798.00,70.99              4798.00,70.99 4810.00,70.00 4810.00,70.00              4810.00,70.00 4823.00,70.96 4823.00,70.96              4827.43,71.15 4829.01,70.62 4833.00,70.32              4833.00,70.32 4843.00,70.97 4843.00,70.97              4843.00,70.97 4857.00,70.01 4857.00,70.01              4857.00,70.01 4873.00,71.00 4873.00,71.00              4873.00,71.00 4903.00,69.00 4903.00,69.00              4903.00,69.00 4915.00,68.32 4915.00,68.32              4915.00,68.32 4947.00,72.00 4947.00,72.00              4947.00,72.00 4993.00,72.00 4993.00,72.00              4993.00,72.00 5004.00,71.32 5004.00,71.32              5004.00,71.32 5012.00,72.00 5012.00,72.00              5012.00,72.00 5047.00,70.00 5047.00,70.00              5047.00,70.00 5073.00,72.00 5073.00,72.00              5083.70,71.87 5083.07,68.82 5093.00,69.02              5098.92,69.13 5100.23,70.32 5105.00,71.00              5105.00,71.00 5115.00,71.00 5115.00,71.00              5115.00,71.00 5139.00,73.00 5139.00,73.00              5139.00,73.00 5144.00,73.00 5144.00,73.00              5144.00,73.00 5155.00,73.98 5155.00,73.98              5155.00,73.98 5172.00,73.98 5172.00,73.98              5172.00,73.98 5185.00,73.32 5185.00,73.32              5185.00,73.32 5213.00,75.91 5213.00,75.91              5213.00,75.91 5229.00,72.18 5229.00,72.18              5229.00,72.18 5250.00,71.04 5250.00,71.04              5250.00,71.04 5263.00,72.00 5263.00,72.00              5263.00,72.00 5293.00,72.00 5293.00,72.00              5306.20,71.98 5304.29,69.13 5314.00,68.84              5314.00,68.84 5330.00,68.84 5330.00,68.84              5330.00,68.84 5339.00,68.84 5339.00,68.84              5339.00,68.84 5400.00,73.00 5400.00,73.00              5400.00,73.00 5419.00,73.79 5419.00,73.79              5419.00,73.79 5428.00,73.79 5428.00,73.79              5428.00,73.79 5468.00,78.17 5468.00,78.17              5473.72,78.79 5474.74,80.24 5482.00,79.96              5482.00,79.96 5491.00,78.93 5491.00,78.93              5491.00,78.93 5505.00,78.93 5505.00,78.93              5505.00,78.93 5514.00,77.34 5514.00,77.34              5517.05,77.34 5522.03,79.13 5533.00,79.00              5545.14,78.85 5544.92,74.03 5564.00,74.00              5564.00,74.00 5607.00,70.63 5607.00,70.63              5607.00,70.63 5622.00,73.83 5622.00,73.83              5629.35,74.61 5633.25,72.85 5638.00,73.18              5642.32,73.49 5644.14,74.35 5649.00,73.83              5656.99,72.97 5655.59,70.50 5668.00,71.04              5668.00,71.04 5690.00,74.00 5690.00,74.00              5690.00,74.00 5701.00,74.00 5701.00,74.00              5708.01,74.92 5706.07,75.98 5716.00,76.00              5716.00,76.00 5730.00,76.00 5730.00,76.00              5730.00,76.00 5748.00,75.00 5748.00,75.00              5748.00,75.00 5763.00,75.77 5763.00,75.77              5763.00,75.77 5788.00,75.77 5788.00,75.77              5788.00,75.77 5804.00,70.49 5804.00,70.49              5804.00,70.49 5825.00,72.29 5825.00,72.29              5829.70,72.90 5833.00,74.22 5838.00,73.91              5845.01,73.47 5848.46,70.47 5853.00,69.77              5856.48,68.83 5861.07,69.99 5865.00,69.77              5871.87,69.99 5873.19,68.65 5877.00,68.47              5877.00,68.47 5914.00,71.96 5914.00,71.96              5914.00,71.96 5925.00,71.04 5925.00,71.04              5925.00,71.04 5936.00,72.91 5936.00,72.91              5936.00,72.91 5956.00,72.91 5956.00,72.91              5956.00,72.91 5965.00,72.34 5965.00,72.34              5965.00,72.34 5974.00,72.99 5974.00,72.99              5974.00,72.99 5990.00,71.91 5990.00,71.91              5990.00,71.91 6003.00,70.02 6003.00,70.02              6003.00,70.02 6015.00,70.96 6015.00,70.96              6022.28,71.24 6023.30,69.78 6029.00,69.09              6029.00,69.09 6045.00,69.09 6045.00,69.09              6045.00,69.09 6056.00,69.85 6056.00,69.85              6056.00,69.85 6066.00,69.85 6066.00,69.85              6070.79,70.02 6069.81,70.99 6079.00,70.84              6079.00,70.84 6097.00,70.84 6097.00,70.84              6097.00,70.84 6107.00,70.84 6107.00,70.84              6107.00,70.84 6116.00,70.02 6116.00,70.02              6116.00,70.02 6135.00,70.02 6135.00,70.02              6135.00,70.02 6151.00,70.96 6151.00,70.96              6155.25,70.79 6177.02,66.93 6181.00,65.44              6185.16,63.89 6188.80,61.19 6191.82,57.96              6195.14,54.40 6196.42,50.79 6202.00,50.65              6207.15,50.53 6216.09,55.63 6221.00,57.44              6228.78,60.32 6233.78,59.62 6237.00,60.49              6243.62,62.29 6242.30,64.98 6256.00,65.00              6271.34,65.02 6267.68,66.12 6281.00,67.72              6281.00,67.72 6293.00,68.29 6293.00,68.29              6301.81,69.43 6301.25,70.98 6312.00,71.00              6312.00,71.00 6326.00,71.00 6326.00,71.00              6326.00,71.00 6350.00,68.30 6350.00,68.30              6354.26,68.63 6357.13,71.64 6365.00,71.96              6374.18,72.33 6379.83,68.94 6384.00,68.54              6384.00,68.54 6406.00,69.98 6406.00,69.98              6406.00,69.98 6420.00,68.84 6420.00,68.84              6420.00,68.84 6441.00,72.04 6441.00,72.04              6450.03,74.68 6452.58,77.87 6463.00,78.08              6463.00,78.08 6482.00,78.08 6482.00,78.08              6487.70,78.78 6488.72,80.24 6496.00,79.96              6499.79,79.81 6510.52,78.60 6514.00,77.56              6514.00,77.56 6525.00,73.27 6525.00,73.27              6528.94,72.53 6533.03,73.81 6537.00,73.96              6537.00,73.96 6553.00,73.00 6553.00,73.00              6553.00,73.00 6578.00,73.00 6578.00,73.00              6578.00,73.00 6596.00,74.30 6596.00,74.30              6596.00,74.30 6606.00,75.96 6606.00,75.96              6606.00,75.96 6624.00,75.04 6624.00,75.04              6624.00,75.04 6635.00,75.91 6635.00,75.91              6635.00,75.91 6651.00,73.28 6651.00,73.28              6651.00,73.28 6677.00,72.32 6677.00,72.32              6677.00,72.32 6723.00,75.96 6723.00,75.96              6723.00,75.96 6741.00,75.00 6741.00,75.00              6752.81,74.86 6752.85,70.79 6771.00,71.00              6777.79,71.08 6777.49,71.92 6783.00,72.93              6783.00,72.93 6791.00,72.93 6791.00,72.93              6798.96,73.94 6799.47,75.04 6809.00,75.00              6809.00,75.00 6827.00,73.00 6827.00,73.00              6827.00,73.00 6846.00,74.00 6846.00,74.00              6846.00,74.00 6862.00,73.34 6862.00,73.34              6862.00,73.34 6895.00,76.00 6895.00,76.00              6895.00,76.00 6914.00,76.00 6914.00,76.00              6914.00,76.00 6926.00,76.97 6926.00,76.97              6926.00,76.97 6938.00,76.00 6938.00,76.00              6938.00,76.00 6958.00,76.00 6958.00,76.00              6958.00,76.00 6989.00,74.00 6989.00,74.00              6989.00,74.00 7016.00,74.00 7016.00,74.00              7016.00,74.00 7033.00,74.96 7033.00,74.96              7033.00,74.96 7059.00,72.00 7059.00,72.00              7059.00,72.00 7083.00,72.00 7083.00,72.00              7083.00,72.00 7099.00,71.09 7099.00,71.09              7106.55,71.61 7108.27,73.98 7120.00,74.00              7120.00,74.00 7138.00,74.00 7138.00,74.00              7138.00,74.00 7150.00,73.04 7150.00,73.04              7150.00,73.04 7165.00,73.04 7165.00,73.04              7165.00,73.04 7180.00,72.00 7180.00,72.00              7180.00,72.00 7209.00,71.00 7209.00,71.00              7209.00,71.00 7219.00,71.95 7219.00,71.95              7219.00,71.95 7231.00,71.95 7231.00,71.95              7231.00,71.95 7269.00,66.60 7269.00,66.60              7269.00,66.60 7284.00,68.00 7284.00,68.00              7284.00,68.00 7302.00,68.00 7302.00,68.00              7302.00,68.00 7318.00,69.00 7318.00,69.00              7318.00,69.00 7340.00,69.00 7340.00,69.00              7340.00,69.00 7355.00,68.04 7355.00,68.04              7355.00,68.04 7368.00,68.96 7368.00,68.96              7368.00,68.96 7383.00,67.18 7383.00,67.18              7383.00,67.18 7410.00,70.00 7410.00,70.00              7410.00,70.00 7423.00,69.09 7423.00,69.09              7423.00,69.09 7449.00,71.00 7449.00,71.00              7449.00,71.00 7469.00,70.09 7469.00,70.09              7469.00,70.09 7481.00,70.09 7481.00,70.09              7487.44,70.81 7487.85,71.96 7496.00,72.00              7496.00,72.00 7525.00,72.00 7525.00,72.00              7525.00,72.00 7540.00,71.00 7540.00,71.00              7540.00,71.00 7577.00,70.00 7577.00,70.00              7577.00,70.00 7596.00,71.99 7596.00,71.99              7596.00,71.99 7608.00,70.21 7608.00,70.21              7608.00,70.21 7622.00,71.00 7622.00,71.00              7622.00,71.00 7639.00,69.51 7639.00,69.51              7639.00,69.51 7650.00,70.95 7650.00,70.95              7650.00,70.95 7667.00,70.95 7667.00,70.95              7667.00,70.95 7683.00,70.00 7683.00,70.00              7683.00,70.00 7696.00,71.00 7696.00,71.00              7696.00,71.00 7713.00,71.00 7713.00,71.00              7713.00,71.00 7723.00,71.91 7723.00,71.91              7723.00,71.91 7748.00,73.00 7748.00,73.00              7748.00,73.00 7760.00,73.96 7760.00,73.96              7760.00,73.96 7775.00,73.00 7775.00,73.00              7775.00,73.00 7796.00,73.00 7796.00,73.00              7796.00,73.00 7812.00,74.00 7812.00,74.00              7812.00,74.00 7832.00,74.00 7832.00,74.00              7832.00,74.00 7850.00,75.96 7850.00,75.96              7850.00,75.96 7863.00,74.91 7863.00,74.91              7863.00,74.91 7880.00,74.91 7880.00,74.91              7880.00,74.91 7890.00,74.91 7890.00,74.91              7890.00,74.91 7898.00,75.92 7898.00,75.92              7898.00,75.92 7908.00,75.92 7908.00,75.92              7919.29,76.15 7927.16,84.43 7939.00,84.96              7956.71,85.76 7959.79,78.25 7981.00,77.96              7981.00,77.96 7998.00,77.96 7998.00,77.96              7998.00,77.96 8009.00,77.04 8009.00,77.04              8009.00,77.04 8026.00,79.00 8026.00,79.00              8033.44,79.08 8045.68,79.64 8051.91,83.97              8056.43,87.11 8057.16,91.33 8064.00,96.21              8071.21,101.36 8076.62,99.87 8081.57,104.76              8083.85,107.01 8084.43,110.26 8085.91,113.00              8085.91,113.00 8091.19,121.00 8091.19,121.00              8091.19,121.00 8094.40,129.00 8094.40,129.00              8094.40,129.00 8101.69,140.00 8101.69,140.00              8103.91,144.43 8102.04,146.38 8104.52,154.00              8104.52,154.00 8109.80,166.00 8109.80,166.00              8109.80,166.00 8114.66,184.00 8114.66,184.00              8115.51,190.28 8110.72,194.58 8112.17,208.00              8112.17,208.00 8114.79,219.00 8114.79,219.00              8114.79,219.00 8116.47,237.00 8116.47,237.00              8117.80,243.94 8118.96,242.34 8119.00,251.00              8119.00,251.00 8119.00,269.00 8119.00,269.00              8119.12,279.01 8122.53,282.78 8122.09,293.00              8122.09,293.00 8123.63,317.00 8123.63,317.00              8123.63,317.00 8123.09,327.00 8123.09,327.00              8123.09,327.00 8125.85,340.00 8125.85,340.00              8125.85,340.00 8125.85,356.00 8125.85,356.00              8125.85,356.00 8124.09,387.00 8124.09,387.00              8124.51,392.82 8125.99,394.14 8127.37,399.00              8127.37,399.00 8129.16,409.00 8129.16,409.00              8129.16,409.00 8129.16,422.00 8129.16,422.00              8129.16,422.00 8130.46,438.00 8130.46,438.00              8130.46,438.00 8132.57,447.00 8132.57,447.00              8132.90,451.67 8129.61,455.17 8130.09,463.00              8130.42,468.34 8132.22,470.92 8132.79,475.00              8132.79,475.00 8133.47,488.00 8133.47,488.00              8134.59,493.99 8135.90,493.65 8136.00,501.00              8136.00,501.00 8136.00,512.00 8136.00,512.00              8136.04,520.43 8137.13,519.58 8137.46,525.00              8137.46,525.00 8137.46,544.00 8137.46,544.00              8136.91,548.95 8134.36,551.73 8134.04,559.00              8133.57,569.81 8136.85,571.29 8136.23,577.00              8135.04,588.11 8132.58,591.08 8131.47,597.00              8131.47,597.00 8130.61,608.00 8130.61,608.00              8129.05,614.80 8120.80,621.36 8116.79,627.00              8112.32,633.28 8111.83,638.56 8112.01,646.00              8112.31,658.24 8118.11,661.27 8120.30,668.00              8120.30,668.00 8121.68,683.00 8121.68,683.00              8121.68,683.00 8125.55,697.00 8125.55,697.00              8126.79,700.47 8129.07,703.59 8129.87,707.00              8129.87,707.00 8129.87,724.00 8129.87,724.00              8129.87,724.00 8130.75,735.00 8130.75,735.00              8130.33,739.38 8127.52,742.76 8128.09,751.00              8128.70,759.85 8132.83,762.72 8133.41,767.00              8133.41,767.00 8132.00,782.00 8132.00,782.00              8132.00,782.00 8132.00,788.00 8132.00,788.00              8132.00,788.00 8132.59,798.00 8132.59,798.00              8132.10,803.09 8129.77,804.34 8130.01,815.00              8130.27,826.15 8132.40,837.04 8134.29,848.00              8134.86,851.33 8136.85,856.29 8136.77,859.00              8136.66,862.38 8134.29,865.63 8133.22,869.00              8133.22,869.00 8129.01,891.00 8129.01,891.00              8128.73,903.48 8132.07,904.66 8133.51,910.00              8133.51,910.00 8135.49,925.00 8135.49,925.00              8135.49,925.00 8133.17,936.00 8133.17,936.00              8132.35,943.53 8133.07,952.60 8131.07,960.00              8128.83,968.28 8124.45,973.52 8125.09,984.00              8125.52,990.97 8128.74,997.18 8129.22,1001.00              8129.22,1001.00 8129.22,1014.00 8129.22,1014.00              8129.23,1023.36 8132.52,1025.12 8134.00,1033.00              8121.85,1038.43 8115.16,1047.57 8115.00,1061.00              8114.76,1081.97 8117.46,1076.78 8119.69,1088.00              8119.69,1088.00 8122.68,1111.00 8122.68,1111.00              8122.68,1111.00 8126.57,1122.00 8126.57,1122.00              8127.18,1125.57 8125.56,1129.34 8125.09,1133.00              8125.09,1133.00 8125.09,1148.00 8125.09,1148.00              8125.09,1148.00 8126.70,1167.00 8126.70,1167.00              8126.29,1171.96 8122.34,1175.16 8122.04,1184.00              8121.86,1189.52 8123.60,1194.60 8124.08,1200.00              8124.08,1200.00 8124.08,1210.00 8124.08,1210.00              8123.97,1216.02 8124.18,1222.16 8122.38,1228.00              8122.38,1228.00 8118.93,1236.00 8118.93,1236.00              8116.86,1241.29 8113.82,1253.37 8114.04,1259.00              8114.19,1262.93 8115.83,1270.64 8115.20,1274.00              8114.06,1280.01 8109.15,1282.49 8109.00,1295.00              8108.95,1300.08 8108.93,1304.20 8110.95,1309.00              8112.40,1312.42 8114.98,1315.31 8115.95,1319.00              8115.95,1319.00 8115.95,1330.00 8115.95,1330.00              8115.95,1330.00 8117.66,1340.00 8117.66,1340.00              8117.66,1340.00 8117.09,1349.00 8117.09,1349.00              8117.09,1349.00 8118.42,1371.00 8118.42,1371.00              8118.32,1374.91 8117.01,1376.29 8117.01,1383.00              8117.01,1383.00 8117.91,1397.00 8117.91,1397.00              8117.91,1397.00 8116.21,1407.00 8116.21,1407.00              8116.21,1407.00 8116.21,1429.00 8116.21,1429.00              8116.21,1429.00 8115.03,1442.00 8115.03,1442.00              8115.03,1447.49 8116.33,1449.37 8116.83,1454.00              8116.83,1454.00 8118.00,1474.00 8118.00,1474.00              8118.13,1487.56 8110.52,1493.73 8111.04,1507.00              8111.04,1507.00 8115.89,1538.00 8115.89,1538.00              8115.89,1538.00 8112.19,1555.00 8112.19,1555.00              8111.00,1558.43 8109.77,1559.34 8108.68,1564.00              8106.43,1573.55 8105.64,1588.16 8106.04,1598.00              8106.51,1609.44 8115.99,1619.70 8114.52,1630.00              8113.67,1636.00 8110.02,1636.67 8110.00,1651.00              8110.00,1651.00 8111.00,1666.00 8111.00,1666.00              8111.00,1666.00 8111.00,1681.00 8111.00,1681.00              8111.00,1681.00 8113.30,1704.00 8113.30,1704.00              8113.30,1704.00 8116.52,1716.00 8116.52,1716.00              8116.52,1716.00 8118.90,1730.00 8118.90,1730.00              8121.37,1740.36 8123.88,1747.17 8124.00,1758.00              8124.12,1768.01 8127.71,1771.55 8127.29,1776.00              8126.95,1779.51 8124.47,1781.46 8122.93,1787.00              8120.91,1794.22 8121.69,1798.62 8120.79,1805.00              8120.08,1810.05 8117.70,1812.30 8118.04,1821.00              8118.45,1831.54 8121.76,1836.74 8122.67,1842.00              8122.67,1842.00 8123.66,1864.00 8123.66,1864.00              8123.66,1877.93 8117.48,1882.87 8117.04,1893.00              8116.47,1906.10 8121.27,1906.48 8120.07,1914.00              8117.72,1928.81 8111.40,1923.95 8105.46,1938.00              8098.45,1954.60 8099.94,1964.65 8097.91,1982.00              8097.14,1988.62 8094.67,1989.96 8095.04,1999.00              8095.24,2003.85 8098.07,2012.42 8099.95,2017.00              8099.95,2017.00 8102.51,2023.00 8102.51,2023.00              8102.51,2023.00 8106.06,2041.00 8106.06,2041.00              8106.06,2041.00 8106.06,2050.00 8106.06,2050.00              8106.06,2050.00 8110.79,2069.00 8110.79,2069.00              8111.80,2076.95 8106.50,2079.57 8107.09,2090.00              8107.09,2090.00 8107.82,2097.00 8107.82,2097.00              8107.82,2097.00 8107.00,2112.00 8107.00,2112.00              8107.00,2112.00 8105.09,2129.00 8105.09,2129.00              8105.09,2129.00 8107.61,2143.00 8107.61,2143.00              8107.61,2143.00 8107.00,2153.00 8107.00,2153.00              8106.95,2157.51 8106.84,2161.64 8108.22,2166.00              8109.75,2170.81 8111.76,2172.36 8112.70,2178.00              8112.70,2178.00 8114.91,2192.00 8114.91,2192.00              8114.91,2192.00 8115.47,2204.00 8115.47,2204.00              8115.47,2204.00 8118.61,2214.00 8118.61,2214.00              8118.61,2214.00 8119.30,2225.00 8119.30,2225.00              8119.30,2225.00 8121.79,2235.00 8121.79,2235.00              8121.79,2235.00 8123.00,2259.00 8123.00,2259.00              8123.00,2259.00 8122.04,2275.00 8122.04,2275.00              8122.04,2275.00 8123.91,2286.00 8123.91,2286.00              8123.91,2286.00 8123.91,2305.00 8123.91,2305.00              8124.01,2312.82 8126.91,2320.24 8125.54,2328.00              8125.54,2328.00 8120.46,2347.00 8120.46,2347.00              8119.57,2351.96 8120.45,2356.15 8117.87,2361.00              8115.31,2365.81 8103.20,2379.02 8100.24,2388.00              8095.33,2402.76 8099.73,2406.01 8100.24,2415.00              8100.73,2423.16 8098.44,2428.35 8098.09,2434.00              8097.59,2442.25 8100.46,2445.07 8103.10,2452.00              8103.10,2452.00 8107.49,2468.00 8107.49,2468.00              8107.49,2468.00 8109.17,2488.00 8109.17,2488.00              8109.17,2488.00 8110.66,2499.00 8110.66,2499.00              8110.65,2503.12 8108.88,2506.30 8109.00,2517.00              8109.00,2517.00 8109.81,2529.00 8109.81,2529.00              8109.40,2533.94 8108.08,2534.75 8108.00,2542.00              8108.00,2542.00 8108.92,2555.00 8108.92,2555.00              8108.92,2555.00 8106.79,2577.00 8106.79,2577.00              8106.79,2577.00 8103.30,2590.00 8103.30,2590.00              8101.94,2599.29 8102.01,2608.63 8102.00,2618.00              8102.00,2618.00 8100.01,2639.00 8100.01,2639.00              8100.15,2645.02 8101.57,2647.56 8102.54,2653.00              8102.54,2653.00 8103.46,2665.00 8103.46,2665.00              8103.46,2665.00 8106.91,2680.00 8106.91,2680.00              8106.91,2680.00 8109.47,2688.00 8109.47,2688.00              8109.47,2688.00 8112.93,2709.00 8112.93,2709.00              8112.93,2709.00 8116.51,2718.00 8116.51,2718.00              8116.51,2718.00 8118.66,2732.00 8118.66,2732.00              8119.30,2735.08 8120.75,2741.00 8120.16,2744.00              8119.52,2747.21 8116.75,2749.75 8114.95,2754.00              8112.82,2759.04 8113.51,2762.64 8111.26,2765.82              8111.26,2765.82 8102.18,2774.04 8102.18,2774.04              8097.98,2778.61 8097.57,2781.28 8094.69,2786.00              8089.24,2794.93 8086.13,2796.67 8085.87,2808.00              8085.87,2808.00 8085.87,2827.00 8085.87,2827.00              8085.99,2829.79 8086.16,2834.43 8085.87,2837.00              8085.87,2837.00 8074.54,2863.00 8074.54,2863.00              8069.74,2877.02 8073.57,2881.68 8072.78,2888.00              8072.06,2893.69 8068.27,2895.92 8069.09,2908.00              8070.77,2932.74 8074.32,2946.32 8080.38,2970.00              8080.38,2970.00 8086.79,2991.00 8086.79,2991.00              8086.79,2991.00 8085.17,3012.00 8085.17,3012.00              8085.17,3012.00 8086.44,3040.00 8086.44,3040.00              8086.44,3040.00 8091.74,3065.00 8091.74,3065.00              8091.74,3065.00 8093.68,3081.00 8093.68,3081.00              8093.68,3081.00 8099.56,3096.00 8099.56,3096.00              8099.56,3096.00 8105.44,3120.00 8105.44,3120.00              8105.44,3120.00 8109.23,3129.00 8109.23,3129.00              8109.23,3129.00 8116.90,3153.00 8116.90,3153.00              8118.49,3161.07 8114.20,3166.91 8115.17,3176.00              8116.01,3183.86 8119.10,3185.63 8121.08,3192.00              8123.24,3198.95 8123.99,3209.66 8124.00,3217.00              8124.00,3217.00 8125.73,3233.00 8125.73,3233.00              8125.73,3233.00 8123.11,3245.00 8123.11,3245.00              8123.11,3245.00 8123.11,3269.00 8123.11,3269.00              8123.50,3280.46 8129.01,3281.78 8131.88,3295.00              8132.62,3299.18 8131.99,3308.10 8131.88,3313.00              8131.88,3313.00 8134.00,3338.00 8134.00,3338.00              8133.92,3344.20 8132.98,3346.38 8132.06,3352.00              8132.06,3352.00 8132.06,3361.00 8132.06,3361.00              8132.06,3361.00 8130.09,3370.00 8130.09,3370.00              8130.09,3370.00 8130.09,3384.00 8130.09,3384.00              8130.13,3394.58 8133.32,3394.66 8132.96,3404.00              8132.60,3413.20 8129.47,3415.46 8130.04,3428.00              8130.39,3435.76 8133.26,3438.14 8132.88,3444.00              8132.69,3447.03 8131.66,3449.16 8130.92,3452.00              8130.92,3452.00 8129.22,3461.00 8129.22,3461.00              8126.37,3471.15 8123.88,3470.49 8124.00,3483.00              8124.06,3488.82 8124.88,3493.02 8128.11,3498.00              8130.23,3501.28 8134.51,3505.03 8134.39,3509.00              8134.39,3509.00 8131.68,3518.00 8131.68,3518.00              8130.36,3523.76 8131.81,3525.21 8129.63,3534.00              8127.48,3542.61 8123.68,3547.68 8124.04,3557.00              8124.04,3557.00 8125.30,3575.00 8125.30,3575.00              8125.30,3575.00 8127.40,3583.00 8127.40,3583.00              8128.56,3587.83 8128.31,3595.96 8128.09,3601.00              8127.74,3608.77 8130.42,3611.16 8130.13,3616.00              8130.13,3616.00 8126.32,3640.00 8126.32,3640.00              8124.22,3646.01 8121.13,3646.84 8120.90,3658.00              8120.90,3658.00 8120.90,3668.00 8120.90,3668.00              8120.90,3668.00 8118.25,3677.00 8118.25,3677.00              8118.25,3677.00 8118.25,3696.00 8118.25,3696.00              8118.25,3696.00 8119.00,3710.00 8119.00,3710.00              8118.97,3717.24 8118.17,3716.91 8117.30,3723.00              8117.30,3723.00 8116.01,3741.00 8116.01,3741.00              8116.25,3751.13 8120.00,3753.66 8120.89,3758.00              8121.62,3761.58 8119.75,3763.65 8119.89,3771.00              8120.41,3780.55 8121.85,3784.61 8119.89,3795.00              8118.70,3800.04 8114.52,3803.78 8115.09,3813.00              8115.42,3818.32 8117.19,3820.81 8117.79,3825.00              8118.70,3831.26 8118.97,3837.68 8119.00,3844.00              8119.00,3844.00 8121.81,3875.00 8121.81,3875.00              8121.81,3875.00 8120.06,3883.00 8120.06,3883.00              8120.06,3883.00 8120.06,3895.00 8120.06,3895.00              8119.00,3902.71 8118.06,3900.56 8118.00,3911.00              8117.95,3920.93 8115.30,3921.18 8115.04,3929.00              8115.04,3929.00 8117.08,3946.00 8117.08,3946.00              8117.08,3946.00 8117.08,3954.00 8117.08,3954.00              8117.08,3954.00 8118.83,3963.00 8118.83,3963.00              8118.83,3963.00 8120.46,3982.00 8120.46,3982.00              8120.46,3982.00 8123.57,3996.00 8123.57,3996.00              8123.57,3996.00 8124.30,4005.00 8124.30,4005.00              8124.30,4005.00 8127.22,4025.00 8127.22,4025.00              8127.22,4025.00 8127.22,4033.00 8127.22,4033.00              8127.22,4033.00 8127.22,4040.00 8127.22,4040.00              8127.22,4040.00 8125.06,4050.00 8125.06,4050.00              8125.06,4050.00 8125.06,4059.00 8125.06,4059.00              8125.06,4059.00 8123.30,4067.00 8123.30,4067.00              8122.17,4074.88 8124.34,4073.30 8120.72,4087.00              8120.72,4087.00 8117.48,4097.00 8117.48,4097.00              8113.99,4105.04 8111.64,4106.12 8112.04,4116.00              8112.49,4127.03 8118.87,4129.75 8118.82,4141.00              8118.82,4141.00 8116.37,4161.00 8116.37,4161.00              8114.46,4168.03 8112.70,4168.52 8113.04,4177.00              8113.37,4185.09 8119.42,4195.84 8119.62,4202.00              8119.62,4202.00 8114.00,4243.00 8114.00,4243.00              8114.05,4247.09 8114.35,4250.16 8115.95,4254.00              8117.17,4256.91 8119.45,4259.85 8119.67,4263.00              8119.93,4266.67 8117.47,4269.67 8116.64,4275.00              8115.40,4280.67 8116.45,4282.84 8116.64,4288.00              8117.03,4290.93 8114.26,4306.16 8113.31,4309.00              8111.71,4313.76 8107.52,4317.62 8108.09,4327.00              8108.68,4336.60 8112.89,4341.52 8114.29,4347.00              8114.29,4347.00 8115.47,4359.00 8115.47,4359.00              8116.64,4365.20 8120.14,4371.80 8120.81,4380.00              8120.81,4380.00 8120.00,4392.00 8120.00,4392.00              8119.95,4396.63 8119.83,4400.50 8121.22,4405.00              8122.62,4409.55 8125.21,4413.01 8124.64,4418.00              8124.64,4418.00 8119.09,4444.00 8119.09,4444.00              8119.09,4444.00 8119.82,4456.00 8119.82,4456.00              8119.54,4459.97 8118.86,4461.37 8119.04,4466.00              8119.04,4466.00 8122.85,4487.00 8122.85,4487.00              8122.85,4487.00 8122.85,4503.00 8122.85,4503.00              8122.85,4503.00 8123.96,4521.00 8123.96,4521.00              8123.71,4525.47 8121.87,4529.65 8120.89,4534.00              8119.50,4540.10 8120.43,4541.47 8119.79,4546.00              8118.95,4551.97 8116.77,4552.22 8117.01,4563.00              8117.32,4576.33 8123.69,4576.98 8123.98,4587.00              8124.28,4597.29 8121.11,4601.84 8121.00,4611.00              8121.00,4611.00 8122.38,4628.00 8122.38,4628.00              8122.38,4628.00 8119.47,4638.00 8119.47,4638.00              8119.47,4638.00 8118.83,4649.00 8118.83,4649.00              8118.83,4649.00 8115.83,4667.00 8115.83,4667.00              8115.24,4672.00 8113.75,4674.43 8114.09,4680.00              8114.76,4690.87 8121.48,4694.37 8120.68,4702.00              8120.68,4702.00 8119.08,4710.00 8119.08,4710.00              8119.08,4710.00 8119.08,4725.00 8119.08,4725.00              8118.84,4738.68 8112.18,4738.66 8113.09,4752.00              8113.09,4752.00 8117.40,4781.00 8117.40,4781.00              8118.18,4784.90 8120.13,4796.51 8119.59,4800.00              8117.64,4812.55 8108.03,4816.68 8108.00,4835.00              8108.00,4835.00 8109.96,4867.00 8109.96,4867.00              8110.27,4874.98 8108.26,4875.54 8107.30,4882.00              8107.30,4882.00 8106.47,4890.00 8106.47,4890.00              8104.44,4899.02 8103.02,4896.14 8103.00,4908.00              8103.00,4908.00 8103.00,4935.00 8103.00,4935.00              8102.89,4943.66 8098.01,4955.27 8099.09,4970.00              8100.15,4984.53 8107.55,4999.99 8108.70,5008.00              8109.77,5015.40 8107.48,5020.18 8107.23,5027.00              8107.23,5027.00 8107.23,5036.00 8107.23,5036.00              8107.23,5036.00 8106.22,5044.00 8106.22,5044.00              8106.22,5044.00 8106.22,5052.00 8106.22,5052.00              8105.74,5060.29 8103.32,5054.55 8104.25,5073.00              8104.25,5073.00 8104.25,5086.00 8104.25,5086.00              8104.25,5086.00 8105.90,5106.00 8105.90,5106.00              8105.90,5106.00 8104.09,5117.00 8104.09,5117.00              8103.86,5120.81 8104.52,5124.47 8105.95,5128.00              8106.98,5130.54 8108.91,5133.15 8108.29,5136.00              8108.29,5136.00 8099.90,5150.00 8099.90,5150.00              8097.43,5154.82 8095.07,5167.49 8095.00,5173.00              8094.94,5178.28 8094.64,5183.92 8096.22,5189.00              8096.22,5189.00 8104.59,5207.00 8104.59,5207.00              8108.24,5217.61 8107.44,5218.80 8108.29,5229.00              8108.27,5231.84 8108.69,5232.96 8108.29,5236.00              8108.29,5236.00 8107.04,5248.00 8107.04,5248.00              8107.04,5248.00 8107.04,5259.00 8107.04,5259.00              8106.87,5268.42 8102.56,5271.59 8103.09,5281.00              8103.09,5281.00 8103.82,5288.00 8103.82,5288.00              8103.82,5288.00 8102.09,5299.00 8102.09,5299.00              8101.63,5306.61 8105.78,5314.49 8105.08,5320.00              8105.08,5320.00 8100.93,5331.00 8100.93,5331.00              8099.56,5336.04 8100.34,5338.62 8099.61,5342.00              8099.61,5342.00 8094.79,5355.00 8094.79,5355.00              8091.17,5363.33 8086.43,5367.16 8087.09,5378.00              8087.09,5378.00 8089.11,5390.00 8089.11,5390.00              8089.11,5390.00 8089.11,5405.00 8089.11,5405.00              8089.11,5405.00 8090.34,5426.00 8090.34,5426.00              8089.98,5428.03 8088.74,5430.08 8087.95,5432.00              8087.95,5432.00 8084.09,5442.00 8084.09,5442.00              8081.64,5446.33 8079.24,5447.24 8074.79,5457.00              8070.64,5466.11 8072.93,5469.36 8071.28,5474.00              8071.28,5474.00 8064.95,5485.00 8064.95,5485.00              8062.44,5490.93 8063.50,5494.33 8062.51,5498.00              8061.64,5501.19 8059.84,5502.99 8058.68,5508.00              8055.33,5522.44 8057.33,5526.58 8060.34,5540.00              8061.47,5545.08 8061.32,5548.08 8063.91,5553.00              8065.64,5556.28 8068.44,5560.24 8071.09,5562.82              8073.01,5564.69 8076.09,5566.44 8076.66,5569.18              8077.37,5572.57 8074.74,5576.10 8073.40,5579.00              8071.45,5583.21 8071.06,5586.44 8071.00,5591.00              8070.97,5593.70 8071.32,5601.62 8070.43,5603.68              8069.10,5606.72 8064.37,5608.57 8059.79,5615.00              8056.47,5619.66 8056.38,5622.29 8054.87,5625.00              8054.87,5625.00 8044.49,5637.73 8044.49,5637.73              8041.80,5640.44 8037.42,5641.87 8034.00,5644.10              8034.00,5644.10 8025.00,5650.75 8025.00,5650.75              8019.08,5655.35 8018.98,5657.52 8015.68,5660.37              8015.68,5660.37 8008.01,5665.53 8008.01,5665.53              8005.77,5667.28 8003.20,5670.42 8000.83,5671.41              8000.83,5671.41 7977.00,5674.91 7977.00,5674.91              7972.86,5675.21 7970.37,5674.70 7966.00,5675.68              7966.00,5675.68 7959.00,5677.63 7959.00,5677.63              7959.00,5677.63 7950.00,5678.67 7950.00,5678.67              7950.00,5678.67 7932.00,5682.90 7932.00,5682.90              7932.00,5682.90 7921.00,5682.90 7921.00,5682.90              7921.00,5682.90 7896.00,5685.17 7896.00,5685.17              7886.26,5686.26 7882.50,5689.13 7871.00,5689.00              7871.00,5689.00 7856.00,5688.00 7856.00,5688.00              7856.00,5688.00 7824.00,5688.00 7824.00,5688.00              7824.00,5688.00 7814.00,5687.05 7814.00,5687.05              7814.00,5687.05 7802.00,5687.05 7802.00,5687.05              7802.00,5687.05 7791.00,5687.55 7791.00,5687.55              7791.00,5687.55 7781.00,5683.22 7781.00,5683.22              7776.46,5681.77 7771.70,5681.95 7767.00,5682.00              7767.00,5682.00 7753.00,5683.33 7753.00,5683.33              7743.89,5682.69 7742.28,5680.64 7736.00,5679.47              7736.00,5679.47 7726.00,5678.79 7726.00,5678.79              7726.00,5678.79 7716.00,5676.29 7716.00,5676.29              7709.62,5675.36 7705.69,5676.79 7701.00,5676.29              7701.00,5676.29 7694.00,5676.29 7694.00,5676.29              7694.00,5676.29 7676.00,5679.70 7676.00,5679.70              7676.00,5679.70 7667.00,5680.67 7667.00,5680.67              7661.74,5681.79 7659.68,5683.47 7654.00,5683.19              7654.00,5683.19 7634.00,5680.93 7634.00,5680.93              7634.00,5680.93 7625.00,5680.93 7625.00,5680.93              7625.00,5680.93 7605.00,5677.30 7605.00,5677.30              7605.00,5677.30 7596.00,5676.66 7596.00,5676.66              7592.31,5675.96 7590.29,5674.30 7587.00,5672.95              7587.00,5672.95 7578.00,5669.97 7578.00,5669.97              7578.00,5669.97 7559.00,5660.55 7559.00,5660.55              7552.48,5658.23 7549.68,5659.51 7544.00,5658.70              7544.00,5658.70 7518.00,5654.09 7518.00,5654.09              7505.77,5653.20 7497.30,5658.46 7486.00,5660.83              7481.42,5661.51 7474.71,5661.16 7470.00,5660.83              7463.59,5660.86 7454.75,5663.02 7449.00,5665.82              7442.35,5669.06 7441.99,5671.85 7434.00,5672.00              7434.00,5672.00 7421.00,5672.66 7421.00,5672.66              7421.00,5672.66 7371.00,5666.30 7371.00,5666.30              7371.00,5666.30 7351.00,5665.02 7351.00,5665.02              7351.00,5665.02 7342.00,5661.22 7342.00,5661.22              7335.88,5659.19 7324.40,5657.49 7318.00,5658.17              7313.16,5658.69 7294.92,5662.81 7291.00,5664.91              7291.00,5664.91 7279.00,5673.56 7279.00,5673.56              7279.00,5673.56 7259.00,5681.31 7259.00,5681.31              7259.00,5681.31 7242.00,5691.00 7242.00,5691.00 Z            M 7139.00,5558.43            C 7124.36,5562.91 7123.87,5584.43 7139.00,5592.00              7141.75,5593.38 7144.92,5594.19 7148.00,5593.64              7150.24,5593.24 7152.13,5592.30 7153.78,5590.72              7157.03,5587.62 7162.82,5575.42 7161.25,5571.00              7159.24,5565.39 7144.73,5558.21 7139.00,5558.43 Z            M 7053.10,5560.43            C 7047.73,5562.94 7045.01,5571.77 7048.74,5576.78              7051.62,5580.65 7058.59,5581.70 7063.00,5580.43              7070.24,5578.34 7072.02,5569.83 7067.35,5564.34              7063.76,5560.12 7058.20,5559.64 7053.10,5560.43 Z"
            style="fill:#000000;fill-opacity:1"/>
</svg>
