<?xml version="1.0" encoding="UTF-8" standalone="no"?>
<svg
        width="174.012mm"
        height="125.667mm"
        viewBox="0 0 8221 5937"
        version="1.1"
        id="svg1680"
        sodipodi:docname="sheet14b.svg"
        inkscape:version="1.1.1 (3bf5ae0d25, 2021-09-20)"
        xmlns:inkscape="http://www.inkscape.org/namespaces/inkscape"
        xmlns:sodipodi="http://sodipodi.sourceforge.net/DTD/sodipodi-0.dtd"
        xmlns="http://www.w3.org/2000/svg"
>
    <defs
            id="defs1684"/>
    <sodipodi:namedview
            id="namedview1682"
            pagecolor="#ffffff"
            bordercolor="#666666"
            borderopacity="1.0"
            inkscape:pageshadow="2"
            inkscape:pageopacity="0.0"
            inkscape:pagecheckerboard="0"
            inkscape:document-units="mm"
            showgrid="false"
            inkscape:zoom="1.6086774"
            inkscape:cx="329.15238"
            inkscape:cy="237.77296"
            inkscape:window-width="1920"
            inkscape:window-height="1001"
            inkscape:window-x="-7"
            inkscape:window-y="-7"
            inkscape:window-maximized="1"
            inkscape:current-layer="svg1680"/>
    <path
            id="Selection #1"
            fill="none"
            stroke="black"
            stroke-width="1"
            d="M 96.00,55.00            C 96.00,55.00 104.00,55.00 104.00,55.00              104.00,55.00 137.00,51.21 137.00,51.21              137.00,51.21 165.00,53.00 165.00,53.00              165.00,53.00 187.00,52.00 187.00,52.00              187.00,52.00 213.00,52.00 213.00,52.00              229.87,52.03 238.66,62.82 254.00,62.77              257.62,63.04 263.61,63.17 267.00,62.77              272.34,61.53 274.50,59.63 279.00,58.10              279.00,58.10 288.00,56.10 288.00,56.10              297.70,53.75 300.36,52.02 311.00,52.00              311.00,52.00 334.00,51.00 334.00,51.00              334.00,51.00 359.00,51.00 359.00,51.00              359.00,51.00 376.00,52.00 376.00,52.00              376.00,52.00 391.00,52.00 391.00,52.00              391.00,52.00 411.00,51.00 411.00,51.00              411.00,51.00 427.00,49.86 427.00,49.86              427.00,49.86 456.00,49.86 456.00,49.86              456.00,49.86 472.00,49.86 472.00,49.86              472.00,49.86 484.00,49.05 484.00,49.05              484.00,49.05 499.00,49.05 499.00,49.05              499.00,49.05 515.00,50.61 515.00,50.61              515.00,50.61 526.00,52.91 526.00,52.91              526.00,52.91 541.00,52.91 541.00,52.91              541.00,52.91 557.00,51.70 557.00,51.70              563.09,50.83 562.75,50.03 570.00,50.00              570.00,50.00 618.00,50.00 618.00,50.00              618.00,50.00 635.00,51.00 635.00,51.00              635.00,51.00 694.00,51.00 694.00,51.00              694.00,51.00 707.00,51.91 707.00,51.91              707.00,51.91 719.00,51.00 719.00,51.00              719.00,51.00 739.00,51.00 739.00,51.00              739.00,51.00 756.00,50.00 756.00,50.00              756.00,50.00 771.00,51.00 771.00,51.00              771.00,51.00 791.00,51.00 791.00,51.00              791.00,51.00 806.00,50.04 806.00,50.04              806.00,50.04 821.00,51.00 821.00,51.00              821.00,51.00 836.00,52.00 836.00,52.00              836.00,52.00 858.00,52.00 858.00,52.00              858.00,52.00 875.00,51.00 875.00,51.00              875.00,51.00 944.00,51.00 944.00,51.00              944.00,51.00 956.00,50.18 956.00,50.18              956.00,50.18 968.00,51.00 968.00,51.00              968.00,51.00 981.00,51.00 981.00,51.00              981.00,51.00 993.00,51.95 993.00,51.95              993.00,51.95 1007.00,51.95 1007.00,51.95              1007.00,51.95 1021.00,51.04 1021.00,51.04              1021.00,51.04 1036.00,51.04 1036.00,51.04              1036.00,51.04 1048.00,52.00 1048.00,52.00              1048.00,52.00 1126.00,52.00 1126.00,52.00              1126.00,52.00 1143.00,53.00 1143.00,53.00              1143.00,53.00 1204.00,53.00 1204.00,53.00              1204.00,53.00 1221.00,52.00 1221.00,52.00              1221.00,52.00 1305.00,52.00 1305.00,52.00              1305.00,52.00 1318.00,53.00 1318.00,53.00              1318.00,53.00 1347.00,52.00 1347.00,52.00              1347.00,52.00 1363.00,53.00 1363.00,53.00              1363.00,53.00 1377.00,52.00 1377.00,52.00              1377.00,52.00 1405.00,53.99 1405.00,53.99              1405.00,53.99 1413.00,53.34 1413.00,53.34              1413.00,53.34 1422.00,53.91 1422.00,53.91              1422.00,53.91 1434.00,53.00 1434.00,53.00              1434.00,53.00 1533.00,53.00 1533.00,53.00              1533.00,53.00 1547.00,52.00 1547.00,52.00              1547.00,52.00 1563.00,53.00 1563.00,53.00              1563.00,53.00 1591.00,53.00 1591.00,53.00              1591.00,53.00 1606.00,54.04 1606.00,54.04              1606.00,54.04 1620.00,54.04 1620.00,54.04              1620.00,54.04 1634.00,55.00 1634.00,55.00              1634.00,55.00 1649.00,53.96 1649.00,53.96              1649.00,53.96 1662.00,53.96 1662.00,53.96              1662.00,53.96 1671.00,53.03 1671.00,53.03              1671.00,53.03 1681.00,53.90 1681.00,53.90              1681.00,53.90 1690.00,53.90 1690.00,53.90              1690.00,53.90 1711.00,53.90 1711.00,53.90              1711.00,53.90 1726.00,53.00 1726.00,53.00              1726.00,53.00 1829.00,53.00 1829.00,53.00              1829.00,53.00 1839.00,53.95 1839.00,53.95              1839.00,53.95 1854.00,53.95 1854.00,53.95              1854.00,53.95 1872.00,53.00 1872.00,53.00              1872.00,53.00 1887.00,54.00 1887.00,54.00              1887.00,54.00 1903.00,54.00 1903.00,54.00              1903.00,54.00 1918.00,53.04 1918.00,53.04              1918.00,53.04 1927.00,53.96 1927.00,53.96              1927.00,53.96 1943.00,53.00 1943.00,53.00              1943.00,53.00 1998.00,53.00 1998.00,53.00              1998.00,53.00 2019.00,55.00 2019.00,55.00              2019.00,55.00 2025.00,55.00 2025.00,55.00              2025.00,55.00 2039.00,55.96 2039.00,55.96              2039.00,55.96 2060.00,54.18 2060.00,54.18              2068.72,54.82 2071.19,57.24 2082.00,56.99              2082.00,56.99 2091.00,56.04 2091.00,56.04              2091.00,56.04 2101.00,56.04 2101.00,56.04              2101.00,56.04 2127.00,53.18 2127.00,53.18              2127.00,53.18 2148.00,54.00 2148.00,54.00              2148.00,54.00 2165.00,53.00 2165.00,53.00              2165.00,53.00 2217.00,53.00 2217.00,53.00              2217.00,53.00 2232.00,54.00 2232.00,54.00              2232.00,54.00 2257.00,54.00 2257.00,54.00              2257.00,54.00 2272.00,53.00 2272.00,53.00              2272.00,53.00 2291.00,53.00 2291.00,53.00              2291.00,53.00 2304.00,54.00 2304.00,54.00              2304.00,54.00 2373.00,54.00 2373.00,54.00              2373.00,54.00 2388.00,53.00 2388.00,53.00              2388.00,53.00 2420.00,53.00 2420.00,53.00              2420.00,53.00 2435.00,54.00 2435.00,54.00              2435.00,54.00 2450.00,54.00 2450.00,54.00              2450.00,54.00 2466.00,55.00 2466.00,55.00              2466.00,55.00 2489.00,55.00 2489.00,55.00              2489.00,55.00 2518.00,53.18 2518.00,53.18              2518.00,53.18 2529.00,54.00 2529.00,54.00              2529.00,54.00 2553.00,54.00 2553.00,54.00              2553.00,54.00 2570.00,53.00 2570.00,53.00              2570.00,53.00 2656.00,53.00 2656.00,53.00              2656.00,53.00 2666.00,53.95 2666.00,53.95              2666.00,53.95 2679.00,53.95 2679.00,53.95              2679.00,53.95 2692.00,53.00 2692.00,53.00              2692.00,53.00 2714.00,53.00 2714.00,53.00              2714.00,53.00 2727.00,54.00 2727.00,54.00              2727.00,54.00 2751.00,54.00 2751.00,54.00              2751.00,54.00 2766.00,53.00 2766.00,53.00              2766.00,53.00 2792.00,53.00 2792.00,53.00              2792.00,53.00 2809.00,54.00 2809.00,54.00              2809.00,54.00 2843.00,54.00 2843.00,54.00              2843.00,54.00 2856.00,53.08 2856.00,53.08              2856.00,53.08 2869.00,53.96 2869.00,53.96              2869.00,53.96 2886.00,53.96 2886.00,53.96              2886.00,53.96 2897.00,53.04 2897.00,53.04              2897.00,53.04 2910.00,54.00 2910.00,54.00              2910.00,54.00 2953.00,54.00 2953.00,54.00              2953.00,54.00 2971.00,55.00 2971.00,55.00              2971.00,55.00 2986.00,54.00 2986.00,54.00              2986.00,54.00 3024.00,54.00 3024.00,54.00              3024.00,54.00 3049.00,56.00 3049.00,56.00              3049.00,56.00 3085.00,56.00 3085.00,56.00              3085.00,56.00 3102.00,55.00 3102.00,55.00              3102.00,55.00 3123.00,54.00 3123.00,54.00              3123.00,54.00 3151.00,54.00 3151.00,54.00              3151.00,54.00 3162.00,53.21 3162.00,53.21              3162.00,53.21 3184.00,54.97 3184.00,54.97              3184.00,54.97 3198.00,54.01 3198.00,54.01              3198.00,54.01 3207.00,54.95 3207.00,54.95              3207.00,54.95 3219.00,54.95 3219.00,54.95              3219.00,54.95 3234.00,54.00 3234.00,54.00              3234.00,54.00 3266.00,54.00 3266.00,54.00              3266.00,54.00 3283.00,54.99 3283.00,54.99              3283.00,54.99 3295.00,54.00 3295.00,54.00              3295.00,54.00 3322.00,55.00 3322.00,55.00              3322.00,55.00 3340.00,54.00 3340.00,54.00              3340.00,54.00 3355.00,54.89 3355.00,54.89              3355.00,54.89 3380.00,54.89 3380.00,54.89              3380.00,54.89 3390.00,54.89 3390.00,54.89              3390.00,54.89 3446.00,54.89 3446.00,54.89              3446.00,54.89 3461.00,55.99 3461.00,55.99              3461.00,55.99 3475.00,55.00 3475.00,55.00              3475.00,55.00 3495.00,55.00 3495.00,55.00              3495.00,55.00 3510.00,56.00 3510.00,56.00              3510.00,56.00 3554.00,56.00 3554.00,56.00              3554.00,56.00 3566.00,56.96 3566.00,56.96              3566.00,56.96 3583.00,56.96 3583.00,56.96              3583.00,56.96 3619.00,59.00 3619.00,59.00              3619.00,59.00 3640.00,59.00 3640.00,59.00              3640.00,59.00 3657.00,58.00 3657.00,58.00              3657.00,58.00 3673.00,59.00 3673.00,59.00              3673.00,59.00 3687.00,58.18 3687.00,58.18              3687.00,58.18 3733.00,59.00 3733.00,59.00              3733.00,59.00 3745.00,58.34 3745.00,58.34              3745.00,58.34 3752.00,58.98 3752.00,58.98              3752.00,58.98 3766.00,58.98 3766.00,58.98              3766.00,58.98 3781.00,58.09 3781.00,58.09              3781.00,58.09 3793.00,59.00 3793.00,59.00              3793.00,59.00 3886.00,59.00 3886.00,59.00              3895.91,59.12 3896.94,61.98 3909.00,62.00              3909.00,62.00 3942.00,62.00 3942.00,62.00              3942.00,62.00 3963.00,60.18 3963.00,60.18              3963.00,60.18 3970.00,60.96 3970.00,60.96              3970.00,60.96 3983.00,60.96 3983.00,60.96              3983.00,60.96 3993.00,61.96 3993.00,61.96              3993.00,61.96 4005.00,61.96 4005.00,61.96              4005.00,61.96 4030.00,64.96 4030.00,64.96              4030.00,64.96 4046.00,64.01 4046.00,64.01              4051.37,64.14 4059.66,66.26 4064.00,69.42              4064.00,69.42 4071.00,75.22 4071.00,75.22              4077.46,79.92 4079.70,80.96 4084.61,88.00              4090.30,96.16 4087.90,101.28 4089.68,109.00              4092.28,120.29 4102.45,128.57 4114.00,128.96              4124.78,129.32 4139.09,120.81 4144.89,112.00              4144.89,112.00 4151.72,97.28 4151.72,97.28              4151.72,97.28 4159.24,89.00 4159.24,89.00              4166.44,79.36 4161.71,83.32 4171.83,72.98              4173.24,71.55 4174.50,69.98 4176.17,68.84              4178.91,66.96 4183.74,65.98 4187.00,65.12              4196.75,62.54 4201.60,61.02 4212.00,61.00              4212.00,61.00 4226.00,61.00 4226.00,61.00              4226.00,61.00 4249.00,59.34 4249.00,59.34              4249.00,59.34 4260.00,60.00 4260.00,60.00              4260.00,60.00 4269.00,60.00 4269.00,60.00              4269.00,60.00 4284.00,59.00 4284.00,59.00              4284.00,59.00 4339.00,59.00 4339.00,59.00              4339.00,59.00 4349.00,58.18 4349.00,58.18              4349.00,58.18 4361.00,59.00 4361.00,59.00              4361.00,59.00 4384.00,59.00 4384.00,59.00              4384.00,59.00 4399.00,58.00 4399.00,58.00              4399.00,58.00 4413.00,58.00 4413.00,58.00              4413.00,58.00 4428.00,59.00 4428.00,59.00              4428.00,59.00 4432.00,59.00 4432.00,59.00              4432.00,59.00 4446.00,60.00 4446.00,60.00              4446.00,60.00 4450.00,60.00 4450.00,60.00              4450.00,60.00 4465.00,59.00 4465.00,59.00              4465.00,59.00 4548.00,59.00 4548.00,59.00              4548.00,59.00 4565.00,58.00 4565.00,58.00              4565.00,58.00 4603.00,58.00 4603.00,58.00              4603.00,58.00 4619.00,58.96 4619.00,58.96              4619.00,58.96 4631.00,58.00 4631.00,58.00              4631.00,58.00 4666.00,58.00 4666.00,58.00              4666.00,58.00 4681.00,58.99 4681.00,58.99              4681.00,58.99 4691.00,57.88 4691.00,57.88              4691.00,57.88 4699.00,57.88 4699.00,57.88              4699.00,57.88 4711.00,57.88 4711.00,57.88              4711.00,57.88 4718.00,57.18 4718.00,57.18              4718.00,57.18 4730.00,58.00 4730.00,58.00              4730.00,58.00 4771.00,58.00 4771.00,58.00              4771.00,58.00 4786.00,58.99 4786.00,58.99              4786.00,58.99 4800.00,58.00 4800.00,58.00              4800.00,58.00 4913.00,58.00 4913.00,58.00              4913.00,58.00 4928.00,58.86 4928.00,58.86              4928.00,58.86 4959.00,58.86 4959.00,58.86              4959.00,58.86 4979.00,58.86 4979.00,58.86              4979.00,58.86 4992.00,58.00 4992.00,58.00              4992.00,58.00 5018.00,58.00 5018.00,58.00              5018.00,58.00 5033.00,59.00 5033.00,59.00              5033.00,59.00 5092.00,59.00 5092.00,59.00              5092.00,59.00 5108.00,58.00 5108.00,58.00              5108.00,58.00 5119.00,58.96 5119.00,58.96              5119.00,58.96 5135.00,58.96 5135.00,58.96              5135.00,58.96 5147.00,58.04 5147.00,58.04              5147.00,58.04 5158.00,58.04 5158.00,58.04              5158.00,58.04 5173.00,57.01 5173.00,57.01              5173.00,57.01 5185.00,58.00 5185.00,58.00              5185.00,58.00 5203.00,58.00 5203.00,58.00              5203.00,58.00 5218.00,59.00 5218.00,59.00              5218.00,59.00 5273.00,59.00 5273.00,59.00              5273.00,59.00 5290.00,58.00 5290.00,58.00              5290.00,58.00 5376.00,58.00 5376.00,58.00              5376.00,58.00 5386.00,58.95 5386.00,58.95              5386.00,58.95 5400.00,58.95 5400.00,58.95              5400.00,58.95 5415.00,58.00 5415.00,58.00              5415.00,58.00 5454.00,58.00 5454.00,58.00              5454.00,58.00 5468.00,59.00 5468.00,59.00              5468.00,59.00 5493.00,59.00 5493.00,59.00              5493.00,59.00 5508.00,58.00 5508.00,58.00              5508.00,58.00 5621.00,58.00 5621.00,58.00              5621.00,58.00 5636.00,59.00 5636.00,59.00              5636.00,59.00 5653.00,59.00 5653.00,59.00              5653.00,59.00 5672.00,58.00 5672.00,58.00              5672.00,58.00 5682.00,58.95 5682.00,58.95              5682.00,58.95 5701.00,58.95 5701.00,58.95              5701.00,58.95 5715.00,58.00 5715.00,58.00              5715.00,58.00 5746.00,58.00 5746.00,58.00              5746.00,58.00 5762.00,59.00 5762.00,59.00              5762.00,59.00 5774.00,58.32 5774.00,58.32              5774.00,58.32 5783.00,58.96 5783.00,58.96              5783.00,58.96 5796.00,58.00 5796.00,58.00              5796.00,58.00 5857.00,58.00 5857.00,58.00              5857.00,58.00 5870.00,57.09 5870.00,57.09              5870.00,57.09 5889.00,59.00 5889.00,59.00              5889.00,59.00 5929.00,59.00 5929.00,59.00              5929.00,59.00 5943.00,57.88 5943.00,57.88              5943.00,57.88 5962.00,57.88 5962.00,57.88              5962.00,57.88 5971.00,57.88 5971.00,57.88              5971.00,57.88 6012.00,57.88 6012.00,57.88              6012.00,57.88 6034.00,59.00 6034.00,59.00              6034.00,59.00 6049.00,58.00 6049.00,58.00              6049.00,58.00 6076.00,57.00 6076.00,57.00              6076.00,57.00 6091.00,58.00 6091.00,58.00              6091.00,58.00 6166.00,58.00 6166.00,58.00              6166.00,58.00 6178.00,58.98 6178.00,58.98              6178.00,58.98 6192.00,58.01 6192.00,58.01              6192.00,58.01 6210.00,59.00 6210.00,59.00              6210.00,59.00 6225.00,58.00 6225.00,58.00              6225.00,58.00 6284.00,58.00 6284.00,58.00              6284.00,58.00 6299.00,57.00 6299.00,57.00              6299.00,57.00 6372.00,57.00 6372.00,57.00              6372.00,57.00 6387.00,58.00 6387.00,58.00              6387.00,58.00 6413.00,58.00 6413.00,58.00              6413.00,58.00 6434.00,57.00 6434.00,57.00              6434.00,57.00 6449.00,57.96 6449.00,57.96              6449.00,57.96 6463.00,57.96 6463.00,57.96              6463.00,57.96 6475.00,57.00 6475.00,57.00              6475.00,57.00 6505.00,57.00 6505.00,57.00              6505.00,57.00 6521.00,57.96 6521.00,57.96              6521.00,57.96 6530.00,57.08 6530.00,57.08              6530.00,57.08 6542.00,57.96 6542.00,57.96              6542.00,57.96 6555.00,57.00 6555.00,57.00              6555.00,57.00 6615.00,57.00 6615.00,57.00              6615.00,57.00 6626.00,56.08 6626.00,56.08              6626.00,56.08 6637.00,57.00 6637.00,57.00              6637.00,57.00 6658.00,57.00 6658.00,57.00              6658.00,57.00 6671.00,58.00 6671.00,58.00              6671.00,58.00 6688.00,58.00 6688.00,58.00              6688.00,58.00 6703.00,57.00 6703.00,57.00              6703.00,57.00 6739.00,57.00 6739.00,57.00              6739.00,57.00 6753.00,58.00 6753.00,58.00              6753.00,58.00 6782.00,58.00 6782.00,58.00              6782.00,58.00 6797.00,57.00 6797.00,57.00              6797.00,57.00 7010.00,57.00 7010.00,57.00              7010.00,57.00 7128.00,57.00 7128.00,57.00              7128.00,57.00 7145.00,58.00 7145.00,58.00              7145.00,58.00 7162.00,57.01 7162.00,57.01              7162.00,57.01 7171.00,57.95 7171.00,57.95              7171.00,57.95 7188.00,57.95 7188.00,57.95              7188.00,57.95 7201.00,57.00 7201.00,57.00              7201.00,57.00 7221.00,58.00 7221.00,58.00              7221.00,58.00 7237.00,57.01 7237.00,57.01              7237.00,57.01 7252.00,58.00 7252.00,58.00              7252.00,58.00 7307.00,58.00 7307.00,58.00              7307.00,58.00 7320.00,57.09 7320.00,57.09              7320.00,57.09 7330.00,58.00 7330.00,58.00              7330.00,58.00 7351.00,56.83 7351.00,56.83              7351.00,56.83 7358.00,56.08 7358.00,56.08              7358.00,56.08 7371.00,57.00 7371.00,57.00              7371.00,57.00 7387.00,57.00 7387.00,57.00              7387.00,57.00 7403.00,58.00 7403.00,58.00              7403.00,58.00 7472.00,58.00 7472.00,58.00              7472.00,58.00 7482.00,57.05 7482.00,57.05              7482.00,57.05 7495.00,57.05 7495.00,57.05              7495.00,57.05 7508.00,58.00 7508.00,58.00              7508.00,58.00 7525.00,58.00 7525.00,58.00              7525.00,58.00 7537.00,57.03 7537.00,57.03              7537.00,57.03 7551.00,57.99 7551.00,57.99              7551.00,57.99 7582.00,57.99 7582.00,57.99              7582.00,57.99 7591.00,57.18 7591.00,57.18              7591.00,57.18 7602.00,58.00 7602.00,58.00              7602.00,58.00 7677.00,58.00 7677.00,58.00              7677.00,58.00 7690.00,57.00 7690.00,57.00              7690.00,57.00 7707.00,57.00 7707.00,57.00              7707.00,57.00 7723.00,58.00 7723.00,58.00              7723.00,58.00 7738.00,57.00 7738.00,57.00              7738.00,57.00 7793.00,57.00 7793.00,57.00              7793.00,57.00 7850.00,57.00 7850.00,57.00              7850.00,57.00 7862.00,57.95 7862.00,57.95              7862.00,57.95 7881.00,57.95 7881.00,57.95              7881.00,57.95 7896.00,57.00 7896.00,57.00              7896.00,57.00 7942.00,57.00 7942.00,57.00              7942.00,57.00 7957.00,58.00 7957.00,58.00              7957.00,58.00 7974.00,58.00 7974.00,58.00              7974.00,58.00 7989.00,59.00 7989.00,59.00              7989.00,59.00 8005.00,59.00 8005.00,59.00              8005.00,59.00 8021.00,59.99 8021.00,59.99              8021.00,59.99 8033.00,59.00 8033.00,59.00              8033.00,59.00 8055.00,59.00 8055.00,59.00              8055.00,59.00 8081.00,62.61 8081.00,62.61              8081.00,62.61 8093.00,67.25 8093.00,67.25              8096.49,68.39 8102.87,68.64 8104.91,71.31              8106.47,73.35 8107.62,79.25 8108.52,82.00              8110.45,87.95 8112.97,96.78 8112.97,103.00              8112.97,110.01 8110.87,110.51 8111.00,122.00              8111.00,122.00 8111.82,135.00 8111.82,135.00              8111.82,135.00 8109.07,147.00 8109.07,147.00              8109.07,147.00 8109.07,156.00 8109.07,156.00              8107.92,165.38 8106.87,164.62 8107.00,176.00              8107.00,176.00 8108.32,197.00 8108.32,197.00              8108.32,197.00 8108.32,207.00 8108.32,207.00              8108.32,207.00 8108.32,215.00 8108.32,215.00              8107.81,220.60 8105.02,220.12 8105.08,233.00              8105.08,233.00 8105.08,249.00 8105.08,249.00              8106.07,258.43 8107.12,260.57 8107.00,271.00              8107.00,271.00 8102.09,304.00 8102.09,304.00              8102.56,311.54 8105.20,319.31 8104.61,327.00              8104.11,333.60 8100.75,336.18 8101.01,348.00              8101.01,348.00 8101.98,358.00 8101.98,358.00              8101.98,358.00 8101.98,374.00 8101.98,374.00              8101.98,374.00 8104.00,396.00 8104.00,396.00              8104.00,396.00 8105.29,418.00 8105.29,418.00              8105.29,418.00 8107.00,428.00 8107.00,428.00              8107.00,428.00 8107.00,437.00 8107.00,437.00              8107.00,437.00 8108.90,447.00 8108.90,447.00              8109.20,453.18 8106.69,455.95 8107.09,463.00              8107.09,463.00 8107.96,474.00 8107.96,474.00              8107.96,474.00 8107.00,487.00 8107.00,487.00              8107.00,487.00 8107.00,501.00 8107.00,501.00              8107.00,501.00 8106.04,512.00 8106.04,512.00              8106.04,512.00 8106.04,524.00 8106.04,524.00              8106.04,524.00 8105.04,540.00 8105.04,540.00              8105.04,540.00 8106.04,548.00 8106.04,548.00              8106.04,548.00 8106.04,559.00 8106.04,559.00              8106.04,559.00 8107.67,568.00 8107.67,568.00              8107.67,568.00 8106.00,583.00 8106.00,583.00              8106.00,583.00 8106.00,591.00 8106.00,591.00              8106.09,598.06 8107.77,602.47 8108.93,609.00              8108.93,609.00 8108.93,618.00 8108.93,618.00              8109.43,620.83 8109.90,621.96 8109.68,625.00              8109.68,625.00 8109.00,651.00 8109.00,651.00              8109.00,651.00 8108.09,666.00 8108.09,666.00              8108.50,671.95 8110.15,672.72 8109.98,681.00              8109.98,681.00 8109.00,690.00 8109.00,690.00              8109.00,690.00 8109.00,701.00 8109.00,701.00              8109.00,701.00 8108.09,711.00 8108.09,711.00              8108.09,711.00 8108.09,721.00 8108.09,721.00              8109.05,729.18 8110.13,726.87 8110.00,738.00              8110.00,738.00 8108.09,755.00 8108.09,755.00              8108.09,755.00 8108.98,763.00 8108.98,763.00              8108.98,763.00 8108.98,779.00 8108.98,779.00              8108.98,779.00 8111.00,806.00 8111.00,806.00              8111.00,806.00 8111.00,849.00 8111.00,849.00              8111.09,856.37 8112.31,856.89 8112.61,861.00              8112.61,861.00 8112.00,873.00 8112.00,873.00              8112.00,873.00 8112.00,881.00 8112.00,881.00              8111.87,892.00 8108.00,896.28 8107.17,904.00              8106.49,910.37 8108.01,912.78 8108.17,917.00              8108.17,917.00 8108.17,925.00 8108.17,925.00              8108.17,925.00 8109.00,935.00 8109.00,935.00              8109.00,935.00 8109.00,939.00 8109.00,939.00              8109.00,939.00 8108.00,953.00 8108.00,953.00              8108.00,953.00 8108.00,957.00 8108.00,957.00              8108.00,957.00 8109.96,975.00 8109.96,975.00              8109.96,975.00 8109.20,985.00 8109.20,985.00              8109.20,985.00 8109.20,995.00 8109.20,995.00              8109.20,995.00 8109.20,1005.00 8109.20,1005.00              8109.20,1005.00 8109.20,1014.00 8109.20,1014.00              8109.20,1014.00 8109.20,1022.00 8109.20,1022.00              8109.20,1022.00 8111.96,1057.00 8111.96,1057.00              8111.57,1064.62 8107.67,1067.91 8108.13,1084.00              8108.13,1084.00 8108.13,1108.00 8108.13,1108.00              8108.13,1108.00 8109.30,1127.00 8109.30,1127.00              8109.30,1127.00 8110.91,1135.00 8110.91,1135.00              8110.91,1135.00 8110.91,1154.00 8110.91,1154.00              8110.91,1154.00 8112.29,1173.00 8112.29,1173.00              8112.29,1173.00 8113.96,1185.00 8113.96,1185.00              8113.96,1185.00 8112.04,1211.00 8112.04,1211.00              8112.04,1211.00 8113.66,1226.00 8113.66,1226.00              8113.66,1226.00 8112.05,1236.00 8112.05,1236.00              8112.05,1236.00 8112.05,1257.00 8112.05,1257.00              8112.05,1257.00 8113.79,1280.00 8113.79,1280.00              8113.79,1280.00 8113.09,1292.00 8113.09,1292.00              8113.09,1292.00 8115.25,1304.00 8115.25,1304.00              8115.25,1304.00 8112.17,1324.00 8112.17,1324.00              8112.17,1324.00 8112.17,1335.00 8112.17,1335.00              8112.17,1335.00 8112.17,1351.00 8112.17,1351.00              8111.98,1364.52 8106.19,1367.41 8106.00,1383.00              8105.83,1398.23 8107.71,1396.67 8107.96,1404.00              8107.96,1404.00 8107.09,1417.00 8107.09,1417.00              8107.29,1420.47 8108.09,1422.20 8107.82,1426.00              8107.45,1431.18 8106.69,1434.49 8107.09,1440.00              8107.35,1443.54 8108.50,1446.42 8108.16,1450.00              8108.16,1450.00 8107.00,1461.00 8107.00,1461.00              8107.00,1461.00 8107.68,1486.00 8107.68,1486.00              8107.68,1486.00 8107.04,1492.00 8107.04,1492.00              8106.74,1499.71 8108.52,1501.22 8108.91,1507.00              8108.91,1507.00 8108.17,1523.00 8108.17,1523.00              8108.17,1523.00 8111.71,1547.00 8111.71,1547.00              8111.71,1547.00 8112.30,1558.00 8112.30,1558.00              8113.65,1567.40 8115.98,1568.46 8115.96,1582.00              8115.96,1582.00 8115.96,1598.00 8115.96,1598.00              8115.96,1598.00 8114.92,1608.00 8114.92,1608.00              8114.92,1608.00 8114.92,1625.00 8114.92,1625.00              8114.92,1625.00 8112.17,1642.00 8112.17,1642.00              8112.17,1642.00 8110.83,1662.00 8110.83,1662.00              8109.85,1670.75 8109.12,1669.48 8109.00,1680.00              8109.00,1680.00 8108.00,1694.00 8108.00,1694.00              8108.00,1694.00 8108.00,1726.00 8108.00,1726.00              8108.00,1726.00 8111.00,1751.00 8111.00,1751.00              8111.00,1751.00 8113.00,1777.00 8113.00,1777.00              8113.00,1777.00 8113.00,1791.00 8113.00,1791.00              8113.00,1791.00 8113.81,1805.00 8113.81,1805.00              8113.81,1805.00 8112.17,1814.00 8112.17,1814.00              8112.17,1814.00 8111.01,1835.00 8111.01,1835.00              8111.01,1835.00 8111.68,1845.00 8111.68,1845.00              8111.68,1845.00 8111.04,1853.00 8111.04,1853.00              8111.27,1859.80 8113.79,1862.82 8113.79,1867.00              8113.79,1871.82 8109.48,1878.46 8110.09,1888.00              8110.09,1888.00 8111.83,1901.00 8111.83,1901.00              8111.83,1901.00 8112.46,1915.00 8112.46,1915.00              8114.13,1924.25 8115.98,1922.29 8116.00,1934.00              8116.00,1934.00 8116.66,1947.00 8116.66,1947.00              8116.66,1947.00 8116.04,1956.00 8116.04,1956.00              8116.04,1956.00 8117.00,1971.00 8117.00,1971.00              8117.00,1971.00 8115.03,1994.00 8115.03,1994.00              8115.03,1994.00 8115.82,2005.00 8115.82,2005.00              8115.57,2008.44 8114.85,2010.09 8115.09,2014.00              8115.59,2022.13 8117.59,2019.71 8117.09,2031.00              8117.09,2031.00 8117.99,2046.00 8117.99,2046.00              8117.99,2046.00 8117.04,2059.00 8117.04,2059.00              8117.04,2059.00 8118.46,2073.00 8118.46,2073.00              8119.95,2081.24 8120.98,2078.72 8120.96,2089.00              8120.96,2089.00 8120.96,2100.00 8120.96,2100.00              8120.96,2100.00 8120.00,2110.00 8120.00,2110.00              8120.00,2110.00 8120.00,2124.00 8120.00,2124.00              8120.00,2124.00 8120.68,2147.00 8120.68,2147.00              8120.68,2147.00 8119.00,2172.00 8119.00,2172.00              8119.00,2172.00 8119.00,2196.00 8119.00,2196.00              8119.00,2196.00 8118.00,2212.00 8118.00,2212.00              8118.00,2212.00 8120.00,2249.00 8120.00,2249.00              8120.00,2249.00 8120.00,2258.00 8120.00,2258.00              8120.00,2258.00 8121.96,2270.00 8121.96,2270.00              8121.96,2270.00 8121.04,2280.00 8121.04,2280.00              8121.04,2280.00 8121.04,2294.00 8121.04,2294.00              8121.04,2294.00 8120.10,2307.00 8120.10,2307.00              8120.10,2307.00 8120.10,2326.00 8120.10,2326.00              8120.10,2326.00 8120.10,2349.00 8120.10,2349.00              8120.10,2349.00 8120.10,2364.00 8120.10,2364.00              8120.10,2364.00 8119.00,2376.00 8119.00,2376.00              8119.00,2376.00 8119.00,2411.00 8119.00,2411.00              8119.00,2411.00 8120.00,2428.00 8120.00,2428.00              8120.00,2428.00 8120.00,2457.00 8120.00,2457.00              8120.00,2457.00 8122.00,2482.00 8122.00,2482.00              8122.00,2482.00 8122.00,2504.00 8122.00,2504.00              8122.00,2504.00 8121.00,2518.00 8121.00,2518.00              8121.00,2518.00 8121.00,2545.00 8121.00,2545.00              8121.00,2545.00 8120.00,2562.00 8120.00,2562.00              8120.00,2562.00 8120.00,2589.00 8120.00,2589.00              8120.00,2589.00 8121.66,2606.00 8121.66,2606.00              8121.66,2606.00 8121.00,2617.00 8121.00,2617.00              8121.00,2617.00 8121.00,2632.00 8121.00,2632.00              8121.02,2641.82 8122.56,2642.47 8122.74,2647.00              8122.74,2647.00 8122.04,2655.00 8122.04,2655.00              8122.04,2655.00 8122.96,2666.00 8122.96,2666.00              8122.96,2666.00 8122.00,2683.00 8122.00,2683.00              8122.00,2683.00 8123.07,2694.00 8123.07,2694.00              8123.07,2694.00 8123.07,2703.00 8123.07,2703.00              8123.07,2703.00 8123.07,2714.00 8123.07,2714.00              8123.07,2714.00 8122.00,2732.00 8122.00,2732.00              8122.00,2732.00 8123.66,2747.00 8123.66,2747.00              8123.66,2747.00 8123.02,2754.00 8123.02,2754.00              8123.02,2754.00 8123.02,2774.00 8123.02,2774.00              8123.02,2774.00 8122.03,2786.00 8122.03,2786.00              8122.03,2786.00 8123.00,2799.00 8123.00,2799.00              8123.00,2799.00 8122.09,2815.00 8122.09,2815.00              8122.09,2815.00 8122.96,2826.00 8122.96,2826.00              8122.96,2826.00 8122.03,2836.00 8122.03,2836.00              8122.03,2836.00 8123.00,2854.00 8123.00,2854.00              8123.00,2854.00 8122.09,2867.00 8122.09,2867.00              8122.09,2867.00 8123.49,2882.00 8123.49,2882.00              8123.49,2882.00 8122.00,2903.00 8122.00,2903.00              8122.00,2903.00 8122.00,2922.00 8122.00,2922.00              8122.00,2922.00 8122.97,2934.00 8122.97,2934.00              8122.97,2934.00 8122.05,2943.00 8122.05,2943.00              8122.05,2943.00 8122.05,2954.00 8122.05,2954.00              8122.10,2962.61 8124.23,2964.89 8124.61,2970.00              8124.61,2970.00 8124.00,2993.00 8124.00,2993.00              8124.00,2993.00 8123.00,3007.00 8123.00,3007.00              8123.00,3007.00 8124.63,3029.00 8124.63,3029.00              8124.63,3029.00 8124.00,3041.00 8124.00,3041.00              8124.00,3041.00 8124.00,3059.00 8124.00,3059.00              8124.00,3059.00 8123.00,3075.00 8123.00,3075.00              8123.00,3075.00 8123.00,3118.00 8123.00,3118.00              8123.00,3118.00 8122.00,3133.00 8122.00,3133.00              8122.00,3133.00 8122.00,3183.00 8122.00,3183.00              8122.00,3183.00 8123.49,3207.00 8123.49,3207.00              8123.49,3207.00 8124.00,3239.00 8124.00,3239.00              8124.00,3239.00 8125.68,3258.00 8125.68,3258.00              8125.44,3261.16 8124.89,3262.43 8125.09,3266.00              8125.09,3266.00 8126.90,3279.00 8126.90,3279.00              8126.90,3279.00 8125.00,3298.00 8125.00,3298.00              8125.00,3298.00 8125.00,3329.00 8125.00,3329.00              8125.00,3329.00 8124.00,3344.00 8124.00,3344.00              8124.00,3344.00 8124.00,3366.00 8124.00,3366.00              8124.00,3366.00 8124.96,3377.00 8124.96,3377.00              8124.96,3377.00 8122.00,3413.00 8122.00,3413.00              8122.00,3413.00 8122.00,3439.00 8122.00,3439.00              8122.00,3439.00 8124.00,3458.00 8124.00,3458.00              8124.00,3458.00 8125.00,3486.00 8125.00,3486.00              8125.00,3486.00 8125.68,3497.00 8125.68,3497.00              8125.68,3497.00 8125.04,3506.00 8125.04,3506.00              8125.04,3506.00 8126.66,3521.00 8126.66,3521.00              8126.66,3521.00 8126.00,3530.00 8126.00,3530.00              8126.00,3530.00 8126.00,3554.00 8126.00,3554.00              8126.00,3554.00 8126.54,3563.00 8126.54,3563.00              8126.38,3567.57 8124.81,3569.07 8125.01,3578.00              8125.01,3578.00 8126.00,3590.00 8126.00,3590.00              8126.00,3590.00 8125.00,3609.00 8125.00,3609.00              8125.00,3609.00 8125.00,3628.00 8125.00,3628.00              8125.00,3628.00 8124.00,3644.00 8124.00,3644.00              8124.00,3644.00 8125.00,3703.00 8125.00,3703.00              8125.00,3703.00 8125.99,3717.00 8125.99,3717.00              8125.99,3717.00 8124.91,3737.00 8124.91,3737.00              8124.91,3737.00 8122.00,3759.00 8122.00,3759.00              8122.00,3759.00 8124.00,3790.00 8124.00,3790.00              8124.00,3790.00 8124.00,3803.00 8124.00,3803.00              8124.00,3803.00 8123.09,3816.00 8123.09,3816.00              8123.44,3822.00 8124.96,3823.30 8125.00,3832.00              8125.00,3832.00 8125.66,3845.00 8125.66,3845.00              8125.66,3845.00 8125.00,3857.00 8125.00,3857.00              8125.00,3857.00 8126.00,3874.00 8126.00,3874.00              8126.00,3874.00 8126.00,3912.00 8126.00,3912.00              8126.00,3912.00 8126.68,3923.00 8126.68,3923.00              8126.44,3926.11 8125.88,3927.51 8126.09,3931.00              8126.42,3936.35 8127.91,3937.42 8128.00,3945.00              8128.00,3945.00 8128.00,3949.00 8128.00,3949.00              8128.21,3966.61 8133.25,3976.51 8142.46,3991.00              8142.46,3991.00 8147.10,3999.00 8147.10,3999.00              8147.10,3999.00 8152.93,4007.00 8152.93,4007.00              8152.93,4007.00 8165.49,4032.00 8165.49,4032.00              8165.49,4032.00 8166.89,4046.00 8166.89,4046.00              8168.43,4052.86 8171.30,4065.15 8170.82,4072.00              8170.30,4079.29 8168.09,4092.20 8165.75,4099.00              8165.75,4099.00 8160.55,4110.00 8160.55,4110.00              8160.55,4110.00 8158.41,4119.00 8158.41,4119.00              8158.41,4119.00 8154.83,4130.00 8154.83,4130.00              8154.83,4130.00 8149.56,4142.00 8149.56,4142.00              8149.56,4142.00 8146.79,4156.00 8146.79,4156.00              8146.79,4156.00 8141.54,4171.00 8141.54,4171.00              8141.54,4171.00 8137.68,4186.00 8137.68,4186.00              8137.68,4186.00 8135.83,4201.00 8135.83,4201.00              8135.83,4201.00 8134.17,4210.00 8134.17,4210.00              8134.17,4210.00 8132.91,4227.00 8132.91,4227.00              8132.28,4234.70 8129.06,4235.00 8129.00,4247.00              8129.00,4247.00 8129.00,4251.00 8129.00,4251.00              8129.00,4251.00 8129.91,4264.00 8129.91,4264.00              8129.91,4264.00 8128.00,4291.00 8128.00,4291.00              8128.00,4291.00 8128.00,4298.00 8128.00,4298.00              8128.00,4298.00 8128.82,4310.00 8128.82,4310.00              8128.82,4310.00 8128.00,4321.00 8128.00,4321.00              8128.00,4321.00 8128.00,4347.00 8128.00,4347.00              8128.00,4347.00 8128.97,4359.00 8128.97,4359.00              8128.97,4359.00 8128.04,4368.00 8128.04,4368.00              8128.04,4368.00 8128.04,4380.00 8128.04,4380.00              8128.04,4380.00 8127.13,4395.00 8127.13,4395.00              8127.13,4395.00 8127.13,4409.00 8127.13,4409.00              8127.13,4409.00 8124.28,4432.00 8124.28,4432.00              8124.28,4432.00 8123.71,4444.00 8123.71,4444.00              8123.05,4449.44 8121.81,4453.27 8122.04,4459.00              8122.31,4465.76 8124.41,4467.80 8124.90,4473.00              8125.50,4479.52 8124.26,4483.23 8124.04,4489.00              8124.04,4489.00 8125.29,4503.00 8125.29,4503.00              8125.29,4503.00 8124.00,4518.00 8124.00,4518.00              8124.00,4518.00 8125.00,4533.00 8125.00,4533.00              8125.00,4533.00 8125.00,4552.00 8125.00,4552.00              8125.00,4552.00 8123.01,4568.00 8123.01,4568.00              8123.01,4568.00 8126.00,4603.00 8126.00,4603.00              8126.00,4603.00 8129.12,4640.00 8129.12,4640.00              8129.12,4640.00 8129.12,4657.00 8129.12,4657.00              8129.12,4657.00 8131.00,4681.00 8131.00,4681.00              8131.00,4681.00 8130.00,4707.00 8130.00,4707.00              8130.00,4707.00 8131.00,4722.00 8131.00,4722.00              8131.00,4722.00 8132.18,4756.00 8132.18,4756.00              8132.18,4756.00 8132.18,4764.00 8132.18,4764.00              8132.18,4764.00 8132.18,4781.00 8132.18,4781.00              8132.18,4781.00 8133.00,4794.00 8133.00,4794.00              8133.00,4794.00 8133.00,4814.00 8133.00,4814.00              8133.00,4814.00 8132.00,4828.00 8132.00,4828.00              8132.00,4828.00 8134.00,4850.00 8134.00,4850.00              8134.00,4850.00 8133.00,4891.00 8133.00,4891.00              8133.00,4891.00 8135.68,4918.00 8135.68,4918.00              8134.42,4934.88 8136.49,4933.65 8136.43,4946.00              8136.43,4946.00 8135.08,4956.00 8135.08,4956.00              8135.08,4956.00 8135.08,4965.00 8135.08,4965.00              8135.08,4965.00 8133.00,4992.00 8133.00,4992.00              8133.00,4992.00 8133.00,5027.00 8133.00,5027.00              8133.00,5027.00 8134.00,5042.00 8134.00,5042.00              8134.00,5042.00 8134.00,5056.00 8134.00,5056.00              8134.00,5056.00 8135.66,5081.00 8135.66,5081.00              8135.66,5081.00 8135.00,5090.00 8135.00,5090.00              8135.00,5090.00 8135.68,5112.00 8135.68,5112.00              8134.82,5123.44 8136.20,5134.57 8136.79,5146.00              8136.79,5146.00 8136.09,5157.00 8136.09,5157.00              8136.09,5157.00 8137.04,5164.00 8137.04,5164.00              8137.04,5164.00 8137.04,5174.00 8137.04,5174.00              8137.04,5174.00 8138.79,5183.00 8138.79,5183.00              8138.79,5183.00 8138.00,5202.00 8138.00,5202.00              8138.00,5202.00 8137.04,5212.00 8137.04,5212.00              8137.04,5212.00 8137.04,5228.00 8137.04,5228.00              8137.04,5228.00 8135.04,5245.00 8135.04,5245.00              8134.66,5253.94 8136.54,5255.08 8136.91,5261.00              8136.91,5261.00 8136.10,5276.00 8136.10,5276.00              8136.10,5276.00 8136.10,5301.00 8136.10,5301.00              8136.10,5301.00 8136.10,5307.00 8136.10,5307.00              8136.10,5307.00 8136.99,5320.00 8136.99,5320.00              8136.99,5320.00 8135.00,5339.00 8135.00,5339.00              8135.00,5339.00 8135.00,5357.00 8135.00,5357.00              8135.00,5357.00 8134.00,5376.00 8134.00,5376.00              8134.00,5376.00 8133.12,5393.00 8133.12,5393.00              8133.12,5393.00 8133.12,5421.00 8133.12,5421.00              8133.12,5421.00 8133.12,5428.00 8133.12,5428.00              8133.12,5428.00 8133.12,5443.00 8133.12,5443.00              8133.12,5443.00 8130.00,5477.00 8130.00,5477.00              8130.00,5477.00 8132.96,5499.00 8132.96,5499.00              8132.96,5499.00 8131.00,5524.00 8131.00,5524.00              8131.00,5524.00 8131.00,5548.00 8131.00,5548.00              8131.00,5548.00 8134.00,5569.00 8134.00,5569.00              8134.00,5569.00 8134.00,5579.00 8134.00,5579.00              8134.00,5579.00 8137.61,5598.00 8137.61,5598.00              8137.61,5598.00 8137.09,5609.00 8137.09,5609.00              8137.09,5609.00 8138.53,5618.00 8138.53,5618.00              8138.53,5618.00 8138.01,5630.00 8138.01,5630.00              8138.01,5630.00 8138.96,5639.00 8138.96,5639.00              8138.96,5639.00 8138.96,5655.00 8138.96,5655.00              8138.96,5655.00 8140.96,5678.00 8140.96,5678.00              8140.96,5678.00 8140.96,5690.00 8140.96,5690.00              8140.63,5694.06 8139.88,5695.35 8140.04,5700.00              8140.04,5700.00 8140.04,5727.00 8140.04,5727.00              8140.04,5727.00 8137.99,5748.00 8137.99,5748.00              8137.79,5753.50 8137.29,5765.65 8133.36,5769.44              8128.78,5773.88 8117.95,5773.55 8112.00,5776.40              8102.03,5781.18 8105.19,5783.98 8092.00,5784.00              8092.00,5784.00 8069.00,5784.00 8069.00,5784.00              8069.00,5784.00 8057.00,5784.96 8057.00,5784.96              8057.00,5784.96 8043.00,5784.96 8043.00,5784.96              8043.00,5784.96 8032.00,5786.00 8032.00,5786.00              8032.00,5786.00 8023.00,5786.00 8023.00,5786.00              8011.79,5786.85 8000.03,5788.25 7989.00,5790.46              7989.00,5790.46 7978.00,5793.96 7978.00,5793.96              7971.72,5795.50 7969.83,5794.61 7965.00,5795.30              7965.00,5795.30 7953.00,5798.00 7953.00,5798.00              7953.00,5798.00 7943.00,5798.00 7943.00,5798.00              7943.00,5798.00 7934.00,5799.74 7934.00,5799.74              7934.00,5799.74 7924.00,5799.04 7924.00,5799.04              7924.00,5799.04 7916.00,5799.96 7916.00,5799.96              7916.00,5799.96 7903.00,5799.96 7903.00,5799.96              7903.00,5799.96 7888.00,5799.04 7888.00,5799.04              7888.00,5799.04 7864.00,5801.00 7864.00,5801.00              7864.00,5801.00 7848.00,5802.30 7848.00,5802.30              7841.90,5803.17 7842.25,5803.96 7835.00,5804.00              7835.00,5804.00 7799.00,5806.00 7799.00,5806.00              7799.00,5806.00 7783.00,5805.00 7783.00,5805.00              7771.65,5805.13 7770.75,5808.46 7763.00,5810.70              7756.30,5812.64 7744.29,5813.97 7737.00,5814.85              7737.00,5814.85 7722.00,5816.29 7722.00,5816.29              7722.00,5816.29 7713.00,5818.00 7713.00,5818.00              7713.00,5818.00 7703.00,5818.00 7703.00,5818.00              7703.00,5818.00 7669.00,5821.91 7669.00,5821.91              7669.00,5821.91 7646.00,5823.09 7646.00,5823.09              7646.00,5823.09 7637.00,5824.71 7637.00,5824.71              7637.00,5824.71 7616.00,5827.17 7616.00,5827.17              7616.00,5827.17 7599.00,5827.17 7599.00,5827.17              7599.00,5827.17 7591.00,5827.17 7591.00,5827.17              7579.30,5827.29 7579.59,5822.29 7568.00,5823.09              7559.28,5823.69 7556.46,5827.66 7550.00,5828.80              7528.43,5832.62 7538.29,5829.63 7522.00,5830.01              7522.00,5830.01 7510.00,5831.00 7510.00,5831.00              7510.00,5831.00 7502.00,5831.00 7502.00,5831.00              7492.95,5830.99 7477.06,5827.26 7468.00,5824.92              7468.00,5824.92 7459.00,5823.49 7459.00,5823.49              7459.00,5823.49 7433.00,5817.45 7433.00,5817.45              7421.31,5815.10 7420.39,5816.67 7413.00,5815.71              7413.00,5815.71 7392.00,5810.90 7392.00,5810.90              7392.00,5810.90 7384.00,5809.54 7384.00,5809.54              7384.00,5809.54 7374.00,5806.22 7374.00,5806.22              7367.26,5804.12 7357.02,5802.01 7350.00,5802.00              7350.00,5802.00 7336.00,5802.00 7336.00,5802.00              7336.00,5802.00 7320.00,5803.00 7320.00,5803.00              7320.00,5803.00 7308.00,5802.01 7308.00,5802.01              7308.00,5802.01 7293.00,5802.91 7293.00,5802.91              7293.00,5802.91 7271.00,5801.04 7271.00,5801.04              7271.00,5801.04 7254.00,5803.00 7254.00,5803.00              7254.00,5803.00 7245.00,5803.00 7245.00,5803.00              7235.08,5802.88 7226.26,5798.08 7217.00,5795.22              7211.23,5793.43 7191.50,5788.83 7186.00,5789.04              7186.00,5789.04 7173.00,5789.99 7173.00,5789.99              7173.00,5789.99 7156.00,5788.00 7156.00,5788.00              7156.00,5788.00 7139.00,5788.91 7139.00,5788.91              7139.00,5788.91 7118.00,5790.16 7118.00,5790.16              7109.33,5791.30 7111.22,5792.98 7100.00,5793.12              7100.00,5793.12 7083.00,5793.12 7083.00,5793.12              7083.00,5793.12 7076.00,5793.12 7076.00,5793.12              7076.00,5793.12 7055.00,5793.12 7055.00,5793.12              7055.00,5793.12 7040.00,5794.00 7040.00,5794.00              7040.00,5794.00 7017.00,5792.98 7017.00,5792.98              7017.00,5792.98 6995.00,5792.98 6995.00,5792.98              6995.00,5792.98 6985.00,5792.03 6985.00,5792.03              6985.00,5792.03 6971.00,5793.00 6971.00,5793.00              6971.00,5793.00 6958.00,5793.00 6958.00,5793.00              6958.00,5793.00 6935.00,5794.82 6935.00,5794.82              6935.00,5794.82 6923.00,5794.00 6923.00,5794.00              6923.00,5794.00 6904.00,5794.00 6904.00,5794.00              6904.00,5794.00 6895.00,5794.66 6895.00,5794.66              6895.00,5794.66 6888.00,5794.02 6888.00,5794.02              6888.00,5794.02 6874.00,5794.02 6874.00,5794.02              6874.00,5794.02 6860.00,5792.09 6860.00,5792.09              6860.00,5792.09 6846.00,5792.09 6846.00,5792.09              6846.00,5792.09 6827.00,5793.96 6827.00,5793.96              6827.00,5793.96 6817.00,5793.96 6817.00,5793.96              6817.00,5793.96 6805.00,5795.00 6805.00,5795.00              6805.00,5795.00 6764.00,5795.00 6764.00,5795.00              6764.00,5795.00 6750.00,5794.13 6750.00,5794.13              6750.00,5794.13 6740.00,5794.13 6740.00,5794.13              6740.00,5794.13 6731.00,5794.13 6731.00,5794.13              6731.00,5794.13 6717.00,5794.13 6717.00,5794.13              6717.00,5794.13 6706.00,5795.00 6706.00,5795.00              6706.00,5795.00 6694.00,5795.53 6694.00,5795.53              6689.58,5795.32 6689.58,5794.01 6680.00,5794.00              6680.00,5794.00 6662.00,5794.00 6662.00,5794.00              6662.00,5794.00 6641.00,5795.00 6641.00,5795.00              6641.00,5795.00 6626.00,5794.04 6626.00,5794.04              6626.00,5794.04 6615.00,5795.00 6615.00,5795.00              6615.00,5795.00 6572.00,5795.00 6572.00,5795.00              6572.00,5795.00 6560.00,5795.90 6560.00,5795.90              6560.00,5795.90 6516.00,5792.00 6516.00,5792.00              6516.00,5792.00 6508.00,5792.00 6508.00,5792.00              6508.00,5792.00 6479.00,5795.00 6479.00,5795.00              6479.00,5795.00 6465.00,5795.68 6465.00,5795.68              6465.00,5795.68 6456.00,5795.04 6456.00,5795.04              6456.00,5795.04 6449.00,5795.66 6449.00,5795.66              6449.00,5795.66 6435.00,5795.09 6435.00,5795.09              6424.11,5795.88 6423.93,5799.21 6406.00,5799.00              6406.00,5799.00 6382.00,5797.00 6382.00,5797.00              6382.00,5797.00 6345.00,5797.00 6345.00,5797.00              6333.09,5797.02 6334.64,5798.90 6327.00,5799.82              6317.91,5800.91 6317.82,5798.66 6307.00,5802.42              6303.98,5803.47 6300.83,5804.42 6298.00,5805.91              6287.88,5811.24 6289.54,5813.14 6277.00,5813.00              6277.00,5813.00 6258.00,5811.61 6258.00,5811.61              6254.11,5810.77 6251.62,5808.53 6246.00,5807.47              6246.00,5807.47 6222.00,5805.96 6222.00,5805.96              6222.00,5805.96 6206.00,5805.96 6206.00,5805.96              6206.00,5805.96 6194.00,5805.00 6194.00,5805.00              6194.00,5805.00 6166.00,5805.00 6166.00,5805.00              6166.00,5805.00 6150.00,5804.00 6150.00,5804.00              6150.00,5804.00 6126.00,5804.00 6126.00,5804.00              6126.00,5804.00 6100.00,5802.00 6100.00,5802.00              6100.00,5802.00 6086.00,5802.90 6086.00,5802.90              6080.23,5802.62 6080.28,5801.02 6070.00,5801.00              6070.00,5801.00 6049.00,5801.00 6049.00,5801.00              6049.00,5801.00 6035.00,5800.09 6035.00,5800.09              6035.00,5800.09 6017.00,5801.00 6017.00,5801.00              6017.00,5801.00 6005.00,5801.97 6005.00,5801.97              6005.00,5801.97 5993.00,5801.00 5993.00,5801.00              5993.00,5801.00 5974.00,5801.00 5974.00,5801.00              5974.00,5801.00 5953.00,5802.00 5953.00,5802.00              5953.00,5802.00 5937.00,5801.01 5937.00,5801.01              5937.00,5801.01 5917.00,5802.95 5917.00,5802.95              5917.00,5802.95 5900.00,5802.95 5900.00,5802.95              5900.00,5802.95 5890.00,5802.05 5890.00,5802.05              5890.00,5802.05 5878.00,5802.05 5878.00,5802.05              5878.00,5802.05 5866.00,5802.82 5866.00,5802.82              5866.00,5802.82 5848.00,5801.02 5848.00,5801.02              5848.00,5801.02 5834.00,5802.00 5834.00,5802.00              5820.02,5802.16 5814.63,5801.99 5801.00,5797.67              5794.33,5795.56 5793.55,5792.14 5782.00,5792.00              5776.89,5791.95 5772.83,5791.93 5768.00,5793.95              5763.40,5795.88 5757.45,5800.41 5753.00,5801.60              5743.30,5804.20 5737.81,5801.41 5728.00,5807.47              5724.22,5809.80 5721.57,5812.29 5719.11,5816.00              5717.54,5818.37 5716.00,5822.57 5713.73,5823.98              5711.74,5825.21 5708.30,5825.00 5706.00,5825.00              5706.00,5825.00 5675.00,5825.00 5675.00,5825.00              5675.00,5825.00 5644.00,5823.00 5644.00,5823.00              5644.00,5823.00 5629.00,5823.99 5629.00,5823.99              5629.00,5823.99 5615.00,5823.08 5615.00,5823.08              5615.00,5823.08 5603.00,5823.08 5603.00,5823.08              5603.00,5823.08 5593.00,5824.25 5593.00,5824.25              5593.00,5824.25 5584.00,5824.25 5584.00,5824.25              5584.00,5824.25 5570.00,5824.99 5570.00,5824.99              5566.75,5825.01 5560.73,5825.53 5558.00,5824.99              5554.26,5824.23 5551.47,5822.11 5546.00,5821.30              5536.01,5819.82 5538.91,5822.29 5523.00,5817.48              5523.00,5817.48 5510.00,5811.55 5510.00,5811.55              5503.78,5809.35 5489.74,5807.93 5483.00,5808.00              5483.00,5808.00 5462.00,5809.00 5462.00,5809.00              5462.00,5809.00 5446.00,5808.13 5446.00,5808.13              5446.00,5808.13 5438.00,5808.13 5438.00,5808.13              5433.21,5807.98 5434.19,5807.01 5425.00,5807.00              5414.17,5806.98 5399.44,5806.49 5389.00,5808.47              5379.24,5810.32 5372.74,5818.01 5367.00,5819.78              5367.00,5819.78 5341.00,5823.93 5341.00,5823.93              5329.06,5827.25 5318.38,5840.43 5315.00,5852.00              5307.58,5850.00 5304.25,5847.20 5296.00,5847.01              5285.27,5846.77 5280.48,5849.87 5275.00,5849.79              5264.81,5849.16 5250.43,5845.96 5241.00,5849.79              5235.72,5852.19 5226.00,5859.62 5222.33,5864.00              5222.33,5864.00 5216.00,5872.00 5216.00,5872.00              5213.36,5857.94 5200.91,5845.52 5189.00,5838.47              5189.00,5838.47 5176.00,5832.36 5176.00,5832.36              5176.00,5832.36 5167.00,5825.47 5167.00,5825.47              5162.05,5822.42 5159.70,5822.39 5155.00,5820.21              5145.23,5815.67 5142.56,5813.01 5131.00,5810.42              5120.32,5808.03 5108.91,5809.12 5098.00,5809.00              5098.00,5809.00 5080.00,5807.04 5080.00,5807.04              5080.00,5807.04 5058.00,5809.00 5058.00,5809.00              5058.00,5809.00 5033.00,5809.00 5033.00,5809.00              5033.00,5809.00 5016.00,5808.00 5016.00,5808.00              5016.00,5808.00 4996.00,5808.68 4996.00,5808.68              4980.79,5807.54 4983.33,5809.98 4971.00,5810.00              4971.00,5810.00 4945.00,5810.00 4945.00,5810.00              4945.00,5810.00 4920.00,5807.00 4920.00,5807.00              4920.00,5807.00 4887.00,5807.00 4887.00,5807.00              4887.00,5807.00 4875.00,5807.82 4875.00,5807.82              4875.00,5807.82 4833.00,5807.00 4833.00,5807.00              4833.00,5807.00 4798.00,5810.00 4798.00,5810.00              4798.00,5810.00 4778.00,5810.00 4778.00,5810.00              4778.00,5810.00 4764.00,5809.09 4764.00,5809.09              4764.00,5809.09 4752.00,5810.00 4752.00,5810.00              4752.00,5810.00 4731.00,5809.00 4731.00,5809.00              4731.00,5809.00 4711.00,5810.82 4711.00,5810.82              4711.00,5810.82 4700.00,5810.00 4700.00,5810.00              4700.00,5810.00 4685.00,5810.00 4685.00,5810.00              4685.00,5810.00 4662.00,5809.00 4662.00,5809.00              4662.00,5809.00 4649.00,5810.00 4649.00,5810.00              4649.00,5810.00 4627.00,5810.00 4627.00,5810.00              4627.00,5810.00 4612.00,5809.01 4612.00,5809.01              4612.00,5809.01 4596.00,5810.00 4596.00,5810.00              4596.00,5810.00 4585.00,5809.12 4585.00,5809.12              4585.00,5809.12 4576.00,5809.12 4576.00,5809.12              4576.00,5809.12 4567.00,5809.12 4567.00,5809.12              4567.00,5809.12 4547.00,5811.00 4547.00,5811.00              4547.00,5811.00 4532.00,5810.04 4532.00,5810.04              4532.00,5810.04 4505.00,5811.91 4505.00,5811.91              4505.00,5811.91 4483.00,5810.04 4483.00,5810.04              4483.00,5810.04 4467.00,5810.04 4467.00,5810.04              4467.00,5810.04 4454.00,5809.00 4454.00,5809.00              4454.00,5809.00 4437.00,5809.00 4437.00,5809.00              4437.00,5809.00 4422.00,5808.01 4422.00,5808.01              4422.00,5808.01 4407.00,5809.09 4407.00,5809.09              4407.00,5809.09 4379.00,5809.09 4379.00,5809.09              4379.00,5809.09 4370.00,5809.09 4370.00,5809.09              4370.00,5809.09 4336.00,5808.13 4336.00,5808.13              4336.00,5808.13 4323.00,5808.13 4323.00,5808.13              4323.00,5808.13 4308.00,5808.96 4308.00,5808.96              4299.28,5808.50 4299.46,5803.69 4285.00,5804.01              4285.00,5804.01 4276.00,5804.91 4276.00,5804.91              4276.00,5804.91 4252.00,5806.00 4252.00,5806.00              4252.00,5806.00 4224.00,5803.18 4224.00,5803.18              4224.00,5803.18 4214.00,5803.18 4214.00,5803.18              4210.36,5802.50 4205.49,5798.71 4197.00,5798.21              4192.43,5797.75 4181.61,5799.48 4179.00,5798.21              4179.00,5798.21 4165.00,5790.32 4165.00,5790.32              4161.35,5787.95 4159.35,5785.49 4155.00,5783.40              4148.91,5780.48 4145.38,5781.69 4141.00,5779.93              4133.35,5776.85 4133.52,5775.01 4124.00,5775.01              4113.58,5775.01 4101.87,5781.99 4095.53,5790.01              4090.83,5795.95 4091.14,5800.55 4085.95,5802.55              4082.77,5803.77 4075.33,5802.02 4071.00,5802.00              4057.14,5801.94 4059.47,5803.81 4050.00,5804.83              4050.00,5804.83 4027.00,5806.28 4027.00,5806.28              4021.43,5807.21 4008.89,5810.25 4004.00,5809.90              3997.78,5809.47 3995.08,5806.39 3987.00,5806.04              3976.03,5805.56 3974.90,5808.95 3964.00,5809.00              3964.00,5809.00 3943.00,5810.00 3943.00,5810.00              3943.00,5810.00 3929.00,5809.00 3929.00,5809.00              3929.00,5809.00 3906.00,5810.98 3906.00,5810.98              3906.00,5810.98 3892.00,5810.04 3892.00,5810.04              3892.00,5810.04 3872.00,5811.25 3872.00,5811.25              3872.00,5811.25 3856.00,5810.01 3856.00,5810.01              3856.00,5810.01 3831.00,5813.00 3831.00,5813.00              3831.00,5813.00 3810.00,5811.01 3810.00,5811.01              3810.00,5811.01 3790.00,5813.00 3790.00,5813.00              3790.00,5813.00 3772.00,5812.09 3772.00,5812.09              3772.00,5812.09 3765.00,5812.96 3765.00,5812.96              3765.00,5812.96 3752.00,5812.96 3752.00,5812.96              3752.00,5812.96 3738.00,5814.14 3738.00,5814.14              3738.00,5814.14 3728.00,5814.14 3728.00,5814.14              3728.00,5814.14 3708.00,5814.14 3708.00,5814.14              3698.07,5814.02 3700.01,5815.08 3693.00,5815.91              3693.00,5815.91 3682.00,5815.91 3682.00,5815.91              3682.00,5815.91 3669.00,5815.09 3669.00,5815.09              3669.00,5815.09 3650.00,5818.00 3650.00,5818.00              3650.00,5818.00 3617.00,5819.00 3617.00,5819.00              3617.00,5819.00 3607.00,5818.00 3607.00,5818.00              3607.00,5818.00 3595.00,5818.00 3595.00,5818.00              3595.00,5818.00 3583.00,5817.00 3583.00,5817.00              3583.00,5817.00 3563.00,5817.00 3563.00,5817.00              3563.00,5817.00 3549.00,5817.99 3549.00,5817.99              3549.00,5817.99 3534.00,5817.00 3534.00,5817.00              3534.00,5817.00 3514.00,5816.00 3514.00,5816.00              3514.00,5816.00 3501.00,5817.00 3501.00,5817.00              3501.00,5817.00 3486.00,5817.00 3486.00,5817.00              3486.00,5817.00 3470.00,5818.00 3470.00,5818.00              3470.00,5818.00 3451.00,5817.19 3451.00,5817.19              3451.00,5817.19 3433.00,5817.19 3433.00,5817.19              3433.00,5817.19 3411.00,5815.00 3411.00,5815.00              3411.00,5815.00 3390.00,5817.32 3390.00,5817.32              3385.19,5817.68 3382.61,5815.96 3378.00,5815.15              3378.00,5815.15 3368.00,5815.15 3368.00,5815.15              3368.00,5815.15 3344.00,5817.82 3344.00,5817.82              3338.78,5817.45 3335.55,5816.71 3330.00,5817.09              3330.00,5817.09 3313.00,5818.68 3313.00,5818.68              3308.12,5818.29 3304.15,5816.86 3299.00,5817.09              3299.00,5817.09 3262.00,5816.00 3262.00,5816.00              3262.00,5816.00 3236.00,5817.68 3236.00,5817.68              3232.83,5817.44 3231.59,5816.89 3228.00,5817.09              3228.00,5817.09 3219.00,5817.98 3219.00,5817.98              3219.00,5817.98 3205.00,5817.00 3205.00,5817.00              3205.00,5817.00 3186.00,5817.00 3186.00,5817.00              3186.00,5817.00 3173.00,5817.99 3173.00,5817.99              3173.00,5817.99 3160.00,5817.09 3160.00,5817.09              3160.00,5817.09 3148.00,5818.90 3148.00,5818.90              3148.00,5818.90 3139.00,5818.90 3139.00,5818.90              3139.00,5818.90 3131.00,5819.96 3131.00,5819.96              3131.00,5819.96 3114.00,5819.09 3114.00,5819.09              3114.00,5819.09 3106.00,5819.98 3106.00,5819.98              3106.00,5819.98 3088.00,5819.98 3088.00,5819.98              3088.00,5819.98 3065.00,5819.00 3065.00,5819.00              3065.00,5819.00 3056.00,5819.66 3056.00,5819.66              3056.00,5819.66 3047.00,5819.09 3047.00,5819.09              3047.00,5819.09 3035.00,5820.00 3035.00,5820.00              3035.00,5820.00 3023.00,5820.00 3023.00,5820.00              3023.00,5820.00 2995.00,5818.00 2995.00,5818.00              2995.00,5818.00 2973.00,5818.00 2973.00,5818.00              2973.00,5818.00 2959.00,5819.00 2959.00,5819.00              2959.00,5819.00 2924.00,5819.00 2924.00,5819.00              2924.00,5819.00 2912.00,5819.96 2912.00,5819.96              2912.00,5819.96 2900.00,5819.96 2900.00,5819.96              2900.00,5819.96 2886.00,5821.45 2886.00,5821.45              2880.15,5820.85 2880.84,5820.01 2873.00,5820.00              2873.00,5820.00 2839.00,5820.00 2839.00,5820.00              2839.00,5820.00 2826.00,5820.92 2826.00,5820.92              2826.00,5820.92 2814.00,5820.00 2814.00,5820.00              2814.00,5820.00 2801.00,5820.00 2801.00,5820.00              2791.07,5819.98 2793.01,5818.92 2786.00,5818.17              2786.00,5818.17 2758.00,5817.01 2758.00,5817.01              2758.00,5817.01 2746.00,5818.04 2746.00,5818.04              2746.00,5818.04 2731.00,5818.04 2731.00,5818.04              2731.00,5818.04 2720.00,5819.00 2720.00,5819.00              2720.00,5819.00 2695.00,5819.00 2695.00,5819.00              2695.00,5819.00 2675.00,5820.00 2675.00,5820.00              2675.00,5820.00 2655.00,5821.96 2655.00,5821.96              2655.00,5821.96 2626.00,5820.00 2626.00,5820.00              2626.00,5820.00 2604.00,5820.00 2604.00,5820.00              2604.00,5820.00 2587.00,5820.96 2587.00,5820.96              2587.00,5820.96 2579.00,5819.96 2579.00,5819.96              2579.00,5819.96 2569.00,5819.96 2569.00,5819.96              2561.90,5819.12 2561.96,5818.01 2553.00,5818.00              2553.00,5818.00 2534.00,5817.00 2534.00,5817.00              2534.00,5817.00 2515.00,5817.00 2515.00,5817.00              2515.00,5817.00 2497.00,5816.09 2497.00,5816.09              2497.00,5816.09 2463.00,5818.99 2463.00,5818.99              2463.00,5818.99 2444.00,5818.00 2444.00,5818.00              2444.00,5818.00 2434.00,5818.96 2434.00,5818.96              2434.00,5818.96 2418.00,5818.96 2418.00,5818.96              2418.00,5818.96 2406.00,5818.04 2406.00,5818.04              2406.00,5818.04 2393.00,5818.04 2393.00,5818.04              2393.00,5818.04 2378.00,5819.00 2378.00,5819.00              2378.00,5819.00 2360.00,5818.00 2360.00,5818.00              2360.00,5818.00 2345.00,5819.00 2345.00,5819.00              2345.00,5819.00 2313.00,5819.00 2313.00,5819.00              2313.00,5819.00 2298.00,5818.00 2298.00,5818.00              2284.29,5817.84 2281.95,5820.61 2273.00,5820.96              2273.00,5820.96 2257.00,5820.00 2257.00,5820.00              2257.00,5820.00 2231.00,5819.00 2231.00,5819.00              2231.00,5819.00 2212.00,5821.00 2212.00,5821.00              2212.00,5821.00 2170.00,5821.00 2170.00,5821.00              2170.00,5821.00 2156.00,5821.97 2156.00,5821.97              2156.00,5821.97 2144.00,5821.00 2144.00,5821.00              2144.00,5821.00 2125.00,5821.00 2125.00,5821.00              2125.00,5821.00 2105.00,5823.00 2105.00,5823.00              2105.00,5823.00 2101.00,5823.00 2101.00,5823.00              2101.00,5823.00 2085.00,5824.91 2085.00,5824.91              2085.00,5824.91 2072.00,5824.91 2072.00,5824.91              2072.00,5824.91 2050.00,5823.00 2050.00,5823.00              2050.00,5823.00 2043.00,5823.00 2043.00,5823.00              2043.00,5823.00 2026.00,5825.00 2026.00,5825.00              2026.00,5825.00 1997.00,5823.00 1997.00,5823.00              1997.00,5823.00 1969.00,5822.00 1969.00,5822.00              1969.00,5822.00 1955.00,5821.00 1955.00,5821.00              1955.00,5821.00 1911.00,5821.00 1911.00,5821.00              1911.00,5821.00 1883.00,5818.80 1883.00,5818.80              1875.01,5817.58 1877.86,5815.86 1865.00,5816.00              1856.22,5816.10 1856.62,5817.69 1850.00,5818.93              1844.20,5819.83 1841.30,5818.82 1836.00,5818.93              1828.24,5819.36 1823.84,5822.73 1818.00,5822.16              1818.00,5822.16 1809.00,5820.26 1809.00,5820.26              1800.62,5818.70 1798.30,5818.99 1790.00,5819.00              1790.00,5819.00 1765.00,5821.96 1765.00,5821.96              1765.00,5821.96 1753.00,5821.04 1753.00,5821.04              1753.00,5821.04 1738.00,5821.96 1738.00,5821.96              1738.00,5821.96 1711.00,5820.00 1711.00,5820.00              1711.00,5820.00 1685.00,5821.21 1685.00,5821.21              1685.00,5821.21 1668.00,5821.21 1668.00,5821.21              1668.00,5821.21 1653.00,5820.04 1653.00,5820.04              1653.00,5820.04 1641.00,5821.92 1641.00,5821.92              1641.00,5821.92 1621.00,5821.92 1621.00,5821.92              1621.00,5821.92 1604.00,5820.63 1604.00,5820.63              1597.83,5819.44 1597.90,5818.01 1590.00,5818.01              1580.31,5818.01 1578.45,5820.89 1574.00,5821.52              1574.00,5821.52 1564.00,5821.00 1564.00,5821.00              1564.00,5821.00 1548.00,5822.00 1548.00,5822.00              1548.00,5822.00 1530.00,5821.00 1530.00,5821.00              1530.00,5821.00 1510.00,5822.00 1510.00,5822.00              1510.00,5822.00 1489.00,5822.00 1489.00,5822.00              1489.00,5822.00 1475.00,5823.00 1475.00,5823.00              1457.90,5823.20 1453.35,5818.63 1443.00,5819.04              1443.00,5819.04 1423.00,5822.87 1423.00,5822.87              1423.00,5822.87 1412.00,5822.04 1412.00,5822.04              1412.00,5822.04 1399.00,5823.00 1399.00,5823.00              1399.00,5823.00 1376.00,5823.00 1376.00,5823.00              1376.00,5823.00 1359.00,5822.00 1359.00,5822.00              1359.00,5822.00 1323.00,5822.00 1323.00,5822.00              1323.00,5822.00 1308.00,5822.96 1308.00,5822.96              1308.00,5822.96 1291.00,5822.96 1291.00,5822.96              1291.00,5822.96 1283.00,5822.18 1283.00,5822.18              1283.00,5822.18 1274.00,5822.18 1274.00,5822.18              1274.00,5822.18 1262.00,5822.18 1262.00,5822.18              1262.00,5822.18 1235.00,5821.00 1235.00,5821.00              1235.00,5821.00 1216.00,5820.00 1216.00,5820.00              1216.00,5820.00 1201.00,5821.00 1201.00,5821.00              1201.00,5821.00 1141.00,5821.00 1141.00,5821.00              1141.00,5821.00 1128.00,5820.04 1128.00,5820.04              1128.00,5820.04 1112.00,5820.81 1112.00,5820.81              1106.20,5820.33 1106.34,5818.80 1097.00,5819.01              1097.00,5819.01 1066.00,5821.00 1066.00,5821.00              1066.00,5821.00 1031.00,5821.00 1031.00,5821.00              1031.00,5821.00 1008.00,5819.01 1008.00,5819.01              1008.00,5819.01 984.00,5820.79 984.00,5820.79              984.00,5820.79 972.00,5820.04 972.00,5820.04              972.00,5820.04 960.00,5821.00 960.00,5821.00              960.00,5821.00 924.00,5821.00 924.00,5821.00              924.00,5821.00 896.00,5817.63 896.00,5817.63              889.54,5816.39 889.02,5814.71 881.00,5815.04              870.86,5815.45 870.75,5819.97 854.00,5820.00              854.00,5820.00 835.00,5820.00 835.00,5820.00              835.00,5820.00 812.00,5822.66 812.00,5822.66              812.00,5822.66 805.00,5822.04 805.00,5822.04              805.00,5822.04 779.00,5821.16 779.00,5821.16              779.00,5821.16 769.00,5821.16 769.00,5821.16              769.00,5821.16 759.00,5821.16 759.00,5821.16              759.00,5821.16 745.00,5821.82 745.00,5821.82              745.00,5821.82 734.00,5821.00 734.00,5821.00              734.00,5821.00 719.00,5821.99 719.00,5821.99              719.00,5821.99 708.00,5821.03 708.00,5821.03              708.00,5821.03 696.00,5821.96 696.00,5821.96              696.00,5821.96 684.00,5821.04 684.00,5821.04              684.00,5821.04 667.00,5822.00 667.00,5822.00              667.00,5822.00 652.00,5823.00 652.00,5823.00              652.00,5823.00 589.00,5823.00 589.00,5823.00              589.00,5823.00 574.00,5822.04 574.00,5822.04              574.00,5822.04 563.00,5823.37 563.00,5823.37              563.00,5823.37 554.00,5822.21 554.00,5822.21              554.00,5822.21 545.00,5822.21 545.00,5822.21              541.74,5822.11 540.14,5821.03 535.00,5821.03              535.00,5821.03 521.00,5822.00 521.00,5822.00              521.00,5822.00 489.00,5822.00 489.00,5822.00              478.71,5822.02 478.42,5823.74 472.00,5823.96              472.00,5823.96 456.00,5823.00 456.00,5823.00              456.00,5823.00 440.00,5824.81 440.00,5824.81              440.00,5824.81 433.00,5823.46 433.00,5823.46              433.00,5823.46 416.00,5822.04 416.00,5822.04              416.00,5822.04 409.00,5822.55 409.00,5822.55              409.00,5822.55 401.00,5822.04 401.00,5822.04              401.00,5822.04 394.00,5822.66 394.00,5822.66              394.00,5822.66 379.00,5822.00 379.00,5822.00              379.00,5822.00 361.00,5824.00 361.00,5824.00              361.00,5824.00 327.00,5824.00 327.00,5824.00              327.00,5824.00 303.00,5822.00 303.00,5822.00              303.00,5822.00 292.00,5822.68 292.00,5822.68              292.00,5822.68 279.00,5821.83 279.00,5821.83              279.00,5821.83 269.00,5819.80 269.00,5819.80              269.00,5819.80 249.00,5817.09 249.00,5817.09              242.62,5816.68 239.71,5818.26 234.00,5818.92              234.00,5818.92 221.00,5818.92 221.00,5818.92              221.00,5818.92 208.00,5819.91 208.00,5819.91              208.00,5819.91 200.00,5819.02 200.00,5819.02              200.00,5819.02 182.00,5819.02 182.00,5819.02              182.00,5819.02 162.00,5817.04 162.00,5817.04              162.00,5817.04 153.00,5817.98 153.00,5817.98              153.00,5817.98 134.00,5817.98 134.00,5817.98              134.00,5817.98 119.00,5816.81 119.00,5816.81              115.83,5816.97 109.81,5817.21 107.00,5816.81              107.00,5816.81 87.00,5811.07 87.00,5811.07              79.68,5810.40 75.44,5813.02 72.56,5811.07              70.60,5809.58 65.74,5797.04 64.24,5794.00              61.29,5788.00 56.46,5781.12 54.62,5775.00              52.67,5768.55 51.10,5753.64 51.63,5747.00              52.02,5742.14 53.90,5739.38 54.00,5731.00              54.07,5725.03 53.14,5715.23 55.72,5710.04              58.85,5703.76 68.94,5700.11 69.91,5686.00              70.72,5674.20 59.73,5655.10 58.80,5650.00              58.80,5650.00 59.99,5634.00 59.99,5634.00              59.99,5634.00 59.05,5625.00 59.05,5625.00              59.05,5625.00 59.05,5607.00 59.05,5607.00              59.05,5607.00 59.91,5591.00 59.91,5591.00              59.48,5584.67 57.47,5579.68 58.17,5573.00              58.17,5573.00 61.63,5554.00 61.63,5554.00              62.96,5549.21 64.51,5547.77 64.91,5542.00              65.41,5534.80 63.34,5531.83 62.96,5528.00              62.96,5528.00 62.96,5519.00 62.96,5519.00              62.96,5519.00 62.96,5515.00 62.96,5515.00              62.96,5515.00 62.01,5500.00 62.01,5500.00              62.01,5500.00 62.98,5487.00 62.98,5487.00              62.98,5487.00 62.10,5476.00 62.10,5476.00              62.10,5476.00 63.83,5466.00 63.83,5466.00              63.83,5466.00 64.99,5432.00 64.99,5432.00              64.99,5432.00 63.37,5411.00 63.37,5411.00              63.37,5411.00 63.91,5401.00 63.91,5401.00              63.52,5394.72 62.02,5395.45 62.04,5385.00              62.04,5385.00 62.04,5373.00 62.04,5373.00              62.35,5369.13 63.15,5367.29 62.91,5363.00              62.91,5363.00 62.04,5352.00 62.04,5352.00              62.04,5352.00 63.00,5341.00 63.00,5341.00              63.00,5341.00 61.00,5304.00 61.00,5304.00              61.00,5304.00 61.00,5278.00 61.00,5278.00              61.00,5278.00 61.96,5266.00 61.96,5266.00              61.96,5266.00 61.96,5250.00 61.96,5250.00              61.96,5250.00 63.00,5233.00 63.00,5233.00              63.00,5233.00 63.00,5186.00 63.00,5186.00              63.00,5186.00 65.91,5154.00 65.91,5154.00              65.91,5154.00 65.34,5143.00 65.34,5143.00              65.93,5137.04 67.90,5134.32 68.00,5126.00              68.00,5126.00 67.26,5113.00 67.26,5113.00              67.43,5108.71 68.96,5107.53 69.09,5099.00              69.09,5099.00 69.09,5090.00 69.09,5090.00              69.78,5084.34 71.25,5083.22 70.96,5076.00              70.68,5069.03 67.87,5065.14 67.33,5059.00              67.33,5059.00 67.85,5050.00 67.85,5050.00              67.85,5050.00 67.85,5038.00 67.85,5038.00              67.85,5038.00 69.00,5000.00 69.00,5000.00              69.00,5000.00 69.00,4971.00 69.00,4971.00              69.00,4971.00 71.00,4938.00 71.00,4938.00              71.00,4938.00 71.00,4900.00 71.00,4900.00              71.00,4900.00 75.96,4860.00 75.96,4860.00              75.96,4860.00 75.00,4842.00 75.00,4842.00              75.00,4842.00 77.04,4822.00 77.04,4822.00              77.04,4822.00 77.04,4807.00 77.04,4807.00              77.35,4803.13 78.15,4801.29 77.91,4797.00              77.91,4797.00 77.01,4785.00 77.01,4785.00              77.01,4785.00 79.91,4754.00 79.91,4754.00              79.91,4754.00 79.34,4744.00 79.34,4744.00              79.34,4744.00 79.91,4738.00 79.91,4738.00              79.91,4738.00 81.17,4720.00 81.17,4720.00              81.17,4720.00 82.83,4711.00 82.83,4711.00              82.83,4711.00 85.17,4685.00 85.17,4685.00              85.17,4685.00 87.00,4671.00 87.00,4671.00              87.00,4671.00 87.00,4661.00 87.00,4661.00              87.02,4650.70 88.35,4652.84 89.92,4644.00              89.92,4644.00 91.17,4627.00 91.17,4627.00              92.05,4618.82 93.13,4621.13 93.00,4610.00              92.89,4601.30 90.49,4598.59 90.27,4594.00              90.27,4594.00 91.91,4583.00 91.91,4583.00              92.25,4577.38 90.62,4574.34 90.57,4570.00              90.57,4570.00 91.90,4552.00 91.90,4552.00              91.90,4552.00 91.90,4536.00 91.90,4536.00              91.90,4536.00 93.91,4526.00 93.91,4526.00              93.91,4526.00 93.91,4513.00 93.91,4513.00              93.91,4513.00 95.00,4497.00 95.00,4497.00              95.00,4497.00 94.09,4481.00 94.09,4481.00              94.41,4475.77 96.28,4473.11 95.91,4467.00              95.91,4467.00 92.34,4448.00 92.34,4448.00              92.34,4448.00 92.96,4437.00 92.96,4437.00              92.96,4437.00 92.02,4428.00 92.02,4428.00              92.02,4428.00 92.02,4412.00 92.02,4412.00              91.92,4405.21 91.08,4405.51 90.30,4400.00              90.30,4400.00 89.00,4381.00 89.00,4381.00              89.00,4381.00 89.00,4360.00 89.00,4360.00              89.00,4360.00 88.05,4348.00 88.05,4348.00              88.05,4348.00 88.05,4332.00 88.05,4332.00              88.05,4332.00 88.96,4322.00 88.96,4322.00              88.96,4322.00 88.96,4307.00 88.96,4307.00              88.96,4307.00 87.00,4282.00 87.00,4282.00              86.97,4265.62 84.11,4249.15 81.70,4233.00              80.21,4223.01 78.07,4226.54 78.00,4213.00              78.00,4213.00 75.32,4192.00 75.32,4192.00              75.32,4192.00 70.22,4179.00 70.22,4179.00              70.22,4179.00 67.54,4162.00 67.54,4162.00              65.82,4153.01 62.41,4142.14 62.74,4133.00              62.74,4133.00 64.00,4108.00 64.00,4108.00              64.06,4103.68 67.34,4090.02 69.06,4086.00              69.06,4086.00 72.65,4079.00 72.65,4079.00              72.65,4079.00 76.24,4069.00 76.24,4069.00              76.24,4069.00 82.65,4058.00 82.65,4058.00              85.41,4051.79 84.33,4050.16 85.38,4045.00              85.38,4045.00 89.10,4033.00 89.10,4033.00              89.10,4033.00 92.17,4005.00 92.17,4005.00              92.88,3997.68 93.99,3996.75 94.00,3988.00              94.00,3988.00 94.00,3967.00 94.00,3967.00              94.00,3967.00 95.72,3947.00 95.72,3947.00              95.72,3947.00 95.72,3934.00 95.72,3934.00              95.72,3934.00 97.74,3920.00 97.74,3920.00              97.74,3920.00 97.74,3911.00 97.74,3911.00              97.74,3911.00 97.74,3902.00 97.74,3902.00              97.74,3902.00 97.74,3895.00 97.74,3895.00              97.74,3895.00 100.71,3873.00 100.71,3873.00              100.71,3873.00 101.29,3860.00 101.29,3860.00              101.29,3860.00 103.70,3847.00 103.70,3847.00              103.70,3847.00 105.96,3827.00 105.96,3827.00              105.96,3827.00 105.96,3818.00 105.96,3818.00              105.96,3818.00 106.96,3811.00 106.96,3811.00              106.96,3811.00 106.96,3793.00 106.96,3793.00              107.01,3784.65 107.78,3785.14 108.71,3778.00              108.71,3778.00 110.00,3757.00 110.00,3757.00              110.00,3757.00 108.32,3733.00 108.32,3733.00              108.32,3733.00 109.00,3720.00 109.00,3720.00              109.00,3720.00 111.00,3692.00 111.00,3692.00              111.00,3692.00 109.32,3674.00 109.32,3674.00              109.32,3674.00 110.99,3659.00 110.99,3659.00              110.99,3659.00 110.00,3642.00 110.00,3642.00              110.00,3642.00 108.01,3614.00 108.01,3614.00              108.01,3614.00 108.01,3583.00 108.01,3583.00              108.01,3583.00 108.01,3573.00 108.01,3573.00              108.98,3568.23 110.22,3566.45 109.91,3561.00              109.91,3561.00 109.18,3554.00 109.18,3554.00              109.18,3554.00 110.00,3544.00 110.00,3544.00              110.00,3544.00 110.00,3522.00 110.00,3522.00              110.00,3522.00 112.08,3503.00 112.08,3503.00              112.08,3503.00 112.08,3493.00 112.08,3493.00              112.08,3493.00 113.71,3485.00 113.71,3485.00              114.58,3479.35 115.06,3473.71 115.00,3468.00              115.00,3468.00 114.02,3454.00 114.02,3454.00              114.02,3454.00 114.96,3441.00 114.96,3441.00              114.96,3441.00 114.00,3428.00 114.00,3428.00              114.00,3428.00 111.84,3403.00 111.84,3403.00              111.84,3403.00 113.91,3378.00 113.91,3378.00              113.91,3378.00 112.00,3354.00 112.00,3354.00              112.00,3354.00 112.00,3300.00 112.00,3300.00              111.99,3291.22 110.68,3290.05 110.58,3286.00              110.58,3286.00 111.92,3273.00 111.92,3273.00              111.92,3273.00 111.92,3263.00 111.92,3263.00              111.92,3263.00 112.81,3251.00 112.81,3251.00              112.81,3251.00 112.81,3241.00 112.81,3241.00              112.81,3241.00 114.56,3231.00 114.56,3231.00              114.56,3231.00 115.17,3221.00 115.17,3221.00              115.17,3221.00 116.91,3211.00 116.91,3211.00              117.27,3205.72 116.18,3203.39 116.18,3200.00              116.18,3200.00 117.00,3189.00 117.00,3189.00              117.00,3189.00 117.00,3181.00 117.00,3181.00              117.00,3181.00 118.92,3165.00 118.92,3165.00              118.92,3165.00 118.92,3155.00 118.92,3155.00              118.92,3155.00 120.96,3135.00 120.96,3135.00              120.67,3127.77 118.05,3124.17 118.00,3114.00              118.00,3114.00 118.00,3087.00 118.00,3087.00              118.00,3087.00 115.96,3065.00 115.96,3065.00              115.96,3065.00 115.96,3055.00 115.96,3055.00              115.96,3055.00 114.00,3036.00 114.00,3036.00              114.00,3036.00 114.00,3018.00 114.00,3018.00              114.00,3018.00 112.03,3002.00 112.03,3002.00              112.03,3002.00 113.46,2985.00 113.46,2985.00              114.43,2979.56 115.85,2977.02 115.99,2971.00              115.99,2971.00 115.00,2950.00 115.00,2950.00              115.00,2950.00 115.97,2936.00 115.97,2936.00              115.97,2936.00 114.80,2925.00 114.80,2925.00              114.80,2925.00 114.80,2906.00 114.80,2906.00              114.80,2906.00 112.18,2876.00 112.18,2876.00              112.46,2872.05 113.15,2870.60 112.96,2866.00              112.64,2858.18 110.82,2860.49 111.00,2845.00              111.00,2845.00 112.99,2824.00 112.99,2824.00              112.99,2824.00 112.37,2815.00 112.37,2815.00              112.37,2815.00 113.91,2793.00 113.91,2793.00              113.91,2793.00 113.00,2781.00 113.00,2781.00              113.00,2781.00 113.00,2741.00 113.00,2741.00              113.00,2741.00 114.00,2724.00 114.00,2724.00              114.00,2724.00 113.32,2688.00 113.32,2688.00              113.32,2688.00 114.00,2645.00 114.00,2645.00              114.00,2645.00 116.00,2621.00 116.00,2621.00              116.00,2621.00 117.00,2578.00 117.00,2578.00              117.00,2578.00 116.18,2566.00 116.18,2566.00              116.18,2566.00 117.00,2551.00 117.00,2551.00              117.00,2551.00 115.21,2524.00 115.21,2524.00              115.21,2524.00 116.72,2512.00 116.72,2512.00              116.72,2512.00 119.00,2482.00 119.00,2482.00              119.00,2482.00 119.00,2465.00 119.00,2465.00              119.00,2465.00 119.96,2451.00 119.96,2451.00              119.96,2451.00 118.34,2438.00 118.34,2438.00              118.34,2438.00 119.91,2424.00 119.91,2424.00              119.91,2424.00 119.91,2413.00 119.91,2413.00              119.91,2413.00 119.02,2399.00 119.02,2399.00              119.02,2399.00 120.91,2371.00 120.91,2371.00              120.45,2363.57 118.02,2362.58 118.00,2351.00              118.00,2351.00 118.00,2341.00 118.00,2341.00              118.00,2341.00 116.18,2320.00 116.18,2320.00              116.43,2316.51 117.13,2314.99 116.91,2311.00              116.91,2311.00 116.00,2300.00 116.00,2300.00              116.00,2300.00 116.00,2276.00 116.00,2276.00              116.00,2276.00 117.87,2247.00 117.87,2247.00              117.87,2247.00 117.87,2235.00 117.87,2235.00              117.87,2235.00 117.14,2222.00 117.14,2222.00              117.65,2212.14 117.93,2216.46 117.14,2206.00              117.14,2206.00 117.96,2192.00 117.96,2192.00              117.96,2192.00 116.00,2164.00 116.00,2164.00              116.00,2164.00 116.00,2149.00 116.00,2149.00              116.00,2149.00 117.00,2127.00 117.00,2127.00              117.00,2127.00 115.04,2109.00 115.04,2109.00              115.04,2109.00 117.00,2086.00 117.00,2086.00              117.00,2086.00 117.00,2070.00 117.00,2070.00              117.00,2070.00 119.00,2043.00 119.00,2043.00              119.00,2043.00 119.00,2024.00 119.00,2024.00              119.00,2024.00 120.83,2010.00 120.83,2010.00              120.83,2010.00 122.00,1985.00 122.00,1985.00              122.10,1976.91 123.76,1976.50 124.70,1970.00              124.70,1970.00 125.29,1958.00 125.29,1958.00              126.23,1950.36 127.61,1948.91 128.53,1944.00              131.19,1929.94 135.16,1888.20 135.00,1874.00              135.00,1874.00 132.09,1853.00 132.09,1853.00              131.76,1848.20 132.62,1846.27 132.81,1842.00              132.81,1842.00 132.81,1830.00 132.81,1830.00              132.81,1830.00 132.81,1818.00 132.81,1818.00              132.81,1818.00 135.00,1789.00 135.00,1789.00              135.00,1789.00 135.00,1780.00 135.00,1780.00              135.00,1780.00 136.70,1772.00 136.70,1772.00              136.70,1772.00 138.00,1752.00 138.00,1752.00              138.00,1752.00 138.00,1716.00 138.00,1716.00              138.00,1716.00 135.19,1693.00 135.19,1693.00              135.19,1693.00 136.96,1684.00 136.96,1684.00              136.96,1684.00 136.96,1676.00 136.96,1676.00              136.96,1676.00 138.00,1655.00 138.00,1655.00              138.00,1655.00 136.17,1636.00 136.17,1636.00              136.17,1636.00 134.91,1615.00 134.91,1615.00              134.91,1615.00 134.00,1596.00 134.00,1596.00              134.15,1583.47 137.95,1580.00 138.00,1569.00              138.08,1550.93 139.52,1555.51 140.91,1542.00              140.91,1542.00 140.91,1526.00 140.91,1526.00              140.91,1526.00 138.75,1508.00 138.75,1508.00              138.75,1508.00 139.91,1494.00 139.91,1494.00              139.91,1494.00 139.91,1483.00 139.91,1483.00              139.08,1475.99 138.02,1477.93 138.00,1468.00              138.00,1468.00 138.00,1450.00 138.00,1450.00              138.00,1450.00 140.00,1419.00 140.00,1419.00              140.00,1419.00 138.04,1401.00 138.04,1401.00              138.04,1401.00 138.04,1384.00 138.04,1384.00              138.04,1384.00 136.54,1366.00 136.54,1366.00              136.54,1366.00 134.08,1354.00 134.08,1354.00              134.08,1354.00 134.08,1344.00 134.08,1344.00              134.08,1344.00 132.00,1312.00 132.00,1312.00              132.00,1312.00 133.00,1297.00 133.00,1297.00              133.00,1297.00 133.00,1280.00 133.00,1280.00              132.99,1273.59 132.19,1267.14 130.26,1261.00              130.26,1261.00 128.39,1255.00 128.39,1255.00              127.81,1251.65 128.72,1249.26 128.91,1246.00              128.91,1246.00 128.00,1231.00 128.00,1231.00              128.00,1231.00 128.00,1199.00 128.00,1199.00              128.00,1199.00 129.00,1183.00 129.00,1183.00              129.00,1183.00 129.00,1159.00 129.00,1159.00              129.00,1159.00 131.00,1136.00 131.00,1136.00              131.00,1136.00 131.00,1107.00 131.00,1107.00              131.00,1107.00 131.96,1097.00 131.96,1097.00              131.96,1097.00 131.96,1083.00 131.96,1083.00              131.96,1083.00 134.99,1057.00 134.99,1057.00              134.99,1057.00 134.01,1045.00 134.01,1045.00              134.01,1045.00 134.95,1035.00 134.95,1035.00              134.95,1035.00 134.95,1018.00 134.95,1018.00              134.95,1018.00 133.83,998.00 133.83,998.00              133.83,998.00 132.71,990.00 132.71,990.00              132.71,990.00 132.71,983.00 132.71,983.00              132.71,983.00 131.32,966.00 131.32,966.00              131.32,966.00 133.00,937.00 133.00,937.00              133.00,937.00 131.18,909.00 131.18,909.00              131.18,909.00 132.00,890.00 132.00,890.00              132.00,890.00 133.00,877.00 133.00,877.00              133.00,877.00 129.32,841.00 129.32,841.00              129.32,841.00 130.00,828.00 130.00,828.00              130.00,828.00 131.00,809.00 131.00,809.00              131.00,809.00 129.32,788.00 129.32,788.00              130.55,771.66 128.02,774.85 128.00,762.00              128.00,762.00 128.00,749.00 128.00,749.00              127.96,740.21 126.79,741.00 126.02,734.00              126.02,734.00 126.02,719.00 126.02,719.00              126.02,719.00 126.02,700.00 126.02,700.00              126.02,700.00 125.18,687.00 125.18,687.00              125.18,687.00 126.96,665.00 126.96,665.00              126.96,665.00 126.18,655.00 126.18,655.00              126.18,655.00 128.06,643.00 128.06,643.00              128.06,643.00 128.06,635.00 128.06,635.00              128.06,635.00 129.92,626.00 129.92,626.00              129.92,626.00 129.92,615.00 129.92,615.00              129.92,615.00 130.96,600.00 130.96,600.00              130.96,600.00 129.26,589.00 129.26,589.00              129.14,585.88 130.37,582.54 129.91,576.00              129.91,576.00 127.18,560.00 127.18,560.00              127.18,560.00 127.98,551.00 127.98,551.00              127.98,551.00 127.18,540.00 127.18,540.00              127.18,540.00 128.00,530.00 128.00,530.00              128.00,530.00 128.00,508.00 128.00,508.00              127.98,497.00 125.20,493.56 125.18,488.00              125.18,488.00 127.00,467.00 127.00,467.00              127.00,467.00 127.00,448.00 127.00,448.00              127.00,448.00 126.04,436.00 126.04,436.00              125.75,428.57 127.65,421.29 128.70,414.00              128.70,414.00 129.30,407.00 129.30,407.00              129.93,402.59 130.97,401.16 130.97,396.00              130.97,396.00 130.18,387.00 130.18,387.00              130.18,383.04 131.54,380.07 130.83,373.00              129.84,363.07 128.14,360.96 128.00,349.00              127.88,338.90 125.12,339.02 125.00,330.00              125.00,330.00 123.83,308.00 123.83,308.00              123.83,308.00 122.15,300.00 122.15,300.00              122.15,300.00 122.15,289.00 122.15,289.00              122.15,289.00 120.78,270.00 120.78,270.00              120.78,270.00 120.78,224.00 120.78,224.00              120.78,224.00 119.70,206.00 119.70,206.00              119.70,206.00 118.81,200.00 118.81,200.00              118.81,200.00 118.81,191.00 118.81,191.00              119.16,176.23 116.24,166.96 114.13,153.00              114.13,153.00 112.70,138.00 112.70,138.00              112.70,138.00 109.47,126.00 109.47,126.00              109.47,126.00 108.70,119.00 108.70,119.00              108.70,119.00 106.44,108.00 106.44,108.00              106.44,108.00 103.54,88.00 103.54,88.00              102.35,82.08 100.42,80.43 99.49,77.00              99.49,77.00 98.70,67.00 98.70,67.00              98.70,67.00 96.00,55.00 96.00,55.00 Z            M 6051.00,3422.57            C 6044.59,3424.21 6032.17,3435.01 6031.42,3442.00              6030.99,3445.99 6033.49,3451.68 6034.40,3456.00              6034.95,3461.11 6033.38,3464.04 6034.40,3467.96              6036.73,3474.37 6047.00,3476.76 6053.00,3475.85              6058.99,3474.95 6058.98,3470.95 6062.40,3467.80              6062.40,3467.80 6066.32,3464.59 6066.32,3464.59              6068.34,3462.33 6073.37,3453.94 6073.74,3451.00              6074.80,3442.45 6063.80,3427.97 6057.00,3424.09              6054.63,3422.74 6053.59,3422.70 6051.00,3422.57 Z"
            style="fill:#000000;fill-opacity:1"/>
</svg>
