<?xml version="1.0" encoding="UTF-8" standalone="no"?>
<svg
        width="172.742mm"
        height="127.106mm"
        viewBox="0 0 8161 6005"
        version="1.1"
        id="svg1308"
        sodipodi:docname="sheet12b.svg"
        inkscape:version="1.1.1 (3bf5ae0d25, 2021-09-20)"
        xmlns:inkscape="http://www.inkscape.org/namespaces/inkscape"
        xmlns:sodipodi="http://sodipodi.sourceforge.net/DTD/sodipodi-0.dtd"
        xmlns="http://www.w3.org/2000/svg"
>
    <defs
            id="defs1312"/>
    <sodipodi:namedview
            id="namedview1310"
            pagecolor="#ffffff"
            bordercolor="#666666"
            borderopacity="1.0"
            inkscape:pageshadow="2"
            inkscape:pageopacity="0.0"
            inkscape:pagecheckerboard="0"
            inkscape:document-units="mm"
            showgrid="false"
            inkscape:zoom="1.6205043"
            inkscape:cx="326.13304"
            inkscape:cy="240.35727"
            inkscape:window-width="1920"
            inkscape:window-height="1001"
            inkscape:window-x="-7"
            inkscape:window-y="-7"
            inkscape:window-maximized="1"
            inkscape:current-layer="svg1308"/>
    <path
            id="Selection #1"
            fill="none"
            stroke="black"
            stroke-width="1"
            d="M 6980.00,54.00            C 6988.09,64.59 7001.23,69.46 7014.00,64.05              7023.29,60.11 7021.94,55.88 7037.00,52.01              7039.99,51.28 7045.40,52.07 7049.00,52.01              7049.00,52.01 7058.00,51.18 7058.00,51.18              7058.00,51.18 7073.00,52.00 7073.00,52.00              7073.00,52.00 7086.00,52.99 7086.00,52.99              7086.00,52.99 7100.00,52.00 7100.00,52.00              7116.90,51.92 7112.33,54.78 7135.00,53.18              7141.15,52.75 7142.77,55.25 7154.00,54.99              7154.00,54.99 7199.00,52.19 7199.00,52.19              7203.95,52.60 7204.70,53.91 7212.00,54.00              7212.00,54.00 7247.00,54.00 7247.00,54.00              7247.00,54.00 7268.00,55.37 7268.00,55.37              7277.22,57.14 7278.06,58.98 7289.00,59.00              7289.00,59.00 7315.00,59.00 7315.00,59.00              7325.02,58.98 7325.62,57.49 7334.00,56.06              7334.00,56.06 7345.00,56.06 7345.00,56.06              7345.00,56.06 7353.00,54.13 7353.00,54.13              7362.06,51.96 7363.29,52.99 7372.00,53.00              7372.00,53.00 7395.00,53.00 7395.00,53.00              7395.00,53.00 7410.00,52.04 7410.00,52.04              7410.00,52.04 7421.00,53.00 7421.00,53.00              7421.00,53.00 7443.00,53.00 7443.00,53.00              7443.00,53.00 7457.00,52.03 7457.00,52.03              7457.00,52.03 7470.00,52.91 7470.00,52.91              7470.00,52.91 7481.00,51.30 7481.00,51.30              7481.00,51.30 7492.00,53.83 7492.00,53.83              7492.00,53.83 7511.00,53.04 7511.00,53.04              7511.00,53.04 7531.00,54.96 7531.00,54.96              7537.09,54.71 7540.33,52.74 7544.00,52.49              7544.00,52.49 7552.00,53.08 7552.00,53.08              7552.00,53.08 7577.00,53.08 7577.00,53.08              7584.01,53.92 7582.07,54.98 7592.00,55.00              7592.00,55.00 7613.00,54.18 7613.00,54.18              7613.00,54.18 7625.00,55.00 7625.00,55.00              7633.29,54.90 7634.46,53.05 7639.00,52.80              7639.00,52.80 7653.00,54.00 7653.00,54.00              7653.00,54.00 7676.00,52.18 7676.00,52.18              7683.80,53.14 7686.49,57.85 7699.00,58.00              7711.93,58.14 7710.07,56.13 7718.00,55.09              7718.00,55.09 7729.00,55.09 7729.00,55.09              7741.42,54.85 7738.81,51.02 7752.00,50.91              7752.00,50.91 7763.00,50.91 7763.00,50.91              7763.00,50.91 7783.00,47.84 7783.00,47.84              7783.00,47.84 7793.00,49.92 7793.00,49.92              7793.00,49.92 7803.00,49.92 7803.00,49.92              7803.00,49.92 7830.00,54.83 7830.00,54.83              7830.00,54.83 7851.00,56.17 7851.00,56.17              7851.00,56.17 7860.00,57.71 7860.00,57.71              7860.00,57.71 7868.00,58.39 7868.00,58.39              7868.00,58.39 7876.00,61.07 7876.00,61.07              7880.09,62.17 7881.50,61.70 7885.00,62.21              7890.78,63.04 7890.87,64.89 7900.00,65.00              7904.08,65.04 7910.23,64.68 7914.00,65.60              7914.00,65.60 7930.00,71.53 7930.00,71.53              7930.00,71.53 7953.00,74.67 7953.00,74.67              7959.43,76.38 7961.26,79.49 7967.00,82.10              7967.00,82.10 7992.00,91.93 7992.00,91.93              7992.00,91.93 8001.90,99.51 8001.90,99.51              8005.78,102.95 8006.49,106.06 8009.53,110.00              8009.53,110.00 8017.51,118.42 8017.51,118.42              8017.51,118.42 8022.78,127.00 8022.78,127.00              8022.78,127.00 8030.91,138.00 8030.91,138.00              8030.91,138.00 8036.11,148.00 8036.11,148.00              8036.11,148.00 8043.84,158.00 8043.84,158.00              8043.84,158.00 8047.46,170.00 8047.46,170.00              8047.46,170.00 8058.83,204.00 8058.83,204.00              8058.83,204.00 8060.17,218.00 8060.17,218.00              8061.13,226.83 8065.75,230.50 8066.25,235.00              8066.68,236.78 8066.19,239.14 8066.25,241.00              8065.59,250.81 8069.36,254.15 8073.46,262.00              8077.05,268.87 8079.48,276.24 8079.91,284.00              8080.28,290.81 8078.26,291.49 8075.95,297.00              8075.95,297.00 8072.80,307.00 8072.80,307.00              8068.91,315.83 8066.13,317.37 8066.00,328.00              8065.94,333.78 8065.65,339.56 8067.95,345.00              8072.16,354.95 8079.08,358.70 8081.10,361.51              8082.51,363.48 8083.18,367.51 8084.09,370.00              8085.66,374.30 8088.90,379.50 8089.88,384.00              8089.88,384.00 8088.09,408.00 8088.09,408.00              8088.85,418.40 8093.78,419.49 8094.83,429.00              8094.83,429.00 8095.52,441.00 8095.52,441.00              8094.99,444.77 8092.34,447.47 8092.04,455.00              8091.86,459.52 8092.44,460.93 8092.92,465.00              8092.92,465.00 8092.92,475.00 8092.92,475.00              8093.10,482.99 8094.53,483.43 8095.68,490.00              8095.68,490.00 8097.67,508.00 8097.67,508.00              8097.67,508.00 8100.62,520.00 8100.62,520.00              8100.62,520.00 8099.04,529.00 8099.04,529.00              8099.04,529.00 8099.04,537.00 8099.04,537.00              8098.24,546.86 8096.97,545.53 8100.00,556.00              8089.40,562.39 8080.26,570.47 8081.09,584.00              8081.35,588.16 8082.95,592.01 8084.00,596.00              8082.29,597.23 8079.85,599.16 8078.00,600.02              8074.04,601.86 8064.82,601.03 8056.18,610.09              8051.56,614.94 8045.96,628.40 8044.43,635.00              8044.43,635.00 8042.41,646.00 8042.41,646.00              8041.06,649.56 8033.49,656.46 8029.82,664.00              8028.04,667.66 8027.93,669.42 8026.78,673.00              8026.78,673.00 8023.93,681.00 8023.93,681.00              8022.98,684.51 8021.96,698.96 8022.00,703.00              8022.12,713.45 8024.27,712.75 8026.54,720.00              8026.54,720.00 8028.55,728.00 8028.55,728.00              8031.87,737.40 8036.78,740.80 8039.02,745.00              8041.37,749.41 8040.11,754.27 8047.18,761.96              8055.51,771.01 8061.23,768.23 8061.48,774.05              8061.54,775.53 8059.93,781.11 8060.18,788.00              8060.09,796.18 8062.64,797.48 8060.18,806.00              8057.07,818.25 8049.65,827.78 8051.17,842.00              8052.57,855.04 8063.65,859.17 8064.33,870.00              8064.75,876.52 8059.83,880.06 8057.93,887.00              8055.87,894.49 8057.71,897.15 8058.70,904.00              8059.38,908.68 8058.69,910.95 8060.56,916.00              8060.56,916.00 8073.79,942.00 8073.79,942.00              8078.84,949.00 8082.06,948.81 8087.33,960.00              8089.87,965.40 8088.45,968.55 8089.47,974.00              8089.47,974.00 8094.63,994.00 8094.63,994.00              8094.63,994.00 8095.30,1007.00 8095.30,1007.00              8096.22,1013.25 8098.72,1015.84 8099.61,1020.00              8099.61,1020.00 8100.68,1043.00 8100.68,1043.00              8100.68,1043.00 8099.83,1077.00 8099.83,1077.00              8099.05,1084.16 8095.62,1087.70 8096.09,1096.00              8096.09,1096.00 8099.96,1123.00 8099.96,1123.00              8099.96,1123.00 8098.09,1144.00 8098.09,1144.00              8098.60,1152.22 8104.37,1159.05 8104.52,1167.00              8104.60,1171.63 8101.62,1174.79 8101.09,1182.00              8101.09,1182.00 8100.04,1199.00 8100.04,1199.00              8100.32,1206.06 8102.97,1208.35 8102.31,1214.00              8102.31,1214.00 8102.31,1221.00 8102.31,1221.00              8102.31,1221.00 8102.96,1229.00 8102.96,1229.00              8103.18,1234.06 8101.81,1250.45 8100.36,1255.00              8098.09,1262.08 8090.50,1265.92 8091.09,1279.00              8091.09,1279.00 8090.09,1303.00 8090.09,1303.00              8089.62,1311.25 8093.13,1314.41 8091.77,1317.83              8091.06,1319.61 8086.26,1323.78 8084.53,1326.00              8080.33,1331.40 8077.70,1339.14 8078.09,1346.00              8078.39,1351.18 8082.14,1370.60 8083.95,1375.00              8083.95,1375.00 8090.54,1389.00 8090.54,1389.00              8090.54,1389.00 8092.16,1396.00 8092.16,1396.00              8092.72,1398.06 8094.37,1402.20 8094.32,1404.00              8094.20,1408.68 8088.00,1413.16 8084.48,1419.00              8081.48,1423.97 8078.27,1437.17 8078.04,1443.00              8077.69,1451.61 8080.44,1458.94 8087.04,1464.67              8091.16,1468.25 8098.06,1471.53 8101.26,1476.17              8102.72,1478.27 8105.52,1491.21 8105.57,1494.00              8105.67,1499.51 8100.20,1503.57 8099.17,1513.00              8098.03,1523.52 8102.65,1533.29 8102.16,1537.00              8101.87,1539.19 8097.61,1548.86 8097.09,1556.00              8096.22,1567.93 8099.53,1571.67 8098.76,1577.00              8097.97,1582.55 8093.37,1585.11 8093.04,1595.00              8092.74,1604.09 8096.33,1608.09 8099.05,1616.00              8099.05,1616.00 8102.64,1630.00 8102.64,1630.00              8104.77,1639.86 8102.42,1648.26 8102.04,1658.00              8101.64,1668.29 8106.12,1676.75 8106.82,1686.00              8106.82,1686.00 8105.82,1703.00 8105.82,1703.00              8105.82,1703.00 8103.17,1715.00 8103.17,1715.00              8102.63,1720.07 8103.58,1722.54 8101.96,1728.00              8099.17,1737.38 8094.45,1738.42 8095.04,1752.00              8095.04,1752.00 8097.93,1772.00 8097.93,1772.00              8097.93,1772.00 8101.61,1782.00 8101.61,1782.00              8101.61,1782.00 8102.47,1790.00 8102.47,1790.00              8102.47,1790.00 8104.75,1799.00 8104.75,1799.00              8105.25,1804.43 8101.76,1808.41 8102.04,1817.00              8102.23,1822.78 8104.26,1825.74 8103.91,1832.00              8103.91,1832.00 8103.03,1841.00 8103.03,1841.00              8103.03,1846.48 8104.37,1848.52 8104.53,1852.00              8104.53,1852.00 8104.01,1863.00 8104.01,1863.00              8104.01,1863.00 8105.00,1878.00 8105.00,1878.00              8105.00,1878.00 8103.45,1894.00 8103.45,1894.00              8103.45,1894.00 8099.56,1903.00 8099.56,1903.00              8098.33,1906.36 8095.91,1920.45 8096.23,1924.00              8096.23,1924.00 8096.23,1930.00 8096.23,1930.00              8096.23,1930.00 8096.23,1939.00 8096.23,1939.00              8096.23,1939.00 8097.82,1961.00 8097.82,1961.00              8097.54,1964.85 8096.79,1966.68 8097.09,1971.00              8097.66,1979.23 8100.88,1979.87 8101.00,1989.00              8101.06,1993.55 8101.09,1997.68 8099.39,2002.00              8096.24,2010.04 8091.36,2015.55 8091.04,2025.00              8090.65,2036.62 8099.00,2045.42 8099.70,2054.00              8099.70,2054.00 8098.00,2072.00 8098.00,2072.00              8098.00,2072.00 8098.52,2087.00 8098.52,2087.00              8098.03,2090.46 8095.54,2093.42 8095.09,2100.00              8094.52,2108.24 8097.33,2111.62 8097.75,2116.00              8097.75,2116.00 8097.04,2128.00 8097.04,2128.00              8097.35,2135.62 8100.23,2138.52 8100.23,2142.00              8100.23,2145.53 8097.29,2148.46 8097.04,2156.00              8096.84,2162.16 8098.29,2163.95 8098.91,2169.00              8098.91,2169.00 8098.91,2184.00 8098.91,2184.00              8098.91,2184.00 8099.57,2197.00 8099.57,2197.00              8098.94,2200.80 8096.03,2204.08 8096.03,2212.00              8096.03,2212.00 8098.49,2239.00 8098.49,2239.00              8098.49,2239.00 8096.01,2261.00 8096.01,2261.00              8096.01,2261.00 8100.87,2290.00 8100.87,2290.00              8100.78,2293.45 8099.10,2297.44 8098.46,2301.00              8098.46,2301.00 8097.51,2312.00 8097.51,2312.00              8097.51,2312.00 8093.93,2321.00 8093.93,2321.00              8093.93,2321.00 8092.04,2342.00 8092.04,2342.00              8092.04,2342.00 8093.96,2361.00 8093.96,2361.00              8093.96,2361.00 8093.17,2376.00 8093.17,2376.00              8093.17,2376.00 8095.94,2389.00 8095.94,2389.00              8095.94,2389.00 8095.08,2397.00 8095.08,2397.00              8095.08,2397.00 8095.08,2407.00 8095.08,2407.00              8095.08,2407.00 8095.59,2436.00 8095.59,2436.00              8095.15,2440.60 8093.11,2442.11 8093.00,2451.00              8092.95,2456.02 8092.83,2460.17 8094.55,2465.00              8095.70,2468.25 8098.27,2471.83 8098.43,2475.00              8098.43,2475.00 8097.01,2486.00 8097.01,2486.00              8097.01,2486.00 8097.82,2498.00 8097.82,2498.00              8097.82,2498.00 8097.01,2510.00 8097.01,2510.00              8097.13,2516.47 8097.08,2523.76 8095.05,2530.00              8094.06,2533.04 8093.13,2534.56 8092.47,2538.00              8092.47,2538.00 8090.09,2565.00 8090.09,2565.00              8090.71,2575.06 8096.29,2588.79 8096.82,2593.00              8096.82,2593.00 8097.64,2608.00 8097.64,2608.00              8097.06,2612.81 8095.01,2614.61 8095.01,2623.00              8095.01,2623.00 8096.38,2642.00 8096.38,2642.00              8096.38,2645.99 8095.85,2647.57 8096.38,2652.00              8096.38,2652.00 8096.38,2661.00 8096.38,2661.00              8096.38,2661.00 8096.38,2668.00 8096.38,2668.00              8096.38,2668.00 8096.38,2678.00 8096.38,2678.00              8096.38,2678.00 8092.03,2711.00 8092.03,2711.00              8092.03,2718.73 8096.27,2725.47 8095.79,2733.00              8095.79,2733.00 8094.17,2742.00 8094.17,2742.00              8094.17,2742.00 8092.09,2774.00 8092.09,2774.00              8092.09,2774.00 8093.23,2781.00 8093.23,2781.00              8093.68,2785.14 8091.90,2787.92 8091.30,2792.00              8091.30,2792.00 8089.83,2812.00 8089.83,2812.00              8089.28,2817.02 8087.76,2819.14 8088.09,2825.00              8088.09,2825.00 8088.96,2835.00 8088.96,2835.00              8088.96,2835.00 8088.04,2844.00 8088.04,2844.00              8088.04,2844.00 8091.00,2869.00 8091.00,2869.00              8091.00,2869.00 8091.00,2884.00 8091.00,2884.00              8091.00,2884.00 8091.66,2893.00 8091.66,2893.00              8091.66,2893.00 8091.00,2906.00 8091.00,2906.00              8091.00,2906.00 8090.09,2919.00 8090.09,2919.00              8090.09,2919.00 8090.96,2929.00 8090.96,2929.00              8090.96,2929.00 8089.97,2939.00 8089.97,2939.00              8089.97,2939.00 8089.97,2958.00 8089.97,2958.00              8089.39,2965.18 8087.87,2963.63 8088.00,2975.00              8088.00,2975.00 8091.96,3008.00 8091.96,3008.00              8091.96,3008.00 8091.03,3018.00 8091.03,3018.00              8091.03,3018.00 8091.75,3028.00 8091.75,3028.00              8091.75,3028.00 8089.30,3038.00 8089.30,3038.00              8089.30,3038.00 8087.00,3077.00 8087.00,3077.00              8087.00,3077.00 8087.96,3087.00 8087.96,3087.00              8087.96,3087.00 8087.96,3102.00 8087.96,3102.00              8087.96,3102.00 8089.96,3123.00 8089.96,3123.00              8089.96,3123.00 8087.43,3138.00 8087.43,3138.00              8087.43,3138.00 8085.04,3170.00 8085.04,3170.00              8085.04,3170.00 8086.00,3185.00 8086.00,3185.00              8085.91,3192.44 8084.76,3192.46 8083.92,3198.00              8083.92,3198.00 8083.92,3208.00 8083.92,3208.00              8082.75,3213.68 8080.69,3216.40 8081.09,3223.00              8081.41,3228.19 8085.66,3239.69 8085.66,3251.00              8085.66,3251.00 8083.70,3275.00 8083.70,3275.00              8083.70,3275.00 8082.09,3284.00 8082.09,3284.00              8081.68,3290.74 8083.20,3295.03 8080.46,3303.00              8078.61,3308.38 8072.40,3312.71 8073.09,3324.00              8073.48,3330.21 8075.87,3332.93 8076.19,3337.00              8076.19,3337.00 8075.04,3357.00 8075.04,3357.00              8075.36,3364.10 8077.79,3366.68 8077.73,3371.00              8077.73,3371.00 8075.00,3394.00 8075.00,3394.00              8074.84,3408.66 8078.46,3408.37 8078.89,3416.00              8078.89,3416.00 8077.00,3437.00 8077.00,3437.00              8077.00,3437.00 8077.96,3447.00 8077.96,3447.00              8077.96,3447.00 8077.96,3460.00 8077.96,3460.00              8077.96,3460.00 8079.28,3472.00 8079.28,3472.00              8079.28,3472.00 8078.00,3497.00 8078.00,3497.00              8077.93,3510.03 8075.32,3508.69 8075.04,3517.00              8075.04,3517.00 8075.96,3527.00 8075.96,3527.00              8075.96,3527.00 8075.96,3545.00 8075.96,3545.00              8075.96,3545.00 8074.04,3568.00 8074.04,3568.00              8074.04,3568.00 8075.23,3577.00 8075.23,3577.00              8075.23,3577.00 8075.23,3586.00 8075.23,3586.00              8075.23,3586.00 8076.00,3600.00 8076.00,3600.00              8076.00,3600.00 8077.43,3623.00 8077.43,3623.00              8077.43,3623.00 8075.09,3637.00 8075.09,3637.00              8075.09,3637.00 8075.99,3650.00 8075.99,3650.00              8075.99,3650.00 8075.19,3665.00 8075.19,3665.00              8075.19,3665.00 8075.19,3673.00 8075.19,3673.00              8074.96,3678.09 8072.72,3681.88 8073.04,3690.00              8073.04,3690.00 8074.83,3702.00 8074.83,3702.00              8074.83,3702.00 8075.81,3726.00 8075.81,3726.00              8075.31,3732.05 8074.02,3730.67 8074.00,3741.00              8074.00,3741.00 8073.00,3770.00 8073.00,3770.00              8073.00,3770.00 8071.00,3796.00 8071.00,3796.00              8071.00,3796.00 8071.00,3835.00 8071.00,3835.00              8071.01,3843.64 8072.66,3846.64 8072.66,3850.00              8072.66,3853.86 8070.83,3856.51 8071.04,3863.00              8071.33,3871.63 8074.16,3870.27 8074.00,3883.00              8073.84,3895.12 8066.43,3902.20 8067.09,3913.00              8067.09,3913.00 8068.82,3923.00 8068.82,3923.00              8068.82,3923.00 8068.01,3936.00 8068.01,3936.00              8068.01,3936.00 8068.96,3951.00 8068.96,3951.00              8068.66,3957.90 8065.78,3963.29 8066.04,3971.00              8066.33,3979.69 8070.48,3983.64 8070.40,3988.00              8070.34,3991.60 8067.65,3993.75 8066.23,4000.00              8065.74,4003.86 8066.05,4010.78 8066.23,4015.00              8066.23,4015.00 8064.09,4032.00 8064.09,4032.00              8064.49,4038.41 8067.04,4041.48 8067.23,4045.00              8067.23,4045.00 8067.23,4057.00 8067.23,4057.00              8067.23,4057.00 8068.96,4071.00 8068.96,4071.00              8068.96,4071.00 8068.03,4085.00 8068.03,4085.00              8068.03,4085.00 8069.74,4104.00 8069.74,4104.00              8069.74,4104.00 8067.46,4115.00 8067.46,4115.00              8067.46,4115.00 8066.83,4125.00 8066.83,4125.00              8066.08,4132.01 8065.02,4130.07 8065.16,4140.00              8065.16,4140.00 8065.16,4147.00 8065.16,4147.00              8065.16,4147.00 8065.16,4157.00 8065.16,4157.00              8065.08,4161.51 8063.79,4163.72 8064.09,4169.00              8064.09,4169.00 8065.96,4184.00 8065.96,4184.00              8066.16,4190.37 8064.30,4193.12 8064.06,4199.00              8064.06,4199.00 8064.06,4223.00 8064.06,4223.00              8064.06,4223.00 8064.96,4231.00 8064.96,4231.00              8065.35,4241.04 8061.36,4241.45 8061.04,4251.00              8061.04,4251.00 8061.99,4266.00 8061.99,4266.00              8061.81,4273.43 8059.85,4274.46 8060.02,4283.00              8060.02,4283.00 8061.40,4295.00 8061.40,4295.00              8061.12,4306.42 8057.59,4308.81 8058.09,4317.00              8058.62,4325.56 8064.01,4334.89 8063.16,4344.00              8063.16,4344.00 8059.09,4364.00 8059.09,4364.00              8059.09,4364.00 8060.82,4385.00 8060.82,4385.00              8060.82,4385.00 8058.83,4409.00 8058.83,4409.00              8058.30,4413.93 8056.74,4416.27 8057.09,4422.00              8057.53,4429.15 8060.31,4430.36 8059.96,4439.00              8059.96,4439.00 8058.10,4452.00 8058.10,4452.00              8058.10,4452.00 8058.10,4476.00 8058.10,4476.00              8058.10,4476.00 8058.10,4503.00 8058.10,4503.00              8058.10,4503.00 8059.91,4526.00 8059.91,4526.00              8059.91,4526.00 8058.49,4540.00 8058.49,4540.00              8058.49,4540.00 8056.15,4549.00 8056.15,4549.00              8056.15,4549.00 8056.15,4559.00 8056.15,4559.00              8056.15,4559.00 8054.04,4575.00 8054.04,4575.00              8054.04,4575.00 8056.95,4602.00 8056.95,4602.00              8057.06,4610.26 8052.46,4611.72 8052.04,4622.00              8051.69,4630.57 8054.20,4632.54 8053.66,4638.00              8053.02,4644.58 8051.05,4646.24 8050.96,4656.00              8050.96,4656.00 8050.96,4670.00 8050.96,4670.00              8050.96,4670.00 8050.00,4681.00 8050.00,4681.00              8050.00,4681.00 8050.00,4704.00 8050.00,4704.00              8050.00,4704.00 8049.09,4717.00 8049.09,4717.00              8049.09,4717.00 8050.54,4725.00 8050.54,4725.00              8050.54,4725.00 8054.92,4756.00 8054.92,4756.00              8054.93,4764.52 8052.37,4772.67 8051.14,4781.00              8051.14,4781.00 8051.14,4790.00 8051.14,4790.00              8050.88,4798.70 8047.63,4800.77 8048.09,4809.00              8048.09,4809.00 8049.54,4828.00 8049.54,4828.00              8049.54,4828.00 8047.47,4836.00 8047.47,4836.00              8047.47,4836.00 8046.83,4848.00 8046.83,4848.00              8046.83,4848.00 8045.09,4858.00 8045.09,4858.00              8045.09,4858.00 8046.42,4884.00 8046.42,4884.00              8046.42,4884.00 8045.17,4892.00 8045.17,4892.00              8045.17,4892.00 8043.90,4912.00 8043.90,4912.00              8043.90,4912.00 8039.23,4927.00 8039.23,4927.00              8038.81,4930.60 8039.02,4934.35 8039.23,4938.00              8038.95,4947.27 8037.33,4946.02 8036.15,4953.00              8036.15,4953.00 8036.15,4971.00 8036.15,4971.00              8036.13,4982.17 8039.20,4982.23 8039.00,5000.00              8039.00,5000.00 8036.09,5023.00 8036.09,5023.00              8036.60,5031.17 8040.23,5034.04 8041.11,5038.00              8041.60,5040.04 8041.18,5041.96 8041.11,5044.00              8040.82,5050.28 8042.27,5051.77 8042.83,5057.00              8042.83,5057.00 8044.00,5082.00 8044.00,5082.00              8044.00,5082.00 8042.63,5099.00 8042.63,5099.00              8042.63,5099.00 8040.15,5108.00 8040.15,5108.00              8040.15,5108.00 8040.15,5122.00 8040.15,5122.00              8040.15,5122.00 8038.09,5142.00 8038.09,5142.00              8038.66,5151.11 8043.59,5154.29 8043.25,5162.00              8043.25,5162.00 8038.63,5189.00 8038.63,5189.00              8037.54,5194.57 8036.19,5194.76 8036.01,5202.00              8035.59,5219.68 8041.71,5214.33 8039.90,5233.00              8039.49,5237.16 8037.97,5239.14 8036.93,5243.00              8036.93,5243.00 8032.57,5264.00 8032.57,5264.00              8031.18,5271.28 8033.06,5273.93 8032.57,5279.00              8032.57,5279.00 8031.22,5296.00 8031.22,5296.00              8029.20,5303.39 8024.03,5316.88 8024.03,5324.00              8024.03,5331.10 8026.37,5334.00 8026.75,5338.00              8027.21,5342.83 8024.67,5346.18 8025.09,5353.00              8025.09,5353.00 8028.57,5369.00 8028.57,5369.00              8028.57,5369.00 8030.00,5395.00 8030.00,5395.00              8030.00,5395.00 8030.96,5409.00 8030.96,5409.00              8030.77,5413.93 8029.58,5416.45 8030.17,5422.00              8030.90,5428.83 8034.00,5432.05 8033.87,5438.00              8033.87,5438.00 8030.09,5463.00 8030.09,5463.00              8030.50,5469.68 8032.89,5470.79 8033.00,5479.00              8033.00,5479.00 8032.09,5495.00 8032.09,5495.00              8032.44,5500.64 8034.73,5503.32 8034.23,5508.00              8034.23,5508.00 8033.07,5514.00 8033.07,5514.00              8033.07,5514.00 8033.07,5524.00 8033.07,5524.00              8033.07,5524.00 8032.09,5532.00 8032.09,5532.00              8031.64,5539.96 8035.43,5545.91 8035.13,5551.00              8034.38,5563.45 8030.90,5565.39 8029.47,5573.00              8029.47,5573.00 8028.83,5586.00 8028.83,5586.00              8028.83,5586.00 8027.01,5607.00 8027.01,5607.00              8027.19,5614.53 8029.80,5618.55 8029.55,5622.00              8029.23,5626.35 8024.50,5630.34 8025.09,5640.00              8025.09,5640.00 8026.70,5649.00 8026.70,5649.00              8026.70,5649.00 8027.49,5661.00 8027.49,5661.00              8027.49,5661.00 8026.04,5674.00 8026.04,5674.00              8026.04,5674.00 8026.04,5688.00 8026.04,5688.00              8026.04,5688.00 8028.00,5707.00 8028.00,5707.00              8028.00,5707.00 8026.21,5746.00 8026.21,5746.00              8026.21,5746.00 8026.21,5758.00 8026.21,5758.00              8025.73,5761.41 8021.52,5767.26 8019.95,5771.00              8019.95,5771.00 8016.26,5785.00 8016.26,5785.00              8012.70,5793.75 8010.27,5794.02 8007.40,5800.00              8004.06,5806.96 8006.08,5810.74 8003.40,5815.00              7999.91,5820.57 7992.41,5826.18 7988.33,5831.01              7984.16,5835.95 7982.29,5842.83 7978.75,5845.77              7972.46,5851.00 7970.64,5850.20 7964.00,5852.55              7964.00,5852.55 7956.00,5855.70 7956.00,5855.70              7951.52,5857.00 7948.49,5857.13 7944.00,5859.38              7944.00,5859.38 7931.00,5867.81 7931.00,5867.81              7931.00,5867.81 7920.00,5872.48 7920.00,5872.48              7910.65,5878.06 7915.37,5880.14 7903.00,5880.00              7903.00,5880.00 7888.00,5879.01 7888.00,5879.01              7879.41,5879.21 7877.34,5882.06 7872.00,5881.79              7872.00,5881.79 7864.00,5880.30 7864.00,5880.30              7864.00,5880.30 7844.00,5879.09 7844.00,5879.09              7833.64,5879.80 7829.24,5885.23 7824.00,5884.80              7819.86,5884.46 7815.42,5879.65 7812.00,5877.16              7806.16,5872.90 7800.30,5870.33 7793.00,5870.04              7780.98,5869.55 7777.42,5874.53 7772.00,5876.93              7767.84,5878.77 7764.53,5878.19 7759.00,5881.48              7754.85,5883.95 7752.45,5887.12 7748.00,5889.06              7740.09,5892.50 7738.28,5889.64 7731.00,5890.09              7724.64,5890.49 7721.44,5893.00 7718.00,5893.57              7718.00,5893.57 7701.10,5891.57 7701.10,5891.57              7696.19,5890.08 7696.57,5885.06 7689.96,5879.33              7682.52,5872.88 7679.61,5875.70 7668.00,5868.00              7669.82,5861.09 7671.82,5857.60 7670.70,5850.00              7668.51,5835.13 7654.24,5826.46 7640.00,5827.04              7628.12,5827.52 7623.63,5832.66 7618.00,5834.35              7612.70,5835.94 7608.40,5833.61 7600.00,5837.35              7593.79,5840.11 7588.20,5845.85 7584.00,5845.86              7581.43,5845.86 7577.43,5843.09 7575.00,5841.86              7566.24,5837.42 7562.49,5833.62 7552.00,5834.04              7541.49,5834.46 7536.15,5839.69 7531.00,5840.57              7531.00,5840.57 7511.00,5840.00 7511.00,5840.00              7511.00,5840.00 7500.00,5840.51 7500.00,5840.51              7500.00,5840.51 7487.00,5836.45 7487.00,5836.45              7477.25,5834.38 7475.46,5835.48 7470.00,5834.70              7458.66,5833.08 7455.78,5831.15 7443.00,5831.00              7436.43,5830.92 7420.41,5829.05 7414.00,5827.62              7414.00,5827.62 7401.00,5823.67 7401.00,5823.67              7401.00,5823.67 7391.00,5822.63 7391.00,5822.63              7386.93,5821.85 7385.19,5820.45 7380.00,5820.09              7370.54,5819.44 7366.47,5823.56 7357.00,5822.91              7357.00,5822.91 7336.00,5819.33 7336.00,5819.33              7336.00,5819.33 7322.00,5819.33 7322.00,5819.33              7322.00,5819.33 7303.00,5818.09 7303.00,5818.09              7298.24,5818.36 7296.83,5819.22 7291.00,5818.96              7291.00,5818.96 7276.00,5817.00 7276.00,5817.00              7276.00,5817.00 7251.00,5817.00 7251.00,5817.00              7251.00,5817.00 7222.00,5815.04 7222.00,5815.04              7222.00,5815.04 7205.00,5816.00 7205.00,5816.00              7195.70,5815.89 7197.15,5813.87 7185.00,5814.00              7179.35,5814.07 7179.07,5814.62 7174.00,5815.54              7174.00,5815.54 7165.00,5816.80 7165.00,5816.80              7157.82,5818.18 7151.45,5820.12 7144.00,5820.41              7144.00,5820.41 7129.00,5819.09 7129.00,5819.09              7123.12,5818.76 7120.99,5820.29 7116.00,5820.92              7116.00,5820.92 7101.00,5820.92 7101.00,5820.92              7101.00,5820.92 7083.00,5822.54 7083.00,5822.54              7075.32,5821.59 7081.40,5820.23 7064.00,5820.00              7055.30,5819.88 7052.98,5816.64 7045.00,5816.09              7045.00,5816.09 7022.00,5818.00 7022.00,5818.00              7022.00,5818.00 6988.00,5817.00 6988.00,5817.00              6988.00,5817.00 6969.00,5819.00 6969.00,5819.00              6969.00,5819.00 6954.00,5819.00 6954.00,5819.00              6954.00,5819.00 6941.00,5820.00 6941.00,5820.00              6934.04,5820.08 6926.89,5819.69 6920.00,5818.70              6920.00,5818.70 6911.00,5817.09 6911.00,5817.09              6911.00,5817.09 6892.00,5818.00 6892.00,5818.00              6879.13,5818.06 6880.43,5816.53 6873.00,5816.27              6873.00,5816.27 6866.00,5816.27 6866.00,5816.27              6866.00,5816.27 6856.00,5816.27 6856.00,5816.27              6856.00,5816.27 6843.00,5816.27 6843.00,5816.27              6843.00,5816.27 6813.00,5813.71 6813.00,5813.71              6813.00,5813.71 6797.00,5811.02 6797.00,5811.02              6789.32,5810.86 6787.76,5812.34 6781.00,5813.54              6781.00,5813.54 6773.00,5814.30 6773.00,5814.30              6767.36,5815.11 6761.77,5817.23 6756.00,5816.82              6756.00,5816.82 6725.00,5814.00 6725.00,5814.00              6725.00,5814.00 6714.00,5814.82 6714.00,5814.82              6714.00,5814.82 6707.00,5814.04 6707.00,5814.04              6707.00,5814.04 6696.00,5814.04 6696.00,5814.04              6696.00,5814.04 6672.00,5815.00 6672.00,5815.00              6672.00,5815.00 6660.00,5814.01 6660.00,5814.01              6647.81,5813.74 6645.44,5817.32 6640.00,5817.70              6640.00,5817.70 6624.00,5815.04 6624.00,5815.04              6624.00,5815.04 6595.00,5816.49 6595.00,5816.49              6580.12,5815.54 6582.68,5811.70 6569.00,5812.01              6569.00,5812.01 6560.00,5813.04 6560.00,5813.04              6560.00,5813.04 6549.00,5813.04 6549.00,5813.04              6544.81,5813.59 6541.28,5815.00 6537.00,5814.68              6537.00,5814.68 6526.00,5814.01 6526.00,5814.01              6526.00,5814.01 6518.00,5814.53 6518.00,5814.53              6518.00,5814.53 6490.00,5810.01 6490.00,5810.01              6483.98,5810.15 6481.44,5811.57 6476.00,5812.54              6476.00,5812.54 6458.00,5813.86 6458.00,5813.86              6458.00,5813.86 6435.00,5808.43 6435.00,5808.43              6435.00,5808.43 6427.00,5807.70 6427.00,5807.70              6420.47,5806.76 6420.77,5805.84 6413.00,5806.01              6413.00,5806.01 6397.00,5807.00 6397.00,5807.00              6383.61,5807.02 6384.10,5809.77 6377.00,5810.90              6377.00,5810.90 6367.00,5810.90 6367.00,5810.90              6367.00,5810.90 6354.00,5812.00 6354.00,5812.00              6354.00,5812.00 6331.00,5813.17 6331.00,5813.17              6331.00,5813.17 6313.00,5814.68 6313.00,5814.68              6313.00,5814.68 6305.00,5814.00 6305.00,5814.00              6305.00,5814.00 6277.00,5815.49 6277.00,5815.49              6277.00,5815.49 6251.00,5813.82 6251.00,5813.82              6244.80,5813.07 6244.00,5811.11 6235.00,5811.00              6228.63,5810.93 6224.08,5811.37 6218.00,5813.55              6213.25,5815.24 6209.25,5818.20 6204.00,5818.61              6204.00,5818.61 6194.00,5818.01 6194.00,5818.01              6194.00,5818.01 6183.00,5818.68 6183.00,5818.68              6183.00,5818.68 6175.00,5817.83 6175.00,5817.83              6169.17,5817.14 6168.13,5815.76 6161.00,5816.04              6161.00,5816.04 6153.00,5816.96 6153.00,5816.96              6153.00,5816.96 6137.00,5816.96 6137.00,5816.96              6137.00,5816.96 6123.00,5817.96 6123.00,5817.96              6123.00,5817.96 6107.00,5816.01 6107.00,5816.01              6107.00,5816.01 6095.00,5816.61 6095.00,5816.61              6095.00,5816.61 6088.00,5815.15 6088.00,5815.15              6088.00,5815.15 6078.00,5815.15 6078.00,5815.15              6069.02,5815.01 6068.07,5816.11 6060.00,5817.54              6060.00,5817.54 6052.00,5818.46 6052.00,5818.46              6042.32,5820.19 6036.28,5821.98 6026.00,5822.00              6026.00,5822.00 6008.00,5822.00 6008.00,5822.00              6008.00,5822.00 5998.00,5822.82 5998.00,5822.82              5998.00,5822.82 5987.00,5821.04 5987.00,5821.04              5987.00,5821.04 5966.00,5821.04 5966.00,5821.04              5957.09,5821.01 5953.14,5822.65 5945.00,5823.86              5945.00,5823.86 5934.00,5823.86 5934.00,5823.86              5934.00,5823.86 5912.00,5825.98 5912.00,5825.98              5912.00,5825.98 5891.00,5825.98 5891.00,5825.98              5891.00,5825.98 5883.00,5826.95 5883.00,5826.95              5883.00,5826.95 5867.00,5826.95 5867.00,5826.95              5867.00,5826.95 5849.00,5825.00 5849.00,5825.00              5849.00,5825.00 5839.00,5825.00 5839.00,5825.00              5831.45,5824.91 5828.77,5823.17 5822.00,5822.10              5822.00,5822.10 5812.00,5822.10 5812.00,5822.10              5812.00,5822.10 5804.00,5821.04 5804.00,5821.04              5793.51,5820.60 5783.37,5824.54 5773.00,5825.19              5773.00,5825.19 5750.00,5825.19 5750.00,5825.19              5739.58,5825.13 5726.31,5828.61 5723.00,5828.74              5723.00,5828.74 5716.00,5828.09 5716.00,5828.09              5716.00,5828.09 5699.00,5829.68 5699.00,5829.68              5679.63,5828.23 5684.55,5830.85 5672.00,5831.00              5672.00,5831.00 5654.00,5831.00 5654.00,5831.00              5654.00,5831.00 5644.00,5831.96 5644.00,5831.96              5644.00,5831.96 5630.00,5831.96 5630.00,5831.96              5630.00,5831.96 5617.00,5832.90 5617.00,5832.90              5617.00,5832.90 5592.00,5830.04 5592.00,5830.04              5592.00,5830.04 5584.00,5830.91 5584.00,5830.91              5584.00,5830.91 5561.00,5832.09 5561.00,5832.09              5561.00,5832.09 5549.00,5833.16 5549.00,5833.16              5549.00,5833.16 5525.00,5833.16 5525.00,5833.16              5525.00,5833.16 5511.00,5833.16 5511.00,5833.16              5511.00,5833.16 5488.00,5834.17 5488.00,5834.17              5488.00,5834.17 5474.00,5834.17 5474.00,5834.17              5474.00,5834.17 5464.00,5835.83 5464.00,5835.83              5454.76,5836.93 5448.27,5837.10 5439.00,5837.00              5439.00,5837.00 5414.00,5835.00 5414.00,5835.00              5404.31,5834.83 5397.91,5827.36 5386.00,5828.09              5377.79,5828.60 5367.92,5835.28 5360.00,5838.04              5356.40,5839.29 5353.67,5838.81 5350.00,5839.46              5335.98,5841.95 5345.73,5842.03 5329.00,5842.00              5329.00,5842.00 5315.00,5842.00 5315.00,5842.00              5315.00,5842.00 5292.00,5840.00 5292.00,5840.00              5292.00,5840.00 5267.00,5838.71 5267.00,5838.71              5260.01,5837.80 5256.62,5835.74 5249.00,5836.04              5249.00,5836.04 5241.00,5836.96 5241.00,5836.96              5241.00,5836.96 5224.00,5836.96 5224.00,5836.96              5224.00,5836.96 5209.00,5836.04 5209.00,5836.04              5209.00,5836.04 5199.00,5837.49 5199.00,5837.49              5194.92,5837.50 5192.29,5835.03 5185.00,5835.03              5178.82,5835.03 5176.60,5836.69 5173.00,5837.06              5173.00,5837.06 5164.00,5837.06 5164.00,5837.06              5164.00,5837.06 5144.00,5836.04 5144.00,5836.04              5144.00,5836.04 5134.00,5837.66 5134.00,5837.66              5134.00,5837.66 5124.00,5837.05 5124.00,5837.05              5124.00,5837.05 5116.00,5837.82 5116.00,5837.82              5111.59,5837.80 5109.29,5836.01 5102.00,5836.01              5102.00,5836.01 5088.00,5837.00 5088.00,5837.00              5088.00,5837.00 5058.00,5837.00 5058.00,5837.00              5058.00,5837.00 5043.00,5836.04 5043.00,5836.04              5035.09,5836.38 5037.35,5838.07 5022.00,5838.00              5022.00,5838.00 5011.00,5837.04 5011.00,5837.04              5011.00,5837.04 4997.00,5837.04 4997.00,5837.04              4984.48,5837.02 4981.89,5840.54 4972.00,5840.96              4972.00,5840.96 4958.00,5840.03 4958.00,5840.03              4958.00,5840.03 4945.00,5841.13 4945.00,5841.13              4945.00,5841.13 4918.00,5841.13 4918.00,5841.13              4918.00,5841.13 4906.00,5840.04 4906.00,5840.04              4906.00,5840.04 4890.00,5840.04 4890.00,5840.04              4876.21,5839.98 4876.26,5835.37 4865.00,5836.09              4857.41,5836.57 4849.39,5837.02 4842.00,5838.90              4828.34,5842.37 4820.45,5846.98 4805.00,5847.00              4805.00,5847.00 4780.00,5847.00 4780.00,5847.00              4780.00,5847.00 4765.00,5847.91 4765.00,5847.91              4765.00,5847.91 4742.00,5845.01 4742.00,5845.01              4742.00,5845.01 4730.00,5846.16 4730.00,5846.16              4724.98,5845.70 4724.26,5844.58 4718.00,5845.17              4718.00,5845.17 4698.00,5848.95 4698.00,5848.95              4690.46,5849.28 4688.89,5846.62 4679.00,5847.04              4679.00,5847.04 4657.00,5849.00 4657.00,5849.00              4657.00,5849.00 4634.00,5849.00 4634.00,5849.00              4634.00,5849.00 4618.00,5849.98 4618.00,5849.98              4618.00,5849.98 4603.00,5848.04 4603.00,5848.04              4603.00,5848.04 4591.00,5848.81 4591.00,5848.81              4585.43,5848.35 4584.69,5846.67 4576.00,5847.04              4576.00,5847.04 4553.00,5848.86 4553.00,5848.86              4549.00,5848.66 4544.91,5846.37 4541.00,5845.21              4535.52,5843.58 4529.69,5843.01 4524.00,5843.00              4524.00,5843.00 4503.00,5843.00 4503.00,5843.00              4503.00,5843.00 4488.00,5842.18 4488.00,5842.18              4488.00,5842.18 4480.00,5842.18 4480.00,5842.18              4480.00,5842.18 4471.00,5842.18 4471.00,5842.18              4463.32,5842.19 4460.64,5844.52 4455.00,5844.90              4455.00,5844.90 4442.00,5844.14 4442.00,5844.14              4442.00,5844.14 4425.00,5844.14 4425.00,5844.14              4425.00,5844.14 4415.00,5844.14 4415.00,5844.14              4415.00,5844.14 4399.00,5843.01 4399.00,5843.01              4399.00,5843.01 4366.00,5846.82 4366.00,5846.82              4366.00,5846.82 4344.00,5844.17 4344.00,5844.17              4344.00,5844.17 4329.00,5844.91 4329.00,5844.91              4329.00,5844.91 4322.00,5843.89 4322.00,5843.89              4322.00,5843.89 4312.00,5843.89 4312.00,5843.89              4306.49,5842.92 4306.80,5842.08 4300.00,5842.15              4300.00,5842.15 4288.00,5842.15 4288.00,5842.15              4284.47,5842.82 4281.57,5844.40 4278.00,5843.92              4274.34,5843.43 4272.17,5841.71 4266.00,5842.09              4266.00,5842.09 4254.00,5844.59 4254.00,5844.59              4250.18,5844.59 4248.09,5842.05 4238.00,5842.00              4238.00,5842.00 4216.00,5842.90 4216.00,5842.90              4216.00,5842.90 4204.00,5839.47 4204.00,5839.47              4204.00,5839.47 4196.00,5838.62 4196.00,5838.62              4192.81,5837.99 4175.21,5832.99 4173.00,5831.58              4173.00,5831.58 4156.63,5818.62 4156.63,5818.62              4154.33,5816.08 4153.25,5812.33 4148.91,5808.18              4144.28,5803.77 4140.24,5803.33 4136.95,5798.90              4136.95,5798.90 4130.69,5788.00 4130.69,5788.00              4130.69,5788.00 4124.77,5779.00 4124.77,5779.00              4118.15,5768.09 4120.23,5769.06 4109.00,5761.14              4102.25,5756.38 4098.32,5754.85 4090.00,5755.02              4073.95,5755.33 4065.69,5769.02 4059.27,5782.00              4057.55,5785.48 4057.13,5787.59 4054.88,5791.00              4048.70,5800.39 4031.95,5822.98 4024.00,5829.70              4018.22,5834.58 4015.99,5834.15 4010.00,5837.44              4010.00,5837.44 3997.00,5845.07 3997.00,5845.07              3990.25,5847.90 3980.80,5845.44 3974.00,5846.17              3965.02,5847.13 3956.16,5851.88 3947.00,5852.00              3935.92,5852.14 3938.15,5851.04 3930.00,5850.09              3930.00,5850.09 3913.00,5850.09 3913.00,5850.09              3900.77,5849.94 3900.17,5844.40 3889.00,5845.09              3874.49,5845.99 3877.66,5854.36 3862.00,5853.99              3854.58,5853.81 3853.49,5851.85 3845.00,5852.02              3845.00,5852.02 3829.00,5854.53 3829.00,5854.53              3829.00,5854.53 3817.00,5854.01 3817.00,5854.01              3817.00,5854.01 3808.00,5854.96 3808.00,5854.96              3808.00,5854.96 3791.00,5854.96 3791.00,5854.96              3791.00,5854.96 3762.00,5857.00 3762.00,5857.00              3762.00,5857.00 3744.00,5856.04 3744.00,5856.04              3744.00,5856.04 3731.00,5857.78 3731.00,5857.78              3726.05,5857.39 3722.54,5854.29 3715.00,5854.04              3715.00,5854.04 3696.00,5856.09 3696.00,5856.09              3696.00,5856.09 3680.00,5856.09 3680.00,5856.09              3674.30,5856.78 3673.28,5858.24 3666.00,5857.96              3666.00,5857.96 3657.00,5857.16 3657.00,5857.16              3657.00,5857.16 3647.00,5857.16 3647.00,5857.16              3647.00,5857.16 3628.00,5857.16 3628.00,5857.16              3628.00,5857.16 3606.00,5858.19 3606.00,5858.19              3606.00,5858.19 3596.00,5858.19 3596.00,5858.19              3596.00,5858.19 3584.00,5858.19 3584.00,5858.19              3584.00,5858.19 3572.00,5859.96 3572.00,5859.96              3572.00,5859.96 3560.00,5859.96 3560.00,5859.96              3560.00,5859.96 3533.00,5862.00 3533.00,5862.00              3533.00,5862.00 3521.00,5862.00 3521.00,5862.00              3511.07,5862.02 3513.01,5863.08 3506.00,5863.91              3506.00,5863.91 3494.00,5863.91 3494.00,5863.91              3494.00,5863.91 3476.00,5863.00 3476.00,5863.00              3466.11,5863.05 3458.58,5865.60 3455.00,5865.74              3455.00,5865.74 3434.00,5864.04 3434.00,5864.04              3430.17,5863.89 3426.63,5864.24 3423.00,5865.56              3420.49,5866.47 3417.65,5868.44 3415.00,5868.23              3411.95,5868.00 3409.16,5864.95 3402.00,5864.17              3402.00,5864.17 3381.00,5865.43 3381.00,5865.43              3381.00,5865.43 3362.00,5864.20 3362.00,5864.20              3362.00,5864.20 3353.00,5864.20 3353.00,5864.20              3353.00,5864.20 3342.00,5863.04 3342.00,5863.04              3334.92,5862.76 3327.91,5865.17 3321.00,5866.55              3309.30,5868.90 3297.97,5871.14 3286.00,5871.00              3286.00,5871.00 3264.00,5869.00 3264.00,5869.00              3264.00,5869.00 3244.00,5870.04 3244.00,5870.04              3244.00,5870.04 3235.00,5870.04 3235.00,5870.04              3235.00,5870.04 3224.00,5872.37 3224.00,5872.37              3220.70,5872.60 3217.39,5871.34 3214.00,5871.09              3214.00,5871.09 3193.00,5871.09 3193.00,5871.09              3193.00,5871.09 3181.00,5871.09 3181.00,5871.09              3173.54,5871.97 3175.96,5873.12 3165.00,5873.00              3165.00,5873.00 3142.00,5870.04 3142.00,5870.04              3142.00,5870.04 3130.00,5870.96 3130.00,5870.96              3121.00,5871.31 3119.94,5868.68 3111.00,5869.04              3111.00,5869.04 3094.00,5871.91 3094.00,5871.91              3094.00,5871.91 3073.00,5871.00 3073.00,5871.00              3073.00,5871.00 3062.00,5871.79 3062.00,5871.79              3057.98,5871.53 3054.92,5869.73 3049.00,5870.09              3049.00,5870.09 3037.00,5872.24 3037.00,5872.24              3037.00,5872.24 3026.00,5872.24 3026.00,5872.24              3019.05,5872.32 3018.95,5874.21 3009.00,5873.99              3009.00,5873.99 2972.00,5871.01 2972.00,5871.01              2972.00,5871.01 2954.00,5873.00 2954.00,5873.00              2936.92,5873.03 2937.55,5875.98 2923.00,5876.91              2915.80,5877.37 2913.75,5875.48 2908.00,5875.09              2902.81,5874.74 2900.61,5875.78 2896.00,5875.96              2896.00,5875.96 2883.00,5875.01 2883.00,5875.01              2883.00,5875.01 2865.00,5876.00 2865.00,5876.00              2856.58,5875.96 2857.23,5874.84 2851.00,5874.09              2851.00,5874.09 2837.00,5874.09 2837.00,5874.09              2837.00,5874.09 2827.00,5874.91 2827.00,5874.91              2827.00,5874.91 2811.00,5873.82 2811.00,5873.82              2802.88,5872.80 2799.56,5867.50 2789.00,5867.04              2778.37,5866.58 2777.17,5869.22 2768.00,5871.62              2754.43,5875.17 2758.11,5873.00 2749.00,5874.30              2749.00,5874.30 2740.00,5875.91 2740.00,5875.91              2731.25,5876.55 2730.48,5875.37 2723.00,5874.30              2723.00,5874.30 2706.00,5873.01 2706.00,5873.01              2695.03,5873.01 2692.28,5877.14 2686.00,5876.67              2679.84,5876.21 2670.08,5872.60 2662.00,5873.09              2662.00,5873.09 2638.00,5877.89 2638.00,5877.89              2638.00,5877.89 2623.00,5877.04 2623.00,5877.04              2623.00,5877.04 2613.00,5877.04 2613.00,5877.04              2613.00,5877.04 2605.00,5877.92 2605.00,5877.92              2605.00,5877.92 2594.00,5877.00 2594.00,5877.00              2588.57,5876.94 2582.16,5876.61 2577.00,5878.22              2572.19,5879.72 2568.10,5883.09 2563.00,5883.66              2563.00,5883.66 2549.00,5883.09 2549.00,5883.09              2549.00,5883.09 2515.00,5887.00 2515.00,5887.00              2515.00,5887.00 2498.00,5887.00 2498.00,5887.00              2491.06,5887.09 2488.84,5888.97 2483.00,5889.79              2483.00,5889.79 2461.00,5891.93 2461.00,5891.93              2454.23,5893.78 2453.55,5896.67 2443.00,5898.54              2443.00,5898.54 2430.00,5899.17 2430.00,5899.17              2430.00,5899.17 2417.00,5900.17 2417.00,5900.17              2417.00,5900.17 2409.00,5901.53 2409.00,5901.53              2409.00,5901.53 2398.00,5901.01 2398.00,5901.01              2388.22,5901.24 2383.09,5905.10 2375.00,5906.88              2357.76,5910.66 2358.98,5906.87 2347.00,5908.17              2339.83,5908.95 2338.47,5911.77 2331.00,5911.98              2315.96,5912.42 2304.66,5901.91 2288.00,5905.68              2278.25,5907.88 2275.57,5911.09 2268.00,5916.38              2268.00,5916.38 2260.01,5921.53 2260.01,5921.53              2260.01,5921.53 2252.83,5927.98 2252.83,5927.98              2249.15,5930.06 2239.37,5929.98 2235.00,5930.00              2235.00,5930.00 2216.00,5931.00 2216.00,5931.00              2216.00,5931.00 2204.00,5931.99 2204.00,5931.99              2193.59,5932.22 2193.69,5930.00 2186.00,5929.17              2177.50,5928.26 2175.71,5930.11 2169.00,5930.83              2165.24,5931.23 2163.10,5930.74 2159.00,5931.68              2159.00,5931.68 2138.00,5939.25 2138.00,5939.25              2138.00,5939.25 2121.00,5944.62 2121.00,5944.62              2121.00,5944.62 2112.00,5946.22 2112.00,5946.22              2107.25,5947.70 2102.99,5950.83 2098.00,5951.49              2093.83,5952.05 2091.00,5950.21 2087.00,5949.47              2087.00,5949.47 2065.00,5947.01 2065.00,5947.01              2056.00,5946.81 2056.57,5948.12 2050.00,5948.92              2050.00,5948.92 2040.00,5948.92 2040.00,5948.92              2031.68,5949.10 2030.68,5950.92 2026.00,5951.20              2016.99,5951.74 2014.80,5949.79 2007.00,5947.90              2007.00,5947.90 1999.00,5946.41 1999.00,5946.41              1995.80,5945.19 1992.31,5941.27 1989.00,5939.11              1989.00,5939.11 1980.00,5934.63 1980.00,5934.63              1970.18,5929.08 1969.13,5926.80 1957.00,5927.01              1944.72,5927.23 1949.80,5926.14 1941.00,5925.17              1937.49,5924.79 1932.44,5925.14 1929.21,5923.49              1926.30,5922.01 1923.19,5915.85 1918.99,5912.53              1909.60,5905.12 1897.46,5903.87 1886.00,5904.00              1876.39,5904.12 1872.10,5907.37 1868.00,5907.47              1864.31,5907.55 1859.87,5904.59 1853.00,5904.09              1853.00,5904.09 1833.00,5903.00 1833.00,5903.00              1833.00,5903.00 1815.00,5904.00 1815.00,5904.00              1815.00,5904.00 1802.00,5903.00 1802.00,5903.00              1798.04,5902.96 1790.47,5903.35 1787.00,5902.37              1781.49,5900.80 1778.04,5896.61 1767.00,5897.04              1767.00,5897.04 1745.00,5900.99 1745.00,5900.99              1735.46,5901.22 1733.94,5899.31 1727.00,5899.04              1727.00,5899.04 1712.00,5900.09 1712.00,5900.09              1712.00,5900.09 1701.00,5900.09 1701.00,5900.09              1692.07,5901.13 1695.59,5902.14 1683.00,5902.00              1683.00,5902.00 1655.00,5900.00 1655.00,5900.00              1655.00,5900.00 1631.00,5900.00 1631.00,5900.00              1631.00,5900.00 1616.00,5900.91 1616.00,5900.91              1616.00,5900.91 1600.00,5899.00 1600.00,5899.00              1600.00,5899.00 1591.00,5899.00 1591.00,5899.00              1591.00,5899.00 1583.00,5898.03 1583.00,5898.03              1576.30,5898.03 1573.72,5900.25 1568.00,5899.82              1568.00,5899.82 1545.00,5896.15 1545.00,5896.15              1545.00,5896.15 1532.00,5896.15 1532.00,5896.15              1532.00,5896.15 1524.00,5897.96 1524.00,5897.96              1524.00,5897.96 1516.00,5897.96 1516.00,5897.96              1516.00,5897.96 1502.00,5899.00 1502.00,5899.00              1490.51,5899.02 1491.01,5901.03 1486.00,5901.45              1486.00,5901.45 1471.00,5900.00 1471.00,5900.00              1471.00,5900.00 1455.00,5899.04 1455.00,5899.04              1450.22,5898.89 1448.94,5899.80 1445.00,5900.16              1441.15,5900.52 1438.77,5899.32 1435.00,5899.09              1428.67,5898.71 1420.51,5902.06 1415.00,5901.22              1412.26,5900.81 1408.93,5898.59 1406.00,5897.55              1401.59,5895.98 1397.61,5895.90 1393.00,5896.01              1385.17,5896.20 1382.48,5898.38 1376.00,5899.63              1370.28,5900.72 1359.06,5900.93 1353.00,5901.00              1343.07,5901.12 1340.94,5904.16 1337.00,5904.24              1337.00,5904.24 1327.00,5902.15 1327.00,5902.15              1317.91,5901.18 1309.07,5900.75 1300.00,5902.15              1300.00,5902.15 1280.00,5907.40 1280.00,5907.40              1280.00,5907.40 1271.00,5908.67 1271.00,5908.67              1271.00,5908.67 1262.00,5910.60 1262.00,5910.60              1258.73,5910.76 1256.13,5909.38 1253.00,5908.68              1253.00,5908.68 1233.00,5906.04 1233.00,5906.04              1233.00,5906.04 1214.00,5908.90 1214.00,5908.90              1214.00,5908.90 1203.00,5908.03 1203.00,5908.03              1203.00,5908.03 1180.00,5910.30 1180.00,5910.30              1180.00,5910.30 1165.00,5913.91 1165.00,5913.91              1156.97,5914.55 1151.74,5912.09 1144.00,5912.00              1134.13,5911.89 1135.16,5912.96 1130.00,5913.13              1130.00,5913.13 1108.00,5913.13 1108.00,5913.13              1108.00,5913.13 1079.00,5915.33 1079.00,5915.33              1076.40,5914.83 1072.60,5912.12 1070.00,5910.81              1062.76,5907.17 1055.26,5903.72 1047.00,5904.04              1043.79,5904.16 1030.62,5905.39 1028.00,5906.22              1022.60,5907.95 1020.20,5910.73 1017.00,5912.07              1015.29,5912.79 1007.28,5913.64 1005.00,5913.83              1005.00,5913.83 985.00,5912.71 985.00,5912.71              985.00,5912.71 976.00,5911.27 976.00,5911.27              976.00,5911.27 965.00,5911.27 965.00,5911.27              965.00,5911.27 956.00,5910.20 956.00,5910.20              956.00,5910.20 946.00,5910.20 946.00,5910.20              942.56,5910.09 941.69,5909.15 936.00,5909.01              922.51,5908.70 919.37,5914.09 910.00,5914.53              910.00,5914.53 894.00,5913.61 894.00,5913.61              889.93,5912.75 887.05,5910.28 880.00,5910.04              871.38,5909.75 869.21,5913.01 863.00,5912.53              863.00,5912.53 840.00,5911.00 840.00,5911.00              840.00,5911.00 829.00,5910.04 829.00,5910.04              829.00,5910.04 819.00,5910.74 819.00,5910.74              819.00,5910.74 803.00,5907.30 803.00,5907.30              803.00,5907.30 791.00,5906.37 791.00,5906.37              784.22,5904.50 781.22,5901.59 773.00,5902.09              767.93,5902.40 762.56,5904.96 758.00,5904.44              753.23,5903.90 745.28,5899.59 737.00,5900.09              731.17,5900.45 731.00,5901.96 722.00,5902.00              722.00,5902.00 703.00,5901.04 703.00,5901.04              694.17,5901.40 691.91,5904.78 687.00,5905.73              678.07,5907.45 671.43,5905.57 663.00,5905.09              655.53,5904.67 653.92,5907.37 641.00,5905.72              632.86,5904.68 624.80,5900.65 617.00,5901.09              617.00,5901.09 593.00,5905.94 593.00,5905.94              593.00,5905.94 582.00,5905.94 582.00,5905.94              582.00,5905.94 571.00,5907.92 571.00,5907.92              571.00,5907.92 560.00,5907.09 560.00,5907.09              560.00,5907.09 521.00,5910.00 521.00,5910.00              521.00,5910.00 496.00,5905.17 496.00,5905.17              488.70,5904.45 486.92,5906.19 481.00,5906.92              481.00,5906.92 467.00,5906.92 467.00,5906.92              460.20,5907.08 460.51,5907.92 455.00,5908.70              455.00,5908.70 444.00,5909.30 444.00,5909.30              444.00,5909.30 425.00,5912.83 425.00,5912.83              425.00,5912.83 405.00,5914.17 405.00,5914.17              405.00,5914.17 396.00,5915.54 396.00,5915.54              396.00,5915.54 378.00,5913.01 378.00,5913.01              369.82,5913.01 368.25,5915.28 360.00,5914.96              360.00,5914.96 329.00,5912.00 329.00,5912.00              322.92,5912.01 322.20,5912.68 317.00,5913.23              317.00,5913.23 301.00,5910.62 301.00,5910.62              301.00,5910.62 289.00,5906.16 289.00,5906.16              283.07,5904.55 279.89,5905.10 274.00,5905.00              263.02,5904.80 260.40,5895.42 245.00,5896.04              245.00,5896.04 226.00,5899.00 226.00,5899.00              221.40,5891.12 213.96,5884.35 205.00,5881.93              185.23,5876.57 164.72,5890.53 163.00,5911.00              160.60,5910.16 158.17,5909.36 156.00,5908.01              152.28,5905.70 138.35,5892.66 135.53,5889.00              135.53,5889.00 129.91,5880.00 129.91,5880.00              128.11,5877.20 122.05,5869.95 122.15,5867.00              122.24,5864.55 125.50,5861.15 126.89,5859.00              129.56,5854.88 130.76,5850.89 130.96,5846.00              131.38,5835.74 128.52,5834.33 125.55,5826.00              123.79,5821.08 124.09,5818.88 120.89,5814.00              117.13,5808.25 115.84,5809.21 109.69,5799.00              105.93,5792.75 106.93,5791.85 104.60,5787.00              104.60,5787.00 98.40,5777.00 98.40,5777.00              98.40,5777.00 93.05,5763.00 93.05,5763.00              90.50,5757.16 86.95,5754.73 86.02,5751.00              86.02,5751.00 86.91,5736.00 86.91,5736.00              86.91,5736.00 86.00,5726.00 86.00,5726.00              86.00,5726.00 86.00,5706.00 86.00,5706.00              85.89,5697.13 83.96,5696.37 83.43,5692.00              83.24,5688.84 84.96,5681.15 83.43,5674.00              82.33,5669.69 80.17,5665.50 77.48,5662.01              75.82,5659.86 72.89,5657.46 72.63,5654.83              72.63,5654.83 72.63,5639.00 72.63,5639.00              73.30,5635.49 75.29,5632.24 74.91,5626.00              74.11,5613.06 62.87,5604.84 60.99,5601.58              59.59,5599.13 60.14,5594.98 59.70,5592.00              58.94,5586.83 57.04,5584.24 56.39,5581.00              56.39,5581.00 57.04,5566.00 57.04,5566.00              57.04,5566.00 57.04,5550.00 57.04,5550.00              57.04,5550.00 57.85,5542.00 57.85,5542.00              57.85,5542.00 57.85,5535.00 57.85,5535.00              57.96,5531.22 59.21,5529.28 58.91,5524.00              58.91,5524.00 57.00,5509.00 57.00,5509.00              57.00,5509.00 56.18,5494.00 56.18,5494.00              56.18,5494.00 57.00,5482.00 57.00,5482.00              57.00,5482.00 56.18,5465.00 56.18,5465.00              56.46,5461.03 57.14,5459.63 56.96,5455.00              56.96,5455.00 56.18,5447.00 56.18,5447.00              56.18,5447.00 57.00,5440.00 57.00,5440.00              57.00,5440.00 57.00,5428.00 57.00,5428.00              57.00,5428.00 58.00,5415.00 58.00,5415.00              58.00,5415.00 56.00,5386.00 56.00,5386.00              56.00,5386.00 57.00,5365.00 57.00,5365.00              57.00,5365.00 57.00,5349.00 57.00,5349.00              57.00,5349.00 58.00,5332.00 58.00,5332.00              58.00,5332.00 56.47,5311.00 56.47,5311.00              56.47,5311.00 57.70,5304.00 57.70,5304.00              57.70,5304.00 59.00,5288.00 59.00,5288.00              59.00,5288.00 59.00,5284.00 59.00,5284.00              59.00,5284.00 59.82,5271.00 59.82,5271.00              59.82,5271.00 59.82,5262.00 59.82,5262.00              59.82,5262.00 62.91,5244.00 62.91,5244.00              62.91,5244.00 60.18,5219.00 60.18,5219.00              60.46,5215.15 61.21,5213.32 60.91,5209.00              60.55,5203.81 59.15,5202.06 58.37,5198.00              58.37,5198.00 56.02,5170.00 56.02,5170.00              56.02,5170.00 57.00,5161.00 57.00,5161.00              57.00,5161.00 57.00,5152.00 57.00,5152.00              57.00,5152.00 58.00,5137.00 58.00,5137.00              58.00,5137.00 57.00,5119.00 57.00,5119.00              57.00,5119.00 57.99,5104.00 57.99,5104.00              57.99,5104.00 56.46,5092.00 56.46,5092.00              56.46,5092.00 57.00,5083.00 57.00,5083.00              57.00,5083.00 57.00,5065.00 57.00,5065.00              57.00,5065.00 58.99,5041.00 58.99,5041.00              58.99,5041.00 58.26,5029.00 58.26,5029.00              58.45,5024.16 60.12,5024.08 60.00,5013.00              60.00,5013.00 59.18,5003.00 59.18,5003.00              59.18,5003.00 59.18,4991.00 59.18,4991.00              58.93,4985.27 57.68,4982.83 59.18,4977.00              61.85,4969.02 66.45,4967.04 65.96,4955.00              65.57,4945.41 58.03,4936.45 58.00,4921.00              58.00,4921.00 58.00,4899.00 58.00,4899.00              58.00,4899.00 60.00,4871.00 60.00,4871.00              60.00,4871.00 60.00,4850.00 60.00,4850.00              60.00,4850.00 58.09,4832.00 58.09,4832.00              58.09,4832.00 59.04,4821.00 59.04,4821.00              59.04,4821.00 59.04,4807.00 59.04,4807.00              59.04,4807.00 59.97,4798.00 59.97,4798.00              59.97,4798.00 59.09,4789.00 59.09,4789.00              59.09,4789.00 59.69,4776.00 59.69,4776.00              59.63,4771.08 58.46,4769.55 59.69,4764.00              60.85,4756.29 63.81,4754.54 65.32,4748.00              65.32,4748.00 65.96,4726.00 65.96,4726.00              65.96,4726.00 62.00,4701.00 62.00,4701.00              62.00,4701.00 62.00,4683.00 62.00,4683.00              61.44,4678.73 59.86,4671.95 60.19,4668.00              60.74,4661.30 62.15,4663.81 62.00,4651.00              61.87,4640.42 58.68,4640.35 59.04,4631.00              59.04,4631.00 59.99,4617.00 59.99,4617.00              59.99,4617.00 59.18,4606.00 59.18,4606.00              59.18,4606.00 60.00,4595.00 60.00,4595.00              60.00,4595.00 59.00,4571.00 59.00,4571.00              59.00,4571.00 60.00,4550.00 60.00,4550.00              60.00,4550.00 59.32,4539.00 59.32,4539.00              59.32,4539.00 61.96,4513.00 61.96,4513.00              61.96,4513.00 60.96,4505.00 60.96,4505.00              60.96,4505.00 60.96,4494.00 60.96,4494.00              60.96,4494.00 59.34,4485.00 59.34,4485.00              59.34,4481.64 60.99,4478.64 61.00,4470.00              61.00,4470.00 61.00,4420.00 61.00,4420.00              61.00,4420.00 60.10,4406.00 60.10,4406.00              60.10,4406.00 62.00,4384.00 62.00,4384.00              62.00,4384.00 62.00,4346.00 62.00,4346.00              62.00,4346.00 60.86,4331.00 60.86,4331.00              60.86,4331.00 60.86,4322.00 60.86,4322.00              60.86,4322.00 60.86,4289.00 60.86,4289.00              60.99,4283.02 59.44,4276.84 60.30,4271.00              60.30,4271.00 63.32,4260.00 63.32,4260.00              63.32,4260.00 64.32,4250.00 64.32,4250.00              65.41,4243.39 67.28,4242.17 66.96,4234.00              66.96,4234.00 63.10,4212.00 63.10,4212.00              63.10,4212.00 63.10,4195.00 63.10,4195.00              63.10,4195.00 61.86,4184.00 61.86,4184.00              61.86,4184.00 61.86,4161.00 61.86,4161.00              61.86,4161.00 61.86,4129.00 61.86,4129.00              61.86,4129.00 61.00,4107.00 61.00,4107.00              61.00,4107.00 61.96,4097.00 61.96,4097.00              61.96,4097.00 61.96,4085.00 61.96,4085.00              61.96,4085.00 62.91,4072.00 62.91,4072.00              62.91,4072.00 62.04,4065.00 62.04,4065.00              62.04,4065.00 62.04,4048.00 62.04,4048.00              62.04,4048.00 63.00,4026.00 63.00,4026.00              63.00,4026.00 62.04,4012.00 62.04,4012.00              62.04,4012.00 63.00,3995.00 63.00,3995.00              63.00,3995.00 62.00,3980.00 62.00,3980.00              61.95,3975.66 61.79,3971.23 62.93,3967.00              64.71,3960.37 67.37,3957.93 66.91,3950.00              66.91,3950.00 63.14,3932.00 63.14,3932.00              63.14,3932.00 64.00,3921.00 64.00,3921.00              64.00,3921.00 62.04,3899.00 62.04,3899.00              61.76,3892.50 62.52,3890.71 62.96,3885.00              62.96,3885.00 62.96,3872.00 62.96,3872.00              62.96,3872.00 63.96,3862.00 63.96,3862.00              63.96,3862.00 63.96,3849.00 63.96,3849.00              63.96,3849.00 62.46,3834.00 62.46,3834.00              62.46,3834.00 63.08,3826.00 63.08,3826.00              63.08,3826.00 63.08,3814.00 63.08,3814.00              63.70,3809.07 65.26,3806.75 64.91,3801.00              64.91,3801.00 63.81,3793.00 63.81,3793.00              63.81,3793.00 63.81,3783.00 63.81,3783.00              63.81,3783.00 63.00,3765.00 63.00,3765.00              63.00,3765.00 64.00,3750.00 64.00,3750.00              64.00,3750.00 64.00,3713.00 64.00,3713.00              64.00,3713.00 63.32,3702.00 63.32,3702.00              63.32,3702.00 64.00,3651.00 64.00,3651.00              64.00,3651.00 63.32,3640.00 63.32,3640.00              63.32,3640.00 64.96,3613.00 64.96,3613.00              64.96,3613.00 62.84,3591.00 62.84,3591.00              63.53,3584.43 65.98,3584.58 66.00,3572.00              66.00,3572.00 66.00,3568.00 66.00,3568.00              66.00,3568.00 64.87,3555.00 64.87,3555.00              64.87,3555.00 64.87,3536.00 64.87,3536.00              64.87,3536.00 64.87,3528.00 64.87,3528.00              64.87,3528.00 64.87,3519.00 64.87,3519.00              64.87,3519.00 64.04,3508.00 64.04,3508.00              64.04,3508.00 65.00,3497.00 65.00,3497.00              65.00,3497.00 64.00,3475.00 64.00,3475.00              64.00,3475.00 64.00,3444.00 64.00,3444.00              64.00,3444.00 64.92,3429.00 64.92,3429.00              64.92,3429.00 64.92,3352.00 64.92,3352.00              64.92,3352.00 64.92,3342.00 64.92,3342.00              65.02,3337.21 65.99,3338.19 66.00,3329.00              66.00,3329.00 66.00,3315.00 66.00,3315.00              66.00,3315.00 65.00,3300.00 65.00,3300.00              65.00,3300.00 65.00,3263.00 65.00,3263.00              65.00,3263.00 67.00,3244.00 67.00,3244.00              67.00,3244.00 66.00,3221.00 66.00,3221.00              66.00,3221.00 66.00,3196.00 66.00,3196.00              66.00,3196.00 66.00,3172.00 66.00,3172.00              66.00,3172.00 66.91,3157.00 66.91,3157.00              66.91,3157.00 66.00,3147.00 66.00,3147.00              66.00,3147.00 66.00,3122.00 66.00,3122.00              66.00,3122.00 66.87,3109.00 66.87,3109.00              66.87,3109.00 66.87,3102.00 66.87,3102.00              66.87,3102.00 66.87,3090.00 66.87,3090.00              66.87,3090.00 66.87,3070.00 66.87,3070.00              66.87,3070.00 67.91,3056.00 67.91,3056.00              67.91,3056.00 67.00,3045.00 67.00,3045.00              67.00,3045.00 67.00,3016.00 67.00,3016.00              67.00,3016.00 66.00,3000.00 66.00,3000.00              66.00,3000.00 66.00,2976.00 66.00,2976.00              66.00,2976.00 66.99,2963.00 66.99,2963.00              66.99,2963.00 66.00,2950.00 66.00,2950.00              66.00,2950.00 66.00,2931.00 66.00,2931.00              66.00,2931.00 68.00,2899.00 68.00,2899.00              68.00,2899.00 67.00,2884.00 67.00,2884.00              67.00,2884.00 67.00,2811.00 67.00,2811.00              67.00,2811.00 68.00,2795.00 68.00,2795.00              68.00,2795.00 67.04,2781.00 67.04,2781.00              67.04,2781.00 68.00,2768.00 68.00,2768.00              68.00,2768.00 68.00,2684.00 68.00,2684.00              68.00,2684.00 69.00,2668.00 69.00,2668.00              69.00,2668.00 68.10,2656.00 68.10,2656.00              68.10,2656.00 68.97,2647.00 68.97,2647.00              68.97,2647.00 68.08,2637.00 68.08,2637.00              68.08,2637.00 69.00,2624.00 69.00,2624.00              69.00,2624.00 69.00,2603.00 69.00,2603.00              69.00,2603.00 70.00,2587.00 70.00,2587.00              70.00,2587.00 70.00,2545.00 70.00,2545.00              70.00,2545.00 70.96,2530.00 70.96,2530.00              70.96,2530.00 70.04,2521.00 70.04,2521.00              70.04,2521.00 71.00,2507.00 71.00,2507.00              71.00,2507.00 71.00,2495.00 71.00,2495.00              71.00,2495.00 71.87,2477.00 71.87,2477.00              71.87,2477.00 71.87,2445.00 71.87,2445.00              71.87,2445.00 72.95,2435.00 72.95,2435.00              72.95,2435.00 72.95,2422.00 72.95,2422.00              72.95,2422.00 72.09,2409.00 72.09,2409.00              72.09,2409.00 73.00,2402.00 73.00,2402.00              73.00,2402.00 73.00,2392.00 73.00,2392.00              73.00,2392.00 73.98,2383.00 73.98,2383.00              73.98,2383.00 73.04,2371.00 73.04,2371.00              73.04,2371.00 74.00,2355.00 74.00,2355.00              74.00,2355.00 74.00,2310.00 74.00,2310.00              74.00,2310.00 75.00,2295.00 75.00,2295.00              75.00,2295.00 75.00,2283.00 75.00,2283.00              75.00,2283.00 74.18,2271.00 74.18,2271.00              74.18,2271.00 74.86,2261.00 74.86,2261.00              74.86,2261.00 74.86,2255.00 74.86,2255.00              75.00,2250.62 76.18,2250.44 75.99,2242.00              75.99,2242.00 75.01,2230.00 75.01,2230.00              75.01,2230.00 75.90,2216.00 75.90,2216.00              75.90,2216.00 75.90,2193.00 75.90,2193.00              75.90,2193.00 75.90,2186.00 75.90,2186.00              75.90,2186.00 75.05,2178.00 75.05,2178.00              75.05,2178.00 75.05,2164.00 75.05,2164.00              75.05,2164.00 75.96,2154.00 75.96,2154.00              75.96,2154.00 75.96,2143.00 75.96,2143.00              75.96,2143.00 76.96,2128.00 76.96,2128.00              76.96,2128.00 76.96,2113.00 76.96,2113.00              76.96,2113.00 76.00,2100.00 76.00,2100.00              76.00,2100.00 76.88,2087.00 76.88,2087.00              76.88,2087.00 76.88,2069.00 76.88,2069.00              76.88,2069.00 76.88,2059.00 76.88,2059.00              76.88,2059.00 76.88,2010.00 76.88,2010.00              76.88,2010.00 77.91,1997.00 77.91,1997.00              77.91,1997.00 77.04,1986.00 77.04,1986.00              77.04,1986.00 78.00,1975.00 78.00,1975.00              78.00,1975.00 78.00,1957.00 78.00,1957.00              78.00,1957.00 78.91,1943.00 78.91,1943.00              78.91,1943.00 78.00,1931.00 78.00,1931.00              78.00,1931.00 78.00,1911.00 78.00,1911.00              78.00,1911.00 78.97,1899.00 78.97,1899.00              78.97,1899.00 78.00,1885.00 78.00,1885.00              78.00,1885.00 78.00,1871.00 78.00,1871.00              78.00,1871.00 79.00,1855.00 79.00,1855.00              79.00,1855.00 79.00,1811.00 79.00,1811.00              79.00,1811.00 79.95,1796.00 79.95,1796.00              79.95,1796.00 79.95,1772.00 79.95,1772.00              79.95,1772.00 79.00,1759.00 79.00,1759.00              79.00,1759.00 79.00,1742.00 79.00,1742.00              79.00,1742.00 80.00,1729.00 80.00,1729.00              80.00,1729.00 79.01,1714.00 79.01,1714.00              79.01,1714.00 80.00,1699.00 80.00,1699.00              80.00,1699.00 80.00,1658.00 80.00,1658.00              80.00,1658.00 79.00,1639.00 79.00,1639.00              79.00,1639.00 80.00,1626.00 80.00,1626.00              80.00,1626.00 80.00,1577.00 80.00,1577.00              80.00,1577.00 79.34,1566.00 79.34,1566.00              79.34,1566.00 80.00,1555.00 80.00,1555.00              80.00,1555.00 80.00,1518.00 80.00,1518.00              80.00,1518.00 81.00,1501.00 81.00,1501.00              81.00,1501.00 81.00,1394.00 81.00,1394.00              81.00,1394.00 81.00,1369.00 81.00,1369.00              81.00,1369.00 81.91,1354.00 81.91,1354.00              81.91,1354.00 81.00,1344.00 81.00,1344.00              81.00,1344.00 81.00,1340.00 81.00,1340.00              81.00,1340.00 82.00,1325.00 82.00,1325.00              82.00,1325.00 82.00,1299.00 82.00,1299.00              82.00,1299.00 81.18,1289.00 81.18,1289.00              81.18,1289.00 82.00,1277.00 82.00,1277.00              82.00,1277.00 82.00,1250.00 82.00,1250.00              82.00,1250.00 83.00,1231.00 83.00,1231.00              83.00,1231.00 82.00,1211.00 82.00,1211.00              82.00,1211.00 83.00,1196.00 83.00,1196.00              83.00,1196.00 83.00,1057.00 83.00,1057.00              83.00,1057.00 83.96,1046.00 83.96,1046.00              83.96,1046.00 83.09,1036.00 83.09,1036.00              82.64,1027.88 86.42,1024.45 85.91,1016.00              85.58,1010.65 84.09,1009.58 84.00,1002.00              84.00,1002.00 85.00,984.00 85.00,984.00              85.00,984.00 84.00,966.00 84.00,966.00              84.00,966.00 84.00,941.00 84.00,941.00              84.00,941.00 85.99,920.00 85.99,920.00              85.99,920.00 84.37,903.00 84.37,903.00              84.37,903.00 84.98,892.00 84.98,892.00              84.98,892.00 84.00,879.00 84.00,879.00              84.00,879.00 84.91,861.00 84.91,861.00              84.91,861.00 84.00,842.00 84.00,842.00              84.00,842.00 84.97,828.00 84.97,828.00              84.97,828.00 84.00,816.00 84.00,816.00              84.00,816.00 86.00,789.00 86.00,789.00              86.00,789.00 86.00,777.00 86.00,777.00              86.00,777.00 85.18,767.00 85.18,767.00              85.18,767.00 85.87,757.00 85.87,757.00              85.87,757.00 85.87,746.00 85.87,746.00              85.87,746.00 85.87,738.00 85.87,738.00              85.87,738.00 85.87,716.00 85.87,716.00              85.87,716.00 87.00,700.00 87.00,700.00              86.92,693.03 85.65,691.79 85.47,688.00              85.47,688.00 85.98,681.00 85.98,681.00              85.98,681.00 85.98,670.00 85.98,670.00              85.98,670.00 85.32,642.00 85.32,642.00              85.32,642.00 86.00,617.00 86.00,617.00              86.00,617.00 87.00,602.00 87.00,602.00              87.00,602.00 85.32,568.00 85.32,568.00              85.32,568.00 86.91,537.00 86.91,537.00              86.91,537.00 86.00,518.00 86.00,518.00              86.00,518.00 86.00,463.00 86.00,463.00              86.00,463.00 85.00,448.00 85.00,448.00              85.00,448.00 85.00,429.00 85.00,429.00              85.00,429.00 86.00,414.00 86.00,414.00              86.00,414.00 87.00,376.00 87.00,376.00              87.00,376.00 86.04,366.00 86.04,366.00              86.04,366.00 86.04,352.00 86.04,352.00              86.04,352.00 86.96,340.00 86.96,340.00              86.96,340.00 86.96,324.00 86.96,324.00              87.02,312.42 89.97,312.63 89.97,304.00              89.97,294.91 86.86,295.93 87.00,283.00              87.00,283.00 88.09,273.00 88.09,273.00              88.09,273.00 88.09,256.00 88.09,256.00              87.91,248.84 86.53,246.82 88.09,239.00              88.09,239.00 90.78,232.00 90.78,232.00              93.04,224.73 94.45,215.85 98.13,209.00              100.25,205.05 103.70,202.63 106.65,196.00              109.25,190.15 111.35,175.37 112.02,174.17              112.02,174.17 127.91,159.00 127.91,159.00              132.63,153.87 136.96,145.22 140.91,139.00              146.45,130.28 148.25,118.66 157.10,112.14              160.54,109.61 163.24,109.82 167.00,108.44              167.00,108.44 173.00,105.81 173.00,105.81              173.00,105.81 190.00,101.96 190.00,101.96              190.00,101.96 201.00,101.96 201.00,101.96              210.96,100.52 212.50,98.61 223.00,98.96              227.77,99.12 239.49,97.04 244.00,95.45              244.00,95.45 252.00,92.39 252.00,92.39              252.00,92.39 261.00,91.70 261.00,91.70              270.92,90.28 268.57,89.02 281.00,89.00              281.00,89.00 307.00,87.00 307.00,87.00              307.00,87.00 345.00,87.00 345.00,87.00              345.00,87.00 361.00,86.00 361.00,86.00              361.00,86.00 375.00,87.04 375.00,87.04              375.00,87.04 390.00,87.04 390.00,87.04              390.00,87.04 402.00,88.00 402.00,88.00              402.00,88.00 417.00,88.00 417.00,88.00              417.00,88.00 433.00,86.96 433.00,86.96              433.00,86.96 446.00,86.96 446.00,86.96              446.00,86.96 457.00,86.00 457.00,86.00              457.00,86.00 479.00,86.00 479.00,86.00              479.00,86.00 493.00,85.05 493.00,85.05              493.00,85.05 509.00,85.05 509.00,85.05              509.00,85.05 524.00,85.96 524.00,85.96              524.00,85.96 540.00,85.96 540.00,85.96              540.00,85.96 549.00,85.03 549.00,85.03              549.00,85.03 562.00,86.00 562.00,86.00              562.00,86.00 593.00,86.00 593.00,86.00              593.00,86.00 611.00,85.00 611.00,85.00              611.00,85.00 627.00,86.00 627.00,86.00              627.00,86.00 651.00,86.00 651.00,86.00              651.00,86.00 685.00,84.00 685.00,84.00              685.00,84.00 716.00,84.00 716.00,84.00              716.00,84.00 733.00,84.99 733.00,84.99              733.00,84.99 748.00,84.01 748.00,84.01              748.00,84.01 767.00,85.00 767.00,85.00              767.00,85.00 777.00,84.05 777.00,84.05              777.00,84.05 789.00,84.05 789.00,84.05              789.00,84.05 817.00,85.91 817.00,85.91              817.00,85.91 828.00,85.00 828.00,85.00              828.00,85.00 858.00,85.00 858.00,85.00              858.00,85.00 872.00,84.00 872.00,84.00              872.00,84.00 900.00,84.00 900.00,84.00              900.00,84.00 916.00,85.00 916.00,85.00              916.00,85.00 936.00,83.18 936.00,83.18              936.00,83.18 952.00,84.91 952.00,84.91              952.00,84.91 962.00,84.04 962.00,84.04              962.00,84.04 973.00,85.00 973.00,85.00              973.00,85.00 991.00,84.00 991.00,84.00              991.00,84.00 1005.00,84.00 1005.00,84.00              1005.00,84.00 1023.00,83.00 1023.00,83.00              1023.00,83.00 1038.00,83.96 1038.00,83.96              1038.00,83.96 1046.00,83.09 1046.00,83.09              1046.00,83.09 1071.00,82.32 1071.00,82.32              1071.00,82.32 1077.00,82.96 1077.00,82.96              1081.65,83.14 1083.03,82.46 1087.00,82.18              1087.00,82.18 1101.00,83.00 1101.00,83.00              1101.00,83.00 1119.00,83.00 1119.00,83.00              1119.00,83.00 1147.00,84.99 1147.00,84.99              1147.00,84.99 1171.00,83.00 1171.00,83.00              1171.00,83.00 1186.00,84.00 1186.00,84.00              1186.00,84.00 1220.00,84.00 1220.00,84.00              1220.00,84.00 1237.00,82.04 1237.00,82.04              1237.00,82.04 1252.00,83.00 1252.00,83.00              1252.00,83.00 1295.00,83.00 1295.00,83.00              1295.00,83.00 1312.00,83.99 1312.00,83.99              1312.00,83.99 1330.00,82.18 1330.00,82.18              1330.00,82.18 1419.00,83.00 1419.00,83.00              1419.00,83.00 1434.00,84.00 1434.00,84.00              1434.00,84.00 1468.00,84.00 1468.00,84.00              1468.00,84.00 1498.00,81.32 1498.00,81.32              1498.00,81.32 1512.00,82.00 1512.00,82.00              1512.00,82.00 1522.00,82.91 1522.00,82.91              1522.00,82.91 1541.00,84.17 1541.00,84.17              1541.00,84.17 1565.00,86.96 1565.00,86.96              1565.00,86.96 1593.00,85.83 1593.00,85.83              1593.00,85.83 1602.00,84.46 1602.00,84.46              1602.00,84.46 1631.00,87.91 1631.00,87.91              1631.00,87.91 1655.00,86.00 1655.00,86.00              1668.18,85.97 1666.31,83.13 1676.00,83.05              1676.00,83.05 1689.00,83.05 1689.00,83.05              1689.00,83.05 1697.00,84.08 1697.00,84.08              1706.58,84.33 1705.75,81.88 1719.00,84.08              1719.00,84.08 1731.00,88.10 1731.00,88.10              1731.00,88.10 1751.00,89.97 1751.00,89.97              1751.00,89.97 1779.00,86.06 1779.00,86.06              1779.00,86.06 1789.00,86.06 1789.00,86.06              1789.00,86.06 1810.00,83.08 1810.00,83.08              1810.00,83.08 1822.00,83.08 1822.00,83.08              1822.00,83.08 1846.00,81.00 1846.00,81.00              1846.00,81.00 1883.00,81.00 1883.00,81.00              1883.00,81.00 1915.00,82.00 1915.00,82.00              1915.00,82.00 1929.00,80.71 1929.00,80.71              1929.00,80.71 1950.00,81.87 1950.00,81.87              1950.00,81.87 1976.00,81.87 1976.00,81.87              1976.00,81.87 1989.00,81.87 1989.00,81.87              1989.00,81.87 1999.00,83.00 1999.00,83.00              2001.94,83.03 2006.31,82.74 2009.00,83.73              2009.00,83.73 2035.00,100.09 2035.00,100.09              2040.85,103.21 2043.38,102.33 2049.00,103.51              2055.47,104.87 2068.80,108.29 2075.00,107.91              2082.98,107.42 2090.56,102.83 2095.82,96.99              2098.39,94.12 2101.20,88.62 2104.10,87.02              2106.60,85.64 2113.54,86.03 2117.00,85.58              2117.00,85.58 2127.00,84.53 2127.00,84.53              2127.00,84.53 2137.00,82.12 2137.00,82.12              2137.00,82.12 2152.00,83.00 2152.00,83.00              2160.60,82.90 2163.54,80.49 2170.00,80.09              2170.00,80.09 2185.00,81.00 2185.00,81.00              2185.00,81.00 2206.00,82.00 2206.00,82.00              2206.00,82.00 2231.00,82.00 2231.00,82.00              2239.76,81.99 2240.69,80.88 2248.00,80.04              2248.00,80.04 2258.00,80.04 2258.00,80.04              2258.00,80.04 2270.00,79.00 2270.00,79.00              2270.00,79.00 2288.00,79.97 2288.00,79.97              2288.00,79.97 2302.00,79.00 2302.00,79.00              2302.00,79.00 2327.00,79.00 2327.00,79.00              2327.00,79.00 2347.00,81.00 2347.00,81.00              2347.00,81.00 2375.00,81.00 2375.00,81.00              2375.00,81.00 2395.00,79.00 2395.00,79.00              2395.00,79.00 2436.00,79.00 2436.00,79.00              2436.00,79.00 2456.00,80.00 2456.00,80.00              2456.00,80.00 2466.00,79.04 2466.00,79.04              2466.00,79.04 2477.00,79.04 2477.00,79.04              2477.00,79.04 2488.00,78.04 2488.00,78.04              2488.00,78.04 2503.00,79.04 2503.00,79.04              2503.00,79.04 2517.00,79.04 2517.00,79.04              2517.00,79.04 2527.00,80.00 2527.00,80.00              2527.00,80.00 2539.00,79.04 2539.00,79.04              2539.00,79.04 2555.00,79.04 2555.00,79.04              2555.00,79.04 2574.00,76.96 2574.00,76.96              2574.00,76.96 2587.00,76.96 2587.00,76.96              2587.00,76.96 2598.00,76.00 2598.00,76.00              2598.00,76.00 2622.00,76.00 2622.00,76.00              2632.26,76.12 2635.74,79.28 2648.00,78.99              2659.20,78.71 2659.92,74.19 2675.00,74.91              2675.00,74.91 2683.00,74.91 2683.00,74.91              2683.00,74.91 2702.00,74.91 2702.00,74.91              2702.00,74.91 2723.00,74.00 2723.00,74.00              2723.00,74.00 2737.00,75.00 2737.00,75.00              2737.00,75.00 2756.00,74.01 2756.00,74.01              2756.00,74.01 2769.00,74.84 2769.00,74.84              2769.00,74.84 2789.00,74.84 2789.00,74.84              2789.00,74.84 2802.00,74.84 2802.00,74.84              2802.00,74.84 2819.00,74.04 2819.00,74.04              2819.00,74.04 2829.00,75.56 2829.00,75.56              2829.00,75.56 2852.00,78.04 2852.00,78.04              2852.00,78.04 2868.00,78.04 2868.00,78.04              2868.00,78.04 2876.00,78.96 2876.00,78.96              2876.00,78.96 2890.00,78.00 2890.00,78.00              2890.00,78.00 2907.00,78.00 2907.00,78.00              2907.00,78.00 2947.00,81.91 2947.00,81.91              2956.05,81.29 2961.81,78.52 2970.00,76.68              2970.00,76.68 2990.00,75.00 2990.00,75.00              2990.00,75.00 3002.00,75.00 3002.00,75.00              3008.77,74.92 3008.49,74.09 3014.00,73.30              3014.00,73.30 3032.00,72.00 3032.00,72.00              3032.00,72.00 3079.00,72.00 3079.00,72.00              3079.00,72.00 3099.00,73.00 3099.00,73.00              3099.00,73.00 3124.00,76.68 3124.00,76.68              3124.00,76.68 3138.00,76.68 3138.00,76.68              3138.00,76.68 3153.00,78.97 3153.00,78.97              3153.00,78.97 3171.00,77.70 3171.00,77.70              3171.00,77.70 3178.00,76.39 3178.00,76.39              3182.77,76.06 3185.38,78.40 3193.00,77.91              3193.00,77.91 3214.00,76.00 3214.00,76.00              3214.00,76.00 3242.00,74.00 3242.00,74.00              3242.00,74.00 3258.00,74.00 3258.00,74.00              3258.00,74.00 3274.00,73.00 3274.00,73.00              3274.00,73.00 3315.00,73.00 3315.00,73.00              3315.00,73.00 3332.00,73.99 3332.00,73.99              3332.00,73.99 3348.00,72.00 3348.00,72.00              3348.00,72.00 3366.00,71.18 3366.00,71.18              3366.00,71.18 3377.00,71.96 3377.00,71.96              3377.00,71.96 3390.00,71.96 3390.00,71.96              3393.87,71.65 3395.71,70.85 3400.00,71.09              3400.00,71.09 3412.00,71.86 3412.00,71.86              3412.00,71.86 3430.00,71.86 3430.00,71.86              3430.00,71.86 3454.00,71.86 3454.00,71.86              3454.00,71.86 3471.00,71.04 3471.00,71.04              3471.00,71.04 3490.00,73.00 3490.00,73.00              3490.00,73.00 3501.00,73.00 3501.00,73.00              3507.14,73.08 3508.60,74.01 3514.00,74.71              3514.00,74.71 3535.00,76.00 3535.00,76.00              3547.36,75.87 3544.81,72.02 3558.00,72.00              3558.00,72.00 3575.00,72.00 3575.00,72.00              3575.00,72.00 3591.00,73.00 3591.00,73.00              3591.00,73.00 3615.00,73.00 3615.00,73.00              3615.00,73.00 3629.00,72.00 3629.00,72.00              3629.00,72.00 3657.00,73.04 3657.00,73.04              3657.00,73.04 3666.00,73.04 3666.00,73.04              3666.00,73.04 3674.00,74.71 3674.00,74.71              3690.70,77.28 3693.62,78.20 3711.00,78.00              3719.77,77.89 3721.54,75.82 3729.00,74.46              3729.00,74.46 3738.00,73.32 3738.00,73.32              3744.71,71.81 3742.97,71.04 3751.00,71.00              3751.00,71.00 3755.00,71.00 3755.00,71.00              3762.45,70.91 3762.46,69.76 3768.00,69.09              3768.00,69.09 3781.00,69.09 3781.00,69.09              3781.00,69.09 3811.00,72.00 3811.00,72.00              3811.00,72.00 3831.00,70.08 3831.00,70.08              3831.00,70.08 3854.00,72.72 3854.00,72.72              3859.60,73.36 3861.81,72.34 3865.00,72.72              3865.00,72.72 3878.00,72.72 3878.00,72.72              3887.00,73.12 3902.56,80.79 3912.00,82.54              3912.00,82.54 3927.00,84.91 3927.00,84.91              3927.00,84.91 3951.00,86.39 3951.00,86.39              3951.00,86.39 3962.00,90.91 3962.00,90.91              3966.98,92.70 3972.43,93.16 3977.00,95.99              3977.00,95.99 3999.00,113.71 3999.00,113.71              4005.50,118.79 4012.69,123.11 4018.41,129.17              4022.31,133.30 4026.08,138.74 4028.28,144.00              4030.59,149.55 4029.47,152.70 4030.93,158.00              4032.50,163.73 4034.93,165.56 4036.78,170.00              4036.78,170.00 4040.40,182.00 4040.40,182.00              4046.35,194.50 4057.33,204.81 4072.00,203.91              4085.90,203.05 4097.70,191.03 4100.87,178.00              4103.04,169.08 4100.80,165.73 4103.56,161.00              4103.56,161.00 4108.52,154.00 4108.52,154.00              4108.52,154.00 4112.07,147.00 4112.07,147.00              4112.07,147.00 4122.12,133.04 4122.12,133.04              4126.22,128.09 4128.53,127.38 4131.82,123.91              4135.35,120.18 4136.30,116.92 4139.21,114.85              4141.20,113.44 4144.59,112.75 4147.00,111.60              4147.00,111.60 4159.00,104.69 4159.00,104.69              4168.44,99.44 4184.20,93.02 4195.00,93.00              4195.00,93.00 4205.00,93.00 4205.00,93.00              4208.17,92.96 4228.19,89.44 4231.00,88.45              4240.57,85.08 4238.16,83.02 4250.00,83.00              4250.00,83.00 4254.00,83.00 4254.00,83.00              4261.33,82.91 4263.29,81.51 4270.00,80.26              4270.00,80.26 4287.00,78.53 4287.00,78.53              4287.00,78.53 4297.00,75.39 4297.00,75.39              4297.00,75.39 4326.00,72.18 4326.00,72.18              4326.00,72.18 4337.00,73.00 4337.00,73.00              4337.00,73.00 4349.00,73.00 4349.00,73.00              4349.00,73.00 4365.00,71.08 4365.00,71.08              4365.00,71.08 4375.00,71.08 4375.00,71.08              4375.00,71.08 4394.00,69.10 4394.00,69.10              4400.32,69.41 4403.49,72.06 4409.00,73.32              4409.00,73.32 4435.00,76.00 4435.00,76.00              4444.61,75.88 4452.29,71.97 4458.00,71.64              4462.44,71.39 4465.34,73.96 4475.00,74.00              4479.36,74.02 4482.76,74.13 4487.00,72.78              4487.00,72.78 4496.00,69.29 4496.00,69.29              4496.00,69.29 4509.00,69.87 4509.00,69.87              4509.00,69.87 4526.00,69.87 4526.00,69.87              4526.00,69.87 4556.00,68.59 4556.00,68.59              4556.00,68.59 4577.00,69.17 4577.00,69.17              4583.51,69.87 4583.42,71.44 4594.00,70.96              4594.00,70.96 4605.00,69.17 4605.00,69.17              4605.00,69.17 4626.00,67.92 4626.00,67.92              4626.00,67.92 4644.00,67.92 4644.00,67.92              4652.34,67.02 4651.69,66.05 4662.00,66.00              4662.00,66.00 4689.00,64.32 4689.00,64.32              4689.00,64.32 4704.00,66.00 4704.00,66.00              4704.00,66.00 4710.00,66.00 4710.00,66.00              4710.00,66.00 4728.00,64.18 4728.00,64.18              4728.00,64.18 4754.00,65.00 4754.00,65.00              4754.00,65.00 4771.00,65.92 4771.00,65.92              4771.00,65.92 4788.00,65.92 4788.00,65.92              4788.00,65.92 4798.00,64.27 4798.00,64.27              4802.43,64.24 4804.88,66.64 4812.00,66.96              4812.00,66.96 4832.00,66.09 4832.00,66.09              4832.00,66.09 4841.00,67.70 4841.00,67.70              4841.00,67.70 4860.00,68.68 4860.00,68.68              4860.00,68.68 4871.00,68.68 4871.00,68.68              4877.94,68.84 4885.04,69.62 4892.00,68.68              4898.20,67.91 4904.70,65.40 4911.00,65.75              4911.00,65.75 4941.00,71.00 4941.00,71.00              4941.00,71.00 4951.00,71.00 4951.00,71.00              4970.04,70.97 4982.31,63.69 5008.00,64.00              5018.60,64.13 5016.50,67.18 5032.00,67.00              5038.79,66.92 5038.49,66.08 5044.00,65.30              5044.00,65.30 5065.00,64.00 5065.00,64.00              5065.00,64.00 5087.00,64.00 5087.00,64.00              5087.00,64.00 5104.00,64.99 5104.00,64.99              5104.00,64.99 5119.00,63.13 5119.00,63.13              5126.05,63.05 5126.59,67.29 5140.00,66.99              5140.00,66.99 5164.00,62.55 5164.00,62.55              5164.00,62.55 5179.00,64.00 5179.00,64.00              5179.00,64.00 5198.00,64.00 5198.00,64.00              5198.00,64.00 5214.00,63.01 5214.00,63.01              5220.62,63.17 5222.34,64.89 5228.00,65.70              5235.11,66.73 5235.03,64.82 5247.00,68.44              5254.59,70.73 5260.47,74.43 5269.00,73.91              5275.19,73.53 5278.18,71.19 5282.00,70.19              5284.66,69.82 5289.13,70.03 5292.00,70.19              5298.80,69.92 5298.49,69.08 5304.00,68.06              5304.00,68.06 5313.00,68.06 5313.00,68.06              5318.54,67.23 5318.55,66.09 5326.00,66.00              5326.00,66.00 5343.00,66.00 5343.00,66.00              5351.57,65.90 5357.10,63.68 5361.00,63.39              5361.00,63.39 5373.00,63.92 5373.00,63.92              5373.00,63.92 5388.00,63.92 5388.00,63.92              5388.00,63.92 5400.00,62.18 5400.00,62.18              5400.00,62.18 5421.00,64.85 5421.00,64.85              5421.00,64.85 5440.00,64.85 5440.00,64.85              5440.00,64.85 5450.00,64.85 5450.00,64.85              5450.00,64.85 5466.00,63.34 5466.00,63.34              5466.00,63.34 5482.00,65.86 5482.00,65.86              5482.00,65.86 5499.00,65.86 5499.00,65.86              5499.00,65.86 5517.00,64.00 5517.00,64.00              5517.00,64.00 5534.00,64.00 5534.00,64.00              5534.00,64.00 5550.00,63.00 5550.00,63.00              5550.00,63.00 5612.00,63.00 5612.00,63.00              5619.96,63.01 5624.28,64.52 5632.00,65.58              5632.00,65.58 5645.00,66.17 5645.00,66.17              5645.00,66.17 5667.00,69.00 5667.00,69.00              5667.00,69.00 5688.00,69.00 5688.00,69.00              5688.00,69.00 5708.00,67.32 5708.00,67.32              5708.00,67.32 5725.00,68.00 5725.00,68.00              5737.98,67.98 5744.36,63.86 5754.00,63.37              5754.00,63.37 5770.00,65.00 5770.00,65.00              5770.00,65.00 5796.00,65.00 5796.00,65.00              5808.84,64.98 5807.33,62.80 5814.00,61.39              5814.00,61.39 5830.00,59.39 5830.00,59.39              5835.55,58.98 5840.87,62.22 5851.00,61.99              5851.00,61.99 5860.00,61.04 5860.00,61.04              5860.00,61.04 5877.00,61.04 5877.00,61.04              5877.00,61.04 5894.00,60.01 5894.00,60.01              5894.00,60.01 5903.00,60.96 5903.00,60.96              5903.00,60.96 5914.00,60.96 5914.00,60.96              5923.78,61.17 5924.40,66.12 5934.00,68.32              5934.00,68.32 5945.00,69.38 5945.00,69.38              5945.00,69.38 5957.00,72.70 5957.00,72.70              5957.00,72.70 5987.00,74.00 5987.00,74.00              5998.82,73.86 5998.70,70.70 6007.00,67.81              6007.00,67.81 6019.00,65.79 6019.00,65.79              6026.51,63.59 6036.21,59.35 6044.00,59.34              6054.76,59.32 6054.46,64.08 6063.00,68.68              6072.01,73.52 6077.05,74.11 6087.00,74.00              6100.25,73.84 6100.25,68.71 6112.00,68.97              6128.60,69.33 6145.91,58.43 6161.00,59.04              6169.11,59.37 6177.06,63.12 6189.00,61.83              6197.41,60.91 6199.85,57.00 6204.00,56.79              6206.02,56.68 6209.69,58.10 6212.00,58.53              6212.00,58.53 6234.00,60.96 6234.00,60.96              6234.00,60.96 6249.00,59.00 6249.00,59.00              6249.00,59.00 6267.00,60.00 6267.00,60.00              6267.00,60.00 6274.00,60.00 6274.00,60.00              6274.00,60.00 6306.00,65.00 6306.00,65.00              6306.00,65.00 6320.00,64.37 6320.00,64.37              6320.00,64.37 6347.00,66.91 6347.00,66.91              6347.00,66.91 6366.00,68.39 6366.00,68.39              6370.86,69.51 6374.33,73.36 6379.00,75.60              6383.81,77.91 6389.74,78.40 6395.00,77.83              6401.78,77.09 6409.74,72.70 6414.99,68.48              6414.99,68.48 6422.17,61.98 6422.17,61.98              6424.36,60.67 6430.19,59.78 6433.00,59.12              6448.02,55.55 6443.01,54.98 6459.00,55.06              6459.00,55.06 6476.00,55.06 6476.00,55.06              6476.00,55.06 6495.00,55.06 6495.00,55.06              6495.00,55.06 6514.00,59.54 6514.00,59.54              6514.00,59.54 6534.00,60.96 6534.00,60.96              6546.71,61.50 6548.79,56.96 6554.00,56.90              6554.00,56.90 6563.00,58.94 6563.00,58.94              6563.00,58.94 6572.00,58.94 6572.00,58.94              6577.66,59.78 6578.78,61.25 6586.00,60.96              6596.22,60.55 6600.88,55.62 6605.00,55.65              6607.73,55.66 6616.39,59.79 6625.00,59.99              6635.67,60.23 6635.98,58.08 6642.00,57.36              6642.00,57.36 6656.00,58.00 6656.00,58.00              6667.35,57.95 6669.16,54.52 6675.00,55.23              6679.20,55.74 6682.29,58.49 6689.00,58.91              6695.24,59.29 6699.00,57.07 6703.00,57.80              6707.94,58.71 6711.65,63.15 6724.00,61.83              6724.00,61.83 6761.00,54.11 6761.00,54.11              6767.43,53.78 6768.63,56.98 6781.00,57.00              6781.00,57.00 6806.00,57.00 6806.00,57.00              6806.00,57.00 6821.00,58.08 6821.00,58.08              6821.00,58.08 6835.00,58.08 6835.00,58.08              6841.89,58.84 6845.41,60.43 6853.00,59.91              6853.00,59.91 6878.00,57.17 6878.00,57.17              6878.00,57.17 6897.00,55.70 6897.00,55.70              6897.00,55.70 6912.00,52.18 6912.00,52.18              6919.46,51.29 6926.64,52.77 6934.00,52.87              6934.00,52.87 6941.00,52.87 6941.00,52.87              6941.00,52.87 6956.00,56.70 6956.00,56.70              6965.98,58.14 6970.82,56.42 6980.00,54.00 Z            M 4066.00,1633.34            C 4063.53,1633.85 4062.18,1634.05 4060.02,1635.56              4043.45,1647.10 4063.71,1663.35 4073.00,1661.77              4080.09,1660.56 4080.06,1654.75 4080.00,1649.00              4079.90,1639.47 4076.46,1633.13 4066.00,1633.34 Z            M 4070.00,1917.75            C 4066.17,1917.80 4058.34,1918.40 4055.73,1921.43              4052.64,1925.02 4053.80,1931.64 4054.00,1936.00              4054.00,1936.00 4054.66,1944.00 4054.66,1944.00              4054.66,1944.00 4053.26,1953.00 4053.26,1953.00              4053.26,1953.00 4054.17,1970.00 4054.17,1970.00              4054.97,1977.41 4057.95,1989.36 4067.00,1989.85              4077.30,1990.40 4079.96,1981.28 4080.00,1973.00              4080.00,1973.00 4080.00,1956.00 4080.00,1956.00              4080.00,1956.00 4080.92,1944.00 4080.92,1944.00              4080.92,1944.00 4080.09,1933.00 4080.09,1933.00              4080.55,1924.13 4080.51,1919.28 4070.00,1917.75 Z            M 4069.00,2082.43            C 4061.14,2084.46 4057.74,2094.48 4059.81,2102.00              4060.90,2105.95 4063.68,2108.73 4063.35,2112.00              4062.98,2115.53 4059.44,2117.89 4057.89,2122.00              4053.10,2134.72 4065.90,2146.07 4072.00,2145.36              4077.52,2144.72 4081.48,2136.87 4082.48,2132.00              4083.76,2125.79 4081.06,2119.16 4080.63,2113.00              4080.40,2109.55 4081.55,2107.26 4081.81,2104.00              4082.08,2100.71 4081.41,2098.15 4080.63,2095.00              4078.86,2087.90 4077.47,2082.60 4069.00,2082.43 Z            M 4084.00,5688.31            C 4078.20,5689.37 4069.93,5691.59 4067.98,5698.00              4065.34,5706.68 4079.57,5719.85 4088.00,5718.74              4090.86,5718.36 4092.92,5716.83 4094.96,5714.89              4105.15,5705.23 4099.00,5687.50 4084.00,5688.31 Z"
            style="fill:#000000;fill-opacity:1"/>
</svg>
