<?xml version="1.0" encoding="UTF-8" standalone="no"?>
<svg
        width="176.911mm"
        height="117.666mm"
        viewBox="0 0 8358 5559"
        version="1.1"
        id="svg1028"
        sodipodi:docname="folio9a.svg"
        inkscape:version="1.1.1 (3bf5ae0d25, 2021-09-20)"
        xmlns:inkscape="http://www.inkscape.org/namespaces/inkscape"
        xmlns:sodipodi="http://sodipodi.sourceforge.net/DTD/sodipodi-0.dtd"
        xmlns="http://www.w3.org/2000/svg"
>
    <defs
            id="defs1032"/>
    <sodipodi:namedview
            id="namedview1030"
            pagecolor="#ffffff"
            bordercolor="#666666"
            borderopacity="1.0"
            inkscape:pageshadow="2"
            inkscape:pageopacity="0.0"
            inkscape:pagecheckerboard="0"
            inkscape:document-units="mm"
            showgrid="false"
            inkscape:zoom="1.7831369"
            inkscape:cx="334.52283"
            inkscape:cy="222.36095"
            inkscape:window-width="1920"
            inkscape:window-height="1001"
            inkscape:window-x="-7"
            inkscape:window-y="-7"
            inkscape:window-maximized="1"
            inkscape:current-layer="svg1028"/>
    <path
            id="Selection #2"
            fill="none"
            stroke="black"
            stroke-width="1"
            d="M 567.00,119.00            C 564.83,130.93 565.42,125.90 562.00,136.00              562.00,136.00 558.50,150.00 558.50,150.00              554.28,168.38 548.04,193.60 568.00,205.52              570.81,207.20 573.77,208.22 577.00,208.70              595.79,211.47 605.61,195.55 617.28,184.21              617.28,184.21 626.99,176.82 626.99,176.82              632.35,171.99 632.31,170.12 635.95,165.28              639.97,159.96 642.43,159.25 645.65,152.00              645.65,152.00 649.04,142.00 649.04,142.00              649.04,142.00 657.18,128.00 657.18,128.00              658.45,125.37 659.72,119.43 661.56,118.01              664.01,116.11 671.84,116.00 675.00,116.00              675.00,116.00 692.00,116.00 692.00,116.00              692.00,116.00 708.00,116.96 708.00,116.96              714.89,116.66 714.55,115.02 725.00,115.00              725.00,115.00 764.00,115.00 764.00,115.00              764.00,115.00 779.00,116.00 779.00,116.00              779.00,116.00 815.00,114.00 815.00,114.00              815.00,114.00 855.00,114.00 855.00,114.00              855.00,114.00 867.00,113.05 867.00,113.05              867.00,113.05 886.00,113.05 886.00,113.05              886.00,113.05 900.00,114.00 900.00,114.00              900.00,114.00 933.00,114.00 933.00,114.00              933.00,114.00 948.00,113.00 948.00,113.00              948.00,113.00 1001.00,113.00 1001.00,113.00              1001.00,113.00 1022.00,112.00 1022.00,112.00              1022.00,112.00 1035.00,111.00 1035.00,111.00              1035.00,111.00 1058.00,111.00 1058.00,111.00              1058.00,111.00 1073.00,112.00 1073.00,112.00              1073.00,112.00 1092.00,111.00 1092.00,111.00              1092.00,111.00 1108.00,111.00 1108.00,111.00              1108.00,111.00 1125.00,109.81 1125.00,109.81              1125.00,109.81 1134.00,109.81 1134.00,109.81              1138.35,109.75 1142.63,110.30 1147.00,109.81              1147.00,109.81 1159.00,107.19 1159.00,107.19              1159.00,107.19 1175.00,108.81 1175.00,108.81              1175.00,108.81 1185.00,108.81 1185.00,108.81              1185.00,108.81 1197.00,108.81 1197.00,108.81              1197.00,108.81 1209.00,108.03 1209.00,108.03              1209.00,108.03 1222.00,108.91 1222.00,108.91              1222.00,108.91 1243.00,107.34 1243.00,107.34              1243.00,107.34 1253.00,107.98 1253.00,107.98              1253.00,107.98 1270.00,107.00 1270.00,107.00              1270.00,107.00 1282.00,107.97 1282.00,107.97              1282.00,107.97 1296.00,107.04 1296.00,107.04              1296.00,107.04 1309.00,107.04 1309.00,107.04              1309.00,107.04 1319.00,108.00 1319.00,108.00              1319.00,108.00 1336.00,107.00 1336.00,107.00              1336.00,107.00 1359.00,106.00 1359.00,106.00              1359.00,106.00 1374.00,105.00 1374.00,105.00              1374.00,105.00 1401.00,105.00 1401.00,105.00              1401.00,105.00 1416.00,106.00 1416.00,106.00              1416.00,106.00 1453.00,107.00 1453.00,107.00              1453.00,107.00 1474.00,105.00 1474.00,105.00              1474.00,105.00 1488.00,104.00 1488.00,104.00              1488.00,104.00 1505.00,104.00 1505.00,104.00              1505.00,104.00 1521.00,105.00 1521.00,105.00              1521.00,105.00 1540.00,103.04 1540.00,103.04              1540.00,103.04 1553.00,103.04 1553.00,103.04              1553.00,103.04 1564.00,103.96 1564.00,103.96              1564.00,103.96 1572.00,103.18 1572.00,103.18              1572.00,103.18 1579.00,103.96 1579.00,103.96              1579.00,103.96 1593.00,103.96 1593.00,103.96              1593.00,103.96 1609.00,104.96 1609.00,104.96              1609.00,104.96 1625.00,103.17 1625.00,103.17              1625.00,103.17 1641.00,101.83 1641.00,101.83              1646.83,101.14 1647.87,99.76 1655.00,100.04              1655.00,100.04 1663.00,100.96 1663.00,100.96              1663.00,100.96 1671.00,100.96 1671.00,100.96              1671.00,100.96 1690.00,102.00 1690.00,102.00              1690.00,102.00 1715.00,103.99 1715.00,103.99              1715.00,103.99 1724.00,103.05 1724.00,103.05              1724.00,103.05 1739.00,103.05 1739.00,103.05              1739.00,103.05 1754.00,103.99 1754.00,103.99              1754.00,103.99 1767.00,102.04 1767.00,102.04              1767.00,102.04 1788.00,102.04 1788.00,102.04              1799.30,101.95 1801.05,98.78 1806.00,98.63              1806.00,98.63 1826.00,100.92 1826.00,100.92              1826.00,100.92 1840.00,100.92 1840.00,100.92              1840.00,100.92 1849.00,99.86 1849.00,99.86              1849.00,99.86 1860.00,99.86 1860.00,99.86              1860.00,99.86 1876.00,99.86 1876.00,99.86              1876.00,99.86 1888.00,99.18 1888.00,99.18              1888.00,99.18 1916.00,99.96 1916.00,99.96              1916.00,99.96 1926.00,99.03 1926.00,99.03              1926.00,99.03 1942.00,100.00 1942.00,100.00              1942.00,100.00 1955.00,99.08 1955.00,99.08              1955.00,99.08 1969.00,99.99 1969.00,99.99              1969.00,99.99 1980.00,98.58 1980.00,98.58              1980.00,98.58 1992.00,99.83 1992.00,99.83              1992.00,99.83 2019.00,100.99 2019.00,100.99              2019.00,100.99 2036.00,99.00 2036.00,99.00              2036.00,99.00 2052.00,99.91 2052.00,99.91              2057.26,99.58 2059.74,97.74 2066.00,98.09              2066.00,98.09 2086.00,100.00 2086.00,100.00              2086.00,100.00 2092.00,100.00 2092.00,100.00              2092.00,100.00 2103.00,98.87 2103.00,98.87              2103.00,98.87 2115.00,98.87 2115.00,98.87              2115.00,98.87 2130.00,98.00 2130.00,98.00              2130.00,98.00 2182.00,98.00 2182.00,98.00              2182.00,98.00 2204.00,99.00 2204.00,99.00              2204.00,99.00 2214.00,98.05 2214.00,98.05              2214.00,98.05 2229.00,98.05 2229.00,98.05              2229.00,98.05 2243.00,99.00 2243.00,99.00              2243.00,99.00 2270.00,99.00 2270.00,99.00              2270.00,99.00 2294.00,95.39 2294.00,95.39              2294.00,95.39 2315.00,97.00 2315.00,97.00              2315.00,97.00 2347.00,97.00 2347.00,97.00              2347.00,97.00 2362.00,97.99 2362.00,97.99              2362.00,97.99 2373.00,97.01 2373.00,97.01              2373.00,97.01 2385.00,98.00 2385.00,98.00              2385.00,98.00 2393.00,98.00 2393.00,98.00              2393.00,98.00 2418.00,99.91 2418.00,99.91              2418.00,99.91 2430.00,99.00 2430.00,99.00              2430.00,99.00 2476.00,98.00 2476.00,98.00              2476.00,98.00 2489.00,99.00 2489.00,99.00              2489.00,99.00 2507.00,99.00 2507.00,99.00              2507.00,99.00 2537.00,98.19 2537.00,98.19              2537.00,98.19 2545.00,99.85 2545.00,99.85              2545.00,99.85 2557.00,99.85 2557.00,99.85              2557.00,99.85 2572.00,99.00 2572.00,99.00              2572.00,99.00 2588.00,99.00 2588.00,99.00              2588.00,99.00 2603.00,98.04 2603.00,98.04              2603.00,98.04 2616.00,98.99 2616.00,98.99              2616.00,98.99 2630.00,98.00 2630.00,98.00              2630.00,98.00 2673.00,98.00 2673.00,98.00              2673.00,98.00 2697.00,99.00 2697.00,99.00              2697.00,99.00 2714.00,97.04 2714.00,97.04              2714.00,97.04 2730.00,98.00 2730.00,98.00              2730.00,98.00 2800.00,98.00 2800.00,98.00              2800.00,98.00 2814.00,99.00 2814.00,99.00              2814.00,99.00 2830.00,98.01 2830.00,98.01              2830.00,98.01 2846.00,99.00 2846.00,99.00              2846.00,99.00 2861.00,98.09 2861.00,98.09              2861.00,98.09 2872.00,99.91 2872.00,99.91              2872.00,99.91 2890.00,99.91 2890.00,99.91              2890.00,99.91 2912.00,98.00 2912.00,98.00              2912.00,98.00 2928.00,98.99 2928.00,98.99              2928.00,98.99 2941.00,98.01 2941.00,98.01              2941.00,98.01 2953.00,98.97 2953.00,98.97              2953.00,98.97 2962.00,98.37 2962.00,98.37              2962.00,98.37 2990.00,100.91 2990.00,100.91              2990.00,100.91 3002.00,100.00 3002.00,100.00              3002.00,100.00 3026.00,101.99 3026.00,101.99              3026.00,101.99 3047.00,100.00 3047.00,100.00              3047.00,100.00 3067.00,101.00 3067.00,101.00              3067.00,101.00 3095.00,101.00 3095.00,101.00              3095.00,101.00 3110.00,100.00 3110.00,100.00              3110.00,100.00 3133.00,100.00 3133.00,100.00              3133.00,100.00 3154.00,102.00 3154.00,102.00              3154.00,102.00 3168.00,100.26 3168.00,100.26              3168.00,100.26 3180.00,101.72 3180.00,101.72              3180.00,101.72 3200.00,102.99 3200.00,102.99              3200.00,102.99 3222.00,101.00 3222.00,101.00              3222.00,101.00 3243.00,101.00 3243.00,101.00              3243.00,101.00 3258.00,100.32 3258.00,100.32              3258.00,100.32 3271.00,101.96 3271.00,101.96              3271.00,101.96 3285.00,101.96 3285.00,101.96              3293.76,101.99 3294.69,100.88 3302.00,100.04              3302.00,100.04 3312.00,100.04 3312.00,100.04              3312.00,100.04 3324.00,99.00 3324.00,99.00              3324.00,99.00 3351.00,99.00 3351.00,99.00              3351.00,99.00 3364.00,98.08 3364.00,98.08              3364.00,98.08 3374.00,98.99 3374.00,98.99              3374.00,98.99 3401.00,98.99 3401.00,98.99              3401.00,98.99 3416.00,100.00 3416.00,100.00              3416.00,100.00 3435.00,100.00 3435.00,100.00              3435.00,100.00 3450.00,98.18 3450.00,98.18              3450.00,98.18 3458.00,98.78 3458.00,98.78              3458.00,98.78 3471.00,98.78 3471.00,98.78              3471.00,98.78 3497.00,100.00 3497.00,100.00              3497.00,100.00 3516.00,99.00 3516.00,99.00              3516.00,99.00 3526.00,99.96 3526.00,99.96              3526.00,99.96 3539.00,99.96 3539.00,99.96              3539.00,99.96 3556.00,99.00 3556.00,99.00              3556.00,99.00 3597.00,99.00 3597.00,99.00              3597.00,99.00 3612.00,98.00 3612.00,98.00              3612.00,98.00 3630.00,98.00 3630.00,98.00              3630.00,98.00 3643.00,98.00 3643.00,98.00              3643.00,98.00 3664.00,99.00 3664.00,99.00              3664.00,99.00 3678.00,98.00 3678.00,98.00              3678.00,98.00 3694.00,97.32 3694.00,97.32              3694.00,97.32 3712.00,98.00 3712.00,98.00              3712.00,98.00 3727.00,99.00 3727.00,99.00              3727.00,99.00 3763.00,99.00 3763.00,99.00              3763.00,99.00 3780.00,98.00 3780.00,98.00              3780.00,98.00 3834.00,98.00 3834.00,98.00              3834.00,98.00 3849.00,99.00 3849.00,99.00              3849.00,99.00 3867.00,100.00 3867.00,100.00              3880.31,100.15 3878.67,98.11 3888.00,98.00              3888.00,98.00 3912.00,98.00 3912.00,98.00              3912.00,98.00 3927.00,97.00 3927.00,97.00              3927.00,97.00 3972.00,97.00 3972.00,97.00              3980.96,97.01 3980.90,98.12 3988.00,98.92              3988.00,98.92 4003.00,98.92 4003.00,98.92              4003.00,98.92 4018.00,100.00 4018.00,100.00              4018.00,100.00 4025.00,100.00 4025.00,100.00              4025.00,100.00 4047.00,102.00 4047.00,102.00              4047.00,102.00 4058.00,102.00 4058.00,102.00              4058.00,102.00 4068.00,101.18 4068.00,101.18              4068.00,101.18 4080.00,101.96 4080.00,101.96              4080.00,101.96 4088.00,101.18 4088.00,101.18              4088.00,101.18 4099.00,102.00 4099.00,102.00              4099.00,102.00 4127.00,101.00 4127.00,101.00              4140.88,101.02 4140.31,105.21 4159.00,105.00              4159.00,105.00 4169.00,104.09 4169.00,104.09              4178.67,103.43 4181.09,104.41 4190.00,105.70              4190.00,105.70 4196.00,106.27 4196.00,106.27              4200.38,107.18 4202.65,110.07 4208.00,111.78              4213.78,113.63 4216.62,112.54 4221.00,113.37              4221.00,113.37 4228.00,115.32 4228.00,115.32              4230.89,115.98 4239.98,116.99 4243.00,116.99              4255.15,116.99 4257.82,112.15 4263.00,109.93              4263.00,109.93 4273.00,107.44 4273.00,107.44              4277.01,105.97 4278.44,104.23 4283.00,103.13              4293.23,100.67 4293.37,102.50 4302.00,101.91              4302.00,101.91 4334.00,99.00 4334.00,99.00              4334.00,99.00 4356.00,100.00 4356.00,100.00              4356.00,100.00 4373.00,99.00 4373.00,99.00              4373.00,99.00 4387.00,99.96 4387.00,99.96              4387.00,99.96 4399.00,99.04 4399.00,99.04              4399.00,99.04 4411.00,100.00 4411.00,100.00              4411.00,100.00 4439.00,100.00 4439.00,100.00              4439.00,100.00 4451.00,100.95 4451.00,100.95              4451.00,100.95 4469.00,100.95 4469.00,100.95              4469.00,100.95 4479.00,100.04 4479.00,100.04              4479.00,100.04 4491.00,100.04 4491.00,100.04              4491.00,100.04 4500.00,99.34 4500.00,99.34              4500.00,99.34 4510.00,99.87 4510.00,99.87              4510.00,99.87 4526.00,99.87 4526.00,99.87              4526.00,99.87 4548.00,99.00 4548.00,99.00              4548.00,99.00 4563.00,100.00 4563.00,100.00              4563.00,100.00 4597.00,99.00 4597.00,99.00              4597.00,99.00 4615.00,98.00 4615.00,98.00              4615.00,98.00 4628.00,98.91 4628.00,98.91              4631.47,98.71 4633.20,97.91 4637.00,98.18              4637.00,98.18 4648.00,98.87 4648.00,98.87              4648.00,98.87 4661.00,98.87 4661.00,98.87              4661.00,98.87 4687.00,100.91 4687.00,100.91              4687.00,100.91 4702.00,100.91 4702.00,100.91              4709.01,100.08 4707.07,99.02 4717.00,98.84              4717.00,98.84 4762.00,98.84 4762.00,98.84              4762.00,98.84 4774.00,98.84 4774.00,98.84              4774.00,98.84 4782.00,98.04 4782.00,98.04              4782.00,98.04 4795.00,98.04 4795.00,98.04              4795.00,98.04 4813.00,97.00 4813.00,97.00              4813.00,97.00 4825.00,97.83 4825.00,97.83              4825.00,97.83 4837.00,97.83 4837.00,97.83              4837.00,97.83 4858.00,97.83 4858.00,97.83              4858.00,97.83 4876.00,96.18 4876.00,96.18              4876.00,96.18 4902.00,96.96 4902.00,96.96              4902.00,96.96 4916.00,96.00 4916.00,96.00              4924.24,96.10 4927.63,98.65 4935.00,99.70              4935.00,99.70 4977.00,102.00 4977.00,102.00              4984.58,101.91 4990.74,99.33 4998.00,98.30              4998.00,98.30 5026.00,96.37 5026.00,96.37              5029.74,96.19 5033.30,97.46 5037.00,97.96              5037.00,97.96 5048.00,97.96 5048.00,97.96              5048.00,97.96 5060.00,99.00 5060.00,99.00              5060.00,99.00 5079.00,99.00 5079.00,99.00              5079.00,99.00 5112.00,101.00 5112.00,101.00              5112.00,101.00 5152.00,101.00 5152.00,101.00              5152.00,101.00 5166.00,100.10 5166.00,100.10              5166.00,100.10 5205.00,102.99 5205.00,102.99              5205.00,102.99 5218.00,101.76 5218.00,101.76              5218.00,101.76 5247.00,101.76 5247.00,101.76              5247.00,101.76 5271.00,101.00 5271.00,101.00              5271.00,101.00 5292.00,101.00 5292.00,101.00              5292.00,101.00 5306.00,101.95 5306.00,101.95              5306.00,101.95 5319.00,101.95 5319.00,101.95              5319.00,101.95 5332.00,101.00 5332.00,101.00              5332.00,101.00 5347.00,101.96 5347.00,101.96              5347.00,101.96 5358.00,100.26 5358.00,100.26              5358.00,100.26 5367.00,100.97 5367.00,100.97              5367.00,100.97 5376.00,100.05 5376.00,100.05              5376.00,100.05 5390.00,100.05 5390.00,100.05              5390.00,100.05 5405.00,101.00 5405.00,101.00              5405.00,101.00 5427.00,101.00 5427.00,101.00              5427.00,101.00 5451.00,103.00 5451.00,103.00              5451.00,103.00 5461.00,102.09 5461.00,102.09              5461.00,102.09 5490.00,101.00 5490.00,101.00              5490.00,101.00 5507.00,100.00 5507.00,100.00              5507.00,100.00 5534.00,100.00 5534.00,100.00              5534.00,100.00 5552.00,99.00 5552.00,99.00              5552.00,99.00 5562.00,99.96 5562.00,99.96              5562.00,99.96 5580.00,99.96 5580.00,99.96              5580.00,99.96 5595.00,99.00 5595.00,99.00              5595.00,99.00 5607.00,99.95 5607.00,99.95              5607.00,99.95 5620.00,99.95 5620.00,99.95              5620.00,99.95 5635.00,99.04 5635.00,99.04              5635.00,99.04 5651.00,99.04 5651.00,99.04              5651.00,99.04 5663.00,100.00 5663.00,100.00              5663.00,100.00 5686.00,100.00 5686.00,100.00              5686.00,100.00 5697.00,99.18 5697.00,99.18              5697.00,99.18 5704.00,99.79 5704.00,99.79              5707.42,100.13 5708.86,99.71 5712.00,99.79              5712.00,99.79 5726.00,99.79 5726.00,99.79              5726.00,99.79 5754.00,98.04 5754.00,98.04              5754.00,98.04 5763.00,98.98 5763.00,98.98              5763.00,98.98 5781.00,98.98 5781.00,98.98              5790.93,98.98 5788.99,97.92 5796.00,96.93              5796.00,96.93 5806.00,96.93 5806.00,96.93              5806.00,96.93 5814.00,96.93 5814.00,96.93              5814.00,96.93 5828.00,96.93 5828.00,96.93              5828.00,96.93 5844.00,95.04 5844.00,95.04              5844.00,95.04 5862.00,95.91 5862.00,95.91              5868.29,95.45 5872.35,93.10 5877.00,92.16              5877.00,92.16 5892.00,92.16 5892.00,92.16              5901.77,92.13 5903.32,96.50 5913.00,95.91              5913.00,95.91 5922.00,94.30 5922.00,94.30              5922.00,94.30 5942.00,93.49 5942.00,93.49              5942.00,93.49 5953.00,95.91 5953.00,95.91              5953.00,95.91 5969.00,95.91 5969.00,95.91              5969.00,95.91 5984.00,96.91 5984.00,96.91              5991.57,96.44 5992.19,93.77 6003.00,94.01              6010.76,94.19 6014.01,96.57 6023.00,95.91              6029.80,95.41 6031.85,92.94 6038.00,93.05              6045.31,93.20 6048.24,96.94 6060.00,97.04              6060.00,97.04 6071.00,97.04 6071.00,97.04              6074.87,97.35 6076.71,98.15 6081.00,97.91              6081.00,97.91 6107.00,94.58 6107.00,94.58              6114.67,94.43 6120.75,98.88 6131.00,96.07              6137.16,94.38 6140.36,90.86 6146.00,88.35              6146.00,88.35 6167.00,81.65 6167.00,81.65              6167.00,81.65 6182.00,73.81 6182.00,73.81              6182.00,73.81 6192.00,71.44 6192.00,71.44              6196.29,69.88 6197.93,68.10 6203.00,67.30              6203.00,67.30 6225.00,64.44 6225.00,64.44              6228.28,64.72 6230.21,66.76 6235.00,68.07              6241.07,69.73 6245.13,68.48 6250.00,69.21              6255.44,70.03 6257.98,73.37 6268.00,72.96              6268.00,72.96 6294.00,70.00 6294.00,70.00              6294.00,70.00 6313.00,68.18 6313.00,68.18              6313.00,68.18 6330.00,70.00 6330.00,70.00              6330.00,70.00 6344.00,70.00 6344.00,70.00              6344.00,70.00 6359.00,69.00 6359.00,69.00              6359.00,69.00 6377.00,70.00 6377.00,70.00              6388.90,70.13 6387.84,68.21 6396.00,68.01              6396.00,68.01 6409.00,68.96 6409.00,68.96              6409.00,68.96 6419.00,68.96 6419.00,68.96              6419.00,68.96 6439.00,71.00 6439.00,71.00              6455.10,71.08 6448.41,72.03 6460.00,73.94              6460.00,73.94 6472.00,73.94 6472.00,73.94              6472.00,73.94 6482.00,75.81 6482.00,75.81              6482.00,75.81 6495.00,75.81 6495.00,75.81              6495.00,75.81 6547.00,75.81 6547.00,75.81              6547.00,75.81 6569.00,78.91 6569.00,78.91              6569.00,78.91 6586.00,78.91 6586.00,78.91              6594.83,78.89 6594.71,77.33 6602.00,75.51              6602.00,75.51 6639.00,67.42 6639.00,67.42              6639.00,67.42 6652.00,65.71 6652.00,65.71              6662.86,64.25 6660.96,63.02 6674.00,63.00              6683.07,62.99 6684.45,61.61 6689.00,61.46              6689.00,61.46 6698.00,62.00 6698.00,62.00              6711.74,62.16 6710.20,60.60 6722.00,58.46              6737.45,55.65 6749.10,53.18 6765.00,53.00              6771.75,52.92 6771.48,52.09 6777.00,51.30              6777.00,51.30 6794.00,50.00 6794.00,50.00              6794.00,50.00 6811.00,49.00 6811.00,49.00              6820.67,48.96 6830.44,49.73 6840.00,51.14              6844.75,51.84 6847.55,55.16 6852.00,57.05              6858.39,59.75 6861.99,58.41 6866.00,59.49              6870.16,60.61 6874.20,64.58 6884.00,63.91              6889.42,63.54 6894.61,61.38 6899.00,58.21              6903.79,54.75 6903.98,52.02 6910.00,51.00              6910.00,57.18 6909.62,62.21 6912.40,68.00              6916.56,76.66 6922.09,79.43 6930.00,83.63              6938.05,87.90 6940.11,90.34 6950.00,89.96              6950.00,89.96 6964.00,89.00 6964.00,89.00              6964.00,89.00 6975.00,89.84 6975.00,89.84              6975.00,89.84 6983.00,89.84 6983.00,89.84              6983.00,89.84 7000.00,89.84 7000.00,89.84              7000.00,89.84 7015.00,91.00 7015.00,91.00              7015.00,91.00 7041.00,89.87 7041.00,89.87              7041.00,89.87 7053.00,89.87 7053.00,89.87              7053.00,89.87 7064.00,89.32 7064.00,89.32              7064.00,89.32 7074.00,90.04 7074.00,90.04              7074.00,90.04 7090.00,90.04 7090.00,90.04              7090.00,90.04 7101.00,91.00 7101.00,91.00              7101.00,91.00 7121.00,91.00 7121.00,91.00              7130.93,90.98 7128.99,89.92 7136.00,89.00              7136.00,89.00 7147.00,89.00 7147.00,89.00              7147.00,89.00 7172.00,83.46 7172.00,83.46              7172.00,83.46 7181.00,82.08 7181.00,82.08              7188.06,80.22 7199.70,74.91 7206.00,71.14              7209.93,68.78 7213.66,64.81 7218.00,64.15              7218.00,64.15 7234.00,62.84 7234.00,62.84              7234.00,62.84 7250.00,60.17 7250.00,60.17              7250.00,60.17 7273.00,59.00 7273.00,59.00              7273.00,59.00 7310.00,62.99 7310.00,62.99              7310.00,62.99 7323.00,61.08 7323.00,61.08              7323.00,61.08 7341.00,61.08 7341.00,61.08              7341.00,61.08 7374.00,57.04 7374.00,57.04              7379.62,57.34 7381.59,59.51 7387.00,60.77              7390.87,61.26 7397.77,60.95 7402.00,60.77              7402.00,60.77 7416.00,61.91 7416.00,61.91              7416.00,61.91 7429.00,59.09 7429.00,59.09              7429.00,59.09 7440.00,57.70 7440.00,57.70              7444.60,57.00 7450.26,54.22 7454.00,54.38              7462.09,54.73 7471.61,64.50 7483.00,64.96              7488.12,65.17 7497.41,63.80 7502.00,61.60              7507.55,58.94 7515.41,53.18 7522.00,52.18              7525.20,51.70 7527.87,53.59 7533.00,53.91              7539.17,54.29 7541.74,52.47 7547.00,51.90              7547.00,51.90 7560.00,51.90 7560.00,51.90              7565.90,52.49 7566.24,54.85 7575.00,56.79              7575.00,56.79 7590.00,59.90 7590.00,59.90              7590.00,59.90 7600.00,59.90 7600.00,59.90              7600.00,59.90 7624.00,69.78 7624.00,69.78              7628.84,71.32 7633.03,70.98 7638.00,71.00              7638.00,71.00 7653.00,71.96 7653.00,71.96              7659.47,71.70 7661.54,69.83 7666.00,69.10              7666.00,69.10 7681.00,69.10 7681.00,69.10              7681.00,69.10 7703.00,70.30 7703.00,70.30              7703.00,70.30 7719.00,72.82 7719.00,72.82              7719.00,72.82 7729.00,72.82 7729.00,72.82              7729.00,72.82 7744.00,79.44 7744.00,79.44              7749.92,81.60 7752.50,80.58 7758.00,81.17              7762.93,81.70 7765.27,83.26 7771.00,82.91              7771.00,82.91 7801.00,75.78 7801.00,75.78              7810.63,75.70 7811.59,77.14 7818.00,77.91              7818.00,77.91 7835.00,77.91 7835.00,77.91              7844.36,78.05 7843.58,79.87 7852.00,82.12              7860.38,84.35 7860.70,83.91 7869.00,84.00              7869.00,84.00 7886.00,85.00 7886.00,85.00              7894.03,84.96 7902.02,82.25 7910.00,83.29              7910.00,83.29 7928.00,86.70 7928.00,86.70              7928.00,86.70 7937.00,87.39 7937.00,87.39              7942.09,88.46 7944.00,91.24 7954.00,91.21              7957.99,90.86 7960.97,90.25 7965.00,91.21              7969.16,92.71 7971.28,95.10 7978.00,95.83              7984.74,96.56 7988.21,95.16 7992.00,95.18              7992.00,95.18 8002.00,96.83 8002.00,96.83              8005.94,97.25 8008.94,96.63 8013.00,97.60              8013.00,97.60 8029.00,103.44 8029.00,103.44              8034.07,105.29 8036.63,104.66 8040.00,105.39              8049.06,107.34 8044.86,109.17 8060.00,109.00              8071.35,108.86 8074.81,105.02 8079.00,103.97              8081.42,103.38 8086.00,104.08 8089.00,103.97              8095.64,103.69 8098.27,101.29 8103.00,101.53              8103.00,101.53 8114.00,103.54 8114.00,103.54              8114.00,103.54 8122.00,104.39 8122.00,104.39              8122.00,104.39 8130.00,107.08 8130.00,107.08              8130.00,107.08 8153.00,112.54 8153.00,112.54              8153.00,112.54 8161.00,113.38 8161.00,113.38              8166.18,114.41 8192.85,122.27 8196.82,124.43              8199.76,126.03 8203.45,132.06 8206.08,135.00              8211.78,141.38 8217.24,148.08 8220.67,156.00              8220.67,156.00 8223.40,163.00 8223.40,163.00              8223.40,163.00 8228.19,172.00 8228.19,172.00              8228.19,172.00 8231.75,185.00 8231.75,185.00              8233.31,189.75 8237.48,197.05 8240.53,201.00              8243.02,204.23 8246.77,207.29 8248.28,211.00              8248.28,211.00 8251.90,231.00 8251.90,231.00              8253.63,238.08 8255.97,240.44 8257.38,245.00              8257.38,245.00 8258.93,252.00 8258.93,252.00              8258.93,252.00 8262.25,261.00 8262.25,261.00              8262.25,261.00 8266.55,276.00 8266.55,276.00              8266.55,276.00 8270.60,284.00 8270.60,284.00              8275.43,294.21 8280.56,306.49 8279.91,318.00              8279.45,326.04 8276.21,335.62 8277.30,343.00              8278.70,352.49 8286.42,363.31 8287.49,367.00              8287.49,367.00 8289.46,381.00 8289.46,381.00              8289.46,381.00 8293.89,399.00 8293.89,399.00              8293.89,399.00 8293.89,424.00 8293.89,424.00              8293.89,424.00 8292.92,435.00 8292.92,435.00              8292.82,441.97 8294.38,443.10 8292.92,454.00              8292.92,454.00 8290.00,465.00 8290.00,465.00              8290.00,465.00 8290.00,476.00 8290.00,476.00              8289.15,482.38 8286.72,488.36 8287.09,495.00              8287.09,495.00 8287.91,502.00 8287.91,502.00              8288.41,509.28 8288.03,516.81 8289.68,524.00              8291.26,530.90 8295.39,535.93 8294.82,544.00              8294.82,544.00 8293.04,558.00 8293.04,558.00              8293.04,558.00 8293.78,570.00 8293.78,570.00              8292.94,576.64 8290.02,575.44 8290.00,589.00              8290.00,589.00 8291.09,623.00 8291.09,623.00              8291.09,623.00 8292.99,640.00 8292.99,640.00              8293.31,654.25 8287.41,660.49 8288.04,675.00              8288.04,675.00 8292.45,706.00 8292.45,706.00              8294.97,717.88 8297.15,720.88 8297.00,734.00              8297.00,734.00 8296.09,752.00 8296.09,752.00              8296.09,752.00 8298.16,763.00 8298.16,763.00              8298.16,763.00 8295.93,784.00 8295.93,784.00              8295.93,784.00 8295.93,800.00 8295.93,800.00              8296.02,811.75 8297.82,812.01 8295.93,826.00              8295.93,826.00 8292.37,842.00 8292.37,842.00              8290.43,849.02 8288.70,849.56 8289.04,858.00              8289.47,868.70 8295.28,873.72 8297.07,878.00              8297.84,879.83 8298.52,886.77 8298.63,889.00              8298.63,889.00 8297.09,906.00 8297.09,906.00              8297.84,919.50 8296.31,914.38 8294.98,925.00              8294.98,925.00 8294.98,934.00 8294.98,934.00              8294.09,938.64 8291.50,941.34 8291.09,948.00              8290.52,957.36 8294.32,966.95 8294.91,975.00              8294.91,975.00 8295.81,990.00 8295.81,990.00              8295.42,994.80 8293.75,996.90 8294.09,1003.00              8294.09,1003.00 8294.79,1011.00 8294.79,1011.00              8294.79,1011.00 8293.29,1021.00 8293.29,1021.00              8293.29,1021.00 8292.01,1043.00 8292.01,1043.00              8292.01,1043.00 8294.42,1058.00 8294.42,1058.00              8294.42,1058.00 8293.04,1078.00 8293.04,1078.00              8293.04,1078.00 8293.79,1090.00 8293.79,1090.00              8293.47,1095.03 8291.80,1095.52 8292.01,1105.00              8292.01,1105.00 8293.82,1126.00 8293.82,1126.00              8293.82,1126.00 8293.09,1133.00 8293.09,1133.00              8292.72,1139.62 8295.23,1144.54 8294.75,1149.00              8294.18,1154.40 8291.12,1155.59 8291.17,1166.00              8291.17,1166.00 8291.17,1179.00 8291.17,1179.00              8291.17,1179.00 8291.17,1193.00 8291.17,1193.00              8291.17,1193.00 8292.00,1211.00 8292.00,1211.00              8292.00,1211.00 8291.09,1225.00 8291.09,1225.00              8291.09,1225.00 8292.82,1244.00 8292.82,1244.00              8292.82,1244.00 8291.92,1255.00 8291.92,1255.00              8291.92,1255.00 8291.92,1268.00 8291.92,1268.00              8291.92,1268.00 8290.03,1284.00 8290.03,1284.00              8290.03,1284.00 8292.96,1313.00 8292.96,1313.00              8292.96,1313.00 8292.00,1324.00 8292.00,1324.00              8292.00,1324.00 8292.66,1341.00 8292.66,1341.00              8292.66,1341.00 8292.04,1352.00 8292.04,1352.00              8292.04,1352.00 8293.36,1362.00 8293.36,1362.00              8293.36,1362.00 8293.36,1371.00 8293.36,1371.00              8293.36,1371.00 8293.36,1377.00 8293.36,1377.00              8292.88,1383.01 8290.82,1380.23 8291.00,1396.00              8291.00,1396.00 8293.54,1420.00 8293.54,1420.00              8293.17,1422.97 8291.45,1425.71 8291.09,1431.00              8291.09,1431.00 8291.81,1444.00 8291.81,1444.00              8291.08,1452.89 8287.69,1462.03 8288.04,1471.00              8288.22,1475.64 8289.71,1480.36 8288.59,1485.00              8286.79,1492.40 8279.48,1498.59 8276.40,1505.00              8273.86,1510.30 8274.51,1514.13 8272.98,1516.91              8270.82,1520.85 8263.70,1523.88 8260.93,1534.00              8259.34,1539.79 8260.47,1543.18 8259.79,1548.00              8258.98,1553.79 8254.85,1560.17 8258.22,1571.00              8258.22,1571.00 8268.03,1590.00 8268.03,1590.00              8268.48,1593.45 8264.57,1597.46 8265.09,1606.00              8265.09,1606.00 8267.81,1619.00 8267.81,1619.00              8268.01,1627.35 8264.40,1633.63 8266.93,1643.00              8266.93,1643.00 8273.88,1661.00 8273.88,1661.00              8273.88,1661.00 8280.79,1672.00 8280.79,1672.00              8282.41,1675.71 8284.97,1688.53 8285.72,1693.00              8286.35,1696.78 8287.17,1701.23 8286.53,1705.00              8285.44,1711.49 8282.65,1715.79 8283.09,1723.00              8283.63,1731.71 8287.73,1733.89 8287.91,1740.00              8287.91,1740.00 8287.09,1751.00 8287.09,1751.00              8287.32,1754.97 8288.62,1761.04 8288.08,1765.00              8287.36,1770.26 8284.13,1770.97 8284.00,1782.00              8283.95,1786.67 8283.71,1792.55 8284.93,1797.00              8284.93,1797.00 8289.02,1807.00 8289.02,1807.00              8289.02,1807.00 8290.09,1830.00 8290.09,1830.00              8290.52,1835.90 8292.55,1838.92 8292.26,1847.00              8292.26,1847.00 8293.37,1873.00 8293.37,1873.00              8293.37,1873.00 8287.26,1897.00 8287.26,1897.00              8284.65,1910.99 8287.28,1911.11 8286.50,1917.00              8286.50,1917.00 8279.04,1947.00 8279.04,1947.00              8278.69,1957.61 8284.32,1963.09 8284.35,1968.00              8284.38,1972.30 8279.53,1976.12 8280.09,1986.00              8280.28,1989.41 8281.34,2001.25 8282.22,2004.00              8284.03,2009.64 8287.16,2011.82 8287.26,2016.00              8287.26,2016.00 8286.25,2027.00 8286.25,2027.00              8286.25,2027.00 8286.25,2039.00 8286.25,2039.00              8286.25,2039.00 8286.25,2046.00 8286.25,2046.00              8286.25,2046.00 8286.25,2055.00 8286.25,2055.00              8286.25,2055.00 8286.25,2064.00 8286.25,2064.00              8286.25,2064.00 8286.82,2074.00 8286.82,2074.00              8286.82,2074.00 8286.01,2085.00 8286.01,2085.00              8286.01,2085.00 8286.66,2093.00 8286.66,2093.00              8286.66,2093.00 8286.09,2102.00 8286.09,2102.00              8286.50,2108.63 8289.02,2111.18 8289.94,2116.00              8289.94,2116.00 8289.94,2131.00 8289.94,2131.00              8289.94,2131.00 8290.99,2140.00 8290.99,2140.00              8291.27,2151.99 8288.73,2151.72 8289.04,2161.00              8289.46,2173.44 8288.16,2167.97 8287.17,2177.00              8287.17,2177.00 8286.63,2185.00 8286.63,2185.00              8286.63,2185.00 8284.15,2194.00 8284.15,2194.00              8284.15,2194.00 8284.15,2213.00 8284.15,2213.00              8284.02,2223.28 8285.62,2223.23 8285.90,2229.00              8285.90,2229.00 8285.04,2239.00 8285.04,2239.00              8285.04,2239.00 8286.17,2260.00 8286.17,2260.00              8286.99,2267.49 8290.18,2269.43 8289.90,2276.00              8289.32,2289.24 8280.28,2296.86 8281.09,2310.00              8281.66,2319.20 8291.03,2334.24 8292.34,2339.00              8293.46,2343.08 8291.61,2346.95 8291.09,2351.00              8291.09,2351.00 8291.09,2360.00 8291.09,2360.00              8291.09,2360.00 8291.86,2372.00 8291.86,2372.00              8291.86,2372.00 8287.89,2388.00 8287.89,2388.00              8287.89,2388.00 8286.37,2399.00 8286.37,2399.00              8284.00,2407.71 8278.73,2415.73 8279.04,2425.00              8279.21,2430.00 8280.33,2431.59 8281.40,2436.00              8281.40,2436.00 8282.47,2443.00 8282.47,2443.00              8283.04,2445.95 8286.07,2454.03 8287.33,2457.00              8287.33,2457.00 8295.16,2474.00 8295.16,2474.00              8296.11,2477.72 8294.06,2483.90 8294.02,2489.00              8294.02,2489.00 8294.02,2496.00 8294.02,2496.00              8294.06,2500.77 8295.39,2505.29 8294.02,2510.00              8292.34,2516.10 8288.49,2518.87 8287.19,2527.00              8287.19,2527.00 8287.19,2537.00 8287.19,2537.00              8286.52,2540.67 8284.35,2542.93 8284.04,2550.00              8283.64,2559.03 8285.88,2560.39 8284.88,2565.00              8284.88,2565.00 8280.66,2582.00 8280.66,2582.00              8278.42,2587.87 8273.57,2590.95 8274.04,2603.00              8274.25,2608.31 8277.07,2627.54 8278.95,2632.00              8281.49,2637.98 8285.86,2641.19 8287.91,2648.00              8291.02,2660.84 8288.89,2660.28 8287.91,2672.00              8287.91,2672.00 8287.91,2684.00 8287.91,2684.00              8287.76,2704.17 8279.78,2714.07 8280.00,2733.00              8280.10,2741.27 8282.03,2743.50 8283.38,2751.00              8283.38,2751.00 8284.30,2763.00 8284.30,2763.00              8284.30,2763.00 8287.30,2779.00 8287.30,2779.00              8287.30,2779.00 8289.62,2789.00 8289.62,2789.00              8289.62,2789.00 8285.16,2817.00 8285.16,2817.00              8285.16,2817.00 8285.16,2835.00 8285.16,2835.00              8285.16,2835.00 8285.16,2843.00 8285.16,2843.00              8285.16,2843.00 8285.92,2852.00 8285.92,2852.00              8285.92,2852.00 8285.08,2859.00 8285.08,2859.00              8285.08,2859.00 8285.08,2869.00 8285.08,2869.00              8285.02,2881.82 8289.44,2885.91 8288.88,2894.00              8288.88,2894.00 8282.74,2916.00 8282.74,2916.00              8281.34,2922.22 8282.42,2923.40 8282.74,2929.00              8283.68,2941.18 8276.17,2942.57 8276.00,2957.00              8275.89,2966.32 8276.40,2975.09 8279.55,2984.00              8279.55,2984.00 8289.61,3007.00 8289.61,3007.00              8290.60,3011.69 8288.07,3017.14 8288.00,3024.00              8287.88,3036.14 8290.59,3035.69 8290.96,3043.00              8290.96,3043.00 8290.21,3057.00 8290.21,3057.00              8290.21,3059.24 8290.92,3061.84 8290.21,3064.00              8289.65,3066.48 8286.38,3070.32 8284.90,3073.00              8282.40,3077.56 8281.12,3082.81 8281.02,3088.00              8280.81,3098.14 8283.86,3100.50 8283.87,3104.00              8283.88,3107.20 8281.57,3109.16 8280.36,3115.00              8279.54,3119.93 8280.43,3123.27 8280.36,3128.00              8279.87,3138.75 8282.10,3149.40 8283.27,3160.00              8283.27,3160.00 8283.27,3172.00 8283.27,3172.00              8283.27,3172.00 8284.79,3183.00 8284.79,3183.00              8285.13,3188.43 8282.02,3193.03 8282.24,3204.00              8282.24,3204.00 8282.24,3220.00 8282.24,3220.00              8281.97,3225.73 8279.74,3229.66 8280.09,3236.00              8280.09,3236.00 8280.68,3241.00 8280.68,3241.00              8280.68,3241.00 8280.01,3252.00 8280.01,3252.00              8280.01,3252.00 8280.68,3263.00 8280.68,3263.00              8280.68,3263.00 8279.79,3275.00 8279.79,3275.00              8279.79,3275.00 8277.15,3285.00 8277.15,3285.00              8277.15,3285.00 8277.15,3303.00 8277.15,3303.00              8277.15,3315.52 8282.68,3324.52 8283.47,3328.00              8283.47,3328.00 8282.90,3342.00 8282.90,3342.00              8282.35,3347.87 8277.62,3358.70 8278.09,3367.00              8278.34,3371.32 8279.98,3376.78 8278.92,3381.00              8277.49,3386.70 8271.41,3390.88 8272.09,3402.00              8272.55,3409.51 8276.12,3415.94 8277.61,3423.00              8278.60,3427.69 8277.13,3431.43 8279.56,3438.00              8282.09,3444.86 8286.54,3446.83 8285.89,3455.00              8285.89,3455.00 8283.47,3465.00 8283.47,3465.00              8283.47,3465.00 8282.79,3475.00 8282.79,3475.00              8281.83,3481.84 8279.86,3480.00 8280.00,3493.00              8280.11,3502.04 8284.43,3510.07 8283.96,3522.00              8283.96,3522.00 8282.17,3534.00 8282.17,3534.00              8282.17,3534.00 8280.61,3554.00 8280.61,3554.00              8279.77,3557.94 8277.53,3560.62 8277.09,3567.00              8277.09,3567.00 8279.83,3589.00 8279.83,3589.00              8280.46,3595.55 8279.41,3597.41 8279.09,3603.00              8278.57,3612.19 8282.79,3615.86 8282.79,3621.00              8282.79,3624.86 8280.49,3627.72 8279.47,3633.00              8278.07,3640.24 8277.92,3647.65 8278.00,3655.00              8278.00,3655.00 8279.55,3667.00 8279.55,3667.00              8279.55,3672.52 8278.29,3675.96 8279.55,3682.00              8280.83,3687.01 8285.06,3698.01 8284.91,3703.00              8284.84,3705.22 8282.43,3710.11 8281.64,3713.00              8280.65,3716.63 8276.90,3737.93 8277.09,3741.00              8277.44,3746.66 8279.08,3748.30 8280.37,3753.00              8280.37,3753.00 8282.68,3772.00 8282.68,3772.00              8282.68,3772.00 8281.04,3785.00 8281.04,3785.00              8281.04,3785.00 8281.04,3795.00 8281.04,3795.00              8281.04,3795.00 8279.91,3810.00 8279.91,3810.00              8279.91,3810.00 8278.09,3820.00 8278.09,3820.00              8278.09,3820.00 8278.09,3835.00 8278.09,3835.00              8277.98,3846.93 8274.66,3849.65 8275.04,3859.00              8275.32,3866.06 8277.80,3868.09 8277.98,3875.00              8278.25,3884.60 8275.99,3888.38 8274.46,3897.00              8274.46,3897.00 8272.72,3915.00 8272.72,3915.00              8272.72,3915.00 8270.01,3938.00 8270.01,3938.00              8270.01,3938.00 8271.30,3957.00 8271.30,3957.00              8272.41,3964.76 8274.98,3975.27 8274.48,3983.00              8274.21,3987.31 8273.62,3989.48 8274.48,3994.00              8274.48,3994.00 8276.63,4002.00 8276.63,4002.00              8276.63,4002.00 8277.66,4012.00 8277.66,4012.00              8277.66,4012.00 8282.90,4037.00 8282.90,4037.00              8283.32,4045.59 8279.76,4049.21 8277.93,4056.00              8276.71,4060.49 8276.98,4065.37 8277.00,4070.00              8277.00,4070.00 8277.79,4085.00 8277.79,4085.00              8277.01,4090.34 8273.63,4092.96 8274.04,4103.00              8274.47,4113.75 8281.14,4118.63 8280.79,4127.00              8280.47,4134.70 8277.23,4138.69 8276.30,4145.00              8276.30,4145.00 8275.70,4153.00 8275.70,4153.00              8275.70,4153.00 8272.30,4171.00 8272.30,4171.00              8271.58,4176.01 8272.17,4179.03 8270.65,4185.00              8270.65,4185.00 8267.93,4193.00 8267.93,4193.00              8266.88,4196.88 8264.88,4209.08 8265.04,4213.00              8265.19,4216.82 8269.15,4232.72 8270.91,4236.00              8274.04,4241.79 8277.94,4243.46 8279.37,4250.00              8282.50,4264.39 8276.02,4267.53 8276.00,4282.00              8276.00,4282.00 8276.00,4312.00 8276.00,4312.00              8276.00,4312.00 8277.79,4327.00 8277.79,4327.00              8277.79,4327.00 8275.84,4352.00 8275.84,4352.00              8275.84,4352.00 8274.00,4369.00 8274.00,4369.00              8274.00,4369.00 8274.81,4386.00 8274.81,4386.00              8274.81,4386.00 8273.04,4396.00 8273.04,4396.00              8273.04,4396.00 8273.04,4417.00 8273.04,4417.00              8273.02,4430.65 8276.04,4430.10 8277.07,4437.00              8277.60,4440.54 8276.17,4444.05 8276.04,4448.00              8276.04,4448.00 8276.85,4461.00 8276.85,4461.00              8276.21,4465.94 8272.61,4468.46 8270.56,4474.00              8268.38,4479.89 8269.53,4483.38 8268.33,4489.00              8266.93,4495.57 8264.33,4498.79 8264.04,4506.00              8263.65,4515.54 8268.46,4523.61 8267.88,4532.00              8267.67,4535.09 8266.66,4537.12 8265.92,4540.00              8265.92,4540.00 8264.37,4549.00 8264.37,4549.00              8262.08,4557.27 8259.36,4560.63 8261.93,4570.00              8263.25,4574.83 8269.33,4585.01 8272.52,4588.99              8274.73,4591.75 8277.93,4594.20 8279.56,4597.09              8283.64,4604.31 8281.67,4608.12 8282.09,4615.00              8282.59,4622.94 8287.17,4627.94 8286.70,4634.00              8286.27,4639.59 8280.56,4649.54 8278.75,4655.00              8277.36,4659.19 8275.85,4677.43 8276.04,4682.00              8276.57,4695.22 8285.52,4700.26 8287.99,4707.00              8290.22,4713.18 8287.86,4721.26 8287.99,4728.00              8287.99,4728.00 8288.91,4737.00 8288.91,4737.00              8288.91,4737.00 8290.17,4755.00 8290.17,4755.00              8290.17,4755.00 8291.45,4762.00 8291.45,4762.00              8291.82,4765.49 8290.33,4770.66 8292.30,4784.00              8292.30,4784.00 8296.73,4804.00 8296.73,4804.00              8296.73,4804.00 8296.02,4812.00 8296.02,4812.00              8296.02,4812.00 8296.02,4826.00 8296.02,4826.00              8296.02,4836.22 8298.05,4844.29 8300.91,4854.00              8300.91,4854.00 8303.61,4862.00 8303.61,4862.00              8304.56,4866.61 8302.87,4870.76 8303.04,4876.00              8303.04,4876.00 8305.15,4891.00 8305.15,4891.00              8305.15,4891.00 8305.15,4902.00 8305.15,4902.00              8306.06,4907.16 8307.88,4909.54 8308.61,4913.00              8308.61,4913.00 8310.25,4929.00 8310.25,4929.00              8310.25,4929.00 8308.00,4951.00 8308.00,4951.00              8308.00,4951.00 8308.00,4957.00 8308.00,4957.00              8308.00,4957.00 8307.00,4977.00 8307.00,4977.00              8307.00,4977.00 8307.91,4991.00 8307.91,4991.00              8307.91,4991.00 8306.03,5004.00 8306.03,5004.00              8306.03,5004.00 8308.04,5020.00 8308.04,5020.00              8308.04,5020.00 8308.04,5032.00 8308.04,5032.00              8308.04,5032.00 8309.00,5044.00 8309.00,5044.00              8309.00,5044.00 8309.00,5071.00 8309.00,5071.00              8308.99,5074.87 8308.50,5083.61 8307.07,5087.00              8305.49,5090.73 8302.25,5093.17 8300.75,5100.00              8299.06,5107.01 8300.82,5110.37 8300.75,5115.00              8300.75,5115.00 8299.04,5132.00 8299.04,5132.00              8298.68,5141.11 8300.79,5143.36 8296.07,5152.91              8294.23,5156.64 8291.23,5158.60 8288.79,5162.00              8285.07,5167.19 8284.08,5171.75 8284.00,5178.00              8283.97,5180.89 8284.28,5186.49 8283.42,5189.00              8282.54,5191.55 8279.97,5194.53 8278.47,5197.00              8278.47,5197.00 8273.37,5208.00 8273.37,5208.00              8271.27,5211.71 8269.19,5213.58 8267.56,5218.00              8264.44,5226.42 8266.91,5237.93 8267.00,5247.00              8267.15,5261.86 8265.82,5254.69 8264.30,5265.00              8264.30,5265.00 8263.51,5275.00 8263.51,5275.00              8263.51,5275.00 8259.67,5285.00 8259.67,5285.00              8259.67,5285.00 8257.17,5297.00 8257.17,5297.00              8257.17,5297.00 8256.63,5305.00 8256.63,5305.00              8255.64,5310.17 8254.03,5311.39 8254.03,5318.00              8254.03,5331.69 8264.61,5348.09 8278.00,5352.00              8278.00,5352.00 8271.18,5365.00 8271.18,5365.00              8271.18,5365.00 8266.73,5381.00 8266.73,5381.00              8266.73,5381.00 8261.40,5390.00 8261.40,5390.00              8257.91,5397.29 8260.14,5398.24 8252.49,5406.90              8252.49,5406.90 8230.09,5423.18 8230.09,5423.18              8224.91,5428.13 8219.74,5438.96 8213.91,5443.03              8209.14,5446.37 8200.72,5447.06 8190.00,5454.79              8178.56,5463.03 8183.77,5467.56 8171.00,5472.79              8165.14,5475.19 8161.88,5472.77 8154.00,5475.55              8154.00,5475.55 8132.00,5484.54 8132.00,5484.54              8120.04,5488.30 8115.03,5487.17 8106.00,5489.37              8097.69,5491.40 8079.00,5495.58 8071.00,5495.25              8071.00,5495.25 8060.00,5494.04 8060.00,5494.04              8060.00,5494.04 8039.00,5494.04 8039.00,5494.04              8029.07,5494.02 8031.01,5495.08 8024.00,5496.08              8024.00,5496.08 8004.00,5496.08 8004.00,5496.08              8004.00,5496.08 7993.00,5496.08 7993.00,5496.08              7993.00,5496.08 7970.00,5494.00 7970.00,5494.00              7970.00,5494.00 7952.00,5494.00 7952.00,5494.00              7952.00,5494.00 7933.00,5493.00 7933.00,5493.00              7933.00,5493.00 7917.00,5494.74 7917.00,5494.74              7917.00,5494.74 7901.00,5493.04 7901.00,5493.04              7901.00,5493.04 7886.00,5494.00 7886.00,5494.00              7886.00,5494.00 7850.00,5492.00 7850.00,5492.00              7850.00,5492.00 7801.00,5491.00 7801.00,5491.00              7801.00,5491.00 7774.00,5489.00 7774.00,5489.00              7774.00,5489.00 7758.00,5490.40 7758.00,5490.40              7758.00,5490.40 7746.00,5489.02 7746.00,5489.02              7746.00,5489.02 7725.00,5490.26 7725.00,5490.26              7725.00,5490.26 7689.00,5488.83 7689.00,5488.83              7680.76,5487.94 7680.22,5486.02 7669.00,5486.00              7669.00,5486.00 7655.00,5486.00 7655.00,5486.00              7648.86,5485.92 7647.40,5484.99 7642.00,5484.06              7642.00,5484.06 7633.00,5484.06 7633.00,5484.06              7621.28,5482.66 7615.03,5479.98 7602.00,5480.00              7602.00,5480.00 7586.00,5480.91 7586.00,5480.91              7580.63,5480.54 7578.14,5478.73 7572.00,5479.09              7567.55,5479.35 7563.50,5481.01 7559.00,5480.68              7559.00,5480.68 7537.00,5479.09 7537.00,5479.09              7531.12,5478.76 7528.99,5480.29 7524.00,5480.83              7524.00,5480.83 7510.00,5481.46 7510.00,5481.46              7504.96,5482.37 7502.59,5483.99 7497.00,5483.97              7489.49,5483.95 7489.61,5481.02 7477.00,5481.00              7477.00,5481.00 7466.00,5481.00 7466.00,5481.00              7455.36,5481.05 7456.28,5482.91 7450.00,5483.79              7450.00,5483.79 7424.00,5485.00 7424.00,5485.00              7416.02,5484.90 7411.77,5482.90 7405.00,5482.08              7405.00,5482.08 7382.00,5482.08 7382.00,5482.08              7372.75,5481.87 7372.79,5478.94 7365.00,5477.47              7365.00,5477.47 7352.00,5476.83 7352.00,5476.83              7352.00,5476.83 7344.00,5475.30 7344.00,5475.30              7344.00,5475.30 7322.00,5474.00 7322.00,5474.00              7314.79,5474.09 7312.99,5475.59 7309.00,5475.74              7305.87,5475.86 7302.40,5474.62 7296.00,5475.09              7290.34,5475.50 7288.11,5477.22 7284.00,5477.98              7284.00,5477.98 7274.00,5477.98 7274.00,5477.98              7266.25,5479.01 7268.20,5480.98 7257.00,5481.00              7257.00,5481.00 7216.00,5481.00 7216.00,5481.00              7206.37,5481.02 7200.91,5483.43 7192.00,5484.89              7187.17,5485.39 7176.09,5485.32 7171.00,5484.89              7171.00,5484.89 7137.00,5488.00 7137.00,5488.00              7137.00,5488.00 7123.00,5488.00 7123.00,5488.00              7123.00,5488.00 7082.00,5491.00 7082.00,5491.00              7082.00,5491.00 7053.00,5491.00 7053.00,5491.00              7044.45,5491.01 7042.82,5492.34 7039.00,5492.42              7039.00,5492.42 7027.00,5491.04 7027.00,5491.04              7027.00,5491.04 7000.00,5493.78 7000.00,5493.78              6993.56,5493.29 6988.84,5489.13 6978.00,5489.00              6971.66,5488.93 6965.10,5489.34 6959.00,5491.22              6959.00,5491.22 6952.00,5493.62 6952.00,5493.62              6952.00,5493.62 6943.00,5495.22 6943.00,5495.22              6943.00,5495.22 6932.00,5499.71 6932.00,5499.71              6932.00,5499.71 6918.00,5499.00 6918.00,5499.00              6918.00,5499.00 6890.00,5499.66 6890.00,5499.66              6881.28,5498.80 6872.91,5495.65 6864.00,5496.04              6855.54,5496.41 6851.58,5499.64 6847.00,5500.81              6847.00,5500.81 6832.00,5500.81 6832.00,5500.81              6832.00,5500.81 6808.00,5503.83 6808.00,5503.83              6808.00,5503.83 6795.00,5504.46 6795.00,5504.46              6788.35,5505.64 6776.89,5509.58 6770.00,5509.66              6770.00,5509.66 6763.00,5509.04 6763.00,5509.04              6763.00,5509.04 6749.00,5510.00 6749.00,5510.00              6749.00,5510.00 6731.00,5510.00 6731.00,5510.00              6723.20,5509.89 6722.83,5508.13 6716.00,5506.67              6716.00,5506.67 6702.00,5505.61 6702.00,5505.61              6698.06,5504.76 6695.97,5502.66 6690.00,5501.46              6690.00,5501.46 6652.00,5495.60 6652.00,5495.60              6652.00,5495.60 6634.00,5488.09 6634.00,5488.09              6628.52,5486.15 6617.89,5485.03 6612.00,5484.96              6612.00,5484.96 6601.00,5484.96 6601.00,5484.96              6596.65,5484.61 6595.00,5483.84 6590.00,5484.04              6590.00,5484.04 6579.00,5485.74 6579.00,5485.74              6579.00,5485.74 6572.00,5485.04 6572.00,5485.04              6572.00,5485.04 6559.00,5485.04 6559.00,5485.04              6559.00,5485.04 6545.00,5482.92 6545.00,5482.92              6545.00,5482.92 6532.00,5482.92 6532.00,5482.92              6523.77,5481.33 6526.21,5480.02 6515.00,5480.00              6515.00,5480.00 6498.00,5480.00 6498.00,5480.00              6498.00,5480.00 6482.00,5479.00 6482.00,5479.00              6482.00,5479.00 6458.00,5479.00 6458.00,5479.00              6458.00,5479.00 6411.00,5479.00 6411.00,5479.00              6411.00,5479.00 6399.00,5478.04 6399.00,5478.04              6399.00,5478.04 6385.00,5478.04 6385.00,5478.04              6385.00,5478.04 6374.00,5477.04 6374.00,5477.04              6374.00,5477.04 6359.00,5477.91 6359.00,5477.91              6359.00,5477.91 6348.00,5476.96 6348.00,5476.96              6348.00,5476.96 6336.00,5476.96 6336.00,5476.96              6336.00,5476.96 6326.00,5476.00 6326.00,5476.00              6326.00,5476.00 6313.00,5476.00 6313.00,5476.00              6313.00,5476.00 6302.00,5476.79 6302.00,5476.79              6302.00,5476.79 6285.00,5474.29 6285.00,5474.29              6285.00,5474.29 6262.00,5473.00 6262.00,5473.00              6262.00,5473.00 6237.00,5471.12 6237.00,5471.12              6237.00,5471.12 6211.00,5471.12 6211.00,5471.12              6211.00,5471.12 6199.00,5471.12 6199.00,5471.12              6199.00,5471.12 6184.00,5471.12 6184.00,5471.12              6184.00,5471.12 6172.00,5471.95 6172.00,5471.95              6172.00,5471.95 6157.00,5471.95 6157.00,5471.95              6157.00,5471.95 6142.00,5471.00 6142.00,5471.00              6142.00,5471.00 6090.00,5471.00 6090.00,5471.00              6090.00,5471.00 6064.00,5469.00 6064.00,5469.00              6064.00,5469.00 6037.00,5469.00 6037.00,5469.00              6037.00,5469.00 6018.00,5468.00 6018.00,5468.00              6018.00,5468.00 6006.00,5467.05 6006.00,5467.05              6006.00,5467.05 5990.00,5467.05 5990.00,5467.05              5990.00,5467.05 5973.00,5468.39 5973.00,5468.39              5973.00,5468.39 5948.00,5466.04 5948.00,5466.04              5948.00,5466.04 5929.00,5467.25 5929.00,5467.25              5929.00,5467.25 5919.00,5467.25 5919.00,5467.25              5919.00,5467.25 5898.00,5469.00 5898.00,5469.00              5890.57,5468.91 5890.53,5467.76 5885.00,5467.08              5885.00,5467.08 5871.00,5467.08 5871.00,5467.08              5871.00,5467.08 5858.00,5466.00 5858.00,5466.00              5858.00,5466.00 5816.00,5464.91 5816.00,5464.91              5808.39,5464.35 5810.87,5462.85 5798.00,5463.00              5798.00,5463.00 5771.00,5464.96 5771.00,5464.96              5771.00,5464.96 5754.00,5464.25 5754.00,5464.25              5754.00,5464.25 5744.00,5464.25 5744.00,5464.25              5744.00,5464.25 5710.00,5463.00 5710.00,5463.00              5710.00,5463.00 5678.00,5465.41 5678.00,5465.41              5678.00,5465.41 5666.00,5464.04 5666.00,5464.04              5666.00,5464.04 5644.00,5464.04 5644.00,5464.04              5644.00,5464.04 5624.00,5462.04 5624.00,5462.04              5624.00,5462.04 5615.00,5462.66 5615.00,5462.66              5615.00,5462.66 5600.00,5461.83 5600.00,5461.83              5600.00,5461.83 5586.00,5460.00 5586.00,5460.00              5586.00,5460.00 5578.00,5460.00 5578.00,5460.00              5572.30,5459.22 5571.28,5457.76 5564.00,5458.04              5564.00,5458.04 5551.00,5458.96 5551.00,5458.96              5544.11,5458.66 5544.45,5457.02 5534.00,5457.00              5534.00,5457.00 5425.00,5457.00 5425.00,5457.00              5425.00,5457.00 5410.00,5458.00 5410.00,5458.00              5394.22,5458.18 5398.35,5456.69 5386.00,5455.15              5376.23,5453.94 5376.70,5454.04 5367.00,5454.00              5367.00,5454.00 5351.00,5453.00 5351.00,5453.00              5351.00,5453.00 5337.00,5452.04 5337.00,5452.04              5337.00,5452.04 5322.00,5452.04 5322.00,5452.04              5322.00,5452.04 5298.00,5450.09 5298.00,5450.09              5298.00,5450.09 5285.00,5451.00 5285.00,5451.00              5285.00,5451.00 5270.00,5450.00 5270.00,5450.00              5270.00,5450.00 5249.00,5449.01 5249.00,5449.01              5249.00,5449.01 5236.00,5449.96 5236.00,5449.96              5236.00,5449.96 5225.00,5449.00 5225.00,5449.00              5225.00,5449.00 5203.00,5449.00 5203.00,5449.00              5203.00,5449.00 5166.00,5446.00 5166.00,5446.00              5166.00,5446.00 5130.00,5446.00 5130.00,5446.00              5130.00,5446.00 5118.00,5445.05 5118.00,5445.05              5118.00,5445.05 5105.00,5445.05 5105.00,5445.05              5105.00,5445.05 5095.00,5445.82 5095.00,5445.82              5095.00,5445.82 5087.00,5445.30 5087.00,5445.30              5087.00,5445.30 5076.00,5445.30 5076.00,5445.30              5076.00,5445.30 5063.00,5445.30 5063.00,5445.30              5063.00,5445.30 5053.00,5445.30 5053.00,5445.30              5053.00,5445.30 5038.00,5444.04 5038.00,5444.04              5038.00,5444.04 5025.00,5444.96 5025.00,5444.96              5025.00,5444.96 5010.00,5443.00 5010.00,5443.00              5010.00,5443.00 5004.00,5443.00 5004.00,5443.00              4989.34,5442.82 4975.30,5439.55 4961.00,5436.66              4961.00,5436.66 4952.00,5435.25 4952.00,5435.25              4952.00,5435.25 4940.00,5432.41 4940.00,5432.41              4931.21,5429.98 4927.73,5427.79 4918.00,5428.01              4918.00,5428.01 4904.00,5429.96 4904.00,5429.96              4904.00,5429.96 4887.00,5429.05 4887.00,5429.05              4887.00,5429.05 4873.00,5429.05 4873.00,5429.05              4873.00,5429.05 4862.00,5430.00 4862.00,5430.00              4862.00,5430.00 4847.00,5430.00 4847.00,5430.00              4847.00,5430.00 4828.00,5428.08 4828.00,5428.08              4828.00,5428.08 4815.00,5428.08 4815.00,5428.08              4804.91,5427.95 4803.21,5425.58 4796.00,5425.09              4791.20,5424.76 4789.27,5425.62 4785.00,5425.96              4785.00,5425.96 4773.00,5425.96 4773.00,5425.96              4773.00,5425.96 4751.00,5428.15 4751.00,5428.15              4751.00,5428.15 4739.00,5428.15 4739.00,5428.15              4739.00,5428.15 4731.00,5429.96 4731.00,5429.96              4731.00,5429.96 4723.00,5429.96 4723.00,5429.96              4723.00,5429.96 4706.00,5431.00 4706.00,5431.00              4706.00,5431.00 4696.00,5430.05 4696.00,5430.05              4696.00,5430.05 4678.00,5430.05 4678.00,5430.05              4678.00,5430.05 4668.00,5430.96 4668.00,5430.96              4668.00,5430.96 4656.00,5430.96 4656.00,5430.96              4656.00,5430.96 4644.00,5431.63 4644.00,5431.63              4644.00,5431.63 4618.00,5428.96 4618.00,5428.96              4618.00,5428.96 4604.00,5428.96 4604.00,5428.96              4604.00,5428.96 4595.00,5428.01 4595.00,5428.01              4595.00,5428.01 4582.00,5428.92 4582.00,5428.92              4582.00,5428.92 4564.00,5427.00 4564.00,5427.00              4564.00,5427.00 4541.00,5427.00 4541.00,5427.00              4541.00,5427.00 4523.00,5425.70 4523.00,5425.70              4523.00,5425.70 4515.00,5424.00 4515.00,5424.00              4515.00,5424.00 4506.00,5424.00 4506.00,5424.00              4506.00,5424.00 4497.00,5422.04 4497.00,5422.04              4497.00,5422.04 4487.00,5422.04 4487.00,5422.04              4487.00,5422.04 4462.00,5420.00 4462.00,5420.00              4462.00,5420.00 4441.00,5421.00 4441.00,5421.00              4441.00,5421.00 4409.00,5419.00 4409.00,5419.00              4409.00,5419.00 4376.00,5419.00 4376.00,5419.00              4376.00,5419.00 4352.00,5417.09 4352.00,5417.09              4352.00,5417.09 4340.00,5418.00 4340.00,5418.00              4340.00,5418.00 4324.00,5418.82 4324.00,5418.82              4324.00,5418.82 4318.00,5418.17 4318.00,5418.17              4318.00,5418.17 4298.00,5417.00 4298.00,5417.00              4298.00,5417.00 4281.00,5418.00 4281.00,5418.00              4281.00,5418.00 4270.00,5417.04 4270.00,5417.04              4270.00,5417.04 4259.00,5417.04 4259.00,5417.04              4253.48,5416.93 4244.92,5415.36 4240.00,5412.90              4230.43,5408.12 4230.01,5404.16 4217.00,5404.00              4211.74,5403.94 4206.05,5403.64 4201.00,5405.22              4191.83,5408.09 4193.78,5410.94 4182.00,5410.92              4182.00,5410.92 4172.00,5410.92 4172.00,5410.92              4164.28,5410.08 4163.07,5408.90 4154.00,5409.00              4154.00,5409.00 4138.00,5410.92 4138.00,5410.92              4138.00,5410.92 4122.00,5410.92 4122.00,5410.92              4110.99,5410.98 4106.51,5408.10 4097.00,5407.17              4097.00,5407.17 4080.00,5408.08 4080.00,5408.08              4080.00,5408.08 4070.00,5408.08 4070.00,5408.08              4070.00,5408.08 4052.00,5409.96 4052.00,5409.96              4052.00,5409.96 4038.00,5409.96 4038.00,5409.96              4038.00,5409.96 4028.00,5409.01 4028.00,5409.01              4028.00,5409.01 4015.00,5410.00 4015.00,5410.00              4015.00,5410.00 3996.00,5410.00 3996.00,5410.00              3996.00,5410.00 3983.00,5409.00 3983.00,5409.00              3983.00,5409.00 3966.00,5409.00 3966.00,5409.00              3966.00,5409.00 3949.00,5407.70 3949.00,5407.70              3941.89,5406.68 3943.59,5406.01 3935.00,5406.00              3935.00,5406.00 3876.00,5406.00 3876.00,5406.00              3876.00,5406.00 3855.00,5404.00 3855.00,5404.00              3855.00,5404.00 3837.00,5404.00 3837.00,5404.00              3837.00,5404.00 3816.00,5403.17 3816.00,5403.17              3816.00,5403.17 3804.00,5404.68 3804.00,5404.68              3804.00,5404.68 3796.00,5406.79 3796.00,5406.79              3796.00,5406.79 3776.00,5408.15 3776.00,5408.15              3776.00,5408.15 3760.00,5408.15 3760.00,5408.15              3760.00,5408.15 3750.00,5410.79 3750.00,5410.79              3750.00,5410.79 3728.00,5412.90 3728.00,5412.90              3728.00,5412.90 3688.00,5425.53 3688.00,5425.53              3688.00,5425.53 3679.00,5429.59 3679.00,5429.59              3679.00,5429.59 3664.00,5433.37 3664.00,5433.37              3664.00,5433.37 3644.00,5439.22 3644.00,5439.22              3636.53,5441.65 3636.84,5444.05 3623.00,5447.72              3623.00,5447.72 3610.00,5450.73 3610.00,5450.73              3607.10,5450.88 3601.45,5449.42 3594.00,5450.17              3594.00,5450.17 3584.00,5451.92 3584.00,5451.92              3584.00,5451.92 3567.00,5451.92 3567.00,5451.92              3557.07,5452.02 3559.01,5453.08 3552.00,5453.92              3552.00,5453.92 3541.00,5453.92 3541.00,5453.92              3541.00,5453.92 3522.00,5455.96 3522.00,5455.96              3522.00,5455.96 3503.00,5454.00 3503.00,5454.00              3503.00,5454.00 3495.00,5454.00 3495.00,5454.00              3495.00,5454.00 3486.00,5452.17 3486.00,5452.17              3486.00,5452.17 3463.00,5451.00 3463.00,5451.00              3463.00,5451.00 3449.00,5451.91 3449.00,5451.91              3449.00,5451.91 3430.00,5450.00 3430.00,5450.00              3430.00,5450.00 3414.00,5450.82 3414.00,5450.82              3414.00,5450.82 3403.00,5448.46 3403.00,5448.46              3403.00,5448.46 3393.00,5447.68 3393.00,5447.68              3381.45,5445.79 3384.81,5444.84 3371.00,5445.00              3371.00,5445.00 3361.00,5445.74 3361.00,5445.74              3361.00,5445.74 3349.00,5444.01 3349.00,5444.01              3349.00,5444.01 3321.00,5447.00 3321.00,5447.00              3321.00,5447.00 3294.00,5446.00 3294.00,5446.00              3284.25,5445.95 3284.97,5443.20 3268.00,5443.00              3257.95,5442.88 3256.09,5439.49 3248.00,5438.30              3248.00,5438.30 3237.00,5437.68 3237.00,5437.68              3237.00,5437.68 3226.00,5435.17 3226.00,5435.17              3215.59,5434.05 3216.04,5436.25 3203.00,5432.71              3190.78,5429.39 3189.37,5426.84 3183.00,5424.55              3183.00,5424.55 3165.00,5420.13 3165.00,5420.13              3149.01,5416.14 3146.81,5414.22 3130.00,5414.00              3121.30,5413.88 3121.25,5411.37 3114.00,5410.30              3114.00,5410.30 3081.00,5408.00 3081.00,5408.00              3081.00,5408.00 3060.00,5408.00 3060.00,5408.00              3060.00,5408.00 3043.00,5406.17 3043.00,5406.17              3038.95,5405.78 3034.99,5406.37 3031.00,5405.40              3019.88,5402.73 3013.06,5395.71 3004.00,5391.40              3000.48,5389.72 2992.97,5388.06 2989.00,5387.44              2989.00,5387.44 2976.00,5386.83 2976.00,5386.83              2976.00,5386.83 2967.00,5385.29 2967.00,5385.29              2967.00,5385.29 2944.00,5384.00 2944.00,5384.00              2935.38,5383.99 2937.09,5383.31 2930.00,5382.30              2930.00,5382.30 2912.00,5381.00 2912.00,5381.00              2912.00,5381.00 2878.00,5379.83 2878.00,5379.83              2878.00,5379.83 2849.00,5377.00 2849.00,5377.00              2849.00,5377.00 2834.00,5377.00 2834.00,5377.00              2834.00,5377.00 2820.00,5378.00 2820.00,5378.00              2811.64,5378.09 2803.25,5376.86 2795.00,5375.56              2789.74,5374.73 2788.80,5374.07 2783.00,5374.00              2783.00,5374.00 2765.00,5374.00 2765.00,5374.00              2757.84,5373.91 2751.02,5372.30 2744.00,5371.30              2744.00,5371.30 2732.00,5370.54 2732.00,5370.54              2732.00,5370.54 2708.00,5365.28 2708.00,5365.28              2708.00,5365.28 2694.00,5363.72 2694.00,5363.72              2685.65,5362.53 2678.57,5361.04 2670.00,5361.00              2670.00,5361.00 2655.00,5360.00 2655.00,5360.00              2655.00,5360.00 2626.00,5360.00 2626.00,5360.00              2626.00,5360.00 2612.00,5359.00 2612.00,5359.00              2600.68,5358.95 2586.23,5355.94 2575.00,5353.55              2575.00,5353.55 2555.00,5347.67 2555.00,5347.67              2555.00,5347.67 2527.00,5346.00 2527.00,5346.00              2512.32,5346.18 2508.38,5352.65 2502.00,5355.36              2497.09,5357.46 2486.42,5359.11 2481.00,5358.99              2471.02,5358.76 2457.70,5353.99 2448.00,5351.21              2448.00,5351.21 2437.00,5349.37 2437.00,5349.37              2437.00,5349.37 2430.00,5346.93 2430.00,5346.93              2423.01,5345.04 2412.28,5343.92 2405.00,5344.21              2405.00,5344.21 2396.00,5344.21 2396.00,5344.21              2396.00,5344.21 2383.00,5343.04 2383.00,5343.04              2383.00,5343.04 2371.00,5343.04 2371.00,5343.04              2371.00,5343.04 2336.00,5338.00 2336.00,5338.00              2336.00,5338.00 2304.00,5338.00 2304.00,5338.00              2296.29,5338.01 2290.42,5339.63 2283.00,5340.70              2275.70,5341.75 2268.36,5341.92 2261.00,5342.00              2261.00,5342.00 2237.00,5344.00 2237.00,5344.00              2237.00,5344.00 2196.00,5341.83 2196.00,5341.83              2188.98,5341.07 2190.93,5340.02 2181.00,5340.00              2181.00,5340.00 2168.00,5340.00 2168.00,5340.00              2159.15,5339.99 2149.24,5336.08 2140.00,5334.23              2140.00,5334.23 2120.00,5334.23 2120.00,5334.23              2120.00,5334.23 2099.00,5331.09 2099.00,5331.09              2099.00,5331.09 2045.00,5329.00 2045.00,5329.00              2045.00,5329.00 2021.00,5328.00 2021.00,5328.00              2021.00,5328.00 2008.00,5328.78 2008.00,5328.78              2001.93,5328.32 2001.77,5326.02 1990.00,5326.00              1990.00,5326.00 1977.00,5326.66 1977.00,5326.66              1977.00,5326.66 1970.00,5326.02 1970.00,5326.02              1970.00,5326.02 1957.00,5326.02 1957.00,5326.02              1948.57,5325.96 1949.24,5324.84 1943.00,5323.98              1943.00,5323.98 1932.00,5323.98 1932.00,5323.98              1932.00,5323.98 1921.00,5320.47 1921.00,5320.47              1921.00,5320.47 1911.00,5319.68 1911.00,5319.68              1911.00,5319.68 1903.00,5317.67 1903.00,5317.67              1898.12,5316.63 1892.08,5317.06 1887.00,5317.00              1887.00,5317.00 1868.00,5313.86 1868.00,5313.86              1856.25,5313.51 1854.90,5316.18 1840.00,5313.86              1840.00,5313.86 1825.00,5309.67 1825.00,5309.67              1825.00,5309.67 1815.00,5308.68 1815.00,5308.68              1815.00,5308.68 1806.00,5306.46 1806.00,5306.46              1800.06,5305.39 1791.12,5305.07 1785.00,5305.00              1785.00,5305.00 1771.00,5304.00 1771.00,5304.00              1771.00,5304.00 1754.00,5305.00 1754.00,5305.00              1754.00,5305.00 1738.00,5306.51 1738.00,5306.51              1738.00,5306.51 1727.00,5304.17 1727.00,5304.17              1727.00,5304.17 1711.00,5303.48 1711.00,5303.48              1700.36,5301.23 1691.44,5296.60 1680.00,5297.04              1680.00,5297.04 1665.00,5298.92 1665.00,5298.92              1665.00,5298.92 1650.00,5298.92 1650.00,5298.92              1635.75,5299.17 1634.06,5305.46 1627.00,5307.49              1622.87,5308.68 1618.48,5306.87 1607.00,5309.88              1591.93,5313.84 1585.43,5319.92 1568.00,5320.00              1568.00,5320.00 1564.00,5320.00 1564.00,5320.00              1564.00,5320.00 1553.00,5319.09 1553.00,5319.09              1546.28,5318.71 1534.43,5321.82 1527.00,5322.72              1527.00,5322.72 1516.00,5323.30 1516.00,5323.30              1516.00,5323.30 1504.00,5325.83 1504.00,5325.83              1504.00,5325.83 1493.00,5326.46 1493.00,5326.46              1493.00,5326.46 1465.00,5334.29 1465.00,5334.29              1457.49,5335.87 1450.41,5334.33 1443.00,5334.29              1443.00,5334.29 1429.00,5334.91 1429.00,5334.91              1429.00,5334.91 1420.00,5333.06 1420.00,5333.06              1420.00,5333.06 1411.00,5333.06 1411.00,5333.06              1404.76,5332.16 1405.45,5331.04 1397.00,5331.00              1397.00,5331.00 1382.00,5331.00 1382.00,5331.00              1382.00,5331.00 1365.00,5330.01 1365.00,5330.01              1357.17,5330.20 1354.47,5332.39 1348.00,5333.86              1348.00,5333.86 1335.00,5333.86 1335.00,5333.86              1335.00,5333.86 1325.00,5336.10 1325.00,5336.10              1325.00,5336.10 1310.00,5336.10 1310.00,5336.10              1306.29,5336.36 1302.74,5337.83 1299.00,5337.45              1294.08,5336.95 1293.47,5335.79 1287.00,5336.04              1287.00,5336.04 1268.00,5337.00 1268.00,5337.00              1255.52,5336.98 1257.82,5334.60 1249.00,5333.15              1249.00,5333.15 1228.00,5333.15 1228.00,5333.15              1218.34,5333.12 1215.41,5336.26 1210.00,5335.64              1210.00,5335.64 1201.00,5333.46 1201.00,5333.46              1201.00,5333.46 1191.00,5332.83 1191.00,5332.83              1191.00,5332.83 1182.00,5331.17 1182.00,5331.17              1182.00,5331.17 1158.00,5330.00 1158.00,5330.00              1158.00,5330.00 1143.00,5329.00 1143.00,5329.00              1143.00,5329.00 1127.00,5329.00 1127.00,5329.00              1127.00,5329.00 1114.00,5328.09 1114.00,5328.09              1114.00,5328.09 1096.00,5330.73 1096.00,5330.73              1096.00,5330.73 1079.00,5326.46 1079.00,5326.46              1079.00,5326.46 1067.00,5325.83 1067.00,5325.83              1051.50,5324.28 1060.96,5322.71 1036.00,5323.00              1028.02,5323.10 1023.77,5325.10 1017.00,5325.91              1017.00,5325.91 992.00,5325.91 992.00,5325.91              978.24,5325.98 979.82,5321.06 965.00,5321.00              965.00,5321.00 944.00,5322.91 944.00,5322.91              934.55,5322.26 935.17,5319.19 919.00,5319.00              919.00,5319.00 888.00,5316.70 888.00,5316.70              880.17,5315.57 878.03,5313.81 869.00,5314.01              869.00,5314.01 860.00,5314.59 860.00,5314.59              860.00,5314.59 847.00,5311.06 847.00,5311.06              847.00,5311.06 836.00,5311.06 836.00,5311.06              828.01,5309.85 822.54,5304.66 807.00,5305.01              807.00,5305.01 794.00,5306.96 794.00,5306.96              794.00,5306.96 773.00,5306.96 773.00,5306.96              765.43,5307.09 763.46,5308.78 757.00,5309.93              757.00,5309.93 743.00,5309.93 743.00,5309.93              743.00,5309.93 722.00,5312.85 722.00,5312.85              722.00,5312.85 709.00,5312.85 709.00,5312.85              709.00,5312.85 701.00,5311.00 701.00,5311.00              701.00,5311.00 690.00,5311.00 690.00,5311.00              682.99,5310.08 684.93,5309.02 675.00,5309.00              675.00,5309.00 652.00,5309.00 652.00,5309.00              638.17,5308.98 643.73,5305.22 625.00,5305.00              618.20,5304.92 618.51,5304.08 613.00,5303.06              613.00,5303.06 601.00,5303.06 601.00,5303.06              601.00,5303.06 591.00,5301.21 591.00,5301.21              583.57,5300.58 580.78,5303.14 572.00,5301.21              562.88,5299.46 562.90,5298.01 556.00,5295.55              544.69,5291.51 516.24,5283.02 505.00,5283.00              505.00,5283.00 477.00,5283.00 477.00,5283.00              477.00,5283.00 448.00,5285.35 448.00,5285.35              448.00,5285.35 438.00,5285.35 438.00,5285.35              436.10,5285.19 433.84,5285.68 432.00,5285.35              426.82,5284.34 424.77,5279.29 413.00,5279.01              404.49,5278.82 398.50,5280.25 392.04,5286.18              385.73,5291.99 385.50,5297.08 379.96,5297.84              379.96,5297.84 361.00,5297.00 361.00,5297.00              361.00,5297.00 334.00,5291.96 334.00,5291.96              328.71,5290.44 323.47,5288.09 318.00,5287.06              318.00,5287.06 310.00,5287.06 310.00,5287.06              310.00,5287.06 295.00,5284.17 295.00,5284.17              295.00,5284.17 273.00,5282.91 273.00,5282.91              265.82,5282.39 267.37,5280.87 256.00,5281.00              256.00,5281.00 247.00,5281.66 247.00,5281.66              247.00,5281.66 236.00,5280.91 236.00,5280.91              230.26,5280.48 229.61,5279.09 222.00,5279.00              204.14,5278.79 210.58,5277.31 200.00,5276.09              200.00,5276.09 185.00,5276.09 185.00,5276.09              181.34,5263.45 173.59,5262.57 170.40,5256.71              170.40,5256.71 165.44,5241.00 165.44,5241.00              162.92,5234.18 159.48,5230.49 157.67,5222.00              157.67,5222.00 156.32,5208.00 156.32,5208.00              154.66,5200.78 150.56,5197.57 149.83,5194.00              149.05,5190.18 153.05,5185.62 154.65,5182.00              157.09,5176.50 157.01,5172.81 157.00,5167.00              157.00,5167.00 155.26,5150.00 155.26,5150.00              155.78,5145.77 158.49,5143.76 160.07,5138.00              160.07,5138.00 161.44,5129.00 161.44,5129.00              163.78,5114.45 164.47,5097.49 151.00,5087.79              140.88,5080.50 135.60,5084.73 126.00,5082.00              126.95,5080.14 128.74,5077.01 128.98,5075.00              129.63,5069.47 123.97,5066.09 119.00,5066.66              108.76,5067.83 106.52,5071.31 102.72,5072.52              102.72,5072.52 91.00,5073.68 91.00,5073.68              88.83,5074.18 84.79,5075.91 83.00,5075.79              80.33,5075.60 77.35,5072.86 75.00,5071.48              71.56,5069.46 68.84,5068.78 65.00,5068.00              65.00,5059.30 65.22,5056.28 61.56,5048.00              61.56,5048.00 56.00,5038.00 56.00,5038.00              55.33,5035.63 56.10,5031.02 56.00,5028.00              56.00,5028.00 54.00,5010.00 54.00,5010.00              54.00,5010.00 54.00,5001.00 54.00,5001.00              52.94,4992.83 49.68,4992.42 50.04,4983.00              50.22,4978.32 51.25,4976.37 50.91,4971.00              50.91,4971.00 48.00,4943.00 48.00,4943.00              48.01,4938.99 48.60,4930.72 49.63,4927.00              51.30,4920.99 53.35,4919.18 52.91,4912.00              52.91,4912.00 51.63,4904.00 51.63,4904.00              51.63,4904.00 52.77,4894.00 52.77,4894.00              52.77,4894.00 52.77,4885.00 52.77,4885.00              52.94,4881.12 54.23,4879.48 53.91,4874.00              53.60,4868.63 51.76,4864.94 52.09,4859.00              52.09,4859.00 54.00,4837.00 54.00,4837.00              54.00,4837.00 52.87,4826.00 52.87,4826.00              52.87,4826.00 52.87,4815.00 52.87,4815.00              52.87,4815.00 51.04,4796.00 51.04,4796.00              51.04,4796.00 52.83,4785.00 52.83,4785.00              52.83,4785.00 54.15,4766.00 54.15,4766.00              54.78,4760.93 56.20,4757.24 55.91,4752.00              55.91,4752.00 55.18,4745.00 55.18,4745.00              55.18,4745.00 56.00,4730.00 56.00,4730.00              56.00,4730.00 54.67,4716.00 54.67,4716.00              55.35,4706.55 57.98,4707.69 58.00,4695.00              58.00,4695.00 58.00,4674.00 58.00,4674.00              58.00,4674.00 57.21,4661.00 57.21,4661.00              57.21,4661.00 58.70,4653.00 58.70,4653.00              58.70,4653.00 59.83,4642.00 59.83,4642.00              59.83,4642.00 61.00,4618.00 61.00,4618.00              61.00,4618.00 63.53,4598.00 63.53,4598.00              63.53,4598.00 66.00,4589.00 66.00,4589.00              78.24,4591.46 89.89,4593.27 101.00,4585.90              105.04,4583.21 108.59,4579.45 112.00,4576.00              116.12,4571.83 119.26,4568.54 121.53,4563.00              124.21,4556.44 125.00,4540.44 125.00,4533.00              125.00,4533.00 135.00,4529.31 135.00,4529.31              138.48,4528.80 142.40,4530.52 146.00,4530.81              150.32,4531.17 157.80,4529.31 162.00,4527.97              165.51,4526.85 173.45,4524.21 171.60,4519.10              170.29,4515.49 165.08,4514.95 162.00,4513.16              159.17,4511.52 157.28,4509.33 154.00,4508.01              147.27,4505.29 131.70,4507.28 126.39,4512.53              122.49,4516.39 124.09,4519.25 121.00,4524.00              118.22,4518.04 119.16,4516.04 117.05,4511.00              112.62,4500.45 108.02,4499.80 108.00,4487.00              108.00,4487.00 107.00,4468.00 107.00,4468.00              107.00,4468.00 107.00,4451.00 107.00,4451.00              107.00,4451.00 106.00,4434.00 106.00,4434.00              106.00,4434.00 104.83,4409.00 104.83,4409.00              104.83,4409.00 103.34,4398.00 103.34,4398.00              103.34,4398.00 104.00,4383.00 104.00,4383.00              104.00,4383.00 102.25,4356.00 102.25,4356.00              103.00,4347.00 102.80,4349.64 102.25,4341.00              102.25,4341.00 103.05,4328.00 103.05,4328.00              103.05,4328.00 103.05,4315.00 103.05,4315.00              103.05,4315.00 109.44,4302.00 109.44,4302.00              109.44,4302.00 113.70,4282.00 113.70,4282.00              115.39,4270.18 111.20,4266.05 110.48,4261.00              110.48,4261.00 111.00,4251.00 111.00,4251.00              111.18,4235.07 114.13,4240.64 115.70,4230.00              116.53,4224.39 115.54,4220.32 114.00,4215.00              120.77,4216.52 132.12,4221.36 134.53,4211.00              135.53,4206.71 132.67,4205.30 135.44,4196.00              137.53,4188.99 143.39,4183.10 138.35,4176.04              135.50,4172.05 126.20,4164.96 121.00,4165.60              114.85,4166.35 107.08,4177.54 105.51,4183.00              104.87,4185.23 105.00,4188.63 105.00,4191.00              90.81,4185.75 95.51,4176.80 94.91,4167.00              94.54,4160.97 91.99,4158.30 92.47,4153.00              93.84,4137.80 101.21,4133.91 101.00,4116.00              101.00,4116.00 99.08,4101.00 99.08,4101.00              99.08,4101.00 99.91,4093.00 99.91,4093.00              100.50,4082.58 97.68,4087.72 100.54,4072.00              100.54,4072.00 101.59,4066.00 101.59,4066.00              103.35,4061.22 108.77,4058.34 110.53,4049.00              112.06,4040.93 109.30,4036.00 109.61,4033.00              110.04,4028.80 114.39,4026.27 117.05,4020.00              119.87,4013.35 118.22,4009.10 120.31,4005.09              123.15,3999.65 131.45,3995.59 135.96,3991.67              140.52,3987.71 143.31,3982.16 146.28,3977.00              150.62,3969.49 154.45,3965.35 153.91,3956.00              153.44,3947.99 150.82,3939.82 144.91,3934.18              141.22,3930.67 138.16,3929.72 135.28,3927.37              127.20,3920.77 123.99,3915.41 112.00,3916.09              112.00,3916.09 97.00,3918.00 97.00,3918.00              97.73,3909.96 99.33,3910.47 102.05,3904.00              102.05,3904.00 104.84,3896.00 104.84,3896.00              104.84,3896.00 110.05,3887.00 110.05,3887.00              110.05,3887.00 112.75,3879.00 112.75,3879.00              114.89,3874.23 116.94,3872.97 118.32,3867.00              121.22,3854.44 115.91,3848.24 114.49,3843.00              114.49,3843.00 113.07,3833.00 113.07,3833.00              112.00,3829.07 109.75,3825.64 108.00,3822.00              110.34,3822.31 113.76,3823.00 116.00,3822.75              119.73,3822.33 129.11,3817.30 130.74,3813.90              132.27,3810.70 130.28,3807.90 131.64,3803.00              132.97,3798.20 139.62,3787.98 128.00,3781.00              132.41,3769.51 130.15,3770.40 131.37,3764.00              132.44,3758.44 134.30,3756.76 133.91,3750.00              133.65,3745.63 132.15,3742.47 132.75,3738.00              132.75,3738.00 135.81,3724.00 135.81,3724.00              137.86,3718.21 139.30,3717.02 140.54,3710.00              141.95,3702.04 140.26,3691.52 137.44,3684.00              135.45,3678.67 131.73,3674.23 127.00,3671.11              124.28,3669.31 118.71,3667.62 117.86,3664.78              117.08,3663.10 117.79,3659.89 117.86,3658.00              117.86,3658.00 117.86,3648.00 117.86,3648.00              118.71,3645.05 121.13,3642.43 121.83,3636.00              123.04,3624.84 119.13,3622.27 119.00,3613.00              119.00,3613.00 119.00,3597.00 119.00,3597.00              119.00,3594.68 118.75,3590.44 120.17,3588.56              121.56,3586.73 125.76,3586.25 128.00,3585.45              128.00,3585.45 143.00,3578.60 143.00,3578.60              152.15,3574.15 159.17,3564.20 159.91,3554.00              160.29,3548.81 159.31,3540.96 157.78,3536.00              157.78,3536.00 155.39,3529.00 155.39,3529.00              155.39,3529.00 154.70,3518.00 154.70,3518.00              154.13,3514.07 149.29,3498.50 147.60,3495.00              145.74,3491.15 143.27,3488.22 139.99,3485.51              137.46,3483.43 133.91,3481.66 133.69,3477.99              133.69,3477.99 135.53,3470.00 135.53,3470.00              136.20,3466.49 135.75,3463.36 137.30,3460.00              137.30,3460.00 142.52,3452.00 142.52,3452.00              142.52,3452.00 146.04,3444.00 146.04,3444.00              149.80,3436.09 153.36,3434.29 152.91,3424.00              152.42,3412.59 155.24,3415.10 155.91,3406.00              156.79,3393.99 153.47,3389.56 153.51,3385.00              153.53,3382.10 155.79,3377.58 156.55,3374.00              156.55,3374.00 159.02,3362.00 159.02,3362.00              159.02,3362.00 159.02,3353.00 159.02,3353.00              159.02,3353.00 161.08,3346.00 161.08,3346.00              161.08,3346.00 162.37,3338.00 162.37,3338.00              163.68,3331.56 164.90,3331.90 165.00,3324.00              165.00,3324.00 165.83,3305.00 165.83,3305.00              165.22,3299.32 162.40,3293.96 162.26,3285.00              162.17,3279.07 165.95,3275.25 164.83,3264.00              164.83,3264.00 162.46,3252.00 162.46,3252.00              162.46,3252.00 159.84,3227.00 159.84,3227.00              159.84,3227.00 163.72,3206.00 163.72,3206.00              163.72,3206.00 163.72,3194.00 163.72,3194.00              164.78,3189.31 171.62,3184.67 170.91,3173.00              170.55,3167.24 166.93,3156.87 165.18,3151.00              163.28,3144.62 164.64,3142.15 162.45,3136.00              162.45,3136.00 156.95,3125.00 156.95,3125.00              156.95,3125.00 151.18,3108.00 151.18,3108.00              150.34,3105.25 149.06,3091.89 149.21,3089.00              149.21,3089.00 149.96,3079.00 149.96,3079.00              149.60,3070.17 146.91,3068.86 144.07,3062.00              144.07,3062.00 141.05,3051.00 141.05,3051.00              139.56,3047.48 137.05,3044.76 136.27,3041.00              136.27,3041.00 134.71,3027.00 134.71,3027.00              134.71,3027.00 132.70,3017.00 132.70,3017.00              132.70,3017.00 134.94,3008.00 134.94,3008.00              134.94,3008.00 134.94,2999.00 134.94,2999.00              134.94,2999.00 136.91,2989.00 136.91,2989.00              136.91,2989.00 138.17,2967.00 138.17,2967.00              138.17,2967.00 139.97,2945.00 139.97,2945.00              139.97,2938.24 137.89,2935.47 137.65,2932.00              137.65,2932.00 137.65,2922.00 137.65,2922.00              137.81,2920.14 137.32,2917.78 137.65,2916.00              138.26,2911.41 142.64,2908.56 142.96,2899.00              142.96,2899.00 141.53,2878.00 141.53,2878.00              140.67,2873.38 138.88,2871.02 139.10,2866.00              139.10,2866.00 141.63,2850.00 141.63,2850.00              142.79,2845.75 144.27,2844.09 144.83,2839.00              146.16,2826.74 142.55,2823.12 142.38,2818.00              142.25,2814.27 144.23,2811.84 143.80,2804.00              143.80,2804.00 143.80,2797.00 143.80,2797.00              143.94,2793.16 145.24,2791.38 144.91,2786.00              144.44,2778.39 140.95,2775.23 140.90,2771.00              140.86,2767.48 143.44,2763.64 142.91,2756.00              142.47,2749.62 139.85,2746.80 139.79,2742.00              139.68,2734.43 142.34,2732.35 143.50,2726.00              144.73,2719.65 143.29,2715.83 143.50,2712.00              143.63,2708.52 144.97,2706.47 144.97,2701.00              144.97,2688.63 138.83,2687.82 140.17,2674.00              140.17,2674.00 143.07,2656.00 143.07,2656.00              143.07,2656.00 150.68,2642.00 150.68,2642.00              153.27,2636.99 153.15,2634.88 154.86,2630.00              157.14,2623.53 159.67,2620.28 159.96,2613.00              160.36,2603.12 157.07,2600.52 156.67,2596.00              156.23,2591.01 159.29,2584.74 158.91,2578.00              158.91,2578.00 157.96,2571.00 157.96,2571.00              157.96,2571.00 157.96,2562.00 157.96,2562.00              157.96,2562.00 156.34,2553.00 156.34,2553.00              156.34,2553.00 157.91,2537.00 157.91,2537.00              158.51,2526.41 151.57,2515.65 152.05,2505.00              152.28,2499.73 154.20,2497.91 155.32,2493.00              155.32,2493.00 156.63,2482.00 156.63,2482.00              158.29,2475.91 160.32,2474.36 159.91,2467.00              159.91,2467.00 158.69,2444.00 158.69,2444.00              158.69,2444.00 158.69,2435.00 158.69,2435.00              158.85,2432.10 157.93,2428.69 158.69,2426.00              159.38,2422.24 163.27,2418.47 162.96,2409.00              162.57,2397.32 156.59,2396.51 156.04,2384.00              156.04,2384.00 157.17,2363.00 157.17,2363.00              157.70,2358.07 159.26,2355.73 158.91,2350.00              158.53,2343.92 154.86,2337.11 155.30,2331.00              155.97,2321.51 162.18,2318.23 162.00,2302.00              161.89,2292.30 158.99,2290.61 159.21,2285.00              159.21,2285.00 160.08,2278.00 160.08,2278.00              160.08,2278.00 160.08,2264.00 160.08,2264.00              160.89,2259.16 163.21,2256.54 162.96,2249.00              162.65,2239.91 158.58,2237.14 158.66,2233.00              158.66,2233.00 161.71,2223.00 161.71,2223.00              162.53,2217.74 161.48,2214.31 161.71,2211.00              161.71,2211.00 163.91,2201.00 163.91,2201.00              164.40,2192.99 161.09,2188.94 160.43,2185.00              160.43,2185.00 161.00,2169.00 161.00,2169.00              160.95,2158.70 158.99,2158.78 158.54,2154.00              158.27,2151.12 159.53,2146.16 159.86,2143.00              159.86,2143.00 159.86,2132.00 159.86,2132.00              159.86,2132.00 161.91,2122.00 161.91,2122.00              162.34,2114.96 159.35,2108.66 159.46,2104.00              159.46,2104.00 160.83,2095.00 160.83,2095.00              160.83,2095.00 163.71,2050.00 163.71,2050.00              163.71,2050.00 163.71,2043.00 163.71,2043.00              163.68,2038.44 165.90,2034.31 166.00,2026.00              166.00,2026.00 167.97,2006.00 167.97,2006.00              167.97,2006.00 165.00,1977.00 165.00,1977.00              165.00,1977.00 167.00,1948.00 167.00,1948.00              167.00,1948.00 165.57,1929.00 165.57,1929.00              165.57,1929.00 167.95,1908.00 167.95,1908.00              167.95,1908.00 167.95,1895.00 167.95,1895.00              167.65,1891.13 166.85,1889.29 167.09,1885.00              167.09,1885.00 168.98,1863.00 168.98,1863.00              168.98,1863.00 168.21,1851.00 168.21,1851.00              168.21,1851.00 169.92,1842.00 169.92,1842.00              169.92,1842.00 171.91,1825.00 171.91,1825.00              171.91,1825.00 171.34,1815.00 171.34,1815.00              171.34,1815.00 173.82,1784.00 173.82,1784.00              174.56,1780.50 176.52,1773.98 178.34,1771.00              181.17,1766.36 185.26,1763.18 188.47,1759.00              192.64,1753.58 197.97,1740.94 197.97,1734.00              197.97,1726.53 195.22,1720.40 189.91,1715.17              178.52,1703.95 176.02,1707.09 176.00,1696.00              176.00,1696.00 176.00,1673.00 176.00,1673.00              176.00,1673.00 175.03,1661.00 175.03,1661.00              175.03,1661.00 175.91,1652.00 175.91,1652.00              175.91,1652.00 177.17,1631.00 177.17,1631.00              177.17,1631.00 179.91,1610.00 179.91,1610.00              179.91,1610.00 179.04,1599.00 179.04,1599.00              179.30,1592.64 181.38,1590.33 180.91,1583.00              180.91,1583.00 178.38,1565.00 178.38,1565.00              178.61,1559.80 181.98,1559.28 182.00,1546.00              182.00,1546.00 181.09,1533.00 181.09,1533.00              181.09,1533.00 181.99,1518.00 181.99,1518.00              181.99,1518.00 178.64,1498.00 178.64,1498.00              178.64,1498.00 179.96,1491.00 179.96,1491.00              179.96,1491.00 179.96,1483.00 179.96,1483.00              179.96,1483.00 181.70,1474.00 181.70,1474.00              181.70,1474.00 182.30,1465.00 182.30,1465.00              182.30,1465.00 183.96,1455.00 183.96,1455.00              184.08,1451.25 183.50,1449.46 182.95,1446.00              182.95,1446.00 182.95,1433.00 182.95,1433.00              182.95,1433.00 183.84,1420.00 183.84,1420.00              183.84,1420.00 183.84,1406.00 183.84,1406.00              183.84,1406.00 183.84,1394.00 183.84,1394.00              183.84,1394.00 185.04,1377.00 185.04,1377.00              185.04,1377.00 185.04,1367.00 185.04,1367.00              185.04,1367.00 186.99,1345.00 186.99,1345.00              186.99,1345.00 185.58,1330.00 185.58,1330.00              185.68,1325.97 186.99,1324.75 187.00,1316.00              187.00,1316.00 187.00,1280.00 187.00,1280.00              187.00,1280.00 189.82,1245.00 189.82,1245.00              189.82,1245.00 189.82,1199.00 189.82,1199.00              189.82,1199.00 189.82,1189.00 189.82,1189.00              189.82,1189.00 191.09,1163.00 191.09,1163.00              191.09,1163.00 191.97,1154.00 191.97,1154.00              191.97,1154.00 190.10,1141.00 190.10,1141.00              190.10,1141.00 190.96,1132.00 190.96,1132.00              190.96,1132.00 190.96,1118.00 190.96,1118.00              190.96,1118.00 192.91,1101.00 192.91,1101.00              192.91,1101.00 195.02,1077.00 195.02,1077.00              195.02,1077.00 195.02,1069.00 195.02,1069.00              195.02,1069.00 197.83,1058.00 197.83,1058.00              198.93,1047.84 195.60,1043.18 195.46,1037.00              195.38,1033.72 197.08,1029.95 196.87,1021.00              196.87,1021.00 196.87,1013.00 196.87,1013.00              196.87,1013.00 197.83,1006.00 197.83,1006.00              197.83,1006.00 199.00,983.00 199.00,983.00              199.00,983.00 201.00,963.00 201.00,963.00              201.05,951.89 201.84,953.19 202.92,944.00              202.92,944.00 202.92,932.00 202.92,932.00              202.92,932.00 205.00,910.00 205.00,910.00              205.00,910.00 204.39,897.00 204.39,897.00              204.85,890.83 206.98,890.50 207.00,879.00              207.00,879.00 207.00,868.00 207.00,868.00              207.00,868.00 210.00,829.00 210.00,829.00              210.00,829.00 210.00,800.00 210.00,800.00              209.99,791.62 209.47,784.41 211.38,776.00              212.39,771.57 215.20,768.41 216.54,761.00              216.54,761.00 218.17,738.00 218.17,738.00              218.17,738.00 219.71,730.00 219.71,730.00              220.75,723.20 221.08,717.86 221.00,711.00              221.00,711.00 217.00,681.00 217.00,681.00              217.00,681.00 215.62,667.00 215.62,667.00              215.62,667.00 217.91,655.00 217.91,655.00              218.52,646.66 216.61,644.68 216.75,639.00              216.75,639.00 219.00,613.00 219.00,613.00              219.02,602.77 219.12,594.09 221.38,584.00              222.38,579.55 225.60,574.97 226.87,568.00              228.64,555.86 227.46,555.94 226.87,545.00              226.79,538.46 227.91,537.56 228.85,532.00              228.85,532.00 228.85,523.00 228.85,523.00              228.85,523.00 230.04,513.00 230.04,513.00              230.04,513.00 230.04,503.00 230.04,503.00              230.04,503.00 231.70,495.00 231.70,495.00              231.70,495.00 232.30,487.00 232.30,487.00              232.30,487.00 235.54,470.00 235.54,470.00              235.54,470.00 236.39,460.00 236.39,460.00              236.39,460.00 241.63,445.00 241.63,445.00              241.63,445.00 244.37,429.00 244.37,429.00              244.37,429.00 248.22,416.00 248.22,416.00              251.88,404.51 255.98,392.19 256.00,380.00              256.00,380.00 257.00,345.00 257.00,345.00              257.12,335.98 259.88,336.10 260.14,326.00              260.15,312.67 258.42,312.27 260.14,298.00              260.14,298.00 263.91,273.00 263.91,273.00              263.65,268.80 262.21,266.29 262.52,262.00              262.94,255.98 265.16,251.38 264.96,245.00              264.96,245.00 262.26,225.00 262.26,225.00              262.26,225.00 263.96,213.00 263.96,213.00              264.42,201.73 260.33,199.14 258.25,193.00              257.37,190.41 256.15,177.57 256.46,175.00              256.46,175.00 258.32,168.00 258.32,168.00              258.32,168.00 259.60,160.00 259.60,160.00              261.13,153.74 264.01,147.85 266.62,142.00              270.01,134.37 267.51,135.50 273.95,128.00              275.95,125.67 279.87,119.60 282.21,118.84              285.43,117.22 291.50,118.67 295.00,118.84              295.00,118.84 317.00,118.84 317.00,118.84              317.00,118.84 339.00,121.00 339.00,121.00              339.00,121.00 357.00,121.00 357.00,121.00              357.00,121.00 370.00,120.10 370.00,120.10              375.03,120.35 376.50,121.92 384.00,122.00              384.00,122.00 398.00,121.19 398.00,121.19              404.05,121.69 402.67,122.98 413.00,123.00              413.00,123.00 434.00,122.32 434.00,122.32              434.00,122.32 458.00,124.91 458.00,124.91              458.00,124.91 480.00,120.89 480.00,120.89              480.00,120.89 496.00,120.89 496.00,120.89              496.00,120.89 506.00,120.89 506.00,120.89              506.00,120.89 526.00,119.00 526.00,119.00              539.75,118.94 553.31,117.19 567.00,119.00 Z            M 1629.00,1724.00            C 1639.53,1722.24 1639.25,1714.59 1634.61,1711.01              1632.21,1709.15 1628.91,1708.95 1626.00,1709.04              1621.21,1709.19 1618.38,1710.38 1614.00,1711.95              1606.57,1714.62 1598.23,1718.09 1603.31,1727.96              1606.91,1734.93 1619.80,1736.86 1624.87,1733.26              1628.19,1730.90 1628.65,1727.73 1629.00,1724.00 Z            M 129.00,4027.68            C 119.22,4029.38 115.80,4039.20 116.01,4048.00              116.14,4052.93 116.89,4057.74 123.00,4057.60              133.28,4057.38 136.98,4049.10 136.97,4040.00              136.96,4033.88 135.65,4028.87 129.00,4027.68 Z"
            style="fill:#000000;fill-opacity:1"/>
</svg>
