<?xml version="1.0" encoding="UTF-8" standalone="no"?>
<svg
        width="173.123mm"
        height="127.127mm"
        viewBox="0 0 8179 6006"
        version="1.1"
        id="svg1959"
        sodipodi:docname="sheet16a.svg"
        inkscape:version="1.1.1 (3bf5ae0d25, 2021-09-20)"
        xmlns:inkscape="http://www.inkscape.org/namespaces/inkscape"
        xmlns:sodipodi="http://sodipodi.sourceforge.net/DTD/sodipodi-0.dtd"
        xmlns="http://www.w3.org/2000/svg"
>
    <defs
            id="defs1963"/>
    <sodipodi:namedview
            id="namedview1961"
            pagecolor="#ffffff"
            bordercolor="#666666"
            borderopacity="1.0"
            inkscape:pageshadow="2"
            inkscape:pageopacity="0.0"
            inkscape:pagecheckerboard="0"
            inkscape:document-units="mm"
            showgrid="false"
            inkscape:zoom="1.616938"
            inkscape:cx="326.85235"
            inkscape:cy="240.26895"
            inkscape:window-width="1920"
            inkscape:window-height="1001"
            inkscape:window-x="-7"
            inkscape:window-y="-7"
            inkscape:window-maximized="1"
            inkscape:current-layer="svg1959"/>
    <path
            id="Selection #1"
            fill="none"
            stroke="black"
            stroke-width="1"
            d="M 5968.00,64.00            C 5968.00,77.39 5967.33,75.81 5970.63,89.00              5972.17,95.18 5972.99,100.68 5976.79,106.00              5984.39,116.63 5999.37,121.28 6012.00,120.99              6022.15,120.75 6026.60,116.39 6035.00,111.77              6035.00,111.77 6045.00,106.89 6045.00,106.89              6051.86,102.40 6054.89,96.59 6058.09,95.05              6059.95,94.25 6069.13,95.03 6072.00,95.05              6079.65,94.91 6091.26,91.29 6098.00,87.68              6105.32,83.76 6107.89,80.09 6113.00,76.69              6113.00,76.69 6122.00,71.90 6122.00,71.90              6126.89,68.74 6128.90,65.76 6135.00,64.48              6135.00,64.48 6166.00,60.83 6166.00,60.83              6170.41,60.35 6173.33,58.80 6178.00,59.19              6178.00,59.19 6198.00,62.37 6198.00,62.37              6198.00,62.37 6215.00,67.07 6215.00,67.07              6220.02,69.14 6220.43,70.50 6227.00,72.10              6232.24,73.38 6240.41,73.06 6246.00,73.00              6252.49,72.92 6261.38,70.62 6268.00,69.46              6268.00,69.46 6288.00,67.09 6288.00,67.09              6295.17,66.62 6296.66,68.56 6303.00,70.10              6305.78,70.77 6320.19,72.10 6323.00,71.91              6332.38,71.27 6337.11,66.17 6341.00,64.93              6343.60,64.01 6350.43,65.07 6354.00,64.93              6362.60,64.79 6369.85,60.57 6379.00,61.09              6379.00,61.09 6387.00,61.98 6387.00,61.98              6387.00,61.98 6406.00,61.98 6406.00,61.98              6406.00,61.98 6426.00,60.85 6426.00,60.85              6426.00,60.85 6436.00,60.85 6436.00,60.85              6436.00,60.85 6451.00,59.00 6451.00,59.00              6468.15,58.80 6482.12,56.04 6499.00,61.60              6499.00,61.60 6517.00,68.64 6517.00,68.64              6526.76,73.08 6534.45,78.33 6546.00,77.96              6557.42,77.59 6577.03,71.46 6588.00,67.46              6588.00,67.46 6599.00,62.63 6599.00,62.63              6602.52,61.64 6606.38,62.18 6610.00,61.91              6610.00,61.91 6620.00,60.04 6620.00,60.04              6620.00,60.04 6629.00,60.04 6629.00,60.04              6629.00,60.04 6644.00,56.48 6644.00,56.48              6644.00,56.48 6665.00,57.00 6665.00,57.00              6665.00,57.00 6680.00,57.99 6680.00,57.99              6680.00,57.99 6693.00,57.00 6693.00,57.00              6693.00,57.00 6723.00,57.00 6723.00,57.00              6723.00,57.00 6735.00,58.04 6735.00,58.04              6735.00,58.04 6743.00,58.04 6743.00,58.04              6746.46,58.50 6748.25,59.08 6752.00,58.96              6752.00,58.96 6767.00,56.17 6767.00,56.17              6767.00,56.17 6786.00,55.10 6786.00,55.10              6786.00,55.10 6796.00,55.86 6796.00,55.86              6796.00,55.86 6807.00,55.86 6807.00,55.86              6807.00,55.86 6823.00,55.86 6823.00,55.86              6823.00,55.86 6839.00,55.09 6839.00,55.09              6839.00,55.09 6867.00,59.91 6867.00,59.91              6879.68,60.84 6883.64,56.81 6891.00,58.39              6893.18,58.86 6905.05,64.17 6907.00,65.47              6911.23,68.28 6912.87,70.37 6918.00,72.65              6924.29,75.45 6930.30,75.08 6937.00,75.00              6944.89,74.90 6950.88,72.78 6957.00,67.67              6959.94,65.22 6963.21,60.85 6966.09,59.31              6966.09,59.31 6987.00,54.86 6987.00,54.86              6987.00,54.86 6996.00,54.86 6996.00,54.86              6996.00,54.86 7009.00,54.04 7009.00,54.04              7009.00,54.04 7028.00,55.00 7028.00,55.00              7028.00,55.00 7042.00,53.48 7042.00,53.48              7042.00,53.48 7051.00,56.32 7051.00,56.32              7051.00,56.32 7070.00,57.91 7070.00,57.91              7070.00,57.91 7088.00,57.91 7088.00,57.91              7088.00,57.91 7098.00,55.83 7098.00,55.83              7098.00,55.83 7114.00,55.83 7114.00,55.83              7114.00,55.83 7144.00,60.00 7144.00,60.00              7165.53,60.25 7163.51,55.02 7178.00,55.00              7178.00,55.00 7199.00,55.00 7199.00,55.00              7203.03,54.99 7212.14,54.26 7216.00,53.53              7216.00,53.53 7223.00,51.88 7223.00,51.88              7223.00,51.88 7236.00,51.88 7236.00,51.88              7236.00,51.88 7249.00,51.04 7249.00,51.04              7249.00,51.04 7257.00,51.91 7257.00,51.91              7257.00,51.91 7283.00,53.00 7283.00,53.00              7283.00,53.00 7305.00,51.00 7305.00,51.00              7305.00,51.00 7344.00,51.00 7344.00,51.00              7344.00,51.00 7364.00,52.00 7364.00,52.00              7364.00,52.00 7383.00,50.51 7383.00,50.51              7383.00,50.51 7404.00,51.96 7404.00,51.96              7404.00,51.96 7418.00,50.59 7418.00,50.59              7418.00,50.59 7436.00,52.91 7436.00,52.91              7440.27,52.67 7441.92,51.76 7447.00,52.09              7455.33,52.63 7453.55,54.15 7467.00,54.00              7467.00,54.00 7485.00,53.00 7485.00,53.00              7485.00,53.00 7496.00,52.02 7496.00,52.02              7496.00,52.02 7513.00,52.02 7513.00,52.02              7513.00,52.02 7536.00,53.98 7536.00,53.98              7536.00,53.98 7562.00,53.98 7562.00,53.98              7562.00,53.98 7573.00,53.21 7573.00,53.21              7578.58,53.52 7579.07,54.98 7589.00,55.00              7589.00,55.00 7608.00,55.00 7608.00,55.00              7608.00,55.00 7629.00,54.00 7629.00,54.00              7629.00,54.00 7643.00,55.00 7643.00,55.00              7643.00,55.00 7662.00,55.00 7662.00,55.00              7662.00,55.00 7680.00,56.00 7680.00,56.00              7680.00,56.00 7701.00,54.09 7701.00,54.09              7701.00,54.09 7726.00,56.00 7726.00,56.00              7726.00,56.00 7740.00,56.00 7740.00,56.00              7740.00,56.00 7759.00,57.91 7759.00,57.91              7759.00,57.91 7771.00,56.10 7771.00,56.10              7771.00,56.10 7781.00,56.96 7781.00,56.96              7781.00,56.96 7797.00,55.83 7797.00,55.83              7804.41,55.02 7806.99,51.66 7812.00,52.43              7812.00,52.43 7822.00,55.62 7822.00,55.62              7822.00,55.62 7837.00,58.91 7837.00,58.91              7852.31,63.24 7855.52,66.79 7873.00,67.00              7883.09,67.11 7887.08,65.32 7890.00,65.35              7890.00,65.35 7902.00,67.83 7902.00,67.83              7910.92,68.79 7920.12,67.86 7929.00,67.17              7937.00,66.56 7940.47,72.61 7947.00,76.52              7953.44,80.38 7956.45,79.60 7962.00,81.66              7968.94,84.22 7969.20,86.76 7979.00,86.99              7979.00,86.99 7998.00,85.28 7998.00,85.28              8002.92,86.80 8009.38,94.67 8014.00,97.96              8016.22,99.54 8020.39,101.56 8021.14,104.21              8021.14,104.21 8021.14,113.00 8021.14,113.00              8021.17,116.76 8022.81,123.30 8023.91,127.00              8026.27,134.89 8029.95,136.88 8032.01,141.00              8033.64,144.28 8033.08,147.73 8035.91,153.00              8039.31,159.29 8043.00,160.96 8045.15,164.17              8047.29,167.37 8047.26,171.54 8049.40,176.00              8053.44,184.42 8060.55,190.90 8061.68,202.00              8062.28,207.84 8058.49,210.20 8055.91,215.00              8053.60,219.31 8052.76,224.14 8053.09,229.00              8053.73,238.39 8061.01,248.64 8061.79,261.00              8061.79,261.00 8060.04,289.00 8060.04,289.00              8060.04,289.00 8061.96,315.00 8061.96,315.00              8061.96,315.00 8061.00,330.00 8061.00,330.00              8061.00,330.00 8061.54,340.00 8061.54,340.00              8061.12,343.41 8059.32,345.62 8059.04,352.00              8058.57,362.69 8061.68,364.64 8061.81,370.00              8061.81,370.00 8061.04,377.00 8061.04,377.00              8061.04,377.00 8061.04,387.00 8061.04,387.00              8061.04,387.00 8063.00,425.00 8063.00,425.00              8062.91,432.61 8061.50,433.32 8061.15,439.00              8061.15,439.00 8061.15,451.00 8061.15,451.00              8060.55,454.68 8057.67,457.80 8058.04,467.00              8058.45,477.10 8063.10,479.09 8062.67,486.00              8062.67,486.00 8061.61,497.00 8061.61,497.00              8060.28,503.31 8056.59,508.14 8057.09,517.00              8057.09,517.00 8057.91,524.00 8057.91,524.00              8058.44,531.67 8057.42,532.38 8059.43,541.00              8061.06,548.02 8063.31,549.34 8063.87,554.00              8064.37,558.19 8062.62,567.31 8062.08,572.00              8062.08,572.00 8062.08,588.00 8062.08,588.00              8062.02,600.53 8064.98,600.47 8065.00,613.00              8065.00,613.00 8065.00,665.00 8065.00,665.00              8065.00,665.00 8061.09,694.00 8061.09,694.00              8061.09,694.00 8066.00,730.00 8066.00,730.00              8066.00,730.00 8066.00,748.00 8066.00,748.00              8066.00,748.00 8066.82,759.00 8066.82,759.00              8066.82,759.00 8066.04,766.00 8066.04,766.00              8066.04,766.00 8066.04,779.00 8066.04,779.00              8066.02,792.00 8068.82,797.51 8070.00,808.00              8070.00,808.00 8070.00,818.00 8070.00,818.00              8070.00,818.00 8071.82,836.00 8071.82,836.00              8071.82,836.00 8071.00,848.00 8071.00,848.00              8071.00,848.00 8071.00,872.00 8071.00,872.00              8071.00,872.00 8071.82,884.00 8071.82,884.00              8071.82,884.00 8071.00,917.00 8071.00,917.00              8071.00,917.00 8070.00,933.00 8070.00,933.00              8070.00,933.00 8070.00,956.00 8070.00,956.00              8070.00,956.00 8069.09,971.00 8069.09,971.00              8069.09,971.00 8069.82,978.00 8069.82,978.00              8069.82,978.00 8069.01,991.00 8069.01,991.00              8069.01,991.00 8070.00,1003.00 8070.00,1003.00              8070.00,1003.00 8070.90,1019.00 8070.90,1019.00              8070.90,1019.00 8069.00,1047.00 8069.00,1047.00              8069.00,1047.00 8070.96,1062.00 8070.96,1062.00              8070.96,1062.00 8070.03,1076.00 8070.03,1076.00              8070.03,1076.00 8070.96,1090.00 8070.96,1090.00              8070.96,1090.00 8070.04,1102.00 8070.04,1102.00              8070.04,1102.00 8071.19,1111.00 8071.19,1111.00              8071.19,1111.00 8071.19,1131.00 8071.19,1131.00              8071.19,1131.00 8072.00,1148.00 8072.00,1148.00              8071.91,1155.60 8070.51,1156.31 8070.09,1162.00              8069.86,1165.13 8070.34,1170.29 8069.42,1173.00              8069.42,1173.00 8063.40,1183.00 8063.40,1183.00              8061.18,1187.62 8060.90,1191.97 8061.01,1197.00              8061.42,1214.69 8072.97,1213.48 8073.00,1231.00              8073.00,1231.00 8073.00,1236.00 8073.00,1236.00              8073.00,1236.00 8074.00,1251.00 8074.00,1251.00              8074.00,1251.00 8074.00,1260.00 8074.00,1260.00              8074.00,1260.00 8074.66,1269.00 8074.66,1269.00              8074.66,1269.00 8074.00,1275.00 8074.00,1275.00              8074.00,1275.00 8074.00,1287.00 8074.00,1287.00              8074.00,1287.00 8073.00,1299.00 8073.00,1299.00              8073.00,1299.00 8073.00,1312.00 8073.00,1312.00              8073.00,1312.00 8074.22,1331.00 8074.22,1331.00              8074.22,1331.00 8074.22,1339.00 8074.22,1339.00              8074.22,1339.00 8074.81,1350.00 8074.81,1350.00              8074.33,1355.79 8072.80,1355.67 8073.01,1365.00              8073.01,1365.00 8074.62,1377.00 8074.62,1377.00              8074.48,1381.11 8071.79,1384.05 8072.04,1392.00              8072.04,1392.00 8073.43,1408.00 8073.43,1408.00              8074.30,1414.06 8075.92,1418.81 8076.00,1425.00              8076.03,1427.98 8076.26,1435.52 8075.42,1438.00              8073.55,1443.47 8066.47,1446.99 8067.04,1461.00              8067.23,1465.80 8069.66,1473.78 8071.91,1478.00              8073.67,1481.29 8076.50,1484.13 8076.77,1488.00              8076.77,1488.00 8075.17,1498.00 8075.17,1498.00              8074.58,1503.57 8075.74,1507.21 8073.91,1513.00              8071.59,1520.30 8067.60,1527.09 8068.09,1535.00              8068.76,1545.74 8073.38,1543.84 8074.83,1559.00              8074.83,1559.00 8075.79,1576.00 8075.79,1576.00              8075.79,1576.00 8072.47,1587.00 8072.47,1587.00              8072.47,1587.00 8071.04,1611.00 8071.04,1611.00              8071.40,1619.31 8074.57,1622.29 8075.43,1627.00              8076.38,1632.16 8073.69,1634.26 8074.04,1643.00              8074.42,1652.47 8078.98,1655.77 8079.12,1670.00              8079.12,1670.00 8079.12,1709.00 8079.12,1709.00              8079.12,1709.00 8079.12,1719.00 8079.12,1719.00              8079.12,1719.00 8079.12,1736.00 8079.12,1736.00              8078.98,1747.97 8075.44,1747.60 8076.04,1761.00              8076.46,1770.45 8079.98,1772.45 8080.00,1784.00              8080.00,1784.00 8080.00,1807.00 8080.00,1807.00              8080.00,1807.00 8079.09,1823.00 8079.09,1823.00              8079.09,1823.00 8079.09,1834.00 8079.09,1834.00              8079.76,1839.54 8080.91,1839.55 8081.04,1847.00              8081.04,1847.00 8081.04,1860.00 8081.04,1860.00              8081.04,1860.00 8082.00,1875.00 8082.00,1875.00              8082.00,1875.00 8080.51,1891.00 8080.51,1891.00              8079.22,1895.73 8074.50,1900.37 8075.09,1910.00              8075.85,1922.29 8081.97,1920.05 8082.00,1934.00              8082.00,1934.00 8082.00,1955.00 8082.00,1955.00              8081.86,1963.07 8078.62,1962.10 8074.11,1969.00              8070.83,1974.01 8069.80,1979.08 8070.04,1985.00              8070.51,1996.52 8076.45,1999.74 8079.37,2006.00              8082.98,2013.73 8084.18,2025.46 8083.99,2034.00              8083.99,2034.00 8083.10,2044.00 8083.10,2044.00              8083.10,2044.00 8083.10,2055.00 8083.10,2055.00              8083.10,2055.00 8081.03,2069.00 8081.03,2069.00              8081.03,2076.57 8084.03,2080.43 8083.23,2084.00              8082.66,2086.57 8078.95,2090.77 8077.40,2094.00              8075.00,2098.99 8074.79,2104.56 8075.04,2110.00              8075.62,2122.87 8083.64,2128.04 8085.41,2133.00              8086.32,2135.57 8086.03,2145.70 8086.00,2149.00              8086.00,2149.00 8085.09,2162.00 8085.09,2162.00              8085.09,2162.00 8085.96,2169.00 8085.96,2169.00              8085.96,2169.00 8085.96,2186.00 8085.96,2186.00              8085.96,2186.00 8086.96,2198.00 8086.96,2198.00              8086.96,2198.00 8086.96,2213.00 8086.96,2213.00              8086.96,2213.00 8087.96,2229.00 8087.96,2229.00              8087.96,2229.00 8087.05,2240.00 8087.05,2240.00              8087.05,2240.00 8087.05,2255.00 8087.05,2255.00              8087.05,2255.00 8087.96,2267.00 8087.96,2267.00              8087.96,2267.00 8087.96,2281.00 8087.96,2281.00              8087.96,2281.00 8087.00,2295.00 8087.00,2295.00              8087.00,2295.00 8089.68,2332.00 8089.68,2332.00              8089.68,2332.00 8088.70,2348.00 8088.70,2348.00              8087.65,2355.38 8086.04,2357.43 8086.00,2366.00              8085.92,2384.02 8087.74,2379.30 8089.70,2393.00              8089.70,2393.00 8091.00,2423.00 8091.00,2423.00              8091.00,2423.00 8091.00,2440.00 8091.00,2440.00              8091.00,2440.00 8091.96,2452.00 8091.96,2452.00              8091.96,2452.00 8091.96,2465.00 8091.96,2465.00              8091.96,2465.00 8091.04,2481.00 8091.04,2481.00              8091.04,2481.00 8092.00,2492.00 8092.00,2492.00              8092.00,2492.00 8092.00,2514.00 8092.00,2514.00              8092.00,2514.00 8093.00,2534.00 8093.00,2534.00              8093.00,2534.00 8092.18,2544.00 8092.18,2544.00              8092.18,2544.00 8092.18,2552.00 8092.18,2552.00              8092.18,2552.00 8092.18,2563.00 8092.18,2563.00              8092.22,2571.56 8094.18,2571.46 8094.00,2587.00              8094.00,2587.00 8092.04,2602.00 8092.04,2602.00              8092.04,2602.00 8092.96,2612.00 8092.96,2612.00              8092.96,2612.00 8092.96,2622.00 8092.96,2622.00              8092.96,2622.00 8095.98,2646.00 8095.98,2646.00              8095.98,2646.00 8093.03,2670.00 8093.03,2670.00              8093.03,2675.16 8094.07,2676.60 8094.70,2681.00              8094.70,2681.00 8096.00,2702.00 8096.00,2702.00              8096.00,2702.00 8096.00,2732.00 8096.00,2732.00              8096.00,2732.00 8095.01,2749.00 8095.01,2749.00              8095.15,2754.69 8096.09,2755.56 8096.25,2759.00              8096.25,2759.00 8096.25,2776.00 8096.25,2776.00              8096.25,2776.00 8096.25,2786.00 8096.25,2786.00              8095.99,2790.79 8095.04,2790.42 8095.00,2798.00              8095.00,2798.00 8095.00,2817.00 8095.00,2817.00              8095.00,2817.00 8093.03,2833.00 8093.03,2833.00              8093.03,2833.00 8096.91,2857.00 8096.91,2857.00              8096.91,2857.00 8096.04,2871.00 8096.04,2871.00              8096.04,2871.00 8096.96,2880.00 8096.96,2880.00              8096.96,2880.00 8096.04,2896.00 8096.04,2896.00              8096.04,2896.00 8097.00,2908.00 8097.00,2908.00              8097.00,2908.00 8097.00,2922.00 8097.00,2922.00              8097.00,2922.00 8097.96,2934.00 8097.96,2934.00              8097.96,2934.00 8097.96,2947.00 8097.96,2947.00              8097.96,2947.00 8096.00,2970.00 8096.00,2970.00              8096.00,2970.00 8096.00,2974.00 8096.00,2974.00              8096.09,2981.04 8097.05,2981.04 8097.23,2985.00              8097.23,2985.00 8097.23,2995.00 8097.23,2995.00              8097.23,2995.00 8098.61,3004.00 8098.61,3004.00              8098.61,3004.00 8098.00,3031.00 8098.00,3031.00              8097.88,3039.66 8094.59,3041.92 8095.09,3050.00              8095.42,3055.38 8097.36,3058.35 8097.78,3062.00              8097.78,3062.00 8097.04,3074.00 8097.04,3074.00              8097.04,3074.00 8098.66,3085.00 8098.66,3085.00              8098.66,3089.27 8096.32,3092.57 8097.09,3103.00              8097.51,3108.69 8100.51,3114.52 8100.96,3125.00              8100.96,3125.00 8099.09,3150.00 8099.09,3150.00              8099.09,3150.00 8101.95,3164.00 8101.95,3164.00              8102.29,3172.00 8098.60,3174.22 8099.09,3183.00              8099.09,3183.00 8100.25,3204.00 8100.25,3204.00              8099.96,3209.07 8097.57,3212.49 8098.09,3220.00              8098.45,3225.19 8099.85,3226.93 8100.63,3231.00              8100.63,3231.00 8102.94,3255.00 8102.94,3255.00              8102.72,3261.85 8098.72,3264.27 8099.04,3274.00              8099.32,3282.17 8101.98,3281.52 8102.00,3293.00              8102.00,3293.00 8100.09,3319.00 8100.09,3319.00              8100.62,3326.24 8103.34,3333.64 8102.82,3341.00              8102.57,3344.49 8101.87,3346.01 8102.09,3350.00              8102.09,3350.00 8103.00,3369.00 8103.00,3369.00              8103.00,3369.00 8102.04,3380.00 8102.04,3380.00              8102.04,3380.00 8103.00,3399.00 8103.00,3399.00              8103.00,3399.00 8103.91,3412.00 8103.91,3412.00              8103.69,3415.82 8102.84,3417.55 8103.09,3422.00              8103.09,3422.00 8104.01,3434.00 8104.01,3434.00              8104.01,3434.00 8104.01,3484.00 8104.01,3484.00              8103.73,3497.56 8106.14,3512.96 8102.08,3526.00              8100.52,3531.01 8098.54,3532.67 8096.37,3537.00              8096.37,3537.00 8092.92,3544.53 8092.92,3544.53              8090.25,3547.90 8078.20,3553.10 8074.00,3555.33              8062.57,3561.40 8057.72,3570.35 8058.01,3583.00              8058.40,3599.78 8070.90,3609.35 8087.00,3608.99              8087.00,3608.99 8104.00,3607.00 8104.00,3607.00              8104.00,3607.00 8105.00,3631.00 8105.00,3631.00              8105.00,3631.00 8103.00,3666.00 8103.00,3666.00              8103.00,3666.00 8102.04,3682.00 8102.04,3682.00              8102.32,3689.02 8106.94,3699.26 8107.00,3711.00              8107.00,3711.00 8107.68,3733.00 8107.68,3733.00              8107.68,3733.00 8107.00,3746.00 8107.00,3746.00              8107.00,3746.00 8107.82,3756.00 8107.82,3756.00              8107.82,3756.00 8107.09,3766.00 8107.09,3766.00              8107.36,3770.76 8108.22,3772.17 8107.96,3778.00              8107.64,3785.37 8105.87,3784.24 8105.94,3796.00              8106.08,3802.63 8107.42,3803.92 8105.94,3811.00              8104.53,3817.21 8102.03,3819.05 8102.03,3827.00              8102.03,3838.69 8106.97,3837.04 8107.00,3850.00              8107.00,3850.00 8107.00,3872.00 8107.00,3872.00              8107.00,3872.00 8107.66,3881.00 8107.66,3881.00              8107.66,3881.00 8106.90,3892.00 8106.90,3892.00              8107.05,3894.17 8107.40,3896.96 8106.90,3899.00              8106.18,3901.03 8104.56,3903.15 8103.47,3905.00              8099.91,3911.09 8098.03,3916.64 8091.00,3919.99              8088.13,3921.36 8084.16,3920.97 8081.00,3921.00              8065.44,3921.19 8050.09,3934.77 8051.09,3951.00              8051.65,3960.11 8057.33,3967.88 8065.00,3972.52              8069.86,3975.46 8074.07,3975.97 8078.89,3980.04              8083.37,3983.83 8083.48,3988.17 8086.47,3993.00              8089.50,3997.92 8090.96,3998.24 8093.45,4001.42              8093.45,4001.42 8100.42,4014.00 8100.42,4014.00              8101.73,4017.18 8100.78,4021.30 8101.17,4025.00              8101.52,4028.32 8103.13,4031.83 8101.93,4035.00              8101.93,4035.00 8096.90,4043.00 8096.90,4043.00              8093.57,4049.02 8089.81,4059.08 8090.04,4066.00              8090.30,4073.68 8093.57,4079.63 8099.04,4084.91              8099.04,4084.91 8107.01,4091.61 8107.01,4091.61              8108.71,4094.16 8107.96,4108.13 8108.00,4112.00              8108.00,4112.00 8110.96,4136.00 8110.96,4136.00              8111.53,4149.12 8108.34,4148.08 8108.04,4157.00              8107.88,4161.99 8108.80,4162.98 8109.23,4167.00              8109.73,4171.63 8107.52,4174.13 8106.98,4180.00              8106.98,4180.00 8106.98,4204.00 8106.98,4204.00              8105.86,4211.21 8099.43,4214.45 8099.04,4226.00              8098.87,4231.11 8099.94,4235.48 8102.33,4240.00              8103.76,4242.71 8106.60,4246.24 8107.19,4249.00              8107.47,4250.54 8107.15,4252.43 8107.19,4254.00              8106.81,4261.23 8109.61,4264.52 8107.19,4270.00              8106.11,4272.99 8103.24,4276.03 8101.48,4279.00              8099.53,4282.30 8099.41,4283.85 8098.05,4287.00              8094.89,4294.31 8091.53,4296.86 8092.09,4306.00              8092.82,4317.76 8101.09,4324.79 8103.87,4330.00              8105.55,4333.16 8106.58,4339.35 8107.43,4343.00              8109.10,4350.18 8111.35,4358.51 8111.05,4366.00              8111.05,4366.00 8111.05,4391.00 8111.05,4391.00              8111.05,4391.00 8111.05,4410.00 8111.05,4410.00              8111.05,4410.00 8111.05,4419.00 8111.05,4419.00              8111.05,4419.00 8110.18,4428.00 8110.18,4428.00              8110.18,4428.00 8110.18,4436.00 8110.18,4436.00              8110.18,4436.00 8110.18,4446.00 8110.18,4446.00              8109.86,4458.47 8112.33,4460.20 8112.37,4465.00              8112.37,4465.00 8110.09,4497.00 8110.09,4497.00              8110.09,4497.00 8110.09,4511.00 8110.09,4511.00              8110.09,4511.00 8111.80,4525.00 8111.80,4525.00              8112.25,4529.02 8113.31,4533.14 8111.80,4536.98              8109.25,4542.43 8103.40,4543.13 8099.00,4546.53              8090.57,4553.04 8085.61,4562.28 8086.04,4573.00              8086.41,4582.23 8091.33,4589.87 8099.00,4594.89              8107.71,4600.60 8114.73,4595.95 8114.10,4610.00              8114.10,4610.00 8114.10,4618.00 8114.10,4618.00              8114.10,4618.00 8115.00,4634.00 8115.00,4634.00              8114.92,4640.76 8114.09,4640.50 8113.30,4646.00              8113.30,4646.00 8112.00,4664.00 8112.00,4664.00              8112.00,4664.00 8108.09,4693.00 8108.09,4693.00              8108.38,4697.68 8109.76,4700.86 8111.76,4705.00              8112.77,4707.10 8114.75,4710.47 8114.19,4712.83              8113.69,4714.95 8108.55,4719.53 8106.79,4722.00              8102.56,4727.90 8099.59,4736.70 8100.09,4744.00              8100.56,4750.80 8103.41,4756.10 8108.09,4760.96              8111.22,4764.21 8115.92,4766.46 8116.77,4771.04              8117.66,4775.80 8115.66,4780.35 8115.17,4785.00              8114.42,4792.11 8116.56,4795.26 8116.07,4799.00              8115.62,4802.44 8113.03,4805.51 8113.03,4813.00              8113.03,4821.63 8115.98,4821.42 8116.00,4833.00              8116.00,4833.00 8116.63,4850.00 8116.63,4850.00              8116.63,4850.00 8115.00,4866.00 8115.00,4866.00              8115.00,4866.00 8116.62,4879.00 8116.62,4879.00              8116.45,4883.58 8113.26,4887.98 8111.40,4892.00              8109.38,4896.34 8109.58,4898.65 8108.34,4902.00              8106.43,4907.19 8102.72,4910.32 8103.04,4920.00              8103.59,4936.32 8114.94,4936.61 8118.78,4951.00              8118.78,4951.00 8119.66,4972.00 8119.66,4972.00              8119.19,4976.76 8118.08,4977.00 8118.00,4984.00              8118.00,4984.00 8119.00,5002.00 8119.00,5002.00              8119.00,5002.00 8116.09,5029.00 8116.09,5029.00              8116.09,5029.00 8118.59,5041.00 8118.59,5041.00              8118.59,5041.00 8118.04,5052.00 8118.04,5052.00              8118.04,5052.00 8120.99,5069.00 8120.99,5069.00              8120.99,5069.00 8119.62,5094.00 8119.62,5094.00              8118.34,5100.46 8115.66,5102.53 8116.04,5112.00              8116.31,5118.81 8119.07,5124.29 8119.13,5128.00              8119.13,5128.00 8119.13,5137.00 8119.13,5137.00              8119.13,5137.00 8119.13,5159.00 8119.13,5159.00              8119.13,5159.00 8118.04,5173.00 8118.04,5173.00              8118.04,5173.00 8118.96,5181.00 8118.96,5181.00              8118.96,5181.00 8118.96,5192.00 8118.96,5192.00              8118.96,5192.00 8119.66,5202.00 8119.66,5202.00              8119.66,5202.00 8119.09,5212.00 8119.09,5212.00              8119.09,5212.00 8119.91,5219.00 8119.91,5219.00              8119.91,5219.00 8120.68,5248.00 8120.68,5248.00              8120.68,5248.00 8120.00,5257.00 8120.00,5257.00              8120.00,5257.00 8120.79,5274.00 8120.79,5274.00              8120.53,5278.14 8118.75,5280.92 8119.09,5287.00              8119.09,5287.00 8121.70,5302.00 8121.70,5302.00              8122.82,5309.83 8123.09,5318.09 8123.00,5326.00              8123.00,5326.00 8120.83,5354.00 8120.83,5354.00              8120.07,5361.02 8119.02,5359.07 8119.15,5369.00              8119.15,5369.00 8119.15,5384.00 8119.15,5384.00              8119.90,5388.10 8121.96,5391.81 8121.79,5396.00              8121.42,5405.21 8115.81,5417.64 8116.00,5434.00              8116.11,5443.25 8118.47,5443.28 8117.96,5455.00              8117.96,5455.00 8115.04,5478.00 8115.04,5478.00              8115.04,5478.00 8115.79,5492.00 8115.79,5492.00              8114.94,5498.64 8113.02,5496.75 8113.04,5509.00              8113.04,5509.00 8113.04,5519.00 8113.04,5519.00              8113.37,5523.19 8114.20,5525.27 8113.96,5530.00              8113.96,5530.00 8108.90,5548.00 8108.90,5548.00              8107.62,5553.35 8107.97,5559.47 8108.00,5565.00              8108.03,5570.28 8108.34,5574.22 8110.91,5579.00              8114.43,5585.52 8120.00,5589.56 8119.62,5598.00              8119.28,5605.40 8109.37,5616.24 8110.09,5628.00              8110.83,5640.08 8117.49,5646.18 8120.09,5655.00              8121.73,5660.55 8119.27,5664.38 8119.04,5670.00              8118.51,5683.11 8124.34,5685.86 8126.92,5693.00              8128.40,5697.90 8127.35,5699.40 8126.92,5704.00              8126.92,5704.00 8127.68,5715.00 8127.68,5715.00              8127.68,5715.00 8124.49,5737.00 8124.49,5737.00              8122.97,5744.26 8120.72,5749.14 8121.04,5757.00              8121.35,5764.64 8124.28,5767.76 8124.34,5771.00              8124.41,5774.75 8121.34,5776.91 8120.08,5784.00              8119.17,5791.68 8121.85,5794.32 8120.08,5800.00              8118.53,5803.81 8107.27,5821.73 8104.53,5824.96              8099.70,5830.66 8096.89,5830.57 8092.32,5839.00              8092.32,5839.00 8082.77,5858.00 8082.77,5858.00              8082.77,5858.00 8073.07,5874.00 8073.07,5874.00              8065.95,5885.66 8068.97,5885.32 8056.00,5891.40              8054.23,5892.22 8051.81,5893.78 8050.00,5894.20              8050.00,5894.20 8032.00,5892.00 8032.00,5892.00              8032.00,5892.00 8013.00,5892.00 8013.00,5892.00              8013.00,5892.00 7993.00,5889.02 7993.00,5889.02              7982.42,5888.80 7979.62,5892.38 7973.00,5892.54              7973.00,5892.54 7956.00,5891.00 7956.00,5891.00              7956.00,5891.00 7935.00,5892.85 7935.00,5892.85              7935.00,5892.85 7923.00,5892.85 7923.00,5892.85              7923.00,5892.85 7914.00,5891.04 7914.00,5891.04              7914.00,5891.04 7899.00,5891.04 7899.00,5891.04              7899.00,5891.04 7882.00,5889.70 7882.00,5889.70              7875.91,5888.83 7876.25,5888.03 7869.00,5888.09              7869.00,5888.09 7860.00,5888.09 7860.00,5888.09              7860.00,5888.09 7851.00,5889.62 7851.00,5889.62              7846.76,5889.43 7844.09,5886.40 7836.00,5886.04              7825.43,5885.56 7825.52,5887.13 7819.00,5887.92              7819.00,5887.92 7805.00,5887.92 7805.00,5887.92              7805.00,5887.92 7791.00,5889.28 7791.00,5889.28              7791.00,5889.28 7785.00,5887.22 7785.00,5887.22              7781.30,5886.09 7766.49,5882.88 7763.00,5883.09              7756.58,5883.49 7753.38,5886.09 7750.00,5886.44              7750.00,5886.44 7737.00,5885.00 7737.00,5885.00              7737.00,5885.00 7703.00,5887.00 7703.00,5887.00              7703.00,5887.00 7684.00,5885.09 7684.00,5885.09              7684.00,5885.09 7666.00,5885.09 7666.00,5885.09              7666.00,5885.09 7656.00,5886.82 7656.00,5886.82              7656.00,5886.82 7646.00,5885.08 7646.00,5885.08              7646.00,5885.08 7631.00,5885.08 7631.00,5885.08              7631.00,5885.08 7603.00,5880.43 7603.00,5880.43              7593.29,5878.80 7588.69,5878.89 7579.00,5879.00              7579.00,5879.00 7543.00,5881.30 7543.00,5881.30              7534.22,5882.59 7532.87,5885.98 7519.00,5886.00              7519.00,5886.00 7504.00,5886.00 7504.00,5886.00              7504.00,5886.00 7487.00,5885.09 7487.00,5885.09              7482.44,5885.42 7480.08,5886.65 7476.00,5887.49              7476.00,5887.49 7465.00,5888.53 7465.00,5888.53              7457.02,5889.14 7450.24,5882.16 7437.00,5882.00              7426.16,5881.88 7421.66,5882.00 7411.00,5884.92              7403.68,5886.92 7398.97,5889.89 7391.00,5890.00              7391.00,5890.00 7374.00,5889.00 7374.00,5889.00              7354.01,5888.91 7359.30,5893.37 7346.00,5892.98              7338.11,5892.76 7337.45,5889.69 7331.00,5886.95              7325.75,5884.73 7319.66,5883.88 7314.00,5884.01              7303.27,5884.26 7301.50,5888.24 7296.00,5889.59              7296.00,5889.59 7289.00,5890.17 7289.00,5890.17              7280.02,5891.15 7282.72,5892.05 7271.00,5892.00              7271.00,5892.00 7260.00,5891.09 7260.00,5891.09              7250.57,5890.56 7246.93,5894.78 7242.00,5895.73              7242.00,5895.73 7218.00,5897.00 7218.00,5897.00              7208.41,5897.09 7210.51,5895.87 7203.00,5894.47              7203.00,5894.47 7183.00,5892.01 7183.00,5892.01              7183.00,5892.01 7170.00,5892.69 7170.00,5892.69              7170.00,5892.69 7151.00,5886.21 7151.00,5886.21              7144.74,5884.41 7143.48,5885.41 7138.00,5884.83              7133.17,5884.31 7132.12,5883.16 7126.00,5883.01              7106.99,5882.58 7105.92,5891.81 7093.00,5897.73              7091.54,5898.40 7076.95,5900.40 7075.00,5900.40              7075.00,5900.40 7059.00,5898.28 7059.00,5898.28              7055.70,5897.89 7052.17,5898.27 7049.00,5897.37              7049.00,5897.37 7038.00,5892.56 7038.00,5892.56              7029.69,5888.71 7027.48,5883.31 7017.00,5882.17              7006.77,5881.06 7005.35,5883.50 6997.00,5885.48              6997.00,5885.48 6982.00,5888.55 6982.00,5888.55              6976.42,5890.54 6972.93,5894.14 6969.00,5894.32              6969.00,5894.32 6957.00,5894.32 6957.00,5894.32              6949.72,5894.62 6952.01,5895.98 6940.00,5896.00              6940.00,5896.00 6923.00,5897.84 6923.00,5897.84              6920.87,5897.39 6917.41,5895.00 6915.00,5893.95              6908.59,5891.16 6902.06,5888.84 6895.00,5889.04              6895.00,5889.04 6878.00,5888.19 6878.00,5888.19              6868.17,5888.37 6870.12,5891.21 6856.00,5888.19              6841.55,5885.40 6845.43,5884.59 6838.00,5882.22              6838.00,5882.22 6814.00,5879.09 6814.00,5879.09              6814.00,5879.09 6795.00,5880.68 6795.00,5880.68              6789.45,5881.96 6787.50,5884.26 6784.00,5884.56              6784.00,5884.56 6772.00,5883.15 6772.00,5883.15              6772.00,5883.15 6762.00,5883.15 6762.00,5883.15              6762.00,5883.15 6755.00,5883.15 6755.00,5883.15              6738.06,5882.66 6731.51,5892.70 6719.00,5891.91              6719.00,5891.91 6701.00,5890.16 6701.00,5890.16              6701.00,5890.16 6695.00,5886.86 6695.00,5886.86              6684.59,5880.81 6677.44,5875.73 6665.00,5876.01              6659.24,5876.15 6654.74,5877.39 6650.00,5880.79              6647.40,5882.66 6644.16,5886.45 6641.83,5887.40              6641.83,5887.40 6622.00,5889.83 6622.00,5889.83              6622.00,5889.83 6608.00,5890.82 6608.00,5890.82              6608.00,5890.82 6597.00,5890.28 6597.00,5890.28              6594.47,5890.14 6591.30,5890.85 6589.00,5890.28              6585.48,5890.02 6582.72,5887.58 6576.00,5887.09              6569.25,5886.60 6567.20,5887.79 6562.00,5887.96              6562.00,5887.96 6550.00,5887.02 6550.00,5887.02              6550.00,5887.02 6538.00,5887.92 6538.00,5887.92              6532.33,5887.91 6531.14,5885.88 6520.00,5886.00              6508.82,5886.13 6497.80,5891.60 6489.00,5891.74              6485.21,5891.80 6481.07,5889.89 6477.00,5889.06              6477.00,5889.06 6460.00,5889.06 6460.00,5889.06              6451.81,5888.01 6449.87,5885.79 6440.00,5886.01              6440.00,5886.01 6422.00,5888.00 6422.00,5888.00              6422.00,5888.00 6397.00,5890.94 6397.00,5890.94              6397.00,5890.94 6388.00,5890.94 6388.00,5890.94              6382.46,5891.77 6382.45,5892.91 6375.00,5893.00              6368.96,5893.07 6358.40,5892.45 6353.00,5893.93              6346.86,5895.61 6344.18,5898.95 6340.00,5899.44              6337.04,5899.78 6329.53,5896.90 6320.00,5898.30              6312.58,5899.39 6311.74,5901.88 6302.00,5902.00              6286.46,5902.18 6292.40,5901.60 6278.00,5905.70              6274.59,5906.67 6272.45,5906.76 6269.00,5908.40              6261.21,5912.10 6255.28,5918.17 6246.00,5919.28              6240.04,5919.99 6238.22,5915.19 6232.00,5911.48              6226.24,5908.05 6218.53,5907.23 6212.00,5908.47              6205.37,5909.72 6199.73,5913.56 6195.79,5919.00              6192.53,5923.50 6191.32,5928.95 6185.98,5931.57              6185.98,5931.57 6180.00,5933.55 6180.00,5933.55              6180.00,5933.55 6164.00,5939.40 6164.00,5939.40              6164.00,5939.40 6153.00,5941.64 6153.00,5941.64              6153.00,5941.64 6144.00,5944.47 6144.00,5944.47              6144.00,5944.47 6135.00,5945.93 6135.00,5945.93              6135.00,5945.93 6113.00,5955.09 6113.00,5955.09              6113.00,5955.09 6095.00,5952.04 6095.00,5952.04              6095.00,5952.04 6077.00,5952.94 6077.00,5952.94              6074.80,5953.03 6070.94,5953.38 6069.00,5952.94              6069.00,5952.94 6057.00,5946.47 6057.00,5946.47              6052.20,5944.51 6035.13,5940.83 6030.00,5941.04              6022.22,5941.35 6018.84,5944.46 6014.00,5944.73              6014.00,5944.73 6007.00,5943.96 6007.00,5943.96              6007.00,5943.96 5996.00,5943.96 5996.00,5943.96              5996.00,5943.96 5982.00,5941.42 5982.00,5941.42              5982.00,5941.42 5970.00,5940.70 5970.00,5940.70              5970.00,5940.70 5960.00,5938.45 5960.00,5938.45              5960.00,5938.45 5948.00,5936.63 5948.00,5936.63              5948.00,5936.63 5940.00,5934.47 5940.00,5934.47              5940.00,5934.47 5923.00,5931.83 5923.00,5931.83              5913.49,5930.07 5913.76,5928.04 5901.77,5928.00              5902.00,5924.37 5902.19,5919.47 5901.77,5916.00              5899.46,5904.99 5890.17,5894.58 5879.00,5892.47              5871.42,5891.03 5864.10,5892.82 5858.00,5897.53              5854.51,5900.22 5851.32,5904.36 5847.91,5906.28              5844.93,5907.96 5842.25,5908.00 5839.00,5908.66              5837.10,5909.05 5834.94,5909.70 5833.00,5909.62              5828.86,5909.43 5826.31,5906.66 5820.00,5905.47              5811.77,5903.91 5807.37,5905.82 5797.00,5901.51              5792.12,5899.48 5790.70,5896.21 5783.00,5893.91              5772.24,5890.70 5765.84,5891.02 5755.00,5891.00              5755.00,5891.00 5734.00,5890.00 5734.00,5890.00              5713.64,5889.97 5715.65,5884.68 5701.00,5885.01              5701.00,5885.01 5677.00,5888.65 5677.00,5888.65              5677.00,5888.65 5667.00,5886.46 5667.00,5886.46              5667.00,5886.46 5654.00,5885.73 5654.00,5885.73              5654.00,5885.73 5645.00,5882.22 5645.00,5882.22              5645.00,5882.22 5633.00,5878.92 5633.00,5878.92              5633.00,5878.92 5619.10,5876.77 5619.10,5876.77              5615.42,5875.48 5614.06,5871.87 5611.67,5869.00              5608.80,5865.55 5604.97,5862.05 5601.00,5859.91              5589.93,5853.95 5579.65,5858.98 5574.00,5859.37              5569.49,5859.68 5567.77,5857.74 5560.00,5858.04              5554.72,5858.24 5543.53,5859.22 5539.00,5861.40              5532.43,5864.56 5529.84,5869.30 5526.00,5870.08              5526.00,5870.08 5509.00,5868.00 5509.00,5868.00              5509.00,5868.00 5489.00,5867.01 5489.00,5867.01              5478.71,5867.25 5477.28,5871.24 5471.00,5870.50              5471.00,5870.50 5456.00,5868.37 5456.00,5868.37              5452.12,5867.26 5449.01,5864.60 5443.00,5863.47              5443.00,5863.47 5407.00,5861.04 5407.00,5861.04              5403.02,5861.19 5395.67,5862.47 5392.00,5863.93              5388.90,5865.16 5385.28,5867.75 5382.00,5867.74              5377.13,5867.71 5372.30,5862.06 5368.00,5859.48              5362.82,5856.36 5349.04,5852.72 5343.00,5853.09              5335.62,5853.55 5328.14,5857.66 5323.18,5863.04              5321.09,5865.31 5318.60,5869.66 5316.62,5871.07              5312.36,5874.10 5303.08,5873.74 5298.00,5874.09              5298.00,5874.09 5287.00,5874.96 5287.00,5874.96              5287.00,5874.96 5279.00,5874.00 5279.00,5874.00              5279.00,5874.00 5269.00,5874.00 5269.00,5874.00              5269.00,5874.00 5259.00,5873.04 5259.00,5873.04              5259.00,5873.04 5231.00,5874.96 5231.00,5874.96              5231.00,5874.96 5201.00,5873.00 5201.00,5873.00              5201.00,5873.00 5189.00,5872.04 5189.00,5872.04              5189.00,5872.04 5177.00,5872.97 5177.00,5872.97              5177.00,5872.97 5164.00,5872.00 5164.00,5872.00              5164.00,5872.00 5138.00,5872.00 5138.00,5872.00              5138.00,5872.00 5129.00,5872.53 5129.00,5872.53              5129.00,5872.53 5118.00,5871.01 5118.00,5871.01              5118.00,5871.01 5102.00,5871.91 5102.00,5871.91              5102.00,5871.91 5092.00,5871.00 5092.00,5871.00              5092.00,5871.00 5071.00,5871.00 5071.00,5871.00              5071.00,5871.00 5053.00,5869.63 5053.00,5869.63              5045.44,5868.18 5046.49,5866.80 5037.00,5867.01              5029.22,5867.19 5026.04,5869.68 5021.00,5869.87              5013.48,5870.14 5005.25,5866.48 4999.00,5866.09              4999.00,5866.09 4986.00,5866.91 4986.00,5866.91              4986.00,5866.91 4976.00,5866.00 4976.00,5866.00              4976.00,5866.00 4953.00,5867.09 4953.00,5867.09              4953.00,5867.09 4936.00,5868.90 4936.00,5868.90              4927.45,5868.51 4921.88,5864.13 4911.00,5864.00              4896.34,5863.83 4899.12,5865.87 4892.00,5866.79              4892.00,5866.79 4875.00,5865.79 4875.00,5865.79              4875.00,5865.79 4861.00,5861.46 4861.00,5861.46              4861.00,5861.46 4844.00,5859.84 4844.00,5859.84              4844.00,5859.84 4826.00,5856.83 4826.00,5856.83              4818.85,5855.48 4817.45,5853.01 4808.00,5853.01              4793.99,5853.01 4788.84,5859.49 4779.00,5861.46              4773.18,5862.62 4771.13,5859.68 4762.00,5860.04              4762.00,5860.04 4754.00,5860.96 4754.00,5860.96              4754.00,5860.96 4742.00,5860.96 4742.00,5860.96              4742.00,5860.96 4730.00,5861.98 4730.00,5861.98              4730.00,5861.98 4717.00,5861.03 4717.00,5861.03              4717.00,5861.03 4708.00,5861.61 4708.00,5861.61              4708.00,5861.61 4689.00,5857.23 4689.00,5857.23              4685.44,5856.80 4676.98,5856.96 4673.00,5857.23              4673.00,5857.23 4642.00,5861.00 4642.00,5861.00              4642.00,5861.00 4618.00,5861.00 4618.00,5861.00              4607.74,5860.98 4601.98,5857.38 4592.00,5855.61              4592.00,5855.61 4560.00,5854.00 4560.00,5854.00              4553.03,5854.08 4551.79,5855.35 4548.00,5855.29              4548.00,5855.29 4539.00,5855.29 4539.00,5855.29              4539.00,5855.29 4523.00,5856.00 4523.00,5856.00              4508.89,5855.97 4512.81,5850.24 4495.00,5851.04              4487.45,5851.38 4487.02,5853.06 4481.00,5855.19              4478.57,5856.06 4467.28,5858.48 4465.00,5858.23              4465.00,5858.23 4453.00,5856.09 4453.00,5856.09              4453.00,5856.09 4441.00,5856.81 4441.00,5856.81              4441.00,5856.81 4433.00,5855.10 4433.00,5855.10              4433.00,5855.10 4423.00,5855.10 4423.00,5855.10              4417.08,5854.48 4415.57,5852.73 4408.00,5853.04              4408.00,5853.04 4400.00,5854.23 4400.00,5854.23              4398.16,5854.43 4383.86,5851.70 4382.00,5850.92              4377.57,5849.06 4374.40,5845.07 4366.00,5844.17              4355.83,5843.08 4351.38,5847.43 4344.00,5848.85              4338.25,5849.65 4332.74,5849.02 4327.00,5848.85              4327.00,5848.85 4319.00,5849.82 4319.00,5849.82              4319.00,5849.82 4301.00,5848.04 4301.00,5848.04              4289.95,5847.56 4289.22,5849.46 4284.00,5849.79              4284.00,5849.79 4273.00,5849.09 4273.00,5849.09              4263.81,5849.66 4262.39,5853.98 4248.00,5854.16              4248.00,5854.16 4228.00,5854.16 4228.00,5854.16              4224.46,5854.00 4221.82,5851.80 4216.00,5851.17              4216.00,5851.17 4198.00,5849.82 4198.00,5849.82              4198.00,5849.82 4187.00,5847.30 4187.00,5847.30              4187.00,5847.30 4175.00,5846.48 4175.00,5846.48              4170.20,5845.47 4155.88,5839.59 4151.00,5837.36              4148.49,5836.21 4143.44,5833.64 4141.70,5831.61              4139.65,5829.24 4136.85,5820.24 4130.68,5813.01              4125.64,5807.12 4121.42,5806.25 4119.40,5802.68              4118.08,5800.34 4117.94,5796.15 4115.10,5791.00              4108.66,5779.32 4098.25,5772.71 4085.00,5773.01              4074.26,5773.26 4065.08,5779.27 4060.40,5789.00              4060.40,5789.00 4055.47,5804.00 4055.47,5804.00              4055.47,5804.00 4046.49,5822.00 4046.49,5822.00              4045.13,5823.91 4042.70,5826.31 4041.00,5828.00              4032.85,5836.09 4032.67,5834.28 4024.00,5839.45              4021.19,5841.13 4016.77,5844.55 4014.00,5845.44              4014.00,5845.44 4003.00,5846.90 4003.00,5846.90              3993.30,5849.21 3991.80,5850.98 3981.00,5851.09              3981.00,5851.09 3971.00,5851.09 3971.00,5851.09              3961.48,5852.19 3964.58,5853.14 3952.00,5853.00              3952.00,5853.00 3930.00,5851.17 3930.00,5851.17              3930.00,5851.17 3920.00,5851.17 3920.00,5851.17              3920.00,5851.17 3903.00,5850.11 3903.00,5850.11              3903.00,5850.11 3879.00,5850.11 3879.00,5850.11              3879.00,5850.11 3869.00,5850.11 3869.00,5850.11              3861.80,5849.69 3861.10,5848.04 3852.00,5848.00              3852.00,5848.00 3833.00,5847.04 3833.00,5847.04              3833.00,5847.04 3822.00,5848.00 3822.00,5848.00              3822.00,5848.00 3802.00,5849.00 3802.00,5849.00              3802.00,5849.00 3784.00,5849.00 3784.00,5849.00              3784.00,5849.00 3771.00,5849.90 3771.00,5849.90              3765.23,5849.62 3765.28,5848.02 3755.00,5848.00              3755.00,5848.00 3668.00,5848.00 3668.00,5848.00              3668.00,5848.00 3656.00,5848.00 3656.00,5848.00              3647.11,5848.11 3647.53,5849.73 3641.00,5850.81              3641.00,5850.81 3615.00,5852.99 3615.00,5852.99              3615.00,5852.99 3606.00,5852.04 3606.00,5852.04              3606.00,5852.04 3595.00,5852.04 3595.00,5852.04              3595.00,5852.04 3569.00,5854.00 3569.00,5854.00              3569.00,5854.00 3556.00,5854.82 3556.00,5854.82              3556.00,5854.82 3548.00,5854.13 3548.00,5854.13              3548.00,5854.13 3537.00,5854.13 3537.00,5854.13              3537.00,5854.13 3530.00,5853.04 3530.00,5853.04              3530.00,5853.04 3523.00,5853.04 3523.00,5853.04              3516.42,5852.43 3516.53,5850.80 3507.00,5851.01              3507.00,5851.01 3494.00,5852.00 3494.00,5852.00              3494.00,5852.00 3463.00,5853.68 3463.00,5853.68              3463.00,5853.68 3435.00,5850.83 3435.00,5850.83              3430.50,5850.40 3428.88,5849.90 3424.00,5850.01              3424.00,5850.01 3412.00,5850.91 3412.00,5850.91              3412.00,5850.91 3405.00,5850.05 3405.00,5850.05              3405.00,5850.05 3387.00,5850.05 3387.00,5850.05              3387.00,5850.05 3375.00,5850.82 3375.00,5850.82              3375.00,5850.82 3361.00,5849.70 3361.00,5849.70              3361.00,5849.70 3346.00,5847.04 3346.00,5847.04              3346.00,5847.04 3336.00,5847.04 3336.00,5847.04              3336.00,5847.04 3329.00,5846.00 3329.00,5846.00              3329.00,5846.00 3319.00,5846.00 3319.00,5846.00              3319.00,5846.00 3311.00,5845.04 3311.00,5845.04              3311.00,5845.04 3292.00,5847.09 3292.00,5847.09              3292.00,5847.09 3279.00,5847.09 3279.00,5847.09              3272.42,5847.88 3273.01,5849.19 3264.00,5848.99              3264.00,5848.99 3251.00,5848.04 3251.00,5848.04              3251.00,5848.04 3239.00,5849.00 3239.00,5849.00              3239.00,5849.00 3219.00,5848.00 3219.00,5848.00              3219.00,5848.00 3191.00,5846.00 3191.00,5846.00              3191.00,5846.00 3178.00,5846.00 3178.00,5846.00              3178.00,5846.00 3165.00,5845.04 3165.00,5845.04              3165.00,5845.04 3154.00,5846.16 3154.00,5846.16              3154.00,5846.16 3147.00,5845.05 3147.00,5845.05              3147.00,5845.05 3133.00,5845.05 3133.00,5845.05              3133.00,5845.05 3120.00,5845.96 3120.00,5845.96              3120.00,5845.96 3110.00,5844.30 3110.00,5844.30              3110.00,5844.30 3090.00,5843.03 3090.00,5843.03              3090.00,5843.03 3063.00,5846.91 3063.00,5846.91              3063.00,5846.91 3054.00,5845.28 3054.00,5845.28              3042.90,5843.43 3037.49,5842.02 3026.00,5842.00              3014.16,5841.98 3014.22,5838.63 3004.00,5839.04              2995.17,5839.40 2992.90,5842.78 2988.00,5843.87              2988.00,5843.87 2969.00,5843.87 2969.00,5843.87              2969.00,5843.87 2959.00,5844.82 2959.00,5844.82              2959.00,5844.82 2944.00,5844.00 2944.00,5844.00              2944.00,5844.00 2930.00,5845.20 2930.00,5845.20              2930.00,5845.20 2916.00,5845.20 2916.00,5845.20              2906.94,5845.01 2907.56,5846.01 2903.00,5846.25              2903.00,5846.25 2889.00,5845.09 2889.00,5845.09              2889.00,5845.09 2879.00,5846.91 2879.00,5846.91              2879.00,5846.91 2863.00,5846.91 2863.00,5846.91              2863.00,5846.91 2843.00,5845.00 2843.00,5845.00              2843.00,5845.00 2824.00,5845.00 2824.00,5845.00              2824.00,5845.00 2793.00,5842.01 2793.00,5842.01              2793.00,5842.01 2775.00,5844.00 2775.00,5844.00              2775.00,5844.00 2737.00,5844.00 2737.00,5844.00              2737.00,5844.00 2722.00,5843.01 2722.00,5843.01              2722.00,5843.01 2709.00,5844.00 2709.00,5844.00              2709.00,5844.00 2692.00,5843.00 2692.00,5843.00              2692.00,5843.00 2685.00,5843.00 2685.00,5843.00              2678.20,5842.92 2678.51,5842.08 2673.00,5841.30              2673.00,5841.30 2653.00,5840.09 2653.00,5840.09              2653.00,5840.09 2640.00,5841.97 2640.00,5841.97              2640.00,5841.97 2619.00,5840.00 2619.00,5840.00              2619.00,5840.00 2600.00,5839.17 2600.00,5839.17              2592.27,5839.99 2591.48,5842.22 2581.00,5841.99              2581.00,5841.99 2552.00,5839.13 2552.00,5839.13              2552.00,5839.13 2522.00,5839.13 2522.00,5839.13              2522.00,5839.13 2512.00,5839.74 2512.00,5839.74              2512.00,5839.74 2503.00,5838.08 2503.00,5838.08              2503.00,5838.08 2491.00,5838.08 2491.00,5838.08              2491.00,5838.08 2464.00,5835.08 2464.00,5835.08              2464.00,5835.08 2443.00,5835.08 2443.00,5835.08              2443.00,5835.08 2426.00,5833.09 2426.00,5833.09              2426.00,5833.09 2409.00,5833.91 2409.00,5833.91              2409.00,5833.91 2395.00,5832.17 2395.00,5832.17              2395.00,5832.17 2371.00,5831.00 2371.00,5831.00              2360.82,5831.12 2359.78,5833.89 2355.00,5834.44              2355.00,5834.44 2334.00,5833.01 2334.00,5833.01              2334.00,5833.01 2312.00,5834.96 2312.00,5834.96              2312.00,5834.96 2299.00,5834.00 2299.00,5834.00              2299.00,5834.00 2279.00,5834.00 2279.00,5834.00              2279.00,5834.00 2267.00,5832.96 2267.00,5832.96              2267.00,5832.96 2257.00,5832.96 2257.00,5832.96              2257.00,5832.96 2239.00,5830.91 2239.00,5830.91              2239.00,5830.91 2229.00,5830.00 2229.00,5830.00              2229.00,5830.00 2211.00,5829.04 2211.00,5829.04              2211.00,5829.04 2197.00,5830.47 2197.00,5830.47              2192.82,5831.25 2190.49,5832.80 2186.00,5832.94              2186.00,5832.94 2160.00,5831.00 2160.00,5831.00              2160.00,5831.00 2129.00,5830.00 2129.00,5830.00              2129.00,5830.00 2113.00,5829.00 2113.00,5829.00              2113.00,5829.00 2091.00,5827.02 2091.00,5827.02              2081.81,5826.84 2079.90,5829.17 2075.00,5829.39              2075.00,5829.39 2050.00,5828.00 2050.00,5828.00              2050.00,5828.00 2022.00,5828.00 2022.00,5828.00              2022.00,5828.00 1998.00,5826.09 1998.00,5826.09              1998.00,5826.09 1985.00,5826.83 1985.00,5826.83              1985.00,5826.83 1961.00,5825.00 1961.00,5825.00              1961.00,5825.00 1938.00,5828.00 1938.00,5828.00              1938.00,5828.00 1927.00,5828.00 1927.00,5828.00              1927.00,5828.00 1915.00,5827.04 1915.00,5827.04              1915.00,5827.04 1904.00,5827.04 1904.00,5827.04              1904.00,5827.04 1891.00,5826.01 1891.00,5826.01              1891.00,5826.01 1873.00,5827.83 1873.00,5827.83              1873.00,5827.83 1843.00,5823.00 1843.00,5823.00              1843.00,5823.00 1837.00,5823.00 1837.00,5823.00              1837.00,5823.00 1816.00,5820.17 1816.00,5820.17              1816.00,5820.17 1791.00,5819.00 1791.00,5819.00              1791.00,5819.00 1780.00,5819.66 1780.00,5819.66              1780.00,5819.66 1769.00,5819.01 1769.00,5819.01              1756.80,5819.30 1751.50,5825.21 1745.00,5826.61              1745.00,5826.61 1736.00,5827.17 1736.00,5827.17              1736.00,5827.17 1725.00,5828.96 1725.00,5828.96              1725.00,5828.96 1711.00,5828.00 1711.00,5828.00              1711.00,5828.00 1688.00,5826.83 1688.00,5826.83              1682.19,5826.20 1681.44,5824.78 1674.00,5825.03              1674.00,5825.03 1658.00,5825.03 1658.00,5825.03              1658.00,5825.03 1640.00,5827.00 1640.00,5827.00              1640.00,5827.00 1620.00,5827.00 1620.00,5827.00              1620.00,5827.00 1605.00,5826.00 1605.00,5826.00              1605.00,5826.00 1568.00,5828.29 1568.00,5828.29              1568.00,5828.29 1555.00,5830.79 1555.00,5830.79              1555.00,5830.79 1542.00,5830.00 1542.00,5830.00              1542.00,5830.00 1522.00,5829.01 1522.00,5829.01              1513.50,5829.21 1512.03,5831.42 1506.00,5832.62              1506.00,5832.62 1489.00,5834.00 1489.00,5834.00              1489.00,5834.00 1463.00,5833.00 1463.00,5833.00              1463.00,5833.00 1449.00,5832.04 1449.00,5832.04              1449.00,5832.04 1439.00,5833.70 1439.00,5833.70              1439.00,5833.70 1425.00,5834.82 1425.00,5834.82              1425.00,5834.82 1418.00,5834.00 1418.00,5834.00              1418.00,5834.00 1409.00,5834.00 1409.00,5834.00              1409.00,5834.00 1400.00,5833.02 1400.00,5833.02              1400.00,5833.02 1386.00,5834.00 1386.00,5834.00              1386.00,5834.00 1369.00,5834.00 1369.00,5834.00              1360.85,5834.01 1353.91,5835.30 1346.00,5837.00              1346.00,5837.00 1335.00,5839.51 1335.00,5839.51              1331.57,5839.54 1328.09,5837.76 1321.00,5838.04              1321.00,5838.04 1313.00,5838.96 1313.00,5838.96              1313.00,5838.96 1299.00,5838.96 1299.00,5838.96              1299.00,5838.96 1280.00,5840.96 1280.00,5840.96              1280.00,5840.96 1264.00,5840.00 1264.00,5840.00              1264.00,5840.00 1247.00,5841.00 1247.00,5841.00              1247.00,5841.00 1233.00,5840.02 1233.00,5840.02              1233.00,5840.02 1222.00,5840.81 1222.00,5840.81              1222.00,5840.81 1211.00,5839.04 1211.00,5839.04              1211.00,5839.04 1198.00,5840.00 1198.00,5840.00              1198.00,5840.00 1180.00,5839.00 1180.00,5839.00              1180.00,5839.00 1159.00,5837.91 1159.00,5837.91              1159.00,5837.91 1147.00,5837.01 1147.00,5837.01              1139.48,5837.19 1136.58,5839.35 1130.00,5840.77              1126.31,5841.20 1120.88,5841.01 1117.00,5840.77              1117.00,5840.77 1105.00,5840.05 1105.00,5840.05              1105.00,5840.05 1090.00,5840.05 1090.00,5840.05              1090.00,5840.05 1075.00,5841.20 1075.00,5841.20              1069.82,5840.90 1069.35,5838.78 1059.00,5839.01              1049.77,5839.23 1047.42,5842.52 1043.00,5842.47              1037.20,5842.39 1027.63,5837.02 1015.00,5837.00              1015.00,5837.00 978.00,5837.00 978.00,5837.00              978.00,5837.00 964.00,5837.99 964.00,5837.99              964.00,5837.99 948.00,5837.09 948.00,5837.09              948.00,5837.09 927.00,5839.00 927.00,5839.00              927.00,5839.00 900.00,5839.00 900.00,5839.00              900.00,5839.00 874.00,5841.66 874.00,5841.66              874.00,5841.66 848.00,5840.17 848.00,5840.17              848.00,5840.17 819.00,5846.57 819.00,5846.57              819.00,5846.57 805.00,5846.04 805.00,5846.04              805.00,5846.04 794.00,5847.92 794.00,5847.92              794.00,5847.92 778.00,5847.92 778.00,5847.92              765.86,5848.15 757.34,5851.32 746.00,5853.60              746.00,5853.60 724.00,5856.29 724.00,5856.29              724.00,5856.29 711.00,5858.71 711.00,5858.71              711.00,5858.71 698.00,5859.30 698.00,5859.30              698.00,5859.30 678.00,5862.91 678.00,5862.91              678.00,5862.91 652.00,5864.30 652.00,5864.30              646.17,5865.16 643.39,5867.47 639.00,5868.47              639.00,5868.47 623.00,5870.45 623.00,5870.45              612.84,5872.62 609.84,5878.62 603.00,5879.93              603.00,5879.93 596.00,5879.93 596.00,5879.93              584.01,5880.86 587.61,5880.28 577.00,5876.55              577.00,5876.55 568.00,5874.25 568.00,5874.25              560.12,5872.04 559.09,5870.11 550.00,5870.00              550.00,5870.00 542.00,5870.00 542.00,5870.00              532.49,5870.05 533.41,5871.43 526.00,5872.68              526.00,5872.68 518.00,5873.68 518.00,5873.68              518.00,5873.68 510.00,5875.90 510.00,5875.90              510.00,5875.90 501.00,5875.90 501.00,5875.90              501.00,5875.90 490.00,5876.92 490.00,5876.92              490.00,5876.92 480.00,5876.01 480.00,5876.01              480.00,5876.01 462.00,5877.17 462.00,5877.17              462.00,5877.17 446.00,5880.70 446.00,5880.70              446.00,5880.70 433.00,5881.68 433.00,5881.68              433.00,5881.68 413.00,5887.35 413.00,5887.35              406.72,5890.13 404.43,5893.59 397.00,5894.94              397.00,5894.94 386.00,5894.94 386.00,5894.94              386.00,5894.94 379.00,5896.77 379.00,5896.77              375.20,5897.20 369.97,5897.01 366.00,5896.77              366.00,5896.77 351.00,5896.01 351.00,5896.01              342.73,5896.01 340.14,5898.42 337.00,5898.12              333.89,5897.82 331.42,5895.19 327.00,5893.56              322.56,5891.92 318.64,5891.95 314.00,5892.00              314.00,5892.00 293.00,5893.19 293.00,5893.19              293.00,5893.19 282.00,5890.30 282.00,5890.30              277.78,5889.68 269.28,5890.64 265.00,5891.47              256.93,5893.03 253.54,5896.66 247.00,5900.37              247.00,5900.37 237.00,5904.79 237.00,5904.79              231.36,5907.07 228.43,5904.93 221.00,5907.55              216.00,5909.31 207.96,5915.13 203.00,5914.27              203.00,5914.27 198.00,5912.54 198.00,5912.54              185.88,5908.23 186.81,5904.47 178.00,5896.04              173.03,5891.28 168.41,5889.61 167.60,5882.00              167.60,5882.00 167.60,5863.00 167.60,5863.00              167.93,5857.98 166.42,5843.78 165.32,5839.00              164.01,5833.27 162.20,5832.67 162.02,5826.00              161.72,5815.27 164.61,5815.59 164.96,5807.00              165.32,5798.23 161.51,5789.36 163.78,5781.00              169.07,5761.58 178.44,5764.93 177.99,5745.00              177.79,5736.70 175.43,5734.84 174.93,5731.00              174.46,5727.35 176.25,5725.26 175.96,5718.00              175.96,5718.00 169.92,5691.00 169.92,5691.00              169.30,5686.32 171.26,5684.67 170.96,5677.00              170.96,5677.00 169.08,5665.00 169.08,5665.00              169.08,5665.00 169.08,5653.00 169.08,5653.00              169.08,5653.00 165.46,5613.00 165.46,5613.00              166.49,5604.67 172.37,5591.54 171.91,5584.00              171.42,5576.12 168.07,5573.23 166.70,5569.00              165.56,5565.50 166.48,5562.75 164.45,5557.00              162.75,5552.17 159.94,5549.39 160.48,5544.00              161.11,5537.68 163.25,5534.20 162.96,5527.00              162.72,5520.93 160.92,5518.65 160.83,5515.00              160.83,5515.00 160.83,5501.00 160.83,5501.00              160.83,5501.00 160.00,5479.00 160.00,5479.00              160.00,5479.00 159.00,5466.00 159.00,5466.00              158.91,5458.18 160.03,5452.61 161.46,5445.00              161.46,5445.00 162.91,5437.00 162.91,5437.00              162.91,5437.00 162.00,5422.00 162.00,5422.00              161.98,5406.33 166.19,5411.80 166.00,5395.00              165.85,5382.45 161.71,5384.17 162.01,5371.00              162.01,5371.00 163.91,5358.00 163.91,5358.00              164.31,5351.46 162.28,5348.69 161.32,5343.00              161.32,5343.00 158.00,5313.00 158.00,5313.00              158.11,5304.58 160.65,5303.62 160.96,5296.00              160.96,5296.00 160.26,5285.00 160.26,5285.00              160.41,5281.06 162.28,5277.98 161.91,5272.00              161.22,5260.79 155.29,5260.21 154.17,5249.00              153.62,5243.47 154.87,5240.25 154.99,5235.00              155.18,5226.56 154.00,5226.38 153.79,5222.00              153.79,5222.00 153.79,5208.00 153.79,5208.00              153.79,5208.00 151.58,5198.00 151.58,5198.00              151.43,5194.20 154.14,5191.43 154.83,5185.00              155.43,5179.35 154.20,5176.88 154.04,5172.00              154.04,5172.00 154.99,5160.00 154.99,5160.00              155.48,5138.27 146.48,5141.36 146.01,5121.00              146.01,5121.00 147.96,5099.00 147.96,5099.00              147.68,5092.01 144.99,5089.25 145.33,5084.00              145.33,5084.00 147.96,5062.00 147.96,5062.00              147.96,5062.00 146.92,5051.00 146.92,5051.00              146.92,5051.00 146.92,5029.00 146.92,5029.00              146.92,5029.00 146.92,5020.00 146.92,5020.00              147.21,5010.68 152.30,5003.82 151.99,4990.00              151.75,4979.87 147.87,4975.85 146.53,4970.00              145.72,4966.47 145.95,4954.29 146.00,4950.00              146.00,4950.00 146.91,4937.00 146.91,4937.00              146.91,4937.00 144.35,4924.00 144.35,4924.00              144.35,4924.00 146.91,4903.00 146.91,4903.00              147.26,4896.75 143.18,4884.63 141.60,4878.00              141.60,4878.00 140.54,4866.00 140.54,4866.00              140.54,4866.00 138.51,4858.00 138.51,4858.00              138.51,4858.00 136.09,4834.00 136.09,4834.00              136.09,4834.00 138.98,4813.00 138.98,4813.00              138.87,4807.09 137.66,4805.64 137.39,4802.00              137.39,4802.00 137.91,4792.00 137.91,4792.00              137.91,4792.00 136.30,4783.00 136.30,4783.00              136.30,4783.00 135.00,4764.00 135.00,4764.00              135.00,4764.00 135.00,4743.00 135.00,4743.00              135.00,4743.00 137.97,4722.00 137.97,4722.00              137.97,4713.74 134.94,4710.97 134.21,4706.00              133.59,4701.75 134.94,4696.56 135.09,4692.00              135.09,4692.00 135.09,4681.00 135.09,4681.00              135.92,4674.81 137.89,4674.02 138.00,4665.00              138.05,4660.68 138.22,4656.20 137.07,4652.00              135.69,4646.93 133.57,4645.24 133.14,4641.00              133.14,4641.00 133.91,4626.00 133.91,4626.00              133.91,4626.00 132.16,4614.00 132.16,4614.00              132.16,4614.00 130.70,4598.00 130.70,4598.00              129.91,4592.44 128.79,4591.54 129.04,4585.00              129.04,4585.00 129.99,4572.00 129.99,4572.00              129.99,4572.00 128.56,4559.00 128.56,4559.00              129.16,4553.79 133.49,4551.52 132.96,4539.00              132.96,4539.00 128.01,4504.00 128.01,4504.00              128.01,4504.00 128.99,4490.00 128.99,4490.00              128.99,4490.00 128.00,4475.00 128.00,4475.00              128.04,4465.99 129.55,4465.83 129.91,4460.00              130.54,4449.71 125.64,4448.50 126.04,4438.00              126.04,4438.00 126.91,4427.00 126.91,4427.00              126.91,4427.00 125.70,4414.00 125.70,4414.00              125.70,4414.00 124.00,4406.00 124.00,4406.00              124.00,4406.00 124.00,4396.00 124.00,4396.00              124.00,4396.00 122.19,4378.00 122.19,4378.00              122.67,4372.20 124.20,4372.34 123.99,4363.00              123.99,4363.00 123.10,4354.00 123.10,4354.00              122.58,4346.58 122.41,4338.41 123.10,4331.00              123.66,4325.02 126.33,4323.17 125.96,4314.00              125.71,4307.92 124.30,4306.73 123.37,4302.00              123.37,4302.00 122.32,4294.00 122.32,4294.00              121.58,4290.71 120.39,4288.48 120.11,4285.00              120.11,4285.00 122.00,4265.00 122.00,4265.00              122.00,4265.00 120.57,4249.00 120.57,4249.00              120.57,4249.00 121.91,4228.00 121.91,4228.00              121.91,4228.00 119.62,4216.00 119.62,4216.00              119.62,4216.00 120.91,4208.00 120.91,4208.00              120.91,4208.00 120.91,4196.00 120.91,4196.00              120.91,4196.00 117.58,4165.00 117.58,4165.00              117.58,4165.00 117.58,4150.00 117.58,4150.00              117.58,4150.00 119.96,4131.00 119.96,4131.00              120.20,4123.48 117.70,4120.90 118.19,4115.00              118.57,4110.32 120.17,4108.37 119.96,4102.00              119.71,4094.59 116.01,4088.49 116.08,4082.00              116.14,4076.23 118.88,4074.50 119.00,4065.00              119.24,4044.63 115.15,4049.30 115.00,4037.00              115.00,4037.00 114.00,3979.00 114.00,3979.00              114.00,3979.00 114.78,3960.00 114.78,3960.00              114.78,3960.00 114.78,3948.00 114.78,3948.00              115.25,3941.60 118.22,3936.82 117.96,3929.00              117.96,3929.00 115.30,3915.00 115.30,3915.00              115.30,3915.00 114.33,3905.00 114.33,3905.00              114.33,3905.00 112.21,3895.00 112.21,3895.00              111.88,3889.71 114.44,3886.69 113.91,3879.00              113.46,3872.48 111.01,3869.45 110.43,3866.00              110.43,3866.00 110.96,3851.00 110.96,3851.00              110.65,3843.85 108.90,3842.98 109.00,3833.00              109.10,3823.88 112.40,3820.97 111.91,3813.00              111.39,3804.61 108.05,3803.33 108.00,3793.00              108.00,3793.00 108.91,3774.00 108.91,3774.00              108.91,3774.00 106.04,3750.00 106.04,3750.00              106.04,3750.00 107.30,3733.00 107.30,3733.00              107.30,3733.00 108.96,3723.00 108.96,3723.00              108.96,3723.00 107.00,3705.00 107.00,3705.00              107.00,3705.00 108.00,3677.00 108.00,3677.00              108.00,3677.00 105.29,3655.00 105.29,3655.00              104.08,3645.75 103.89,3636.33 104.00,3627.00              104.00,3627.00 105.91,3608.00 105.91,3608.00              105.91,3608.00 104.87,3600.00 104.87,3600.00              104.87,3600.00 104.87,3589.00 104.87,3589.00              104.87,3589.00 103.18,3567.00 103.18,3567.00              103.18,3567.00 103.96,3559.00 103.96,3559.00              104.38,3548.11 100.82,3549.98 101.00,3534.00              101.00,3534.00 102.91,3517.00 102.91,3517.00              102.48,3510.06 99.56,3507.26 99.11,3502.00              99.11,3502.00 100.00,3489.00 100.00,3489.00              100.00,3489.00 100.00,3467.00 100.00,3467.00              100.00,3467.00 99.37,3456.00 99.37,3456.00              99.37,3456.00 102.73,3436.00 102.73,3436.00              102.73,3436.00 102.73,3423.00 102.73,3423.00              102.73,3423.00 102.00,3405.00 102.00,3405.00              102.00,3405.00 102.00,3382.00 102.00,3382.00              101.99,3372.60 100.67,3371.63 99.43,3363.00              99.43,3363.00 98.37,3347.00 98.37,3347.00              98.20,3343.21 99.43,3340.68 99.91,3337.00              99.91,3337.00 99.91,3326.00 99.91,3326.00              99.96,3322.84 98.84,3311.87 98.07,3309.00              98.07,3309.00 95.81,3302.00 95.81,3302.00              95.81,3302.00 95.81,3289.00 95.81,3289.00              95.81,3289.00 94.30,3281.00 94.30,3281.00              93.23,3273.51 92.92,3265.56 93.00,3258.00              93.08,3251.18 94.64,3246.49 93.83,3239.00              93.83,3239.00 90.46,3224.00 90.46,3224.00              90.46,3224.00 92.91,3211.00 92.91,3211.00              92.91,3211.00 92.91,3190.00 92.91,3190.00              92.91,3190.00 90.54,3171.00 90.54,3171.00              90.54,3171.00 89.21,3164.00 89.21,3164.00              89.21,3164.00 89.96,3155.00 89.96,3155.00              89.96,3155.00 89.32,3147.00 89.32,3147.00              89.32,3147.00 90.00,3134.00 90.00,3134.00              90.00,3134.00 90.00,3130.00 90.00,3130.00              90.12,3121.41 92.97,3120.05 92.97,3112.00              92.97,3103.20 89.60,3101.03 88.90,3094.00              88.90,3094.00 88.90,3084.00 88.90,3084.00              88.90,3084.00 88.04,3076.00 88.04,3076.00              88.04,3076.00 88.04,3060.00 88.04,3060.00              88.04,3060.00 87.34,3051.00 87.34,3051.00              87.34,3047.70 88.34,3045.29 87.91,3039.00              87.91,3039.00 86.51,3017.00 86.51,3017.00              86.51,3017.00 87.17,3005.00 87.17,3005.00              87.71,3000.01 89.24,2997.88 88.91,2992.00              88.91,2992.00 87.21,2971.00 87.21,2971.00              87.21,2971.00 87.97,2961.00 87.97,2961.00              87.97,2961.00 87.04,2952.00 87.04,2952.00              87.04,2952.00 87.04,2943.00 87.04,2943.00              87.04,2943.00 86.00,2929.00 86.00,2929.00              86.00,2929.00 86.00,2910.00 86.00,2910.00              86.00,2910.00 85.21,2901.00 85.21,2901.00              85.21,2901.00 85.91,2890.00 85.91,2890.00              85.91,2890.00 83.09,2865.00 83.09,2865.00              83.09,2865.00 84.71,2854.00 84.71,2854.00              84.71,2854.00 85.91,2834.00 85.91,2834.00              85.91,2834.00 82.72,2815.00 82.72,2815.00              82.72,2815.00 82.72,2807.00 82.72,2807.00              82.72,2807.00 82.72,2800.00 82.72,2800.00              82.72,2800.00 82.72,2793.00 82.72,2793.00              82.72,2793.00 82.72,2785.00 82.72,2785.00              82.72,2785.00 82.72,2778.00 82.72,2778.00              82.72,2778.00 82.72,2766.00 82.72,2766.00              82.56,2762.83 83.11,2761.59 82.72,2758.00              82.72,2758.00 81.88,2750.00 81.88,2750.00              81.88,2750.00 81.88,2738.00 81.88,2738.00              81.88,2738.00 79.60,2723.00 79.60,2723.00              79.60,2723.00 82.96,2697.00 82.96,2697.00              82.96,2697.00 81.90,2689.00 81.90,2689.00              81.90,2689.00 81.90,2680.00 81.90,2680.00              81.90,2680.00 80.10,2668.00 80.10,2668.00              80.10,2668.00 80.91,2656.00 80.91,2656.00              80.91,2656.00 80.91,2645.00 80.91,2645.00              80.39,2640.59 78.82,2636.48 79.19,2632.00              79.19,2632.00 80.91,2622.00 80.91,2622.00              80.91,2622.00 80.91,2601.00 80.91,2601.00              80.32,2592.99 78.02,2594.40 78.00,2583.00              78.00,2583.00 79.00,2563.00 79.00,2563.00              79.00,2563.00 79.00,2542.00 79.00,2542.00              79.00,2542.00 78.00,2525.00 78.00,2525.00              78.00,2525.00 78.96,2514.00 78.96,2514.00              78.96,2514.00 77.83,2495.00 77.83,2495.00              77.29,2490.01 75.76,2487.88 76.09,2482.00              76.09,2482.00 77.00,2467.00 77.00,2467.00              77.00,2467.00 75.72,2449.00 75.72,2449.00              75.72,2449.00 76.99,2438.00 76.99,2438.00              76.99,2438.00 76.04,2425.00 76.04,2425.00              76.04,2425.00 76.96,2411.00 76.96,2411.00              76.74,2404.35 74.88,2404.24 75.00,2394.00              75.13,2383.62 79.30,2384.60 78.99,2371.00              78.77,2361.54 75.61,2359.70 74.85,2354.00              74.85,2354.00 76.00,2328.00 76.00,2328.00              76.00,2328.00 76.00,2315.00 76.00,2315.00              76.00,2315.00 75.18,2303.00 75.18,2303.00              75.46,2299.14 76.21,2297.32 75.91,2293.00              75.91,2293.00 74.26,2283.00 74.26,2283.00              74.26,2283.00 74.95,2276.00 74.95,2276.00              74.95,2276.00 74.95,2262.00 74.95,2262.00              74.95,2262.00 73.18,2246.00 73.18,2246.00              73.18,2246.00 75.37,2227.00 75.37,2227.00              76.33,2222.27 77.77,2220.77 77.96,2215.00              77.96,2215.00 75.53,2193.00 75.53,2193.00              75.53,2193.00 73.66,2185.00 73.66,2185.00              73.66,2185.00 76.00,2156.00 76.00,2156.00              76.03,2137.60 78.06,2145.08 79.85,2134.00              79.85,2134.00 79.85,2120.00 79.85,2120.00              79.98,2104.78 76.16,2106.15 74.41,2099.00              74.41,2099.00 73.83,2088.00 73.83,2088.00              73.31,2083.18 72.16,2082.12 72.01,2076.00              71.74,2064.08 75.35,2060.59 74.96,2051.00              74.70,2044.55 71.91,2038.81 73.27,2032.00              74.21,2027.32 77.34,2025.32 79.07,2019.00              79.07,2019.00 80.91,1998.00 80.91,1998.00              81.39,1989.50 77.61,1984.82 76.76,1979.00              76.18,1974.97 78.21,1968.62 75.78,1961.00              73.43,1953.66 68.62,1951.06 69.07,1942.00              69.44,1934.56 76.25,1930.49 80.47,1925.00              84.17,1920.20 88.47,1908.07 88.91,1902.00              89.59,1892.71 86.71,1884.14 80.67,1877.01              74.63,1869.88 69.08,1870.08 68.10,1859.00              67.22,1849.03 72.63,1843.54 71.91,1833.00              71.37,1825.10 67.54,1818.44 66.39,1813.00              65.11,1806.97 66.77,1800.99 66.96,1795.00              66.96,1795.00 66.19,1783.00 66.19,1783.00              67.38,1768.60 76.62,1768.24 75.96,1752.00              75.44,1739.05 67.57,1735.42 65.60,1730.00              65.60,1730.00 63.26,1714.00 63.26,1714.00              63.26,1714.00 63.96,1704.00 63.96,1704.00              63.72,1697.93 61.66,1694.29 61.43,1691.00              61.16,1687.21 63.28,1684.10 63.76,1679.00              63.76,1679.00 63.76,1667.00 63.76,1667.00              63.76,1667.00 69.91,1641.00 69.91,1641.00              70.72,1627.77 60.08,1618.44 60.00,1606.00              60.00,1606.00 60.96,1573.00 60.96,1573.00              60.96,1573.00 60.96,1566.00 60.96,1566.00              61.52,1561.61 65.97,1556.75 65.97,1547.00              65.97,1537.15 61.42,1532.43 61.91,1521.00              61.91,1521.00 60.41,1501.00 60.41,1501.00              60.82,1497.18 65.46,1488.02 64.91,1479.00              64.91,1479.00 61.53,1458.00 61.53,1458.00              60.83,1454.26 59.33,1451.93 59.77,1448.00              60.34,1442.90 62.28,1440.57 61.91,1434.00              61.91,1434.00 61.04,1424.00 61.04,1424.00              61.04,1424.00 61.96,1412.00 61.96,1412.00              61.62,1403.13 60.34,1404.05 60.91,1393.00              61.30,1385.54 59.31,1384.18 57.63,1378.00              57.63,1378.00 56.18,1360.00 56.18,1360.00              56.57,1354.92 58.22,1352.00 57.73,1346.00              57.73,1346.00 57.73,1340.00 57.73,1340.00              58.05,1335.71 61.36,1332.85 60.96,1323.00              60.96,1323.00 58.06,1305.00 58.06,1305.00              58.06,1305.00 58.06,1293.00 58.06,1293.00              58.06,1293.00 55.56,1278.00 55.56,1278.00              55.56,1278.00 55.56,1260.00 55.56,1260.00              55.56,1260.00 55.56,1243.00 55.56,1243.00              56.68,1238.62 59.70,1235.71 61.44,1231.00              63.23,1226.15 63.01,1222.03 63.00,1217.00              62.99,1209.96 62.69,1207.63 59.99,1201.00              58.97,1198.52 55.97,1193.05 55.70,1191.00              55.20,1187.18 58.35,1183.87 57.91,1176.00              57.91,1176.00 55.21,1155.00 55.21,1155.00              55.21,1155.00 57.70,1142.00 57.70,1142.00              57.70,1142.00 58.91,1116.00 58.91,1116.00              58.51,1109.50 56.15,1107.18 55.08,1102.00              54.04,1096.03 54.93,1093.66 55.08,1088.00              55.17,1073.02 56.79,1076.70 57.83,1067.00              57.83,1067.00 59.21,1045.00 59.21,1045.00              60.28,1037.90 63.16,1039.48 63.00,1025.00              62.80,1007.83 56.65,1006.55 57.02,994.00              57.27,985.03 63.21,982.41 63.91,971.00              63.91,971.00 57.84,922.00 57.84,922.00              58.29,917.18 59.46,915.99 58.83,910.00              58.83,910.00 56.48,898.00 56.48,898.00              56.38,893.72 58.89,890.69 58.91,882.00              58.91,882.00 58.91,870.00 58.91,870.00              58.91,870.00 56.98,862.00 56.98,862.00              56.98,862.00 56.98,854.00 56.98,854.00              56.83,851.02 55.96,847.89 56.98,845.00              58.74,836.59 68.45,832.85 67.96,818.00              67.61,807.46 60.13,797.95 58.65,793.00              58.65,793.00 57.70,785.00 57.70,785.00              57.70,785.00 55.61,775.00 55.61,775.00              55.61,775.00 57.00,760.00 57.00,760.00              57.00,760.00 57.00,744.00 57.00,744.00              57.09,736.55 58.24,736.54 58.91,731.00              58.91,731.00 58.91,719.00 58.91,719.00              58.98,705.62 56.23,706.09 55.11,699.00              55.11,699.00 55.11,683.00 55.11,683.00              55.11,683.00 58.91,651.00 58.91,651.00              58.91,651.00 58.34,641.00 58.34,641.00              58.34,641.00 58.96,631.00 58.96,631.00              58.81,627.19 57.49,623.71 57.84,620.00              57.84,620.00 59.08,612.00 59.08,612.00              59.08,612.00 59.08,594.00 59.08,594.00              59.78,589.92 61.58,587.34 61.91,582.00              62.28,575.89 60.26,573.23 60.84,567.00              60.84,567.00 63.54,554.00 63.54,554.00              63.54,554.00 64.17,543.00 64.17,543.00              64.67,537.95 66.24,534.44 65.91,529.00              65.91,529.00 64.17,519.00 64.17,519.00              63.09,508.97 63.21,499.04 64.17,489.00              64.17,489.00 67.70,466.00 67.70,466.00              67.70,466.00 69.27,449.00 69.27,449.00              69.27,449.00 72.78,440.00 72.78,440.00              74.19,435.58 75.09,426.71 74.99,422.00              74.82,414.86 73.12,412.98 72.75,409.00              72.75,409.00 72.75,394.00 72.75,394.00              72.39,389.91 70.78,386.21 71.12,382.00              71.49,377.43 73.92,375.14 75.44,371.00              75.44,371.00 77.63,361.00 77.63,361.00              78.70,357.38 80.60,355.20 82.10,349.00              82.10,349.00 84.34,320.00 84.34,320.00              86.26,310.39 98.84,304.20 97.91,289.00              97.46,281.79 94.53,278.86 93.25,275.00              92.83,272.54 92.97,267.69 93.25,265.00              93.25,265.00 94.63,249.00 94.63,249.00              94.63,249.00 100.53,232.00 100.53,232.00              100.53,232.00 101.10,221.00 101.10,221.00              101.10,221.00 105.02,204.00 105.02,204.00              106.02,201.97 113.69,193.25 117.60,185.00              117.60,185.00 120.40,178.00 120.40,178.00              120.40,178.00 125.45,168.00 125.45,168.00              126.94,163.84 127.07,158.68 129.70,155.18              131.37,152.96 135.63,150.10 138.00,147.91              138.00,147.91 156.47,128.99 156.47,128.99              161.92,122.07 161.76,114.86 164.92,110.18              167.29,106.67 170.53,106.22 175.24,100.00              177.09,97.55 179.88,92.49 182.32,91.02              185.42,89.17 191.76,90.74 199.00,89.11              212.15,86.15 211.96,87.85 219.00,86.53              219.00,86.53 229.00,83.53 229.00,83.53              229.00,83.53 246.00,82.08 246.00,82.08              253.50,82.17 256.92,87.27 272.00,85.83              280.06,85.06 290.23,84.10 298.00,82.08              308.17,79.43 308.39,77.02 320.00,77.00              320.00,77.00 365.00,77.00 365.00,77.00              365.00,77.00 382.00,77.96 382.00,77.96              382.00,77.96 397.00,77.96 397.00,77.96              397.00,77.96 409.00,77.00 409.00,77.00              409.00,77.00 434.00,77.00 434.00,77.00              434.00,77.00 449.00,76.00 449.00,76.00              449.00,76.00 474.00,76.00 474.00,76.00              474.00,76.00 496.00,77.96 496.00,77.96              496.00,77.96 516.00,76.02 516.00,76.02              523.86,76.23 524.04,78.89 534.00,79.00              545.48,79.11 544.62,77.10 551.00,76.21              551.00,76.21 571.00,75.21 571.00,75.21              571.00,75.21 587.00,75.21 587.00,75.21              592.18,76.13 600.42,78.19 605.00,77.91              605.00,77.91 614.00,76.29 614.00,76.29              618.97,75.53 623.98,75.01 629.00,75.00              629.00,75.00 781.00,75.00 781.00,75.00              781.00,75.00 812.00,75.00 812.00,75.00              812.00,75.00 823.00,74.34 823.00,74.34              823.00,74.34 831.00,74.97 831.00,74.97              831.00,74.97 843.00,74.09 843.00,74.09              843.00,74.09 855.00,74.99 855.00,74.99              855.00,74.99 869.00,74.00 869.00,74.00              869.00,74.00 978.00,74.00 978.00,74.00              978.00,74.00 988.00,73.05 988.00,73.05              988.00,73.05 1006.00,73.05 1006.00,73.05              1006.00,73.05 1021.00,74.00 1021.00,74.00              1021.00,74.00 1029.00,74.00 1029.00,74.00              1029.00,74.00 1044.00,72.93 1044.00,72.93              1044.00,72.93 1090.00,72.93 1090.00,72.93              1090.00,72.93 1101.00,72.93 1101.00,72.93              1101.00,72.93 1108.00,72.93 1108.00,72.93              1108.00,72.93 1119.00,72.00 1119.00,72.00              1119.00,72.00 1144.00,72.00 1144.00,72.00              1144.00,72.00 1160.00,70.78 1160.00,70.78              1168.24,71.45 1169.21,75.28 1182.00,74.99              1187.67,74.86 1188.30,73.98 1193.00,73.30              1193.00,73.30 1219.00,71.00 1219.00,71.00              1219.00,71.00 1252.00,71.00 1252.00,71.00              1252.00,71.00 1269.00,70.01 1269.00,70.01              1269.00,70.01 1287.00,72.00 1287.00,72.00              1287.00,72.00 1300.00,71.04 1300.00,71.04              1300.00,71.04 1316.00,71.04 1316.00,71.04              1316.00,71.04 1335.00,69.18 1335.00,69.18              1335.00,69.18 1346.00,70.00 1346.00,70.00              1346.00,70.00 1371.00,70.00 1371.00,70.00              1371.00,70.00 1386.00,71.00 1386.00,71.00              1386.00,71.00 1412.00,72.00 1412.00,72.00              1412.00,72.00 1433.00,72.00 1433.00,72.00              1433.00,72.00 1446.00,70.86 1446.00,70.86              1446.00,70.86 1460.00,70.86 1460.00,70.86              1460.00,70.86 1473.00,69.46 1473.00,69.46              1473.00,69.46 1480.00,69.98 1480.00,69.98              1480.00,69.98 1493.00,69.98 1493.00,69.98              1493.00,69.98 1503.00,69.18 1503.00,69.18              1503.00,69.18 1517.00,71.00 1517.00,71.00              1517.00,71.00 1532.00,70.02 1532.00,70.02              1532.00,70.02 1555.00,70.02 1555.00,70.02              1555.00,70.02 1580.00,69.00 1580.00,69.00              1587.84,69.11 1598.98,73.98 1612.00,74.00              1612.00,74.00 1627.00,74.00 1627.00,74.00              1633.80,73.92 1633.49,73.08 1639.00,72.15              1639.00,72.15 1648.00,72.15 1648.00,72.15              1659.32,71.86 1657.34,68.75 1669.00,69.01              1669.00,69.01 1678.00,69.91 1678.00,69.91              1678.00,69.91 1700.00,71.00 1700.00,71.00              1706.85,71.08 1711.44,72.64 1719.00,71.83              1725.23,71.16 1728.16,68.71 1735.00,69.09              1735.00,69.09 1748.00,70.00 1748.00,70.00              1748.00,70.00 1761.00,69.04 1761.00,69.04              1761.00,69.04 1772.00,70.91 1772.00,70.91              1772.00,70.91 1785.00,70.91 1785.00,70.91              1785.00,70.91 1804.00,69.04 1804.00,69.04              1808.10,69.22 1809.33,69.89 1813.00,70.54              1813.00,70.54 1832.00,72.96 1832.00,72.96              1841.78,73.37 1843.44,70.79 1849.00,71.34              1857.53,72.17 1865.32,76.31 1874.00,75.96              1874.00,75.96 1885.00,74.00 1885.00,74.00              1885.00,74.00 1895.00,74.00 1895.00,74.00              1895.00,74.00 1904.00,71.94 1904.00,71.94              1904.00,71.94 1914.00,71.94 1914.00,71.94              1921.60,70.62 1920.09,69.99 1929.00,70.00              1929.00,70.00 1948.00,70.83 1948.00,70.83              1948.00,70.83 1961.00,68.30 1961.00,68.30              1961.00,68.30 1984.00,67.00 1984.00,67.00              1984.00,67.00 1994.00,67.96 1994.00,67.96              1994.00,67.96 2008.00,67.96 2008.00,67.96              2017.93,68.02 2015.99,69.08 2023.00,69.92              2023.00,69.92 2037.00,69.92 2037.00,69.92              2040.70,70.05 2051.64,71.79 2055.00,72.96              2055.00,72.96 2063.00,76.07 2063.00,76.07              2063.00,76.07 2074.00,77.96 2074.00,77.96              2074.00,77.96 2085.00,82.78 2085.00,82.78              2094.21,85.69 2100.89,84.57 2104.00,85.56              2104.00,85.56 2114.00,91.05 2114.00,91.05              2119.03,93.18 2123.67,93.06 2129.00,93.00              2136.56,92.91 2142.29,91.15 2147.91,85.82              2150.90,82.98 2152.41,79.56 2156.09,77.63              2156.09,77.63 2169.00,71.88 2169.00,71.88              2169.00,71.88 2182.00,71.88 2182.00,71.88              2189.01,71.08 2187.07,70.02 2197.00,70.00              2197.00,70.00 2206.00,70.00 2206.00,70.00              2206.00,70.00 2221.00,69.00 2221.00,69.00              2221.00,69.00 2229.00,69.00 2229.00,69.00              2229.00,69.00 2248.00,70.99 2248.00,70.99              2248.00,70.99 2263.00,69.17 2263.00,69.17              2263.00,69.17 2282.00,67.91 2282.00,67.91              2282.00,67.91 2294.00,67.00 2294.00,67.00              2294.00,67.00 2312.00,66.04 2312.00,66.04              2319.21,66.33 2323.21,68.98 2335.00,69.04              2335.00,69.04 2346.00,69.04 2346.00,69.04              2346.00,69.04 2355.00,69.97 2355.00,69.97              2355.00,69.97 2368.00,68.10 2368.00,68.10              2368.00,68.10 2379.00,68.99 2379.00,68.99              2379.00,68.99 2396.00,68.01 2396.00,68.01              2396.00,68.01 2414.00,70.00 2414.00,70.00              2414.00,70.00 2427.00,70.00 2427.00,70.00              2427.00,70.00 2438.00,68.77 2438.00,68.77              2438.00,68.77 2445.00,68.77 2445.00,68.77              2445.00,68.77 2455.00,68.77 2455.00,68.77              2455.00,68.77 2467.00,70.00 2467.00,70.00              2467.00,70.00 2484.00,71.00 2484.00,71.00              2484.00,71.00 2501.00,71.00 2501.00,71.00              2510.93,70.98 2508.99,69.92 2516.00,69.08              2516.00,69.08 2524.00,69.08 2524.00,69.08              2531.45,68.91 2531.46,67.76 2537.00,67.17              2537.00,67.17 2560.00,66.04 2560.00,66.04              2560.00,66.04 2588.00,68.00 2588.00,68.00              2588.00,68.00 2601.00,67.09 2601.00,67.09              2601.00,67.09 2627.00,66.00 2627.00,66.00              2627.00,66.00 2648.00,69.00 2648.00,69.00              2656.58,69.08 2655.73,68.05 2661.00,67.81              2661.00,67.81 2672.00,67.81 2672.00,67.81              2672.00,67.81 2684.00,67.09 2684.00,67.09              2688.79,67.36 2690.12,68.21 2696.00,67.96              2696.00,67.96 2706.00,67.10 2706.00,67.10              2706.00,67.10 2723.00,68.96 2723.00,68.96              2723.00,68.96 2740.00,67.70 2740.00,67.70              2740.00,67.70 2749.00,66.10 2749.00,66.10              2749.00,66.10 2763.00,67.00 2763.00,67.00              2763.00,67.00 2793.00,67.00 2793.00,67.00              2793.00,67.00 2815.00,66.00 2815.00,66.00              2815.00,66.00 2830.00,65.01 2830.00,65.01              2830.00,65.01 2848.00,66.96 2848.00,66.96              2854.50,67.24 2856.29,66.48 2862.00,66.05              2862.00,66.05 2875.00,66.05 2875.00,66.05              2875.00,66.05 2885.00,66.96 2885.00,66.96              2885.00,66.96 2896.00,66.96 2896.00,66.96              2896.00,66.96 2914.00,68.92 2914.00,68.92              2914.00,68.92 2924.00,68.92 2924.00,68.92              2924.00,68.92 2944.00,70.91 2944.00,70.91              2944.00,70.91 2957.00,70.91 2957.00,70.91              2965.54,70.90 2973.64,68.49 2982.00,67.30              2982.00,67.30 3004.00,66.00 3004.00,66.00              3004.00,66.00 3041.00,66.00 3041.00,66.00              3041.00,66.00 3060.00,64.08 3060.00,64.08              3060.00,64.08 3080.00,66.00 3080.00,66.00              3092.46,66.14 3089.35,66.87 3099.00,67.83              3099.00,67.83 3124.00,69.00 3124.00,69.00              3124.00,69.00 3144.00,67.00 3144.00,67.00              3144.00,67.00 3167.00,67.00 3167.00,67.00              3167.00,67.00 3184.00,66.09 3184.00,66.09              3184.00,66.09 3202.00,66.09 3202.00,66.09              3207.91,66.80 3208.22,68.14 3216.00,67.98              3223.07,67.84 3225.76,65.80 3230.00,65.78              3230.00,65.78 3240.00,65.78 3240.00,65.78              3240.00,65.78 3251.00,65.00 3251.00,65.00              3251.00,65.00 3270.00,65.00 3270.00,65.00              3270.00,65.00 3284.00,65.98 3284.00,65.98              3284.00,65.98 3298.00,65.04 3298.00,65.04              3298.00,65.04 3311.00,66.00 3311.00,66.00              3311.00,66.00 3348.00,66.00 3348.00,66.00              3348.00,66.00 3361.00,65.09 3361.00,65.09              3361.00,65.09 3374.00,67.70 3374.00,67.70              3374.00,67.70 3387.00,68.53 3387.00,68.53              3387.00,68.53 3395.00,71.46 3395.00,71.46              3400.17,73.23 3410.42,74.06 3416.00,74.00              3416.00,74.00 3443.00,69.76 3443.00,69.76              3443.00,69.76 3459.00,69.76 3459.00,69.76              3459.00,69.76 3467.00,69.76 3467.00,69.76              3467.00,69.76 3477.00,69.76 3477.00,69.76              3484.32,69.82 3484.59,68.41 3490.00,67.37              3490.00,67.37 3505.00,66.04 3505.00,66.04              3505.00,66.04 3532.00,67.85 3532.00,67.85              3532.00,67.85 3545.00,67.85 3545.00,67.85              3545.00,67.85 3553.00,66.00 3553.00,66.00              3553.00,66.00 3563.00,66.00 3563.00,66.00              3563.00,66.00 3572.00,65.01 3572.00,65.01              3572.00,65.01 3582.00,65.91 3582.00,65.91              3582.00,65.91 3602.00,67.00 3602.00,67.00              3602.00,67.00 3617.00,67.92 3617.00,67.92              3617.00,67.92 3632.00,67.92 3632.00,67.92              3632.00,67.92 3647.00,66.18 3647.00,66.18              3651.31,66.20 3653.65,67.96 3662.00,68.00              3662.00,68.00 3679.00,66.73 3679.00,66.73              3679.00,66.73 3694.00,68.00 3694.00,68.00              3694.00,68.00 3707.00,66.38 3707.00,66.38              3707.00,66.38 3717.00,67.10 3717.00,67.10              3717.00,67.10 3727.00,67.10 3727.00,67.10              3734.37,68.32 3734.38,71.98 3749.00,72.00              3749.00,72.00 3765.00,71.10 3765.00,71.10              3765.00,71.10 3778.00,73.85 3778.00,73.85              3778.00,73.85 3796.00,73.85 3796.00,73.85              3806.40,73.87 3813.54,68.82 3822.00,68.72              3842.48,68.50 3844.28,74.47 3857.00,73.96              3864.62,73.65 3867.41,71.01 3879.00,71.00              3879.00,71.00 3900.00,72.96 3900.00,72.96              3908.34,72.62 3913.02,68.93 3919.00,68.61              3919.00,68.61 3929.00,69.96 3929.00,69.96              3929.00,69.96 3941.00,69.96 3941.00,69.96              3941.00,69.96 3956.00,69.18 3956.00,69.18              3962.91,69.83 3985.50,76.83 3992.00,79.75              3992.00,79.75 3999.00,83.60 3999.00,83.60              3999.00,83.60 4006.00,86.40 4006.00,86.40              4010.38,88.47 4020.34,95.31 4023.79,98.62              4023.79,98.62 4032.09,108.99 4032.09,108.99              4034.27,111.30 4038.30,114.30 4039.40,117.09              4040.69,120.35 4038.91,125.47 4042.91,133.00              4042.91,133.00 4055.35,155.00 4055.35,155.00              4056.88,160.02 4056.99,172.42 4057.00,178.00              4057.02,189.53 4058.20,205.72 4065.53,214.99              4073.02,224.46 4086.86,227.77 4098.00,223.05              4101.89,221.40 4104.80,218.91 4108.00,216.25              4111.94,212.96 4114.84,210.50 4117.52,206.00              4121.22,199.79 4122.98,190.05 4121.07,183.00              4119.38,176.74 4116.12,173.40 4114.84,170.00              4113.73,167.05 4113.96,162.22 4114.00,159.00              4114.16,147.12 4120.19,145.06 4124.05,136.00              4127.38,128.15 4126.31,122.75 4132.35,114.21              4134.93,110.54 4144.28,105.97 4149.00,102.08              4149.00,102.08 4161.18,89.72 4161.18,89.72              4163.49,88.03 4167.21,87.36 4170.00,86.10              4170.00,86.10 4179.00,81.50 4179.00,81.50              4181.62,80.72 4183.96,81.17 4189.00,79.46              4195.62,77.20 4206.12,72.61 4213.00,73.19              4213.00,73.19 4226.00,76.53 4226.00,76.53              4226.00,76.53 4242.00,78.26 4242.00,78.26              4242.00,78.26 4254.00,81.53 4254.00,81.53              4254.00,81.53 4265.00,82.17 4265.00,82.17              4272.01,82.92 4270.07,83.98 4280.00,84.00              4280.00,84.00 4285.00,84.00 4285.00,84.00              4298.42,83.84 4302.49,77.62 4308.00,75.92              4310.77,75.08 4314.62,76.12 4318.00,75.92              4322.17,75.65 4325.81,73.93 4330.00,74.34              4335.64,74.89 4334.93,76.18 4344.00,75.84              4344.00,75.84 4352.00,75.84 4352.00,75.84              4357.99,76.47 4368.31,82.27 4381.00,81.99              4388.46,81.82 4393.67,79.48 4398.00,79.21              4398.00,79.21 4413.00,81.00 4413.00,81.00              4418.60,81.06 4422.56,81.25 4428.00,79.48              4435.46,77.06 4442.32,72.05 4450.00,70.39              4450.00,70.39 4456.00,69.70 4456.00,69.70              4456.00,69.70 4464.00,68.17 4464.00,68.17              4464.00,68.17 4489.00,69.00 4489.00,69.00              4489.00,69.00 4521.00,66.18 4521.00,66.18              4524.97,66.46 4526.37,67.14 4531.00,66.96              4536.63,66.74 4539.36,65.46 4546.00,66.17              4546.00,66.17 4563.00,68.96 4563.00,68.96              4563.00,68.96 4590.00,67.00 4590.00,67.00              4590.00,67.00 4629.00,68.00 4629.00,68.00              4636.70,67.99 4643.17,66.35 4651.00,67.28              4651.00,67.28 4669.00,70.70 4669.00,70.70              4669.00,70.70 4684.00,72.25 4684.00,72.25              4690.20,73.33 4694.60,74.92 4701.00,75.00              4708.35,75.08 4716.49,74.01 4722.99,78.14              4726.88,80.62 4730.49,85.58 4734.00,88.96              4740.94,95.64 4746.36,98.18 4756.00,97.98              4773.10,97.64 4774.93,87.02 4786.00,78.27              4787.13,77.37 4787.72,76.96 4789.00,76.27              4789.00,76.27 4797.00,73.10 4797.00,73.10              4797.00,73.10 4806.00,68.21 4806.00,68.21              4815.98,63.93 4831.11,64.98 4842.00,65.00              4842.00,65.00 4859.00,65.99 4859.00,65.99              4859.00,65.99 4891.00,64.21 4891.00,64.21              4891.00,64.21 4904.00,66.71 4904.00,66.71              4904.00,66.71 4928.00,68.09 4928.00,68.09              4928.00,68.09 4938.00,68.09 4938.00,68.09              4947.47,69.32 4956.30,73.88 4966.00,74.00              4979.99,74.16 4975.82,73.16 4987.00,71.32              4987.00,71.32 4997.00,70.32 4997.00,70.32              4997.00,70.32 5015.00,65.22 5015.00,65.22              5028.53,63.30 5029.64,64.87 5041.00,65.22              5041.00,65.22 5057.00,63.96 5057.00,63.96              5057.00,63.96 5069.00,63.96 5069.00,63.96              5069.00,63.96 5081.00,63.00 5081.00,63.00              5081.00,63.00 5103.00,63.00 5103.00,63.00              5103.00,63.00 5115.00,63.96 5115.00,63.96              5115.00,63.96 5126.00,63.96 5126.00,63.96              5126.00,63.96 5147.00,65.92 5147.00,65.92              5147.00,65.92 5160.00,65.92 5160.00,65.92              5160.00,65.92 5173.00,67.00 5173.00,67.00              5175.58,67.03 5179.65,66.78 5182.00,67.58              5185.44,68.76 5190.20,73.70 5198.00,76.45              5203.69,78.46 5210.03,78.07 5216.00,78.00              5216.00,78.00 5237.00,75.29 5237.00,75.29              5242.19,74.61 5244.36,75.46 5250.00,73.45              5256.34,71.20 5264.41,64.40 5271.00,63.48              5275.33,62.87 5278.47,65.61 5288.00,64.91              5288.00,64.91 5298.00,62.72 5298.00,62.72              5298.00,62.72 5309.00,62.72 5309.00,62.72              5309.00,62.72 5320.00,60.47 5320.00,60.47              5320.00,60.47 5335.00,61.96 5335.00,61.96              5335.00,61.96 5349.00,61.96 5349.00,61.96              5359.99,62.15 5360.18,67.48 5373.00,66.96              5385.32,66.46 5384.15,60.73 5397.00,61.01              5400.29,61.09 5411.01,62.39 5414.00,63.33              5421.88,65.78 5420.46,68.98 5435.00,68.77              5439.09,69.01 5445.14,69.22 5449.00,68.77              5455.48,67.39 5460.04,65.17 5467.00,65.01              5470.68,64.93 5479.80,65.58 5483.00,66.93              5487.77,68.95 5491.50,74.47 5504.00,73.96              5513.13,73.59 5516.13,69.78 5520.00,68.77              5522.25,68.21 5527.20,68.96 5530.00,68.77              5533.75,69.04 5540.53,69.18 5544.00,68.77              5550.18,67.38 5550.47,65.75 5558.00,66.04              5558.00,66.04 5569.00,67.00 5569.00,67.00              5569.00,67.00 5590.00,67.00 5590.00,67.00              5603.12,66.98 5602.24,64.13 5611.00,63.00              5611.00,63.00 5640.00,63.00 5640.00,63.00              5640.00,63.00 5649.00,63.00 5649.00,63.00              5649.00,63.00 5675.00,66.00 5675.00,66.00              5675.00,66.00 5700.00,63.34 5700.00,63.34              5704.64,63.39 5707.14,65.55 5716.00,64.91              5720.46,64.59 5725.77,62.51 5730.00,62.82              5734.15,63.11 5736.69,65.77 5743.00,66.84              5743.00,66.84 5774.00,66.84 5774.00,66.84              5784.35,66.75 5792.59,62.02 5805.00,62.00              5805.00,62.00 5824.00,62.00 5824.00,62.00              5824.00,62.00 5843.00,60.01 5843.00,60.01              5843.00,60.01 5868.00,63.00 5868.00,63.00              5868.00,63.00 5887.00,62.04 5887.00,62.04              5896.27,62.40 5901.95,66.18 5918.00,66.00              5918.00,66.00 5928.00,65.18 5928.00,65.18              5928.00,65.18 5941.00,66.00 5941.00,66.00              5956.84,65.98 5950.57,61.70 5968.00,64.00 Z            M 4088.00,1264.43            C 4085.71,1265.03 4084.33,1265.24 4082.74,1267.28              4079.18,1271.83 4077.43,1292.06 4091.00,1290.75              4102.53,1289.63 4102.72,1264.71 4088.00,1264.43 Z            M 4087.00,1605.65            C 4084.56,1605.99 4083.28,1606.10 4081.21,1607.70              4077.49,1610.58 4073.28,1621.29 4073.36,1626.00              4073.40,1628.69 4074.60,1631.53 4075.60,1634.00              4077.90,1639.61 4080.26,1643.67 4087.00,1643.86              4089.81,1643.95 4092.59,1643.13 4094.79,1641.35              4098.51,1638.34 4106.35,1626.04 4105.62,1621.00              4104.56,1613.60 4093.89,1606.59 4087.00,1605.65 Z            M 4083.05,1887.60            C 4076.80,1891.34 4078.43,1895.77 4077.83,1902.00              4077.07,1909.97 4077.38,1918.13 4079.24,1926.00              4079.24,1926.00 4082.69,1937.00 4082.69,1937.00              4082.69,1937.00 4082.69,1944.00 4082.69,1944.00              4083.10,1947.26 4084.64,1949.78 4088.02,1950.53              4098.50,1952.84 4098.46,1933.28 4099.17,1931.00              4100.77,1925.92 4105.92,1923.67 4107.47,1917.00              4109.25,1909.29 4101.94,1883.54 4083.05,1887.60 Z            M 4089.10,2067.60            C 4079.10,2073.78 4082.66,2089.32 4082.66,2099.00              4082.66,2102.80 4081.33,2105.87 4082.66,2109.98              4084.56,2115.91 4090.65,2117.23 4095.98,2114.99              4101.14,2112.83 4101.13,2109.31 4103.40,2105.00              4105.60,2100.82 4110.02,2096.56 4110.57,2092.00              4111.33,2085.62 4103.20,2064.83 4089.10,2067.60 Z"
            style="fill:#000000;fill-opacity:1"/>
</svg>
