<?xml version="1.0" encoding="UTF-8" standalone="no"?>
<svg
        width="172.085mm"
        height="91.8424mm"
        viewBox="0 0 8130 4339"
        version="1.1"
        id="svg916"
        sodipodi:docname="sheet10b.svg"
        inkscape:version="1.1.1 (3bf5ae0d25, 2021-09-20)"
        xmlns:inkscape="http://www.inkscape.org/namespaces/inkscape"
        xmlns:sodipodi="http://sodipodi.sourceforge.net/DTD/sodipodi-0.dtd"
        xmlns="http://www.w3.org/2000/svg"
>
    <defs
            id="defs920"/>
    <sodipodi:namedview
            id="namedview918"
            pagecolor="#ffffff"
            bordercolor="#666666"
            borderopacity="1.0"
            inkscape:pageshadow="2"
            inkscape:pageopacity="0.0"
            inkscape:pagecheckerboard="0"
            inkscape:document-units="mm"
            showgrid="false"
            inkscape:zoom="1.6266912"
            inkscape:cx="324.89264"
            inkscape:cy="173.66541"
            inkscape:window-width="1920"
            inkscape:window-height="1001"
            inkscape:window-x="-7"
            inkscape:window-y="-7"
            inkscape:window-maximized="1"
            inkscape:current-layer="svg916"/>
    <path
            id="Selection #1"
            fill="none"
            stroke="black"
            stroke-width="1"
            d="M 283.00,4280.00            C 283.35,4272.33 284.80,4264.73 283.70,4257.00              283.70,4257.00 278.67,4233.00 278.67,4233.00              278.56,4228.69 281.43,4226.03 281.91,4219.00              282.51,4210.33 279.00,4207.11 279.47,4201.00              279.47,4201.00 281.00,4184.00 281.00,4184.00              281.00,4184.00 281.00,4172.00 281.00,4172.00              281.00,4172.00 290.65,4155.00 290.65,4155.00              293.43,4148.74 292.66,4146.23 293.08,4140.00              293.55,4133.35 294.98,4128.96 293.08,4122.00              290.60,4112.97 284.63,4110.25 282.47,4104.00              282.47,4104.00 278.33,4089.00 278.33,4089.00              277.06,4081.79 278.66,4079.35 273.89,4072.00              273.89,4072.00 259.92,4052.00 259.92,4052.00              258.03,4048.56 258.42,4045.88 255.52,4041.00              249.39,4030.69 246.02,4033.43 245.91,4018.00              245.91,4018.00 245.91,4007.00 245.91,4007.00              245.24,4001.46 244.09,4001.45 244.00,3994.00              244.00,3994.00 244.00,3974.00 244.00,3974.00              243.99,3965.35 242.99,3959.70 236.82,3953.09              236.82,3953.09 231.38,3947.83 231.38,3947.83              231.38,3947.83 225.67,3940.00 225.67,3940.00              222.89,3936.65 219.09,3934.06 217.34,3929.96              217.34,3929.96 215.46,3924.00 215.46,3924.00              212.87,3916.60 211.71,3916.61 212.02,3908.00              212.25,3901.48 214.47,3900.58 216.45,3895.00              217.61,3891.73 218.82,3882.58 218.96,3879.00              219.57,3863.24 210.39,3859.29 205.97,3850.00              205.97,3850.00 202.60,3839.00 202.60,3839.00              201.29,3836.27 198.27,3832.65 197.93,3830.00              197.57,3827.20 199.57,3824.43 199.91,3819.00              200.56,3808.48 194.92,3804.52 195.05,3800.00              195.05,3800.00 197.87,3790.00 197.87,3790.00              199.77,3782.54 202.99,3766.22 201.32,3759.00              198.94,3748.70 193.85,3747.27 188.30,3740.83              188.30,3740.83 177.20,3722.00 177.20,3722.00              174.21,3716.28 175.54,3715.42 174.07,3710.00              174.07,3710.00 169.60,3699.00 169.60,3699.00              167.93,3693.94 168.64,3692.47 165.53,3687.00              162.02,3680.80 158.05,3674.08 152.00,3670.11              145.93,3666.12 142.34,3667.16 140.13,3664.47              140.13,3664.47 136.56,3657.00 136.56,3657.00              136.56,3657.00 128.81,3645.00 128.81,3645.00              128.81,3645.00 125.60,3637.00 125.60,3637.00              124.03,3633.72 120.38,3629.31 120.02,3626.00              119.63,3622.48 122.35,3619.13 121.91,3612.00              121.47,3604.89 119.04,3603.05 117.46,3598.00              117.46,3598.00 113.46,3582.00 113.46,3582.00              113.46,3582.00 104.91,3561.00 104.91,3561.00              100.97,3547.62 102.76,3543.51 101.08,3537.00              101.08,3537.00 93.63,3515.00 93.63,3515.00              93.63,3515.00 92.70,3505.00 92.70,3505.00              92.27,3501.87 91.52,3500.37 91.84,3497.00              91.84,3497.00 92.93,3488.00 92.93,3488.00              92.93,3488.00 92.93,3478.00 92.93,3478.00              92.93,3478.00 94.91,3468.00 94.91,3468.00              95.56,3457.42 89.92,3451.04 86.21,3442.00              86.21,3442.00 83.44,3430.00 83.44,3430.00              82.13,3426.46 79.25,3423.08 79.10,3420.00              79.10,3420.00 80.91,3410.00 80.91,3410.00              81.30,3403.61 77.87,3392.43 74.53,3387.00              72.37,3383.48 68.91,3380.22 67.51,3377.00              67.51,3377.00 64.60,3368.00 64.60,3368.00              62.86,3364.35 59.05,3359.66 58.14,3356.00              57.10,3351.84 59.30,3349.37 58.91,3343.00              58.41,3334.99 55.86,3336.58 56.00,3324.00              56.00,3324.00 56.91,3310.00 56.91,3310.00              56.91,3310.00 54.84,3287.00 54.84,3287.00              55.20,3283.08 56.20,3281.80 55.91,3277.00              55.55,3271.22 52.71,3265.81 53.19,3260.00              53.19,3260.00 55.84,3244.00 55.84,3244.00              58.05,3238.10 62.30,3236.77 61.99,3223.00              61.81,3215.35 59.60,3213.17 59.50,3209.00              59.06,3205.71 60.61,3202.19 59.50,3196.00              58.81,3189.92 57.02,3189.50 57.01,3182.00              57.01,3182.00 58.83,3166.00 58.83,3166.00              58.83,3166.00 58.83,3157.00 58.83,3157.00              58.83,3157.00 58.83,3143.00 58.83,3143.00              58.83,3143.00 58.22,3129.00 58.22,3129.00              59.33,3119.45 65.51,3109.77 64.91,3100.00              64.70,3096.59 62.37,3087.16 61.05,3084.00              59.39,3080.05 57.59,3078.60 57.11,3074.00              57.11,3074.00 59.91,3042.00 59.91,3042.00              59.91,3042.00 58.89,3035.00 58.89,3035.00              58.89,3035.00 58.89,3025.00 58.89,3025.00              58.89,3025.00 56.21,3013.00 56.21,3013.00              56.21,3013.00 57.96,3000.00 57.96,3000.00              57.96,3000.00 57.96,2992.00 57.96,2992.00              58.79,2983.82 64.59,2981.06 63.91,2970.00              63.91,2970.00 61.46,2958.00 61.46,2958.00              61.46,2958.00 60.20,2948.00 60.20,2948.00              60.20,2948.00 57.37,2937.00 57.37,2937.00              57.37,2937.00 56.19,2919.00 56.19,2919.00              56.19,2919.00 56.19,2906.00 56.19,2906.00              57.62,2899.51 59.27,2899.07 58.96,2891.00              58.96,2891.00 56.63,2872.00 56.63,2872.00              56.63,2872.00 59.91,2842.00 59.91,2842.00              59.91,2842.00 56.00,2805.00 56.00,2805.00              56.00,2805.00 55.04,2790.00 55.04,2790.00              55.04,2790.00 57.83,2777.00 57.83,2777.00              58.57,2770.20 57.00,2766.30 57.32,2762.00              57.32,2762.00 57.95,2755.00 57.95,2755.00              57.95,2755.00 57.34,2748.00 57.34,2748.00              57.39,2743.58 59.20,2742.36 58.99,2733.00              58.99,2733.00 58.34,2725.00 58.34,2725.00              58.34,2725.00 58.91,2715.00 58.91,2715.00              58.91,2715.00 57.51,2692.00 57.51,2692.00              58.06,2683.31 57.51,2679.52 56.91,2671.00              56.91,2671.00 56.18,2664.00 56.18,2664.00              56.18,2664.00 57.97,2649.00 57.97,2649.00              57.97,2649.00 57.09,2640.00 57.09,2640.00              57.09,2640.00 55.92,2613.00 55.92,2613.00              55.92,2613.00 55.92,2603.00 55.92,2603.00              55.92,2603.00 57.99,2581.00 57.99,2581.00              57.99,2581.00 57.01,2571.00 57.01,2571.00              57.01,2571.00 57.01,2548.00 57.01,2548.00              57.01,2548.00 56.47,2540.00 56.47,2540.00              56.47,2540.00 58.04,2531.00 58.04,2531.00              58.04,2531.00 58.04,2518.00 58.04,2518.00              58.04,2518.00 59.96,2507.00 59.96,2507.00              60.20,2499.76 57.39,2495.75 57.74,2486.00              57.74,2486.00 58.96,2464.00 58.96,2464.00              58.96,2464.00 57.34,2446.00 57.34,2446.00              57.34,2446.00 60.00,2419.00 60.00,2419.00              60.00,2419.00 59.00,2404.00 59.00,2404.00              59.00,2404.00 59.00,2370.00 59.00,2370.00              59.00,2370.00 60.00,2354.00 60.00,2354.00              60.00,2354.00 58.34,2339.00 58.34,2339.00              58.34,2339.00 59.91,2318.00 59.91,2318.00              59.91,2318.00 59.00,2306.00 59.00,2306.00              59.00,2306.00 59.00,2264.00 59.00,2264.00              59.00,2264.00 59.00,2254.00 59.00,2254.00              59.00,2254.00 58.47,2245.00 58.47,2245.00              58.68,2240.58 59.99,2240.58 60.00,2231.00              60.00,2231.00 60.00,2212.00 60.00,2212.00              60.00,2212.00 59.09,2198.00 59.09,2198.00              59.09,2198.00 60.00,2186.00 60.00,2186.00              60.00,2186.00 60.00,2156.00 60.00,2156.00              60.00,2156.00 60.97,2142.00 60.97,2142.00              60.97,2142.00 60.04,2128.00 60.04,2128.00              60.04,2128.00 60.04,2117.00 60.04,2117.00              60.04,2117.00 60.96,2109.00 60.96,2109.00              60.96,2109.00 60.96,2095.00 60.96,2095.00              60.96,2095.00 60.39,2084.00 60.39,2084.00              60.39,2084.00 61.91,2076.00 61.91,2076.00              61.91,2076.00 61.91,2065.00 61.91,2065.00              61.91,2065.00 60.09,2041.00 60.09,2041.00              60.09,2041.00 63.91,2021.00 63.91,2021.00              64.22,2015.85 62.95,2013.64 62.87,2010.00              62.87,2010.00 62.87,1993.00 62.87,1993.00              62.87,1993.00 61.96,1979.00 61.96,1979.00              61.96,1979.00 61.96,1954.00 61.96,1954.00              61.96,1954.00 61.21,1943.00 61.21,1943.00              61.21,1943.00 62.88,1927.00 62.88,1927.00              62.88,1927.00 62.88,1917.00 62.88,1917.00              62.88,1917.00 62.88,1898.00 62.88,1898.00              62.88,1898.00 62.34,1889.00 62.34,1889.00              62.34,1889.00 64.00,1872.00 64.00,1872.00              63.92,1864.78 62.42,1863.00 62.26,1859.00              62.26,1859.00 63.00,1848.00 63.00,1848.00              63.00,1848.00 63.00,1824.00 63.00,1824.00              63.00,1824.00 63.91,1809.00 63.91,1809.00              63.91,1809.00 63.00,1797.00 63.00,1797.00              63.00,1797.00 64.00,1776.00 64.00,1776.00              64.00,1776.00 64.00,1750.00 64.00,1750.00              64.00,1750.00 64.91,1735.00 64.91,1735.00              64.91,1735.00 64.04,1724.00 64.04,1724.00              64.04,1724.00 64.96,1712.00 64.96,1712.00              64.96,1712.00 63.00,1683.00 63.00,1683.00              63.00,1683.00 63.85,1672.00 63.85,1672.00              63.85,1672.00 63.85,1657.00 63.85,1657.00              63.85,1657.00 65.00,1641.00 65.00,1641.00              65.00,1641.00 63.09,1622.00 63.09,1622.00              63.09,1622.00 63.09,1610.00 63.09,1610.00              63.09,1610.00 64.91,1593.00 64.91,1593.00              64.91,1593.00 64.00,1573.00 64.00,1573.00              64.00,1573.00 65.00,1556.00 65.00,1556.00              65.00,1556.00 65.00,1514.00 65.00,1514.00              65.00,1514.00 65.96,1501.00 65.96,1501.00              65.96,1501.00 64.59,1485.00 64.59,1485.00              64.59,1485.00 68.00,1459.00 68.00,1459.00              68.00,1459.00 67.00,1431.00 67.00,1431.00              67.00,1431.00 66.00,1418.00 66.00,1418.00              66.00,1418.00 66.00,1399.00 66.00,1399.00              66.00,1399.00 67.00,1384.00 67.00,1384.00              67.00,1384.00 67.00,1369.00 67.00,1369.00              67.00,1369.00 66.00,1350.00 66.00,1350.00              66.02,1338.29 68.82,1335.20 68.98,1327.00              69.16,1318.42 67.09,1316.66 67.08,1311.00              67.08,1311.00 67.96,1302.00 67.96,1302.00              67.96,1302.00 67.01,1287.00 67.01,1287.00              67.01,1287.00 67.91,1273.00 67.91,1273.00              67.91,1273.00 67.91,1254.00 67.91,1254.00              67.91,1254.00 67.91,1246.00 67.91,1246.00              67.91,1246.00 68.96,1237.00 68.96,1237.00              68.96,1237.00 68.34,1226.00 68.34,1226.00              68.34,1226.00 68.91,1217.00 68.91,1217.00              68.91,1217.00 68.08,1209.00 68.08,1209.00              68.08,1209.00 69.00,1192.00 69.00,1192.00              69.00,1192.00 68.09,1179.00 68.09,1179.00              68.09,1179.00 68.97,1169.00 68.97,1169.00              68.97,1169.00 68.97,1153.00 68.97,1153.00              68.97,1153.00 68.97,1131.00 68.97,1131.00              68.97,1131.00 68.14,1118.00 68.14,1118.00              68.14,1118.00 70.91,1105.00 70.91,1105.00              70.91,1105.00 69.04,1086.00 69.04,1086.00              69.04,1086.00 69.91,1072.00 69.91,1072.00              69.71,1068.53 68.91,1066.80 69.18,1063.00              69.47,1059.01 70.13,1057.67 69.98,1053.00              69.98,1053.00 69.98,1017.00 69.98,1017.00              69.98,1017.00 70.99,1005.00 70.99,1005.00              70.99,1005.00 70.00,985.00 70.00,985.00              70.00,985.00 71.00,972.00 71.00,972.00              71.00,972.00 71.00,947.00 71.00,947.00              71.00,947.00 70.01,931.00 70.01,931.00              70.01,931.00 71.00,919.00 71.00,919.00              71.00,919.00 70.37,905.00 70.37,905.00              70.37,905.00 71.97,887.00 71.97,887.00              71.97,887.00 71.00,873.00 71.00,873.00              71.00,873.00 71.00,859.00 71.00,859.00              71.00,859.00 70.00,844.00 70.00,844.00              70.00,844.00 70.00,824.00 70.00,824.00              70.00,824.00 70.97,811.00 70.97,811.00              70.97,811.00 70.05,802.00 70.05,802.00              70.05,802.00 70.05,787.00 70.05,787.00              70.05,787.00 71.04,772.00 71.04,772.00              71.04,772.00 71.04,760.00 71.04,760.00              71.04,760.00 71.84,752.00 71.84,752.00              71.84,752.00 71.84,740.00 71.84,740.00              71.84,740.00 71.84,728.00 71.84,728.00              71.84,728.00 71.08,717.00 71.08,717.00              71.08,717.00 71.91,705.00 71.91,705.00              71.91,705.00 70.47,691.00 70.47,691.00              70.47,691.00 72.91,675.00 72.91,675.00              72.91,675.00 72.18,663.00 72.18,663.00              72.18,663.00 73.00,639.00 73.00,639.00              73.00,639.00 73.85,626.00 73.85,626.00              73.85,626.00 73.85,618.00 73.85,618.00              73.85,618.00 74.97,608.00 74.97,608.00              74.97,608.00 73.09,592.00 73.09,592.00              73.09,592.00 73.09,580.00 73.09,580.00              73.09,580.00 73.97,568.00 73.97,568.00              73.97,568.00 73.32,558.00 73.32,558.00              73.32,558.00 74.00,527.00 74.00,527.00              74.00,527.00 74.00,471.00 74.00,471.00              74.00,471.00 75.00,456.00 75.00,456.00              75.00,456.00 75.00,440.00 75.00,440.00              75.00,440.00 74.09,427.00 74.09,427.00              74.09,427.00 75.00,415.00 75.00,415.00              75.00,415.00 74.00,399.00 74.00,399.00              74.00,399.00 74.00,381.00 74.00,381.00              74.00,381.00 75.91,361.00 75.91,361.00              75.91,361.00 75.00,344.00 75.00,344.00              75.00,344.00 76.00,327.00 76.00,327.00              76.00,327.00 77.96,300.00 77.96,300.00              77.65,292.88 74.65,288.16 75.09,281.00              75.09,281.00 76.91,270.00 76.91,270.00              76.91,270.00 76.04,259.00 76.04,259.00              75.76,251.72 77.22,250.70 77.91,245.00              77.91,245.00 77.91,234.00 77.91,234.00              77.91,234.00 76.51,205.00 76.51,205.00              76.51,205.00 77.99,191.00 77.99,191.00              78.11,185.76 79.25,170.40 81.72,166.28              83.48,163.34 86.11,163.30 89.00,162.05              89.00,162.05 98.00,157.51 98.00,157.51              101.38,156.54 104.54,157.57 110.00,156.07              110.00,156.07 119.00,152.41 119.00,152.41              119.00,152.41 133.00,148.45 133.00,148.45              133.00,148.45 140.00,145.24 140.00,145.24              143.52,144.17 146.50,145.57 152.00,144.53              157.97,143.41 159.93,141.06 164.00,139.99              170.94,138.93 178.99,139.99 186.00,139.99              186.00,139.99 199.00,139.99 199.00,139.99              202.46,139.19 205.73,137.59 209.00,137.64              209.00,137.64 222.00,139.91 222.00,139.91              222.00,139.91 249.00,135.63 249.00,135.63              253.63,135.32 256.16,137.57 264.00,136.83              264.00,136.83 275.00,135.32 275.00,135.32              282.35,133.63 285.49,131.13 295.00,131.18              299.99,131.20 309.77,134.74 315.00,136.12              323.83,138.45 332.87,139.67 342.00,139.96              354.93,140.37 360.11,134.14 370.00,134.00              384.21,133.81 382.84,135.82 391.00,135.98              398.98,136.14 399.63,134.63 405.00,134.19              405.00,134.19 419.00,135.00 419.00,135.00              419.00,135.00 438.00,135.00 438.00,135.00              438.00,135.00 466.00,138.00 466.00,138.00              466.00,138.00 491.00,138.00 491.00,138.00              491.00,138.00 512.00,139.98 512.00,139.98              512.00,139.98 530.00,139.00 530.00,139.00              530.00,139.00 549.00,136.03 549.00,136.03              549.00,136.03 567.00,136.03 567.00,136.03              567.00,136.03 581.00,133.63 581.00,133.63              584.33,133.41 587.61,134.66 591.00,134.96              591.00,134.96 609.00,134.96 609.00,134.96              609.00,134.96 622.00,136.00 622.00,136.00              622.00,136.00 639.00,136.00 639.00,136.00              639.00,136.00 675.00,138.00 675.00,138.00              675.00,138.00 689.00,137.09 689.00,137.09              695.84,137.53 695.79,138.98 706.00,139.00              706.00,139.00 726.00,138.21 726.00,138.21              726.00,138.21 736.00,139.91 736.00,139.91              736.00,139.91 752.00,139.00 752.00,139.00              752.00,139.00 777.00,141.30 777.00,141.30              782.52,142.09 782.24,142.92 789.00,143.00              797.31,143.09 805.98,144.35 814.00,146.63              814.00,146.63 823.00,149.53 823.00,149.53              823.00,149.53 843.00,151.08 843.00,151.08              843.00,151.08 853.00,151.08 853.00,151.08              859.17,151.83 859.64,153.33 868.00,152.96              874.12,152.70 880.99,149.87 887.00,150.17              887.00,150.17 908.00,150.17 908.00,150.17              908.00,150.17 926.00,151.00 926.00,151.00              926.00,151.00 946.00,153.00 946.00,153.00              946.00,153.00 971.00,153.00 971.00,153.00              971.00,153.00 985.00,152.18 985.00,152.18              985.00,152.18 998.00,153.92 998.00,153.92              998.00,153.92 1012.00,153.92 1012.00,153.92              1025.60,154.02 1030.32,158.54 1040.00,158.96              1049.10,159.36 1051.14,157.27 1055.00,156.89              1055.00,156.89 1067.00,157.96 1067.00,157.96              1067.00,157.96 1081.00,156.04 1081.00,156.04              1081.00,156.04 1096.00,157.00 1096.00,157.00              1096.00,157.00 1127.00,157.00 1127.00,157.00              1127.00,157.00 1164.00,160.13 1164.00,160.13              1171.06,161.20 1175.38,163.26 1183.00,162.96              1183.00,162.96 1197.00,162.00 1197.00,162.00              1197.00,162.00 1213.00,162.96 1213.00,162.96              1216.72,162.82 1225.55,161.63 1229.00,160.46              1229.00,160.46 1235.00,158.39 1235.00,158.39              1235.00,158.39 1256.00,156.84 1256.00,156.84              1256.00,156.84 1265.00,156.84 1265.00,156.84              1265.00,156.84 1273.00,158.54 1273.00,158.54              1273.00,158.54 1292.00,160.96 1292.00,160.96              1292.00,160.96 1320.00,158.51 1320.00,158.51              1320.00,158.51 1344.00,161.00 1344.00,161.00              1344.00,161.00 1363.00,160.00 1363.00,160.00              1363.00,160.00 1375.00,160.96 1375.00,160.96              1375.00,160.96 1390.00,160.96 1390.00,160.96              1390.00,160.96 1411.00,162.30 1411.00,162.30              1411.00,162.30 1418.00,163.70 1418.00,163.70              1418.00,163.70 1428.00,164.39 1428.00,164.39              1428.00,164.39 1435.00,166.78 1435.00,166.78              1442.69,169.23 1448.89,170.99 1457.00,171.00              1457.00,171.00 1472.00,171.00 1472.00,171.00              1472.00,171.00 1489.00,170.00 1489.00,170.00              1489.00,170.00 1502.00,169.01 1502.00,169.01              1502.00,169.01 1517.00,170.04 1517.00,170.04              1517.00,170.04 1532.00,170.04 1532.00,170.04              1532.00,170.04 1541.00,170.98 1541.00,170.98              1541.00,170.98 1563.00,169.67 1563.00,169.67              1567.07,170.05 1569.51,172.66 1577.00,172.96              1581.52,173.14 1582.93,172.56 1587.00,172.08              1587.00,172.08 1597.00,172.08 1597.00,172.08              1602.03,171.98 1608.63,170.47 1613.00,171.39              1613.00,171.39 1621.00,174.25 1621.00,174.25              1621.00,174.25 1642.00,178.91 1642.00,178.91              1655.84,179.92 1666.02,174.42 1673.00,174.34              1673.00,174.34 1679.00,175.04 1679.00,175.04              1679.00,175.04 1688.00,175.04 1688.00,175.04              1688.00,175.04 1718.00,178.00 1718.00,178.00              1733.57,178.02 1736.61,181.98 1749.00,182.00              1769.74,182.03 1765.60,179.02 1778.00,179.00              1778.00,179.00 1796.00,178.18 1796.00,178.18              1796.00,178.18 1811.00,179.99 1811.00,179.99              1818.79,180.16 1819.30,179.16 1826.00,178.29              1826.00,178.29 1845.00,176.92 1845.00,176.92              1845.00,176.92 1856.00,176.92 1856.00,176.92              1856.00,176.92 1867.00,175.21 1867.00,175.21              1867.00,175.21 1880.00,176.00 1880.00,176.00              1880.00,176.00 1926.00,177.09 1926.00,177.09              1932.69,177.58 1931.94,179.10 1942.00,179.00              1942.00,179.00 1966.00,176.17 1966.00,176.17              1966.00,176.17 1998.00,175.00 1998.00,175.00              2008.35,175.14 2005.08,178.18 2021.00,178.00              2030.95,177.88 2031.77,174.99 2038.00,175.23              2038.00,175.23 2064.00,175.23 2064.00,175.23              2064.00,175.23 2080.00,176.97 2080.00,176.97              2080.00,176.97 2096.00,175.00 2096.00,175.00              2096.00,175.00 2111.00,174.08 2111.00,174.08              2111.00,174.08 2119.00,174.96 2119.00,174.96              2119.00,174.96 2128.00,174.96 2128.00,174.96              2136.42,175.11 2141.23,178.07 2149.00,180.08              2153.01,181.11 2163.66,181.99 2168.00,182.00              2168.00,182.00 2179.00,182.00 2179.00,182.00              2179.00,182.00 2208.00,180.09 2208.00,180.09              2208.00,180.09 2224.00,182.71 2224.00,182.71              2224.00,182.71 2237.00,183.46 2237.00,183.46              2248.46,185.49 2246.38,186.98 2260.00,187.00              2272.58,187.02 2271.28,190.15 2285.00,190.00              2285.00,190.00 2303.00,189.00 2303.00,189.00              2303.00,189.00 2317.00,190.00 2317.00,190.00              2317.00,190.00 2341.00,188.04 2341.00,188.04              2341.00,188.04 2360.00,189.39 2360.00,189.39              2360.00,189.39 2370.00,192.53 2370.00,192.53              2370.00,192.53 2384.00,193.47 2384.00,193.47              2393.72,195.29 2391.05,197.14 2404.00,197.00              2416.21,196.86 2426.74,189.68 2438.00,185.81              2442.02,184.43 2446.75,185.28 2451.00,184.83              2457.16,184.17 2462.37,181.69 2469.00,182.09              2474.35,182.42 2475.42,183.91 2483.00,184.00              2483.00,184.00 2508.00,183.39 2508.00,183.39              2508.00,183.39 2516.00,184.84 2516.00,184.84              2523.75,185.86 2526.14,186.09 2534.00,186.00              2534.00,186.00 2566.00,183.09 2566.00,183.09              2566.00,183.09 2577.00,184.00 2577.00,184.00              2577.00,184.00 2601.00,185.95 2601.00,185.95              2601.00,185.95 2615.00,185.95 2615.00,185.95              2615.00,185.95 2628.00,184.96 2628.00,184.96              2628.00,184.96 2643.00,184.96 2643.00,184.96              2643.00,184.96 2655.00,184.00 2655.00,184.00              2655.00,184.00 2696.00,183.32 2696.00,183.32              2696.00,183.32 2705.00,184.00 2705.00,184.00              2705.00,184.00 2742.00,184.00 2742.00,184.00              2742.00,184.00 2765.00,181.18 2765.00,181.18              2765.00,181.18 2781.00,183.70 2781.00,183.70              2789.43,184.90 2798.48,185.10 2807.00,185.00              2807.00,185.00 2841.00,180.51 2841.00,180.51              2844.02,180.53 2847.01,182.27 2850.00,183.07              2850.00,183.07 2865.00,185.51 2865.00,185.51              2872.52,186.77 2877.51,184.99 2882.00,185.51              2882.00,185.51 2896.00,186.65 2896.00,186.65              2901.48,188.29 2905.62,193.54 2916.00,192.91              2916.00,192.91 2924.00,191.46 2924.00,191.46              2924.00,191.46 2941.00,190.18 2941.00,190.18              2941.00,190.18 2959.00,191.96 2959.00,191.96              2959.00,191.96 2977.00,191.96 2977.00,191.96              2986.62,191.98 2988.80,190.09 2994.00,190.08              2994.00,190.08 3007.00,190.99 3007.00,190.99              3015.79,190.78 3020.21,187.38 3025.00,187.48              3025.00,187.48 3033.00,188.83 3033.00,188.83              3033.00,188.83 3059.00,190.00 3059.00,190.00              3059.00,190.00 3092.00,194.91 3092.00,194.91              3092.00,194.91 3105.00,193.02 3105.00,193.02              3114.12,192.83 3115.82,195.31 3123.00,194.91              3123.00,194.91 3136.00,193.72 3136.00,193.72              3136.00,193.72 3145.00,194.96 3145.00,194.96              3145.00,194.96 3163.00,194.96 3163.00,194.96              3163.00,194.96 3178.00,193.61 3178.00,193.61              3178.00,193.61 3195.00,196.56 3195.00,196.56              3195.00,196.56 3210.00,197.17 3210.00,197.17              3218.93,198.13 3215.41,199.14 3228.00,199.00              3228.00,199.00 3253.00,195.96 3253.00,195.96              3253.00,195.96 3265.00,195.96 3265.00,195.96              3265.00,195.96 3275.00,195.00 3275.00,195.00              3275.00,195.00 3291.00,195.00 3291.00,195.00              3300.82,194.88 3303.04,192.25 3308.00,191.39              3308.00,191.39 3321.00,191.96 3321.00,191.96              3330.07,191.59 3333.07,188.02 3345.00,188.14              3345.00,188.14 3356.00,188.14 3356.00,188.14              3361.40,188.99 3362.86,189.92 3369.00,190.00              3369.00,190.00 3385.00,190.00 3385.00,190.00              3397.21,189.98 3413.65,185.69 3426.00,183.46              3426.00,183.46 3449.00,180.57 3449.00,180.57              3449.00,180.57 3460.00,178.75 3460.00,178.75              3460.00,178.75 3489.00,180.30 3489.00,180.30              3499.47,181.80 3496.82,183.15 3510.00,183.00              3510.00,183.00 3520.00,182.18 3520.00,182.18              3520.00,182.18 3527.00,182.96 3527.00,182.96              3527.00,182.96 3538.00,182.96 3538.00,182.96              3538.00,182.96 3561.00,181.00 3561.00,181.00              3561.00,181.00 3574.00,182.00 3574.00,182.00              3574.00,182.00 3594.00,181.00 3594.00,181.00              3594.00,181.00 3610.00,181.00 3610.00,181.00              3610.00,181.00 3625.00,179.92 3625.00,179.92              3625.00,179.92 3640.00,179.92 3640.00,179.92              3640.00,179.92 3662.00,185.71 3662.00,185.71              3667.09,186.45 3670.17,185.68 3675.00,185.71              3675.00,185.71 3688.00,185.71 3688.00,185.71              3688.00,185.71 3706.00,185.71 3706.00,185.71              3706.00,185.71 3715.00,184.26 3715.00,184.26              3715.00,184.26 3742.00,186.00 3742.00,186.00              3742.00,186.00 3778.00,183.00 3778.00,183.00              3778.00,183.00 3793.00,183.00 3793.00,183.00              3793.00,183.00 3806.00,183.91 3806.00,183.91              3806.00,183.91 3823.00,183.91 3823.00,183.91              3826.77,183.42 3829.07,182.20 3833.00,182.53              3843.61,183.41 3854.20,187.38 3865.00,186.96              3865.00,186.96 3893.00,184.10 3893.00,184.10              3893.00,184.10 3918.00,177.08 3918.00,177.08              3932.13,175.12 3928.53,176.73 3940.00,177.08              3947.46,177.15 3950.34,175.81 3957.00,174.98              3957.00,174.98 3977.00,174.98 3977.00,174.98              3977.00,174.98 3985.79,174.98 3985.79,174.98              3988.09,175.50 3989.44,178.14 3990.77,180.00              3992.74,182.78 3994.55,184.70 3995.66,188.00              3997.61,193.79 3996.28,198.85 3998.56,205.00              4002.88,216.69 4015.79,224.45 4028.00,223.96              4041.59,223.41 4050.86,213.17 4055.14,201.00              4056.41,197.38 4058.55,185.99 4061.56,184.44              4063.40,182.96 4066.96,184.03 4069.00,184.44              4072.82,185.05 4078.15,185.25 4082.00,184.44              4082.00,184.44 4095.00,182.04 4095.00,182.04              4095.00,182.04 4107.00,182.96 4107.00,182.96              4107.00,182.96 4122.00,181.83 4122.00,181.83              4127.80,181.20 4134.10,178.70 4140.00,179.19              4145.27,179.62 4146.48,181.25 4154.00,180.96              4154.00,180.96 4161.00,180.34 4161.00,180.34              4161.00,180.34 4172.00,181.00 4172.00,181.00              4172.00,181.00 4182.00,181.00 4182.00,181.00              4182.00,181.00 4195.00,179.38 4195.00,179.38              4195.00,179.38 4205.00,179.91 4205.00,179.91              4205.00,179.91 4214.00,178.53 4214.00,178.53              4214.00,178.53 4231.00,179.08 4231.00,179.08              4236.75,180.52 4242.10,187.52 4256.00,186.96              4265.09,186.59 4285.45,179.06 4293.00,173.91              4299.39,169.55 4300.48,166.16 4306.01,163.40              4316.17,158.35 4319.83,161.19 4329.00,159.54              4336.62,158.16 4339.69,155.21 4343.00,154.79              4349.62,153.97 4358.68,161.15 4366.00,162.53              4366.00,162.53 4377.00,163.21 4377.00,163.21              4386.46,164.53 4379.75,166.03 4398.00,166.00              4404.45,165.99 4414.40,163.16 4418.96,164.65              4423.16,166.02 4427.14,171.50 4431.00,174.47              4437.17,179.22 4442.43,180.16 4450.00,179.99              4458.28,179.80 4469.45,177.07 4477.00,173.69              4477.00,173.69 4491.00,166.83 4491.00,166.83              4491.00,166.83 4502.00,166.83 4502.00,166.83              4502.00,166.83 4515.00,165.37 4515.00,165.37              4515.00,165.37 4523.00,165.98 4523.00,165.98              4523.00,165.98 4536.00,165.98 4536.00,165.98              4536.00,165.98 4555.00,167.91 4555.00,167.91              4555.00,167.91 4567.00,166.17 4567.00,166.17              4567.00,166.17 4600.00,164.18 4600.00,164.18              4600.00,164.18 4628.00,166.00 4628.00,166.00              4628.00,166.00 4646.00,167.91 4646.00,167.91              4653.37,167.45 4657.64,164.31 4662.00,163.19              4662.00,163.19 4683.00,163.19 4683.00,163.19              4692.05,163.04 4692.58,164.70 4699.00,164.96              4711.28,165.46 4714.51,160.08 4723.00,158.38              4730.35,156.91 4738.66,158.91 4746.00,159.00              4746.00,159.00 4775.00,159.00 4775.00,159.00              4775.00,159.00 4790.00,160.00 4790.00,160.00              4790.00,160.00 4826.00,158.32 4826.00,158.32              4826.00,158.32 4838.00,158.96 4838.00,158.96              4838.00,158.96 4849.00,157.34 4849.00,157.34              4849.00,157.34 4862.00,159.00 4862.00,159.00              4874.65,159.14 4875.37,156.49 4880.00,156.51              4880.00,156.51 4894.00,158.96 4894.00,158.96              4901.81,159.28 4909.36,156.27 4917.00,154.80              4917.00,154.80 4927.00,153.83 4927.00,153.83              4927.00,153.83 4939.00,151.74 4939.00,151.74              4939.00,151.74 4963.00,146.50 4963.00,146.50              4969.20,145.67 4976.89,148.17 4983.00,148.91              4983.00,148.91 4993.00,148.91 4993.00,148.91              5001.06,148.90 5006.88,146.17 5018.00,146.85              5023.42,147.18 5025.19,150.76 5035.00,150.99              5041.63,151.14 5048.89,149.66 5055.00,147.05              5060.41,144.73 5062.91,140.90 5068.00,141.57              5071.44,142.03 5082.85,147.63 5085.49,149.78              5088.83,152.51 5091.84,159.18 5102.00,163.00              5115.93,168.02 5125.23,162.55 5134.00,163.00              5134.00,163.00 5155.00,165.51 5155.00,165.51              5164.66,167.49 5173.99,170.22 5184.00,169.99              5190.12,169.84 5191.18,168.69 5196.00,168.17              5196.00,168.17 5210.00,167.20 5210.00,167.20              5210.00,167.20 5225.00,164.09 5225.00,164.09              5225.00,164.09 5255.00,163.00 5255.00,163.00              5255.00,163.00 5274.00,161.08 5274.00,161.08              5274.00,161.08 5290.00,161.08 5290.00,161.08              5290.00,161.08 5309.00,159.34 5309.00,159.34              5309.00,159.34 5336.00,161.00 5336.00,161.00              5336.00,161.00 5356.00,163.72 5356.00,163.72              5356.00,163.72 5365.00,164.29 5365.00,164.29              5365.00,164.29 5381.00,167.02 5381.00,167.02              5381.00,167.02 5390.00,167.02 5390.00,167.02              5390.00,167.02 5401.00,169.83 5401.00,169.83              5409.87,170.79 5417.26,168.01 5426.00,168.00              5426.00,168.00 5440.00,168.00 5440.00,168.00              5440.00,168.00 5456.00,169.00 5456.00,169.00              5456.00,169.00 5485.00,167.00 5485.00,167.00              5485.00,167.00 5496.00,167.98 5496.00,167.98              5496.00,167.98 5512.00,167.98 5512.00,167.98              5512.00,167.98 5531.00,170.00 5531.00,170.00              5531.00,170.00 5548.00,170.00 5548.00,170.00              5548.00,170.00 5573.00,168.01 5573.00,168.01              5573.00,168.01 5585.00,168.91 5585.00,168.91              5585.00,168.91 5603.00,168.00 5603.00,168.00              5603.00,168.00 5627.00,166.00 5627.00,166.00              5627.00,166.00 5661.00,166.00 5661.00,166.00              5661.00,166.00 5695.00,164.00 5695.00,164.00              5702.45,164.09 5702.46,165.24 5708.00,165.83              5712.30,166.29 5716.79,165.53 5721.00,166.61              5728.00,168.40 5729.28,170.78 5738.00,170.99              5738.00,170.99 5758.00,170.00 5758.00,170.00              5769.15,169.87 5770.50,165.70 5784.00,165.10              5784.00,165.10 5798.00,166.00 5798.00,166.00              5798.00,166.00 5812.00,166.00 5812.00,166.00              5812.00,166.00 5821.00,165.34 5821.00,165.34              5821.00,165.34 5844.00,167.00 5844.00,167.00              5844.00,167.00 5886.00,167.00 5886.00,167.00              5890.40,167.06 5906.08,168.32 5910.00,169.39              5910.00,169.39 5924.00,174.84 5924.00,174.84              5930.00,176.47 5931.12,175.61 5936.00,176.46              5936.00,176.46 5956.00,179.91 5956.00,179.91              5956.00,179.91 5976.00,178.09 5976.00,178.09              5976.00,178.09 5991.00,178.09 5991.00,178.09              5991.00,178.09 6007.00,179.98 6007.00,179.98              6007.00,179.98 6027.00,178.08 6027.00,178.08              6027.00,178.08 6038.00,178.08 6038.00,178.08              6046.54,179.00 6046.78,180.12 6057.00,180.00              6057.00,180.00 6075.00,178.08 6075.00,178.08              6075.00,178.08 6086.00,178.08 6086.00,178.08              6097.31,177.86 6097.98,175.03 6107.00,170.67              6107.00,170.67 6117.00,166.74 6117.00,166.74              6120.62,165.00 6125.26,161.85 6129.00,161.22              6129.00,161.22 6148.00,159.83 6148.00,159.83              6148.00,159.83 6158.00,158.04 6158.00,158.04              6158.00,158.04 6166.00,158.04 6166.00,158.04              6166.00,158.04 6184.00,156.49 6184.00,156.49              6191.21,157.01 6194.98,162.43 6207.00,161.96              6207.00,161.96 6215.00,160.96 6215.00,160.96              6215.00,160.96 6224.00,160.96 6224.00,160.96              6224.00,160.96 6242.00,159.00 6242.00,159.00              6242.00,159.00 6256.00,159.00 6256.00,159.00              6264.59,158.99 6262.89,158.32 6270.00,157.30              6270.00,157.30 6278.00,156.56 6278.00,156.56              6278.00,156.56 6296.00,153.48 6296.00,153.48              6296.00,153.48 6314.00,154.00 6314.00,154.00              6323.01,153.89 6325.23,151.43 6331.00,151.11              6331.00,151.11 6345.00,151.96 6345.00,151.96              6345.00,151.96 6355.00,150.30 6355.00,150.30              6355.00,150.30 6363.00,149.70 6363.00,149.70              6363.00,149.70 6379.00,146.10 6379.00,146.10              6390.16,143.26 6391.77,138.67 6397.00,136.73              6400.00,135.62 6404.53,136.21 6408.00,135.70              6408.00,135.70 6419.00,132.81 6419.00,132.81              6419.00,132.81 6434.00,132.81 6434.00,132.81              6442.21,132.90 6443.35,131.16 6449.00,130.76              6449.00,130.76 6460.00,130.76 6460.00,130.76              6467.33,130.66 6473.19,127.74 6480.00,125.92              6484.97,124.60 6489.93,124.34 6495.00,123.83              6498.09,123.52 6499.70,122.93 6503.00,123.18              6511.85,123.85 6515.65,127.77 6525.00,127.99              6535.38,128.22 6538.87,125.76 6544.00,125.39              6544.00,125.39 6559.00,127.00 6559.00,127.00              6559.00,127.00 6575.00,127.00 6575.00,127.00              6584.81,126.88 6584.90,124.72 6592.00,123.31              6599.62,121.81 6605.39,122.01 6613.00,122.00              6625.07,121.98 6632.47,117.14 6644.00,117.00              6644.00,117.00 6668.00,117.00 6668.00,117.00              6668.00,117.00 6683.00,116.00 6683.00,116.00              6683.00,116.00 6702.00,116.00 6702.00,116.00              6702.00,116.00 6727.00,113.32 6727.00,113.32              6735.77,113.98 6744.42,113.83 6753.00,116.04              6753.00,116.04 6762.00,119.25 6762.00,119.25              6766.20,120.62 6778.77,123.15 6783.00,122.91              6783.00,122.91 6790.00,122.04 6790.00,122.04              6790.00,122.04 6804.00,122.04 6804.00,122.04              6815.97,121.98 6819.53,118.09 6837.00,118.00              6837.00,118.00 6854.00,116.51 6854.00,116.51              6854.00,116.51 6871.00,116.00 6871.00,116.00              6871.00,116.00 6886.00,116.00 6886.00,116.00              6886.00,116.00 6924.00,113.00 6924.00,113.00              6924.00,113.00 6947.00,113.00 6947.00,113.00              6947.00,113.00 6989.00,107.85 6989.00,107.85              6989.00,107.85 7011.00,107.85 7011.00,107.85              7011.00,107.85 7030.00,103.09 7030.00,103.09              7030.00,103.09 7040.00,101.87 7040.00,101.87              7040.00,101.87 7050.00,101.87 7050.00,101.87              7057.30,100.63 7058.91,98.02 7073.00,98.00              7085.06,97.98 7081.84,97.17 7091.00,96.17              7091.00,96.17 7108.00,94.83 7108.00,94.83              7113.76,94.19 7116.69,92.08 7121.00,91.33              7121.00,91.33 7132.00,90.53 7132.00,90.53              7132.00,90.53 7144.00,86.94 7144.00,86.94              7144.00,86.94 7156.00,86.94 7156.00,86.94              7161.83,85.87 7169.08,83.88 7175.00,84.32              7196.21,85.91 7191.45,83.16 7205.00,83.00              7205.00,83.00 7220.00,83.00 7220.00,83.00              7230.53,82.98 7233.73,81.09 7238.00,80.87              7243.36,80.61 7245.57,84.38 7256.00,83.96              7262.74,83.69 7262.59,82.02 7273.00,82.00              7273.00,82.00 7296.00,82.00 7296.00,82.00              7296.00,82.00 7311.00,82.96 7311.00,82.96              7311.00,82.96 7319.00,82.18 7319.00,82.18              7323.64,82.20 7326.66,84.30 7333.00,83.91              7333.00,83.91 7353.00,80.09 7353.00,80.09              7360.63,79.56 7368.37,79.56 7376.00,80.09              7376.00,80.09 7386.00,81.00 7386.00,81.00              7386.00,81.00 7398.00,81.00 7398.00,81.00              7398.00,81.00 7437.00,74.83 7437.00,74.83              7442.05,74.26 7444.18,72.76 7450.00,73.09              7450.00,73.09 7460.00,73.96 7460.00,73.96              7460.00,73.96 7484.00,72.00 7484.00,72.00              7484.00,72.00 7499.00,71.01 7499.00,71.01              7499.00,71.01 7509.00,71.79 7509.00,71.79              7509.00,71.79 7521.00,71.79 7521.00,71.79              7521.00,71.79 7530.00,71.79 7530.00,71.79              7530.00,71.79 7538.00,72.83 7538.00,72.83              7538.00,72.83 7557.00,74.00 7557.00,74.00              7557.00,74.00 7597.00,71.00 7597.00,71.00              7606.59,70.88 7609.67,68.55 7618.00,66.68              7618.00,66.68 7629.00,65.70 7629.00,65.70              7636.86,64.58 7640.35,63.01 7649.00,63.00              7649.00,63.00 7664.00,63.00 7664.00,63.00              7664.00,63.00 7676.00,63.95 7676.00,63.95              7676.00,63.95 7692.00,63.95 7692.00,63.95              7692.00,63.95 7706.00,62.30 7706.00,62.30              7711.18,62.71 7715.22,67.46 7725.00,66.91              7740.97,66.00 7748.87,62.01 7753.00,61.82              7753.00,61.82 7762.00,61.82 7762.00,61.82              7762.00,61.82 7779.00,61.82 7779.00,61.82              7779.00,61.82 7792.00,60.00 7792.00,60.00              7792.00,60.00 7802.00,60.00 7802.00,60.00              7802.00,60.00 7811.00,58.17 7811.00,58.17              7811.00,58.17 7829.00,56.91 7829.00,56.91              7836.83,56.30 7834.00,54.85 7847.00,55.00              7853.82,55.08 7858.51,56.64 7866.00,55.83              7871.54,55.23 7874.11,53.14 7879.00,53.08              7879.00,53.08 7894.00,54.00 7894.00,54.00              7903.90,53.88 7907.58,50.57 7913.00,50.22              7916.03,50.03 7927.30,54.14 7929.91,55.85              7934.05,58.56 7939.98,68.47 7943.75,73.00              7952.60,83.61 7966.85,92.69 7981.00,93.00              7981.00,99.80 7981.25,114.78 7982.68,121.00              7982.68,121.00 7988.40,137.00 7988.40,137.00              7988.40,137.00 7991.88,144.00 7991.88,144.00              7991.88,144.00 7997.55,160.00 7997.55,160.00              7997.55,160.00 8001.55,169.00 8001.55,169.00              8001.55,169.00 8004.93,182.00 8004.93,182.00              8004.93,182.00 8010.39,197.00 8010.39,197.00              8012.05,200.68 8014.77,204.75 8014.01,209.00              8013.31,212.84 8006.44,221.38 8007.09,232.00              8007.67,241.34 8011.86,241.89 8012.00,252.00              8012.10,259.98 8010.95,269.76 8014.40,277.00              8019.04,286.75 8022.93,287.87 8029.91,294.30              8033.44,297.55 8034.68,300.10 8039.00,303.47              8042.00,305.81 8046.19,307.52 8048.51,310.21              8053.56,316.09 8058.70,333.14 8060.40,341.00              8061.79,348.03 8058.96,351.03 8060.40,359.00              8061.72,365.63 8064.37,367.39 8065.60,372.00              8067.46,378.97 8066.48,384.63 8067.17,391.00              8067.17,391.00 8069.79,403.00 8069.79,403.00              8069.77,408.47 8066.00,409.95 8066.00,422.00              8066.00,433.42 8069.44,434.65 8068.94,442.00              8068.39,450.00 8060.29,452.96 8061.09,466.00              8061.09,466.00 8062.23,474.00 8062.23,474.00              8062.23,474.00 8062.23,484.00 8062.23,484.00              8062.23,484.00 8062.87,492.00 8062.87,492.00              8062.67,497.36 8059.66,501.39 8060.09,509.00              8060.09,509.00 8061.30,523.00 8061.30,523.00              8061.30,523.00 8061.30,534.00 8061.30,534.00              8061.30,534.00 8061.30,559.00 8061.30,559.00              8061.30,559.00 8060.00,575.00 8060.00,575.00              8060.00,575.00 8060.00,599.00 8060.00,599.00              8060.00,599.00 8063.46,627.00 8063.46,627.00              8064.70,634.00 8066.91,639.70 8067.00,647.00              8067.00,647.00 8066.00,667.00 8066.00,667.00              8065.86,678.46 8061.91,693.94 8058.56,705.00              8058.56,705.00 8054.23,717.00 8054.23,717.00              8053.84,720.30 8053.96,725.53 8054.23,729.00              8054.13,739.36 8056.98,738.92 8057.20,751.00              8057.20,751.00 8057.20,766.00 8057.20,766.00              8057.13,770.34 8055.77,772.72 8056.09,778.00              8056.09,778.00 8057.96,789.00 8057.96,789.00              8057.96,789.00 8057.96,810.00 8057.96,810.00              8057.96,810.00 8058.90,822.00 8058.90,822.00              8058.45,831.78 8056.56,827.05 8057.26,846.00              8057.66,856.93 8054.72,867.30 8053.14,878.00              8050.80,896.45 8053.16,889.48 8053.14,904.00              8053.14,904.00 8052.09,917.00 8052.09,917.00              8052.63,925.65 8056.66,927.80 8056.93,934.00              8057.23,940.94 8053.41,942.84 8053.04,952.00              8053.04,952.00 8054.10,966.00 8054.10,966.00              8054.10,966.00 8054.10,982.00 8054.10,982.00              8053.61,986.35 8052.77,988.05 8053.09,993.00              8053.09,993.00 8055.99,1017.00 8055.99,1017.00              8055.77,1026.41 8052.80,1026.99 8053.00,1044.00              8053.00,1044.00 8053.96,1058.00 8053.96,1058.00              8053.69,1064.62 8051.85,1065.40 8052.02,1074.00              8052.02,1074.00 8053.66,1087.00 8053.66,1087.00              8053.66,1087.00 8052.04,1098.00 8052.04,1098.00              8051.84,1104.17 8053.33,1106.15 8053.61,1110.00              8053.61,1110.00 8053.04,1121.00 8053.04,1121.00              8053.04,1121.00 8053.82,1131.00 8053.82,1131.00              8053.82,1131.00 8053.00,1153.00 8053.00,1153.00              8053.02,1168.30 8057.06,1167.13 8058.20,1174.00              8058.20,1174.00 8058.20,1185.00 8058.20,1185.00              8058.20,1185.00 8059.79,1196.00 8059.79,1196.00              8059.79,1196.00 8059.00,1210.00 8059.00,1210.00              8059.10,1218.78 8061.46,1220.08 8061.19,1227.00              8061.19,1227.00 8060.00,1247.00 8060.00,1247.00              8060.00,1247.00 8061.00,1261.00 8061.00,1261.00              8061.00,1261.00 8060.30,1281.00 8060.30,1281.00              8060.30,1281.00 8064.35,1296.00 8064.35,1296.00              8064.34,1300.29 8060.87,1304.20 8059.50,1312.00              8058.23,1318.81 8059.72,1323.11 8059.50,1327.00              8059.50,1327.00 8058.08,1335.00 8058.08,1335.00              8058.08,1335.00 8058.08,1346.00 8058.08,1346.00              8057.92,1352.80 8057.08,1352.49 8056.15,1358.00              8056.15,1358.00 8056.15,1368.00 8056.15,1368.00              8055.92,1374.49 8053.47,1380.48 8054.17,1387.00              8054.17,1387.00 8056.79,1398.00 8056.79,1398.00              8057.39,1402.21 8056.61,1403.67 8057.90,1409.00              8058.77,1412.59 8060.68,1416.51 8060.86,1420.00              8060.86,1420.00 8058.04,1446.00 8058.04,1446.00              8058.04,1446.00 8058.75,1455.00 8058.75,1455.00              8058.75,1455.00 8056.21,1466.00 8056.21,1466.00              8056.21,1466.00 8056.21,1479.00 8056.21,1479.00              8056.21,1479.00 8056.96,1496.00 8056.96,1496.00              8056.96,1496.00 8055.08,1508.00 8055.08,1508.00              8055.08,1508.00 8055.08,1526.00 8055.08,1526.00              8054.98,1536.89 8051.65,1541.22 8051.09,1551.00              8051.09,1551.00 8052.23,1566.00 8052.23,1566.00              8052.01,1570.39 8051.75,1577.99 8052.23,1582.00              8054.63,1594.24 8060.12,1604.36 8061.22,1618.00              8061.54,1621.99 8060.45,1633.97 8059.63,1638.00              8059.63,1638.00 8057.15,1647.00 8057.15,1647.00              8057.15,1647.00 8057.15,1657.00 8057.15,1657.00              8057.15,1669.39 8062.46,1673.94 8063.34,1679.00              8063.34,1679.00 8062.17,1699.00 8062.17,1699.00              8062.91,1705.91 8067.78,1713.86 8068.20,1721.00              8068.95,1733.56 8065.19,1737.29 8065.02,1746.00              8064.78,1757.76 8069.10,1759.71 8069.31,1768.00              8069.31,1768.00 8069.31,1775.00 8069.31,1775.00              8069.31,1775.00 8069.31,1784.00 8069.31,1784.00              8068.70,1786.83 8066.77,1789.54 8066.08,1795.00              8066.08,1795.00 8066.08,1821.00 8066.08,1821.00              8065.85,1831.88 8061.73,1835.37 8058.56,1844.00              8056.67,1849.13 8057.61,1852.00 8055.17,1857.00              8049.45,1868.71 8045.02,1867.38 8045.00,1884.00              8045.00,1884.00 8045.00,1888.00 8045.00,1888.00              8045.12,1897.60 8048.45,1900.83 8047.24,1906.00              8045.68,1912.70 8037.33,1916.82 8038.09,1930.00              8038.09,1930.00 8041.74,1949.00 8041.74,1949.00              8041.74,1949.00 8041.00,1962.00 8041.00,1962.00              8041.00,1962.00 8042.66,1975.00 8042.66,1975.00              8042.66,1975.00 8042.09,1981.00 8042.09,1981.00              8041.90,1984.55 8043.14,1993.62 8044.22,1997.00              8044.22,1997.00 8053.79,2015.00 8053.79,2015.00              8055.66,2019.50 8054.88,2022.75 8057.40,2028.00              8059.05,2031.43 8062.33,2034.85 8062.99,2038.00              8064.43,2044.85 8061.33,2055.56 8061.04,2062.00              8061.04,2062.00 8062.91,2093.00 8062.91,2093.00              8062.91,2093.00 8062.00,2107.00 8062.00,2107.00              8061.98,2118.81 8058.25,2119.50 8059.09,2131.00              8059.73,2139.75 8063.56,2141.81 8063.59,2147.00              8063.59,2147.00 8058.37,2177.00 8058.37,2177.00              8058.37,2177.00 8054.60,2187.00 8054.60,2187.00              8053.10,2193.87 8054.90,2198.60 8054.60,2200.91              8053.79,2205.32 8048.44,2206.51 8043.82,2216.00              8041.19,2221.40 8038.99,2240.58 8039.00,2247.00              8039.00,2247.00 8041.25,2268.00 8041.25,2268.00              8040.40,2271.45 8036.99,2273.83 8034.47,2280.00              8031.23,2287.94 8032.66,2290.25 8031.70,2297.00              8031.03,2301.69 8029.76,2303.68 8030.09,2309.00              8030.73,2319.33 8037.86,2326.30 8038.70,2330.00              8038.70,2330.00 8037.00,2346.00 8037.00,2346.00              8037.00,2346.00 8038.17,2378.00 8038.17,2378.00              8038.17,2378.00 8040.49,2389.00 8040.49,2389.00              8040.49,2389.00 8039.00,2401.00 8039.00,2401.00              8038.82,2417.55 8043.17,2414.03 8043.00,2429.00              8043.00,2429.00 8041.00,2446.00 8041.00,2446.00              8040.93,2452.40 8042.38,2466.10 8044.22,2472.00              8045.85,2477.22 8049.50,2481.74 8049.88,2487.00              8050.11,2490.08 8048.88,2499.30 8047.55,2502.00              8045.14,2506.85 8040.12,2509.98 8037.93,2518.00              8035.34,2527.45 8039.95,2533.82 8040.00,2543.00              8040.08,2559.69 8040.85,2553.03 8042.70,2566.00              8043.39,2570.80 8042.47,2573.66 8043.93,2579.00              8043.93,2579.00 8048.59,2590.00 8048.59,2590.00              8051.00,2599.43 8051.14,2609.39 8052.17,2619.00              8052.17,2619.00 8053.37,2626.00 8053.37,2626.00              8053.37,2626.00 8052.04,2637.00 8052.04,2637.00              8052.04,2637.00 8053.00,2655.00 8053.00,2655.00              8052.95,2665.42 8050.79,2662.96 8048.22,2671.00              8046.71,2675.72 8047.05,2679.21 8047.00,2684.00              8046.83,2697.44 8039.29,2697.95 8040.09,2711.00              8040.62,2719.55 8044.73,2722.13 8044.55,2727.00              8044.55,2727.00 8042.00,2738.00 8042.00,2738.00              8042.00,2738.00 8036.04,2775.00 8036.04,2775.00              8036.46,2788.09 8033.73,2782.78 8030.93,2793.00              8029.55,2798.03 8030.07,2804.68 8030.00,2810.00              8029.90,2817.25 8027.46,2820.07 8025.89,2827.00              8025.89,2827.00 8023.11,2842.00 8023.11,2842.00              8020.00,2851.40 8016.80,2855.09 8017.02,2866.00              8017.19,2874.95 8019.71,2876.42 8022.47,2884.00              8022.47,2884.00 8025.52,2894.00 8025.52,2894.00              8026.91,2898.29 8029.08,2902.39 8028.01,2907.00              8027.57,2908.87 8024.23,2918.10 8023.18,2919.39              8020.95,2922.13 8014.56,2924.38 8009.91,2933.00              8005.65,2940.92 8005.90,2955.04 8006.00,2964.00              8006.11,2972.79 8007.59,2973.46 8010.54,2981.00              8010.54,2981.00 8013.40,2989.00 8013.40,2989.00              8015.26,2992.99 8018.99,2998.56 8019.15,3003.00              8019.15,3003.00 8016.09,3033.00 8016.09,3033.00              8016.09,3033.00 8017.49,3042.00 8017.49,3042.00              8017.46,3045.54 8015.41,3048.01 8014.36,3053.00              8013.45,3058.38 8014.45,3062.82 8014.36,3068.00              8014.36,3068.00 8013.63,3081.00 8013.63,3081.00              8012.73,3085.69 8011.29,3086.88 8011.14,3093.00              8011.14,3093.00 8011.14,3103.00 8011.14,3103.00              8011.14,3103.00 8009.46,3110.00 8009.46,3110.00              8008.18,3116.48 8006.93,3126.44 8007.00,3133.00              8007.00,3133.00 8008.82,3152.00 8008.82,3152.00              8008.82,3152.00 8005.15,3166.00 8005.15,3166.00              8005.15,3166.00 8005.15,3179.00 8005.15,3179.00              8004.89,3187.67 8002.82,3188.23 8003.00,3204.00              8003.00,3204.00 8004.46,3220.00 8004.46,3220.00              8004.46,3220.00 8006.66,3229.00 8006.66,3229.00              8006.66,3229.00 8006.04,3241.00 8006.04,3241.00              8006.04,3241.00 8006.66,3248.00 8006.66,3248.00              8006.56,3255.32 8001.57,3258.39 8002.04,3270.00              8002.32,3276.97 8005.95,3283.54 8005.53,3289.00              8005.53,3289.00 8004.61,3302.00 8004.61,3302.00              8003.68,3306.42 8000.61,3310.17 8001.09,3318.00              8001.09,3318.00 8007.12,3343.00 8007.12,3343.00              8007.12,3343.00 8007.12,3358.00 8007.12,3358.00              8007.12,3358.00 8007.66,3367.00 8007.66,3367.00              8007.66,3367.00 8007.00,3373.00 8007.00,3373.00              8007.00,3373.00 8007.00,3382.00 8007.00,3382.00              8006.53,3387.47 8004.75,3391.16 8005.09,3397.00              8005.09,3397.00 8008.20,3425.00 8008.20,3425.00              8007.95,3429.66 8005.20,3434.15 8005.01,3442.00              8004.68,3456.68 8010.08,3458.54 8011.61,3466.00              8012.35,3469.65 8011.29,3472.44 8011.09,3476.00              8011.09,3476.00 8012.00,3491.00 8012.00,3491.00              8012.02,3506.49 8008.86,3501.43 8007.30,3512.00              8006.41,3518.06 8007.82,3521.21 8007.82,3525.00              8007.82,3525.00 8007.09,3532.00 8007.09,3532.00              8006.69,3539.16 8009.39,3542.41 8008.57,3547.00              8007.51,3552.91 8001.25,3556.74 8002.09,3569.00              8003.03,3582.64 8012.52,3585.38 8014.61,3595.00              8014.61,3595.00 8015.30,3608.00 8015.30,3608.00              8015.30,3608.00 8018.81,3636.00 8018.81,3636.00              8018.81,3636.00 8017.13,3645.00 8017.13,3645.00              8017.13,3645.00 8017.13,3663.00 8017.13,3663.00              8017.31,3666.74 8018.36,3676.76 8019.56,3680.00              8022.45,3687.82 8026.06,3690.18 8026.60,3701.00              8026.77,3704.44 8025.10,3707.62 8024.47,3711.00              8024.47,3711.00 8023.68,3720.00 8023.68,3720.00              8023.68,3720.00 8021.46,3729.00 8021.46,3729.00              8019.86,3737.91 8022.49,3746.53 8029.09,3752.82              8031.62,3755.23 8033.91,3756.49 8037.00,3758.00              8037.00,3758.00 8032.37,3766.00 8032.37,3766.00              8026.59,3774.12 8021.39,3777.68 8022.09,3789.00              8022.73,3799.39 8028.45,3802.26 8030.02,3809.00              8031.22,3814.15 8028.49,3816.49 8028.09,3823.00              8027.67,3829.82 8030.21,3832.94 8029.42,3837.00              8028.69,3840.73 8024.72,3844.44 8025.04,3854.00              8025.28,3861.20 8029.14,3869.27 8029.45,3873.00              8029.45,3873.00 8028.04,3883.00 8028.04,3883.00              8028.04,3883.00 8028.04,3894.00 8028.04,3894.00              8028.02,3903.93 8029.07,3901.98 8030.06,3909.00              8030.06,3909.00 8030.06,3917.00 8030.06,3917.00              8031.08,3922.51 8031.92,3922.21 8032.23,3929.00              8032.05,3933.23 8031.74,3939.00 8032.23,3943.00              8032.23,3943.00 8035.92,3955.00 8035.92,3955.00              8035.92,3955.00 8035.92,3963.00 8035.92,3963.00              8035.92,3963.00 8037.17,3975.00 8037.17,3975.00              8037.17,3975.00 8038.70,3983.00 8038.70,3983.00              8038.70,3983.00 8039.47,3991.00 8039.47,3991.00              8039.47,3991.00 8041.19,3998.00 8041.19,3998.00              8041.19,3998.00 8041.19,4019.00 8041.19,4019.00              8040.78,4031.49 8038.41,4028.07 8035.93,4037.00              8035.93,4037.00 8030.67,4059.00 8030.67,4059.00              8029.08,4064.02 8025.14,4069.04 8022.68,4080.00              8021.65,4084.59 8022.06,4090.23 8022.00,4095.00              8021.86,4105.02 8017.59,4105.76 8014.56,4114.00              8013.17,4117.78 8012.76,4122.00 8013.20,4126.00              8013.47,4128.84 8014.84,4132.11 8013.20,4134.70              8011.40,4137.63 8003.38,4140.80 8000.00,4142.29              7985.78,4148.56 7968.49,4150.18 7953.00,4150.00              7953.00,4150.00 7924.00,4147.04 7924.00,4147.04              7912.11,4147.51 7903.06,4153.49 7891.00,4153.96              7891.00,4153.96 7873.00,4152.00 7873.00,4152.00              7865.66,4151.92 7856.07,4152.25 7849.00,4154.16              7838.08,4157.11 7840.36,4159.98 7826.00,4160.00              7826.00,4160.00 7805.00,4160.00 7805.00,4160.00              7805.00,4160.00 7776.00,4158.09 7776.00,4158.09              7776.00,4158.09 7764.00,4159.00 7764.00,4159.00              7764.00,4159.00 7721.00,4160.00 7721.00,4160.00              7721.00,4160.00 7700.00,4158.01 7700.00,4158.01              7700.00,4158.01 7683.00,4160.53 7683.00,4160.53              7683.00,4160.53 7672.00,4160.00 7672.00,4160.00              7672.00,4160.00 7662.00,4160.00 7662.00,4160.00              7662.00,4160.00 7653.00,4160.66 7653.00,4160.66              7653.00,4160.66 7642.00,4160.00 7642.00,4160.00              7642.00,4160.00 7617.00,4160.00 7617.00,4160.00              7617.00,4160.00 7602.00,4159.09 7602.00,4159.09              7597.09,4159.38 7593.03,4161.17 7588.00,4160.82              7588.00,4160.82 7563.00,4160.10 7563.00,4160.10              7563.00,4160.10 7553.00,4160.10 7553.00,4160.10              7553.00,4160.10 7541.00,4157.15 7541.00,4157.15              7541.00,4157.15 7525.00,4157.15 7525.00,4157.15              7517.41,4157.09 7509.42,4158.89 7502.00,4160.45              7502.00,4160.45 7495.00,4162.11 7495.00,4162.11              7495.00,4162.11 7475.00,4161.00 7475.00,4161.00              7475.00,4161.00 7465.00,4161.82 7465.00,4161.82              7465.00,4161.82 7451.00,4161.04 7451.00,4161.04              7451.00,4161.04 7438.00,4162.25 7438.00,4162.25              7438.00,4162.25 7428.00,4162.25 7428.00,4162.25              7428.00,4162.25 7387.00,4165.00 7387.00,4165.00              7387.00,4165.00 7361.00,4165.00 7361.00,4165.00              7361.00,4165.00 7337.00,4166.91 7337.00,4166.91              7337.00,4166.91 7323.00,4166.00 7323.00,4166.00              7314.00,4165.88 7314.07,4163.12 7304.00,4163.23              7300.03,4162.96 7291.56,4162.80 7288.00,4163.23              7277.75,4165.38 7271.21,4168.98 7260.00,4169.00              7260.00,4169.00 7217.00,4169.00 7217.00,4169.00              7217.00,4169.00 7189.00,4171.00 7189.00,4171.00              7189.00,4171.00 7174.00,4171.96 7174.00,4171.96              7174.00,4171.96 7163.00,4171.00 7163.00,4171.00              7163.00,4171.00 7135.00,4170.00 7135.00,4170.00              7135.00,4170.00 7118.00,4171.39 7118.00,4171.39              7113.52,4170.69 7102.62,4164.82 7086.00,4165.00              7086.00,4165.00 7076.00,4165.91 7076.00,4165.91              7076.00,4165.91 7048.00,4167.00 7048.00,4167.00              7048.00,4167.00 7028.00,4165.00 7028.00,4165.00              7028.00,4165.00 7020.00,4165.00 7020.00,4165.00              7013.76,4164.16 7014.45,4163.04 7006.00,4163.00              7006.00,4163.00 6989.00,4163.00 6989.00,4163.00              6989.00,4163.00 6969.00,4164.20 6969.00,4164.20              6969.00,4164.20 6952.00,4164.20 6952.00,4164.20              6941.76,4164.02 6942.24,4165.52 6934.00,4166.70              6934.00,4166.70 6915.00,4168.00 6915.00,4168.00              6915.00,4168.00 6888.00,4168.00 6888.00,4168.00              6888.00,4168.00 6877.00,4168.66 6877.00,4168.66              6877.00,4168.66 6868.00,4168.00 6868.00,4168.00              6868.00,4168.00 6848.00,4169.30 6848.00,4169.30              6839.52,4170.55 6835.67,4174.98 6820.00,4175.00              6820.00,4175.00 6782.00,4175.00 6782.00,4175.00              6771.71,4174.98 6771.42,4173.26 6765.00,4173.04              6765.00,4173.04 6752.00,4173.91 6752.00,4173.91              6752.00,4173.91 6739.00,4173.00 6739.00,4173.00              6739.00,4173.00 6718.00,4174.00 6718.00,4174.00              6718.00,4174.00 6708.00,4174.73 6708.00,4174.73              6708.00,4174.73 6697.00,4172.11 6697.00,4172.11              6697.00,4172.11 6684.00,4172.11 6684.00,4172.11              6684.00,4172.11 6671.00,4170.09 6671.00,4170.09              6671.00,4170.09 6657.00,4170.66 6657.00,4170.66              6657.00,4170.66 6648.00,4170.00 6648.00,4170.00              6639.10,4169.90 6630.67,4170.82 6622.00,4172.90              6614.77,4174.63 6610.89,4176.81 6603.00,4177.54              6603.00,4177.54 6578.00,4175.00 6578.00,4175.00              6578.00,4175.00 6560.00,4175.91 6560.00,4175.91              6560.00,4175.91 6539.00,4174.00 6539.00,4174.00              6539.00,4174.00 6521.00,4174.00 6521.00,4174.00              6507.35,4174.02 6510.30,4176.94 6499.00,4177.00              6499.00,4177.00 6464.00,4177.00 6464.00,4177.00              6464.00,4177.00 6427.00,4181.29 6427.00,4181.29              6427.00,4181.29 6386.00,4177.04 6386.00,4177.04              6386.00,4177.04 6354.00,4180.68 6354.00,4180.68              6354.00,4180.68 6344.00,4180.09 6344.00,4180.09              6344.00,4180.09 6332.00,4180.09 6332.00,4180.09              6324.99,4180.92 6326.93,4181.98 6317.00,4182.03              6317.00,4182.03 6293.00,4182.03 6293.00,4182.03              6293.00,4182.03 6275.00,4183.00 6275.00,4183.00              6265.67,4182.89 6267.31,4180.85 6254.00,4181.00              6245.13,4181.11 6244.37,4183.04 6240.00,4183.46              6235.47,4183.89 6224.86,4181.64 6220.00,4181.06              6220.00,4181.06 6207.00,4181.06 6207.00,4181.06              6202.31,4180.05 6198.37,4177.19 6194.00,4175.46              6187.31,4172.83 6174.19,4170.01 6167.00,4170.00              6167.00,4170.00 6145.00,4170.00 6145.00,4170.00              6136.90,4170.10 6134.79,4172.10 6131.00,4172.16              6131.00,4172.16 6120.00,4171.00 6120.00,4171.00              6120.00,4171.00 6097.00,4171.00 6097.00,4171.00              6097.00,4171.00 6074.00,4168.00 6074.00,4168.00              6069.99,4167.96 6065.94,4167.83 6062.00,4168.67              6058.15,4169.48 6054.79,4171.47 6051.02,4169.45              6046.33,4166.94 6045.07,4162.07 6042.22,4158.00              6040.03,4154.89 6036.56,4151.63 6035.61,4148.00              6034.63,4144.95 6036.07,4138.14 6035.61,4134.00              6035.61,4134.00 6035.61,4124.00 6035.61,4124.00              6035.61,4124.00 6036.72,4109.00 6036.72,4109.00              6036.72,4109.00 6036.72,4100.00 6036.72,4100.00              6037.01,4095.11 6039.51,4094.26 6038.96,4082.00              6038.96,4082.00 6032.72,4056.00 6032.72,4056.00              6031.71,4051.50 6033.22,4049.05 6032.72,4044.00              6032.23,4033.03 6024.80,4026.31 6017.00,4019.58              6008.67,4012.38 6005.56,4008.54 5994.00,4008.00              5994.00,4008.00 5993.46,4001.00 5993.46,4001.00              5993.62,3996.39 5995.98,3991.57 5994.26,3987.00              5993.27,3984.36 5990.97,3981.99 5988.98,3980.04              5987.50,3978.59 5985.71,3976.97 5984.00,3975.80              5974.20,3969.07 5971.08,3976.30 5967.62,3984.00              5967.62,3984.00 5962.00,3998.96 5962.00,3998.96              5956.09,3997.94 5949.88,3997.34 5944.00,3998.96              5938.59,4000.39 5934.12,4003.67 5928.00,4004.10              5928.00,4004.10 5911.00,4004.10 5911.00,4004.10              5893.91,4004.08 5893.67,4010.20 5882.96,4019.79              5882.96,4019.79 5875.01,4025.53 5875.01,4025.53              5875.01,4025.53 5867.83,4032.54 5867.83,4032.54              5867.83,4032.54 5844.00,4049.46 5844.00,4049.46              5844.00,4049.46 5829.58,4062.54 5829.58,4062.54              5829.58,4062.54 5822.09,4069.09 5822.09,4069.09              5822.09,4069.09 5814.82,4077.83 5814.82,4077.83              5814.82,4077.83 5805.18,4086.09 5805.18,4086.09              5797.05,4094.70 5792.59,4106.56 5784.28,4114.87              5779.51,4119.64 5773.46,4120.84 5768.00,4124.79              5763.38,4128.14 5762.50,4130.46 5758.91,4133.68              5758.91,4133.68 5746.00,4143.62 5746.00,4143.62              5741.45,4146.86 5737.49,4147.25 5732.00,4151.53              5728.68,4154.12 5725.93,4157.30 5723.91,4161.00              5722.23,4164.10 5721.44,4168.13 5718.66,4170.42              5716.08,4172.53 5710.90,4172.71 5706.00,4174.90              5697.18,4178.86 5688.62,4185.35 5679.00,4187.63              5679.00,4187.63 5663.00,4190.40 5663.00,4190.40              5663.00,4190.40 5644.00,4188.04 5644.00,4188.04              5644.00,4188.04 5633.00,4189.00 5633.00,4189.00              5633.00,4189.00 5614.00,4189.00 5614.00,4189.00              5614.00,4189.00 5586.00,4193.79 5586.00,4193.79              5586.00,4193.79 5575.00,4193.04 5575.00,4193.04              5575.00,4193.04 5564.00,4194.00 5564.00,4194.00              5564.00,4194.00 5544.00,4194.00 5544.00,4194.00              5544.00,4194.00 5514.00,4195.82 5514.00,4195.82              5510.51,4195.57 5508.99,4194.87 5505.00,4195.09              5499.89,4195.38 5498.19,4196.36 5492.00,4195.91              5484.84,4195.39 5486.37,4193.87 5475.00,4194.00              5468.10,4194.08 5466.63,4195.38 5463.00,4195.53              5463.00,4195.53 5451.00,4194.04 5451.00,4194.04              5451.00,4194.04 5438.00,4194.92 5438.00,4194.92              5438.00,4194.92 5427.00,4194.09 5427.00,4194.09              5427.00,4194.09 5411.00,4197.19 5411.00,4197.19              5411.00,4197.19 5400.00,4197.19 5400.00,4197.19              5400.00,4197.19 5389.00,4198.92 5389.00,4198.92              5389.00,4198.92 5376.00,4198.04 5376.00,4198.04              5376.00,4198.04 5354.00,4200.00 5354.00,4200.00              5337.31,4200.19 5343.75,4198.99 5332.00,4197.30              5332.00,4197.30 5311.00,4196.00 5311.00,4196.00              5311.00,4196.00 5276.00,4196.00 5276.00,4196.00              5276.00,4196.00 5264.00,4196.96 5264.00,4196.96              5264.00,4196.96 5251.00,4196.96 5251.00,4196.96              5251.00,4196.96 5237.00,4197.91 5237.00,4197.91              5237.00,4197.91 5226.00,4197.00 5226.00,4197.00              5226.00,4197.00 5192.00,4196.00 5192.00,4196.00              5192.00,4196.00 5182.00,4196.96 5182.00,4196.96              5182.00,4196.96 5165.00,4196.96 5165.00,4196.96              5165.00,4196.96 5146.00,4198.88 5146.00,4198.88              5139.89,4198.44 5137.69,4194.61 5127.00,4195.04              5120.53,4195.30 5118.46,4197.17 5114.00,4197.98              5114.00,4197.98 5103.00,4197.98 5103.00,4197.98              5103.00,4197.98 5072.00,4200.96 5072.00,4200.96              5065.53,4201.23 5060.26,4199.77 5054.00,4199.09              5054.00,4199.09 5038.00,4199.09 5038.00,4199.09              5038.00,4199.09 5022.00,4200.45 5022.00,4200.45              5012.71,4199.44 5007.01,4195.06 4995.00,4195.23              4995.00,4195.23 4975.00,4195.23 4975.00,4195.23              4975.00,4195.23 4966.00,4198.37 4966.00,4198.37              4962.47,4199.33 4959.52,4198.80 4956.00,4199.17              4951.93,4199.61 4949.23,4201.03 4945.00,4200.67              4945.00,4200.67 4937.00,4199.29 4937.00,4199.29              4937.00,4199.29 4917.00,4198.00 4917.00,4198.00              4917.00,4198.00 4886.00,4201.66 4886.00,4201.66              4881.54,4201.66 4866.54,4198.99 4862.00,4197.70              4854.69,4195.62 4853.71,4193.69 4845.00,4194.04              4835.29,4194.43 4830.15,4198.95 4820.00,4199.23              4820.00,4199.23 4800.00,4199.23 4800.00,4199.23              4800.00,4199.23 4789.00,4202.53 4789.00,4202.53              4789.00,4202.53 4777.00,4203.30 4777.00,4203.30              4773.31,4203.83 4770.91,4205.04 4767.00,4204.66              4767.00,4204.66 4760.00,4203.30 4760.00,4203.30              4760.00,4203.30 4739.00,4202.01 4739.00,4202.01              4739.00,4202.01 4715.00,4203.66 4715.00,4203.66              4715.00,4203.66 4708.00,4203.02 4708.00,4203.02              4708.00,4203.02 4696.00,4203.02 4696.00,4203.02              4696.00,4203.02 4667.00,4205.00 4667.00,4205.00              4667.00,4205.00 4624.00,4204.13 4624.00,4204.13              4624.00,4204.13 4615.00,4204.13 4615.00,4204.13              4615.00,4204.13 4599.00,4203.04 4599.00,4203.04              4599.00,4203.04 4588.00,4203.04 4588.00,4203.04              4588.00,4203.04 4578.00,4204.00 4578.00,4204.00              4578.00,4204.00 4546.00,4202.00 4546.00,4202.00              4546.00,4202.00 4530.00,4202.00 4530.00,4202.00              4525.85,4202.01 4513.79,4202.98 4510.00,4203.90              4506.11,4204.84 4501.24,4207.40 4498.00,4207.51              4493.94,4207.63 4488.01,4205.89 4484.00,4205.30              4475.70,4204.07 4467.38,4203.91 4459.00,4204.00              4450.57,4204.10 4448.75,4206.07 4442.00,4206.83              4442.00,4206.83 4410.00,4208.00 4410.00,4208.00              4410.00,4208.00 4393.00,4206.00 4393.00,4206.00              4393.00,4206.00 4377.00,4207.00 4377.00,4207.00              4377.00,4207.00 4357.00,4207.00 4357.00,4207.00              4357.00,4207.00 4342.00,4208.66 4342.00,4208.66              4342.00,4208.66 4314.00,4206.00 4314.00,4206.00              4314.00,4206.00 4298.00,4206.00 4298.00,4206.00              4298.00,4206.00 4272.00,4207.66 4272.00,4207.66              4268.15,4207.61 4266.09,4206.04 4258.00,4206.00              4258.00,4206.00 4224.00,4206.00 4224.00,4206.00              4224.00,4206.00 4201.00,4207.30 4201.00,4207.30              4201.00,4207.30 4194.00,4208.70 4194.00,4208.70              4194.00,4208.70 4186.00,4209.30 4186.00,4209.30              4186.00,4209.30 4175.00,4211.73 4175.00,4211.73              4171.82,4211.88 4168.35,4210.53 4165.00,4210.17              4165.00,4210.17 4144.00,4209.09 4144.00,4209.09              4144.00,4209.09 4130.00,4210.00 4130.00,4210.00              4119.93,4209.87 4119.61,4206.72 4112.00,4201.00              4103.14,4194.35 4097.73,4189.57 4086.00,4190.04              4079.28,4190.31 4072.14,4192.91 4067.04,4197.33              4063.23,4200.62 4062.08,4203.51 4059.68,4204.98              4057.96,4206.03 4054.20,4206.35 4052.00,4206.92              4044.04,4208.99 4036.29,4210.99 4028.00,4211.00              4028.00,4211.00 4020.00,4211.00 4020.00,4211.00              4020.00,4211.00 4005.00,4212.00 4005.00,4212.00              4005.00,4212.00 3997.00,4212.00 3997.00,4212.00              3997.00,4212.00 3980.00,4210.09 3980.00,4210.09              3980.00,4210.09 3963.00,4213.68 3963.00,4213.68              3963.00,4213.68 3954.00,4214.30 3954.00,4214.30              3954.00,4214.30 3944.00,4216.79 3944.00,4216.79              3944.00,4216.79 3910.00,4219.23 3910.00,4219.23              3910.00,4219.23 3900.00,4219.23 3900.00,4219.23              3900.00,4219.23 3881.00,4217.00 3881.00,4217.00              3871.25,4216.89 3859.49,4218.55 3850.00,4220.90              3850.00,4220.90 3838.00,4224.75 3838.00,4224.75              3838.00,4224.75 3825.00,4224.00 3825.00,4224.00              3815.28,4223.98 3805.65,4224.02 3796.00,4225.29              3796.00,4225.29 3771.00,4228.82 3771.00,4228.82              3767.14,4228.54 3765.33,4227.79 3761.00,4228.09              3761.00,4228.09 3750.00,4229.90 3750.00,4229.90              3743.47,4230.18 3742.01,4227.12 3732.00,4227.00              3732.00,4227.00 3717.00,4227.00 3717.00,4227.00              3700.71,4226.81 3701.38,4223.23 3692.00,4220.22              3684.47,4217.81 3672.93,4216.09 3665.00,4216.00              3665.00,4216.00 3651.00,4214.91 3651.00,4214.91              3651.00,4214.91 3636.00,4214.91 3636.00,4214.91              3636.00,4214.91 3627.00,4213.00 3627.00,4213.00              3627.00,4213.00 3617.00,4213.00 3617.00,4213.00              3609.99,4212.08 3611.93,4211.02 3602.00,4211.00              3602.00,4211.00 3581.00,4211.00 3581.00,4211.00              3581.00,4211.00 3553.00,4208.09 3553.00,4208.09              3553.00,4208.09 3537.00,4208.09 3537.00,4208.09              3537.00,4208.09 3522.00,4209.92 3522.00,4209.92              3522.00,4209.92 3511.00,4209.00 3511.00,4209.00              3511.00,4209.00 3484.00,4209.00 3484.00,4209.00              3484.00,4209.00 3470.00,4209.80 3470.00,4209.80              3464.01,4209.23 3463.60,4207.05 3453.00,4207.00              3453.00,4207.00 3439.00,4207.70 3439.00,4207.70              3439.00,4207.70 3428.00,4204.67 3428.00,4204.67              3428.00,4204.67 3408.00,4203.00 3408.00,4203.00              3408.00,4203.00 3394.00,4203.00 3394.00,4203.00              3394.00,4203.00 3374.00,4204.00 3374.00,4204.00              3359.20,4204.18 3356.37,4206.70 3344.00,4209.33              3344.00,4209.33 3334.00,4210.46 3334.00,4210.46              3327.60,4211.62 3326.50,4213.26 3319.00,4212.96              3310.58,4212.62 3302.05,4208.13 3291.00,4208.00              3281.93,4207.90 3280.72,4209.08 3273.00,4209.83              3265.30,4210.58 3265.45,4209.31 3256.00,4211.42              3245.98,4213.67 3239.64,4216.98 3229.00,4217.00              3229.00,4217.00 3207.00,4217.00 3207.00,4217.00              3207.00,4217.00 3155.00,4210.04 3155.00,4210.04              3155.00,4210.04 3128.00,4214.40 3128.00,4214.40              3128.00,4214.40 3120.00,4212.94 3120.00,4212.94              3120.00,4212.94 3110.00,4212.94 3110.00,4212.94              3102.24,4211.59 3094.95,4209.09 3087.00,4209.00              3087.00,4209.00 3074.00,4209.91 3074.00,4209.91              3067.86,4210.26 3062.97,4208.03 3057.00,4207.13              3057.00,4207.13 3038.00,4205.71 3038.00,4205.71              3038.00,4205.71 3021.00,4202.30 3021.00,4202.30              3021.00,4202.30 3008.00,4201.71 3008.00,4201.71              3008.00,4201.71 2986.00,4198.31 2986.00,4198.31              2986.00,4198.31 2974.00,4198.31 2974.00,4198.31              2968.54,4198.27 2965.86,4196.02 2955.00,4196.00              2955.00,4196.00 2936.00,4196.81 2936.00,4196.81              2929.65,4196.29 2931.31,4194.87 2920.00,4195.00              2907.20,4195.15 2903.37,4200.43 2893.00,4204.52              2890.88,4205.36 2874.12,4207.67 2872.00,4207.45              2872.00,4207.45 2865.00,4206.27 2865.00,4206.27              2865.00,4206.27 2852.00,4206.27 2852.00,4206.27              2852.00,4206.27 2844.00,4205.09 2844.00,4205.09              2844.00,4205.09 2819.00,4203.91 2819.00,4203.91              2805.10,4202.96 2811.34,4200.89 2788.00,4201.00              2788.00,4201.00 2776.00,4201.79 2776.00,4201.79              2771.55,4201.51 2770.41,4200.08 2763.00,4200.00              2752.12,4199.89 2753.17,4201.89 2744.00,4202.00              2729.18,4202.17 2735.79,4198.77 2716.00,4199.00              2716.00,4199.00 2693.00,4201.83 2693.00,4201.83              2687.97,4202.37 2685.48,4201.47 2680.00,4203.22              2672.94,4205.48 2670.73,4209.77 2666.00,4210.27              2666.00,4210.27 2651.00,4208.92 2651.00,4208.92              2651.00,4208.92 2637.00,4208.92 2637.00,4208.92              2637.00,4208.92 2623.00,4207.00 2623.00,4207.00              2610.65,4206.86 2599.42,4212.51 2587.00,4211.95              2582.26,4211.74 2578.59,4209.43 2574.00,4208.45              2574.00,4208.45 2558.00,4206.54 2558.00,4206.54              2547.34,4204.65 2542.81,4201.87 2531.00,4202.00              2519.08,4202.14 2519.65,4205.98 2507.00,4206.00              2507.00,4206.00 2486.00,4205.00 2486.00,4205.00              2486.00,4205.00 2467.00,4205.00 2467.00,4205.00              2467.00,4205.00 2447.00,4203.22 2447.00,4203.22              2447.00,4203.22 2432.00,4203.22 2432.00,4203.22              2432.00,4203.22 2424.00,4200.54 2424.00,4200.54              2418.75,4198.71 2403.31,4195.01 2398.00,4195.01              2387.03,4195.01 2385.85,4198.28 2377.00,4201.63              2367.15,4205.35 2362.35,4205.88 2352.00,4206.00              2347.72,4206.05 2338.93,4207.11 2335.00,4208.56              2331.97,4209.67 2328.77,4212.01 2326.00,4212.48              2323.89,4212.87 2312.99,4211.14 2306.00,4212.48              2299.79,4213.64 2297.82,4216.02 2294.00,4217.31              2294.00,4217.31 2272.00,4222.52 2272.00,4222.52              2272.00,4222.52 2243.00,4220.00 2243.00,4220.00              2243.00,4220.00 2227.00,4221.04 2227.00,4221.04              2227.00,4221.04 2217.00,4221.04 2217.00,4221.04              2217.00,4221.04 2207.00,4222.91 2207.00,4222.91              2207.00,4222.91 2191.00,4222.04 2191.00,4222.04              2181.41,4222.36 2174.45,4227.40 2169.00,4235.00              2169.00,4235.00 2151.00,4226.55 2151.00,4226.55              2141.40,4223.12 2138.62,4224.70 2133.00,4223.63              2133.00,4223.63 2108.00,4217.30 2108.00,4217.30              2098.13,4215.88 2093.48,4219.20 2088.00,4218.66              2088.00,4218.66 2081.00,4217.30 2081.00,4217.30              2081.00,4217.30 2068.00,4216.09 2068.00,4216.09              2068.00,4216.09 2056.00,4216.66 2056.00,4216.66              2056.00,4216.66 2049.00,4215.30 2049.00,4215.30              2049.00,4215.30 2034.00,4214.04 2034.00,4214.04              2034.00,4214.04 2019.00,4214.99 2019.00,4214.99              2019.00,4214.99 2003.00,4214.00 2003.00,4214.00              2003.00,4214.00 1989.00,4215.16 1989.00,4215.16              1989.00,4215.16 1979.00,4214.00 1979.00,4214.00              1958.55,4213.76 1964.03,4216.06 1955.00,4216.99              1955.00,4216.99 1947.00,4216.99 1947.00,4216.99              1947.00,4216.99 1932.00,4218.00 1932.00,4218.00              1920.25,4218.02 1920.61,4220.10 1913.00,4220.82              1913.00,4220.82 1900.00,4220.01 1900.00,4220.01              1893.58,4220.01 1892.85,4221.03 1889.00,4221.19              1889.00,4221.19 1881.00,4221.19 1881.00,4221.19              1881.00,4221.19 1867.00,4221.19 1867.00,4221.19              1867.00,4221.19 1859.00,4223.06 1859.00,4223.06              1859.00,4223.06 1851.00,4223.06 1851.00,4223.06              1851.00,4223.06 1840.00,4225.99 1840.00,4225.99              1840.00,4225.99 1832.00,4225.99 1832.00,4225.99              1832.00,4225.99 1821.00,4227.00 1821.00,4227.00              1821.00,4227.00 1793.00,4227.00 1793.00,4227.00              1793.00,4227.00 1772.00,4228.96 1772.00,4228.96              1772.00,4228.96 1761.00,4228.96 1761.00,4228.96              1761.00,4228.96 1751.00,4228.00 1751.00,4228.00              1751.00,4228.00 1714.00,4230.00 1714.00,4230.00              1714.00,4230.00 1695.00,4228.04 1695.00,4228.04              1695.00,4228.04 1681.00,4228.04 1681.00,4228.04              1681.00,4228.04 1674.00,4228.82 1674.00,4228.82              1674.00,4228.82 1665.00,4228.01 1665.00,4228.01              1654.44,4227.77 1652.51,4230.26 1643.00,4232.63              1633.49,4234.99 1632.63,4233.27 1626.00,4234.46              1626.00,4234.46 1613.00,4237.90 1613.00,4237.90              1613.00,4237.90 1597.00,4238.82 1597.00,4238.82              1597.00,4238.82 1581.00,4238.00 1581.00,4238.00              1581.00,4238.00 1564.00,4239.61 1564.00,4239.61              1564.00,4239.61 1556.00,4238.16 1556.00,4238.16              1546.02,4236.85 1545.77,4237.05 1536.00,4237.00              1536.00,4237.00 1520.00,4235.28 1520.00,4235.28              1520.00,4235.28 1509.00,4234.70 1509.00,4234.70              1509.00,4234.70 1501.00,4233.17 1501.00,4233.17              1501.00,4233.17 1493.00,4232.54 1493.00,4232.54              1493.00,4232.54 1482.00,4230.09 1482.00,4230.09              1482.00,4230.09 1468.00,4230.09 1468.00,4230.09              1453.60,4230.17 1447.46,4235.67 1436.00,4235.26              1414.23,4234.47 1417.22,4230.91 1404.00,4228.46              1383.87,4224.74 1380.29,4224.77 1360.00,4225.00              1356.85,4225.04 1345.85,4226.16 1343.00,4226.93              1333.20,4229.58 1335.90,4231.98 1322.00,4232.00              1322.00,4232.00 1315.00,4232.00 1315.00,4232.00              1308.20,4231.92 1308.51,4231.08 1303.00,4230.30              1303.00,4230.30 1278.00,4229.17 1278.00,4229.17              1278.00,4229.17 1260.00,4232.22 1260.00,4232.22              1255.26,4233.70 1252.26,4236.56 1248.00,4236.59              1241.31,4236.63 1236.63,4234.13 1231.00,4233.08              1231.00,4233.08 1218.00,4233.08 1218.00,4233.08              1213.45,4231.72 1209.82,4227.62 1199.00,4228.04              1199.00,4228.04 1188.00,4229.25 1188.00,4229.25              1188.00,4229.25 1176.00,4227.08 1176.00,4227.08              1176.00,4227.08 1155.00,4227.08 1155.00,4227.08              1142.58,4226.98 1131.58,4221.65 1119.00,4223.29              1107.98,4224.72 1104.43,4228.10 1095.00,4231.45              1084.75,4235.11 1081.53,4234.98 1071.00,4235.16              1071.00,4235.16 1062.00,4235.16 1062.00,4235.16              1062.00,4235.16 1044.00,4235.16 1044.00,4235.16              1036.40,4234.99 1030.34,4233.35 1023.00,4232.30              1023.00,4232.30 1004.00,4231.15 1004.00,4231.15              1004.00,4231.15 989.00,4231.15 989.00,4231.15              989.00,4231.15 982.00,4232.94 982.00,4232.94              982.00,4232.94 975.00,4232.94 975.00,4232.94              975.00,4232.94 962.00,4236.15 962.00,4236.15              962.00,4236.15 939.00,4243.86 939.00,4243.86              931.25,4244.96 923.73,4244.01 916.00,4243.86              916.00,4243.86 893.00,4243.86 893.00,4243.86              887.23,4242.98 887.17,4241.11 878.00,4241.00              873.44,4240.95 868.41,4240.73 864.00,4241.93              864.00,4241.93 846.00,4248.63 846.00,4248.63              846.00,4248.63 833.00,4251.63 833.00,4251.63              833.00,4251.63 825.00,4252.68 825.00,4252.68              825.00,4252.68 817.00,4255.46 817.00,4255.46              817.00,4255.46 803.00,4259.33 803.00,4259.33              803.00,4259.33 770.00,4262.11 770.00,4262.11              770.00,4262.11 761.00,4262.11 761.00,4262.11              761.00,4262.11 750.00,4261.00 750.00,4261.00              734.43,4260.83 736.27,4264.35 728.00,4265.90              714.17,4268.24 712.69,4266.14 701.00,4265.90              682.78,4265.79 683.77,4270.33 672.00,4272.53              672.00,4272.53 641.00,4275.47 641.00,4275.47              633.13,4276.95 628.96,4281.42 619.00,4280.68              619.00,4280.68 608.00,4279.63 608.00,4279.63              599.86,4278.06 602.42,4277.02 592.00,4277.00              592.00,4277.00 572.00,4277.00 572.00,4277.00              564.77,4276.97 565.10,4276.18 559.00,4275.30              559.00,4275.30 534.00,4273.00 534.00,4273.00              534.00,4273.00 515.00,4271.03 515.00,4271.03              515.00,4271.03 503.00,4272.48 503.00,4272.48              499.70,4272.70 496.84,4271.47 491.00,4272.48              491.00,4272.48 479.00,4275.11 479.00,4275.11              479.00,4275.11 467.00,4274.00 467.00,4274.00              456.04,4273.88 458.46,4275.03 451.00,4275.83              451.00,4275.83 437.00,4276.68 437.00,4276.68              437.00,4276.68 424.00,4276.01 424.00,4276.01              419.54,4276.12 416.50,4277.23 412.00,4276.56              412.00,4276.56 402.00,4273.92 402.00,4273.92              402.00,4273.92 393.00,4272.40 393.00,4272.40              382.18,4269.77 382.95,4268.86 371.00,4269.00              360.96,4269.12 350.95,4272.26 348.00,4272.39              348.00,4272.39 333.00,4271.03 333.00,4271.03              326.46,4271.03 319.78,4273.33 316.00,4273.61              316.00,4273.61 305.00,4273.09 305.00,4273.09              297.34,4273.61 289.71,4276.48 283.00,4280.00 Z            M 4912.04,1269.47            C 4906.97,1271.60 4907.61,1273.50 4905.34,1278.00              4903.67,1281.33 4900.49,1285.25 4900.32,1289.00              4900.08,1294.30 4908.56,1302.53 4913.00,1304.69              4915.29,1305.80 4917.51,1305.92 4920.00,1305.99              4923.69,1306.08 4928.73,1306.22 4931.57,1303.49              4934.46,1300.71 4934.07,1295.72 4933.99,1292.00              4933.68,1279.09 4925.99,1268.36 4912.04,1269.47 Z            M 2105.00,2877.00            C 2105.64,2887.84 2114.40,2887.90 2122.00,2883.03              2129.90,2877.97 2134.48,2869.36 2133.96,2860.00              2133.64,2854.46 2131.60,2853.57 2131.22,2850.00              2130.83,2846.37 2133.91,2840.91 2128.77,2836.51              2125.67,2833.86 2121.78,2834.18 2118.00,2833.72              2107.88,2832.47 2101.76,2834.11 2092.00,2836.63              2086.74,2837.99 2082.05,2839.42 2079.89,2845.00              2078.63,2848.25 2079.16,2852.53 2078.91,2856.00              2078.47,2862.08 2075.58,2866.82 2078.23,2872.99              2081.25,2880.05 2091.98,2883.95 2098.96,2881.27              2101.23,2880.39 2103.12,2878.50 2105.00,2877.00 Z            M 2412.00,3193.42            C 2396.38,3196.74 2399.42,3215.73 2401.74,3218.73              2405.36,3223.40 2418.42,3224.44 2424.00,3223.83              2435.47,3222.58 2434.26,3217.12 2433.15,3208.00              2432.76,3204.77 2432.63,3200.99 2430.30,3198.43              2428.26,3196.19 2415.28,3193.46 2412.00,3193.42 Z            M 5254.00,3735.43            C 5249.82,3737.08 5246.81,3739.45 5245.57,3744.00              5243.68,3750.93 5248.91,3756.66 5256.00,3755.20              5260.08,3754.36 5265.86,3751.86 5267.81,3747.96              5271.09,3741.39 5263.83,3734.16 5254.00,3735.43 Z            M 4019.00,3942.30            C 4016.65,3942.68 4013.17,3943.16 4011.12,3944.31              4005.69,3947.35 4006.66,3953.90 4011.12,3957.30              4014.57,3959.92 4018.89,3959.98 4023.00,3960.00              4026.24,3960.01 4031.03,3960.25 4033.89,3958.69              4038.86,3955.97 4039.05,3949.15 4034.77,3945.70              4031.33,3942.91 4023.34,3942.07 4019.00,3942.30 Z"
            style="fill:#000000;fill-opacity:1"/>
</svg>
