<?xml version="1.0" encoding="UTF-8" standalone="no"?>
<svg
        width="172.255mm"
        height="97.1975mm"
        viewBox="0 0 8138 4592"
        version="1.1"
        id="svg1148"
        sodipodi:docname="sheet9b.svg"
        inkscape:version="1.1.1 (3bf5ae0d25, 2021-09-20)"
        xmlns:inkscape="http://www.inkscape.org/namespaces/inkscape"
        xmlns:sodipodi="http://sodipodi.sourceforge.net/DTD/sodipodi-0.dtd"
        xmlns="http://www.w3.org/2000/svg"
>
    <defs
            id="defs1152"/>
    <sodipodi:namedview
            id="namedview1150"
            pagecolor="#ffffff"
            bordercolor="#666666"
            borderopacity="1.0"
            inkscape:pageshadow="2"
            inkscape:pageopacity="0.0"
            inkscape:pagecheckerboard="0"
            inkscape:document-units="mm"
            showgrid="false"
            inkscape:zoom="1.6250858"
            inkscape:cx="325.21359"
            inkscape:cy="183.68261"
            inkscape:window-width="1920"
            inkscape:window-height="1001"
            inkscape:window-x="-7"
            inkscape:window-y="-7"
            inkscape:window-maximized="1"
            inkscape:current-layer="svg1148"/>
    <path
            id="Selection #1"
            fill="none"
            stroke="black"
            stroke-width="1"
            d="M 148.00,4488.00            C 147.96,4473.66 141.41,4463.37 128.00,4457.44              128.00,4457.44 112.38,4452.40 112.38,4452.40              109.94,4450.47 108.84,4446.68 103.96,4442.18              99.12,4437.73 94.76,4436.66 92.56,4434.37              92.56,4434.37 86.90,4424.00 86.90,4424.00              86.90,4424.00 80.85,4416.00 80.85,4416.00              80.85,4416.00 76.52,4406.00 76.52,4406.00              71.41,4397.40 70.24,4400.83 67.61,4386.00              67.61,4386.00 66.70,4375.00 66.70,4375.00              66.70,4375.00 64.94,4367.00 64.94,4367.00              64.94,4367.00 64.94,4358.00 64.94,4358.00              64.94,4358.00 63.04,4350.00 63.04,4350.00              63.04,4350.00 63.04,4342.00 63.04,4342.00              63.04,4342.00 60.83,4318.00 60.83,4318.00              59.55,4306.71 53.60,4304.61 54.02,4293.00              54.26,4286.12 62.11,4273.19 64.03,4266.00              65.72,4259.98 64.08,4248.16 64.03,4241.00              63.91,4234.06 60.77,4224.45 59.46,4217.00              59.46,4217.00 58.83,4202.00 58.83,4202.00              58.83,4202.00 57.30,4194.00 57.30,4194.00              57.30,4194.00 56.11,4180.00 56.11,4180.00              55.74,4174.95 55.43,4164.80 56.11,4160.00              57.00,4154.03 59.28,4149.13 58.91,4143.00              58.67,4139.19 57.16,4135.83 57.55,4132.00              57.55,4132.00 58.91,4125.00 58.91,4125.00              58.91,4125.00 58.91,4112.00 58.91,4112.00              58.91,4112.00 56.53,4090.00 56.53,4090.00              56.53,4090.00 54.11,4081.00 54.11,4081.00              54.11,4081.00 54.11,4071.00 54.11,4071.00              54.11,4071.00 55.96,4053.00 55.96,4053.00              55.96,4053.00 55.08,4044.00 55.08,4044.00              55.08,4039.63 56.40,4037.22 55.91,4030.00              55.91,4030.00 53.72,4000.00 53.72,4000.00              53.77,3995.41 55.23,3993.95 54.96,3987.00              54.96,3987.00 54.00,3973.00 54.00,3973.00              54.11,3963.75 56.16,3965.29 56.00,3951.00              56.00,3951.00 55.05,3941.00 55.05,3941.00              55.05,3941.00 55.05,3928.00 55.05,3928.00              55.05,3928.00 57.00,3905.00 57.00,3905.00              56.98,3892.59 53.71,3891.22 54.12,3885.00              54.50,3879.18 57.87,3876.37 57.85,3866.00              57.85,3866.00 57.85,3853.00 57.85,3853.00              57.85,3853.00 56.09,3845.00 56.09,3845.00              56.09,3845.00 56.09,3833.00 56.09,3833.00              56.09,3833.00 52.55,3801.00 52.55,3801.00              52.55,3801.00 53.70,3795.00 53.70,3795.00              53.70,3795.00 57.00,3761.00 57.00,3761.00              57.00,3761.00 56.47,3746.00 56.47,3746.00              56.47,3746.00 57.91,3738.00 57.91,3738.00              57.91,3738.00 57.91,3723.00 57.91,3723.00              57.91,3723.00 57.09,3710.00 57.09,3710.00              57.09,3710.00 57.96,3700.00 57.96,3700.00              57.96,3700.00 57.04,3687.00 57.04,3687.00              57.04,3687.00 59.00,3669.00 59.00,3669.00              59.00,3669.00 60.00,3623.00 60.00,3623.00              60.00,3623.00 60.96,3609.00 60.96,3609.00              60.73,3602.05 58.98,3602.38 59.00,3588.00              59.00,3588.00 59.96,3572.00 59.96,3572.00              59.96,3572.00 58.55,3561.00 58.55,3561.00              58.55,3561.00 60.70,3552.00 60.70,3552.00              60.70,3552.00 62.00,3532.00 62.00,3532.00              61.87,3521.24 59.02,3523.05 59.00,3511.00              59.00,3511.00 59.00,3499.00 59.00,3499.00              59.00,3499.00 60.00,3481.00 60.00,3481.00              60.00,3481.00 58.00,3458.00 58.00,3458.00              58.06,3446.89 61.97,3446.93 61.97,3437.00              61.97,3437.00 59.96,3419.00 59.96,3419.00              59.96,3419.00 59.96,3404.00 59.96,3404.00              59.96,3404.00 59.04,3393.00 59.04,3393.00              59.04,3393.00 60.00,3381.00 60.00,3381.00              60.00,3381.00 61.09,3355.00 61.09,3355.00              61.09,3355.00 61.97,3346.00 61.97,3346.00              61.97,3340.84 60.93,3339.41 60.30,3335.00              60.30,3335.00 58.75,3314.00 58.75,3314.00              58.93,3309.73 62.61,3302.85 62.96,3294.00              63.26,3286.48 61.39,3284.81 61.84,3280.00              61.84,3280.00 63.00,3264.00 63.00,3264.00              63.00,3264.00 60.37,3236.00 60.37,3236.00              60.37,3236.00 61.00,3225.00 61.00,3225.00              61.00,3225.00 60.10,3208.00 60.10,3208.00              60.35,3202.97 62.27,3200.32 61.91,3194.00              61.91,3194.00 60.00,3170.00 60.00,3170.00              60.00,3170.00 60.00,3152.00 60.00,3152.00              60.00,3152.00 59.37,3140.00 59.37,3140.00              59.37,3140.00 61.00,3118.00 61.00,3118.00              61.00,3118.00 60.09,3101.00 60.09,3101.00              60.09,3101.00 61.70,3092.00 61.70,3092.00              61.70,3092.00 62.91,3068.00 62.91,3068.00              62.91,3068.00 61.92,3060.00 61.92,3060.00              61.92,3060.00 61.92,3051.00 61.92,3051.00              61.92,3051.00 61.92,3034.00 61.92,3034.00              61.92,3034.00 63.00,3018.00 63.00,3018.00              63.00,3018.00 62.00,3000.00 62.00,3000.00              62.00,3000.00 64.91,2970.00 64.91,2970.00              64.91,2970.00 64.91,2952.00 64.91,2952.00              64.24,2946.47 63.09,2946.43 63.00,2939.00              62.83,2923.47 67.44,2923.84 66.96,2912.00              66.70,2905.53 64.83,2903.46 64.02,2899.00              64.02,2899.00 64.02,2885.00 64.02,2885.00              63.43,2881.32 62.17,2878.77 62.55,2875.00              62.55,2875.00 63.91,2868.00 63.91,2868.00              63.91,2868.00 63.91,2854.00 63.91,2854.00              63.91,2854.00 63.26,2844.00 63.26,2844.00              63.42,2839.99 65.26,2837.15 64.91,2831.00              64.91,2831.00 63.47,2807.00 63.47,2807.00              63.68,2802.58 64.99,2802.58 64.76,2793.00              64.76,2793.00 64.76,2771.00 64.76,2771.00              64.76,2771.00 65.91,2755.00 65.91,2755.00              65.91,2755.00 64.30,2746.00 64.30,2746.00              64.30,2746.00 62.26,2724.00 62.26,2724.00              62.26,2724.00 64.00,2704.00 64.00,2704.00              64.00,2704.00 63.01,2689.00 63.01,2689.00              63.01,2689.00 63.96,2673.00 63.96,2673.00              63.96,2673.00 62.46,2662.00 62.46,2662.00              62.61,2655.67 66.34,2648.66 65.91,2641.00              65.91,2641.00 65.02,2633.00 65.02,2633.00              65.02,2633.00 65.02,2615.00 65.02,2615.00              65.02,2615.00 64.34,2604.00 64.34,2604.00              64.34,2604.00 64.98,2597.00 64.98,2597.00              64.98,2597.00 64.98,2576.00 64.98,2576.00              64.98,2576.00 65.97,2562.00 65.97,2562.00              65.97,2562.00 64.09,2543.00 64.09,2543.00              64.09,2543.00 65.70,2534.00 65.70,2534.00              65.70,2534.00 66.96,2517.00 66.96,2517.00              66.96,2517.00 66.02,2508.00 66.02,2508.00              66.02,2508.00 66.02,2490.00 66.02,2490.00              66.02,2490.00 66.97,2476.00 66.97,2476.00              66.97,2476.00 66.00,2464.00 66.00,2464.00              66.00,2464.00 67.06,2445.00 67.06,2445.00              67.06,2445.00 67.06,2438.00 67.06,2438.00              67.99,2432.43 70.97,2426.87 70.97,2418.00              70.97,2412.84 69.93,2411.41 69.30,2407.00              69.30,2407.00 67.66,2387.00 67.66,2387.00              67.66,2387.00 67.66,2379.00 67.66,2379.00              67.66,2379.00 67.66,2372.00 67.66,2372.00              67.65,2368.06 69.25,2366.17 68.96,2359.00              68.96,2359.00 67.18,2347.00 67.18,2347.00              67.18,2347.00 67.96,2340.00 67.96,2340.00              67.96,2340.00 67.96,2330.00 67.96,2330.00              67.96,2330.00 69.00,2315.00 69.00,2315.00              69.00,2315.00 69.78,2298.00 69.78,2298.00              69.78,2298.00 69.77,2290.00 69.77,2290.00              69.77,2290.00 69.77,2280.00 69.77,2280.00              69.77,2280.00 69.77,2268.00 69.77,2268.00              70.12,2261.98 72.22,2261.22 71.99,2251.00              71.99,2251.00 70.04,2234.00 70.04,2234.00              70.04,2234.00 73.36,2219.00 73.36,2219.00              74.89,2211.38 72.78,2208.36 73.36,2203.00              73.85,2194.18 76.98,2193.85 77.00,2181.00              77.00,2181.00 76.00,2152.00 76.00,2152.00              75.91,2144.55 74.76,2144.54 74.04,2139.00              74.04,2139.00 74.04,2131.00 74.04,2131.00              74.04,2131.00 73.00,2111.00 73.00,2111.00              73.00,2111.00 73.73,2100.00 73.73,2100.00              73.73,2100.00 73.73,2090.00 73.73,2090.00              73.73,2090.00 74.96,2075.00 74.96,2075.00              74.74,2068.58 72.50,2065.66 72.38,2062.00              72.38,2062.00 73.96,2051.00 73.96,2051.00              73.96,2051.00 73.18,2040.00 73.18,2040.00              73.18,2040.00 73.96,2029.00 73.96,2029.00              73.96,2029.00 71.09,2013.00 71.09,2013.00              71.09,2013.00 72.00,1996.00 72.00,1996.00              72.00,1996.00 71.32,1966.00 71.32,1966.00              71.32,1966.00 74.97,1939.00 74.97,1939.00              74.97,1939.00 74.26,1930.00 74.26,1930.00              74.34,1926.93 75.17,1925.24 74.91,1921.00              74.57,1915.49 72.53,1912.51 73.10,1906.00              73.10,1906.00 75.70,1895.00 75.70,1895.00              75.70,1895.00 76.91,1871.00 76.91,1871.00              76.91,1871.00 73.26,1847.00 73.26,1847.00              73.26,1847.00 75.15,1822.00 75.15,1822.00              75.15,1822.00 75.15,1812.00 75.15,1812.00              75.93,1807.60 76.97,1806.15 76.97,1801.00              76.97,1795.85 75.93,1794.40 75.30,1790.00              75.30,1790.00 74.26,1776.00 74.26,1776.00              74.26,1776.00 75.97,1763.00 75.97,1763.00              75.97,1763.00 73.17,1746.00 73.17,1746.00              73.17,1746.00 74.10,1732.00 74.10,1732.00              74.10,1732.00 74.10,1719.00 74.10,1719.00              74.78,1714.89 76.50,1712.66 76.91,1707.00              76.91,1707.00 75.18,1683.00 75.18,1683.00              75.18,1683.00 76.91,1669.00 76.91,1669.00              76.91,1669.00 76.91,1655.00 76.91,1655.00              76.91,1655.00 75.79,1648.00 75.79,1648.00              75.79,1648.00 75.79,1636.00 75.79,1636.00              75.79,1636.00 73.79,1616.00 73.79,1616.00              73.75,1613.20 76.06,1607.22 76.00,1595.00              76.00,1595.00 75.18,1584.00 75.18,1584.00              75.18,1584.00 75.95,1577.00 75.95,1577.00              75.95,1577.00 75.95,1561.00 75.95,1561.00              75.95,1561.00 75.32,1550.00 75.32,1550.00              76.41,1535.50 81.58,1534.26 81.96,1523.00              82.25,1514.14 78.96,1511.12 78.21,1506.00              77.61,1501.87 78.69,1498.87 78.91,1495.00              79.45,1485.34 75.57,1487.12 78.17,1473.00              79.91,1463.54 84.40,1459.83 83.96,1449.00              83.54,1438.52 79.14,1438.40 79.00,1428.00              79.00,1428.00 79.00,1424.00 79.00,1424.00              79.00,1424.00 80.60,1409.00 80.60,1409.00              80.60,1409.00 82.85,1401.00 82.85,1401.00              82.85,1401.00 82.85,1385.00 82.85,1385.00              82.85,1385.00 81.02,1369.00 81.02,1369.00              81.02,1369.00 81.98,1354.00 81.98,1354.00              81.98,1354.00 81.98,1339.00 81.98,1339.00              81.98,1339.00 81.08,1329.00 81.08,1329.00              81.08,1329.00 81.99,1319.00 81.99,1319.00              82.14,1312.11 80.49,1305.75 79.77,1299.00              79.32,1294.86 81.10,1292.08 81.85,1288.00              81.85,1288.00 81.85,1275.00 81.85,1275.00              82.13,1264.54 86.73,1253.73 85.91,1242.00              85.91,1242.00 83.10,1222.00 83.10,1222.00              80.70,1212.09 78.72,1214.28 79.01,1202.00              79.01,1202.00 80.96,1181.00 80.96,1181.00              80.96,1181.00 80.39,1170.00 80.39,1170.00              80.39,1170.00 82.00,1162.00 82.00,1162.00              82.00,1162.00 82.00,1155.00 82.00,1155.00              82.00,1155.00 82.00,1132.00 82.00,1132.00              82.00,1132.00 83.00,1118.00 83.00,1118.00              83.00,1118.00 83.00,1101.00 83.00,1101.00              83.00,1101.00 83.99,1088.00 83.99,1088.00              83.99,1088.00 83.47,1076.00 83.47,1076.00              83.47,1076.00 84.83,1068.00 84.83,1068.00              84.83,1068.00 86.00,1048.00 86.00,1048.00              86.00,1048.00 83.32,1027.00 83.32,1027.00              83.32,1027.00 81.21,1019.00 81.21,1019.00              81.21,1019.00 82.00,1004.00 82.00,1004.00              82.00,1004.00 82.00,984.00 82.00,984.00              82.00,984.00 83.00,968.00 83.00,968.00              83.00,968.00 85.00,939.00 85.00,939.00              85.00,939.00 85.00,923.00 85.00,923.00              85.00,923.00 83.21,905.00 83.21,905.00              83.21,905.00 84.00,894.00 84.00,894.00              84.00,894.00 84.00,863.00 84.00,863.00              84.04,853.93 85.68,853.54 85.96,847.00              85.96,847.00 85.00,830.00 85.00,830.00              85.00,830.00 86.00,809.00 86.00,809.00              86.13,799.41 90.40,796.87 89.96,786.00              89.67,778.69 87.06,776.31 87.13,771.00              87.13,771.00 90.96,747.00 90.96,747.00              90.67,738.31 86.62,733.43 86.38,729.00              86.38,729.00 88.67,713.00 88.67,713.00              88.67,713.00 88.67,698.00 88.67,698.00              89.34,685.02 87.76,688.54 87.58,681.00              87.58,681.00 89.00,660.00 89.00,660.00              89.00,660.00 88.00,645.00 88.00,645.00              88.00,645.00 88.00,608.00 88.00,608.00              88.00,608.00 88.95,598.00 88.95,598.00              88.95,598.00 88.95,584.00 88.95,584.00              88.95,584.00 88.21,573.00 88.21,573.00              88.49,568.61 90.25,566.54 89.96,559.00              89.96,559.00 89.00,541.00 89.00,541.00              89.00,541.00 90.00,529.00 90.00,529.00              90.00,529.00 90.00,520.00 90.00,520.00              90.00,520.00 90.96,510.00 90.96,510.00              90.96,510.00 89.19,499.00 89.19,499.00              89.19,499.00 89.91,487.00 89.91,487.00              89.91,487.00 88.08,473.00 88.08,473.00              88.08,473.00 90.79,455.00 90.79,455.00              91.38,449.74 90.34,447.25 90.79,444.00              90.79,444.00 90.79,433.00 90.79,433.00              90.79,433.00 90.79,416.00 90.79,416.00              90.79,416.00 90.04,402.00 90.04,402.00              90.04,402.00 91.91,390.00 91.91,390.00              91.91,390.00 91.18,378.00 91.18,378.00              91.62,372.21 93.00,370.92 93.00,363.00              93.00,363.00 92.00,347.00 92.00,347.00              92.00,347.00 92.00,320.00 92.00,320.00              92.00,320.00 91.00,305.00 91.00,305.00              91.00,305.00 91.00,287.00 91.00,287.00              91.00,287.00 92.96,267.00 92.96,267.00              92.96,267.00 92.00,252.00 92.00,252.00              92.00,252.00 94.96,225.00 94.96,225.00              94.96,225.00 94.09,214.00 94.09,214.00              94.31,210.18 95.16,208.47 94.91,204.00              94.73,200.82 94.06,199.45 94.32,196.00              94.32,196.00 95.91,170.00 95.91,170.00              95.91,170.00 94.09,160.00 94.09,160.00              94.09,160.00 94.09,146.00 94.09,146.00              94.05,136.14 96.04,136.32 96.83,129.00              97.76,120.34 97.47,110.12 101.07,102.00              101.07,102.00 105.12,95.00 105.12,95.00              108.04,89.78 109.87,81.06 116.09,78.60              122.03,76.25 128.35,80.47 134.00,81.75              134.00,81.75 157.00,81.75 157.00,81.75              162.97,81.72 165.13,80.12 170.00,79.08              170.00,79.08 181.00,79.08 181.00,79.08              181.00,79.08 190.00,77.21 190.00,77.21              195.47,76.93 199.01,80.40 207.00,79.91              207.00,79.91 215.00,78.71 215.00,78.71              215.00,78.71 231.00,78.71 231.00,78.71              234.93,79.76 237.67,83.34 246.00,83.91              253.78,84.44 259.57,81.33 265.00,81.84              265.00,81.84 282.00,84.00 282.00,84.00              282.00,84.00 297.00,83.30 297.00,83.30              297.00,83.30 308.00,85.91 308.00,85.91              308.00,85.91 331.00,85.91 331.00,85.91              331.00,85.91 343.00,85.04 343.00,85.04              343.00,85.04 359.00,85.04 359.00,85.04              359.00,85.04 377.00,83.00 377.00,83.00              385.65,82.90 390.44,83.21 399.00,84.17              406.39,84.99 406.01,85.99 415.00,86.00              415.00,86.00 455.00,88.00 455.00,88.00              467.34,87.85 487.55,81.72 500.00,79.05              509.13,77.21 508.13,78.81 516.00,79.05              516.00,79.05 549.00,76.04 549.00,76.04              555.19,76.31 568.33,81.41 580.00,80.96              580.00,80.96 617.00,78.32 617.00,78.32              617.00,78.32 647.00,81.91 647.00,81.91              647.00,81.91 675.00,79.64 675.00,79.64              681.48,80.26 684.47,84.93 693.00,86.50              700.00,87.85 705.62,86.05 709.00,86.50              709.00,86.50 719.00,88.83 719.00,88.83              719.00,88.83 732.00,89.52 732.00,89.52              737.04,90.58 740.28,92.49 746.00,92.91              750.57,93.25 772.36,91.40 777.00,90.53              784.80,89.07 786.17,87.12 796.00,87.00              796.00,87.00 812.00,87.87 812.00,87.87              812.00,87.87 825.00,87.87 825.00,87.87              825.00,87.87 842.00,89.00 842.00,89.00              850.32,88.90 854.45,86.68 859.00,86.47              859.00,86.47 877.00,87.96 877.00,87.96              877.00,87.96 885.00,87.04 885.00,87.04              885.00,87.04 898.00,87.04 898.00,87.04              898.00,87.04 918.00,85.04 918.00,85.04              918.00,85.04 930.00,86.79 930.00,86.79              930.00,86.79 939.00,86.79 939.00,86.79              939.00,86.79 946.00,88.00 946.00,88.00              946.00,88.00 953.00,88.00 953.00,88.00              953.00,88.00 980.00,91.00 980.00,91.00              980.00,91.00 990.00,90.04 990.00,90.04              990.00,90.04 1004.00,90.04 1004.00,90.04              1012.96,90.01 1012.90,91.12 1020.00,91.92              1020.00,91.92 1029.00,91.92 1029.00,91.92              1029.00,91.92 1041.00,92.98 1041.00,92.98              1041.00,92.98 1052.00,92.02 1052.00,92.02              1052.00,92.02 1063.00,92.02 1063.00,92.02              1063.00,92.02 1070.00,91.21 1070.00,91.21              1070.00,91.21 1081.00,92.00 1081.00,92.00              1081.00,92.00 1110.00,88.36 1110.00,88.36              1114.49,88.91 1119.55,91.88 1124.00,93.07              1129.45,94.54 1132.81,93.67 1138.00,94.17              1143.01,94.65 1149.08,96.18 1154.00,95.91              1154.00,95.91 1161.00,95.30 1161.00,95.30              1165.71,95.63 1170.18,98.88 1180.00,99.00              1180.00,99.00 1201.00,96.89 1201.00,96.89              1201.00,96.89 1211.00,96.89 1211.00,96.89              1211.00,96.89 1225.00,94.17 1225.00,94.17              1225.00,94.17 1241.00,94.91 1241.00,94.91              1246.55,94.53 1247.40,93.09 1255.00,92.92              1255.00,92.92 1263.00,92.92 1263.00,92.92              1266.67,92.44 1269.24,91.20 1273.00,91.37              1273.00,91.37 1284.00,92.83 1284.00,92.83              1284.00,92.83 1302.00,94.21 1302.00,94.21              1307.95,95.05 1308.25,97.23 1319.00,96.99              1319.00,96.99 1331.00,95.34 1331.00,95.34              1335.12,95.34 1336.73,97.20 1346.00,96.99              1357.80,96.71 1359.94,91.59 1365.00,90.68              1368.51,90.05 1371.09,92.27 1379.00,91.96              1379.00,91.96 1386.00,91.35 1386.00,91.35              1386.00,91.35 1397.00,93.70 1397.00,93.70              1397.00,93.70 1405.00,94.32 1405.00,94.32              1405.00,94.32 1414.00,96.54 1414.00,96.54              1414.00,96.54 1442.00,98.97 1442.00,98.97              1453.46,98.97 1466.34,93.76 1471.00,93.22              1471.00,93.22 1488.00,94.00 1488.00,94.00              1488.00,94.00 1498.00,93.09 1498.00,93.09              1498.00,93.09 1519.00,91.91 1519.00,91.91              1519.00,91.91 1527.00,90.73 1527.00,90.73              1531.35,90.81 1533.87,94.19 1541.00,95.40              1548.54,96.96 1554.71,95.09 1559.00,95.40              1559.00,95.40 1574.00,97.91 1574.00,97.91              1583.03,98.50 1584.09,95.08 1599.00,96.02              1599.00,96.02 1618.00,97.32 1618.00,97.32              1618.00,97.32 1630.00,99.91 1630.00,99.91              1630.00,99.91 1644.00,99.25 1644.00,99.25              1649.80,99.81 1648.84,101.98 1661.00,102.00              1661.00,102.00 1696.00,102.00 1696.00,102.00              1696.00,102.00 1713.00,103.00 1713.00,103.00              1713.00,103.00 1756.00,101.83 1756.00,101.83              1756.00,101.83 1770.00,98.37 1770.00,98.37              1770.00,98.37 1785.00,97.37 1785.00,97.37              1785.00,97.37 1798.00,98.98 1798.00,98.98              1798.00,98.98 1818.00,98.00 1818.00,98.00              1818.00,98.00 1834.00,99.99 1834.00,99.99              1834.00,99.99 1851.00,99.00 1851.00,99.00              1860.33,98.99 1862.62,99.43 1872.00,97.11              1872.00,97.11 1878.00,95.68 1878.00,95.68              1881.89,95.30 1886.77,97.38 1891.00,97.83              1897.86,98.56 1901.69,97.00 1906.00,97.32              1906.00,97.32 1937.00,100.00 1937.00,100.00              1937.00,100.00 1966.00,102.83 1966.00,102.83              1966.00,102.83 1985.00,104.09 1985.00,104.09              1985.00,104.09 1997.00,104.96 1997.00,104.96              1997.00,104.96 2015.00,104.96 2015.00,104.96              2015.00,104.96 2024.00,103.69 2024.00,103.69              2024.00,103.69 2034.00,103.69 2034.00,103.69              2034.00,103.69 2052.00,102.00 2052.00,102.00              2052.00,102.00 2071.00,102.00 2071.00,102.00              2071.00,102.00 2087.00,101.09 2087.00,101.09              2092.91,101.52 2094.42,103.27 2102.00,102.96              2109.56,102.66 2112.15,100.00 2116.00,99.69              2116.00,99.69 2131.00,99.69 2131.00,99.69              2131.00,99.69 2145.00,97.46 2145.00,97.46              2145.00,97.46 2153.00,96.54 2153.00,96.54              2157.31,95.77 2161.56,94.14 2166.00,94.53              2166.00,94.53 2196.00,98.91 2196.00,98.91              2199.81,98.69 2201.55,97.84 2206.00,98.09              2206.00,98.09 2231.00,99.91 2231.00,99.91              2231.00,99.91 2252.00,101.30 2252.00,101.30              2252.00,101.30 2265.00,103.81 2265.00,103.81              2265.00,103.81 2271.00,106.65 2271.00,106.65              2276.65,109.13 2282.87,110.12 2289.00,109.99              2300.33,109.73 2314.54,105.07 2316.00,104.98              2319.83,104.75 2324.93,107.89 2334.00,108.00              2334.00,108.00 2347.00,108.00 2347.00,108.00              2347.00,108.00 2366.00,109.00 2366.00,109.00              2375.66,108.88 2378.59,105.74 2384.00,106.36              2388.85,106.92 2391.26,109.37 2401.00,108.96              2401.00,108.96 2413.00,106.94 2413.00,106.94              2413.00,106.94 2425.00,106.94 2425.00,106.94              2425.00,106.94 2434.00,105.18 2434.00,105.18              2439.76,105.15 2446.37,106.90 2452.00,107.85              2452.00,107.85 2461.00,107.85 2461.00,107.85              2461.00,107.85 2471.00,108.96 2471.00,108.96              2471.00,108.96 2486.00,108.96 2486.00,108.96              2486.00,108.96 2500.00,110.00 2500.00,110.00              2500.00,110.00 2518.00,108.18 2518.00,108.18              2518.00,108.18 2542.00,111.91 2542.00,111.91              2542.00,111.91 2567.00,109.00 2567.00,109.00              2567.00,109.00 2589.00,109.00 2589.00,109.00              2589.00,109.00 2607.00,107.00 2607.00,107.00              2607.00,107.00 2624.00,106.49 2624.00,106.49              2628.98,106.83 2630.18,109.00 2640.00,109.00              2640.00,109.00 2658.00,107.46 2658.00,107.46              2662.56,107.40 2665.00,109.39 2672.00,108.91              2672.00,108.91 2682.00,107.17 2682.00,107.17              2682.00,107.17 2706.00,105.75 2706.00,105.75              2706.00,105.75 2713.00,105.75 2713.00,105.75              2713.00,105.75 2747.00,107.00 2747.00,107.00              2747.00,107.00 2779.00,108.00 2779.00,108.00              2779.00,108.00 2794.00,108.91 2794.00,108.91              2809.81,108.20 2812.72,112.16 2827.00,112.00              2827.00,112.00 2841.00,110.51 2841.00,110.51              2841.00,110.51 2861.00,112.46 2861.00,112.46              2867.44,113.60 2869.79,115.25 2877.00,114.96              2889.10,114.47 2896.66,107.76 2901.00,106.51              2901.00,106.51 2908.00,105.70 2908.00,105.70              2908.00,105.70 2916.00,104.17 2916.00,104.17              2916.00,104.17 2935.00,105.00 2935.00,105.00              2935.00,105.00 2961.00,105.00 2961.00,105.00              2961.00,105.00 2997.00,103.00 2997.00,103.00              2997.00,103.00 3012.00,103.00 3012.00,103.00              3012.00,103.00 3054.00,99.14 3054.00,99.14              3054.00,99.14 3073.00,99.14 3073.00,99.14              3078.72,99.99 3087.69,102.23 3093.00,101.91              3093.00,101.91 3114.00,97.25 3114.00,97.25              3114.00,97.25 3121.00,94.90 3121.00,94.90              3121.00,94.90 3135.00,94.90 3135.00,94.90              3144.65,94.98 3153.96,92.74 3163.00,89.46              3163.00,89.46 3172.00,85.75 3172.00,85.75              3179.92,83.15 3181.64,84.68 3188.00,83.33              3198.38,81.13 3208.28,76.88 3219.00,77.00              3219.00,77.00 3248.00,80.46 3248.00,80.46              3248.00,80.46 3263.00,82.91 3263.00,82.91              3275.74,83.78 3278.36,80.49 3284.00,80.35              3284.00,80.35 3304.00,81.17 3304.00,81.17              3309.70,81.78 3310.72,83.24 3318.00,82.96              3318.00,82.96 3329.00,82.04 3329.00,82.04              3329.00,82.04 3353.00,84.30 3353.00,84.30              3353.00,84.30 3361.00,86.00 3361.00,86.00              3361.00,86.00 3372.00,86.00 3372.00,86.00              3372.00,86.00 3395.00,88.00 3395.00,88.00              3403.55,88.15 3403.87,91.27 3412.00,93.33              3424.59,96.53 3435.01,98.15 3448.00,98.00              3448.00,98.00 3460.00,97.18 3460.00,97.18              3460.00,97.18 3476.00,97.92 3476.00,97.92              3476.00,97.92 3486.00,97.92 3486.00,97.92              3486.00,97.92 3515.00,104.54 3515.00,104.54              3515.00,104.54 3535.00,106.32 3535.00,106.32              3535.00,106.32 3547.00,108.91 3547.00,108.91              3558.36,109.74 3559.72,106.02 3572.00,106.00              3572.00,106.00 3609.00,105.00 3609.00,105.00              3609.00,105.00 3627.00,106.00 3627.00,106.00              3627.00,106.00 3645.00,104.52 3645.00,104.52              3645.00,104.52 3655.00,105.95 3655.00,105.95              3655.00,105.95 3675.00,105.95 3675.00,105.95              3681.14,105.92 3682.59,104.99 3688.00,104.29              3688.00,104.29 3706.00,103.00 3706.00,103.00              3706.00,103.00 3724.00,103.00 3724.00,103.00              3724.00,103.00 3746.00,102.00 3746.00,102.00              3746.00,102.00 3764.00,101.00 3764.00,101.00              3764.00,101.00 3774.00,101.95 3774.00,101.95              3774.00,101.95 3786.00,101.95 3786.00,101.95              3786.00,101.95 3801.00,101.00 3801.00,101.00              3801.00,101.00 3835.00,101.00 3835.00,101.00              3835.00,101.00 3847.00,100.04 3847.00,100.04              3847.00,100.04 3859.00,100.04 3859.00,100.04              3869.22,99.88 3873.66,95.73 3894.00,96.00              3904.99,96.15 3905.18,101.48 3918.00,100.96              3918.00,100.96 3936.00,97.79 3936.00,97.79              3936.00,97.79 3946.00,97.79 3946.00,97.79              3946.00,97.79 3955.00,97.09 3955.00,97.09              3955.00,97.09 3981.00,99.91 3981.00,99.91              3981.00,99.91 3994.00,99.91 3994.00,99.91              3999.54,99.24 3999.56,98.09 4007.00,98.00              4012.42,97.94 4016.73,97.95 4022.00,99.57              4030.67,102.24 4032.63,106.89 4046.00,105.91              4057.45,105.07 4061.61,98.17 4066.00,96.02              4068.85,94.62 4079.46,94.01 4083.00,94.00              4083.00,94.00 4088.00,94.00 4088.00,94.00              4088.00,94.00 4117.00,91.18 4117.00,91.18              4117.00,91.18 4138.00,93.46 4138.00,93.46              4145.49,94.85 4147.27,96.89 4156.00,97.00              4156.00,97.00 4166.00,97.00 4166.00,97.00              4166.00,97.00 4195.00,94.84 4195.00,94.84              4195.00,94.84 4214.00,94.84 4214.00,94.84              4214.00,94.84 4224.00,94.84 4224.00,94.84              4224.00,94.84 4236.00,93.77 4236.00,93.77              4236.00,93.77 4247.00,93.77 4247.00,93.77              4247.00,93.77 4259.00,93.77 4259.00,93.77              4259.00,93.77 4272.00,93.77 4272.00,93.77              4272.00,93.77 4295.00,93.77 4295.00,93.77              4295.00,93.77 4309.00,93.77 4309.00,93.77              4309.00,93.77 4329.00,92.70 4329.00,92.70              4334.51,91.92 4334.20,91.08 4341.00,90.96              4341.00,90.96 4354.00,90.96 4354.00,90.96              4354.00,90.96 4366.00,90.00 4366.00,90.00              4366.00,90.00 4382.00,90.00 4382.00,90.00              4382.00,90.00 4400.00,91.00 4400.00,91.00              4410.57,90.87 4412.49,87.40 4417.00,87.58              4417.00,87.58 4426.00,89.72 4426.00,89.72              4426.00,89.72 4438.00,89.72 4438.00,89.72              4451.26,90.23 4453.20,87.38 4458.00,87.64              4458.00,87.64 4474.00,90.86 4474.00,90.86              4474.00,90.86 4488.00,90.86 4488.00,90.86              4496.05,91.11 4495.34,92.76 4502.00,94.32              4506.55,95.39 4518.32,96.98 4523.00,97.00              4523.00,97.00 4553.00,96.00 4553.00,96.00              4553.00,96.00 4565.00,95.32 4565.00,95.32              4570.39,95.73 4575.55,96.28 4581.00,95.91              4581.00,95.91 4593.00,95.00 4593.00,95.00              4593.00,95.00 4616.00,95.00 4616.00,95.00              4628.84,94.98 4631.05,91.56 4636.00,91.38              4636.00,91.38 4645.00,92.91 4645.00,92.91              4645.00,92.91 4661.00,92.91 4661.00,92.91              4661.00,92.91 4690.00,91.09 4690.00,91.09              4690.00,91.09 4720.00,94.30 4720.00,94.30              4725.52,95.09 4725.25,95.92 4732.00,96.00              4732.00,96.00 4745.00,96.00 4745.00,96.00              4745.00,96.00 4768.00,98.00 4768.00,98.00              4775.44,97.91 4775.46,96.77 4781.00,96.17              4781.00,96.17 4819.00,94.00 4819.00,94.00              4826.99,93.90 4829.03,92.02 4834.00,91.75              4834.00,91.75 4848.00,92.91 4848.00,92.91              4855.37,92.46 4860.63,89.11 4870.00,89.00              4870.00,89.00 4881.00,89.00 4881.00,89.00              4881.00,89.00 4900.00,88.00 4900.00,88.00              4908.40,87.90 4907.98,86.62 4915.00,84.63              4915.00,84.63 4929.00,81.44 4929.00,81.44              4929.00,81.44 4938.00,76.80 4938.00,76.80              4938.00,76.80 4946.00,74.45 4946.00,74.45              4946.00,74.45 4954.00,70.77 4954.00,70.77              4954.00,70.77 4961.00,68.78 4961.00,68.78              4961.00,68.78 4970.00,65.40 4970.00,65.40              4970.00,65.40 4988.00,66.00 4988.00,66.00              4996.03,66.11 4997.37,68.53 5005.00,70.35              5005.00,70.35 5026.00,74.89 5026.00,74.89              5026.00,74.89 5046.00,80.38 5046.00,80.38              5056.37,83.08 5062.80,85.98 5074.00,86.00              5074.00,86.00 5081.00,86.00 5081.00,86.00              5090.47,85.88 5092.20,83.11 5097.00,83.57              5103.24,84.16 5108.50,88.98 5124.00,89.00              5124.00,89.00 5139.00,89.00 5139.00,89.00              5139.00,89.00 5158.00,90.00 5158.00,90.00              5167.36,89.89 5168.56,87.05 5178.00,87.00              5178.00,87.00 5194.00,86.00 5194.00,86.00              5194.00,86.00 5209.00,86.00 5209.00,86.00              5209.00,86.00 5220.00,86.91 5220.00,86.91              5220.00,86.91 5232.00,86.01 5232.00,86.01              5241.01,85.81 5240.45,87.14 5247.00,88.00              5247.00,88.00 5266.00,88.00 5266.00,88.00              5266.00,88.00 5276.00,88.00 5276.00,88.00              5276.00,88.00 5294.00,89.96 5294.00,89.96              5294.00,89.96 5302.00,89.04 5302.00,89.04              5302.00,89.04 5318.00,89.04 5318.00,89.04              5318.00,89.04 5335.00,87.77 5335.00,87.77              5339.20,87.99 5347.25,88.24 5351.00,87.77              5351.00,87.77 5360.00,84.63 5360.00,84.63              5360.00,84.63 5367.00,83.53 5367.00,83.53              5378.79,81.27 5374.45,80.85 5388.00,81.00              5388.00,81.00 5412.00,83.28 5412.00,83.28              5420.56,84.71 5421.30,85.98 5431.00,86.08              5431.00,86.08 5442.00,86.08 5442.00,86.08              5442.00,86.08 5457.00,88.00 5457.00,88.00              5457.00,88.00 5472.00,88.00 5472.00,88.00              5472.00,88.00 5499.00,90.91 5499.00,90.91              5507.79,91.47 5510.90,88.00 5517.00,88.47              5517.00,88.47 5539.00,87.77 5539.00,87.77              5543.20,87.99 5551.25,88.24 5555.00,87.77              5555.00,87.77 5565.00,84.48 5565.00,84.48              5565.00,84.48 5576.00,85.00 5576.00,85.00              5586.22,85.05 5591.05,84.39 5601.00,81.57              5601.00,81.57 5613.00,77.39 5613.00,77.39              5613.00,77.39 5620.00,76.70 5620.00,76.70              5620.00,76.70 5639.00,73.70 5639.00,73.70              5639.00,73.70 5649.00,71.32 5649.00,71.32              5649.00,71.32 5666.00,69.39 5666.00,69.39              5669.08,69.16 5671.99,70.09 5675.00,70.56              5675.00,70.56 5684.00,71.39 5684.00,71.39              5693.32,73.37 5688.82,75.79 5707.00,76.00              5719.97,76.16 5732.37,81.30 5745.00,83.77              5745.00,83.77 5763.00,83.77 5763.00,83.77              5769.14,83.92 5770.60,82.99 5776.00,82.29              5776.00,82.29 5790.00,81.06 5790.00,81.06              5795.68,80.91 5798.69,83.45 5813.00,81.06              5822.42,79.25 5829.68,74.11 5838.00,74.00              5850.52,73.84 5847.12,74.88 5856.00,75.83              5859.32,76.18 5862.83,75.66 5866.00,76.70              5870.82,78.27 5874.78,82.65 5882.00,84.73              5886.81,85.43 5905.00,85.07 5911.00,84.73              5911.00,84.73 5921.00,84.73 5921.00,84.73              5921.00,84.73 5934.00,84.73 5934.00,84.73              5934.00,84.73 5944.00,86.00 5944.00,86.00              5944.00,86.00 5971.00,84.51 5971.00,84.51              5971.00,84.51 5986.00,85.86 5986.00,85.86              5986.00,85.86 5998.00,85.86 5998.00,85.86              5998.00,85.86 6008.00,84.21 6008.00,84.21              6008.00,84.21 6024.00,84.91 6024.00,84.91              6024.00,84.91 6054.00,80.07 6054.00,80.07              6060.59,78.27 6060.04,76.14 6068.00,75.85              6068.00,75.85 6080.00,75.85 6080.00,75.85              6084.98,74.99 6088.62,73.24 6094.00,74.39              6098.89,75.43 6116.25,84.29 6132.00,84.96              6141.87,85.38 6144.03,82.83 6149.00,82.61              6149.00,82.61 6167.00,84.00 6167.00,84.00              6167.00,84.00 6181.00,84.00 6181.00,84.00              6181.00,84.00 6193.00,83.05 6193.00,83.05              6193.00,83.05 6208.00,83.05 6208.00,83.05              6214.14,83.08 6215.59,84.01 6221.00,84.71              6221.00,84.71 6229.00,85.28 6229.00,85.28              6229.00,85.28 6241.00,86.91 6241.00,86.91              6241.00,86.91 6258.00,86.00 6258.00,86.00              6271.66,85.93 6272.78,82.68 6282.00,83.04              6282.00,83.04 6295.00,83.99 6295.00,83.99              6295.00,83.99 6317.00,81.00 6317.00,81.00              6317.00,81.00 6333.00,81.91 6333.00,81.91              6333.00,81.91 6355.00,83.09 6355.00,83.09              6355.00,83.09 6367.00,83.99 6367.00,83.99              6367.00,83.99 6383.00,82.18 6383.00,82.18              6383.00,82.18 6401.00,82.75 6401.00,82.75              6401.00,82.75 6411.00,82.75 6411.00,82.75              6411.00,82.75 6429.00,83.96 6429.00,83.96              6429.00,83.96 6440.00,82.17 6440.00,82.17              6440.00,82.17 6452.00,81.54 6452.00,81.54              6457.49,80.55 6458.62,79.18 6465.00,79.01              6465.00,79.01 6502.00,83.96 6502.00,83.96              6514.82,83.54 6522.40,77.16 6536.00,76.92              6536.00,76.92 6551.00,76.92 6551.00,76.92              6551.00,76.92 6560.00,75.34 6560.00,75.34              6560.00,75.34 6569.00,76.91 6569.00,76.91              6569.00,76.91 6581.00,76.91 6581.00,76.91              6581.00,76.91 6618.00,71.00 6618.00,71.00              6628.51,70.88 6632.98,70.07 6643.00,66.45              6646.95,65.03 6651.26,61.57 6655.00,61.74              6658.29,61.89 6664.29,65.08 6668.00,66.07              6673.88,67.66 6677.00,66.24 6686.00,69.22              6686.00,69.22 6702.00,76.78 6702.00,76.78              6702.00,76.78 6725.00,80.90 6725.00,80.90              6725.00,80.90 6738.00,80.90 6738.00,80.90              6745.20,81.68 6744.47,83.98 6757.00,84.00              6757.00,84.00 6771.00,84.00 6771.00,84.00              6780.30,83.89 6780.90,81.67 6787.00,81.10              6787.00,81.10 6806.00,82.00 6806.00,82.00              6806.00,82.00 6825.00,79.77 6825.00,79.77              6829.33,79.99 6837.07,80.25 6841.00,79.77              6855.45,76.93 6854.20,73.67 6872.00,73.99              6872.00,73.99 6888.00,72.67 6888.00,72.67              6891.50,72.98 6894.14,75.19 6900.00,75.96              6900.00,75.96 6909.00,75.96 6909.00,75.96              6909.00,75.96 6925.00,77.00 6925.00,77.00              6925.00,77.00 6940.00,76.00 6940.00,76.00              6940.00,76.00 6975.00,79.00 6975.00,79.00              6975.00,79.00 6996.00,80.00 6996.00,80.00              6996.00,80.00 7035.00,80.00 7035.00,80.00              7048.31,79.98 7047.28,77.29 7053.00,76.48              7053.00,76.48 7069.00,77.00 7069.00,77.00              7080.53,76.86 7080.95,73.03 7089.00,73.03              7097.47,73.03 7096.59,76.98 7111.00,76.91              7111.00,76.91 7128.00,76.91 7128.00,76.91              7132.97,76.30 7135.17,74.75 7141.00,75.09              7141.00,75.09 7156.00,77.00 7156.00,77.00              7175.85,77.23 7170.58,74.23 7182.00,72.32              7187.38,71.43 7191.15,72.77 7198.00,71.10              7206.74,68.98 7208.04,65.65 7218.00,66.04              7223.35,66.25 7225.36,67.39 7232.00,66.91              7237.14,66.54 7238.42,65.07 7244.00,65.62              7244.00,65.62 7273.00,69.72 7273.00,69.72              7277.63,69.65 7279.97,68.40 7285.00,69.72              7294.88,71.73 7299.97,76.22 7306.00,78.44              7311.83,80.59 7314.56,79.52 7319.00,80.37              7325.38,81.60 7324.69,82.90 7333.00,83.00              7341.70,83.10 7350.41,83.13 7359.00,81.54              7359.00,81.54 7371.00,78.21 7371.00,78.21              7371.00,78.21 7390.00,76.83 7390.00,76.83              7395.54,76.23 7395.55,75.09 7403.00,75.00              7407.33,74.95 7411.75,75.29 7416.00,74.32              7419.66,73.48 7423.56,71.21 7427.00,71.21              7431.44,71.21 7434.16,74.08 7441.00,75.00              7441.00,75.00 7451.00,75.00 7451.00,75.00              7451.00,75.00 7460.00,76.83 7460.00,76.83              7460.00,76.83 7487.00,78.00 7487.00,78.00              7487.00,78.00 7502.00,78.91 7502.00,78.91              7502.00,78.91 7521.00,77.09 7521.00,77.09              7521.00,77.09 7528.00,77.83 7528.00,77.83              7528.00,77.83 7537.00,77.83 7537.00,77.83              7537.00,77.83 7546.00,77.83 7546.00,77.83              7546.00,77.83 7556.00,77.83 7556.00,77.83              7563.01,77.08 7561.07,76.02 7571.00,76.00              7571.00,76.00 7602.00,76.00 7602.00,76.00              7616.88,75.82 7613.93,70.03 7628.00,69.91              7628.00,69.91 7642.00,69.91 7642.00,69.91              7649.01,69.08 7647.07,68.02 7657.00,67.77              7668.90,67.98 7678.08,69.84 7690.00,67.77              7699.36,65.72 7704.24,60.11 7710.00,58.00              7715.74,55.90 7720.09,56.07 7726.00,56.00              7726.00,56.00 7739.00,55.05 7739.00,55.05              7739.00,55.05 7751.00,55.05 7751.00,55.05              7751.00,55.05 7763.00,55.99 7763.00,55.99              7763.00,55.99 7793.00,51.04 7793.00,51.04              7793.00,51.04 7812.00,52.00 7812.00,52.00              7812.00,52.00 7828.00,51.03 7828.00,51.03              7828.00,51.03 7837.00,51.96 7837.00,51.96              7837.00,51.96 7850.00,51.96 7850.00,51.96              7850.00,51.96 7870.00,55.71 7870.00,55.71              7870.00,55.71 7887.00,57.46 7887.00,57.46              7887.00,57.46 7906.00,61.70 7906.00,61.70              7906.00,61.70 7926.00,63.68 7926.00,63.68              7926.00,63.68 7935.00,66.78 7935.00,66.78              7935.00,66.78 7947.00,69.77 7947.00,69.77              7947.00,69.77 7967.00,76.13 7967.00,76.13              7980.53,79.51 7981.84,79.16 7995.00,80.72              7998.59,81.14 8003.92,80.40 8006.73,82.60              8008.87,84.28 8010.48,88.51 8011.87,91.00              8015.73,97.91 8017.99,105.35 8020.08,113.00              8020.08,113.00 8022.22,122.00 8022.22,122.00              8025.11,130.90 8031.81,134.92 8034.28,138.28              8034.28,138.28 8041.98,156.00 8041.98,156.00              8042.85,158.63 8042.01,165.55 8041.98,169.00              8041.98,169.00 8041.98,181.00 8041.98,181.00              8041.15,187.83 8039.82,188.48 8040.01,197.00              8040.01,197.00 8040.66,207.00 8040.66,207.00              8040.05,213.22 8038.01,215.30 8039.47,223.00              8040.71,229.58 8043.23,231.17 8044.62,236.00              8044.62,236.00 8050.55,260.00 8050.55,260.00              8050.55,260.00 8055.98,271.00 8055.98,271.00              8056.92,275.37 8052.29,280.63 8054.68,291.00              8054.68,291.00 8065.07,316.00 8065.07,316.00              8065.07,316.00 8069.50,336.00 8069.50,336.00              8069.94,339.29 8068.39,342.81 8069.50,349.00              8069.50,349.00 8071.80,359.00 8071.80,359.00              8071.80,359.00 8073.30,378.00 8073.30,378.00              8073.30,378.00 8075.70,388.00 8075.70,388.00              8075.91,391.06 8074.52,394.74 8074.07,398.00              8074.07,398.00 8074.07,414.00 8074.07,414.00              8073.19,417.60 8070.82,420.57 8069.56,424.00              8069.56,424.00 8065.46,442.00 8065.46,442.00              8064.31,448.49 8066.07,455.30 8066.00,462.00              8066.00,462.00 8064.47,483.00 8064.47,483.00              8063.40,487.70 8060.86,490.57 8060.29,497.00              8060.29,497.00 8060.29,507.00 8060.29,507.00              8060.29,507.00 8059.04,515.00 8059.04,515.00              8059.04,515.00 8059.04,524.00 8059.04,524.00              8058.52,529.42 8056.75,531.93 8057.09,538.00              8057.09,538.00 8058.90,559.00 8058.90,559.00              8058.90,559.00 8058.11,574.00 8058.11,574.00              8057.19,580.86 8055.07,578.43 8055.00,593.00              8054.98,596.49 8054.87,600.75 8053.49,604.00              8051.08,609.68 8043.60,613.82 8044.04,627.00              8044.24,632.93 8045.74,634.41 8046.63,639.00              8047.75,644.83 8047.03,649.20 8049.56,656.00              8052.97,665.19 8055.98,661.99 8056.00,674.00              8056.00,674.00 8056.00,698.00 8056.00,698.00              8055.83,709.91 8049.02,709.31 8048.09,722.00              8047.47,730.52 8049.15,731.62 8050.06,738.00              8050.06,738.00 8050.06,749.00 8050.06,749.00              8050.90,753.08 8052.68,755.86 8052.23,760.00              8052.23,760.00 8050.94,767.00 8050.94,767.00              8050.94,767.00 8050.94,775.00 8050.94,775.00              8049.84,781.76 8048.02,779.79 8048.00,792.00              8048.00,792.00 8048.00,797.00 8048.00,797.00              8048.11,805.89 8050.99,809.70 8050.45,815.00              8050.45,815.00 8048.16,833.00 8048.16,833.00              8044.98,841.49 8039.81,841.94 8040.00,859.00              8040.00,859.00 8046.83,894.00 8046.83,894.00              8047.47,900.78 8045.56,902.17 8044.23,908.00              8043.78,911.68 8044.04,916.20 8044.23,920.00              8043.86,931.41 8038.62,941.40 8039.04,954.00              8039.35,963.10 8043.39,966.34 8044.61,972.00              8044.61,972.00 8046.16,990.00 8046.16,990.00              8046.16,990.00 8045.00,1000.00 8045.00,1000.00              8045.00,1000.00 8045.62,1013.00 8045.62,1013.00              8045.37,1017.46 8042.58,1019.46 8041.29,1027.00              8041.29,1027.00 8037.03,1077.00 8037.03,1077.00              8037.03,1084.63 8039.79,1087.80 8039.98,1091.00              8040.25,1095.44 8036.55,1097.42 8037.04,1109.00              8037.04,1109.00 8039.04,1131.00 8039.04,1131.00              8039.04,1131.00 8039.04,1141.00 8039.04,1141.00              8039.04,1141.00 8041.42,1159.00 8041.42,1159.00              8041.42,1159.00 8039.94,1167.00 8039.94,1167.00              8039.94,1167.00 8039.94,1176.00 8039.94,1176.00              8038.40,1185.13 8036.01,1193.65 8036.09,1203.00              8036.09,1203.00 8036.09,1216.00 8036.09,1216.00              8036.75,1221.38 8038.61,1225.88 8038.20,1232.00              8037.82,1237.62 8033.54,1242.02 8034.09,1251.00              8034.96,1265.13 8044.20,1265.11 8044.00,1283.00              8044.00,1283.00 8043.00,1300.00 8043.00,1300.00              8043.00,1300.00 8046.79,1332.00 8046.79,1332.00              8046.79,1332.00 8044.04,1350.00 8044.04,1350.00              8043.68,1358.41 8045.16,1358.78 8045.91,1365.00              8045.91,1365.00 8045.91,1380.00 8045.91,1380.00              8045.88,1389.93 8042.59,1391.56 8040.40,1400.00              8039.11,1406.96 8040.83,1409.62 8040.40,1415.00              8040.40,1415.00 8040.40,1423.00 8040.40,1423.00              8040.40,1423.00 8042.47,1444.00 8042.47,1444.00              8042.47,1444.00 8043.99,1451.00 8043.99,1451.00              8043.99,1451.00 8043.99,1468.00 8043.99,1468.00              8044.00,1470.46 8044.40,1476.00 8043.99,1478.00              8040.75,1486.95 8027.35,1494.53 8028.04,1512.00              8028.31,1518.80 8030.91,1530.23 8034.47,1536.00              8040.47,1545.74 8042.01,1540.99 8046.69,1554.00              8049.22,1561.04 8046.89,1564.72 8049.22,1572.00              8051.38,1578.75 8056.84,1583.40 8060.05,1593.00              8060.05,1593.00 8062.16,1604.00 8062.16,1604.00              8064.56,1612.88 8066.39,1612.15 8066.28,1623.00              8066.28,1623.00 8065.04,1631.00 8065.04,1631.00              8065.04,1631.00 8065.04,1640.00 8065.04,1640.00              8065.04,1640.00 8064.09,1647.00 8064.09,1647.00              8063.81,1651.93 8066.27,1662.55 8068.40,1667.00              8068.40,1667.00 8073.44,1676.00 8073.44,1676.00              8074.12,1678.12 8074.04,1681.72 8073.99,1684.00              8073.79,1691.98 8071.94,1691.16 8072.00,1705.00              8072.00,1705.00 8075.61,1731.00 8075.61,1731.00              8075.61,1731.00 8075.09,1744.00 8075.09,1744.00              8075.64,1751.59 8078.67,1754.03 8078.81,1759.00              8078.81,1759.00 8076.30,1779.00 8076.30,1779.00              8076.30,1779.00 8065.72,1803.00 8065.72,1803.00              8061.71,1816.29 8062.16,1830.26 8062.00,1844.00              8061.81,1859.80 8055.46,1858.49 8055.04,1871.00              8055.04,1871.00 8057.68,1890.00 8057.68,1890.00              8057.68,1890.00 8056.81,1902.00 8056.81,1902.00              8056.99,1905.04 8057.18,1910.22 8056.81,1913.00              8055.69,1917.70 8053.33,1920.76 8053.04,1928.00              8052.85,1932.60 8053.54,1934.05 8053.82,1938.00              8053.82,1938.00 8053.09,1950.00 8053.09,1950.00              8053.09,1950.00 8055.10,1961.00 8055.10,1961.00              8055.10,1961.00 8055.10,1975.00 8055.10,1975.00              8056.48,1983.24 8057.98,1982.76 8057.91,1993.00              8057.91,1993.00 8057.91,2013.00 8057.91,2013.00              8057.17,2019.17 8055.67,2019.64 8056.04,2028.00              8056.42,2036.84 8060.20,2040.69 8059.75,2046.00              8059.75,2046.00 8057.47,2055.00 8057.47,2055.00              8057.47,2055.00 8055.01,2078.00 8055.01,2078.00              8055.19,2085.84 8057.33,2087.63 8057.75,2092.00              8058.01,2094.69 8057.24,2097.33 8057.09,2100.00              8056.86,2104.15 8059.14,2121.14 8060.56,2125.00              8060.56,2125.00 8065.70,2136.00 8065.70,2136.00              8068.48,2145.49 8068.89,2154.26 8069.20,2164.00              8069.20,2164.00 8069.20,2172.00 8069.20,2172.00              8069.20,2172.00 8069.20,2182.00 8069.20,2182.00              8069.52,2185.28 8070.91,2188.94 8070.70,2192.00              8070.70,2192.00 8067.59,2206.00 8067.59,2206.00              8067.59,2206.00 8066.00,2232.00 8066.00,2232.00              8066.12,2241.95 8069.01,2242.77 8068.53,2249.00              8067.34,2264.56 8069.20,2258.60 8069.91,2269.00              8070.24,2273.87 8069.33,2275.78 8069.09,2280.00              8068.78,2285.47 8070.01,2286.70 8070.45,2291.00              8070.45,2291.00 8068.68,2310.00 8068.68,2310.00              8067.38,2317.91 8065.90,2316.37 8066.00,2327.00              8066.00,2327.00 8069.17,2356.00 8069.17,2356.00              8069.62,2359.84 8071.04,2363.10 8070.66,2367.00              8070.00,2373.79 8068.59,2373.12 8069.04,2383.00              8069.04,2383.00 8070.82,2395.00 8070.82,2395.00              8070.82,2395.00 8070.01,2407.00 8070.01,2407.00              8070.11,2411.26 8073.31,2424.06 8074.95,2428.00              8077.93,2435.12 8082.40,2441.81 8081.82,2450.00              8081.82,2450.00 8080.99,2457.00 8080.99,2457.00              8080.89,2460.66 8081.76,2466.04 8080.99,2469.00              8078.81,2476.79 8073.66,2483.75 8073.09,2492.00              8072.57,2499.53 8074.45,2500.83 8075.63,2507.00              8075.63,2507.00 8076.53,2520.00 8076.53,2520.00              8076.93,2525.19 8074.07,2529.65 8073.30,2535.00              8073.30,2535.00 8072.23,2561.00 8072.23,2561.00              8071.99,2565.16 8071.77,2573.27 8072.23,2577.00              8073.39,2581.95 8075.52,2584.90 8075.91,2590.00              8075.91,2590.00 8075.00,2609.00 8075.00,2609.00              8075.00,2609.00 8076.83,2624.00 8076.83,2624.00              8076.46,2628.59 8073.71,2630.42 8072.47,2637.00              8072.47,2637.00 8070.03,2665.00 8070.03,2665.00              8070.03,2665.00 8070.68,2672.00 8070.68,2672.00              8070.68,2672.00 8070.04,2684.00 8070.04,2684.00              8070.04,2684.00 8070.04,2698.00 8070.04,2698.00              8070.04,2698.00 8071.00,2712.00 8071.00,2712.00              8071.00,2712.00 8072.53,2727.00 8072.53,2727.00              8071.83,2732.59 8065.97,2743.37 8064.22,2749.00              8062.57,2754.28 8062.94,2761.40 8063.00,2767.00              8063.07,2772.58 8063.71,2772.64 8064.30,2777.00              8064.30,2777.00 8064.30,2791.00 8064.30,2791.00              8064.30,2791.00 8063.03,2809.00 8063.03,2809.00              8063.03,2809.00 8064.11,2820.00 8064.11,2820.00              8063.81,2823.09 8062.27,2825.27 8062.06,2831.00              8062.06,2831.00 8062.06,2840.00 8062.06,2840.00              8061.65,2842.82 8059.48,2846.28 8058.14,2856.00              8058.14,2856.00 8058.14,2875.00 8058.14,2875.00              8058.04,2883.10 8060.39,2891.04 8061.72,2899.00              8063.43,2909.26 8062.89,2911.16 8063.00,2921.00              8063.00,2921.00 8064.96,2938.00 8064.96,2938.00              8064.96,2938.00 8063.75,2953.00 8063.75,2953.00              8064.00,2955.94 8064.21,2961.37 8063.75,2964.00              8062.53,2967.62 8060.21,2969.79 8059.30,2976.00              8057.93,2985.29 8061.58,2989.90 8061.65,2995.00              8061.70,2999.31 8058.70,3005.49 8059.04,3014.00              8059.38,3022.35 8062.64,3026.43 8063.61,3031.00              8065.12,3038.08 8062.55,3046.56 8063.09,3054.00              8063.62,3061.32 8066.54,3064.10 8066.58,3068.00              8066.62,3071.24 8062.61,3079.80 8063.09,3088.00              8063.09,3088.00 8065.45,3101.00 8065.45,3101.00              8065.94,3105.77 8063.70,3108.65 8064.09,3115.00              8064.39,3119.89 8066.13,3122.71 8065.90,3128.00              8065.90,3128.00 8065.00,3142.00 8065.00,3142.00              8064.88,3150.46 8062.77,3150.08 8061.43,3157.00              8060.51,3162.06 8061.32,3164.26 8061.43,3169.00              8061.43,3169.00 8061.43,3180.00 8061.43,3180.00              8061.24,3182.69 8062.07,3185.31 8061.43,3188.00              8060.79,3191.00 8058.53,3193.36 8057.47,3199.00              8057.47,3199.00 8056.70,3213.00 8056.70,3213.00              8056.70,3213.00 8055.30,3220.00 8055.30,3220.00              8055.30,3220.00 8053.72,3234.00 8053.72,3234.00              8053.72,3234.00 8052.09,3243.00 8052.09,3243.00              8051.32,3253.46 8053.66,3256.74 8053.66,3261.00              8053.66,3265.74 8050.99,3269.13 8051.00,3281.00              8051.01,3293.16 8053.20,3292.23 8053.75,3298.00              8053.75,3298.00 8053.04,3307.00 8053.04,3307.00              8052.88,3311.05 8053.88,3315.24 8053.04,3319.00              8051.80,3324.46 8047.54,3329.99 8048.09,3339.00              8048.76,3349.87 8052.81,3347.57 8053.00,3364.00              8053.11,3372.89 8055.15,3374.40 8055.59,3379.00              8055.59,3379.00 8055.00,3390.00 8055.00,3390.00              8054.94,3402.94 8056.01,3400.25 8060.23,3411.00              8060.23,3411.00 8062.54,3419.00 8062.54,3419.00              8063.43,3421.60 8064.35,3423.14 8064.79,3426.00              8064.79,3426.00 8065.81,3440.00 8065.81,3440.00              8065.81,3440.00 8064.07,3448.00 8064.07,3448.00              8064.07,3448.00 8064.07,3456.00 8064.07,3456.00              8063.08,3463.81 8061.90,3466.24 8062.00,3475.00              8062.00,3475.00 8062.96,3488.00 8062.96,3488.00              8062.96,3488.00 8061.00,3503.00 8061.00,3503.00              8060.90,3512.06 8060.00,3521.02 8058.72,3530.00              8057.58,3537.93 8055.56,3539.21 8054.47,3545.00              8054.47,3545.00 8053.04,3571.00 8053.04,3571.00              8053.04,3571.00 8054.66,3590.00 8054.66,3590.00              8054.66,3593.38 8053.65,3595.92 8054.09,3602.00              8054.69,3610.21 8055.98,3606.33 8056.00,3621.00              8056.02,3634.65 8059.62,3635.45 8059.95,3643.00              8059.95,3643.00 8059.21,3655.00 8059.21,3655.00              8059.21,3655.00 8059.21,3666.00 8059.21,3666.00              8059.21,3666.00 8057.29,3676.00 8057.29,3676.00              8057.29,3676.00 8057.29,3691.00 8057.29,3691.00              8057.29,3691.00 8057.29,3702.00 8057.29,3702.00              8057.40,3710.34 8060.41,3712.93 8061.75,3717.00              8062.23,3719.69 8062.03,3727.81 8061.75,3731.00              8061.91,3738.58 8060.42,3739.65 8060.09,3745.00              8059.78,3750.02 8061.98,3761.37 8063.95,3766.00              8067.74,3774.89 8075.21,3778.09 8076.88,3784.00              8076.88,3784.00 8076.88,3793.00 8076.88,3793.00              8077.69,3801.87 8078.92,3805.68 8076.88,3815.00              8075.43,3821.61 8073.21,3822.33 8073.01,3831.00              8072.83,3838.87 8074.59,3844.66 8077.22,3852.00              8078.52,3855.63 8081.09,3861.26 8080.83,3865.00              8080.56,3868.91 8077.93,3871.55 8076.43,3878.00              8076.43,3878.00 8072.63,3899.00 8072.63,3899.00              8072.63,3899.00 8069.93,3907.00 8069.93,3907.00              8068.26,3913.07 8065.01,3931.85 8065.00,3938.00              8065.00,3938.00 8065.00,3953.00 8065.00,3953.00              8065.12,3963.22 8067.85,3964.25 8068.52,3969.00              8068.52,3969.00 8067.83,3985.00 8067.83,3985.00              8067.83,3985.00 8064.46,4002.00 8064.46,4002.00              8064.46,4002.00 8063.70,4011.00 8063.70,4011.00              8063.70,4011.00 8061.92,4019.00 8061.92,4019.00              8061.92,4019.00 8061.92,4026.00 8061.92,4026.00              8061.92,4026.00 8058.23,4037.00 8058.23,4037.00              8058.23,4037.00 8058.23,4054.00 8058.23,4054.00              8057.84,4067.08 8052.97,4066.09 8050.68,4076.00              8048.79,4084.19 8051.32,4088.41 8051.31,4093.00              8051.31,4093.00 8051.31,4102.00 8051.31,4102.00              8051.45,4107.72 8053.65,4112.63 8057.33,4116.99              8060.16,4120.34 8064.33,4122.40 8064.43,4127.01              8064.43,4127.01 8063.04,4140.00 8063.04,4140.00              8063.04,4140.00 8064.00,4156.00 8064.00,4156.00              8064.00,4156.00 8059.09,4183.00 8059.09,4183.00              8058.84,4186.62 8058.99,4190.48 8059.93,4194.00              8060.58,4196.45 8062.19,4199.55 8061.92,4202.00              8061.68,4204.12 8059.83,4206.91 8058.95,4209.00              8058.95,4209.00 8054.21,4223.00 8054.21,4223.00              8051.30,4232.89 8054.58,4238.50 8053.39,4244.00              8053.39,4244.00 8048.55,4257.00 8048.55,4257.00              8048.55,4257.00 8044.09,4276.00 8044.09,4276.00              8043.55,4284.88 8047.85,4293.06 8055.00,4298.21              8055.00,4298.21 8064.42,4303.53 8064.42,4303.53              8067.95,4306.36 8076.30,4317.73 8076.97,4322.00              8076.97,4322.00 8076.97,4333.00 8076.97,4333.00              8075.93,4338.01 8072.79,4340.00 8071.47,4347.00              8071.47,4347.00 8070.79,4359.00 8070.79,4359.00              8070.79,4359.00 8063.73,4380.00 8063.73,4380.00              8057.92,4390.63 8049.23,4396.71 8045.11,4403.00              8045.11,4403.00 8041.12,4411.00 8041.12,4411.00              8038.28,4416.16 8032.22,4424.88 8027.00,4427.55              8020.76,4430.75 8008.18,4430.08 8001.00,4430.00              7990.09,4429.87 7994.87,4427.57 7976.00,4428.13              7976.00,4428.13 7965.00,4428.13 7965.00,4428.13              7965.00,4428.13 7948.00,4429.00 7948.00,4429.00              7948.00,4429.00 7927.00,4427.00 7927.00,4427.00              7927.00,4427.00 7886.00,4428.00 7886.00,4428.00              7886.00,4428.00 7867.00,4426.01 7867.00,4426.01              7867.00,4426.01 7837.00,4429.00 7837.00,4429.00              7837.00,4429.00 7805.00,4425.01 7805.00,4425.01              7790.58,4425.36 7786.16,4428.46 7776.00,4429.86              7776.00,4429.86 7765.00,4429.86 7765.00,4429.86              7753.99,4430.13 7754.61,4433.75 7737.00,4434.63              7737.00,4434.63 7725.00,4434.01 7725.00,4434.01              7725.00,4434.01 7705.00,4435.91 7705.00,4435.91              7699.42,4435.56 7697.68,4433.73 7690.00,4434.04              7683.79,4434.29 7679.70,4436.74 7673.00,4435.79              7664.56,4434.59 7653.75,4428.42 7641.00,4430.30              7634.65,4431.23 7629.90,4434.35 7624.00,4436.09              7624.00,4436.09 7600.00,4440.92 7600.00,4440.92              7596.21,4441.91 7588.65,4444.90 7585.00,4444.55              7581.78,4444.25 7578.92,4441.78 7576.00,4440.40              7571.86,4438.43 7569.31,4438.57 7566.00,4437.34              7566.00,4437.34 7557.00,4433.22 7557.00,4433.22              7557.00,4433.22 7536.00,4430.63 7536.00,4430.63              7536.00,4430.63 7527.00,4428.30 7527.00,4428.30              7527.00,4428.30 7508.00,4426.68 7508.00,4426.68              7500.38,4425.43 7501.09,4423.78 7491.00,4424.01              7483.97,4424.18 7480.93,4426.19 7475.00,4426.83              7475.00,4426.83 7447.00,4429.17 7447.00,4429.17              7447.00,4429.17 7440.00,4430.20 7440.00,4430.20              7440.00,4430.20 7430.00,4430.20 7430.00,4430.20              7430.00,4430.20 7422.00,4430.96 7422.00,4430.96              7422.00,4430.96 7405.00,4430.96 7405.00,4430.96              7405.00,4430.96 7389.00,4432.92 7389.00,4432.92              7389.00,4432.92 7378.00,4432.00 7378.00,4432.00              7378.00,4432.00 7362.00,4432.00 7362.00,4432.00              7362.00,4432.00 7350.00,4432.82 7350.00,4432.82              7350.00,4432.82 7325.00,4432.00 7325.00,4432.00              7325.00,4432.00 7303.00,4433.00 7303.00,4433.00              7303.00,4433.00 7289.00,4432.04 7289.00,4432.04              7289.00,4432.04 7279.00,4433.70 7279.00,4433.70              7279.00,4433.70 7264.00,4434.96 7264.00,4434.96              7253.07,4435.42 7252.19,4431.56 7243.00,4432.09              7243.00,4432.09 7232.00,4433.96 7232.00,4433.96              7232.00,4433.96 7221.00,4433.96 7221.00,4433.96              7221.00,4433.96 7209.00,4435.00 7209.00,4435.00              7209.00,4435.00 7164.00,4434.00 7164.00,4434.00              7164.00,4434.00 7153.00,4434.84 7153.00,4434.84              7153.00,4434.84 7121.00,4434.84 7121.00,4434.84              7121.00,4434.84 7110.00,4434.04 7110.00,4434.04              7110.00,4434.04 7100.00,4434.82 7100.00,4434.82              7100.00,4434.82 7079.00,4433.19 7079.00,4433.19              7079.00,4433.19 7068.00,4433.19 7068.00,4433.19              7068.00,4433.19 7061.00,4432.17 7061.00,4432.17              7056.43,4431.71 7055.39,4432.32 7050.00,4431.18              7043.90,4429.89 7040.74,4427.68 7034.00,4428.09              7034.00,4428.09 7008.00,4435.24 7008.00,4435.24              7004.03,4435.79 6997.40,4433.61 6993.00,4433.09              6993.00,4433.09 6984.00,4433.09 6984.00,4433.09              6984.00,4433.09 6963.00,4434.96 6963.00,4434.96              6963.00,4434.96 6945.00,4434.04 6945.00,4434.04              6945.00,4434.04 6931.00,4435.30 6931.00,4435.30              6926.31,4435.97 6925.66,4436.86 6920.00,4436.99              6920.00,4436.99 6905.00,4436.00 6905.00,4436.00              6892.08,4435.85 6878.80,4436.74 6866.00,4434.79              6859.94,4433.87 6859.46,4431.12 6849.00,4431.00              6834.63,4430.84 6836.33,4433.60 6829.00,4434.79              6815.31,4437.02 6810.78,4437.16 6797.00,4437.00              6789.40,4436.91 6788.55,4435.47 6783.00,4435.09              6783.00,4435.09 6772.00,4435.61 6772.00,4435.61              6767.97,4435.31 6764.96,4433.43 6758.00,4434.17              6749.23,4435.11 6745.87,4439.76 6736.00,4441.54              6736.00,4441.54 6707.00,4443.00 6707.00,4443.00              6697.07,4443.02 6699.01,4444.08 6692.00,4444.83              6692.00,4444.83 6679.00,4445.40 6679.00,4445.40              6671.81,4445.58 6666.30,4442.12 6660.00,4440.44              6654.37,4439.39 6651.56,4440.51 6648.00,4440.44              6644.28,4439.88 6641.58,4438.23 6636.00,4438.04              6636.00,4438.04 6615.00,4439.30 6615.00,4439.30              6615.00,4439.30 6607.00,4441.00 6607.00,4441.00              6607.00,4441.00 6598.00,4441.00 6598.00,4441.00              6598.00,4441.00 6590.00,4442.70 6590.00,4442.70              6590.00,4442.70 6569.00,4444.16 6569.00,4444.16              6560.01,4443.32 6555.09,4440.96 6545.00,4441.00              6545.00,4441.00 6530.00,4442.25 6530.00,4442.25              6530.00,4442.25 6523.00,4441.17 6523.00,4441.17              6523.00,4441.17 6508.00,4440.09 6508.00,4440.09              6508.00,4440.09 6486.00,4438.83 6486.00,4438.83              6486.00,4438.83 6476.00,4437.09 6476.00,4437.09              6468.78,4436.60 6464.56,4439.09 6459.00,4438.68              6459.00,4438.68 6447.00,4437.70 6447.00,4437.70              6439.53,4436.64 6440.87,4435.90 6432.00,4436.00              6432.00,4436.00 6410.00,4437.46 6410.00,4437.46              6405.45,4438.26 6393.09,4440.63 6389.00,4440.08              6384.53,4439.48 6381.20,4435.60 6373.00,4435.09              6367.86,4434.78 6365.65,4436.05 6362.00,4436.15              6362.00,4436.15 6354.00,4436.15 6354.00,4436.15              6354.00,4436.15 6347.00,4436.82 6347.00,4436.82              6347.00,4436.82 6326.00,4435.00 6326.00,4435.00              6326.00,4435.00 6307.00,4437.04 6307.00,4437.04              6307.00,4437.04 6290.00,4437.04 6290.00,4437.04              6290.00,4437.04 6280.00,4437.99 6280.00,4437.99              6280.00,4437.99 6265.00,4437.16 6265.00,4437.16              6265.00,4437.16 6258.00,4437.16 6258.00,4437.16              6258.00,4437.16 6249.00,4437.16 6249.00,4437.16              6249.00,4437.16 6230.04,4439.63 6230.04,4439.63              6224.42,4438.70 6225.18,4434.37 6218.91,4428.09              6212.64,4421.82 6203.94,4417.23 6195.00,4417.01              6184.68,4416.76 6183.20,4418.50 6174.00,4420.49              6174.00,4420.49 6165.00,4422.22 6165.00,4422.22              6165.00,4422.22 6157.00,4425.51 6157.00,4425.51              6157.00,4425.51 6137.00,4427.90 6137.00,4427.90              6137.00,4427.90 6119.00,4433.37 6119.00,4433.37              6109.46,4436.08 6094.94,4437.99 6085.00,4438.00              6085.00,4438.00 6081.00,4438.00 6081.00,4438.00              6081.00,4438.00 6068.00,4437.09 6068.00,4437.09              6068.00,4437.09 6050.00,4437.09 6050.00,4437.09              6050.00,4437.09 6036.00,4438.47 6036.00,4438.47              6036.00,4438.47 6027.00,4440.79 6027.00,4440.79              6027.00,4440.79 6018.00,4441.47 6018.00,4441.47              6018.00,4441.47 6010.00,4443.64 6010.00,4443.64              6010.00,4443.64 5984.00,4447.94 5984.00,4447.94              5984.00,4447.94 5978.00,4447.94 5978.00,4447.94              5978.00,4447.94 5957.00,4447.94 5957.00,4447.94              5949.77,4448.03 5950.10,4448.82 5944.00,4449.70              5944.00,4449.70 5927.00,4451.00 5927.00,4451.00              5927.00,4451.00 5895.00,4451.00 5895.00,4451.00              5895.00,4451.00 5876.00,4452.38 5876.00,4452.38              5876.00,4452.38 5861.00,4446.52 5861.00,4446.52              5851.41,4443.40 5842.06,4441.89 5832.00,4442.00              5821.19,4442.13 5819.84,4445.29 5815.00,4446.05              5815.00,4446.05 5805.00,4446.05 5805.00,4446.05              5805.00,4446.05 5793.00,4443.17 5793.00,4443.17              5793.00,4443.17 5775.00,4442.54 5775.00,4442.54              5767.48,4441.18 5764.67,4438.69 5756.00,4439.04              5756.00,4439.04 5722.00,4445.97 5722.00,4445.97              5713.22,4445.86 5714.88,4441.02 5699.00,4441.00              5699.00,4441.00 5682.00,4441.00 5682.00,4441.00              5682.00,4441.00 5668.00,4440.04 5668.00,4440.04              5668.00,4440.04 5656.00,4441.63 5656.00,4441.63              5656.00,4441.63 5631.00,4440.00 5631.00,4440.00              5631.00,4440.00 5615.00,4439.00 5615.00,4439.00              5615.00,4439.00 5598.00,4439.00 5598.00,4439.00              5598.00,4439.00 5581.00,4438.09 5581.00,4438.09              5581.00,4438.09 5567.00,4438.09 5567.00,4438.09              5567.00,4438.09 5558.00,4439.74 5558.00,4439.74              5558.00,4439.74 5551.00,4439.09 5551.00,4439.09              5545.20,4438.77 5539.69,4440.91 5534.00,4441.86              5521.76,4443.45 5525.13,4442.05 5515.00,4441.86              5515.00,4441.86 5487.00,4440.83 5487.00,4440.83              5487.00,4440.83 5479.00,4439.30 5479.00,4439.30              5479.00,4439.30 5464.00,4438.04 5464.00,4438.04              5454.87,4437.75 5450.14,4442.09 5443.00,4441.32              5443.00,4441.32 5436.00,4439.67 5436.00,4439.67              5436.00,4439.67 5427.00,4438.54 5427.00,4438.54              5420.60,4437.40 5414.62,4434.72 5408.00,4435.09              5394.99,4435.83 5392.79,4439.07 5385.00,4440.53              5385.00,4440.53 5370.00,4441.46 5370.00,4441.46              5365.77,4442.23 5360.76,4444.85 5357.00,4444.30              5357.00,4444.30 5344.00,4440.79 5344.00,4440.79              5344.00,4440.79 5336.00,4437.22 5336.00,4437.22              5331.04,4435.64 5329.17,4436.36 5325.00,4435.68              5325.00,4435.68 5313.00,4433.09 5313.00,4433.09              5301.03,4432.22 5284.67,4438.75 5275.00,4437.83              5275.00,4437.83 5253.00,4432.89 5253.00,4432.89              5253.00,4432.89 5244.00,4431.49 5244.00,4431.49              5244.00,4431.49 5235.00,4429.06 5235.00,4429.06              5235.00,4429.06 5226.00,4429.06 5226.00,4429.06              5221.17,4428.31 5220.12,4427.16 5214.00,4427.01              5214.00,4427.01 5194.00,4428.00 5194.00,4428.00              5190.51,4428.04 5172.94,4430.47 5170.00,4431.56              5164.90,4433.44 5161.89,4436.83 5158.00,4437.29              5156.41,4437.66 5154.60,4437.30 5153.00,4437.29              5140.32,4436.11 5141.60,4434.00 5134.00,4433.17              5126.52,4432.36 5121.82,4433.92 5115.00,4434.00              5115.00,4434.00 5097.00,4434.00 5097.00,4434.00              5085.38,4434.14 5078.91,4438.74 5072.16,4448.00              5070.75,4449.92 5069.45,4451.85 5068.40,4454.00              5066.35,4458.19 5065.96,4463.35 5058.00,4462.52              5051.79,4461.88 5049.07,4459.21 5041.00,4459.01              5041.00,4459.01 5017.00,4460.90 5017.00,4460.90              5011.21,4462.30 5007.21,4465.39 5001.00,4464.89              4995.59,4464.46 4993.04,4461.77 4985.00,4462.04              4976.47,4462.33 4974.20,4465.64 4968.00,4466.83              4960.06,4468.34 4957.52,4466.09 4950.00,4466.00              4937.76,4465.86 4940.61,4466.61 4930.00,4468.54              4930.00,4468.54 4921.00,4469.92 4921.00,4469.92              4921.00,4469.92 4903.00,4475.12 4903.00,4475.12              4903.00,4475.12 4885.00,4476.90 4885.00,4476.90              4885.00,4476.90 4869.00,4481.54 4869.00,4481.54              4869.00,4481.54 4857.00,4482.17 4857.00,4482.17              4853.90,4482.46 4852.35,4483.07 4849.00,4482.82              4849.00,4482.82 4837.00,4480.46 4837.00,4480.46              4837.00,4480.46 4826.00,4479.70 4826.00,4479.70              4818.57,4478.64 4818.14,4477.04 4809.00,4477.00              4809.00,4477.00 4782.00,4477.00 4782.00,4477.00              4775.14,4477.08 4768.71,4478.73 4762.00,4479.70              4762.00,4479.70 4754.00,4480.47 4754.00,4480.47              4747.86,4481.62 4747.48,4483.26 4740.00,4482.96              4740.00,4482.96 4729.00,4481.04 4729.00,4481.04              4729.00,4481.04 4718.00,4481.04 4718.00,4481.04              4718.00,4481.04 4709.00,4480.01 4709.00,4480.01              4709.00,4480.01 4696.00,4480.68 4696.00,4480.68              4696.00,4480.68 4687.00,4480.04 4687.00,4480.04              4678.95,4480.36 4672.18,4484.86 4661.00,4485.00              4661.00,4485.00 4629.00,4486.00 4629.00,4486.00              4619.95,4485.89 4616.06,4483.97 4608.00,4482.47              4608.00,4482.47 4594.00,4481.18 4594.00,4481.18              4586.74,4479.65 4586.55,4478.10 4578.00,4478.00              4572.86,4477.94 4564.75,4477.64 4560.00,4478.93              4550.45,4481.51 4552.53,4484.35 4537.00,4485.83              4532.90,4486.22 4517.41,4487.11 4514.00,4486.56              4507.20,4485.46 4503.19,4482.33 4496.00,4482.04              4484.91,4481.59 4482.27,4485.71 4477.00,4486.95              4477.00,4486.95 4468.00,4486.95 4468.00,4486.95              4468.00,4486.95 4444.00,4490.66 4444.00,4490.66              4437.56,4492.11 4431.24,4496.27 4425.00,4495.66              4425.00,4495.66 4409.00,4492.28 4409.00,4492.28              4409.00,4492.28 4396.00,4492.28 4396.00,4492.28              4396.00,4492.28 4386.00,4491.03 4386.00,4491.03              4379.98,4491.03 4370.25,4494.40 4365.00,4493.59              4365.00,4493.59 4355.00,4490.67 4355.00,4490.67              4355.00,4490.67 4342.00,4489.33 4342.00,4489.33              4331.04,4487.09 4316.87,4482.88 4306.00,4483.15              4306.00,4483.15 4298.00,4483.15 4298.00,4483.15              4298.00,4483.15 4287.00,4483.15 4287.00,4483.15              4287.00,4483.15 4277.00,4483.82 4277.00,4483.82              4277.00,4483.82 4265.00,4482.10 4265.00,4482.10              4265.00,4482.10 4256.00,4482.10 4256.00,4482.10              4256.00,4482.10 4248.00,4480.46 4248.00,4480.46              4248.00,4480.46 4241.00,4479.68 4241.00,4479.68              4228.60,4477.59 4232.56,4476.83 4218.00,4477.00              4218.00,4477.00 4193.00,4480.68 4193.00,4480.68              4193.00,4480.68 4185.00,4482.90 4185.00,4482.90              4177.41,4483.95 4167.02,4483.10 4159.00,4482.90              4151.25,4482.89 4150.30,4480.79 4143.00,4479.21              4137.44,4478.01 4131.04,4478.17 4126.00,4476.16              4126.00,4476.16 4115.00,4469.95 4115.00,4469.95              4109.05,4467.43 4105.65,4468.82 4102.28,4466.40              4090.03,4457.60 4087.77,4441.03 4068.00,4441.03              4056.65,4441.03 4046.14,4449.29 4040.91,4459.00              4038.06,4464.29 4038.89,4467.56 4036.44,4470.05              4035.44,4471.07 4025.22,4477.97 4024.00,4478.41              4024.00,4478.41 4002.00,4481.00 4002.00,4481.00              4002.00,4481.00 3979.00,4482.00 3979.00,4482.00              3979.00,4482.00 3965.00,4481.04 3965.00,4481.04              3949.48,4480.44 3941.69,4485.98 3931.00,4486.00              3931.00,4486.00 3917.00,4486.00 3917.00,4486.00              3917.00,4486.00 3903.00,4485.09 3903.00,4485.09              3903.00,4485.09 3881.00,4487.98 3881.00,4487.98              3881.00,4487.98 3866.00,4487.00 3866.00,4487.00              3866.00,4487.00 3841.00,4487.00 3841.00,4487.00              3841.00,4487.00 3822.00,4489.00 3822.00,4489.00              3808.96,4489.06 3810.34,4487.34 3803.00,4487.04              3803.00,4487.04 3781.00,4489.82 3781.00,4489.82              3781.00,4489.82 3770.00,4488.09 3770.00,4488.09              3762.85,4487.57 3757.97,4488.85 3755.00,4488.74              3755.00,4488.74 3747.00,4487.30 3747.00,4487.30              3747.00,4487.30 3731.00,4486.00 3731.00,4486.00              3731.00,4486.00 3701.00,4488.00 3701.00,4488.00              3701.00,4488.00 3670.00,4489.00 3670.00,4489.00              3654.88,4489.02 3651.42,4493.17 3646.00,4493.75              3646.00,4493.75 3637.00,4493.04 3637.00,4493.04              3637.00,4493.04 3622.00,4493.73 3622.00,4493.73              3615.57,4492.52 3615.98,4488.86 3602.00,4489.00              3602.00,4489.00 3592.00,4489.96 3592.00,4489.96              3592.00,4489.96 3579.00,4489.96 3579.00,4489.96              3579.00,4489.96 3565.00,4491.45 3565.00,4491.45              3565.00,4491.45 3554.00,4489.17 3554.00,4489.17              3554.00,4489.17 3540.00,4488.33 3540.00,4488.33              3540.00,4488.33 3520.00,4483.46 3520.00,4483.46              3520.00,4483.46 3509.00,4482.70 3509.00,4482.70              3502.49,4481.77 3502.75,4480.84 3495.00,4481.01              3488.88,4481.16 3487.82,4482.31 3483.00,4482.83              3483.00,4482.83 3465.00,4484.46 3465.00,4484.46              3465.00,4484.46 3456.00,4486.72 3456.00,4486.72              3456.00,4486.72 3444.00,4488.47 3444.00,4488.47              3444.00,4488.47 3437.00,4490.42 3437.00,4490.42              3430.45,4492.14 3426.54,4491.93 3420.00,4492.00              3420.00,4492.00 3409.00,4492.68 3409.00,4492.68              3409.00,4492.68 3396.00,4492.00 3396.00,4492.00              3396.00,4492.00 3371.00,4490.09 3371.00,4490.09              3371.00,4490.09 3343.00,4492.96 3343.00,4492.96              3343.00,4492.96 3326.00,4492.96 3326.00,4492.96              3326.00,4492.96 3317.00,4492.25 3317.00,4492.25              3317.00,4492.25 3304.00,4492.25 3304.00,4492.25              3304.00,4492.25 3289.00,4490.30 3289.00,4490.30              3289.00,4490.30 3266.00,4489.00 3266.00,4489.00              3256.09,4489.12 3255.06,4491.98 3243.00,4492.04              3243.00,4492.04 3228.00,4492.04 3228.00,4492.04              3228.00,4492.04 3220.00,4493.17 3220.00,4493.17              3220.00,4493.17 3212.00,4493.17 3212.00,4493.17              3212.00,4493.17 3192.00,4494.90 3192.00,4494.90              3192.00,4494.90 3176.00,4494.00 3176.00,4494.00              3176.00,4494.00 3159.00,4493.00 3159.00,4493.00              3159.00,4493.00 3120.00,4493.00 3120.00,4493.00              3120.00,4493.00 3108.00,4493.96 3108.00,4493.96              3108.00,4493.96 3097.00,4493.96 3097.00,4493.96              3097.00,4493.96 3082.00,4495.00 3082.00,4495.00              3082.00,4495.00 3055.00,4495.00 3055.00,4495.00              3055.00,4495.00 3038.00,4493.02 3038.00,4493.02              3029.10,4492.84 3026.85,4495.30 3021.00,4494.81              3021.00,4494.81 3012.00,4493.09 3012.00,4493.09              3012.00,4493.09 2999.00,4493.09 2999.00,4493.09              2988.24,4493.13 2990.05,4495.98 2978.00,4496.00              2978.00,4496.00 2960.00,4496.00 2960.00,4496.00              2960.00,4496.00 2944.00,4497.00 2944.00,4497.00              2944.00,4497.00 2867.00,4497.00 2867.00,4497.00              2856.49,4497.02 2857.58,4498.46 2851.00,4498.91              2851.00,4498.91 2835.00,4498.04 2835.00,4498.04              2835.00,4498.04 2813.00,4500.08 2813.00,4500.08              2813.00,4500.08 2801.00,4500.08 2801.00,4500.08              2801.00,4500.08 2779.00,4501.96 2779.00,4501.96              2779.00,4501.96 2744.00,4499.00 2744.00,4499.00              2744.00,4499.00 2728.00,4499.00 2728.00,4499.00              2716.80,4498.98 2718.75,4497.01 2711.00,4496.09              2711.00,4496.09 2689.00,4496.09 2689.00,4496.09              2676.91,4496.02 2670.70,4499.89 2659.00,4501.33              2650.35,4502.81 2648.38,4500.70 2642.00,4501.33              2642.00,4501.33 2620.00,4506.49 2620.00,4506.49              2620.00,4506.49 2609.00,4507.47 2609.00,4507.47              2609.00,4507.47 2591.00,4512.33 2591.00,4512.33              2591.00,4512.33 2569.00,4514.00 2569.00,4514.00              2569.00,4514.00 2559.00,4514.00 2559.00,4514.00              2559.00,4514.00 2537.00,4514.00 2537.00,4514.00              2537.00,4514.00 2506.00,4510.00 2506.00,4510.00              2506.00,4510.00 2490.00,4510.00 2490.00,4510.00              2490.00,4510.00 2478.00,4510.95 2478.00,4510.95              2478.00,4510.95 2463.00,4510.95 2463.00,4510.95              2463.00,4510.95 2447.00,4510.09 2447.00,4510.09              2447.00,4510.09 2416.00,4513.00 2416.00,4513.00              2416.00,4513.00 2387.00,4516.00 2387.00,4516.00              2387.00,4516.00 2369.00,4514.17 2369.00,4514.17              2369.00,4514.17 2353.00,4513.09 2353.00,4513.09              2353.00,4513.09 2339.00,4513.75 2339.00,4513.75              2333.98,4513.27 2329.43,4509.69 2316.00,4510.01              2307.65,4510.22 2306.40,4512.28 2300.00,4513.63              2293.40,4515.01 2286.70,4514.93 2280.00,4515.00              2280.00,4515.00 2262.00,4517.20 2262.00,4517.20              2262.00,4517.20 2255.00,4517.20 2255.00,4517.20              2247.55,4516.78 2246.80,4518.21 2241.00,4518.83              2241.00,4518.83 2229.00,4519.47 2229.00,4519.47              2229.00,4519.47 2220.00,4521.79 2220.00,4521.79              2220.00,4521.79 2199.00,4523.30 2199.00,4523.30              2199.00,4523.30 2186.00,4526.90 2186.00,4526.90              2177.83,4527.69 2173.37,4525.35 2166.00,4524.15              2166.00,4524.15 2152.00,4524.15 2152.00,4524.15              2152.00,4524.15 2123.00,4520.00 2123.00,4520.00              2114.66,4519.99 2088.63,4516.38 2080.00,4514.63              2080.00,4514.63 2069.00,4511.65 2069.00,4511.65              2069.00,4511.65 2056.00,4509.68 2056.00,4509.68              2044.10,4507.68 2047.94,4506.98 2034.00,4507.24              2034.00,4507.24 2022.00,4507.24 2022.00,4507.24              2022.00,4507.24 1999.00,4506.01 1999.00,4506.01              1999.00,4506.01 1980.00,4507.29 1980.00,4507.29              1972.33,4508.29 1965.99,4510.17 1958.00,4509.99              1946.84,4509.73 1943.27,4505.35 1934.00,4505.04              1927.14,4504.81 1921.76,4507.44 1915.00,4507.91              1915.00,4507.91 1883.00,4509.00 1883.00,4509.00              1883.00,4509.00 1862.00,4510.00 1862.00,4510.00              1862.00,4510.00 1852.00,4509.04 1852.00,4509.04              1852.00,4509.04 1840.00,4509.04 1840.00,4509.04              1840.00,4509.04 1821.00,4507.01 1821.00,4507.01              1821.00,4507.01 1812.00,4507.96 1812.00,4507.96              1812.00,4507.96 1801.00,4507.96 1801.00,4507.96              1801.00,4507.96 1776.00,4505.04 1776.00,4505.04              1768.12,4505.36 1765.47,4508.27 1761.00,4508.75              1761.00,4508.75 1748.00,4508.01 1748.00,4508.01              1735.64,4508.30 1736.35,4513.40 1725.00,4512.96              1725.00,4512.96 1715.00,4512.03 1715.00,4512.03              1715.00,4512.03 1705.00,4512.96 1705.00,4512.96              1705.00,4512.96 1674.00,4510.04 1674.00,4510.04              1674.00,4510.04 1660.00,4511.90 1660.00,4511.90              1660.00,4511.90 1642.00,4510.00 1642.00,4510.00              1642.00,4510.00 1615.00,4510.00 1615.00,4510.00              1615.00,4510.00 1604.00,4510.66 1604.00,4510.66              1604.00,4510.66 1581.00,4508.83 1581.00,4508.83              1581.00,4508.83 1561.00,4505.55 1561.00,4505.55              1561.00,4505.55 1550.00,4503.09 1550.00,4503.09              1550.00,4503.09 1541.00,4503.09 1541.00,4503.09              1528.25,4502.98 1529.95,4500.93 1520.00,4498.68              1520.00,4498.68 1510.00,4497.54 1510.00,4497.54              1505.60,4496.76 1503.84,4495.82 1499.00,4496.09              1499.00,4496.09 1472.00,4497.96 1472.00,4497.96              1472.00,4497.96 1448.00,4496.04 1448.00,4496.04              1448.00,4496.04 1418.00,4500.47 1418.00,4500.47              1418.00,4500.47 1409.00,4502.79 1409.00,4502.79              1409.00,4502.79 1382.00,4504.00 1382.00,4504.00              1382.00,4504.00 1365.00,4504.91 1365.00,4504.91              1365.00,4504.91 1354.00,4504.91 1354.00,4504.91              1348.46,4504.24 1348.45,4503.09 1341.00,4503.00              1341.00,4503.00 1315.00,4502.00 1315.00,4502.00              1305.01,4501.98 1307.17,4500.97 1300.00,4500.17              1300.00,4500.17 1276.00,4499.00 1276.00,4499.00              1276.00,4499.00 1260.00,4500.30 1260.00,4500.30              1254.49,4501.09 1254.77,4501.92 1248.00,4502.00              1248.00,4502.00 1235.00,4502.00 1235.00,4502.00              1235.00,4502.00 1219.00,4503.00 1219.00,4503.00              1219.00,4503.00 1175.00,4507.00 1175.00,4507.00              1175.00,4507.00 1161.00,4507.81 1161.00,4507.81              1161.00,4507.81 1144.00,4505.54 1144.00,4505.54              1140.38,4504.90 1139.05,4504.20 1135.00,4504.04              1126.43,4503.69 1124.46,4506.20 1119.00,4505.66              1111.64,4504.94 1113.18,4503.95 1103.00,4504.00              1094.65,4504.04 1092.31,4505.80 1088.00,4505.82              1084.00,4505.84 1080.05,4504.39 1072.00,4505.17              1072.00,4505.17 1055.00,4508.75 1055.00,4508.75              1055.00,4508.75 1034.00,4506.00 1034.00,4506.00              1022.87,4505.87 1025.18,4506.95 1017.00,4507.91              1017.00,4507.91 1004.00,4507.91 1004.00,4507.91              1004.00,4507.91 984.00,4510.00 984.00,4510.00              984.00,4510.00 968.00,4510.00 968.00,4510.00              968.00,4510.00 954.00,4511.00 954.00,4511.00              954.00,4511.00 928.00,4509.04 928.00,4509.04              928.00,4509.04 917.00,4509.68 917.00,4509.68              917.00,4509.68 903.00,4508.83 903.00,4508.83              903.00,4508.83 893.00,4507.17 893.00,4507.17              893.00,4507.17 873.00,4505.82 873.00,4505.82              873.00,4505.82 863.00,4503.46 863.00,4503.46              863.00,4503.46 848.00,4502.09 848.00,4502.09              848.00,4502.09 829.00,4503.00 829.00,4503.00              805.69,4503.28 804.63,4520.88 782.00,4521.00              782.00,4521.00 778.00,4521.00 778.00,4521.00              772.35,4521.07 772.08,4521.62 767.00,4522.54              767.00,4522.54 758.00,4523.89 758.00,4523.89              758.00,4523.89 739.00,4529.42 739.00,4529.42              739.00,4529.42 722.00,4533.63 722.00,4533.63              722.00,4533.63 713.00,4534.93 713.00,4534.93              713.00,4534.93 701.00,4539.52 701.00,4539.52              701.00,4539.52 681.00,4539.00 681.00,4539.00              672.85,4538.96 672.44,4537.81 666.00,4537.00              666.00,4537.00 658.00,4537.00 658.00,4537.00              658.00,4537.00 628.00,4531.99 628.00,4531.99              628.00,4531.99 618.00,4529.46 618.00,4529.46              618.00,4529.46 611.00,4528.63 611.00,4528.63              611.00,4528.63 601.00,4526.17 601.00,4526.17              595.10,4525.53 592.34,4526.55 587.00,4526.96              587.00,4526.96 576.00,4526.96 576.00,4526.96              576.00,4526.96 538.00,4532.68 538.00,4532.68              532.42,4533.97 530.63,4536.29 526.00,4536.87              526.00,4536.87 507.00,4535.79 507.00,4535.79              507.00,4535.79 484.00,4528.57 484.00,4528.57              476.17,4526.99 468.56,4529.03 464.00,4528.57              448.29,4527.48 443.75,4520.09 425.00,4520.00              420.43,4519.98 414.33,4520.31 410.00,4519.32              401.67,4517.41 396.39,4513.50 386.00,4514.09              386.00,4514.09 379.00,4514.82 379.00,4514.82              379.00,4514.82 369.00,4513.09 369.00,4513.09              369.00,4513.09 355.00,4513.09 355.00,4513.09              341.76,4512.98 333.24,4508.37 325.00,4508.04              318.69,4507.78 317.99,4508.92 313.00,4509.49              307.79,4510.09 303.75,4506.32 299.00,4504.75              292.85,4502.71 288.34,4502.93 282.00,4503.00              275.20,4503.08 275.51,4503.92 270.00,4504.70              270.00,4504.70 258.00,4505.30 258.00,4505.30              248.98,4506.60 249.13,4508.36 236.00,4508.45              230.19,4508.48 227.21,4503.57 217.00,4504.09              203.99,4504.76 202.10,4501.22 191.00,4498.68              185.37,4497.39 181.29,4498.69 177.00,4497.19              177.00,4497.19 163.00,4489.93 163.00,4489.93              157.52,4487.74 153.70,4488.00 148.00,4488.00 Z            M 7340.00,136.00            C 7340.00,136.00 7333.99,145.00 7333.99,145.00              7333.12,146.54 7332.40,148.21 7332.27,150.00              7331.83,156.17 7339.59,160.22 7344.98,158.25              7351.80,155.75 7356.22,143.54 7348.94,139.27              7348.94,139.27 7340.00,136.00 7340.00,136.00 Z            M 1013.00,3442.00            C 1015.93,3440.84 1024.41,3438.66 1025.83,3436.57              1031.62,3428.07 1016.29,3412.60 1009.90,3425.04              1008.13,3428.27 1010.69,3429.73 1009.90,3438.00              1009.90,3438.00 1013.00,3442.00 1013.00,3442.00 Z            M 1010.00,3438.00            C 1010.00,3438.00 1009.00,3438.00 1009.00,3438.00              1009.00,3438.00 1010.00,3439.00 1010.00,3439.00              1010.00,3439.00 1010.00,3438.00 1010.00,3438.00 Z"
            style="fill:#000000;fill-opacity:1"/>
</svg>
