<?xml version="1.0" encoding="UTF-8" standalone="no"?>
<svg
        width="173.377mm"
        height="116.925mm"
        viewBox="0 0 8191 5524"
        version="1.1"
        id="svg1441"
        sodipodi:docname="sheet7b.svg"
        inkscape:version="1.1.1 (3bf5ae0d25, 2021-09-20)"
        xmlns:inkscape="http://www.inkscape.org/namespaces/inkscape"
        xmlns:sodipodi="http://sodipodi.sourceforge.net/DTD/sodipodi-0.dtd"
        xmlns="http://www.w3.org/2000/svg"
>
    <defs
            id="defs1445"/>
    <sodipodi:namedview
            id="namedview1443"
            pagecolor="#ffffff"
            bordercolor="#666666"
            borderopacity="1.0"
            inkscape:pageshadow="2"
            inkscape:pageopacity="0.0"
            inkscape:pagecheckerboard="0"
            inkscape:document-units="mm"
            showgrid="false"
            inkscape:zoom="1.7944373"
            inkscape:cx="327.40069"
            inkscape:cy="220.96064"
            inkscape:window-width="1920"
            inkscape:window-height="1001"
            inkscape:window-x="-7"
            inkscape:window-y="-7"
            inkscape:window-maximized="1"
            inkscape:current-layer="svg1441"/>
    <path
            id="Selection"
            fill="none"
            stroke="black"
            stroke-width="1"
            d="M 113.00,105.96            C 115.36,99.81 121.27,98.18 127.00,95.94              127.00,95.94 136.00,92.22 136.00,92.22              136.00,92.22 162.00,84.68 162.00,84.68              162.00,84.68 170.00,80.68 170.00,80.68              173.59,79.43 175.43,80.21 184.00,76.57              190.64,73.76 198.87,68.95 206.00,68.17              218.46,66.82 220.01,70.60 229.00,70.96              229.00,70.96 247.00,69.53 247.00,69.53              255.79,67.89 251.09,67.02 263.00,67.00              263.00,67.00 278.00,66.19 278.00,66.19              283.70,66.80 284.90,68.89 294.00,69.00              305.12,69.13 302.80,68.05 311.00,67.17              311.00,67.17 336.00,66.00 336.00,66.00              336.00,66.00 347.00,65.37 347.00,65.37              347.00,65.37 364.00,66.91 364.00,66.91              364.00,66.91 372.00,66.21 372.00,66.21              378.44,66.54 384.44,68.39 391.00,67.91              399.17,67.32 403.92,63.75 408.00,62.93              408.00,62.93 420.00,62.93 420.00,62.93              420.00,62.93 433.00,62.93 433.00,62.93              433.00,62.93 442.00,62.01 442.00,62.01              442.00,62.01 461.00,64.00 461.00,64.00              461.00,64.00 493.00,61.21 493.00,61.21              493.00,61.21 507.00,62.00 507.00,62.00              507.00,62.00 520.00,61.18 520.00,61.18              520.00,61.18 536.00,62.00 536.00,62.00              536.00,62.00 561.00,64.96 561.00,64.96              561.00,64.96 570.00,64.25 570.00,64.25              570.00,64.25 581.00,66.83 581.00,66.83              581.00,66.83 593.00,67.39 593.00,67.39              597.10,68.26 601.42,71.34 612.00,72.71              612.00,72.71 632.00,72.00 632.00,72.00              632.00,72.00 646.00,72.96 646.00,72.96              646.00,72.96 658.00,72.96 658.00,72.96              658.00,72.96 664.00,72.27 664.00,72.27              667.65,72.27 672.62,74.75 677.00,75.77              680.66,76.20 688.03,76.04 692.00,75.77              692.00,75.77 705.00,74.52 705.00,74.52              708.31,74.30 711.19,75.54 717.00,74.52              717.00,74.52 727.00,72.76 727.00,72.76              727.00,72.76 736.00,72.76 736.00,72.76              736.00,72.76 744.00,72.76 744.00,72.76              744.00,72.76 768.00,72.76 768.00,72.76              768.00,72.76 800.00,71.00 800.00,71.00              800.00,71.00 822.00,72.00 822.00,72.00              822.00,72.00 896.00,72.00 896.00,72.00              896.00,72.00 926.00,75.00 926.00,75.00              926.00,75.00 948.00,75.00 948.00,75.00              948.00,75.00 964.00,74.00 964.00,74.00              964.00,74.00 975.00,74.00 975.00,74.00              983.43,74.04 982.76,75.16 989.00,75.91              989.00,75.91 1003.00,75.91 1003.00,75.91              1003.00,75.91 1021.00,73.84 1021.00,73.84              1021.00,73.84 1039.00,76.00 1039.00,76.00              1039.00,76.00 1060.00,75.04 1060.00,75.04              1060.00,75.04 1088.00,76.96 1088.00,76.96              1088.00,76.96 1106.00,75.92 1106.00,75.92              1106.00,75.92 1122.00,75.92 1122.00,75.92              1122.00,75.92 1132.00,77.00 1132.00,77.00              1132.00,77.00 1155.00,75.00 1155.00,75.00              1163.28,75.00 1162.83,76.17 1169.00,76.92              1169.00,76.92 1178.00,76.92 1178.00,76.92              1178.00,76.92 1188.00,77.95 1188.00,77.95              1188.00,77.95 1206.00,77.95 1206.00,77.95              1206.00,77.95 1221.00,77.04 1221.00,77.04              1221.00,77.04 1237.00,79.00 1237.00,79.00              1237.00,79.00 1246.00,79.00 1246.00,79.00              1246.00,79.00 1268.00,81.00 1268.00,81.00              1268.00,81.00 1294.00,80.00 1294.00,80.00              1294.00,80.00 1309.00,79.09 1309.00,79.09              1309.00,79.09 1323.00,79.09 1323.00,79.09              1330.01,79.92 1328.07,80.98 1338.00,81.00              1338.00,81.00 1383.00,80.00 1383.00,80.00              1383.00,80.00 1393.00,80.95 1393.00,80.95              1393.00,80.95 1408.00,80.95 1408.00,80.95              1408.00,80.95 1433.00,78.00 1433.00,78.00              1433.00,78.00 1453.00,77.00 1453.00,77.00              1453.00,77.00 1477.00,78.00 1477.00,78.00              1493.39,78.20 1500.18,82.55 1508.00,83.94              1508.00,83.94 1518.00,83.94 1518.00,83.94              1518.00,83.94 1529.00,86.54 1529.00,86.54              1529.00,86.54 1537.00,87.17 1537.00,87.17              1537.00,87.17 1551.00,89.88 1551.00,89.88              1560.59,92.03 1580.69,97.66 1590.00,97.96              1590.00,97.96 1599.00,97.18 1599.00,97.18              1599.00,97.18 1611.00,98.00 1611.00,98.00              1611.00,98.00 1632.00,98.00 1632.00,98.00              1632.00,98.00 1645.00,97.18 1645.00,97.18              1645.00,97.18 1652.00,98.54 1652.00,98.54              1652.00,98.54 1682.00,101.71 1682.00,101.71              1682.00,101.71 1689.00,101.71 1689.00,101.71              1692.79,101.65 1694.03,102.92 1701.00,102.87              1701.00,102.87 1712.00,102.87 1712.00,102.87              1712.00,102.87 1719.00,103.91 1719.00,103.91              1719.00,103.91 1731.00,103.91 1731.00,103.91              1731.00,103.91 1740.00,103.34 1740.00,103.34              1740.00,103.34 1751.00,103.99 1751.00,103.99              1751.00,103.99 1767.00,102.18 1767.00,102.18              1767.00,102.18 1805.00,103.00 1805.00,103.00              1811.52,103.01 1826.70,104.81 1833.00,106.34              1842.04,108.53 1844.62,110.95 1855.00,111.00              1855.00,111.00 1883.00,111.00 1883.00,111.00              1883.00,111.00 1898.00,109.70 1898.00,109.70              1898.00,109.70 1905.00,108.47 1905.00,108.47              1905.00,108.47 1917.00,109.00 1917.00,109.00              1917.00,109.00 1935.00,107.70 1935.00,107.70              1935.00,107.70 1941.00,106.81 1941.00,106.81              1941.00,106.81 1950.00,106.81 1950.00,106.81              1961.22,107.12 1964.88,107.03 1976.00,104.58              1976.00,104.58 1986.00,102.30 1986.00,102.30              1995.31,100.95 2004.62,101.11 2014.00,101.00              2014.00,101.00 2023.00,100.34 2023.00,100.34              2023.00,100.34 2035.00,101.96 2035.00,101.96              2035.00,101.96 2055.00,101.96 2055.00,101.96              2055.00,101.96 2082.00,105.00 2082.00,105.00              2082.00,105.00 2103.00,105.00 2103.00,105.00              2103.00,105.00 2113.00,103.96 2113.00,103.96              2113.00,103.96 2122.00,103.96 2122.00,103.96              2122.00,103.96 2144.00,101.00 2144.00,101.00              2144.00,101.00 2168.00,101.00 2168.00,101.00              2168.00,101.00 2182.00,100.00 2182.00,100.00              2182.00,100.00 2213.00,98.00 2213.00,98.00              2213.00,98.00 2225.00,97.08 2225.00,97.08              2225.00,97.08 2236.00,98.00 2236.00,98.00              2236.00,98.00 2264.00,98.00 2264.00,98.00              2264.00,98.00 2279.00,97.00 2279.00,97.00              2279.00,97.00 2303.00,97.00 2303.00,97.00              2315.76,96.98 2318.21,93.51 2323.00,93.51              2323.00,93.51 2336.00,95.83 2336.00,95.83              2336.00,95.83 2353.00,97.91 2353.00,97.91              2353.00,97.91 2378.00,99.29 2378.00,99.29              2388.07,100.52 2391.97,102.98 2403.00,103.00              2403.00,103.00 2421.00,103.00 2421.00,103.00              2421.00,103.00 2430.00,102.34 2430.00,102.34              2430.00,102.34 2440.00,103.04 2440.00,103.04              2440.00,103.04 2452.00,103.04 2452.00,103.04              2452.00,103.04 2464.00,104.00 2464.00,104.00              2464.00,104.00 2512.00,104.00 2512.00,104.00              2512.00,104.00 2529.00,103.00 2529.00,103.00              2537.43,102.96 2536.76,101.84 2543.00,101.04              2543.00,101.04 2555.00,101.04 2555.00,101.04              2555.00,101.04 2569.00,99.09 2569.00,99.09              2569.00,99.09 2586.00,100.00 2586.00,100.00              2586.00,100.00 2598.00,99.32 2598.00,99.32              2598.00,99.32 2609.00,100.00 2609.00,100.00              2609.00,100.00 2636.00,102.00 2636.00,102.00              2636.00,102.00 2644.00,102.00 2644.00,102.00              2644.00,102.00 2656.00,103.00 2656.00,103.00              2656.00,103.00 2678.00,103.00 2678.00,103.00              2678.00,103.00 2693.00,102.04 2693.00,102.04              2693.00,102.04 2706.00,104.00 2706.00,104.00              2706.00,104.00 2715.00,104.00 2715.00,104.00              2715.00,104.00 2724.00,106.00 2724.00,106.00              2724.00,106.00 2733.00,106.00 2733.00,106.00              2733.00,106.00 2743.00,108.00 2743.00,108.00              2743.00,108.00 2754.00,108.00 2754.00,108.00              2754.00,108.00 2780.00,110.00 2780.00,110.00              2780.00,110.00 2799.00,108.18 2799.00,108.18              2799.00,108.18 2819.00,110.00 2819.00,110.00              2819.00,110.00 2866.00,110.00 2866.00,110.00              2866.00,110.00 2881.00,109.00 2881.00,109.00              2881.00,109.00 2899.00,109.00 2899.00,109.00              2899.00,109.00 2914.00,108.09 2914.00,108.09              2914.00,108.09 2926.00,109.00 2926.00,109.00              2926.00,109.00 2946.00,109.00 2946.00,109.00              2957.34,109.05 2955.21,111.32 2971.00,110.85              2971.00,110.85 2979.00,110.85 2979.00,110.85              2979.00,110.85 2987.00,110.05 2987.00,110.05              2987.00,110.05 3006.00,110.05 3006.00,110.05              3006.00,110.05 3019.00,110.91 3019.00,110.91              3019.00,110.91 3034.00,109.51 3034.00,109.51              3034.00,109.51 3063.00,112.00 3063.00,112.00              3063.00,112.00 3085.00,112.00 3085.00,112.00              3085.00,112.00 3099.00,111.00 3099.00,111.00              3099.00,111.00 3112.00,111.91 3112.00,111.91              3112.00,111.91 3134.00,113.09 3134.00,113.09              3134.00,113.09 3146.00,114.00 3146.00,114.00              3146.00,114.00 3167.00,114.00 3167.00,114.00              3167.00,114.00 3187.00,115.91 3187.00,115.91              3187.00,115.91 3200.00,115.91 3200.00,115.91              3200.00,115.91 3215.00,114.79 3215.00,114.79              3215.00,114.79 3235.00,114.79 3235.00,114.79              3235.00,114.79 3247.00,114.79 3247.00,114.79              3247.00,114.79 3255.00,114.79 3255.00,114.79              3255.00,114.79 3263.00,114.79 3263.00,114.79              3263.00,114.79 3272.00,114.79 3272.00,114.79              3272.00,114.79 3282.00,114.79 3282.00,114.79              3282.00,114.79 3296.00,114.79 3296.00,114.79              3305.38,115.11 3309.34,118.35 3317.00,117.91              3317.00,117.91 3327.00,116.29 3327.00,116.29              3327.00,116.29 3346.00,115.00 3346.00,115.00              3346.00,115.00 3357.00,115.00 3357.00,115.00              3367.77,115.15 3365.02,118.98 3380.00,119.00              3380.00,119.00 3419.00,119.00 3419.00,119.00              3419.00,119.00 3429.00,119.96 3429.00,119.96              3429.00,119.96 3442.00,119.96 3442.00,119.96              3442.00,119.96 3456.00,121.00 3456.00,121.00              3456.00,121.00 3487.00,123.00 3487.00,123.00              3487.00,123.00 3499.00,123.00 3499.00,123.00              3499.00,123.00 3524.00,126.15 3524.00,126.15              3524.00,126.15 3534.00,126.15 3534.00,126.15              3538.70,126.97 3539.31,127.85 3545.00,127.99              3555.57,128.24 3556.46,126.39 3561.00,126.34              3561.00,126.34 3570.00,126.96 3570.00,126.96              3570.00,126.96 3581.00,126.00 3581.00,126.00              3581.00,126.00 3606.00,126.00 3606.00,126.00              3606.00,126.00 3619.00,127.00 3619.00,127.00              3619.00,127.00 3643.00,127.00 3643.00,127.00              3643.00,127.00 3664.00,128.00 3664.00,128.00              3664.00,128.00 3683.00,126.00 3683.00,126.00              3683.00,126.00 3739.00,127.00 3739.00,127.00              3739.00,127.00 3756.00,126.00 3756.00,126.00              3756.00,126.00 3791.00,126.00 3791.00,126.00              3791.00,126.00 3808.00,125.00 3808.00,125.00              3808.00,125.00 3835.00,124.00 3835.00,124.00              3835.00,124.00 3853.00,126.00 3853.00,126.00              3853.00,126.00 3882.00,124.83 3882.00,124.83              3882.00,124.83 3904.00,122.09 3904.00,122.09              3904.00,122.09 3924.00,124.00 3924.00,124.00              3924.00,124.00 3946.00,123.00 3946.00,123.00              3946.00,123.00 3980.00,123.00 3980.00,123.00              3990.59,122.98 3992.67,121.06 4001.00,120.08              4001.00,120.08 4017.00,120.08 4017.00,120.08              4023.45,119.92 4047.33,115.75 4054.00,114.10              4054.00,114.10 4062.00,111.61 4062.00,111.61              4066.15,110.56 4068.79,111.37 4074.00,109.44              4082.09,106.45 4084.65,100.93 4089.09,99.01              4092.44,97.55 4099.16,98.04 4103.00,98.00              4111.01,97.90 4111.07,96.79 4118.00,94.59              4118.00,94.59 4126.00,92.46 4126.00,92.46              4126.00,92.46 4132.00,90.39 4132.00,90.39              4132.00,90.39 4152.00,91.00 4152.00,91.00              4166.26,90.83 4163.06,85.71 4176.00,86.01              4176.00,86.01 4206.00,91.63 4206.00,91.63              4206.00,91.63 4214.00,94.56 4214.00,94.56              4214.00,94.56 4227.00,96.75 4227.00,96.75              4227.00,96.75 4260.00,104.70 4260.00,104.70              4260.00,104.70 4283.00,106.17 4283.00,106.17              4283.00,106.17 4305.00,109.00 4305.00,109.00              4311.63,109.03 4317.44,108.62 4324.00,107.56              4327.87,106.94 4332.16,105.48 4336.00,105.84              4336.00,105.84 4342.00,106.92 4342.00,106.92              4342.00,106.92 4352.00,106.92 4352.00,106.92              4352.00,106.92 4386.00,109.28 4386.00,109.28              4386.00,109.28 4401.00,112.06 4401.00,112.06              4401.00,112.06 4410.00,112.06 4410.00,112.06              4410.00,112.06 4422.00,114.54 4422.00,114.54              4422.00,114.54 4439.00,116.96 4439.00,116.96              4439.00,116.96 4447.00,116.96 4447.00,116.96              4453.06,118.06 4456.63,121.16 4471.00,121.00              4471.00,121.00 4486.00,120.01 4486.00,120.01              4486.00,120.01 4502.00,121.00 4502.00,121.00              4513.48,121.02 4525.02,127.62 4542.00,126.96              4542.00,126.96 4557.00,125.79 4557.00,125.79              4560.99,125.89 4565.01,126.25 4569.00,125.79              4576.39,125.04 4587.37,121.93 4595.00,122.56              4598.88,122.88 4601.55,125.80 4606.00,127.44              4611.04,129.31 4619.78,129.52 4625.00,128.32              4630.78,126.99 4636.79,123.43 4640.67,118.96              4642.74,116.58 4645.49,111.31 4647.53,109.99              4648.97,109.06 4662.76,108.02 4665.00,108.18              4665.00,108.18 4680.00,109.29 4680.00,109.29              4687.40,110.20 4687.59,110.99 4696.00,111.00              4696.00,111.00 4708.00,111.00 4708.00,111.00              4708.00,111.00 4733.00,113.00 4733.00,113.00              4733.00,113.00 4748.00,113.00 4748.00,113.00              4748.00,113.00 4773.00,115.00 4773.00,115.00              4773.00,115.00 4802.00,115.00 4802.00,115.00              4802.00,115.00 4825.00,116.92 4825.00,116.92              4825.00,116.92 4845.00,116.92 4845.00,116.92              4845.00,116.92 4854.00,116.92 4854.00,116.92              4854.00,116.92 4881.00,119.00 4881.00,119.00              4881.00,119.00 4910.00,119.00 4910.00,119.00              4910.00,119.00 4923.00,119.88 4923.00,119.88              4923.00,119.88 4931.00,119.88 4931.00,119.88              4936.88,120.31 4935.81,121.98 4947.00,122.00              4947.00,122.00 4984.00,123.91 4984.00,123.91              4988.03,123.68 4990.47,122.70 4995.00,123.10              5002.17,123.74 5000.68,126.15 5014.00,126.00              5014.00,126.00 5024.00,125.18 5024.00,125.18              5024.00,125.18 5037.00,126.17 5037.00,126.17              5037.00,126.17 5056.00,128.96 5056.00,128.96              5063.75,129.21 5071.40,126.99 5079.00,126.04              5079.00,126.04 5089.00,126.04 5089.00,126.04              5089.00,126.04 5105.00,125.00 5105.00,125.00              5105.00,125.00 5120.00,124.00 5120.00,124.00              5120.00,124.00 5138.00,124.00 5138.00,124.00              5138.00,124.00 5149.00,123.10 5149.00,123.10              5149.00,123.10 5161.00,123.91 5161.00,123.91              5161.00,123.91 5174.00,122.70 5174.00,122.70              5179.51,121.91 5179.23,121.08 5186.00,120.92              5186.00,120.92 5200.00,120.92 5200.00,120.92              5200.00,120.92 5208.00,119.86 5208.00,119.86              5208.00,119.86 5217.00,119.86 5217.00,119.86              5217.00,119.86 5234.00,119.86 5234.00,119.86              5234.00,119.86 5256.00,118.32 5256.00,118.32              5259.17,118.56 5260.41,119.11 5264.00,118.91              5264.00,118.91 5277.00,117.70 5277.00,117.70              5277.00,117.70 5285.00,115.94 5285.00,115.94              5285.00,115.94 5297.00,115.94 5297.00,115.94              5297.00,115.94 5313.00,113.09 5313.00,113.09              5321.03,112.54 5328.15,114.41 5336.00,114.91              5336.00,114.91 5352.00,114.01 5352.00,114.01              5352.00,114.01 5377.00,116.00 5377.00,116.00              5377.00,116.00 5394.00,115.00 5394.00,115.00              5394.00,115.00 5413.00,114.32 5413.00,114.32              5413.00,114.32 5432.00,115.00 5432.00,115.00              5432.00,115.00 5447.00,116.00 5447.00,116.00              5447.00,116.00 5462.00,115.00 5462.00,115.00              5462.00,115.00 5478.00,115.00 5478.00,115.00              5478.00,115.00 5494.00,116.00 5494.00,116.00              5494.00,116.00 5505.00,116.00 5505.00,116.00              5505.00,116.00 5517.00,115.18 5517.00,115.18              5517.00,115.18 5541.00,116.00 5541.00,116.00              5541.00,116.00 5558.00,115.00 5558.00,115.00              5558.00,115.00 5610.00,115.00 5610.00,115.00              5610.00,115.00 5625.00,113.92 5625.00,113.92              5625.00,113.92 5642.00,113.92 5642.00,113.92              5651.71,112.79 5648.01,111.17 5663.00,111.00              5663.00,111.00 5694.00,109.00 5694.00,109.00              5694.00,109.00 5741.00,108.00 5741.00,108.00              5741.00,108.00 5762.00,110.00 5762.00,110.00              5762.00,110.00 5780.00,110.00 5780.00,110.00              5780.00,110.00 5810.00,112.43 5810.00,112.43              5816.78,113.40 5831.78,116.26 5838.00,115.91              5838.00,115.91 5850.00,115.00 5850.00,115.00              5850.00,115.00 5887.00,115.00 5887.00,115.00              5887.00,115.00 5909.00,114.00 5909.00,114.00              5909.00,114.00 5929.00,112.46 5929.00,112.46              5933.97,112.40 5937.57,114.90 5946.00,115.00              5946.00,115.00 5962.00,114.21 5962.00,114.21              5967.22,114.54 5967.08,116.10 5977.00,116.00              5977.00,116.00 5993.00,114.74 5993.00,114.74              5993.00,114.74 6017.00,117.00 6017.00,117.00              6017.00,117.00 6051.00,117.00 6051.00,117.00              6051.00,117.00 6067.00,116.00 6067.00,116.00              6067.00,116.00 6085.00,115.21 6085.00,115.21              6095.58,115.80 6094.53,119.24 6115.00,119.00              6115.00,119.00 6132.00,117.75 6132.00,117.75              6132.00,117.75 6148.00,119.00 6148.00,119.00              6148.00,119.00 6168.00,118.00 6168.00,118.00              6168.00,118.00 6191.00,118.00 6191.00,118.00              6191.00,118.00 6212.00,120.00 6212.00,120.00              6212.00,120.00 6283.00,120.00 6283.00,120.00              6283.00,120.00 6304.00,119.00 6304.00,119.00              6304.00,119.00 6324.00,120.00 6324.00,120.00              6332.07,119.90 6350.36,117.84 6358.00,115.56              6358.00,115.56 6380.00,108.13 6380.00,108.13              6388.07,107.22 6401.77,111.90 6410.00,112.00              6410.00,112.00 6435.00,111.00 6435.00,111.00              6435.00,111.00 6445.00,111.91 6445.00,111.91              6460.26,112.96 6475.74,115.48 6491.00,114.44              6491.00,114.44 6521.00,114.44 6521.00,114.44              6521.00,114.44 6537.00,116.04 6537.00,116.04              6537.00,116.04 6549.00,116.04 6549.00,116.04              6552.87,116.35 6554.71,117.15 6559.00,116.91              6559.00,116.91 6569.00,116.00 6569.00,116.00              6569.00,116.00 6600.00,117.17 6600.00,117.17              6610.58,118.23 6608.51,120.17 6623.00,120.00              6623.00,120.00 6637.00,118.18 6637.00,118.18              6637.00,118.18 6648.00,119.96 6648.00,119.96              6648.00,119.96 6668.00,119.96 6668.00,119.96              6668.00,119.96 6701.00,116.04 6701.00,116.04              6701.00,116.04 6717.00,116.99 6717.00,116.99              6717.00,116.99 6729.00,116.00 6729.00,116.00              6729.00,116.00 6745.00,117.04 6745.00,117.04              6745.00,117.04 6754.00,117.04 6754.00,117.04              6754.00,117.04 6769.00,119.71 6769.00,119.71              6783.15,121.56 6791.67,122.16 6806.00,122.00              6806.00,122.00 6844.00,117.71 6844.00,117.71              6844.00,117.71 6852.00,116.73 6852.00,116.73              6852.00,116.73 6863.00,116.73 6863.00,116.73              6863.00,116.73 6885.00,116.73 6885.00,116.73              6885.00,116.73 6894.00,116.73 6894.00,116.73              6905.48,117.05 6902.65,116.06 6911.00,115.09              6911.00,115.09 6922.00,115.09 6922.00,115.09              6922.00,115.09 6939.00,116.00 6939.00,116.00              6939.00,116.00 6953.00,115.00 6953.00,115.00              6953.00,115.00 6968.00,115.00 6968.00,115.00              6980.21,114.98 6978.24,113.16 6985.00,112.10              6985.00,112.10 7005.00,112.10 7005.00,112.10              7014.24,111.99 7036.35,107.64 7045.00,104.44              7045.00,104.44 7053.00,100.66 7053.00,100.66              7062.16,97.27 7067.34,97.97 7074.47,88.99              7077.16,85.60 7080.93,79.17 7082.07,75.00              7084.48,66.23 7080.92,69.58 7087.55,59.02              7088.38,57.69 7089.34,55.90 7090.63,54.99              7094.34,52.37 7110.92,52.26 7116.00,51.91              7116.00,51.91 7134.00,50.00 7134.00,50.00              7134.00,50.00 7153.00,50.00 7153.00,50.00              7153.00,50.00 7169.00,50.75 7169.00,50.75              7169.00,50.75 7178.00,50.75 7178.00,50.75              7178.00,50.75 7189.00,52.00 7189.00,52.00              7189.00,52.00 7198.00,52.00 7198.00,52.00              7198.00,52.00 7211.00,53.83 7211.00,53.83              7211.00,53.83 7228.00,55.28 7228.00,55.28              7228.00,55.28 7243.00,58.93 7243.00,58.93              7243.00,58.93 7250.00,58.93 7250.00,58.93              7250.00,58.93 7276.00,62.29 7276.00,62.29              7276.00,62.29 7295.00,65.71 7295.00,65.71              7295.00,65.71 7335.00,69.00 7335.00,69.00              7335.00,69.00 7357.00,72.04 7357.00,72.04              7357.00,72.04 7365.00,72.04 7365.00,72.04              7365.00,72.04 7386.00,74.00 7386.00,74.00              7386.00,74.00 7409.00,74.00 7409.00,74.00              7409.00,74.00 7419.00,74.96 7419.00,74.96              7419.00,74.96 7430.00,74.96 7430.00,74.96              7438.43,75.04 7437.76,76.16 7444.00,76.91              7444.00,76.91 7458.00,76.91 7458.00,76.91              7470.05,77.02 7468.24,79.87 7479.00,80.00              7496.44,80.20 7488.03,80.93 7500.00,82.70              7500.00,82.70 7508.00,83.30 7508.00,83.30              7519.06,84.88 7523.26,86.13 7535.00,85.81              7535.00,85.81 7545.00,85.81 7545.00,85.81              7545.00,85.81 7554.00,85.81 7554.00,85.81              7554.00,85.81 7566.00,85.81 7566.00,85.81              7566.00,85.81 7594.00,89.00 7594.00,89.00              7594.00,89.00 7612.00,90.10 7612.00,90.10              7612.00,90.10 7621.00,90.10 7621.00,90.10              7621.00,90.10 7634.00,92.70 7634.00,92.70              7634.00,92.70 7644.00,93.29 7644.00,93.29              7651.85,94.31 7657.78,95.99 7666.00,96.00              7666.00,96.00 7698.00,96.00 7698.00,96.00              7698.00,96.00 7710.00,96.95 7710.00,96.95              7710.00,96.95 7728.00,96.95 7728.00,96.95              7728.00,96.95 7739.00,96.08 7739.00,96.08              7739.00,96.08 7752.00,96.96 7752.00,96.96              7752.00,96.96 7771.00,96.00 7771.00,96.00              7771.00,96.00 7784.00,97.00 7784.00,97.00              7784.00,97.00 7800.00,95.96 7800.00,95.96              7800.00,95.96 7814.00,95.96 7814.00,95.96              7814.00,95.96 7826.00,95.00 7826.00,95.00              7826.00,95.00 7846.00,95.00 7846.00,95.00              7846.00,95.00 7862.00,95.99 7862.00,95.99              7862.00,95.99 7876.00,95.00 7876.00,95.00              7876.00,95.00 7909.00,95.00 7909.00,95.00              7909.00,95.00 7925.00,96.00 7925.00,96.00              7925.00,96.00 7958.00,98.00 7958.00,98.00              7970.33,98.02 7970.10,98.76 7981.00,100.07              7981.00,100.07 7988.00,100.07 7988.00,100.07              7988.00,100.07 7998.00,102.54 7998.00,102.54              7998.00,102.54 8007.00,103.32 8007.00,103.32              8007.00,103.32 8022.00,107.00 8022.00,107.00              8020.73,114.09 8021.05,113.14 8021.49,120.00              8021.49,120.00 8020.91,135.00 8020.91,135.00              8020.91,135.00 8018.11,147.00 8018.11,147.00              8018.11,147.00 8018.11,160.00 8018.11,160.00              8018.11,160.00 8017.04,168.00 8017.04,168.00              8016.68,177.27 8019.17,178.73 8020.53,186.00              8020.53,186.00 8021.17,195.00 8021.17,195.00              8022.13,203.95 8023.14,200.38 8023.00,213.00              8023.00,213.00 8022.04,226.00 8022.04,226.00              8022.04,226.00 8023.30,243.00 8023.30,243.00              8024.21,249.41 8025.92,255.44 8026.00,262.00              8026.00,262.00 8026.00,284.00 8026.00,284.00              8026.00,284.00 8029.08,306.00 8029.08,306.00              8029.08,306.00 8029.08,315.00 8029.08,315.00              8029.08,315.00 8029.08,323.00 8029.08,323.00              8029.08,323.00 8028.09,331.00 8028.09,331.00              8028.09,331.00 8028.09,344.00 8028.09,344.00              8028.09,344.00 8028.90,357.00 8028.90,357.00              8028.52,362.52 8023.53,376.34 8021.55,382.00              8019.12,388.92 8020.64,391.89 8019.47,397.00              8019.47,397.00 8013.93,411.00 8013.93,411.00              8012.91,414.77 8013.21,416.54 8012.70,420.00              8012.70,420.00 8009.68,436.00 8009.68,436.00              8009.68,436.00 8006.92,445.00 8006.92,445.00              8006.92,445.00 8002.30,466.00 8002.30,466.00              8001.29,472.85 8002.77,476.13 8002.96,482.00              8002.96,482.00 8002.01,497.00 8002.01,497.00              8002.01,497.00 8003.37,508.00 8003.37,508.00              8003.37,508.00 8003.37,526.00 8003.37,526.00              8003.37,526.00 8001.30,535.00 8001.30,535.00              8001.30,535.00 8000.03,555.00 8000.03,555.00              8000.03,560.49 8001.33,562.37 8002.09,567.00              8002.09,567.00 8002.09,581.00 8002.09,581.00              8002.09,581.00 8002.09,590.00 8002.09,590.00              8002.09,590.00 8002.09,599.00 8002.09,599.00              8002.09,599.00 8003.00,611.00 8003.00,611.00              8003.00,611.00 8003.00,631.00 8003.00,631.00              8003.00,631.00 8003.91,644.00 8003.91,644.00              8003.91,644.00 8001.04,662.00 8001.04,662.00              8000.92,665.75 8001.50,667.54 8001.83,671.00              8001.83,671.00 8002.99,691.00 8002.99,691.00              8002.99,691.00 8002.00,703.00 8002.00,703.00              8002.00,703.00 8000.00,734.00 8000.00,734.00              8000.00,734.00 8001.91,755.00 8001.91,755.00              8001.91,755.00 8001.00,772.00 8001.00,772.00              8001.09,779.45 8002.23,779.46 8003.00,785.00              8003.00,785.00 8003.00,793.00 8003.00,793.00              8003.00,793.00 8004.83,802.00 8004.83,802.00              8005.87,811.66 8006.61,824.32 8006.04,834.00              8006.04,834.00 8006.04,845.00 8006.04,845.00              8006.04,845.00 8005.03,853.00 8005.03,853.00              8005.03,853.00 8006.00,865.00 8006.00,865.00              8006.00,865.00 8005.03,880.00 8005.03,880.00              8005.03,880.00 8005.95,889.00 8005.95,889.00              8005.95,889.00 8005.95,900.00 8005.95,900.00              8005.95,900.00 8005.00,913.00 8005.00,913.00              8005.00,913.00 8006.04,929.00 8006.04,929.00              8006.04,929.00 8006.04,942.00 8006.04,942.00              8006.04,942.00 8007.06,955.00 8007.06,955.00              8007.06,955.00 8007.06,963.00 8007.06,963.00              8007.06,963.00 8007.06,976.00 8007.06,976.00              8007.06,976.00 8006.00,987.00 8006.00,987.00              8006.00,987.00 8006.00,1008.00 8006.00,1008.00              8006.00,1008.00 8004.00,1026.00 8004.00,1026.00              8004.00,1026.00 8004.00,1035.00 8004.00,1035.00              8004.00,1035.00 8003.17,1045.00 8003.17,1045.00              8003.17,1045.00 8003.17,1055.00 8003.17,1055.00              8003.17,1055.00 8003.17,1081.00 8003.17,1081.00              8003.17,1081.00 8002.02,1095.00 8002.02,1095.00              8002.02,1095.00 8002.82,1108.00 8002.82,1108.00              8002.82,1108.00 8002.04,1119.00 8002.04,1119.00              8002.04,1119.00 8002.68,1128.00 8002.68,1128.00              8002.44,1131.17 8001.89,1132.40 8002.09,1136.00              8002.09,1136.00 8002.68,1141.00 8002.68,1141.00              8002.68,1141.00 8002.00,1163.00 8002.00,1163.00              8002.00,1163.00 8001.09,1178.00 8001.09,1178.00              8001.09,1178.00 8002.00,1192.00 8002.00,1192.00              8002.09,1199.45 8003.24,1199.46 8003.83,1205.00              8003.83,1205.00 8004.92,1228.00 8004.92,1228.00              8004.92,1228.00 8003.04,1241.00 8003.04,1241.00              8003.04,1241.00 8004.79,1267.00 8004.79,1267.00              8004.33,1275.18 8001.02,1276.20 8001.00,1289.00              8001.00,1289.00 8001.00,1296.00 8001.00,1296.00              8001.15,1308.75 8005.62,1309.15 8006.97,1316.00              8006.97,1316.00 8006.97,1323.00 8006.97,1323.00              8006.97,1323.00 8008.83,1334.00 8008.83,1334.00              8008.83,1334.00 8010.09,1357.00 8010.09,1357.00              8010.09,1357.00 8011.04,1364.00 8011.04,1364.00              8011.04,1364.00 8011.04,1374.00 8011.04,1374.00              8011.92,1381.01 8012.98,1379.07 8013.00,1389.00              8013.00,1389.00 8014.17,1418.00 8014.17,1418.00              8014.17,1418.00 8016.00,1431.00 8016.00,1431.00              8016.00,1431.00 8016.00,1441.00 8016.00,1441.00              8016.00,1441.00 8018.73,1458.00 8018.73,1458.00              8018.73,1458.00 8016.17,1470.00 8016.17,1470.00              8016.17,1470.00 8015.04,1488.00 8015.04,1488.00              8015.20,1491.91 8016.20,1495.02 8015.82,1499.00              8015.08,1506.77 8011.02,1513.57 8011.00,1529.00              8011.00,1529.00 8011.82,1550.00 8011.82,1550.00              8010.98,1561.79 8009.78,1568.91 8010.68,1581.00              8010.68,1581.00 8006.09,1615.00 8006.09,1615.00              8006.09,1615.00 8007.96,1625.00 8007.96,1625.00              8007.96,1625.00 8007.96,1635.00 8007.96,1635.00              8007.96,1635.00 8010.00,1670.00 8010.00,1670.00              8010.02,1684.03 8013.70,1683.51 8013.94,1691.00              8013.94,1691.00 8012.09,1712.00 8012.09,1712.00              8012.09,1712.00 8012.09,1744.00 8012.09,1744.00              8012.09,1744.00 8012.09,1753.00 8012.09,1753.00              8012.09,1753.00 8013.17,1773.00 8013.17,1773.00              8013.17,1773.00 8013.92,1780.00 8013.92,1780.00              8013.92,1780.00 8013.00,1794.00 8013.00,1794.00              8013.00,1794.00 8013.00,1846.00 8013.00,1846.00              8013.00,1846.00 8011.09,1865.00 8011.09,1865.00              8011.09,1865.00 8011.66,1871.00 8011.66,1871.00              8011.66,1871.00 8009.25,1892.00 8009.25,1892.00              8009.25,1892.00 8009.25,1902.00 8009.25,1902.00              8009.25,1902.00 8008.18,1918.00 8008.18,1918.00              8008.18,1918.00 8008.18,1928.00 8008.18,1928.00              8007.86,1934.61 8005.78,1930.92 8006.00,1950.00              8006.08,1956.21 8007.02,1958.38 8007.94,1964.00              8007.94,1964.00 8007.94,1972.00 8007.94,1972.00              8007.94,1972.00 8010.00,1993.00 8010.00,1993.00              8010.06,2004.91 8012.23,2003.31 8014.70,2012.00              8014.70,2012.00 8017.00,2026.00 8017.00,2026.00              8018.17,2035.40 8015.81,2042.10 8016.01,2051.00              8016.01,2051.00 8016.98,2061.00 8016.98,2061.00              8016.98,2061.00 8016.98,2078.00 8016.98,2078.00              8016.98,2078.00 8018.00,2094.00 8018.00,2094.00              8018.00,2094.00 8018.00,2112.00 8018.00,2112.00              8018.00,2112.00 8017.00,2132.00 8017.00,2132.00              8017.00,2132.00 8015.09,2151.00 8015.09,2151.00              8015.09,2151.00 8017.00,2173.00 8017.00,2173.00              8017.00,2173.00 8016.01,2189.00 8016.01,2189.00              8016.01,2189.00 8016.99,2203.00 8016.99,2203.00              8016.99,2203.00 8016.09,2215.00 8016.09,2215.00              8016.09,2215.00 8018.00,2236.00 8018.00,2236.00              8018.00,2236.00 8016.00,2268.00 8016.00,2268.00              8016.00,2268.00 8016.00,2279.00 8016.00,2279.00              8016.00,2279.00 8016.63,2289.00 8016.63,2289.00              8016.63,2289.00 8015.00,2305.00 8015.00,2305.00              8015.00,2305.00 8016.19,2320.00 8016.19,2320.00              8016.43,2325.89 8015.05,2326.81 8014.30,2332.00              8014.30,2332.00 8013.09,2345.00 8013.09,2345.00              8013.09,2345.00 8013.68,2357.00 8013.68,2357.00              8013.61,2363.54 8012.18,2367.90 8013.68,2375.00              8014.67,2381.70 8016.88,2384.35 8018.21,2389.00              8018.21,2389.00 8021.17,2405.00 8021.17,2405.00              8021.17,2405.00 8021.17,2418.00 8021.17,2418.00              8021.17,2418.00 8022.28,2434.00 8022.28,2434.00              8022.28,2434.00 8020.04,2453.00 8020.04,2453.00              8019.75,2462.31 8023.25,2463.49 8022.99,2475.00              8022.99,2475.00 8021.00,2493.00 8021.00,2493.00              8021.00,2493.00 8021.00,2513.00 8021.00,2513.00              8021.00,2513.00 8020.09,2527.00 8020.09,2527.00              8020.09,2527.00 8021.00,2539.00 8021.00,2539.00              8021.00,2539.00 8021.00,2557.00 8021.00,2557.00              8021.00,2557.00 8021.66,2566.00 8021.66,2566.00              8021.66,2566.00 8021.04,2575.00 8021.04,2575.00              8021.04,2575.00 8022.08,2583.00 8022.08,2583.00              8022.08,2583.00 8022.08,2600.00 8022.08,2600.00              8022.08,2600.00 8022.08,2612.00 8022.08,2612.00              8022.08,2612.00 8022.08,2620.00 8022.08,2620.00              8022.08,2620.00 8022.08,2652.00 8022.08,2652.00              8022.08,2652.00 8023.00,2667.00 8023.00,2667.00              8023.00,2667.00 8023.00,2704.00 8023.00,2704.00              8023.00,2704.00 8021.04,2721.00 8021.04,2721.00              8021.04,2721.00 8021.04,2745.00 8021.04,2745.00              8021.04,2745.00 8022.00,2762.00 8022.00,2762.00              8022.00,2762.00 8022.00,2778.00 8022.00,2778.00              8022.00,2778.00 8022.96,2789.00 8022.96,2789.00              8022.96,2789.00 8022.96,2800.00 8022.96,2800.00              8022.96,2800.00 8024.00,2817.00 8024.00,2817.00              8024.00,2817.00 8024.00,2837.00 8024.00,2837.00              8024.00,2837.00 8024.66,2847.00 8024.66,2847.00              8024.66,2847.00 8024.02,2854.00 8024.02,2854.00              8024.02,2854.00 8024.02,2873.00 8024.02,2873.00              8024.02,2873.00 8023.04,2888.00 8023.04,2888.00              8023.04,2888.00 8023.96,2896.00 8023.96,2896.00              8023.96,2896.00 8023.96,2908.00 8023.96,2908.00              8023.98,2918.45 8022.48,2917.72 8022.27,2924.00              8022.27,2924.00 8022.27,2934.00 8022.27,2934.00              8021.81,2940.01 8019.74,2945.85 8020.09,2952.00              8020.09,2952.00 8021.63,2963.00 8021.63,2963.00              8021.63,2963.00 8021.09,2973.00 8021.09,2973.00              8021.09,2973.00 8022.98,2993.00 8022.98,2993.00              8022.98,2993.00 8022.98,3022.00 8022.98,3022.00              8022.98,3022.00 8023.66,3031.00 8023.66,3031.00              8023.66,3031.00 8023.09,3040.00 8023.09,3040.00              8023.09,3040.00 8024.49,3053.00 8024.49,3053.00              8024.49,3053.00 8023.91,3065.00 8023.91,3065.00              8023.91,3065.00 8023.91,3081.00 8023.91,3081.00              8023.24,3086.54 8022.09,3086.55 8022.15,3094.00              8022.15,3094.00 8022.15,3108.00 8022.15,3108.00              8022.15,3108.00 8023.83,3117.00 8023.83,3117.00              8023.83,3117.00 8025.09,3138.00 8025.09,3138.00              8025.09,3138.00 8026.00,3150.00 8026.00,3150.00              8026.00,3150.00 8026.00,3169.00 8026.00,3169.00              8026.00,3169.00 8026.99,3183.00 8026.99,3183.00              8026.99,3183.00 8026.09,3196.00 8026.09,3196.00              8026.09,3196.00 8027.00,3210.00 8027.00,3210.00              8027.00,3210.00 8029.00,3237.00 8029.00,3237.00              8029.00,3237.00 8027.04,3256.00 8027.04,3256.00              8027.04,3256.00 8027.92,3265.00 8027.92,3265.00              8027.92,3265.00 8027.09,3276.00 8027.09,3276.00              8027.09,3276.00 8028.00,3288.00 8028.00,3288.00              8028.00,3288.00 8029.00,3308.00 8029.00,3308.00              8029.00,3308.00 8027.91,3340.00 8027.91,3340.00              8027.91,3340.00 8027.00,3355.00 8027.00,3355.00              8027.00,3355.00 8027.95,3366.00 8027.95,3366.00              8027.95,3366.00 8027.95,3379.00 8027.95,3379.00              8027.95,3379.00 8027.00,3393.00 8027.00,3393.00              8027.00,3393.00 8025.83,3422.00 8025.83,3422.00              8025.03,3429.46 8023.88,3427.04 8024.00,3438.00              8024.00,3438.00 8027.83,3460.00 8027.83,3460.00              8027.83,3460.00 8029.92,3485.00 8029.92,3485.00              8029.92,3485.00 8029.04,3497.00 8029.04,3497.00              8029.04,3497.00 8031.93,3516.00 8031.93,3516.00              8031.93,3516.00 8031.93,3527.00 8031.93,3527.00              8031.93,3527.00 8033.96,3540.00 8033.96,3540.00              8034.44,3551.07 8032.05,3552.24 8032.00,3562.00              8032.00,3562.00 8031.00,3587.00 8031.00,3587.00              8031.00,3587.00 8030.09,3601.00 8030.09,3601.00              8030.09,3601.00 8031.98,3626.00 8031.98,3626.00              8031.98,3626.00 8031.00,3640.00 8031.00,3640.00              8031.00,3640.00 8032.19,3659.00 8032.19,3659.00              8032.19,3659.00 8032.19,3672.00 8032.19,3672.00              8032.19,3672.00 8032.19,3679.00 8032.19,3679.00              8032.19,3679.00 8033.00,3691.00 8033.00,3691.00              8033.00,3691.00 8033.00,3714.00 8033.00,3714.00              8033.00,3714.00 8031.00,3734.00 8031.00,3734.00              8031.00,3734.00 8031.00,3759.00 8031.00,3759.00              8031.00,3759.00 8031.00,3766.00 8031.00,3766.00              8031.00,3766.00 8029.09,3792.00 8029.09,3792.00              8029.09,3792.00 8031.68,3820.00 8031.68,3820.00              8031.68,3820.00 8030.04,3849.00 8030.04,3849.00              8030.36,3856.32 8032.86,3858.55 8032.92,3864.00              8032.98,3869.16 8030.71,3873.71 8031.09,3880.00              8031.62,3888.64 8035.96,3895.08 8036.69,3901.00              8037.28,3905.81 8035.15,3910.87 8035.01,3917.00              8034.77,3927.64 8036.99,3927.05 8036.99,3936.00              8036.99,3936.00 8035.11,3952.00 8035.11,3952.00              8035.11,3952.00 8035.11,3967.00 8035.11,3967.00              8035.11,3967.00 8035.11,3976.00 8035.11,3976.00              8034.75,3980.02 8033.89,3981.25 8034.04,3986.00              8034.04,3986.00 8035.91,4002.00 8035.91,4002.00              8036.56,4013.46 8030.45,4017.58 8031.09,4028.00              8031.40,4033.00 8032.84,4034.97 8033.63,4039.00              8033.63,4039.00 8037.16,4060.00 8037.16,4060.00              8037.16,4060.00 8037.16,4080.00 8037.16,4080.00              8037.16,4080.00 8038.13,4093.00 8038.13,4093.00              8038.13,4093.00 8038.13,4111.00 8038.13,4111.00              8038.13,4111.00 8038.13,4123.00 8038.13,4123.00              8038.13,4123.00 8038.13,4131.00 8038.13,4131.00              8038.13,4131.00 8039.00,4142.00 8039.00,4142.00              8039.00,4142.00 8039.00,4154.00 8039.00,4154.00              8039.00,4154.00 8040.22,4171.00 8040.22,4171.00              8040.22,4171.00 8040.22,4179.00 8040.22,4179.00              8039.91,4187.78 8041.08,4190.19 8041.83,4198.00              8041.83,4198.00 8043.17,4217.00 8043.17,4217.00              8043.17,4217.00 8044.96,4226.00 8044.96,4226.00              8044.96,4226.00 8044.96,4236.00 8044.96,4236.00              8044.96,4236.00 8046.12,4244.00 8046.12,4244.00              8046.12,4244.00 8046.12,4256.00 8046.12,4256.00              8046.12,4256.00 8045.04,4270.00 8045.04,4270.00              8045.04,4270.00 8046.90,4282.00 8046.90,4282.00              8046.90,4282.00 8045.09,4298.00 8045.09,4298.00              8045.09,4298.00 8046.00,4316.00 8046.00,4316.00              8046.00,4316.00 8046.00,4340.00 8046.00,4340.00              8046.00,4340.00 8047.00,4356.00 8047.00,4356.00              8047.00,4356.00 8046.04,4370.00 8046.04,4370.00              8046.04,4370.00 8046.96,4378.00 8046.96,4378.00              8046.96,4378.00 8046.96,4394.00 8046.96,4394.00              8046.96,4394.00 8047.82,4405.00 8047.82,4405.00              8047.82,4405.00 8047.00,4415.00 8047.00,4415.00              8046.93,4421.30 8048.25,4437.93 8049.46,4444.00              8052.19,4457.73 8055.93,4466.49 8056.00,4481.00              8056.04,4489.75 8059.54,4504.31 8061.92,4513.00              8061.92,4513.00 8064.48,4521.00 8064.48,4521.00              8064.48,4521.00 8066.61,4541.00 8066.61,4541.00              8066.61,4541.00 8070.54,4559.00 8070.54,4559.00              8070.54,4559.00 8071.30,4568.00 8071.30,4568.00              8072.09,4573.51 8072.92,4573.22 8073.00,4580.00              8073.00,4580.00 8073.81,4596.00 8073.81,4596.00              8073.81,4596.00 8070.15,4611.00 8070.15,4611.00              8070.15,4611.00 8070.15,4632.00 8070.15,4632.00              8070.10,4640.57 8071.54,4651.99 8074.55,4660.00              8074.55,4660.00 8078.26,4668.00 8078.26,4668.00              8083.29,4679.94 8084.38,4684.42 8086.80,4697.00              8087.29,4699.52 8088.41,4703.65 8088.40,4706.00              8088.40,4706.00 8080.68,4734.00 8080.68,4734.00              8080.68,4734.00 8079.39,4742.00 8079.39,4742.00              8079.39,4742.00 8076.30,4753.00 8076.30,4753.00              8076.30,4753.00 8075.63,4764.00 8075.63,4764.00              8075.63,4764.00 8073.21,4773.00 8073.21,4773.00              8073.21,4773.00 8071.37,4785.00 8071.37,4785.00              8070.35,4788.74 8068.97,4790.44 8068.37,4795.00              8067.48,4800.59 8068.77,4804.20 8068.37,4807.00              8067.89,4811.78 8065.12,4812.82 8065.00,4823.00              8064.84,4837.33 8062.51,4840.26 8066.91,4855.00              8066.91,4855.00 8077.89,4877.00 8077.89,4877.00              8079.50,4881.70 8078.98,4888.89 8079.00,4894.00              8079.05,4905.28 8082.58,4916.95 8084.54,4928.00              8084.54,4928.00 8085.67,4938.00 8085.67,4938.00              8085.67,4938.00 8088.79,4949.00 8088.79,4949.00              8088.79,4949.00 8089.30,4958.00 8089.30,4958.00              8090.33,4964.98 8091.95,4963.73 8092.00,4973.00              8092.00,4973.00 8092.00,4986.00 8092.00,4986.00              8092.00,4986.00 8093.54,5004.00 8093.54,5004.00              8093.36,5009.37 8091.10,5013.01 8091.16,5021.00              8091.16,5021.00 8091.16,5037.00 8091.16,5037.00              8091.16,5037.00 8091.16,5055.00 8091.16,5055.00              8091.02,5064.69 8096.65,5084.61 8099.12,5095.00              8099.12,5095.00 8104.45,5130.00 8104.45,5130.00              8104.45,5130.00 8108.51,5146.00 8108.51,5146.00              8108.51,5146.00 8112.55,5160.00 8112.55,5160.00              8113.76,5166.07 8110.96,5169.95 8112.55,5178.00              8112.55,5178.00 8117.88,5199.00 8117.88,5199.00              8117.88,5199.00 8117.88,5209.00 8117.88,5209.00              8117.88,5209.00 8120.17,5233.00 8120.17,5233.00              8120.17,5233.00 8122.40,5242.00 8122.40,5242.00              8122.40,5242.00 8124.37,5256.00 8124.37,5256.00              8124.37,5256.00 8123.09,5267.00 8123.09,5267.00              8123.09,5267.00 8125.68,5291.00 8125.68,5291.00              8125.68,5291.00 8127.63,5298.00 8127.63,5298.00              8127.63,5298.00 8128.92,5307.00 8128.92,5307.00              8128.92,5307.00 8131.47,5315.00 8131.47,5315.00              8132.62,5320.10 8131.25,5323.50 8132.92,5330.00              8132.92,5330.00 8136.22,5342.00 8136.22,5342.00              8138.37,5348.82 8140.28,5348.73 8139.96,5357.00              8139.96,5357.00 8138.61,5372.00 8138.61,5372.00              8137.41,5377.69 8135.23,5377.66 8135.00,5388.00              8135.00,5388.00 8115.00,5393.55 8115.00,5393.55              8115.00,5393.55 8104.00,5398.02 8104.00,5398.02              8100.79,5398.78 8096.62,5397.89 8093.00,5398.02              8089.13,5398.20 8082.66,5399.75 8079.00,5401.09              8069.77,5404.48 8067.40,5410.19 8062.83,5411.80              8062.83,5411.80 8012.00,5422.16 8012.00,5422.16              8012.00,5422.16 7991.00,5429.47 7991.00,5429.47              7991.00,5429.47 7978.00,5433.55 7978.00,5433.55              7978.00,5433.55 7968.00,5437.51 7968.00,5437.51              7968.00,5437.51 7944.00,5440.28 7944.00,5440.28              7944.00,5440.28 7916.00,5446.00 7916.00,5446.00              7916.00,5446.00 7899.00,5446.00 7899.00,5446.00              7899.00,5446.00 7886.00,5445.01 7886.00,5445.01              7886.00,5445.01 7866.00,5446.67 7866.00,5446.67              7866.00,5446.67 7856.00,5449.79 7856.00,5449.79              7851.57,5451.09 7840.79,5451.99 7836.00,5452.24              7836.00,5452.24 7790.00,5452.24 7790.00,5452.24              7790.00,5452.24 7780.00,5452.24 7780.00,5452.24              7780.00,5452.24 7724.00,5452.24 7724.00,5452.24              7724.00,5452.24 7716.00,5452.24 7716.00,5452.24              7716.00,5452.24 7709.00,5452.24 7709.00,5452.24              7709.00,5452.24 7694.00,5451.04 7694.00,5451.04              7680.71,5450.52 7675.73,5455.96 7664.00,5458.34              7664.00,5458.34 7643.00,5460.30 7643.00,5460.30              7643.00,5460.30 7632.00,5462.90 7632.00,5462.90              7632.00,5462.90 7621.00,5463.46 7621.00,5463.46              7610.01,5465.44 7595.81,5469.98 7585.00,5470.00              7585.00,5470.00 7561.00,5470.00 7561.00,5470.00              7561.00,5470.00 7546.00,5470.91 7546.00,5470.91              7546.00,5470.91 7520.00,5468.04 7520.00,5468.04              7513.11,5468.34 7513.45,5469.98 7503.00,5470.00              7490.27,5470.02 7491.30,5471.59 7485.00,5471.90              7485.00,5471.90 7471.00,5471.24 7471.00,5471.24              7471.00,5471.24 7456.00,5471.24 7456.00,5471.24              7456.00,5471.24 7429.00,5467.30 7429.00,5467.30              7419.70,5465.96 7410.37,5466.04 7401.00,5466.00              7401.00,5466.00 7373.00,5464.00 7373.00,5464.00              7373.00,5464.00 7332.00,5464.00 7332.00,5464.00              7332.00,5464.00 7316.00,5463.16 7316.00,5463.16              7316.00,5463.16 7302.00,5463.16 7302.00,5463.16              7302.00,5463.16 7292.00,5463.16 7292.00,5463.16              7292.00,5463.16 7283.00,5463.96 7283.00,5463.96              7272.93,5464.35 7265.63,5461.14 7257.00,5460.17              7257.00,5460.17 7226.00,5458.00 7226.00,5458.00              7216.07,5457.98 7218.01,5456.92 7211.00,5456.08              7211.00,5456.08 7196.00,5456.08 7196.00,5456.08              7187.95,5455.90 7182.58,5453.97 7175.00,5452.61              7175.00,5452.61 7144.00,5447.46 7144.00,5447.46              7144.00,5447.46 7130.00,5445.17 7130.00,5445.17              7130.00,5445.17 7121.00,5444.12 7121.00,5444.12              7121.00,5444.12 7099.00,5438.43 7099.00,5438.43              7099.00,5438.43 7089.00,5437.83 7089.00,5437.83              7089.00,5437.83 7061.00,5432.71 7061.00,5432.71              7061.00,5432.71 7044.00,5427.22 7044.00,5427.22              7044.00,5427.22 7027.00,5422.03 7027.00,5422.03              7021.95,5420.33 7020.80,5418.55 7014.00,5416.90              7014.00,5416.90 6998.00,5415.08 6998.00,5415.08              6998.00,5415.08 6987.00,5412.46 6987.00,5412.46              6987.00,5412.46 6972.00,5410.72 6972.00,5410.72              6972.00,5410.72 6960.00,5408.30 6960.00,5408.30              6954.61,5407.53 6950.83,5408.65 6945.00,5407.07              6933.58,5403.98 6931.87,5393.27 6917.00,5390.47              6911.07,5389.35 6890.96,5391.17 6884.00,5391.83              6884.00,5391.83 6860.00,5393.29 6860.00,5393.29              6854.79,5393.93 6842.76,5396.16 6838.00,5395.82              6838.00,5395.82 6827.00,5395.00 6827.00,5395.00              6827.00,5395.00 6802.00,5395.00 6802.00,5395.00              6802.00,5395.00 6790.00,5395.92 6790.00,5395.92              6790.00,5395.92 6777.00,5395.00 6777.00,5395.00              6777.00,5395.00 6761.00,5395.00 6761.00,5395.00              6761.00,5395.00 6749.00,5394.05 6749.00,5394.05              6749.00,5394.05 6731.00,5394.05 6731.00,5394.05              6721.21,5394.12 6718.61,5395.99 6710.00,5398.37              6710.00,5398.37 6691.00,5401.67 6691.00,5401.67              6684.52,5402.20 6681.64,5398.28 6670.00,5399.09              6670.00,5399.09 6652.00,5401.83 6652.00,5401.83              6652.00,5401.83 6636.00,5403.00 6636.00,5403.00              6623.34,5403.06 6624.87,5404.88 6616.00,5405.83              6616.00,5405.83 6600.00,5406.66 6600.00,5406.66              6600.00,5406.66 6590.00,5406.04 6590.00,5406.04              6590.00,5406.04 6576.00,5407.00 6576.00,5407.00              6576.00,5407.00 6558.00,5405.00 6558.00,5405.00              6543.22,5404.83 6547.44,5406.07 6536.00,5407.94              6536.00,5407.94 6527.00,5407.94 6527.00,5407.94              6527.00,5407.94 6520.00,5409.19 6520.00,5409.19              6520.00,5409.19 6512.00,5409.19 6512.00,5409.19              6512.00,5409.19 6490.00,5409.19 6490.00,5409.19              6490.00,5409.19 6478.00,5409.19 6478.00,5409.19              6478.00,5409.19 6453.00,5407.71 6453.00,5407.71              6453.00,5407.71 6438.00,5405.09 6438.00,5405.09              6428.26,5404.38 6424.40,5406.45 6421.00,5406.38              6421.00,5406.38 6409.00,5404.00 6409.00,5404.00              6409.00,5404.00 6400.00,5404.00 6400.00,5404.00              6400.00,5404.00 6354.00,5402.00 6354.00,5402.00              6344.75,5402.11 6342.59,5404.60 6335.00,5405.70              6324.70,5407.20 6314.38,5406.88 6304.00,5407.00              6293.24,5407.13 6295.05,5409.98 6283.00,5410.00              6283.00,5410.00 6262.00,5410.00 6262.00,5410.00              6262.00,5410.00 6242.00,5409.28 6242.00,5409.28              6242.00,5409.28 6216.00,5413.86 6216.00,5413.86              6216.00,5413.86 6207.00,5413.86 6207.00,5413.86              6207.00,5413.86 6193.00,5415.09 6193.00,5415.09              6186.97,5415.56 6185.52,5417.26 6178.00,5416.96              6178.00,5416.96 6166.00,5415.09 6166.00,5415.09              6166.00,5415.09 6143.00,5413.83 6143.00,5413.83              6143.00,5413.83 6124.00,5410.30 6124.00,5410.30              6124.00,5410.30 6102.00,5407.39 6102.00,5407.39              6102.00,5407.39 6083.00,5402.42 6083.00,5402.42              6083.00,5402.42 6067.00,5399.30 6067.00,5399.30              6067.00,5399.30 6059.00,5398.63 6059.00,5398.63              6059.00,5398.63 6050.00,5396.13 6050.00,5396.13              6050.00,5396.13 6032.00,5392.46 6032.00,5392.46              6032.00,5392.46 6019.00,5391.70 6019.00,5391.70              6019.00,5391.70 6005.00,5388.46 6005.00,5388.46              6005.00,5388.46 5995.00,5387.61 5995.00,5387.61              5989.37,5386.42 5988.51,5383.75 5977.00,5384.01              5977.00,5384.01 5963.00,5385.79 5963.00,5385.79              5963.00,5385.79 5954.00,5384.00 5954.00,5384.00              5954.00,5384.00 5946.00,5384.00 5946.00,5384.00              5946.00,5384.00 5937.00,5382.29 5937.00,5382.29              5937.00,5382.29 5926.00,5380.92 5926.00,5380.92              5926.00,5380.92 5910.00,5377.29 5910.00,5377.29              5910.00,5377.29 5884.00,5374.00 5884.00,5374.00              5884.00,5374.00 5875.00,5374.00 5875.00,5374.00              5869.46,5373.24 5869.45,5372.09 5862.00,5371.77              5857.67,5371.95 5852.14,5372.26 5848.00,5371.77              5840.63,5370.25 5829.77,5367.08 5823.00,5367.19              5823.00,5367.19 5808.00,5367.19 5808.00,5367.19              5803.54,5366.69 5788.12,5360.16 5784.00,5357.87              5779.23,5355.22 5777.01,5350.91 5769.00,5347.35              5769.00,5347.35 5756.00,5343.48 5756.00,5343.48              5746.71,5340.42 5737.72,5336.21 5728.00,5334.23              5728.00,5334.23 5707.00,5334.23 5707.00,5334.23              5698.67,5334.10 5699.37,5335.41 5693.00,5336.63              5693.00,5336.63 5681.00,5337.30 5681.00,5337.30              5672.87,5338.47 5674.82,5339.98 5664.00,5340.00              5664.00,5340.00 5647.00,5340.00 5647.00,5340.00              5647.00,5340.00 5625.00,5342.46 5625.00,5342.46              5620.88,5342.83 5615.96,5341.30 5608.00,5342.46              5594.67,5343.93 5593.53,5346.51 5585.00,5348.33              5580.40,5349.31 5575.67,5348.95 5571.00,5349.00              5560.51,5349.13 5560.04,5351.88 5554.00,5352.79              5554.00,5352.79 5544.00,5353.67 5544.00,5353.67              5544.00,5353.67 5533.00,5356.81 5533.00,5356.81              5533.00,5356.81 5505.00,5361.88 5505.00,5361.88              5505.00,5361.88 5494.00,5365.40 5494.00,5365.40              5494.00,5365.40 5485.00,5367.22 5485.00,5367.22              5485.00,5367.22 5475.00,5371.29 5475.00,5371.29              5475.00,5371.29 5464.00,5372.89 5464.00,5372.89              5464.00,5372.89 5453.00,5375.54 5453.00,5375.54              5453.00,5375.54 5441.00,5377.45 5441.00,5377.45              5441.00,5377.45 5432.00,5379.98 5432.00,5379.98              5432.00,5379.98 5424.00,5379.98 5424.00,5379.98              5424.00,5379.98 5416.00,5381.70 5416.00,5381.70              5416.00,5381.70 5405.00,5383.00 5405.00,5383.00              5391.72,5385.71 5391.61,5390.21 5384.00,5392.03              5384.00,5392.03 5365.00,5394.44 5365.00,5394.44              5365.00,5394.44 5354.00,5396.94 5354.00,5396.94              5354.00,5396.94 5342.00,5396.94 5342.00,5396.94              5336.46,5397.76 5336.45,5398.91 5329.00,5399.00              5329.00,5399.00 5303.00,5399.00 5303.00,5399.00              5294.70,5398.90 5293.64,5396.90 5287.00,5396.17              5287.00,5396.17 5269.00,5395.00 5269.00,5395.00              5269.00,5395.00 5245.00,5393.00 5245.00,5393.00              5245.00,5393.00 5227.00,5393.00 5227.00,5393.00              5227.00,5393.00 5198.00,5397.00 5198.00,5397.00              5198.00,5397.00 5187.00,5397.00 5187.00,5397.00              5187.00,5397.00 5171.00,5400.06 5171.00,5400.06              5171.00,5400.06 5159.00,5400.06 5159.00,5400.06              5159.00,5400.06 5145.00,5402.58 5145.00,5402.58              5145.00,5402.58 5131.00,5404.42 5131.00,5404.42              5131.00,5404.42 5118.00,5408.39 5118.00,5408.39              5118.00,5408.39 5111.00,5409.46 5111.00,5409.46              5111.00,5409.46 5102.00,5411.54 5102.00,5411.54              5102.00,5411.54 5064.00,5416.17 5064.00,5416.17              5064.00,5416.17 5040.00,5419.00 5040.00,5419.00              5040.00,5419.00 5030.00,5419.00 5030.00,5419.00              5030.00,5419.00 5005.00,5420.82 5005.00,5420.82              5005.00,5420.82 4980.00,5418.33 4980.00,5418.33              4970.94,5416.48 4958.92,5412.81 4950.00,5413.01              4950.00,5413.01 4925.00,5415.08 4925.00,5415.08              4925.00,5415.08 4911.00,5415.08 4911.00,5415.08              4911.00,5415.08 4897.00,5417.00 4897.00,5417.00              4897.00,5417.00 4885.00,5417.00 4885.00,5417.00              4885.00,5417.00 4866.00,5419.00 4866.00,5419.00              4866.00,5419.00 4856.00,5419.00 4856.00,5419.00              4845.78,5419.02 4846.33,5420.47 4838.00,5421.70              4838.00,5421.70 4830.00,5422.68 4830.00,5422.68              4830.00,5422.68 4823.00,5424.63 4823.00,5424.63              4823.00,5424.63 4807.00,5427.45 4807.00,5427.45              4807.00,5427.45 4799.00,5429.63 4799.00,5429.63              4799.00,5429.63 4789.00,5430.17 4789.00,5430.17              4789.00,5430.17 4777.00,5432.70 4777.00,5432.70              4777.00,5432.70 4767.00,5433.30 4767.00,5433.30              4746.59,5436.21 4737.31,5438.25 4716.00,5438.00              4707.27,5437.89 4705.49,5435.85 4698.00,5434.46              4698.00,5434.46 4681.00,5431.46 4681.00,5431.46              4681.00,5431.46 4668.00,5429.69 4668.00,5429.69              4668.00,5429.69 4657.00,5426.67 4657.00,5426.67              4657.00,5426.67 4631.00,5422.83 4631.00,5422.83              4624.82,5422.16 4620.82,5419.71 4614.00,5420.09              4614.00,5420.09 4601.00,5421.00 4601.00,5421.00              4594.22,5420.92 4594.50,5420.08 4589.00,5419.30              4589.00,5419.30 4579.00,5418.79 4579.00,5418.79              4579.00,5418.79 4570.00,5416.47 4570.00,5416.47              4564.33,5415.40 4555.82,5414.94 4550.00,5415.00              4550.00,5415.00 4529.00,5415.00 4529.00,5415.00              4529.00,5415.00 4494.00,5410.92 4494.00,5410.92              4494.00,5410.92 4481.00,5410.92 4481.00,5410.92              4481.00,5410.92 4461.00,5409.00 4461.00,5409.00              4461.00,5409.00 4446.00,5409.00 4446.00,5409.00              4446.00,5409.00 4431.00,5408.17 4431.00,5408.17              4431.00,5408.17 4419.00,5410.56 4419.00,5410.56              4419.00,5410.56 4409.00,5411.46 4409.00,5411.46              4401.66,5412.76 4401.54,5413.96 4393.00,5414.00              4393.00,5414.00 4353.00,5420.69 4353.00,5420.69              4353.00,5420.69 4340.00,5420.09 4340.00,5420.09              4334.45,5420.47 4333.60,5421.91 4326.00,5422.00              4326.00,5422.00 4319.00,5422.00 4319.00,5422.00              4308.96,5422.12 4302.02,5426.20 4285.00,5426.00              4278.23,5425.92 4278.51,5425.09 4273.00,5424.30              4273.00,5424.30 4265.00,5423.68 4265.00,5423.68              4265.00,5423.68 4245.00,5417.93 4245.00,5417.93              4237.12,5415.81 4236.35,5418.53 4224.04,5413.30              4218.62,5411.00 4216.19,5406.50 4211.00,5403.11              4204.57,5398.90 4199.34,5398.92 4192.00,5399.00              4187.24,5399.06 4175.16,5400.19 4171.00,5401.95              4165.36,5404.34 4163.32,5407.76 4157.00,5409.32              4157.00,5409.32 4145.00,5411.26 4145.00,5411.26              4145.00,5411.26 4135.00,5413.88 4135.00,5413.88              4135.00,5413.88 4127.00,5413.88 4127.00,5413.88              4127.00,5413.88 4119.00,5415.15 4119.00,5415.15              4119.00,5415.15 4111.00,5415.15 4111.00,5415.15              4111.00,5415.15 4103.00,5415.96 4103.00,5415.96              4103.00,5415.96 4092.00,5415.96 4092.00,5415.96              4085.41,5416.08 4085.58,5416.84 4080.00,5417.71              4080.00,5417.71 4066.00,5419.30 4066.00,5419.30              4057.93,5420.49 4052.49,5422.09 4044.00,5422.00              4044.00,5422.00 4025.00,5421.00 4025.00,5421.00              4025.00,5421.00 4008.00,5422.96 4008.00,5422.96              4008.00,5422.96 3991.00,5422.00 3991.00,5422.00              3984.69,5421.93 3979.24,5422.33 3973.00,5423.29              3973.00,5423.29 3965.00,5424.83 3965.00,5424.83              3965.00,5424.83 3941.00,5426.66 3941.00,5426.66              3941.00,5426.66 3929.00,5426.00 3929.00,5426.00              3929.00,5426.00 3904.00,5428.00 3904.00,5428.00              3894.51,5428.02 3882.30,5431.67 3873.00,5434.08              3873.00,5434.08 3861.00,5435.47 3861.00,5435.47              3861.00,5435.47 3851.00,5438.81 3851.00,5438.81              3848.21,5439.20 3841.22,5438.99 3838.00,5438.81              3828.93,5439.04 3829.43,5440.41 3823.00,5440.91              3823.00,5440.91 3795.00,5443.13 3795.00,5443.13              3780.43,5445.33 3765.84,5449.82 3751.00,5450.00              3735.87,5450.17 3737.16,5448.11 3728.00,5448.00              3713.33,5447.83 3714.64,5450.04 3703.00,5451.70              3703.00,5451.70 3675.00,5453.79 3675.00,5453.79              3675.00,5453.79 3657.00,5451.28 3657.00,5451.28              3657.00,5451.28 3635.00,5448.29 3635.00,5448.29              3635.00,5448.29 3627.00,5447.68 3627.00,5447.68              3627.00,5447.68 3615.00,5444.66 3615.00,5444.66              3615.00,5444.66 3594.00,5440.63 3594.00,5440.63              3594.00,5440.63 3583.00,5437.42 3583.00,5437.42              3583.00,5437.42 3551.00,5431.88 3551.00,5431.88              3551.00,5431.88 3542.00,5429.16 3542.00,5429.16              3536.89,5427.78 3525.25,5425.90 3520.00,5426.01              3520.00,5426.01 3510.00,5426.79 3510.00,5426.79              3510.00,5426.79 3503.00,5425.46 3503.00,5425.46              3503.00,5425.46 3496.00,5424.61 3496.00,5424.61              3496.00,5424.61 3490.00,5422.54 3490.00,5422.54              3484.06,5420.53 3479.13,5421.01 3473.00,5421.00              3462.87,5420.98 3466.19,5420.14 3458.00,5417.93              3458.00,5417.93 3447.00,5416.17 3447.00,5416.17              3447.00,5416.17 3407.00,5415.00 3407.00,5415.00              3407.00,5415.00 3394.00,5414.04 3394.00,5414.04              3386.91,5414.28 3387.93,5416.15 3375.00,5416.00              3375.00,5416.00 3358.00,5414.00 3358.00,5414.00              3358.00,5414.00 3337.00,5414.00 3337.00,5414.00              3337.00,5414.00 3322.00,5415.00 3322.00,5415.00              3322.00,5415.00 3307.00,5414.00 3307.00,5414.00              3307.00,5414.00 3276.00,5414.00 3276.00,5414.00              3269.83,5414.01 3259.18,5415.25 3253.00,5416.28              3253.00,5416.28 3244.00,5417.91 3244.00,5417.91              3239.87,5418.16 3237.80,5417.35 3234.00,5417.09              3234.00,5417.09 3211.00,5415.39 3211.00,5415.39              3211.00,5415.39 3194.00,5411.45 3194.00,5411.45              3194.00,5411.45 3179.00,5409.63 3179.00,5409.63              3179.00,5409.63 3171.00,5407.46 3171.00,5407.46              3171.00,5407.46 3158.00,5405.80 3158.00,5405.80              3158.00,5405.80 3147.00,5402.89 3147.00,5402.89              3147.00,5402.89 3138.00,5401.63 3138.00,5401.63              3138.00,5401.63 3130.00,5399.38 3130.00,5399.38              3116.20,5395.83 3112.43,5394.17 3098.00,5394.00              3098.00,5394.00 3083.00,5393.01 3083.00,5393.01              3083.00,5393.01 3067.00,5394.99 3067.00,5394.99              3067.00,5394.99 3040.00,5393.00 3040.00,5393.00              3040.00,5393.00 3029.00,5393.00 3029.00,5393.00              3029.00,5393.00 3001.00,5391.00 3001.00,5391.00              2996.23,5390.95 2987.34,5390.70 2983.00,5391.68              2983.00,5391.68 2975.00,5393.79 2975.00,5393.79              2975.00,5393.79 2948.00,5395.00 2948.00,5395.00              2948.00,5395.00 2919.00,5397.28 2919.00,5397.28              2911.95,5398.13 2909.56,5398.99 2902.00,5398.96              2902.00,5398.96 2889.00,5398.96 2889.00,5398.96              2889.00,5398.96 2879.00,5398.00 2879.00,5398.00              2879.00,5398.00 2866.00,5398.91 2866.00,5398.91              2866.00,5398.91 2843.00,5400.09 2843.00,5400.09              2843.00,5400.09 2831.00,5400.99 2831.00,5400.99              2831.00,5400.99 2808.00,5398.37 2808.00,5398.37              2803.98,5397.21 2801.11,5394.75 2794.00,5393.23              2789.95,5392.73 2783.37,5393.05 2779.00,5393.23              2766.20,5392.85 2744.71,5389.40 2732.00,5386.58              2732.00,5386.58 2717.00,5382.67 2717.00,5382.67              2717.00,5382.67 2678.00,5377.69 2678.00,5377.69              2678.00,5377.69 2669.00,5374.92 2669.00,5374.92              2669.00,5374.92 2643.00,5370.17 2643.00,5370.17              2636.96,5369.53 2634.22,5371.01 2630.00,5370.79              2630.00,5370.79 2616.00,5369.83 2616.00,5369.83              2610.30,5369.22 2609.28,5367.76 2602.00,5368.04              2602.00,5368.04 2589.00,5369.00 2589.00,5369.00              2589.00,5369.00 2545.00,5369.00 2545.00,5369.00              2545.00,5369.00 2525.00,5369.90 2525.00,5369.90              2517.65,5369.21 2519.34,5366.85 2506.00,5367.00              2497.15,5367.10 2495.15,5369.55 2491.00,5369.28              2491.00,5369.28 2480.00,5367.09 2480.00,5367.09              2480.00,5367.09 2471.00,5367.66 2471.00,5367.66              2471.00,5367.66 2458.00,5366.00 2458.00,5366.00              2458.00,5366.00 2445.00,5366.96 2445.00,5366.96              2445.00,5366.96 2428.00,5366.96 2428.00,5366.96              2417.43,5367.02 2419.87,5367.85 2411.00,5370.37              2405.26,5372.00 2393.95,5373.99 2388.00,5373.92              2388.00,5373.92 2370.00,5373.92 2370.00,5373.92              2364.15,5373.25 2361.75,5371.77 2355.00,5372.04              2355.00,5372.04 2344.00,5373.83 2344.00,5373.83              2344.00,5373.83 2318.00,5375.00 2318.00,5375.00              2318.00,5375.00 2302.00,5373.02 2302.00,5373.02              2294.28,5372.86 2292.99,5374.36 2289.00,5374.53              2289.00,5374.53 2274.00,5372.61 2274.00,5372.61              2274.00,5372.61 2260.00,5366.93 2260.00,5366.93              2260.00,5366.93 2238.00,5363.62 2238.00,5363.62              2238.00,5363.62 2223.00,5359.23 2223.00,5359.23              2219.19,5358.79 2210.24,5358.95 2206.00,5359.23              2194.68,5359.14 2188.58,5363.75 2181.00,5364.20              2181.00,5364.20 2168.00,5364.20 2168.00,5364.20              2168.00,5364.20 2152.00,5366.00 2152.00,5366.00              2152.00,5366.00 2120.00,5366.00 2120.00,5366.00              2114.79,5366.01 2102.10,5367.58 2097.00,5368.67              2097.00,5368.67 2085.00,5371.85 2085.00,5371.85              2085.00,5371.85 2075.00,5371.85 2075.00,5371.85              2075.00,5371.85 2040.00,5375.43 2040.00,5375.43              2027.80,5378.85 2013.46,5385.98 2001.00,5386.00              2001.00,5386.00 1976.00,5387.00 1976.00,5387.00              1976.00,5387.00 1952.00,5385.17 1952.00,5385.17              1952.00,5385.17 1937.00,5389.25 1937.00,5389.25              1937.00,5389.25 1925.00,5391.52 1925.00,5391.52              1925.00,5391.52 1911.00,5396.84 1911.00,5396.84              1911.00,5396.84 1885.00,5399.61 1885.00,5399.61              1885.00,5399.61 1866.00,5403.91 1866.00,5403.91              1861.34,5405.23 1856.82,5407.01 1852.00,5407.70              1847.54,5408.34 1837.26,5407.59 1833.00,5406.37              1827.82,5404.88 1826.10,5402.40 1818.00,5402.04              1818.00,5402.04 1791.00,5403.46 1791.00,5403.46              1783.62,5404.77 1778.97,5407.27 1771.00,5406.96              1771.00,5406.96 1755.00,5406.00 1755.00,5406.00              1755.00,5406.00 1725.00,5408.00 1725.00,5408.00              1725.00,5408.00 1702.00,5410.00 1702.00,5410.00              1685.04,5410.19 1691.68,5411.42 1681.00,5412.82              1681.00,5412.82 1644.00,5417.00 1644.00,5417.00              1644.00,5417.00 1626.00,5419.00 1626.00,5419.00              1626.00,5419.00 1615.00,5419.00 1615.00,5419.00              1615.00,5419.00 1587.00,5423.00 1587.00,5423.00              1570.96,5423.19 1576.06,5424.73 1567.00,5425.91              1567.00,5425.91 1554.00,5425.91 1554.00,5425.91              1554.00,5425.91 1543.00,5426.79 1543.00,5426.79              1537.00,5426.41 1538.86,5424.94 1526.00,5425.00              1526.00,5425.00 1515.00,5426.00 1515.00,5426.00              1515.00,5426.00 1504.00,5426.00 1504.00,5426.00              1504.00,5426.00 1495.00,5426.00 1495.00,5426.00              1495.00,5426.00 1474.00,5418.90 1474.00,5418.90              1468.99,5417.68 1463.18,5417.95 1458.00,5418.10              1458.00,5418.10 1449.00,5418.10 1449.00,5418.10              1446.00,5417.67 1443.08,5415.51 1437.00,5415.09              1437.00,5415.09 1422.00,5415.91 1422.00,5415.91              1422.00,5415.91 1410.00,5413.46 1410.00,5413.46              1410.00,5413.46 1400.00,5412.83 1400.00,5412.83              1400.00,5412.83 1391.00,5411.04 1391.00,5411.04              1391.00,5411.04 1381.00,5411.04 1381.00,5411.04              1381.00,5411.04 1360.00,5410.00 1360.00,5410.00              1360.00,5410.00 1345.00,5409.00 1345.00,5409.00              1345.00,5409.00 1327.00,5409.00 1327.00,5409.00              1327.00,5409.00 1318.00,5409.66 1318.00,5409.66              1318.00,5409.66 1308.00,5409.04 1308.00,5409.04              1308.00,5409.04 1295.00,5411.38 1295.00,5411.38              1291.50,5411.45 1288.77,5409.74 1283.00,5410.09              1283.00,5410.09 1274.00,5411.49 1274.00,5411.49              1268.99,5411.45 1267.20,5407.80 1256.00,5408.02              1256.00,5408.02 1234.00,5410.83 1234.00,5410.83              1234.00,5410.83 1220.00,5411.82 1220.00,5411.82              1220.00,5411.82 1213.00,5411.04 1213.00,5411.04              1213.00,5411.04 1203.00,5411.04 1203.00,5411.04              1203.00,5411.04 1184.00,5409.00 1184.00,5409.00              1184.00,5409.00 1160.00,5409.00 1160.00,5409.00              1160.00,5409.00 1141.00,5410.00 1141.00,5410.00              1131.10,5410.05 1130.42,5412.02 1123.00,5412.83              1123.00,5412.83 1109.00,5413.90 1109.00,5413.90              1105.33,5413.74 1103.42,5412.82 1099.00,5413.09              1099.00,5413.09 1088.00,5414.91 1088.00,5414.91              1088.00,5414.91 1042.00,5417.17 1042.00,5417.17              1042.00,5417.17 1032.00,5419.00 1032.00,5419.00              1032.00,5419.00 1022.00,5419.00 1022.00,5419.00              1022.00,5419.00 990.00,5422.00 990.00,5422.00              990.00,5422.00 967.00,5423.13 967.00,5423.13              967.00,5423.13 948.00,5423.13 948.00,5423.13              948.00,5423.13 923.00,5421.01 923.00,5421.01              923.00,5421.01 910.00,5422.00 910.00,5422.00              910.00,5422.00 891.00,5422.00 891.00,5422.00              891.00,5422.00 878.00,5421.00 878.00,5421.00              878.00,5421.00 859.00,5421.00 859.00,5421.00              845.17,5420.98 851.26,5417.79 833.00,5418.00              825.55,5418.09 825.54,5419.24 820.00,5419.96              820.00,5419.96 805.00,5419.96 805.00,5419.96              805.00,5419.96 795.00,5421.40 795.00,5421.40              789.82,5421.59 786.42,5419.05 777.00,5419.00              763.19,5418.93 764.89,5416.02 752.00,5416.00              752.00,5416.00 711.00,5415.00 711.00,5415.00              711.00,5415.00 688.00,5417.00 688.00,5417.00              688.00,5417.00 673.00,5417.66 673.00,5417.66              673.00,5417.66 664.00,5417.04 664.00,5417.04              664.00,5417.04 651.00,5418.54 651.00,5418.54              647.68,5418.13 645.27,5416.29 639.00,5416.04              633.98,5415.84 632.40,5416.59 628.00,5416.91              628.00,5416.91 609.00,5418.30 609.00,5418.30              597.93,5419.88 587.27,5422.13 576.00,5422.00              576.00,5422.00 553.00,5420.00 553.00,5420.00              553.00,5420.00 522.00,5420.00 522.00,5420.00              522.00,5420.00 509.00,5419.00 509.00,5419.00              509.00,5419.00 487.00,5419.00 487.00,5419.00              487.00,5419.00 470.00,5418.00 470.00,5418.00              451.89,5417.97 457.90,5415.90 447.00,5414.15              447.00,5414.15 428.00,5414.15 428.00,5414.15              428.00,5414.15 398.00,5410.63 398.00,5410.63              387.42,5408.55 390.15,5407.86 378.00,5408.00              378.00,5408.00 366.00,5408.97 366.00,5408.97              366.00,5408.97 354.00,5408.04 354.00,5408.04              354.00,5408.04 345.00,5408.68 345.00,5408.68              345.00,5408.68 337.00,5408.04 337.00,5408.04              337.00,5408.04 310.00,5410.00 310.00,5410.00              310.00,5410.00 289.00,5410.00 289.00,5410.00              286.35,5397.00 275.71,5385.63 276.51,5373.00              277.43,5358.47 275.85,5358.41 275.21,5346.00              275.21,5346.00 276.00,5332.00 276.00,5332.00              275.96,5323.46 274.43,5322.29 274.26,5318.00              274.26,5318.00 275.77,5305.00 275.77,5305.00              275.77,5305.00 275.77,5295.00 275.77,5295.00              275.77,5295.00 275.77,5286.00 275.77,5286.00              275.77,5286.00 275.77,5280.00 275.77,5280.00              275.77,5280.00 275.77,5272.00 275.77,5272.00              275.77,5272.00 275.77,5248.00 275.77,5248.00              275.77,5248.00 276.96,5237.00 276.96,5237.00              276.96,5237.00 276.34,5226.00 276.34,5226.00              276.34,5226.00 277.04,5217.00 277.04,5217.00              277.04,5217.00 277.04,5204.00 277.04,5204.00              277.35,5200.13 278.15,5198.29 277.91,5194.00              277.91,5194.00 277.00,5177.00 277.00,5177.00              277.00,5177.00 276.21,5161.00 276.21,5161.00              277.11,5154.83 280.26,5154.28 279.99,5142.00              279.99,5142.00 279.34,5134.00 279.34,5134.00              279.34,5134.00 279.98,5127.00 279.98,5127.00              279.98,5127.00 279.98,5111.00 279.98,5111.00              279.98,5111.00 279.00,5096.00 279.00,5096.00              279.00,5096.00 279.00,5075.00 279.00,5075.00              279.00,5075.00 279.00,5061.00 279.00,5061.00              279.00,5061.00 279.91,5048.00 279.91,5048.00              279.91,5048.00 278.21,5038.00 278.21,5038.00              278.21,5038.00 278.99,5027.00 278.99,5027.00              278.99,5027.00 278.08,5016.00 278.08,5016.00              278.08,5016.00 279.00,5004.00 279.00,5004.00              279.00,5004.00 280.00,4973.00 280.00,4973.00              280.00,4973.00 279.04,4958.00 279.04,4958.00              279.04,4958.00 279.04,4941.00 279.04,4941.00              279.04,4941.00 280.00,4931.00 280.00,4931.00              280.00,4931.00 280.00,4896.00 280.00,4896.00              280.00,4896.00 278.17,4878.00 278.17,4878.00              278.17,4878.00 277.51,4848.00 277.51,4848.00              277.99,4840.69 278.85,4840.24 280.32,4834.00              282.00,4826.90 285.33,4810.84 284.91,4804.00              284.91,4804.00 283.30,4795.00 283.30,4795.00              283.30,4795.00 282.70,4787.00 282.70,4787.00              282.70,4787.00 281.30,4780.00 281.30,4780.00              281.30,4780.00 279.79,4760.00 279.79,4760.00              279.79,4760.00 279.79,4751.00 279.79,4751.00              279.79,4751.00 279.79,4743.00 279.79,4743.00              279.79,4743.00 278.08,4733.00 278.08,4733.00              278.08,4733.00 278.08,4715.00 278.08,4715.00              278.11,4703.58 277.11,4705.77 276.09,4697.00              276.09,4697.00 276.09,4680.00 276.09,4680.00              276.09,4680.00 276.91,4665.00 276.91,4665.00              276.71,4661.53 275.91,4659.80 276.18,4656.00              276.18,4656.00 277.00,4636.00 277.00,4636.00              277.00,4636.00 275.74,4620.00 275.74,4620.00              275.74,4620.00 275.00,4602.00 275.00,4602.00              275.00,4602.00 273.83,4575.00 273.83,4575.00              273.83,4575.00 271.00,4545.00 271.00,4545.00              271.00,4545.00 271.00,4533.00 271.00,4533.00              271.00,4533.00 270.00,4518.00 270.00,4518.00              270.00,4518.00 269.00,4471.00 269.00,4471.00              269.00,4471.00 268.03,4456.00 268.03,4456.00              268.03,4456.00 268.03,4435.00 268.03,4435.00              268.03,4435.00 268.03,4423.00 268.03,4423.00              268.03,4423.00 269.00,4412.00 269.00,4412.00              269.00,4412.00 269.00,4394.00 269.00,4394.00              269.00,4394.00 266.03,4362.00 266.03,4362.00              266.03,4362.00 270.09,4318.00 270.09,4318.00              270.09,4318.00 274.54,4302.00 274.54,4302.00              274.54,4302.00 275.17,4293.00 275.17,4293.00              275.17,4293.00 277.44,4276.00 277.44,4276.00              277.44,4276.00 282.79,4249.00 282.79,4249.00              282.79,4249.00 282.79,4240.00 282.79,4240.00              283.62,4231.46 285.18,4235.86 285.00,4220.00              285.00,4220.00 284.18,4210.00 284.18,4210.00              284.18,4206.42 285.38,4203.89 284.91,4197.00              284.91,4197.00 283.08,4182.00 283.08,4182.00              283.08,4182.00 283.96,4173.00 283.96,4173.00              284.24,4165.87 282.20,4158.99 281.29,4152.00              281.29,4152.00 280.00,4132.00 280.00,4132.00              279.81,4115.30 280.19,4104.63 282.17,4088.00              282.17,4088.00 283.83,4079.00 283.83,4079.00              283.83,4079.00 285.28,4060.00 285.28,4060.00              285.28,4060.00 289.57,4035.00 289.57,4035.00              289.57,4035.00 290.30,4026.00 290.30,4026.00              290.30,4026.00 292.57,4014.00 292.57,4014.00              292.57,4014.00 294.29,3998.00 294.29,3998.00              294.29,3998.00 296.70,3986.00 296.70,3986.00              298.42,3974.11 299.14,3958.07 299.00,3946.00              298.86,3934.32 295.09,3935.19 293.10,3920.00              293.10,3920.00 293.10,3909.00 293.10,3909.00              292.49,3903.31 291.09,3902.61 291.00,3895.00              291.00,3895.00 291.00,3864.00 291.00,3864.00              291.00,3864.00 291.96,3850.00 291.96,3850.00              291.96,3850.00 291.00,3834.00 291.00,3834.00              290.98,3823.76 289.48,3824.24 288.06,3816.00              288.06,3816.00 288.06,3805.00 288.06,3805.00              288.06,3805.00 285.59,3788.00 285.59,3788.00              285.59,3788.00 287.00,3773.00 287.00,3773.00              287.26,3750.57 283.02,3753.65 283.00,3739.00              283.00,3739.00 283.00,3707.00 283.00,3707.00              283.00,3707.00 286.00,3677.00 286.00,3677.00              286.00,3677.00 286.00,3662.00 286.00,3662.00              286.00,3662.00 286.97,3650.00 286.97,3650.00              286.97,3650.00 286.09,3638.00 286.09,3638.00              286.09,3638.00 287.96,3618.00 287.96,3618.00              287.96,3618.00 287.96,3600.00 287.96,3600.00              287.96,3600.00 290.96,3575.00 290.96,3575.00              290.96,3575.00 290.01,3565.00 290.01,3565.00              290.01,3565.00 290.97,3550.00 290.97,3550.00              290.97,3550.00 290.18,3541.00 290.18,3541.00              290.18,3541.00 291.00,3529.00 291.00,3529.00              291.00,3529.00 291.00,3495.00 291.00,3495.00              291.00,3495.00 289.00,3471.00 289.00,3471.00              289.00,3471.00 291.00,3451.00 291.00,3451.00              291.00,3451.00 291.00,3441.00 291.00,3441.00              291.00,3441.00 292.87,3432.00 292.87,3432.00              292.87,3432.00 294.46,3418.00 294.46,3418.00              295.70,3410.97 297.91,3405.35 298.00,3398.00              298.00,3398.00 298.00,3388.00 298.00,3388.00              298.00,3388.00 299.00,3366.00 299.00,3366.00              299.00,3366.00 298.32,3350.00 298.32,3350.00              298.56,3346.83 299.11,3345.59 298.91,3342.00              298.91,3342.00 298.00,3325.00 298.00,3325.00              297.96,3317.25 296.68,3315.93 296.58,3312.00              296.58,3312.00 297.91,3289.00 297.91,3289.00              297.91,3289.00 293.87,3258.00 293.87,3258.00              293.87,3258.00 293.87,3250.00 293.87,3250.00              293.87,3250.00 292.97,3239.00 292.97,3239.00              292.97,3239.00 292.97,3220.00 292.97,3220.00              292.97,3220.00 292.97,3196.00 292.97,3196.00              293.70,3191.07 295.26,3188.74 294.91,3183.00              294.36,3174.01 292.19,3173.38 292.00,3157.00              292.00,3157.00 291.04,3147.00 291.04,3147.00              291.04,3147.00 291.04,3137.00 291.04,3137.00              291.04,3137.00 287.00,3107.00 287.00,3107.00              287.00,3107.00 287.00,3098.00 287.00,3098.00              287.00,3098.00 285.17,3088.00 285.17,3088.00              285.17,3088.00 283.70,3071.00 283.70,3071.00              283.70,3071.00 281.29,3059.00 281.29,3059.00              281.29,3059.00 280.70,3048.00 280.70,3048.00              280.70,3048.00 277.33,3036.00 277.33,3036.00              277.33,3036.00 276.56,3023.00 276.56,3023.00              276.56,3023.00 272.43,3003.00 272.43,3003.00              272.43,3003.00 269.72,2979.00 269.72,2979.00              269.72,2979.00 267.32,2965.00 267.32,2965.00              267.32,2965.00 265.21,2957.00 265.21,2957.00              265.21,2957.00 264.54,2948.00 264.54,2948.00              264.54,2948.00 259.50,2928.00 259.50,2928.00              259.50,2928.00 257.54,2913.00 257.54,2913.00              256.37,2906.38 254.08,2897.49 254.00,2891.00              253.84,2876.79 251.66,2877.12 251.21,2870.00              251.21,2870.00 251.91,2862.00 251.91,2862.00              252.29,2855.31 248.71,2844.90 247.46,2838.00              247.46,2838.00 246.10,2829.00 246.10,2829.00              246.10,2829.00 243.64,2819.00 243.64,2819.00              243.15,2812.38 247.97,2805.71 247.97,2797.00              247.97,2797.00 246.32,2782.00 246.32,2782.00              246.32,2782.00 244.10,2774.00 244.10,2774.00              244.10,2774.00 244.10,2757.00 244.10,2757.00              243.83,2743.13 236.70,2739.71 237.01,2726.00              237.16,2719.64 238.89,2716.65 239.70,2711.00              239.70,2711.00 241.00,2689.00 241.00,2689.00              241.00,2689.00 241.91,2673.00 241.91,2673.00              241.91,2673.00 239.34,2652.00 239.34,2652.00              239.34,2652.00 242.96,2632.00 242.96,2632.00              243.25,2623.09 240.06,2622.21 240.00,2612.00              240.00,2612.00 239.00,2593.00 239.00,2593.00              239.00,2593.00 239.91,2580.00 239.91,2580.00              239.91,2580.00 238.04,2563.00 238.04,2563.00              238.50,2554.24 244.33,2552.31 243.99,2537.00              243.99,2537.00 243.01,2526.00 243.01,2526.00              243.01,2526.00 244.99,2498.00 244.99,2498.00              244.99,2498.00 244.00,2486.00 244.00,2486.00              244.00,2486.00 246.99,2447.00 246.99,2447.00              246.99,2447.00 246.00,2433.00 246.00,2433.00              246.00,2433.00 246.00,2420.00 246.00,2420.00              246.00,2420.00 245.00,2404.00 245.00,2404.00              245.00,2404.00 244.00,2388.00 244.00,2388.00              244.00,2388.00 245.00,2364.00 245.00,2364.00              245.00,2364.00 244.00,2338.00 244.00,2338.00              244.00,2338.00 243.00,2321.00 243.00,2321.00              243.00,2321.00 244.00,2307.00 244.00,2307.00              244.10,2297.86 245.76,2288.94 247.63,2280.00              248.83,2274.26 250.58,2273.25 252.08,2268.00              254.53,2259.40 255.19,2250.81 256.17,2242.00              256.74,2236.95 258.24,2234.82 257.91,2229.00              257.91,2229.00 256.76,2215.00 256.76,2215.00              256.76,2215.00 256.76,2195.00 256.76,2195.00              256.76,2195.00 257.96,2180.00 257.96,2180.00              257.96,2180.00 256.17,2166.00 256.17,2166.00              256.17,2166.00 255.18,2147.00 255.18,2147.00              255.18,2147.00 255.91,2141.00 255.91,2141.00              256.07,2138.18 253.62,2119.69 252.78,2117.00              249.40,2106.18 248.08,2111.55 247.37,2096.00              247.37,2096.00 250.00,2072.00 250.00,2072.00              250.01,2065.77 250.56,2058.91 248.45,2053.00              246.25,2046.80 242.44,2043.33 241.73,2040.00              241.20,2037.51 242.70,2033.04 242.91,2030.00              242.91,2030.00 242.09,2016.00 242.09,2016.00              242.50,2009.32 246.65,1995.57 248.92,1989.00              251.49,1981.59 254.02,1972.79 257.80,1966.00              261.15,1959.95 264.87,1957.82 268.11,1951.00              269.86,1947.32 273.79,1936.85 274.53,1933.00              274.53,1933.00 275.51,1926.00 275.51,1926.00              277.45,1916.75 278.98,1911.86 279.00,1902.00              279.00,1902.00 279.00,1864.00 279.00,1864.00              279.00,1864.00 278.32,1853.00 278.32,1853.00              278.32,1853.00 279.00,1843.00 279.00,1843.00              279.00,1843.00 279.00,1829.00 279.00,1829.00              279.00,1829.00 280.00,1814.00 280.00,1814.00              280.00,1814.00 281.09,1789.00 281.09,1789.00              281.65,1781.38 283.14,1783.89 282.81,1771.00              282.81,1771.00 282.81,1762.00 282.81,1762.00              283.06,1756.64 283.99,1758.00 284.00,1749.00              284.00,1749.00 283.00,1717.00 283.00,1717.00              283.02,1704.29 284.65,1705.48 289.05,1695.00              289.05,1695.00 291.22,1688.00 291.22,1688.00              293.83,1679.83 295.60,1678.46 294.91,1669.00              294.91,1669.00 285.44,1635.00 285.44,1635.00              285.44,1635.00 283.79,1619.00 283.79,1619.00              283.79,1619.00 283.79,1609.00 283.79,1609.00              284.01,1598.69 282.96,1599.94 282.08,1592.00              282.08,1592.00 282.08,1583.00 282.08,1583.00              282.08,1583.00 281.06,1571.00 281.06,1571.00              281.06,1571.00 283.91,1557.00 283.91,1557.00              284.43,1548.56 280.47,1530.07 279.06,1521.00              279.06,1521.00 279.06,1512.00 279.06,1512.00              278.35,1507.58 276.42,1503.49 276.84,1499.00              277.74,1489.31 281.97,1484.51 281.97,1476.00              281.97,1476.00 279.13,1457.00 279.13,1457.00              279.13,1457.00 273.72,1416.00 273.72,1416.00              273.72,1416.00 270.00,1400.00 270.00,1400.00              270.00,1400.00 270.00,1392.00 270.00,1392.00              270.00,1392.00 268.17,1383.00 268.17,1383.00              266.34,1366.09 264.26,1354.71 247.00,1347.00              249.25,1338.43 249.93,1337.30 251.08,1328.00              251.08,1328.00 251.08,1321.00 251.08,1321.00              251.08,1321.00 253.54,1312.00 253.54,1312.00              253.54,1312.00 255.17,1296.00 255.17,1296.00              255.17,1296.00 256.83,1287.00 256.83,1287.00              256.83,1287.00 258.21,1269.00 258.21,1269.00              258.21,1269.00 261.54,1257.00 261.54,1257.00              261.54,1257.00 262.18,1245.00 262.18,1245.00              262.18,1245.00 266.56,1226.00 266.56,1226.00              266.56,1226.00 267.29,1212.00 267.29,1212.00              267.29,1212.00 269.94,1200.00 269.94,1200.00              269.94,1200.00 269.94,1193.00 269.94,1193.00              271.20,1183.50 271.87,1185.53 272.00,1174.00              272.00,1174.00 275.94,1142.00 275.94,1142.00              275.94,1142.00 275.94,1133.00 275.94,1133.00              275.94,1133.00 277.70,1125.00 277.70,1125.00              277.70,1125.00 279.17,1110.00 279.17,1110.00              279.85,1104.26 280.91,1104.18 281.00,1097.00              281.21,1079.25 285.21,1082.90 285.00,1065.00              285.00,1065.00 284.05,1055.00 284.05,1055.00              284.05,1055.00 284.05,1038.00 284.05,1038.00              284.05,1038.00 285.00,1020.00 285.00,1020.00              285.00,1020.00 283.87,1006.00 283.87,1006.00              283.87,1006.00 283.87,972.00 283.87,972.00              283.87,972.00 284.85,959.00 284.85,959.00              284.85,959.00 284.85,941.00 284.85,941.00              284.85,941.00 284.85,932.00 284.85,932.00              284.85,932.00 284.00,920.00 284.00,920.00              284.00,920.00 284.00,887.00 284.00,887.00              284.00,887.00 282.87,871.00 282.87,871.00              282.87,871.00 282.87,844.00 282.87,844.00              282.87,844.00 284.00,814.00 284.00,814.00              283.91,806.68 282.57,805.13 282.18,800.00              282.18,800.00 282.96,786.00 282.96,786.00              282.96,786.00 282.96,775.00 282.96,775.00              282.96,775.00 282.04,764.00 282.04,764.00              282.04,764.00 282.96,752.00 282.96,752.00              282.96,752.00 282.00,741.00 282.00,741.00              282.00,741.00 282.96,706.00 282.96,706.00              282.96,706.00 279.88,683.00 279.88,683.00              279.88,683.00 279.88,667.00 279.88,667.00              279.88,667.00 279.88,655.00 279.88,655.00              279.88,655.00 279.88,643.00 279.88,643.00              279.88,643.00 279.00,628.00 279.00,628.00              279.00,628.00 279.00,606.00 279.00,606.00              279.00,606.00 280.91,586.00 280.91,586.00              280.58,580.65 279.09,579.58 279.05,572.00              279.05,572.00 279.05,561.00 279.05,561.00              279.05,561.00 279.96,551.00 279.96,551.00              279.64,540.98 277.35,537.53 277.91,525.00              278.46,512.78 272.40,507.34 264.00,499.84              259.34,495.68 256.19,492.20 250.00,490.22              245.07,488.64 239.17,488.94 234.00,489.00              227.30,489.08 222.65,490.36 217.00,494.10              214.56,495.72 210.19,499.97 208.00,500.59              205.54,501.29 201.64,499.28 199.00,498.68              199.00,498.68 180.00,496.13 180.00,496.13              174.35,494.54 165.78,490.41 161.61,486.37              158.68,483.53 156.43,477.45 148.00,472.91              141.45,469.39 137.61,470.63 133.00,469.37              133.00,469.37 112.00,462.93 112.00,462.93              112.00,462.93 104.00,461.13 104.00,461.13              91.54,457.54 93.50,456.52 85.00,452.95              85.00,452.95 76.00,450.23 76.00,450.23              64.12,445.62 67.04,446.00 53.91,446.00              53.91,446.00 53.91,435.00 53.91,435.00              53.91,435.00 52.44,427.04 52.44,427.04              52.47,424.88 53.21,423.54 55.15,422.49              57.97,420.96 63.51,422.10 67.00,421.96              72.27,421.76 85.40,420.77 90.00,419.25              97.08,416.91 99.60,413.52 103.00,411.98              105.52,410.84 108.33,411.02 111.00,410.54              121.21,408.68 116.31,408.02 129.00,408.00              140.94,407.98 157.67,405.73 166.96,397.67              171.18,394.01 172.12,391.38 174.94,387.00              177.43,383.13 180.20,380.36 182.05,376.00              183.77,371.93 185.72,356.00 186.09,351.00              186.68,342.84 188.39,337.98 184.09,330.00              179.59,321.66 174.39,319.22 167.00,314.46              157.32,308.22 157.64,307.23 146.00,303.72              132.20,299.56 133.73,297.49 118.00,294.54              112.69,293.55 112.85,293.13 107.00,293.00              107.71,289.50 109.55,282.01 111.12,279.00              114.49,272.55 120.07,267.79 124.21,262.00              127.62,257.22 131.17,246.87 132.00,241.00              137.79,240.95 151.03,239.99 156.00,237.60              162.40,234.52 163.65,231.58 168.28,227.38              168.28,227.38 181.00,217.91 181.00,217.91              181.00,217.91 193.17,204.79 193.17,204.79              199.66,199.61 217.17,193.64 217.96,174.00              218.38,163.62 214.06,154.89 205.00,149.48              199.58,146.24 196.37,147.21 192.42,143.70              192.42,143.70 185.00,136.53 185.00,136.53              182.00,134.19 178.07,132.46 175.63,129.67              172.71,126.34 171.56,120.79 162.00,114.04              151.88,106.90 144.71,106.72 133.00,105.96              123.57,105.26 123.20,104.17 113.00,105.96 Z"
            style="fill:#000000;fill-opacity:1"/>
</svg>
