<?xml version="1.0" encoding="UTF-8" standalone="no"?>
<svg
        width="171.641mm"
        height="119.973mm"
        viewBox="0 0 8109 5668"
        version="1.1"
        id="svg1401"
        sodipodi:docname="sheet13a.svg"
        inkscape:version="1.1.1 (3bf5ae0d25, 2021-09-20)"
        xmlns:inkscape="http://www.inkscape.org/namespaces/inkscape"
        xmlns:sodipodi="http://sodipodi.sourceforge.net/DTD/sodipodi-0.dtd"
        xmlns="http://www.w3.org/2000/svg"
>
    <defs
            id="defs1405"/>
    <sodipodi:namedview
            id="namedview1403"
            pagecolor="#ffffff"
            bordercolor="#666666"
            borderopacity="1.0"
            inkscape:pageshadow="2"
            inkscape:pageopacity="0.0"
            inkscape:pagecheckerboard="0"
            inkscape:document-units="mm"
            showgrid="false"
            inkscape:zoom="1.6308991"
            inkscape:cx="324.05438"
            inkscape:cy="226.56214"
            inkscape:window-width="1920"
            inkscape:window-height="1001"
            inkscape:window-x="-7"
            inkscape:window-y="-7"
            inkscape:window-maximized="1"
            inkscape:current-layer="svg1401"/>
    <path
            id="Selection"
            fill="none"
            stroke="black"
            stroke-width="1"
            d="M 8018.21,5605.00            C 8008.51,5602.69 8003.06,5604.40 7994.00,5605.70              7989.24,5606.39 7987.19,5605.67 7982.00,5607.56              7982.00,5607.56 7961.00,5616.53 7961.00,5616.53              7953.08,5618.05 7950.93,5615.40 7944.00,5614.30              7944.00,5614.30 7926.00,5612.68 7926.00,5612.68              7915.57,5610.94 7909.65,5606.30 7903.00,5604.22              7897.04,5602.36 7894.35,5603.55 7890.00,5602.37              7890.00,5602.37 7881.00,5599.45 7881.00,5599.45              7881.00,5599.45 7867.00,5597.63 7867.00,5597.63              7856.56,5595.61 7859.99,5595.16 7848.00,5595.00              7840.56,5594.90 7840.53,5593.49 7834.00,5591.90              7834.00,5591.90 7814.00,5589.09 7814.00,5589.09              7814.00,5589.09 7780.00,5587.00 7780.00,5587.00              7780.00,5587.00 7758.00,5585.04 7758.00,5585.04              7758.00,5585.04 7743.00,5585.91 7743.00,5585.91              7743.00,5585.91 7719.00,5583.71 7719.00,5583.71              7719.00,5583.71 7706.00,5581.29 7706.00,5581.29              7706.00,5581.29 7686.00,5579.91 7686.00,5579.91              7686.00,5579.91 7674.00,5579.00 7674.00,5579.00              7674.00,5579.00 7654.00,5580.00 7654.00,5580.00              7654.00,5580.00 7627.00,5578.96 7627.00,5578.96              7627.00,5578.96 7617.00,5578.96 7617.00,5578.96              7617.00,5578.96 7603.00,5576.30 7603.00,5576.30              7603.00,5576.30 7586.00,5574.83 7586.00,5574.83              7586.00,5574.83 7577.00,5573.17 7577.00,5573.17              7577.00,5573.17 7557.00,5571.83 7557.00,5571.83              7557.00,5571.83 7541.00,5569.28 7541.00,5569.28              7541.00,5569.28 7515.00,5568.00 7515.00,5568.00              7515.00,5568.00 7495.00,5566.83 7495.00,5566.83              7495.00,5566.83 7477.00,5565.00 7477.00,5565.00              7477.00,5565.00 7463.00,5565.00 7463.00,5565.00              7454.04,5564.99 7454.10,5563.88 7447.00,5563.09              7447.00,5563.09 7435.00,5563.09 7435.00,5563.09              7435.00,5563.09 7422.00,5563.91 7422.00,5563.91              7422.00,5563.91 7412.00,5562.17 7412.00,5562.17              7412.00,5562.17 7388.00,5560.91 7388.00,5560.91              7382.65,5560.52 7379.93,5558.73 7374.00,5559.09              7374.00,5559.09 7364.00,5560.92 7364.00,5560.92              7364.00,5560.92 7350.00,5560.92 7350.00,5560.92              7350.00,5560.92 7340.00,5561.61 7340.00,5561.61              7336.36,5561.34 7335.01,5560.16 7329.00,5560.01              7318.89,5559.77 7318.53,5561.31 7314.00,5561.42              7314.00,5561.42 7300.00,5560.04 7300.00,5560.04              7300.00,5560.04 7289.00,5560.04 7289.00,5560.04              7289.00,5560.04 7279.00,5559.09 7279.00,5559.09              7279.00,5559.09 7261.00,5559.83 7261.00,5559.83              7261.00,5559.83 7251.00,5557.94 7251.00,5557.94              7251.00,5557.94 7242.00,5557.94 7242.00,5557.94              7233.86,5556.54 7227.43,5555.04 7219.00,5555.00              7219.00,5555.00 7196.00,5552.91 7196.00,5552.91              7196.00,5552.91 7185.00,5552.91 7185.00,5552.91              7180.01,5552.29 7177.88,5550.76 7172.00,5551.09              7172.00,5551.09 7158.00,5552.83 7158.00,5552.83              7158.00,5552.83 7127.00,5554.68 7127.00,5554.68              7109.00,5553.33 7111.91,5555.92 7102.00,5555.92              7102.00,5555.92 7082.00,5554.00 7082.00,5554.00              7082.00,5554.00 7070.00,5554.00 7070.00,5554.00              7070.00,5554.00 7042.00,5550.96 7042.00,5550.96              7042.00,5550.96 7027.00,5550.96 7027.00,5550.96              7027.00,5550.96 7015.00,5550.00 7015.00,5550.00              7015.00,5550.00 6990.00,5550.00 6990.00,5550.00              6990.00,5550.00 6975.00,5550.91 6975.00,5550.91              6975.00,5550.91 6965.00,5550.04 6965.00,5550.04              6965.00,5550.04 6956.00,5550.68 6956.00,5550.68              6956.00,5550.68 6927.00,5550.00 6927.00,5550.00              6927.00,5550.00 6911.00,5549.00 6911.00,5549.00              6911.00,5549.00 6878.00,5548.00 6878.00,5548.00              6878.00,5548.00 6863.00,5547.09 6863.00,5547.09              6863.00,5547.09 6847.00,5548.90 6847.00,5548.90              6847.00,5548.90 6837.00,5547.17 6837.00,5547.17              6837.00,5547.17 6814.00,5546.00 6814.00,5546.00              6814.00,5546.00 6800.00,5546.00 6800.00,5546.00              6800.00,5546.00 6770.00,5543.17 6770.00,5543.17              6770.00,5543.17 6748.00,5541.71 6748.00,5541.71              6748.00,5541.71 6734.00,5538.67 6734.00,5538.67              6734.00,5538.67 6700.00,5534.15 6700.00,5534.15              6700.00,5534.15 6689.00,5534.15 6689.00,5534.15              6689.00,5534.15 6674.00,5534.15 6674.00,5534.15              6674.00,5534.15 6664.00,5534.91 6664.00,5534.91              6664.00,5534.91 6644.00,5536.17 6644.00,5536.17              6639.50,5536.60 6637.87,5537.10 6633.00,5536.99              6633.00,5536.99 6618.00,5536.00 6618.00,5536.00              6618.00,5536.00 6603.00,5536.91 6603.00,5536.91              6603.00,5536.91 6590.00,5536.00 6590.00,5536.00              6590.00,5536.00 6578.00,5536.82 6578.00,5536.82              6578.00,5536.82 6560.00,5536.00 6560.00,5536.00              6548.78,5535.98 6550.67,5534.30 6542.00,5533.16              6534.44,5532.16 6528.72,5531.04 6521.00,5531.00              6513.65,5530.96 6513.32,5530.11 6507.00,5529.29              6507.00,5529.29 6490.00,5528.00 6490.00,5528.00              6490.00,5528.00 6465.00,5526.70 6465.00,5526.70              6455.12,5525.29 6458.02,5523.85 6445.00,5524.00              6445.00,5524.00 6435.00,5524.95 6435.00,5524.95              6435.00,5524.95 6423.00,5524.95 6423.00,5524.95              6423.00,5524.95 6395.00,5523.00 6395.00,5523.00              6395.00,5523.00 6380.00,5523.00 6380.00,5523.00              6380.00,5523.00 6362.00,5521.09 6362.00,5521.09              6362.00,5521.09 6347.00,5521.09 6347.00,5521.09              6338.21,5521.11 6330.62,5525.43 6322.00,5524.82              6322.00,5524.82 6306.00,5522.96 6306.00,5522.96              6306.00,5522.96 6297.00,5520.47 6297.00,5520.47              6297.00,5520.47 6289.00,5519.83 6289.00,5519.83              6281.34,5519.00 6273.82,5516.72 6266.00,5517.04              6257.32,5517.39 6253.79,5521.00 6249.00,5522.37              6249.00,5522.37 6230.00,5523.82 6230.00,5523.82              6230.00,5523.82 6217.00,5523.00 6217.00,5523.00              6208.13,5523.11 6207.37,5525.04 6203.00,5525.24              6203.00,5525.24 6192.00,5525.24 6192.00,5525.24              6192.00,5525.24 6155.00,5530.54 6155.00,5530.54              6155.00,5530.54 6142.00,5528.25 6142.00,5528.25              6133.68,5526.81 6131.34,5526.91 6123.00,5527.00              6123.00,5527.00 6107.00,5528.67 6107.00,5528.67              6107.00,5528.67 6099.00,5530.68 6099.00,5530.68              6099.00,5530.68 6082.00,5532.00 6082.00,5532.00              6082.00,5532.00 6021.00,5532.00 6021.00,5532.00              6021.00,5532.00 6011.00,5532.00 6011.00,5532.00              6011.00,5532.00 5999.00,5532.95 5999.00,5532.95              5985.97,5531.89 5977.96,5532.14 5965.00,5532.95              5965.00,5532.95 5953.00,5534.00 5953.00,5534.00              5953.00,5534.00 5914.00,5534.00 5914.00,5534.00              5914.00,5534.00 5899.00,5535.00 5899.00,5535.00              5899.00,5535.00 5883.00,5535.00 5883.00,5535.00              5874.00,5535.01 5875.36,5535.94 5870.00,5536.20              5870.00,5536.20 5863.00,5536.20 5863.00,5536.20              5863.00,5536.20 5850.00,5536.90 5850.00,5536.90              5850.00,5536.90 5832.00,5535.00 5832.00,5535.00              5832.00,5535.00 5826.00,5535.00 5826.00,5535.00              5826.00,5535.00 5800.00,5532.04 5800.00,5532.04              5800.00,5532.04 5776.00,5533.82 5776.00,5533.82              5776.00,5533.82 5757.00,5533.00 5757.00,5533.00              5757.00,5533.00 5747.00,5533.91 5747.00,5533.91              5747.00,5533.91 5729.00,5534.43 5729.00,5534.43              5719.42,5535.80 5716.17,5537.98 5706.00,5538.04              5706.00,5538.04 5696.00,5538.04 5696.00,5538.04              5696.00,5538.04 5687.00,5538.97 5687.00,5538.97              5687.00,5538.97 5675.00,5538.00 5675.00,5538.00              5675.00,5538.00 5652.00,5538.00 5652.00,5538.00              5652.00,5538.00 5628.00,5535.00 5628.00,5535.00              5617.34,5534.95 5619.09,5533.98 5611.00,5533.04              5611.00,5533.04 5603.00,5533.04 5603.00,5533.04              5603.00,5533.04 5586.00,5532.00 5586.00,5532.00              5586.00,5532.00 5565.00,5533.79 5565.00,5533.79              5565.00,5533.79 5552.00,5533.00 5552.00,5533.00              5552.00,5533.00 5522.00,5533.00 5522.00,5533.00              5522.00,5533.00 5499.00,5531.00 5499.00,5531.00              5499.00,5531.00 5478.00,5531.00 5478.00,5531.00              5478.00,5531.00 5458.00,5530.17 5458.00,5530.17              5458.00,5530.17 5449.00,5530.17 5449.00,5530.17              5449.00,5530.17 5438.00,5531.00 5438.00,5531.00              5438.00,5531.00 5407.00,5530.00 5407.00,5530.00              5407.00,5530.00 5393.00,5529.01 5393.00,5529.01              5393.00,5529.01 5381.00,5529.61 5381.00,5529.61              5381.00,5529.61 5373.00,5528.00 5373.00,5528.00              5373.00,5528.00 5362.00,5528.00 5362.00,5528.00              5362.00,5528.00 5341.00,5526.04 5341.00,5526.04              5341.00,5526.04 5323.00,5526.04 5323.00,5526.04              5323.00,5526.04 5313.00,5526.99 5313.00,5526.99              5313.00,5526.99 5296.00,5526.00 5296.00,5526.00              5296.00,5526.00 5283.00,5526.99 5283.00,5526.99              5283.00,5526.99 5269.00,5525.96 5269.00,5525.96              5269.00,5525.96 5253.00,5525.96 5253.00,5525.96              5253.00,5525.96 5242.00,5525.00 5242.00,5525.00              5242.00,5525.00 5223.00,5525.00 5223.00,5525.00              5223.00,5525.00 5206.00,5524.00 5206.00,5524.00              5206.00,5524.00 5161.00,5524.00 5161.00,5524.00              5161.00,5524.00 5144.00,5523.00 5144.00,5523.00              5144.00,5523.00 5126.00,5523.00 5126.00,5523.00              5126.00,5523.00 5112.00,5522.00 5112.00,5522.00              5112.00,5522.00 5079.00,5520.91 5079.00,5520.91              5079.00,5520.91 5055.00,5519.00 5055.00,5519.00              5055.00,5519.00 5033.00,5519.00 5033.00,5519.00              5033.00,5519.00 5010.00,5521.04 5010.00,5521.04              5010.00,5521.04 4999.00,5521.04 4999.00,5521.04              4999.00,5521.04 4991.00,5521.92 4991.00,5521.92              4991.00,5521.92 4980.00,5521.00 4980.00,5521.00              4980.00,5521.00 4969.00,5521.00 4969.00,5521.00              4960.04,5520.99 4960.10,5519.88 4953.00,5519.04              4953.00,5519.04 4944.00,5519.04 4944.00,5519.04              4944.00,5519.04 4924.00,5517.09 4924.00,5517.09              4924.00,5517.09 4904.00,5518.29 4904.00,5518.29              4904.00,5518.29 4894.00,5517.08 4894.00,5517.08              4894.00,5517.08 4886.00,5517.08 4886.00,5517.08              4886.00,5517.08 4858.00,5514.00 4858.00,5514.00              4858.00,5514.00 4847.00,5513.04 4847.00,5513.04              4847.00,5513.04 4835.00,5513.04 4835.00,5513.04              4835.00,5513.04 4816.00,5511.00 4816.00,5511.00              4816.00,5511.00 4798.00,5511.00 4798.00,5511.00              4798.00,5511.00 4773.00,5508.09 4773.00,5508.09              4762.11,5507.33 4760.59,5509.43 4755.00,5509.79              4755.00,5509.79 4742.00,5509.00 4742.00,5509.00              4742.00,5509.00 4716.00,5509.00 4716.00,5509.00              4716.00,5509.00 4672.00,5513.96 4672.00,5513.96              4664.82,5513.61 4654.95,5509.02 4642.00,5509.00              4642.00,5509.00 4620.00,5509.00 4620.00,5509.00              4620.00,5509.00 4609.00,5509.53 4609.00,5509.53              4603.60,5509.28 4596.45,5505.64 4589.00,5506.09              4589.00,5506.09 4580.00,5507.70 4580.00,5507.70              4580.00,5507.70 4569.00,5508.96 4569.00,5508.96              4569.00,5508.96 4560.00,5508.96 4560.00,5508.96              4560.00,5508.96 4525.00,5511.00 4525.00,5511.00              4525.00,5511.00 4503.00,5513.72 4503.00,5513.72              4503.00,5513.72 4475.00,5515.00 4475.00,5515.00              4475.00,5515.00 4448.00,5515.00 4448.00,5515.00              4448.00,5515.00 4433.00,5514.00 4433.00,5514.00              4433.00,5514.00 4397.00,5517.00 4397.00,5517.00              4397.00,5517.00 4387.00,5517.00 4387.00,5517.00              4387.00,5517.00 4380.00,5518.25 4380.00,5518.25              4380.00,5518.25 4367.00,5517.04 4367.00,5517.04              4367.00,5517.04 4352.00,5518.00 4352.00,5518.00              4352.00,5518.00 4324.00,5518.00 4324.00,5518.00              4324.00,5518.00 4297.00,5516.00 4297.00,5516.00              4297.00,5516.00 4283.00,5516.00 4283.00,5516.00              4283.00,5516.00 4267.00,5515.00 4267.00,5515.00              4267.00,5515.00 4247.00,5515.00 4247.00,5515.00              4247.00,5515.00 4228.00,5514.00 4228.00,5514.00              4228.00,5514.00 4215.00,5515.04 4215.00,5515.04              4215.00,5515.04 4200.00,5515.04 4200.00,5515.04              4200.00,5515.04 4188.00,5516.00 4188.00,5516.00              4188.00,5516.00 4159.00,5516.00 4159.00,5516.00              4159.00,5516.00 4145.00,5516.52 4145.00,5516.52              4135.57,5514.97 4137.19,5511.02 4122.00,5511.00              4122.00,5511.00 4116.00,5511.00 4116.00,5511.00              4098.78,5511.21 4100.29,5519.97 4085.00,5520.00              4085.00,5520.00 4072.00,5520.00 4072.00,5520.00              4072.00,5520.00 4050.00,5518.00 4050.00,5518.00              4050.00,5518.00 4041.00,5518.00 4041.00,5518.00              4041.00,5518.00 4020.00,5519.90 4020.00,5519.90              4020.00,5519.90 4008.00,5519.00 4008.00,5519.00              4008.00,5519.00 3991.00,5519.00 3991.00,5519.00              3983.81,5518.91 3982.33,5517.58 3976.00,5516.46              3976.00,5516.46 3963.00,5515.82 3963.00,5515.82              3955.36,5514.90 3956.91,5513.02 3945.00,5513.00              3945.00,5513.00 3907.00,5513.00 3907.00,5513.00              3907.00,5513.00 3890.00,5512.00 3890.00,5512.00              3890.00,5512.00 3844.00,5512.00 3844.00,5512.00              3844.00,5512.00 3825.00,5514.08 3825.00,5514.08              3825.00,5514.08 3807.00,5514.08 3807.00,5514.08              3807.00,5514.08 3792.00,5515.96 3792.00,5515.96              3792.00,5515.96 3770.00,5512.44 3770.00,5512.44              3770.00,5512.44 3748.00,5511.00 3748.00,5511.00              3748.00,5511.00 3726.00,5511.00 3726.00,5511.00              3726.00,5511.00 3710.00,5511.99 3710.00,5511.99              3710.00,5511.99 3697.00,5511.00 3697.00,5511.00              3697.00,5511.00 3667.00,5511.00 3667.00,5511.00              3667.00,5511.00 3655.00,5511.63 3655.00,5511.63              3655.00,5511.63 3636.00,5508.27 3636.00,5508.27              3624.76,5506.54 3623.77,5507.12 3613.00,5507.00              3600.35,5506.85 3583.50,5503.22 3571.00,5500.35              3571.00,5500.35 3559.00,5497.46 3559.00,5497.46              3559.00,5497.46 3549.00,5496.70 3549.00,5496.70              3536.41,5494.90 3538.65,5493.83 3524.00,5494.00              3524.00,5494.00 3503.00,5496.82 3503.00,5496.82              3503.00,5496.82 3487.00,5494.43 3487.00,5494.43              3487.00,5494.43 3467.00,5493.00 3467.00,5493.00              3467.00,5493.00 3436.00,5490.89 3436.00,5490.89              3436.00,5490.89 3426.00,5490.89 3426.00,5490.89              3419.78,5489.73 3415.97,5486.08 3410.00,5484.22              3405.11,5482.70 3380.47,5479.89 3375.00,5480.01              3365.93,5480.22 3358.47,5483.26 3355.00,5483.59              3355.00,5483.59 3339.00,5483.00 3339.00,5483.00              3326.88,5483.15 3328.60,5486.94 3317.00,5487.00              3317.00,5487.00 3296.00,5488.17 3296.00,5488.17              3296.00,5488.17 3277.00,5490.00 3277.00,5490.00              3277.00,5490.00 3262.00,5490.00 3262.00,5490.00              3262.00,5490.00 3234.00,5493.04 3234.00,5493.04              3234.00,5493.04 3222.00,5493.04 3222.00,5493.04              3222.00,5493.04 3209.00,5494.25 3209.00,5494.25              3209.00,5494.25 3185.00,5494.25 3185.00,5494.25              3185.00,5494.25 3156.00,5497.00 3156.00,5497.00              3156.00,5497.00 3136.00,5497.00 3136.00,5497.00              3136.00,5497.00 3124.00,5497.96 3124.00,5497.96              3124.00,5497.96 3106.00,5497.96 3106.00,5497.96              3096.30,5497.84 3096.16,5499.46 3091.00,5499.79              3091.00,5499.79 3076.00,5499.00 3076.00,5499.00              3076.00,5499.00 3060.00,5500.63 3060.00,5500.63              3060.00,5500.63 3042.00,5500.00 3042.00,5500.00              3042.00,5500.00 3000.00,5495.00 3000.00,5495.00              3000.00,5495.00 2975.00,5493.83 2975.00,5493.83              2966.92,5493.05 2966.78,5491.99 2957.00,5492.00              2957.00,5492.00 2939.00,5493.00 2939.00,5493.00              2939.00,5493.00 2924.00,5492.00 2924.00,5492.00              2924.00,5492.00 2894.00,5492.68 2894.00,5492.68              2894.00,5492.68 2833.00,5492.00 2833.00,5492.00              2833.00,5492.00 2808.00,5490.04 2808.00,5490.04              2808.00,5490.04 2794.00,5490.96 2794.00,5490.96              2794.00,5490.96 2761.00,5487.00 2761.00,5487.00              2761.00,5487.00 2733.00,5487.00 2733.00,5487.00              2733.00,5487.00 2716.00,5488.00 2716.00,5488.00              2716.00,5488.00 2694.00,5488.00 2694.00,5488.00              2694.00,5488.00 2678.00,5487.00 2678.00,5487.00              2678.00,5487.00 2637.00,5487.00 2637.00,5487.00              2637.00,5487.00 2622.00,5486.00 2622.00,5486.00              2622.00,5486.00 2605.00,5486.00 2605.00,5486.00              2605.00,5486.00 2586.00,5487.26 2586.00,5487.26              2586.00,5487.26 2569.00,5486.04 2569.00,5486.04              2569.00,5486.04 2551.00,5485.05 2551.00,5485.05              2551.00,5485.05 2536.00,5485.05 2536.00,5485.05              2536.00,5485.05 2508.00,5487.00 2508.00,5487.00              2508.00,5487.00 2467.00,5486.00 2467.00,5486.00              2467.00,5486.00 2452.00,5485.09 2452.00,5485.09              2452.00,5485.09 2433.00,5486.00 2433.00,5486.00              2433.00,5486.00 2423.00,5485.04 2423.00,5485.04              2423.00,5485.04 2406.00,5485.04 2406.00,5485.04              2406.00,5485.04 2379.00,5487.00 2379.00,5487.00              2379.00,5487.00 2353.00,5484.00 2353.00,5484.00              2353.00,5484.00 2331.00,5484.00 2331.00,5484.00              2331.00,5484.00 2316.00,5485.18 2316.00,5485.18              2316.00,5485.18 2303.00,5485.18 2303.00,5485.18              2303.00,5485.18 2292.00,5485.18 2292.00,5485.18              2292.00,5485.18 2279.00,5485.99 2279.00,5485.99              2279.00,5485.99 2261.00,5485.00 2261.00,5485.00              2261.00,5485.00 2238.00,5481.14 2238.00,5481.14              2238.00,5481.14 2218.00,5481.14 2218.00,5481.14              2218.00,5481.14 2204.00,5480.04 2204.00,5480.04              2204.00,5480.04 2194.00,5480.99 2194.00,5480.99              2194.00,5480.99 2176.00,5480.00 2176.00,5480.00              2176.00,5480.00 2129.00,5480.00 2129.00,5480.00              2129.00,5480.00 2116.00,5481.00 2116.00,5481.00              2116.00,5481.00 2103.00,5481.00 2103.00,5481.00              2095.24,5480.90 2086.83,5477.02 2072.00,5477.00              2072.00,5477.00 2005.00,5477.00 2005.00,5477.00              2005.00,5477.00 1995.00,5477.96 1995.00,5477.96              1995.00,5477.96 1978.00,5477.96 1978.00,5477.96              1978.00,5477.96 1940.00,5481.00 1940.00,5481.00              1940.00,5481.00 1912.00,5481.00 1912.00,5481.00              1912.00,5481.00 1891.00,5479.09 1891.00,5479.09              1891.00,5479.09 1873.00,5480.99 1873.00,5480.99              1873.00,5480.99 1854.00,5479.68 1854.00,5479.68              1854.00,5479.68 1844.00,5477.30 1844.00,5477.30              1844.00,5477.30 1806.00,5475.00 1806.00,5475.00              1806.00,5475.00 1801.00,5475.00 1801.00,5475.00              1801.00,5475.00 1786.00,5476.00 1786.00,5476.00              1786.00,5476.00 1780.00,5476.00 1780.00,5476.00              1780.00,5476.00 1765.00,5474.04 1765.00,5474.04              1765.00,5474.04 1752.00,5474.92 1752.00,5474.92              1752.00,5474.92 1741.00,5474.00 1741.00,5474.00              1741.00,5474.00 1715.00,5474.00 1715.00,5474.00              1715.00,5474.00 1698.00,5474.96 1698.00,5474.96              1698.00,5474.96 1683.00,5473.09 1683.00,5473.09              1683.00,5473.09 1671.00,5473.68 1671.00,5473.68              1671.00,5473.68 1658.00,5472.05 1658.00,5472.05              1658.00,5472.05 1642.00,5472.05 1642.00,5472.05              1642.00,5472.05 1627.00,5472.99 1627.00,5472.99              1627.00,5472.99 1618.00,5472.04 1618.00,5472.04              1618.00,5472.04 1605.00,5472.04 1605.00,5472.04              1605.00,5472.04 1590.00,5471.00 1590.00,5471.00              1590.00,5471.00 1565.00,5471.68 1565.00,5471.68              1565.00,5471.68 1552.00,5471.00 1552.00,5471.00              1552.00,5471.00 1533.00,5469.00 1533.00,5469.00              1533.00,5469.00 1488.00,5469.00 1488.00,5469.00              1473.67,5469.02 1471.79,5472.85 1464.00,5473.91              1464.00,5473.91 1454.00,5473.91 1454.00,5473.91              1454.00,5473.91 1442.00,5474.79 1442.00,5474.79              1442.00,5474.79 1416.00,5472.00 1416.00,5472.00              1416.00,5472.00 1399.00,5472.00 1399.00,5472.00              1386.51,5471.85 1381.49,5467.03 1366.00,5467.00              1352.26,5466.98 1354.82,5463.81 1338.00,5464.00              1338.00,5464.00 1325.00,5465.54 1325.00,5465.54              1325.00,5465.54 1314.00,5465.00 1314.00,5465.00              1314.00,5465.00 1281.00,5465.00 1281.00,5465.00              1281.00,5465.00 1253.00,5463.00 1253.00,5463.00              1253.00,5463.00 1208.00,5462.16 1208.00,5462.16              1208.00,5462.16 1197.00,5462.16 1197.00,5462.16              1197.00,5462.16 1174.00,5462.16 1174.00,5462.16              1174.00,5462.16 1162.00,5461.04 1162.00,5461.04              1162.00,5461.04 1148.00,5461.04 1148.00,5461.04              1148.00,5461.04 1128.00,5459.00 1128.00,5459.00              1128.00,5459.00 1114.00,5459.00 1114.00,5459.00              1114.00,5459.00 1098.00,5458.00 1098.00,5458.00              1098.00,5458.00 1015.00,5458.00 1015.00,5458.00              1015.00,5458.00 1000.00,5458.00 1000.00,5458.00              1000.00,5458.00 987.00,5458.91 987.00,5458.91              987.00,5458.91 977.00,5458.00 977.00,5458.00              977.00,5458.00 972.00,5458.00 972.00,5458.00              972.00,5458.00 953.00,5457.09 953.00,5457.09              953.00,5457.09 938.00,5459.66 938.00,5459.66              934.34,5459.63 931.93,5458.01 923.00,5458.00              923.00,5458.00 908.00,5458.00 908.00,5458.00              908.00,5458.00 870.00,5460.82 870.00,5460.82              865.57,5460.50 864.04,5459.67 859.00,5460.17              859.00,5460.17 843.00,5462.94 843.00,5462.94              843.00,5462.94 833.00,5462.94 833.00,5462.94              833.00,5462.94 824.00,5465.00 824.00,5465.00              815.80,5465.80 815.25,5465.09 808.00,5465.00              808.00,5465.00 792.00,5465.00 792.00,5465.00              792.00,5465.00 779.00,5466.66 779.00,5466.66              779.00,5466.66 757.00,5464.17 757.00,5464.17              757.00,5464.17 721.00,5462.00 721.00,5462.00              721.00,5462.00 705.00,5461.00 705.00,5461.00              705.00,5461.00 670.00,5461.00 670.00,5461.00              670.00,5461.00 647.00,5460.00 647.00,5460.00              640.80,5460.08 638.62,5461.02 633.00,5461.71              633.00,5461.71 622.00,5462.29 622.00,5462.29              622.00,5462.29 579.00,5466.96 579.00,5466.96              579.00,5466.96 568.00,5466.00 568.00,5466.00              568.00,5466.00 537.00,5465.00 537.00,5465.00              528.41,5464.90 516.09,5461.06 507.00,5459.46              507.00,5459.46 489.00,5457.83 489.00,5457.83              489.00,5457.83 476.00,5455.43 476.00,5455.43              476.00,5455.43 464.00,5453.92 464.00,5453.92              464.00,5453.92 439.00,5447.46 439.00,5447.46              439.00,5447.46 419.00,5445.70 419.00,5445.70              419.00,5445.70 409.00,5443.46 409.00,5443.46              409.00,5443.46 394.00,5441.28 394.00,5441.28              394.00,5441.28 375.00,5439.83 375.00,5439.83              375.00,5439.83 355.00,5437.83 355.00,5437.83              347.19,5436.96 349.32,5436.02 339.00,5436.00              339.00,5436.00 274.00,5428.00 274.00,5428.00              274.00,5428.00 247.00,5427.00 247.00,5427.00              247.00,5427.00 234.00,5427.96 234.00,5427.96              234.00,5427.96 219.00,5425.17 219.00,5425.17              219.00,5425.17 210.00,5425.17 210.00,5425.17              210.00,5425.17 188.00,5425.17 188.00,5425.17              188.00,5425.17 169.00,5424.00 169.00,5424.00              169.00,5424.00 139.00,5425.68 139.00,5425.68              139.00,5425.68 120.00,5425.00 120.00,5425.00              120.00,5425.00 100.00,5423.83 100.00,5423.83              100.00,5423.83 90.00,5422.09 90.00,5422.09              84.42,5421.68 77.07,5422.58 72.13,5419.15              67.84,5416.17 65.60,5408.03 65.74,5403.00              65.74,5403.00 65.74,5395.00 65.74,5395.00              65.57,5389.49 64.01,5387.71 62.62,5383.00              62.62,5383.00 60.44,5372.00 60.44,5372.00              60.44,5372.00 59.70,5364.00 59.70,5364.00              59.70,5364.00 57.94,5356.00 57.94,5356.00              57.94,5356.00 57.94,5348.00 57.94,5348.00              57.94,5348.00 54.39,5330.00 54.39,5330.00              54.39,5330.00 54.99,5318.00 54.99,5318.00              54.99,5318.00 53.28,5304.00 53.28,5304.00              53.28,5304.00 52.37,5291.00 52.37,5291.00              52.37,5291.00 53.00,5284.00 53.00,5284.00              53.00,5284.00 53.00,5271.00 53.00,5271.00              53.00,5271.00 53.99,5261.00 53.99,5261.00              53.99,5261.00 51.80,5234.00 51.80,5234.00              51.80,5234.00 51.80,5212.00 51.80,5212.00              51.80,5212.00 51.80,5195.00 51.80,5195.00              51.80,5195.00 51.80,5185.00 51.80,5185.00              51.80,5185.00 51.21,5176.00 51.21,5176.00              52.15,5157.86 54.90,5156.87 53.51,5135.00              53.51,5135.00 54.89,5120.00 54.89,5120.00              54.89,5120.00 54.89,5102.00 54.89,5102.00              54.89,5102.00 54.89,5091.00 54.89,5091.00              54.89,5091.00 56.00,5073.00 56.00,5073.00              56.00,5073.00 55.00,5060.00 55.00,5060.00              55.00,5060.00 57.00,5032.00 57.00,5032.00              57.00,5032.00 57.00,5009.00 57.00,5009.00              57.00,5009.00 55.00,4983.00 55.00,4983.00              54.97,4980.37 54.58,4973.55 56.02,4971.56              57.10,4970.07 62.87,4967.84 65.00,4966.53              65.00,4966.53 81.96,4954.67 81.96,4954.67              89.74,4947.93 95.22,4931.18 94.99,4921.00              94.71,4909.10 84.57,4892.06 76.00,4884.09              71.14,4879.58 64.26,4876.77 60.93,4871.00              55.97,4862.38 58.99,4851.28 59.10,4842.00              59.10,4842.00 59.10,4828.00 59.10,4828.00              59.10,4828.00 61.91,4817.00 61.91,4817.00              61.91,4817.00 61.91,4796.00 61.91,4796.00              61.91,4796.00 65.00,4766.00 65.00,4766.00              65.00,4766.00 64.04,4756.00 64.04,4756.00              64.04,4756.00 64.04,4744.00 64.04,4744.00              64.04,4744.00 66.00,4722.00 66.00,4722.00              66.00,4722.00 69.00,4693.00 69.00,4693.00              69.00,4693.00 68.00,4673.00 68.00,4673.00              68.00,4673.00 70.96,4644.00 70.96,4644.00              71.17,4637.19 69.14,4634.76 69.37,4630.00              69.37,4630.00 70.72,4621.00 70.72,4621.00              70.72,4621.00 73.00,4593.00 73.00,4593.00              73.00,4593.00 73.00,4537.00 73.00,4537.00              73.01,4527.56 75.38,4518.30 76.70,4509.00              76.70,4509.00 77.44,4498.00 77.44,4498.00              78.76,4490.54 82.19,4491.25 86.52,4484.00              90.30,4477.67 90.08,4472.06 90.00,4465.00              89.92,4458.56 86.49,4447.75 83.62,4442.00              83.62,4442.00 79.03,4434.00 79.03,4434.00              78.45,4431.99 79.00,4425.64 79.03,4423.00              79.03,4423.00 79.03,4413.00 79.03,4413.00              79.03,4413.00 77.00,4398.00 77.00,4398.00              77.00,4398.00 77.00,4389.00 77.00,4389.00              77.00,4389.00 76.30,4383.00 76.30,4383.00              76.69,4377.53 81.44,4370.77 80.91,4362.00              80.60,4356.92 78.65,4353.60 79.11,4348.00              79.11,4348.00 82.63,4329.00 82.63,4329.00              82.63,4329.00 86.07,4320.00 86.07,4320.00              86.07,4320.00 88.21,4298.00 88.21,4298.00              88.87,4293.61 91.16,4291.15 91.83,4285.00              91.83,4285.00 88.27,4237.00 88.27,4237.00              88.26,4233.42 90.11,4230.04 90.70,4226.00              90.70,4226.00 91.29,4214.00 91.29,4214.00              93.81,4194.61 101.80,4198.07 102.00,4181.00              102.07,4174.82 100.01,4163.89 102.93,4159.09              104.42,4156.66 108.71,4153.29 110.96,4150.99              117.34,4144.44 122.44,4136.46 121.91,4127.00              121.91,4127.00 120.17,4111.00 120.17,4111.00              119.43,4103.24 120.37,4098.93 118.32,4090.00              116.13,4080.46 111.80,4074.12 110.63,4070.00              110.63,4070.00 108.51,4048.00 108.51,4048.00              108.16,4042.35 110.21,4036.46 111.33,4031.00              111.33,4031.00 112.37,4023.00 112.37,4023.00              112.37,4023.00 115.11,4013.00 115.11,4013.00              115.11,4013.00 116.37,4005.00 116.37,4005.00              116.37,4005.00 118.70,3996.00 118.70,3996.00              120.16,3986.09 115.96,3982.66 116.69,3976.00              116.87,3970.66 117.28,3965.37 116.69,3960.00              116.69,3960.00 116.00,3950.00 116.00,3950.00              116.00,3950.00 115.18,3927.00 115.18,3927.00              115.46,3923.04 116.14,3921.63 115.96,3917.00              115.96,3917.00 114.38,3904.00 114.38,3904.00              114.62,3899.43 117.78,3897.05 117.99,3888.00              118.21,3878.17 116.76,3878.43 114.49,3870.00              114.49,3870.00 112.05,3861.00 112.05,3861.00              112.05,3861.00 107.88,3852.00 107.88,3852.00              107.88,3852.00 101.82,3831.00 101.82,3831.00              100.45,3824.67 99.99,3808.91 100.00,3802.00              100.00,3802.00 101.00,3785.00 101.00,3785.00              101.00,3785.00 101.00,3770.00 101.00,3770.00              101.00,3770.00 100.09,3754.00 100.09,3754.00              100.09,3754.00 100.09,3741.00 100.09,3741.00              100.09,3741.00 101.96,3730.00 101.96,3730.00              101.96,3730.00 101.26,3719.00 101.26,3719.00              101.44,3714.38 103.20,3713.43 102.77,3704.00              102.77,3704.00 102.77,3695.00 102.77,3695.00              102.77,3695.00 105.91,3672.00 105.91,3672.00              105.91,3672.00 104.28,3663.00 104.28,3663.00              104.28,3663.00 98.55,3632.00 98.55,3632.00              98.55,3632.00 95.30,3617.00 95.30,3617.00              94.17,3609.06 96.26,3604.79 95.91,3599.00              95.91,3599.00 93.21,3584.00 93.21,3584.00              93.21,3584.00 94.00,3571.00 94.00,3571.00              94.00,3571.00 94.00,3539.00 94.00,3539.00              94.00,3539.00 93.05,3524.00 93.05,3524.00              93.05,3524.00 93.05,3492.00 93.05,3492.00              94.16,3476.69 96.61,3477.21 95.51,3460.00              95.51,3460.00 96.96,3441.00 96.96,3441.00              96.96,3441.00 95.30,3431.00 95.30,3431.00              95.30,3431.00 94.00,3412.00 94.00,3412.00              94.00,3412.00 94.00,3376.00 94.00,3376.00              94.00,3376.00 96.00,3351.00 96.00,3351.00              96.00,3351.00 96.00,3311.00 96.00,3311.00              96.00,3311.00 94.08,3290.00 94.08,3290.00              94.08,3290.00 94.08,3277.00 94.08,3277.00              94.08,3277.00 93.18,3263.00 93.18,3263.00              93.18,3263.00 94.00,3253.00 94.00,3253.00              94.00,3253.00 94.00,3233.00 94.00,3233.00              94.00,3233.00 95.00,3218.00 95.00,3218.00              95.00,3218.00 95.00,3202.00 95.00,3202.00              95.00,3202.00 95.96,3190.00 95.96,3190.00              95.96,3190.00 95.96,3175.00 95.96,3175.00              95.96,3175.00 97.00,3158.00 97.00,3158.00              97.00,3158.00 97.00,3115.00 97.00,3115.00              97.00,3115.00 98.00,3096.00 98.00,3096.00              98.00,3096.00 99.00,3080.00 99.00,3080.00              99.00,3080.00 98.02,3066.00 98.02,3066.00              98.02,3066.00 98.96,3053.00 98.96,3053.00              98.96,3053.00 98.32,3044.00 98.32,3044.00              98.32,3044.00 99.00,3016.00 99.00,3016.00              99.00,3016.00 98.18,3004.00 98.18,3004.00              98.18,3004.00 100.00,2984.00 100.00,2984.00              100.00,2984.00 100.00,2943.00 100.00,2943.00              100.00,2943.00 101.88,2919.00 101.88,2919.00              101.88,2919.00 101.88,2898.00 101.88,2898.00              101.88,2898.00 101.88,2886.00 101.88,2886.00              101.88,2886.00 101.88,2874.00 101.88,2874.00              102.08,2867.21 102.92,2867.51 103.70,2862.00              103.70,2862.00 105.96,2840.00 105.96,2840.00              105.96,2840.00 105.10,2828.00 105.10,2828.00              105.10,2828.00 106.96,2805.00 106.96,2805.00              106.73,2799.31 104.75,2796.02 105.09,2790.00              105.09,2790.00 105.98,2782.00 105.98,2782.00              105.98,2782.00 105.98,2765.00 105.98,2765.00              105.98,2765.00 107.00,2750.00 107.00,2750.00              107.00,2750.00 107.00,2729.00 107.00,2729.00              107.00,2729.00 106.34,2720.00 106.34,2720.00              106.34,2720.00 106.96,2709.00 106.96,2709.00              106.96,2709.00 106.18,2699.00 106.18,2699.00              106.18,2699.00 108.96,2679.00 108.96,2679.00              108.96,2679.00 108.43,2669.00 108.43,2669.00              108.43,2669.00 108.43,2652.00 108.43,2652.00              109.04,2646.81 110.98,2647.36 111.00,2636.00              111.00,2636.00 110.00,2616.00 110.00,2616.00              110.00,2616.00 111.00,2593.00 111.00,2593.00              111.00,2593.00 111.00,2578.00 111.00,2578.00              111.00,2578.00 112.91,2551.00 112.91,2551.00              112.91,2551.00 112.13,2543.00 112.13,2543.00              112.13,2543.00 112.96,2533.00 112.96,2533.00              112.96,2533.00 112.39,2525.00 112.39,2525.00              112.39,2525.00 113.96,2515.00 113.96,2515.00              113.96,2515.00 112.18,2491.00 112.18,2491.00              112.20,2486.20 114.27,2483.92 113.96,2476.00              113.96,2476.00 113.09,2468.00 113.09,2468.00              112.85,2463.71 113.65,2461.87 113.96,2458.00              113.96,2458.00 113.96,2449.00 113.96,2449.00              113.96,2449.00 115.91,2426.00 115.91,2426.00              115.91,2426.00 115.30,2416.00 115.30,2416.00              115.30,2416.00 117.70,2406.00 117.70,2406.00              117.70,2406.00 119.00,2386.00 119.00,2386.00              119.00,2386.00 118.00,2364.00 118.00,2364.00              118.00,2364.00 117.01,2349.00 117.01,2349.00              117.01,2349.00 117.91,2337.00 117.91,2337.00              117.91,2337.00 117.00,2315.00 117.00,2315.00              117.00,2315.00 118.86,2299.00 118.86,2299.00              118.86,2299.00 118.86,2283.00 118.86,2283.00              118.86,2283.00 118.86,2265.00 118.86,2265.00              118.86,2265.00 119.96,2251.00 119.96,2251.00              119.96,2251.00 119.21,2242.00 119.21,2242.00              119.21,2242.00 120.99,2220.00 120.99,2220.00              120.99,2220.00 120.00,2201.00 120.00,2201.00              120.00,2201.00 121.00,2184.00 121.00,2184.00              121.00,2184.00 121.00,2172.00 121.00,2172.00              121.00,2172.00 121.84,2151.00 121.84,2151.00              121.84,2151.00 121.84,2143.00 121.84,2143.00              121.84,2143.00 121.84,2134.00 121.84,2134.00              121.84,2134.00 121.01,2121.00 121.01,2121.00              121.01,2121.00 122.00,2108.00 122.00,2108.00              122.00,2108.00 122.00,2078.00 122.00,2078.00              122.00,2078.00 122.97,2064.00 122.97,2064.00              122.97,2064.00 121.37,2048.00 121.37,2048.00              121.37,2048.00 121.91,2036.00 121.91,2036.00              121.91,2036.00 121.91,2011.00 121.91,2011.00              121.91,2011.00 121.91,2002.00 121.91,2002.00              121.91,2002.00 124.00,1976.00 124.00,1976.00              124.00,1976.00 125.92,1953.00 125.92,1953.00              125.92,1953.00 125.92,1940.00 125.92,1940.00              125.92,1940.00 126.96,1929.00 126.96,1929.00              126.96,1929.00 126.05,1912.00 126.05,1912.00              126.05,1912.00 126.05,1886.00 126.05,1886.00              126.05,1886.00 127.83,1864.00 127.83,1864.00              127.83,1864.00 127.83,1852.00 127.83,1852.00              127.83,1852.00 127.83,1821.00 127.83,1821.00              127.83,1821.00 128.98,1807.00 128.98,1807.00              128.98,1807.00 128.04,1795.00 128.04,1795.00              128.04,1795.00 129.96,1776.00 129.96,1776.00              129.96,1776.00 129.96,1760.00 129.96,1760.00              129.96,1760.00 131.96,1741.00 131.96,1741.00              132.21,1735.10 131.43,1733.95 131.05,1729.00              131.05,1729.00 131.05,1709.00 131.05,1709.00              131.05,1709.00 131.96,1699.00 131.96,1699.00              131.96,1699.00 131.96,1686.00 131.96,1686.00              131.96,1686.00 132.91,1673.00 132.91,1673.00              132.73,1669.82 132.06,1668.45 132.32,1665.00              132.32,1665.00 132.99,1655.00 132.99,1655.00              132.99,1655.00 132.10,1644.00 132.10,1644.00              132.10,1644.00 135.92,1619.00 135.92,1619.00              135.92,1619.00 135.92,1599.00 135.92,1599.00              135.92,1599.00 137.00,1586.00 137.00,1586.00              137.00,1586.00 137.00,1569.00 137.00,1569.00              137.00,1569.00 136.00,1556.00 136.00,1556.00              136.00,1556.00 138.00,1519.00 138.00,1519.00              138.00,1519.00 139.00,1481.00 139.00,1481.00              139.00,1481.00 139.00,1457.00 139.00,1457.00              139.00,1457.00 138.01,1440.00 138.01,1440.00              138.01,1440.00 139.00,1426.00 139.00,1426.00              139.00,1426.00 139.00,1403.00 139.00,1403.00              139.02,1392.44 140.41,1393.79 140.95,1387.00              140.95,1387.00 140.95,1365.00 140.95,1365.00              140.95,1365.00 140.32,1354.00 140.32,1354.00              140.32,1354.00 141.00,1344.00 141.00,1344.00              141.00,1344.00 141.00,1320.00 141.00,1320.00              141.00,1320.00 142.00,1303.00 142.00,1303.00              142.00,1303.00 142.00,1260.00 142.00,1260.00              142.00,1260.00 142.92,1245.00 142.92,1245.00              142.92,1245.00 142.92,1223.00 142.92,1223.00              142.92,1223.00 142.92,1212.00 142.92,1212.00              142.92,1212.00 143.97,1201.00 143.97,1201.00              143.97,1201.00 143.00,1189.00 143.00,1189.00              143.00,1189.00 145.00,1155.00 145.00,1155.00              145.00,1155.00 145.00,1141.00 145.00,1141.00              145.00,1141.00 144.26,1131.00 144.26,1131.00              144.26,1131.00 145.79,1122.00 145.79,1122.00              145.79,1122.00 145.79,1109.00 145.79,1109.00              146.06,1104.01 147.19,1101.96 146.96,1096.00              146.96,1096.00 146.00,1084.00 146.00,1084.00              146.00,1084.00 146.00,1054.00 146.00,1054.00              146.00,1054.00 146.79,1036.00 146.79,1036.00              146.79,1036.00 146.79,1027.00 146.79,1027.00              146.79,1027.00 147.91,1017.00 147.91,1017.00              147.91,1017.00 147.91,1004.00 147.91,1004.00              147.91,1004.00 147.00,989.00 147.00,989.00              147.00,989.00 148.00,972.00 148.00,972.00              148.00,972.00 148.00,955.00 148.00,955.00              148.00,955.00 151.91,925.00 151.91,925.00              151.91,925.00 150.00,898.00 150.00,898.00              150.00,898.00 150.73,887.00 150.73,887.00              150.73,887.00 150.73,877.00 150.73,877.00              150.73,877.00 151.75,855.00 151.75,855.00              151.75,855.00 151.75,848.00 151.75,848.00              151.75,848.00 152.96,835.00 152.96,835.00              152.96,835.00 152.96,814.00 152.96,814.00              152.96,814.00 155.00,793.00 155.00,793.00              155.00,793.00 155.00,764.00 155.00,764.00              155.00,764.00 154.04,745.00 154.04,745.00              154.04,745.00 155.91,729.00 155.91,729.00              155.91,729.00 155.91,714.00 155.91,714.00              155.88,703.69 149.35,682.78 142.67,675.04              142.67,675.04 125.18,659.70 125.18,659.70              122.21,656.79 121.14,654.28 118.91,651.00              111.91,640.72 111.02,642.77 111.00,629.00              111.00,629.00 111.00,622.00 111.00,622.00              111.20,604.82 118.42,596.77 117.86,585.00              117.82,582.94 117.41,581.08 117.86,579.00              117.86,579.00 121.25,570.00 121.25,570.00              121.25,570.00 123.62,560.00 123.62,560.00              123.62,560.00 126.57,551.00 126.57,551.00              126.57,551.00 128.46,540.00 128.46,540.00              128.46,540.00 132.91,523.00 132.91,523.00              132.91,523.00 138.63,507.00 138.63,507.00              138.63,507.00 142.03,491.00 142.03,491.00              142.03,491.00 144.54,482.00 144.54,482.00              144.54,482.00 147.53,464.00 147.53,464.00              147.53,464.00 150.09,456.00 150.09,456.00              152.60,447.23 157.40,427.67 156.91,419.00              156.91,419.00 156.00,407.00 156.00,407.00              156.00,407.00 156.00,398.00 156.00,398.00              156.00,398.00 156.91,383.00 156.91,383.00              156.91,383.00 156.91,376.00 156.91,376.00              156.91,376.00 156.91,367.00 156.91,367.00              156.91,367.00 159.00,339.00 159.00,339.00              159.00,339.00 159.00,324.00 159.00,324.00              159.00,324.00 160.00,307.00 160.00,307.00              160.00,307.00 166.00,265.00 166.00,265.00              166.00,265.00 166.00,234.00 166.00,234.00              166.00,234.00 165.03,220.00 165.03,220.00              165.03,220.00 166.00,208.00 166.00,208.00              166.00,208.00 167.30,188.00 167.30,188.00              167.30,188.00 169.06,180.00 169.06,180.00              169.06,180.00 169.06,170.00 169.06,170.00              170.43,161.19 171.98,161.75 172.08,151.00              172.08,151.00 172.08,140.00 172.08,140.00              172.08,140.00 175.00,115.00 175.00,115.00              175.00,115.00 175.00,98.00 175.00,98.00              175.00,98.00 177.00,73.00 177.00,73.00              177.00,70.71 176.62,65.49 177.99,63.72              180.37,60.67 194.02,60.01 198.00,60.00              198.00,60.00 257.00,60.00 257.00,60.00              257.00,60.00 276.00,61.21 276.00,61.21              285.02,62.47 279.63,64.20 297.00,64.00              297.00,64.00 316.00,61.96 316.00,61.96              316.00,61.96 337.00,61.96 337.00,61.96              337.00,61.96 344.00,60.77 344.00,60.77              349.56,60.17 351.46,63.35 361.00,62.96              367.74,62.69 367.59,61.02 378.00,61.00              378.00,61.00 399.00,62.99 399.00,62.99              399.00,62.99 416.00,62.00 416.00,62.00              416.00,62.00 452.00,62.00 452.00,62.00              452.00,62.00 469.00,61.01 469.00,61.01              469.00,61.01 481.00,61.91 481.00,61.91              481.00,61.91 505.00,60.00 505.00,60.00              505.00,60.00 511.00,60.00 511.00,60.00              511.00,60.00 525.00,59.02 525.00,59.02              525.00,59.02 538.00,59.96 538.00,59.96              538.00,59.96 545.00,59.18 545.00,59.18              545.00,59.18 560.00,60.00 560.00,60.00              560.00,60.00 576.00,59.00 576.00,59.00              576.00,59.00 692.00,59.00 692.00,59.00              692.00,59.00 712.00,58.00 712.00,58.00              712.00,58.00 727.00,58.99 727.00,58.99              727.00,58.99 741.00,58.00 741.00,58.00              741.00,58.00 804.00,58.00 804.00,58.00              804.00,58.00 814.00,58.95 814.00,58.95              814.00,58.95 833.00,58.95 833.00,58.95              833.00,58.95 847.00,58.00 847.00,58.00              847.00,58.00 879.00,58.00 879.00,58.00              879.00,58.00 894.00,59.00 894.00,59.00              894.00,59.00 938.00,59.00 938.00,59.00              938.00,59.00 960.00,58.00 960.00,58.00              960.00,58.00 976.00,58.96 976.00,58.96              976.00,58.96 987.00,58.00 987.00,58.00              987.00,58.00 1032.00,58.00 1032.00,58.00              1032.00,58.00 1056.00,59.00 1056.00,59.00              1056.00,59.00 1071.00,58.00 1071.00,58.00              1071.00,58.00 1153.00,58.00 1153.00,58.00              1153.00,58.00 1164.00,57.08 1164.00,57.08              1164.00,57.08 1181.00,58.00 1181.00,58.00              1181.00,58.00 1191.00,57.05 1191.00,57.05              1191.00,57.05 1207.00,57.05 1207.00,57.05              1207.00,57.05 1220.00,57.99 1220.00,57.99              1220.00,57.99 1234.00,57.00 1234.00,57.00              1234.00,57.00 1250.00,57.84 1250.00,57.84              1250.00,57.84 1260.00,57.84 1260.00,57.84              1260.00,57.84 1269.00,57.84 1269.00,57.84              1269.00,57.84 1282.00,56.89 1282.00,56.89              1282.00,56.89 1417.00,56.89 1417.00,56.89              1417.00,56.89 1443.00,56.89 1443.00,56.89              1443.00,56.89 1453.00,56.89 1453.00,56.89              1453.00,56.89 1467.00,56.89 1467.00,56.89              1467.00,56.89 1478.00,56.89 1478.00,56.89              1478.00,56.89 1487.00,56.89 1487.00,56.89              1487.00,56.89 1570.00,56.89 1570.00,56.89              1570.00,56.89 1672.00,56.89 1672.00,56.89              1672.00,56.89 1682.00,56.04 1682.00,56.04              1682.00,56.04 1697.00,56.04 1697.00,56.04              1697.00,56.04 1712.00,56.91 1712.00,56.91              1712.00,56.91 1724.00,56.00 1724.00,56.00              1724.00,56.00 1776.00,56.00 1776.00,56.00              1776.00,56.00 1791.00,55.00 1791.00,55.00              1791.00,55.00 1895.00,55.00 1895.00,55.00              1895.00,55.00 1910.00,54.00 1910.00,54.00              1910.00,54.00 1956.00,54.00 1956.00,54.00              1956.00,54.00 1973.00,55.00 1973.00,55.00              1973.00,55.00 1987.00,55.00 1987.00,55.00              1987.00,55.00 2002.00,54.00 2002.00,54.00              2002.00,54.00 2028.00,54.00 2028.00,54.00              2028.00,54.00 2045.00,54.96 2045.00,54.96              2045.00,54.96 2059.00,54.96 2059.00,54.96              2059.00,54.96 2071.00,54.04 2071.00,54.04              2071.00,54.04 2089.00,54.04 2089.00,54.04              2089.00,54.04 2099.00,54.99 2099.00,54.99              2099.00,54.99 2111.00,54.01 2111.00,54.01              2111.00,54.01 2128.00,55.00 2128.00,55.00              2128.00,55.00 2147.00,54.00 2147.00,54.00              2147.00,54.00 2167.00,54.96 2167.00,54.96              2167.00,54.96 2179.00,54.00 2179.00,54.00              2179.00,54.00 2206.00,54.00 2206.00,54.00              2206.00,54.00 2218.00,54.96 2218.00,54.96              2218.00,54.96 2230.00,54.96 2230.00,54.96              2230.00,54.96 2250.00,56.96 2250.00,56.96              2250.00,56.96 2265.00,56.96 2265.00,56.96              2265.00,56.96 2275.00,56.00 2275.00,56.00              2275.00,56.00 2296.00,55.48 2296.00,55.48              2300.45,56.11 2302.31,58.99 2312.00,58.99              2321.34,58.99 2322.82,56.11 2332.00,56.00              2332.00,56.00 2338.00,56.00 2338.00,56.00              2338.00,56.00 2361.00,57.96 2361.00,57.96              2361.00,57.96 2373.00,56.08 2373.00,56.08              2373.00,56.08 2391.00,56.08 2391.00,56.08              2391.00,56.08 2406.00,55.00 2406.00,55.00              2406.00,55.00 2486.00,55.00 2486.00,55.00              2486.00,55.00 2501.00,53.87 2501.00,53.87              2501.00,53.87 2587.00,53.87 2587.00,53.87              2587.00,53.87 2613.00,53.87 2613.00,53.87              2613.00,53.87 2623.00,53.87 2623.00,53.87              2623.00,53.87 2634.00,53.87 2634.00,53.87              2634.00,53.87 2665.00,53.87 2665.00,53.87              2665.00,53.87 2680.00,53.00 2680.00,53.00              2680.00,53.00 2747.00,53.00 2747.00,53.00              2747.00,53.00 2836.00,53.00 2836.00,53.00              2836.00,53.00 2854.00,53.00 2854.00,53.00              2854.00,53.00 2868.00,53.91 2868.00,53.91              2868.00,53.91 2880.00,53.00 2880.00,53.00              2880.00,53.00 2947.00,53.00 2947.00,53.00              2947.00,53.00 2964.00,53.94 2964.00,53.94              2964.00,53.94 2991.00,53.94 2991.00,53.94              2991.00,53.94 2999.00,53.94 2999.00,53.94              2999.00,53.94 3021.00,53.94 3021.00,53.94              3021.00,53.94 3037.00,53.00 3037.00,53.00              3037.00,53.00 3093.00,53.00 3093.00,53.00              3093.00,53.00 3108.00,54.00 3108.00,54.00              3108.00,54.00 3129.00,54.00 3129.00,54.00              3129.00,54.00 3143.00,53.09 3143.00,53.09              3143.00,53.09 3156.00,54.00 3156.00,54.00              3156.00,54.00 3171.00,53.00 3171.00,53.00              3171.00,53.00 3223.00,53.00 3223.00,53.00              3223.00,53.00 3235.00,52.32 3235.00,52.32              3235.00,52.32 3245.00,53.00 3245.00,53.00              3245.00,53.00 3455.00,53.00 3455.00,53.00              3455.00,53.00 3470.00,54.00 3470.00,54.00              3470.00,54.00 3482.00,54.00 3482.00,54.00              3482.00,54.00 3495.00,55.00 3495.00,55.00              3495.00,55.00 3510.00,55.00 3510.00,55.00              3510.00,55.00 3526.00,56.00 3526.00,56.00              3526.00,56.00 3557.00,56.00 3557.00,56.00              3557.00,56.00 3574.00,55.00 3574.00,55.00              3574.00,55.00 3615.00,55.00 3615.00,55.00              3615.00,55.00 3630.00,54.00 3630.00,54.00              3630.00,54.00 3688.00,54.00 3688.00,54.00              3688.00,54.00 3703.00,53.00 3703.00,53.00              3703.00,53.00 3721.00,53.00 3721.00,53.00              3721.00,53.00 3736.00,54.00 3736.00,54.00              3736.00,54.00 3889.00,54.00 3889.00,54.00              3889.00,54.00 3906.00,53.00 3906.00,53.00              3906.00,53.00 3997.00,53.00 3997.00,53.00              3997.00,53.00 4011.00,52.00 4011.00,52.00              4011.00,52.00 4039.00,52.00 4039.00,52.00              4041.65,52.00 4044.43,51.89 4047.00,52.64              4058.14,55.85 4059.15,64.55 4065.33,72.00              4071.86,79.88 4078.69,83.99 4089.00,83.99              4098.56,83.99 4107.55,79.86 4113.21,72.00              4117.34,66.26 4116.30,63.29 4120.22,60.10              4128.08,53.73 4145.03,52.02 4155.00,52.00              4155.00,52.00 4184.00,52.00 4184.00,52.00              4184.00,52.00 4198.00,53.00 4198.00,53.00              4198.00,53.00 4202.00,53.00 4202.00,53.00              4202.00,53.00 4217.00,52.00 4217.00,52.00              4217.00,52.00 4455.00,52.00 4455.00,52.00              4455.00,52.00 4587.00,52.00 4587.00,52.00              4587.00,52.00 4602.00,53.00 4602.00,53.00              4602.00,53.00 4609.00,53.00 4609.00,53.00              4609.00,53.00 4626.00,52.00 4626.00,52.00              4626.00,52.00 4724.00,52.00 4724.00,52.00              4724.00,52.00 4736.00,51.08 4736.00,51.08              4736.00,51.08 4749.00,52.00 4749.00,52.00              4749.00,52.00 4865.00,52.00 4865.00,52.00              4865.00,52.00 4879.00,52.88 4879.00,52.88              4879.00,52.88 4889.00,52.88 4889.00,52.88              4889.00,52.88 4901.00,52.88 4901.00,52.88              4901.00,52.88 5103.00,52.88 5103.00,52.88              5103.00,52.88 5115.00,52.18 5115.00,52.18              5115.00,52.18 5127.00,53.00 5127.00,53.00              5127.00,53.00 5209.00,53.00 5209.00,53.00              5209.00,53.00 5223.00,52.00 5223.00,52.00              5223.00,52.00 5256.00,52.00 5256.00,52.00              5256.00,52.00 5271.00,53.00 5271.00,53.00              5271.00,53.00 5422.00,53.00 5422.00,53.00              5422.00,53.00 5437.00,53.99 5437.00,53.99              5437.00,53.99 5452.00,53.00 5452.00,53.00              5452.00,53.00 5503.00,53.00 5503.00,53.00              5503.00,53.00 5518.00,54.00 5518.00,54.00              5518.00,54.00 5525.00,54.00 5525.00,54.00              5525.00,54.00 5537.00,54.97 5537.00,54.97              5537.00,54.97 5551.00,54.00 5551.00,54.00              5551.00,54.00 5648.00,54.00 5648.00,54.00              5648.00,54.00 5660.00,54.97 5660.00,54.97              5660.00,54.97 5672.00,54.00 5672.00,54.00              5672.00,54.00 5693.00,54.00 5693.00,54.00              5693.00,54.00 5708.00,54.99 5708.00,54.99              5708.00,54.99 5723.00,54.00 5723.00,54.00              5723.00,54.00 5767.00,54.00 5767.00,54.00              5767.00,54.00 5784.00,55.00 5784.00,55.00              5784.00,55.00 5805.00,54.18 5805.00,54.18              5805.00,54.18 5812.00,54.84 5812.00,54.84              5812.00,54.84 5821.00,54.84 5821.00,54.84              5821.00,54.84 5847.00,54.84 5847.00,54.84              5847.00,54.84 5863.00,54.04 5863.00,54.04              5863.00,54.04 5876.00,55.00 5876.00,55.00              5876.00,55.00 5892.00,55.00 5892.00,55.00              5892.00,55.00 5906.00,54.00 5906.00,54.00              5906.00,54.00 5931.00,54.00 5931.00,54.00              5931.00,54.00 5950.00,55.91 5950.00,55.91              5950.00,55.91 5965.00,54.18 5965.00,54.18              5965.00,54.18 5975.00,54.98 5975.00,54.98              5975.00,54.98 5984.00,54.18 5984.00,54.18              5984.00,54.18 5996.00,55.00 5996.00,55.00              5996.00,55.00 6199.00,55.00 6199.00,55.00              6199.00,55.00 6291.00,55.00 6291.00,55.00              6291.00,55.00 6306.00,56.00 6306.00,56.00              6306.00,56.00 6372.00,56.00 6372.00,56.00              6372.00,56.00 6474.00,56.00 6474.00,56.00              6474.00,56.00 6489.00,55.00 6489.00,55.00              6489.00,55.00 6512.00,55.00 6512.00,55.00              6512.00,55.00 6528.00,55.96 6528.00,55.96              6528.00,55.96 6539.00,55.00 6539.00,55.00              6539.00,55.00 6543.00,55.00 6543.00,55.00              6543.00,55.00 6558.00,56.00 6558.00,56.00              6558.00,56.00 6748.00,56.00 6748.00,56.00              6748.00,56.00 6835.00,56.00 6835.00,56.00              6835.00,56.00 6850.00,57.00 6850.00,57.00              6850.00,57.00 6858.00,57.00 6858.00,57.00              6858.00,57.00 6873.00,58.00 6873.00,58.00              6873.00,58.00 6888.00,57.00 6888.00,57.00              6888.00,57.00 7098.00,57.00 7098.00,57.00              7098.00,57.00 7113.00,58.00 7113.00,58.00              7113.00,58.00 7303.00,58.00 7303.00,58.00              7303.00,58.00 7315.00,58.83 7315.00,58.83              7315.00,58.83 7324.00,58.83 7324.00,58.83              7324.00,58.83 7334.00,58.83 7334.00,58.83              7334.00,58.83 7348.00,58.83 7348.00,58.83              7348.00,58.83 7371.00,58.83 7371.00,58.83              7371.00,58.83 7385.00,59.96 7385.00,59.96              7385.00,59.96 7398.00,59.00 7398.00,59.00              7398.00,59.00 7426.00,59.00 7426.00,59.00              7426.00,59.00 7443.00,60.00 7443.00,60.00              7443.00,60.00 7665.00,60.00 7665.00,60.00              7665.00,60.00 7676.00,60.95 7676.00,60.95              7676.00,60.95 7693.00,60.95 7693.00,60.95              7693.00,60.95 7707.00,60.00 7707.00,60.00              7707.00,60.00 7724.00,60.96 7724.00,60.96              7724.00,60.96 7732.00,60.04 7732.00,60.04              7732.00,60.04 7744.00,60.04 7744.00,60.04              7744.00,60.04 7759.00,61.00 7759.00,61.00              7759.00,61.00 7844.00,61.00 7844.00,61.00              7844.00,61.00 7868.00,62.99 7868.00,62.99              7868.00,62.99 7883.00,62.00 7883.00,62.00              7883.00,62.00 7917.00,62.00 7917.00,62.00              7917.00,62.00 7934.00,61.00 7934.00,61.00              7934.00,61.00 7949.00,62.00 7949.00,62.00              7949.00,62.00 7985.00,62.00 7985.00,62.00              7985.00,62.00 8005.00,63.00 8005.00,63.00              8005.00,63.00 8023.00,65.21 8023.00,65.21              8031.06,65.27 8030.58,63.46 8041.00,65.21              8041.00,65.21 8055.16,70.00 8055.16,70.00              8055.16,70.00 8055.16,81.00 8055.16,81.00              8055.16,81.00 8055.16,95.00 8055.16,95.00              8055.16,95.00 8056.00,110.00 8056.00,110.00              8056.00,110.00 8056.00,130.00 8056.00,130.00              8056.00,130.00 8056.95,143.00 8056.95,143.00              8056.95,143.00 8056.95,158.00 8056.95,158.00              8056.95,158.00 8055.70,176.00 8055.70,176.00              8055.70,176.00 8054.00,190.00 8054.00,190.00              8054.00,190.00 8054.00,204.00 8054.00,204.00              8054.00,204.00 8055.00,220.00 8055.00,220.00              8055.00,220.00 8055.00,285.00 8055.00,285.00              8055.00,285.00 8055.97,298.00 8055.97,298.00              8055.97,298.00 8055.04,308.00 8055.04,308.00              8055.04,308.00 8055.99,321.00 8055.99,321.00              8055.99,321.00 8055.05,331.00 8055.05,331.00              8055.05,331.00 8055.05,345.00 8055.05,345.00              8055.05,345.00 8056.00,360.00 8056.00,360.00              8056.00,360.00 8056.00,407.00 8056.00,407.00              8056.00,407.00 8055.03,421.00 8055.03,421.00              8055.03,421.00 8055.99,433.00 8055.99,433.00              8055.99,433.00 8054.09,448.00 8054.09,448.00              8054.09,448.00 8054.09,464.00 8054.09,464.00              8054.09,464.00 8054.95,474.00 8054.95,474.00              8054.95,474.00 8054.95,488.00 8054.95,488.00              8054.95,488.00 8054.04,502.00 8054.04,502.00              8054.04,502.00 8055.00,515.00 8055.00,515.00              8055.00,515.00 8055.00,625.00 8055.00,625.00              8055.00,625.00 8054.00,640.00 8054.00,640.00              8054.00,640.00 8054.00,682.00 8054.00,682.00              8054.00,682.00 8053.00,697.00 8053.00,697.00              8053.00,697.00 8054.00,713.00 8054.00,713.00              8054.00,713.00 8054.00,744.00 8054.00,744.00              8054.00,744.00 8053.09,763.00 8053.09,763.00              8053.09,763.00 8053.09,773.00 8053.09,773.00              8053.09,773.00 8053.09,781.00 8053.09,781.00              8053.09,781.00 8053.66,789.00 8053.66,789.00              8053.66,789.00 8053.00,800.00 8053.00,800.00              8053.00,800.00 8053.00,866.00 8053.00,866.00              8053.00,866.00 8053.54,877.00 8053.54,877.00              8053.54,877.00 8052.00,892.00 8052.00,892.00              8052.00,892.00 8052.00,1072.00 8052.00,1072.00              8052.00,1072.00 8051.11,1086.00 8051.11,1086.00              8051.11,1086.00 8051.11,1090.00 8051.11,1090.00              8051.11,1090.00 8051.11,1100.00 8051.11,1100.00              8051.11,1100.00 8051.11,1111.00 8051.11,1111.00              8051.11,1111.00 8052.00,1126.00 8052.00,1126.00              8052.00,1126.00 8052.00,1207.00 8052.00,1207.00              8052.00,1207.00 8051.00,1222.00 8051.00,1222.00              8051.00,1222.00 8051.00,1270.00 8051.00,1270.00              8051.00,1270.00 8050.00,1285.00 8050.00,1285.00              8050.00,1285.00 8050.00,1303.00 8050.00,1303.00              8050.00,1303.00 8049.04,1319.00 8049.04,1319.00              8049.04,1319.00 8051.00,1337.00 8051.00,1337.00              8051.00,1337.00 8051.00,1371.00 8051.00,1371.00              8051.00,1371.00 8050.09,1385.00 8050.09,1385.00              8050.09,1385.00 8051.00,1397.00 8051.00,1397.00              8051.00,1397.00 8051.00,1444.00 8051.00,1444.00              8051.00,1444.00 8050.09,1456.00 8050.09,1456.00              8050.09,1456.00 8051.00,1471.00 8051.00,1471.00              8051.00,1471.00 8051.00,1527.00 8051.00,1527.00              8051.00,1527.00 8050.00,1548.00 8050.00,1548.00              8050.00,1548.00 8050.96,1563.00 8050.96,1563.00              8050.96,1563.00 8050.96,1577.00 8050.96,1577.00              8050.96,1577.00 8050.10,1589.00 8050.10,1589.00              8050.10,1589.00 8050.10,1639.00 8050.10,1639.00              8050.10,1639.00 8050.10,1650.00 8050.10,1650.00              8050.10,1650.00 8050.10,1659.00 8050.10,1659.00              8050.10,1659.00 8050.10,1748.00 8050.10,1748.00              8050.10,1748.00 8049.05,1758.00 8049.05,1758.00              8049.05,1758.00 8049.05,1772.00 8049.05,1772.00              8049.05,1772.00 8050.00,1788.00 8050.00,1788.00              8050.00,1788.00 8049.00,1802.00 8049.00,1802.00              8049.00,1802.00 8049.00,1827.00 8049.00,1827.00              8049.00,1827.00 8049.95,1837.00 8049.95,1837.00              8049.95,1837.00 8049.95,1852.00 8049.95,1852.00              8049.95,1852.00 8049.00,1867.00 8049.00,1867.00              8049.00,1867.00 8049.00,1967.00 8049.00,1967.00              8049.00,1967.00 8048.18,1978.00 8048.18,1978.00              8048.18,1978.00 8048.18,1993.00 8048.18,1993.00              8048.18,1993.00 8048.18,2004.00 8048.18,2004.00              8048.18,2004.00 8048.82,2013.00 8048.82,2013.00              8048.82,2013.00 8048.00,2025.00 8048.00,2025.00              8048.00,2025.00 8048.00,2062.00 8048.00,2062.00              8048.00,2062.00 8047.00,2080.00 8047.00,2080.00              8047.00,2080.00 8048.06,2098.00 8048.06,2098.00              8048.06,2098.00 8048.06,2107.00 8048.06,2107.00              8048.06,2107.00 8048.06,2118.00 8048.06,2118.00              8048.06,2118.00 8047.04,2129.00 8047.04,2129.00              8047.04,2129.00 8047.99,2142.00 8047.99,2142.00              8047.99,2142.00 8047.00,2160.00 8047.00,2160.00              8047.00,2160.00 8047.95,2170.00 8047.95,2170.00              8047.95,2170.00 8047.95,2184.00 8047.95,2184.00              8047.95,2184.00 8047.00,2198.00 8047.00,2198.00              8047.00,2198.00 8047.00,2224.00 8047.00,2224.00              8047.00,2224.00 8047.99,2239.00 8047.99,2239.00              8047.99,2239.00 8047.00,2253.00 8047.00,2253.00              8047.00,2253.00 8047.00,2381.00 8047.00,2381.00              8047.00,2381.00 8046.04,2392.00 8046.04,2392.00              8046.04,2392.00 8046.82,2404.00 8046.82,2404.00              8046.82,2404.00 8046.00,2424.00 8046.00,2424.00              8046.00,2424.00 8047.00,2445.00 8047.00,2445.00              8047.00,2445.00 8046.09,2458.00 8046.09,2458.00              8046.09,2458.00 8047.00,2470.00 8047.00,2470.00              8047.00,2470.00 8046.09,2488.00 8046.09,2488.00              8046.09,2488.00 8046.96,2499.00 8046.96,2499.00              8046.96,2499.00 8046.00,2512.00 8046.00,2512.00              8046.00,2512.00 8046.00,2541.00 8046.00,2541.00              8046.00,2541.00 8046.82,2553.00 8046.82,2553.00              8046.82,2553.00 8046.00,2565.00 8046.00,2565.00              8046.00,2565.00 8046.00,2657.00 8046.00,2657.00              8046.00,2657.00 8045.09,2670.00 8045.09,2670.00              8045.09,2670.00 8045.82,2679.00 8045.82,2679.00              8045.82,2679.00 8045.09,2688.00 8045.09,2688.00              8045.09,2688.00 8045.96,2698.00 8045.96,2698.00              8045.96,2698.00 8045.00,2709.00 8045.00,2709.00              8045.00,2709.00 8045.00,2727.00 8045.00,2727.00              8045.00,2727.00 8044.00,2745.00 8044.00,2745.00              8044.00,2745.00 8044.99,2760.00 8044.99,2760.00              8044.99,2760.00 8044.00,2772.00 8044.00,2772.00              8044.00,2772.00 8044.00,2794.00 8044.00,2794.00              8044.00,2794.00 8045.00,2815.00 8045.00,2815.00              8045.00,2815.00 8043.09,2830.00 8043.09,2830.00              8043.09,2830.00 8043.09,2843.00 8043.09,2843.00              8043.09,2843.00 8044.00,2858.00 8044.00,2858.00              8044.00,2858.00 8044.00,2892.00 8044.00,2892.00              8044.00,2892.00 8045.00,2909.00 8045.00,2909.00              8045.00,2909.00 8045.00,2925.00 8045.00,2925.00              8045.00,2925.00 8044.16,2943.00 8044.16,2943.00              8044.16,2943.00 8044.16,2954.00 8044.16,2954.00              8044.16,2954.00 8044.16,3023.00 8044.16,3023.00              8044.16,3023.00 8043.21,3036.00 8043.21,3036.00              8043.21,3036.00 8043.21,3046.00 8043.21,3046.00              8043.21,3046.00 8043.21,3053.00 8043.21,3053.00              8043.21,3053.00 8043.21,3061.00 8043.21,3061.00              8043.21,3061.00 8043.21,3067.00 8043.21,3067.00              8043.21,3067.00 8044.00,3084.00 8044.00,3084.00              8044.00,3084.00 8044.00,3123.00 8044.00,3123.00              8044.00,3123.00 8044.00,3151.00 8044.00,3151.00              8044.00,3151.00 8043.01,3166.00 8043.01,3166.00              8043.01,3166.00 8043.96,3176.00 8043.96,3176.00              8043.96,3176.00 8043.96,3191.00 8043.96,3191.00              8043.96,3191.00 8043.00,3208.00 8043.00,3208.00              8043.00,3208.00 8043.82,3229.00 8043.82,3229.00              8043.82,3229.00 8043.00,3240.00 8043.00,3240.00              8043.00,3240.00 8043.00,3321.00 8043.00,3321.00              8043.00,3321.00 8042.00,3336.00 8042.00,3336.00              8042.00,3336.00 8042.00,3377.00 8042.00,3377.00              8042.00,3377.00 8041.09,3390.00 8041.09,3390.00              8041.09,3390.00 8041.82,3396.00 8041.82,3396.00              8041.82,3396.00 8041.09,3408.00 8041.09,3408.00              8041.09,3408.00 8042.00,3423.00 8042.00,3423.00              8042.00,3423.00 8041.09,3436.00 8041.09,3436.00              8041.09,3436.00 8042.00,3448.00 8042.00,3448.00              8042.00,3448.00 8041.00,3471.00 8041.00,3471.00              8041.00,3471.00 8041.00,3512.00 8041.00,3512.00              8041.00,3512.00 8040.02,3526.00 8040.02,3526.00              8040.02,3526.00 8041.10,3542.00 8041.10,3542.00              8041.10,3542.00 8041.10,3612.00 8041.10,3612.00              8041.10,3612.00 8041.10,3640.00 8041.10,3640.00              8041.10,3640.00 8041.10,3649.00 8041.10,3649.00              8041.10,3649.00 8041.10,3676.00 8041.10,3676.00              8041.10,3676.00 8040.09,3691.00 8040.09,3691.00              8040.09,3691.00 8041.00,3709.00 8041.00,3709.00              8041.00,3709.00 8040.00,3726.00 8040.00,3726.00              8040.00,3726.00 8040.00,3754.00 8040.00,3754.00              8040.00,3754.00 8039.03,3768.00 8039.03,3768.00              8039.03,3768.00 8039.95,3777.00 8039.95,3777.00              8039.95,3777.00 8039.95,3792.00 8039.95,3792.00              8039.95,3792.00 8039.00,3811.00 8039.00,3811.00              8039.00,3811.00 8039.82,3821.00 8039.82,3821.00              8039.82,3821.00 8039.03,3830.00 8039.03,3830.00              8039.03,3830.00 8040.00,3842.00 8040.00,3842.00              8040.00,3842.00 8040.00,3859.00 8040.00,3859.00              8040.00,3859.00 8039.00,3874.00 8039.00,3874.00              8039.00,3874.00 8039.00,3889.00 8039.00,3889.00              8039.00,3889.00 8038.09,3904.00 8038.09,3904.00              8038.09,3904.00 8039.00,3916.00 8039.00,3916.00              8039.00,3916.00 8039.00,4029.00 8039.00,4029.00              8039.00,4029.00 8038.00,4044.00 8038.00,4044.00              8038.00,4044.00 8038.00,4090.00 8038.00,4090.00              8038.00,4090.00 8036.99,4107.00 8036.99,4107.00              8036.99,4107.00 8036.99,4223.00 8036.99,4223.00              8036.99,4223.00 8036.99,4245.00 8036.99,4245.00              8036.99,4245.00 8036.00,4258.00 8036.00,4258.00              8036.00,4258.00 8036.00,4279.00 8036.00,4279.00              8036.00,4279.00 8036.99,4293.00 8036.99,4293.00              8036.99,4293.00 8036.00,4308.00 8036.00,4308.00              8036.00,4308.00 8036.00,4374.00 8036.00,4374.00              8036.00,4374.00 8035.17,4386.00 8035.17,4386.00              8035.17,4386.00 8035.17,4396.00 8035.17,4396.00              8035.17,4396.00 8034.00,4420.00 8034.00,4420.00              8034.00,4420.00 8035.00,4433.00 8035.00,4433.00              8035.00,4433.00 8035.00,4449.00 8035.00,4449.00              8035.00,4449.00 8035.99,4464.00 8035.99,4464.00              8035.99,4464.00 8035.00,4477.00 8035.00,4477.00              8035.00,4477.00 8035.00,4505.00 8035.00,4505.00              8035.00,4505.00 8034.00,4521.00 8034.00,4521.00              8034.00,4521.00 8034.00,4547.00 8034.00,4547.00              8034.00,4547.00 8035.00,4562.00 8035.00,4562.00              8035.00,4562.00 8035.00,4611.00 8035.00,4611.00              8035.00,4611.00 8033.09,4639.00 8033.09,4639.00              8033.09,4639.00 8034.16,4651.00 8034.16,4651.00              8034.16,4651.00 8034.16,4669.00 8034.16,4669.00              8034.16,4669.00 8034.16,4696.00 8034.16,4696.00              8034.16,4696.00 8033.04,4710.00 8033.04,4710.00              8033.04,4710.00 8033.82,4720.00 8033.82,4720.00              8033.82,4720.00 8033.00,4731.00 8033.00,4731.00              8033.00,4731.00 8033.66,4749.00 8033.66,4749.00              8033.66,4749.00 8033.00,4760.00 8033.00,4760.00              8033.00,4760.00 8033.00,4792.00 8033.00,4792.00              8033.00,4792.00 8033.82,4802.00 8033.82,4802.00              8033.82,4802.00 8033.00,4814.00 8033.00,4814.00              8033.00,4814.00 8033.00,4889.00 8033.00,4889.00              8033.00,4889.00 8032.12,4900.00 8032.12,4900.00              8032.12,4900.00 8032.12,4908.00 8032.12,4908.00              8032.12,4908.00 8032.12,4918.00 8032.12,4918.00              8032.12,4918.00 8032.12,4972.00 8032.12,4972.00              8032.12,4972.00 8032.82,4984.00 8032.82,4984.00              8032.82,4984.00 8032.00,4996.00 8032.00,4996.00              8032.00,4996.00 8032.00,5001.00 8032.00,5001.00              8032.00,5001.00 8032.00,5039.00 8032.00,5039.00              8032.00,5039.00 8033.00,5054.00 8033.00,5054.00              8033.00,5054.00 8032.04,5069.00 8032.04,5069.00              8032.04,5069.00 8032.82,5080.00 8032.82,5080.00              8032.82,5080.00 8032.09,5090.00 8032.09,5090.00              8032.09,5090.00 8033.00,5104.00 8033.00,5104.00              8033.00,5104.00 8032.12,5118.00 8032.12,5118.00              8032.12,5118.00 8032.12,5130.00 8032.12,5130.00              8032.12,5130.00 8032.12,5139.00 8032.12,5139.00              8032.12,5139.00 8032.12,5167.00 8032.12,5167.00              8032.12,5167.00 8031.11,5183.00 8031.11,5183.00              8031.11,5183.00 8031.11,5196.00 8031.11,5196.00              8031.11,5196.00 8031.11,5206.00 8031.11,5206.00              8031.11,5206.00 8031.11,5344.00 8031.11,5344.00              8031.11,5344.00 8030.00,5359.00 8030.00,5359.00              8030.00,5359.00 8030.00,5435.00 8030.00,5435.00              8030.00,5435.00 8029.10,5446.00 8029.10,5446.00              8029.10,5446.00 8029.10,5455.00 8029.10,5455.00              8029.10,5455.00 8029.10,5525.04 8029.10,5525.04              8029.10,5525.04 8017.00,5525.04 8017.00,5525.04              8017.00,5525.04 8011.00,5525.66 8011.00,5525.66              8011.00,5525.66 7999.00,5525.00 7999.00,5525.00              7999.00,5525.00 7989.00,5525.61 7989.00,5525.61              7989.00,5525.61 7979.00,5523.46 7979.00,5523.46              7979.00,5523.46 7960.00,5522.00 7960.00,5522.00              7960.00,5522.00 7932.00,5522.00 7932.00,5522.00              7932.00,5522.00 7910.00,5522.00 7910.00,5522.00              7910.00,5522.00 7892.00,5523.96 7892.00,5523.96              7892.00,5523.96 7883.00,5523.96 7883.00,5523.96              7883.00,5523.96 7877.00,5524.62 7877.00,5524.62              7877.00,5524.62 7865.00,5521.30 7865.00,5521.30              7865.00,5521.30 7846.00,5519.83 7846.00,5519.83              7846.00,5519.83 7810.00,5517.00 7810.00,5517.00              7793.15,5517.20 7774.36,5521.37 7773.09,5542.00              7772.43,5552.79 7779.13,5562.86 7789.00,5567.05              7793.72,5569.05 7796.41,5568.64 7801.00,5569.46              7804.77,5570.14 7805.79,5570.75 7810.00,5570.96              7814.38,5571.18 7818.69,5571.43 7823.00,5572.36              7831.61,5574.22 7839.98,5577.42 7849.00,5576.91              7849.00,5576.91 7872.00,5573.91 7872.00,5573.91              7875.14,5574.26 7879.67,5576.75 7883.00,5577.78              7886.70,5578.92 7900.03,5580.95 7904.00,5581.00              7904.00,5581.00 7932.00,5583.00 7932.00,5583.00              7932.00,5583.00 7946.00,5583.00 7946.00,5583.00              7946.00,5583.00 7965.00,5584.32 7965.00,5584.32              7965.00,5584.32 7975.00,5586.72 7975.00,5586.72              7975.00,5586.72 7999.00,5589.72 7999.00,5589.72              8002.23,5590.14 8016.57,5591.69 8018.21,5593.17              8021.43,5595.57 8018.96,5602.05 8018.21,5605.00 Z"
            style="fill:#000000;fill-opacity:1"/>
</svg>
