<?xml version="1.0" encoding="UTF-8" standalone="no"?>
<svg
        width="169.948mm"
        height="125.688mm"
        viewBox="0 0 8029 5938"
        version="1.1"
        id="svg1866"
        sodipodi:docname="sheet15b.svg"
        inkscape:version="1.1.1 (3bf5ae0d25, 2021-09-20)"
        xmlns:inkscape="http://www.inkscape.org/namespaces/inkscape"
        xmlns:sodipodi="http://sodipodi.sourceforge.net/DTD/sodipodi-0.dtd"
        xmlns="http://www.w3.org/2000/svg"
>
    <defs
            id="defs1870"/>
    <sodipodi:namedview
            id="namedview1868"
            pagecolor="#ffffff"
            bordercolor="#666666"
            borderopacity="1.0"
            inkscape:pageshadow="2"
            inkscape:pageopacity="0.0"
            inkscape:pagecheckerboard="0"
            inkscape:document-units="mm"
            showgrid="false"
            inkscape:zoom="1.647146"
            inkscape:cx="321.46513"
            inkscape:cy="237.68385"
            inkscape:window-width="1920"
            inkscape:window-height="1001"
            inkscape:window-x="-7"
            inkscape:window-y="-7"
            inkscape:window-maximized="1"
            inkscape:current-layer="svg1866"/>
    <path
            id="Selection #1"
            fill="none"
            stroke="black"
            stroke-width="1"
            d="M 3280.00,75.00            C 3280.00,75.00 3294.00,75.97 3294.00,75.97              3294.00,75.97 3305.00,75.19 3305.00,75.19              3310.23,75.62 3311.55,77.26 3319.00,76.96              3319.00,76.96 3330.00,75.17 3330.00,75.17              3330.00,75.17 3343.00,74.54 3343.00,74.54              3343.00,74.54 3362.00,71.09 3362.00,71.09              3362.00,71.09 3383.00,72.00 3383.00,72.00              3383.00,72.00 3406.00,70.83 3406.00,70.83              3406.00,70.83 3414.00,69.47 3414.00,69.47              3414.00,69.47 3424.00,70.91 3424.00,70.91              3424.00,70.91 3439.00,70.91 3439.00,70.91              3439.00,70.91 3448.00,70.34 3448.00,70.34              3448.00,70.34 3460.00,70.99 3460.00,70.99              3460.00,70.99 3472.00,70.00 3472.00,70.00              3472.00,70.00 3494.00,70.00 3494.00,70.00              3494.00,70.00 3508.00,71.00 3508.00,71.00              3508.00,71.00 3524.00,71.00 3524.00,71.00              3524.00,71.00 3536.00,71.96 3536.00,71.96              3536.00,71.96 3552.00,71.96 3552.00,71.96              3552.00,71.96 3567.00,72.91 3567.00,72.91              3567.00,72.91 3579.00,72.00 3579.00,72.00              3579.00,72.00 3618.00,72.00 3618.00,72.00              3618.00,72.00 3630.00,71.18 3630.00,71.18              3630.00,71.18 3640.00,72.00 3640.00,72.00              3640.00,72.00 3670.00,69.18 3670.00,69.18              3670.00,69.18 3679.00,70.71 3679.00,70.71              3679.00,70.71 3689.00,71.29 3689.00,71.29              3704.93,73.25 3696.00,74.23 3717.00,73.81              3717.00,73.81 3726.00,73.81 3726.00,73.81              3731.21,74.06 3732.82,75.90 3741.00,76.00              3759.07,76.21 3756.20,73.02 3770.00,72.92              3770.00,72.92 3785.00,72.92 3785.00,72.92              3785.00,72.92 3804.00,71.00 3804.00,71.00              3804.00,71.00 3820.00,71.91 3820.00,71.91              3820.00,71.91 3831.00,71.91 3831.00,71.91              3831.00,71.91 3839.00,70.86 3839.00,70.86              3839.00,70.86 3850.00,70.86 3850.00,70.86              3850.00,70.86 3863.00,70.18 3863.00,70.18              3863.00,70.18 3894.00,77.73 3894.00,77.73              3897.67,78.20 3905.01,78.04 3909.00,77.73              3909.00,77.73 3917.00,77.73 3917.00,77.73              3921.45,77.98 3922.46,79.90 3931.00,80.00              3936.54,80.06 3947.02,80.42 3952.00,79.07              3959.43,77.06 3962.98,72.84 3967.00,71.56              3969.76,70.68 3979.53,70.99 3983.00,71.00              3995.65,71.02 3992.22,73.69 4002.00,78.62              4008.81,82.06 4015.80,82.50 4019.00,83.92              4029.96,88.77 4027.34,91.98 4043.00,92.00              4043.00,92.00 4053.00,92.00 4053.00,92.00              4065.05,91.85 4067.23,88.36 4077.00,83.90              4077.00,83.90 4086.00,80.10 4086.00,80.10              4089.93,77.93 4093.77,73.84 4098.00,73.26              4100.45,72.93 4108.04,74.36 4111.00,74.72              4111.00,74.72 4128.00,76.43 4128.00,76.43              4128.00,76.43 4149.00,79.99 4149.00,79.99              4149.00,79.99 4161.00,79.04 4161.00,79.04              4161.00,79.04 4171.00,79.04 4171.00,79.04              4180.08,78.89 4179.99,77.12 4186.00,76.20              4186.00,76.20 4218.00,73.04 4218.00,73.04              4218.00,73.04 4247.00,75.83 4247.00,75.83              4255.98,74.88 4257.71,71.13 4267.00,70.96              4267.00,70.96 4277.00,70.96 4277.00,70.96              4277.00,70.96 4286.00,70.10 4286.00,70.10              4286.00,70.10 4315.00,73.00 4315.00,73.00              4315.00,73.00 4329.00,73.00 4329.00,73.00              4329.00,73.00 4342.00,73.91 4342.00,73.91              4342.00,73.91 4352.00,73.00 4352.00,73.00              4352.00,73.00 4368.00,74.00 4368.00,74.00              4388.96,74.24 4380.10,73.24 4396.00,71.29              4396.00,71.29 4407.00,70.70 4407.00,70.70              4415.93,69.43 4419.69,66.78 4430.00,67.01              4437.60,67.19 4444.09,70.24 4455.00,69.99              4462.04,69.82 4464.33,67.89 4468.00,67.84              4468.00,67.84 4484.00,69.83 4484.00,69.83              4484.00,69.83 4509.00,70.96 4509.00,70.96              4509.00,70.96 4526.00,69.17 4526.00,69.17              4526.00,69.17 4549.00,67.91 4549.00,67.91              4549.00,67.91 4556.00,67.18 4556.00,67.18              4556.00,67.18 4570.00,68.83 4570.00,68.83              4575.67,69.36 4577.18,68.37 4582.00,68.09              4582.00,68.09 4595.00,68.91 4595.00,68.91              4595.00,68.91 4631.00,62.28 4631.00,62.28              4644.57,60.02 4652.54,60.06 4666.00,60.00              4673.20,59.97 4672.79,59.25 4679.00,58.29              4679.00,58.29 4697.00,55.55 4697.00,55.55              4697.00,55.55 4709.00,52.51 4709.00,52.51              4709.00,52.51 4727.00,50.54 4727.00,50.54              4727.00,50.54 4744.00,45.17 4744.00,45.17              4744.00,45.17 4768.00,45.17 4768.00,45.17              4768.00,45.17 4781.00,46.00 4781.00,46.00              4781.00,46.00 4803.00,46.00 4803.00,46.00              4803.00,46.00 4824.00,44.09 4824.00,44.09              4824.00,44.09 4837.00,44.09 4837.00,44.09              4837.00,44.09 4855.00,46.00 4855.00,46.00              4855.00,46.00 4873.00,46.00 4873.00,46.00              4873.00,46.00 4885.00,46.96 4885.00,46.96              4885.00,46.96 4898.00,46.96 4898.00,46.96              4898.00,46.96 4930.00,52.72 4930.00,52.72              4930.00,52.72 4951.00,54.44 4951.00,54.44              4951.00,54.44 4965.00,58.53 4965.00,58.53              4971.60,59.78 4973.58,57.92 4983.00,61.38              4994.52,65.62 5004.36,76.71 5014.00,78.53              5029.78,81.52 5033.25,74.02 5046.00,74.00              5046.00,74.00 5060.00,74.00 5060.00,74.00              5060.00,74.00 5073.00,73.17 5073.00,73.17              5073.00,73.17 5087.00,74.37 5087.00,74.37              5095.72,76.04 5092.90,77.12 5104.00,77.00              5104.00,77.00 5134.00,75.00 5134.00,75.00              5134.00,75.00 5155.00,77.00 5155.00,77.00              5155.00,77.00 5188.00,78.00 5188.00,78.00              5194.08,77.99 5194.80,77.32 5200.00,76.77              5205.09,76.22 5206.55,78.98 5218.00,79.00              5218.00,79.00 5252.00,79.00 5252.00,79.00              5252.00,79.00 5270.00,77.87 5270.00,77.87              5270.00,77.87 5297.00,77.87 5297.00,77.87              5297.00,77.87 5317.00,77.00 5317.00,77.00              5317.00,77.00 5337.00,78.91 5337.00,78.91              5337.00,78.91 5347.00,77.34 5347.00,77.34              5347.00,77.34 5365.00,79.83 5365.00,79.83              5365.00,79.83 5374.00,79.83 5374.00,79.83              5374.00,79.83 5401.00,79.83 5401.00,79.83              5401.00,79.83 5416.00,80.99 5416.00,80.99              5416.00,80.99 5435.00,79.04 5435.00,79.04              5435.00,79.04 5446.00,79.04 5446.00,79.04              5446.00,79.04 5456.00,79.99 5456.00,79.99              5456.00,79.99 5469.00,79.04 5469.00,79.04              5469.00,79.04 5481.00,80.00 5481.00,80.00              5481.00,80.00 5516.00,77.59 5516.00,77.59              5516.00,77.59 5530.00,78.18 5530.00,78.18              5530.00,78.18 5541.00,80.70 5541.00,80.70              5541.00,80.70 5562.00,82.00 5562.00,82.00              5562.00,82.00 5577.00,82.00 5577.00,82.00              5577.00,82.00 5589.00,81.04 5589.00,81.04              5589.00,81.04 5602.00,81.04 5602.00,81.04              5602.00,81.04 5617.00,80.09 5617.00,80.09              5617.00,80.09 5647.00,83.17 5647.00,83.17              5652.05,83.74 5654.18,85.24 5660.00,84.91              5660.00,84.91 5673.00,83.00 5673.00,83.00              5673.00,83.00 5683.00,83.00 5683.00,83.00              5688.70,82.22 5689.72,80.76 5697.00,81.04              5697.00,81.04 5705.00,81.91 5705.00,81.91              5705.00,81.91 5736.00,83.00 5736.00,83.00              5745.93,83.02 5743.99,84.08 5751.00,84.91              5751.00,84.91 5766.00,84.91 5766.00,84.91              5766.00,84.91 5775.00,84.34 5775.00,84.34              5775.00,84.34 5786.00,85.00 5786.00,85.00              5786.00,85.00 5822.00,85.00 5822.00,85.00              5822.00,85.00 5843.00,86.96 5843.00,86.96              5843.00,86.96 5860.00,86.96 5860.00,86.96              5860.00,86.96 5883.00,89.97 5883.00,89.97              5891.96,89.97 5900.38,86.08 5909.00,84.23              5912.46,83.82 5919.25,83.96 5923.00,84.23              5923.00,84.23 5953.00,88.00 5953.00,88.00              5953.00,88.00 5962.00,87.47 5962.00,87.47              5962.00,87.47 5974.00,89.83 5974.00,89.83              5974.00,89.83 5984.00,90.51 5984.00,90.51              5984.00,90.51 6014.00,96.00 6014.00,96.00              6026.73,96.14 6023.34,94.65 6033.00,92.37              6033.00,92.37 6041.00,90.78 6041.00,90.78              6046.85,88.99 6053.75,86.24 6060.00,86.84              6069.60,87.75 6077.96,91.95 6088.00,92.04              6088.00,92.04 6101.00,92.04 6101.00,92.04              6101.00,92.04 6112.00,92.96 6112.00,92.96              6112.00,92.96 6127.00,91.73 6127.00,91.73              6127.00,91.73 6138.00,91.73 6138.00,91.73              6138.00,91.73 6153.00,91.73 6153.00,91.73              6153.00,91.73 6163.00,91.73 6163.00,91.73              6163.00,91.73 6178.00,92.96 6178.00,92.96              6178.00,92.96 6196.00,92.96 6196.00,92.96              6196.00,92.96 6212.00,93.96 6212.00,93.96              6219.85,93.64 6222.67,90.59 6227.00,90.93              6229.76,91.15 6243.79,96.80 6253.00,96.98              6264.59,97.22 6272.50,91.48 6283.00,92.04              6288.18,92.32 6296.68,95.70 6302.00,97.08              6302.00,97.08 6323.00,99.99 6323.00,99.99              6332.23,100.21 6340.65,98.02 6349.00,94.11              6349.00,94.11 6356.00,90.70 6356.00,90.70              6358.99,89.72 6361.92,90.16 6365.00,89.83              6370.67,89.22 6371.79,87.75 6379.00,88.04              6379.00,88.04 6402.00,91.92 6402.00,91.92              6412.79,93.81 6413.32,92.32 6418.00,92.88              6418.00,92.88 6424.00,94.32 6424.00,94.32              6428.26,95.26 6431.72,94.95 6436.00,95.00              6446.53,95.15 6446.01,99.94 6456.00,103.25              6465.00,106.23 6469.26,104.38 6473.00,104.66              6476.65,104.92 6478.85,106.69 6485.00,106.96              6490.97,107.22 6495.66,106.49 6501.00,103.67              6505.41,101.35 6509.07,97.91 6514.00,96.73              6514.00,96.73 6535.00,96.73 6535.00,96.73              6535.00,96.73 6543.00,96.73 6543.00,96.73              6543.00,96.73 6566.00,98.11 6566.00,98.11              6566.00,98.11 6576.00,98.11 6576.00,98.11              6579.58,99.19 6582.70,102.54 6586.00,104.52              6590.91,107.47 6597.27,109.15 6603.00,108.96              6609.06,108.76 6614.37,106.64 6618.96,102.67              6621.20,100.74 6624.19,96.47 6626.32,95.58              6630.07,94.00 6635.61,97.24 6641.00,97.83              6654.95,99.34 6658.79,94.12 6668.00,95.77              6668.00,95.77 6682.00,100.84 6682.00,100.84              6685.46,101.78 6690.27,101.79 6692.96,103.60              6696.52,105.99 6698.93,111.42 6702.18,114.96              6708.81,122.16 6715.51,124.20 6725.00,123.99              6734.78,123.76 6746.27,119.84 6752.47,111.99              6757.67,105.40 6756.45,101.52 6759.51,99.30              6765.06,95.28 6778.25,97.99 6785.00,97.90              6785.00,97.90 6804.00,97.90 6804.00,97.90              6812.48,98.80 6814.84,100.57 6820.00,101.53              6820.00,101.53 6841.00,103.16 6841.00,103.16              6850.04,103.01 6859.01,101.85 6868.00,103.16              6868.00,103.16 6881.00,106.54 6881.00,106.54              6881.00,106.54 6890.00,107.39 6890.00,107.39              6890.00,107.39 6902.00,111.54 6902.00,111.54              6906.97,112.39 6911.98,111.93 6917.00,111.54              6925.20,111.44 6932.00,113.45 6940.00,109.60              6947.77,105.86 6949.26,100.78 6953.09,100.11              6953.09,100.11 6963.00,101.83 6963.00,101.83              6963.00,101.83 6985.00,102.91 6985.00,102.91              6985.00,102.91 7005.00,102.91 7005.00,102.91              7012.09,102.07 7013.94,99.84 7023.00,100.02              7023.00,100.02 7041.00,101.91 7041.00,101.91              7041.00,101.91 7052.00,101.36 7052.00,101.36              7058.70,102.16 7057.22,104.14 7070.00,104.00              7078.21,103.90 7080.97,101.47 7090.00,102.09              7090.00,102.09 7105.00,103.30 7105.00,103.30              7105.00,103.30 7113.00,104.83 7113.00,104.83              7113.00,104.83 7124.00,105.46 7124.00,105.46              7124.00,105.46 7141.00,110.70 7141.00,110.70              7141.00,110.70 7181.00,113.00 7181.00,113.00              7196.98,112.81 7197.65,104.15 7209.00,105.11              7213.97,105.52 7216.54,108.12 7223.00,108.83              7223.00,108.83 7266.00,110.00 7266.00,110.00              7273.40,110.10 7276.12,112.32 7283.00,113.54              7283.00,113.54 7296.00,114.46 7296.00,114.46              7303.25,115.73 7318.50,119.22 7325.00,118.96              7330.06,118.76 7335.66,117.13 7340.00,114.52              7342.23,113.18 7345.94,109.97 7348.00,109.38              7350.42,108.70 7353.52,110.08 7356.00,110.62              7359.23,111.13 7365.75,111.18 7369.00,110.62              7375.69,109.71 7386.39,103.09 7390.00,102.88              7393.15,102.70 7395.79,105.15 7402.00,105.83              7410.41,106.74 7414.09,104.45 7419.00,104.79              7419.00,104.79 7451.00,109.91 7451.00,109.91              7451.00,109.91 7461.00,109.91 7461.00,109.91              7465.22,109.43 7472.14,107.79 7476.00,108.34              7476.00,108.34 7486.00,111.11 7486.00,111.11              7486.00,111.11 7500.00,113.37 7500.00,113.37              7508.82,115.10 7506.24,116.05 7517.00,115.99              7519.64,115.99 7524.87,115.45 7527.00,115.99              7530.51,116.85 7536.04,121.40 7547.00,120.96              7555.69,120.61 7559.31,116.63 7563.00,116.89              7565.54,117.07 7568.60,119.47 7571.00,120.60              7574.70,122.35 7578.91,123.16 7583.00,122.91              7592.99,122.29 7596.44,117.39 7604.00,113.89              7609.90,111.16 7617.61,110.93 7624.00,111.00              7624.00,111.00 7640.00,112.00 7640.00,112.00              7640.00,112.00 7658.00,110.00 7658.00,110.00              7658.00,110.00 7694.00,112.99 7694.00,112.99              7694.00,112.99 7705.00,112.18 7705.00,112.18              7705.00,112.18 7724.00,114.01 7724.00,114.01              7724.00,114.01 7731.00,114.01 7731.00,114.01              7736.04,114.59 7741.83,118.35 7750.00,118.91              7750.00,118.91 7768.00,117.36 7768.00,117.36              7773.07,117.99 7774.78,121.99 7786.00,121.99              7799.15,121.99 7801.99,115.98 7809.00,113.70              7812.01,112.71 7816.73,113.03 7820.00,113.00              7820.00,113.00 7838.00,111.53 7838.00,111.53              7840.80,111.01 7844.41,109.41 7847.00,109.59              7850.13,109.82 7856.42,113.86 7868.00,114.00              7879.11,114.13 7883.32,112.77 7893.00,107.12              7893.00,107.12 7903.00,100.51 7903.00,100.51              7911.02,97.07 7925.77,96.46 7934.00,99.25              7936.63,100.14 7938.59,101.40 7941.00,102.69              7943.79,104.19 7950.33,107.17 7952.01,109.61              7953.01,111.06 7953.47,115.08 7953.88,117.00              7957.25,132.58 7950.54,147.31 7951.09,157.00              7951.09,157.00 7953.00,180.00 7953.00,180.00              7953.00,180.00 7952.09,198.00 7952.09,198.00              7952.41,203.28 7953.72,203.56 7953.09,210.00              7952.41,216.89 7950.19,219.43 7950.24,227.00              7950.24,227.00 7950.24,238.00 7950.24,238.00              7950.11,241.57 7947.67,245.16 7948.09,252.00              7948.64,260.85 7953.21,264.20 7953.46,269.00              7953.65,272.83 7950.63,276.50 7951.09,284.00              7951.66,293.13 7956.04,295.68 7957.25,302.00              7958.37,306.01 7957.03,309.96 7957.25,314.00              7957.25,314.00 7957.91,326.00 7957.91,326.00              7957.62,331.17 7956.65,332.66 7957.09,339.00              7957.09,339.00 7959.88,354.00 7959.88,354.00              7960.52,360.21 7960.25,368.69 7959.88,375.00              7959.88,375.00 7963.00,401.00 7963.00,401.00              7963.00,401.00 7963.00,435.00 7963.00,435.00              7963.00,435.00 7964.96,467.00 7964.96,467.00              7964.96,467.00 7963.03,481.00 7963.03,481.00              7963.03,487.02 7964.69,490.96 7963.83,499.00              7963.83,499.00 7962.29,507.00 7962.29,507.00              7961.25,513.80 7960.92,519.14 7961.00,526.00              7961.00,526.00 7963.91,560.00 7963.91,560.00              7963.91,560.00 7961.00,584.00 7961.00,584.00              7961.00,584.00 7961.00,590.00 7961.00,590.00              7961.00,590.00 7961.79,601.00 7961.79,601.00              7961.79,601.00 7960.30,609.00 7960.30,609.00              7960.30,609.00 7959.09,628.00 7959.09,628.00              7959.09,628.00 7961.00,646.00 7961.00,646.00              7961.02,657.62 7960.07,654.58 7959.17,663.00              7959.17,663.00 7958.00,691.00 7958.00,691.00              7958.00,691.00 7959.66,711.00 7959.66,711.00              7959.66,711.00 7957.09,733.00 7957.09,733.00              7957.09,733.00 7957.96,743.00 7957.96,743.00              7957.96,743.00 7957.04,754.00 7957.04,754.00              7957.04,754.00 7958.00,767.00 7958.00,767.00              7958.00,767.00 7959.00,789.00 7959.00,789.00              7959.00,789.00 7959.00,815.00 7959.00,815.00              7959.00,815.00 7959.54,825.00 7959.54,825.00              7959.54,825.00 7958.03,837.00 7958.03,837.00              7958.03,837.00 7959.00,854.00 7959.00,854.00              7959.02,865.53 7962.25,870.21 7962.25,874.00              7962.25,877.49 7960.02,879.28 7960.00,890.00              7960.00,890.00 7960.00,899.00 7960.00,899.00              7960.00,899.00 7960.92,910.00 7960.92,910.00              7960.92,910.00 7960.03,920.00 7960.03,920.00              7960.03,920.00 7960.53,928.00 7960.53,928.00              7960.37,931.48 7959.03,933.52 7959.03,939.00              7959.03,939.00 7960.00,951.00 7960.00,951.00              7960.00,951.00 7959.17,971.00 7959.17,971.00              7959.17,971.00 7963.00,995.00 7963.00,995.00              7963.00,995.00 7961.96,1016.00 7961.96,1016.00              7961.96,1016.00 7961.96,1032.00 7961.96,1032.00              7961.96,1032.00 7961.00,1042.00 7961.00,1042.00              7961.00,1042.00 7963.39,1068.00 7963.39,1068.00              7963.17,1072.98 7960.62,1075.11 7961.04,1085.00              7961.04,1085.00 7965.00,1111.00 7965.00,1111.00              7965.12,1121.06 7965.14,1127.94 7963.72,1138.00              7962.45,1146.92 7960.01,1157.13 7960.18,1166.00              7960.18,1166.00 7960.18,1182.00 7960.18,1182.00              7960.18,1182.00 7960.18,1207.00 7960.18,1207.00              7960.18,1207.00 7960.18,1216.00 7960.18,1216.00              7960.18,1216.00 7960.96,1228.00 7960.96,1228.00              7960.96,1228.00 7960.00,1239.00 7960.00,1239.00              7960.00,1239.00 7961.00,1255.00 7961.00,1255.00              7961.14,1267.41 7960.15,1265.84 7959.17,1276.00              7959.17,1276.00 7958.61,1287.00 7958.61,1287.00              7958.61,1287.00 7955.93,1295.00 7955.93,1295.00              7953.99,1302.06 7953.92,1308.77 7954.00,1316.00              7954.00,1316.00 7956.91,1340.00 7956.91,1340.00              7956.91,1340.00 7956.00,1356.00 7956.00,1356.00              7956.00,1356.00 7956.79,1370.00 7956.79,1370.00              7956.79,1370.00 7955.04,1396.00 7955.04,1396.00              7955.25,1402.32 7957.32,1405.05 7957.78,1409.00              7957.78,1409.00 7956.92,1422.00 7956.92,1422.00              7956.92,1422.00 7956.92,1431.00 7956.92,1431.00              7956.92,1431.00 7955.04,1445.00 7955.04,1445.00              7955.04,1445.00 7955.66,1454.00 7955.66,1454.00              7955.66,1454.00 7955.09,1463.00 7955.09,1463.00              7955.09,1463.00 7956.00,1480.00 7956.00,1480.00              7956.00,1480.00 7954.09,1502.00 7954.09,1502.00              7954.09,1502.00 7955.81,1512.00 7955.81,1512.00              7955.81,1512.00 7955.04,1526.00 7955.04,1526.00              7955.04,1526.00 7955.04,1541.00 7955.04,1541.00              7955.04,1541.00 7955.96,1551.00 7955.96,1551.00              7955.96,1551.00 7954.70,1567.00 7954.70,1567.00              7954.70,1567.00 7953.09,1576.00 7953.09,1576.00              7952.65,1582.37 7954.23,1584.37 7954.14,1589.00              7954.14,1589.00 7954.14,1620.00 7954.14,1620.00              7954.09,1626.97 7955.35,1628.22 7955.53,1632.00              7955.53,1632.00 7955.00,1642.00 7955.00,1642.00              7955.00,1642.00 7955.66,1654.00 7955.66,1654.00              7955.66,1654.00 7954.04,1669.00 7954.04,1669.00              7954.23,1674.68 7956.28,1677.93 7955.91,1684.00              7955.52,1690.27 7954.02,1689.55 7954.04,1700.00              7954.04,1700.00 7954.04,1714.00 7954.04,1714.00              7954.04,1714.00 7954.97,1723.00 7954.97,1723.00              7954.97,1723.00 7954.01,1737.00 7954.01,1737.00              7954.01,1737.00 7954.82,1767.00 7954.82,1767.00              7954.82,1767.00 7954.00,1777.00 7954.00,1777.00              7954.00,1777.00 7954.00,1809.00 7954.00,1809.00              7954.00,1809.00 7953.09,1824.00 7953.09,1824.00              7953.09,1824.00 7954.18,1832.00 7954.18,1832.00              7954.18,1832.00 7954.18,1845.00 7954.18,1845.00              7954.18,1845.00 7953.04,1856.00 7953.04,1856.00              7953.04,1856.00 7953.66,1869.00 7953.66,1869.00              7953.66,1869.00 7953.00,1880.00 7953.00,1880.00              7953.00,1880.00 7952.00,1898.00 7952.00,1898.00              7952.00,1898.00 7952.82,1918.00 7952.82,1918.00              7952.82,1918.00 7952.00,1932.00 7952.00,1932.00              7952.00,1932.00 7952.66,1941.00 7952.66,1941.00              7952.66,1941.00 7952.05,1950.00 7952.05,1950.00              7952.05,1950.00 7952.05,1995.00 7952.05,1995.00              7952.05,1995.00 7952.91,2008.00 7952.91,2008.00              7952.91,2008.00 7951.00,2029.00 7951.00,2029.00              7951.00,2029.00 7951.00,2042.00 7951.00,2042.00              7951.00,2042.00 7948.02,2062.00 7948.02,2062.00              7947.78,2073.70 7951.88,2084.00 7951.92,2088.00              7951.92,2088.00 7949.04,2106.00 7949.04,2106.00              7948.82,2112.87 7950.85,2115.36 7950.74,2120.00              7950.74,2120.00 7950.14,2129.00 7950.14,2129.00              7950.14,2129.00 7950.14,2141.00 7950.14,2141.00              7950.14,2141.00 7950.14,2153.00 7950.14,2153.00              7950.14,2153.00 7949.09,2168.00 7949.09,2168.00              7949.33,2171.81 7950.84,2175.17 7950.45,2179.00              7949.85,2184.85 7949.01,2184.16 7948.96,2192.00              7948.96,2192.00 7948.96,2206.00 7948.96,2206.00              7948.62,2210.27 7947.76,2212.20 7948.09,2217.00              7948.09,2217.00 7949.70,2226.00 7949.70,2226.00              7949.70,2226.00 7951.00,2246.00 7951.00,2246.00              7951.00,2246.00 7949.09,2266.00 7949.09,2266.00              7949.09,2266.00 7950.14,2275.00 7950.14,2275.00              7950.14,2275.00 7950.14,2286.00 7950.14,2286.00              7949.98,2296.04 7948.93,2293.20 7947.47,2301.00              7947.47,2301.00 7946.00,2320.00 7946.00,2320.00              7946.00,2320.00 7943.04,2344.00 7943.04,2344.00              7943.04,2344.00 7944.80,2363.00 7944.80,2363.00              7944.80,2363.00 7947.25,2374.00 7947.25,2374.00              7947.25,2374.00 7947.25,2384.00 7947.25,2384.00              7947.35,2391.79 7950.08,2394.14 7950.79,2399.00              7950.79,2399.00 7950.09,2413.00 7950.09,2413.00              7950.09,2413.00 7951.00,2425.00 7951.00,2425.00              7951.00,2425.00 7951.00,2443.00 7951.00,2443.00              7951.00,2443.00 7951.98,2457.00 7951.98,2457.00              7951.98,2457.00 7951.04,2469.00 7951.04,2469.00              7951.04,2469.00 7952.00,2483.00 7952.00,2483.00              7952.00,2483.00 7950.00,2516.00 7950.00,2516.00              7950.00,2516.00 7949.04,2529.00 7949.04,2529.00              7949.04,2529.00 7950.53,2545.00 7950.53,2545.00              7950.35,2548.78 7949.09,2550.03 7949.00,2557.00              7949.00,2557.00 7949.82,2577.00 7949.82,2577.00              7949.82,2577.00 7949.01,2588.00 7949.01,2588.00              7949.20,2595.86 7951.68,2598.16 7951.16,2602.00              7950.83,2604.49 7945.03,2617.18 7945.03,2626.00              7945.03,2636.25 7948.98,2635.27 7949.00,2648.00              7949.00,2648.00 7949.00,2678.00 7949.00,2678.00              7949.00,2678.00 7949.66,2689.00 7949.66,2689.00              7949.66,2689.00 7949.00,2702.00 7949.00,2702.00              7949.00,2702.00 7949.51,2710.00 7949.51,2710.00              7949.41,2714.26 7947.17,2716.42 7947.02,2724.00              7947.02,2724.00 7948.91,2744.00 7948.91,2744.00              7948.91,2744.00 7947.30,2753.00 7947.30,2753.00              7947.30,2753.00 7946.04,2771.00 7946.04,2771.00              7946.04,2771.00 7947.00,2784.00 7947.00,2784.00              7947.00,2784.00 7947.00,2800.00 7947.00,2800.00              7947.00,2800.00 7948.68,2821.00 7948.68,2821.00              7948.68,2821.00 7948.04,2829.00 7948.04,2829.00              7948.04,2829.00 7948.82,2839.00 7948.82,2839.00              7948.49,2843.63 7947.74,2845.94 7948.09,2851.00              7948.09,2851.00 7949.82,2869.00 7949.82,2869.00              7949.82,2869.00 7949.00,2880.00 7949.00,2880.00              7949.00,2880.00 7949.00,2908.00 7949.00,2908.00              7948.95,2918.00 7943.63,2926.87 7944.04,2937.00              7944.04,2937.00 7945.81,2948.00 7945.81,2948.00              7946.23,2953.02 7944.37,2955.31 7945.28,2963.00              7945.28,2963.00 7948.79,2989.00 7948.79,2989.00              7948.79,2989.00 7947.29,2998.00 7947.29,2998.00              7947.29,2998.00 7946.72,3006.00 7946.72,3006.00              7946.72,3006.00 7945.09,3019.00 7945.09,3019.00              7945.09,3019.00 7945.81,3032.00 7945.81,3032.00              7945.26,3038.75 7943.87,3036.07 7944.06,3049.00              7944.06,3049.00 7944.06,3057.00 7944.06,3057.00              7943.36,3063.34 7942.02,3061.06 7942.00,3072.00              7942.00,3072.00 7942.00,3087.00 7942.00,3087.00              7941.96,3095.42 7940.83,3094.81 7940.09,3101.00              7940.09,3101.00 7940.09,3117.00 7940.09,3117.00              7940.09,3117.00 7940.91,3132.00 7940.91,3132.00              7940.91,3132.00 7938.09,3175.00 7938.09,3175.00              7938.09,3175.00 7938.99,3184.00 7938.99,3184.00              7938.99,3184.00 7937.00,3204.00 7937.00,3204.00              7937.00,3204.00 7937.00,3230.00 7937.00,3230.00              7937.00,3230.00 7938.54,3246.00 7938.54,3246.00              7938.54,3246.00 7936.68,3253.00 7936.68,3253.00              7935.72,3257.16 7933.88,3269.90 7934.04,3274.00              7934.39,3282.95 7938.60,3302.48 7941.54,3311.00              7941.54,3311.00 7945.56,3321.00 7945.56,3321.00              7947.57,3326.51 7950.51,3338.14 7951.54,3344.00              7951.54,3344.00 7952.43,3353.00 7952.43,3353.00              7952.43,3353.00 7954.93,3365.00 7954.93,3365.00              7954.93,3365.00 7954.93,3373.00 7954.93,3373.00              7954.93,3373.00 7957.07,3389.00 7957.07,3389.00              7957.07,3389.00 7957.07,3400.00 7957.07,3400.00              7957.07,3400.00 7960.70,3414.00 7960.70,3414.00              7960.70,3414.00 7961.46,3427.00 7961.46,3427.00              7962.21,3431.11 7964.33,3435.34 7964.19,3439.00              7964.19,3439.00 7964.19,3453.00 7964.19,3453.00              7962.69,3458.38 7960.02,3457.65 7960.00,3471.00              7960.00,3471.00 7960.00,3486.00 7960.00,3486.00              7959.86,3497.74 7953.26,3502.55 7948.26,3513.00              7943.91,3522.08 7942.86,3530.14 7943.47,3540.00              7943.47,3540.00 7943.47,3557.00 7943.47,3557.00              7942.74,3563.60 7941.90,3562.23 7942.00,3571.00              7942.00,3571.00 7943.63,3590.00 7943.63,3590.00              7943.63,3590.00 7943.00,3608.00 7943.00,3608.00              7943.00,3608.00 7943.91,3620.00 7943.91,3620.00              7944.56,3629.43 7943.34,3633.35 7945.46,3644.00              7945.46,3644.00 7948.32,3654.00 7948.32,3654.00              7948.32,3654.00 7949.92,3663.00 7949.92,3663.00              7949.92,3663.00 7952.56,3673.00 7952.56,3673.00              7952.56,3673.00 7953.46,3682.00 7953.46,3682.00              7953.46,3682.00 7955.71,3693.00 7955.71,3693.00              7955.71,3693.00 7956.30,3701.00 7956.30,3701.00              7956.30,3701.00 7958.00,3709.00 7958.00,3709.00              7958.00,3709.00 7958.00,3717.00 7958.00,3717.00              7958.00,3717.00 7961.68,3738.00 7961.68,3738.00              7963.60,3746.19 7968.45,3750.97 7970.15,3756.00              7970.15,3756.00 7971.67,3764.00 7971.67,3764.00              7974.62,3777.62 7974.84,3779.00 7975.00,3793.00              7975.00,3793.00 7975.90,3803.00 7975.90,3803.00              7975.90,3803.00 7974.58,3820.00 7974.58,3820.00              7973.38,3824.89 7968.78,3828.91 7965.45,3837.00              7959.64,3851.11 7961.24,3852.66 7961.00,3867.00              7960.84,3876.46 7956.75,3877.84 7952.11,3885.00              7949.79,3888.57 7948.02,3893.93 7946.33,3898.00              7943.60,3904.59 7941.70,3922.22 7940.83,3930.00              7939.95,3937.93 7938.04,3939.81 7938.00,3949.00              7938.00,3949.00 7938.00,3953.00 7938.00,3953.00              7937.88,3962.60 7934.76,3963.60 7935.13,3975.00              7935.13,3975.00 7935.13,3984.00 7935.13,3984.00              7935.13,3984.00 7935.13,3993.00 7935.13,3993.00              7935.13,3993.00 7935.13,3999.00 7935.13,3999.00              7935.13,3999.00 7936.53,4023.00 7936.53,4023.00              7936.34,4027.10 7933.71,4034.32 7934.09,4041.00              7934.09,4041.00 7936.61,4056.00 7936.61,4056.00              7936.61,4056.00 7935.15,4070.00 7935.15,4070.00              7935.15,4070.00 7935.15,4079.00 7935.15,4079.00              7934.36,4084.04 7929.03,4086.98 7929.03,4098.00              7929.03,4107.38 7932.87,4110.57 7934.30,4115.00              7935.23,4117.84 7935.03,4122.90 7935.00,4126.00              7935.00,4126.00 7934.09,4136.00 7934.09,4136.00              7933.37,4146.46 7933.73,4151.20 7931.12,4162.00              7929.23,4169.80 7926.26,4172.48 7925.26,4179.00              7924.45,4184.73 7925.66,4187.01 7925.26,4191.00              7925.26,4191.00 7925.26,4197.00 7925.26,4197.00              7925.26,4197.00 7925.26,4210.00 7925.26,4210.00              7925.26,4210.00 7926.82,4226.00 7926.82,4226.00              7926.82,4226.00 7920.91,4262.00 7920.91,4262.00              7920.91,4262.00 7920.91,4277.00 7920.91,4277.00              7920.91,4277.00 7919.14,4287.00 7919.14,4287.00              7919.14,4287.00 7919.14,4296.00 7919.14,4296.00              7919.14,4296.00 7919.14,4307.00 7919.14,4307.00              7919.14,4307.00 7916.09,4334.00 7916.09,4334.00              7916.09,4334.00 7918.41,4349.00 7918.41,4349.00              7918.41,4349.00 7917.17,4358.00 7917.17,4358.00              7917.17,4358.00 7916.00,4384.00 7916.00,4384.00              7916.00,4384.00 7917.96,4410.00 7917.96,4410.00              7917.61,4420.45 7912.13,4428.09 7912.00,4439.00              7911.93,4445.60 7911.80,4448.45 7913.21,4455.00              7913.93,4458.32 7915.74,4463.04 7915.81,4466.00              7915.81,4466.00 7915.00,4479.00 7915.00,4479.00              7915.00,4479.00 7915.99,4494.00 7915.99,4494.00              7915.99,4494.00 7915.09,4506.00 7915.09,4506.00              7915.51,4512.80 7918.31,4516.11 7917.96,4525.00              7917.96,4525.00 7916.00,4542.00 7916.00,4542.00              7915.88,4552.98 7917.01,4550.49 7917.83,4558.00              7917.83,4558.00 7918.96,4573.00 7918.96,4573.00              7918.96,4573.00 7918.09,4584.00 7918.09,4584.00              7918.31,4587.82 7919.16,4589.55 7918.91,4594.00              7918.91,4594.00 7915.25,4627.00 7915.25,4627.00              7915.25,4627.00 7915.25,4642.00 7915.25,4642.00              7915.25,4642.00 7914.03,4656.00 7914.03,4656.00              7914.03,4656.00 7915.00,4669.00 7915.00,4669.00              7915.00,4669.00 7914.01,4687.00 7914.01,4687.00              7914.01,4687.00 7914.01,4701.00 7914.01,4701.00              7914.01,4701.00 7914.01,4712.00 7914.01,4712.00              7913.19,4715.29 7910.29,4718.28 7909.30,4725.00              7908.22,4732.35 7910.30,4735.79 7910.61,4740.00              7910.61,4740.00 7910.04,4751.00 7910.04,4751.00              7910.04,4751.00 7911.82,4763.00 7911.82,4763.00              7911.82,4763.00 7910.01,4786.00 7910.01,4786.00              7910.01,4786.00 7911.00,4803.00 7911.00,4803.00              7911.00,4803.00 7910.00,4819.00 7910.00,4819.00              7910.00,4819.00 7908.04,4837.00 7908.04,4837.00              7908.24,4842.97 7910.26,4846.34 7910.30,4850.00              7910.30,4850.00 7910.30,4860.00 7910.30,4860.00              7910.30,4860.00 7912.22,4872.00 7912.22,4872.00              7912.22,4872.00 7912.22,4884.00 7912.22,4884.00              7912.22,4884.00 7911.00,4922.00 7911.00,4922.00              7911.00,4922.00 7910.00,4939.00 7910.00,4939.00              7910.00,4939.00 7910.00,4953.00 7910.00,4953.00              7910.00,4953.00 7909.00,4969.00 7909.00,4969.00              7909.00,4969.00 7909.53,4985.00 7909.53,4985.00              7909.30,4989.89 7907.86,4988.95 7908.16,5001.00              7908.16,5001.00 7908.16,5011.00 7908.16,5011.00              7908.16,5011.00 7908.16,5044.00 7908.16,5044.00              7908.16,5044.00 7906.03,5062.00 7906.03,5062.00              7906.03,5062.00 7907.28,5077.00 7907.28,5077.00              7907.23,5081.65 7905.67,5083.45 7906.09,5090.00              7906.09,5090.00 7907.82,5111.00 7907.82,5111.00              7907.82,5111.00 7907.09,5121.00 7907.09,5121.00              7907.09,5121.00 7904.00,5152.00 7904.00,5152.00              7904.00,5152.00 7905.00,5175.00 7905.00,5175.00              7904.99,5183.62 7904.31,5181.91 7903.30,5189.00              7903.30,5189.00 7902.01,5211.00 7902.01,5211.00              7902.15,5216.90 7903.39,5219.03 7902.91,5226.00              7902.91,5226.00 7901.04,5248.00 7901.04,5248.00              7901.04,5248.00 7903.63,5266.00 7903.63,5266.00              7903.63,5266.00 7901.17,5282.00 7901.17,5282.00              7901.17,5282.00 7900.00,5308.00 7900.00,5308.00              7900.00,5308.00 7901.00,5325.00 7901.00,5325.00              7901.00,5325.00 7900.09,5339.00 7900.09,5339.00              7900.09,5339.00 7901.96,5365.00 7901.96,5365.00              7901.96,5365.00 7900.30,5375.00 7900.30,5375.00              7900.30,5375.00 7899.70,5383.00 7899.70,5383.00              7898.69,5390.09 7898.01,5388.39 7898.00,5397.00              7897.98,5412.15 7900.40,5412.12 7900.51,5417.00              7900.51,5417.00 7899.70,5431.00 7899.70,5431.00              7899.03,5435.68 7898.15,5436.34 7898.01,5442.00              7898.01,5442.00 7898.01,5464.00 7898.01,5464.00              7897.88,5473.85 7895.98,5475.92 7894.47,5484.00              7894.47,5484.00 7893.69,5492.00 7893.69,5492.00              7892.79,5495.63 7889.47,5498.66 7887.48,5502.00              7884.97,5506.22 7883.79,5511.09 7884.09,5516.00              7884.54,5523.21 7887.47,5526.14 7888.51,5530.00              7889.60,5534.06 7888.19,5537.38 7890.55,5544.00              7893.69,5552.83 7896.24,5550.69 7895.99,5562.00              7895.99,5562.00 7895.09,5574.00 7895.09,5574.00              7895.09,5574.00 7896.92,5595.00 7896.92,5595.00              7896.86,5599.89 7894.77,5602.46 7894.17,5608.00              7893.47,5614.48 7894.55,5620.60 7894.91,5627.00              7894.91,5627.00 7893.00,5659.00 7893.00,5659.00              7893.06,5663.73 7894.56,5669.66 7893.73,5674.00              7892.92,5678.26 7890.28,5680.35 7889.30,5687.00              7889.30,5687.00 7888.70,5699.00 7888.70,5699.00              7888.70,5699.00 7883.67,5718.00 7883.67,5718.00              7883.67,5718.00 7882.18,5731.00 7882.18,5731.00              7879.87,5741.68 7874.78,5741.10 7873.17,5758.00              7872.43,5765.73 7874.57,5768.55 7874.98,5773.00              7874.90,5777.27 7872.72,5782.17 7874.98,5790.00              7878.01,5798.71 7882.82,5798.56 7883.08,5808.00              7883.08,5808.00 7883.08,5817.00 7883.08,5817.00              7884.08,5826.61 7885.35,5828.82 7876.00,5834.30              7874.24,5835.33 7873.07,5836.03 7871.00,5836.15              7871.00,5836.15 7860.00,5836.15 7860.00,5836.15              7851.23,5836.10 7844.89,5839.24 7838.00,5844.53              7838.00,5844.53 7832.00,5849.41 7832.00,5849.41              7828.98,5851.32 7825.32,5851.35 7822.00,5852.56              7822.00,5852.56 7800.00,5860.86 7800.00,5860.86              7800.00,5860.86 7787.00,5860.00 7787.00,5860.00              7778.97,5860.00 7776.62,5861.66 7773.00,5861.66              7773.00,5861.66 7763.00,5860.09 7763.00,5860.09              7763.00,5860.09 7748.00,5860.66 7748.00,5860.66              7748.00,5860.66 7738.00,5860.09 7738.00,5860.09              7727.95,5860.78 7723.33,5866.55 7717.00,5868.36              7710.15,5870.33 7699.10,5869.09 7692.00,5869.25              7692.00,5869.25 7675.00,5869.25 7675.00,5869.25              7664.44,5868.11 7654.42,5863.13 7644.00,5863.00              7638.98,5862.94 7634.89,5862.77 7630.00,5864.21              7630.00,5864.21 7610.00,5871.15 7610.00,5871.15              7604.48,5871.96 7602.19,5868.13 7589.00,5869.09              7589.00,5869.09 7580.00,5870.70 7580.00,5870.70              7580.00,5870.70 7573.00,5871.30 7573.00,5871.30              7561.06,5873.02 7552.39,5875.14 7540.00,5875.00              7533.76,5874.92 7529.54,5873.46 7523.00,5874.17              7523.00,5874.17 7507.00,5877.71 7507.00,5877.71              7507.00,5877.71 7493.00,5878.68 7493.00,5878.68              7487.87,5879.86 7487.01,5881.28 7483.00,5882.93              7479.51,5884.37 7465.66,5886.96 7462.00,5886.39              7453.95,5885.13 7449.45,5879.37 7434.00,5875.89              7427.51,5874.42 7425.69,5875.42 7420.00,5874.71              7420.00,5874.71 7388.00,5868.70 7388.00,5868.70              7388.00,5868.70 7355.00,5855.91 7355.00,5855.91              7341.36,5852.00 7334.04,5851.95 7321.00,5849.71              7306.30,5847.19 7316.33,5846.03 7295.00,5846.00              7284.72,5845.98 7287.24,5844.95 7279.00,5843.46              7279.00,5843.46 7271.00,5842.70 7271.00,5842.70              7262.73,5841.51 7263.22,5840.02 7253.00,5840.00              7253.00,5840.00 7213.00,5837.89 7213.00,5837.89              7213.00,5837.89 7203.00,5837.89 7203.00,5837.89              7203.00,5837.89 7189.00,5833.90 7189.00,5833.90              7189.00,5833.90 7175.00,5831.63 7175.00,5831.63              7175.00,5831.63 7168.00,5829.22 7168.00,5829.22              7168.00,5829.22 7153.00,5824.92 7153.00,5824.92              7153.00,5824.92 7140.00,5823.32 7140.00,5823.32              7140.00,5823.32 7129.00,5819.90 7129.00,5819.90              7123.60,5818.59 7107.79,5816.94 7102.00,5817.00              7088.86,5817.16 7084.69,5823.92 7073.00,5823.92              7073.00,5823.92 7056.00,5822.56 7056.00,5822.56              7047.00,5821.15 7041.89,5819.05 7032.00,5818.92              7032.00,5818.92 7012.00,5818.92 7012.00,5818.92              7004.90,5818.12 7004.96,5817.01 6996.00,5817.00              6996.00,5817.00 6961.00,5817.00 6961.00,5817.00              6961.00,5817.00 6938.00,5816.00 6938.00,5816.00              6926.94,5816.02 6928.79,5817.42 6920.00,5818.86              6920.00,5818.86 6890.00,5820.99 6890.00,5820.99              6882.97,5820.82 6879.92,5818.81 6874.00,5818.04              6874.00,5818.04 6866.00,5818.04 6866.00,5818.04              6866.00,5818.04 6852.00,5816.04 6852.00,5816.04              6852.00,5816.04 6842.00,5816.04 6842.00,5816.04              6842.00,5816.04 6830.00,5814.15 6830.00,5814.15              6830.00,5814.15 6823.00,5814.15 6823.00,5814.15              6815.42,5814.53 6810.61,5812.74 6803.00,5816.40              6791.82,5821.77 6788.56,5831.72 6786.22,5834.39              6786.22,5834.39 6769.00,5848.51 6769.00,5848.51              6769.00,5848.51 6760.00,5853.31 6760.00,5853.31              6745.23,5861.25 6740.39,5862.47 6724.00,5865.29              6715.73,5866.70 6718.56,5867.98 6708.00,5868.09              6708.00,5868.09 6694.00,5868.09 6694.00,5868.09              6694.00,5868.09 6685.00,5869.54 6685.00,5869.54              6680.03,5869.42 6675.94,5867.09 6668.00,5867.00              6654.49,5866.85 6654.10,5870.03 6648.00,5869.79              6639.69,5869.46 6632.27,5865.72 6624.00,5866.04              6624.00,5866.04 6599.00,5869.00 6599.00,5869.00              6587.78,5869.13 6588.43,5868.18 6579.00,5867.17              6579.00,5867.17 6549.00,5866.00 6549.00,5866.00              6549.00,5866.00 6534.00,5867.00 6534.00,5867.00              6534.00,5867.00 6495.00,5867.00 6495.00,5867.00              6495.00,5867.00 6484.00,5867.68 6484.00,5867.68              6484.00,5867.68 6472.00,5865.94 6472.00,5865.94              6472.00,5865.94 6462.00,5865.94 6462.00,5865.94              6453.43,5864.60 6455.05,5863.89 6445.00,5864.00              6435.81,5864.11 6435.68,5866.02 6430.00,5866.79              6425.52,5867.40 6420.63,5866.06 6416.00,5866.00              6405.66,5865.88 6395.26,5866.28 6385.00,5864.79              6380.60,5864.15 6373.12,5860.53 6366.00,5860.09              6366.00,5860.09 6355.00,5860.79 6355.00,5860.79              6355.00,5860.79 6335.00,5859.00 6335.00,5859.00              6324.46,5858.96 6323.95,5860.42 6315.00,5861.70              6315.00,5861.70 6306.00,5862.29 6306.00,5862.29              6303.08,5862.67 6299.89,5863.66 6297.00,5863.53              6297.00,5863.53 6286.00,5861.30 6286.00,5861.30              6286.00,5861.30 6256.00,5859.00 6256.00,5859.00              6256.00,5859.00 6236.00,5861.79 6236.00,5861.79              6236.00,5861.79 6219.00,5861.00 6219.00,5861.00              6211.75,5860.97 6212.09,5860.17 6206.00,5859.30              6206.00,5859.30 6187.00,5858.00 6187.00,5858.00              6187.00,5858.00 6169.00,5857.09 6169.00,5857.09              6169.00,5857.09 6155.00,5859.85 6155.00,5859.85              6155.00,5859.85 6137.00,5859.85 6137.00,5859.85              6137.00,5859.85 6111.00,5858.01 6111.00,5858.01              6111.00,5858.01 6098.00,5858.92 6098.00,5858.92              6098.00,5858.92 6083.00,5858.00 6083.00,5858.00              6073.73,5858.11 6071.90,5860.66 6065.00,5860.96              6065.00,5860.96 6050.00,5860.04 6050.00,5860.04              6050.00,5860.04 6032.00,5861.96 6032.00,5861.96              6032.00,5861.96 6020.00,5861.03 6020.00,5861.03              6020.00,5861.03 6007.00,5861.91 6007.00,5861.91              6000.42,5861.46 6001.51,5860.02 5991.00,5860.00              5991.00,5860.00 5974.00,5860.82 5974.00,5860.82              5974.00,5860.82 5949.00,5860.00 5949.00,5860.00              5949.00,5860.00 5937.00,5860.90 5937.00,5860.90              5937.00,5860.90 5927.00,5859.08 5927.00,5859.08              5927.00,5859.08 5916.00,5859.08 5916.00,5859.08              5916.00,5859.08 5903.00,5858.00 5903.00,5858.00              5886.94,5857.82 5885.73,5860.43 5878.00,5860.91              5878.00,5860.91 5867.00,5860.04 5867.00,5860.04              5867.00,5860.04 5858.00,5860.68 5858.00,5860.68              5858.00,5860.68 5845.00,5860.00 5845.00,5860.00              5845.00,5860.00 5827.00,5860.81 5827.00,5860.81              5827.00,5860.81 5814.00,5858.43 5814.00,5858.43              5814.00,5858.43 5798.00,5857.09 5798.00,5857.09              5788.88,5856.47 5786.80,5858.72 5782.00,5858.08              5775.09,5857.16 5773.23,5854.12 5763.00,5854.00              5763.00,5854.00 5744.00,5853.04 5744.00,5853.04              5744.00,5853.04 5732.00,5855.06 5732.00,5855.06              5732.00,5855.06 5719.00,5855.06 5719.00,5855.06              5713.03,5856.15 5707.12,5857.88 5701.00,5857.24              5701.00,5857.24 5685.00,5857.24 5685.00,5857.24              5685.00,5857.24 5667.00,5855.17 5667.00,5855.17              5667.00,5855.17 5647.00,5854.00 5647.00,5854.00              5647.00,5854.00 5634.00,5852.92 5634.00,5852.92              5634.00,5852.92 5626.00,5852.92 5626.00,5852.92              5620.51,5852.24 5618.83,5850.65 5612.00,5851.09              5612.00,5851.09 5597.00,5853.70 5597.00,5853.70              5597.00,5853.70 5578.00,5855.00 5578.00,5855.00              5578.00,5855.00 5557.00,5855.00 5557.00,5855.00              5557.00,5855.00 5537.00,5853.00 5537.00,5853.00              5537.00,5853.00 5523.00,5853.00 5523.00,5853.00              5513.09,5852.95 5514.92,5851.05 5507.00,5849.46              5499.04,5847.87 5492.98,5847.99 5485.00,5848.00              5485.00,5848.00 5459.00,5851.00 5459.00,5851.00              5459.00,5851.00 5432.00,5851.00 5432.00,5851.00              5432.00,5851.00 5415.00,5850.00 5415.00,5850.00              5415.00,5850.00 5401.00,5850.00 5401.00,5850.00              5401.00,5850.00 5384.00,5851.00 5384.00,5851.00              5373.76,5850.95 5365.60,5845.63 5355.00,5846.04              5355.00,5846.04 5327.00,5849.00 5327.00,5849.00              5327.00,5849.00 5314.00,5848.09 5314.00,5848.09              5307.49,5848.47 5307.13,5849.98 5297.00,5849.96              5297.00,5849.96 5284.00,5849.96 5284.00,5849.96              5284.00,5849.96 5274.00,5849.00 5274.00,5849.00              5274.00,5849.00 5257.00,5849.96 5257.00,5849.96              5257.00,5849.96 5244.00,5849.01 5244.00,5849.01              5244.00,5849.01 5230.00,5850.00 5230.00,5850.00              5230.00,5850.00 5171.00,5850.00 5171.00,5850.00              5171.00,5850.00 5162.00,5850.66 5162.00,5850.66              5162.00,5850.66 5154.00,5850.01 5154.00,5850.01              5154.00,5850.01 5138.00,5850.91 5138.00,5850.91              5138.00,5850.91 5128.00,5850.00 5128.00,5850.00              5128.00,5850.00 5104.00,5850.00 5104.00,5850.00              5104.00,5850.00 5089.00,5851.00 5089.00,5851.00              5089.00,5851.00 5084.00,5851.00 5084.00,5851.00              5084.00,5851.00 5062.00,5852.96 5062.00,5852.96              5062.00,5852.96 5046.00,5852.00 5046.00,5852.00              5046.00,5852.00 5033.00,5852.00 5033.00,5852.00              5033.00,5852.00 5013.00,5851.00 5013.00,5851.00              5013.00,5851.00 5003.00,5852.05 5003.00,5852.05              5003.00,5852.05 4989.00,5852.05 4989.00,5852.05              4989.00,5852.05 4979.00,5852.05 4979.00,5852.05              4974.58,5851.97 4971.86,5850.82 4967.00,5851.09              4946.04,5852.25 4938.32,5847.85 4919.00,5847.04              4908.19,5846.58 4909.02,5849.53 4896.00,5848.96              4896.00,5848.96 4864.00,5846.00 4864.00,5846.00              4853.23,5845.94 4854.04,5842.74 4842.00,5843.01              4834.35,5843.19 4832.17,5845.40 4828.00,5845.70              4828.00,5845.70 4816.00,5845.00 4816.00,5845.00              4816.00,5845.00 4803.00,5845.00 4803.00,5845.00              4803.00,5845.00 4789.00,5845.91 4789.00,5845.91              4789.00,5845.91 4778.00,5844.06 4778.00,5844.06              4778.00,5844.06 4769.00,5844.06 4769.00,5844.06              4769.00,5844.06 4753.00,5842.00 4753.00,5842.00              4753.00,5842.00 4735.00,5842.00 4735.00,5842.00              4735.00,5842.00 4722.00,5842.59 4722.00,5842.59              4715.97,5841.65 4716.06,5839.02 4703.00,5839.00              4703.00,5839.00 4684.00,5838.04 4684.00,5838.04              4684.00,5838.04 4671.00,5839.00 4671.00,5839.00              4671.00,5839.00 4647.00,5839.00 4647.00,5839.00              4647.00,5839.00 4624.00,5840.82 4624.00,5840.82              4624.00,5840.82 4614.00,5839.17 4614.00,5839.17              4614.00,5839.17 4600.00,5838.09 4600.00,5838.09              4600.00,5838.09 4585.00,5839.00 4585.00,5839.00              4585.00,5839.00 4566.00,5840.00 4566.00,5840.00              4566.00,5840.00 4552.00,5840.00 4552.00,5840.00              4543.70,5840.04 4543.13,5841.34 4539.00,5841.53              4539.00,5841.53 4530.00,5841.00 4530.00,5841.00              4530.00,5841.00 4514.00,5841.00 4514.00,5841.00              4503.72,5840.88 4502.49,5837.75 4491.00,5838.01              4482.38,5838.21 4479.99,5841.07 4473.00,5842.00              4473.00,5842.00 4465.00,5842.00 4465.00,5842.00              4452.79,5843.34 4455.53,5844.17 4441.00,5844.00              4441.00,5844.00 4426.00,5843.00 4426.00,5843.00              4426.00,5843.00 4400.00,5844.09 4400.00,5844.09              4400.00,5844.09 4388.00,5845.00 4388.00,5845.00              4388.00,5845.00 4364.00,5846.09 4364.00,5846.09              4364.00,5846.09 4348.00,5847.87 4348.00,5847.87              4341.52,5847.94 4340.18,5844.14 4329.00,5844.00              4329.00,5844.00 4319.00,5844.00 4319.00,5844.00              4319.00,5844.00 4297.00,5845.51 4297.00,5845.51              4292.41,5845.20 4290.53,5843.10 4282.00,5843.13              4282.00,5843.13 4255.00,5843.13 4255.00,5843.13              4255.00,5843.13 4233.00,5841.01 4233.00,5841.01              4233.00,5841.01 4224.00,5841.54 4224.00,5841.54              4224.00,5841.54 4214.00,5839.17 4214.00,5839.17              4214.00,5839.17 4178.00,5836.63 4178.00,5836.63              4169.62,5835.02 4161.32,5830.03 4153.00,5830.03              4153.00,5830.03 4135.00,5831.30 4135.00,5831.30              4135.00,5831.30 4127.00,5832.83 4127.00,5832.83              4127.00,5832.83 4115.00,5833.47 4115.00,5833.47              4115.00,5833.47 4107.00,5835.63 4107.00,5835.63              4107.00,5835.63 4081.00,5838.49 4081.00,5838.49              4081.00,5838.49 4057.00,5834.46 4057.00,5834.46              4051.67,5833.52 4048.79,5834.58 4043.00,5832.44              4043.00,5832.44 4029.00,5824.82 4029.00,5824.82              4024.12,5822.47 4022.34,5822.83 4018.00,5821.40              4009.28,5818.55 4010.65,5817.05 4000.00,5817.00              4000.00,5817.00 3983.00,5817.00 3983.00,5817.00              3974.59,5817.10 3966.87,5819.95 3960.00,5824.78              3955.68,5827.83 3951.90,5831.75 3947.00,5833.93              3941.65,5836.31 3935.70,5835.94 3930.00,5836.00              3930.00,5836.00 3915.00,5837.00 3915.00,5837.00              3915.00,5837.00 3886.00,5834.00 3886.00,5834.00              3886.00,5834.00 3863.00,5834.00 3863.00,5834.00              3863.00,5834.00 3850.00,5834.64 3850.00,5834.64              3845.67,5834.12 3843.47,5832.19 3836.00,5832.17              3836.00,5832.17 3824.00,5832.17 3824.00,5832.17              3824.00,5832.17 3806.00,5832.17 3806.00,5832.17              3806.00,5832.17 3789.00,5834.00 3789.00,5834.00              3789.00,5834.00 3785.00,5834.00 3785.00,5834.00              3785.00,5834.00 3772.00,5833.00 3772.00,5833.00              3772.00,5833.00 3768.00,5833.00 3768.00,5833.00              3768.00,5833.00 3758.00,5832.05 3758.00,5832.05              3758.00,5832.05 3741.00,5832.05 3741.00,5832.05              3741.00,5832.05 3729.00,5832.82 3729.00,5832.82              3729.00,5832.82 3716.00,5831.08 3716.00,5831.08              3716.00,5831.08 3702.00,5831.08 3702.00,5831.08              3702.00,5831.08 3689.00,5830.03 3689.00,5830.03              3689.00,5830.03 3675.00,5831.91 3675.00,5831.91              3675.00,5831.91 3655.00,5831.91 3655.00,5831.91              3655.00,5831.91 3630.00,5830.09 3630.00,5830.09              3630.00,5830.09 3618.00,5830.82 3618.00,5830.82              3618.00,5830.82 3595.00,5829.00 3595.00,5829.00              3595.00,5829.00 3569.00,5829.68 3569.00,5829.68              3569.00,5829.68 3546.00,5829.00 3546.00,5829.00              3546.00,5829.00 3526.00,5830.00 3526.00,5830.00              3526.00,5830.00 3509.00,5828.03 3509.00,5828.03              3509.00,5828.03 3496.00,5829.91 3496.00,5829.91              3496.00,5829.91 3481.00,5829.00 3481.00,5829.00              3481.00,5829.00 3455.00,5828.00 3455.00,5828.00              3455.00,5828.00 3432.00,5825.70 3432.00,5825.70              3432.00,5825.70 3424.00,5824.17 3424.00,5824.17              3416.33,5823.35 3410.93,5825.00 3407.00,5824.79              3407.00,5824.79 3381.00,5821.09 3381.00,5821.09              3381.00,5821.09 3368.00,5821.09 3368.00,5821.09              3357.97,5820.98 3360.80,5819.92 3353.00,5818.47              3353.00,5818.47 3326.00,5816.04 3326.00,5816.04              3326.00,5816.04 3316.00,5816.04 3316.00,5816.04              3312.13,5816.35 3310.29,5817.15 3306.00,5816.91              3306.00,5816.91 3293.00,5816.01 3293.00,5816.01              3293.00,5816.01 3283.00,5816.66 3283.00,5816.66              3283.00,5816.66 3275.00,5815.00 3275.00,5815.00              3275.00,5815.00 3264.00,5815.00 3264.00,5815.00              3264.00,5815.00 3248.00,5812.08 3248.00,5812.08              3248.00,5812.08 3235.00,5812.08 3235.00,5812.08              3235.00,5812.08 3222.00,5811.00 3222.00,5811.00              3222.00,5811.00 3202.00,5810.00 3202.00,5810.00              3202.00,5810.00 3192.00,5811.04 3192.00,5811.04              3192.00,5811.04 3183.00,5811.04 3183.00,5811.04              3183.00,5811.04 3177.00,5811.82 3177.00,5811.82              3177.00,5811.82 3162.00,5810.09 3162.00,5810.09              3162.00,5810.09 3150.00,5810.09 3150.00,5810.09              3140.87,5810.11 3140.78,5811.96 3135.00,5812.79              3135.00,5812.79 3128.00,5813.46 3128.00,5813.46              3128.00,5813.46 3118.00,5816.06 3118.00,5816.06              3118.00,5816.06 3110.00,5816.06 3110.00,5816.06              3110.00,5816.06 3100.00,5818.54 3100.00,5818.54              3100.00,5818.54 3082.00,5820.00 3082.00,5820.00              3082.00,5820.00 3064.00,5819.04 3064.00,5819.04              3064.00,5819.04 3039.00,5822.00 3039.00,5822.00              3039.00,5822.00 3020.00,5822.00 3020.00,5822.00              3020.00,5822.00 3006.00,5822.91 3006.00,5822.91              3006.00,5822.91 2996.00,5822.05 2996.00,5822.05              2996.00,5822.05 2981.00,5822.05 2981.00,5822.05              2981.00,5822.05 2973.00,5822.92 2973.00,5822.92              2973.00,5822.92 2966.00,5822.17 2966.00,5822.17              2966.00,5822.17 2947.00,5821.00 2947.00,5821.00              2947.00,5821.00 2924.00,5821.00 2924.00,5821.00              2917.03,5821.09 2915.78,5822.35 2912.00,5822.53              2912.00,5822.53 2901.00,5822.00 2901.00,5822.00              2901.00,5822.00 2865.00,5822.00 2865.00,5822.00              2865.00,5822.00 2849.00,5821.04 2849.00,5821.04              2837.62,5821.42 2843.08,5820.64 2834.00,5819.07              2834.00,5819.07 2823.00,5819.07 2823.00,5819.07              2815.28,5818.06 2815.83,5816.89 2806.00,5817.00              2806.00,5817.00 2796.00,5817.96 2796.00,5817.96              2796.00,5817.96 2778.00,5817.96 2778.00,5817.96              2778.00,5817.96 2759.00,5816.00 2759.00,5816.00              2759.00,5816.00 2744.00,5816.00 2744.00,5816.00              2744.00,5816.00 2730.00,5815.00 2730.00,5815.00              2730.00,5815.00 2714.00,5815.69 2714.00,5815.69              2714.00,5815.69 2704.00,5812.92 2704.00,5812.92              2704.00,5812.92 2686.00,5810.09 2686.00,5810.09              2686.00,5810.09 2668.00,5811.00 2668.00,5811.00              2668.00,5811.00 2648.00,5811.82 2648.00,5811.82              2648.00,5811.82 2636.00,5811.00 2636.00,5811.00              2636.00,5811.00 2612.00,5811.00 2612.00,5811.00              2612.00,5811.00 2598.00,5811.91 2598.00,5811.91              2598.00,5811.91 2576.00,5810.04 2576.00,5810.04              2576.00,5810.04 2566.00,5810.82 2566.00,5810.82              2566.00,5810.82 2551.00,5809.71 2551.00,5809.71              2545.60,5809.01 2544.14,5808.08 2538.00,5808.00              2538.00,5808.00 2532.00,5808.00 2532.00,5808.00              2522.09,5807.88 2514.27,5803.83 2499.00,5804.00              2499.00,5804.00 2489.00,5804.74 2489.00,5804.74              2489.00,5804.74 2481.00,5803.15 2481.00,5803.15              2481.00,5803.15 2470.00,5803.15 2470.00,5803.15              2458.83,5802.95 2458.29,5800.02 2446.00,5800.00              2446.00,5800.00 2428.00,5800.68 2428.00,5800.68              2428.00,5800.68 2410.00,5799.91 2410.00,5799.91              2410.00,5799.91 2402.00,5799.04 2402.00,5799.04              2397.44,5798.86 2396.10,5799.44 2392.00,5799.83              2392.00,5799.83 2377.00,5801.08 2377.00,5801.08              2366.64,5802.90 2363.66,5804.98 2352.00,5804.77              2347.83,5805.01 2339.73,5805.23 2336.00,5804.77              2329.58,5803.33 2326.63,5800.66 2319.00,5801.09              2319.00,5801.09 2302.00,5802.66 2302.00,5802.66              2302.00,5802.66 2274.00,5800.00 2274.00,5800.00              2274.00,5800.00 2242.00,5800.00 2242.00,5800.00              2230.48,5799.98 2230.30,5797.63 2221.00,5796.15              2221.00,5796.15 2206.00,5796.15 2206.00,5796.15              2206.00,5796.15 2196.00,5795.04 2196.00,5795.04              2196.00,5795.04 2180.00,5795.04 2180.00,5795.04              2170.90,5795.01 2168.87,5796.61 2165.00,5796.66              2165.00,5796.66 2146.00,5795.01 2146.00,5795.01              2146.00,5795.01 2136.00,5795.96 2136.00,5795.96              2136.00,5795.96 2121.00,5795.96 2121.00,5795.96              2121.00,5795.96 2104.00,5795.04 2104.00,5795.04              2104.00,5795.04 2091.00,5797.19 2091.00,5797.19              2091.00,5797.19 2081.00,5797.19 2081.00,5797.19              2063.86,5796.92 2073.06,5796.51 2061.00,5792.91              2061.00,5792.91 2048.00,5789.48 2048.00,5789.48              2048.00,5789.48 2017.00,5780.00 2017.00,5780.00              2017.00,5780.00 2004.00,5777.89 2004.00,5777.89              2004.00,5777.89 1996.00,5777.89 1996.00,5777.89              1996.00,5777.89 1982.00,5774.30 1982.00,5774.30              1982.00,5774.30 1972.00,5773.73 1972.00,5773.73              1972.00,5773.73 1961.00,5769.68 1961.00,5769.68              1961.00,5769.68 1951.00,5768.05 1951.00,5768.05              1951.00,5768.05 1936.00,5762.17 1936.00,5762.17              1936.00,5762.17 1922.00,5758.12 1922.00,5758.12              1922.00,5758.12 1906.00,5750.22 1906.00,5750.22              1906.00,5750.22 1893.00,5747.17 1893.00,5747.17              1893.00,5747.17 1886.00,5746.61 1886.00,5746.61              1886.00,5746.61 1871.00,5740.93 1871.00,5740.93              1871.00,5740.93 1858.00,5739.07 1858.00,5739.07              1858.00,5739.07 1847.00,5735.43 1847.00,5735.43              1847.00,5735.43 1831.00,5732.37 1831.00,5732.37              1822.78,5730.09 1824.04,5728.78 1814.00,5729.01              1801.97,5729.29 1786.64,5739.46 1779.79,5749.00              1776.79,5753.17 1769.34,5765.56 1765.49,5768.01              1765.49,5768.01 1753.00,5771.03 1753.00,5771.03              1736.48,5776.25 1722.26,5777.81 1705.00,5778.00              1705.00,5778.00 1678.00,5778.00 1678.00,5778.00              1678.00,5778.00 1664.00,5778.90 1664.00,5778.90              1664.00,5778.90 1650.00,5776.14 1650.00,5776.14              1650.00,5776.14 1635.00,5776.14 1635.00,5776.14              1624.57,5776.02 1627.14,5777.07 1619.00,5778.63              1619.00,5778.63 1605.00,5779.17 1605.00,5779.17              1599.30,5779.78 1598.28,5781.24 1591.00,5780.96              1591.00,5780.96 1574.00,5778.13 1574.00,5778.13              1574.00,5778.13 1554.00,5775.00 1554.00,5775.00              1554.00,5775.00 1545.00,5775.00 1545.00,5775.00              1524.19,5772.60 1512.25,5762.03 1500.00,5758.22              1493.37,5756.16 1491.03,5757.50 1485.00,5757.28              1485.00,5757.28 1477.00,5756.09 1477.00,5756.09              1477.00,5756.09 1465.00,5756.09 1465.00,5756.09              1451.02,5756.17 1447.84,5762.34 1441.00,5765.88              1436.64,5768.14 1431.97,5767.72 1427.00,5769.56              1422.60,5771.18 1419.39,5773.98 1414.00,5775.39              1414.00,5775.39 1405.00,5776.93 1405.00,5776.93              1405.00,5776.93 1396.00,5780.08 1396.00,5780.08              1396.00,5780.08 1360.00,5787.47 1360.00,5787.47              1360.00,5787.47 1352.00,5789.63 1352.00,5789.63              1346.73,5790.63 1343.62,5789.09 1336.00,5791.16              1324.42,5794.29 1322.69,5800.46 1314.00,5803.07              1306.74,5805.24 1293.25,5808.91 1286.00,5809.00              1265.99,5809.23 1268.17,5812.36 1257.00,5813.84              1243.30,5815.66 1228.84,5815.16 1215.00,5815.00              1202.77,5814.85 1203.35,5810.02 1188.00,5810.00              1178.19,5809.98 1164.02,5811.05 1155.00,5808.03              1155.00,5808.03 1136.00,5800.76 1136.00,5800.76              1129.51,5797.46 1117.72,5789.77 1111.00,5787.93              1105.98,5786.55 1103.55,5787.31 1099.00,5786.83              1093.46,5786.23 1093.45,5785.09 1086.00,5785.00              1086.00,5785.00 1070.00,5785.82 1070.00,5785.82              1070.00,5785.82 1058.00,5785.01 1058.00,5785.01              1058.00,5785.01 1049.00,5785.70 1049.00,5785.70              1046.16,5785.47 1042.94,5783.73 1040.00,5782.93              1040.00,5782.93 1022.00,5778.19 1022.00,5778.19              1015.86,5775.85 1010.07,5771.61 1004.00,5770.47              1004.00,5770.47 993.00,5769.67 993.00,5769.67              993.00,5769.67 979.00,5765.46 979.00,5765.46              979.00,5765.46 970.00,5764.83 970.00,5764.83              970.00,5764.83 961.00,5763.00 961.00,5763.00              961.00,5763.00 953.00,5763.00 953.00,5763.00              953.00,5763.00 939.00,5760.17 939.00,5760.17              933.47,5759.63 931.75,5760.64 927.00,5760.91              917.03,5761.47 910.64,5756.14 899.00,5756.00              884.69,5755.84 877.83,5754.54 864.00,5750.41              864.00,5750.41 853.00,5746.68 853.00,5746.68              853.00,5746.68 839.00,5745.34 839.00,5745.34              829.95,5743.52 821.28,5740.90 812.00,5741.00              799.77,5741.14 791.56,5746.75 783.04,5755.09              779.82,5758.24 777.58,5762.28 773.91,5764.65              769.79,5767.30 752.94,5772.30 748.00,5772.53              748.00,5772.53 734.00,5772.00 734.00,5772.00              723.29,5772.02 723.84,5773.55 715.00,5774.71              715.00,5774.71 693.00,5776.17 693.00,5776.17              693.00,5776.17 682.00,5778.83 682.00,5778.83              682.00,5778.83 665.00,5780.30 665.00,5780.30              665.00,5780.30 650.00,5783.83 650.00,5783.83              650.00,5783.83 638.00,5784.47 638.00,5784.47              638.00,5784.47 626.00,5788.47 626.00,5788.47              626.00,5788.47 613.00,5789.17 613.00,5789.17              607.54,5789.77 604.83,5791.70 602.00,5792.10              602.00,5792.10 585.00,5792.10 585.00,5792.10              585.00,5792.10 543.00,5785.00 543.00,5785.00              538.14,5785.06 534.37,5785.57 530.00,5787.91              527.25,5789.39 523.81,5792.50 521.00,5792.95              518.57,5793.35 510.47,5790.66 507.00,5790.13              507.00,5790.13 495.00,5788.70 495.00,5788.70              495.00,5788.70 487.00,5786.94 487.00,5786.94              487.00,5786.94 475.00,5786.94 475.00,5786.94              475.00,5786.94 460.00,5784.07 460.00,5784.07              456.22,5782.49 454.74,5779.92 448.00,5777.91              437.51,5774.78 436.25,5776.74 429.00,5775.70              429.00,5775.70 415.00,5773.04 415.00,5773.04              407.55,5772.74 405.33,5774.51 401.00,5774.79              401.00,5774.79 390.00,5774.00 390.00,5774.00              374.55,5773.82 379.64,5773.11 367.00,5771.30              367.00,5771.30 359.00,5770.70 359.00,5770.70              359.00,5770.70 334.00,5765.09 334.00,5765.09              334.00,5765.09 314.00,5757.46 314.00,5757.46              314.00,5757.46 304.00,5754.19 304.00,5754.19              304.00,5754.19 272.00,5741.47 272.00,5741.47              272.00,5741.47 239.00,5724.58 239.00,5724.58              239.00,5724.58 227.00,5717.38 227.00,5717.38              223.57,5715.67 221.42,5715.38 218.00,5714.25              209.21,5711.34 209.23,5709.78 199.00,5710.01              182.60,5710.39 173.78,5718.21 168.00,5733.00              158.20,5730.13 144.90,5723.09 137.09,5716.48              137.09,5716.48 128.99,5708.17 128.99,5708.17              128.99,5708.17 117.31,5697.72 117.31,5697.72              113.70,5693.50 115.61,5689.86 111.52,5683.00              103.77,5669.99 92.32,5666.01 78.00,5666.00              79.83,5656.88 81.57,5647.32 81.96,5638.00              81.96,5638.00 81.21,5625.00 81.21,5625.00              81.51,5620.21 84.44,5613.77 83.91,5606.00              83.43,5598.99 80.73,5596.03 79.94,5593.00              79.94,5593.00 79.94,5583.00 79.94,5583.00              79.94,5583.00 77.55,5571.00 77.55,5571.00              76.95,5565.47 79.87,5559.99 78.70,5552.00              77.75,5545.54 74.18,5538.43 70.66,5533.00              68.67,5529.95 64.34,5524.67 64.72,5521.00              65.19,5516.34 76.71,5502.46 80.00,5497.00              80.00,5497.00 103.00,5504.52 103.00,5504.52              121.76,5510.85 137.84,5516.76 158.00,5517.00              163.11,5517.06 168.12,5517.25 173.00,5515.44              185.02,5511.00 191.90,5498.51 189.53,5486.00              187.54,5475.44 181.50,5474.10 176.34,5462.00              176.34,5462.00 171.39,5447.00 171.39,5447.00              171.39,5447.00 170.07,5438.00 170.07,5438.00              170.07,5438.00 165.08,5425.00 165.08,5425.00              162.13,5417.88 159.84,5417.04 156.71,5412.00              156.71,5412.00 150.28,5399.00 150.28,5399.00              147.52,5392.81 152.44,5387.92 148.07,5377.00              144.68,5368.52 137.47,5361.33 129.00,5357.93              129.00,5357.93 121.00,5355.45 121.00,5355.45              121.00,5355.45 111.00,5351.51 111.00,5351.51              103.77,5349.07 93.65,5349.33 90.70,5341.00              90.70,5341.00 88.78,5332.00 88.78,5332.00              88.78,5332.00 84.46,5318.00 84.46,5318.00              84.46,5318.00 81.79,5311.00 81.79,5311.00              81.79,5311.00 80.07,5302.00 80.07,5302.00              80.07,5302.00 74.51,5284.00 74.51,5284.00              74.51,5284.00 73.53,5273.00 73.53,5273.00              73.53,5273.00 71.22,5264.00 71.22,5264.00              71.22,5264.00 71.90,5242.00 71.90,5242.00              71.90,5233.39 69.86,5230.74 71.90,5221.00              73.70,5211.54 78.65,5204.97 77.91,5193.00              77.39,5184.56 73.78,5181.95 70.92,5175.00              68.20,5168.37 67.49,5161.11 67.09,5154.00              67.09,5154.00 67.99,5142.00 67.99,5142.00              67.99,5142.00 67.04,5127.00 67.04,5127.00              67.04,5127.00 68.98,5106.00 68.98,5106.00              68.98,5106.00 67.00,5082.00 67.00,5082.00              67.00,5082.00 67.00,5073.00 67.00,5073.00              67.00,5073.00 67.99,5058.00 67.99,5058.00              67.99,5058.00 65.91,5034.00 65.91,5034.00              65.91,5034.00 65.91,5010.00 65.91,5010.00              65.91,5010.00 65.91,5002.00 65.91,5002.00              65.91,5002.00 66.91,4995.00 66.91,4995.00              66.91,4995.00 66.91,4984.00 66.91,4984.00              66.91,4984.00 66.00,4968.00 66.00,4968.00              66.00,4968.00 65.00,4922.00 65.00,4922.00              65.00,4922.00 63.19,4898.00 63.19,4898.00              63.70,4891.77 66.29,4888.78 65.77,4880.00              65.77,4880.00 65.77,4873.00 65.77,4873.00              65.77,4873.00 65.77,4865.00 65.77,4865.00              65.77,4865.00 65.00,4858.00 65.00,4858.00              65.00,4858.00 65.00,4847.00 65.00,4847.00              65.00,4847.00 64.03,4838.00 64.03,4838.00              64.03,4838.00 65.91,4821.00 65.91,4821.00              65.91,4821.00 65.00,4811.00 65.00,4811.00              65.00,4811.00 65.00,4790.00 65.00,4790.00              65.00,4790.00 67.84,4760.00 67.84,4760.00              67.84,4760.00 67.84,4730.00 67.84,4730.00              67.84,4730.00 67.84,4722.00 67.84,4722.00              67.84,4722.00 66.96,4710.00 66.96,4710.00              66.96,4710.00 66.96,4697.00 66.96,4697.00              66.96,4697.00 65.21,4682.00 65.21,4682.00              65.52,4677.21 70.98,4664.10 71.08,4650.00              71.08,4650.00 71.08,4637.00 71.08,4637.00              71.08,4637.00 73.96,4614.00 73.96,4614.00              73.80,4609.78 72.44,4605.19 73.27,4601.00              74.08,4596.98 76.64,4594.74 78.45,4590.00              80.78,4583.87 82.86,4573.55 82.98,4567.00              83.14,4559.23 81.81,4558.93 81.17,4553.00              80.52,4546.96 80.80,4542.18 79.07,4536.00              77.61,4530.74 75.20,4528.81 74.18,4524.00              74.18,4524.00 72.53,4510.00 72.53,4510.00              71.56,4504.81 69.53,4501.98 69.09,4496.00              68.61,4489.47 69.51,4486.85 69.95,4481.00              69.95,4481.00 69.95,4469.00 69.95,4469.00              69.95,4469.00 68.83,4449.00 68.83,4449.00              68.83,4449.00 67.26,4440.00 67.26,4440.00              67.26,4440.00 69.96,4416.00 69.96,4416.00              69.96,4416.00 68.00,4392.00 68.00,4392.00              67.84,4377.68 71.63,4378.84 71.96,4369.00              72.21,4361.32 69.31,4357.62 69.84,4352.00              69.84,4352.00 70.96,4345.00 70.96,4345.00              70.96,4345.00 70.96,4319.00 70.96,4319.00              70.96,4319.00 71.96,4302.00 71.96,4302.00              71.59,4293.25 69.83,4293.60 70.00,4279.00              70.00,4279.00 72.99,4253.00 72.99,4253.00              72.99,4253.00 69.17,4233.00 69.17,4233.00              69.17,4233.00 70.00,4207.00 70.00,4207.00              70.00,4207.00 71.00,4171.00 71.00,4171.00              71.00,4171.00 70.09,4158.00 70.09,4158.00              70.09,4158.00 71.96,4146.00 71.96,4146.00              71.96,4146.00 71.09,4133.00 71.09,4133.00              71.47,4126.89 73.21,4126.70 72.99,4117.00              72.99,4117.00 70.96,4098.00 70.96,4098.00              70.96,4098.00 70.96,4084.00 70.96,4084.00              70.96,4084.00 70.10,4075.00 70.10,4075.00              70.35,4069.99 71.91,4068.51 72.00,4061.00              72.00,4061.00 71.00,4037.00 71.00,4037.00              71.00,4037.00 70.34,4028.00 70.34,4028.00              70.34,4028.00 71.00,4019.00 71.00,4019.00              71.14,4006.55 68.38,4000.11 68.10,3994.00              68.10,3994.00 69.00,3980.00 69.00,3980.00              69.00,3980.00 69.00,3937.00 69.00,3937.00              69.00,3937.00 69.91,3924.00 69.91,3924.00              69.91,3924.00 69.00,3912.00 69.00,3912.00              69.00,3912.00 70.00,3850.00 70.00,3850.00              70.00,3850.00 68.03,3829.00 68.03,3829.00              68.06,3823.26 72.50,3812.66 71.91,3803.00              71.91,3803.00 67.31,3784.00 67.31,3784.00              67.31,3784.00 68.00,3765.00 68.00,3765.00              68.00,3765.00 68.97,3753.00 68.97,3753.00              68.97,3753.00 68.01,3739.00 68.01,3739.00              68.01,3739.00 68.91,3727.00 68.91,3727.00              68.91,3727.00 66.00,3700.00 66.00,3700.00              66.00,3700.00 64.00,3679.00 64.00,3679.00              64.00,3679.00 63.00,3650.00 63.00,3650.00              63.08,3643.86 64.01,3642.40 64.71,3637.00              64.71,3637.00 65.91,3612.00 65.91,3612.00              65.51,3605.48 61.61,3597.12 62.18,3589.00              62.18,3589.00 63.96,3567.00 63.96,3567.00              63.96,3567.00 62.30,3557.00 62.30,3557.00              62.30,3557.00 61.46,3545.00 61.46,3545.00              61.41,3541.31 62.89,3537.63 63.54,3534.00              63.54,3534.00 65.91,3513.00 65.91,3513.00              65.52,3506.68 62.59,3501.98 62.49,3498.00              62.49,3498.00 64.00,3481.00 64.00,3481.00              64.00,3481.00 63.21,3462.00 63.21,3462.00              63.21,3462.00 65.91,3437.00 65.91,3437.00              65.71,3433.53 64.91,3431.80 65.18,3428.00              65.18,3428.00 67.91,3399.00 67.91,3399.00              67.45,3388.38 70.33,3388.20 69.96,3379.00              69.69,3372.26 68.02,3372.41 68.00,3362.00              67.97,3341.85 66.68,3347.80 65.08,3332.00              65.08,3332.00 65.08,3314.00 65.08,3314.00              65.08,3314.00 64.09,3299.00 64.09,3299.00              64.09,3299.00 64.96,3292.00 64.96,3292.00              64.96,3292.00 64.96,3275.00 64.96,3275.00              64.96,3275.00 63.34,3258.00 63.34,3258.00              63.77,3253.58 65.24,3251.92 64.91,3246.00              64.91,3246.00 64.00,3229.00 64.00,3229.00              64.00,3229.00 65.00,3212.00 65.00,3212.00              65.02,3199.61 65.87,3201.94 66.92,3192.00              66.92,3192.00 66.92,3183.00 66.92,3183.00              66.92,3183.00 68.00,3164.00 68.00,3164.00              67.88,3154.52 65.83,3154.29 64.23,3147.00              63.79,3143.39 63.96,3134.09 64.23,3130.00              64.23,3130.00 65.91,3105.00 65.91,3105.00              65.91,3105.00 64.30,3096.00 64.30,3096.00              64.30,3096.00 63.34,3079.00 63.34,3079.00              63.39,3075.12 64.99,3073.10 65.00,3064.00              65.00,3064.00 63.87,3047.00 63.87,3047.00              63.87,3047.00 63.87,3026.00 63.87,3026.00              63.87,3026.00 63.87,3015.00 63.87,3015.00              63.87,3015.00 65.00,2992.00 65.00,2992.00              65.00,2992.00 65.91,2977.00 65.91,2977.00              65.91,2977.00 65.18,2970.00 65.18,2970.00              65.18,2970.00 65.99,2960.00 65.99,2960.00              65.99,2960.00 65.32,2949.00 65.32,2949.00              65.32,2949.00 66.00,2938.00 66.00,2938.00              66.00,2938.00 65.00,2925.00 65.00,2925.00              65.00,2925.00 65.00,2906.00 65.00,2906.00              65.00,2906.00 63.34,2886.00 63.34,2886.00              63.34,2886.00 66.91,2865.00 66.91,2865.00              67.34,2858.30 65.53,2851.62 64.90,2845.00              64.90,2845.00 64.90,2835.00 64.90,2835.00              64.90,2835.00 62.00,2798.00 62.00,2798.00              62.00,2798.00 62.00,2773.00 62.00,2773.00              62.00,2773.00 61.37,2763.00 61.37,2763.00              61.37,2763.00 63.00,2747.00 63.00,2747.00              63.00,2747.00 63.00,2721.00 63.00,2721.00              63.00,2721.00 64.00,2706.00 64.00,2706.00              64.00,2706.00 62.00,2677.00 62.00,2677.00              62.00,2677.00 62.00,2662.00 62.00,2662.00              62.03,2645.95 65.56,2648.17 68.07,2639.00              69.32,2634.45 69.05,2627.82 69.00,2623.00              68.88,2613.33 67.00,2613.70 64.93,2606.00              63.78,2601.73 63.01,2592.55 63.00,2588.00              63.00,2588.00 63.00,2582.00 63.00,2582.00              63.00,2582.00 61.18,2557.00 61.18,2557.00              61.18,2557.00 61.96,2549.00 61.96,2549.00              61.96,2549.00 61.18,2537.00 61.18,2537.00              61.18,2537.00 61.96,2529.00 61.96,2529.00              61.96,2529.00 61.37,2519.00 61.37,2519.00              61.37,2519.00 62.91,2500.00 62.91,2500.00              62.53,2493.49 61.02,2493.13 61.09,2483.00              61.09,2483.00 61.09,2467.00 61.09,2467.00              61.92,2459.99 62.98,2461.93 63.00,2452.00              63.00,2452.00 63.00,2419.00 63.00,2419.00              63.00,2419.00 62.18,2407.00 62.18,2407.00              62.18,2407.00 63.00,2396.00 63.00,2396.00              63.00,2396.00 63.00,2372.00 63.00,2372.00              63.00,2372.00 63.96,2358.00 63.96,2358.00              63.96,2358.00 62.93,2349.00 62.93,2349.00              62.93,2349.00 62.93,2335.00 62.93,2335.00              62.93,2335.00 61.33,2326.00 61.33,2326.00              61.33,2326.00 63.00,2310.00 63.00,2310.00              63.00,2310.00 63.00,2295.00 63.00,2295.00              63.00,2295.00 64.08,2280.00 64.08,2280.00              64.08,2280.00 64.08,2264.00 64.08,2264.00              64.67,2258.95 66.24,2255.44 65.91,2250.00              65.59,2244.91 63.08,2239.46 63.39,2235.00              63.39,2235.00 64.83,2227.00 64.83,2227.00              64.83,2227.00 65.91,2201.00 65.91,2201.00              65.91,2201.00 63.19,2186.00 63.19,2186.00              63.29,2181.16 66.23,2178.23 65.96,2170.00              65.77,2164.23 64.11,2161.79 63.32,2157.00              63.32,2157.00 62.00,2136.00 62.00,2136.00              62.00,2136.00 62.00,2085.00 62.00,2085.00              61.98,2074.12 60.10,2073.95 59.87,2068.00              59.87,2068.00 59.87,2043.00 59.87,2043.00              59.87,2043.00 58.75,2023.00 58.75,2023.00              58.75,2023.00 58.75,2009.00 58.75,2009.00              58.75,2009.00 57.84,1996.00 57.84,1996.00              57.84,1996.00 58.96,1988.00 58.96,1988.00              59.14,1983.48 58.56,1982.07 57.94,1978.00              57.94,1978.00 57.94,1965.00 57.94,1965.00              57.94,1965.00 58.96,1950.00 58.96,1950.00              58.96,1950.00 58.96,1933.00 58.96,1933.00              58.96,1933.00 57.83,1925.00 57.83,1925.00              57.83,1925.00 57.83,1915.00 57.83,1915.00              57.83,1915.00 57.83,1887.00 57.83,1887.00              57.83,1887.00 57.83,1879.00 57.83,1879.00              57.70,1874.38 60.32,1868.68 59.91,1862.00              59.91,1862.00 57.01,1845.00 57.01,1845.00              56.66,1829.51 62.98,1820.64 62.97,1809.00              62.97,1800.58 60.05,1800.10 60.00,1790.00              60.00,1790.00 58.09,1759.00 58.09,1759.00              58.09,1759.00 61.72,1725.00 61.72,1725.00              61.72,1725.00 61.72,1702.00 61.72,1702.00              61.72,1702.00 58.30,1691.00 58.30,1691.00              57.88,1685.85 61.32,1677.63 60.91,1671.00              60.41,1662.94 57.13,1662.14 57.05,1653.00              57.05,1653.00 57.05,1642.00 57.05,1642.00              57.35,1638.15 58.15,1636.24 57.91,1632.00              57.91,1632.00 56.66,1623.00 56.66,1623.00              56.66,1623.00 56.66,1594.00 56.66,1594.00              56.77,1589.23 58.19,1588.70 57.99,1580.00              57.85,1574.02 56.66,1572.64 56.39,1569.00              56.39,1569.00 57.00,1558.00 57.00,1558.00              57.00,1558.00 57.00,1542.00 57.00,1542.00              57.00,1542.00 54.00,1502.00 54.00,1502.00              54.00,1502.00 53.00,1473.00 53.00,1473.00              53.00,1473.00 53.91,1463.00 53.91,1463.00              53.91,1463.00 53.18,1451.00 53.18,1451.00              53.18,1451.00 54.00,1438.00 54.00,1438.00              54.00,1438.00 53.10,1426.00 53.10,1426.00              53.10,1426.00 55.04,1406.00 55.04,1406.00              55.04,1406.00 55.04,1391.00 55.04,1391.00              55.04,1391.00 56.00,1379.00 56.00,1379.00              56.00,1379.00 56.00,1363.00 56.00,1363.00              56.00,1363.00 54.38,1350.00 54.38,1350.00              54.54,1345.19 57.14,1344.81 57.00,1332.00              57.00,1332.00 56.00,1319.00 56.00,1319.00              56.00,1319.00 56.00,1302.00 56.00,1302.00              56.00,1302.00 55.32,1289.00 55.32,1289.00              55.56,1285.83 56.11,1284.59 55.91,1281.00              55.56,1274.85 54.04,1265.27 56.57,1259.28              57.48,1257.11 60.64,1254.20 62.21,1252.00              65.59,1247.26 67.27,1241.83 66.91,1236.00              66.23,1225.05 59.79,1222.20 59.18,1216.00              59.18,1216.00 60.00,1203.00 60.00,1203.00              60.00,1203.00 60.00,1168.00 60.00,1168.00              60.00,1168.00 58.86,1153.00 58.86,1153.00              58.86,1153.00 58.86,1142.00 58.86,1142.00              58.86,1142.00 58.86,1113.00 58.86,1113.00              58.86,1113.00 57.61,1092.00 57.61,1092.00              57.61,1092.00 59.85,1082.00 59.85,1082.00              59.85,1082.00 59.85,1066.00 59.85,1066.00              59.85,1066.00 58.04,1043.00 58.04,1043.00              58.04,1043.00 58.04,1028.00 58.04,1028.00              58.04,1028.00 58.99,1016.00 58.99,1016.00              58.99,1016.00 58.00,1004.00 58.00,1004.00              58.00,1004.00 58.00,979.00 58.00,979.00              58.00,979.00 59.91,949.00 59.91,949.00              59.91,949.00 58.00,923.00 58.00,923.00              58.00,923.00 58.00,905.00 58.00,905.00              58.00,905.00 58.95,895.00 58.95,895.00              58.95,895.00 58.95,882.00 58.95,882.00              58.95,882.00 58.04,872.00 58.04,872.00              58.04,872.00 58.04,860.00 58.04,860.00              58.04,860.00 59.00,838.00 59.00,838.00              59.00,838.00 58.05,828.00 58.05,828.00              58.05,828.00 58.05,809.00 58.05,809.00              58.05,809.00 59.00,794.00 59.00,794.00              59.00,794.00 59.00,763.00 59.00,763.00              59.00,763.00 60.00,747.00 60.00,747.00              60.00,747.00 58.18,726.00 58.18,726.00              57.91,722.20 58.71,720.47 58.91,717.00              58.91,717.00 58.00,704.00 58.00,704.00              58.00,704.00 59.99,680.00 59.99,680.00              59.99,680.00 58.04,662.00 58.04,662.00              58.04,662.00 58.96,647.00 58.96,647.00              58.96,647.00 57.18,619.00 57.18,619.00              57.18,619.00 58.96,606.00 58.96,606.00              58.96,606.00 57.18,585.00 57.18,585.00              57.18,585.00 58.87,568.00 58.87,568.00              58.87,568.00 58.87,551.00 58.87,551.00              58.87,551.00 59.95,538.00 59.95,538.00              59.95,538.00 59.95,521.00 59.95,521.00              59.95,521.00 59.00,502.00 59.00,502.00              59.00,502.00 57.00,479.00 57.00,479.00              57.00,479.00 57.00,452.00 57.00,452.00              57.00,452.00 59.00,420.00 59.00,420.00              59.00,420.00 60.99,391.00 60.99,391.00              60.81,383.13 58.79,381.84 59.01,372.00              59.01,372.00 59.91,360.00 59.91,360.00              59.91,360.00 58.92,352.00 58.92,352.00              58.92,352.00 58.92,343.00 58.92,343.00              58.92,343.00 58.92,326.00 58.92,326.00              59.01,316.43 61.83,309.09 63.53,300.00              63.53,300.00 64.96,285.00 64.96,285.00              65.33,273.20 59.51,271.35 60.09,261.00              60.93,246.23 68.59,247.57 67.96,232.00              67.45,219.40 62.44,223.40 61.81,207.00              61.43,197.05 66.79,191.91 71.10,184.00              77.35,172.55 79.00,169.04 79.00,156.00              96.09,156.00 98.97,162.99 115.00,163.91              120.99,164.25 126.09,162.62 131.00,159.22              134.31,156.92 138.52,152.62 143.00,153.77              146.65,154.71 150.72,160.89 154.01,163.67              159.70,168.48 167.55,171.21 175.00,170.96              185.62,170.60 191.40,165.29 200.00,160.76              200.00,160.76 225.00,151.83 225.00,151.83              230.55,150.77 239.23,152.74 245.00,152.96              245.00,152.96 279.00,148.51 279.00,148.51              279.00,148.51 298.00,150.00 298.00,150.00              298.00,150.00 309.00,149.02 309.00,149.02              309.00,149.02 326.00,149.02 326.00,149.02              326.00,149.02 339.00,148.08 339.00,148.08              339.00,148.08 348.00,148.96 348.00,148.96              348.00,148.96 376.00,145.46 376.00,145.46              376.00,145.46 387.00,144.70 387.00,144.70              387.00,144.70 414.00,139.07 414.00,139.07              418.92,137.72 420.78,135.75 424.00,134.70              427.91,133.42 434.66,134.55 443.00,129.52              449.26,125.75 454.34,119.00 460.00,114.06              467.38,107.63 482.68,97.66 492.00,94.60              504.20,90.58 505.68,93.19 517.00,93.91              517.00,93.91 529.00,93.32 529.00,93.32              529.00,93.32 556.00,96.00 556.00,96.00              556.00,96.00 588.00,99.39 588.00,99.39              592.86,100.42 593.58,102.31 605.00,103.71              605.00,103.71 630.00,102.80 630.00,102.80              633.82,103.03 638.21,105.10 642.00,106.08              642.00,106.08 652.00,107.39 652.00,107.39              652.00,107.39 666.00,112.08 666.00,112.08              666.00,112.08 676.00,113.39 676.00,113.39              676.00,113.39 691.00,118.61 691.00,118.61              697.31,121.12 701.43,125.10 709.00,126.53              716.12,127.88 721.18,126.08 728.00,126.00              728.00,126.00 740.00,126.00 740.00,126.00              740.00,126.00 761.00,128.98 761.00,128.98              770.15,129.16 772.07,126.61 778.00,127.31              778.00,127.31 811.00,132.99 811.00,132.99              811.00,132.99 828.00,130.72 828.00,130.72              828.00,130.72 855.00,132.88 855.00,132.88              855.00,132.88 864.00,132.88 864.00,132.88              864.00,132.88 873.00,134.06 873.00,134.06              873.00,134.06 881.00,134.06 881.00,134.06              887.51,135.14 888.24,137.94 900.00,138.00              900.00,138.00 918.00,137.18 918.00,137.18              918.00,137.18 931.00,138.00 931.00,138.00              931.00,138.00 945.00,138.00 945.00,138.00              945.00,138.00 961.00,139.00 961.00,139.00              961.00,139.00 995.00,138.00 995.00,138.00              995.00,138.00 1028.00,140.00 1028.00,140.00              1028.00,140.00 1046.00,140.00 1046.00,140.00              1053.51,139.91 1060.63,137.35 1068.00,136.30              1068.00,136.30 1097.00,135.18 1097.00,135.18              1103.11,135.26 1105.33,138.87 1116.00,139.00              1120.59,139.05 1124.55,139.17 1129.00,137.78              1133.23,136.46 1136.74,133.86 1141.00,133.21              1141.00,133.21 1152.00,132.54 1152.00,132.54              1152.00,132.54 1168.00,129.07 1168.00,129.07              1168.00,129.07 1176.00,129.07 1176.00,129.07              1179.16,128.53 1180.58,127.94 1184.00,128.18              1184.00,128.18 1197.00,129.00 1197.00,129.00              1206.91,128.88 1215.23,124.64 1222.00,124.21              1222.00,124.21 1232.00,124.98 1232.00,124.98              1236.89,125.08 1237.70,124.58 1242.00,124.04              1242.00,124.04 1250.00,124.04 1250.00,124.04              1250.00,124.04 1262.00,121.82 1262.00,121.82              1265.71,122.21 1268.44,125.61 1277.00,125.96              1290.39,126.50 1292.54,120.37 1300.00,119.21              1300.00,119.21 1332.00,117.08 1332.00,117.08              1332.00,117.08 1342.00,117.97 1342.00,117.97              1342.00,117.97 1356.00,117.00 1356.00,117.00              1356.00,117.00 1378.00,117.00 1378.00,117.00              1378.00,117.00 1392.00,115.84 1392.00,115.84              1397.79,116.38 1399.35,117.47 1406.00,116.83              1406.00,116.83 1442.00,112.18 1442.00,112.18              1442.00,112.18 1458.00,113.30 1458.00,113.30              1458.00,113.30 1466.00,114.91 1466.00,114.91              1466.00,114.91 1490.00,114.91 1490.00,114.91              1490.00,114.91 1524.00,112.21 1524.00,112.21              1524.00,112.21 1538.00,113.00 1538.00,113.00              1538.00,113.00 1554.00,111.17 1554.00,111.17              1554.00,111.17 1580.00,110.00 1580.00,110.00              1580.00,110.00 1599.00,108.00 1599.00,108.00              1599.00,108.00 1621.00,106.83 1621.00,106.83              1626.09,106.23 1628.28,104.77 1634.00,105.09              1634.00,105.09 1655.00,106.96 1655.00,106.96              1655.00,106.96 1667.00,106.96 1667.00,106.96              1667.00,106.96 1678.00,106.00 1678.00,106.00              1678.00,106.00 1698.00,106.00 1698.00,106.00              1698.00,106.00 1715.00,105.00 1715.00,105.00              1715.00,105.00 1744.00,106.00 1744.00,106.00              1754.08,105.88 1765.25,99.38 1775.00,100.19              1781.08,100.69 1784.00,102.98 1796.00,102.91              1796.00,102.91 1808.00,102.91 1808.00,102.91              1814.57,102.12 1814.00,100.81 1823.00,101.01              1823.00,101.01 1839.00,103.57 1839.00,103.57              1839.00,103.57 1848.00,104.17 1848.00,104.17              1848.00,104.17 1858.00,105.83 1858.00,105.83              1858.00,105.83 1880.00,107.00 1880.00,107.00              1880.00,107.00 1893.00,106.32 1893.00,106.32              1893.00,106.32 1927.00,108.96 1927.00,108.96              1927.00,108.96 1940.00,107.06 1940.00,107.06              1940.00,107.06 1951.00,107.06 1951.00,107.06              1951.00,107.06 1963.00,105.37 1963.00,105.37              1963.00,105.37 1974.00,106.00 1974.00,106.00              1974.00,106.00 1992.00,105.18 1992.00,105.18              1992.00,105.18 2006.00,106.00 2006.00,106.00              2006.00,106.00 2023.00,105.00 2023.00,105.00              2023.00,105.00 2051.00,103.00 2051.00,103.00              2051.00,103.00 2071.00,101.70 2071.00,101.70              2079.13,100.53 2077.18,99.02 2088.00,99.00              2088.00,99.00 2103.00,99.00 2103.00,99.00              2103.00,99.00 2114.00,97.87 2114.00,97.87              2114.00,97.87 2124.00,97.87 2124.00,97.87              2124.00,97.87 2149.00,90.67 2149.00,90.67              2153.55,89.73 2160.22,89.95 2165.00,90.00              2165.00,90.00 2177.00,90.97 2177.00,90.97              2177.00,90.97 2186.00,90.04 2186.00,90.04              2186.00,90.04 2200.00,90.04 2200.00,90.04              2212.87,89.98 2217.29,87.10 2223.00,86.88              2223.00,86.88 2234.00,86.88 2234.00,86.88              2234.00,86.88 2250.00,86.88 2250.00,86.88              2250.00,86.88 2266.00,86.00 2266.00,86.00              2266.00,86.00 2289.00,86.00 2289.00,86.00              2289.00,86.00 2301.00,85.09 2301.00,85.09              2301.00,85.09 2330.00,84.00 2330.00,84.00              2330.00,84.00 2347.00,85.00 2347.00,85.00              2347.00,85.00 2368.00,83.04 2368.00,83.04              2368.00,83.04 2377.00,83.74 2377.00,83.74              2377.00,83.74 2393.00,83.74 2393.00,83.74              2393.00,83.74 2417.00,85.00 2417.00,85.00              2417.00,85.00 2437.00,83.09 2437.00,83.09              2437.00,83.09 2479.00,81.00 2479.00,81.00              2479.00,81.00 2501.00,80.00 2501.00,80.00              2501.00,80.00 2516.00,79.00 2516.00,79.00              2516.00,79.00 2538.00,79.00 2538.00,79.00              2538.00,79.00 2559.00,78.00 2559.00,78.00              2559.00,78.00 2579.00,79.91 2579.00,79.91              2579.00,79.91 2597.00,78.34 2597.00,78.34              2597.00,78.34 2606.00,78.96 2606.00,78.96              2606.00,78.96 2617.00,78.09 2617.00,78.09              2617.00,78.09 2634.00,79.00 2634.00,79.00              2643.29,78.89 2641.68,76.84 2656.00,77.00              2656.00,77.00 2689.00,80.00 2689.00,80.00              2689.00,80.00 2713.00,79.00 2713.00,79.00              2719.97,78.91 2721.22,77.65 2725.00,77.47              2725.00,77.47 2736.00,78.00 2736.00,78.00              2736.00,78.00 2752.00,78.00 2752.00,78.00              2752.00,78.00 2775.00,77.00 2775.00,77.00              2775.00,77.00 2801.00,75.37 2801.00,75.37              2801.00,75.37 2815.00,75.96 2815.00,75.96              2815.00,75.96 2826.00,74.83 2826.00,74.83              2826.00,74.83 2842.00,74.83 2842.00,74.83              2842.00,74.83 2852.00,74.83 2852.00,74.83              2852.00,74.83 2860.00,74.83 2860.00,74.83              2860.00,74.83 2890.00,77.00 2890.00,77.00              2890.00,77.00 2920.00,77.00 2920.00,77.00              2920.00,77.00 2942.00,75.00 2942.00,75.00              2942.00,75.00 2975.00,73.91 2975.00,73.91              2975.00,73.91 2989.00,72.87 2989.00,72.87              2989.00,72.87 3007.00,72.87 3007.00,72.87              3007.00,72.87 3022.00,73.96 3022.00,73.96              3022.00,73.96 3039.00,73.96 3039.00,73.96              3039.00,73.96 3050.00,73.00 3050.00,73.00              3050.00,73.00 3069.00,73.00 3069.00,73.00              3079.22,72.98 3080.64,71.31 3090.00,69.61              3095.34,68.64 3100.84,68.28 3106.00,66.45              3106.00,66.45 3120.00,60.00 3120.00,60.00              3124.29,65.66 3126.61,67.86 3133.00,71.00              3132.56,74.34 3131.88,77.62 3132.09,81.00              3132.77,91.96 3141.46,102.19 3152.00,105.07              3155.71,106.09 3159.20,106.04 3163.00,106.00              3168.78,105.93 3173.06,105.13 3178.00,101.89              3178.00,101.89 3186.28,95.57 3186.28,95.57              3188.30,94.72 3196.54,94.03 3199.00,94.00              3213.38,93.84 3215.64,92.67 3228.00,101.63              3236.61,107.87 3240.84,117.24 3253.00,119.53              3271.06,122.95 3286.72,110.74 3285.96,92.00              3285.66,84.68 3283.28,81.20 3280.00,75.00 Z            M 4049.00,186.39            C 4039.42,189.49 4039.99,194.40 4040.00,203.00              4040.00,205.69 4039.90,208.39 4040.63,211.00              4041.68,214.69 4044.18,217.74 4044.01,222.00              4043.89,224.86 4040.42,232.19 4039.29,236.00              4039.29,236.00 4036.50,247.00 4036.50,247.00              4035.83,252.22 4038.08,254.46 4038.45,259.00              4038.45,259.00 4038.45,267.00 4038.45,267.00              4038.56,274.58 4041.38,283.27 4050.00,283.76              4051.50,284.01 4053.53,283.95 4055.00,283.76              4061.84,282.03 4064.28,275.11 4068.16,270.04              4073.67,262.84 4078.23,262.67 4081.39,257.96              4083.74,253.76 4081.92,250.67 4081.39,247.00              4081.26,242.24 4083.47,236.90 4079.59,230.04              4077.21,225.85 4072.98,223.75 4071.31,219.00              4070.07,215.46 4071.40,213.01 4070.70,208.00              4068.91,195.18 4063.55,184.42 4049.00,186.39 Z            M 3501.00,233.40            C 3491.32,236.54 3491.31,245.92 3497.13,250.44              3500.80,253.29 3506.58,253.02 3511.00,253.00              3513.05,252.99 3516.01,253.07 3517.89,252.26              3523.77,249.74 3522.16,242.05 3518.61,238.22              3514.72,234.03 3506.45,232.77 3501.00,233.40 Z            M 4984.00,435.43            C 4976.69,437.60 4966.56,446.05 4961.00,447.19              4961.00,447.19 4943.00,446.20 4943.00,446.20              4938.05,446.68 4933.46,449.46 4929.00,450.47              4926.01,451.15 4922.80,450.76 4920.00,452.17              4916.45,453.97 4913.67,458.10 4910.91,460.99              4905.17,467.00 4902.57,467.28 4897.43,475.00              4894.28,479.73 4888.33,486.13 4889.24,491.98              4890.37,499.24 4895.52,495.78 4904.00,503.18              4904.00,503.18 4917.00,514.76 4917.00,514.76              4917.00,514.76 4929.00,522.61 4929.00,522.61              4933.54,525.98 4935.90,529.62 4941.00,532.65              4941.00,532.65 4958.00,539.84 4958.00,539.84              4965.49,544.55 4968.84,556.81 4978.00,554.55              4985.85,552.62 4984.86,543.01 4987.95,536.00              4993.38,523.70 4991.88,521.72 4993.17,509.00              4993.17,509.00 4994.74,499.00 4994.74,499.00              4994.74,499.00 4994.10,490.00 4994.10,490.00              4994.24,486.84 4994.94,485.53 4994.68,482.00              4994.68,482.00 4994.01,472.00 4994.01,472.00              4994.01,472.00 4994.91,460.00 4994.91,460.00              4994.91,460.00 4994.10,451.00 4994.10,451.00              4994.35,445.46 4998.22,434.56 4984.00,435.43 Z"
            style="fill:#000000;fill-opacity:1"/>
</svg>
